<?xml version="1.0" encoding="utf-8" standalone="no"?>
<!DOCTYPE svg PUBLIC "-//W3C//DTD SVG 1.1//EN"
  "http://www.w3.org/Graphics/SVG/1.1/DTD/svg11.dtd">
<svg height="501.47677pt" version="1.1" viewBox="0 0 835.189687 501.47677" width="835.189687pt" xmlns="http://www.w3.org/2000/svg" xmlns:xlink="http://www.w3.org/1999/xlink">
 <metadata>
  <rdf:RDF xmlns:cc="http://creativecommons.org/ns#" xmlns:dc="http://purl.org/dc/elements/1.1/" xmlns:rdf="http://www.w3.org/1999/02/22-rdf-syntax-ns#">
   <cc:Work>
    <dc:type rdf:resource="http://purl.org/dc/dcmitype/StillImage"/>
    <dc:date>2022-05-07T15:00:34.869479</dc:date>
    <dc:format>image/svg+xml</dc:format>
    <dc:creator>
     <cc:Agent>
      <dc:title>Matplotlib v3.4.3, https://matplotlib.org/</dc:title>
     </cc:Agent>
    </dc:creator>
   </cc:Work>
  </rdf:RDF>
 </metadata>
 <defs>
  <style type="text/css">*{stroke-linecap:butt;stroke-linejoin:round;}</style>
 </defs>
 <g id="figure_1">
  <g id="patch_1">
   <path d="M 0 501.47677 
L 835.189687 501.47677 
L 835.189687 0 
L 0 0 
z
" style="fill:#ffffff;stroke:#ffffff;stroke-linejoin:miter;"/>
  </g>
  <g id="axes_1">
   <g id="patch_2">
    <path d="M 46.789688 234.334082 
L 410.138525 234.334082 
L 410.138525 22.244082 
L 46.789688 22.244082 
z
" style="fill:#ebebeb;"/>
   </g>
   <g id="matplotlib.axis_1">
    <g id="xtick_1">
     <g id="line2d_1">
      <path clip-path="url(#pc63a4dbb03)" d="M 63.305544 234.334082 
L 63.305544 22.244082 
" style="fill:none;stroke:#ffffff;"/>
     </g>
    </g>
    <g id="xtick_2">
     <g id="line2d_2">
      <path clip-path="url(#pc63a4dbb03)" d="M 145.884825 234.334082 
L 145.884825 22.244082 
" style="fill:none;stroke:#ffffff;"/>
     </g>
    </g>
    <g id="xtick_3">
     <g id="line2d_3">
      <path clip-path="url(#pc63a4dbb03)" d="M 228.464106 234.334082 
L 228.464106 22.244082 
" style="fill:none;stroke:#ffffff;"/>
     </g>
    </g>
    <g id="xtick_4">
     <g id="line2d_4">
      <path clip-path="url(#pc63a4dbb03)" d="M 311.043387 234.334082 
L 311.043387 22.244082 
" style="fill:none;stroke:#ffffff;"/>
     </g>
    </g>
    <g id="xtick_5">
     <g id="line2d_5">
      <path clip-path="url(#pc63a4dbb03)" d="M 393.622668 234.334082 
L 393.622668 22.244082 
" style="fill:none;stroke:#ffffff;"/>
     </g>
    </g>
    <g id="xtick_6">
     <g id="line2d_6">
      <path clip-path="url(#pc63a4dbb03)" d="M 104.595184 234.334082 
L 104.595184 22.244082 
" style="fill:none;stroke:#ffffff;stroke-width:0.5;"/>
     </g>
    </g>
    <g id="xtick_7">
     <g id="line2d_7">
      <path clip-path="url(#pc63a4dbb03)" d="M 187.174466 234.334082 
L 187.174466 22.244082 
" style="fill:none;stroke:#ffffff;stroke-width:0.5;"/>
     </g>
    </g>
    <g id="xtick_8">
     <g id="line2d_8">
      <path clip-path="url(#pc63a4dbb03)" d="M 269.753747 234.334082 
L 269.753747 22.244082 
" style="fill:none;stroke:#ffffff;stroke-width:0.5;"/>
     </g>
    </g>
    <g id="xtick_9">
     <g id="line2d_9">
      <path clip-path="url(#pc63a4dbb03)" d="M 352.333028 234.334082 
L 352.333028 22.244082 
" style="fill:none;stroke:#ffffff;stroke-width:0.5;"/>
     </g>
    </g>
   </g>
   <g id="matplotlib.axis_2">
    <g id="ytick_1">
     <g id="line2d_10">
      <path clip-path="url(#pc63a4dbb03)" d="M 46.789688 228.238783 
L 410.138525 228.238783 
" style="fill:none;stroke:#ffffff;"/>
     </g>
     <g id="line2d_11">
      <path d="M 46.789688 228.238783 
" style="fill:none;stroke:#333333;stroke-width:1.5;"/>
      <defs>
       <path d="M 0 0 
L -2.75 0 
" id="m6cd0185da7" style="stroke:#000000;"/>
      </defs>
      <g>
       <use style="fill:#333333;stroke:#000000;" x="46.789688" xlink:href="#m6cd0185da7" y="228.238783"/>
      </g>
     </g>
     <g id="text_1">
      <!-- 0.70 -->
      <g style="fill:#4d4d4d;" transform="translate(22.245938 230.667033)scale(0.088 -0.088)">
       <defs>
        <path d="M 2034 4250 
Q 1547 4250 1301 3770 
Q 1056 3291 1056 2328 
Q 1056 1369 1301 889 
Q 1547 409 2034 409 
Q 2525 409 2770 889 
Q 3016 1369 3016 2328 
Q 3016 3291 2770 3770 
Q 2525 4250 2034 4250 
z
M 2034 4750 
Q 2819 4750 3233 4129 
Q 3647 3509 3647 2328 
Q 3647 1150 3233 529 
Q 2819 -91 2034 -91 
Q 1250 -91 836 529 
Q 422 1150 422 2328 
Q 422 3509 836 4129 
Q 1250 4750 2034 4750 
z
" id="DejaVuSans-30" transform="scale(0.015625)"/>
        <path d="M 684 794 
L 1344 794 
L 1344 0 
L 684 0 
L 684 794 
z
" id="DejaVuSans-2e" transform="scale(0.015625)"/>
        <path d="M 525 4666 
L 3525 4666 
L 3525 4397 
L 1831 0 
L 1172 0 
L 2766 4134 
L 525 4134 
L 525 4666 
z
" id="DejaVuSans-37" transform="scale(0.015625)"/>
       </defs>
       <use xlink:href="#DejaVuSans-30"/>
       <use x="63.623047" xlink:href="#DejaVuSans-2e"/>
       <use x="95.410156" xlink:href="#DejaVuSans-37"/>
       <use x="159.033203" xlink:href="#DejaVuSans-30"/>
      </g>
     </g>
    </g>
    <g id="ytick_2">
     <g id="line2d_12">
      <path clip-path="url(#pc63a4dbb03)" d="M 46.789688 155.960723 
L 410.138525 155.960723 
" style="fill:none;stroke:#ffffff;"/>
     </g>
     <g id="line2d_13">
      <path d="M 46.789688 155.960723 
" style="fill:none;stroke:#333333;stroke-width:1.5;"/>
      <g>
       <use style="fill:#333333;stroke:#000000;" x="46.789688" xlink:href="#m6cd0185da7" y="155.960723"/>
      </g>
     </g>
     <g id="text_2">
      <!-- 0.75 -->
      <g style="fill:#4d4d4d;" transform="translate(22.245938 158.388973)scale(0.088 -0.088)">
       <defs>
        <path d="M 691 4666 
L 3169 4666 
L 3169 4134 
L 1269 4134 
L 1269 2991 
Q 1406 3038 1543 3061 
Q 1681 3084 1819 3084 
Q 2600 3084 3056 2656 
Q 3513 2228 3513 1497 
Q 3513 744 3044 326 
Q 2575 -91 1722 -91 
Q 1428 -91 1123 -41 
Q 819 9 494 109 
L 494 744 
Q 775 591 1075 516 
Q 1375 441 1709 441 
Q 2250 441 2565 725 
Q 2881 1009 2881 1497 
Q 2881 1984 2565 2268 
Q 2250 2553 1709 2553 
Q 1456 2553 1204 2497 
Q 953 2441 691 2322 
L 691 4666 
z
" id="DejaVuSans-35" transform="scale(0.015625)"/>
       </defs>
       <use xlink:href="#DejaVuSans-30"/>
       <use x="63.623047" xlink:href="#DejaVuSans-2e"/>
       <use x="95.410156" xlink:href="#DejaVuSans-37"/>
       <use x="159.033203" xlink:href="#DejaVuSans-35"/>
      </g>
     </g>
    </g>
    <g id="ytick_3">
     <g id="line2d_14">
      <path clip-path="url(#pc63a4dbb03)" d="M 46.789688 83.682662 
L 410.138525 83.682662 
" style="fill:none;stroke:#ffffff;"/>
     </g>
     <g id="line2d_15">
      <path d="M 46.789688 83.682662 
" style="fill:none;stroke:#333333;stroke-width:1.5;"/>
      <g>
       <use style="fill:#333333;stroke:#000000;" x="46.789688" xlink:href="#m6cd0185da7" y="83.682662"/>
      </g>
     </g>
     <g id="text_3">
      <!-- 0.80 -->
      <g style="fill:#4d4d4d;" transform="translate(22.245938 86.110912)scale(0.088 -0.088)">
       <defs>
        <path d="M 2034 2216 
Q 1584 2216 1326 1975 
Q 1069 1734 1069 1313 
Q 1069 891 1326 650 
Q 1584 409 2034 409 
Q 2484 409 2743 651 
Q 3003 894 3003 1313 
Q 3003 1734 2745 1975 
Q 2488 2216 2034 2216 
z
M 1403 2484 
Q 997 2584 770 2862 
Q 544 3141 544 3541 
Q 544 4100 942 4425 
Q 1341 4750 2034 4750 
Q 2731 4750 3128 4425 
Q 3525 4100 3525 3541 
Q 3525 3141 3298 2862 
Q 3072 2584 2669 2484 
Q 3125 2378 3379 2068 
Q 3634 1759 3634 1313 
Q 3634 634 3220 271 
Q 2806 -91 2034 -91 
Q 1263 -91 848 271 
Q 434 634 434 1313 
Q 434 1759 690 2068 
Q 947 2378 1403 2484 
z
M 1172 3481 
Q 1172 3119 1398 2916 
Q 1625 2713 2034 2713 
Q 2441 2713 2670 2916 
Q 2900 3119 2900 3481 
Q 2900 3844 2670 4047 
Q 2441 4250 2034 4250 
Q 1625 4250 1398 4047 
Q 1172 3844 1172 3481 
z
" id="DejaVuSans-38" transform="scale(0.015625)"/>
       </defs>
       <use xlink:href="#DejaVuSans-30"/>
       <use x="63.623047" xlink:href="#DejaVuSans-2e"/>
       <use x="95.410156" xlink:href="#DejaVuSans-38"/>
       <use x="159.033203" xlink:href="#DejaVuSans-30"/>
      </g>
     </g>
    </g>
    <g id="ytick_4">
     <g id="line2d_16">
      <path clip-path="url(#pc63a4dbb03)" d="M 46.789688 192.099753 
L 410.138525 192.099753 
" style="fill:none;stroke:#ffffff;stroke-width:0.5;"/>
     </g>
    </g>
    <g id="ytick_5">
     <g id="line2d_17">
      <path clip-path="url(#pc63a4dbb03)" d="M 46.789688 119.821692 
L 410.138525 119.821692 
" style="fill:none;stroke:#ffffff;stroke-width:0.5;"/>
     </g>
    </g>
    <g id="ytick_6">
     <g id="line2d_18">
      <path clip-path="url(#pc63a4dbb03)" d="M 46.789688 47.543632 
L 410.138525 47.543632 
" style="fill:none;stroke:#ffffff;stroke-width:0.5;"/>
     </g>
    </g>
    <g id="text_4">
     <!-- Value -->
     <g transform="translate(15.558281 256.228457)rotate(-90)scale(0.11 -0.11)">
      <defs>
       <path d="M 1831 0 
L 50 4666 
L 709 4666 
L 2188 738 
L 3669 4666 
L 4325 4666 
L 2547 0 
L 1831 0 
z
" id="DejaVuSans-56" transform="scale(0.015625)"/>
       <path d="M 2194 1759 
Q 1497 1759 1228 1600 
Q 959 1441 959 1056 
Q 959 750 1161 570 
Q 1363 391 1709 391 
Q 2188 391 2477 730 
Q 2766 1069 2766 1631 
L 2766 1759 
L 2194 1759 
z
M 3341 1997 
L 3341 0 
L 2766 0 
L 2766 531 
Q 2569 213 2275 61 
Q 1981 -91 1556 -91 
Q 1019 -91 701 211 
Q 384 513 384 1019 
Q 384 1609 779 1909 
Q 1175 2209 1959 2209 
L 2766 2209 
L 2766 2266 
Q 2766 2663 2505 2880 
Q 2244 3097 1772 3097 
Q 1472 3097 1187 3025 
Q 903 2953 641 2809 
L 641 3341 
Q 956 3463 1253 3523 
Q 1550 3584 1831 3584 
Q 2591 3584 2966 3190 
Q 3341 2797 3341 1997 
z
" id="DejaVuSans-61" transform="scale(0.015625)"/>
       <path d="M 603 4863 
L 1178 4863 
L 1178 0 
L 603 0 
L 603 4863 
z
" id="DejaVuSans-6c" transform="scale(0.015625)"/>
       <path d="M 544 1381 
L 544 3500 
L 1119 3500 
L 1119 1403 
Q 1119 906 1312 657 
Q 1506 409 1894 409 
Q 2359 409 2629 706 
Q 2900 1003 2900 1516 
L 2900 3500 
L 3475 3500 
L 3475 0 
L 2900 0 
L 2900 538 
Q 2691 219 2414 64 
Q 2138 -91 1772 -91 
Q 1169 -91 856 284 
Q 544 659 544 1381 
z
M 1991 3584 
L 1991 3584 
z
" id="DejaVuSans-75" transform="scale(0.015625)"/>
       <path d="M 3597 1894 
L 3597 1613 
L 953 1613 
Q 991 1019 1311 708 
Q 1631 397 2203 397 
Q 2534 397 2845 478 
Q 3156 559 3463 722 
L 3463 178 
Q 3153 47 2828 -22 
Q 2503 -91 2169 -91 
Q 1331 -91 842 396 
Q 353 884 353 1716 
Q 353 2575 817 3079 
Q 1281 3584 2069 3584 
Q 2775 3584 3186 3129 
Q 3597 2675 3597 1894 
z
M 3022 2063 
Q 3016 2534 2758 2815 
Q 2500 3097 2075 3097 
Q 1594 3097 1305 2825 
Q 1016 2553 972 2059 
L 3022 2063 
z
" id="DejaVuSans-65" transform="scale(0.015625)"/>
      </defs>
      <use xlink:href="#DejaVuSans-56"/>
      <use x="60.658203" xlink:href="#DejaVuSans-61"/>
      <use x="121.9375" xlink:href="#DejaVuSans-6c"/>
      <use x="149.720703" xlink:href="#DejaVuSans-75"/>
      <use x="213.099609" xlink:href="#DejaVuSans-65"/>
     </g>
    </g>
   </g>
   <g id="line2d_19">
    <path clip-path="url(#pc63a4dbb03)" d="M 63.305544 162.30545 
L 79.8214 37.138663 
L 96.337256 37.388228 
L 112.853112 38.386491 
L 129.368969 36.908294 
L 145.884825 38.194518 
L 162.400681 33.654342 
L 178.916537 37.791373 
L 195.432394 38.520873 
L 211.94825 38.03134 
L 228.464106 38.655254 
L 261.495819 38.482478 
L 294.527531 37.541807 
L 327.559244 36.994683 
L 360.590956 36.946689 
L 393.622668 39.067997 
" style="fill:none;stroke:#000000;stroke-width:0.886227;"/>
   </g>
   <g id="PathCollection_1">
    <path clip-path="url(#pc63a4dbb03)" d="M 63.305544 164.077904 
C 63.775604 164.077904 64.226475 163.891147 64.558858 163.558764 
C 64.891241 163.226381 65.077998 162.77551 65.077998 162.30545 
C 65.077998 161.83539 64.891241 161.384519 64.558858 161.052136 
C 64.226475 160.719753 63.775604 160.532996 63.305544 160.532996 
C 62.835483 160.532996 62.384612 160.719753 62.05223 161.052136 
C 61.719847 161.384519 61.53309 161.83539 61.53309 162.30545 
C 61.53309 162.77551 61.719847 163.226381 62.05223 163.558764 
C 62.384612 163.891147 62.835483 164.077904 63.305544 164.077904 
z
" style="stroke:#000000;stroke-width:0.886227;"/>
    <path clip-path="url(#pc63a4dbb03)" d="M 79.8214 38.911117 
C 80.29146 38.911117 80.742331 38.72436 81.074714 38.391977 
C 81.407097 38.059594 81.593854 37.608723 81.593854 37.138663 
C 81.593854 36.668602 81.407097 36.217731 81.074714 35.885349 
C 80.742331 35.552966 80.29146 35.366209 79.8214 35.366209 
C 79.35134 35.366209 78.900469 35.552966 78.568086 35.885349 
C 78.235703 36.217731 78.048946 36.668602 78.048946 37.138663 
C 78.048946 37.608723 78.235703 38.059594 78.568086 38.391977 
C 78.900469 38.72436 79.35134 38.911117 79.8214 38.911117 
z
" style="stroke:#000000;stroke-width:0.886227;"/>
    <path clip-path="url(#pc63a4dbb03)" d="M 96.337256 39.160682 
C 96.807316 39.160682 97.258188 38.973925 97.59057 38.641543 
C 97.922953 38.30916 98.10971 37.858289 98.10971 37.388228 
C 98.10971 36.918168 97.922953 36.467297 97.59057 36.134914 
C 97.258188 35.802532 96.807316 35.615775 96.337256 35.615775 
C 95.867196 35.615775 95.416325 35.802532 95.083942 36.134914 
C 94.751559 36.467297 94.564802 36.918168 94.564802 37.388228 
C 94.564802 37.858289 94.751559 38.30916 95.083942 38.641543 
C 95.416325 38.973925 95.867196 39.160682 96.337256 39.160682 
z
" style="stroke:#000000;stroke-width:0.886227;"/>
    <path clip-path="url(#pc63a4dbb03)" d="M 112.853112 40.158945 
C 113.323173 40.158945 113.774044 39.972188 114.106427 39.639805 
C 114.438809 39.307422 114.625566 38.856551 114.625566 38.386491 
C 114.625566 37.916431 114.438809 37.46556 114.106427 37.133177 
C 113.774044 36.800794 113.323173 36.614037 112.853112 36.614037 
C 112.383052 36.614037 111.932181 36.800794 111.599798 37.133177 
C 111.267416 37.46556 111.080659 37.916431 111.080659 38.386491 
C 111.080659 38.856551 111.267416 39.307422 111.599798 39.639805 
C 111.932181 39.972188 112.383052 40.158945 112.853112 40.158945 
z
" style="stroke:#000000;stroke-width:0.886227;"/>
    <path clip-path="url(#pc63a4dbb03)" d="M 129.368969 38.680748 
C 129.839029 38.680748 130.2899 38.493991 130.622283 38.161609 
C 130.954666 37.829226 131.141423 37.378355 131.141423 36.908294 
C 131.141423 36.438234 130.954666 35.987363 130.622283 35.65498 
C 130.2899 35.322598 129.839029 35.135841 129.368969 35.135841 
C 128.898908 35.135841 128.448037 35.322598 128.115655 35.65498 
C 127.783272 35.987363 127.596515 36.438234 127.596515 36.908294 
C 127.596515 37.378355 127.783272 37.829226 128.115655 38.161609 
C 128.448037 38.493991 128.898908 38.680748 129.368969 38.680748 
z
" style="stroke:#000000;stroke-width:0.886227;"/>
    <path clip-path="url(#pc63a4dbb03)" d="M 145.884825 39.966971 
C 146.354885 39.966971 146.805756 39.780214 147.138139 39.447832 
C 147.470522 39.115449 147.657279 38.664578 147.657279 38.194518 
C 147.657279 37.724457 147.470522 37.273586 147.138139 36.941203 
C 146.805756 36.608821 146.354885 36.422064 145.884825 36.422064 
C 145.414765 36.422064 144.963894 36.608821 144.631511 36.941203 
C 144.299128 37.273586 144.112371 37.724457 144.112371 38.194518 
C 144.112371 38.664578 144.299128 39.115449 144.631511 39.447832 
C 144.963894 39.780214 145.414765 39.966971 145.884825 39.966971 
z
" style="stroke:#000000;stroke-width:0.886227;"/>
    <path clip-path="url(#pc63a4dbb03)" d="M 162.400681 35.426796 
C 162.870741 35.426796 163.321613 35.240039 163.653995 34.907656 
C 163.986378 34.575273 164.173135 34.124402 164.173135 33.654342 
C 164.173135 33.184282 163.986378 32.733411 163.653995 32.401028 
C 163.321613 32.068645 162.870741 31.881888 162.400681 31.881888 
C 161.930621 31.881888 161.47975 32.068645 161.147367 32.401028 
C 160.814984 32.733411 160.628227 33.184282 160.628227 33.654342 
C 160.628227 34.124402 160.814984 34.575273 161.147367 34.907656 
C 161.47975 35.240039 161.930621 35.426796 162.400681 35.426796 
z
" style="stroke:#000000;stroke-width:0.886227;"/>
    <path clip-path="url(#pc63a4dbb03)" d="M 178.916537 39.563827 
C 179.386598 39.563827 179.837469 39.37707 180.169852 39.044687 
C 180.502234 38.712304 180.688991 38.261433 180.688991 37.791373 
C 180.688991 37.321313 180.502234 36.870442 180.169852 36.538059 
C 179.837469 36.205676 179.386598 36.018919 178.916537 36.018919 
C 178.446477 36.018919 177.995606 36.205676 177.663223 36.538059 
C 177.33084 36.870442 177.144084 37.321313 177.144084 37.791373 
C 177.144084 38.261433 177.33084 38.712304 177.663223 39.044687 
C 177.995606 39.37707 178.446477 39.563827 178.916537 39.563827 
z
" style="stroke:#000000;stroke-width:0.886227;"/>
    <path clip-path="url(#pc63a4dbb03)" d="M 195.432394 40.293327 
C 195.902454 40.293327 196.353325 40.10657 196.685708 39.774187 
C 197.018091 39.441804 197.204847 38.990933 197.204847 38.520873 
C 197.204847 38.050812 197.018091 37.599941 196.685708 37.267559 
C 196.353325 36.935176 195.902454 36.748419 195.432394 36.748419 
C 194.962333 36.748419 194.511462 36.935176 194.179079 37.267559 
C 193.846697 37.599941 193.65994 38.050812 193.65994 38.520873 
C 193.65994 38.990933 193.846697 39.441804 194.179079 39.774187 
C 194.511462 40.10657 194.962333 40.293327 195.432394 40.293327 
z
" style="stroke:#000000;stroke-width:0.886227;"/>
    <path clip-path="url(#pc63a4dbb03)" d="M 211.94825 39.803794 
C 212.41831 39.803794 212.869181 39.617037 213.201564 39.284654 
C 213.533947 38.952271 213.720704 38.5014 213.720704 38.03134 
C 213.720704 37.56128 213.533947 37.110409 213.201564 36.778026 
C 212.869181 36.445643 212.41831 36.258886 211.94825 36.258886 
C 211.47819 36.258886 211.027319 36.445643 210.694936 36.778026 
C 210.362553 37.110409 210.175796 37.56128 210.175796 38.03134 
C 210.175796 38.5014 210.362553 38.952271 210.694936 39.284654 
C 211.027319 39.617037 211.47819 39.803794 211.94825 39.803794 
z
" style="stroke:#000000;stroke-width:0.886227;"/>
    <path clip-path="url(#pc63a4dbb03)" d="M 228.464106 40.427708 
C 228.934166 40.427708 229.385037 40.240951 229.71742 39.908568 
C 230.049803 39.576186 230.23656 39.125314 230.23656 38.655254 
C 230.23656 38.185194 230.049803 37.734323 229.71742 37.40194 
C 229.385037 37.069557 228.934166 36.8828 228.464106 36.8828 
C 227.994046 36.8828 227.543175 37.069557 227.210792 37.40194 
C 226.878409 37.734323 226.691652 38.185194 226.691652 38.655254 
C 226.691652 39.125314 226.878409 39.576186 227.210792 39.908568 
C 227.543175 40.240951 227.994046 40.427708 228.464106 40.427708 
z
" style="stroke:#000000;stroke-width:0.886227;"/>
    <path clip-path="url(#pc63a4dbb03)" d="M 261.495819 40.254932 
C 261.965879 40.254932 262.41675 40.068175 262.749133 39.735792 
C 263.081516 39.403409 263.268272 38.952538 263.268272 38.482478 
C 263.268272 38.012418 263.081516 37.561547 262.749133 37.229164 
C 262.41675 36.896781 261.965879 36.710024 261.495819 36.710024 
C 261.025758 36.710024 260.574887 36.896781 260.242504 37.229164 
C 259.910122 37.561547 259.723365 38.012418 259.723365 38.482478 
C 259.723365 38.952538 259.910122 39.403409 260.242504 39.735792 
C 260.574887 40.068175 261.025758 40.254932 261.495819 40.254932 
z
" style="stroke:#000000;stroke-width:0.886227;"/>
    <path clip-path="url(#pc63a4dbb03)" d="M 294.527531 39.314261 
C 294.997591 39.314261 295.448462 39.127504 295.780845 38.795121 
C 296.113228 38.462739 296.299985 38.011868 296.299985 37.541807 
C 296.299985 37.071747 296.113228 36.620876 295.780845 36.288493 
C 295.448462 35.95611 294.997591 35.769353 294.527531 35.769353 
C 294.057471 35.769353 293.6066 35.95611 293.274217 36.288493 
C 292.941834 36.620876 292.755077 37.071747 292.755077 37.541807 
C 292.755077 38.011868 292.941834 38.462739 293.274217 38.795121 
C 293.6066 39.127504 294.057471 39.314261 294.527531 39.314261 
z
" style="stroke:#000000;stroke-width:0.886227;"/>
    <path clip-path="url(#pc63a4dbb03)" d="M 327.559244 38.767136 
C 328.029304 38.767136 328.480175 38.580379 328.812558 38.247997 
C 329.14494 37.915614 329.331697 37.464743 329.331697 36.994683 
C 329.331697 36.524622 329.14494 36.073751 328.812558 35.741368 
C 328.480175 35.408986 328.029304 35.222229 327.559244 35.222229 
C 327.089183 35.222229 326.638312 35.408986 326.305929 35.741368 
C 325.973547 36.073751 325.78679 36.524622 325.78679 36.994683 
C 325.78679 37.464743 325.973547 37.915614 326.305929 38.247997 
C 326.638312 38.580379 327.089183 38.767136 327.559244 38.767136 
z
" style="stroke:#000000;stroke-width:0.886227;"/>
    <path clip-path="url(#pc63a4dbb03)" d="M 360.590956 38.719143 
C 361.061016 38.719143 361.511887 38.532386 361.84427 38.200003 
C 362.176653 37.86762 362.36341 37.416749 362.36341 36.946689 
C 362.36341 36.476629 362.176653 36.025758 361.84427 35.693375 
C 361.511887 35.360992 361.061016 35.174235 360.590956 35.174235 
C 360.120896 35.174235 359.670025 35.360992 359.337642 35.693375 
C 359.005259 36.025758 358.818502 36.476629 358.818502 36.946689 
C 358.818502 37.416749 359.005259 37.86762 359.337642 38.200003 
C 359.670025 38.532386 360.120896 38.719143 360.590956 38.719143 
z
" style="stroke:#000000;stroke-width:0.886227;"/>
    <path clip-path="url(#pc63a4dbb03)" d="M 393.622668 40.840451 
C 394.092729 40.840451 394.5436 40.653694 394.875983 40.321312 
C 395.208365 39.988929 395.395122 39.538058 395.395122 39.067997 
C 395.395122 38.597937 395.208365 38.147066 394.875983 37.814683 
C 394.5436 37.482301 394.092729 37.295544 393.622668 37.295544 
C 393.152608 37.295544 392.701737 37.482301 392.369354 37.814683 
C 392.036972 38.147066 391.850215 38.597937 391.850215 39.067997 
C 391.850215 39.538058 392.036972 39.988929 392.369354 40.321312 
C 392.701737 40.653694 393.152608 40.840451 393.622668 40.840451 
z
" style="stroke:#000000;stroke-width:0.886227;"/>
   </g>
   <g id="patch_3">
    <path d="M 46.789688 22.244082 
L 410.138525 22.244082 
L 410.138525 7.2 
L 46.789688 7.2 
z
" style="fill:#d9d9d9;"/>
   </g>
   <g id="PolyCollection_1">
    <path clip-path="url(#pc63a4dbb03)" d="M 63.305544 99.917272 
L 63.305544 224.693628 
L 79.8214 39.835687 
L 96.337256 38.713437 
L 112.853112 41.306273 
L 129.368969 39.968467 
L 145.884825 40.942977 
L 162.400681 35.424147 
L 178.916537 41.701572 
L 195.432394 42.292617 
L 211.94825 41.940537 
L 228.464106 42.417263 
L 261.495819 41.700671 
L 294.527531 40.283083 
L 327.559244 38.757393 
L 360.590956 40.4281 
L 393.622668 41.527508 
L 393.622668 36.608487 
L 393.622668 36.608487 
L 360.590956 33.465278 
L 327.559244 35.231972 
L 294.527531 34.800531 
L 261.495819 35.264285 
L 228.464106 34.893245 
L 211.94825 34.122143 
L 195.432394 34.749129 
L 178.916537 33.881174 
L 162.400681 31.884537 
L 145.884825 35.446058 
L 129.368969 33.848121 
L 112.853112 35.466709 
L 96.337256 36.06302 
L 79.8214 34.441639 
L 63.305544 99.917272 
z
" style="fill:#333333;fill-opacity:0.501961;"/>
   </g>
   <g id="text_5">
    <!-- Accuracy -->
    <g style="fill:#1a1a1a;" transform="translate(208.375356 17.150291)scale(0.088 -0.088)">
     <defs>
      <path d="M 2188 4044 
L 1331 1722 
L 3047 1722 
L 2188 4044 
z
M 1831 4666 
L 2547 4666 
L 4325 0 
L 3669 0 
L 3244 1197 
L 1141 1197 
L 716 0 
L 50 0 
L 1831 4666 
z
" id="DejaVuSans-41" transform="scale(0.015625)"/>
      <path d="M 3122 3366 
L 3122 2828 
Q 2878 2963 2633 3030 
Q 2388 3097 2138 3097 
Q 1578 3097 1268 2742 
Q 959 2388 959 1747 
Q 959 1106 1268 751 
Q 1578 397 2138 397 
Q 2388 397 2633 464 
Q 2878 531 3122 666 
L 3122 134 
Q 2881 22 2623 -34 
Q 2366 -91 2075 -91 
Q 1284 -91 818 406 
Q 353 903 353 1747 
Q 353 2603 823 3093 
Q 1294 3584 2113 3584 
Q 2378 3584 2631 3529 
Q 2884 3475 3122 3366 
z
" id="DejaVuSans-63" transform="scale(0.015625)"/>
      <path d="M 2631 2963 
Q 2534 3019 2420 3045 
Q 2306 3072 2169 3072 
Q 1681 3072 1420 2755 
Q 1159 2438 1159 1844 
L 1159 0 
L 581 0 
L 581 3500 
L 1159 3500 
L 1159 2956 
Q 1341 3275 1631 3429 
Q 1922 3584 2338 3584 
Q 2397 3584 2469 3576 
Q 2541 3569 2628 3553 
L 2631 2963 
z
" id="DejaVuSans-72" transform="scale(0.015625)"/>
      <path d="M 2059 -325 
Q 1816 -950 1584 -1140 
Q 1353 -1331 966 -1331 
L 506 -1331 
L 506 -850 
L 844 -850 
Q 1081 -850 1212 -737 
Q 1344 -625 1503 -206 
L 1606 56 
L 191 3500 
L 800 3500 
L 1894 763 
L 2988 3500 
L 3597 3500 
L 2059 -325 
z
" id="DejaVuSans-79" transform="scale(0.015625)"/>
     </defs>
     <use xlink:href="#DejaVuSans-41"/>
     <use x="66.658203" xlink:href="#DejaVuSans-63"/>
     <use x="121.638672" xlink:href="#DejaVuSans-63"/>
     <use x="176.619141" xlink:href="#DejaVuSans-75"/>
     <use x="239.998047" xlink:href="#DejaVuSans-72"/>
     <use x="281.111328" xlink:href="#DejaVuSans-61"/>
     <use x="342.390625" xlink:href="#DejaVuSans-63"/>
     <use x="397.371094" xlink:href="#DejaVuSans-79"/>
    </g>
   </g>
  </g>
  <g id="axes_2">
   <g id="patch_4">
    <path d="M 464.64085 234.334082 
L 827.989688 234.334082 
L 827.989688 22.244082 
L 464.64085 22.244082 
z
" style="fill:#ebebeb;"/>
   </g>
   <g id="matplotlib.axis_3">
    <g id="xtick_10">
     <g id="line2d_20">
      <path clip-path="url(#p372b218c80)" d="M 481.156707 234.334082 
L 481.156707 22.244082 
" style="fill:none;stroke:#ffffff;stroke-linecap:square;"/>
     </g>
    </g>
    <g id="xtick_11">
     <g id="line2d_21">
      <path clip-path="url(#p372b218c80)" d="M 563.735988 234.334082 
L 563.735988 22.244082 
" style="fill:none;stroke:#ffffff;stroke-linecap:square;"/>
     </g>
    </g>
    <g id="xtick_12">
     <g id="line2d_22">
      <path clip-path="url(#p372b218c80)" d="M 646.315269 234.334082 
L 646.315269 22.244082 
" style="fill:none;stroke:#ffffff;stroke-linecap:square;"/>
     </g>
    </g>
    <g id="xtick_13">
     <g id="line2d_23">
      <path clip-path="url(#p372b218c80)" d="M 728.89455 234.334082 
L 728.89455 22.244082 
" style="fill:none;stroke:#ffffff;stroke-linecap:square;"/>
     </g>
    </g>
    <g id="xtick_14">
     <g id="line2d_24">
      <path clip-path="url(#p372b218c80)" d="M 811.473831 234.334082 
L 811.473831 22.244082 
" style="fill:none;stroke:#ffffff;stroke-linecap:square;"/>
     </g>
    </g>
    <g id="xtick_15">
     <g id="line2d_25">
      <path clip-path="url(#p372b218c80)" d="M 522.446347 234.334082 
L 522.446347 22.244082 
" style="fill:none;stroke:#ffffff;stroke-linecap:square;stroke-width:0.5;"/>
     </g>
    </g>
    <g id="xtick_16">
     <g id="line2d_26">
      <path clip-path="url(#p372b218c80)" d="M 605.025628 234.334082 
L 605.025628 22.244082 
" style="fill:none;stroke:#ffffff;stroke-linecap:square;stroke-width:0.5;"/>
     </g>
    </g>
    <g id="xtick_17">
     <g id="line2d_27">
      <path clip-path="url(#p372b218c80)" d="M 687.604909 234.334082 
L 687.604909 22.244082 
" style="fill:none;stroke:#ffffff;stroke-linecap:square;stroke-width:0.5;"/>
     </g>
    </g>
    <g id="xtick_18">
     <g id="line2d_28">
      <path clip-path="url(#p372b218c80)" d="M 770.184191 234.334082 
L 770.184191 22.244082 
" style="fill:none;stroke:#ffffff;stroke-linecap:square;stroke-width:0.5;"/>
     </g>
    </g>
   </g>
   <g id="matplotlib.axis_4">
    <g id="ytick_7">
     <g id="line2d_29">
      <path clip-path="url(#p372b218c80)" d="M 464.64085 222.274662 
L 827.989688 222.274662 
" style="fill:none;stroke:#ffffff;stroke-linecap:square;"/>
     </g>
     <g id="line2d_30">
      <path d="M 464.64085 222.274662 
" style="fill:none;stroke:#333333;stroke-linecap:square;stroke-width:1.5;"/>
      <g>
       <use style="fill:#333333;stroke:#000000;" x="464.64085" xlink:href="#m6cd0185da7" y="222.274662"/>
      </g>
     </g>
     <g id="text_6">
      <!-- 0.65 -->
      <g style="fill:#4d4d4d;" transform="translate(440.0971 224.702912)scale(0.088 -0.088)">
       <defs>
        <path d="M 2113 2584 
Q 1688 2584 1439 2293 
Q 1191 2003 1191 1497 
Q 1191 994 1439 701 
Q 1688 409 2113 409 
Q 2538 409 2786 701 
Q 3034 994 3034 1497 
Q 3034 2003 2786 2293 
Q 2538 2584 2113 2584 
z
M 3366 4563 
L 3366 3988 
Q 3128 4100 2886 4159 
Q 2644 4219 2406 4219 
Q 1781 4219 1451 3797 
Q 1122 3375 1075 2522 
Q 1259 2794 1537 2939 
Q 1816 3084 2150 3084 
Q 2853 3084 3261 2657 
Q 3669 2231 3669 1497 
Q 3669 778 3244 343 
Q 2819 -91 2113 -91 
Q 1303 -91 875 529 
Q 447 1150 447 2328 
Q 447 3434 972 4092 
Q 1497 4750 2381 4750 
Q 2619 4750 2861 4703 
Q 3103 4656 3366 4563 
z
" id="DejaVuSans-36" transform="scale(0.015625)"/>
       </defs>
       <use xlink:href="#DejaVuSans-30"/>
       <use x="63.623047" xlink:href="#DejaVuSans-2e"/>
       <use x="95.410156" xlink:href="#DejaVuSans-36"/>
       <use x="159.033203" xlink:href="#DejaVuSans-35"/>
      </g>
     </g>
    </g>
    <g id="ytick_8">
     <g id="line2d_31">
      <path clip-path="url(#p372b218c80)" d="M 464.64085 181.656135 
L 827.989688 181.656135 
" style="fill:none;stroke:#ffffff;stroke-linecap:square;"/>
     </g>
     <g id="line2d_32">
      <path d="M 464.64085 181.656135 
" style="fill:none;stroke:#333333;stroke-linecap:square;stroke-width:1.5;"/>
      <g>
       <use style="fill:#333333;stroke:#000000;" x="464.64085" xlink:href="#m6cd0185da7" y="181.656135"/>
      </g>
     </g>
     <g id="text_7">
      <!-- 0.70 -->
      <g style="fill:#4d4d4d;" transform="translate(440.0971 184.084385)scale(0.088 -0.088)">
       <use xlink:href="#DejaVuSans-30"/>
       <use x="63.623047" xlink:href="#DejaVuSans-2e"/>
       <use x="95.410156" xlink:href="#DejaVuSans-37"/>
       <use x="159.033203" xlink:href="#DejaVuSans-30"/>
      </g>
     </g>
    </g>
    <g id="ytick_9">
     <g id="line2d_33">
      <path clip-path="url(#p372b218c80)" d="M 464.64085 141.037607 
L 827.989688 141.037607 
" style="fill:none;stroke:#ffffff;stroke-linecap:square;"/>
     </g>
     <g id="line2d_34">
      <path d="M 464.64085 141.037607 
" style="fill:none;stroke:#333333;stroke-linecap:square;stroke-width:1.5;"/>
      <g>
       <use style="fill:#333333;stroke:#000000;" x="464.64085" xlink:href="#m6cd0185da7" y="141.037607"/>
      </g>
     </g>
     <g id="text_8">
      <!-- 0.75 -->
      <g style="fill:#4d4d4d;" transform="translate(440.0971 143.465857)scale(0.088 -0.088)">
       <use xlink:href="#DejaVuSans-30"/>
       <use x="63.623047" xlink:href="#DejaVuSans-2e"/>
       <use x="95.410156" xlink:href="#DejaVuSans-37"/>
       <use x="159.033203" xlink:href="#DejaVuSans-35"/>
      </g>
     </g>
    </g>
    <g id="ytick_10">
     <g id="line2d_35">
      <path clip-path="url(#p372b218c80)" d="M 464.64085 100.41908 
L 827.989688 100.41908 
" style="fill:none;stroke:#ffffff;stroke-linecap:square;"/>
     </g>
     <g id="line2d_36">
      <path d="M 464.64085 100.41908 
" style="fill:none;stroke:#333333;stroke-linecap:square;stroke-width:1.5;"/>
      <g>
       <use style="fill:#333333;stroke:#000000;" x="464.64085" xlink:href="#m6cd0185da7" y="100.41908"/>
      </g>
     </g>
     <g id="text_9">
      <!-- 0.80 -->
      <g style="fill:#4d4d4d;" transform="translate(440.0971 102.84733)scale(0.088 -0.088)">
       <use xlink:href="#DejaVuSans-30"/>
       <use x="63.623047" xlink:href="#DejaVuSans-2e"/>
       <use x="95.410156" xlink:href="#DejaVuSans-38"/>
       <use x="159.033203" xlink:href="#DejaVuSans-30"/>
      </g>
     </g>
    </g>
    <g id="ytick_11">
     <g id="line2d_37">
      <path clip-path="url(#p372b218c80)" d="M 464.64085 59.800553 
L 827.989688 59.800553 
" style="fill:none;stroke:#ffffff;stroke-linecap:square;"/>
     </g>
     <g id="line2d_38">
      <path d="M 464.64085 59.800553 
" style="fill:none;stroke:#333333;stroke-linecap:square;stroke-width:1.5;"/>
      <g>
       <use style="fill:#333333;stroke:#000000;" x="464.64085" xlink:href="#m6cd0185da7" y="59.800553"/>
      </g>
     </g>
     <g id="text_10">
      <!-- 0.85 -->
      <g style="fill:#4d4d4d;" transform="translate(440.0971 62.228803)scale(0.088 -0.088)">
       <use xlink:href="#DejaVuSans-30"/>
       <use x="63.623047" xlink:href="#DejaVuSans-2e"/>
       <use x="95.410156" xlink:href="#DejaVuSans-38"/>
       <use x="159.033203" xlink:href="#DejaVuSans-35"/>
      </g>
     </g>
    </g>
    <g id="ytick_12">
     <g id="line2d_39">
      <path clip-path="url(#p372b218c80)" d="M 464.64085 201.965398 
L 827.989688 201.965398 
" style="fill:none;stroke:#ffffff;stroke-linecap:square;stroke-width:0.5;"/>
     </g>
    </g>
    <g id="ytick_13">
     <g id="line2d_40">
      <path clip-path="url(#p372b218c80)" d="M 464.64085 161.346871 
L 827.989688 161.346871 
" style="fill:none;stroke:#ffffff;stroke-linecap:square;stroke-width:0.5;"/>
     </g>
    </g>
    <g id="ytick_14">
     <g id="line2d_41">
      <path clip-path="url(#p372b218c80)" d="M 464.64085 120.728344 
L 827.989688 120.728344 
" style="fill:none;stroke:#ffffff;stroke-linecap:square;stroke-width:0.5;"/>
     </g>
    </g>
    <g id="ytick_15">
     <g id="line2d_42">
      <path clip-path="url(#p372b218c80)" d="M 464.64085 80.109817 
L 827.989688 80.109817 
" style="fill:none;stroke:#ffffff;stroke-linecap:square;stroke-width:0.5;"/>
     </g>
    </g>
    <g id="ytick_16">
     <g id="line2d_43">
      <path clip-path="url(#p372b218c80)" d="M 464.64085 39.491289 
L 827.989688 39.491289 
" style="fill:none;stroke:#ffffff;stroke-linecap:square;stroke-width:0.5;"/>
     </g>
    </g>
   </g>
   <g id="line2d_44">
    <path clip-path="url(#p372b218c80)" d="M 481.156707 163.929639 
L 497.672563 36.092433 
L 514.188419 35.003829 
L 530.704275 34.973465 
L 547.220131 35.424873 
L 563.735988 35.054431 
L 580.251844 34.275886 
L 596.7677 34.91536 
L 613.283556 35.151163 
L 629.799413 35.269083 
L 646.315269 35.373826 
L 679.346981 36.027771 
L 712.378694 34.83814 
L 745.410406 34.830737 
L 778.442119 35.17452 
L 811.473831 36.632008 
" style="fill:none;stroke:#000000;stroke-width:0.886227;"/>
   </g>
   <g id="PathCollection_2">
    <path clip-path="url(#p372b218c80)" d="M 481.156707 165.702093 
C 481.626767 165.702093 482.077638 165.515336 482.410021 165.182953 
C 482.742403 164.85057 482.92916 164.399699 482.92916 163.929639 
C 482.92916 163.459579 482.742403 163.008708 482.410021 162.676325 
C 482.077638 162.343942 481.626767 162.157185 481.156707 162.157185 
C 480.686646 162.157185 480.235775 162.343942 479.903392 162.676325 
C 479.57101 163.008708 479.384253 163.459579 479.384253 163.929639 
C 479.384253 164.399699 479.57101 164.85057 479.903392 165.182953 
C 480.235775 165.515336 480.686646 165.702093 481.156707 165.702093 
z
" style="stroke:#000000;stroke-width:0.886227;"/>
    <path clip-path="url(#p372b218c80)" d="M 497.672563 37.864887 
C 498.142623 37.864887 498.593494 37.67813 498.925877 37.345747 
C 499.25826 37.013365 499.445017 36.562493 499.445017 36.092433 
C 499.445017 35.622373 499.25826 35.171502 498.925877 34.839119 
C 498.593494 34.506736 498.142623 34.319979 497.672563 34.319979 
C 497.202503 34.319979 496.751631 34.506736 496.419249 34.839119 
C 496.086866 35.171502 495.900109 35.622373 495.900109 36.092433 
C 495.900109 36.562493 496.086866 37.013365 496.419249 37.345747 
C 496.751631 37.67813 497.202503 37.864887 497.672563 37.864887 
z
" style="stroke:#000000;stroke-width:0.886227;"/>
    <path clip-path="url(#p372b218c80)" d="M 514.188419 36.776283 
C 514.658479 36.776283 515.10935 36.589526 515.441733 36.257143 
C 515.774116 35.924761 515.960873 35.473889 515.960873 35.003829 
C 515.960873 34.533769 515.774116 34.082898 515.441733 33.750515 
C 515.10935 33.418132 514.658479 33.231375 514.188419 33.231375 
C 513.718359 33.231375 513.267488 33.418132 512.935105 33.750515 
C 512.602722 34.082898 512.415965 34.533769 512.415965 35.003829 
C 512.415965 35.473889 512.602722 35.924761 512.935105 36.257143 
C 513.267488 36.589526 513.718359 36.776283 514.188419 36.776283 
z
" style="stroke:#000000;stroke-width:0.886227;"/>
    <path clip-path="url(#p372b218c80)" d="M 530.704275 36.745919 
C 531.174335 36.745919 531.625207 36.559162 531.957589 36.226779 
C 532.289972 35.894396 532.476729 35.443525 532.476729 34.973465 
C 532.476729 34.503405 532.289972 34.052534 531.957589 33.720151 
C 531.625207 33.387768 531.174335 33.201011 530.704275 33.201011 
C 530.234215 33.201011 529.783344 33.387768 529.450961 33.720151 
C 529.118578 34.052534 528.931821 34.503405 528.931821 34.973465 
C 528.931821 35.443525 529.118578 35.894396 529.450961 36.226779 
C 529.783344 36.559162 530.234215 36.745919 530.704275 36.745919 
z
" style="stroke:#000000;stroke-width:0.886227;"/>
    <path clip-path="url(#p372b218c80)" d="M 547.220131 37.197327 
C 547.690192 37.197327 548.141063 37.01057 548.473446 36.678188 
C 548.805828 36.345805 548.992585 35.894934 548.992585 35.424873 
C 548.992585 34.954813 548.805828 34.503942 548.473446 34.171559 
C 548.141063 33.839176 547.690192 33.65242 547.220131 33.65242 
C 546.750071 33.65242 546.2992 33.839176 545.966817 34.171559 
C 545.634435 34.503942 545.447678 34.954813 545.447678 35.424873 
C 545.447678 35.894934 545.634435 36.345805 545.966817 36.678188 
C 546.2992 37.01057 546.750071 37.197327 547.220131 37.197327 
z
" style="stroke:#000000;stroke-width:0.886227;"/>
    <path clip-path="url(#p372b218c80)" d="M 563.735988 36.826885 
C 564.206048 36.826885 564.656919 36.640128 564.989302 36.307745 
C 565.321685 35.975363 565.508442 35.524492 565.508442 35.054431 
C 565.508442 34.584371 565.321685 34.1335 564.989302 33.801117 
C 564.656919 33.468734 564.206048 33.281977 563.735988 33.281977 
C 563.265927 33.281977 562.815056 33.468734 562.482674 33.801117 
C 562.150291 34.1335 561.963534 34.584371 561.963534 35.054431 
C 561.963534 35.524492 562.150291 35.975363 562.482674 36.307745 
C 562.815056 36.640128 563.265927 36.826885 563.735988 36.826885 
z
" style="stroke:#000000;stroke-width:0.886227;"/>
    <path clip-path="url(#p372b218c80)" d="M 580.251844 36.04834 
C 580.721904 36.04834 581.172775 35.861583 581.505158 35.5292 
C 581.837541 35.196817 582.024298 34.745946 582.024298 34.275886 
C 582.024298 33.805825 581.837541 33.354954 581.505158 33.022572 
C 581.172775 32.690189 580.721904 32.503432 580.251844 32.503432 
C 579.781784 32.503432 579.330913 32.690189 578.99853 33.022572 
C 578.666147 33.354954 578.47939 33.805825 578.47939 34.275886 
C 578.47939 34.745946 578.666147 35.196817 578.99853 35.5292 
C 579.330913 35.861583 579.781784 36.04834 580.251844 36.04834 
z
" style="stroke:#000000;stroke-width:0.886227;"/>
    <path clip-path="url(#p372b218c80)" d="M 596.7677 36.687814 
C 597.23776 36.687814 597.688632 36.501057 598.021014 36.168674 
C 598.353397 35.836291 598.540154 35.38542 598.540154 34.91536 
C 598.540154 34.4453 598.353397 33.994428 598.021014 33.662046 
C 597.688632 33.329663 597.23776 33.142906 596.7677 33.142906 
C 596.29764 33.142906 595.846769 33.329663 595.514386 33.662046 
C 595.182003 33.994428 594.995246 34.4453 594.995246 34.91536 
C 594.995246 35.38542 595.182003 35.836291 595.514386 36.168674 
C 595.846769 36.501057 596.29764 36.687814 596.7677 36.687814 
z
" style="stroke:#000000;stroke-width:0.886227;"/>
    <path clip-path="url(#p372b218c80)" d="M 613.283556 36.923617 
C 613.753617 36.923617 614.204488 36.73686 614.536871 36.404477 
C 614.869253 36.072095 615.05601 35.621223 615.05601 35.151163 
C 615.05601 34.681103 614.869253 34.230232 614.536871 33.897849 
C 614.204488 33.565466 613.753617 33.378709 613.283556 33.378709 
C 612.813496 33.378709 612.362625 33.565466 612.030242 33.897849 
C 611.697859 34.230232 611.511103 34.681103 611.511103 35.151163 
C 611.511103 35.621223 611.697859 36.072095 612.030242 36.404477 
C 612.362625 36.73686 612.813496 36.923617 613.283556 36.923617 
z
" style="stroke:#000000;stroke-width:0.886227;"/>
    <path clip-path="url(#p372b218c80)" d="M 629.799413 37.041537 
C 630.269473 37.041537 630.720344 36.85478 631.052727 36.522397 
C 631.38511 36.190014 631.571867 35.739143 631.571867 35.269083 
C 631.571867 34.799022 631.38511 34.348151 631.052727 34.015769 
C 630.720344 33.683386 630.269473 33.496629 629.799413 33.496629 
C 629.329352 33.496629 628.878481 33.683386 628.546099 34.015769 
C 628.213716 34.348151 628.026959 34.799022 628.026959 35.269083 
C 628.026959 35.739143 628.213716 36.190014 628.546099 36.522397 
C 628.878481 36.85478 629.329352 37.041537 629.799413 37.041537 
z
" style="stroke:#000000;stroke-width:0.886227;"/>
    <path clip-path="url(#p372b218c80)" d="M 646.315269 37.14628 
C 646.785329 37.14628 647.2362 36.959523 647.568583 36.62714 
C 647.900966 36.294757 648.087723 35.843886 648.087723 35.373826 
C 648.087723 34.903766 647.900966 34.452894 647.568583 34.120512 
C 647.2362 33.788129 646.785329 33.601372 646.315269 33.601372 
C 645.845209 33.601372 645.394338 33.788129 645.061955 34.120512 
C 644.729572 34.452894 644.542815 34.903766 644.542815 35.373826 
C 644.542815 35.843886 644.729572 36.294757 645.061955 36.62714 
C 645.394338 36.959523 645.845209 37.14628 646.315269 37.14628 
z
" style="stroke:#000000;stroke-width:0.886227;"/>
    <path clip-path="url(#p372b218c80)" d="M 679.346981 37.800225 
C 679.817042 37.800225 680.267913 37.613468 680.600296 37.281085 
C 680.932678 36.948703 681.119435 36.497832 681.119435 36.027771 
C 681.119435 35.557711 680.932678 35.10684 680.600296 34.774457 
C 680.267913 34.442074 679.817042 34.255317 679.346981 34.255317 
C 678.876921 34.255317 678.42605 34.442074 678.093667 34.774457 
C 677.761284 35.10684 677.574528 35.557711 677.574528 36.027771 
C 677.574528 36.497832 677.761284 36.948703 678.093667 37.281085 
C 678.42605 37.613468 678.876921 37.800225 679.346981 37.800225 
z
" style="stroke:#000000;stroke-width:0.886227;"/>
    <path clip-path="url(#p372b218c80)" d="M 712.378694 36.610594 
C 712.848754 36.610594 713.299625 36.423837 713.632008 36.091454 
C 713.964391 35.759071 714.151148 35.3082 714.151148 34.83814 
C 714.151148 34.36808 713.964391 33.917209 713.632008 33.584826 
C 713.299625 33.252443 712.848754 33.065686 712.378694 33.065686 
C 711.908634 33.065686 711.457762 33.252443 711.12538 33.584826 
C 710.792997 33.917209 710.60624 34.36808 710.60624 34.83814 
C 710.60624 35.3082 710.792997 35.759071 711.12538 36.091454 
C 711.457762 36.423837 711.908634 36.610594 712.378694 36.610594 
z
" style="stroke:#000000;stroke-width:0.886227;"/>
    <path clip-path="url(#p372b218c80)" d="M 745.410406 36.60319 
C 745.880467 36.60319 746.331338 36.416434 746.66372 36.084051 
C 746.996103 35.751668 747.18286 35.300797 747.18286 34.830737 
C 747.18286 34.360676 746.996103 33.909805 746.66372 33.577422 
C 746.331338 33.24504 745.880467 33.058283 745.410406 33.058283 
C 744.940346 33.058283 744.489475 33.24504 744.157092 33.577422 
C 743.824709 33.909805 743.637952 34.360676 743.637952 34.830737 
C 743.637952 35.300797 743.824709 35.751668 744.157092 36.084051 
C 744.489475 36.416434 744.940346 36.60319 745.410406 36.60319 
z
" style="stroke:#000000;stroke-width:0.886227;"/>
    <path clip-path="url(#p372b218c80)" d="M 778.442119 36.946974 
C 778.912179 36.946974 779.36305 36.760217 779.695433 36.427835 
C 780.027816 36.095452 780.214573 35.644581 780.214573 35.17452 
C 780.214573 34.70446 780.027816 34.253589 779.695433 33.921206 
C 779.36305 33.588823 778.912179 33.402067 778.442119 33.402067 
C 777.972059 33.402067 777.521187 33.588823 777.188805 33.921206 
C 776.856422 34.253589 776.669665 34.70446 776.669665 35.17452 
C 776.669665 35.644581 776.856422 36.095452 777.188805 36.427835 
C 777.521187 36.760217 777.972059 36.946974 778.442119 36.946974 
z
" style="stroke:#000000;stroke-width:0.886227;"/>
    <path clip-path="url(#p372b218c80)" d="M 811.473831 38.404462 
C 811.943892 38.404462 812.394763 38.217705 812.727145 37.885322 
C 813.059528 37.552939 813.246285 37.102068 813.246285 36.632008 
C 813.246285 36.161947 813.059528 35.711076 812.727145 35.378694 
C 812.394763 35.046311 811.943892 34.859554 811.473831 34.859554 
C 811.003771 34.859554 810.5529 35.046311 810.220517 35.378694 
C 809.888134 35.711076 809.701377 36.161947 809.701377 36.632008 
C 809.701377 37.102068 809.888134 37.552939 810.220517 37.885322 
C 810.5529 38.217705 811.003771 38.404462 811.473831 38.404462 
z
" style="stroke:#000000;stroke-width:0.886227;"/>
   </g>
   <g id="patch_5">
    <path d="M 464.64085 22.244082 
L 827.989688 22.244082 
L 827.989688 7.2 
L 464.64085 7.2 
z
" style="fill:#d9d9d9;"/>
   </g>
   <g id="PolyCollection_2">
    <path clip-path="url(#p372b218c80)" d="M 481.156707 103.16565 
L 481.156707 224.693628 
L 497.672563 38.173202 
L 514.188419 36.65575 
L 530.704275 38.062393 
L 547.220131 37.192021 
L 563.735988 36.564245 
L 580.251844 36.175933 
L 596.7677 37.369889 
L 613.283556 37.715686 
L 629.799413 36.753616 
L 646.315269 37.74992 
L 679.346981 39.220639 
L 712.378694 36.242519 
L 745.410406 37.280809 
L 778.442119 37.392432 
L 811.473831 39.517173 
L 811.473831 33.746842 
L 811.473831 33.746842 
L 778.442119 32.956609 
L 745.410406 32.380665 
L 712.378694 33.433761 
L 679.346981 32.834904 
L 646.315269 32.997732 
L 629.799413 33.784549 
L 613.283556 32.586641 
L 596.7677 32.46083 
L 580.251844 32.375838 
L 563.735988 33.544618 
L 547.220131 33.657726 
L 530.704275 31.884537 
L 514.188419 33.351908 
L 497.672563 34.011664 
L 481.156707 103.16565 
z
" style="fill:#333333;fill-opacity:0.501961;"/>
   </g>
   <g id="text_11">
    <!-- AUC -->
    <g style="fill:#1a1a1a;" transform="translate(637.012706 17.150291)scale(0.088 -0.088)">
     <defs>
      <path d="M 556 4666 
L 1191 4666 
L 1191 1831 
Q 1191 1081 1462 751 
Q 1734 422 2344 422 
Q 2950 422 3222 751 
Q 3494 1081 3494 1831 
L 3494 4666 
L 4128 4666 
L 4128 1753 
Q 4128 841 3676 375 
Q 3225 -91 2344 -91 
Q 1459 -91 1007 375 
Q 556 841 556 1753 
L 556 4666 
z
" id="DejaVuSans-55" transform="scale(0.015625)"/>
      <path d="M 4122 4306 
L 4122 3641 
Q 3803 3938 3442 4084 
Q 3081 4231 2675 4231 
Q 1875 4231 1450 3742 
Q 1025 3253 1025 2328 
Q 1025 1406 1450 917 
Q 1875 428 2675 428 
Q 3081 428 3442 575 
Q 3803 722 4122 1019 
L 4122 359 
Q 3791 134 3420 21 
Q 3050 -91 2638 -91 
Q 1578 -91 968 557 
Q 359 1206 359 2328 
Q 359 3453 968 4101 
Q 1578 4750 2638 4750 
Q 3056 4750 3426 4639 
Q 3797 4528 4122 4306 
z
" id="DejaVuSans-43" transform="scale(0.015625)"/>
     </defs>
     <use xlink:href="#DejaVuSans-41"/>
     <use x="68.408203" xlink:href="#DejaVuSans-55"/>
     <use x="141.601562" xlink:href="#DejaVuSans-43"/>
    </g>
   </g>
  </g>
  <g id="axes_3">
   <g id="patch_6">
    <path d="M 46.789688 465.764082 
L 410.138525 465.764082 
L 410.138525 253.674082 
L 46.789688 253.674082 
z
" style="fill:#ebebeb;"/>
   </g>
   <g id="matplotlib.axis_5">
    <g id="xtick_19">
     <g id="line2d_45">
      <path clip-path="url(#p8cacdaa260)" d="M 63.305544 465.764082 
L 63.305544 253.674082 
" style="fill:none;stroke:#ffffff;stroke-linecap:square;"/>
     </g>
     <g id="line2d_46">
      <path d="M 63.305544 465.764082 
" style="fill:none;stroke:#333333;stroke-linecap:square;stroke-width:1.5;"/>
      <defs>
       <path d="M 0 0 
L 0 2.75 
" id="md7143a157b" style="stroke:#000000;"/>
      </defs>
      <g>
       <use style="fill:#333333;stroke:#000000;" x="63.305544" xlink:href="#md7143a157b" y="465.764082"/>
      </g>
     </g>
     <g id="text_12">
      <!-- 0 -->
      <g style="fill:#4d4d4d;" transform="translate(60.506044 477.400707)scale(0.088 -0.088)">
       <use xlink:href="#DejaVuSans-30"/>
      </g>
     </g>
    </g>
    <g id="xtick_20">
     <g id="line2d_47">
      <path clip-path="url(#p8cacdaa260)" d="M 145.884825 465.764082 
L 145.884825 253.674082 
" style="fill:none;stroke:#ffffff;stroke-linecap:square;"/>
     </g>
     <g id="line2d_48">
      <path d="M 145.884825 465.764082 
" style="fill:none;stroke:#333333;stroke-linecap:square;stroke-width:1.5;"/>
      <g>
       <use style="fill:#333333;stroke:#000000;" x="145.884825" xlink:href="#md7143a157b" y="465.764082"/>
      </g>
     </g>
     <g id="text_13">
      <!-- 5 -->
      <g style="fill:#4d4d4d;" transform="translate(143.085325 477.400707)scale(0.088 -0.088)">
       <use xlink:href="#DejaVuSans-35"/>
      </g>
     </g>
    </g>
    <g id="xtick_21">
     <g id="line2d_49">
      <path clip-path="url(#p8cacdaa260)" d="M 228.464106 465.764082 
L 228.464106 253.674082 
" style="fill:none;stroke:#ffffff;stroke-linecap:square;"/>
     </g>
     <g id="line2d_50">
      <path d="M 228.464106 465.764082 
" style="fill:none;stroke:#333333;stroke-linecap:square;stroke-width:1.5;"/>
      <g>
       <use style="fill:#333333;stroke:#000000;" x="228.464106" xlink:href="#md7143a157b" y="465.764082"/>
      </g>
     </g>
     <g id="text_14">
      <!-- 10 -->
      <g style="fill:#4d4d4d;" transform="translate(222.865106 477.400707)scale(0.088 -0.088)">
       <defs>
        <path d="M 794 531 
L 1825 531 
L 1825 4091 
L 703 3866 
L 703 4441 
L 1819 4666 
L 2450 4666 
L 2450 531 
L 3481 531 
L 3481 0 
L 794 0 
L 794 531 
z
" id="DejaVuSans-31" transform="scale(0.015625)"/>
       </defs>
       <use xlink:href="#DejaVuSans-31"/>
       <use x="63.623047" xlink:href="#DejaVuSans-30"/>
      </g>
     </g>
    </g>
    <g id="xtick_22">
     <g id="line2d_51">
      <path clip-path="url(#p8cacdaa260)" d="M 311.043387 465.764082 
L 311.043387 253.674082 
" style="fill:none;stroke:#ffffff;stroke-linecap:square;"/>
     </g>
     <g id="line2d_52">
      <path d="M 311.043387 465.764082 
" style="fill:none;stroke:#333333;stroke-linecap:square;stroke-width:1.5;"/>
      <g>
       <use style="fill:#333333;stroke:#000000;" x="311.043387" xlink:href="#md7143a157b" y="465.764082"/>
      </g>
     </g>
     <g id="text_15">
      <!-- 15 -->
      <g style="fill:#4d4d4d;" transform="translate(305.444387 477.400707)scale(0.088 -0.088)">
       <use xlink:href="#DejaVuSans-31"/>
       <use x="63.623047" xlink:href="#DejaVuSans-35"/>
      </g>
     </g>
    </g>
    <g id="xtick_23">
     <g id="line2d_53">
      <path clip-path="url(#p8cacdaa260)" d="M 393.622668 465.764082 
L 393.622668 253.674082 
" style="fill:none;stroke:#ffffff;stroke-linecap:square;"/>
     </g>
     <g id="line2d_54">
      <path d="M 393.622668 465.764082 
" style="fill:none;stroke:#333333;stroke-linecap:square;stroke-width:1.5;"/>
      <g>
       <use style="fill:#333333;stroke:#000000;" x="393.622668" xlink:href="#md7143a157b" y="465.764082"/>
      </g>
     </g>
     <g id="text_16">
      <!-- 20 -->
      <g style="fill:#4d4d4d;" transform="translate(388.023668 477.400707)scale(0.088 -0.088)">
       <defs>
        <path d="M 1228 531 
L 3431 531 
L 3431 0 
L 469 0 
L 469 531 
Q 828 903 1448 1529 
Q 2069 2156 2228 2338 
Q 2531 2678 2651 2914 
Q 2772 3150 2772 3378 
Q 2772 3750 2511 3984 
Q 2250 4219 1831 4219 
Q 1534 4219 1204 4116 
Q 875 4013 500 3803 
L 500 4441 
Q 881 4594 1212 4672 
Q 1544 4750 1819 4750 
Q 2544 4750 2975 4387 
Q 3406 4025 3406 3419 
Q 3406 3131 3298 2873 
Q 3191 2616 2906 2266 
Q 2828 2175 2409 1742 
Q 1991 1309 1228 531 
z
" id="DejaVuSans-32" transform="scale(0.015625)"/>
       </defs>
       <use xlink:href="#DejaVuSans-32"/>
       <use x="63.623047" xlink:href="#DejaVuSans-30"/>
      </g>
     </g>
    </g>
    <g id="xtick_24">
     <g id="line2d_55">
      <path clip-path="url(#p8cacdaa260)" d="M 104.595184 465.764082 
L 104.595184 253.674082 
" style="fill:none;stroke:#ffffff;stroke-linecap:square;stroke-width:0.5;"/>
     </g>
    </g>
    <g id="xtick_25">
     <g id="line2d_56">
      <path clip-path="url(#p8cacdaa260)" d="M 187.174466 465.764082 
L 187.174466 253.674082 
" style="fill:none;stroke:#ffffff;stroke-linecap:square;stroke-width:0.5;"/>
     </g>
    </g>
    <g id="xtick_26">
     <g id="line2d_57">
      <path clip-path="url(#p8cacdaa260)" d="M 269.753747 465.764082 
L 269.753747 253.674082 
" style="fill:none;stroke:#ffffff;stroke-linecap:square;stroke-width:0.5;"/>
     </g>
    </g>
    <g id="xtick_27">
     <g id="line2d_58">
      <path clip-path="url(#p8cacdaa260)" d="M 352.333028 465.764082 
L 352.333028 253.674082 
" style="fill:none;stroke:#ffffff;stroke-linecap:square;stroke-width:0.5;"/>
     </g>
    </g>
   </g>
   <g id="matplotlib.axis_6">
    <g id="ytick_17">
     <g id="line2d_59">
      <path clip-path="url(#p8cacdaa260)" d="M 46.789688 465.585616 
L 410.138525 465.585616 
" style="fill:none;stroke:#ffffff;stroke-linecap:square;"/>
     </g>
     <g id="line2d_60">
      <path d="M 46.789688 465.585616 
" style="fill:none;stroke:#333333;stroke-linecap:square;stroke-width:1.5;"/>
      <g>
       <use style="fill:#333333;stroke:#000000;" x="46.789688" xlink:href="#m6cd0185da7" y="465.585616"/>
      </g>
     </g>
     <g id="text_17">
      <!-- 0.78 -->
      <g style="fill:#4d4d4d;" transform="translate(22.245938 468.013866)scale(0.088 -0.088)">
       <use xlink:href="#DejaVuSans-30"/>
       <use x="63.623047" xlink:href="#DejaVuSans-2e"/>
       <use x="95.410156" xlink:href="#DejaVuSans-37"/>
       <use x="159.033203" xlink:href="#DejaVuSans-38"/>
      </g>
     </g>
    </g>
    <g id="ytick_18">
     <g id="line2d_61">
      <path clip-path="url(#p8cacdaa260)" d="M 46.789688 411.876229 
L 410.138525 411.876229 
" style="fill:none;stroke:#ffffff;stroke-linecap:square;"/>
     </g>
     <g id="line2d_62">
      <path d="M 46.789688 411.876229 
" style="fill:none;stroke:#333333;stroke-linecap:square;stroke-width:1.5;"/>
      <g>
       <use style="fill:#333333;stroke:#000000;" x="46.789688" xlink:href="#m6cd0185da7" y="411.876229"/>
      </g>
     </g>
     <g id="text_18">
      <!-- 0.81 -->
      <g style="fill:#4d4d4d;" transform="translate(22.245938 414.304479)scale(0.088 -0.088)">
       <use xlink:href="#DejaVuSans-30"/>
       <use x="63.623047" xlink:href="#DejaVuSans-2e"/>
       <use x="95.410156" xlink:href="#DejaVuSans-38"/>
       <use x="159.033203" xlink:href="#DejaVuSans-31"/>
      </g>
     </g>
    </g>
    <g id="ytick_19">
     <g id="line2d_63">
      <path clip-path="url(#p8cacdaa260)" d="M 46.789688 358.166843 
L 410.138525 358.166843 
" style="fill:none;stroke:#ffffff;stroke-linecap:square;"/>
     </g>
     <g id="line2d_64">
      <path d="M 46.789688 358.166843 
" style="fill:none;stroke:#333333;stroke-linecap:square;stroke-width:1.5;"/>
      <g>
       <use style="fill:#333333;stroke:#000000;" x="46.789688" xlink:href="#m6cd0185da7" y="358.166843"/>
      </g>
     </g>
     <g id="text_19">
      <!-- 0.84 -->
      <g style="fill:#4d4d4d;" transform="translate(22.245938 360.595093)scale(0.088 -0.088)">
       <defs>
        <path d="M 2419 4116 
L 825 1625 
L 2419 1625 
L 2419 4116 
z
M 2253 4666 
L 3047 4666 
L 3047 1625 
L 3713 1625 
L 3713 1100 
L 3047 1100 
L 3047 0 
L 2419 0 
L 2419 1100 
L 313 1100 
L 313 1709 
L 2253 4666 
z
" id="DejaVuSans-34" transform="scale(0.015625)"/>
       </defs>
       <use xlink:href="#DejaVuSans-30"/>
       <use x="63.623047" xlink:href="#DejaVuSans-2e"/>
       <use x="95.410156" xlink:href="#DejaVuSans-38"/>
       <use x="159.033203" xlink:href="#DejaVuSans-34"/>
      </g>
     </g>
    </g>
    <g id="ytick_20">
     <g id="line2d_65">
      <path clip-path="url(#p8cacdaa260)" d="M 46.789688 304.457457 
L 410.138525 304.457457 
" style="fill:none;stroke:#ffffff;stroke-linecap:square;"/>
     </g>
     <g id="line2d_66">
      <path d="M 46.789688 304.457457 
" style="fill:none;stroke:#333333;stroke-linecap:square;stroke-width:1.5;"/>
      <g>
       <use style="fill:#333333;stroke:#000000;" x="46.789688" xlink:href="#m6cd0185da7" y="304.457457"/>
      </g>
     </g>
     <g id="text_20">
      <!-- 0.87 -->
      <g style="fill:#4d4d4d;" transform="translate(22.245938 306.885707)scale(0.088 -0.088)">
       <use xlink:href="#DejaVuSans-30"/>
       <use x="63.623047" xlink:href="#DejaVuSans-2e"/>
       <use x="95.410156" xlink:href="#DejaVuSans-38"/>
       <use x="159.033203" xlink:href="#DejaVuSans-37"/>
      </g>
     </g>
    </g>
    <g id="ytick_21">
     <g id="line2d_67">
      <path clip-path="url(#p8cacdaa260)" d="M 46.789688 438.730923 
L 410.138525 438.730923 
" style="fill:none;stroke:#ffffff;stroke-linecap:square;stroke-width:0.5;"/>
     </g>
    </g>
    <g id="ytick_22">
     <g id="line2d_68">
      <path clip-path="url(#p8cacdaa260)" d="M 46.789688 385.021536 
L 410.138525 385.021536 
" style="fill:none;stroke:#ffffff;stroke-linecap:square;stroke-width:0.5;"/>
     </g>
    </g>
    <g id="ytick_23">
     <g id="line2d_69">
      <path clip-path="url(#p8cacdaa260)" d="M 46.789688 331.31215 
L 410.138525 331.31215 
" style="fill:none;stroke:#ffffff;stroke-linecap:square;stroke-width:0.5;"/>
     </g>
    </g>
    <g id="ytick_24">
     <g id="line2d_70">
      <path clip-path="url(#p8cacdaa260)" d="M 46.789688 277.602764 
L 410.138525 277.602764 
" style="fill:none;stroke:#ffffff;stroke-linecap:square;stroke-width:0.5;"/>
     </g>
    </g>
   </g>
   <g id="line2d_71">
    <path clip-path="url(#p8cacdaa260)" d="M 63.305544 363.8299 
L 79.8214 268.282892 
L 96.337256 268.099467 
L 112.853112 269.203972 
L 129.368969 267.928967 
L 145.884825 269.036687 
L 162.400681 264.770884 
L 178.916537 268.956622 
L 195.432394 269.268902 
L 211.94825 269.083684 
L 228.464106 270.049638 
L 261.495819 269.592205 
L 294.527531 268.661784 
L 327.559244 267.511105 
L 360.590956 268.335463 
L 393.622668 269.516061 
" style="fill:none;stroke:#000000;stroke-width:0.886227;"/>
   </g>
   <g id="PathCollection_3">
    <path clip-path="url(#p8cacdaa260)" d="M 63.305544 365.602354 
C 63.775604 365.602354 64.226475 365.415597 64.558858 365.083214 
C 64.891241 364.750831 65.077998 364.29996 65.077998 363.8299 
C 65.077998 363.35984 64.891241 362.908968 64.558858 362.576586 
C 64.226475 362.244203 63.775604 362.057446 63.305544 362.057446 
C 62.835483 362.057446 62.384612 362.244203 62.05223 362.576586 
C 61.719847 362.908968 61.53309 363.35984 61.53309 363.8299 
C 61.53309 364.29996 61.719847 364.750831 62.05223 365.083214 
C 62.384612 365.415597 62.835483 365.602354 63.305544 365.602354 
z
" style="stroke:#000000;stroke-width:0.886227;"/>
    <path clip-path="url(#p8cacdaa260)" d="M 79.8214 270.055345 
C 80.29146 270.055345 80.742331 269.868589 81.074714 269.536206 
C 81.407097 269.203823 81.593854 268.752952 81.593854 268.282892 
C 81.593854 267.812831 81.407097 267.36196 81.074714 267.029577 
C 80.742331 266.697195 80.29146 266.510438 79.8214 266.510438 
C 79.35134 266.510438 78.900469 266.697195 78.568086 267.029577 
C 78.235703 267.36196 78.048946 267.812831 78.048946 268.282892 
C 78.048946 268.752952 78.235703 269.203823 78.568086 269.536206 
C 78.900469 269.868589 79.35134 270.055345 79.8214 270.055345 
z
" style="stroke:#000000;stroke-width:0.886227;"/>
    <path clip-path="url(#p8cacdaa260)" d="M 96.337256 269.871921 
C 96.807316 269.871921 97.258188 269.685164 97.59057 269.352781 
C 97.922953 269.020399 98.10971 268.569528 98.10971 268.099467 
C 98.10971 267.629407 97.922953 267.178536 97.59057 266.846153 
C 97.258188 266.51377 96.807316 266.327013 96.337256 266.327013 
C 95.867196 266.327013 95.416325 266.51377 95.083942 266.846153 
C 94.751559 267.178536 94.564802 267.629407 94.564802 268.099467 
C 94.564802 268.569528 94.751559 269.020399 95.083942 269.352781 
C 95.416325 269.685164 95.867196 269.871921 96.337256 269.871921 
z
" style="stroke:#000000;stroke-width:0.886227;"/>
    <path clip-path="url(#p8cacdaa260)" d="M 112.853112 270.976426 
C 113.323173 270.976426 113.774044 270.789669 114.106427 270.457286 
C 114.438809 270.124903 114.625566 269.674032 114.625566 269.203972 
C 114.625566 268.733912 114.438809 268.283041 114.106427 267.950658 
C 113.774044 267.618275 113.323173 267.431518 112.853112 267.431518 
C 112.383052 267.431518 111.932181 267.618275 111.599798 267.950658 
C 111.267416 268.283041 111.080659 268.733912 111.080659 269.203972 
C 111.080659 269.674032 111.267416 270.124903 111.599798 270.457286 
C 111.932181 270.789669 112.383052 270.976426 112.853112 270.976426 
z
" style="stroke:#000000;stroke-width:0.886227;"/>
    <path clip-path="url(#p8cacdaa260)" d="M 129.368969 269.701421 
C 129.839029 269.701421 130.2899 269.514664 130.622283 269.182281 
C 130.954666 268.849898 131.141423 268.399027 131.141423 267.928967 
C 131.141423 267.458907 130.954666 267.008036 130.622283 266.675653 
C 130.2899 266.34327 129.839029 266.156513 129.368969 266.156513 
C 128.898908 266.156513 128.448037 266.34327 128.115655 266.675653 
C 127.783272 267.008036 127.596515 267.458907 127.596515 267.928967 
C 127.596515 268.399027 127.783272 268.849898 128.115655 269.182281 
C 128.448037 269.514664 128.898908 269.701421 129.368969 269.701421 
z
" style="stroke:#000000;stroke-width:0.886227;"/>
    <path clip-path="url(#p8cacdaa260)" d="M 145.884825 270.809141 
C 146.354885 270.809141 146.805756 270.622384 147.138139 270.290002 
C 147.470522 269.957619 147.657279 269.506748 147.657279 269.036687 
C 147.657279 268.566627 147.470522 268.115756 147.138139 267.783373 
C 146.805756 267.45099 146.354885 267.264234 145.884825 267.264234 
C 145.414765 267.264234 144.963894 267.45099 144.631511 267.783373 
C 144.299128 268.115756 144.112371 268.566627 144.112371 269.036687 
C 144.112371 269.506748 144.299128 269.957619 144.631511 270.290002 
C 144.963894 270.622384 145.414765 270.809141 145.884825 270.809141 
z
" style="stroke:#000000;stroke-width:0.886227;"/>
    <path clip-path="url(#p8cacdaa260)" d="M 162.400681 266.543338 
C 162.870741 266.543338 163.321613 266.356581 163.653995 266.024198 
C 163.986378 265.691816 164.173135 265.240945 164.173135 264.770884 
C 164.173135 264.300824 163.986378 263.849953 163.653995 263.51757 
C 163.321613 263.185187 162.870741 262.99843 162.400681 262.99843 
C 161.930621 262.99843 161.47975 263.185187 161.147367 263.51757 
C 160.814984 263.849953 160.628227 264.300824 160.628227 264.770884 
C 160.628227 265.240945 160.814984 265.691816 161.147367 266.024198 
C 161.47975 266.356581 161.930621 266.543338 162.400681 266.543338 
z
" style="stroke:#000000;stroke-width:0.886227;"/>
    <path clip-path="url(#p8cacdaa260)" d="M 178.916537 270.729076 
C 179.386598 270.729076 179.837469 270.542319 180.169852 270.209936 
C 180.502234 269.877553 180.688991 269.426682 180.688991 268.956622 
C 180.688991 268.486562 180.502234 268.035691 180.169852 267.703308 
C 179.837469 267.370925 179.386598 267.184168 178.916537 267.184168 
C 178.446477 267.184168 177.995606 267.370925 177.663223 267.703308 
C 177.33084 268.035691 177.144084 268.486562 177.144084 268.956622 
C 177.144084 269.426682 177.33084 269.877553 177.663223 270.209936 
C 177.995606 270.542319 178.446477 270.729076 178.916537 270.729076 
z
" style="stroke:#000000;stroke-width:0.886227;"/>
    <path clip-path="url(#p8cacdaa260)" d="M 195.432394 271.041356 
C 195.902454 271.041356 196.353325 270.854599 196.685708 270.522216 
C 197.018091 270.189833 197.204847 269.738962 197.204847 269.268902 
C 197.204847 268.798841 197.018091 268.34797 196.685708 268.015588 
C 196.353325 267.683205 195.902454 267.496448 195.432394 267.496448 
C 194.962333 267.496448 194.511462 267.683205 194.179079 268.015588 
C 193.846697 268.34797 193.65994 268.798841 193.65994 269.268902 
C 193.65994 269.738962 193.846697 270.189833 194.179079 270.522216 
C 194.511462 270.854599 194.962333 271.041356 195.432394 271.041356 
z
" style="stroke:#000000;stroke-width:0.886227;"/>
    <path clip-path="url(#p8cacdaa260)" d="M 211.94825 270.856138 
C 212.41831 270.856138 212.869181 270.669381 213.201564 270.336998 
C 213.533947 270.004615 213.720704 269.553744 213.720704 269.083684 
C 213.720704 268.613624 213.533947 268.162753 213.201564 267.83037 
C 212.869181 267.497987 212.41831 267.31123 211.94825 267.31123 
C 211.47819 267.31123 211.027319 267.497987 210.694936 267.83037 
C 210.362553 268.162753 210.175796 268.613624 210.175796 269.083684 
C 210.175796 269.553744 210.362553 270.004615 210.694936 270.336998 
C 211.027319 270.669381 211.47819 270.856138 211.94825 270.856138 
z
" style="stroke:#000000;stroke-width:0.886227;"/>
    <path clip-path="url(#p8cacdaa260)" d="M 228.464106 271.822092 
C 228.934166 271.822092 229.385037 271.635335 229.71742 271.302952 
C 230.049803 270.97057 230.23656 270.519699 230.23656 270.049638 
C 230.23656 269.579578 230.049803 269.128707 229.71742 268.796324 
C 229.385037 268.463941 228.934166 268.277184 228.464106 268.277184 
C 227.994046 268.277184 227.543175 268.463941 227.210792 268.796324 
C 226.878409 269.128707 226.691652 269.579578 226.691652 270.049638 
C 226.691652 270.519699 226.878409 270.97057 227.210792 271.302952 
C 227.543175 271.635335 227.994046 271.822092 228.464106 271.822092 
z
" style="stroke:#000000;stroke-width:0.886227;"/>
    <path clip-path="url(#p8cacdaa260)" d="M 261.495819 271.364659 
C 261.965879 271.364659 262.41675 271.177902 262.749133 270.845519 
C 263.081516 270.513136 263.268272 270.062265 263.268272 269.592205 
C 263.268272 269.122145 263.081516 268.671274 262.749133 268.338891 
C 262.41675 268.006508 261.965879 267.819751 261.495819 267.819751 
C 261.025758 267.819751 260.574887 268.006508 260.242504 268.338891 
C 259.910122 268.671274 259.723365 269.122145 259.723365 269.592205 
C 259.723365 270.062265 259.910122 270.513136 260.242504 270.845519 
C 260.574887 271.177902 261.025758 271.364659 261.495819 271.364659 
z
" style="stroke:#000000;stroke-width:0.886227;"/>
    <path clip-path="url(#p8cacdaa260)" d="M 294.527531 270.434238 
C 294.997591 270.434238 295.448462 270.247481 295.780845 269.915098 
C 296.113228 269.582715 296.299985 269.131844 296.299985 268.661784 
C 296.299985 268.191723 296.113228 267.740852 295.780845 267.40847 
C 295.448462 267.076087 294.997591 266.88933 294.527531 266.88933 
C 294.057471 266.88933 293.6066 267.076087 293.274217 267.40847 
C 292.941834 267.740852 292.755077 268.191723 292.755077 268.661784 
C 292.755077 269.131844 292.941834 269.582715 293.274217 269.915098 
C 293.6066 270.247481 294.057471 270.434238 294.527531 270.434238 
z
" style="stroke:#000000;stroke-width:0.886227;"/>
    <path clip-path="url(#p8cacdaa260)" d="M 327.559244 269.283559 
C 328.029304 269.283559 328.480175 269.096802 328.812558 268.764419 
C 329.14494 268.432036 329.331697 267.981165 329.331697 267.511105 
C 329.331697 267.041045 329.14494 266.590174 328.812558 266.257791 
C 328.480175 265.925408 328.029304 265.738651 327.559244 265.738651 
C 327.089183 265.738651 326.638312 265.925408 326.305929 266.257791 
C 325.973547 266.590174 325.78679 267.041045 325.78679 267.511105 
C 325.78679 267.981165 325.973547 268.432036 326.305929 268.764419 
C 326.638312 269.096802 327.089183 269.283559 327.559244 269.283559 
z
" style="stroke:#000000;stroke-width:0.886227;"/>
    <path clip-path="url(#p8cacdaa260)" d="M 360.590956 270.107917 
C 361.061016 270.107917 361.511887 269.92116 361.84427 269.588777 
C 362.176653 269.256394 362.36341 268.805523 362.36341 268.335463 
C 362.36341 267.865403 362.176653 267.414531 361.84427 267.082149 
C 361.511887 266.749766 361.061016 266.563009 360.590956 266.563009 
C 360.120896 266.563009 359.670025 266.749766 359.337642 267.082149 
C 359.005259 267.414531 358.818502 267.865403 358.818502 268.335463 
C 358.818502 268.805523 359.005259 269.256394 359.337642 269.588777 
C 359.670025 269.92116 360.120896 270.107917 360.590956 270.107917 
z
" style="stroke:#000000;stroke-width:0.886227;"/>
    <path clip-path="url(#p8cacdaa260)" d="M 393.622668 271.288515 
C 394.092729 271.288515 394.5436 271.101758 394.875983 270.769375 
C 395.208365 270.436992 395.395122 269.986121 395.395122 269.516061 
C 395.395122 269.046 395.208365 268.595129 394.875983 268.262747 
C 394.5436 267.930364 394.092729 267.743607 393.622668 267.743607 
C 393.152608 267.743607 392.701737 267.930364 392.369354 268.262747 
C 392.036972 268.595129 391.850215 269.046 391.850215 269.516061 
C 391.850215 269.986121 392.036972 270.436992 392.369354 270.769375 
C 392.701737 271.101758 393.152608 271.288515 393.622668 271.288515 
z
" style="stroke:#000000;stroke-width:0.886227;"/>
   </g>
   <g id="patch_7">
    <path d="M 46.789688 253.674082 
L 410.138525 253.674082 
L 410.138525 238.63 
L 46.789688 238.63 
z
" style="fill:#d9d9d9;"/>
   </g>
   <g id="PolyCollection_3">
    <path clip-path="url(#p8cacdaa260)" d="M 63.305544 271.536172 
L 63.305544 456.123628 
L 79.8214 270.980314 
L 96.337256 269.521755 
L 112.853112 271.78012 
L 129.368969 270.92069 
L 145.884825 272.148923 
L 162.400681 266.227232 
L 178.916537 272.591566 
L 195.432394 273.233107 
L 211.94825 272.836938 
L 228.464106 274.387344 
L 261.495819 272.960648 
L 294.527531 271.493859 
L 327.559244 269.143704 
L 360.590956 271.57926 
L 393.622668 271.133143 
L 393.622668 267.898979 
L 393.622668 267.898979 
L 360.590956 265.091666 
L 327.559244 265.878507 
L 294.527531 265.829709 
L 261.495819 266.223762 
L 228.464106 265.711932 
L 211.94825 265.33043 
L 195.432394 265.304697 
L 178.916537 265.321678 
L 162.400681 263.314537 
L 145.884825 265.924452 
L 129.368969 264.937244 
L 112.853112 266.627824 
L 96.337256 266.67718 
L 79.8214 265.585469 
L 63.305544 271.536172 
z
" style="fill:#333333;fill-opacity:0.501961;"/>
   </g>
   <g id="text_21">
    <!-- F1 score: &lt;=50K -->
    <g style="fill:#1a1a1a;" transform="translate(191.175481 248.580291)scale(0.088 -0.088)">
     <defs>
      <path d="M 628 4666 
L 3309 4666 
L 3309 4134 
L 1259 4134 
L 1259 2759 
L 3109 2759 
L 3109 2228 
L 1259 2228 
L 1259 0 
L 628 0 
L 628 4666 
z
" id="DejaVuSans-46" transform="scale(0.015625)"/>
      <path id="DejaVuSans-20" transform="scale(0.015625)"/>
      <path d="M 2834 3397 
L 2834 2853 
Q 2591 2978 2328 3040 
Q 2066 3103 1784 3103 
Q 1356 3103 1142 2972 
Q 928 2841 928 2578 
Q 928 2378 1081 2264 
Q 1234 2150 1697 2047 
L 1894 2003 
Q 2506 1872 2764 1633 
Q 3022 1394 3022 966 
Q 3022 478 2636 193 
Q 2250 -91 1575 -91 
Q 1294 -91 989 -36 
Q 684 19 347 128 
L 347 722 
Q 666 556 975 473 
Q 1284 391 1588 391 
Q 1994 391 2212 530 
Q 2431 669 2431 922 
Q 2431 1156 2273 1281 
Q 2116 1406 1581 1522 
L 1381 1569 
Q 847 1681 609 1914 
Q 372 2147 372 2553 
Q 372 3047 722 3315 
Q 1072 3584 1716 3584 
Q 2034 3584 2315 3537 
Q 2597 3491 2834 3397 
z
" id="DejaVuSans-73" transform="scale(0.015625)"/>
      <path d="M 1959 3097 
Q 1497 3097 1228 2736 
Q 959 2375 959 1747 
Q 959 1119 1226 758 
Q 1494 397 1959 397 
Q 2419 397 2687 759 
Q 2956 1122 2956 1747 
Q 2956 2369 2687 2733 
Q 2419 3097 1959 3097 
z
M 1959 3584 
Q 2709 3584 3137 3096 
Q 3566 2609 3566 1747 
Q 3566 888 3137 398 
Q 2709 -91 1959 -91 
Q 1206 -91 779 398 
Q 353 888 353 1747 
Q 353 2609 779 3096 
Q 1206 3584 1959 3584 
z
" id="DejaVuSans-6f" transform="scale(0.015625)"/>
      <path d="M 750 794 
L 1409 794 
L 1409 0 
L 750 0 
L 750 794 
z
M 750 3309 
L 1409 3309 
L 1409 2516 
L 750 2516 
L 750 3309 
z
" id="DejaVuSans-3a" transform="scale(0.015625)"/>
      <path d="M 4684 3150 
L 1459 2003 
L 4684 863 
L 4684 294 
L 678 1747 
L 678 2266 
L 4684 3719 
L 4684 3150 
z
" id="DejaVuSans-3c" transform="scale(0.015625)"/>
      <path d="M 678 2906 
L 4684 2906 
L 4684 2381 
L 678 2381 
L 678 2906 
z
M 678 1631 
L 4684 1631 
L 4684 1100 
L 678 1100 
L 678 1631 
z
" id="DejaVuSans-3d" transform="scale(0.015625)"/>
      <path d="M 628 4666 
L 1259 4666 
L 1259 2694 
L 3353 4666 
L 4166 4666 
L 1850 2491 
L 4331 0 
L 3500 0 
L 1259 2247 
L 1259 0 
L 628 0 
L 628 4666 
z
" id="DejaVuSans-4b" transform="scale(0.015625)"/>
     </defs>
     <use xlink:href="#DejaVuSans-46"/>
     <use x="57.519531" xlink:href="#DejaVuSans-31"/>
     <use x="121.142578" xlink:href="#DejaVuSans-20"/>
     <use x="152.929688" xlink:href="#DejaVuSans-73"/>
     <use x="205.029297" xlink:href="#DejaVuSans-63"/>
     <use x="260.009766" xlink:href="#DejaVuSans-6f"/>
     <use x="321.191406" xlink:href="#DejaVuSans-72"/>
     <use x="360.054688" xlink:href="#DejaVuSans-65"/>
     <use x="421.578125" xlink:href="#DejaVuSans-3a"/>
     <use x="455.269531" xlink:href="#DejaVuSans-20"/>
     <use x="487.056641" xlink:href="#DejaVuSans-3c"/>
     <use x="570.845703" xlink:href="#DejaVuSans-3d"/>
     <use x="654.634766" xlink:href="#DejaVuSans-35"/>
     <use x="718.257812" xlink:href="#DejaVuSans-30"/>
     <use x="781.880859" xlink:href="#DejaVuSans-4b"/>
    </g>
   </g>
  </g>
  <g id="axes_4">
   <g id="patch_8">
    <path d="M 464.64085 465.764082 
L 827.989688 465.764082 
L 827.989688 253.674082 
L 464.64085 253.674082 
z
" style="fill:#ebebeb;"/>
   </g>
   <g id="matplotlib.axis_7">
    <g id="xtick_28">
     <g id="line2d_72">
      <path clip-path="url(#p75b48fd251)" d="M 481.156707 465.764082 
L 481.156707 253.674082 
" style="fill:none;stroke:#ffffff;stroke-linecap:square;"/>
     </g>
     <g id="line2d_73">
      <path d="M 481.156707 465.764082 
" style="fill:none;stroke:#333333;stroke-linecap:square;stroke-width:1.5;"/>
      <g>
       <use style="fill:#333333;stroke:#000000;" x="481.156707" xlink:href="#md7143a157b" y="465.764082"/>
      </g>
     </g>
     <g id="text_22">
      <!-- 0 -->
      <g style="fill:#4d4d4d;" transform="translate(478.357207 477.400707)scale(0.088 -0.088)">
       <use xlink:href="#DejaVuSans-30"/>
      </g>
     </g>
    </g>
    <g id="xtick_29">
     <g id="line2d_74">
      <path clip-path="url(#p75b48fd251)" d="M 563.735988 465.764082 
L 563.735988 253.674082 
" style="fill:none;stroke:#ffffff;stroke-linecap:square;"/>
     </g>
     <g id="line2d_75">
      <path d="M 563.735988 465.764082 
" style="fill:none;stroke:#333333;stroke-linecap:square;stroke-width:1.5;"/>
      <g>
       <use style="fill:#333333;stroke:#000000;" x="563.735988" xlink:href="#md7143a157b" y="465.764082"/>
      </g>
     </g>
     <g id="text_23">
      <!-- 5 -->
      <g style="fill:#4d4d4d;" transform="translate(560.936488 477.400707)scale(0.088 -0.088)">
       <use xlink:href="#DejaVuSans-35"/>
      </g>
     </g>
    </g>
    <g id="xtick_30">
     <g id="line2d_76">
      <path clip-path="url(#p75b48fd251)" d="M 646.315269 465.764082 
L 646.315269 253.674082 
" style="fill:none;stroke:#ffffff;stroke-linecap:square;"/>
     </g>
     <g id="line2d_77">
      <path d="M 646.315269 465.764082 
" style="fill:none;stroke:#333333;stroke-linecap:square;stroke-width:1.5;"/>
      <g>
       <use style="fill:#333333;stroke:#000000;" x="646.315269" xlink:href="#md7143a157b" y="465.764082"/>
      </g>
     </g>
     <g id="text_24">
      <!-- 10 -->
      <g style="fill:#4d4d4d;" transform="translate(640.716269 477.400707)scale(0.088 -0.088)">
       <use xlink:href="#DejaVuSans-31"/>
       <use x="63.623047" xlink:href="#DejaVuSans-30"/>
      </g>
     </g>
    </g>
    <g id="xtick_31">
     <g id="line2d_78">
      <path clip-path="url(#p75b48fd251)" d="M 728.89455 465.764082 
L 728.89455 253.674082 
" style="fill:none;stroke:#ffffff;stroke-linecap:square;"/>
     </g>
     <g id="line2d_79">
      <path d="M 728.89455 465.764082 
" style="fill:none;stroke:#333333;stroke-linecap:square;stroke-width:1.5;"/>
      <g>
       <use style="fill:#333333;stroke:#000000;" x="728.89455" xlink:href="#md7143a157b" y="465.764082"/>
      </g>
     </g>
     <g id="text_25">
      <!-- 15 -->
      <g style="fill:#4d4d4d;" transform="translate(723.29555 477.400707)scale(0.088 -0.088)">
       <use xlink:href="#DejaVuSans-31"/>
       <use x="63.623047" xlink:href="#DejaVuSans-35"/>
      </g>
     </g>
    </g>
    <g id="xtick_32">
     <g id="line2d_80">
      <path clip-path="url(#p75b48fd251)" d="M 811.473831 465.764082 
L 811.473831 253.674082 
" style="fill:none;stroke:#ffffff;stroke-linecap:square;"/>
     </g>
     <g id="line2d_81">
      <path d="M 811.473831 465.764082 
" style="fill:none;stroke:#333333;stroke-linecap:square;stroke-width:1.5;"/>
      <g>
       <use style="fill:#333333;stroke:#000000;" x="811.473831" xlink:href="#md7143a157b" y="465.764082"/>
      </g>
     </g>
     <g id="text_26">
      <!-- 20 -->
      <g style="fill:#4d4d4d;" transform="translate(805.874831 477.400707)scale(0.088 -0.088)">
       <use xlink:href="#DejaVuSans-32"/>
       <use x="63.623047" xlink:href="#DejaVuSans-30"/>
      </g>
     </g>
    </g>
    <g id="xtick_33">
     <g id="line2d_82">
      <path clip-path="url(#p75b48fd251)" d="M 522.446347 465.764082 
L 522.446347 253.674082 
" style="fill:none;stroke:#ffffff;stroke-linecap:square;stroke-width:0.5;"/>
     </g>
    </g>
    <g id="xtick_34">
     <g id="line2d_83">
      <path clip-path="url(#p75b48fd251)" d="M 605.025628 465.764082 
L 605.025628 253.674082 
" style="fill:none;stroke:#ffffff;stroke-linecap:square;stroke-width:0.5;"/>
     </g>
    </g>
    <g id="xtick_35">
     <g id="line2d_84">
      <path clip-path="url(#p75b48fd251)" d="M 687.604909 465.764082 
L 687.604909 253.674082 
" style="fill:none;stroke:#ffffff;stroke-linecap:square;stroke-width:0.5;"/>
     </g>
    </g>
    <g id="xtick_36">
     <g id="line2d_85">
      <path clip-path="url(#p75b48fd251)" d="M 770.184191 465.764082 
L 770.184191 253.674082 
" style="fill:none;stroke:#ffffff;stroke-linecap:square;stroke-width:0.5;"/>
     </g>
    </g>
    <g id="text_27">
     <!-- Wgan lambda -->
     <g transform="translate(386.646328 491.989114)scale(0.11 -0.11)">
      <defs>
       <path d="M 213 4666 
L 850 4666 
L 1831 722 
L 2809 4666 
L 3519 4666 
L 4500 722 
L 5478 4666 
L 6119 4666 
L 4947 0 
L 4153 0 
L 3169 4050 
L 2175 0 
L 1381 0 
L 213 4666 
z
" id="DejaVuSans-57" transform="scale(0.015625)"/>
       <path d="M 2906 1791 
Q 2906 2416 2648 2759 
Q 2391 3103 1925 3103 
Q 1463 3103 1205 2759 
Q 947 2416 947 1791 
Q 947 1169 1205 825 
Q 1463 481 1925 481 
Q 2391 481 2648 825 
Q 2906 1169 2906 1791 
z
M 3481 434 
Q 3481 -459 3084 -895 
Q 2688 -1331 1869 -1331 
Q 1566 -1331 1297 -1286 
Q 1028 -1241 775 -1147 
L 775 -588 
Q 1028 -725 1275 -790 
Q 1522 -856 1778 -856 
Q 2344 -856 2625 -561 
Q 2906 -266 2906 331 
L 2906 616 
Q 2728 306 2450 153 
Q 2172 0 1784 0 
Q 1141 0 747 490 
Q 353 981 353 1791 
Q 353 2603 747 3093 
Q 1141 3584 1784 3584 
Q 2172 3584 2450 3431 
Q 2728 3278 2906 2969 
L 2906 3500 
L 3481 3500 
L 3481 434 
z
" id="DejaVuSans-67" transform="scale(0.015625)"/>
       <path d="M 3513 2113 
L 3513 0 
L 2938 0 
L 2938 2094 
Q 2938 2591 2744 2837 
Q 2550 3084 2163 3084 
Q 1697 3084 1428 2787 
Q 1159 2491 1159 1978 
L 1159 0 
L 581 0 
L 581 3500 
L 1159 3500 
L 1159 2956 
Q 1366 3272 1645 3428 
Q 1925 3584 2291 3584 
Q 2894 3584 3203 3211 
Q 3513 2838 3513 2113 
z
" id="DejaVuSans-6e" transform="scale(0.015625)"/>
       <path d="M 3328 2828 
Q 3544 3216 3844 3400 
Q 4144 3584 4550 3584 
Q 5097 3584 5394 3201 
Q 5691 2819 5691 2113 
L 5691 0 
L 5113 0 
L 5113 2094 
Q 5113 2597 4934 2840 
Q 4756 3084 4391 3084 
Q 3944 3084 3684 2787 
Q 3425 2491 3425 1978 
L 3425 0 
L 2847 0 
L 2847 2094 
Q 2847 2600 2669 2842 
Q 2491 3084 2119 3084 
Q 1678 3084 1418 2786 
Q 1159 2488 1159 1978 
L 1159 0 
L 581 0 
L 581 3500 
L 1159 3500 
L 1159 2956 
Q 1356 3278 1631 3431 
Q 1906 3584 2284 3584 
Q 2666 3584 2933 3390 
Q 3200 3197 3328 2828 
z
" id="DejaVuSans-6d" transform="scale(0.015625)"/>
       <path d="M 3116 1747 
Q 3116 2381 2855 2742 
Q 2594 3103 2138 3103 
Q 1681 3103 1420 2742 
Q 1159 2381 1159 1747 
Q 1159 1113 1420 752 
Q 1681 391 2138 391 
Q 2594 391 2855 752 
Q 3116 1113 3116 1747 
z
M 1159 2969 
Q 1341 3281 1617 3432 
Q 1894 3584 2278 3584 
Q 2916 3584 3314 3078 
Q 3713 2572 3713 1747 
Q 3713 922 3314 415 
Q 2916 -91 2278 -91 
Q 1894 -91 1617 61 
Q 1341 213 1159 525 
L 1159 0 
L 581 0 
L 581 4863 
L 1159 4863 
L 1159 2969 
z
" id="DejaVuSans-62" transform="scale(0.015625)"/>
       <path d="M 2906 2969 
L 2906 4863 
L 3481 4863 
L 3481 0 
L 2906 0 
L 2906 525 
Q 2725 213 2448 61 
Q 2172 -91 1784 -91 
Q 1150 -91 751 415 
Q 353 922 353 1747 
Q 353 2572 751 3078 
Q 1150 3584 1784 3584 
Q 2172 3584 2448 3432 
Q 2725 3281 2906 2969 
z
M 947 1747 
Q 947 1113 1208 752 
Q 1469 391 1925 391 
Q 2381 391 2643 752 
Q 2906 1113 2906 1747 
Q 2906 2381 2643 2742 
Q 2381 3103 1925 3103 
Q 1469 3103 1208 2742 
Q 947 2381 947 1747 
z
" id="DejaVuSans-64" transform="scale(0.015625)"/>
      </defs>
      <use xlink:href="#DejaVuSans-57"/>
      <use x="98.876953" xlink:href="#DejaVuSans-67"/>
      <use x="162.353516" xlink:href="#DejaVuSans-61"/>
      <use x="223.632812" xlink:href="#DejaVuSans-6e"/>
      <use x="287.011719" xlink:href="#DejaVuSans-20"/>
      <use x="318.798828" xlink:href="#DejaVuSans-6c"/>
      <use x="346.582031" xlink:href="#DejaVuSans-61"/>
      <use x="407.861328" xlink:href="#DejaVuSans-6d"/>
      <use x="505.273438" xlink:href="#DejaVuSans-62"/>
      <use x="568.75" xlink:href="#DejaVuSans-64"/>
      <use x="632.226562" xlink:href="#DejaVuSans-61"/>
     </g>
    </g>
   </g>
   <g id="matplotlib.axis_8">
    <g id="ytick_25">
     <g id="line2d_86">
      <path clip-path="url(#p75b48fd251)" d="M 464.64085 405.373211 
L 827.989688 405.373211 
" style="fill:none;stroke:#ffffff;stroke-linecap:square;"/>
     </g>
     <g id="line2d_87">
      <path d="M 464.64085 405.373211 
" style="fill:none;stroke:#333333;stroke-linecap:square;stroke-width:1.5;"/>
      <g>
       <use style="fill:#333333;stroke:#000000;" x="464.64085" xlink:href="#m6cd0185da7" y="405.373211"/>
      </g>
     </g>
     <g id="text_28">
      <!-- 0.2 -->
      <g style="fill:#4d4d4d;" transform="translate(445.6961 407.801461)scale(0.088 -0.088)">
       <use xlink:href="#DejaVuSans-30"/>
       <use x="63.623047" xlink:href="#DejaVuSans-2e"/>
       <use x="95.410156" xlink:href="#DejaVuSans-32"/>
      </g>
     </g>
    </g>
    <g id="ytick_26">
     <g id="line2d_88">
      <path clip-path="url(#p75b48fd251)" d="M 464.64085 342.463404 
L 827.989688 342.463404 
" style="fill:none;stroke:#ffffff;stroke-linecap:square;"/>
     </g>
     <g id="line2d_89">
      <path d="M 464.64085 342.463404 
" style="fill:none;stroke:#333333;stroke-linecap:square;stroke-width:1.5;"/>
      <g>
       <use style="fill:#333333;stroke:#000000;" x="464.64085" xlink:href="#m6cd0185da7" y="342.463404"/>
      </g>
     </g>
     <g id="text_29">
      <!-- 0.4 -->
      <g style="fill:#4d4d4d;" transform="translate(445.6961 344.891654)scale(0.088 -0.088)">
       <use xlink:href="#DejaVuSans-30"/>
       <use x="63.623047" xlink:href="#DejaVuSans-2e"/>
       <use x="95.410156" xlink:href="#DejaVuSans-34"/>
      </g>
     </g>
    </g>
    <g id="ytick_27">
     <g id="line2d_90">
      <path clip-path="url(#p75b48fd251)" d="M 464.64085 279.553597 
L 827.989688 279.553597 
" style="fill:none;stroke:#ffffff;stroke-linecap:square;"/>
     </g>
     <g id="line2d_91">
      <path d="M 464.64085 279.553597 
" style="fill:none;stroke:#333333;stroke-linecap:square;stroke-width:1.5;"/>
      <g>
       <use style="fill:#333333;stroke:#000000;" x="464.64085" xlink:href="#m6cd0185da7" y="279.553597"/>
      </g>
     </g>
     <g id="text_30">
      <!-- 0.6 -->
      <g style="fill:#4d4d4d;" transform="translate(445.6961 281.981847)scale(0.088 -0.088)">
       <use xlink:href="#DejaVuSans-30"/>
       <use x="63.623047" xlink:href="#DejaVuSans-2e"/>
       <use x="95.410156" xlink:href="#DejaVuSans-36"/>
      </g>
     </g>
    </g>
    <g id="ytick_28">
     <g id="line2d_92">
      <path clip-path="url(#p75b48fd251)" d="M 464.64085 436.828114 
L 827.989688 436.828114 
" style="fill:none;stroke:#ffffff;stroke-linecap:square;stroke-width:0.5;"/>
     </g>
    </g>
    <g id="ytick_29">
     <g id="line2d_93">
      <path clip-path="url(#p75b48fd251)" d="M 464.64085 373.918307 
L 827.989688 373.918307 
" style="fill:none;stroke:#ffffff;stroke-linecap:square;stroke-width:0.5;"/>
     </g>
    </g>
    <g id="ytick_30">
     <g id="line2d_94">
      <path clip-path="url(#p75b48fd251)" d="M 464.64085 311.0085 
L 827.989688 311.0085 
" style="fill:none;stroke:#ffffff;stroke-linecap:square;stroke-width:0.5;"/>
     </g>
    </g>
   </g>
   <g id="line2d_95">
    <path clip-path="url(#p75b48fd251)" d="M 481.156707 384.307486 
L 497.672563 265.676347 
L 514.188419 266.521213 
L 530.704275 266.434633 
L 547.220131 265.890877 
L 563.735988 266.359691 
L 580.251844 265.349647 
L 596.7677 265.726147 
L 613.283556 266.59436 
L 629.799413 265.980731 
L 646.315269 265.443579 
L 679.346981 265.921257 
L 712.378694 265.785744 
L 745.410406 266.841654 
L 778.442119 265.196703 
L 811.473831 267.209454 
" style="fill:none;stroke:#000000;stroke-width:0.886227;"/>
   </g>
   <g id="PathCollection_4">
    <path clip-path="url(#p75b48fd251)" d="M 481.156707 386.07994 
C 481.626767 386.07994 482.077638 385.893183 482.410021 385.560801 
C 482.742403 385.228418 482.92916 384.777547 482.92916 384.307486 
C 482.92916 383.837426 482.742403 383.386555 482.410021 383.054172 
C 482.077638 382.721789 481.626767 382.535033 481.156707 382.535033 
C 480.686646 382.535033 480.235775 382.721789 479.903392 383.054172 
C 479.57101 383.386555 479.384253 383.837426 479.384253 384.307486 
C 479.384253 384.777547 479.57101 385.228418 479.903392 385.560801 
C 480.235775 385.893183 480.686646 386.07994 481.156707 386.07994 
z
" style="stroke:#000000;stroke-width:0.886227;"/>
    <path clip-path="url(#p75b48fd251)" d="M 497.672563 267.4488 
C 498.142623 267.4488 498.593494 267.262044 498.925877 266.929661 
C 499.25826 266.597278 499.445017 266.146407 499.445017 265.676347 
C 499.445017 265.206286 499.25826 264.755415 498.925877 264.423032 
C 498.593494 264.09065 498.142623 263.903893 497.672563 263.903893 
C 497.202503 263.903893 496.751631 264.09065 496.419249 264.423032 
C 496.086866 264.755415 495.900109 265.206286 495.900109 265.676347 
C 495.900109 266.146407 496.086866 266.597278 496.419249 266.929661 
C 496.751631 267.262044 497.202503 267.4488 497.672563 267.4488 
z
" style="stroke:#000000;stroke-width:0.886227;"/>
    <path clip-path="url(#p75b48fd251)" d="M 514.188419 268.293667 
C 514.658479 268.293667 515.10935 268.10691 515.441733 267.774527 
C 515.774116 267.442144 515.960873 266.991273 515.960873 266.521213 
C 515.960873 266.051153 515.774116 265.600281 515.441733 265.267899 
C 515.10935 264.935516 514.658479 264.748759 514.188419 264.748759 
C 513.718359 264.748759 513.267488 264.935516 512.935105 265.267899 
C 512.602722 265.600281 512.415965 266.051153 512.415965 266.521213 
C 512.415965 266.991273 512.602722 267.442144 512.935105 267.774527 
C 513.267488 268.10691 513.718359 268.293667 514.188419 268.293667 
z
" style="stroke:#000000;stroke-width:0.886227;"/>
    <path clip-path="url(#p75b48fd251)" d="M 530.704275 268.207087 
C 531.174335 268.207087 531.625207 268.02033 531.957589 267.687947 
C 532.289972 267.355564 532.476729 266.904693 532.476729 266.434633 
C 532.476729 265.964573 532.289972 265.513702 531.957589 265.181319 
C 531.625207 264.848936 531.174335 264.662179 530.704275 264.662179 
C 530.234215 264.662179 529.783344 264.848936 529.450961 265.181319 
C 529.118578 265.513702 528.931821 265.964573 528.931821 266.434633 
C 528.931821 266.904693 529.118578 267.355564 529.450961 267.687947 
C 529.783344 268.02033 530.234215 268.207087 530.704275 268.207087 
z
" style="stroke:#000000;stroke-width:0.886227;"/>
    <path clip-path="url(#p75b48fd251)" d="M 547.220131 267.66333 
C 547.690192 267.66333 548.141063 267.476574 548.473446 267.144191 
C 548.805828 266.811808 548.992585 266.360937 548.992585 265.890877 
C 548.992585 265.420816 548.805828 264.969945 548.473446 264.637563 
C 548.141063 264.30518 547.690192 264.118423 547.220131 264.118423 
C 546.750071 264.118423 546.2992 264.30518 545.966817 264.637563 
C 545.634435 264.969945 545.447678 265.420816 545.447678 265.890877 
C 545.447678 266.360937 545.634435 266.811808 545.966817 267.144191 
C 546.2992 267.476574 546.750071 267.66333 547.220131 267.66333 
z
" style="stroke:#000000;stroke-width:0.886227;"/>
    <path clip-path="url(#p75b48fd251)" d="M 563.735988 268.132145 
C 564.206048 268.132145 564.656919 267.945388 564.989302 267.613005 
C 565.321685 267.280623 565.508442 266.829752 565.508442 266.359691 
C 565.508442 265.889631 565.321685 265.43876 564.989302 265.106377 
C 564.656919 264.773994 564.206048 264.587237 563.735988 264.587237 
C 563.265927 264.587237 562.815056 264.773994 562.482674 265.106377 
C 562.150291 265.43876 561.963534 265.889631 561.963534 266.359691 
C 561.963534 266.829752 562.150291 267.280623 562.482674 267.613005 
C 562.815056 267.945388 563.265927 268.132145 563.735988 268.132145 
z
" style="stroke:#000000;stroke-width:0.886227;"/>
    <path clip-path="url(#p75b48fd251)" d="M 580.251844 267.1221 
C 580.721904 267.1221 581.172775 266.935343 581.505158 266.602961 
C 581.837541 266.270578 582.024298 265.819707 582.024298 265.349647 
C 582.024298 264.879586 581.837541 264.428715 581.505158 264.096332 
C 581.172775 263.76395 580.721904 263.577193 580.251844 263.577193 
C 579.781784 263.577193 579.330913 263.76395 578.99853 264.096332 
C 578.666147 264.428715 578.47939 264.879586 578.47939 265.349647 
C 578.47939 265.819707 578.666147 266.270578 578.99853 266.602961 
C 579.330913 266.935343 579.781784 267.1221 580.251844 267.1221 
z
" style="stroke:#000000;stroke-width:0.886227;"/>
    <path clip-path="url(#p75b48fd251)" d="M 596.7677 267.498601 
C 597.23776 267.498601 597.688632 267.311844 598.021014 266.979461 
C 598.353397 266.647078 598.540154 266.196207 598.540154 265.726147 
C 598.540154 265.256087 598.353397 264.805215 598.021014 264.472833 
C 597.688632 264.14045 597.23776 263.953693 596.7677 263.953693 
C 596.29764 263.953693 595.846769 264.14045 595.514386 264.472833 
C 595.182003 264.805215 594.995246 265.256087 594.995246 265.726147 
C 594.995246 266.196207 595.182003 266.647078 595.514386 266.979461 
C 595.846769 267.311844 596.29764 267.498601 596.7677 267.498601 
z
" style="stroke:#000000;stroke-width:0.886227;"/>
    <path clip-path="url(#p75b48fd251)" d="M 613.283556 268.366813 
C 613.753617 268.366813 614.204488 268.180056 614.536871 267.847674 
C 614.869253 267.515291 615.05601 267.06442 615.05601 266.59436 
C 615.05601 266.124299 614.869253 265.673428 614.536871 265.341045 
C 614.204488 265.008663 613.753617 264.821906 613.283556 264.821906 
C 612.813496 264.821906 612.362625 265.008663 612.030242 265.341045 
C 611.697859 265.673428 611.511103 266.124299 611.511103 266.59436 
C 611.511103 267.06442 611.697859 267.515291 612.030242 267.847674 
C 612.362625 268.180056 612.813496 268.366813 613.283556 268.366813 
z
" style="stroke:#000000;stroke-width:0.886227;"/>
    <path clip-path="url(#p75b48fd251)" d="M 629.799413 267.753185 
C 630.269473 267.753185 630.720344 267.566428 631.052727 267.234046 
C 631.38511 266.901663 631.571867 266.450792 631.571867 265.980731 
C 631.571867 265.510671 631.38511 265.0598 631.052727 264.727417 
C 630.720344 264.395034 630.269473 264.208278 629.799413 264.208278 
C 629.329352 264.208278 628.878481 264.395034 628.546099 264.727417 
C 628.213716 265.0598 628.026959 265.510671 628.026959 265.980731 
C 628.026959 266.450792 628.213716 266.901663 628.546099 267.234046 
C 628.878481 267.566428 629.329352 267.753185 629.799413 267.753185 
z
" style="stroke:#000000;stroke-width:0.886227;"/>
    <path clip-path="url(#p75b48fd251)" d="M 646.315269 267.216033 
C 646.785329 267.216033 647.2362 267.029276 647.568583 266.696893 
C 647.900966 266.36451 648.087723 265.913639 648.087723 265.443579 
C 648.087723 264.973519 647.900966 264.522648 647.568583 264.190265 
C 647.2362 263.857882 646.785329 263.671125 646.315269 263.671125 
C 645.845209 263.671125 645.394338 263.857882 645.061955 264.190265 
C 644.729572 264.522648 644.542815 264.973519 644.542815 265.443579 
C 644.542815 265.913639 644.729572 266.36451 645.061955 266.696893 
C 645.394338 267.029276 645.845209 267.216033 646.315269 267.216033 
z
" style="stroke:#000000;stroke-width:0.886227;"/>
    <path clip-path="url(#p75b48fd251)" d="M 679.346981 267.693711 
C 679.817042 267.693711 680.267913 267.506954 680.600296 267.174571 
C 680.932678 266.842189 681.119435 266.391318 681.119435 265.921257 
C 681.119435 265.451197 680.932678 265.000326 680.600296 264.667943 
C 680.267913 264.33556 679.817042 264.148803 679.346981 264.148803 
C 678.876921 264.148803 678.42605 264.33556 678.093667 264.667943 
C 677.761284 265.000326 677.574528 265.451197 677.574528 265.921257 
C 677.574528 266.391318 677.761284 266.842189 678.093667 267.174571 
C 678.42605 267.506954 678.876921 267.693711 679.346981 267.693711 
z
" style="stroke:#000000;stroke-width:0.886227;"/>
    <path clip-path="url(#p75b48fd251)" d="M 712.378694 267.558198 
C 712.848754 267.558198 713.299625 267.371441 713.632008 267.039058 
C 713.964391 266.706676 714.151148 266.255804 714.151148 265.785744 
C 714.151148 265.315684 713.964391 264.864813 713.632008 264.53243 
C 713.299625 264.200047 712.848754 264.01329 712.378694 264.01329 
C 711.908634 264.01329 711.457762 264.200047 711.12538 264.53243 
C 710.792997 264.864813 710.60624 265.315684 710.60624 265.785744 
C 710.60624 266.255804 710.792997 266.706676 711.12538 267.039058 
C 711.457762 267.371441 711.908634 267.558198 712.378694 267.558198 
z
" style="stroke:#000000;stroke-width:0.886227;"/>
    <path clip-path="url(#p75b48fd251)" d="M 745.410406 268.614108 
C 745.880467 268.614108 746.331338 268.427351 746.66372 268.094968 
C 746.996103 267.762586 747.18286 267.311714 747.18286 266.841654 
C 747.18286 266.371594 746.996103 265.920723 746.66372 265.58834 
C 746.331338 265.255957 745.880467 265.0692 745.410406 265.0692 
C 744.940346 265.0692 744.489475 265.255957 744.157092 265.58834 
C 743.824709 265.920723 743.637952 266.371594 743.637952 266.841654 
C 743.637952 267.311714 743.824709 267.762586 744.157092 268.094968 
C 744.489475 268.427351 744.940346 268.614108 745.410406 268.614108 
z
" style="stroke:#000000;stroke-width:0.886227;"/>
    <path clip-path="url(#p75b48fd251)" d="M 778.442119 266.969156 
C 778.912179 266.969156 779.36305 266.7824 779.695433 266.450017 
C 780.027816 266.117634 780.214573 265.666763 780.214573 265.196703 
C 780.214573 264.726642 780.027816 264.275771 779.695433 263.943389 
C 779.36305 263.611006 778.912179 263.424249 778.442119 263.424249 
C 777.972059 263.424249 777.521187 263.611006 777.188805 263.943389 
C 776.856422 264.275771 776.669665 264.726642 776.669665 265.196703 
C 776.669665 265.666763 776.856422 266.117634 777.188805 266.450017 
C 777.521187 266.7824 777.972059 266.969156 778.442119 266.969156 
z
" style="stroke:#000000;stroke-width:0.886227;"/>
    <path clip-path="url(#p75b48fd251)" d="M 811.473831 268.981908 
C 811.943892 268.981908 812.394763 268.795151 812.727145 268.462768 
C 813.059528 268.130385 813.246285 267.679514 813.246285 267.209454 
C 813.246285 266.739394 813.059528 266.288523 812.727145 265.95614 
C 812.394763 265.623757 811.943892 265.437 811.473831 265.437 
C 811.003771 265.437 810.5529 265.623757 810.220517 265.95614 
C 809.888134 266.288523 809.701377 266.739394 809.701377 267.209454 
C 809.701377 267.679514 809.888134 268.130385 810.220517 268.462768 
C 810.5529 268.795151 811.003771 268.981908 811.473831 268.981908 
z
" style="stroke:#000000;stroke-width:0.886227;"/>
   </g>
   <g id="patch_9">
    <path d="M 464.64085 253.674082 
L 827.989688 253.674082 
L 827.989688 238.63 
L 464.64085 238.63 
z
" style="fill:#d9d9d9;"/>
   </g>
   <g id="PolyCollection_4">
    <path clip-path="url(#p75b48fd251)" d="M 481.156707 312.491345 
L 481.156707 456.123628 
L 497.672563 267.446958 
L 514.188419 268.794266 
L 530.704275 269.025382 
L 547.220131 268.018336 
L 563.735988 267.656019 
L 580.251844 267.300325 
L 596.7677 268.135527 
L 613.283556 268.619346 
L 629.799413 268.646926 
L 646.315269 267.133845 
L 679.346981 268.139485 
L 712.378694 267.993248 
L 745.410406 269.042999 
L 778.442119 266.952952 
L 811.473831 270.449936 
L 811.473831 263.968972 
L 811.473831 263.968972 
L 778.442119 263.440454 
L 745.410406 264.640309 
L 712.378694 263.578241 
L 679.346981 263.70303 
L 646.315269 263.753313 
L 629.799413 263.314537 
L 613.283556 264.569373 
L 596.7677 263.316766 
L 580.251844 263.398968 
L 563.735988 265.063363 
L 547.220131 263.763417 
L 530.704275 263.843883 
L 514.188419 264.248159 
L 497.672563 263.905736 
L 481.156707 312.491345 
z
" style="fill:#333333;fill-opacity:0.501961;"/>
   </g>
   <g id="text_31">
    <!-- F1 score: &gt;50K -->
    <g style="fill:#1a1a1a;" transform="translate(612.713706 248.580291)scale(0.088 -0.088)">
     <defs>
      <path d="M 678 3150 
L 678 3719 
L 4684 2266 
L 4684 1747 
L 678 294 
L 678 863 
L 3897 2003 
L 678 3150 
z
" id="DejaVuSans-3e" transform="scale(0.015625)"/>
     </defs>
     <use xlink:href="#DejaVuSans-46"/>
     <use x="57.519531" xlink:href="#DejaVuSans-31"/>
     <use x="121.142578" xlink:href="#DejaVuSans-20"/>
     <use x="152.929688" xlink:href="#DejaVuSans-73"/>
     <use x="205.029297" xlink:href="#DejaVuSans-63"/>
     <use x="260.009766" xlink:href="#DejaVuSans-6f"/>
     <use x="321.191406" xlink:href="#DejaVuSans-72"/>
     <use x="360.054688" xlink:href="#DejaVuSans-65"/>
     <use x="421.578125" xlink:href="#DejaVuSans-3a"/>
     <use x="455.269531" xlink:href="#DejaVuSans-20"/>
     <use x="487.056641" xlink:href="#DejaVuSans-3e"/>
     <use x="570.845703" xlink:href="#DejaVuSans-35"/>
     <use x="634.46875" xlink:href="#DejaVuSans-30"/>
     <use x="698.091797" xlink:href="#DejaVuSans-4b"/>
    </g>
   </g>
  </g>
 </g>
 <defs>
  <clipPath id="pc63a4dbb03">
   <rect height="212.09" width="363.348837" x="46.789688" y="22.244082"/>
  </clipPath>
  <clipPath id="p372b218c80">
   <rect height="212.09" width="363.348837" x="464.64085" y="22.244082"/>
  </clipPath>
  <clipPath id="p8cacdaa260">
   <rect height="212.09" width="363.348837" x="46.789688" y="253.674082"/>
  </clipPath>
  <clipPath id="p75b48fd251">
   <rect height="212.09" width="363.348837" x="464.64085" y="253.674082"/>
  </clipPath>
 </defs>
</svg>
