<?xml version="1.0" encoding="utf-8" standalone="no"?>
<!DOCTYPE svg PUBLIC "-//W3C//DTD SVG 1.1//EN"
  "http://www.w3.org/Graphics/SVG/1.1/DTD/svg11.dtd">
<svg height="501.47677pt" version="1.1" viewBox="0 0 846.387688 501.47677" width="846.387688pt" xmlns="http://www.w3.org/2000/svg" xmlns:xlink="http://www.w3.org/1999/xlink">
 <metadata>
  <rdf:RDF xmlns:cc="http://creativecommons.org/ns#" xmlns:dc="http://purl.org/dc/elements/1.1/" xmlns:rdf="http://www.w3.org/1999/02/22-rdf-syntax-ns#">
   <cc:Work>
    <dc:type rdf:resource="http://purl.org/dc/dcmitype/StillImage"/>
    <dc:date>2022-05-07T15:01:40.043250</dc:date>
    <dc:format>image/svg+xml</dc:format>
    <dc:creator>
     <cc:Agent>
      <dc:title>Matplotlib v3.4.3, https://matplotlib.org/</dc:title>
     </cc:Agent>
    </dc:creator>
   </cc:Work>
  </rdf:RDF>
 </metadata>
 <defs>
  <style type="text/css">*{stroke-linecap:butt;stroke-linejoin:round;}</style>
 </defs>
 <g id="figure_1">
  <g id="patch_1">
   <path d="M 0 501.47677 
L 846.387688 501.47677 
L 846.387688 0 
L 0 0 
z
" style="fill:#ffffff;stroke:#ffffff;stroke-linejoin:miter;"/>
  </g>
  <g id="axes_1">
   <g id="patch_2">
    <path d="M 57.987688 234.334082 
L 421.336525 234.334082 
L 421.336525 22.244082 
L 57.987688 22.244082 
z
" style="fill:#ebebeb;"/>
   </g>
   <g id="matplotlib.axis_1">
    <g id="xtick_1">
     <g id="line2d_1">
      <path clip-path="url(#p0d8e75adc4)" d="M 74.503544 234.334082 
L 74.503544 22.244082 
" style="fill:none;stroke:#ffffff;"/>
     </g>
    </g>
    <g id="xtick_2">
     <g id="line2d_2">
      <path clip-path="url(#p0d8e75adc4)" d="M 157.082825 234.334082 
L 157.082825 22.244082 
" style="fill:none;stroke:#ffffff;"/>
     </g>
    </g>
    <g id="xtick_3">
     <g id="line2d_3">
      <path clip-path="url(#p0d8e75adc4)" d="M 239.662106 234.334082 
L 239.662106 22.244082 
" style="fill:none;stroke:#ffffff;"/>
     </g>
    </g>
    <g id="xtick_4">
     <g id="line2d_4">
      <path clip-path="url(#p0d8e75adc4)" d="M 322.241387 234.334082 
L 322.241387 22.244082 
" style="fill:none;stroke:#ffffff;"/>
     </g>
    </g>
    <g id="xtick_5">
     <g id="line2d_5">
      <path clip-path="url(#p0d8e75adc4)" d="M 404.820668 234.334082 
L 404.820668 22.244082 
" style="fill:none;stroke:#ffffff;"/>
     </g>
    </g>
    <g id="xtick_6">
     <g id="line2d_6">
      <path clip-path="url(#p0d8e75adc4)" d="M 115.793184 234.334082 
L 115.793184 22.244082 
" style="fill:none;stroke:#ffffff;stroke-width:0.5;"/>
     </g>
    </g>
    <g id="xtick_7">
     <g id="line2d_7">
      <path clip-path="url(#p0d8e75adc4)" d="M 198.372466 234.334082 
L 198.372466 22.244082 
" style="fill:none;stroke:#ffffff;stroke-width:0.5;"/>
     </g>
    </g>
    <g id="xtick_8">
     <g id="line2d_8">
      <path clip-path="url(#p0d8e75adc4)" d="M 280.951747 234.334082 
L 280.951747 22.244082 
" style="fill:none;stroke:#ffffff;stroke-width:0.5;"/>
     </g>
    </g>
    <g id="xtick_9">
     <g id="line2d_9">
      <path clip-path="url(#p0d8e75adc4)" d="M 363.531028 234.334082 
L 363.531028 22.244082 
" style="fill:none;stroke:#ffffff;stroke-width:0.5;"/>
     </g>
    </g>
   </g>
   <g id="matplotlib.axis_2">
    <g id="ytick_1">
     <g id="line2d_10">
      <path clip-path="url(#p0d8e75adc4)" d="M 57.987688 214.847 
L 421.336525 214.847 
" style="fill:none;stroke:#ffffff;"/>
     </g>
     <g id="line2d_11">
      <path d="M 57.987688 214.847 
" style="fill:none;stroke:#333333;stroke-width:1.5;"/>
      <defs>
       <path d="M 0 0 
L -2.75 0 
" id="m744cef0bec" style="stroke:#000000;"/>
      </defs>
      <g>
       <use style="fill:#333333;stroke:#000000;" x="57.987688" xlink:href="#m744cef0bec" y="214.847"/>
      </g>
     </g>
     <g id="text_1">
      <!-- 0.8250 -->
      <g style="fill:#4d4d4d;" transform="translate(22.245938 217.27525)scale(0.088 -0.088)">
       <defs>
        <path d="M 2034 4250 
Q 1547 4250 1301 3770 
Q 1056 3291 1056 2328 
Q 1056 1369 1301 889 
Q 1547 409 2034 409 
Q 2525 409 2770 889 
Q 3016 1369 3016 2328 
Q 3016 3291 2770 3770 
Q 2525 4250 2034 4250 
z
M 2034 4750 
Q 2819 4750 3233 4129 
Q 3647 3509 3647 2328 
Q 3647 1150 3233 529 
Q 2819 -91 2034 -91 
Q 1250 -91 836 529 
Q 422 1150 422 2328 
Q 422 3509 836 4129 
Q 1250 4750 2034 4750 
z
" id="DejaVuSans-30" transform="scale(0.015625)"/>
        <path d="M 684 794 
L 1344 794 
L 1344 0 
L 684 0 
L 684 794 
z
" id="DejaVuSans-2e" transform="scale(0.015625)"/>
        <path d="M 2034 2216 
Q 1584 2216 1326 1975 
Q 1069 1734 1069 1313 
Q 1069 891 1326 650 
Q 1584 409 2034 409 
Q 2484 409 2743 651 
Q 3003 894 3003 1313 
Q 3003 1734 2745 1975 
Q 2488 2216 2034 2216 
z
M 1403 2484 
Q 997 2584 770 2862 
Q 544 3141 544 3541 
Q 544 4100 942 4425 
Q 1341 4750 2034 4750 
Q 2731 4750 3128 4425 
Q 3525 4100 3525 3541 
Q 3525 3141 3298 2862 
Q 3072 2584 2669 2484 
Q 3125 2378 3379 2068 
Q 3634 1759 3634 1313 
Q 3634 634 3220 271 
Q 2806 -91 2034 -91 
Q 1263 -91 848 271 
Q 434 634 434 1313 
Q 434 1759 690 2068 
Q 947 2378 1403 2484 
z
M 1172 3481 
Q 1172 3119 1398 2916 
Q 1625 2713 2034 2713 
Q 2441 2713 2670 2916 
Q 2900 3119 2900 3481 
Q 2900 3844 2670 4047 
Q 2441 4250 2034 4250 
Q 1625 4250 1398 4047 
Q 1172 3844 1172 3481 
z
" id="DejaVuSans-38" transform="scale(0.015625)"/>
        <path d="M 1228 531 
L 3431 531 
L 3431 0 
L 469 0 
L 469 531 
Q 828 903 1448 1529 
Q 2069 2156 2228 2338 
Q 2531 2678 2651 2914 
Q 2772 3150 2772 3378 
Q 2772 3750 2511 3984 
Q 2250 4219 1831 4219 
Q 1534 4219 1204 4116 
Q 875 4013 500 3803 
L 500 4441 
Q 881 4594 1212 4672 
Q 1544 4750 1819 4750 
Q 2544 4750 2975 4387 
Q 3406 4025 3406 3419 
Q 3406 3131 3298 2873 
Q 3191 2616 2906 2266 
Q 2828 2175 2409 1742 
Q 1991 1309 1228 531 
z
" id="DejaVuSans-32" transform="scale(0.015625)"/>
        <path d="M 691 4666 
L 3169 4666 
L 3169 4134 
L 1269 4134 
L 1269 2991 
Q 1406 3038 1543 3061 
Q 1681 3084 1819 3084 
Q 2600 3084 3056 2656 
Q 3513 2228 3513 1497 
Q 3513 744 3044 326 
Q 2575 -91 1722 -91 
Q 1428 -91 1123 -41 
Q 819 9 494 109 
L 494 744 
Q 775 591 1075 516 
Q 1375 441 1709 441 
Q 2250 441 2565 725 
Q 2881 1009 2881 1497 
Q 2881 1984 2565 2268 
Q 2250 2553 1709 2553 
Q 1456 2553 1204 2497 
Q 953 2441 691 2322 
L 691 4666 
z
" id="DejaVuSans-35" transform="scale(0.015625)"/>
       </defs>
       <use xlink:href="#DejaVuSans-30"/>
       <use x="63.623047" xlink:href="#DejaVuSans-2e"/>
       <use x="95.410156" xlink:href="#DejaVuSans-38"/>
       <use x="159.033203" xlink:href="#DejaVuSans-32"/>
       <use x="222.65625" xlink:href="#DejaVuSans-35"/>
       <use x="286.279297" xlink:href="#DejaVuSans-30"/>
      </g>
     </g>
    </g>
    <g id="ytick_2">
     <g id="line2d_12">
      <path clip-path="url(#p0d8e75adc4)" d="M 57.987688 166.614269 
L 421.336525 166.614269 
" style="fill:none;stroke:#ffffff;"/>
     </g>
     <g id="line2d_13">
      <path d="M 57.987688 166.614269 
" style="fill:none;stroke:#333333;stroke-width:1.5;"/>
      <g>
       <use style="fill:#333333;stroke:#000000;" x="57.987688" xlink:href="#m744cef0bec" y="166.614269"/>
      </g>
     </g>
     <g id="text_2">
      <!-- 0.8275 -->
      <g style="fill:#4d4d4d;" transform="translate(22.245938 169.042519)scale(0.088 -0.088)">
       <defs>
        <path d="M 525 4666 
L 3525 4666 
L 3525 4397 
L 1831 0 
L 1172 0 
L 2766 4134 
L 525 4134 
L 525 4666 
z
" id="DejaVuSans-37" transform="scale(0.015625)"/>
       </defs>
       <use xlink:href="#DejaVuSans-30"/>
       <use x="63.623047" xlink:href="#DejaVuSans-2e"/>
       <use x="95.410156" xlink:href="#DejaVuSans-38"/>
       <use x="159.033203" xlink:href="#DejaVuSans-32"/>
       <use x="222.65625" xlink:href="#DejaVuSans-37"/>
       <use x="286.279297" xlink:href="#DejaVuSans-35"/>
      </g>
     </g>
    </g>
    <g id="ytick_3">
     <g id="line2d_14">
      <path clip-path="url(#p0d8e75adc4)" d="M 57.987688 118.381539 
L 421.336525 118.381539 
" style="fill:none;stroke:#ffffff;"/>
     </g>
     <g id="line2d_15">
      <path d="M 57.987688 118.381539 
" style="fill:none;stroke:#333333;stroke-width:1.5;"/>
      <g>
       <use style="fill:#333333;stroke:#000000;" x="57.987688" xlink:href="#m744cef0bec" y="118.381539"/>
      </g>
     </g>
     <g id="text_3">
      <!-- 0.8300 -->
      <g style="fill:#4d4d4d;" transform="translate(22.245938 120.809789)scale(0.088 -0.088)">
       <defs>
        <path d="M 2597 2516 
Q 3050 2419 3304 2112 
Q 3559 1806 3559 1356 
Q 3559 666 3084 287 
Q 2609 -91 1734 -91 
Q 1441 -91 1130 -33 
Q 819 25 488 141 
L 488 750 
Q 750 597 1062 519 
Q 1375 441 1716 441 
Q 2309 441 2620 675 
Q 2931 909 2931 1356 
Q 2931 1769 2642 2001 
Q 2353 2234 1838 2234 
L 1294 2234 
L 1294 2753 
L 1863 2753 
Q 2328 2753 2575 2939 
Q 2822 3125 2822 3475 
Q 2822 3834 2567 4026 
Q 2313 4219 1838 4219 
Q 1578 4219 1281 4162 
Q 984 4106 628 3988 
L 628 4550 
Q 988 4650 1302 4700 
Q 1616 4750 1894 4750 
Q 2613 4750 3031 4423 
Q 3450 4097 3450 3541 
Q 3450 3153 3228 2886 
Q 3006 2619 2597 2516 
z
" id="DejaVuSans-33" transform="scale(0.015625)"/>
       </defs>
       <use xlink:href="#DejaVuSans-30"/>
       <use x="63.623047" xlink:href="#DejaVuSans-2e"/>
       <use x="95.410156" xlink:href="#DejaVuSans-38"/>
       <use x="159.033203" xlink:href="#DejaVuSans-33"/>
       <use x="222.65625" xlink:href="#DejaVuSans-30"/>
       <use x="286.279297" xlink:href="#DejaVuSans-30"/>
      </g>
     </g>
    </g>
    <g id="ytick_4">
     <g id="line2d_16">
      <path clip-path="url(#p0d8e75adc4)" d="M 57.987688 70.148808 
L 421.336525 70.148808 
" style="fill:none;stroke:#ffffff;"/>
     </g>
     <g id="line2d_17">
      <path d="M 57.987688 70.148808 
" style="fill:none;stroke:#333333;stroke-width:1.5;"/>
      <g>
       <use style="fill:#333333;stroke:#000000;" x="57.987688" xlink:href="#m744cef0bec" y="70.148808"/>
      </g>
     </g>
     <g id="text_4">
      <!-- 0.8325 -->
      <g style="fill:#4d4d4d;" transform="translate(22.245938 72.577058)scale(0.088 -0.088)">
       <use xlink:href="#DejaVuSans-30"/>
       <use x="63.623047" xlink:href="#DejaVuSans-2e"/>
       <use x="95.410156" xlink:href="#DejaVuSans-38"/>
       <use x="159.033203" xlink:href="#DejaVuSans-33"/>
       <use x="222.65625" xlink:href="#DejaVuSans-32"/>
       <use x="286.279297" xlink:href="#DejaVuSans-35"/>
      </g>
     </g>
    </g>
    <g id="ytick_5">
     <g id="line2d_18">
      <path clip-path="url(#p0d8e75adc4)" d="M 57.987688 190.730635 
L 421.336525 190.730635 
" style="fill:none;stroke:#ffffff;stroke-width:0.5;"/>
     </g>
    </g>
    <g id="ytick_6">
     <g id="line2d_19">
      <path clip-path="url(#p0d8e75adc4)" d="M 57.987688 142.497904 
L 421.336525 142.497904 
" style="fill:none;stroke:#ffffff;stroke-width:0.5;"/>
     </g>
    </g>
    <g id="ytick_7">
     <g id="line2d_20">
      <path clip-path="url(#p0d8e75adc4)" d="M 57.987688 94.265173 
L 421.336525 94.265173 
" style="fill:none;stroke:#ffffff;stroke-width:0.5;"/>
     </g>
    </g>
    <g id="ytick_8">
     <g id="line2d_21">
      <path clip-path="url(#p0d8e75adc4)" d="M 57.987688 46.032442 
L 421.336525 46.032442 
" style="fill:none;stroke:#ffffff;stroke-width:0.5;"/>
     </g>
    </g>
    <g id="text_5">
     <!-- Value -->
     <g transform="translate(15.558281 256.228457)rotate(-90)scale(0.11 -0.11)">
      <defs>
       <path d="M 1831 0 
L 50 4666 
L 709 4666 
L 2188 738 
L 3669 4666 
L 4325 4666 
L 2547 0 
L 1831 0 
z
" id="DejaVuSans-56" transform="scale(0.015625)"/>
       <path d="M 2194 1759 
Q 1497 1759 1228 1600 
Q 959 1441 959 1056 
Q 959 750 1161 570 
Q 1363 391 1709 391 
Q 2188 391 2477 730 
Q 2766 1069 2766 1631 
L 2766 1759 
L 2194 1759 
z
M 3341 1997 
L 3341 0 
L 2766 0 
L 2766 531 
Q 2569 213 2275 61 
Q 1981 -91 1556 -91 
Q 1019 -91 701 211 
Q 384 513 384 1019 
Q 384 1609 779 1909 
Q 1175 2209 1959 2209 
L 2766 2209 
L 2766 2266 
Q 2766 2663 2505 2880 
Q 2244 3097 1772 3097 
Q 1472 3097 1187 3025 
Q 903 2953 641 2809 
L 641 3341 
Q 956 3463 1253 3523 
Q 1550 3584 1831 3584 
Q 2591 3584 2966 3190 
Q 3341 2797 3341 1997 
z
" id="DejaVuSans-61" transform="scale(0.015625)"/>
       <path d="M 603 4863 
L 1178 4863 
L 1178 0 
L 603 0 
L 603 4863 
z
" id="DejaVuSans-6c" transform="scale(0.015625)"/>
       <path d="M 544 1381 
L 544 3500 
L 1119 3500 
L 1119 1403 
Q 1119 906 1312 657 
Q 1506 409 1894 409 
Q 2359 409 2629 706 
Q 2900 1003 2900 1516 
L 2900 3500 
L 3475 3500 
L 3475 0 
L 2900 0 
L 2900 538 
Q 2691 219 2414 64 
Q 2138 -91 1772 -91 
Q 1169 -91 856 284 
Q 544 659 544 1381 
z
M 1991 3584 
L 1991 3584 
z
" id="DejaVuSans-75" transform="scale(0.015625)"/>
       <path d="M 3597 1894 
L 3597 1613 
L 953 1613 
Q 991 1019 1311 708 
Q 1631 397 2203 397 
Q 2534 397 2845 478 
Q 3156 559 3463 722 
L 3463 178 
Q 3153 47 2828 -22 
Q 2503 -91 2169 -91 
Q 1331 -91 842 396 
Q 353 884 353 1716 
Q 353 2575 817 3079 
Q 1281 3584 2069 3584 
Q 2775 3584 3186 3129 
Q 3597 2675 3597 1894 
z
M 3022 2063 
Q 3016 2534 2758 2815 
Q 2500 3097 2075 3097 
Q 1594 3097 1305 2825 
Q 1016 2553 972 2059 
L 3022 2063 
z
" id="DejaVuSans-65" transform="scale(0.015625)"/>
      </defs>
      <use xlink:href="#DejaVuSans-56"/>
      <use x="60.658203" xlink:href="#DejaVuSans-61"/>
      <use x="121.9375" xlink:href="#DejaVuSans-6c"/>
      <use x="149.720703" xlink:href="#DejaVuSans-75"/>
      <use x="213.099609" xlink:href="#DejaVuSans-65"/>
     </g>
    </g>
   </g>
   <g id="line2d_22">
    <path clip-path="url(#p0d8e75adc4)" d="M 74.503544 150.536693 
L 157.082825 96.987472 
L 239.662106 63.038803 
L 322.241387 93.016118 
L 404.820668 115.050726 
" style="fill:none;stroke:#000000;stroke-width:0.886227;"/>
   </g>
   <g id="PathCollection_1">
    <path clip-path="url(#p0d8e75adc4)" d="M 74.503544 152.309146 
C 74.973604 152.309146 75.424475 152.122389 75.756858 151.790007 
C 76.089241 151.457624 76.275998 151.006753 76.275998 150.536693 
C 76.275998 150.066632 76.089241 149.615761 75.756858 149.283378 
C 75.424475 148.950996 74.973604 148.764239 74.503544 148.764239 
C 74.033483 148.764239 73.582612 148.950996 73.25023 149.283378 
C 72.917847 149.615761 72.73109 150.066632 72.73109 150.536693 
C 72.73109 151.006753 72.917847 151.457624 73.25023 151.790007 
C 73.582612 152.122389 74.033483 152.309146 74.503544 152.309146 
z
" style="stroke:#000000;stroke-width:0.886227;"/>
    <path clip-path="url(#p0d8e75adc4)" d="M 157.082825 98.759926 
C 157.552885 98.759926 158.003756 98.573169 158.336139 98.240786 
C 158.668522 97.908403 158.855279 97.457532 158.855279 96.987472 
C 158.855279 96.517412 158.668522 96.066541 158.336139 95.734158 
C 158.003756 95.401775 157.552885 95.215018 157.082825 95.215018 
C 156.612765 95.215018 156.161894 95.401775 155.829511 95.734158 
C 155.497128 96.066541 155.310371 96.517412 155.310371 96.987472 
C 155.310371 97.457532 155.497128 97.908403 155.829511 98.240786 
C 156.161894 98.573169 156.612765 98.759926 157.082825 98.759926 
z
" style="stroke:#000000;stroke-width:0.886227;"/>
    <path clip-path="url(#p0d8e75adc4)" d="M 239.662106 64.811257 
C 240.132166 64.811257 240.583037 64.6245 240.91542 64.292118 
C 241.247803 63.959735 241.43456 63.508864 241.43456 63.038803 
C 241.43456 62.568743 241.247803 62.117872 240.91542 61.785489 
C 240.583037 61.453107 240.132166 61.26635 239.662106 61.26635 
C 239.192046 61.26635 238.741175 61.453107 238.408792 61.785489 
C 238.076409 62.117872 237.889652 62.568743 237.889652 63.038803 
C 237.889652 63.508864 238.076409 63.959735 238.408792 64.292118 
C 238.741175 64.6245 239.192046 64.811257 239.662106 64.811257 
z
" style="stroke:#000000;stroke-width:0.886227;"/>
    <path clip-path="url(#p0d8e75adc4)" d="M 322.241387 94.788572 
C 322.711448 94.788572 323.162319 94.601815 323.494701 94.269432 
C 323.827084 93.93705 324.013841 93.486179 324.013841 93.016118 
C 324.013841 92.546058 323.827084 92.095187 323.494701 91.762804 
C 323.162319 91.430421 322.711448 91.243664 322.241387 91.243664 
C 321.771327 91.243664 321.320456 91.430421 320.988073 91.762804 
C 320.65569 92.095187 320.468933 92.546058 320.468933 93.016118 
C 320.468933 93.486179 320.65569 93.93705 320.988073 94.269432 
C 321.320456 94.601815 321.771327 94.788572 322.241387 94.788572 
z
" style="stroke:#000000;stroke-width:0.886227;"/>
    <path clip-path="url(#p0d8e75adc4)" d="M 404.820668 116.82318 
C 405.290729 116.82318 405.7416 116.636423 406.073983 116.30404 
C 406.406365 115.971657 406.593122 115.520786 406.593122 115.050726 
C 406.593122 114.580666 406.406365 114.129794 406.073983 113.797412 
C 405.7416 113.465029 405.290729 113.278272 404.820668 113.278272 
C 404.350608 113.278272 403.899737 113.465029 403.567354 113.797412 
C 403.234972 114.129794 403.048215 114.580666 403.048215 115.050726 
C 403.048215 115.520786 403.234972 115.971657 403.567354 116.30404 
C 403.899737 116.636423 404.350608 116.82318 404.820668 116.82318 
z
" style="stroke:#000000;stroke-width:0.886227;"/>
   </g>
   <g id="patch_3">
    <path d="M 57.987688 22.244082 
L 421.336525 22.244082 
L 421.336525 7.2 
L 57.987688 7.2 
z
" style="fill:#d9d9d9;"/>
   </g>
   <g id="PolyCollection_1">
    <path clip-path="url(#p0d8e75adc4)" d="M 74.503544 76.379757 
L 74.503544 224.693628 
L 157.082825 143.803082 
L 239.662106 94.19307 
L 322.241387 137.608808 
L 404.820668 155.392397 
L 404.820668 74.709054 
L 404.820668 74.709054 
L 322.241387 48.423428 
L 239.662106 31.884537 
L 157.082825 50.171862 
L 74.503544 76.379757 
z
" style="fill:#333333;fill-opacity:0.501961;"/>
   </g>
   <g id="text_6">
    <!-- Accuracy -->
    <g style="fill:#1a1a1a;" transform="translate(219.573356 17.150291)scale(0.088 -0.088)">
     <defs>
      <path d="M 2188 4044 
L 1331 1722 
L 3047 1722 
L 2188 4044 
z
M 1831 4666 
L 2547 4666 
L 4325 0 
L 3669 0 
L 3244 1197 
L 1141 1197 
L 716 0 
L 50 0 
L 1831 4666 
z
" id="DejaVuSans-41" transform="scale(0.015625)"/>
      <path d="M 3122 3366 
L 3122 2828 
Q 2878 2963 2633 3030 
Q 2388 3097 2138 3097 
Q 1578 3097 1268 2742 
Q 959 2388 959 1747 
Q 959 1106 1268 751 
Q 1578 397 2138 397 
Q 2388 397 2633 464 
Q 2878 531 3122 666 
L 3122 134 
Q 2881 22 2623 -34 
Q 2366 -91 2075 -91 
Q 1284 -91 818 406 
Q 353 903 353 1747 
Q 353 2603 823 3093 
Q 1294 3584 2113 3584 
Q 2378 3584 2631 3529 
Q 2884 3475 3122 3366 
z
" id="DejaVuSans-63" transform="scale(0.015625)"/>
      <path d="M 2631 2963 
Q 2534 3019 2420 3045 
Q 2306 3072 2169 3072 
Q 1681 3072 1420 2755 
Q 1159 2438 1159 1844 
L 1159 0 
L 581 0 
L 581 3500 
L 1159 3500 
L 1159 2956 
Q 1341 3275 1631 3429 
Q 1922 3584 2338 3584 
Q 2397 3584 2469 3576 
Q 2541 3569 2628 3553 
L 2631 2963 
z
" id="DejaVuSans-72" transform="scale(0.015625)"/>
      <path d="M 2059 -325 
Q 1816 -950 1584 -1140 
Q 1353 -1331 966 -1331 
L 506 -1331 
L 506 -850 
L 844 -850 
Q 1081 -850 1212 -737 
Q 1344 -625 1503 -206 
L 1606 56 
L 191 3500 
L 800 3500 
L 1894 763 
L 2988 3500 
L 3597 3500 
L 2059 -325 
z
" id="DejaVuSans-79" transform="scale(0.015625)"/>
     </defs>
     <use xlink:href="#DejaVuSans-41"/>
     <use x="66.658203" xlink:href="#DejaVuSans-63"/>
     <use x="121.638672" xlink:href="#DejaVuSans-63"/>
     <use x="176.619141" xlink:href="#DejaVuSans-75"/>
     <use x="239.998047" xlink:href="#DejaVuSans-72"/>
     <use x="281.111328" xlink:href="#DejaVuSans-61"/>
     <use x="342.390625" xlink:href="#DejaVuSans-63"/>
     <use x="397.371094" xlink:href="#DejaVuSans-79"/>
    </g>
   </g>
  </g>
  <g id="axes_2">
   <g id="patch_4">
    <path d="M 475.83885 234.334082 
L 839.187688 234.334082 
L 839.187688 22.244082 
L 475.83885 22.244082 
z
" style="fill:#ebebeb;"/>
   </g>
   <g id="matplotlib.axis_3">
    <g id="xtick_10">
     <g id="line2d_23">
      <path clip-path="url(#p6eb291c743)" d="M 492.354707 234.334082 
L 492.354707 22.244082 
" style="fill:none;stroke:#ffffff;stroke-linecap:square;"/>
     </g>
    </g>
    <g id="xtick_11">
     <g id="line2d_24">
      <path clip-path="url(#p6eb291c743)" d="M 574.933988 234.334082 
L 574.933988 22.244082 
" style="fill:none;stroke:#ffffff;stroke-linecap:square;"/>
     </g>
    </g>
    <g id="xtick_12">
     <g id="line2d_25">
      <path clip-path="url(#p6eb291c743)" d="M 657.513269 234.334082 
L 657.513269 22.244082 
" style="fill:none;stroke:#ffffff;stroke-linecap:square;"/>
     </g>
    </g>
    <g id="xtick_13">
     <g id="line2d_26">
      <path clip-path="url(#p6eb291c743)" d="M 740.09255 234.334082 
L 740.09255 22.244082 
" style="fill:none;stroke:#ffffff;stroke-linecap:square;"/>
     </g>
    </g>
    <g id="xtick_14">
     <g id="line2d_27">
      <path clip-path="url(#p6eb291c743)" d="M 822.671831 234.334082 
L 822.671831 22.244082 
" style="fill:none;stroke:#ffffff;stroke-linecap:square;"/>
     </g>
    </g>
    <g id="xtick_15">
     <g id="line2d_28">
      <path clip-path="url(#p6eb291c743)" d="M 533.644347 234.334082 
L 533.644347 22.244082 
" style="fill:none;stroke:#ffffff;stroke-linecap:square;stroke-width:0.5;"/>
     </g>
    </g>
    <g id="xtick_16">
     <g id="line2d_29">
      <path clip-path="url(#p6eb291c743)" d="M 616.223628 234.334082 
L 616.223628 22.244082 
" style="fill:none;stroke:#ffffff;stroke-linecap:square;stroke-width:0.5;"/>
     </g>
    </g>
    <g id="xtick_17">
     <g id="line2d_30">
      <path clip-path="url(#p6eb291c743)" d="M 698.802909 234.334082 
L 698.802909 22.244082 
" style="fill:none;stroke:#ffffff;stroke-linecap:square;stroke-width:0.5;"/>
     </g>
    </g>
    <g id="xtick_18">
     <g id="line2d_31">
      <path clip-path="url(#p6eb291c743)" d="M 781.382191 234.334082 
L 781.382191 22.244082 
" style="fill:none;stroke:#ffffff;stroke-linecap:square;stroke-width:0.5;"/>
     </g>
    </g>
   </g>
   <g id="matplotlib.axis_4">
    <g id="ytick_9">
     <g id="line2d_32">
      <path clip-path="url(#p6eb291c743)" d="M 475.83885 194.272704 
L 839.187688 194.272704 
" style="fill:none;stroke:#ffffff;stroke-linecap:square;"/>
     </g>
     <g id="line2d_33">
      <path d="M 475.83885 194.272704 
" style="fill:none;stroke:#333333;stroke-linecap:square;stroke-width:1.5;"/>
      <g>
       <use style="fill:#333333;stroke:#000000;" x="475.83885" xlink:href="#m744cef0bec" y="194.272704"/>
      </g>
     </g>
     <g id="text_7">
      <!-- 0.878 -->
      <g style="fill:#4d4d4d;" transform="translate(445.6961 196.700954)scale(0.088 -0.088)">
       <use xlink:href="#DejaVuSans-30"/>
       <use x="63.623047" xlink:href="#DejaVuSans-2e"/>
       <use x="95.410156" xlink:href="#DejaVuSans-38"/>
       <use x="159.033203" xlink:href="#DejaVuSans-37"/>
       <use x="222.65625" xlink:href="#DejaVuSans-38"/>
      </g>
     </g>
    </g>
    <g id="ytick_10">
     <g id="line2d_34">
      <path clip-path="url(#p6eb291c743)" d="M 475.83885 153.097177 
L 839.187688 153.097177 
" style="fill:none;stroke:#ffffff;stroke-linecap:square;"/>
     </g>
     <g id="line2d_35">
      <path d="M 475.83885 153.097177 
" style="fill:none;stroke:#333333;stroke-linecap:square;stroke-width:1.5;"/>
      <g>
       <use style="fill:#333333;stroke:#000000;" x="475.83885" xlink:href="#m744cef0bec" y="153.097177"/>
      </g>
     </g>
     <g id="text_8">
      <!-- 0.880 -->
      <g style="fill:#4d4d4d;" transform="translate(445.6961 155.525427)scale(0.088 -0.088)">
       <use xlink:href="#DejaVuSans-30"/>
       <use x="63.623047" xlink:href="#DejaVuSans-2e"/>
       <use x="95.410156" xlink:href="#DejaVuSans-38"/>
       <use x="159.033203" xlink:href="#DejaVuSans-38"/>
       <use x="222.65625" xlink:href="#DejaVuSans-30"/>
      </g>
     </g>
    </g>
    <g id="ytick_11">
     <g id="line2d_36">
      <path clip-path="url(#p6eb291c743)" d="M 475.83885 111.92165 
L 839.187688 111.92165 
" style="fill:none;stroke:#ffffff;stroke-linecap:square;"/>
     </g>
     <g id="line2d_37">
      <path d="M 475.83885 111.92165 
" style="fill:none;stroke:#333333;stroke-linecap:square;stroke-width:1.5;"/>
      <g>
       <use style="fill:#333333;stroke:#000000;" x="475.83885" xlink:href="#m744cef0bec" y="111.92165"/>
      </g>
     </g>
     <g id="text_9">
      <!-- 0.882 -->
      <g style="fill:#4d4d4d;" transform="translate(445.6961 114.3499)scale(0.088 -0.088)">
       <use xlink:href="#DejaVuSans-30"/>
       <use x="63.623047" xlink:href="#DejaVuSans-2e"/>
       <use x="95.410156" xlink:href="#DejaVuSans-38"/>
       <use x="159.033203" xlink:href="#DejaVuSans-38"/>
       <use x="222.65625" xlink:href="#DejaVuSans-32"/>
      </g>
     </g>
    </g>
    <g id="ytick_12">
     <g id="line2d_38">
      <path clip-path="url(#p6eb291c743)" d="M 475.83885 70.746123 
L 839.187688 70.746123 
" style="fill:none;stroke:#ffffff;stroke-linecap:square;"/>
     </g>
     <g id="line2d_39">
      <path d="M 475.83885 70.746123 
" style="fill:none;stroke:#333333;stroke-linecap:square;stroke-width:1.5;"/>
      <g>
       <use style="fill:#333333;stroke:#000000;" x="475.83885" xlink:href="#m744cef0bec" y="70.746123"/>
      </g>
     </g>
     <g id="text_10">
      <!-- 0.884 -->
      <g style="fill:#4d4d4d;" transform="translate(445.6961 73.174373)scale(0.088 -0.088)">
       <defs>
        <path d="M 2419 4116 
L 825 1625 
L 2419 1625 
L 2419 4116 
z
M 2253 4666 
L 3047 4666 
L 3047 1625 
L 3713 1625 
L 3713 1100 
L 3047 1100 
L 3047 0 
L 2419 0 
L 2419 1100 
L 313 1100 
L 313 1709 
L 2253 4666 
z
" id="DejaVuSans-34" transform="scale(0.015625)"/>
       </defs>
       <use xlink:href="#DejaVuSans-30"/>
       <use x="63.623047" xlink:href="#DejaVuSans-2e"/>
       <use x="95.410156" xlink:href="#DejaVuSans-38"/>
       <use x="159.033203" xlink:href="#DejaVuSans-38"/>
       <use x="222.65625" xlink:href="#DejaVuSans-34"/>
      </g>
     </g>
    </g>
    <g id="ytick_13">
     <g id="line2d_40">
      <path clip-path="url(#p6eb291c743)" d="M 475.83885 29.570595 
L 839.187688 29.570595 
" style="fill:none;stroke:#ffffff;stroke-linecap:square;"/>
     </g>
     <g id="line2d_41">
      <path d="M 475.83885 29.570595 
" style="fill:none;stroke:#333333;stroke-linecap:square;stroke-width:1.5;"/>
      <g>
       <use style="fill:#333333;stroke:#000000;" x="475.83885" xlink:href="#m744cef0bec" y="29.570595"/>
      </g>
     </g>
     <g id="text_11">
      <!-- 0.886 -->
      <g style="fill:#4d4d4d;" transform="translate(445.6961 31.998845)scale(0.088 -0.088)">
       <defs>
        <path d="M 2113 2584 
Q 1688 2584 1439 2293 
Q 1191 2003 1191 1497 
Q 1191 994 1439 701 
Q 1688 409 2113 409 
Q 2538 409 2786 701 
Q 3034 994 3034 1497 
Q 3034 2003 2786 2293 
Q 2538 2584 2113 2584 
z
M 3366 4563 
L 3366 3988 
Q 3128 4100 2886 4159 
Q 2644 4219 2406 4219 
Q 1781 4219 1451 3797 
Q 1122 3375 1075 2522 
Q 1259 2794 1537 2939 
Q 1816 3084 2150 3084 
Q 2853 3084 3261 2657 
Q 3669 2231 3669 1497 
Q 3669 778 3244 343 
Q 2819 -91 2113 -91 
Q 1303 -91 875 529 
Q 447 1150 447 2328 
Q 447 3434 972 4092 
Q 1497 4750 2381 4750 
Q 2619 4750 2861 4703 
Q 3103 4656 3366 4563 
z
" id="DejaVuSans-36" transform="scale(0.015625)"/>
       </defs>
       <use xlink:href="#DejaVuSans-30"/>
       <use x="63.623047" xlink:href="#DejaVuSans-2e"/>
       <use x="95.410156" xlink:href="#DejaVuSans-38"/>
       <use x="159.033203" xlink:href="#DejaVuSans-38"/>
       <use x="222.65625" xlink:href="#DejaVuSans-36"/>
      </g>
     </g>
    </g>
    <g id="ytick_14">
     <g id="line2d_42">
      <path clip-path="url(#p6eb291c743)" d="M 475.83885 214.860467 
L 839.187688 214.860467 
" style="fill:none;stroke:#ffffff;stroke-linecap:square;stroke-width:0.5;"/>
     </g>
    </g>
    <g id="ytick_15">
     <g id="line2d_43">
      <path clip-path="url(#p6eb291c743)" d="M 475.83885 173.68494 
L 839.187688 173.68494 
" style="fill:none;stroke:#ffffff;stroke-linecap:square;stroke-width:0.5;"/>
     </g>
    </g>
    <g id="ytick_16">
     <g id="line2d_44">
      <path clip-path="url(#p6eb291c743)" d="M 475.83885 132.509413 
L 839.187688 132.509413 
" style="fill:none;stroke:#ffffff;stroke-linecap:square;stroke-width:0.5;"/>
     </g>
    </g>
    <g id="ytick_17">
     <g id="line2d_45">
      <path clip-path="url(#p6eb291c743)" d="M 475.83885 91.333886 
L 839.187688 91.333886 
" style="fill:none;stroke:#ffffff;stroke-linecap:square;stroke-width:0.5;"/>
     </g>
    </g>
    <g id="ytick_18">
     <g id="line2d_46">
      <path clip-path="url(#p6eb291c743)" d="M 475.83885 50.158359 
L 839.187688 50.158359 
" style="fill:none;stroke:#ffffff;stroke-linecap:square;stroke-width:0.5;"/>
     </g>
    </g>
   </g>
   <g id="line2d_47">
    <path clip-path="url(#p6eb291c743)" d="M 492.354707 176.607622 
L 574.933988 146.080821 
L 657.513269 137.389676 
L 740.09255 146.515431 
L 822.671831 90.876549 
" style="fill:none;stroke:#000000;stroke-width:0.886227;"/>
   </g>
   <g id="PathCollection_2">
    <path clip-path="url(#p6eb291c743)" d="M 492.354707 178.380076 
C 492.824767 178.380076 493.275638 178.193319 493.608021 177.860936 
C 493.940403 177.528553 494.12716 177.077682 494.12716 176.607622 
C 494.12716 176.137562 493.940403 175.686691 493.608021 175.354308 
C 493.275638 175.021925 492.824767 174.835168 492.354707 174.835168 
C 491.884646 174.835168 491.433775 175.021925 491.101392 175.354308 
C 490.76901 175.686691 490.582253 176.137562 490.582253 176.607622 
C 490.582253 177.077682 490.76901 177.528553 491.101392 177.860936 
C 491.433775 178.193319 491.884646 178.380076 492.354707 178.380076 
z
" style="stroke:#000000;stroke-width:0.886227;"/>
    <path clip-path="url(#p6eb291c743)" d="M 574.933988 147.853275 
C 575.404048 147.853275 575.854919 147.666518 576.187302 147.334135 
C 576.519685 147.001752 576.706442 146.550881 576.706442 146.080821 
C 576.706442 145.61076 576.519685 145.159889 576.187302 144.827507 
C 575.854919 144.495124 575.404048 144.308367 574.933988 144.308367 
C 574.463927 144.308367 574.013056 144.495124 573.680674 144.827507 
C 573.348291 145.159889 573.161534 145.61076 573.161534 146.080821 
C 573.161534 146.550881 573.348291 147.001752 573.680674 147.334135 
C 574.013056 147.666518 574.463927 147.853275 574.933988 147.853275 
z
" style="stroke:#000000;stroke-width:0.886227;"/>
    <path clip-path="url(#p6eb291c743)" d="M 657.513269 139.16213 
C 657.983329 139.16213 658.4342 138.975373 658.766583 138.64299 
C 659.098966 138.310608 659.285723 137.859736 659.285723 137.389676 
C 659.285723 136.919616 659.098966 136.468745 658.766583 136.136362 
C 658.4342 135.803979 657.983329 135.617222 657.513269 135.617222 
C 657.043209 135.617222 656.592338 135.803979 656.259955 136.136362 
C 655.927572 136.468745 655.740815 136.919616 655.740815 137.389676 
C 655.740815 137.859736 655.927572 138.310608 656.259955 138.64299 
C 656.592338 138.975373 657.043209 139.16213 657.513269 139.16213 
z
" style="stroke:#000000;stroke-width:0.886227;"/>
    <path clip-path="url(#p6eb291c743)" d="M 740.09255 148.287884 
C 740.56261 148.287884 741.013481 148.101128 741.345864 147.768745 
C 741.678247 147.436362 741.865004 146.985491 741.865004 146.515431 
C 741.865004 146.04537 741.678247 145.594499 741.345864 145.262116 
C 741.013481 144.929734 740.56261 144.742977 740.09255 144.742977 
C 739.62249 144.742977 739.171619 144.929734 738.839236 145.262116 
C 738.506853 145.594499 738.320096 146.04537 738.320096 146.515431 
C 738.320096 146.985491 738.506853 147.436362 738.839236 147.768745 
C 739.171619 148.101128 739.62249 148.287884 740.09255 148.287884 
z
" style="stroke:#000000;stroke-width:0.886227;"/>
    <path clip-path="url(#p6eb291c743)" d="M 822.671831 92.649003 
C 823.141892 92.649003 823.592763 92.462246 823.925145 92.129863 
C 824.257528 91.79748 824.444285 91.346609 824.444285 90.876549 
C 824.444285 90.406489 824.257528 89.955618 823.925145 89.623235 
C 823.592763 89.290852 823.141892 89.104095 822.671831 89.104095 
C 822.201771 89.104095 821.7509 89.290852 821.418517 89.623235 
C 821.086134 89.955618 820.899377 90.406489 820.899377 90.876549 
C 820.899377 91.346609 821.086134 91.79748 821.418517 92.129863 
C 821.7509 92.462246 822.201771 92.649003 822.671831 92.649003 
z
" style="stroke:#000000;stroke-width:0.886227;"/>
   </g>
   <g id="patch_5">
    <path d="M 475.83885 22.244082 
L 839.187688 22.244082 
L 839.187688 7.2 
L 475.83885 7.2 
z
" style="fill:#d9d9d9;"/>
   </g>
   <g id="PolyCollection_2">
    <path clip-path="url(#p6eb291c743)" d="M 492.354707 128.521616 
L 492.354707 224.693628 
L 574.933988 208.087343 
L 657.513269 177.618487 
L 740.09255 218.224482 
L 822.671831 149.868561 
L 822.671831 31.884537 
L 822.671831 31.884537 
L 740.09255 74.806379 
L 657.513269 97.160866 
L 574.933988 84.074299 
L 492.354707 128.521616 
z
" style="fill:#333333;fill-opacity:0.501961;"/>
   </g>
   <g id="text_12">
    <!-- AUC -->
    <g style="fill:#1a1a1a;" transform="translate(648.210706 17.150291)scale(0.088 -0.088)">
     <defs>
      <path d="M 556 4666 
L 1191 4666 
L 1191 1831 
Q 1191 1081 1462 751 
Q 1734 422 2344 422 
Q 2950 422 3222 751 
Q 3494 1081 3494 1831 
L 3494 4666 
L 4128 4666 
L 4128 1753 
Q 4128 841 3676 375 
Q 3225 -91 2344 -91 
Q 1459 -91 1007 375 
Q 556 841 556 1753 
L 556 4666 
z
" id="DejaVuSans-55" transform="scale(0.015625)"/>
      <path d="M 4122 4306 
L 4122 3641 
Q 3803 3938 3442 4084 
Q 3081 4231 2675 4231 
Q 1875 4231 1450 3742 
Q 1025 3253 1025 2328 
Q 1025 1406 1450 917 
Q 1875 428 2675 428 
Q 3081 428 3442 575 
Q 3803 722 4122 1019 
L 4122 359 
Q 3791 134 3420 21 
Q 3050 -91 2638 -91 
Q 1578 -91 968 557 
Q 359 1206 359 2328 
Q 359 3453 968 4101 
Q 1578 4750 2638 4750 
Q 3056 4750 3426 4639 
Q 3797 4528 4122 4306 
z
" id="DejaVuSans-43" transform="scale(0.015625)"/>
     </defs>
     <use xlink:href="#DejaVuSans-41"/>
     <use x="68.408203" xlink:href="#DejaVuSans-55"/>
     <use x="141.601562" xlink:href="#DejaVuSans-43"/>
    </g>
   </g>
  </g>
  <g id="axes_3">
   <g id="patch_6">
    <path d="M 57.987688 465.764082 
L 421.336525 465.764082 
L 421.336525 253.674082 
L 57.987688 253.674082 
z
" style="fill:#ebebeb;"/>
   </g>
   <g id="matplotlib.axis_5">
    <g id="xtick_19">
     <g id="line2d_48">
      <path clip-path="url(#p2907321edc)" d="M 74.503544 465.764082 
L 74.503544 253.674082 
" style="fill:none;stroke:#ffffff;stroke-linecap:square;"/>
     </g>
     <g id="line2d_49">
      <path d="M 74.503544 465.764082 
" style="fill:none;stroke:#333333;stroke-linecap:square;stroke-width:1.5;"/>
      <defs>
       <path d="M 0 0 
L 0 2.75 
" id="m2ac2d36ec2" style="stroke:#000000;"/>
      </defs>
      <g>
       <use style="fill:#333333;stroke:#000000;" x="74.503544" xlink:href="#m2ac2d36ec2" y="465.764082"/>
      </g>
     </g>
     <g id="text_13">
      <!-- 1 -->
      <g style="fill:#4d4d4d;" transform="translate(71.704044 477.400707)scale(0.088 -0.088)">
       <defs>
        <path d="M 794 531 
L 1825 531 
L 1825 4091 
L 703 3866 
L 703 4441 
L 1819 4666 
L 2450 4666 
L 2450 531 
L 3481 531 
L 3481 0 
L 794 0 
L 794 531 
z
" id="DejaVuSans-31" transform="scale(0.015625)"/>
       </defs>
       <use xlink:href="#DejaVuSans-31"/>
      </g>
     </g>
    </g>
    <g id="xtick_20">
     <g id="line2d_50">
      <path clip-path="url(#p2907321edc)" d="M 157.082825 465.764082 
L 157.082825 253.674082 
" style="fill:none;stroke:#ffffff;stroke-linecap:square;"/>
     </g>
     <g id="line2d_51">
      <path d="M 157.082825 465.764082 
" style="fill:none;stroke:#333333;stroke-linecap:square;stroke-width:1.5;"/>
      <g>
       <use style="fill:#333333;stroke:#000000;" x="157.082825" xlink:href="#m2ac2d36ec2" y="465.764082"/>
      </g>
     </g>
     <g id="text_14">
      <!-- 2 -->
      <g style="fill:#4d4d4d;" transform="translate(154.283325 477.400707)scale(0.088 -0.088)">
       <use xlink:href="#DejaVuSans-32"/>
      </g>
     </g>
    </g>
    <g id="xtick_21">
     <g id="line2d_52">
      <path clip-path="url(#p2907321edc)" d="M 239.662106 465.764082 
L 239.662106 253.674082 
" style="fill:none;stroke:#ffffff;stroke-linecap:square;"/>
     </g>
     <g id="line2d_53">
      <path d="M 239.662106 465.764082 
" style="fill:none;stroke:#333333;stroke-linecap:square;stroke-width:1.5;"/>
      <g>
       <use style="fill:#333333;stroke:#000000;" x="239.662106" xlink:href="#m2ac2d36ec2" y="465.764082"/>
      </g>
     </g>
     <g id="text_15">
      <!-- 3 -->
      <g style="fill:#4d4d4d;" transform="translate(236.862606 477.400707)scale(0.088 -0.088)">
       <use xlink:href="#DejaVuSans-33"/>
      </g>
     </g>
    </g>
    <g id="xtick_22">
     <g id="line2d_54">
      <path clip-path="url(#p2907321edc)" d="M 322.241387 465.764082 
L 322.241387 253.674082 
" style="fill:none;stroke:#ffffff;stroke-linecap:square;"/>
     </g>
     <g id="line2d_55">
      <path d="M 322.241387 465.764082 
" style="fill:none;stroke:#333333;stroke-linecap:square;stroke-width:1.5;"/>
      <g>
       <use style="fill:#333333;stroke:#000000;" x="322.241387" xlink:href="#m2ac2d36ec2" y="465.764082"/>
      </g>
     </g>
     <g id="text_16">
      <!-- 4 -->
      <g style="fill:#4d4d4d;" transform="translate(319.441887 477.400707)scale(0.088 -0.088)">
       <use xlink:href="#DejaVuSans-34"/>
      </g>
     </g>
    </g>
    <g id="xtick_23">
     <g id="line2d_56">
      <path clip-path="url(#p2907321edc)" d="M 404.820668 465.764082 
L 404.820668 253.674082 
" style="fill:none;stroke:#ffffff;stroke-linecap:square;"/>
     </g>
     <g id="line2d_57">
      <path d="M 404.820668 465.764082 
" style="fill:none;stroke:#333333;stroke-linecap:square;stroke-width:1.5;"/>
      <g>
       <use style="fill:#333333;stroke:#000000;" x="404.820668" xlink:href="#m2ac2d36ec2" y="465.764082"/>
      </g>
     </g>
     <g id="text_17">
      <!-- 5 -->
      <g style="fill:#4d4d4d;" transform="translate(402.021168 477.400707)scale(0.088 -0.088)">
       <use xlink:href="#DejaVuSans-35"/>
      </g>
     </g>
    </g>
    <g id="xtick_24">
     <g id="line2d_58">
      <path clip-path="url(#p2907321edc)" d="M 115.793184 465.764082 
L 115.793184 253.674082 
" style="fill:none;stroke:#ffffff;stroke-linecap:square;stroke-width:0.5;"/>
     </g>
    </g>
    <g id="xtick_25">
     <g id="line2d_59">
      <path clip-path="url(#p2907321edc)" d="M 198.372466 465.764082 
L 198.372466 253.674082 
" style="fill:none;stroke:#ffffff;stroke-linecap:square;stroke-width:0.5;"/>
     </g>
    </g>
    <g id="xtick_26">
     <g id="line2d_60">
      <path clip-path="url(#p2907321edc)" d="M 280.951747 465.764082 
L 280.951747 253.674082 
" style="fill:none;stroke:#ffffff;stroke-linecap:square;stroke-width:0.5;"/>
     </g>
    </g>
    <g id="xtick_27">
     <g id="line2d_61">
      <path clip-path="url(#p2907321edc)" d="M 363.531028 465.764082 
L 363.531028 253.674082 
" style="fill:none;stroke:#ffffff;stroke-linecap:square;stroke-width:0.5;"/>
     </g>
    </g>
   </g>
   <g id="matplotlib.axis_6">
    <g id="ytick_19">
     <g id="line2d_62">
      <path clip-path="url(#p2907321edc)" d="M 57.987688 423.630097 
L 421.336525 423.630097 
" style="fill:none;stroke:#ffffff;stroke-linecap:square;"/>
     </g>
     <g id="line2d_63">
      <path d="M 57.987688 423.630097 
" style="fill:none;stroke:#333333;stroke-linecap:square;stroke-width:1.5;"/>
      <g>
       <use style="fill:#333333;stroke:#000000;" x="57.987688" xlink:href="#m744cef0bec" y="423.630097"/>
      </g>
     </g>
     <g id="text_18">
      <!-- 0.886 -->
      <g style="fill:#4d4d4d;" transform="translate(27.844938 426.058347)scale(0.088 -0.088)">
       <use xlink:href="#DejaVuSans-30"/>
       <use x="63.623047" xlink:href="#DejaVuSans-2e"/>
       <use x="95.410156" xlink:href="#DejaVuSans-38"/>
       <use x="159.033203" xlink:href="#DejaVuSans-38"/>
       <use x="222.65625" xlink:href="#DejaVuSans-36"/>
      </g>
     </g>
    </g>
    <g id="ytick_20">
     <g id="line2d_64">
      <path clip-path="url(#p2907321edc)" d="M 57.987688 375.805463 
L 421.336525 375.805463 
" style="fill:none;stroke:#ffffff;stroke-linecap:square;"/>
     </g>
     <g id="line2d_65">
      <path d="M 57.987688 375.805463 
" style="fill:none;stroke:#333333;stroke-linecap:square;stroke-width:1.5;"/>
      <g>
       <use style="fill:#333333;stroke:#000000;" x="57.987688" xlink:href="#m744cef0bec" y="375.805463"/>
      </g>
     </g>
     <g id="text_19">
      <!-- 0.888 -->
      <g style="fill:#4d4d4d;" transform="translate(27.844938 378.233713)scale(0.088 -0.088)">
       <use xlink:href="#DejaVuSans-30"/>
       <use x="63.623047" xlink:href="#DejaVuSans-2e"/>
       <use x="95.410156" xlink:href="#DejaVuSans-38"/>
       <use x="159.033203" xlink:href="#DejaVuSans-38"/>
       <use x="222.65625" xlink:href="#DejaVuSans-38"/>
      </g>
     </g>
    </g>
    <g id="ytick_21">
     <g id="line2d_66">
      <path clip-path="url(#p2907321edc)" d="M 57.987688 327.980829 
L 421.336525 327.980829 
" style="fill:none;stroke:#ffffff;stroke-linecap:square;"/>
     </g>
     <g id="line2d_67">
      <path d="M 57.987688 327.980829 
" style="fill:none;stroke:#333333;stroke-linecap:square;stroke-width:1.5;"/>
      <g>
       <use style="fill:#333333;stroke:#000000;" x="57.987688" xlink:href="#m744cef0bec" y="327.980829"/>
      </g>
     </g>
     <g id="text_20">
      <!-- 0.890 -->
      <g style="fill:#4d4d4d;" transform="translate(27.844938 330.409079)scale(0.088 -0.088)">
       <defs>
        <path d="M 703 97 
L 703 672 
Q 941 559 1184 500 
Q 1428 441 1663 441 
Q 2288 441 2617 861 
Q 2947 1281 2994 2138 
Q 2813 1869 2534 1725 
Q 2256 1581 1919 1581 
Q 1219 1581 811 2004 
Q 403 2428 403 3163 
Q 403 3881 828 4315 
Q 1253 4750 1959 4750 
Q 2769 4750 3195 4129 
Q 3622 3509 3622 2328 
Q 3622 1225 3098 567 
Q 2575 -91 1691 -91 
Q 1453 -91 1209 -44 
Q 966 3 703 97 
z
M 1959 2075 
Q 2384 2075 2632 2365 
Q 2881 2656 2881 3163 
Q 2881 3666 2632 3958 
Q 2384 4250 1959 4250 
Q 1534 4250 1286 3958 
Q 1038 3666 1038 3163 
Q 1038 2656 1286 2365 
Q 1534 2075 1959 2075 
z
" id="DejaVuSans-39" transform="scale(0.015625)"/>
       </defs>
       <use xlink:href="#DejaVuSans-30"/>
       <use x="63.623047" xlink:href="#DejaVuSans-2e"/>
       <use x="95.410156" xlink:href="#DejaVuSans-38"/>
       <use x="159.033203" xlink:href="#DejaVuSans-39"/>
       <use x="222.65625" xlink:href="#DejaVuSans-30"/>
      </g>
     </g>
    </g>
    <g id="ytick_22">
     <g id="line2d_68">
      <path clip-path="url(#p2907321edc)" d="M 57.987688 280.156194 
L 421.336525 280.156194 
" style="fill:none;stroke:#ffffff;stroke-linecap:square;"/>
     </g>
     <g id="line2d_69">
      <path d="M 57.987688 280.156194 
" style="fill:none;stroke:#333333;stroke-linecap:square;stroke-width:1.5;"/>
      <g>
       <use style="fill:#333333;stroke:#000000;" x="57.987688" xlink:href="#m744cef0bec" y="280.156194"/>
      </g>
     </g>
     <g id="text_21">
      <!-- 0.892 -->
      <g style="fill:#4d4d4d;" transform="translate(27.844938 282.584444)scale(0.088 -0.088)">
       <use xlink:href="#DejaVuSans-30"/>
       <use x="63.623047" xlink:href="#DejaVuSans-2e"/>
       <use x="95.410156" xlink:href="#DejaVuSans-38"/>
       <use x="159.033203" xlink:href="#DejaVuSans-39"/>
       <use x="222.65625" xlink:href="#DejaVuSans-32"/>
      </g>
     </g>
    </g>
    <g id="ytick_23">
     <g id="line2d_70">
      <path clip-path="url(#p2907321edc)" d="M 57.987688 447.542414 
L 421.336525 447.542414 
" style="fill:none;stroke:#ffffff;stroke-linecap:square;stroke-width:0.5;"/>
     </g>
    </g>
    <g id="ytick_24">
     <g id="line2d_71">
      <path clip-path="url(#p2907321edc)" d="M 57.987688 399.71778 
L 421.336525 399.71778 
" style="fill:none;stroke:#ffffff;stroke-linecap:square;stroke-width:0.5;"/>
     </g>
    </g>
    <g id="ytick_25">
     <g id="line2d_72">
      <path clip-path="url(#p2907321edc)" d="M 57.987688 351.893146 
L 421.336525 351.893146 
" style="fill:none;stroke:#ffffff;stroke-linecap:square;stroke-width:0.5;"/>
     </g>
    </g>
    <g id="ytick_26">
     <g id="line2d_73">
      <path clip-path="url(#p2907321edc)" d="M 57.987688 304.068512 
L 421.336525 304.068512 
" style="fill:none;stroke:#ffffff;stroke-linecap:square;stroke-width:0.5;"/>
     </g>
    </g>
    <g id="ytick_27">
     <g id="line2d_74">
      <path clip-path="url(#p2907321edc)" d="M 57.987688 256.243877 
L 421.336525 256.243877 
" style="fill:none;stroke:#ffffff;stroke-linecap:square;stroke-width:0.5;"/>
     </g>
    </g>
   </g>
   <g id="line2d_75">
    <path clip-path="url(#p2907321edc)" d="M 74.503544 385.133891 
L 157.082825 346.892925 
L 239.662106 303.335619 
L 322.241387 328.664203 
L 404.820668 359.814352 
" style="fill:none;stroke:#000000;stroke-width:0.886227;"/>
   </g>
   <g id="PathCollection_3">
    <path clip-path="url(#p2907321edc)" d="M 74.503544 386.906344 
C 74.973604 386.906344 75.424475 386.719588 75.756858 386.387205 
C 76.089241 386.054822 76.275998 385.603951 76.275998 385.133891 
C 76.275998 384.66383 76.089241 384.212959 75.756858 383.880576 
C 75.424475 383.548194 74.973604 383.361437 74.503544 383.361437 
C 74.033483 383.361437 73.582612 383.548194 73.25023 383.880576 
C 72.917847 384.212959 72.73109 384.66383 72.73109 385.133891 
C 72.73109 385.603951 72.917847 386.054822 73.25023 386.387205 
C 73.582612 386.719588 74.033483 386.906344 74.503544 386.906344 
z
" style="stroke:#000000;stroke-width:0.886227;"/>
    <path clip-path="url(#p2907321edc)" d="M 157.082825 348.665379 
C 157.552885 348.665379 158.003756 348.478622 158.336139 348.146239 
C 158.668522 347.813857 158.855279 347.362986 158.855279 346.892925 
C 158.855279 346.422865 158.668522 345.971994 158.336139 345.639611 
C 158.003756 345.307228 157.552885 345.120471 157.082825 345.120471 
C 156.612765 345.120471 156.161894 345.307228 155.829511 345.639611 
C 155.497128 345.971994 155.310371 346.422865 155.310371 346.892925 
C 155.310371 347.362986 155.497128 347.813857 155.829511 348.146239 
C 156.161894 348.478622 156.612765 348.665379 157.082825 348.665379 
z
" style="stroke:#000000;stroke-width:0.886227;"/>
    <path clip-path="url(#p2907321edc)" d="M 239.662106 305.108073 
C 240.132166 305.108073 240.583037 304.921316 240.91542 304.588933 
C 241.247803 304.25655 241.43456 303.805679 241.43456 303.335619 
C 241.43456 302.865559 241.247803 302.414688 240.91542 302.082305 
C 240.583037 301.749922 240.132166 301.563165 239.662106 301.563165 
C 239.192046 301.563165 238.741175 301.749922 238.408792 302.082305 
C 238.076409 302.414688 237.889652 302.865559 237.889652 303.335619 
C 237.889652 303.805679 238.076409 304.25655 238.408792 304.588933 
C 238.741175 304.921316 239.192046 305.108073 239.662106 305.108073 
z
" style="stroke:#000000;stroke-width:0.886227;"/>
    <path clip-path="url(#p2907321edc)" d="M 322.241387 330.436656 
C 322.711448 330.436656 323.162319 330.249899 323.494701 329.917517 
C 323.827084 329.585134 324.013841 329.134263 324.013841 328.664203 
C 324.013841 328.194142 323.827084 327.743271 323.494701 327.410888 
C 323.162319 327.078506 322.711448 326.891749 322.241387 326.891749 
C 321.771327 326.891749 321.320456 327.078506 320.988073 327.410888 
C 320.65569 327.743271 320.468933 328.194142 320.468933 328.664203 
C 320.468933 329.134263 320.65569 329.585134 320.988073 329.917517 
C 321.320456 330.249899 321.771327 330.436656 322.241387 330.436656 
z
" style="stroke:#000000;stroke-width:0.886227;"/>
    <path clip-path="url(#p2907321edc)" d="M 404.820668 361.586806 
C 405.290729 361.586806 405.7416 361.400049 406.073983 361.067666 
C 406.406365 360.735284 406.593122 360.284412 406.593122 359.814352 
C 406.593122 359.344292 406.406365 358.893421 406.073983 358.561038 
C 405.7416 358.228655 405.290729 358.041898 404.820668 358.041898 
C 404.350608 358.041898 403.899737 358.228655 403.567354 358.561038 
C 403.234972 358.893421 403.048215 359.344292 403.048215 359.814352 
C 403.048215 360.284412 403.234972 360.735284 403.567354 361.067666 
C 403.899737 361.400049 404.350608 361.586806 404.820668 361.586806 
z
" style="stroke:#000000;stroke-width:0.886227;"/>
   </g>
   <g id="patch_7">
    <path d="M 57.987688 253.674082 
L 421.336525 253.674082 
L 421.336525 238.63 
L 57.987688 238.63 
z
" style="fill:#d9d9d9;"/>
   </g>
   <g id="PolyCollection_3">
    <path clip-path="url(#p2907321edc)" d="M 74.503544 314.144153 
L 74.503544 456.123628 
L 157.082825 395.965429 
L 239.662106 343.356701 
L 322.241387 364.492158 
L 404.820668 401.203428 
L 404.820668 318.425277 
L 404.820668 318.425277 
L 322.241387 292.836247 
L 239.662106 263.314537 
L 157.082825 297.820421 
L 74.503544 314.144153 
z
" style="fill:#333333;fill-opacity:0.501961;"/>
   </g>
   <g id="text_22">
    <!-- F1 score: &lt;=50K -->
    <g style="fill:#1a1a1a;" transform="translate(202.373481 248.580291)scale(0.088 -0.088)">
     <defs>
      <path d="M 628 4666 
L 3309 4666 
L 3309 4134 
L 1259 4134 
L 1259 2759 
L 3109 2759 
L 3109 2228 
L 1259 2228 
L 1259 0 
L 628 0 
L 628 4666 
z
" id="DejaVuSans-46" transform="scale(0.015625)"/>
      <path id="DejaVuSans-20" transform="scale(0.015625)"/>
      <path d="M 2834 3397 
L 2834 2853 
Q 2591 2978 2328 3040 
Q 2066 3103 1784 3103 
Q 1356 3103 1142 2972 
Q 928 2841 928 2578 
Q 928 2378 1081 2264 
Q 1234 2150 1697 2047 
L 1894 2003 
Q 2506 1872 2764 1633 
Q 3022 1394 3022 966 
Q 3022 478 2636 193 
Q 2250 -91 1575 -91 
Q 1294 -91 989 -36 
Q 684 19 347 128 
L 347 722 
Q 666 556 975 473 
Q 1284 391 1588 391 
Q 1994 391 2212 530 
Q 2431 669 2431 922 
Q 2431 1156 2273 1281 
Q 2116 1406 1581 1522 
L 1381 1569 
Q 847 1681 609 1914 
Q 372 2147 372 2553 
Q 372 3047 722 3315 
Q 1072 3584 1716 3584 
Q 2034 3584 2315 3537 
Q 2597 3491 2834 3397 
z
" id="DejaVuSans-73" transform="scale(0.015625)"/>
      <path d="M 1959 3097 
Q 1497 3097 1228 2736 
Q 959 2375 959 1747 
Q 959 1119 1226 758 
Q 1494 397 1959 397 
Q 2419 397 2687 759 
Q 2956 1122 2956 1747 
Q 2956 2369 2687 2733 
Q 2419 3097 1959 3097 
z
M 1959 3584 
Q 2709 3584 3137 3096 
Q 3566 2609 3566 1747 
Q 3566 888 3137 398 
Q 2709 -91 1959 -91 
Q 1206 -91 779 398 
Q 353 888 353 1747 
Q 353 2609 779 3096 
Q 1206 3584 1959 3584 
z
" id="DejaVuSans-6f" transform="scale(0.015625)"/>
      <path d="M 750 794 
L 1409 794 
L 1409 0 
L 750 0 
L 750 794 
z
M 750 3309 
L 1409 3309 
L 1409 2516 
L 750 2516 
L 750 3309 
z
" id="DejaVuSans-3a" transform="scale(0.015625)"/>
      <path d="M 4684 3150 
L 1459 2003 
L 4684 863 
L 4684 294 
L 678 1747 
L 678 2266 
L 4684 3719 
L 4684 3150 
z
" id="DejaVuSans-3c" transform="scale(0.015625)"/>
      <path d="M 678 2906 
L 4684 2906 
L 4684 2381 
L 678 2381 
L 678 2906 
z
M 678 1631 
L 4684 1631 
L 4684 1100 
L 678 1100 
L 678 1631 
z
" id="DejaVuSans-3d" transform="scale(0.015625)"/>
      <path d="M 628 4666 
L 1259 4666 
L 1259 2694 
L 3353 4666 
L 4166 4666 
L 1850 2491 
L 4331 0 
L 3500 0 
L 1259 2247 
L 1259 0 
L 628 0 
L 628 4666 
z
" id="DejaVuSans-4b" transform="scale(0.015625)"/>
     </defs>
     <use xlink:href="#DejaVuSans-46"/>
     <use x="57.519531" xlink:href="#DejaVuSans-31"/>
     <use x="121.142578" xlink:href="#DejaVuSans-20"/>
     <use x="152.929688" xlink:href="#DejaVuSans-73"/>
     <use x="205.029297" xlink:href="#DejaVuSans-63"/>
     <use x="260.009766" xlink:href="#DejaVuSans-6f"/>
     <use x="321.191406" xlink:href="#DejaVuSans-72"/>
     <use x="360.054688" xlink:href="#DejaVuSans-65"/>
     <use x="421.578125" xlink:href="#DejaVuSans-3a"/>
     <use x="455.269531" xlink:href="#DejaVuSans-20"/>
     <use x="487.056641" xlink:href="#DejaVuSans-3c"/>
     <use x="570.845703" xlink:href="#DejaVuSans-3d"/>
     <use x="654.634766" xlink:href="#DejaVuSans-35"/>
     <use x="718.257812" xlink:href="#DejaVuSans-30"/>
     <use x="781.880859" xlink:href="#DejaVuSans-4b"/>
    </g>
   </g>
  </g>
  <g id="axes_4">
   <g id="patch_8">
    <path d="M 475.83885 465.764082 
L 839.187688 465.764082 
L 839.187688 253.674082 
L 475.83885 253.674082 
z
" style="fill:#ebebeb;"/>
   </g>
   <g id="matplotlib.axis_7">
    <g id="xtick_28">
     <g id="line2d_76">
      <path clip-path="url(#p62e3878cdf)" d="M 492.354707 465.764082 
L 492.354707 253.674082 
" style="fill:none;stroke:#ffffff;stroke-linecap:square;"/>
     </g>
     <g id="line2d_77">
      <path d="M 492.354707 465.764082 
" style="fill:none;stroke:#333333;stroke-linecap:square;stroke-width:1.5;"/>
      <g>
       <use style="fill:#333333;stroke:#000000;" x="492.354707" xlink:href="#m2ac2d36ec2" y="465.764082"/>
      </g>
     </g>
     <g id="text_23">
      <!-- 1 -->
      <g style="fill:#4d4d4d;" transform="translate(489.555207 477.400707)scale(0.088 -0.088)">
       <use xlink:href="#DejaVuSans-31"/>
      </g>
     </g>
    </g>
    <g id="xtick_29">
     <g id="line2d_78">
      <path clip-path="url(#p62e3878cdf)" d="M 574.933988 465.764082 
L 574.933988 253.674082 
" style="fill:none;stroke:#ffffff;stroke-linecap:square;"/>
     </g>
     <g id="line2d_79">
      <path d="M 574.933988 465.764082 
" style="fill:none;stroke:#333333;stroke-linecap:square;stroke-width:1.5;"/>
      <g>
       <use style="fill:#333333;stroke:#000000;" x="574.933988" xlink:href="#m2ac2d36ec2" y="465.764082"/>
      </g>
     </g>
     <g id="text_24">
      <!-- 2 -->
      <g style="fill:#4d4d4d;" transform="translate(572.134488 477.400707)scale(0.088 -0.088)">
       <use xlink:href="#DejaVuSans-32"/>
      </g>
     </g>
    </g>
    <g id="xtick_30">
     <g id="line2d_80">
      <path clip-path="url(#p62e3878cdf)" d="M 657.513269 465.764082 
L 657.513269 253.674082 
" style="fill:none;stroke:#ffffff;stroke-linecap:square;"/>
     </g>
     <g id="line2d_81">
      <path d="M 657.513269 465.764082 
" style="fill:none;stroke:#333333;stroke-linecap:square;stroke-width:1.5;"/>
      <g>
       <use style="fill:#333333;stroke:#000000;" x="657.513269" xlink:href="#m2ac2d36ec2" y="465.764082"/>
      </g>
     </g>
     <g id="text_25">
      <!-- 3 -->
      <g style="fill:#4d4d4d;" transform="translate(654.713769 477.400707)scale(0.088 -0.088)">
       <use xlink:href="#DejaVuSans-33"/>
      </g>
     </g>
    </g>
    <g id="xtick_31">
     <g id="line2d_82">
      <path clip-path="url(#p62e3878cdf)" d="M 740.09255 465.764082 
L 740.09255 253.674082 
" style="fill:none;stroke:#ffffff;stroke-linecap:square;"/>
     </g>
     <g id="line2d_83">
      <path d="M 740.09255 465.764082 
" style="fill:none;stroke:#333333;stroke-linecap:square;stroke-width:1.5;"/>
      <g>
       <use style="fill:#333333;stroke:#000000;" x="740.09255" xlink:href="#m2ac2d36ec2" y="465.764082"/>
      </g>
     </g>
     <g id="text_26">
      <!-- 4 -->
      <g style="fill:#4d4d4d;" transform="translate(737.29305 477.400707)scale(0.088 -0.088)">
       <use xlink:href="#DejaVuSans-34"/>
      </g>
     </g>
    </g>
    <g id="xtick_32">
     <g id="line2d_84">
      <path clip-path="url(#p62e3878cdf)" d="M 822.671831 465.764082 
L 822.671831 253.674082 
" style="fill:none;stroke:#ffffff;stroke-linecap:square;"/>
     </g>
     <g id="line2d_85">
      <path d="M 822.671831 465.764082 
" style="fill:none;stroke:#333333;stroke-linecap:square;stroke-width:1.5;"/>
      <g>
       <use style="fill:#333333;stroke:#000000;" x="822.671831" xlink:href="#m2ac2d36ec2" y="465.764082"/>
      </g>
     </g>
     <g id="text_27">
      <!-- 5 -->
      <g style="fill:#4d4d4d;" transform="translate(819.872331 477.400707)scale(0.088 -0.088)">
       <use xlink:href="#DejaVuSans-35"/>
      </g>
     </g>
    </g>
    <g id="xtick_33">
     <g id="line2d_86">
      <path clip-path="url(#p62e3878cdf)" d="M 533.644347 465.764082 
L 533.644347 253.674082 
" style="fill:none;stroke:#ffffff;stroke-linecap:square;stroke-width:0.5;"/>
     </g>
    </g>
    <g id="xtick_34">
     <g id="line2d_87">
      <path clip-path="url(#p62e3878cdf)" d="M 616.223628 465.764082 
L 616.223628 253.674082 
" style="fill:none;stroke:#ffffff;stroke-linecap:square;stroke-width:0.5;"/>
     </g>
    </g>
    <g id="xtick_35">
     <g id="line2d_88">
      <path clip-path="url(#p62e3878cdf)" d="M 698.802909 465.764082 
L 698.802909 253.674082 
" style="fill:none;stroke:#ffffff;stroke-linecap:square;stroke-width:0.5;"/>
     </g>
    </g>
    <g id="xtick_36">
     <g id="line2d_89">
      <path clip-path="url(#p62e3878cdf)" d="M 781.382191 465.764082 
L 781.382191 253.674082 
" style="fill:none;stroke:#ffffff;stroke-linecap:square;stroke-width:0.5;"/>
     </g>
    </g>
    <g id="text_28">
     <!-- N hidden layers -->
     <g transform="translate(392.846203 491.989114)scale(0.11 -0.11)">
      <defs>
       <path d="M 628 4666 
L 1478 4666 
L 3547 763 
L 3547 4666 
L 4159 4666 
L 4159 0 
L 3309 0 
L 1241 3903 
L 1241 0 
L 628 0 
L 628 4666 
z
" id="DejaVuSans-4e" transform="scale(0.015625)"/>
       <path d="M 3513 2113 
L 3513 0 
L 2938 0 
L 2938 2094 
Q 2938 2591 2744 2837 
Q 2550 3084 2163 3084 
Q 1697 3084 1428 2787 
Q 1159 2491 1159 1978 
L 1159 0 
L 581 0 
L 581 4863 
L 1159 4863 
L 1159 2956 
Q 1366 3272 1645 3428 
Q 1925 3584 2291 3584 
Q 2894 3584 3203 3211 
Q 3513 2838 3513 2113 
z
" id="DejaVuSans-68" transform="scale(0.015625)"/>
       <path d="M 603 3500 
L 1178 3500 
L 1178 0 
L 603 0 
L 603 3500 
z
M 603 4863 
L 1178 4863 
L 1178 4134 
L 603 4134 
L 603 4863 
z
" id="DejaVuSans-69" transform="scale(0.015625)"/>
       <path d="M 2906 2969 
L 2906 4863 
L 3481 4863 
L 3481 0 
L 2906 0 
L 2906 525 
Q 2725 213 2448 61 
Q 2172 -91 1784 -91 
Q 1150 -91 751 415 
Q 353 922 353 1747 
Q 353 2572 751 3078 
Q 1150 3584 1784 3584 
Q 2172 3584 2448 3432 
Q 2725 3281 2906 2969 
z
M 947 1747 
Q 947 1113 1208 752 
Q 1469 391 1925 391 
Q 2381 391 2643 752 
Q 2906 1113 2906 1747 
Q 2906 2381 2643 2742 
Q 2381 3103 1925 3103 
Q 1469 3103 1208 2742 
Q 947 2381 947 1747 
z
" id="DejaVuSans-64" transform="scale(0.015625)"/>
       <path d="M 3513 2113 
L 3513 0 
L 2938 0 
L 2938 2094 
Q 2938 2591 2744 2837 
Q 2550 3084 2163 3084 
Q 1697 3084 1428 2787 
Q 1159 2491 1159 1978 
L 1159 0 
L 581 0 
L 581 3500 
L 1159 3500 
L 1159 2956 
Q 1366 3272 1645 3428 
Q 1925 3584 2291 3584 
Q 2894 3584 3203 3211 
Q 3513 2838 3513 2113 
z
" id="DejaVuSans-6e" transform="scale(0.015625)"/>
      </defs>
      <use xlink:href="#DejaVuSans-4e"/>
      <use x="74.804688" xlink:href="#DejaVuSans-20"/>
      <use x="106.591797" xlink:href="#DejaVuSans-68"/>
      <use x="169.970703" xlink:href="#DejaVuSans-69"/>
      <use x="197.753906" xlink:href="#DejaVuSans-64"/>
      <use x="261.230469" xlink:href="#DejaVuSans-64"/>
      <use x="324.707031" xlink:href="#DejaVuSans-65"/>
      <use x="386.230469" xlink:href="#DejaVuSans-6e"/>
      <use x="449.609375" xlink:href="#DejaVuSans-20"/>
      <use x="481.396484" xlink:href="#DejaVuSans-6c"/>
      <use x="509.179688" xlink:href="#DejaVuSans-61"/>
      <use x="570.458984" xlink:href="#DejaVuSans-79"/>
      <use x="629.638672" xlink:href="#DejaVuSans-65"/>
      <use x="691.162109" xlink:href="#DejaVuSans-72"/>
      <use x="732.275391" xlink:href="#DejaVuSans-73"/>
     </g>
    </g>
   </g>
   <g id="matplotlib.axis_8">
    <g id="ytick_28">
     <g id="line2d_90">
      <path clip-path="url(#p62e3878cdf)" d="M 475.83885 455.771856 
L 839.187688 455.771856 
" style="fill:none;stroke:#ffffff;stroke-linecap:square;"/>
     </g>
     <g id="line2d_91">
      <path d="M 475.83885 455.771856 
" style="fill:none;stroke:#333333;stroke-linecap:square;stroke-width:1.5;"/>
      <g>
       <use style="fill:#333333;stroke:#000000;" x="475.83885" xlink:href="#m744cef0bec" y="455.771856"/>
      </g>
     </g>
     <g id="text_29">
      <!-- 0.630 -->
      <g style="fill:#4d4d4d;" transform="translate(445.6961 458.200106)scale(0.088 -0.088)">
       <use xlink:href="#DejaVuSans-30"/>
       <use x="63.623047" xlink:href="#DejaVuSans-2e"/>
       <use x="95.410156" xlink:href="#DejaVuSans-36"/>
       <use x="159.033203" xlink:href="#DejaVuSans-33"/>
       <use x="222.65625" xlink:href="#DejaVuSans-30"/>
      </g>
     </g>
    </g>
    <g id="ytick_29">
     <g id="line2d_92">
      <path clip-path="url(#p62e3878cdf)" d="M 475.83885 409.063835 
L 839.187688 409.063835 
" style="fill:none;stroke:#ffffff;stroke-linecap:square;"/>
     </g>
     <g id="line2d_93">
      <path d="M 475.83885 409.063835 
" style="fill:none;stroke:#333333;stroke-linecap:square;stroke-width:1.5;"/>
      <g>
       <use style="fill:#333333;stroke:#000000;" x="475.83885" xlink:href="#m744cef0bec" y="409.063835"/>
      </g>
     </g>
     <g id="text_30">
      <!-- 0.635 -->
      <g style="fill:#4d4d4d;" transform="translate(445.6961 411.492085)scale(0.088 -0.088)">
       <use xlink:href="#DejaVuSans-30"/>
       <use x="63.623047" xlink:href="#DejaVuSans-2e"/>
       <use x="95.410156" xlink:href="#DejaVuSans-36"/>
       <use x="159.033203" xlink:href="#DejaVuSans-33"/>
       <use x="222.65625" xlink:href="#DejaVuSans-35"/>
      </g>
     </g>
    </g>
    <g id="ytick_30">
     <g id="line2d_94">
      <path clip-path="url(#p62e3878cdf)" d="M 475.83885 362.355813 
L 839.187688 362.355813 
" style="fill:none;stroke:#ffffff;stroke-linecap:square;"/>
     </g>
     <g id="line2d_95">
      <path d="M 475.83885 362.355813 
" style="fill:none;stroke:#333333;stroke-linecap:square;stroke-width:1.5;"/>
      <g>
       <use style="fill:#333333;stroke:#000000;" x="475.83885" xlink:href="#m744cef0bec" y="362.355813"/>
      </g>
     </g>
     <g id="text_31">
      <!-- 0.640 -->
      <g style="fill:#4d4d4d;" transform="translate(445.6961 364.784063)scale(0.088 -0.088)">
       <use xlink:href="#DejaVuSans-30"/>
       <use x="63.623047" xlink:href="#DejaVuSans-2e"/>
       <use x="95.410156" xlink:href="#DejaVuSans-36"/>
       <use x="159.033203" xlink:href="#DejaVuSans-34"/>
       <use x="222.65625" xlink:href="#DejaVuSans-30"/>
      </g>
     </g>
    </g>
    <g id="ytick_31">
     <g id="line2d_96">
      <path clip-path="url(#p62e3878cdf)" d="M 475.83885 315.647792 
L 839.187688 315.647792 
" style="fill:none;stroke:#ffffff;stroke-linecap:square;"/>
     </g>
     <g id="line2d_97">
      <path d="M 475.83885 315.647792 
" style="fill:none;stroke:#333333;stroke-linecap:square;stroke-width:1.5;"/>
      <g>
       <use style="fill:#333333;stroke:#000000;" x="475.83885" xlink:href="#m744cef0bec" y="315.647792"/>
      </g>
     </g>
     <g id="text_32">
      <!-- 0.645 -->
      <g style="fill:#4d4d4d;" transform="translate(445.6961 318.076042)scale(0.088 -0.088)">
       <use xlink:href="#DejaVuSans-30"/>
       <use x="63.623047" xlink:href="#DejaVuSans-2e"/>
       <use x="95.410156" xlink:href="#DejaVuSans-36"/>
       <use x="159.033203" xlink:href="#DejaVuSans-34"/>
       <use x="222.65625" xlink:href="#DejaVuSans-35"/>
      </g>
     </g>
    </g>
    <g id="ytick_32">
     <g id="line2d_98">
      <path clip-path="url(#p62e3878cdf)" d="M 475.83885 268.939771 
L 839.187688 268.939771 
" style="fill:none;stroke:#ffffff;stroke-linecap:square;"/>
     </g>
     <g id="line2d_99">
      <path d="M 475.83885 268.939771 
" style="fill:none;stroke:#333333;stroke-linecap:square;stroke-width:1.5;"/>
      <g>
       <use style="fill:#333333;stroke:#000000;" x="475.83885" xlink:href="#m744cef0bec" y="268.939771"/>
      </g>
     </g>
     <g id="text_33">
      <!-- 0.650 -->
      <g style="fill:#4d4d4d;" transform="translate(445.6961 271.368021)scale(0.088 -0.088)">
       <use xlink:href="#DejaVuSans-30"/>
       <use x="63.623047" xlink:href="#DejaVuSans-2e"/>
       <use x="95.410156" xlink:href="#DejaVuSans-36"/>
       <use x="159.033203" xlink:href="#DejaVuSans-35"/>
       <use x="222.65625" xlink:href="#DejaVuSans-30"/>
      </g>
     </g>
    </g>
    <g id="ytick_33">
     <g id="line2d_100">
      <path clip-path="url(#p62e3878cdf)" d="M 475.83885 432.417845 
L 839.187688 432.417845 
" style="fill:none;stroke:#ffffff;stroke-linecap:square;stroke-width:0.5;"/>
     </g>
    </g>
    <g id="ytick_34">
     <g id="line2d_101">
      <path clip-path="url(#p62e3878cdf)" d="M 475.83885 385.709824 
L 839.187688 385.709824 
" style="fill:none;stroke:#ffffff;stroke-linecap:square;stroke-width:0.5;"/>
     </g>
    </g>
    <g id="ytick_35">
     <g id="line2d_102">
      <path clip-path="url(#p62e3878cdf)" d="M 475.83885 339.001803 
L 839.187688 339.001803 
" style="fill:none;stroke:#ffffff;stroke-linecap:square;stroke-width:0.5;"/>
     </g>
    </g>
    <g id="ytick_36">
     <g id="line2d_103">
      <path clip-path="url(#p62e3878cdf)" d="M 475.83885 292.293782 
L 839.187688 292.293782 
" style="fill:none;stroke:#ffffff;stroke-linecap:square;stroke-width:0.5;"/>
     </g>
    </g>
   </g>
   <g id="line2d_104">
    <path clip-path="url(#p62e3878cdf)" d="M 492.354707 394.289973 
L 574.933988 318.493396 
L 657.513269 350.100992 
L 740.09255 375.585228 
L 822.671831 344.233332 
" style="fill:none;stroke:#000000;stroke-width:0.886227;"/>
   </g>
   <g id="PathCollection_4">
    <path clip-path="url(#p62e3878cdf)" d="M 492.354707 396.062426 
C 492.824767 396.062426 493.275638 395.875669 493.608021 395.543287 
C 493.940403 395.210904 494.12716 394.760033 494.12716 394.289973 
C 494.12716 393.819912 493.940403 393.369041 493.608021 393.036658 
C 493.275638 392.704276 492.824767 392.517519 492.354707 392.517519 
C 491.884646 392.517519 491.433775 392.704276 491.101392 393.036658 
C 490.76901 393.369041 490.582253 393.819912 490.582253 394.289973 
C 490.582253 394.760033 490.76901 395.210904 491.101392 395.543287 
C 491.433775 395.875669 491.884646 396.062426 492.354707 396.062426 
z
" style="stroke:#000000;stroke-width:0.886227;"/>
    <path clip-path="url(#p62e3878cdf)" d="M 574.933988 320.26585 
C 575.404048 320.26585 575.854919 320.079093 576.187302 319.74671 
C 576.519685 319.414327 576.706442 318.963456 576.706442 318.493396 
C 576.706442 318.023336 576.519685 317.572465 576.187302 317.240082 
C 575.854919 316.907699 575.404048 316.720942 574.933988 316.720942 
C 574.463927 316.720942 574.013056 316.907699 573.680674 317.240082 
C 573.348291 317.572465 573.161534 318.023336 573.161534 318.493396 
C 573.161534 318.963456 573.348291 319.414327 573.680674 319.74671 
C 574.013056 320.079093 574.463927 320.26585 574.933988 320.26585 
z
" style="stroke:#000000;stroke-width:0.886227;"/>
    <path clip-path="url(#p62e3878cdf)" d="M 657.513269 351.873446 
C 657.983329 351.873446 658.4342 351.686689 658.766583 351.354306 
C 659.098966 351.021923 659.285723 350.571052 659.285723 350.100992 
C 659.285723 349.630932 659.098966 349.180061 658.766583 348.847678 
C 658.4342 348.515295 657.983329 348.328538 657.513269 348.328538 
C 657.043209 348.328538 656.592338 348.515295 656.259955 348.847678 
C 655.927572 349.180061 655.740815 349.630932 655.740815 350.100992 
C 655.740815 350.571052 655.927572 351.021923 656.259955 351.354306 
C 656.592338 351.686689 657.043209 351.873446 657.513269 351.873446 
z
" style="stroke:#000000;stroke-width:0.886227;"/>
    <path clip-path="url(#p62e3878cdf)" d="M 740.09255 377.357682 
C 740.56261 377.357682 741.013481 377.170925 741.345864 376.838542 
C 741.678247 376.50616 741.865004 376.055289 741.865004 375.585228 
C 741.865004 375.115168 741.678247 374.664297 741.345864 374.331914 
C 741.013481 373.999531 740.56261 373.812774 740.09255 373.812774 
C 739.62249 373.812774 739.171619 373.999531 738.839236 374.331914 
C 738.506853 374.664297 738.320096 375.115168 738.320096 375.585228 
C 738.320096 376.055289 738.506853 376.50616 738.839236 376.838542 
C 739.171619 377.170925 739.62249 377.357682 740.09255 377.357682 
z
" style="stroke:#000000;stroke-width:0.886227;"/>
    <path clip-path="url(#p62e3878cdf)" d="M 822.671831 346.005786 
C 823.141892 346.005786 823.592763 345.819029 823.925145 345.486646 
C 824.257528 345.154263 824.444285 344.703392 824.444285 344.233332 
C 824.444285 343.763272 824.257528 343.3124 823.925145 342.980018 
C 823.592763 342.647635 823.141892 342.460878 822.671831 342.460878 
C 822.201771 342.460878 821.7509 342.647635 821.418517 342.980018 
C 821.086134 343.3124 820.899377 343.763272 820.899377 344.233332 
C 820.899377 344.703392 821.086134 345.154263 821.418517 345.486646 
C 821.7509 345.819029 822.201771 346.005786 822.671831 346.005786 
z
" style="stroke:#000000;stroke-width:0.886227;"/>
   </g>
   <g id="patch_9">
    <path d="M 475.83885 253.674082 
L 839.187688 253.674082 
L 839.187688 238.63 
L 475.83885 238.63 
z
" style="fill:#d9d9d9;"/>
   </g>
   <g id="PolyCollection_4">
    <path clip-path="url(#p62e3878cdf)" d="M 492.354707 332.456317 
L 492.354707 456.123628 
L 574.933988 373.672255 
L 657.513269 405.49314 
L 740.09255 454.069232 
L 822.671831 415.146921 
L 822.671831 273.319742 
L 822.671831 273.319742 
L 740.09255 297.101225 
L 657.513269 294.708844 
L 574.933988 263.314537 
L 492.354707 332.456317 
z
" style="fill:#333333;fill-opacity:0.501961;"/>
   </g>
   <g id="text_34">
    <!-- F1 score: &gt;50K -->
    <g style="fill:#1a1a1a;" transform="translate(623.911706 248.580291)scale(0.088 -0.088)">
     <defs>
      <path d="M 678 3150 
L 678 3719 
L 4684 2266 
L 4684 1747 
L 678 294 
L 678 863 
L 3897 2003 
L 678 3150 
z
" id="DejaVuSans-3e" transform="scale(0.015625)"/>
     </defs>
     <use xlink:href="#DejaVuSans-46"/>
     <use x="57.519531" xlink:href="#DejaVuSans-31"/>
     <use x="121.142578" xlink:href="#DejaVuSans-20"/>
     <use x="152.929688" xlink:href="#DejaVuSans-73"/>
     <use x="205.029297" xlink:href="#DejaVuSans-63"/>
     <use x="260.009766" xlink:href="#DejaVuSans-6f"/>
     <use x="321.191406" xlink:href="#DejaVuSans-72"/>
     <use x="360.054688" xlink:href="#DejaVuSans-65"/>
     <use x="421.578125" xlink:href="#DejaVuSans-3a"/>
     <use x="455.269531" xlink:href="#DejaVuSans-20"/>
     <use x="487.056641" xlink:href="#DejaVuSans-3e"/>
     <use x="570.845703" xlink:href="#DejaVuSans-35"/>
     <use x="634.46875" xlink:href="#DejaVuSans-30"/>
     <use x="698.091797" xlink:href="#DejaVuSans-4b"/>
    </g>
   </g>
  </g>
 </g>
 <defs>
  <clipPath id="p0d8e75adc4">
   <rect height="212.09" width="363.348837" x="57.987688" y="22.244082"/>
  </clipPath>
  <clipPath id="p6eb291c743">
   <rect height="212.09" width="363.348837" x="475.83885" y="22.244082"/>
  </clipPath>
  <clipPath id="p2907321edc">
   <rect height="212.09" width="363.348837" x="57.987688" y="253.674082"/>
  </clipPath>
  <clipPath id="p62e3878cdf">
   <rect height="212.09" width="363.348837" x="475.83885" y="253.674082"/>
  </clipPath>
 </defs>
</svg>
