<?xml version="1.0" encoding="utf-8" standalone="no"?>
<!DOCTYPE svg PUBLIC "-//W3C//DTD SVG 1.1//EN"
  "http://www.w3.org/Graphics/SVG/1.1/DTD/svg11.dtd">
<svg height="576pt" version="1.1" viewBox="0 0 1008 576" width="1008pt" xmlns="http://www.w3.org/2000/svg" xmlns:xlink="http://www.w3.org/1999/xlink">
 <metadata>
  <rdf:RDF xmlns:cc="http://creativecommons.org/ns#" xmlns:dc="http://purl.org/dc/elements/1.1/" xmlns:rdf="http://www.w3.org/1999/02/22-rdf-syntax-ns#">
   <cc:Work>
    <dc:type rdf:resource="http://purl.org/dc/dcmitype/StillImage"/>
    <dc:date>2022-03-12T20:23:09.127077</dc:date>
    <dc:format>image/svg+xml</dc:format>
    <dc:creator>
     <cc:Agent>
      <dc:title>Matplotlib v3.4.3, https://matplotlib.org/</dc:title>
     </cc:Agent>
    </dc:creator>
   </cc:Work>
  </rdf:RDF>
 </metadata>
 <defs>
  <style type="text/css">*{stroke-linecap:butt;stroke-linejoin:round;}</style>
 </defs>
 <g id="figure_1">
  <g id="patch_1">
   <path d="M 0 576 
L 1008 576 
L 1008 0 
L 0 0 
z
" style="fill:none;"/>
  </g>
  <g id="axes_1">
   <g id="patch_2">
    <path d="M 126 504 
L 481.090909 504 
L 481.090909 69.12 
L 126 69.12 
z
" style="fill:#ffffff;"/>
   </g>
   <g id="PolyCollection_1">
    <defs>
     <path d="M 142.140496 -478.780785 
L 142.140496 -452.843686 
L 158.280992 -456.435001 
L 174.421488 -464.322448 
L 190.561983 -461.781711 
L 206.702479 -462.978326 
L 222.842975 -467.815044 
L 238.983471 -461.517868 
L 255.123967 -470.638562 
L 271.264463 -464.526085 
L 287.404959 -466.629192 
L 303.545455 -457.866709 
L 319.68595 -456.005151 
L 335.826446 -452.376502 
L 351.966942 -456.696643 
L 368.107438 -454.670976 
L 384.247934 -409.292908 
L 400.38843 -381.013729 
L 416.528926 -274.975103 
L 432.669421 -224.474468 
L 448.809917 -237.933926 
L 464.950413 -91.767273 
L 464.950413 -127.395403 
L 464.950413 -127.395403 
L 448.809917 -423.801686 
L 432.669421 -377.963985 
L 416.528926 -405.238377 
L 400.38843 -459.62124 
L 384.247934 -457.715019 
L 368.107438 -478.913269 
L 351.966942 -478.567407 
L 335.826446 -472.864705 
L 319.68595 -475.955281 
L 303.545455 -475.493561 
L 287.404959 -487.112727 
L 271.264463 -480.648822 
L 255.123967 -481.647524 
L 238.983471 -486.064761 
L 222.842975 -477.807812 
L 206.702479 -485.612187 
L 190.561983 -482.721274 
L 174.421488 -484.324058 
L 158.280992 -484.37241 
L 142.140496 -478.780785 
z
" id="mc4eb034738" style="stroke:#1f77b4;stroke-opacity:0.5;"/>
    </defs>
    <g clip-path="url(#pc02123c0b3)">
     <use style="fill:#1f77b4;fill-opacity:0.5;stroke:#1f77b4;stroke-opacity:0.5;" x="0" xlink:href="#mc4eb034738" y="576"/>
    </g>
   </g>
   <g id="matplotlib.axis_1">
    <g id="xtick_1">
     <g id="line2d_1">
      <defs>
       <path d="M 0 0 
L 0 3.5 
" id="m530cfd06ca" style="stroke:#000000;stroke-width:0.8;"/>
      </defs>
      <g>
       <use style="stroke:#000000;stroke-width:0.8;" x="142.140496" xlink:href="#m530cfd06ca" y="504"/>
      </g>
     </g>
     <g id="text_1">
      <!-- 0.0 -->
      <g transform="translate(134.188933 518.598438)scale(0.1 -0.1)">
       <defs>
        <path d="M 2034 4250 
Q 1547 4250 1301 3770 
Q 1056 3291 1056 2328 
Q 1056 1369 1301 889 
Q 1547 409 2034 409 
Q 2525 409 2770 889 
Q 3016 1369 3016 2328 
Q 3016 3291 2770 3770 
Q 2525 4250 2034 4250 
z
M 2034 4750 
Q 2819 4750 3233 4129 
Q 3647 3509 3647 2328 
Q 3647 1150 3233 529 
Q 2819 -91 2034 -91 
Q 1250 -91 836 529 
Q 422 1150 422 2328 
Q 422 3509 836 4129 
Q 1250 4750 2034 4750 
z
" id="DejaVuSans-30" transform="scale(0.015625)"/>
        <path d="M 684 794 
L 1344 794 
L 1344 0 
L 684 0 
L 684 794 
z
" id="DejaVuSans-2e" transform="scale(0.015625)"/>
       </defs>
       <use xlink:href="#DejaVuSans-30"/>
       <use x="63.623047" xlink:href="#DejaVuSans-2e"/>
       <use x="95.410156" xlink:href="#DejaVuSans-30"/>
      </g>
     </g>
    </g>
    <g id="xtick_2">
     <g id="line2d_2">
      <g>
       <use style="stroke:#000000;stroke-width:0.8;" x="206.702479" xlink:href="#m530cfd06ca" y="504"/>
      </g>
     </g>
     <g id="text_2">
      <!-- 0.2 -->
      <g transform="translate(198.750917 518.598438)scale(0.1 -0.1)">
       <defs>
        <path d="M 1228 531 
L 3431 531 
L 3431 0 
L 469 0 
L 469 531 
Q 828 903 1448 1529 
Q 2069 2156 2228 2338 
Q 2531 2678 2651 2914 
Q 2772 3150 2772 3378 
Q 2772 3750 2511 3984 
Q 2250 4219 1831 4219 
Q 1534 4219 1204 4116 
Q 875 4013 500 3803 
L 500 4441 
Q 881 4594 1212 4672 
Q 1544 4750 1819 4750 
Q 2544 4750 2975 4387 
Q 3406 4025 3406 3419 
Q 3406 3131 3298 2873 
Q 3191 2616 2906 2266 
Q 2828 2175 2409 1742 
Q 1991 1309 1228 531 
z
" id="DejaVuSans-32" transform="scale(0.015625)"/>
       </defs>
       <use xlink:href="#DejaVuSans-30"/>
       <use x="63.623047" xlink:href="#DejaVuSans-2e"/>
       <use x="95.410156" xlink:href="#DejaVuSans-32"/>
      </g>
     </g>
    </g>
    <g id="xtick_3">
     <g id="line2d_3">
      <g>
       <use style="stroke:#000000;stroke-width:0.8;" x="271.264463" xlink:href="#m530cfd06ca" y="504"/>
      </g>
     </g>
     <g id="text_3">
      <!-- 0.4 -->
      <g transform="translate(263.3129 518.598438)scale(0.1 -0.1)">
       <defs>
        <path d="M 2419 4116 
L 825 1625 
L 2419 1625 
L 2419 4116 
z
M 2253 4666 
L 3047 4666 
L 3047 1625 
L 3713 1625 
L 3713 1100 
L 3047 1100 
L 3047 0 
L 2419 0 
L 2419 1100 
L 313 1100 
L 313 1709 
L 2253 4666 
z
" id="DejaVuSans-34" transform="scale(0.015625)"/>
       </defs>
       <use xlink:href="#DejaVuSans-30"/>
       <use x="63.623047" xlink:href="#DejaVuSans-2e"/>
       <use x="95.410156" xlink:href="#DejaVuSans-34"/>
      </g>
     </g>
    </g>
    <g id="xtick_4">
     <g id="line2d_4">
      <g>
       <use style="stroke:#000000;stroke-width:0.8;" x="335.826446" xlink:href="#m530cfd06ca" y="504"/>
      </g>
     </g>
     <g id="text_4">
      <!-- 0.6 -->
      <g transform="translate(327.874884 518.598438)scale(0.1 -0.1)">
       <defs>
        <path d="M 2113 2584 
Q 1688 2584 1439 2293 
Q 1191 2003 1191 1497 
Q 1191 994 1439 701 
Q 1688 409 2113 409 
Q 2538 409 2786 701 
Q 3034 994 3034 1497 
Q 3034 2003 2786 2293 
Q 2538 2584 2113 2584 
z
M 3366 4563 
L 3366 3988 
Q 3128 4100 2886 4159 
Q 2644 4219 2406 4219 
Q 1781 4219 1451 3797 
Q 1122 3375 1075 2522 
Q 1259 2794 1537 2939 
Q 1816 3084 2150 3084 
Q 2853 3084 3261 2657 
Q 3669 2231 3669 1497 
Q 3669 778 3244 343 
Q 2819 -91 2113 -91 
Q 1303 -91 875 529 
Q 447 1150 447 2328 
Q 447 3434 972 4092 
Q 1497 4750 2381 4750 
Q 2619 4750 2861 4703 
Q 3103 4656 3366 4563 
z
" id="DejaVuSans-36" transform="scale(0.015625)"/>
       </defs>
       <use xlink:href="#DejaVuSans-30"/>
       <use x="63.623047" xlink:href="#DejaVuSans-2e"/>
       <use x="95.410156" xlink:href="#DejaVuSans-36"/>
      </g>
     </g>
    </g>
    <g id="xtick_5">
     <g id="line2d_5">
      <g>
       <use style="stroke:#000000;stroke-width:0.8;" x="400.38843" xlink:href="#m530cfd06ca" y="504"/>
      </g>
     </g>
     <g id="text_5">
      <!-- 0.8 -->
      <g transform="translate(392.436867 518.598438)scale(0.1 -0.1)">
       <defs>
        <path d="M 2034 2216 
Q 1584 2216 1326 1975 
Q 1069 1734 1069 1313 
Q 1069 891 1326 650 
Q 1584 409 2034 409 
Q 2484 409 2743 651 
Q 3003 894 3003 1313 
Q 3003 1734 2745 1975 
Q 2488 2216 2034 2216 
z
M 1403 2484 
Q 997 2584 770 2862 
Q 544 3141 544 3541 
Q 544 4100 942 4425 
Q 1341 4750 2034 4750 
Q 2731 4750 3128 4425 
Q 3525 4100 3525 3541 
Q 3525 3141 3298 2862 
Q 3072 2584 2669 2484 
Q 3125 2378 3379 2068 
Q 3634 1759 3634 1313 
Q 3634 634 3220 271 
Q 2806 -91 2034 -91 
Q 1263 -91 848 271 
Q 434 634 434 1313 
Q 434 1759 690 2068 
Q 947 2378 1403 2484 
z
M 1172 3481 
Q 1172 3119 1398 2916 
Q 1625 2713 2034 2713 
Q 2441 2713 2670 2916 
Q 2900 3119 2900 3481 
Q 2900 3844 2670 4047 
Q 2441 4250 2034 4250 
Q 1625 4250 1398 4047 
Q 1172 3844 1172 3481 
z
" id="DejaVuSans-38" transform="scale(0.015625)"/>
       </defs>
       <use xlink:href="#DejaVuSans-30"/>
       <use x="63.623047" xlink:href="#DejaVuSans-2e"/>
       <use x="95.410156" xlink:href="#DejaVuSans-38"/>
      </g>
     </g>
    </g>
    <g id="xtick_6">
     <g id="line2d_6">
      <g>
       <use style="stroke:#000000;stroke-width:0.8;" x="464.950413" xlink:href="#m530cfd06ca" y="504"/>
      </g>
     </g>
     <g id="text_6">
      <!-- 1.0 -->
      <g transform="translate(456.998851 518.598438)scale(0.1 -0.1)">
       <defs>
        <path d="M 794 531 
L 1825 531 
L 1825 4091 
L 703 3866 
L 703 4441 
L 1819 4666 
L 2450 4666 
L 2450 531 
L 3481 531 
L 3481 0 
L 794 0 
L 794 531 
z
" id="DejaVuSans-31" transform="scale(0.015625)"/>
       </defs>
       <use xlink:href="#DejaVuSans-31"/>
       <use x="63.623047" xlink:href="#DejaVuSans-2e"/>
       <use x="95.410156" xlink:href="#DejaVuSans-30"/>
      </g>
     </g>
    </g>
   </g>
   <g id="matplotlib.axis_2">
    <g id="ytick_1">
     <g id="line2d_7">
      <defs>
       <path d="M 0 0 
L -3.5 0 
" id="m911444a025" style="stroke:#000000;stroke-width:0.8;"/>
      </defs>
      <g>
       <use style="stroke:#000000;stroke-width:0.8;" x="126" xlink:href="#m911444a025" y="493.323558"/>
      </g>
     </g>
     <g id="text_7">
      <!-- 0.74 -->
      <g transform="translate(96.734375 497.122776)scale(0.1 -0.1)">
       <defs>
        <path d="M 525 4666 
L 3525 4666 
L 3525 4397 
L 1831 0 
L 1172 0 
L 2766 4134 
L 525 4134 
L 525 4666 
z
" id="DejaVuSans-37" transform="scale(0.015625)"/>
       </defs>
       <use xlink:href="#DejaVuSans-30"/>
       <use x="63.623047" xlink:href="#DejaVuSans-2e"/>
       <use x="95.410156" xlink:href="#DejaVuSans-37"/>
       <use x="159.033203" xlink:href="#DejaVuSans-34"/>
      </g>
     </g>
    </g>
    <g id="ytick_2">
     <g id="line2d_8">
      <g>
       <use style="stroke:#000000;stroke-width:0.8;" x="126" xlink:href="#m911444a025" y="408.997287"/>
      </g>
     </g>
     <g id="text_8">
      <!-- 0.76 -->
      <g transform="translate(96.734375 412.796506)scale(0.1 -0.1)">
       <use xlink:href="#DejaVuSans-30"/>
       <use x="63.623047" xlink:href="#DejaVuSans-2e"/>
       <use x="95.410156" xlink:href="#DejaVuSans-37"/>
       <use x="159.033203" xlink:href="#DejaVuSans-36"/>
      </g>
     </g>
    </g>
    <g id="ytick_3">
     <g id="line2d_9">
      <g>
       <use style="stroke:#000000;stroke-width:0.8;" x="126" xlink:href="#m911444a025" y="324.671017"/>
      </g>
     </g>
     <g id="text_9">
      <!-- 0.78 -->
      <g transform="translate(96.734375 328.470236)scale(0.1 -0.1)">
       <use xlink:href="#DejaVuSans-30"/>
       <use x="63.623047" xlink:href="#DejaVuSans-2e"/>
       <use x="95.410156" xlink:href="#DejaVuSans-37"/>
       <use x="159.033203" xlink:href="#DejaVuSans-38"/>
      </g>
     </g>
    </g>
    <g id="ytick_4">
     <g id="line2d_10">
      <g>
       <use style="stroke:#000000;stroke-width:0.8;" x="126" xlink:href="#m911444a025" y="240.344747"/>
      </g>
     </g>
     <g id="text_10">
      <!-- 0.80 -->
      <g transform="translate(96.734375 244.143966)scale(0.1 -0.1)">
       <use xlink:href="#DejaVuSans-30"/>
       <use x="63.623047" xlink:href="#DejaVuSans-2e"/>
       <use x="95.410156" xlink:href="#DejaVuSans-38"/>
       <use x="159.033203" xlink:href="#DejaVuSans-30"/>
      </g>
     </g>
    </g>
    <g id="ytick_5">
     <g id="line2d_11">
      <g>
       <use style="stroke:#000000;stroke-width:0.8;" x="126" xlink:href="#m911444a025" y="156.018477"/>
      </g>
     </g>
     <g id="text_11">
      <!-- 0.82 -->
      <g transform="translate(96.734375 159.817695)scale(0.1 -0.1)">
       <use xlink:href="#DejaVuSans-30"/>
       <use x="63.623047" xlink:href="#DejaVuSans-2e"/>
       <use x="95.410156" xlink:href="#DejaVuSans-38"/>
       <use x="159.033203" xlink:href="#DejaVuSans-32"/>
      </g>
     </g>
    </g>
    <g id="ytick_6">
     <g id="line2d_12">
      <g>
       <use style="stroke:#000000;stroke-width:0.8;" x="126" xlink:href="#m911444a025" y="71.692206"/>
      </g>
     </g>
     <g id="text_12">
      <!-- 0.84 -->
      <g transform="translate(96.734375 75.491425)scale(0.1 -0.1)">
       <use xlink:href="#DejaVuSans-30"/>
       <use x="63.623047" xlink:href="#DejaVuSans-2e"/>
       <use x="95.410156" xlink:href="#DejaVuSans-38"/>
       <use x="159.033203" xlink:href="#DejaVuSans-34"/>
      </g>
     </g>
    </g>
   </g>
   <g id="line2d_13">
    <path clip-path="url(#pc02123c0b3)" d="M 142.140496 110.187765 
L 158.280992 105.596294 
L 174.421488 101.676747 
L 190.561983 103.748508 
L 206.702479 101.704743 
L 222.842975 103.188572 
L 238.983471 102.208685 
L 255.123967 99.856957 
L 271.264463 103.412546 
L 287.404959 99.129041 
L 303.545455 109.319865 
L 319.68595 110.019784 
L 335.826446 113.379396 
L 351.966942 108.367975 
L 368.107438 109.207878 
L 384.247934 142.496037 
L 400.38843 155.682515 
L 416.528926 235.89326 
L 432.669421 274.780774 
L 448.809917 245.132194 
L 464.950413 466.418662 
" style="fill:none;stroke:#1f77b4;stroke-linecap:square;stroke-width:1.5;"/>
    <defs>
     <path d="M 0 3 
C 0.795609 3 1.55874 2.683901 2.12132 2.12132 
C 2.683901 1.55874 3 0.795609 3 0 
C 3 -0.795609 2.683901 -1.55874 2.12132 -2.12132 
C 1.55874 -2.683901 0.795609 -3 0 -3 
C -0.795609 -3 -1.55874 -2.683901 -2.12132 -2.12132 
C -2.683901 -1.55874 -3 -0.795609 -3 0 
C -3 0.795609 -2.683901 1.55874 -2.12132 2.12132 
C -1.55874 2.683901 -0.795609 3 0 3 
z
" id="me41900c887" style="stroke:#1f77b4;"/>
    </defs>
    <g clip-path="url(#pc02123c0b3)">
     <use style="fill:#1f77b4;stroke:#1f77b4;" x="142.140496" xlink:href="#me41900c887" y="110.187765"/>
     <use style="fill:#1f77b4;stroke:#1f77b4;" x="158.280992" xlink:href="#me41900c887" y="105.596294"/>
     <use style="fill:#1f77b4;stroke:#1f77b4;" x="174.421488" xlink:href="#me41900c887" y="101.676747"/>
     <use style="fill:#1f77b4;stroke:#1f77b4;" x="190.561983" xlink:href="#me41900c887" y="103.748508"/>
     <use style="fill:#1f77b4;stroke:#1f77b4;" x="206.702479" xlink:href="#me41900c887" y="101.704743"/>
     <use style="fill:#1f77b4;stroke:#1f77b4;" x="222.842975" xlink:href="#me41900c887" y="103.188572"/>
     <use style="fill:#1f77b4;stroke:#1f77b4;" x="238.983471" xlink:href="#me41900c887" y="102.208685"/>
     <use style="fill:#1f77b4;stroke:#1f77b4;" x="255.123967" xlink:href="#me41900c887" y="99.856957"/>
     <use style="fill:#1f77b4;stroke:#1f77b4;" x="271.264463" xlink:href="#me41900c887" y="103.412546"/>
     <use style="fill:#1f77b4;stroke:#1f77b4;" x="287.404959" xlink:href="#me41900c887" y="99.129041"/>
     <use style="fill:#1f77b4;stroke:#1f77b4;" x="303.545455" xlink:href="#me41900c887" y="109.319865"/>
     <use style="fill:#1f77b4;stroke:#1f77b4;" x="319.68595" xlink:href="#me41900c887" y="110.019784"/>
     <use style="fill:#1f77b4;stroke:#1f77b4;" x="335.826446" xlink:href="#me41900c887" y="113.379396"/>
     <use style="fill:#1f77b4;stroke:#1f77b4;" x="351.966942" xlink:href="#me41900c887" y="108.367975"/>
     <use style="fill:#1f77b4;stroke:#1f77b4;" x="368.107438" xlink:href="#me41900c887" y="109.207878"/>
     <use style="fill:#1f77b4;stroke:#1f77b4;" x="384.247934" xlink:href="#me41900c887" y="142.496037"/>
     <use style="fill:#1f77b4;stroke:#1f77b4;" x="400.38843" xlink:href="#me41900c887" y="155.682515"/>
     <use style="fill:#1f77b4;stroke:#1f77b4;" x="416.528926" xlink:href="#me41900c887" y="235.89326"/>
     <use style="fill:#1f77b4;stroke:#1f77b4;" x="432.669421" xlink:href="#me41900c887" y="274.780774"/>
     <use style="fill:#1f77b4;stroke:#1f77b4;" x="448.809917" xlink:href="#me41900c887" y="245.132194"/>
     <use style="fill:#1f77b4;stroke:#1f77b4;" x="464.950413" xlink:href="#me41900c887" y="466.418662"/>
    </g>
   </g>
   <g id="patch_3">
    <path d="M 126 504 
L 126 69.12 
" style="fill:none;stroke:#000000;stroke-linecap:square;stroke-linejoin:miter;stroke-width:0.8;"/>
   </g>
   <g id="patch_4">
    <path d="M 481.090909 504 
L 481.090909 69.12 
" style="fill:none;stroke:#000000;stroke-linecap:square;stroke-linejoin:miter;stroke-width:0.8;"/>
   </g>
   <g id="patch_5">
    <path d="M 126 504 
L 481.090909 504 
" style="fill:none;stroke:#000000;stroke-linecap:square;stroke-linejoin:miter;stroke-width:0.8;"/>
   </g>
   <g id="patch_6">
    <path d="M 126 69.12 
L 481.090909 69.12 
" style="fill:none;stroke:#000000;stroke-linecap:square;stroke-linejoin:miter;stroke-width:0.8;"/>
   </g>
   <g id="legend_1">
    <g id="patch_7">
     <path d="M 318.390909 499 
L 474.090909 499 
Q 476.090909 499 476.090909 497 
L 476.090909 468.623438 
Q 476.090909 466.623438 474.090909 466.623438 
L 318.390909 466.623438 
Q 316.390909 466.623438 316.390909 468.623438 
L 316.390909 497 
Q 316.390909 499 318.390909 499 
z
" style="fill:#ffffff;opacity:0.8;stroke:#cccccc;stroke-linejoin:miter;"/>
    </g>
    <g id="line2d_14">
     <path d="M 320.390909 474.721875 
L 340.390909 474.721875 
" style="fill:none;stroke:#1f77b4;stroke-linecap:square;stroke-width:1.5;"/>
    </g>
    <g id="line2d_15">
     <g>
      <use style="fill:#1f77b4;stroke:#1f77b4;" x="330.390909" xlink:href="#me41900c887" y="474.721875"/>
     </g>
    </g>
    <g id="text_13">
     <!-- Accuracy -->
     <g transform="translate(348.390909 478.221875)scale(0.1 -0.1)">
      <defs>
       <path d="M 2188 4044 
L 1331 1722 
L 3047 1722 
L 2188 4044 
z
M 1831 4666 
L 2547 4666 
L 4325 0 
L 3669 0 
L 3244 1197 
L 1141 1197 
L 716 0 
L 50 0 
L 1831 4666 
z
" id="DejaVuSans-41" transform="scale(0.015625)"/>
       <path d="M 3122 3366 
L 3122 2828 
Q 2878 2963 2633 3030 
Q 2388 3097 2138 3097 
Q 1578 3097 1268 2742 
Q 959 2388 959 1747 
Q 959 1106 1268 751 
Q 1578 397 2138 397 
Q 2388 397 2633 464 
Q 2878 531 3122 666 
L 3122 134 
Q 2881 22 2623 -34 
Q 2366 -91 2075 -91 
Q 1284 -91 818 406 
Q 353 903 353 1747 
Q 353 2603 823 3093 
Q 1294 3584 2113 3584 
Q 2378 3584 2631 3529 
Q 2884 3475 3122 3366 
z
" id="DejaVuSans-63" transform="scale(0.015625)"/>
       <path d="M 544 1381 
L 544 3500 
L 1119 3500 
L 1119 1403 
Q 1119 906 1312 657 
Q 1506 409 1894 409 
Q 2359 409 2629 706 
Q 2900 1003 2900 1516 
L 2900 3500 
L 3475 3500 
L 3475 0 
L 2900 0 
L 2900 538 
Q 2691 219 2414 64 
Q 2138 -91 1772 -91 
Q 1169 -91 856 284 
Q 544 659 544 1381 
z
M 1991 3584 
L 1991 3584 
z
" id="DejaVuSans-75" transform="scale(0.015625)"/>
       <path d="M 2631 2963 
Q 2534 3019 2420 3045 
Q 2306 3072 2169 3072 
Q 1681 3072 1420 2755 
Q 1159 2438 1159 1844 
L 1159 0 
L 581 0 
L 581 3500 
L 1159 3500 
L 1159 2956 
Q 1341 3275 1631 3429 
Q 1922 3584 2338 3584 
Q 2397 3584 2469 3576 
Q 2541 3569 2628 3553 
L 2631 2963 
z
" id="DejaVuSans-72" transform="scale(0.015625)"/>
       <path d="M 2194 1759 
Q 1497 1759 1228 1600 
Q 959 1441 959 1056 
Q 959 750 1161 570 
Q 1363 391 1709 391 
Q 2188 391 2477 730 
Q 2766 1069 2766 1631 
L 2766 1759 
L 2194 1759 
z
M 3341 1997 
L 3341 0 
L 2766 0 
L 2766 531 
Q 2569 213 2275 61 
Q 1981 -91 1556 -91 
Q 1019 -91 701 211 
Q 384 513 384 1019 
Q 384 1609 779 1909 
Q 1175 2209 1959 2209 
L 2766 2209 
L 2766 2266 
Q 2766 2663 2505 2880 
Q 2244 3097 1772 3097 
Q 1472 3097 1187 3025 
Q 903 2953 641 2809 
L 641 3341 
Q 956 3463 1253 3523 
Q 1550 3584 1831 3584 
Q 2591 3584 2966 3190 
Q 3341 2797 3341 1997 
z
" id="DejaVuSans-61" transform="scale(0.015625)"/>
       <path d="M 2059 -325 
Q 1816 -950 1584 -1140 
Q 1353 -1331 966 -1331 
L 506 -1331 
L 506 -850 
L 844 -850 
Q 1081 -850 1212 -737 
Q 1344 -625 1503 -206 
L 1606 56 
L 191 3500 
L 800 3500 
L 1894 763 
L 2988 3500 
L 3597 3500 
L 2059 -325 
z
" id="DejaVuSans-79" transform="scale(0.015625)"/>
      </defs>
      <use xlink:href="#DejaVuSans-41"/>
      <use x="66.658203" xlink:href="#DejaVuSans-63"/>
      <use x="121.638672" xlink:href="#DejaVuSans-63"/>
      <use x="176.619141" xlink:href="#DejaVuSans-75"/>
      <use x="239.998047" xlink:href="#DejaVuSans-72"/>
      <use x="281.111328" xlink:href="#DejaVuSans-61"/>
      <use x="342.390625" xlink:href="#DejaVuSans-63"/>
      <use x="397.371094" xlink:href="#DejaVuSans-79"/>
     </g>
    </g>
    <g id="patch_8">
     <path d="M 320.390909 492.9 
L 340.390909 492.9 
L 340.390909 485.9 
L 320.390909 485.9 
z
" style="fill:#1f77b4;fill-opacity:0.5;stroke:#1f77b4;stroke-linejoin:miter;stroke-opacity:0.5;"/>
    </g>
    <g id="text_14">
     <!-- Accuracy $\pm$ SD Accuracy -->
     <g transform="translate(348.390909 492.9)scale(0.1 -0.1)">
      <defs>
       <path id="DejaVuSans-20" transform="scale(0.015625)"/>
       <path d="M 2944 4013 
L 2944 2803 
L 4684 2803 
L 4684 2272 
L 2944 2272 
L 2944 1063 
L 2419 1063 
L 2419 2272 
L 678 2272 
L 678 2803 
L 2419 2803 
L 2419 4013 
L 2944 4013 
z
M 678 531 
L 4684 531 
L 4684 0 
L 678 0 
L 678 531 
z
" id="DejaVuSans-b1" transform="scale(0.015625)"/>
       <path d="M 3425 4513 
L 3425 3897 
Q 3066 4069 2747 4153 
Q 2428 4238 2131 4238 
Q 1616 4238 1336 4038 
Q 1056 3838 1056 3469 
Q 1056 3159 1242 3001 
Q 1428 2844 1947 2747 
L 2328 2669 
Q 3034 2534 3370 2195 
Q 3706 1856 3706 1288 
Q 3706 609 3251 259 
Q 2797 -91 1919 -91 
Q 1588 -91 1214 -16 
Q 841 59 441 206 
L 441 856 
Q 825 641 1194 531 
Q 1563 422 1919 422 
Q 2459 422 2753 634 
Q 3047 847 3047 1241 
Q 3047 1584 2836 1778 
Q 2625 1972 2144 2069 
L 1759 2144 
Q 1053 2284 737 2584 
Q 422 2884 422 3419 
Q 422 4038 858 4394 
Q 1294 4750 2059 4750 
Q 2388 4750 2728 4690 
Q 3069 4631 3425 4513 
z
" id="DejaVuSans-53" transform="scale(0.015625)"/>
       <path d="M 1259 4147 
L 1259 519 
L 2022 519 
Q 2988 519 3436 956 
Q 3884 1394 3884 2338 
Q 3884 3275 3436 3711 
Q 2988 4147 2022 4147 
L 1259 4147 
z
M 628 4666 
L 1925 4666 
Q 3281 4666 3915 4102 
Q 4550 3538 4550 2338 
Q 4550 1131 3912 565 
Q 3275 0 1925 0 
L 628 0 
L 628 4666 
z
" id="DejaVuSans-44" transform="scale(0.015625)"/>
      </defs>
      <use transform="translate(0 0.78125)" xlink:href="#DejaVuSans-41"/>
      <use transform="translate(68.408203 0.78125)" xlink:href="#DejaVuSans-63"/>
      <use transform="translate(123.388672 0.78125)" xlink:href="#DejaVuSans-63"/>
      <use transform="translate(178.369141 0.78125)" xlink:href="#DejaVuSans-75"/>
      <use transform="translate(241.748047 0.78125)" xlink:href="#DejaVuSans-72"/>
      <use transform="translate(282.861328 0.78125)" xlink:href="#DejaVuSans-61"/>
      <use transform="translate(344.140625 0.78125)" xlink:href="#DejaVuSans-63"/>
      <use transform="translate(399.121094 0.78125)" xlink:href="#DejaVuSans-79"/>
      <use transform="translate(458.300781 0.78125)" xlink:href="#DejaVuSans-20"/>
      <use transform="translate(490.087891 0.78125)" xlink:href="#DejaVuSans-b1"/>
      <use transform="translate(573.876953 0.78125)" xlink:href="#DejaVuSans-20"/>
      <use transform="translate(605.664062 0.78125)" xlink:href="#DejaVuSans-53"/>
      <use transform="translate(669.140625 0.78125)" xlink:href="#DejaVuSans-44"/>
      <use transform="translate(746.142578 0.78125)" xlink:href="#DejaVuSans-20"/>
      <use transform="translate(777.929688 0.78125)" xlink:href="#DejaVuSans-41"/>
      <use transform="translate(846.337891 0.78125)" xlink:href="#DejaVuSans-63"/>
      <use transform="translate(901.318359 0.78125)" xlink:href="#DejaVuSans-63"/>
      <use transform="translate(956.298828 0.78125)" xlink:href="#DejaVuSans-75"/>
      <use transform="translate(1019.677734 0.78125)" xlink:href="#DejaVuSans-72"/>
      <use transform="translate(1060.791016 0.78125)" xlink:href="#DejaVuSans-61"/>
      <use transform="translate(1122.070312 0.78125)" xlink:href="#DejaVuSans-63"/>
      <use transform="translate(1177.050781 0.78125)" xlink:href="#DejaVuSans-79"/>
     </g>
    </g>
   </g>
  </g>
  <g id="axes_2">
   <g id="patch_9">
    <path d="M 552.109091 504 
L 907.2 504 
L 907.2 69.12 
L 552.109091 69.12 
z
" style="fill:#ffffff;"/>
   </g>
   <g id="PolyCollection_2">
    <defs>
     <path d="M 568.249587 -485.860658 
L 568.249587 -480.986632 
L 584.390083 -480.16286 
L 600.530579 -481.547776 
L 616.671074 -482.659278 
L 632.81157 -482.709071 
L 648.952066 -481.948659 
L 665.092562 -482.237771 
L 681.233058 -482.592144 
L 697.373554 -482.683712 
L 713.51405 -482.234274 
L 729.654545 -481.448693 
L 745.795041 -480.976808 
L 761.935537 -480.386079 
L 778.076033 -480.69687 
L 794.216529 -477.633164 
L 810.357025 -467.048738 
L 826.497521 -464.871528 
L 842.638017 -434.517444 
L 858.778512 -389.708524 
L 874.919008 -385.951851 
L 891.059504 -91.767273 
L 891.059504 -222.878828 
L 891.059504 -222.878828 
L 874.919008 -485.973544 
L 858.778512 -468.372838 
L 842.638017 -463.115235 
L 826.497521 -477.657911 
L 810.357025 -479.467813 
L 794.216529 -483.182219 
L 778.076033 -484.291803 
L 761.935537 -484.66327 
L 745.795041 -485.014695 
L 729.654545 -485.310645 
L 713.51405 -486.757221 
L 697.373554 -485.632071 
L 681.233058 -485.245344 
L 665.092562 -486.625523 
L 648.952066 -486.020358 
L 632.81157 -486.648377 
L 616.671074 -486.367438 
L 600.530579 -486.468936 
L 584.390083 -487.112727 
L 568.249587 -485.860658 
z
" id="m96076505ad" style="stroke:#1f77b4;stroke-opacity:0.5;"/>
    </defs>
    <g clip-path="url(#p0701ecd852)">
     <use style="fill:#1f77b4;fill-opacity:0.5;stroke:#1f77b4;stroke-opacity:0.5;" x="0" xlink:href="#m96076505ad" y="576"/>
    </g>
   </g>
   <g id="matplotlib.axis_3">
    <g id="xtick_7">
     <g id="line2d_16">
      <g>
       <use style="stroke:#000000;stroke-width:0.8;" x="568.249587" xlink:href="#m530cfd06ca" y="504"/>
      </g>
     </g>
     <g id="text_15">
      <!-- 0.0 -->
      <g transform="translate(560.298024 518.598438)scale(0.1 -0.1)">
       <use xlink:href="#DejaVuSans-30"/>
       <use x="63.623047" xlink:href="#DejaVuSans-2e"/>
       <use x="95.410156" xlink:href="#DejaVuSans-30"/>
      </g>
     </g>
    </g>
    <g id="xtick_8">
     <g id="line2d_17">
      <g>
       <use style="stroke:#000000;stroke-width:0.8;" x="632.81157" xlink:href="#m530cfd06ca" y="504"/>
      </g>
     </g>
     <g id="text_16">
      <!-- 0.2 -->
      <g transform="translate(624.860008 518.598438)scale(0.1 -0.1)">
       <use xlink:href="#DejaVuSans-30"/>
       <use x="63.623047" xlink:href="#DejaVuSans-2e"/>
       <use x="95.410156" xlink:href="#DejaVuSans-32"/>
      </g>
     </g>
    </g>
    <g id="xtick_9">
     <g id="line2d_18">
      <g>
       <use style="stroke:#000000;stroke-width:0.8;" x="697.373554" xlink:href="#m530cfd06ca" y="504"/>
      </g>
     </g>
     <g id="text_17">
      <!-- 0.4 -->
      <g transform="translate(689.421991 518.598438)scale(0.1 -0.1)">
       <use xlink:href="#DejaVuSans-30"/>
       <use x="63.623047" xlink:href="#DejaVuSans-2e"/>
       <use x="95.410156" xlink:href="#DejaVuSans-34"/>
      </g>
     </g>
    </g>
    <g id="xtick_10">
     <g id="line2d_19">
      <g>
       <use style="stroke:#000000;stroke-width:0.8;" x="761.935537" xlink:href="#m530cfd06ca" y="504"/>
      </g>
     </g>
     <g id="text_18">
      <!-- 0.6 -->
      <g transform="translate(753.983975 518.598438)scale(0.1 -0.1)">
       <use xlink:href="#DejaVuSans-30"/>
       <use x="63.623047" xlink:href="#DejaVuSans-2e"/>
       <use x="95.410156" xlink:href="#DejaVuSans-36"/>
      </g>
     </g>
    </g>
    <g id="xtick_11">
     <g id="line2d_20">
      <g>
       <use style="stroke:#000000;stroke-width:0.8;" x="826.497521" xlink:href="#m530cfd06ca" y="504"/>
      </g>
     </g>
     <g id="text_19">
      <!-- 0.8 -->
      <g transform="translate(818.545958 518.598438)scale(0.1 -0.1)">
       <use xlink:href="#DejaVuSans-30"/>
       <use x="63.623047" xlink:href="#DejaVuSans-2e"/>
       <use x="95.410156" xlink:href="#DejaVuSans-38"/>
      </g>
     </g>
    </g>
    <g id="xtick_12">
     <g id="line2d_21">
      <g>
       <use style="stroke:#000000;stroke-width:0.8;" x="891.059504" xlink:href="#m530cfd06ca" y="504"/>
      </g>
     </g>
     <g id="text_20">
      <!-- 1.0 -->
      <g transform="translate(883.107942 518.598438)scale(0.1 -0.1)">
       <use xlink:href="#DejaVuSans-31"/>
       <use x="63.623047" xlink:href="#DejaVuSans-2e"/>
       <use x="95.410156" xlink:href="#DejaVuSans-30"/>
      </g>
     </g>
    </g>
   </g>
   <g id="matplotlib.axis_4">
    <g id="ytick_7">
     <g id="line2d_22">
      <g>
       <use style="stroke:#000000;stroke-width:0.8;" x="552.109091" xlink:href="#m911444a025" y="458.484188"/>
      </g>
     </g>
     <g id="text_21">
      <!-- 0.4 -->
      <g transform="translate(529.205966 462.283407)scale(0.1 -0.1)">
       <use xlink:href="#DejaVuSans-30"/>
       <use x="63.623047" xlink:href="#DejaVuSans-2e"/>
       <use x="95.410156" xlink:href="#DejaVuSans-34"/>
      </g>
     </g>
    </g>
    <g id="ytick_8">
     <g id="line2d_23">
      <g>
       <use style="stroke:#000000;stroke-width:0.8;" x="552.109091" xlink:href="#m911444a025" y="382.305495"/>
      </g>
     </g>
     <g id="text_22">
      <!-- 0.5 -->
      <g transform="translate(529.205966 386.104714)scale(0.1 -0.1)">
       <defs>
        <path d="M 691 4666 
L 3169 4666 
L 3169 4134 
L 1269 4134 
L 1269 2991 
Q 1406 3038 1543 3061 
Q 1681 3084 1819 3084 
Q 2600 3084 3056 2656 
Q 3513 2228 3513 1497 
Q 3513 744 3044 326 
Q 2575 -91 1722 -91 
Q 1428 -91 1123 -41 
Q 819 9 494 109 
L 494 744 
Q 775 591 1075 516 
Q 1375 441 1709 441 
Q 2250 441 2565 725 
Q 2881 1009 2881 1497 
Q 2881 1984 2565 2268 
Q 2250 2553 1709 2553 
Q 1456 2553 1204 2497 
Q 953 2441 691 2322 
L 691 4666 
z
" id="DejaVuSans-35" transform="scale(0.015625)"/>
       </defs>
       <use xlink:href="#DejaVuSans-30"/>
       <use x="63.623047" xlink:href="#DejaVuSans-2e"/>
       <use x="95.410156" xlink:href="#DejaVuSans-35"/>
      </g>
     </g>
    </g>
    <g id="ytick_9">
     <g id="line2d_24">
      <g>
       <use style="stroke:#000000;stroke-width:0.8;" x="552.109091" xlink:href="#m911444a025" y="306.126802"/>
      </g>
     </g>
     <g id="text_23">
      <!-- 0.6 -->
      <g transform="translate(529.205966 309.926021)scale(0.1 -0.1)">
       <use xlink:href="#DejaVuSans-30"/>
       <use x="63.623047" xlink:href="#DejaVuSans-2e"/>
       <use x="95.410156" xlink:href="#DejaVuSans-36"/>
      </g>
     </g>
    </g>
    <g id="ytick_10">
     <g id="line2d_25">
      <g>
       <use style="stroke:#000000;stroke-width:0.8;" x="552.109091" xlink:href="#m911444a025" y="229.948109"/>
      </g>
     </g>
     <g id="text_24">
      <!-- 0.7 -->
      <g transform="translate(529.205966 233.747328)scale(0.1 -0.1)">
       <use xlink:href="#DejaVuSans-30"/>
       <use x="63.623047" xlink:href="#DejaVuSans-2e"/>
       <use x="95.410156" xlink:href="#DejaVuSans-37"/>
      </g>
     </g>
    </g>
    <g id="ytick_11">
     <g id="line2d_26">
      <g>
       <use style="stroke:#000000;stroke-width:0.8;" x="552.109091" xlink:href="#m911444a025" y="153.769416"/>
      </g>
     </g>
     <g id="text_25">
      <!-- 0.8 -->
      <g transform="translate(529.205966 157.568635)scale(0.1 -0.1)">
       <use xlink:href="#DejaVuSans-30"/>
       <use x="63.623047" xlink:href="#DejaVuSans-2e"/>
       <use x="95.410156" xlink:href="#DejaVuSans-38"/>
      </g>
     </g>
    </g>
    <g id="ytick_12">
     <g id="line2d_27">
      <g>
       <use style="stroke:#000000;stroke-width:0.8;" x="552.109091" xlink:href="#m911444a025" y="77.590723"/>
      </g>
     </g>
     <g id="text_26">
      <!-- 0.9 -->
      <g transform="translate(529.205966 81.389942)scale(0.1 -0.1)">
       <defs>
        <path d="M 703 97 
L 703 672 
Q 941 559 1184 500 
Q 1428 441 1663 441 
Q 2288 441 2617 861 
Q 2947 1281 2994 2138 
Q 2813 1869 2534 1725 
Q 2256 1581 1919 1581 
Q 1219 1581 811 2004 
Q 403 2428 403 3163 
Q 403 3881 828 4315 
Q 1253 4750 1959 4750 
Q 2769 4750 3195 4129 
Q 3622 3509 3622 2328 
Q 3622 1225 3098 567 
Q 2575 -91 1691 -91 
Q 1453 -91 1209 -44 
Q 966 3 703 97 
z
M 1959 2075 
Q 2384 2075 2632 2365 
Q 2881 2656 2881 3163 
Q 2881 3666 2632 3958 
Q 2384 4250 1959 4250 
Q 1534 4250 1286 3958 
Q 1038 3666 1038 3163 
Q 1038 2656 1286 2365 
Q 1534 2075 1959 2075 
z
" id="DejaVuSans-39" transform="scale(0.015625)"/>
       </defs>
       <use xlink:href="#DejaVuSans-30"/>
       <use x="63.623047" xlink:href="#DejaVuSans-2e"/>
       <use x="95.410156" xlink:href="#DejaVuSans-39"/>
      </g>
     </g>
    </g>
   </g>
   <g id="line2d_28">
    <path clip-path="url(#p0701ecd852)" d="M 568.249587 92.576355 
L 584.390083 92.362206 
L 600.530579 91.991644 
L 616.671074 91.486642 
L 632.81157 91.321276 
L 648.952066 92.015491 
L 665.092562 91.568353 
L 681.233058 92.081256 
L 697.373554 91.842108 
L 713.51405 91.504253 
L 729.654545 92.620331 
L 745.795041 93.004248 
L 761.935537 93.475326 
L 778.076033 93.505663 
L 794.216529 95.592308 
L 810.357025 102.741725 
L 826.497521 104.73528 
L 842.638017 127.183661 
L 858.778512 146.959319 
L 874.919008 140.037303 
L 891.059504 418.67695 
" style="fill:none;stroke:#1f77b4;stroke-linecap:square;stroke-width:1.5;"/>
    <g clip-path="url(#p0701ecd852)">
     <use style="fill:#1f77b4;stroke:#1f77b4;" x="568.249587" xlink:href="#me41900c887" y="92.576355"/>
     <use style="fill:#1f77b4;stroke:#1f77b4;" x="584.390083" xlink:href="#me41900c887" y="92.362206"/>
     <use style="fill:#1f77b4;stroke:#1f77b4;" x="600.530579" xlink:href="#me41900c887" y="91.991644"/>
     <use style="fill:#1f77b4;stroke:#1f77b4;" x="616.671074" xlink:href="#me41900c887" y="91.486642"/>
     <use style="fill:#1f77b4;stroke:#1f77b4;" x="632.81157" xlink:href="#me41900c887" y="91.321276"/>
     <use style="fill:#1f77b4;stroke:#1f77b4;" x="648.952066" xlink:href="#me41900c887" y="92.015491"/>
     <use style="fill:#1f77b4;stroke:#1f77b4;" x="665.092562" xlink:href="#me41900c887" y="91.568353"/>
     <use style="fill:#1f77b4;stroke:#1f77b4;" x="681.233058" xlink:href="#me41900c887" y="92.081256"/>
     <use style="fill:#1f77b4;stroke:#1f77b4;" x="697.373554" xlink:href="#me41900c887" y="91.842108"/>
     <use style="fill:#1f77b4;stroke:#1f77b4;" x="713.51405" xlink:href="#me41900c887" y="91.504253"/>
     <use style="fill:#1f77b4;stroke:#1f77b4;" x="729.654545" xlink:href="#me41900c887" y="92.620331"/>
     <use style="fill:#1f77b4;stroke:#1f77b4;" x="745.795041" xlink:href="#me41900c887" y="93.004248"/>
     <use style="fill:#1f77b4;stroke:#1f77b4;" x="761.935537" xlink:href="#me41900c887" y="93.475326"/>
     <use style="fill:#1f77b4;stroke:#1f77b4;" x="778.076033" xlink:href="#me41900c887" y="93.505663"/>
     <use style="fill:#1f77b4;stroke:#1f77b4;" x="794.216529" xlink:href="#me41900c887" y="95.592308"/>
     <use style="fill:#1f77b4;stroke:#1f77b4;" x="810.357025" xlink:href="#me41900c887" y="102.741725"/>
     <use style="fill:#1f77b4;stroke:#1f77b4;" x="826.497521" xlink:href="#me41900c887" y="104.73528"/>
     <use style="fill:#1f77b4;stroke:#1f77b4;" x="842.638017" xlink:href="#me41900c887" y="127.183661"/>
     <use style="fill:#1f77b4;stroke:#1f77b4;" x="858.778512" xlink:href="#me41900c887" y="146.959319"/>
     <use style="fill:#1f77b4;stroke:#1f77b4;" x="874.919008" xlink:href="#me41900c887" y="140.037303"/>
     <use style="fill:#1f77b4;stroke:#1f77b4;" x="891.059504" xlink:href="#me41900c887" y="418.67695"/>
    </g>
   </g>
   <g id="patch_10">
    <path d="M 552.109091 504 
L 552.109091 69.12 
" style="fill:none;stroke:#000000;stroke-linecap:square;stroke-linejoin:miter;stroke-width:0.8;"/>
   </g>
   <g id="patch_11">
    <path d="M 907.2 504 
L 907.2 69.12 
" style="fill:none;stroke:#000000;stroke-linecap:square;stroke-linejoin:miter;stroke-width:0.8;"/>
   </g>
   <g id="patch_12">
    <path d="M 552.109091 504 
L 907.2 504 
" style="fill:none;stroke:#000000;stroke-linecap:square;stroke-linejoin:miter;stroke-width:0.8;"/>
   </g>
   <g id="patch_13">
    <path d="M 552.109091 69.12 
L 907.2 69.12 
" style="fill:none;stroke:#000000;stroke-linecap:square;stroke-linejoin:miter;stroke-width:0.8;"/>
   </g>
   <g id="legend_2">
    <g id="patch_14">
     <path d="M 793.9 499 
L 900.2 499 
Q 902.2 499 902.2 497 
L 902.2 468.64375 
Q 902.2 466.64375 900.2 466.64375 
L 793.9 466.64375 
Q 791.9 466.64375 791.9 468.64375 
L 791.9 497 
Q 791.9 499 793.9 499 
z
" style="fill:#ffffff;opacity:0.8;stroke:#cccccc;stroke-linejoin:miter;"/>
    </g>
    <g id="line2d_29">
     <path d="M 795.9 474.742188 
L 815.9 474.742188 
" style="fill:none;stroke:#1f77b4;stroke-linecap:square;stroke-width:1.5;"/>
    </g>
    <g id="line2d_30">
     <g>
      <use style="fill:#1f77b4;stroke:#1f77b4;" x="805.9" xlink:href="#me41900c887" y="474.742188"/>
     </g>
    </g>
    <g id="text_27">
     <!-- AUC -->
     <g transform="translate(823.9 478.242188)scale(0.1 -0.1)">
      <defs>
       <path d="M 556 4666 
L 1191 4666 
L 1191 1831 
Q 1191 1081 1462 751 
Q 1734 422 2344 422 
Q 2950 422 3222 751 
Q 3494 1081 3494 1831 
L 3494 4666 
L 4128 4666 
L 4128 1753 
Q 4128 841 3676 375 
Q 3225 -91 2344 -91 
Q 1459 -91 1007 375 
Q 556 841 556 1753 
L 556 4666 
z
" id="DejaVuSans-55" transform="scale(0.015625)"/>
       <path d="M 4122 4306 
L 4122 3641 
Q 3803 3938 3442 4084 
Q 3081 4231 2675 4231 
Q 1875 4231 1450 3742 
Q 1025 3253 1025 2328 
Q 1025 1406 1450 917 
Q 1875 428 2675 428 
Q 3081 428 3442 575 
Q 3803 722 4122 1019 
L 4122 359 
Q 3791 134 3420 21 
Q 3050 -91 2638 -91 
Q 1578 -91 968 557 
Q 359 1206 359 2328 
Q 359 3453 968 4101 
Q 1578 4750 2638 4750 
Q 3056 4750 3426 4639 
Q 3797 4528 4122 4306 
z
" id="DejaVuSans-43" transform="scale(0.015625)"/>
      </defs>
      <use xlink:href="#DejaVuSans-41"/>
      <use x="68.408203" xlink:href="#DejaVuSans-55"/>
      <use x="141.601562" xlink:href="#DejaVuSans-43"/>
     </g>
    </g>
    <g id="patch_15">
     <path d="M 795.9 492.920313 
L 815.9 492.920313 
L 815.9 485.920313 
L 795.9 485.920313 
z
" style="fill:#1f77b4;fill-opacity:0.5;stroke:#1f77b4;stroke-linejoin:miter;stroke-opacity:0.5;"/>
    </g>
    <g id="text_28">
     <!-- AUC $\pm$ SD AUC -->
     <g transform="translate(823.9 492.920313)scale(0.1 -0.1)">
      <use transform="translate(0 0.78125)" xlink:href="#DejaVuSans-41"/>
      <use transform="translate(68.408203 0.78125)" xlink:href="#DejaVuSans-55"/>
      <use transform="translate(141.601562 0.78125)" xlink:href="#DejaVuSans-43"/>
      <use transform="translate(211.425781 0.78125)" xlink:href="#DejaVuSans-20"/>
      <use transform="translate(243.212891 0.78125)" xlink:href="#DejaVuSans-b1"/>
      <use transform="translate(327.001953 0.78125)" xlink:href="#DejaVuSans-20"/>
      <use transform="translate(358.789062 0.78125)" xlink:href="#DejaVuSans-53"/>
      <use transform="translate(422.265625 0.78125)" xlink:href="#DejaVuSans-44"/>
      <use transform="translate(499.267578 0.78125)" xlink:href="#DejaVuSans-20"/>
      <use transform="translate(531.054688 0.78125)" xlink:href="#DejaVuSans-41"/>
      <use transform="translate(599.462891 0.78125)" xlink:href="#DejaVuSans-55"/>
      <use transform="translate(672.65625 0.78125)" xlink:href="#DejaVuSans-43"/>
     </g>
    </g>
   </g>
  </g>
 </g>
 <defs>
  <clipPath id="pc02123c0b3">
   <rect height="434.88" width="355.090909" x="126" y="69.12"/>
  </clipPath>
  <clipPath id="p0701ecd852">
   <rect height="434.88" width="355.090909" x="552.109091" y="69.12"/>
  </clipPath>
 </defs>
</svg>
