<?xml version="1.0" encoding="utf-8" standalone="no"?>
<!DOCTYPE svg PUBLIC "-//W3C//DTD SVG 1.1//EN"
  "http://www.w3.org/Graphics/SVG/1.1/DTD/svg11.dtd">
<svg height="501.47677pt" version="1.1" viewBox="0 0 835.189687 501.47677" width="835.189687pt" xmlns="http://www.w3.org/2000/svg" xmlns:xlink="http://www.w3.org/1999/xlink">
 <metadata>
  <rdf:RDF xmlns:cc="http://creativecommons.org/ns#" xmlns:dc="http://purl.org/dc/elements/1.1/" xmlns:rdf="http://www.w3.org/1999/02/22-rdf-syntax-ns#">
   <cc:Work>
    <dc:type rdf:resource="http://purl.org/dc/dcmitype/StillImage"/>
    <dc:date>2022-05-07T15:02:50.509108</dc:date>
    <dc:format>image/svg+xml</dc:format>
    <dc:creator>
     <cc:Agent>
      <dc:title>Matplotlib v3.4.3, https://matplotlib.org/</dc:title>
     </cc:Agent>
    </dc:creator>
   </cc:Work>
  </rdf:RDF>
 </metadata>
 <defs>
  <style type="text/css">*{stroke-linecap:butt;stroke-linejoin:round;}</style>
 </defs>
 <g id="figure_1">
  <g id="patch_1">
   <path d="M 0 501.47677 
L 835.189687 501.47677 
L 835.189687 0 
L 0 0 
z
" style="fill:#ffffff;stroke:#ffffff;stroke-linejoin:miter;"/>
  </g>
  <g id="axes_1">
   <g id="patch_2">
    <path d="M 46.789688 234.334082 
L 410.138525 234.334082 
L 410.138525 22.244082 
L 46.789688 22.244082 
z
" style="fill:#ebebeb;"/>
   </g>
   <g id="matplotlib.axis_1">
    <g id="xtick_1">
     <g id="line2d_1">
      <path clip-path="url(#p3ba9bcb08b)" d="M 59.969007 234.334082 
L 59.969007 22.244082 
" style="fill:none;stroke:#ffffff;"/>
     </g>
    </g>
    <g id="xtick_2">
     <g id="line2d_2">
      <path clip-path="url(#p3ba9bcb08b)" d="M 126.699739 234.334082 
L 126.699739 22.244082 
" style="fill:none;stroke:#ffffff;"/>
     </g>
    </g>
    <g id="xtick_3">
     <g id="line2d_3">
      <path clip-path="url(#p3ba9bcb08b)" d="M 193.430472 234.334082 
L 193.430472 22.244082 
" style="fill:none;stroke:#ffffff;"/>
     </g>
    </g>
    <g id="xtick_4">
     <g id="line2d_4">
      <path clip-path="url(#p3ba9bcb08b)" d="M 260.161204 234.334082 
L 260.161204 22.244082 
" style="fill:none;stroke:#ffffff;"/>
     </g>
    </g>
    <g id="xtick_5">
     <g id="line2d_5">
      <path clip-path="url(#p3ba9bcb08b)" d="M 326.891936 234.334082 
L 326.891936 22.244082 
" style="fill:none;stroke:#ffffff;"/>
     </g>
    </g>
    <g id="xtick_6">
     <g id="line2d_6">
      <path clip-path="url(#p3ba9bcb08b)" d="M 393.622668 234.334082 
L 393.622668 22.244082 
" style="fill:none;stroke:#ffffff;"/>
     </g>
    </g>
    <g id="xtick_7">
     <g id="line2d_7">
      <path clip-path="url(#p3ba9bcb08b)" d="M 93.334373 234.334082 
L 93.334373 22.244082 
" style="fill:none;stroke:#ffffff;stroke-width:0.5;"/>
     </g>
    </g>
    <g id="xtick_8">
     <g id="line2d_8">
      <path clip-path="url(#p3ba9bcb08b)" d="M 160.065106 234.334082 
L 160.065106 22.244082 
" style="fill:none;stroke:#ffffff;stroke-width:0.5;"/>
     </g>
    </g>
    <g id="xtick_9">
     <g id="line2d_9">
      <path clip-path="url(#p3ba9bcb08b)" d="M 226.795838 234.334082 
L 226.795838 22.244082 
" style="fill:none;stroke:#ffffff;stroke-width:0.5;"/>
     </g>
    </g>
    <g id="xtick_10">
     <g id="line2d_10">
      <path clip-path="url(#p3ba9bcb08b)" d="M 293.52657 234.334082 
L 293.52657 22.244082 
" style="fill:none;stroke:#ffffff;stroke-width:0.5;"/>
     </g>
    </g>
    <g id="xtick_11">
     <g id="line2d_11">
      <path clip-path="url(#p3ba9bcb08b)" d="M 360.257302 234.334082 
L 360.257302 22.244082 
" style="fill:none;stroke:#ffffff;stroke-width:0.5;"/>
     </g>
    </g>
   </g>
   <g id="matplotlib.axis_2">
    <g id="ytick_1">
     <g id="line2d_12">
      <path clip-path="url(#p3ba9bcb08b)" d="M 46.789688 190.508165 
L 410.138525 190.508165 
" style="fill:none;stroke:#ffffff;"/>
     </g>
     <g id="line2d_13">
      <path d="M 46.789688 190.508165 
" style="fill:none;stroke:#333333;stroke-width:1.5;"/>
      <defs>
       <path d="M 0 0 
L -2.75 0 
" id="m144180c082" style="stroke:#000000;"/>
      </defs>
      <g>
       <use style="fill:#333333;stroke:#000000;" x="46.789688" xlink:href="#m144180c082" y="190.508165"/>
      </g>
     </g>
     <g id="text_1">
      <!-- 0.81 -->
      <g style="fill:#4d4d4d;" transform="translate(22.245938 192.936415)scale(0.088 -0.088)">
       <defs>
        <path d="M 2034 4250 
Q 1547 4250 1301 3770 
Q 1056 3291 1056 2328 
Q 1056 1369 1301 889 
Q 1547 409 2034 409 
Q 2525 409 2770 889 
Q 3016 1369 3016 2328 
Q 3016 3291 2770 3770 
Q 2525 4250 2034 4250 
z
M 2034 4750 
Q 2819 4750 3233 4129 
Q 3647 3509 3647 2328 
Q 3647 1150 3233 529 
Q 2819 -91 2034 -91 
Q 1250 -91 836 529 
Q 422 1150 422 2328 
Q 422 3509 836 4129 
Q 1250 4750 2034 4750 
z
" id="DejaVuSans-30" transform="scale(0.015625)"/>
        <path d="M 684 794 
L 1344 794 
L 1344 0 
L 684 0 
L 684 794 
z
" id="DejaVuSans-2e" transform="scale(0.015625)"/>
        <path d="M 2034 2216 
Q 1584 2216 1326 1975 
Q 1069 1734 1069 1313 
Q 1069 891 1326 650 
Q 1584 409 2034 409 
Q 2484 409 2743 651 
Q 3003 894 3003 1313 
Q 3003 1734 2745 1975 
Q 2488 2216 2034 2216 
z
M 1403 2484 
Q 997 2584 770 2862 
Q 544 3141 544 3541 
Q 544 4100 942 4425 
Q 1341 4750 2034 4750 
Q 2731 4750 3128 4425 
Q 3525 4100 3525 3541 
Q 3525 3141 3298 2862 
Q 3072 2584 2669 2484 
Q 3125 2378 3379 2068 
Q 3634 1759 3634 1313 
Q 3634 634 3220 271 
Q 2806 -91 2034 -91 
Q 1263 -91 848 271 
Q 434 634 434 1313 
Q 434 1759 690 2068 
Q 947 2378 1403 2484 
z
M 1172 3481 
Q 1172 3119 1398 2916 
Q 1625 2713 2034 2713 
Q 2441 2713 2670 2916 
Q 2900 3119 2900 3481 
Q 2900 3844 2670 4047 
Q 2441 4250 2034 4250 
Q 1625 4250 1398 4047 
Q 1172 3844 1172 3481 
z
" id="DejaVuSans-38" transform="scale(0.015625)"/>
        <path d="M 794 531 
L 1825 531 
L 1825 4091 
L 703 3866 
L 703 4441 
L 1819 4666 
L 2450 4666 
L 2450 531 
L 3481 531 
L 3481 0 
L 794 0 
L 794 531 
z
" id="DejaVuSans-31" transform="scale(0.015625)"/>
       </defs>
       <use xlink:href="#DejaVuSans-30"/>
       <use x="63.623047" xlink:href="#DejaVuSans-2e"/>
       <use x="95.410156" xlink:href="#DejaVuSans-38"/>
       <use x="159.033203" xlink:href="#DejaVuSans-31"/>
      </g>
     </g>
    </g>
    <g id="ytick_2">
     <g id="line2d_14">
      <path clip-path="url(#p3ba9bcb08b)" d="M 46.789688 133.425293 
L 410.138525 133.425293 
" style="fill:none;stroke:#ffffff;"/>
     </g>
     <g id="line2d_15">
      <path d="M 46.789688 133.425293 
" style="fill:none;stroke:#333333;stroke-width:1.5;"/>
      <g>
       <use style="fill:#333333;stroke:#000000;" x="46.789688" xlink:href="#m144180c082" y="133.425293"/>
      </g>
     </g>
     <g id="text_2">
      <!-- 0.82 -->
      <g style="fill:#4d4d4d;" transform="translate(22.245938 135.853543)scale(0.088 -0.088)">
       <defs>
        <path d="M 1228 531 
L 3431 531 
L 3431 0 
L 469 0 
L 469 531 
Q 828 903 1448 1529 
Q 2069 2156 2228 2338 
Q 2531 2678 2651 2914 
Q 2772 3150 2772 3378 
Q 2772 3750 2511 3984 
Q 2250 4219 1831 4219 
Q 1534 4219 1204 4116 
Q 875 4013 500 3803 
L 500 4441 
Q 881 4594 1212 4672 
Q 1544 4750 1819 4750 
Q 2544 4750 2975 4387 
Q 3406 4025 3406 3419 
Q 3406 3131 3298 2873 
Q 3191 2616 2906 2266 
Q 2828 2175 2409 1742 
Q 1991 1309 1228 531 
z
" id="DejaVuSans-32" transform="scale(0.015625)"/>
       </defs>
       <use xlink:href="#DejaVuSans-30"/>
       <use x="63.623047" xlink:href="#DejaVuSans-2e"/>
       <use x="95.410156" xlink:href="#DejaVuSans-38"/>
       <use x="159.033203" xlink:href="#DejaVuSans-32"/>
      </g>
     </g>
    </g>
    <g id="ytick_3">
     <g id="line2d_16">
      <path clip-path="url(#p3ba9bcb08b)" d="M 46.789688 76.342421 
L 410.138525 76.342421 
" style="fill:none;stroke:#ffffff;"/>
     </g>
     <g id="line2d_17">
      <path d="M 46.789688 76.342421 
" style="fill:none;stroke:#333333;stroke-width:1.5;"/>
      <g>
       <use style="fill:#333333;stroke:#000000;" x="46.789688" xlink:href="#m144180c082" y="76.342421"/>
      </g>
     </g>
     <g id="text_3">
      <!-- 0.83 -->
      <g style="fill:#4d4d4d;" transform="translate(22.245938 78.770671)scale(0.088 -0.088)">
       <defs>
        <path d="M 2597 2516 
Q 3050 2419 3304 2112 
Q 3559 1806 3559 1356 
Q 3559 666 3084 287 
Q 2609 -91 1734 -91 
Q 1441 -91 1130 -33 
Q 819 25 488 141 
L 488 750 
Q 750 597 1062 519 
Q 1375 441 1716 441 
Q 2309 441 2620 675 
Q 2931 909 2931 1356 
Q 2931 1769 2642 2001 
Q 2353 2234 1838 2234 
L 1294 2234 
L 1294 2753 
L 1863 2753 
Q 2328 2753 2575 2939 
Q 2822 3125 2822 3475 
Q 2822 3834 2567 4026 
Q 2313 4219 1838 4219 
Q 1578 4219 1281 4162 
Q 984 4106 628 3988 
L 628 4550 
Q 988 4650 1302 4700 
Q 1616 4750 1894 4750 
Q 2613 4750 3031 4423 
Q 3450 4097 3450 3541 
Q 3450 3153 3228 2886 
Q 3006 2619 2597 2516 
z
" id="DejaVuSans-33" transform="scale(0.015625)"/>
       </defs>
       <use xlink:href="#DejaVuSans-30"/>
       <use x="63.623047" xlink:href="#DejaVuSans-2e"/>
       <use x="95.410156" xlink:href="#DejaVuSans-38"/>
       <use x="159.033203" xlink:href="#DejaVuSans-33"/>
      </g>
     </g>
    </g>
    <g id="ytick_4">
     <g id="line2d_18">
      <path clip-path="url(#p3ba9bcb08b)" d="M 46.789688 219.049601 
L 410.138525 219.049601 
" style="fill:none;stroke:#ffffff;stroke-width:0.5;"/>
     </g>
    </g>
    <g id="ytick_5">
     <g id="line2d_19">
      <path clip-path="url(#p3ba9bcb08b)" d="M 46.789688 161.966729 
L 410.138525 161.966729 
" style="fill:none;stroke:#ffffff;stroke-width:0.5;"/>
     </g>
    </g>
    <g id="ytick_6">
     <g id="line2d_20">
      <path clip-path="url(#p3ba9bcb08b)" d="M 46.789688 104.883857 
L 410.138525 104.883857 
" style="fill:none;stroke:#ffffff;stroke-width:0.5;"/>
     </g>
    </g>
    <g id="ytick_7">
     <g id="line2d_21">
      <path clip-path="url(#p3ba9bcb08b)" d="M 46.789688 47.800985 
L 410.138525 47.800985 
" style="fill:none;stroke:#ffffff;stroke-width:0.5;"/>
     </g>
    </g>
    <g id="text_4">
     <!-- Value -->
     <g transform="translate(15.558281 256.228457)rotate(-90)scale(0.11 -0.11)">
      <defs>
       <path d="M 1831 0 
L 50 4666 
L 709 4666 
L 2188 738 
L 3669 4666 
L 4325 4666 
L 2547 0 
L 1831 0 
z
" id="DejaVuSans-56" transform="scale(0.015625)"/>
       <path d="M 2194 1759 
Q 1497 1759 1228 1600 
Q 959 1441 959 1056 
Q 959 750 1161 570 
Q 1363 391 1709 391 
Q 2188 391 2477 730 
Q 2766 1069 2766 1631 
L 2766 1759 
L 2194 1759 
z
M 3341 1997 
L 3341 0 
L 2766 0 
L 2766 531 
Q 2569 213 2275 61 
Q 1981 -91 1556 -91 
Q 1019 -91 701 211 
Q 384 513 384 1019 
Q 384 1609 779 1909 
Q 1175 2209 1959 2209 
L 2766 2209 
L 2766 2266 
Q 2766 2663 2505 2880 
Q 2244 3097 1772 3097 
Q 1472 3097 1187 3025 
Q 903 2953 641 2809 
L 641 3341 
Q 956 3463 1253 3523 
Q 1550 3584 1831 3584 
Q 2591 3584 2966 3190 
Q 3341 2797 3341 1997 
z
" id="DejaVuSans-61" transform="scale(0.015625)"/>
       <path d="M 603 4863 
L 1178 4863 
L 1178 0 
L 603 0 
L 603 4863 
z
" id="DejaVuSans-6c" transform="scale(0.015625)"/>
       <path d="M 544 1381 
L 544 3500 
L 1119 3500 
L 1119 1403 
Q 1119 906 1312 657 
Q 1506 409 1894 409 
Q 2359 409 2629 706 
Q 2900 1003 2900 1516 
L 2900 3500 
L 3475 3500 
L 3475 0 
L 2900 0 
L 2900 538 
Q 2691 219 2414 64 
Q 2138 -91 1772 -91 
Q 1169 -91 856 284 
Q 544 659 544 1381 
z
M 1991 3584 
L 1991 3584 
z
" id="DejaVuSans-75" transform="scale(0.015625)"/>
       <path d="M 3597 1894 
L 3597 1613 
L 953 1613 
Q 991 1019 1311 708 
Q 1631 397 2203 397 
Q 2534 397 2845 478 
Q 3156 559 3463 722 
L 3463 178 
Q 3153 47 2828 -22 
Q 2503 -91 2169 -91 
Q 1331 -91 842 396 
Q 353 884 353 1716 
Q 353 2575 817 3079 
Q 1281 3584 2069 3584 
Q 2775 3584 3186 3129 
Q 3597 2675 3597 1894 
z
M 3022 2063 
Q 3016 2534 2758 2815 
Q 2500 3097 2075 3097 
Q 1594 3097 1305 2825 
Q 1016 2553 972 2059 
L 3022 2063 
z
" id="DejaVuSans-65" transform="scale(0.015625)"/>
      </defs>
      <use xlink:href="#DejaVuSans-56"/>
      <use x="60.658203" xlink:href="#DejaVuSans-61"/>
      <use x="121.9375" xlink:href="#DejaVuSans-6c"/>
      <use x="149.720703" xlink:href="#DejaVuSans-75"/>
      <use x="213.099609" xlink:href="#DejaVuSans-65"/>
     </g>
    </g>
   </g>
   <g id="line2d_22">
    <path clip-path="url(#p3ba9bcb08b)" d="M 63.305544 192.896094 
L 66.64208 129.748641 
L 76.65169 78.010181 
L 93.334373 46.588069 
L 110.017056 50.226818 
L 126.699739 53.183301 
L 226.795838 58.48981 
L 393.622668 71.793985 
" style="fill:none;stroke:#000000;stroke-width:0.886227;"/>
   </g>
   <g id="PathCollection_1">
    <path clip-path="url(#p3ba9bcb08b)" d="M 63.305544 194.668548 
C 63.775604 194.668548 64.226475 194.481791 64.558858 194.149408 
C 64.891241 193.817025 65.077998 193.366154 65.077998 192.896094 
C 65.077998 192.426034 64.891241 191.975162 64.558858 191.64278 
C 64.226475 191.310397 63.775604 191.12364 63.305544 191.12364 
C 62.835483 191.12364 62.384612 191.310397 62.05223 191.64278 
C 61.719847 191.975162 61.53309 192.426034 61.53309 192.896094 
C 61.53309 193.366154 61.719847 193.817025 62.05223 194.149408 
C 62.384612 194.481791 62.835483 194.668548 63.305544 194.668548 
z
" style="stroke:#000000;stroke-width:0.886227;"/>
    <path clip-path="url(#p3ba9bcb08b)" d="M 66.64208 131.521094 
C 67.112141 131.521094 67.563012 131.334338 67.895394 131.001955 
C 68.227777 130.669572 68.414534 130.218701 68.414534 129.748641 
C 68.414534 129.27858 68.227777 128.827709 67.895394 128.495327 
C 67.563012 128.162944 67.112141 127.976187 66.64208 127.976187 
C 66.17202 127.976187 65.721149 128.162944 65.388766 128.495327 
C 65.056383 128.827709 64.869626 129.27858 64.869626 129.748641 
C 64.869626 130.218701 65.056383 130.669572 65.388766 131.001955 
C 65.721149 131.334338 66.17202 131.521094 66.64208 131.521094 
z
" style="stroke:#000000;stroke-width:0.886227;"/>
    <path clip-path="url(#p3ba9bcb08b)" d="M 76.65169 79.782635 
C 77.12175 79.782635 77.572622 79.595878 77.905004 79.263495 
C 78.237387 78.931112 78.424144 78.480241 78.424144 78.010181 
C 78.424144 77.540121 78.237387 77.08925 77.905004 76.756867 
C 77.572622 76.424484 77.12175 76.237727 76.65169 76.237727 
C 76.18163 76.237727 75.730759 76.424484 75.398376 76.756867 
C 75.065993 77.08925 74.879236 77.540121 74.879236 78.010181 
C 74.879236 78.480241 75.065993 78.931112 75.398376 79.263495 
C 75.730759 79.595878 76.18163 79.782635 76.65169 79.782635 
z
" style="stroke:#000000;stroke-width:0.886227;"/>
    <path clip-path="url(#p3ba9bcb08b)" d="M 93.334373 48.360523 
C 93.804434 48.360523 94.255305 48.173766 94.587687 47.841383 
C 94.92007 47.509 95.106827 47.058129 95.106827 46.588069 
C 95.106827 46.118009 94.92007 45.667138 94.587687 45.334755 
C 94.255305 45.002372 93.804434 44.815615 93.334373 44.815615 
C 92.864313 44.815615 92.413442 45.002372 92.081059 45.334755 
C 91.748676 45.667138 91.561919 46.118009 91.561919 46.588069 
C 91.561919 47.058129 91.748676 47.509 92.081059 47.841383 
C 92.413442 48.173766 92.864313 48.360523 93.334373 48.360523 
z
" style="stroke:#000000;stroke-width:0.886227;"/>
    <path clip-path="url(#p3ba9bcb08b)" d="M 110.017056 51.999272 
C 110.487117 51.999272 110.937988 51.812515 111.27037 51.480132 
C 111.602753 51.147749 111.78951 50.696878 111.78951 50.226818 
C 111.78951 49.756758 111.602753 49.305887 111.27037 48.973504 
C 110.937988 48.641121 110.487117 48.454364 110.017056 48.454364 
C 109.546996 48.454364 109.096125 48.641121 108.763742 48.973504 
C 108.431359 49.305887 108.244602 49.756758 108.244602 50.226818 
C 108.244602 50.696878 108.431359 51.147749 108.763742 51.480132 
C 109.096125 51.812515 109.546996 51.999272 110.017056 51.999272 
z
" style="stroke:#000000;stroke-width:0.886227;"/>
    <path clip-path="url(#p3ba9bcb08b)" d="M 126.699739 54.955755 
C 127.1698 54.955755 127.620671 54.768998 127.953054 54.436615 
C 128.285436 54.104233 128.472193 53.653362 128.472193 53.183301 
C 128.472193 52.713241 128.285436 52.26237 127.953054 51.929987 
C 127.620671 51.597604 127.1698 51.410847 126.699739 51.410847 
C 126.229679 51.410847 125.778808 51.597604 125.446425 51.929987 
C 125.114042 52.26237 124.927286 52.713241 124.927286 53.183301 
C 124.927286 53.653362 125.114042 54.104233 125.446425 54.436615 
C 125.778808 54.768998 126.229679 54.955755 126.699739 54.955755 
z
" style="stroke:#000000;stroke-width:0.886227;"/>
    <path clip-path="url(#p3ba9bcb08b)" d="M 226.795838 60.262264 
C 227.265898 60.262264 227.716769 60.075507 228.049152 59.743124 
C 228.381535 59.410741 228.568292 58.95987 228.568292 58.48981 
C 228.568292 58.01975 228.381535 57.568879 228.049152 57.236496 
C 227.716769 56.904113 227.265898 56.717356 226.795838 56.717356 
C 226.325778 56.717356 225.874906 56.904113 225.542524 57.236496 
C 225.210141 57.568879 225.023384 58.01975 225.023384 58.48981 
C 225.023384 58.95987 225.210141 59.410741 225.542524 59.743124 
C 225.874906 60.075507 226.325778 60.262264 226.795838 60.262264 
z
" style="stroke:#000000;stroke-width:0.886227;"/>
    <path clip-path="url(#p3ba9bcb08b)" d="M 393.622668 73.566439 
C 394.092729 73.566439 394.5436 73.379682 394.875983 73.047299 
C 395.208365 72.714917 395.395122 72.264046 395.395122 71.793985 
C 395.395122 71.323925 395.208365 70.873054 394.875983 70.540671 
C 394.5436 70.208288 394.092729 70.021531 393.622668 70.021531 
C 393.152608 70.021531 392.701737 70.208288 392.369354 70.540671 
C 392.036972 70.873054 391.850215 71.323925 391.850215 71.793985 
C 391.850215 72.264046 392.036972 72.714917 392.369354 73.047299 
C 392.701737 73.379682 393.152608 73.566439 393.622668 73.566439 
z
" style="stroke:#000000;stroke-width:0.886227;"/>
   </g>
   <g id="patch_3">
    <path d="M 46.789688 22.244082 
L 410.138525 22.244082 
L 410.138525 7.2 
L 46.789688 7.2 
z
" style="fill:#d9d9d9;"/>
   </g>
   <g id="PolyCollection_1">
    <path clip-path="url(#p3ba9bcb08b)" d="M 63.305544 161.09856 
L 63.305544 224.693628 
L 66.64208 152.565526 
L 76.65169 88.70841 
L 93.334373 61.291601 
L 110.017056 59.186919 
L 126.699739 65.784706 
L 226.795838 69.772685 
L 393.622668 81.799109 
L 393.622668 61.788862 
L 393.622668 61.788862 
L 226.795838 47.206935 
L 126.699739 40.581896 
L 110.017056 41.266716 
L 93.334373 31.884537 
L 76.65169 67.311952 
L 66.64208 106.931755 
L 63.305544 161.09856 
z
" style="fill:#333333;fill-opacity:0.501961;"/>
   </g>
   <g id="text_5">
    <!-- Accuracy -->
    <g style="fill:#1a1a1a;" transform="translate(208.375356 17.150291)scale(0.088 -0.088)">
     <defs>
      <path d="M 2188 4044 
L 1331 1722 
L 3047 1722 
L 2188 4044 
z
M 1831 4666 
L 2547 4666 
L 4325 0 
L 3669 0 
L 3244 1197 
L 1141 1197 
L 716 0 
L 50 0 
L 1831 4666 
z
" id="DejaVuSans-41" transform="scale(0.015625)"/>
      <path d="M 3122 3366 
L 3122 2828 
Q 2878 2963 2633 3030 
Q 2388 3097 2138 3097 
Q 1578 3097 1268 2742 
Q 959 2388 959 1747 
Q 959 1106 1268 751 
Q 1578 397 2138 397 
Q 2388 397 2633 464 
Q 2878 531 3122 666 
L 3122 134 
Q 2881 22 2623 -34 
Q 2366 -91 2075 -91 
Q 1284 -91 818 406 
Q 353 903 353 1747 
Q 353 2603 823 3093 
Q 1294 3584 2113 3584 
Q 2378 3584 2631 3529 
Q 2884 3475 3122 3366 
z
" id="DejaVuSans-63" transform="scale(0.015625)"/>
      <path d="M 2631 2963 
Q 2534 3019 2420 3045 
Q 2306 3072 2169 3072 
Q 1681 3072 1420 2755 
Q 1159 2438 1159 1844 
L 1159 0 
L 581 0 
L 581 3500 
L 1159 3500 
L 1159 2956 
Q 1341 3275 1631 3429 
Q 1922 3584 2338 3584 
Q 2397 3584 2469 3576 
Q 2541 3569 2628 3553 
L 2631 2963 
z
" id="DejaVuSans-72" transform="scale(0.015625)"/>
      <path d="M 2059 -325 
Q 1816 -950 1584 -1140 
Q 1353 -1331 966 -1331 
L 506 -1331 
L 506 -850 
L 844 -850 
Q 1081 -850 1212 -737 
Q 1344 -625 1503 -206 
L 1606 56 
L 191 3500 
L 800 3500 
L 1894 763 
L 2988 3500 
L 3597 3500 
L 2059 -325 
z
" id="DejaVuSans-79" transform="scale(0.015625)"/>
     </defs>
     <use xlink:href="#DejaVuSans-41"/>
     <use x="66.658203" xlink:href="#DejaVuSans-63"/>
     <use x="121.638672" xlink:href="#DejaVuSans-63"/>
     <use x="176.619141" xlink:href="#DejaVuSans-75"/>
     <use x="239.998047" xlink:href="#DejaVuSans-72"/>
     <use x="281.111328" xlink:href="#DejaVuSans-61"/>
     <use x="342.390625" xlink:href="#DejaVuSans-63"/>
     <use x="397.371094" xlink:href="#DejaVuSans-79"/>
    </g>
   </g>
  </g>
  <g id="axes_2">
   <g id="patch_4">
    <path d="M 464.64085 234.334082 
L 827.989688 234.334082 
L 827.989688 22.244082 
L 464.64085 22.244082 
z
" style="fill:#ebebeb;"/>
   </g>
   <g id="matplotlib.axis_3">
    <g id="xtick_12">
     <g id="line2d_23">
      <path clip-path="url(#p89dfd053a9)" d="M 477.82017 234.334082 
L 477.82017 22.244082 
" style="fill:none;stroke:#ffffff;stroke-linecap:square;"/>
     </g>
    </g>
    <g id="xtick_13">
     <g id="line2d_24">
      <path clip-path="url(#p89dfd053a9)" d="M 544.550902 234.334082 
L 544.550902 22.244082 
" style="fill:none;stroke:#ffffff;stroke-linecap:square;"/>
     </g>
    </g>
    <g id="xtick_14">
     <g id="line2d_25">
      <path clip-path="url(#p89dfd053a9)" d="M 611.281634 234.334082 
L 611.281634 22.244082 
" style="fill:none;stroke:#ffffff;stroke-linecap:square;"/>
     </g>
    </g>
    <g id="xtick_15">
     <g id="line2d_26">
      <path clip-path="url(#p89dfd053a9)" d="M 678.012367 234.334082 
L 678.012367 22.244082 
" style="fill:none;stroke:#ffffff;stroke-linecap:square;"/>
     </g>
    </g>
    <g id="xtick_16">
     <g id="line2d_27">
      <path clip-path="url(#p89dfd053a9)" d="M 744.743099 234.334082 
L 744.743099 22.244082 
" style="fill:none;stroke:#ffffff;stroke-linecap:square;"/>
     </g>
    </g>
    <g id="xtick_17">
     <g id="line2d_28">
      <path clip-path="url(#p89dfd053a9)" d="M 811.473831 234.334082 
L 811.473831 22.244082 
" style="fill:none;stroke:#ffffff;stroke-linecap:square;"/>
     </g>
    </g>
    <g id="xtick_18">
     <g id="line2d_29">
      <path clip-path="url(#p89dfd053a9)" d="M 511.185536 234.334082 
L 511.185536 22.244082 
" style="fill:none;stroke:#ffffff;stroke-linecap:square;stroke-width:0.5;"/>
     </g>
    </g>
    <g id="xtick_19">
     <g id="line2d_30">
      <path clip-path="url(#p89dfd053a9)" d="M 577.916268 234.334082 
L 577.916268 22.244082 
" style="fill:none;stroke:#ffffff;stroke-linecap:square;stroke-width:0.5;"/>
     </g>
    </g>
    <g id="xtick_20">
     <g id="line2d_31">
      <path clip-path="url(#p89dfd053a9)" d="M 644.647001 234.334082 
L 644.647001 22.244082 
" style="fill:none;stroke:#ffffff;stroke-linecap:square;stroke-width:0.5;"/>
     </g>
    </g>
    <g id="xtick_21">
     <g id="line2d_32">
      <path clip-path="url(#p89dfd053a9)" d="M 711.377733 234.334082 
L 711.377733 22.244082 
" style="fill:none;stroke:#ffffff;stroke-linecap:square;stroke-width:0.5;"/>
     </g>
    </g>
    <g id="xtick_22">
     <g id="line2d_33">
      <path clip-path="url(#p89dfd053a9)" d="M 778.108465 234.334082 
L 778.108465 22.244082 
" style="fill:none;stroke:#ffffff;stroke-linecap:square;stroke-width:0.5;"/>
     </g>
    </g>
   </g>
   <g id="matplotlib.axis_4">
    <g id="ytick_8">
     <g id="line2d_34">
      <path clip-path="url(#p89dfd053a9)" d="M 464.64085 195.028215 
L 827.989688 195.028215 
" style="fill:none;stroke:#ffffff;stroke-linecap:square;"/>
     </g>
     <g id="line2d_35">
      <path d="M 464.64085 195.028215 
" style="fill:none;stroke:#333333;stroke-linecap:square;stroke-width:1.5;"/>
      <g>
       <use style="fill:#333333;stroke:#000000;" x="464.64085" xlink:href="#m144180c082" y="195.028215"/>
      </g>
     </g>
     <g id="text_6">
      <!-- 0.85 -->
      <g style="fill:#4d4d4d;" transform="translate(440.0971 197.456465)scale(0.088 -0.088)">
       <defs>
        <path d="M 691 4666 
L 3169 4666 
L 3169 4134 
L 1269 4134 
L 1269 2991 
Q 1406 3038 1543 3061 
Q 1681 3084 1819 3084 
Q 2600 3084 3056 2656 
Q 3513 2228 3513 1497 
Q 3513 744 3044 326 
Q 2575 -91 1722 -91 
Q 1428 -91 1123 -41 
Q 819 9 494 109 
L 494 744 
Q 775 591 1075 516 
Q 1375 441 1709 441 
Q 2250 441 2565 725 
Q 2881 1009 2881 1497 
Q 2881 1984 2565 2268 
Q 2250 2553 1709 2553 
Q 1456 2553 1204 2497 
Q 953 2441 691 2322 
L 691 4666 
z
" id="DejaVuSans-35" transform="scale(0.015625)"/>
       </defs>
       <use xlink:href="#DejaVuSans-30"/>
       <use x="63.623047" xlink:href="#DejaVuSans-2e"/>
       <use x="95.410156" xlink:href="#DejaVuSans-38"/>
       <use x="159.033203" xlink:href="#DejaVuSans-35"/>
      </g>
     </g>
    </g>
    <g id="ytick_9">
     <g id="line2d_36">
      <path clip-path="url(#p89dfd053a9)" d="M 464.64085 152.582257 
L 827.989688 152.582257 
" style="fill:none;stroke:#ffffff;stroke-linecap:square;"/>
     </g>
     <g id="line2d_37">
      <path d="M 464.64085 152.582257 
" style="fill:none;stroke:#333333;stroke-linecap:square;stroke-width:1.5;"/>
      <g>
       <use style="fill:#333333;stroke:#000000;" x="464.64085" xlink:href="#m144180c082" y="152.582257"/>
      </g>
     </g>
     <g id="text_7">
      <!-- 0.86 -->
      <g style="fill:#4d4d4d;" transform="translate(440.0971 155.010507)scale(0.088 -0.088)">
       <defs>
        <path d="M 2113 2584 
Q 1688 2584 1439 2293 
Q 1191 2003 1191 1497 
Q 1191 994 1439 701 
Q 1688 409 2113 409 
Q 2538 409 2786 701 
Q 3034 994 3034 1497 
Q 3034 2003 2786 2293 
Q 2538 2584 2113 2584 
z
M 3366 4563 
L 3366 3988 
Q 3128 4100 2886 4159 
Q 2644 4219 2406 4219 
Q 1781 4219 1451 3797 
Q 1122 3375 1075 2522 
Q 1259 2794 1537 2939 
Q 1816 3084 2150 3084 
Q 2853 3084 3261 2657 
Q 3669 2231 3669 1497 
Q 3669 778 3244 343 
Q 2819 -91 2113 -91 
Q 1303 -91 875 529 
Q 447 1150 447 2328 
Q 447 3434 972 4092 
Q 1497 4750 2381 4750 
Q 2619 4750 2861 4703 
Q 3103 4656 3366 4563 
z
" id="DejaVuSans-36" transform="scale(0.015625)"/>
       </defs>
       <use xlink:href="#DejaVuSans-30"/>
       <use x="63.623047" xlink:href="#DejaVuSans-2e"/>
       <use x="95.410156" xlink:href="#DejaVuSans-38"/>
       <use x="159.033203" xlink:href="#DejaVuSans-36"/>
      </g>
     </g>
    </g>
    <g id="ytick_10">
     <g id="line2d_38">
      <path clip-path="url(#p89dfd053a9)" d="M 464.64085 110.136298 
L 827.989688 110.136298 
" style="fill:none;stroke:#ffffff;stroke-linecap:square;"/>
     </g>
     <g id="line2d_39">
      <path d="M 464.64085 110.136298 
" style="fill:none;stroke:#333333;stroke-linecap:square;stroke-width:1.5;"/>
      <g>
       <use style="fill:#333333;stroke:#000000;" x="464.64085" xlink:href="#m144180c082" y="110.136298"/>
      </g>
     </g>
     <g id="text_8">
      <!-- 0.87 -->
      <g style="fill:#4d4d4d;" transform="translate(440.0971 112.564548)scale(0.088 -0.088)">
       <defs>
        <path d="M 525 4666 
L 3525 4666 
L 3525 4397 
L 1831 0 
L 1172 0 
L 2766 4134 
L 525 4134 
L 525 4666 
z
" id="DejaVuSans-37" transform="scale(0.015625)"/>
       </defs>
       <use xlink:href="#DejaVuSans-30"/>
       <use x="63.623047" xlink:href="#DejaVuSans-2e"/>
       <use x="95.410156" xlink:href="#DejaVuSans-38"/>
       <use x="159.033203" xlink:href="#DejaVuSans-37"/>
      </g>
     </g>
    </g>
    <g id="ytick_11">
     <g id="line2d_40">
      <path clip-path="url(#p89dfd053a9)" d="M 464.64085 67.69034 
L 827.989688 67.69034 
" style="fill:none;stroke:#ffffff;stroke-linecap:square;"/>
     </g>
     <g id="line2d_41">
      <path d="M 464.64085 67.69034 
" style="fill:none;stroke:#333333;stroke-linecap:square;stroke-width:1.5;"/>
      <g>
       <use style="fill:#333333;stroke:#000000;" x="464.64085" xlink:href="#m144180c082" y="67.69034"/>
      </g>
     </g>
     <g id="text_9">
      <!-- 0.88 -->
      <g style="fill:#4d4d4d;" transform="translate(440.0971 70.11859)scale(0.088 -0.088)">
       <use xlink:href="#DejaVuSans-30"/>
       <use x="63.623047" xlink:href="#DejaVuSans-2e"/>
       <use x="95.410156" xlink:href="#DejaVuSans-38"/>
       <use x="159.033203" xlink:href="#DejaVuSans-38"/>
      </g>
     </g>
    </g>
    <g id="ytick_12">
     <g id="line2d_42">
      <path clip-path="url(#p89dfd053a9)" d="M 464.64085 25.244381 
L 827.989688 25.244381 
" style="fill:none;stroke:#ffffff;stroke-linecap:square;"/>
     </g>
     <g id="line2d_43">
      <path d="M 464.64085 25.244381 
" style="fill:none;stroke:#333333;stroke-linecap:square;stroke-width:1.5;"/>
      <g>
       <use style="fill:#333333;stroke:#000000;" x="464.64085" xlink:href="#m144180c082" y="25.244381"/>
      </g>
     </g>
     <g id="text_10">
      <!-- 0.89 -->
      <g style="fill:#4d4d4d;" transform="translate(440.0971 27.672631)scale(0.088 -0.088)">
       <defs>
        <path d="M 703 97 
L 703 672 
Q 941 559 1184 500 
Q 1428 441 1663 441 
Q 2288 441 2617 861 
Q 2947 1281 2994 2138 
Q 2813 1869 2534 1725 
Q 2256 1581 1919 1581 
Q 1219 1581 811 2004 
Q 403 2428 403 3163 
Q 403 3881 828 4315 
Q 1253 4750 1959 4750 
Q 2769 4750 3195 4129 
Q 3622 3509 3622 2328 
Q 3622 1225 3098 567 
Q 2575 -91 1691 -91 
Q 1453 -91 1209 -44 
Q 966 3 703 97 
z
M 1959 2075 
Q 2384 2075 2632 2365 
Q 2881 2656 2881 3163 
Q 2881 3666 2632 3958 
Q 2384 4250 1959 4250 
Q 1534 4250 1286 3958 
Q 1038 3666 1038 3163 
Q 1038 2656 1286 2365 
Q 1534 2075 1959 2075 
z
" id="DejaVuSans-39" transform="scale(0.015625)"/>
       </defs>
       <use xlink:href="#DejaVuSans-30"/>
       <use x="63.623047" xlink:href="#DejaVuSans-2e"/>
       <use x="95.410156" xlink:href="#DejaVuSans-38"/>
       <use x="159.033203" xlink:href="#DejaVuSans-39"/>
      </g>
     </g>
    </g>
    <g id="ytick_13">
     <g id="line2d_44">
      <path clip-path="url(#p89dfd053a9)" d="M 464.64085 216.251195 
L 827.989688 216.251195 
" style="fill:none;stroke:#ffffff;stroke-linecap:square;stroke-width:0.5;"/>
     </g>
    </g>
    <g id="ytick_14">
     <g id="line2d_45">
      <path clip-path="url(#p89dfd053a9)" d="M 464.64085 173.805236 
L 827.989688 173.805236 
" style="fill:none;stroke:#ffffff;stroke-linecap:square;stroke-width:0.5;"/>
     </g>
    </g>
    <g id="ytick_15">
     <g id="line2d_46">
      <path clip-path="url(#p89dfd053a9)" d="M 464.64085 131.359278 
L 827.989688 131.359278 
" style="fill:none;stroke:#ffffff;stroke-linecap:square;stroke-width:0.5;"/>
     </g>
    </g>
    <g id="ytick_16">
     <g id="line2d_47">
      <path clip-path="url(#p89dfd053a9)" d="M 464.64085 88.913319 
L 827.989688 88.913319 
" style="fill:none;stroke:#ffffff;stroke-linecap:square;stroke-width:0.5;"/>
     </g>
    </g>
    <g id="ytick_17">
     <g id="line2d_48">
      <path clip-path="url(#p89dfd053a9)" d="M 464.64085 46.46736 
L 827.989688 46.46736 
" style="fill:none;stroke:#ffffff;stroke-linecap:square;stroke-width:0.5;"/>
     </g>
    </g>
   </g>
   <g id="line2d_49">
    <path clip-path="url(#p89dfd053a9)" d="M 481.156707 177.936113 
L 484.493243 112.91834 
L 494.502853 61.179749 
L 511.185536 44.182431 
L 527.868219 45.233941 
L 544.550902 55.171786 
L 644.647001 61.516625 
L 811.473831 72.577194 
" style="fill:none;stroke:#000000;stroke-width:0.886227;"/>
   </g>
   <g id="PathCollection_2">
    <path clip-path="url(#p89dfd053a9)" d="M 481.156707 179.708567 
C 481.626767 179.708567 482.077638 179.52181 482.410021 179.189427 
C 482.742403 178.857044 482.92916 178.406173 482.92916 177.936113 
C 482.92916 177.466053 482.742403 177.015182 482.410021 176.682799 
C 482.077638 176.350416 481.626767 176.163659 481.156707 176.163659 
C 480.686646 176.163659 480.235775 176.350416 479.903392 176.682799 
C 479.57101 177.015182 479.384253 177.466053 479.384253 177.936113 
C 479.384253 178.406173 479.57101 178.857044 479.903392 179.189427 
C 480.235775 179.52181 480.686646 179.708567 481.156707 179.708567 
z
" style="stroke:#000000;stroke-width:0.886227;"/>
    <path clip-path="url(#p89dfd053a9)" d="M 484.493243 114.690794 
C 484.963303 114.690794 485.414174 114.504037 485.746557 114.171654 
C 486.07894 113.839272 486.265697 113.388401 486.265697 112.91834 
C 486.265697 112.44828 486.07894 111.997409 485.746557 111.665026 
C 485.414174 111.332643 484.963303 111.145887 484.493243 111.145887 
C 484.023183 111.145887 483.572312 111.332643 483.239929 111.665026 
C 482.907546 111.997409 482.720789 112.44828 482.720789 112.91834 
C 482.720789 113.388401 482.907546 113.839272 483.239929 114.171654 
C 483.572312 114.504037 484.023183 114.690794 484.493243 114.690794 
z
" style="stroke:#000000;stroke-width:0.886227;"/>
    <path clip-path="url(#p89dfd053a9)" d="M 494.502853 62.952203 
C 494.972913 62.952203 495.423784 62.765446 495.756167 62.433063 
C 496.08855 62.100681 496.275307 61.64981 496.275307 61.179749 
C 496.275307 60.709689 496.08855 60.258818 495.756167 59.926435 
C 495.423784 59.594052 494.972913 59.407295 494.502853 59.407295 
C 494.032793 59.407295 493.581922 59.594052 493.249539 59.926435 
C 492.917156 60.258818 492.730399 60.709689 492.730399 61.179749 
C 492.730399 61.64981 492.917156 62.100681 493.249539 62.433063 
C 493.581922 62.765446 494.032793 62.952203 494.502853 62.952203 
z
" style="stroke:#000000;stroke-width:0.886227;"/>
    <path clip-path="url(#p89dfd053a9)" d="M 511.185536 45.954885 
C 511.655596 45.954885 512.106467 45.768128 512.43885 45.435745 
C 512.771233 45.103363 512.95799 44.652491 512.95799 44.182431 
C 512.95799 43.712371 512.771233 43.2615 512.43885 42.929117 
C 512.106467 42.596734 511.655596 42.409977 511.185536 42.409977 
C 510.715476 42.409977 510.264605 42.596734 509.932222 42.929117 
C 509.599839 43.2615 509.413082 43.712371 509.413082 44.182431 
C 509.413082 44.652491 509.599839 45.103363 509.932222 45.435745 
C 510.264605 45.768128 510.715476 45.954885 511.185536 45.954885 
z
" style="stroke:#000000;stroke-width:0.886227;"/>
    <path clip-path="url(#p89dfd053a9)" d="M 527.868219 47.006395 
C 528.338279 47.006395 528.78915 46.819638 529.121533 46.487255 
C 529.453916 46.154873 529.640673 45.704001 529.640673 45.233941 
C 529.640673 44.763881 529.453916 44.31301 529.121533 43.980627 
C 528.78915 43.648244 528.338279 43.461487 527.868219 43.461487 
C 527.398159 43.461487 526.947288 43.648244 526.614905 43.980627 
C 526.282522 44.31301 526.095765 44.763881 526.095765 45.233941 
C 526.095765 45.704001 526.282522 46.154873 526.614905 46.487255 
C 526.947288 46.819638 527.398159 47.006395 527.868219 47.006395 
z
" style="stroke:#000000;stroke-width:0.886227;"/>
    <path clip-path="url(#p89dfd053a9)" d="M 544.550902 56.94424 
C 545.020962 56.94424 545.471834 56.757483 545.804216 56.4251 
C 546.136599 56.092717 546.323356 55.641846 546.323356 55.171786 
C 546.323356 54.701726 546.136599 54.250855 545.804216 53.918472 
C 545.471834 53.586089 545.020962 53.399332 544.550902 53.399332 
C 544.080842 53.399332 543.629971 53.586089 543.297588 53.918472 
C 542.965205 54.250855 542.778448 54.701726 542.778448 55.171786 
C 542.778448 55.641846 542.965205 56.092717 543.297588 56.4251 
C 543.629971 56.757483 544.080842 56.94424 544.550902 56.94424 
z
" style="stroke:#000000;stroke-width:0.886227;"/>
    <path clip-path="url(#p89dfd053a9)" d="M 644.647001 63.289079 
C 645.117061 63.289079 645.567932 63.102322 645.900315 62.769939 
C 646.232698 62.437556 646.419454 61.986685 646.419454 61.516625 
C 646.419454 61.046565 646.232698 60.595693 645.900315 60.263311 
C 645.567932 59.930928 645.117061 59.744171 644.647001 59.744171 
C 644.17694 59.744171 643.726069 59.930928 643.393686 60.263311 
C 643.061304 60.595693 642.874547 61.046565 642.874547 61.516625 
C 642.874547 61.986685 643.061304 62.437556 643.393686 62.769939 
C 643.726069 63.102322 644.17694 63.289079 644.647001 63.289079 
z
" style="stroke:#000000;stroke-width:0.886227;"/>
    <path clip-path="url(#p89dfd053a9)" d="M 811.473831 74.349648 
C 811.943892 74.349648 812.394763 74.162891 812.727145 73.830508 
C 813.059528 73.498125 813.246285 73.047254 813.246285 72.577194 
C 813.246285 72.107134 813.059528 71.656263 812.727145 71.32388 
C 812.394763 70.991497 811.943892 70.80474 811.473831 70.80474 
C 811.003771 70.80474 810.5529 70.991497 810.220517 71.32388 
C 809.888134 71.656263 809.701377 72.107134 809.701377 72.577194 
C 809.701377 73.047254 809.888134 73.498125 810.220517 73.830508 
C 810.5529 74.162891 811.003771 74.349648 811.473831 74.349648 
z
" style="stroke:#000000;stroke-width:0.886227;"/>
   </g>
   <g id="patch_5">
    <path d="M 464.64085 22.244082 
L 827.989688 22.244082 
L 827.989688 7.2 
L 464.64085 7.2 
z
" style="fill:#d9d9d9;"/>
   </g>
   <g id="PolyCollection_2">
    <path clip-path="url(#p89dfd053a9)" d="M 481.156707 131.178598 
L 481.156707 224.693628 
L 484.493243 136.969351 
L 494.502853 68.493973 
L 511.185536 54.300653 
L 527.868219 58.583345 
L 544.550902 64.072666 
L 644.647001 70.548177 
L 811.473831 84.765686 
L 811.473831 60.388702 
L 811.473831 60.388702 
L 644.647001 52.485073 
L 544.550902 46.270906 
L 527.868219 31.884537 
L 511.185536 34.064209 
L 494.502853 53.865525 
L 484.493243 88.86733 
L 481.156707 131.178598 
z
" style="fill:#333333;fill-opacity:0.501961;"/>
   </g>
   <g id="text_11">
    <!-- AUC -->
    <g style="fill:#1a1a1a;" transform="translate(637.012706 17.150291)scale(0.088 -0.088)">
     <defs>
      <path d="M 556 4666 
L 1191 4666 
L 1191 1831 
Q 1191 1081 1462 751 
Q 1734 422 2344 422 
Q 2950 422 3222 751 
Q 3494 1081 3494 1831 
L 3494 4666 
L 4128 4666 
L 4128 1753 
Q 4128 841 3676 375 
Q 3225 -91 2344 -91 
Q 1459 -91 1007 375 
Q 556 841 556 1753 
L 556 4666 
z
" id="DejaVuSans-55" transform="scale(0.015625)"/>
      <path d="M 4122 4306 
L 4122 3641 
Q 3803 3938 3442 4084 
Q 3081 4231 2675 4231 
Q 1875 4231 1450 3742 
Q 1025 3253 1025 2328 
Q 1025 1406 1450 917 
Q 1875 428 2675 428 
Q 3081 428 3442 575 
Q 3803 722 4122 1019 
L 4122 359 
Q 3791 134 3420 21 
Q 3050 -91 2638 -91 
Q 1578 -91 968 557 
Q 359 1206 359 2328 
Q 359 3453 968 4101 
Q 1578 4750 2638 4750 
Q 3056 4750 3426 4639 
Q 3797 4528 4122 4306 
z
" id="DejaVuSans-43" transform="scale(0.015625)"/>
     </defs>
     <use xlink:href="#DejaVuSans-41"/>
     <use x="68.408203" xlink:href="#DejaVuSans-55"/>
     <use x="141.601562" xlink:href="#DejaVuSans-43"/>
    </g>
   </g>
  </g>
  <g id="axes_3">
   <g id="patch_6">
    <path d="M 46.789688 465.764082 
L 410.138525 465.764082 
L 410.138525 253.674082 
L 46.789688 253.674082 
z
" style="fill:#ebebeb;"/>
   </g>
   <g id="matplotlib.axis_5">
    <g id="xtick_23">
     <g id="line2d_50">
      <path clip-path="url(#p78bd5bce42)" d="M 59.969007 465.764082 
L 59.969007 253.674082 
" style="fill:none;stroke:#ffffff;stroke-linecap:square;"/>
     </g>
     <g id="line2d_51">
      <path d="M 59.969007 465.764082 
" style="fill:none;stroke:#333333;stroke-linecap:square;stroke-width:1.5;"/>
      <defs>
       <path d="M 0 0 
L 0 2.75 
" id="m641e55a890" style="stroke:#000000;"/>
      </defs>
      <g>
       <use style="fill:#333333;stroke:#000000;" x="59.969007" xlink:href="#m641e55a890" y="465.764082"/>
      </g>
     </g>
     <g id="text_12">
      <!-- 0 -->
      <g style="fill:#4d4d4d;" transform="translate(57.169507 477.400707)scale(0.088 -0.088)">
       <use xlink:href="#DejaVuSans-30"/>
      </g>
     </g>
    </g>
    <g id="xtick_24">
     <g id="line2d_52">
      <path clip-path="url(#p78bd5bce42)" d="M 126.699739 465.764082 
L 126.699739 253.674082 
" style="fill:none;stroke:#ffffff;stroke-linecap:square;"/>
     </g>
     <g id="line2d_53">
      <path d="M 126.699739 465.764082 
" style="fill:none;stroke:#333333;stroke-linecap:square;stroke-width:1.5;"/>
      <g>
       <use style="fill:#333333;stroke:#000000;" x="126.699739" xlink:href="#m641e55a890" y="465.764082"/>
      </g>
     </g>
     <g id="text_13">
      <!-- 1000 -->
      <g style="fill:#4d4d4d;" transform="translate(115.501739 477.400707)scale(0.088 -0.088)">
       <use xlink:href="#DejaVuSans-31"/>
       <use x="63.623047" xlink:href="#DejaVuSans-30"/>
       <use x="127.246094" xlink:href="#DejaVuSans-30"/>
       <use x="190.869141" xlink:href="#DejaVuSans-30"/>
      </g>
     </g>
    </g>
    <g id="xtick_25">
     <g id="line2d_54">
      <path clip-path="url(#p78bd5bce42)" d="M 193.430472 465.764082 
L 193.430472 253.674082 
" style="fill:none;stroke:#ffffff;stroke-linecap:square;"/>
     </g>
     <g id="line2d_55">
      <path d="M 193.430472 465.764082 
" style="fill:none;stroke:#333333;stroke-linecap:square;stroke-width:1.5;"/>
      <g>
       <use style="fill:#333333;stroke:#000000;" x="193.430472" xlink:href="#m641e55a890" y="465.764082"/>
      </g>
     </g>
     <g id="text_14">
      <!-- 2000 -->
      <g style="fill:#4d4d4d;" transform="translate(182.232472 477.400707)scale(0.088 -0.088)">
       <use xlink:href="#DejaVuSans-32"/>
       <use x="63.623047" xlink:href="#DejaVuSans-30"/>
       <use x="127.246094" xlink:href="#DejaVuSans-30"/>
       <use x="190.869141" xlink:href="#DejaVuSans-30"/>
      </g>
     </g>
    </g>
    <g id="xtick_26">
     <g id="line2d_56">
      <path clip-path="url(#p78bd5bce42)" d="M 260.161204 465.764082 
L 260.161204 253.674082 
" style="fill:none;stroke:#ffffff;stroke-linecap:square;"/>
     </g>
     <g id="line2d_57">
      <path d="M 260.161204 465.764082 
" style="fill:none;stroke:#333333;stroke-linecap:square;stroke-width:1.5;"/>
      <g>
       <use style="fill:#333333;stroke:#000000;" x="260.161204" xlink:href="#m641e55a890" y="465.764082"/>
      </g>
     </g>
     <g id="text_15">
      <!-- 3000 -->
      <g style="fill:#4d4d4d;" transform="translate(248.963204 477.400707)scale(0.088 -0.088)">
       <use xlink:href="#DejaVuSans-33"/>
       <use x="63.623047" xlink:href="#DejaVuSans-30"/>
       <use x="127.246094" xlink:href="#DejaVuSans-30"/>
       <use x="190.869141" xlink:href="#DejaVuSans-30"/>
      </g>
     </g>
    </g>
    <g id="xtick_27">
     <g id="line2d_58">
      <path clip-path="url(#p78bd5bce42)" d="M 326.891936 465.764082 
L 326.891936 253.674082 
" style="fill:none;stroke:#ffffff;stroke-linecap:square;"/>
     </g>
     <g id="line2d_59">
      <path d="M 326.891936 465.764082 
" style="fill:none;stroke:#333333;stroke-linecap:square;stroke-width:1.5;"/>
      <g>
       <use style="fill:#333333;stroke:#000000;" x="326.891936" xlink:href="#m641e55a890" y="465.764082"/>
      </g>
     </g>
     <g id="text_16">
      <!-- 4000 -->
      <g style="fill:#4d4d4d;" transform="translate(315.693936 477.400707)scale(0.088 -0.088)">
       <defs>
        <path d="M 2419 4116 
L 825 1625 
L 2419 1625 
L 2419 4116 
z
M 2253 4666 
L 3047 4666 
L 3047 1625 
L 3713 1625 
L 3713 1100 
L 3047 1100 
L 3047 0 
L 2419 0 
L 2419 1100 
L 313 1100 
L 313 1709 
L 2253 4666 
z
" id="DejaVuSans-34" transform="scale(0.015625)"/>
       </defs>
       <use xlink:href="#DejaVuSans-34"/>
       <use x="63.623047" xlink:href="#DejaVuSans-30"/>
       <use x="127.246094" xlink:href="#DejaVuSans-30"/>
       <use x="190.869141" xlink:href="#DejaVuSans-30"/>
      </g>
     </g>
    </g>
    <g id="xtick_28">
     <g id="line2d_60">
      <path clip-path="url(#p78bd5bce42)" d="M 393.622668 465.764082 
L 393.622668 253.674082 
" style="fill:none;stroke:#ffffff;stroke-linecap:square;"/>
     </g>
     <g id="line2d_61">
      <path d="M 393.622668 465.764082 
" style="fill:none;stroke:#333333;stroke-linecap:square;stroke-width:1.5;"/>
      <g>
       <use style="fill:#333333;stroke:#000000;" x="393.622668" xlink:href="#m641e55a890" y="465.764082"/>
      </g>
     </g>
     <g id="text_17">
      <!-- 5000 -->
      <g style="fill:#4d4d4d;" transform="translate(382.424668 477.400707)scale(0.088 -0.088)">
       <use xlink:href="#DejaVuSans-35"/>
       <use x="63.623047" xlink:href="#DejaVuSans-30"/>
       <use x="127.246094" xlink:href="#DejaVuSans-30"/>
       <use x="190.869141" xlink:href="#DejaVuSans-30"/>
      </g>
     </g>
    </g>
    <g id="xtick_29">
     <g id="line2d_62">
      <path clip-path="url(#p78bd5bce42)" d="M 93.334373 465.764082 
L 93.334373 253.674082 
" style="fill:none;stroke:#ffffff;stroke-linecap:square;stroke-width:0.5;"/>
     </g>
    </g>
    <g id="xtick_30">
     <g id="line2d_63">
      <path clip-path="url(#p78bd5bce42)" d="M 160.065106 465.764082 
L 160.065106 253.674082 
" style="fill:none;stroke:#ffffff;stroke-linecap:square;stroke-width:0.5;"/>
     </g>
    </g>
    <g id="xtick_31">
     <g id="line2d_64">
      <path clip-path="url(#p78bd5bce42)" d="M 226.795838 465.764082 
L 226.795838 253.674082 
" style="fill:none;stroke:#ffffff;stroke-linecap:square;stroke-width:0.5;"/>
     </g>
    </g>
    <g id="xtick_32">
     <g id="line2d_65">
      <path clip-path="url(#p78bd5bce42)" d="M 293.52657 465.764082 
L 293.52657 253.674082 
" style="fill:none;stroke:#ffffff;stroke-linecap:square;stroke-width:0.5;"/>
     </g>
    </g>
    <g id="xtick_33">
     <g id="line2d_66">
      <path clip-path="url(#p78bd5bce42)" d="M 360.257302 465.764082 
L 360.257302 253.674082 
" style="fill:none;stroke:#ffffff;stroke-linecap:square;stroke-width:0.5;"/>
     </g>
    </g>
   </g>
   <g id="matplotlib.axis_6">
    <g id="ytick_18">
     <g id="line2d_67">
      <path clip-path="url(#p78bd5bce42)" d="M 46.789688 428.354916 
L 410.138525 428.354916 
" style="fill:none;stroke:#ffffff;stroke-linecap:square;"/>
     </g>
     <g id="line2d_68">
      <path d="M 46.789688 428.354916 
" style="fill:none;stroke:#333333;stroke-linecap:square;stroke-width:1.5;"/>
      <g>
       <use style="fill:#333333;stroke:#000000;" x="46.789688" xlink:href="#m144180c082" y="428.354916"/>
      </g>
     </g>
     <g id="text_18">
      <!-- 0.875 -->
      <g style="fill:#4d4d4d;" transform="translate(16.646938 430.783166)scale(0.088 -0.088)">
       <use xlink:href="#DejaVuSans-30"/>
       <use x="63.623047" xlink:href="#DejaVuSans-2e"/>
       <use x="95.410156" xlink:href="#DejaVuSans-38"/>
       <use x="159.033203" xlink:href="#DejaVuSans-37"/>
       <use x="222.65625" xlink:href="#DejaVuSans-35"/>
      </g>
     </g>
    </g>
    <g id="ytick_19">
     <g id="line2d_69">
      <path clip-path="url(#p78bd5bce42)" d="M 46.789688 386.691317 
L 410.138525 386.691317 
" style="fill:none;stroke:#ffffff;stroke-linecap:square;"/>
     </g>
     <g id="line2d_70">
      <path d="M 46.789688 386.691317 
" style="fill:none;stroke:#333333;stroke-linecap:square;stroke-width:1.5;"/>
      <g>
       <use style="fill:#333333;stroke:#000000;" x="46.789688" xlink:href="#m144180c082" y="386.691317"/>
      </g>
     </g>
     <g id="text_19">
      <!-- 0.880 -->
      <g style="fill:#4d4d4d;" transform="translate(16.646938 389.119567)scale(0.088 -0.088)">
       <use xlink:href="#DejaVuSans-30"/>
       <use x="63.623047" xlink:href="#DejaVuSans-2e"/>
       <use x="95.410156" xlink:href="#DejaVuSans-38"/>
       <use x="159.033203" xlink:href="#DejaVuSans-38"/>
       <use x="222.65625" xlink:href="#DejaVuSans-30"/>
      </g>
     </g>
    </g>
    <g id="ytick_20">
     <g id="line2d_71">
      <path clip-path="url(#p78bd5bce42)" d="M 46.789688 345.027717 
L 410.138525 345.027717 
" style="fill:none;stroke:#ffffff;stroke-linecap:square;"/>
     </g>
     <g id="line2d_72">
      <path d="M 46.789688 345.027717 
" style="fill:none;stroke:#333333;stroke-linecap:square;stroke-width:1.5;"/>
      <g>
       <use style="fill:#333333;stroke:#000000;" x="46.789688" xlink:href="#m144180c082" y="345.027717"/>
      </g>
     </g>
     <g id="text_20">
      <!-- 0.885 -->
      <g style="fill:#4d4d4d;" transform="translate(16.646938 347.455967)scale(0.088 -0.088)">
       <use xlink:href="#DejaVuSans-30"/>
       <use x="63.623047" xlink:href="#DejaVuSans-2e"/>
       <use x="95.410156" xlink:href="#DejaVuSans-38"/>
       <use x="159.033203" xlink:href="#DejaVuSans-38"/>
       <use x="222.65625" xlink:href="#DejaVuSans-35"/>
      </g>
     </g>
    </g>
    <g id="ytick_21">
     <g id="line2d_73">
      <path clip-path="url(#p78bd5bce42)" d="M 46.789688 303.364118 
L 410.138525 303.364118 
" style="fill:none;stroke:#ffffff;stroke-linecap:square;"/>
     </g>
     <g id="line2d_74">
      <path d="M 46.789688 303.364118 
" style="fill:none;stroke:#333333;stroke-linecap:square;stroke-width:1.5;"/>
      <g>
       <use style="fill:#333333;stroke:#000000;" x="46.789688" xlink:href="#m144180c082" y="303.364118"/>
      </g>
     </g>
     <g id="text_21">
      <!-- 0.890 -->
      <g style="fill:#4d4d4d;" transform="translate(16.646938 305.792368)scale(0.088 -0.088)">
       <use xlink:href="#DejaVuSans-30"/>
       <use x="63.623047" xlink:href="#DejaVuSans-2e"/>
       <use x="95.410156" xlink:href="#DejaVuSans-38"/>
       <use x="159.033203" xlink:href="#DejaVuSans-39"/>
       <use x="222.65625" xlink:href="#DejaVuSans-30"/>
      </g>
     </g>
    </g>
    <g id="ytick_22">
     <g id="line2d_75">
      <path clip-path="url(#p78bd5bce42)" d="M 46.789688 261.700518 
L 410.138525 261.700518 
" style="fill:none;stroke:#ffffff;stroke-linecap:square;"/>
     </g>
     <g id="line2d_76">
      <path d="M 46.789688 261.700518 
" style="fill:none;stroke:#333333;stroke-linecap:square;stroke-width:1.5;"/>
      <g>
       <use style="fill:#333333;stroke:#000000;" x="46.789688" xlink:href="#m144180c082" y="261.700518"/>
      </g>
     </g>
     <g id="text_22">
      <!-- 0.895 -->
      <g style="fill:#4d4d4d;" transform="translate(16.646938 264.128768)scale(0.088 -0.088)">
       <use xlink:href="#DejaVuSans-30"/>
       <use x="63.623047" xlink:href="#DejaVuSans-2e"/>
       <use x="95.410156" xlink:href="#DejaVuSans-38"/>
       <use x="159.033203" xlink:href="#DejaVuSans-39"/>
       <use x="222.65625" xlink:href="#DejaVuSans-35"/>
      </g>
     </g>
    </g>
    <g id="ytick_23">
     <g id="line2d_77">
      <path clip-path="url(#p78bd5bce42)" d="M 46.789688 449.186716 
L 410.138525 449.186716 
" style="fill:none;stroke:#ffffff;stroke-linecap:square;stroke-width:0.5;"/>
     </g>
    </g>
    <g id="ytick_24">
     <g id="line2d_78">
      <path clip-path="url(#p78bd5bce42)" d="M 46.789688 407.523116 
L 410.138525 407.523116 
" style="fill:none;stroke:#ffffff;stroke-linecap:square;stroke-width:0.5;"/>
     </g>
    </g>
    <g id="ytick_25">
     <g id="line2d_79">
      <path clip-path="url(#p78bd5bce42)" d="M 46.789688 365.859517 
L 410.138525 365.859517 
" style="fill:none;stroke:#ffffff;stroke-linecap:square;stroke-width:0.5;"/>
     </g>
    </g>
    <g id="ytick_26">
     <g id="line2d_80">
      <path clip-path="url(#p78bd5bce42)" d="M 46.789688 324.195917 
L 410.138525 324.195917 
" style="fill:none;stroke:#ffffff;stroke-linecap:square;stroke-width:0.5;"/>
     </g>
    </g>
    <g id="ytick_27">
     <g id="line2d_81">
      <path clip-path="url(#p78bd5bce42)" d="M 46.789688 282.532318 
L 410.138525 282.532318 
" style="fill:none;stroke:#ffffff;stroke-linecap:square;stroke-width:0.5;"/>
     </g>
    </g>
   </g>
   <g id="line2d_82">
    <path clip-path="url(#p78bd5bce42)" d="M 63.305544 422.924043 
L 66.64208 366.210561 
L 76.65169 311.647639 
L 93.334373 281.442339 
L 110.017056 288.225408 
L 126.699739 290.371411 
L 226.795838 297.486062 
L 393.622668 310.674005 
" style="fill:none;stroke:#000000;stroke-width:0.886227;"/>
   </g>
   <g id="PathCollection_3">
    <path clip-path="url(#p78bd5bce42)" d="M 63.305544 424.696496 
C 63.775604 424.696496 64.226475 424.509739 64.558858 424.177357 
C 64.891241 423.844974 65.077998 423.394103 65.077998 422.924043 
C 65.077998 422.453982 64.891241 422.003111 64.558858 421.670728 
C 64.226475 421.338346 63.775604 421.151589 63.305544 421.151589 
C 62.835483 421.151589 62.384612 421.338346 62.05223 421.670728 
C 61.719847 422.003111 61.53309 422.453982 61.53309 422.924043 
C 61.53309 423.394103 61.719847 423.844974 62.05223 424.177357 
C 62.384612 424.509739 62.835483 424.696496 63.305544 424.696496 
z
" style="stroke:#000000;stroke-width:0.886227;"/>
    <path clip-path="url(#p78bd5bce42)" d="M 66.64208 367.983015 
C 67.112141 367.983015 67.563012 367.796258 67.895394 367.463875 
C 68.227777 367.131492 68.414534 366.680621 68.414534 366.210561 
C 68.414534 365.740501 68.227777 365.28963 67.895394 364.957247 
C 67.563012 364.624864 67.112141 364.438107 66.64208 364.438107 
C 66.17202 364.438107 65.721149 364.624864 65.388766 364.957247 
C 65.056383 365.28963 64.869626 365.740501 64.869626 366.210561 
C 64.869626 366.680621 65.056383 367.131492 65.388766 367.463875 
C 65.721149 367.796258 66.17202 367.983015 66.64208 367.983015 
z
" style="stroke:#000000;stroke-width:0.886227;"/>
    <path clip-path="url(#p78bd5bce42)" d="M 76.65169 313.420093 
C 77.12175 313.420093 77.572622 313.233336 77.905004 312.900954 
C 78.237387 312.568571 78.424144 312.1177 78.424144 311.647639 
C 78.424144 311.177579 78.237387 310.726708 77.905004 310.394325 
C 77.572622 310.061943 77.12175 309.875186 76.65169 309.875186 
C 76.18163 309.875186 75.730759 310.061943 75.398376 310.394325 
C 75.065993 310.726708 74.879236 311.177579 74.879236 311.647639 
C 74.879236 312.1177 75.065993 312.568571 75.398376 312.900954 
C 75.730759 313.233336 76.18163 313.420093 76.65169 313.420093 
z
" style="stroke:#000000;stroke-width:0.886227;"/>
    <path clip-path="url(#p78bd5bce42)" d="M 93.334373 283.214793 
C 93.804434 283.214793 94.255305 283.028036 94.587687 282.695653 
C 94.92007 282.36327 95.106827 281.912399 95.106827 281.442339 
C 95.106827 280.972279 94.92007 280.521408 94.587687 280.189025 
C 94.255305 279.856642 93.804434 279.669885 93.334373 279.669885 
C 92.864313 279.669885 92.413442 279.856642 92.081059 280.189025 
C 91.748676 280.521408 91.561919 280.972279 91.561919 281.442339 
C 91.561919 281.912399 91.748676 282.36327 92.081059 282.695653 
C 92.413442 283.028036 92.864313 283.214793 93.334373 283.214793 
z
" style="stroke:#000000;stroke-width:0.886227;"/>
    <path clip-path="url(#p78bd5bce42)" d="M 110.017056 289.997862 
C 110.487117 289.997862 110.937988 289.811105 111.27037 289.478723 
C 111.602753 289.14634 111.78951 288.695469 111.78951 288.225408 
C 111.78951 287.755348 111.602753 287.304477 111.27037 286.972094 
C 110.937988 286.639712 110.487117 286.452955 110.017056 286.452955 
C 109.546996 286.452955 109.096125 286.639712 108.763742 286.972094 
C 108.431359 287.304477 108.244602 287.755348 108.244602 288.225408 
C 108.244602 288.695469 108.431359 289.14634 108.763742 289.478723 
C 109.096125 289.811105 109.546996 289.997862 110.017056 289.997862 
z
" style="stroke:#000000;stroke-width:0.886227;"/>
    <path clip-path="url(#p78bd5bce42)" d="M 126.699739 292.143865 
C 127.1698 292.143865 127.620671 291.957108 127.953054 291.624725 
C 128.285436 291.292342 128.472193 290.841471 128.472193 290.371411 
C 128.472193 289.90135 128.285436 289.450479 127.953054 289.118097 
C 127.620671 288.785714 127.1698 288.598957 126.699739 288.598957 
C 126.229679 288.598957 125.778808 288.785714 125.446425 289.118097 
C 125.114042 289.450479 124.927286 289.90135 124.927286 290.371411 
C 124.927286 290.841471 125.114042 291.292342 125.446425 291.624725 
C 125.778808 291.957108 126.229679 292.143865 126.699739 292.143865 
z
" style="stroke:#000000;stroke-width:0.886227;"/>
    <path clip-path="url(#p78bd5bce42)" d="M 226.795838 299.258516 
C 227.265898 299.258516 227.716769 299.071759 228.049152 298.739376 
C 228.381535 298.406993 228.568292 297.956122 228.568292 297.486062 
C 228.568292 297.016001 228.381535 296.56513 228.049152 296.232748 
C 227.716769 295.900365 227.265898 295.713608 226.795838 295.713608 
C 226.325778 295.713608 225.874906 295.900365 225.542524 296.232748 
C 225.210141 296.56513 225.023384 297.016001 225.023384 297.486062 
C 225.023384 297.956122 225.210141 298.406993 225.542524 298.739376 
C 225.874906 299.071759 226.325778 299.258516 226.795838 299.258516 
z
" style="stroke:#000000;stroke-width:0.886227;"/>
    <path clip-path="url(#p78bd5bce42)" d="M 393.622668 312.446459 
C 394.092729 312.446459 394.5436 312.259702 394.875983 311.92732 
C 395.208365 311.594937 395.395122 311.144066 395.395122 310.674005 
C 395.395122 310.203945 395.208365 309.753074 394.875983 309.420691 
C 394.5436 309.088309 394.092729 308.901552 393.622668 308.901552 
C 393.152608 308.901552 392.701737 309.088309 392.369354 309.420691 
C 392.036972 309.753074 391.850215 310.203945 391.850215 310.674005 
C 391.850215 311.144066 392.036972 311.594937 392.369354 311.92732 
C 392.701737 312.259702 393.152608 312.446459 393.622668 312.446459 
z
" style="stroke:#000000;stroke-width:0.886227;"/>
   </g>
   <g id="patch_7">
    <path d="M 46.789688 253.674082 
L 410.138525 253.674082 
L 410.138525 238.63 
L 46.789688 238.63 
z
" style="fill:#d9d9d9;"/>
   </g>
   <g id="PolyCollection_3">
    <path clip-path="url(#p78bd5bce42)" d="M 63.305544 389.724457 
L 63.305544 456.123628 
L 66.64208 389.448715 
L 76.65169 325.805031 
L 93.334373 299.570141 
L 110.017056 297.684014 
L 126.699739 301.732375 
L 226.795838 311.297221 
L 393.622668 321.160144 
L 393.622668 300.187867 
L 393.622668 300.187867 
L 226.795838 283.674902 
L 126.699739 279.010447 
L 110.017056 278.766803 
L 93.334373 263.314537 
L 76.65169 297.490248 
L 66.64208 342.972407 
L 63.305544 389.724457 
z
" style="fill:#333333;fill-opacity:0.501961;"/>
   </g>
   <g id="text_23">
    <!-- F1 score: &lt;=50K -->
    <g style="fill:#1a1a1a;" transform="translate(191.175481 248.580291)scale(0.088 -0.088)">
     <defs>
      <path d="M 628 4666 
L 3309 4666 
L 3309 4134 
L 1259 4134 
L 1259 2759 
L 3109 2759 
L 3109 2228 
L 1259 2228 
L 1259 0 
L 628 0 
L 628 4666 
z
" id="DejaVuSans-46" transform="scale(0.015625)"/>
      <path id="DejaVuSans-20" transform="scale(0.015625)"/>
      <path d="M 2834 3397 
L 2834 2853 
Q 2591 2978 2328 3040 
Q 2066 3103 1784 3103 
Q 1356 3103 1142 2972 
Q 928 2841 928 2578 
Q 928 2378 1081 2264 
Q 1234 2150 1697 2047 
L 1894 2003 
Q 2506 1872 2764 1633 
Q 3022 1394 3022 966 
Q 3022 478 2636 193 
Q 2250 -91 1575 -91 
Q 1294 -91 989 -36 
Q 684 19 347 128 
L 347 722 
Q 666 556 975 473 
Q 1284 391 1588 391 
Q 1994 391 2212 530 
Q 2431 669 2431 922 
Q 2431 1156 2273 1281 
Q 2116 1406 1581 1522 
L 1381 1569 
Q 847 1681 609 1914 
Q 372 2147 372 2553 
Q 372 3047 722 3315 
Q 1072 3584 1716 3584 
Q 2034 3584 2315 3537 
Q 2597 3491 2834 3397 
z
" id="DejaVuSans-73" transform="scale(0.015625)"/>
      <path d="M 1959 3097 
Q 1497 3097 1228 2736 
Q 959 2375 959 1747 
Q 959 1119 1226 758 
Q 1494 397 1959 397 
Q 2419 397 2687 759 
Q 2956 1122 2956 1747 
Q 2956 2369 2687 2733 
Q 2419 3097 1959 3097 
z
M 1959 3584 
Q 2709 3584 3137 3096 
Q 3566 2609 3566 1747 
Q 3566 888 3137 398 
Q 2709 -91 1959 -91 
Q 1206 -91 779 398 
Q 353 888 353 1747 
Q 353 2609 779 3096 
Q 1206 3584 1959 3584 
z
" id="DejaVuSans-6f" transform="scale(0.015625)"/>
      <path d="M 750 794 
L 1409 794 
L 1409 0 
L 750 0 
L 750 794 
z
M 750 3309 
L 1409 3309 
L 1409 2516 
L 750 2516 
L 750 3309 
z
" id="DejaVuSans-3a" transform="scale(0.015625)"/>
      <path d="M 4684 3150 
L 1459 2003 
L 4684 863 
L 4684 294 
L 678 1747 
L 678 2266 
L 4684 3719 
L 4684 3150 
z
" id="DejaVuSans-3c" transform="scale(0.015625)"/>
      <path d="M 678 2906 
L 4684 2906 
L 4684 2381 
L 678 2381 
L 678 2906 
z
M 678 1631 
L 4684 1631 
L 4684 1100 
L 678 1100 
L 678 1631 
z
" id="DejaVuSans-3d" transform="scale(0.015625)"/>
      <path d="M 628 4666 
L 1259 4666 
L 1259 2694 
L 3353 4666 
L 4166 4666 
L 1850 2491 
L 4331 0 
L 3500 0 
L 1259 2247 
L 1259 0 
L 628 0 
L 628 4666 
z
" id="DejaVuSans-4b" transform="scale(0.015625)"/>
     </defs>
     <use xlink:href="#DejaVuSans-46"/>
     <use x="57.519531" xlink:href="#DejaVuSans-31"/>
     <use x="121.142578" xlink:href="#DejaVuSans-20"/>
     <use x="152.929688" xlink:href="#DejaVuSans-73"/>
     <use x="205.029297" xlink:href="#DejaVuSans-63"/>
     <use x="260.009766" xlink:href="#DejaVuSans-6f"/>
     <use x="321.191406" xlink:href="#DejaVuSans-72"/>
     <use x="360.054688" xlink:href="#DejaVuSans-65"/>
     <use x="421.578125" xlink:href="#DejaVuSans-3a"/>
     <use x="455.269531" xlink:href="#DejaVuSans-20"/>
     <use x="487.056641" xlink:href="#DejaVuSans-3c"/>
     <use x="570.845703" xlink:href="#DejaVuSans-3d"/>
     <use x="654.634766" xlink:href="#DejaVuSans-35"/>
     <use x="718.257812" xlink:href="#DejaVuSans-30"/>
     <use x="781.880859" xlink:href="#DejaVuSans-4b"/>
    </g>
   </g>
  </g>
  <g id="axes_4">
   <g id="patch_8">
    <path d="M 464.64085 465.764082 
L 827.989688 465.764082 
L 827.989688 253.674082 
L 464.64085 253.674082 
z
" style="fill:#ebebeb;"/>
   </g>
   <g id="matplotlib.axis_7">
    <g id="xtick_34">
     <g id="line2d_83">
      <path clip-path="url(#pda6ddbca89)" d="M 477.82017 465.764082 
L 477.82017 253.674082 
" style="fill:none;stroke:#ffffff;stroke-linecap:square;"/>
     </g>
     <g id="line2d_84">
      <path d="M 477.82017 465.764082 
" style="fill:none;stroke:#333333;stroke-linecap:square;stroke-width:1.5;"/>
      <g>
       <use style="fill:#333333;stroke:#000000;" x="477.82017" xlink:href="#m641e55a890" y="465.764082"/>
      </g>
     </g>
     <g id="text_24">
      <!-- 0 -->
      <g style="fill:#4d4d4d;" transform="translate(475.02067 477.400707)scale(0.088 -0.088)">
       <use xlink:href="#DejaVuSans-30"/>
      </g>
     </g>
    </g>
    <g id="xtick_35">
     <g id="line2d_85">
      <path clip-path="url(#pda6ddbca89)" d="M 544.550902 465.764082 
L 544.550902 253.674082 
" style="fill:none;stroke:#ffffff;stroke-linecap:square;"/>
     </g>
     <g id="line2d_86">
      <path d="M 544.550902 465.764082 
" style="fill:none;stroke:#333333;stroke-linecap:square;stroke-width:1.5;"/>
      <g>
       <use style="fill:#333333;stroke:#000000;" x="544.550902" xlink:href="#m641e55a890" y="465.764082"/>
      </g>
     </g>
     <g id="text_25">
      <!-- 1000 -->
      <g style="fill:#4d4d4d;" transform="translate(533.352902 477.400707)scale(0.088 -0.088)">
       <use xlink:href="#DejaVuSans-31"/>
       <use x="63.623047" xlink:href="#DejaVuSans-30"/>
       <use x="127.246094" xlink:href="#DejaVuSans-30"/>
       <use x="190.869141" xlink:href="#DejaVuSans-30"/>
      </g>
     </g>
    </g>
    <g id="xtick_36">
     <g id="line2d_87">
      <path clip-path="url(#pda6ddbca89)" d="M 611.281634 465.764082 
L 611.281634 253.674082 
" style="fill:none;stroke:#ffffff;stroke-linecap:square;"/>
     </g>
     <g id="line2d_88">
      <path d="M 611.281634 465.764082 
" style="fill:none;stroke:#333333;stroke-linecap:square;stroke-width:1.5;"/>
      <g>
       <use style="fill:#333333;stroke:#000000;" x="611.281634" xlink:href="#m641e55a890" y="465.764082"/>
      </g>
     </g>
     <g id="text_26">
      <!-- 2000 -->
      <g style="fill:#4d4d4d;" transform="translate(600.083634 477.400707)scale(0.088 -0.088)">
       <use xlink:href="#DejaVuSans-32"/>
       <use x="63.623047" xlink:href="#DejaVuSans-30"/>
       <use x="127.246094" xlink:href="#DejaVuSans-30"/>
       <use x="190.869141" xlink:href="#DejaVuSans-30"/>
      </g>
     </g>
    </g>
    <g id="xtick_37">
     <g id="line2d_89">
      <path clip-path="url(#pda6ddbca89)" d="M 678.012367 465.764082 
L 678.012367 253.674082 
" style="fill:none;stroke:#ffffff;stroke-linecap:square;"/>
     </g>
     <g id="line2d_90">
      <path d="M 678.012367 465.764082 
" style="fill:none;stroke:#333333;stroke-linecap:square;stroke-width:1.5;"/>
      <g>
       <use style="fill:#333333;stroke:#000000;" x="678.012367" xlink:href="#m641e55a890" y="465.764082"/>
      </g>
     </g>
     <g id="text_27">
      <!-- 3000 -->
      <g style="fill:#4d4d4d;" transform="translate(666.814367 477.400707)scale(0.088 -0.088)">
       <use xlink:href="#DejaVuSans-33"/>
       <use x="63.623047" xlink:href="#DejaVuSans-30"/>
       <use x="127.246094" xlink:href="#DejaVuSans-30"/>
       <use x="190.869141" xlink:href="#DejaVuSans-30"/>
      </g>
     </g>
    </g>
    <g id="xtick_38">
     <g id="line2d_91">
      <path clip-path="url(#pda6ddbca89)" d="M 744.743099 465.764082 
L 744.743099 253.674082 
" style="fill:none;stroke:#ffffff;stroke-linecap:square;"/>
     </g>
     <g id="line2d_92">
      <path d="M 744.743099 465.764082 
" style="fill:none;stroke:#333333;stroke-linecap:square;stroke-width:1.5;"/>
      <g>
       <use style="fill:#333333;stroke:#000000;" x="744.743099" xlink:href="#m641e55a890" y="465.764082"/>
      </g>
     </g>
     <g id="text_28">
      <!-- 4000 -->
      <g style="fill:#4d4d4d;" transform="translate(733.545099 477.400707)scale(0.088 -0.088)">
       <use xlink:href="#DejaVuSans-34"/>
       <use x="63.623047" xlink:href="#DejaVuSans-30"/>
       <use x="127.246094" xlink:href="#DejaVuSans-30"/>
       <use x="190.869141" xlink:href="#DejaVuSans-30"/>
      </g>
     </g>
    </g>
    <g id="xtick_39">
     <g id="line2d_93">
      <path clip-path="url(#pda6ddbca89)" d="M 811.473831 465.764082 
L 811.473831 253.674082 
" style="fill:none;stroke:#ffffff;stroke-linecap:square;"/>
     </g>
     <g id="line2d_94">
      <path d="M 811.473831 465.764082 
" style="fill:none;stroke:#333333;stroke-linecap:square;stroke-width:1.5;"/>
      <g>
       <use style="fill:#333333;stroke:#000000;" x="811.473831" xlink:href="#m641e55a890" y="465.764082"/>
      </g>
     </g>
     <g id="text_29">
      <!-- 5000 -->
      <g style="fill:#4d4d4d;" transform="translate(800.275831 477.400707)scale(0.088 -0.088)">
       <use xlink:href="#DejaVuSans-35"/>
       <use x="63.623047" xlink:href="#DejaVuSans-30"/>
       <use x="127.246094" xlink:href="#DejaVuSans-30"/>
       <use x="190.869141" xlink:href="#DejaVuSans-30"/>
      </g>
     </g>
    </g>
    <g id="xtick_40">
     <g id="line2d_95">
      <path clip-path="url(#pda6ddbca89)" d="M 511.185536 465.764082 
L 511.185536 253.674082 
" style="fill:none;stroke:#ffffff;stroke-linecap:square;stroke-width:0.5;"/>
     </g>
    </g>
    <g id="xtick_41">
     <g id="line2d_96">
      <path clip-path="url(#pda6ddbca89)" d="M 577.916268 465.764082 
L 577.916268 253.674082 
" style="fill:none;stroke:#ffffff;stroke-linecap:square;stroke-width:0.5;"/>
     </g>
    </g>
    <g id="xtick_42">
     <g id="line2d_97">
      <path clip-path="url(#pda6ddbca89)" d="M 644.647001 465.764082 
L 644.647001 253.674082 
" style="fill:none;stroke:#ffffff;stroke-linecap:square;stroke-width:0.5;"/>
     </g>
    </g>
    <g id="xtick_43">
     <g id="line2d_98">
      <path clip-path="url(#pda6ddbca89)" d="M 711.377733 465.764082 
L 711.377733 253.674082 
" style="fill:none;stroke:#ffffff;stroke-linecap:square;stroke-width:0.5;"/>
     </g>
    </g>
    <g id="xtick_44">
     <g id="line2d_99">
      <path clip-path="url(#pda6ddbca89)" d="M 778.108465 465.764082 
L 778.108465 253.674082 
" style="fill:none;stroke:#ffffff;stroke-linecap:square;stroke-width:0.5;"/>
     </g>
    </g>
    <g id="text_30">
     <!-- Batch size 300 epochs -->
     <g transform="translate(362.957656 491.989114)scale(0.11 -0.11)">
      <defs>
       <path d="M 1259 2228 
L 1259 519 
L 2272 519 
Q 2781 519 3026 730 
Q 3272 941 3272 1375 
Q 3272 1813 3026 2020 
Q 2781 2228 2272 2228 
L 1259 2228 
z
M 1259 4147 
L 1259 2741 
L 2194 2741 
Q 2656 2741 2882 2914 
Q 3109 3088 3109 3444 
Q 3109 3797 2882 3972 
Q 2656 4147 2194 4147 
L 1259 4147 
z
M 628 4666 
L 2241 4666 
Q 2963 4666 3353 4366 
Q 3744 4066 3744 3513 
Q 3744 3084 3544 2831 
Q 3344 2578 2956 2516 
Q 3422 2416 3680 2098 
Q 3938 1781 3938 1306 
Q 3938 681 3513 340 
Q 3088 0 2303 0 
L 628 0 
L 628 4666 
z
" id="DejaVuSans-42" transform="scale(0.015625)"/>
       <path d="M 1172 4494 
L 1172 3500 
L 2356 3500 
L 2356 3053 
L 1172 3053 
L 1172 1153 
Q 1172 725 1289 603 
Q 1406 481 1766 481 
L 2356 481 
L 2356 0 
L 1766 0 
Q 1100 0 847 248 
Q 594 497 594 1153 
L 594 3053 
L 172 3053 
L 172 3500 
L 594 3500 
L 594 4494 
L 1172 4494 
z
" id="DejaVuSans-74" transform="scale(0.015625)"/>
       <path d="M 3513 2113 
L 3513 0 
L 2938 0 
L 2938 2094 
Q 2938 2591 2744 2837 
Q 2550 3084 2163 3084 
Q 1697 3084 1428 2787 
Q 1159 2491 1159 1978 
L 1159 0 
L 581 0 
L 581 4863 
L 1159 4863 
L 1159 2956 
Q 1366 3272 1645 3428 
Q 1925 3584 2291 3584 
Q 2894 3584 3203 3211 
Q 3513 2838 3513 2113 
z
" id="DejaVuSans-68" transform="scale(0.015625)"/>
       <path d="M 603 3500 
L 1178 3500 
L 1178 0 
L 603 0 
L 603 3500 
z
M 603 4863 
L 1178 4863 
L 1178 4134 
L 603 4134 
L 603 4863 
z
" id="DejaVuSans-69" transform="scale(0.015625)"/>
       <path d="M 353 3500 
L 3084 3500 
L 3084 2975 
L 922 459 
L 3084 459 
L 3084 0 
L 275 0 
L 275 525 
L 2438 3041 
L 353 3041 
L 353 3500 
z
" id="DejaVuSans-7a" transform="scale(0.015625)"/>
       <path d="M 1159 525 
L 1159 -1331 
L 581 -1331 
L 581 3500 
L 1159 3500 
L 1159 2969 
Q 1341 3281 1617 3432 
Q 1894 3584 2278 3584 
Q 2916 3584 3314 3078 
Q 3713 2572 3713 1747 
Q 3713 922 3314 415 
Q 2916 -91 2278 -91 
Q 1894 -91 1617 61 
Q 1341 213 1159 525 
z
M 3116 1747 
Q 3116 2381 2855 2742 
Q 2594 3103 2138 3103 
Q 1681 3103 1420 2742 
Q 1159 2381 1159 1747 
Q 1159 1113 1420 752 
Q 1681 391 2138 391 
Q 2594 391 2855 752 
Q 3116 1113 3116 1747 
z
" id="DejaVuSans-70" transform="scale(0.015625)"/>
      </defs>
      <use xlink:href="#DejaVuSans-42"/>
      <use x="68.603516" xlink:href="#DejaVuSans-61"/>
      <use x="129.882812" xlink:href="#DejaVuSans-74"/>
      <use x="169.091797" xlink:href="#DejaVuSans-63"/>
      <use x="224.072266" xlink:href="#DejaVuSans-68"/>
      <use x="287.451172" xlink:href="#DejaVuSans-20"/>
      <use x="319.238281" xlink:href="#DejaVuSans-73"/>
      <use x="371.337891" xlink:href="#DejaVuSans-69"/>
      <use x="399.121094" xlink:href="#DejaVuSans-7a"/>
      <use x="451.611328" xlink:href="#DejaVuSans-65"/>
      <use x="513.134766" xlink:href="#DejaVuSans-20"/>
      <use x="544.921875" xlink:href="#DejaVuSans-33"/>
      <use x="608.544922" xlink:href="#DejaVuSans-30"/>
      <use x="672.167969" xlink:href="#DejaVuSans-30"/>
      <use x="735.791016" xlink:href="#DejaVuSans-20"/>
      <use x="767.578125" xlink:href="#DejaVuSans-65"/>
      <use x="829.101562" xlink:href="#DejaVuSans-70"/>
      <use x="892.578125" xlink:href="#DejaVuSans-6f"/>
      <use x="953.759766" xlink:href="#DejaVuSans-63"/>
      <use x="1008.740234" xlink:href="#DejaVuSans-68"/>
      <use x="1072.119141" xlink:href="#DejaVuSans-73"/>
     </g>
    </g>
   </g>
   <g id="matplotlib.axis_8">
    <g id="ytick_28">
     <g id="line2d_100">
      <path clip-path="url(#pda6ddbca89)" d="M 464.64085 460.519657 
L 827.989688 460.519657 
" style="fill:none;stroke:#ffffff;stroke-linecap:square;"/>
     </g>
     <g id="line2d_101">
      <path d="M 464.64085 460.519657 
" style="fill:none;stroke:#333333;stroke-linecap:square;stroke-width:1.5;"/>
      <g>
       <use style="fill:#333333;stroke:#000000;" x="464.64085" xlink:href="#m144180c082" y="460.519657"/>
      </g>
     </g>
     <g id="text_31">
      <!-- 0.550 -->
      <g style="fill:#4d4d4d;" transform="translate(434.4981 462.947907)scale(0.088 -0.088)">
       <use xlink:href="#DejaVuSans-30"/>
       <use x="63.623047" xlink:href="#DejaVuSans-2e"/>
       <use x="95.410156" xlink:href="#DejaVuSans-35"/>
       <use x="159.033203" xlink:href="#DejaVuSans-35"/>
       <use x="222.65625" xlink:href="#DejaVuSans-30"/>
      </g>
     </g>
    </g>
    <g id="ytick_29">
     <g id="line2d_102">
      <path clip-path="url(#pda6ddbca89)" d="M 464.64085 413.116594 
L 827.989688 413.116594 
" style="fill:none;stroke:#ffffff;stroke-linecap:square;"/>
     </g>
     <g id="line2d_103">
      <path d="M 464.64085 413.116594 
" style="fill:none;stroke:#333333;stroke-linecap:square;stroke-width:1.5;"/>
      <g>
       <use style="fill:#333333;stroke:#000000;" x="464.64085" xlink:href="#m144180c082" y="413.116594"/>
      </g>
     </g>
     <g id="text_32">
      <!-- 0.575 -->
      <g style="fill:#4d4d4d;" transform="translate(434.4981 415.544844)scale(0.088 -0.088)">
       <use xlink:href="#DejaVuSans-30"/>
       <use x="63.623047" xlink:href="#DejaVuSans-2e"/>
       <use x="95.410156" xlink:href="#DejaVuSans-35"/>
       <use x="159.033203" xlink:href="#DejaVuSans-37"/>
       <use x="222.65625" xlink:href="#DejaVuSans-35"/>
      </g>
     </g>
    </g>
    <g id="ytick_30">
     <g id="line2d_104">
      <path clip-path="url(#pda6ddbca89)" d="M 464.64085 365.713531 
L 827.989688 365.713531 
" style="fill:none;stroke:#ffffff;stroke-linecap:square;"/>
     </g>
     <g id="line2d_105">
      <path d="M 464.64085 365.713531 
" style="fill:none;stroke:#333333;stroke-linecap:square;stroke-width:1.5;"/>
      <g>
       <use style="fill:#333333;stroke:#000000;" x="464.64085" xlink:href="#m144180c082" y="365.713531"/>
      </g>
     </g>
     <g id="text_33">
      <!-- 0.600 -->
      <g style="fill:#4d4d4d;" transform="translate(434.4981 368.141781)scale(0.088 -0.088)">
       <use xlink:href="#DejaVuSans-30"/>
       <use x="63.623047" xlink:href="#DejaVuSans-2e"/>
       <use x="95.410156" xlink:href="#DejaVuSans-36"/>
       <use x="159.033203" xlink:href="#DejaVuSans-30"/>
       <use x="222.65625" xlink:href="#DejaVuSans-30"/>
      </g>
     </g>
    </g>
    <g id="ytick_31">
     <g id="line2d_106">
      <path clip-path="url(#pda6ddbca89)" d="M 464.64085 318.310468 
L 827.989688 318.310468 
" style="fill:none;stroke:#ffffff;stroke-linecap:square;"/>
     </g>
     <g id="line2d_107">
      <path d="M 464.64085 318.310468 
" style="fill:none;stroke:#333333;stroke-linecap:square;stroke-width:1.5;"/>
      <g>
       <use style="fill:#333333;stroke:#000000;" x="464.64085" xlink:href="#m144180c082" y="318.310468"/>
      </g>
     </g>
     <g id="text_34">
      <!-- 0.625 -->
      <g style="fill:#4d4d4d;" transform="translate(434.4981 320.738718)scale(0.088 -0.088)">
       <use xlink:href="#DejaVuSans-30"/>
       <use x="63.623047" xlink:href="#DejaVuSans-2e"/>
       <use x="95.410156" xlink:href="#DejaVuSans-36"/>
       <use x="159.033203" xlink:href="#DejaVuSans-32"/>
       <use x="222.65625" xlink:href="#DejaVuSans-35"/>
      </g>
     </g>
    </g>
    <g id="ytick_32">
     <g id="line2d_108">
      <path clip-path="url(#pda6ddbca89)" d="M 464.64085 270.907405 
L 827.989688 270.907405 
" style="fill:none;stroke:#ffffff;stroke-linecap:square;"/>
     </g>
     <g id="line2d_109">
      <path d="M 464.64085 270.907405 
" style="fill:none;stroke:#333333;stroke-linecap:square;stroke-width:1.5;"/>
      <g>
       <use style="fill:#333333;stroke:#000000;" x="464.64085" xlink:href="#m144180c082" y="270.907405"/>
      </g>
     </g>
     <g id="text_35">
      <!-- 0.650 -->
      <g style="fill:#4d4d4d;" transform="translate(434.4981 273.335655)scale(0.088 -0.088)">
       <use xlink:href="#DejaVuSans-30"/>
       <use x="63.623047" xlink:href="#DejaVuSans-2e"/>
       <use x="95.410156" xlink:href="#DejaVuSans-36"/>
       <use x="159.033203" xlink:href="#DejaVuSans-35"/>
       <use x="222.65625" xlink:href="#DejaVuSans-30"/>
      </g>
     </g>
    </g>
    <g id="ytick_33">
     <g id="line2d_110">
      <path clip-path="url(#pda6ddbca89)" d="M 464.64085 436.818126 
L 827.989688 436.818126 
" style="fill:none;stroke:#ffffff;stroke-linecap:square;stroke-width:0.5;"/>
     </g>
    </g>
    <g id="ytick_34">
     <g id="line2d_111">
      <path clip-path="url(#pda6ddbca89)" d="M 464.64085 389.415063 
L 827.989688 389.415063 
" style="fill:none;stroke:#ffffff;stroke-linecap:square;stroke-width:0.5;"/>
     </g>
    </g>
    <g id="ytick_35">
     <g id="line2d_112">
      <path clip-path="url(#pda6ddbca89)" d="M 464.64085 342.012 
L 827.989688 342.012 
" style="fill:none;stroke:#ffffff;stroke-linecap:square;stroke-width:0.5;"/>
     </g>
    </g>
    <g id="ytick_36">
     <g id="line2d_113">
      <path clip-path="url(#pda6ddbca89)" d="M 464.64085 294.608937 
L 827.989688 294.608937 
" style="fill:none;stroke:#ffffff;stroke-linecap:square;stroke-width:0.5;"/>
     </g>
    </g>
   </g>
   <g id="line2d_114">
    <path clip-path="url(#pda6ddbca89)" d="M 481.156707 383.723451 
L 484.493243 325.901662 
L 494.502853 301.017281 
L 511.185536 279.275072 
L 527.868219 273.504502 
L 544.550902 277.226857 
L 644.647001 276.149913 
L 811.473831 284.323318 
" style="fill:none;stroke:#000000;stroke-width:0.886227;"/>
   </g>
   <g id="PathCollection_4">
    <path clip-path="url(#pda6ddbca89)" d="M 481.156707 385.495905 
C 481.626767 385.495905 482.077638 385.309148 482.410021 384.976765 
C 482.742403 384.644382 482.92916 384.193511 482.92916 383.723451 
C 482.92916 383.25339 482.742403 382.802519 482.410021 382.470137 
C 482.077638 382.137754 481.626767 381.950997 481.156707 381.950997 
C 480.686646 381.950997 480.235775 382.137754 479.903392 382.470137 
C 479.57101 382.802519 479.384253 383.25339 479.384253 383.723451 
C 479.384253 384.193511 479.57101 384.644382 479.903392 384.976765 
C 480.235775 385.309148 480.686646 385.495905 481.156707 385.495905 
z
" style="stroke:#000000;stroke-width:0.886227;"/>
    <path clip-path="url(#pda6ddbca89)" d="M 484.493243 327.674116 
C 484.963303 327.674116 485.414174 327.487359 485.746557 327.154976 
C 486.07894 326.822594 486.265697 326.371722 486.265697 325.901662 
C 486.265697 325.431602 486.07894 324.980731 485.746557 324.648348 
C 485.414174 324.315965 484.963303 324.129208 484.493243 324.129208 
C 484.023183 324.129208 483.572312 324.315965 483.239929 324.648348 
C 482.907546 324.980731 482.720789 325.431602 482.720789 325.901662 
C 482.720789 326.371722 482.907546 326.822594 483.239929 327.154976 
C 483.572312 327.487359 484.023183 327.674116 484.493243 327.674116 
z
" style="stroke:#000000;stroke-width:0.886227;"/>
    <path clip-path="url(#pda6ddbca89)" d="M 494.502853 302.789735 
C 494.972913 302.789735 495.423784 302.602978 495.756167 302.270595 
C 496.08855 301.938213 496.275307 301.487342 496.275307 301.017281 
C 496.275307 300.547221 496.08855 300.09635 495.756167 299.763967 
C 495.423784 299.431584 494.972913 299.244827 494.502853 299.244827 
C 494.032793 299.244827 493.581922 299.431584 493.249539 299.763967 
C 492.917156 300.09635 492.730399 300.547221 492.730399 301.017281 
C 492.730399 301.487342 492.917156 301.938213 493.249539 302.270595 
C 493.581922 302.602978 494.032793 302.789735 494.502853 302.789735 
z
" style="stroke:#000000;stroke-width:0.886227;"/>
    <path clip-path="url(#pda6ddbca89)" d="M 511.185536 281.047526 
C 511.655596 281.047526 512.106467 280.860769 512.43885 280.528386 
C 512.771233 280.196003 512.95799 279.745132 512.95799 279.275072 
C 512.95799 278.805012 512.771233 278.354141 512.43885 278.021758 
C 512.106467 277.689375 511.655596 277.502618 511.185536 277.502618 
C 510.715476 277.502618 510.264605 277.689375 509.932222 278.021758 
C 509.599839 278.354141 509.413082 278.805012 509.413082 279.275072 
C 509.413082 279.745132 509.599839 280.196003 509.932222 280.528386 
C 510.264605 280.860769 510.715476 281.047526 511.185536 281.047526 
z
" style="stroke:#000000;stroke-width:0.886227;"/>
    <path clip-path="url(#pda6ddbca89)" d="M 527.868219 275.276956 
C 528.338279 275.276956 528.78915 275.090199 529.121533 274.757816 
C 529.453916 274.425433 529.640673 273.974562 529.640673 273.504502 
C 529.640673 273.034442 529.453916 272.583571 529.121533 272.251188 
C 528.78915 271.918805 528.338279 271.732048 527.868219 271.732048 
C 527.398159 271.732048 526.947288 271.918805 526.614905 272.251188 
C 526.282522 272.583571 526.095765 273.034442 526.095765 273.504502 
C 526.095765 273.974562 526.282522 274.425433 526.614905 274.757816 
C 526.947288 275.090199 527.398159 275.276956 527.868219 275.276956 
z
" style="stroke:#000000;stroke-width:0.886227;"/>
    <path clip-path="url(#pda6ddbca89)" d="M 544.550902 278.99931 
C 545.020962 278.99931 545.471834 278.812554 545.804216 278.480171 
C 546.136599 278.147788 546.323356 277.696917 546.323356 277.226857 
C 546.323356 276.756796 546.136599 276.305925 545.804216 275.973542 
C 545.471834 275.64116 545.020962 275.454403 544.550902 275.454403 
C 544.080842 275.454403 543.629971 275.64116 543.297588 275.973542 
C 542.965205 276.305925 542.778448 276.756796 542.778448 277.226857 
C 542.778448 277.696917 542.965205 278.147788 543.297588 278.480171 
C 543.629971 278.812554 544.080842 278.99931 544.550902 278.99931 
z
" style="stroke:#000000;stroke-width:0.886227;"/>
    <path clip-path="url(#pda6ddbca89)" d="M 644.647001 277.922367 
C 645.117061 277.922367 645.567932 277.73561 645.900315 277.403227 
C 646.232698 277.070844 646.419454 276.619973 646.419454 276.149913 
C 646.419454 275.679853 646.232698 275.228982 645.900315 274.896599 
C 645.567932 274.564216 645.117061 274.377459 644.647001 274.377459 
C 644.17694 274.377459 643.726069 274.564216 643.393686 274.896599 
C 643.061304 275.228982 642.874547 275.679853 642.874547 276.149913 
C 642.874547 276.619973 643.061304 277.070844 643.393686 277.403227 
C 643.726069 277.73561 644.17694 277.922367 644.647001 277.922367 
z
" style="stroke:#000000;stroke-width:0.886227;"/>
    <path clip-path="url(#pda6ddbca89)" d="M 811.473831 286.095772 
C 811.943892 286.095772 812.394763 285.909015 812.727145 285.576632 
C 813.059528 285.244249 813.246285 284.793378 813.246285 284.323318 
C 813.246285 283.853258 813.059528 283.402387 812.727145 283.070004 
C 812.394763 282.737621 811.943892 282.550864 811.473831 282.550864 
C 811.003771 282.550864 810.5529 282.737621 810.220517 283.070004 
C 809.888134 283.402387 809.701377 283.853258 809.701377 284.323318 
C 809.701377 284.793378 809.888134 285.244249 810.220517 285.576632 
C 810.5529 285.909015 811.003771 286.095772 811.473831 286.095772 
z
" style="stroke:#000000;stroke-width:0.886227;"/>
   </g>
   <g id="patch_9">
    <path d="M 464.64085 253.674082 
L 827.989688 253.674082 
L 827.989688 238.63 
L 464.64085 238.63 
z
" style="fill:#d9d9d9;"/>
   </g>
   <g id="PolyCollection_4">
    <path clip-path="url(#pda6ddbca89)" d="M 481.156707 311.323274 
L 481.156707 456.123628 
L 484.493243 359.139528 
L 494.502853 315.648463 
L 511.185536 290.140747 
L 527.868219 282.928596 
L 544.550902 291.139176 
L 644.647001 284.543418 
L 811.473831 295.017719 
L 811.473831 273.628917 
L 811.473831 273.628917 
L 644.647001 267.756408 
L 544.550902 263.314537 
L 527.868219 264.080409 
L 511.185536 268.409397 
L 494.502853 286.386099 
L 484.493243 292.663796 
L 481.156707 311.323274 
z
" style="fill:#333333;fill-opacity:0.501961;"/>
   </g>
   <g id="text_36">
    <!-- F1 score: &gt;50K -->
    <g style="fill:#1a1a1a;" transform="translate(612.713706 248.580291)scale(0.088 -0.088)">
     <defs>
      <path d="M 678 3150 
L 678 3719 
L 4684 2266 
L 4684 1747 
L 678 294 
L 678 863 
L 3897 2003 
L 678 3150 
z
" id="DejaVuSans-3e" transform="scale(0.015625)"/>
     </defs>
     <use xlink:href="#DejaVuSans-46"/>
     <use x="57.519531" xlink:href="#DejaVuSans-31"/>
     <use x="121.142578" xlink:href="#DejaVuSans-20"/>
     <use x="152.929688" xlink:href="#DejaVuSans-73"/>
     <use x="205.029297" xlink:href="#DejaVuSans-63"/>
     <use x="260.009766" xlink:href="#DejaVuSans-6f"/>
     <use x="321.191406" xlink:href="#DejaVuSans-72"/>
     <use x="360.054688" xlink:href="#DejaVuSans-65"/>
     <use x="421.578125" xlink:href="#DejaVuSans-3a"/>
     <use x="455.269531" xlink:href="#DejaVuSans-20"/>
     <use x="487.056641" xlink:href="#DejaVuSans-3e"/>
     <use x="570.845703" xlink:href="#DejaVuSans-35"/>
     <use x="634.46875" xlink:href="#DejaVuSans-30"/>
     <use x="698.091797" xlink:href="#DejaVuSans-4b"/>
    </g>
   </g>
  </g>
 </g>
 <defs>
  <clipPath id="p3ba9bcb08b">
   <rect height="212.09" width="363.348837" x="46.789688" y="22.244082"/>
  </clipPath>
  <clipPath id="p89dfd053a9">
   <rect height="212.09" width="363.348837" x="464.64085" y="22.244082"/>
  </clipPath>
  <clipPath id="p78bd5bce42">
   <rect height="212.09" width="363.348837" x="46.789688" y="253.674082"/>
  </clipPath>
  <clipPath id="pda6ddbca89">
   <rect height="212.09" width="363.348837" x="464.64085" y="253.674082"/>
  </clipPath>
 </defs>
</svg>
