<?xml version="1.0" encoding="utf-8" standalone="no"?>
<!DOCTYPE svg PUBLIC "-//W3C//DTD SVG 1.1//EN"
  "http://www.w3.org/Graphics/SVG/1.1/DTD/svg11.dtd">
<svg height="501.47677pt" version="1.1" viewBox="0 0 840.788688 501.47677" width="840.788688pt" xmlns="http://www.w3.org/2000/svg" xmlns:xlink="http://www.w3.org/1999/xlink">
 <metadata>
  <rdf:RDF xmlns:cc="http://creativecommons.org/ns#" xmlns:dc="http://purl.org/dc/elements/1.1/" xmlns:rdf="http://www.w3.org/1999/02/22-rdf-syntax-ns#">
   <cc:Work>
    <dc:type rdf:resource="http://purl.org/dc/dcmitype/StillImage"/>
    <dc:date>2022-05-07T15:01:18.776090</dc:date>
    <dc:format>image/svg+xml</dc:format>
    <dc:creator>
     <cc:Agent>
      <dc:title>Matplotlib v3.4.3, https://matplotlib.org/</dc:title>
     </cc:Agent>
    </dc:creator>
   </cc:Work>
  </rdf:RDF>
 </metadata>
 <defs>
  <style type="text/css">*{stroke-linecap:butt;stroke-linejoin:round;}</style>
 </defs>
 <g id="figure_1">
  <g id="patch_1">
   <path d="M 0 501.47677 
L 840.788688 501.47677 
L 840.788688 0 
L 0 0 
z
" style="fill:#ffffff;stroke:#ffffff;stroke-linejoin:miter;"/>
  </g>
  <g id="axes_1">
   <g id="patch_2">
    <path d="M 52.388688 234.334082 
L 415.737525 234.334082 
L 415.737525 22.244082 
L 52.388688 22.244082 
z
" style="fill:#ebebeb;"/>
   </g>
   <g id="matplotlib.axis_1">
    <g id="xtick_1">
     <g id="line2d_1">
      <path clip-path="url(#pb864a9cf97)" d="M 68.573896 234.334082 
L 68.573896 22.244082 
" style="fill:none;stroke:#ffffff;"/>
     </g>
    </g>
    <g id="xtick_2">
     <g id="line2d_2">
      <path clip-path="url(#pb864a9cf97)" d="M 151.235839 234.334082 
L 151.235839 22.244082 
" style="fill:none;stroke:#ffffff;"/>
     </g>
    </g>
    <g id="xtick_3">
     <g id="line2d_3">
      <path clip-path="url(#pb864a9cf97)" d="M 233.897782 234.334082 
L 233.897782 22.244082 
" style="fill:none;stroke:#ffffff;"/>
     </g>
    </g>
    <g id="xtick_4">
     <g id="line2d_4">
      <path clip-path="url(#pb864a9cf97)" d="M 316.559725 234.334082 
L 316.559725 22.244082 
" style="fill:none;stroke:#ffffff;"/>
     </g>
    </g>
    <g id="xtick_5">
     <g id="line2d_5">
      <path clip-path="url(#pb864a9cf97)" d="M 399.221668 234.334082 
L 399.221668 22.244082 
" style="fill:none;stroke:#ffffff;"/>
     </g>
    </g>
    <g id="xtick_6">
     <g id="line2d_6">
      <path clip-path="url(#pb864a9cf97)" d="M 109.904868 234.334082 
L 109.904868 22.244082 
" style="fill:none;stroke:#ffffff;stroke-width:0.5;"/>
     </g>
    </g>
    <g id="xtick_7">
     <g id="line2d_7">
      <path clip-path="url(#pb864a9cf97)" d="M 192.566811 234.334082 
L 192.566811 22.244082 
" style="fill:none;stroke:#ffffff;stroke-width:0.5;"/>
     </g>
    </g>
    <g id="xtick_8">
     <g id="line2d_8">
      <path clip-path="url(#pb864a9cf97)" d="M 275.228754 234.334082 
L 275.228754 22.244082 
" style="fill:none;stroke:#ffffff;stroke-width:0.5;"/>
     </g>
    </g>
    <g id="xtick_9">
     <g id="line2d_9">
      <path clip-path="url(#pb864a9cf97)" d="M 357.890697 234.334082 
L 357.890697 22.244082 
" style="fill:none;stroke:#ffffff;stroke-width:0.5;"/>
     </g>
    </g>
   </g>
   <g id="matplotlib.axis_2">
    <g id="ytick_1">
     <g id="line2d_10">
      <path clip-path="url(#pb864a9cf97)" d="M 52.388688 190.090655 
L 415.737525 190.090655 
" style="fill:none;stroke:#ffffff;"/>
     </g>
     <g id="line2d_11">
      <path d="M 52.388688 190.090655 
" style="fill:none;stroke:#333333;stroke-width:1.5;"/>
      <defs>
       <path d="M 0 0 
L -2.75 0 
" id="m6002b43f1a" style="stroke:#000000;"/>
      </defs>
      <g>
       <use style="fill:#333333;stroke:#000000;" x="52.388688" xlink:href="#m6002b43f1a" y="190.090655"/>
      </g>
     </g>
     <g id="text_1">
      <!-- 0.829 -->
      <g style="fill:#4d4d4d;" transform="translate(22.245938 192.518905)scale(0.088 -0.088)">
       <defs>
        <path d="M 2034 4250 
Q 1547 4250 1301 3770 
Q 1056 3291 1056 2328 
Q 1056 1369 1301 889 
Q 1547 409 2034 409 
Q 2525 409 2770 889 
Q 3016 1369 3016 2328 
Q 3016 3291 2770 3770 
Q 2525 4250 2034 4250 
z
M 2034 4750 
Q 2819 4750 3233 4129 
Q 3647 3509 3647 2328 
Q 3647 1150 3233 529 
Q 2819 -91 2034 -91 
Q 1250 -91 836 529 
Q 422 1150 422 2328 
Q 422 3509 836 4129 
Q 1250 4750 2034 4750 
z
" id="DejaVuSans-30" transform="scale(0.015625)"/>
        <path d="M 684 794 
L 1344 794 
L 1344 0 
L 684 0 
L 684 794 
z
" id="DejaVuSans-2e" transform="scale(0.015625)"/>
        <path d="M 2034 2216 
Q 1584 2216 1326 1975 
Q 1069 1734 1069 1313 
Q 1069 891 1326 650 
Q 1584 409 2034 409 
Q 2484 409 2743 651 
Q 3003 894 3003 1313 
Q 3003 1734 2745 1975 
Q 2488 2216 2034 2216 
z
M 1403 2484 
Q 997 2584 770 2862 
Q 544 3141 544 3541 
Q 544 4100 942 4425 
Q 1341 4750 2034 4750 
Q 2731 4750 3128 4425 
Q 3525 4100 3525 3541 
Q 3525 3141 3298 2862 
Q 3072 2584 2669 2484 
Q 3125 2378 3379 2068 
Q 3634 1759 3634 1313 
Q 3634 634 3220 271 
Q 2806 -91 2034 -91 
Q 1263 -91 848 271 
Q 434 634 434 1313 
Q 434 1759 690 2068 
Q 947 2378 1403 2484 
z
M 1172 3481 
Q 1172 3119 1398 2916 
Q 1625 2713 2034 2713 
Q 2441 2713 2670 2916 
Q 2900 3119 2900 3481 
Q 2900 3844 2670 4047 
Q 2441 4250 2034 4250 
Q 1625 4250 1398 4047 
Q 1172 3844 1172 3481 
z
" id="DejaVuSans-38" transform="scale(0.015625)"/>
        <path d="M 1228 531 
L 3431 531 
L 3431 0 
L 469 0 
L 469 531 
Q 828 903 1448 1529 
Q 2069 2156 2228 2338 
Q 2531 2678 2651 2914 
Q 2772 3150 2772 3378 
Q 2772 3750 2511 3984 
Q 2250 4219 1831 4219 
Q 1534 4219 1204 4116 
Q 875 4013 500 3803 
L 500 4441 
Q 881 4594 1212 4672 
Q 1544 4750 1819 4750 
Q 2544 4750 2975 4387 
Q 3406 4025 3406 3419 
Q 3406 3131 3298 2873 
Q 3191 2616 2906 2266 
Q 2828 2175 2409 1742 
Q 1991 1309 1228 531 
z
" id="DejaVuSans-32" transform="scale(0.015625)"/>
        <path d="M 703 97 
L 703 672 
Q 941 559 1184 500 
Q 1428 441 1663 441 
Q 2288 441 2617 861 
Q 2947 1281 2994 2138 
Q 2813 1869 2534 1725 
Q 2256 1581 1919 1581 
Q 1219 1581 811 2004 
Q 403 2428 403 3163 
Q 403 3881 828 4315 
Q 1253 4750 1959 4750 
Q 2769 4750 3195 4129 
Q 3622 3509 3622 2328 
Q 3622 1225 3098 567 
Q 2575 -91 1691 -91 
Q 1453 -91 1209 -44 
Q 966 3 703 97 
z
M 1959 2075 
Q 2384 2075 2632 2365 
Q 2881 2656 2881 3163 
Q 2881 3666 2632 3958 
Q 2384 4250 1959 4250 
Q 1534 4250 1286 3958 
Q 1038 3666 1038 3163 
Q 1038 2656 1286 2365 
Q 1534 2075 1959 2075 
z
" id="DejaVuSans-39" transform="scale(0.015625)"/>
       </defs>
       <use xlink:href="#DejaVuSans-30"/>
       <use x="63.623047" xlink:href="#DejaVuSans-2e"/>
       <use x="95.410156" xlink:href="#DejaVuSans-38"/>
       <use x="159.033203" xlink:href="#DejaVuSans-32"/>
       <use x="222.65625" xlink:href="#DejaVuSans-39"/>
      </g>
     </g>
    </g>
    <g id="ytick_2">
     <g id="line2d_12">
      <path clip-path="url(#pb864a9cf97)" d="M 52.388688 136.41635 
L 415.737525 136.41635 
" style="fill:none;stroke:#ffffff;"/>
     </g>
     <g id="line2d_13">
      <path d="M 52.388688 136.41635 
" style="fill:none;stroke:#333333;stroke-width:1.5;"/>
      <g>
       <use style="fill:#333333;stroke:#000000;" x="52.388688" xlink:href="#m6002b43f1a" y="136.41635"/>
      </g>
     </g>
     <g id="text_2">
      <!-- 0.831 -->
      <g style="fill:#4d4d4d;" transform="translate(22.245938 138.8446)scale(0.088 -0.088)">
       <defs>
        <path d="M 2597 2516 
Q 3050 2419 3304 2112 
Q 3559 1806 3559 1356 
Q 3559 666 3084 287 
Q 2609 -91 1734 -91 
Q 1441 -91 1130 -33 
Q 819 25 488 141 
L 488 750 
Q 750 597 1062 519 
Q 1375 441 1716 441 
Q 2309 441 2620 675 
Q 2931 909 2931 1356 
Q 2931 1769 2642 2001 
Q 2353 2234 1838 2234 
L 1294 2234 
L 1294 2753 
L 1863 2753 
Q 2328 2753 2575 2939 
Q 2822 3125 2822 3475 
Q 2822 3834 2567 4026 
Q 2313 4219 1838 4219 
Q 1578 4219 1281 4162 
Q 984 4106 628 3988 
L 628 4550 
Q 988 4650 1302 4700 
Q 1616 4750 1894 4750 
Q 2613 4750 3031 4423 
Q 3450 4097 3450 3541 
Q 3450 3153 3228 2886 
Q 3006 2619 2597 2516 
z
" id="DejaVuSans-33" transform="scale(0.015625)"/>
        <path d="M 794 531 
L 1825 531 
L 1825 4091 
L 703 3866 
L 703 4441 
L 1819 4666 
L 2450 4666 
L 2450 531 
L 3481 531 
L 3481 0 
L 794 0 
L 794 531 
z
" id="DejaVuSans-31" transform="scale(0.015625)"/>
       </defs>
       <use xlink:href="#DejaVuSans-30"/>
       <use x="63.623047" xlink:href="#DejaVuSans-2e"/>
       <use x="95.410156" xlink:href="#DejaVuSans-38"/>
       <use x="159.033203" xlink:href="#DejaVuSans-33"/>
       <use x="222.65625" xlink:href="#DejaVuSans-31"/>
      </g>
     </g>
    </g>
    <g id="ytick_3">
     <g id="line2d_14">
      <path clip-path="url(#pb864a9cf97)" d="M 52.388688 82.742044 
L 415.737525 82.742044 
" style="fill:none;stroke:#ffffff;"/>
     </g>
     <g id="line2d_15">
      <path d="M 52.388688 82.742044 
" style="fill:none;stroke:#333333;stroke-width:1.5;"/>
      <g>
       <use style="fill:#333333;stroke:#000000;" x="52.388688" xlink:href="#m6002b43f1a" y="82.742044"/>
      </g>
     </g>
     <g id="text_3">
      <!-- 0.833 -->
      <g style="fill:#4d4d4d;" transform="translate(22.245938 85.170294)scale(0.088 -0.088)">
       <use xlink:href="#DejaVuSans-30"/>
       <use x="63.623047" xlink:href="#DejaVuSans-2e"/>
       <use x="95.410156" xlink:href="#DejaVuSans-38"/>
       <use x="159.033203" xlink:href="#DejaVuSans-33"/>
       <use x="222.65625" xlink:href="#DejaVuSans-33"/>
      </g>
     </g>
    </g>
    <g id="ytick_4">
     <g id="line2d_16">
      <path clip-path="url(#pb864a9cf97)" d="M 52.388688 29.067739 
L 415.737525 29.067739 
" style="fill:none;stroke:#ffffff;"/>
     </g>
     <g id="line2d_17">
      <path d="M 52.388688 29.067739 
" style="fill:none;stroke:#333333;stroke-width:1.5;"/>
      <g>
       <use style="fill:#333333;stroke:#000000;" x="52.388688" xlink:href="#m6002b43f1a" y="29.067739"/>
      </g>
     </g>
     <g id="text_4">
      <!-- 0.835 -->
      <g style="fill:#4d4d4d;" transform="translate(22.245938 31.495989)scale(0.088 -0.088)">
       <defs>
        <path d="M 691 4666 
L 3169 4666 
L 3169 4134 
L 1269 4134 
L 1269 2991 
Q 1406 3038 1543 3061 
Q 1681 3084 1819 3084 
Q 2600 3084 3056 2656 
Q 3513 2228 3513 1497 
Q 3513 744 3044 326 
Q 2575 -91 1722 -91 
Q 1428 -91 1123 -41 
Q 819 9 494 109 
L 494 744 
Q 775 591 1075 516 
Q 1375 441 1709 441 
Q 2250 441 2565 725 
Q 2881 1009 2881 1497 
Q 2881 1984 2565 2268 
Q 2250 2553 1709 2553 
Q 1456 2553 1204 2497 
Q 953 2441 691 2322 
L 691 4666 
z
" id="DejaVuSans-35" transform="scale(0.015625)"/>
       </defs>
       <use xlink:href="#DejaVuSans-30"/>
       <use x="63.623047" xlink:href="#DejaVuSans-2e"/>
       <use x="95.410156" xlink:href="#DejaVuSans-38"/>
       <use x="159.033203" xlink:href="#DejaVuSans-33"/>
       <use x="222.65625" xlink:href="#DejaVuSans-35"/>
      </g>
     </g>
    </g>
    <g id="ytick_5">
     <g id="line2d_18">
      <path clip-path="url(#pb864a9cf97)" d="M 52.388688 216.927808 
L 415.737525 216.927808 
" style="fill:none;stroke:#ffffff;stroke-width:0.5;"/>
     </g>
    </g>
    <g id="ytick_6">
     <g id="line2d_19">
      <path clip-path="url(#pb864a9cf97)" d="M 52.388688 163.253502 
L 415.737525 163.253502 
" style="fill:none;stroke:#ffffff;stroke-width:0.5;"/>
     </g>
    </g>
    <g id="ytick_7">
     <g id="line2d_20">
      <path clip-path="url(#pb864a9cf97)" d="M 52.388688 109.579197 
L 415.737525 109.579197 
" style="fill:none;stroke:#ffffff;stroke-width:0.5;"/>
     </g>
    </g>
    <g id="ytick_8">
     <g id="line2d_21">
      <path clip-path="url(#pb864a9cf97)" d="M 52.388688 55.904892 
L 415.737525 55.904892 
" style="fill:none;stroke:#ffffff;stroke-width:0.5;"/>
     </g>
    </g>
    <g id="text_5">
     <!-- Value -->
     <g transform="translate(15.558281 256.228457)rotate(-90)scale(0.11 -0.11)">
      <defs>
       <path d="M 1831 0 
L 50 4666 
L 709 4666 
L 2188 738 
L 3669 4666 
L 4325 4666 
L 2547 0 
L 1831 0 
z
" id="DejaVuSans-56" transform="scale(0.015625)"/>
       <path d="M 2194 1759 
Q 1497 1759 1228 1600 
Q 959 1441 959 1056 
Q 959 750 1161 570 
Q 1363 391 1709 391 
Q 2188 391 2477 730 
Q 2766 1069 2766 1631 
L 2766 1759 
L 2194 1759 
z
M 3341 1997 
L 3341 0 
L 2766 0 
L 2766 531 
Q 2569 213 2275 61 
Q 1981 -91 1556 -91 
Q 1019 -91 701 211 
Q 384 513 384 1019 
Q 384 1609 779 1909 
Q 1175 2209 1959 2209 
L 2766 2209 
L 2766 2266 
Q 2766 2663 2505 2880 
Q 2244 3097 1772 3097 
Q 1472 3097 1187 3025 
Q 903 2953 641 2809 
L 641 3341 
Q 956 3463 1253 3523 
Q 1550 3584 1831 3584 
Q 2591 3584 2966 3190 
Q 3341 2797 3341 1997 
z
" id="DejaVuSans-61" transform="scale(0.015625)"/>
       <path d="M 603 4863 
L 1178 4863 
L 1178 0 
L 603 0 
L 603 4863 
z
" id="DejaVuSans-6c" transform="scale(0.015625)"/>
       <path d="M 544 1381 
L 544 3500 
L 1119 3500 
L 1119 1403 
Q 1119 906 1312 657 
Q 1506 409 1894 409 
Q 2359 409 2629 706 
Q 2900 1003 2900 1516 
L 2900 3500 
L 3475 3500 
L 3475 0 
L 2900 0 
L 2900 538 
Q 2691 219 2414 64 
Q 2138 -91 1772 -91 
Q 1169 -91 856 284 
Q 544 659 544 1381 
z
M 1991 3584 
L 1991 3584 
z
" id="DejaVuSans-75" transform="scale(0.015625)"/>
       <path d="M 3597 1894 
L 3597 1613 
L 953 1613 
Q 991 1019 1311 708 
Q 1631 397 2203 397 
Q 2534 397 2845 478 
Q 3156 559 3463 722 
L 3463 178 
Q 3153 47 2828 -22 
Q 2503 -91 2169 -91 
Q 1331 -91 842 396 
Q 353 884 353 1716 
Q 353 2575 817 3079 
Q 1281 3584 2069 3584 
Q 2775 3584 3186 3129 
Q 3597 2675 3597 1894 
z
M 3022 2063 
Q 3016 2534 2758 2815 
Q 2500 3097 2075 3097 
Q 1594 3097 1305 2825 
Q 1016 2553 972 2059 
L 3022 2063 
z
" id="DejaVuSans-65" transform="scale(0.015625)"/>
      </defs>
      <use xlink:href="#DejaVuSans-56"/>
      <use x="60.658203" xlink:href="#DejaVuSans-61"/>
      <use x="121.9375" xlink:href="#DejaVuSans-6c"/>
      <use x="149.720703" xlink:href="#DejaVuSans-75"/>
      <use x="213.099609" xlink:href="#DejaVuSans-65"/>
     </g>
    </g>
   </g>
   <g id="line2d_22">
    <path clip-path="url(#pb864a9cf97)" d="M 68.904544 164.679115 
L 70.227135 139.018092 
L 71.880374 109.258434 
L 76.84009 115.139085 
L 85.106285 114.426279 
L 93.372479 95.893318 
L 101.638673 101.595768 
L 151.235839 128.326 
L 233.897782 109.258434 
L 399.221668 113.535271 
" style="fill:none;stroke:#000000;stroke-width:0.886227;"/>
   </g>
   <g id="PathCollection_1">
    <path clip-path="url(#pb864a9cf97)" d="M 68.904544 166.451569 
C 69.374604 166.451569 69.825475 166.264812 70.157858 165.932429 
C 70.490241 165.600046 70.676998 165.149175 70.676998 164.679115 
C 70.676998 164.209055 70.490241 163.758183 70.157858 163.425801 
C 69.825475 163.093418 69.374604 162.906661 68.904544 162.906661 
C 68.434483 162.906661 67.983612 163.093418 67.65123 163.425801 
C 67.318847 163.758183 67.13209 164.209055 67.13209 164.679115 
C 67.13209 165.149175 67.318847 165.600046 67.65123 165.932429 
C 67.983612 166.264812 68.434483 166.451569 68.904544 166.451569 
z
" style="stroke:#000000;stroke-width:0.886227;"/>
    <path clip-path="url(#pb864a9cf97)" d="M 70.227135 140.790546 
C 70.697195 140.790546 71.148066 140.603789 71.480449 140.271406 
C 71.812832 139.939024 71.999589 139.488153 71.999589 139.018092 
C 71.999589 138.548032 71.812832 138.097161 71.480449 137.764778 
C 71.148066 137.432395 70.697195 137.245638 70.227135 137.245638 
C 69.757075 137.245638 69.306203 137.432395 68.973821 137.764778 
C 68.641438 138.097161 68.454681 138.548032 68.454681 139.018092 
C 68.454681 139.488153 68.641438 139.939024 68.973821 140.271406 
C 69.306203 140.603789 69.757075 140.790546 70.227135 140.790546 
z
" style="stroke:#000000;stroke-width:0.886227;"/>
    <path clip-path="url(#pb864a9cf97)" d="M 71.880374 111.030888 
C 72.350434 111.030888 72.801305 110.844131 73.133688 110.511748 
C 73.466071 110.179366 73.652828 109.728495 73.652828 109.258434 
C 73.652828 108.788374 73.466071 108.337503 73.133688 108.00512 
C 72.801305 107.672737 72.350434 107.48598 71.880374 107.48598 
C 71.410313 107.48598 70.959442 107.672737 70.62706 108.00512 
C 70.294677 108.337503 70.10792 108.788374 70.10792 109.258434 
C 70.10792 109.728495 70.294677 110.179366 70.62706 110.511748 
C 70.959442 110.844131 71.410313 111.030888 71.880374 111.030888 
z
" style="stroke:#000000;stroke-width:0.886227;"/>
    <path clip-path="url(#pb864a9cf97)" d="M 76.84009 116.911539 
C 77.310151 116.911539 77.761022 116.724782 78.093404 116.392399 
C 78.425787 116.060017 78.612544 115.609146 78.612544 115.139085 
C 78.612544 114.669025 78.425787 114.218154 78.093404 113.885771 
C 77.761022 113.553388 77.310151 113.366631 76.84009 113.366631 
C 76.37003 113.366631 75.919159 113.553388 75.586776 113.885771 
C 75.254393 114.218154 75.067636 114.669025 75.067636 115.139085 
C 75.067636 115.609146 75.254393 116.060017 75.586776 116.392399 
C 75.919159 116.724782 76.37003 116.911539 76.84009 116.911539 
z
" style="stroke:#000000;stroke-width:0.886227;"/>
    <path clip-path="url(#pb864a9cf97)" d="M 85.106285 116.198733 
C 85.576345 116.198733 86.027216 116.011976 86.359599 115.679593 
C 86.691982 115.34721 86.878738 114.896339 86.878738 114.426279 
C 86.878738 113.956219 86.691982 113.505348 86.359599 113.172965 
C 86.027216 112.840582 85.576345 112.653825 85.106285 112.653825 
C 84.636224 112.653825 84.185353 112.840582 83.85297 113.172965 
C 83.520588 113.505348 83.333831 113.956219 83.333831 114.426279 
C 83.333831 114.896339 83.520588 115.34721 83.85297 115.679593 
C 84.185353 116.011976 84.636224 116.198733 85.106285 116.198733 
z
" style="stroke:#000000;stroke-width:0.886227;"/>
    <path clip-path="url(#pb864a9cf97)" d="M 93.372479 97.665772 
C 93.842539 97.665772 94.29341 97.479015 94.625793 97.146633 
C 94.958176 96.81425 95.144933 96.363379 95.144933 95.893318 
C 95.144933 95.423258 94.958176 94.972387 94.625793 94.640004 
C 94.29341 94.307621 93.842539 94.120865 93.372479 94.120865 
C 92.902419 94.120865 92.451548 94.307621 92.119165 94.640004 
C 91.786782 94.972387 91.600025 95.423258 91.600025 95.893318 
C 91.600025 96.363379 91.786782 96.81425 92.119165 97.146633 
C 92.451548 97.479015 92.902419 97.665772 93.372479 97.665772 
z
" style="stroke:#000000;stroke-width:0.886227;"/>
    <path clip-path="url(#pb864a9cf97)" d="M 101.638673 103.368222 
C 102.108733 103.368222 102.559605 103.181465 102.891987 102.849082 
C 103.22437 102.516699 103.411127 102.065828 103.411127 101.595768 
C 103.411127 101.125708 103.22437 100.674837 102.891987 100.342454 
C 102.559605 100.010071 102.108733 99.823314 101.638673 99.823314 
C 101.168613 99.823314 100.717742 100.010071 100.385359 100.342454 
C 100.052976 100.674837 99.866219 101.125708 99.866219 101.595768 
C 99.866219 102.065828 100.052976 102.516699 100.385359 102.849082 
C 100.717742 103.181465 101.168613 103.368222 101.638673 103.368222 
z
" style="stroke:#000000;stroke-width:0.886227;"/>
    <path clip-path="url(#pb864a9cf97)" d="M 151.235839 130.098453 
C 151.705899 130.098453 152.15677 129.911697 152.489153 129.579314 
C 152.821536 129.246931 153.008293 128.79606 153.008293 128.326 
C 153.008293 127.855939 152.821536 127.405068 152.489153 127.072685 
C 152.15677 126.740303 151.705899 126.553546 151.235839 126.553546 
C 150.765779 126.553546 150.314908 126.740303 149.982525 127.072685 
C 149.650142 127.405068 149.463385 127.855939 149.463385 128.326 
C 149.463385 128.79606 149.650142 129.246931 149.982525 129.579314 
C 150.314908 129.911697 150.765779 130.098453 151.235839 130.098453 
z
" style="stroke:#000000;stroke-width:0.886227;"/>
    <path clip-path="url(#pb864a9cf97)" d="M 233.897782 111.030888 
C 234.367842 111.030888 234.818714 110.844131 235.151096 110.511748 
C 235.483479 110.179366 235.670236 109.728495 235.670236 109.258434 
C 235.670236 108.788374 235.483479 108.337503 235.151096 108.00512 
C 234.818714 107.672737 234.367842 107.48598 233.897782 107.48598 
C 233.427722 107.48598 232.976851 107.672737 232.644468 108.00512 
C 232.312085 108.337503 232.125328 108.788374 232.125328 109.258434 
C 232.125328 109.728495 232.312085 110.179366 232.644468 110.511748 
C 232.976851 110.844131 233.427722 111.030888 233.897782 111.030888 
z
" style="stroke:#000000;stroke-width:0.886227;"/>
    <path clip-path="url(#pb864a9cf97)" d="M 399.221668 115.307725 
C 399.691729 115.307725 400.1426 115.120968 400.474983 114.788586 
C 400.807365 114.456203 400.994122 114.005332 400.994122 113.535271 
C 400.994122 113.065211 400.807365 112.61434 400.474983 112.281957 
C 400.1426 111.949574 399.691729 111.762818 399.221668 111.762818 
C 398.751608 111.762818 398.300737 111.949574 397.968354 112.281957 
C 397.635972 112.61434 397.449215 113.065211 397.449215 113.535271 
C 397.449215 114.005332 397.635972 114.456203 397.968354 114.788586 
C 398.300737 115.120968 398.751608 115.307725 399.221668 115.307725 
z
" style="stroke:#000000;stroke-width:0.886227;"/>
   </g>
   <g id="patch_3">
    <path d="M 52.388688 22.244082 
L 415.737525 22.244082 
L 415.737525 7.2 
L 52.388688 7.2 
z
" style="fill:#d9d9d9;"/>
   </g>
   <g id="PolyCollection_1">
    <path clip-path="url(#pb864a9cf97)" d="M 68.904544 104.664602 
L 68.904544 224.693628 
L 70.227135 196.581329 
L 71.880374 170.821588 
L 76.84009 161.804759 
L 85.106285 154.802203 
L 93.372479 142.418599 
L 101.638673 167.420437 
L 151.235839 186.487446 
L 233.897782 174.171022 
L 399.221668 195.186006 
L 399.221668 31.884537 
L 399.221668 31.884537 
L 233.897782 44.345846 
L 151.235839 70.164553 
L 101.638673 35.771098 
L 93.372479 49.368038 
L 85.106285 74.050355 
L 76.84009 68.473412 
L 71.880374 47.695281 
L 70.227135 81.454856 
L 68.904544 104.664602 
z
" style="fill:#333333;fill-opacity:0.501961;"/>
   </g>
   <g id="text_6">
    <!-- Accuracy -->
    <g style="fill:#1a1a1a;" transform="translate(213.974356 17.150291)scale(0.088 -0.088)">
     <defs>
      <path d="M 2188 4044 
L 1331 1722 
L 3047 1722 
L 2188 4044 
z
M 1831 4666 
L 2547 4666 
L 4325 0 
L 3669 0 
L 3244 1197 
L 1141 1197 
L 716 0 
L 50 0 
L 1831 4666 
z
" id="DejaVuSans-41" transform="scale(0.015625)"/>
      <path d="M 3122 3366 
L 3122 2828 
Q 2878 2963 2633 3030 
Q 2388 3097 2138 3097 
Q 1578 3097 1268 2742 
Q 959 2388 959 1747 
Q 959 1106 1268 751 
Q 1578 397 2138 397 
Q 2388 397 2633 464 
Q 2878 531 3122 666 
L 3122 134 
Q 2881 22 2623 -34 
Q 2366 -91 2075 -91 
Q 1284 -91 818 406 
Q 353 903 353 1747 
Q 353 2603 823 3093 
Q 1294 3584 2113 3584 
Q 2378 3584 2631 3529 
Q 2884 3475 3122 3366 
z
" id="DejaVuSans-63" transform="scale(0.015625)"/>
      <path d="M 2631 2963 
Q 2534 3019 2420 3045 
Q 2306 3072 2169 3072 
Q 1681 3072 1420 2755 
Q 1159 2438 1159 1844 
L 1159 0 
L 581 0 
L 581 3500 
L 1159 3500 
L 1159 2956 
Q 1341 3275 1631 3429 
Q 1922 3584 2338 3584 
Q 2397 3584 2469 3576 
Q 2541 3569 2628 3553 
L 2631 2963 
z
" id="DejaVuSans-72" transform="scale(0.015625)"/>
      <path d="M 2059 -325 
Q 1816 -950 1584 -1140 
Q 1353 -1331 966 -1331 
L 506 -1331 
L 506 -850 
L 844 -850 
Q 1081 -850 1212 -737 
Q 1344 -625 1503 -206 
L 1606 56 
L 191 3500 
L 800 3500 
L 1894 763 
L 2988 3500 
L 3597 3500 
L 2059 -325 
z
" id="DejaVuSans-79" transform="scale(0.015625)"/>
     </defs>
     <use xlink:href="#DejaVuSans-41"/>
     <use x="66.658203" xlink:href="#DejaVuSans-63"/>
     <use x="121.638672" xlink:href="#DejaVuSans-63"/>
     <use x="176.619141" xlink:href="#DejaVuSans-75"/>
     <use x="239.998047" xlink:href="#DejaVuSans-72"/>
     <use x="281.111328" xlink:href="#DejaVuSans-61"/>
     <use x="342.390625" xlink:href="#DejaVuSans-63"/>
     <use x="397.371094" xlink:href="#DejaVuSans-79"/>
    </g>
   </g>
  </g>
  <g id="axes_2">
   <g id="patch_4">
    <path d="M 470.23985 234.334082 
L 833.588688 234.334082 
L 833.588688 22.244082 
L 470.23985 22.244082 
z
" style="fill:#ebebeb;"/>
   </g>
   <g id="matplotlib.axis_3">
    <g id="xtick_10">
     <g id="line2d_23">
      <path clip-path="url(#p248da7bef2)" d="M 486.425059 234.334082 
L 486.425059 22.244082 
" style="fill:none;stroke:#ffffff;stroke-linecap:square;"/>
     </g>
    </g>
    <g id="xtick_11">
     <g id="line2d_24">
      <path clip-path="url(#p248da7bef2)" d="M 569.087002 234.334082 
L 569.087002 22.244082 
" style="fill:none;stroke:#ffffff;stroke-linecap:square;"/>
     </g>
    </g>
    <g id="xtick_12">
     <g id="line2d_25">
      <path clip-path="url(#p248da7bef2)" d="M 651.748945 234.334082 
L 651.748945 22.244082 
" style="fill:none;stroke:#ffffff;stroke-linecap:square;"/>
     </g>
    </g>
    <g id="xtick_13">
     <g id="line2d_26">
      <path clip-path="url(#p248da7bef2)" d="M 734.410888 234.334082 
L 734.410888 22.244082 
" style="fill:none;stroke:#ffffff;stroke-linecap:square;"/>
     </g>
    </g>
    <g id="xtick_14">
     <g id="line2d_27">
      <path clip-path="url(#p248da7bef2)" d="M 817.072831 234.334082 
L 817.072831 22.244082 
" style="fill:none;stroke:#ffffff;stroke-linecap:square;"/>
     </g>
    </g>
    <g id="xtick_15">
     <g id="line2d_28">
      <path clip-path="url(#p248da7bef2)" d="M 527.75603 234.334082 
L 527.75603 22.244082 
" style="fill:none;stroke:#ffffff;stroke-linecap:square;stroke-width:0.5;"/>
     </g>
    </g>
    <g id="xtick_16">
     <g id="line2d_29">
      <path clip-path="url(#p248da7bef2)" d="M 610.417973 234.334082 
L 610.417973 22.244082 
" style="fill:none;stroke:#ffffff;stroke-linecap:square;stroke-width:0.5;"/>
     </g>
    </g>
    <g id="xtick_17">
     <g id="line2d_30">
      <path clip-path="url(#p248da7bef2)" d="M 693.079917 234.334082 
L 693.079917 22.244082 
" style="fill:none;stroke:#ffffff;stroke-linecap:square;stroke-width:0.5;"/>
     </g>
    </g>
    <g id="xtick_18">
     <g id="line2d_31">
      <path clip-path="url(#p248da7bef2)" d="M 775.74186 234.334082 
L 775.74186 22.244082 
" style="fill:none;stroke:#ffffff;stroke-linecap:square;stroke-width:0.5;"/>
     </g>
    </g>
   </g>
   <g id="matplotlib.axis_4">
    <g id="ytick_9">
     <g id="line2d_32">
      <path clip-path="url(#p248da7bef2)" d="M 470.23985 223.606692 
L 833.588688 223.606692 
" style="fill:none;stroke:#ffffff;stroke-linecap:square;"/>
     </g>
     <g id="line2d_33">
      <path d="M 470.23985 223.606692 
" style="fill:none;stroke:#333333;stroke-linecap:square;stroke-width:1.5;"/>
      <g>
       <use style="fill:#333333;stroke:#000000;" x="470.23985" xlink:href="#m6002b43f1a" y="223.606692"/>
      </g>
     </g>
     <g id="text_7">
      <!-- 0.8750 -->
      <g style="fill:#4d4d4d;" transform="translate(434.4981 226.034942)scale(0.088 -0.088)">
       <defs>
        <path d="M 525 4666 
L 3525 4666 
L 3525 4397 
L 1831 0 
L 1172 0 
L 2766 4134 
L 525 4134 
L 525 4666 
z
" id="DejaVuSans-37" transform="scale(0.015625)"/>
       </defs>
       <use xlink:href="#DejaVuSans-30"/>
       <use x="63.623047" xlink:href="#DejaVuSans-2e"/>
       <use x="95.410156" xlink:href="#DejaVuSans-38"/>
       <use x="159.033203" xlink:href="#DejaVuSans-37"/>
       <use x="222.65625" xlink:href="#DejaVuSans-35"/>
       <use x="286.279297" xlink:href="#DejaVuSans-30"/>
      </g>
     </g>
    </g>
    <g id="ytick_10">
     <g id="line2d_34">
      <path clip-path="url(#p248da7bef2)" d="M 470.23985 171.526547 
L 833.588688 171.526547 
" style="fill:none;stroke:#ffffff;stroke-linecap:square;"/>
     </g>
     <g id="line2d_35">
      <path d="M 470.23985 171.526547 
" style="fill:none;stroke:#333333;stroke-linecap:square;stroke-width:1.5;"/>
      <g>
       <use style="fill:#333333;stroke:#000000;" x="470.23985" xlink:href="#m6002b43f1a" y="171.526547"/>
      </g>
     </g>
     <g id="text_8">
      <!-- 0.8775 -->
      <g style="fill:#4d4d4d;" transform="translate(434.4981 173.954797)scale(0.088 -0.088)">
       <use xlink:href="#DejaVuSans-30"/>
       <use x="63.623047" xlink:href="#DejaVuSans-2e"/>
       <use x="95.410156" xlink:href="#DejaVuSans-38"/>
       <use x="159.033203" xlink:href="#DejaVuSans-37"/>
       <use x="222.65625" xlink:href="#DejaVuSans-37"/>
       <use x="286.279297" xlink:href="#DejaVuSans-35"/>
      </g>
     </g>
    </g>
    <g id="ytick_11">
     <g id="line2d_36">
      <path clip-path="url(#p248da7bef2)" d="M 470.23985 119.446403 
L 833.588688 119.446403 
" style="fill:none;stroke:#ffffff;stroke-linecap:square;"/>
     </g>
     <g id="line2d_37">
      <path d="M 470.23985 119.446403 
" style="fill:none;stroke:#333333;stroke-linecap:square;stroke-width:1.5;"/>
      <g>
       <use style="fill:#333333;stroke:#000000;" x="470.23985" xlink:href="#m6002b43f1a" y="119.446403"/>
      </g>
     </g>
     <g id="text_9">
      <!-- 0.8800 -->
      <g style="fill:#4d4d4d;" transform="translate(434.4981 121.874653)scale(0.088 -0.088)">
       <use xlink:href="#DejaVuSans-30"/>
       <use x="63.623047" xlink:href="#DejaVuSans-2e"/>
       <use x="95.410156" xlink:href="#DejaVuSans-38"/>
       <use x="159.033203" xlink:href="#DejaVuSans-38"/>
       <use x="222.65625" xlink:href="#DejaVuSans-30"/>
       <use x="286.279297" xlink:href="#DejaVuSans-30"/>
      </g>
     </g>
    </g>
    <g id="ytick_12">
     <g id="line2d_38">
      <path clip-path="url(#p248da7bef2)" d="M 470.23985 67.366258 
L 833.588688 67.366258 
" style="fill:none;stroke:#ffffff;stroke-linecap:square;"/>
     </g>
     <g id="line2d_39">
      <path d="M 470.23985 67.366258 
" style="fill:none;stroke:#333333;stroke-linecap:square;stroke-width:1.5;"/>
      <g>
       <use style="fill:#333333;stroke:#000000;" x="470.23985" xlink:href="#m6002b43f1a" y="67.366258"/>
      </g>
     </g>
     <g id="text_10">
      <!-- 0.8825 -->
      <g style="fill:#4d4d4d;" transform="translate(434.4981 69.794508)scale(0.088 -0.088)">
       <use xlink:href="#DejaVuSans-30"/>
       <use x="63.623047" xlink:href="#DejaVuSans-2e"/>
       <use x="95.410156" xlink:href="#DejaVuSans-38"/>
       <use x="159.033203" xlink:href="#DejaVuSans-38"/>
       <use x="222.65625" xlink:href="#DejaVuSans-32"/>
       <use x="286.279297" xlink:href="#DejaVuSans-35"/>
      </g>
     </g>
    </g>
    <g id="ytick_13">
     <g id="line2d_40">
      <path clip-path="url(#p248da7bef2)" d="M 470.23985 197.56662 
L 833.588688 197.56662 
" style="fill:none;stroke:#ffffff;stroke-linecap:square;stroke-width:0.5;"/>
     </g>
    </g>
    <g id="ytick_14">
     <g id="line2d_41">
      <path clip-path="url(#p248da7bef2)" d="M 470.23985 145.486475 
L 833.588688 145.486475 
" style="fill:none;stroke:#ffffff;stroke-linecap:square;stroke-width:0.5;"/>
     </g>
    </g>
    <g id="ytick_15">
     <g id="line2d_42">
      <path clip-path="url(#p248da7bef2)" d="M 470.23985 93.40633 
L 833.588688 93.40633 
" style="fill:none;stroke:#ffffff;stroke-linecap:square;stroke-width:0.5;"/>
     </g>
    </g>
    <g id="ytick_16">
     <g id="line2d_43">
      <path clip-path="url(#p248da7bef2)" d="M 470.23985 41.326186 
L 833.588688 41.326186 
" style="fill:none;stroke:#ffffff;stroke-linecap:square;stroke-width:0.5;"/>
     </g>
    </g>
   </g>
   <g id="line2d_44">
    <path clip-path="url(#p248da7bef2)" d="M 486.755707 166.629859 
L 488.078298 119.43203 
L 489.731536 112.248137 
L 494.691253 101.733107 
L 502.957447 107.336778 
L 511.223642 82.607953 
L 519.489836 110.262891 
L 569.087002 107.582359 
L 651.748945 82.563669 
L 817.072831 128.88925 
" style="fill:none;stroke:#000000;stroke-width:0.886227;"/>
   </g>
   <g id="PathCollection_2">
    <path clip-path="url(#p248da7bef2)" d="M 486.755707 168.402313 
C 487.225767 168.402313 487.676638 168.215556 488.009021 167.883173 
C 488.341403 167.55079 488.52816 167.099919 488.52816 166.629859 
C 488.52816 166.159799 488.341403 165.708928 488.009021 165.376545 
C 487.676638 165.044162 487.225767 164.857405 486.755707 164.857405 
C 486.285646 164.857405 485.834775 165.044162 485.502392 165.376545 
C 485.17001 165.708928 484.983253 166.159799 484.983253 166.629859 
C 484.983253 167.099919 485.17001 167.55079 485.502392 167.883173 
C 485.834775 168.215556 486.285646 168.402313 486.755707 168.402313 
z
" style="stroke:#000000;stroke-width:0.886227;"/>
    <path clip-path="url(#p248da7bef2)" d="M 488.078298 121.204484 
C 488.548358 121.204484 488.999229 121.017727 489.331612 120.685344 
C 489.663995 120.352961 489.850751 119.90209 489.850751 119.43203 
C 489.850751 118.961969 489.663995 118.511098 489.331612 118.178716 
C 488.999229 117.846333 488.548358 117.659576 488.078298 117.659576 
C 487.608237 117.659576 487.157366 117.846333 486.824983 118.178716 
C 486.492601 118.511098 486.305844 118.961969 486.305844 119.43203 
C 486.305844 119.90209 486.492601 120.352961 486.824983 120.685344 
C 487.157366 121.017727 487.608237 121.204484 488.078298 121.204484 
z
" style="stroke:#000000;stroke-width:0.886227;"/>
    <path clip-path="url(#p248da7bef2)" d="M 489.731536 114.020591 
C 490.201597 114.020591 490.652468 113.833834 490.984851 113.501451 
C 491.317233 113.169068 491.50399 112.718197 491.50399 112.248137 
C 491.50399 111.778076 491.317233 111.327205 490.984851 110.994823 
C 490.652468 110.66244 490.201597 110.475683 489.731536 110.475683 
C 489.261476 110.475683 488.810605 110.66244 488.478222 110.994823 
C 488.14584 111.327205 487.959083 111.778076 487.959083 112.248137 
C 487.959083 112.718197 488.14584 113.169068 488.478222 113.501451 
C 488.810605 113.833834 489.261476 114.020591 489.731536 114.020591 
z
" style="stroke:#000000;stroke-width:0.886227;"/>
    <path clip-path="url(#p248da7bef2)" d="M 494.691253 103.505561 
C 495.161313 103.505561 495.612184 103.318804 495.944567 102.986421 
C 496.27695 102.654038 496.463707 102.203167 496.463707 101.733107 
C 496.463707 101.263047 496.27695 100.812176 495.944567 100.479793 
C 495.612184 100.14741 495.161313 99.960653 494.691253 99.960653 
C 494.221193 99.960653 493.770322 100.14741 493.437939 100.479793 
C 493.105556 100.812176 492.918799 101.263047 492.918799 101.733107 
C 492.918799 102.203167 493.105556 102.654038 493.437939 102.986421 
C 493.770322 103.318804 494.221193 103.505561 494.691253 103.505561 
z
" style="stroke:#000000;stroke-width:0.886227;"/>
    <path clip-path="url(#p248da7bef2)" d="M 502.957447 109.109232 
C 503.427508 109.109232 503.878379 108.922475 504.210762 108.590092 
C 504.543144 108.257709 504.729901 107.806838 504.729901 107.336778 
C 504.729901 106.866718 504.543144 106.415847 504.210762 106.083464 
C 503.878379 105.751081 503.427508 105.564324 502.957447 105.564324 
C 502.487387 105.564324 502.036516 105.751081 501.704133 106.083464 
C 501.37175 106.415847 501.184994 106.866718 501.184994 107.336778 
C 501.184994 107.806838 501.37175 108.257709 501.704133 108.590092 
C 502.036516 108.922475 502.487387 109.109232 502.957447 109.109232 
z
" style="stroke:#000000;stroke-width:0.886227;"/>
    <path clip-path="url(#p248da7bef2)" d="M 511.223642 84.380406 
C 511.693702 84.380406 512.144573 84.19365 512.476956 83.861267 
C 512.809339 83.528884 512.996096 83.078013 512.996096 82.607953 
C 512.996096 82.137892 512.809339 81.687021 512.476956 81.354638 
C 512.144573 81.022256 511.693702 80.835499 511.223642 80.835499 
C 510.753581 80.835499 510.30271 81.022256 509.970328 81.354638 
C 509.637945 81.687021 509.451188 82.137892 509.451188 82.607953 
C 509.451188 83.078013 509.637945 83.528884 509.970328 83.861267 
C 510.30271 84.19365 510.753581 84.380406 511.223642 84.380406 
z
" style="stroke:#000000;stroke-width:0.886227;"/>
    <path clip-path="url(#p248da7bef2)" d="M 519.489836 112.035345 
C 519.959896 112.035345 520.410767 111.848588 520.74315 111.516205 
C 521.075533 111.183822 521.26229 110.732951 521.26229 110.262891 
C 521.26229 109.792831 521.075533 109.34196 520.74315 109.009577 
C 520.410767 108.677194 519.959896 108.490437 519.489836 108.490437 
C 519.019776 108.490437 518.568905 108.677194 518.236522 109.009577 
C 517.904139 109.34196 517.717382 109.792831 517.717382 110.262891 
C 517.717382 110.732951 517.904139 111.183822 518.236522 111.516205 
C 518.568905 111.848588 519.019776 112.035345 519.489836 112.035345 
z
" style="stroke:#000000;stroke-width:0.886227;"/>
    <path clip-path="url(#p248da7bef2)" d="M 569.087002 109.354813 
C 569.557062 109.354813 570.007933 109.168056 570.340316 108.835674 
C 570.672699 108.503291 570.859456 108.05242 570.859456 107.582359 
C 570.859456 107.112299 570.672699 106.661428 570.340316 106.329045 
C 570.007933 105.996663 569.557062 105.809906 569.087002 105.809906 
C 568.616942 105.809906 568.166071 105.996663 567.833688 106.329045 
C 567.501305 106.661428 567.314548 107.112299 567.314548 107.582359 
C 567.314548 108.05242 567.501305 108.503291 567.833688 108.835674 
C 568.166071 109.168056 568.616942 109.354813 569.087002 109.354813 
z
" style="stroke:#000000;stroke-width:0.886227;"/>
    <path clip-path="url(#p248da7bef2)" d="M 651.748945 84.336122 
C 652.219005 84.336122 652.669876 84.149366 653.002259 83.816983 
C 653.334642 83.4846 653.521399 83.033729 653.521399 82.563669 
C 653.521399 82.093608 653.334642 81.642737 653.002259 81.310354 
C 652.669876 80.977972 652.219005 80.791215 651.748945 80.791215 
C 651.278885 80.791215 650.828014 80.977972 650.495631 81.310354 
C 650.163248 81.642737 649.976491 82.093608 649.976491 82.563669 
C 649.976491 83.033729 650.163248 83.4846 650.495631 83.816983 
C 650.828014 84.149366 651.278885 84.336122 651.748945 84.336122 
z
" style="stroke:#000000;stroke-width:0.886227;"/>
    <path clip-path="url(#p248da7bef2)" d="M 817.072831 130.661703 
C 817.542892 130.661703 817.993763 130.474947 818.326145 130.142564 
C 818.658528 129.810181 818.845285 129.35931 818.845285 128.88925 
C 818.845285 128.419189 818.658528 127.968318 818.326145 127.635936 
C 817.993763 127.303553 817.542892 127.116796 817.072831 127.116796 
C 816.602771 127.116796 816.1519 127.303553 815.819517 127.635936 
C 815.487134 127.968318 815.300377 128.419189 815.300377 128.88925 
C 815.300377 129.35931 815.487134 129.810181 815.819517 130.142564 
C 816.1519 130.474947 816.602771 130.661703 817.072831 130.661703 
z
" style="stroke:#000000;stroke-width:0.886227;"/>
   </g>
   <g id="patch_5">
    <path d="M 470.23985 22.244082 
L 833.588688 22.244082 
L 833.588688 7.2 
L 470.23985 7.2 
z
" style="fill:#d9d9d9;"/>
   </g>
   <g id="PolyCollection_2">
    <path clip-path="url(#p248da7bef2)" d="M 486.755707 108.56609 
L 486.755707 224.693628 
L 488.078298 171.412627 
L 489.731536 145.976171 
L 494.691253 157.181139 
L 502.957447 134.799642 
L 511.223642 133.331368 
L 519.489836 159.980602 
L 569.087002 160.718252 
L 651.748945 115.543578 
L 817.072831 183.176906 
L 817.072831 74.601594 
L 817.072831 74.601594 
L 651.748945 49.583759 
L 569.087002 54.446467 
L 519.489836 60.54518 
L 511.223642 31.884537 
L 502.957447 79.873914 
L 494.691253 46.285075 
L 489.731536 78.520102 
L 488.078298 67.451432 
L 486.755707 108.56609 
z
" style="fill:#333333;fill-opacity:0.501961;"/>
   </g>
   <g id="text_11">
    <!-- AUC -->
    <g style="fill:#1a1a1a;" transform="translate(642.611706 17.150291)scale(0.088 -0.088)">
     <defs>
      <path d="M 556 4666 
L 1191 4666 
L 1191 1831 
Q 1191 1081 1462 751 
Q 1734 422 2344 422 
Q 2950 422 3222 751 
Q 3494 1081 3494 1831 
L 3494 4666 
L 4128 4666 
L 4128 1753 
Q 4128 841 3676 375 
Q 3225 -91 2344 -91 
Q 1459 -91 1007 375 
Q 556 841 556 1753 
L 556 4666 
z
" id="DejaVuSans-55" transform="scale(0.015625)"/>
      <path d="M 4122 4306 
L 4122 3641 
Q 3803 3938 3442 4084 
Q 3081 4231 2675 4231 
Q 1875 4231 1450 3742 
Q 1025 3253 1025 2328 
Q 1025 1406 1450 917 
Q 1875 428 2675 428 
Q 3081 428 3442 575 
Q 3803 722 4122 1019 
L 4122 359 
Q 3791 134 3420 21 
Q 3050 -91 2638 -91 
Q 1578 -91 968 557 
Q 359 1206 359 2328 
Q 359 3453 968 4101 
Q 1578 4750 2638 4750 
Q 3056 4750 3426 4639 
Q 3797 4528 4122 4306 
z
" id="DejaVuSans-43" transform="scale(0.015625)"/>
     </defs>
     <use xlink:href="#DejaVuSans-41"/>
     <use x="68.408203" xlink:href="#DejaVuSans-55"/>
     <use x="141.601562" xlink:href="#DejaVuSans-43"/>
    </g>
   </g>
  </g>
  <g id="axes_3">
   <g id="patch_6">
    <path d="M 52.388688 465.764082 
L 415.737525 465.764082 
L 415.737525 253.674082 
L 52.388688 253.674082 
z
" style="fill:#ebebeb;"/>
   </g>
   <g id="matplotlib.axis_5">
    <g id="xtick_19">
     <g id="line2d_45">
      <path clip-path="url(#p02a24e1245)" d="M 68.573896 465.764082 
L 68.573896 253.674082 
" style="fill:none;stroke:#ffffff;stroke-linecap:square;"/>
     </g>
     <g id="line2d_46">
      <path d="M 68.573896 465.764082 
" style="fill:none;stroke:#333333;stroke-linecap:square;stroke-width:1.5;"/>
      <defs>
       <path d="M 0 0 
L 0 2.75 
" id="m021065c2e2" style="stroke:#000000;"/>
      </defs>
      <g>
       <use style="fill:#333333;stroke:#000000;" x="68.573896" xlink:href="#m021065c2e2" y="465.764082"/>
      </g>
     </g>
     <g id="text_12">
      <!-- 0 -->
      <g style="fill:#4d4d4d;" transform="translate(65.774396 477.400707)scale(0.088 -0.088)">
       <use xlink:href="#DejaVuSans-30"/>
      </g>
     </g>
    </g>
    <g id="xtick_20">
     <g id="line2d_47">
      <path clip-path="url(#p02a24e1245)" d="M 151.235839 465.764082 
L 151.235839 253.674082 
" style="fill:none;stroke:#ffffff;stroke-linecap:square;"/>
     </g>
     <g id="line2d_48">
      <path d="M 151.235839 465.764082 
" style="fill:none;stroke:#333333;stroke-linecap:square;stroke-width:1.5;"/>
      <g>
       <use style="fill:#333333;stroke:#000000;" x="151.235839" xlink:href="#m021065c2e2" y="465.764082"/>
      </g>
     </g>
     <g id="text_13">
      <!-- 2500 -->
      <g style="fill:#4d4d4d;" transform="translate(140.037839 477.400707)scale(0.088 -0.088)">
       <use xlink:href="#DejaVuSans-32"/>
       <use x="63.623047" xlink:href="#DejaVuSans-35"/>
       <use x="127.246094" xlink:href="#DejaVuSans-30"/>
       <use x="190.869141" xlink:href="#DejaVuSans-30"/>
      </g>
     </g>
    </g>
    <g id="xtick_21">
     <g id="line2d_49">
      <path clip-path="url(#p02a24e1245)" d="M 233.897782 465.764082 
L 233.897782 253.674082 
" style="fill:none;stroke:#ffffff;stroke-linecap:square;"/>
     </g>
     <g id="line2d_50">
      <path d="M 233.897782 465.764082 
" style="fill:none;stroke:#333333;stroke-linecap:square;stroke-width:1.5;"/>
      <g>
       <use style="fill:#333333;stroke:#000000;" x="233.897782" xlink:href="#m021065c2e2" y="465.764082"/>
      </g>
     </g>
     <g id="text_14">
      <!-- 5000 -->
      <g style="fill:#4d4d4d;" transform="translate(222.699782 477.400707)scale(0.088 -0.088)">
       <use xlink:href="#DejaVuSans-35"/>
       <use x="63.623047" xlink:href="#DejaVuSans-30"/>
       <use x="127.246094" xlink:href="#DejaVuSans-30"/>
       <use x="190.869141" xlink:href="#DejaVuSans-30"/>
      </g>
     </g>
    </g>
    <g id="xtick_22">
     <g id="line2d_51">
      <path clip-path="url(#p02a24e1245)" d="M 316.559725 465.764082 
L 316.559725 253.674082 
" style="fill:none;stroke:#ffffff;stroke-linecap:square;"/>
     </g>
     <g id="line2d_52">
      <path d="M 316.559725 465.764082 
" style="fill:none;stroke:#333333;stroke-linecap:square;stroke-width:1.5;"/>
      <g>
       <use style="fill:#333333;stroke:#000000;" x="316.559725" xlink:href="#m021065c2e2" y="465.764082"/>
      </g>
     </g>
     <g id="text_15">
      <!-- 7500 -->
      <g style="fill:#4d4d4d;" transform="translate(305.361725 477.400707)scale(0.088 -0.088)">
       <use xlink:href="#DejaVuSans-37"/>
       <use x="63.623047" xlink:href="#DejaVuSans-35"/>
       <use x="127.246094" xlink:href="#DejaVuSans-30"/>
       <use x="190.869141" xlink:href="#DejaVuSans-30"/>
      </g>
     </g>
    </g>
    <g id="xtick_23">
     <g id="line2d_53">
      <path clip-path="url(#p02a24e1245)" d="M 399.221668 465.764082 
L 399.221668 253.674082 
" style="fill:none;stroke:#ffffff;stroke-linecap:square;"/>
     </g>
     <g id="line2d_54">
      <path d="M 399.221668 465.764082 
" style="fill:none;stroke:#333333;stroke-linecap:square;stroke-width:1.5;"/>
      <g>
       <use style="fill:#333333;stroke:#000000;" x="399.221668" xlink:href="#m021065c2e2" y="465.764082"/>
      </g>
     </g>
     <g id="text_16">
      <!-- 10000 -->
      <g style="fill:#4d4d4d;" transform="translate(385.224168 477.400707)scale(0.088 -0.088)">
       <use xlink:href="#DejaVuSans-31"/>
       <use x="63.623047" xlink:href="#DejaVuSans-30"/>
       <use x="127.246094" xlink:href="#DejaVuSans-30"/>
       <use x="190.869141" xlink:href="#DejaVuSans-30"/>
       <use x="254.492188" xlink:href="#DejaVuSans-30"/>
      </g>
     </g>
    </g>
    <g id="xtick_24">
     <g id="line2d_55">
      <path clip-path="url(#p02a24e1245)" d="M 109.904868 465.764082 
L 109.904868 253.674082 
" style="fill:none;stroke:#ffffff;stroke-linecap:square;stroke-width:0.5;"/>
     </g>
    </g>
    <g id="xtick_25">
     <g id="line2d_56">
      <path clip-path="url(#p02a24e1245)" d="M 192.566811 465.764082 
L 192.566811 253.674082 
" style="fill:none;stroke:#ffffff;stroke-linecap:square;stroke-width:0.5;"/>
     </g>
    </g>
    <g id="xtick_26">
     <g id="line2d_57">
      <path clip-path="url(#p02a24e1245)" d="M 275.228754 465.764082 
L 275.228754 253.674082 
" style="fill:none;stroke:#ffffff;stroke-linecap:square;stroke-width:0.5;"/>
     </g>
    </g>
    <g id="xtick_27">
     <g id="line2d_58">
      <path clip-path="url(#p02a24e1245)" d="M 357.890697 465.764082 
L 357.890697 253.674082 
" style="fill:none;stroke:#ffffff;stroke-linecap:square;stroke-width:0.5;"/>
     </g>
    </g>
   </g>
   <g id="matplotlib.axis_6">
    <g id="ytick_17">
     <g id="line2d_59">
      <path clip-path="url(#p02a24e1245)" d="M 52.388688 460.43904 
L 415.737525 460.43904 
" style="fill:none;stroke:#ffffff;stroke-linecap:square;"/>
     </g>
     <g id="line2d_60">
      <path d="M 52.388688 460.43904 
" style="fill:none;stroke:#333333;stroke-linecap:square;stroke-width:1.5;"/>
      <g>
       <use style="fill:#333333;stroke:#000000;" x="52.388688" xlink:href="#m6002b43f1a" y="460.43904"/>
      </g>
     </g>
     <g id="text_17">
      <!-- 0.886 -->
      <g style="fill:#4d4d4d;" transform="translate(22.245938 462.86729)scale(0.088 -0.088)">
       <defs>
        <path d="M 2113 2584 
Q 1688 2584 1439 2293 
Q 1191 2003 1191 1497 
Q 1191 994 1439 701 
Q 1688 409 2113 409 
Q 2538 409 2786 701 
Q 3034 994 3034 1497 
Q 3034 2003 2786 2293 
Q 2538 2584 2113 2584 
z
M 3366 4563 
L 3366 3988 
Q 3128 4100 2886 4159 
Q 2644 4219 2406 4219 
Q 1781 4219 1451 3797 
Q 1122 3375 1075 2522 
Q 1259 2794 1537 2939 
Q 1816 3084 2150 3084 
Q 2853 3084 3261 2657 
Q 3669 2231 3669 1497 
Q 3669 778 3244 343 
Q 2819 -91 2113 -91 
Q 1303 -91 875 529 
Q 447 1150 447 2328 
Q 447 3434 972 4092 
Q 1497 4750 2381 4750 
Q 2619 4750 2861 4703 
Q 3103 4656 3366 4563 
z
" id="DejaVuSans-36" transform="scale(0.015625)"/>
       </defs>
       <use xlink:href="#DejaVuSans-30"/>
       <use x="63.623047" xlink:href="#DejaVuSans-2e"/>
       <use x="95.410156" xlink:href="#DejaVuSans-38"/>
       <use x="159.033203" xlink:href="#DejaVuSans-38"/>
       <use x="222.65625" xlink:href="#DejaVuSans-36"/>
      </g>
     </g>
    </g>
    <g id="ytick_18">
     <g id="line2d_61">
      <path clip-path="url(#p02a24e1245)" d="M 52.388688 399.281342 
L 415.737525 399.281342 
" style="fill:none;stroke:#ffffff;stroke-linecap:square;"/>
     </g>
     <g id="line2d_62">
      <path d="M 52.388688 399.281342 
" style="fill:none;stroke:#333333;stroke-linecap:square;stroke-width:1.5;"/>
      <g>
       <use style="fill:#333333;stroke:#000000;" x="52.388688" xlink:href="#m6002b43f1a" y="399.281342"/>
      </g>
     </g>
     <g id="text_18">
      <!-- 0.888 -->
      <g style="fill:#4d4d4d;" transform="translate(22.245938 401.709592)scale(0.088 -0.088)">
       <use xlink:href="#DejaVuSans-30"/>
       <use x="63.623047" xlink:href="#DejaVuSans-2e"/>
       <use x="95.410156" xlink:href="#DejaVuSans-38"/>
       <use x="159.033203" xlink:href="#DejaVuSans-38"/>
       <use x="222.65625" xlink:href="#DejaVuSans-38"/>
      </g>
     </g>
    </g>
    <g id="ytick_19">
     <g id="line2d_63">
      <path clip-path="url(#p02a24e1245)" d="M 52.388688 338.123645 
L 415.737525 338.123645 
" style="fill:none;stroke:#ffffff;stroke-linecap:square;"/>
     </g>
     <g id="line2d_64">
      <path d="M 52.388688 338.123645 
" style="fill:none;stroke:#333333;stroke-linecap:square;stroke-width:1.5;"/>
      <g>
       <use style="fill:#333333;stroke:#000000;" x="52.388688" xlink:href="#m6002b43f1a" y="338.123645"/>
      </g>
     </g>
     <g id="text_19">
      <!-- 0.890 -->
      <g style="fill:#4d4d4d;" transform="translate(22.245938 340.551895)scale(0.088 -0.088)">
       <use xlink:href="#DejaVuSans-30"/>
       <use x="63.623047" xlink:href="#DejaVuSans-2e"/>
       <use x="95.410156" xlink:href="#DejaVuSans-38"/>
       <use x="159.033203" xlink:href="#DejaVuSans-39"/>
       <use x="222.65625" xlink:href="#DejaVuSans-30"/>
      </g>
     </g>
    </g>
    <g id="ytick_20">
     <g id="line2d_65">
      <path clip-path="url(#p02a24e1245)" d="M 52.388688 276.965948 
L 415.737525 276.965948 
" style="fill:none;stroke:#ffffff;stroke-linecap:square;"/>
     </g>
     <g id="line2d_66">
      <path d="M 52.388688 276.965948 
" style="fill:none;stroke:#333333;stroke-linecap:square;stroke-width:1.5;"/>
      <g>
       <use style="fill:#333333;stroke:#000000;" x="52.388688" xlink:href="#m6002b43f1a" y="276.965948"/>
      </g>
     </g>
     <g id="text_20">
      <!-- 0.892 -->
      <g style="fill:#4d4d4d;" transform="translate(22.245938 279.394198)scale(0.088 -0.088)">
       <use xlink:href="#DejaVuSans-30"/>
       <use x="63.623047" xlink:href="#DejaVuSans-2e"/>
       <use x="95.410156" xlink:href="#DejaVuSans-38"/>
       <use x="159.033203" xlink:href="#DejaVuSans-39"/>
       <use x="222.65625" xlink:href="#DejaVuSans-32"/>
      </g>
     </g>
    </g>
    <g id="ytick_21">
     <g id="line2d_67">
      <path clip-path="url(#p02a24e1245)" d="M 52.388688 429.860191 
L 415.737525 429.860191 
" style="fill:none;stroke:#ffffff;stroke-linecap:square;stroke-width:0.5;"/>
     </g>
    </g>
    <g id="ytick_22">
     <g id="line2d_68">
      <path clip-path="url(#p02a24e1245)" d="M 52.388688 368.702494 
L 415.737525 368.702494 
" style="fill:none;stroke:#ffffff;stroke-linecap:square;stroke-width:0.5;"/>
     </g>
    </g>
    <g id="ytick_23">
     <g id="line2d_69">
      <path clip-path="url(#p02a24e1245)" d="M 52.388688 307.544797 
L 415.737525 307.544797 
" style="fill:none;stroke:#ffffff;stroke-linecap:square;stroke-width:0.5;"/>
     </g>
    </g>
   </g>
   <g id="line2d_70">
    <path clip-path="url(#p02a24e1245)" d="M 68.904544 384.941221 
L 70.227135 356.981914 
L 71.880374 334.979229 
L 76.84009 349.957001 
L 85.106285 341.819106 
L 93.372479 336.406806 
L 101.638673 330.309915 
L 151.235839 357.244911 
L 233.897782 342.714732 
L 399.221668 341.106242 
" style="fill:none;stroke:#000000;stroke-width:0.886227;"/>
   </g>
   <g id="PathCollection_3">
    <path clip-path="url(#p02a24e1245)" d="M 68.904544 386.713675 
C 69.374604 386.713675 69.825475 386.526918 70.157858 386.194535 
C 70.490241 385.862152 70.676998 385.411281 70.676998 384.941221 
C 70.676998 384.471161 70.490241 384.02029 70.157858 383.687907 
C 69.825475 383.355524 69.374604 383.168767 68.904544 383.168767 
C 68.434483 383.168767 67.983612 383.355524 67.65123 383.687907 
C 67.318847 384.02029 67.13209 384.471161 67.13209 384.941221 
C 67.13209 385.411281 67.318847 385.862152 67.65123 386.194535 
C 67.983612 386.526918 68.434483 386.713675 68.904544 386.713675 
z
" style="stroke:#000000;stroke-width:0.886227;"/>
    <path clip-path="url(#p02a24e1245)" d="M 70.227135 358.754368 
C 70.697195 358.754368 71.148066 358.567611 71.480449 358.235229 
C 71.812832 357.902846 71.999589 357.451975 71.999589 356.981914 
C 71.999589 356.511854 71.812832 356.060983 71.480449 355.7286 
C 71.148066 355.396218 70.697195 355.209461 70.227135 355.209461 
C 69.757075 355.209461 69.306203 355.396218 68.973821 355.7286 
C 68.641438 356.060983 68.454681 356.511854 68.454681 356.981914 
C 68.454681 357.451975 68.641438 357.902846 68.973821 358.235229 
C 69.306203 358.567611 69.757075 358.754368 70.227135 358.754368 
z
" style="stroke:#000000;stroke-width:0.886227;"/>
    <path clip-path="url(#p02a24e1245)" d="M 71.880374 336.751683 
C 72.350434 336.751683 72.801305 336.564926 73.133688 336.232543 
C 73.466071 335.90016 73.652828 335.449289 73.652828 334.979229 
C 73.652828 334.509169 73.466071 334.058298 73.133688 333.725915 
C 72.801305 333.393532 72.350434 333.206775 71.880374 333.206775 
C 71.410313 333.206775 70.959442 333.393532 70.62706 333.725915 
C 70.294677 334.058298 70.10792 334.509169 70.10792 334.979229 
C 70.10792 335.449289 70.294677 335.90016 70.62706 336.232543 
C 70.959442 336.564926 71.410313 336.751683 71.880374 336.751683 
z
" style="stroke:#000000;stroke-width:0.886227;"/>
    <path clip-path="url(#p02a24e1245)" d="M 76.84009 351.729454 
C 77.310151 351.729454 77.761022 351.542697 78.093404 351.210315 
C 78.425787 350.877932 78.612544 350.427061 78.612544 349.957001 
C 78.612544 349.48694 78.425787 349.036069 78.093404 348.703686 
C 77.761022 348.371304 77.310151 348.184547 76.84009 348.184547 
C 76.37003 348.184547 75.919159 348.371304 75.586776 348.703686 
C 75.254393 349.036069 75.067636 349.48694 75.067636 349.957001 
C 75.067636 350.427061 75.254393 350.877932 75.586776 351.210315 
C 75.919159 351.542697 76.37003 351.729454 76.84009 351.729454 
z
" style="stroke:#000000;stroke-width:0.886227;"/>
    <path clip-path="url(#p02a24e1245)" d="M 85.106285 343.59156 
C 85.576345 343.59156 86.027216 343.404803 86.359599 343.07242 
C 86.691982 342.740037 86.878738 342.289166 86.878738 341.819106 
C 86.878738 341.349045 86.691982 340.898174 86.359599 340.565792 
C 86.027216 340.233409 85.576345 340.046652 85.106285 340.046652 
C 84.636224 340.046652 84.185353 340.233409 83.85297 340.565792 
C 83.520588 340.898174 83.333831 341.349045 83.333831 341.819106 
C 83.333831 342.289166 83.520588 342.740037 83.85297 343.07242 
C 84.185353 343.404803 84.636224 343.59156 85.106285 343.59156 
z
" style="stroke:#000000;stroke-width:0.886227;"/>
    <path clip-path="url(#p02a24e1245)" d="M 93.372479 338.17926 
C 93.842539 338.17926 94.29341 337.992503 94.625793 337.66012 
C 94.958176 337.327737 95.144933 336.876866 95.144933 336.406806 
C 95.144933 335.936746 94.958176 335.485875 94.625793 335.153492 
C 94.29341 334.821109 93.842539 334.634352 93.372479 334.634352 
C 92.902419 334.634352 92.451548 334.821109 92.119165 335.153492 
C 91.786782 335.485875 91.600025 335.936746 91.600025 336.406806 
C 91.600025 336.876866 91.786782 337.327737 92.119165 337.66012 
C 92.451548 337.992503 92.902419 338.17926 93.372479 338.17926 
z
" style="stroke:#000000;stroke-width:0.886227;"/>
    <path clip-path="url(#p02a24e1245)" d="M 101.638673 332.082369 
C 102.108733 332.082369 102.559605 331.895612 102.891987 331.56323 
C 103.22437 331.230847 103.411127 330.779976 103.411127 330.309915 
C 103.411127 329.839855 103.22437 329.388984 102.891987 329.056601 
C 102.559605 328.724218 102.108733 328.537462 101.638673 328.537462 
C 101.168613 328.537462 100.717742 328.724218 100.385359 329.056601 
C 100.052976 329.388984 99.866219 329.839855 99.866219 330.309915 
C 99.866219 330.779976 100.052976 331.230847 100.385359 331.56323 
C 100.717742 331.895612 101.168613 332.082369 101.638673 332.082369 
z
" style="stroke:#000000;stroke-width:0.886227;"/>
    <path clip-path="url(#p02a24e1245)" d="M 151.235839 359.017365 
C 151.705899 359.017365 152.15677 358.830608 152.489153 358.498225 
C 152.821536 358.165842 153.008293 357.714971 153.008293 357.244911 
C 153.008293 356.77485 152.821536 356.323979 152.489153 355.991597 
C 152.15677 355.659214 151.705899 355.472457 151.235839 355.472457 
C 150.765779 355.472457 150.314908 355.659214 149.982525 355.991597 
C 149.650142 356.323979 149.463385 356.77485 149.463385 357.244911 
C 149.463385 357.714971 149.650142 358.165842 149.982525 358.498225 
C 150.314908 358.830608 150.765779 359.017365 151.235839 359.017365 
z
" style="stroke:#000000;stroke-width:0.886227;"/>
    <path clip-path="url(#p02a24e1245)" d="M 233.897782 344.487186 
C 234.367842 344.487186 234.818714 344.300429 235.151096 343.968046 
C 235.483479 343.635664 235.670236 343.184792 235.670236 342.714732 
C 235.670236 342.244672 235.483479 341.793801 235.151096 341.461418 
C 234.818714 341.129035 234.367842 340.942278 233.897782 340.942278 
C 233.427722 340.942278 232.976851 341.129035 232.644468 341.461418 
C 232.312085 341.793801 232.125328 342.244672 232.125328 342.714732 
C 232.125328 343.184792 232.312085 343.635664 232.644468 343.968046 
C 232.976851 344.300429 233.427722 344.487186 233.897782 344.487186 
z
" style="stroke:#000000;stroke-width:0.886227;"/>
    <path clip-path="url(#p02a24e1245)" d="M 399.221668 342.878695 
C 399.691729 342.878695 400.1426 342.691938 400.474983 342.359556 
C 400.807365 342.027173 400.994122 341.576302 400.994122 341.106242 
C 400.994122 340.636181 400.807365 340.18531 400.474983 339.852927 
C 400.1426 339.520545 399.691729 339.333788 399.221668 339.333788 
C 398.751608 339.333788 398.300737 339.520545 397.968354 339.852927 
C 397.635972 340.18531 397.449215 340.636181 397.449215 341.106242 
C 397.449215 341.576302 397.635972 342.027173 397.968354 342.359556 
C 398.300737 342.691938 398.751608 342.878695 399.221668 342.878695 
z
" style="stroke:#000000;stroke-width:0.886227;"/>
   </g>
   <g id="patch_7">
    <path d="M 52.388688 253.674082 
L 415.737525 253.674082 
L 415.737525 238.63 
L 52.388688 238.63 
z
" style="fill:#d9d9d9;"/>
   </g>
   <g id="PolyCollection_3">
    <path clip-path="url(#p02a24e1245)" d="M 68.904544 313.758814 
L 68.904544 456.123628 
L 70.227135 406.902787 
L 71.880374 391.171089 
L 76.84009 399.224798 
L 85.106285 391.037707 
L 93.372479 383.614974 
L 101.638673 391.027315 
L 151.235839 420.184635 
L 233.897782 410.504389 
L 399.221668 418.897946 
L 399.221668 263.314537 
L 399.221668 263.314537 
L 233.897782 274.925075 
L 151.235839 294.305186 
L 101.638673 269.592516 
L 93.372479 289.198638 
L 85.106285 292.600505 
L 76.84009 300.689204 
L 71.880374 278.787369 
L 70.227135 307.061042 
L 68.904544 313.758814 
z
" style="fill:#333333;fill-opacity:0.501961;"/>
   </g>
   <g id="text_21">
    <!-- F1 score: &lt;=50K -->
    <g style="fill:#1a1a1a;" transform="translate(196.774481 248.580291)scale(0.088 -0.088)">
     <defs>
      <path d="M 628 4666 
L 3309 4666 
L 3309 4134 
L 1259 4134 
L 1259 2759 
L 3109 2759 
L 3109 2228 
L 1259 2228 
L 1259 0 
L 628 0 
L 628 4666 
z
" id="DejaVuSans-46" transform="scale(0.015625)"/>
      <path id="DejaVuSans-20" transform="scale(0.015625)"/>
      <path d="M 2834 3397 
L 2834 2853 
Q 2591 2978 2328 3040 
Q 2066 3103 1784 3103 
Q 1356 3103 1142 2972 
Q 928 2841 928 2578 
Q 928 2378 1081 2264 
Q 1234 2150 1697 2047 
L 1894 2003 
Q 2506 1872 2764 1633 
Q 3022 1394 3022 966 
Q 3022 478 2636 193 
Q 2250 -91 1575 -91 
Q 1294 -91 989 -36 
Q 684 19 347 128 
L 347 722 
Q 666 556 975 473 
Q 1284 391 1588 391 
Q 1994 391 2212 530 
Q 2431 669 2431 922 
Q 2431 1156 2273 1281 
Q 2116 1406 1581 1522 
L 1381 1569 
Q 847 1681 609 1914 
Q 372 2147 372 2553 
Q 372 3047 722 3315 
Q 1072 3584 1716 3584 
Q 2034 3584 2315 3537 
Q 2597 3491 2834 3397 
z
" id="DejaVuSans-73" transform="scale(0.015625)"/>
      <path d="M 1959 3097 
Q 1497 3097 1228 2736 
Q 959 2375 959 1747 
Q 959 1119 1226 758 
Q 1494 397 1959 397 
Q 2419 397 2687 759 
Q 2956 1122 2956 1747 
Q 2956 2369 2687 2733 
Q 2419 3097 1959 3097 
z
M 1959 3584 
Q 2709 3584 3137 3096 
Q 3566 2609 3566 1747 
Q 3566 888 3137 398 
Q 2709 -91 1959 -91 
Q 1206 -91 779 398 
Q 353 888 353 1747 
Q 353 2609 779 3096 
Q 1206 3584 1959 3584 
z
" id="DejaVuSans-6f" transform="scale(0.015625)"/>
      <path d="M 750 794 
L 1409 794 
L 1409 0 
L 750 0 
L 750 794 
z
M 750 3309 
L 1409 3309 
L 1409 2516 
L 750 2516 
L 750 3309 
z
" id="DejaVuSans-3a" transform="scale(0.015625)"/>
      <path d="M 4684 3150 
L 1459 2003 
L 4684 863 
L 4684 294 
L 678 1747 
L 678 2266 
L 4684 3719 
L 4684 3150 
z
" id="DejaVuSans-3c" transform="scale(0.015625)"/>
      <path d="M 678 2906 
L 4684 2906 
L 4684 2381 
L 678 2381 
L 678 2906 
z
M 678 1631 
L 4684 1631 
L 4684 1100 
L 678 1100 
L 678 1631 
z
" id="DejaVuSans-3d" transform="scale(0.015625)"/>
      <path d="M 628 4666 
L 1259 4666 
L 1259 2694 
L 3353 4666 
L 4166 4666 
L 1850 2491 
L 4331 0 
L 3500 0 
L 1259 2247 
L 1259 0 
L 628 0 
L 628 4666 
z
" id="DejaVuSans-4b" transform="scale(0.015625)"/>
     </defs>
     <use xlink:href="#DejaVuSans-46"/>
     <use x="57.519531" xlink:href="#DejaVuSans-31"/>
     <use x="121.142578" xlink:href="#DejaVuSans-20"/>
     <use x="152.929688" xlink:href="#DejaVuSans-73"/>
     <use x="205.029297" xlink:href="#DejaVuSans-63"/>
     <use x="260.009766" xlink:href="#DejaVuSans-6f"/>
     <use x="321.191406" xlink:href="#DejaVuSans-72"/>
     <use x="360.054688" xlink:href="#DejaVuSans-65"/>
     <use x="421.578125" xlink:href="#DejaVuSans-3a"/>
     <use x="455.269531" xlink:href="#DejaVuSans-20"/>
     <use x="487.056641" xlink:href="#DejaVuSans-3c"/>
     <use x="570.845703" xlink:href="#DejaVuSans-3d"/>
     <use x="654.634766" xlink:href="#DejaVuSans-35"/>
     <use x="718.257812" xlink:href="#DejaVuSans-30"/>
     <use x="781.880859" xlink:href="#DejaVuSans-4b"/>
    </g>
   </g>
  </g>
  <g id="axes_4">
   <g id="patch_8">
    <path d="M 470.23985 465.764082 
L 833.588688 465.764082 
L 833.588688 253.674082 
L 470.23985 253.674082 
z
" style="fill:#ebebeb;"/>
   </g>
   <g id="matplotlib.axis_7">
    <g id="xtick_28">
     <g id="line2d_71">
      <path clip-path="url(#pbdbb01f634)" d="M 486.425059 465.764082 
L 486.425059 253.674082 
" style="fill:none;stroke:#ffffff;stroke-linecap:square;"/>
     </g>
     <g id="line2d_72">
      <path d="M 486.425059 465.764082 
" style="fill:none;stroke:#333333;stroke-linecap:square;stroke-width:1.5;"/>
      <g>
       <use style="fill:#333333;stroke:#000000;" x="486.425059" xlink:href="#m021065c2e2" y="465.764082"/>
      </g>
     </g>
     <g id="text_22">
      <!-- 0 -->
      <g style="fill:#4d4d4d;" transform="translate(483.625559 477.400707)scale(0.088 -0.088)">
       <use xlink:href="#DejaVuSans-30"/>
      </g>
     </g>
    </g>
    <g id="xtick_29">
     <g id="line2d_73">
      <path clip-path="url(#pbdbb01f634)" d="M 569.087002 465.764082 
L 569.087002 253.674082 
" style="fill:none;stroke:#ffffff;stroke-linecap:square;"/>
     </g>
     <g id="line2d_74">
      <path d="M 569.087002 465.764082 
" style="fill:none;stroke:#333333;stroke-linecap:square;stroke-width:1.5;"/>
      <g>
       <use style="fill:#333333;stroke:#000000;" x="569.087002" xlink:href="#m021065c2e2" y="465.764082"/>
      </g>
     </g>
     <g id="text_23">
      <!-- 2500 -->
      <g style="fill:#4d4d4d;" transform="translate(557.889002 477.400707)scale(0.088 -0.088)">
       <use xlink:href="#DejaVuSans-32"/>
       <use x="63.623047" xlink:href="#DejaVuSans-35"/>
       <use x="127.246094" xlink:href="#DejaVuSans-30"/>
       <use x="190.869141" xlink:href="#DejaVuSans-30"/>
      </g>
     </g>
    </g>
    <g id="xtick_30">
     <g id="line2d_75">
      <path clip-path="url(#pbdbb01f634)" d="M 651.748945 465.764082 
L 651.748945 253.674082 
" style="fill:none;stroke:#ffffff;stroke-linecap:square;"/>
     </g>
     <g id="line2d_76">
      <path d="M 651.748945 465.764082 
" style="fill:none;stroke:#333333;stroke-linecap:square;stroke-width:1.5;"/>
      <g>
       <use style="fill:#333333;stroke:#000000;" x="651.748945" xlink:href="#m021065c2e2" y="465.764082"/>
      </g>
     </g>
     <g id="text_24">
      <!-- 5000 -->
      <g style="fill:#4d4d4d;" transform="translate(640.550945 477.400707)scale(0.088 -0.088)">
       <use xlink:href="#DejaVuSans-35"/>
       <use x="63.623047" xlink:href="#DejaVuSans-30"/>
       <use x="127.246094" xlink:href="#DejaVuSans-30"/>
       <use x="190.869141" xlink:href="#DejaVuSans-30"/>
      </g>
     </g>
    </g>
    <g id="xtick_31">
     <g id="line2d_77">
      <path clip-path="url(#pbdbb01f634)" d="M 734.410888 465.764082 
L 734.410888 253.674082 
" style="fill:none;stroke:#ffffff;stroke-linecap:square;"/>
     </g>
     <g id="line2d_78">
      <path d="M 734.410888 465.764082 
" style="fill:none;stroke:#333333;stroke-linecap:square;stroke-width:1.5;"/>
      <g>
       <use style="fill:#333333;stroke:#000000;" x="734.410888" xlink:href="#m021065c2e2" y="465.764082"/>
      </g>
     </g>
     <g id="text_25">
      <!-- 7500 -->
      <g style="fill:#4d4d4d;" transform="translate(723.212888 477.400707)scale(0.088 -0.088)">
       <use xlink:href="#DejaVuSans-37"/>
       <use x="63.623047" xlink:href="#DejaVuSans-35"/>
       <use x="127.246094" xlink:href="#DejaVuSans-30"/>
       <use x="190.869141" xlink:href="#DejaVuSans-30"/>
      </g>
     </g>
    </g>
    <g id="xtick_32">
     <g id="line2d_79">
      <path clip-path="url(#pbdbb01f634)" d="M 817.072831 465.764082 
L 817.072831 253.674082 
" style="fill:none;stroke:#ffffff;stroke-linecap:square;"/>
     </g>
     <g id="line2d_80">
      <path d="M 817.072831 465.764082 
" style="fill:none;stroke:#333333;stroke-linecap:square;stroke-width:1.5;"/>
      <g>
       <use style="fill:#333333;stroke:#000000;" x="817.072831" xlink:href="#m021065c2e2" y="465.764082"/>
      </g>
     </g>
     <g id="text_26">
      <!-- 10000 -->
      <g style="fill:#4d4d4d;" transform="translate(803.075331 477.400707)scale(0.088 -0.088)">
       <use xlink:href="#DejaVuSans-31"/>
       <use x="63.623047" xlink:href="#DejaVuSans-30"/>
       <use x="127.246094" xlink:href="#DejaVuSans-30"/>
       <use x="190.869141" xlink:href="#DejaVuSans-30"/>
       <use x="254.492188" xlink:href="#DejaVuSans-30"/>
      </g>
     </g>
    </g>
    <g id="xtick_33">
     <g id="line2d_81">
      <path clip-path="url(#pbdbb01f634)" d="M 527.75603 465.764082 
L 527.75603 253.674082 
" style="fill:none;stroke:#ffffff;stroke-linecap:square;stroke-width:0.5;"/>
     </g>
    </g>
    <g id="xtick_34">
     <g id="line2d_82">
      <path clip-path="url(#pbdbb01f634)" d="M 610.417973 465.764082 
L 610.417973 253.674082 
" style="fill:none;stroke:#ffffff;stroke-linecap:square;stroke-width:0.5;"/>
     </g>
    </g>
    <g id="xtick_35">
     <g id="line2d_83">
      <path clip-path="url(#pbdbb01f634)" d="M 693.079917 465.764082 
L 693.079917 253.674082 
" style="fill:none;stroke:#ffffff;stroke-linecap:square;stroke-width:0.5;"/>
     </g>
    </g>
    <g id="xtick_36">
     <g id="line2d_84">
      <path clip-path="url(#pbdbb01f634)" d="M 775.74186 465.764082 
L 775.74186 253.674082 
" style="fill:none;stroke:#ffffff;stroke-linecap:square;stroke-width:0.5;"/>
     </g>
    </g>
    <g id="text_27">
     <!-- N quantiles int -->
     <g transform="translate(390.313453 491.989114)scale(0.11 -0.11)">
      <defs>
       <path d="M 628 4666 
L 1478 4666 
L 3547 763 
L 3547 4666 
L 4159 4666 
L 4159 0 
L 3309 0 
L 1241 3903 
L 1241 0 
L 628 0 
L 628 4666 
z
" id="DejaVuSans-4e" transform="scale(0.015625)"/>
       <path d="M 947 1747 
Q 947 1113 1208 752 
Q 1469 391 1925 391 
Q 2381 391 2643 752 
Q 2906 1113 2906 1747 
Q 2906 2381 2643 2742 
Q 2381 3103 1925 3103 
Q 1469 3103 1208 2742 
Q 947 2381 947 1747 
z
M 2906 525 
Q 2725 213 2448 61 
Q 2172 -91 1784 -91 
Q 1150 -91 751 415 
Q 353 922 353 1747 
Q 353 2572 751 3078 
Q 1150 3584 1784 3584 
Q 2172 3584 2448 3432 
Q 2725 3281 2906 2969 
L 2906 3500 
L 3481 3500 
L 3481 -1331 
L 2906 -1331 
L 2906 525 
z
" id="DejaVuSans-71" transform="scale(0.015625)"/>
       <path d="M 3513 2113 
L 3513 0 
L 2938 0 
L 2938 2094 
Q 2938 2591 2744 2837 
Q 2550 3084 2163 3084 
Q 1697 3084 1428 2787 
Q 1159 2491 1159 1978 
L 1159 0 
L 581 0 
L 581 3500 
L 1159 3500 
L 1159 2956 
Q 1366 3272 1645 3428 
Q 1925 3584 2291 3584 
Q 2894 3584 3203 3211 
Q 3513 2838 3513 2113 
z
" id="DejaVuSans-6e" transform="scale(0.015625)"/>
       <path d="M 1172 4494 
L 1172 3500 
L 2356 3500 
L 2356 3053 
L 1172 3053 
L 1172 1153 
Q 1172 725 1289 603 
Q 1406 481 1766 481 
L 2356 481 
L 2356 0 
L 1766 0 
Q 1100 0 847 248 
Q 594 497 594 1153 
L 594 3053 
L 172 3053 
L 172 3500 
L 594 3500 
L 594 4494 
L 1172 4494 
z
" id="DejaVuSans-74" transform="scale(0.015625)"/>
       <path d="M 603 3500 
L 1178 3500 
L 1178 0 
L 603 0 
L 603 3500 
z
M 603 4863 
L 1178 4863 
L 1178 4134 
L 603 4134 
L 603 4863 
z
" id="DejaVuSans-69" transform="scale(0.015625)"/>
      </defs>
      <use xlink:href="#DejaVuSans-4e"/>
      <use x="74.804688" xlink:href="#DejaVuSans-20"/>
      <use x="106.591797" xlink:href="#DejaVuSans-71"/>
      <use x="170.068359" xlink:href="#DejaVuSans-75"/>
      <use x="233.447266" xlink:href="#DejaVuSans-61"/>
      <use x="294.726562" xlink:href="#DejaVuSans-6e"/>
      <use x="358.105469" xlink:href="#DejaVuSans-74"/>
      <use x="397.314453" xlink:href="#DejaVuSans-69"/>
      <use x="425.097656" xlink:href="#DejaVuSans-6c"/>
      <use x="452.880859" xlink:href="#DejaVuSans-65"/>
      <use x="514.404297" xlink:href="#DejaVuSans-73"/>
      <use x="566.503906" xlink:href="#DejaVuSans-20"/>
      <use x="598.291016" xlink:href="#DejaVuSans-69"/>
      <use x="626.074219" xlink:href="#DejaVuSans-6e"/>
      <use x="689.453125" xlink:href="#DejaVuSans-74"/>
     </g>
    </g>
   </g>
   <g id="matplotlib.axis_8">
    <g id="ytick_24">
     <g id="line2d_85">
      <path clip-path="url(#pbdbb01f634)" d="M 470.23985 449.85035 
L 833.588688 449.85035 
" style="fill:none;stroke:#ffffff;stroke-linecap:square;"/>
     </g>
     <g id="line2d_86">
      <path d="M 470.23985 449.85035 
" style="fill:none;stroke:#333333;stroke-linecap:square;stroke-width:1.5;"/>
      <g>
       <use style="fill:#333333;stroke:#000000;" x="470.23985" xlink:href="#m6002b43f1a" y="449.85035"/>
      </g>
     </g>
     <g id="text_28">
      <!-- 0.635 -->
      <g style="fill:#4d4d4d;" transform="translate(440.0971 452.2786)scale(0.088 -0.088)">
       <use xlink:href="#DejaVuSans-30"/>
       <use x="63.623047" xlink:href="#DejaVuSans-2e"/>
       <use x="95.410156" xlink:href="#DejaVuSans-36"/>
       <use x="159.033203" xlink:href="#DejaVuSans-33"/>
       <use x="222.65625" xlink:href="#DejaVuSans-35"/>
      </g>
     </g>
    </g>
    <g id="ytick_25">
     <g id="line2d_87">
      <path clip-path="url(#pbdbb01f634)" d="M 470.23985 400.619935 
L 833.588688 400.619935 
" style="fill:none;stroke:#ffffff;stroke-linecap:square;"/>
     </g>
     <g id="line2d_88">
      <path d="M 470.23985 400.619935 
" style="fill:none;stroke:#333333;stroke-linecap:square;stroke-width:1.5;"/>
      <g>
       <use style="fill:#333333;stroke:#000000;" x="470.23985" xlink:href="#m6002b43f1a" y="400.619935"/>
      </g>
     </g>
     <g id="text_29">
      <!-- 0.640 -->
      <g style="fill:#4d4d4d;" transform="translate(440.0971 403.048185)scale(0.088 -0.088)">
       <defs>
        <path d="M 2419 4116 
L 825 1625 
L 2419 1625 
L 2419 4116 
z
M 2253 4666 
L 3047 4666 
L 3047 1625 
L 3713 1625 
L 3713 1100 
L 3047 1100 
L 3047 0 
L 2419 0 
L 2419 1100 
L 313 1100 
L 313 1709 
L 2253 4666 
z
" id="DejaVuSans-34" transform="scale(0.015625)"/>
       </defs>
       <use xlink:href="#DejaVuSans-30"/>
       <use x="63.623047" xlink:href="#DejaVuSans-2e"/>
       <use x="95.410156" xlink:href="#DejaVuSans-36"/>
       <use x="159.033203" xlink:href="#DejaVuSans-34"/>
       <use x="222.65625" xlink:href="#DejaVuSans-30"/>
      </g>
     </g>
    </g>
    <g id="ytick_26">
     <g id="line2d_89">
      <path clip-path="url(#pbdbb01f634)" d="M 470.23985 351.389519 
L 833.588688 351.389519 
" style="fill:none;stroke:#ffffff;stroke-linecap:square;"/>
     </g>
     <g id="line2d_90">
      <path d="M 470.23985 351.389519 
" style="fill:none;stroke:#333333;stroke-linecap:square;stroke-width:1.5;"/>
      <g>
       <use style="fill:#333333;stroke:#000000;" x="470.23985" xlink:href="#m6002b43f1a" y="351.389519"/>
      </g>
     </g>
     <g id="text_30">
      <!-- 0.645 -->
      <g style="fill:#4d4d4d;" transform="translate(440.0971 353.817769)scale(0.088 -0.088)">
       <use xlink:href="#DejaVuSans-30"/>
       <use x="63.623047" xlink:href="#DejaVuSans-2e"/>
       <use x="95.410156" xlink:href="#DejaVuSans-36"/>
       <use x="159.033203" xlink:href="#DejaVuSans-34"/>
       <use x="222.65625" xlink:href="#DejaVuSans-35"/>
      </g>
     </g>
    </g>
    <g id="ytick_27">
     <g id="line2d_91">
      <path clip-path="url(#pbdbb01f634)" d="M 470.23985 302.159104 
L 833.588688 302.159104 
" style="fill:none;stroke:#ffffff;stroke-linecap:square;"/>
     </g>
     <g id="line2d_92">
      <path d="M 470.23985 302.159104 
" style="fill:none;stroke:#333333;stroke-linecap:square;stroke-width:1.5;"/>
      <g>
       <use style="fill:#333333;stroke:#000000;" x="470.23985" xlink:href="#m6002b43f1a" y="302.159104"/>
      </g>
     </g>
     <g id="text_31">
      <!-- 0.650 -->
      <g style="fill:#4d4d4d;" transform="translate(440.0971 304.587354)scale(0.088 -0.088)">
       <use xlink:href="#DejaVuSans-30"/>
       <use x="63.623047" xlink:href="#DejaVuSans-2e"/>
       <use x="95.410156" xlink:href="#DejaVuSans-36"/>
       <use x="159.033203" xlink:href="#DejaVuSans-35"/>
       <use x="222.65625" xlink:href="#DejaVuSans-30"/>
      </g>
     </g>
    </g>
    <g id="ytick_28">
     <g id="line2d_93">
      <path clip-path="url(#pbdbb01f634)" d="M 470.23985 425.235143 
L 833.588688 425.235143 
" style="fill:none;stroke:#ffffff;stroke-linecap:square;stroke-width:0.5;"/>
     </g>
    </g>
    <g id="ytick_29">
     <g id="line2d_94">
      <path clip-path="url(#pbdbb01f634)" d="M 470.23985 376.004727 
L 833.588688 376.004727 
" style="fill:none;stroke:#ffffff;stroke-linecap:square;stroke-width:0.5;"/>
     </g>
    </g>
    <g id="ytick_30">
     <g id="line2d_95">
      <path clip-path="url(#pbdbb01f634)" d="M 470.23985 326.774311 
L 833.588688 326.774311 
" style="fill:none;stroke:#ffffff;stroke-linecap:square;stroke-width:0.5;"/>
     </g>
    </g>
    <g id="ytick_31">
     <g id="line2d_96">
      <path clip-path="url(#pbdbb01f634)" d="M 470.23985 277.543896 
L 833.588688 277.543896 
" style="fill:none;stroke:#ffffff;stroke-linecap:square;stroke-width:0.5;"/>
     </g>
    </g>
   </g>
   <g id="line2d_97">
    <path clip-path="url(#pbdbb01f634)" d="M 486.755707 382.794828 
L 488.078298 388.941459 
L 489.731536 366.440341 
L 494.691253 335.593227 
L 502.957447 360.690609 
L 511.223642 317.765714 
L 519.489836 357.098872 
L 569.087002 355.468109 
L 651.748945 341.87415 
L 817.072831 360.767823 
" style="fill:none;stroke:#000000;stroke-width:0.886227;"/>
   </g>
   <g id="PathCollection_4">
    <path clip-path="url(#pbdbb01f634)" d="M 486.755707 384.567282 
C 487.225767 384.567282 487.676638 384.380525 488.009021 384.048142 
C 488.341403 383.715759 488.52816 383.264888 488.52816 382.794828 
C 488.52816 382.324768 488.341403 381.873896 488.009021 381.541514 
C 487.676638 381.209131 487.225767 381.022374 486.755707 381.022374 
C 486.285646 381.022374 485.834775 381.209131 485.502392 381.541514 
C 485.17001 381.873896 484.983253 382.324768 484.983253 382.794828 
C 484.983253 383.264888 485.17001 383.715759 485.502392 384.048142 
C 485.834775 384.380525 486.285646 384.567282 486.755707 384.567282 
z
" style="stroke:#000000;stroke-width:0.886227;"/>
    <path clip-path="url(#pbdbb01f634)" d="M 488.078298 390.713913 
C 488.548358 390.713913 488.999229 390.527156 489.331612 390.194773 
C 489.663995 389.86239 489.850751 389.411519 489.850751 388.941459 
C 489.850751 388.471399 489.663995 388.020528 489.331612 387.688145 
C 488.999229 387.355762 488.548358 387.169005 488.078298 387.169005 
C 487.608237 387.169005 487.157366 387.355762 486.824983 387.688145 
C 486.492601 388.020528 486.305844 388.471399 486.305844 388.941459 
C 486.305844 389.411519 486.492601 389.86239 486.824983 390.194773 
C 487.157366 390.527156 487.608237 390.713913 488.078298 390.713913 
z
" style="stroke:#000000;stroke-width:0.886227;"/>
    <path clip-path="url(#pbdbb01f634)" d="M 489.731536 368.212795 
C 490.201597 368.212795 490.652468 368.026038 490.984851 367.693655 
C 491.317233 367.361272 491.50399 366.910401 491.50399 366.440341 
C 491.50399 365.970281 491.317233 365.51941 490.984851 365.187027 
C 490.652468 364.854644 490.201597 364.667887 489.731536 364.667887 
C 489.261476 364.667887 488.810605 364.854644 488.478222 365.187027 
C 488.14584 365.51941 487.959083 365.970281 487.959083 366.440341 
C 487.959083 366.910401 488.14584 367.361272 488.478222 367.693655 
C 488.810605 368.026038 489.261476 368.212795 489.731536 368.212795 
z
" style="stroke:#000000;stroke-width:0.886227;"/>
    <path clip-path="url(#pbdbb01f634)" d="M 494.691253 337.36568 
C 495.161313 337.36568 495.612184 337.178923 495.944567 336.846541 
C 496.27695 336.514158 496.463707 336.063287 496.463707 335.593227 
C 496.463707 335.123166 496.27695 334.672295 495.944567 334.339912 
C 495.612184 334.00753 495.161313 333.820773 494.691253 333.820773 
C 494.221193 333.820773 493.770322 334.00753 493.437939 334.339912 
C 493.105556 334.672295 492.918799 335.123166 492.918799 335.593227 
C 492.918799 336.063287 493.105556 336.514158 493.437939 336.846541 
C 493.770322 337.178923 494.221193 337.36568 494.691253 337.36568 
z
" style="stroke:#000000;stroke-width:0.886227;"/>
    <path clip-path="url(#pbdbb01f634)" d="M 502.957447 362.463063 
C 503.427508 362.463063 503.878379 362.276306 504.210762 361.943923 
C 504.543144 361.61154 504.729901 361.160669 504.729901 360.690609 
C 504.729901 360.220548 504.543144 359.769677 504.210762 359.437295 
C 503.878379 359.104912 503.427508 358.918155 502.957447 358.918155 
C 502.487387 358.918155 502.036516 359.104912 501.704133 359.437295 
C 501.37175 359.769677 501.184994 360.220548 501.184994 360.690609 
C 501.184994 361.160669 501.37175 361.61154 501.704133 361.943923 
C 502.036516 362.276306 502.487387 362.463063 502.957447 362.463063 
z
" style="stroke:#000000;stroke-width:0.886227;"/>
    <path clip-path="url(#pbdbb01f634)" d="M 511.223642 319.538168 
C 511.693702 319.538168 512.144573 319.351411 512.476956 319.019028 
C 512.809339 318.686645 512.996096 318.235774 512.996096 317.765714 
C 512.996096 317.295654 512.809339 316.844783 512.476956 316.5124 
C 512.144573 316.180017 511.693702 315.99326 511.223642 315.99326 
C 510.753581 315.99326 510.30271 316.180017 509.970328 316.5124 
C 509.637945 316.844783 509.451188 317.295654 509.451188 317.765714 
C 509.451188 318.235774 509.637945 318.686645 509.970328 319.019028 
C 510.30271 319.351411 510.753581 319.538168 511.223642 319.538168 
z
" style="stroke:#000000;stroke-width:0.886227;"/>
    <path clip-path="url(#pbdbb01f634)" d="M 519.489836 358.871326 
C 519.959896 358.871326 520.410767 358.684569 520.74315 358.352186 
C 521.075533 358.019803 521.26229 357.568932 521.26229 357.098872 
C 521.26229 356.628812 521.075533 356.177941 520.74315 355.845558 
C 520.410767 355.513175 519.959896 355.326418 519.489836 355.326418 
C 519.019776 355.326418 518.568905 355.513175 518.236522 355.845558 
C 517.904139 356.177941 517.717382 356.628812 517.717382 357.098872 
C 517.717382 357.568932 517.904139 358.019803 518.236522 358.352186 
C 518.568905 358.684569 519.019776 358.871326 519.489836 358.871326 
z
" style="stroke:#000000;stroke-width:0.886227;"/>
    <path clip-path="url(#pbdbb01f634)" d="M 569.087002 357.240563 
C 569.557062 357.240563 570.007933 357.053806 570.340316 356.721423 
C 570.672699 356.389041 570.859456 355.93817 570.859456 355.468109 
C 570.859456 354.998049 570.672699 354.547178 570.340316 354.214795 
C 570.007933 353.882412 569.557062 353.695655 569.087002 353.695655 
C 568.616942 353.695655 568.166071 353.882412 567.833688 354.214795 
C 567.501305 354.547178 567.314548 354.998049 567.314548 355.468109 
C 567.314548 355.93817 567.501305 356.389041 567.833688 356.721423 
C 568.166071 357.053806 568.616942 357.240563 569.087002 357.240563 
z
" style="stroke:#000000;stroke-width:0.886227;"/>
    <path clip-path="url(#pbdbb01f634)" d="M 651.748945 343.646604 
C 652.219005 343.646604 652.669876 343.459847 653.002259 343.127464 
C 653.334642 342.795082 653.521399 342.344211 653.521399 341.87415 
C 653.521399 341.40409 653.334642 340.953219 653.002259 340.620836 
C 652.669876 340.288453 652.219005 340.101697 651.748945 340.101697 
C 651.278885 340.101697 650.828014 340.288453 650.495631 340.620836 
C 650.163248 340.953219 649.976491 341.40409 649.976491 341.87415 
C 649.976491 342.344211 650.163248 342.795082 650.495631 343.127464 
C 650.828014 343.459847 651.278885 343.646604 651.748945 343.646604 
z
" style="stroke:#000000;stroke-width:0.886227;"/>
    <path clip-path="url(#pbdbb01f634)" d="M 817.072831 362.540277 
C 817.542892 362.540277 817.993763 362.35352 818.326145 362.021137 
C 818.658528 361.688755 818.845285 361.237884 818.845285 360.767823 
C 818.845285 360.297763 818.658528 359.846892 818.326145 359.514509 
C 817.993763 359.182126 817.542892 358.99537 817.072831 358.99537 
C 816.602771 358.99537 816.1519 359.182126 815.819517 359.514509 
C 815.487134 359.846892 815.300377 360.297763 815.300377 360.767823 
C 815.300377 361.237884 815.487134 361.688755 815.819517 362.021137 
C 816.1519 362.35352 816.602771 362.540277 817.072831 362.540277 
z
" style="stroke:#000000;stroke-width:0.886227;"/>
   </g>
   <g id="patch_9">
    <path d="M 470.23985 253.674082 
L 833.588688 253.674082 
L 833.588688 238.63 
L 470.23985 238.63 
z
" style="fill:#d9d9d9;"/>
   </g>
   <g id="PolyCollection_4">
    <path clip-path="url(#pbdbb01f634)" d="M 486.755707 309.466028 
L 486.755707 456.123628 
L 488.078298 424.265105 
L 489.731536 434.143661 
L 494.691253 390.178763 
L 502.957447 413.638168 
L 511.223642 372.216891 
L 519.489836 425.961086 
L 569.087002 425.91473 
L 651.748945 418.608451 
L 817.072831 432.250796 
L 817.072831 289.284851 
L 817.072831 289.284851 
L 651.748945 265.139849 
L 569.087002 285.021489 
L 519.489836 288.236658 
L 511.223642 263.314537 
L 502.957447 307.743049 
L 494.691253 281.00769 
L 489.731536 298.737021 
L 488.078298 353.617813 
L 486.755707 309.466028 
z
" style="fill:#333333;fill-opacity:0.501961;"/>
   </g>
   <g id="text_32">
    <!-- F1 score: &gt;50K -->
    <g style="fill:#1a1a1a;" transform="translate(618.312706 248.580291)scale(0.088 -0.088)">
     <defs>
      <path d="M 678 3150 
L 678 3719 
L 4684 2266 
L 4684 1747 
L 678 294 
L 678 863 
L 3897 2003 
L 678 3150 
z
" id="DejaVuSans-3e" transform="scale(0.015625)"/>
     </defs>
     <use xlink:href="#DejaVuSans-46"/>
     <use x="57.519531" xlink:href="#DejaVuSans-31"/>
     <use x="121.142578" xlink:href="#DejaVuSans-20"/>
     <use x="152.929688" xlink:href="#DejaVuSans-73"/>
     <use x="205.029297" xlink:href="#DejaVuSans-63"/>
     <use x="260.009766" xlink:href="#DejaVuSans-6f"/>
     <use x="321.191406" xlink:href="#DejaVuSans-72"/>
     <use x="360.054688" xlink:href="#DejaVuSans-65"/>
     <use x="421.578125" xlink:href="#DejaVuSans-3a"/>
     <use x="455.269531" xlink:href="#DejaVuSans-20"/>
     <use x="487.056641" xlink:href="#DejaVuSans-3e"/>
     <use x="570.845703" xlink:href="#DejaVuSans-35"/>
     <use x="634.46875" xlink:href="#DejaVuSans-30"/>
     <use x="698.091797" xlink:href="#DejaVuSans-4b"/>
    </g>
   </g>
  </g>
 </g>
 <defs>
  <clipPath id="pb864a9cf97">
   <rect height="212.09" width="363.348837" x="52.388688" y="22.244082"/>
  </clipPath>
  <clipPath id="p248da7bef2">
   <rect height="212.09" width="363.348837" x="470.23985" y="22.244082"/>
  </clipPath>
  <clipPath id="p02a24e1245">
   <rect height="212.09" width="363.348837" x="52.388688" y="253.674082"/>
  </clipPath>
  <clipPath id="pbdbb01f634">
   <rect height="212.09" width="363.348837" x="470.23985" y="253.674082"/>
  </clipPath>
 </defs>
</svg>
