<?xml version="1.0" encoding="utf-8" standalone="no"?>
<!DOCTYPE svg PUBLIC "-//W3C//DTD SVG 1.1//EN"
  "http://www.w3.org/Graphics/SVG/1.1/DTD/svg11.dtd">
<svg height="501.47677pt" version="1.1" viewBox="0 0 840.788688 501.47677" width="840.788688pt" xmlns="http://www.w3.org/2000/svg" xmlns:xlink="http://www.w3.org/1999/xlink">
 <metadata>
  <rdf:RDF xmlns:cc="http://creativecommons.org/ns#" xmlns:dc="http://purl.org/dc/elements/1.1/" xmlns:rdf="http://www.w3.org/1999/02/22-rdf-syntax-ns#">
   <cc:Work>
    <dc:type rdf:resource="http://purl.org/dc/dcmitype/StillImage"/>
    <dc:date>2022-05-02T15:01:26.159201</dc:date>
    <dc:format>image/svg+xml</dc:format>
    <dc:creator>
     <cc:Agent>
      <dc:title>Matplotlib v3.4.3, https://matplotlib.org/</dc:title>
     </cc:Agent>
    </dc:creator>
   </cc:Work>
  </rdf:RDF>
 </metadata>
 <defs>
  <style type="text/css">*{stroke-linecap:butt;stroke-linejoin:round;}</style>
 </defs>
 <g id="figure_1">
  <g id="patch_1">
   <path d="M 0 501.47677 
L 840.788688 501.47677 
L 840.788688 0 
L 0 0 
z
" style="fill:#ffffff;stroke:#ffffff;stroke-linejoin:miter;"/>
  </g>
  <g id="axes_1">
   <g id="patch_2">
    <path d="M 52.388688 234.334082 
L 415.737525 234.334082 
L 415.737525 22.244082 
L 52.388688 22.244082 
z
" style="fill:#ebebeb;"/>
   </g>
   <g id="matplotlib.axis_1">
    <g id="xtick_1">
     <g id="line2d_1">
      <path clip-path="url(#p94b62a7789)" d="M 68.904544 234.334082 
L 68.904544 22.244082 
" style="fill:none;stroke:#ffffff;"/>
     </g>
    </g>
    <g id="xtick_2">
     <g id="line2d_2">
      <path clip-path="url(#p94b62a7789)" d="M 155.830103 234.334082 
L 155.830103 22.244082 
" style="fill:none;stroke:#ffffff;"/>
     </g>
    </g>
    <g id="xtick_3">
     <g id="line2d_3">
      <path clip-path="url(#p94b62a7789)" d="M 242.755662 234.334082 
L 242.755662 22.244082 
" style="fill:none;stroke:#ffffff;"/>
     </g>
    </g>
    <g id="xtick_4">
     <g id="line2d_4">
      <path clip-path="url(#p94b62a7789)" d="M 329.681221 234.334082 
L 329.681221 22.244082 
" style="fill:none;stroke:#ffffff;"/>
     </g>
    </g>
    <g id="xtick_5">
     <g id="line2d_5">
      <path clip-path="url(#p94b62a7789)" d="M 112.367323 234.334082 
L 112.367323 22.244082 
" style="fill:none;stroke:#ffffff;stroke-width:0.5;"/>
     </g>
    </g>
    <g id="xtick_6">
     <g id="line2d_6">
      <path clip-path="url(#p94b62a7789)" d="M 199.292882 234.334082 
L 199.292882 22.244082 
" style="fill:none;stroke:#ffffff;stroke-width:0.5;"/>
     </g>
    </g>
    <g id="xtick_7">
     <g id="line2d_7">
      <path clip-path="url(#p94b62a7789)" d="M 286.218442 234.334082 
L 286.218442 22.244082 
" style="fill:none;stroke:#ffffff;stroke-width:0.5;"/>
     </g>
    </g>
    <g id="xtick_8">
     <g id="line2d_8">
      <path clip-path="url(#p94b62a7789)" d="M 373.144001 234.334082 
L 373.144001 22.244082 
" style="fill:none;stroke:#ffffff;stroke-width:0.5;"/>
     </g>
    </g>
   </g>
   <g id="matplotlib.axis_2">
    <g id="ytick_1">
     <g id="line2d_9">
      <path clip-path="url(#p94b62a7789)" d="M 52.388688 188.801015 
L 415.737525 188.801015 
" style="fill:none;stroke:#ffffff;"/>
     </g>
     <g id="line2d_10">
      <path d="M 52.388688 188.801015 
" style="fill:none;stroke:#333333;stroke-width:1.5;"/>
      <defs>
       <path d="M 0 0 
L -2.75 0 
" id="m3baae11394" style="stroke:#000000;"/>
      </defs>
      <g>
       <use style="fill:#333333;stroke:#000000;" x="52.388688" xlink:href="#m3baae11394" y="188.801015"/>
      </g>
     </g>
     <g id="text_1">
      <!-- 0.830 -->
      <g style="fill:#4d4d4d;" transform="translate(22.245938 191.229265)scale(0.088 -0.088)">
       <defs>
        <path d="M 2034 4250 
Q 1547 4250 1301 3770 
Q 1056 3291 1056 2328 
Q 1056 1369 1301 889 
Q 1547 409 2034 409 
Q 2525 409 2770 889 
Q 3016 1369 3016 2328 
Q 3016 3291 2770 3770 
Q 2525 4250 2034 4250 
z
M 2034 4750 
Q 2819 4750 3233 4129 
Q 3647 3509 3647 2328 
Q 3647 1150 3233 529 
Q 2819 -91 2034 -91 
Q 1250 -91 836 529 
Q 422 1150 422 2328 
Q 422 3509 836 4129 
Q 1250 4750 2034 4750 
z
" id="DejaVuSans-30" transform="scale(0.015625)"/>
        <path d="M 684 794 
L 1344 794 
L 1344 0 
L 684 0 
L 684 794 
z
" id="DejaVuSans-2e" transform="scale(0.015625)"/>
        <path d="M 2034 2216 
Q 1584 2216 1326 1975 
Q 1069 1734 1069 1313 
Q 1069 891 1326 650 
Q 1584 409 2034 409 
Q 2484 409 2743 651 
Q 3003 894 3003 1313 
Q 3003 1734 2745 1975 
Q 2488 2216 2034 2216 
z
M 1403 2484 
Q 997 2584 770 2862 
Q 544 3141 544 3541 
Q 544 4100 942 4425 
Q 1341 4750 2034 4750 
Q 2731 4750 3128 4425 
Q 3525 4100 3525 3541 
Q 3525 3141 3298 2862 
Q 3072 2584 2669 2484 
Q 3125 2378 3379 2068 
Q 3634 1759 3634 1313 
Q 3634 634 3220 271 
Q 2806 -91 2034 -91 
Q 1263 -91 848 271 
Q 434 634 434 1313 
Q 434 1759 690 2068 
Q 947 2378 1403 2484 
z
M 1172 3481 
Q 1172 3119 1398 2916 
Q 1625 2713 2034 2713 
Q 2441 2713 2670 2916 
Q 2900 3119 2900 3481 
Q 2900 3844 2670 4047 
Q 2441 4250 2034 4250 
Q 1625 4250 1398 4047 
Q 1172 3844 1172 3481 
z
" id="DejaVuSans-38" transform="scale(0.015625)"/>
        <path d="M 2597 2516 
Q 3050 2419 3304 2112 
Q 3559 1806 3559 1356 
Q 3559 666 3084 287 
Q 2609 -91 1734 -91 
Q 1441 -91 1130 -33 
Q 819 25 488 141 
L 488 750 
Q 750 597 1062 519 
Q 1375 441 1716 441 
Q 2309 441 2620 675 
Q 2931 909 2931 1356 
Q 2931 1769 2642 2001 
Q 2353 2234 1838 2234 
L 1294 2234 
L 1294 2753 
L 1863 2753 
Q 2328 2753 2575 2939 
Q 2822 3125 2822 3475 
Q 2822 3834 2567 4026 
Q 2313 4219 1838 4219 
Q 1578 4219 1281 4162 
Q 984 4106 628 3988 
L 628 4550 
Q 988 4650 1302 4700 
Q 1616 4750 1894 4750 
Q 2613 4750 3031 4423 
Q 3450 4097 3450 3541 
Q 3450 3153 3228 2886 
Q 3006 2619 2597 2516 
z
" id="DejaVuSans-33" transform="scale(0.015625)"/>
       </defs>
       <use xlink:href="#DejaVuSans-30"/>
       <use x="63.623047" xlink:href="#DejaVuSans-2e"/>
       <use x="95.410156" xlink:href="#DejaVuSans-38"/>
       <use x="159.033203" xlink:href="#DejaVuSans-33"/>
       <use x="222.65625" xlink:href="#DejaVuSans-30"/>
      </g>
     </g>
    </g>
    <g id="ytick_2">
     <g id="line2d_11">
      <path clip-path="url(#p94b62a7789)" d="M 52.388688 127.10245 
L 415.737525 127.10245 
" style="fill:none;stroke:#ffffff;"/>
     </g>
     <g id="line2d_12">
      <path d="M 52.388688 127.10245 
" style="fill:none;stroke:#333333;stroke-width:1.5;"/>
      <g>
       <use style="fill:#333333;stroke:#000000;" x="52.388688" xlink:href="#m3baae11394" y="127.10245"/>
      </g>
     </g>
     <g id="text_2">
      <!-- 0.832 -->
      <g style="fill:#4d4d4d;" transform="translate(22.245938 129.5307)scale(0.088 -0.088)">
       <defs>
        <path d="M 1228 531 
L 3431 531 
L 3431 0 
L 469 0 
L 469 531 
Q 828 903 1448 1529 
Q 2069 2156 2228 2338 
Q 2531 2678 2651 2914 
Q 2772 3150 2772 3378 
Q 2772 3750 2511 3984 
Q 2250 4219 1831 4219 
Q 1534 4219 1204 4116 
Q 875 4013 500 3803 
L 500 4441 
Q 881 4594 1212 4672 
Q 1544 4750 1819 4750 
Q 2544 4750 2975 4387 
Q 3406 4025 3406 3419 
Q 3406 3131 3298 2873 
Q 3191 2616 2906 2266 
Q 2828 2175 2409 1742 
Q 1991 1309 1228 531 
z
" id="DejaVuSans-32" transform="scale(0.015625)"/>
       </defs>
       <use xlink:href="#DejaVuSans-30"/>
       <use x="63.623047" xlink:href="#DejaVuSans-2e"/>
       <use x="95.410156" xlink:href="#DejaVuSans-38"/>
       <use x="159.033203" xlink:href="#DejaVuSans-33"/>
       <use x="222.65625" xlink:href="#DejaVuSans-32"/>
      </g>
     </g>
    </g>
    <g id="ytick_3">
     <g id="line2d_13">
      <path clip-path="url(#p94b62a7789)" d="M 52.388688 65.403884 
L 415.737525 65.403884 
" style="fill:none;stroke:#ffffff;"/>
     </g>
     <g id="line2d_14">
      <path d="M 52.388688 65.403884 
" style="fill:none;stroke:#333333;stroke-width:1.5;"/>
      <g>
       <use style="fill:#333333;stroke:#000000;" x="52.388688" xlink:href="#m3baae11394" y="65.403884"/>
      </g>
     </g>
     <g id="text_3">
      <!-- 0.834 -->
      <g style="fill:#4d4d4d;" transform="translate(22.245938 67.832134)scale(0.088 -0.088)">
       <defs>
        <path d="M 2419 4116 
L 825 1625 
L 2419 1625 
L 2419 4116 
z
M 2253 4666 
L 3047 4666 
L 3047 1625 
L 3713 1625 
L 3713 1100 
L 3047 1100 
L 3047 0 
L 2419 0 
L 2419 1100 
L 313 1100 
L 313 1709 
L 2253 4666 
z
" id="DejaVuSans-34" transform="scale(0.015625)"/>
       </defs>
       <use xlink:href="#DejaVuSans-30"/>
       <use x="63.623047" xlink:href="#DejaVuSans-2e"/>
       <use x="95.410156" xlink:href="#DejaVuSans-38"/>
       <use x="159.033203" xlink:href="#DejaVuSans-33"/>
       <use x="222.65625" xlink:href="#DejaVuSans-34"/>
      </g>
     </g>
    </g>
    <g id="ytick_4">
     <g id="line2d_15">
      <path clip-path="url(#p94b62a7789)" d="M 52.388688 219.650298 
L 415.737525 219.650298 
" style="fill:none;stroke:#ffffff;stroke-width:0.5;"/>
     </g>
    </g>
    <g id="ytick_5">
     <g id="line2d_16">
      <path clip-path="url(#p94b62a7789)" d="M 52.388688 157.951733 
L 415.737525 157.951733 
" style="fill:none;stroke:#ffffff;stroke-width:0.5;"/>
     </g>
    </g>
    <g id="ytick_6">
     <g id="line2d_17">
      <path clip-path="url(#p94b62a7789)" d="M 52.388688 96.253167 
L 415.737525 96.253167 
" style="fill:none;stroke:#ffffff;stroke-width:0.5;"/>
     </g>
    </g>
    <g id="ytick_7">
     <g id="line2d_18">
      <path clip-path="url(#p94b62a7789)" d="M 52.388688 34.554602 
L 415.737525 34.554602 
" style="fill:none;stroke:#ffffff;stroke-width:0.5;"/>
     </g>
    </g>
    <g id="text_4">
     <!-- Value -->
     <g transform="translate(15.558281 256.228457)rotate(-90)scale(0.11 -0.11)">
      <defs>
       <path d="M 1831 0 
L 50 4666 
L 709 4666 
L 2188 738 
L 3669 4666 
L 4325 4666 
L 2547 0 
L 1831 0 
z
" id="DejaVuSans-56" transform="scale(0.015625)"/>
       <path d="M 2194 1759 
Q 1497 1759 1228 1600 
Q 959 1441 959 1056 
Q 959 750 1161 570 
Q 1363 391 1709 391 
Q 2188 391 2477 730 
Q 2766 1069 2766 1631 
L 2766 1759 
L 2194 1759 
z
M 3341 1997 
L 3341 0 
L 2766 0 
L 2766 531 
Q 2569 213 2275 61 
Q 1981 -91 1556 -91 
Q 1019 -91 701 211 
Q 384 513 384 1019 
Q 384 1609 779 1909 
Q 1175 2209 1959 2209 
L 2766 2209 
L 2766 2266 
Q 2766 2663 2505 2880 
Q 2244 3097 1772 3097 
Q 1472 3097 1187 3025 
Q 903 2953 641 2809 
L 641 3341 
Q 956 3463 1253 3523 
Q 1550 3584 1831 3584 
Q 2591 3584 2966 3190 
Q 3341 2797 3341 1997 
z
" id="DejaVuSans-61" transform="scale(0.015625)"/>
       <path d="M 603 4863 
L 1178 4863 
L 1178 0 
L 603 0 
L 603 4863 
z
" id="DejaVuSans-6c" transform="scale(0.015625)"/>
       <path d="M 544 1381 
L 544 3500 
L 1119 3500 
L 1119 1403 
Q 1119 906 1312 657 
Q 1506 409 1894 409 
Q 2359 409 2629 706 
Q 2900 1003 2900 1516 
L 2900 3500 
L 3475 3500 
L 3475 0 
L 2900 0 
L 2900 538 
Q 2691 219 2414 64 
Q 2138 -91 1772 -91 
Q 1169 -91 856 284 
Q 544 659 544 1381 
z
M 1991 3584 
L 1991 3584 
z
" id="DejaVuSans-75" transform="scale(0.015625)"/>
       <path d="M 3597 1894 
L 3597 1613 
L 953 1613 
Q 991 1019 1311 708 
Q 1631 397 2203 397 
Q 2534 397 2845 478 
Q 3156 559 3463 722 
L 3463 178 
Q 3153 47 2828 -22 
Q 2503 -91 2169 -91 
Q 1331 -91 842 396 
Q 353 884 353 1716 
Q 353 2575 817 3079 
Q 1281 3584 2069 3584 
Q 2775 3584 3186 3129 
Q 3597 2675 3597 1894 
z
M 3022 2063 
Q 3016 2534 2758 2815 
Q 2500 3097 2075 3097 
Q 1594 3097 1305 2825 
Q 1016 2553 972 2059 
L 3022 2063 
z
" id="DejaVuSans-65" transform="scale(0.015625)"/>
      </defs>
      <use xlink:href="#DejaVuSans-56"/>
      <use x="60.658203" xlink:href="#DejaVuSans-61"/>
      <use x="121.9375" xlink:href="#DejaVuSans-6c"/>
      <use x="149.720703" xlink:href="#DejaVuSans-75"/>
      <use x="213.099609" xlink:href="#DejaVuSans-65"/>
     </g>
    </g>
   </g>
   <g id="line2d_19">
    <path clip-path="url(#p94b62a7789)" d="M 68.904544 106.249482 
L 103.674767 138.819442 
L 138.444991 158.689166 
L 173.215215 90.886293 
L 207.985438 143.325977 
L 242.755662 134.517749 
L 277.525886 98.875151 
L 312.296109 115.467395 
L 347.066333 129.396686 
L 381.836557 148.037355 
L 399.221668 139.024284 
" style="fill:none;stroke:#000000;stroke-width:0.886227;"/>
   </g>
   <g id="PathCollection_1">
    <path clip-path="url(#p94b62a7789)" d="M 68.904544 108.021936 
C 69.374604 108.021936 69.825475 107.835179 70.157858 107.502796 
C 70.490241 107.170413 70.676998 106.719542 70.676998 106.249482 
C 70.676998 105.779422 70.490241 105.32855 70.157858 104.996168 
C 69.825475 104.663785 69.374604 104.477028 68.904544 104.477028 
C 68.434483 104.477028 67.983612 104.663785 67.65123 104.996168 
C 67.318847 105.32855 67.13209 105.779422 67.13209 106.249482 
C 67.13209 106.719542 67.318847 107.170413 67.65123 107.502796 
C 67.983612 107.835179 68.434483 108.021936 68.904544 108.021936 
z
" style="stroke:#000000;stroke-width:0.886227;"/>
    <path clip-path="url(#p94b62a7789)" d="M 103.674767 140.591896 
C 104.144828 140.591896 104.595699 140.405139 104.928082 140.072756 
C 105.260464 139.740373 105.447221 139.289502 105.447221 138.819442 
C 105.447221 138.349381 105.260464 137.89851 104.928082 137.566128 
C 104.595699 137.233745 104.144828 137.046988 103.674767 137.046988 
C 103.204707 137.046988 102.753836 137.233745 102.421453 137.566128 
C 102.08907 137.89851 101.902314 138.349381 101.902314 138.819442 
C 101.902314 139.289502 102.08907 139.740373 102.421453 140.072756 
C 102.753836 140.405139 103.204707 140.591896 103.674767 140.591896 
z
" style="stroke:#000000;stroke-width:0.886227;"/>
    <path clip-path="url(#p94b62a7789)" d="M 138.444991 160.461619 
C 138.915051 160.461619 139.365922 160.274863 139.698305 159.94248 
C 140.030688 159.610097 140.217445 159.159226 140.217445 158.689166 
C 140.217445 158.219105 140.030688 157.768234 139.698305 157.435851 
C 139.365922 157.103469 138.915051 156.916712 138.444991 156.916712 
C 137.974931 156.916712 137.52406 157.103469 137.191677 157.435851 
C 136.859294 157.768234 136.672537 158.219105 136.672537 158.689166 
C 136.672537 159.159226 136.859294 159.610097 137.191677 159.94248 
C 137.52406 160.274863 137.974931 160.461619 138.444991 160.461619 
z
" style="stroke:#000000;stroke-width:0.886227;"/>
    <path clip-path="url(#p94b62a7789)" d="M 173.215215 92.658747 
C 173.685275 92.658747 174.136146 92.47199 174.468529 92.139607 
C 174.800912 91.807225 174.987669 91.356354 174.987669 90.886293 
C 174.987669 90.416233 174.800912 89.965362 174.468529 89.632979 
C 174.136146 89.300596 173.685275 89.113839 173.215215 89.113839 
C 172.745154 89.113839 172.294283 89.300596 171.961901 89.632979 
C 171.629518 89.965362 171.442761 90.416233 171.442761 90.886293 
C 171.442761 91.356354 171.629518 91.807225 171.961901 92.139607 
C 172.294283 92.47199 172.745154 92.658747 173.215215 92.658747 
z
" style="stroke:#000000;stroke-width:0.886227;"/>
    <path clip-path="url(#p94b62a7789)" d="M 207.985438 145.098431 
C 208.455499 145.098431 208.90637 144.911674 209.238752 144.579291 
C 209.571135 144.246908 209.757892 143.796037 209.757892 143.325977 
C 209.757892 142.855917 209.571135 142.405046 209.238752 142.072663 
C 208.90637 141.74028 208.455499 141.553523 207.985438 141.553523 
C 207.515378 141.553523 207.064507 141.74028 206.732124 142.072663 
C 206.399741 142.405046 206.212985 142.855917 206.212985 143.325977 
C 206.212985 143.796037 206.399741 144.246908 206.732124 144.579291 
C 207.064507 144.911674 207.515378 145.098431 207.985438 145.098431 
z
" style="stroke:#000000;stroke-width:0.886227;"/>
    <path clip-path="url(#p94b62a7789)" d="M 242.755662 136.290203 
C 243.225722 136.290203 243.676593 136.103446 244.008976 135.771063 
C 244.341359 135.43868 244.528116 134.987809 244.528116 134.517749 
C 244.528116 134.047689 244.341359 133.596818 244.008976 133.264435 
C 243.676593 132.932052 243.225722 132.745295 242.755662 132.745295 
C 242.285602 132.745295 241.834731 132.932052 241.502348 133.264435 
C 241.169965 133.596818 240.983208 134.047689 240.983208 134.517749 
C 240.983208 134.987809 241.169965 135.43868 241.502348 135.771063 
C 241.834731 136.103446 242.285602 136.290203 242.755662 136.290203 
z
" style="stroke:#000000;stroke-width:0.886227;"/>
    <path clip-path="url(#p94b62a7789)" d="M 277.525886 100.647605 
C 277.995946 100.647605 278.446817 100.460848 278.7792 100.128465 
C 279.111583 99.796083 279.29834 99.345212 279.29834 98.875151 
C 279.29834 98.405091 279.111583 97.95422 278.7792 97.621837 
C 278.446817 97.289454 277.995946 97.102697 277.525886 97.102697 
C 277.055825 97.102697 276.604954 97.289454 276.272572 97.621837 
C 275.940189 97.95422 275.753432 98.405091 275.753432 98.875151 
C 275.753432 99.345212 275.940189 99.796083 276.272572 100.128465 
C 276.604954 100.460848 277.055825 100.647605 277.525886 100.647605 
z
" style="stroke:#000000;stroke-width:0.886227;"/>
    <path clip-path="url(#p94b62a7789)" d="M 312.296109 117.239849 
C 312.76617 117.239849 313.217041 117.053092 313.549423 116.720709 
C 313.881806 116.388326 314.068563 115.937455 314.068563 115.467395 
C 314.068563 114.997335 313.881806 114.546464 313.549423 114.214081 
C 313.217041 113.881698 312.76617 113.694941 312.296109 113.694941 
C 311.826049 113.694941 311.375178 113.881698 311.042795 114.214081 
C 310.710412 114.546464 310.523655 114.997335 310.523655 115.467395 
C 310.523655 115.937455 310.710412 116.388326 311.042795 116.720709 
C 311.375178 117.053092 311.826049 117.239849 312.296109 117.239849 
z
" style="stroke:#000000;stroke-width:0.886227;"/>
    <path clip-path="url(#p94b62a7789)" d="M 347.066333 131.16914 
C 347.536393 131.16914 347.987264 130.982383 348.319647 130.65 
C 348.65203 130.317617 348.838787 129.866746 348.838787 129.396686 
C 348.838787 128.926626 348.65203 128.475755 348.319647 128.143372 
C 347.987264 127.810989 347.536393 127.624232 347.066333 127.624232 
C 346.596273 127.624232 346.145402 127.810989 345.813019 128.143372 
C 345.480636 128.475755 345.293879 128.926626 345.293879 129.396686 
C 345.293879 129.866746 345.480636 130.317617 345.813019 130.65 
C 346.145402 130.982383 346.596273 131.16914 347.066333 131.16914 
z
" style="stroke:#000000;stroke-width:0.886227;"/>
    <path clip-path="url(#p94b62a7789)" d="M 381.836557 149.809809 
C 382.306617 149.809809 382.757488 149.623052 383.089871 149.290669 
C 383.422254 148.958286 383.60901 148.507415 383.60901 148.037355 
C 383.60901 147.567295 383.422254 147.116423 383.089871 146.784041 
C 382.757488 146.451658 382.306617 146.264901 381.836557 146.264901 
C 381.366496 146.264901 380.915625 146.451658 380.583243 146.784041 
C 380.25086 147.116423 380.064103 147.567295 380.064103 148.037355 
C 380.064103 148.507415 380.25086 148.958286 380.583243 149.290669 
C 380.915625 149.623052 381.366496 149.809809 381.836557 149.809809 
z
" style="stroke:#000000;stroke-width:0.886227;"/>
    <path clip-path="url(#p94b62a7789)" d="M 399.221668 140.796738 
C 399.691729 140.796738 400.1426 140.609981 400.474983 140.277598 
C 400.807365 139.945216 400.994122 139.494344 400.994122 139.024284 
C 400.994122 138.554224 400.807365 138.103353 400.474983 137.77097 
C 400.1426 137.438587 399.691729 137.25183 399.221668 137.25183 
C 398.751608 137.25183 398.300737 137.438587 397.968354 137.77097 
C 397.635972 138.103353 397.449215 138.554224 397.449215 139.024284 
C 397.449215 139.494344 397.635972 139.945216 397.968354 140.277598 
C 398.300737 140.609981 398.751608 140.796738 399.221668 140.796738 
z
" style="stroke:#000000;stroke-width:0.886227;"/>
   </g>
   <g id="patch_3">
    <path d="M 52.388688 22.244082 
L 415.737525 22.244082 
L 415.737525 7.2 
L 52.388688 7.2 
z
" style="fill:#d9d9d9;"/>
   </g>
   <g id="PolyCollection_1">
    <path clip-path="url(#p94b62a7789)" d="M 68.904544 36.558157 
L 68.904544 175.940807 
L 103.674767 200.161481 
L 138.444991 217.989216 
L 173.215215 149.88805 
L 207.985438 206.555655 
L 242.755662 211.042537 
L 277.525886 156.231421 
L 312.296109 178.698401 
L 347.066333 183.195054 
L 381.836557 224.693628 
L 399.221668 202.270219 
L 399.221668 75.778349 
L 399.221668 75.778349 
L 381.836557 71.381082 
L 347.066333 75.598318 
L 312.296109 52.236389 
L 277.525886 41.518881 
L 242.755662 57.992961 
L 207.985438 80.096299 
L 173.215215 31.884537 
L 138.444991 99.389115 
L 103.674767 77.477402 
L 68.904544 36.558157 
z
" style="fill:#333333;fill-opacity:0.501961;"/>
   </g>
   <g id="text_5">
    <!-- Accuracy -->
    <g style="fill:#1a1a1a;" transform="translate(213.974356 17.150291)scale(0.088 -0.088)">
     <defs>
      <path d="M 2188 4044 
L 1331 1722 
L 3047 1722 
L 2188 4044 
z
M 1831 4666 
L 2547 4666 
L 4325 0 
L 3669 0 
L 3244 1197 
L 1141 1197 
L 716 0 
L 50 0 
L 1831 4666 
z
" id="DejaVuSans-41" transform="scale(0.015625)"/>
      <path d="M 3122 3366 
L 3122 2828 
Q 2878 2963 2633 3030 
Q 2388 3097 2138 3097 
Q 1578 3097 1268 2742 
Q 959 2388 959 1747 
Q 959 1106 1268 751 
Q 1578 397 2138 397 
Q 2388 397 2633 464 
Q 2878 531 3122 666 
L 3122 134 
Q 2881 22 2623 -34 
Q 2366 -91 2075 -91 
Q 1284 -91 818 406 
Q 353 903 353 1747 
Q 353 2603 823 3093 
Q 1294 3584 2113 3584 
Q 2378 3584 2631 3529 
Q 2884 3475 3122 3366 
z
" id="DejaVuSans-63" transform="scale(0.015625)"/>
      <path d="M 2631 2963 
Q 2534 3019 2420 3045 
Q 2306 3072 2169 3072 
Q 1681 3072 1420 2755 
Q 1159 2438 1159 1844 
L 1159 0 
L 581 0 
L 581 3500 
L 1159 3500 
L 1159 2956 
Q 1341 3275 1631 3429 
Q 1922 3584 2338 3584 
Q 2397 3584 2469 3576 
Q 2541 3569 2628 3553 
L 2631 2963 
z
" id="DejaVuSans-72" transform="scale(0.015625)"/>
      <path d="M 2059 -325 
Q 1816 -950 1584 -1140 
Q 1353 -1331 966 -1331 
L 506 -1331 
L 506 -850 
L 844 -850 
Q 1081 -850 1212 -737 
Q 1344 -625 1503 -206 
L 1606 56 
L 191 3500 
L 800 3500 
L 1894 763 
L 2988 3500 
L 3597 3500 
L 2059 -325 
z
" id="DejaVuSans-79" transform="scale(0.015625)"/>
     </defs>
     <use xlink:href="#DejaVuSans-41"/>
     <use x="66.658203" xlink:href="#DejaVuSans-63"/>
     <use x="121.638672" xlink:href="#DejaVuSans-63"/>
     <use x="176.619141" xlink:href="#DejaVuSans-75"/>
     <use x="239.998047" xlink:href="#DejaVuSans-72"/>
     <use x="281.111328" xlink:href="#DejaVuSans-61"/>
     <use x="342.390625" xlink:href="#DejaVuSans-63"/>
     <use x="397.371094" xlink:href="#DejaVuSans-79"/>
    </g>
   </g>
  </g>
  <g id="axes_2">
   <g id="patch_4">
    <path d="M 470.23985 234.334082 
L 833.588688 234.334082 
L 833.588688 22.244082 
L 470.23985 22.244082 
z
" style="fill:#ebebeb;"/>
   </g>
   <g id="matplotlib.axis_3">
    <g id="xtick_9">
     <g id="line2d_20">
      <path clip-path="url(#p947b778629)" d="M 486.755707 234.334082 
L 486.755707 22.244082 
" style="fill:none;stroke:#ffffff;stroke-linecap:square;"/>
     </g>
    </g>
    <g id="xtick_10">
     <g id="line2d_21">
      <path clip-path="url(#p947b778629)" d="M 573.681266 234.334082 
L 573.681266 22.244082 
" style="fill:none;stroke:#ffffff;stroke-linecap:square;"/>
     </g>
    </g>
    <g id="xtick_11">
     <g id="line2d_22">
      <path clip-path="url(#p947b778629)" d="M 660.606825 234.334082 
L 660.606825 22.244082 
" style="fill:none;stroke:#ffffff;stroke-linecap:square;"/>
     </g>
    </g>
    <g id="xtick_12">
     <g id="line2d_23">
      <path clip-path="url(#p947b778629)" d="M 747.532384 234.334082 
L 747.532384 22.244082 
" style="fill:none;stroke:#ffffff;stroke-linecap:square;"/>
     </g>
    </g>
    <g id="xtick_13">
     <g id="line2d_24">
      <path clip-path="url(#p947b778629)" d="M 530.218486 234.334082 
L 530.218486 22.244082 
" style="fill:none;stroke:#ffffff;stroke-linecap:square;stroke-width:0.5;"/>
     </g>
    </g>
    <g id="xtick_14">
     <g id="line2d_25">
      <path clip-path="url(#p947b778629)" d="M 617.144045 234.334082 
L 617.144045 22.244082 
" style="fill:none;stroke:#ffffff;stroke-linecap:square;stroke-width:0.5;"/>
     </g>
    </g>
    <g id="xtick_15">
     <g id="line2d_26">
      <path clip-path="url(#p947b778629)" d="M 704.069604 234.334082 
L 704.069604 22.244082 
" style="fill:none;stroke:#ffffff;stroke-linecap:square;stroke-width:0.5;"/>
     </g>
    </g>
    <g id="xtick_16">
     <g id="line2d_27">
      <path clip-path="url(#p947b778629)" d="M 790.995164 234.334082 
L 790.995164 22.244082 
" style="fill:none;stroke:#ffffff;stroke-linecap:square;stroke-width:0.5;"/>
     </g>
    </g>
   </g>
   <g id="matplotlib.axis_4">
    <g id="ytick_8">
     <g id="line2d_28">
      <path clip-path="url(#p947b778629)" d="M 470.23985 182.37335 
L 833.588688 182.37335 
" style="fill:none;stroke:#ffffff;stroke-linecap:square;"/>
     </g>
     <g id="line2d_29">
      <path d="M 470.23985 182.37335 
" style="fill:none;stroke:#333333;stroke-linecap:square;stroke-width:1.5;"/>
      <g>
       <use style="fill:#333333;stroke:#000000;" x="470.23985" xlink:href="#m3baae11394" y="182.37335"/>
      </g>
     </g>
     <g id="text_6">
      <!-- 0.8775 -->
      <g style="fill:#4d4d4d;" transform="translate(434.4981 184.8016)scale(0.088 -0.088)">
       <defs>
        <path d="M 525 4666 
L 3525 4666 
L 3525 4397 
L 1831 0 
L 1172 0 
L 2766 4134 
L 525 4134 
L 525 4666 
z
" id="DejaVuSans-37" transform="scale(0.015625)"/>
        <path d="M 691 4666 
L 3169 4666 
L 3169 4134 
L 1269 4134 
L 1269 2991 
Q 1406 3038 1543 3061 
Q 1681 3084 1819 3084 
Q 2600 3084 3056 2656 
Q 3513 2228 3513 1497 
Q 3513 744 3044 326 
Q 2575 -91 1722 -91 
Q 1428 -91 1123 -41 
Q 819 9 494 109 
L 494 744 
Q 775 591 1075 516 
Q 1375 441 1709 441 
Q 2250 441 2565 725 
Q 2881 1009 2881 1497 
Q 2881 1984 2565 2268 
Q 2250 2553 1709 2553 
Q 1456 2553 1204 2497 
Q 953 2441 691 2322 
L 691 4666 
z
" id="DejaVuSans-35" transform="scale(0.015625)"/>
       </defs>
       <use xlink:href="#DejaVuSans-30"/>
       <use x="63.623047" xlink:href="#DejaVuSans-2e"/>
       <use x="95.410156" xlink:href="#DejaVuSans-38"/>
       <use x="159.033203" xlink:href="#DejaVuSans-37"/>
       <use x="222.65625" xlink:href="#DejaVuSans-37"/>
       <use x="286.279297" xlink:href="#DejaVuSans-35"/>
      </g>
     </g>
    </g>
    <g id="ytick_9">
     <g id="line2d_30">
      <path clip-path="url(#p947b778629)" d="M 470.23985 126.895193 
L 833.588688 126.895193 
" style="fill:none;stroke:#ffffff;stroke-linecap:square;"/>
     </g>
     <g id="line2d_31">
      <path d="M 470.23985 126.895193 
" style="fill:none;stroke:#333333;stroke-linecap:square;stroke-width:1.5;"/>
      <g>
       <use style="fill:#333333;stroke:#000000;" x="470.23985" xlink:href="#m3baae11394" y="126.895193"/>
      </g>
     </g>
     <g id="text_7">
      <!-- 0.8800 -->
      <g style="fill:#4d4d4d;" transform="translate(434.4981 129.323443)scale(0.088 -0.088)">
       <use xlink:href="#DejaVuSans-30"/>
       <use x="63.623047" xlink:href="#DejaVuSans-2e"/>
       <use x="95.410156" xlink:href="#DejaVuSans-38"/>
       <use x="159.033203" xlink:href="#DejaVuSans-38"/>
       <use x="222.65625" xlink:href="#DejaVuSans-30"/>
       <use x="286.279297" xlink:href="#DejaVuSans-30"/>
      </g>
     </g>
    </g>
    <g id="ytick_10">
     <g id="line2d_32">
      <path clip-path="url(#p947b778629)" d="M 470.23985 71.417036 
L 833.588688 71.417036 
" style="fill:none;stroke:#ffffff;stroke-linecap:square;"/>
     </g>
     <g id="line2d_33">
      <path d="M 470.23985 71.417036 
" style="fill:none;stroke:#333333;stroke-linecap:square;stroke-width:1.5;"/>
      <g>
       <use style="fill:#333333;stroke:#000000;" x="470.23985" xlink:href="#m3baae11394" y="71.417036"/>
      </g>
     </g>
     <g id="text_8">
      <!-- 0.8825 -->
      <g style="fill:#4d4d4d;" transform="translate(434.4981 73.845286)scale(0.088 -0.088)">
       <use xlink:href="#DejaVuSans-30"/>
       <use x="63.623047" xlink:href="#DejaVuSans-2e"/>
       <use x="95.410156" xlink:href="#DejaVuSans-38"/>
       <use x="159.033203" xlink:href="#DejaVuSans-38"/>
       <use x="222.65625" xlink:href="#DejaVuSans-32"/>
       <use x="286.279297" xlink:href="#DejaVuSans-35"/>
      </g>
     </g>
    </g>
    <g id="ytick_11">
     <g id="line2d_34">
      <path clip-path="url(#p947b778629)" d="M 470.23985 210.112428 
L 833.588688 210.112428 
" style="fill:none;stroke:#ffffff;stroke-linecap:square;stroke-width:0.5;"/>
     </g>
    </g>
    <g id="ytick_12">
     <g id="line2d_35">
      <path clip-path="url(#p947b778629)" d="M 470.23985 154.634272 
L 833.588688 154.634272 
" style="fill:none;stroke:#ffffff;stroke-linecap:square;stroke-width:0.5;"/>
     </g>
    </g>
    <g id="ytick_13">
     <g id="line2d_36">
      <path clip-path="url(#p947b778629)" d="M 470.23985 99.156115 
L 833.588688 99.156115 
" style="fill:none;stroke:#ffffff;stroke-linecap:square;stroke-width:0.5;"/>
     </g>
    </g>
    <g id="ytick_14">
     <g id="line2d_37">
      <path clip-path="url(#p947b778629)" d="M 470.23985 43.677958 
L 833.588688 43.677958 
" style="fill:none;stroke:#ffffff;stroke-linecap:square;stroke-width:0.5;"/>
     </g>
    </g>
   </g>
   <g id="line2d_38">
    <path clip-path="url(#p947b778629)" d="M 486.755707 125.442957 
L 521.52593 93.361424 
L 556.296154 162.673061 
L 591.066377 113.174565 
L 625.836601 125.753952 
L 660.606825 140.126243 
L 695.377048 109.05243 
L 730.147272 112.04267 
L 764.917496 114.211244 
L 799.687719 133.254221 
L 817.072831 147.24894 
" style="fill:none;stroke:#000000;stroke-width:0.886227;"/>
   </g>
   <g id="PathCollection_2">
    <path clip-path="url(#p947b778629)" d="M 486.755707 127.215411 
C 487.225767 127.215411 487.676638 127.028654 488.009021 126.696271 
C 488.341403 126.363888 488.52816 125.913017 488.52816 125.442957 
C 488.52816 124.972897 488.341403 124.522026 488.009021 124.189643 
C 487.676638 123.85726 487.225767 123.670503 486.755707 123.670503 
C 486.285646 123.670503 485.834775 123.85726 485.502392 124.189643 
C 485.17001 124.522026 484.983253 124.972897 484.983253 125.442957 
C 484.983253 125.913017 485.17001 126.363888 485.502392 126.696271 
C 485.834775 127.028654 486.285646 127.215411 486.755707 127.215411 
z
" style="stroke:#000000;stroke-width:0.886227;"/>
    <path clip-path="url(#p947b778629)" d="M 521.52593 95.133878 
C 521.99599 95.133878 522.446862 94.947121 522.779244 94.614739 
C 523.111627 94.282356 523.298384 93.831485 523.298384 93.361424 
C 523.298384 92.891364 523.111627 92.440493 522.779244 92.10811 
C 522.446862 91.775728 521.99599 91.588971 521.52593 91.588971 
C 521.05587 91.588971 520.604999 91.775728 520.272616 92.10811 
C 519.940233 92.440493 519.753476 92.891364 519.753476 93.361424 
C 519.753476 93.831485 519.940233 94.282356 520.272616 94.614739 
C 520.604999 94.947121 521.05587 95.133878 521.52593 95.133878 
z
" style="stroke:#000000;stroke-width:0.886227;"/>
    <path clip-path="url(#p947b778629)" d="M 556.296154 164.445515 
C 556.766214 164.445515 557.217085 164.258758 557.549468 163.926375 
C 557.881851 163.593992 558.068608 163.143121 558.068608 162.673061 
C 558.068608 162.203 557.881851 161.752129 557.549468 161.419747 
C 557.217085 161.087364 556.766214 160.900607 556.296154 160.900607 
C 555.826094 160.900607 555.375222 161.087364 555.04284 161.419747 
C 554.710457 161.752129 554.5237 162.203 554.5237 162.673061 
C 554.5237 163.143121 554.710457 163.593992 555.04284 163.926375 
C 555.375222 164.258758 555.826094 164.445515 556.296154 164.445515 
z
" style="stroke:#000000;stroke-width:0.886227;"/>
    <path clip-path="url(#p947b778629)" d="M 591.066377 114.947019 
C 591.536438 114.947019 591.987309 114.760262 592.319692 114.42788 
C 592.652074 114.095497 592.838831 113.644626 592.838831 113.174565 
C 592.838831 112.704505 592.652074 112.253634 592.319692 111.921251 
C 591.987309 111.588868 591.536438 111.402112 591.066377 111.402112 
C 590.596317 111.402112 590.145446 111.588868 589.813063 111.921251 
C 589.480681 112.253634 589.293924 112.704505 589.293924 113.174565 
C 589.293924 113.644626 589.480681 114.095497 589.813063 114.42788 
C 590.145446 114.760262 590.596317 114.947019 591.066377 114.947019 
z
" style="stroke:#000000;stroke-width:0.886227;"/>
    <path clip-path="url(#p947b778629)" d="M 625.836601 127.526406 
C 626.306661 127.526406 626.757532 127.339649 627.089915 127.007266 
C 627.422298 126.674884 627.609055 126.224013 627.609055 125.753952 
C 627.609055 125.283892 627.422298 124.833021 627.089915 124.500638 
C 626.757532 124.168255 626.306661 123.981499 625.836601 123.981499 
C 625.366541 123.981499 624.91567 124.168255 624.583287 124.500638 
C 624.250904 124.833021 624.064147 125.283892 624.064147 125.753952 
C 624.064147 126.224013 624.250904 126.674884 624.583287 127.007266 
C 624.91567 127.339649 625.366541 127.526406 625.836601 127.526406 
z
" style="stroke:#000000;stroke-width:0.886227;"/>
    <path clip-path="url(#p947b778629)" d="M 660.606825 141.898696 
C 661.076885 141.898696 661.527756 141.711939 661.860139 141.379557 
C 662.192522 141.047174 662.379279 140.596303 662.379279 140.126243 
C 662.379279 139.656182 662.192522 139.205311 661.860139 138.872928 
C 661.527756 138.540546 661.076885 138.353789 660.606825 138.353789 
C 660.136765 138.353789 659.685893 138.540546 659.353511 138.872928 
C 659.021128 139.205311 658.834371 139.656182 658.834371 140.126243 
C 658.834371 140.596303 659.021128 141.047174 659.353511 141.379557 
C 659.685893 141.711939 660.136765 141.898696 660.606825 141.898696 
z
" style="stroke:#000000;stroke-width:0.886227;"/>
    <path clip-path="url(#p947b778629)" d="M 695.377048 110.824883 
C 695.847109 110.824883 696.29798 110.638127 696.630363 110.305744 
C 696.962745 109.973361 697.149502 109.52249 697.149502 109.05243 
C 697.149502 108.582369 696.962745 108.131498 696.630363 107.799115 
C 696.29798 107.466733 695.847109 107.279976 695.377048 107.279976 
C 694.906988 107.279976 694.456117 107.466733 694.123734 107.799115 
C 693.791352 108.131498 693.604595 108.582369 693.604595 109.05243 
C 693.604595 109.52249 693.791352 109.973361 694.123734 110.305744 
C 694.456117 110.638127 694.906988 110.824883 695.377048 110.824883 
z
" style="stroke:#000000;stroke-width:0.886227;"/>
    <path clip-path="url(#p947b778629)" d="M 730.147272 113.815123 
C 730.617332 113.815123 731.068203 113.628366 731.400586 113.295984 
C 731.732969 112.963601 731.919726 112.51273 731.919726 112.04267 
C 731.919726 111.572609 731.732969 111.121738 731.400586 110.789355 
C 731.068203 110.456973 730.617332 110.270216 730.147272 110.270216 
C 729.677212 110.270216 729.226341 110.456973 728.893958 110.789355 
C 728.561575 111.121738 728.374818 111.572609 728.374818 112.04267 
C 728.374818 112.51273 728.561575 112.963601 728.893958 113.295984 
C 729.226341 113.628366 729.677212 113.815123 730.147272 113.815123 
z
" style="stroke:#000000;stroke-width:0.886227;"/>
    <path clip-path="url(#p947b778629)" d="M 764.917496 115.983697 
C 765.387556 115.983697 765.838427 115.79694 766.17081 115.464558 
C 766.503193 115.132175 766.68995 114.681304 766.68995 114.211244 
C 766.68995 113.741183 766.503193 113.290312 766.17081 112.957929 
C 765.838427 112.625547 765.387556 112.43879 764.917496 112.43879 
C 764.447436 112.43879 763.996564 112.625547 763.664182 112.957929 
C 763.331799 113.290312 763.145042 113.741183 763.145042 114.211244 
C 763.145042 114.681304 763.331799 115.132175 763.664182 115.464558 
C 763.996564 115.79694 764.447436 115.983697 764.917496 115.983697 
z
" style="stroke:#000000;stroke-width:0.886227;"/>
    <path clip-path="url(#p947b778629)" d="M 799.687719 135.026675 
C 800.15778 135.026675 800.608651 134.839918 800.941034 134.507535 
C 801.273416 134.175152 801.460173 133.724281 801.460173 133.254221 
C 801.460173 132.784161 801.273416 132.33329 800.941034 132.000907 
C 800.608651 131.668524 800.15778 131.481767 799.687719 131.481767 
C 799.217659 131.481767 798.766788 131.668524 798.434405 132.000907 
C 798.102023 132.33329 797.915266 132.784161 797.915266 133.254221 
C 797.915266 133.724281 798.102023 134.175152 798.434405 134.507535 
C 798.766788 134.839918 799.217659 135.026675 799.687719 135.026675 
z
" style="stroke:#000000;stroke-width:0.886227;"/>
    <path clip-path="url(#p947b778629)" d="M 817.072831 149.021394 
C 817.542892 149.021394 817.993763 148.834637 818.326145 148.502254 
C 818.658528 148.169871 818.845285 147.719 818.845285 147.24894 
C 818.845285 146.77888 818.658528 146.328009 818.326145 145.995626 
C 817.993763 145.663243 817.542892 145.476486 817.072831 145.476486 
C 816.602771 145.476486 816.1519 145.663243 815.819517 145.995626 
C 815.487134 146.328009 815.300377 146.77888 815.300377 147.24894 
C 815.300377 147.719 815.487134 148.169871 815.819517 148.502254 
C 816.1519 148.834637 816.602771 149.021394 817.072831 149.021394 
z
" style="stroke:#000000;stroke-width:0.886227;"/>
   </g>
   <g id="patch_5">
    <path d="M 470.23985 22.244082 
L 833.588688 22.244082 
L 833.588688 7.2 
L 470.23985 7.2 
z
" style="fill:#d9d9d9;"/>
   </g>
   <g id="PolyCollection_2">
    <path clip-path="url(#p947b778629)" d="M 486.755707 49.022866 
L 486.755707 201.863047 
L 521.52593 154.838312 
L 556.296154 224.693628 
L 591.066377 164.371444 
L 625.836601 189.46091 
L 660.606825 204.938492 
L 695.377048 172.818199 
L 730.147272 153.837586 
L 764.917496 159.820973 
L 799.687719 185.264512 
L 817.072831 200.84116 
L 817.072831 93.65672 
L 817.072831 93.65672 
L 799.687719 81.24393 
L 764.917496 68.601514 
L 730.147272 70.247753 
L 695.377048 45.28666 
L 660.606825 75.313993 
L 625.836601 62.046994 
L 591.066377 61.977687 
L 556.296154 100.652494 
L 521.52593 31.884537 
L 486.755707 49.022866 
z
" style="fill:#333333;fill-opacity:0.501961;"/>
   </g>
   <g id="text_9">
    <!-- AUC -->
    <g style="fill:#1a1a1a;" transform="translate(642.611706 17.150291)scale(0.088 -0.088)">
     <defs>
      <path d="M 556 4666 
L 1191 4666 
L 1191 1831 
Q 1191 1081 1462 751 
Q 1734 422 2344 422 
Q 2950 422 3222 751 
Q 3494 1081 3494 1831 
L 3494 4666 
L 4128 4666 
L 4128 1753 
Q 4128 841 3676 375 
Q 3225 -91 2344 -91 
Q 1459 -91 1007 375 
Q 556 841 556 1753 
L 556 4666 
z
" id="DejaVuSans-55" transform="scale(0.015625)"/>
      <path d="M 4122 4306 
L 4122 3641 
Q 3803 3938 3442 4084 
Q 3081 4231 2675 4231 
Q 1875 4231 1450 3742 
Q 1025 3253 1025 2328 
Q 1025 1406 1450 917 
Q 1875 428 2675 428 
Q 3081 428 3442 575 
Q 3803 722 4122 1019 
L 4122 359 
Q 3791 134 3420 21 
Q 3050 -91 2638 -91 
Q 1578 -91 968 557 
Q 359 1206 359 2328 
Q 359 3453 968 4101 
Q 1578 4750 2638 4750 
Q 3056 4750 3426 4639 
Q 3797 4528 4122 4306 
z
" id="DejaVuSans-43" transform="scale(0.015625)"/>
     </defs>
     <use xlink:href="#DejaVuSans-41"/>
     <use x="68.408203" xlink:href="#DejaVuSans-55"/>
     <use x="141.601562" xlink:href="#DejaVuSans-43"/>
    </g>
   </g>
  </g>
  <g id="axes_3">
   <g id="patch_6">
    <path d="M 52.388688 465.764082 
L 415.737525 465.764082 
L 415.737525 253.674082 
L 52.388688 253.674082 
z
" style="fill:#ebebeb;"/>
   </g>
   <g id="matplotlib.axis_5">
    <g id="xtick_17">
     <g id="line2d_39">
      <path clip-path="url(#p489ed8f25f)" d="M 68.904544 465.764082 
L 68.904544 253.674082 
" style="fill:none;stroke:#ffffff;stroke-linecap:square;"/>
     </g>
     <g id="line2d_40">
      <path d="M 68.904544 465.764082 
" style="fill:none;stroke:#333333;stroke-linecap:square;stroke-width:1.5;"/>
      <defs>
       <path d="M 0 0 
L 0 2.75 
" id="mbb363f258e" style="stroke:#000000;"/>
      </defs>
      <g>
       <use style="fill:#333333;stroke:#000000;" x="68.904544" xlink:href="#mbb363f258e" y="465.764082"/>
      </g>
     </g>
     <g id="text_10">
      <!-- 0 -->
      <g style="fill:#4d4d4d;" transform="translate(66.105044 477.400707)scale(0.088 -0.088)">
       <use xlink:href="#DejaVuSans-30"/>
      </g>
     </g>
    </g>
    <g id="xtick_18">
     <g id="line2d_41">
      <path clip-path="url(#p489ed8f25f)" d="M 155.830103 465.764082 
L 155.830103 253.674082 
" style="fill:none;stroke:#ffffff;stroke-linecap:square;"/>
     </g>
     <g id="line2d_42">
      <path d="M 155.830103 465.764082 
" style="fill:none;stroke:#333333;stroke-linecap:square;stroke-width:1.5;"/>
      <g>
       <use style="fill:#333333;stroke:#000000;" x="155.830103" xlink:href="#mbb363f258e" y="465.764082"/>
      </g>
     </g>
     <g id="text_11">
      <!-- 0.25 -->
      <g style="fill:#4d4d4d;" transform="translate(146.033228 477.400707)scale(0.088 -0.088)">
       <use xlink:href="#DejaVuSans-30"/>
       <use x="63.623047" xlink:href="#DejaVuSans-2e"/>
       <use x="95.410156" xlink:href="#DejaVuSans-32"/>
       <use x="159.033203" xlink:href="#DejaVuSans-35"/>
      </g>
     </g>
    </g>
    <g id="xtick_19">
     <g id="line2d_43">
      <path clip-path="url(#p489ed8f25f)" d="M 242.755662 465.764082 
L 242.755662 253.674082 
" style="fill:none;stroke:#ffffff;stroke-linecap:square;"/>
     </g>
     <g id="line2d_44">
      <path d="M 242.755662 465.764082 
" style="fill:none;stroke:#333333;stroke-linecap:square;stroke-width:1.5;"/>
      <g>
       <use style="fill:#333333;stroke:#000000;" x="242.755662" xlink:href="#mbb363f258e" y="465.764082"/>
      </g>
     </g>
     <g id="text_12">
      <!-- 0.50 -->
      <g style="fill:#4d4d4d;" transform="translate(232.958787 477.400707)scale(0.088 -0.088)">
       <use xlink:href="#DejaVuSans-30"/>
       <use x="63.623047" xlink:href="#DejaVuSans-2e"/>
       <use x="95.410156" xlink:href="#DejaVuSans-35"/>
       <use x="159.033203" xlink:href="#DejaVuSans-30"/>
      </g>
     </g>
    </g>
    <g id="xtick_20">
     <g id="line2d_45">
      <path clip-path="url(#p489ed8f25f)" d="M 329.681221 465.764082 
L 329.681221 253.674082 
" style="fill:none;stroke:#ffffff;stroke-linecap:square;"/>
     </g>
     <g id="line2d_46">
      <path d="M 329.681221 465.764082 
" style="fill:none;stroke:#333333;stroke-linecap:square;stroke-width:1.5;"/>
      <g>
       <use style="fill:#333333;stroke:#000000;" x="329.681221" xlink:href="#mbb363f258e" y="465.764082"/>
      </g>
     </g>
     <g id="text_13">
      <!-- 0.75 -->
      <g style="fill:#4d4d4d;" transform="translate(319.884346 477.400707)scale(0.088 -0.088)">
       <use xlink:href="#DejaVuSans-30"/>
       <use x="63.623047" xlink:href="#DejaVuSans-2e"/>
       <use x="95.410156" xlink:href="#DejaVuSans-37"/>
       <use x="159.033203" xlink:href="#DejaVuSans-35"/>
      </g>
     </g>
    </g>
    <g id="xtick_21">
     <g id="line2d_47">
      <path clip-path="url(#p489ed8f25f)" d="M 112.367323 465.764082 
L 112.367323 253.674082 
" style="fill:none;stroke:#ffffff;stroke-linecap:square;stroke-width:0.5;"/>
     </g>
    </g>
    <g id="xtick_22">
     <g id="line2d_48">
      <path clip-path="url(#p489ed8f25f)" d="M 199.292882 465.764082 
L 199.292882 253.674082 
" style="fill:none;stroke:#ffffff;stroke-linecap:square;stroke-width:0.5;"/>
     </g>
    </g>
    <g id="xtick_23">
     <g id="line2d_49">
      <path clip-path="url(#p489ed8f25f)" d="M 286.218442 465.764082 
L 286.218442 253.674082 
" style="fill:none;stroke:#ffffff;stroke-linecap:square;stroke-width:0.5;"/>
     </g>
    </g>
    <g id="xtick_24">
     <g id="line2d_50">
      <path clip-path="url(#p489ed8f25f)" d="M 373.144001 465.764082 
L 373.144001 253.674082 
" style="fill:none;stroke:#ffffff;stroke-linecap:square;stroke-width:0.5;"/>
     </g>
    </g>
   </g>
   <g id="matplotlib.axis_6">
    <g id="ytick_15">
     <g id="line2d_51">
      <path clip-path="url(#p489ed8f25f)" d="M 52.388688 432.059453 
L 415.737525 432.059453 
" style="fill:none;stroke:#ffffff;stroke-linecap:square;"/>
     </g>
     <g id="line2d_52">
      <path d="M 52.388688 432.059453 
" style="fill:none;stroke:#333333;stroke-linecap:square;stroke-width:1.5;"/>
      <g>
       <use style="fill:#333333;stroke:#000000;" x="52.388688" xlink:href="#m3baae11394" y="432.059453"/>
      </g>
     </g>
     <g id="text_14">
      <!-- 0.888 -->
      <g style="fill:#4d4d4d;" transform="translate(22.245938 434.487703)scale(0.088 -0.088)">
       <use xlink:href="#DejaVuSans-30"/>
       <use x="63.623047" xlink:href="#DejaVuSans-2e"/>
       <use x="95.410156" xlink:href="#DejaVuSans-38"/>
       <use x="159.033203" xlink:href="#DejaVuSans-38"/>
       <use x="222.65625" xlink:href="#DejaVuSans-38"/>
      </g>
     </g>
    </g>
    <g id="ytick_16">
     <g id="line2d_53">
      <path clip-path="url(#p489ed8f25f)" d="M 52.388688 394.425306 
L 415.737525 394.425306 
" style="fill:none;stroke:#ffffff;stroke-linecap:square;"/>
     </g>
     <g id="line2d_54">
      <path d="M 52.388688 394.425306 
" style="fill:none;stroke:#333333;stroke-linecap:square;stroke-width:1.5;"/>
      <g>
       <use style="fill:#333333;stroke:#000000;" x="52.388688" xlink:href="#m3baae11394" y="394.425306"/>
      </g>
     </g>
     <g id="text_15">
      <!-- 0.889 -->
      <g style="fill:#4d4d4d;" transform="translate(22.245938 396.853556)scale(0.088 -0.088)">
       <defs>
        <path d="M 703 97 
L 703 672 
Q 941 559 1184 500 
Q 1428 441 1663 441 
Q 2288 441 2617 861 
Q 2947 1281 2994 2138 
Q 2813 1869 2534 1725 
Q 2256 1581 1919 1581 
Q 1219 1581 811 2004 
Q 403 2428 403 3163 
Q 403 3881 828 4315 
Q 1253 4750 1959 4750 
Q 2769 4750 3195 4129 
Q 3622 3509 3622 2328 
Q 3622 1225 3098 567 
Q 2575 -91 1691 -91 
Q 1453 -91 1209 -44 
Q 966 3 703 97 
z
M 1959 2075 
Q 2384 2075 2632 2365 
Q 2881 2656 2881 3163 
Q 2881 3666 2632 3958 
Q 2384 4250 1959 4250 
Q 1534 4250 1286 3958 
Q 1038 3666 1038 3163 
Q 1038 2656 1286 2365 
Q 1534 2075 1959 2075 
z
" id="DejaVuSans-39" transform="scale(0.015625)"/>
       </defs>
       <use xlink:href="#DejaVuSans-30"/>
       <use x="63.623047" xlink:href="#DejaVuSans-2e"/>
       <use x="95.410156" xlink:href="#DejaVuSans-38"/>
       <use x="159.033203" xlink:href="#DejaVuSans-38"/>
       <use x="222.65625" xlink:href="#DejaVuSans-39"/>
      </g>
     </g>
    </g>
    <g id="ytick_17">
     <g id="line2d_55">
      <path clip-path="url(#p489ed8f25f)" d="M 52.388688 356.791159 
L 415.737525 356.791159 
" style="fill:none;stroke:#ffffff;stroke-linecap:square;"/>
     </g>
     <g id="line2d_56">
      <path d="M 52.388688 356.791159 
" style="fill:none;stroke:#333333;stroke-linecap:square;stroke-width:1.5;"/>
      <g>
       <use style="fill:#333333;stroke:#000000;" x="52.388688" xlink:href="#m3baae11394" y="356.791159"/>
      </g>
     </g>
     <g id="text_16">
      <!-- 0.890 -->
      <g style="fill:#4d4d4d;" transform="translate(22.245938 359.219409)scale(0.088 -0.088)">
       <use xlink:href="#DejaVuSans-30"/>
       <use x="63.623047" xlink:href="#DejaVuSans-2e"/>
       <use x="95.410156" xlink:href="#DejaVuSans-38"/>
       <use x="159.033203" xlink:href="#DejaVuSans-39"/>
       <use x="222.65625" xlink:href="#DejaVuSans-30"/>
      </g>
     </g>
    </g>
    <g id="ytick_18">
     <g id="line2d_57">
      <path clip-path="url(#p489ed8f25f)" d="M 52.388688 319.157012 
L 415.737525 319.157012 
" style="fill:none;stroke:#ffffff;stroke-linecap:square;"/>
     </g>
     <g id="line2d_58">
      <path d="M 52.388688 319.157012 
" style="fill:none;stroke:#333333;stroke-linecap:square;stroke-width:1.5;"/>
      <g>
       <use style="fill:#333333;stroke:#000000;" x="52.388688" xlink:href="#m3baae11394" y="319.157012"/>
      </g>
     </g>
     <g id="text_17">
      <!-- 0.891 -->
      <g style="fill:#4d4d4d;" transform="translate(22.245938 321.585262)scale(0.088 -0.088)">
       <defs>
        <path d="M 794 531 
L 1825 531 
L 1825 4091 
L 703 3866 
L 703 4441 
L 1819 4666 
L 2450 4666 
L 2450 531 
L 3481 531 
L 3481 0 
L 794 0 
L 794 531 
z
" id="DejaVuSans-31" transform="scale(0.015625)"/>
       </defs>
       <use xlink:href="#DejaVuSans-30"/>
       <use x="63.623047" xlink:href="#DejaVuSans-2e"/>
       <use x="95.410156" xlink:href="#DejaVuSans-38"/>
       <use x="159.033203" xlink:href="#DejaVuSans-39"/>
       <use x="222.65625" xlink:href="#DejaVuSans-31"/>
      </g>
     </g>
    </g>
    <g id="ytick_19">
     <g id="line2d_59">
      <path clip-path="url(#p489ed8f25f)" d="M 52.388688 281.522865 
L 415.737525 281.522865 
" style="fill:none;stroke:#ffffff;stroke-linecap:square;"/>
     </g>
     <g id="line2d_60">
      <path d="M 52.388688 281.522865 
" style="fill:none;stroke:#333333;stroke-linecap:square;stroke-width:1.5;"/>
      <g>
       <use style="fill:#333333;stroke:#000000;" x="52.388688" xlink:href="#m3baae11394" y="281.522865"/>
      </g>
     </g>
     <g id="text_18">
      <!-- 0.892 -->
      <g style="fill:#4d4d4d;" transform="translate(22.245938 283.951115)scale(0.088 -0.088)">
       <use xlink:href="#DejaVuSans-30"/>
       <use x="63.623047" xlink:href="#DejaVuSans-2e"/>
       <use x="95.410156" xlink:href="#DejaVuSans-38"/>
       <use x="159.033203" xlink:href="#DejaVuSans-39"/>
       <use x="222.65625" xlink:href="#DejaVuSans-32"/>
      </g>
     </g>
    </g>
    <g id="ytick_20">
     <g id="line2d_61">
      <path clip-path="url(#p489ed8f25f)" d="M 52.388688 450.876526 
L 415.737525 450.876526 
" style="fill:none;stroke:#ffffff;stroke-linecap:square;stroke-width:0.5;"/>
     </g>
    </g>
    <g id="ytick_21">
     <g id="line2d_62">
      <path clip-path="url(#p489ed8f25f)" d="M 52.388688 413.242379 
L 415.737525 413.242379 
" style="fill:none;stroke:#ffffff;stroke-linecap:square;stroke-width:0.5;"/>
     </g>
    </g>
    <g id="ytick_22">
     <g id="line2d_63">
      <path clip-path="url(#p489ed8f25f)" d="M 52.388688 375.608232 
L 415.737525 375.608232 
" style="fill:none;stroke:#ffffff;stroke-linecap:square;stroke-width:0.5;"/>
     </g>
    </g>
    <g id="ytick_23">
     <g id="line2d_64">
      <path clip-path="url(#p489ed8f25f)" d="M 52.388688 337.974086 
L 415.737525 337.974086 
" style="fill:none;stroke:#ffffff;stroke-linecap:square;stroke-width:0.5;"/>
     </g>
    </g>
    <g id="ytick_24">
     <g id="line2d_65">
      <path clip-path="url(#p489ed8f25f)" d="M 52.388688 300.339939 
L 415.737525 300.339939 
" style="fill:none;stroke:#ffffff;stroke-linecap:square;stroke-width:0.5;"/>
     </g>
    </g>
    <g id="ytick_25">
     <g id="line2d_66">
      <path clip-path="url(#p489ed8f25f)" d="M 52.388688 262.705792 
L 415.737525 262.705792 
" style="fill:none;stroke:#ffffff;stroke-linecap:square;stroke-width:0.5;"/>
     </g>
    </g>
   </g>
   <g id="line2d_67">
    <path clip-path="url(#p489ed8f25f)" d="M 68.904544 330.320643 
L 103.674767 363.715583 
L 138.444991 380.944524 
L 173.215215 322.530962 
L 207.985438 357.220647 
L 242.755662 346.468132 
L 277.525886 331.526228 
L 312.296109 357.042724 
L 347.066333 360.401904 
L 381.836557 373.566737 
L 399.221668 346.524648 
" style="fill:none;stroke:#000000;stroke-width:0.886227;"/>
   </g>
   <g id="PathCollection_3">
    <path clip-path="url(#p489ed8f25f)" d="M 68.904544 332.093097 
C 69.374604 332.093097 69.825475 331.90634 70.157858 331.573957 
C 70.490241 331.241575 70.676998 330.790703 70.676998 330.320643 
C 70.676998 329.850583 70.490241 329.399712 70.157858 329.067329 
C 69.825475 328.734946 69.374604 328.548189 68.904544 328.548189 
C 68.434483 328.548189 67.983612 328.734946 67.65123 329.067329 
C 67.318847 329.399712 67.13209 329.850583 67.13209 330.320643 
C 67.13209 330.790703 67.318847 331.241575 67.65123 331.573957 
C 67.983612 331.90634 68.434483 332.093097 68.904544 332.093097 
z
" style="stroke:#000000;stroke-width:0.886227;"/>
    <path clip-path="url(#p489ed8f25f)" d="M 103.674767 365.488036 
C 104.144828 365.488036 104.595699 365.301279 104.928082 364.968897 
C 105.260464 364.636514 105.447221 364.185643 105.447221 363.715583 
C 105.447221 363.245522 105.260464 362.794651 104.928082 362.462268 
C 104.595699 362.129886 104.144828 361.943129 103.674767 361.943129 
C 103.204707 361.943129 102.753836 362.129886 102.421453 362.462268 
C 102.08907 362.794651 101.902314 363.245522 101.902314 363.715583 
C 101.902314 364.185643 102.08907 364.636514 102.421453 364.968897 
C 102.753836 365.301279 103.204707 365.488036 103.674767 365.488036 
z
" style="stroke:#000000;stroke-width:0.886227;"/>
    <path clip-path="url(#p489ed8f25f)" d="M 138.444991 382.716978 
C 138.915051 382.716978 139.365922 382.530221 139.698305 382.197838 
C 140.030688 381.865455 140.217445 381.414584 140.217445 380.944524 
C 140.217445 380.474463 140.030688 380.023592 139.698305 379.69121 
C 139.365922 379.358827 138.915051 379.17207 138.444991 379.17207 
C 137.974931 379.17207 137.52406 379.358827 137.191677 379.69121 
C 136.859294 380.023592 136.672537 380.474463 136.672537 380.944524 
C 136.672537 381.414584 136.859294 381.865455 137.191677 382.197838 
C 137.52406 382.530221 137.974931 382.716978 138.444991 382.716978 
z
" style="stroke:#000000;stroke-width:0.886227;"/>
    <path clip-path="url(#p489ed8f25f)" d="M 173.215215 324.303416 
C 173.685275 324.303416 174.136146 324.116659 174.468529 323.784276 
C 174.800912 323.451894 174.987669 323.001022 174.987669 322.530962 
C 174.987669 322.060902 174.800912 321.610031 174.468529 321.277648 
C 174.136146 320.945265 173.685275 320.758508 173.215215 320.758508 
C 172.745154 320.758508 172.294283 320.945265 171.961901 321.277648 
C 171.629518 321.610031 171.442761 322.060902 171.442761 322.530962 
C 171.442761 323.001022 171.629518 323.451894 171.961901 323.784276 
C 172.294283 324.116659 172.745154 324.303416 173.215215 324.303416 
z
" style="stroke:#000000;stroke-width:0.886227;"/>
    <path clip-path="url(#p489ed8f25f)" d="M 207.985438 358.993101 
C 208.455499 358.993101 208.90637 358.806344 209.238752 358.473961 
C 209.571135 358.141578 209.757892 357.690707 209.757892 357.220647 
C 209.757892 356.750587 209.571135 356.299716 209.238752 355.967333 
C 208.90637 355.63495 208.455499 355.448193 207.985438 355.448193 
C 207.515378 355.448193 207.064507 355.63495 206.732124 355.967333 
C 206.399741 356.299716 206.212985 356.750587 206.212985 357.220647 
C 206.212985 357.690707 206.399741 358.141578 206.732124 358.473961 
C 207.064507 358.806344 207.515378 358.993101 207.985438 358.993101 
z
" style="stroke:#000000;stroke-width:0.886227;"/>
    <path clip-path="url(#p489ed8f25f)" d="M 242.755662 348.240586 
C 243.225722 348.240586 243.676593 348.053829 244.008976 347.721446 
C 244.341359 347.389063 244.528116 346.938192 244.528116 346.468132 
C 244.528116 345.998071 244.341359 345.5472 244.008976 345.214818 
C 243.676593 344.882435 243.225722 344.695678 242.755662 344.695678 
C 242.285602 344.695678 241.834731 344.882435 241.502348 345.214818 
C 241.169965 345.5472 240.983208 345.998071 240.983208 346.468132 
C 240.983208 346.938192 241.169965 347.389063 241.502348 347.721446 
C 241.834731 348.053829 242.285602 348.240586 242.755662 348.240586 
z
" style="stroke:#000000;stroke-width:0.886227;"/>
    <path clip-path="url(#p489ed8f25f)" d="M 277.525886 333.298682 
C 277.995946 333.298682 278.446817 333.111925 278.7792 332.779542 
C 279.111583 332.447159 279.29834 331.996288 279.29834 331.526228 
C 279.29834 331.056168 279.111583 330.605297 278.7792 330.272914 
C 278.446817 329.940531 277.995946 329.753774 277.525886 329.753774 
C 277.055825 329.753774 276.604954 329.940531 276.272572 330.272914 
C 275.940189 330.605297 275.753432 331.056168 275.753432 331.526228 
C 275.753432 331.996288 275.940189 332.447159 276.272572 332.779542 
C 276.604954 333.111925 277.055825 333.298682 277.525886 333.298682 
z
" style="stroke:#000000;stroke-width:0.886227;"/>
    <path clip-path="url(#p489ed8f25f)" d="M 312.296109 358.815177 
C 312.76617 358.815177 313.217041 358.62842 313.549423 358.296038 
C 313.881806 357.963655 314.068563 357.512784 314.068563 357.042724 
C 314.068563 356.572663 313.881806 356.121792 313.549423 355.789409 
C 313.217041 355.457027 312.76617 355.27027 312.296109 355.27027 
C 311.826049 355.27027 311.375178 355.457027 311.042795 355.789409 
C 310.710412 356.121792 310.523655 356.572663 310.523655 357.042724 
C 310.523655 357.512784 310.710412 357.963655 311.042795 358.296038 
C 311.375178 358.62842 311.826049 358.815177 312.296109 358.815177 
z
" style="stroke:#000000;stroke-width:0.886227;"/>
    <path clip-path="url(#p489ed8f25f)" d="M 347.066333 362.174358 
C 347.536393 362.174358 347.987264 361.987601 348.319647 361.655218 
C 348.65203 361.322835 348.838787 360.871964 348.838787 360.401904 
C 348.838787 359.931844 348.65203 359.480973 348.319647 359.14859 
C 347.987264 358.816207 347.536393 358.62945 347.066333 358.62945 
C 346.596273 358.62945 346.145402 358.816207 345.813019 359.14859 
C 345.480636 359.480973 345.293879 359.931844 345.293879 360.401904 
C 345.293879 360.871964 345.480636 361.322835 345.813019 361.655218 
C 346.145402 361.987601 346.596273 362.174358 347.066333 362.174358 
z
" style="stroke:#000000;stroke-width:0.886227;"/>
    <path clip-path="url(#p489ed8f25f)" d="M 381.836557 375.339191 
C 382.306617 375.339191 382.757488 375.152434 383.089871 374.820051 
C 383.422254 374.487669 383.60901 374.036797 383.60901 373.566737 
C 383.60901 373.096677 383.422254 372.645806 383.089871 372.313423 
C 382.757488 371.98104 382.306617 371.794283 381.836557 371.794283 
C 381.366496 371.794283 380.915625 371.98104 380.583243 372.313423 
C 380.25086 372.645806 380.064103 373.096677 380.064103 373.566737 
C 380.064103 374.036797 380.25086 374.487669 380.583243 374.820051 
C 380.915625 375.152434 381.366496 375.339191 381.836557 375.339191 
z
" style="stroke:#000000;stroke-width:0.886227;"/>
    <path clip-path="url(#p489ed8f25f)" d="M 399.221668 348.297101 
C 399.691729 348.297101 400.1426 348.110344 400.474983 347.777962 
C 400.807365 347.445579 400.994122 346.994708 400.994122 346.524648 
C 400.994122 346.054587 400.807365 345.603716 400.474983 345.271333 
C 400.1426 344.938951 399.691729 344.752194 399.221668 344.752194 
C 398.751608 344.752194 398.300737 344.938951 397.968354 345.271333 
C 397.635972 345.603716 397.449215 346.054587 397.449215 346.524648 
C 397.449215 346.994708 397.635972 347.445579 397.968354 347.777962 
C 398.300737 348.110344 398.751608 348.297101 399.221668 348.297101 
z
" style="stroke:#000000;stroke-width:0.886227;"/>
   </g>
   <g id="patch_7">
    <path d="M 52.388688 253.674082 
L 415.737525 253.674082 
L 415.737525 238.63 
L 52.388688 238.63 
z
" style="fill:#d9d9d9;"/>
   </g>
   <g id="PolyCollection_3">
    <path clip-path="url(#p489ed8f25f)" d="M 68.904544 263.314537 
L 68.904544 397.32675 
L 103.674767 429.446388 
L 138.444991 430.266491 
L 173.215215 372.758103 
L 207.985438 432.641858 
L 242.755662 414.524348 
L 277.525886 370.989346 
L 312.296109 417.748613 
L 347.066333 426.48597 
L 381.836557 456.123628 
L 399.221668 401.890424 
L 399.221668 291.158871 
L 399.221668 291.158871 
L 381.836557 291.009847 
L 347.066333 294.317838 
L 312.296109 296.336834 
L 277.525886 292.06311 
L 242.755662 278.411915 
L 207.985438 281.799436 
L 173.215215 272.303822 
L 138.444991 331.622556 
L 103.674767 297.984777 
L 68.904544 263.314537 
z
" style="fill:#333333;fill-opacity:0.501961;"/>
   </g>
   <g id="text_19">
    <!-- F1 score: &lt;=50K -->
    <g style="fill:#1a1a1a;" transform="translate(196.774481 248.580291)scale(0.088 -0.088)">
     <defs>
      <path d="M 628 4666 
L 3309 4666 
L 3309 4134 
L 1259 4134 
L 1259 2759 
L 3109 2759 
L 3109 2228 
L 1259 2228 
L 1259 0 
L 628 0 
L 628 4666 
z
" id="DejaVuSans-46" transform="scale(0.015625)"/>
      <path id="DejaVuSans-20" transform="scale(0.015625)"/>
      <path d="M 2834 3397 
L 2834 2853 
Q 2591 2978 2328 3040 
Q 2066 3103 1784 3103 
Q 1356 3103 1142 2972 
Q 928 2841 928 2578 
Q 928 2378 1081 2264 
Q 1234 2150 1697 2047 
L 1894 2003 
Q 2506 1872 2764 1633 
Q 3022 1394 3022 966 
Q 3022 478 2636 193 
Q 2250 -91 1575 -91 
Q 1294 -91 989 -36 
Q 684 19 347 128 
L 347 722 
Q 666 556 975 473 
Q 1284 391 1588 391 
Q 1994 391 2212 530 
Q 2431 669 2431 922 
Q 2431 1156 2273 1281 
Q 2116 1406 1581 1522 
L 1381 1569 
Q 847 1681 609 1914 
Q 372 2147 372 2553 
Q 372 3047 722 3315 
Q 1072 3584 1716 3584 
Q 2034 3584 2315 3537 
Q 2597 3491 2834 3397 
z
" id="DejaVuSans-73" transform="scale(0.015625)"/>
      <path d="M 1959 3097 
Q 1497 3097 1228 2736 
Q 959 2375 959 1747 
Q 959 1119 1226 758 
Q 1494 397 1959 397 
Q 2419 397 2687 759 
Q 2956 1122 2956 1747 
Q 2956 2369 2687 2733 
Q 2419 3097 1959 3097 
z
M 1959 3584 
Q 2709 3584 3137 3096 
Q 3566 2609 3566 1747 
Q 3566 888 3137 398 
Q 2709 -91 1959 -91 
Q 1206 -91 779 398 
Q 353 888 353 1747 
Q 353 2609 779 3096 
Q 1206 3584 1959 3584 
z
" id="DejaVuSans-6f" transform="scale(0.015625)"/>
      <path d="M 750 794 
L 1409 794 
L 1409 0 
L 750 0 
L 750 794 
z
M 750 3309 
L 1409 3309 
L 1409 2516 
L 750 2516 
L 750 3309 
z
" id="DejaVuSans-3a" transform="scale(0.015625)"/>
      <path d="M 4684 3150 
L 1459 2003 
L 4684 863 
L 4684 294 
L 678 1747 
L 678 2266 
L 4684 3719 
L 4684 3150 
z
" id="DejaVuSans-3c" transform="scale(0.015625)"/>
      <path d="M 678 2906 
L 4684 2906 
L 4684 2381 
L 678 2381 
L 678 2906 
z
M 678 1631 
L 4684 1631 
L 4684 1100 
L 678 1100 
L 678 1631 
z
" id="DejaVuSans-3d" transform="scale(0.015625)"/>
      <path d="M 628 4666 
L 1259 4666 
L 1259 2694 
L 3353 4666 
L 4166 4666 
L 1850 2491 
L 4331 0 
L 3500 0 
L 1259 2247 
L 1259 0 
L 628 0 
L 628 4666 
z
" id="DejaVuSans-4b" transform="scale(0.015625)"/>
     </defs>
     <use xlink:href="#DejaVuSans-46"/>
     <use x="57.519531" xlink:href="#DejaVuSans-31"/>
     <use x="121.142578" xlink:href="#DejaVuSans-20"/>
     <use x="152.929688" xlink:href="#DejaVuSans-73"/>
     <use x="205.029297" xlink:href="#DejaVuSans-63"/>
     <use x="260.009766" xlink:href="#DejaVuSans-6f"/>
     <use x="321.191406" xlink:href="#DejaVuSans-72"/>
     <use x="360.054688" xlink:href="#DejaVuSans-65"/>
     <use x="421.578125" xlink:href="#DejaVuSans-3a"/>
     <use x="455.269531" xlink:href="#DejaVuSans-20"/>
     <use x="487.056641" xlink:href="#DejaVuSans-3c"/>
     <use x="570.845703" xlink:href="#DejaVuSans-3d"/>
     <use x="654.634766" xlink:href="#DejaVuSans-35"/>
     <use x="718.257812" xlink:href="#DejaVuSans-30"/>
     <use x="781.880859" xlink:href="#DejaVuSans-4b"/>
    </g>
   </g>
  </g>
  <g id="axes_4">
   <g id="patch_8">
    <path d="M 470.23985 465.764082 
L 833.588688 465.764082 
L 833.588688 253.674082 
L 470.23985 253.674082 
z
" style="fill:#ebebeb;"/>
   </g>
   <g id="matplotlib.axis_7">
    <g id="xtick_25">
     <g id="line2d_68">
      <path clip-path="url(#p0146c1457d)" d="M 486.755707 465.764082 
L 486.755707 253.674082 
" style="fill:none;stroke:#ffffff;stroke-linecap:square;"/>
     </g>
     <g id="line2d_69">
      <path d="M 486.755707 465.764082 
" style="fill:none;stroke:#333333;stroke-linecap:square;stroke-width:1.5;"/>
      <g>
       <use style="fill:#333333;stroke:#000000;" x="486.755707" xlink:href="#mbb363f258e" y="465.764082"/>
      </g>
     </g>
     <g id="text_20">
      <!-- 0 -->
      <g style="fill:#4d4d4d;" transform="translate(483.956207 477.400707)scale(0.088 -0.088)">
       <use xlink:href="#DejaVuSans-30"/>
      </g>
     </g>
    </g>
    <g id="xtick_26">
     <g id="line2d_70">
      <path clip-path="url(#p0146c1457d)" d="M 573.681266 465.764082 
L 573.681266 253.674082 
" style="fill:none;stroke:#ffffff;stroke-linecap:square;"/>
     </g>
     <g id="line2d_71">
      <path d="M 573.681266 465.764082 
" style="fill:none;stroke:#333333;stroke-linecap:square;stroke-width:1.5;"/>
      <g>
       <use style="fill:#333333;stroke:#000000;" x="573.681266" xlink:href="#mbb363f258e" y="465.764082"/>
      </g>
     </g>
     <g id="text_21">
      <!-- 0.25 -->
      <g style="fill:#4d4d4d;" transform="translate(563.884391 477.400707)scale(0.088 -0.088)">
       <use xlink:href="#DejaVuSans-30"/>
       <use x="63.623047" xlink:href="#DejaVuSans-2e"/>
       <use x="95.410156" xlink:href="#DejaVuSans-32"/>
       <use x="159.033203" xlink:href="#DejaVuSans-35"/>
      </g>
     </g>
    </g>
    <g id="xtick_27">
     <g id="line2d_72">
      <path clip-path="url(#p0146c1457d)" d="M 660.606825 465.764082 
L 660.606825 253.674082 
" style="fill:none;stroke:#ffffff;stroke-linecap:square;"/>
     </g>
     <g id="line2d_73">
      <path d="M 660.606825 465.764082 
" style="fill:none;stroke:#333333;stroke-linecap:square;stroke-width:1.5;"/>
      <g>
       <use style="fill:#333333;stroke:#000000;" x="660.606825" xlink:href="#mbb363f258e" y="465.764082"/>
      </g>
     </g>
     <g id="text_22">
      <!-- 0.50 -->
      <g style="fill:#4d4d4d;" transform="translate(650.80995 477.400707)scale(0.088 -0.088)">
       <use xlink:href="#DejaVuSans-30"/>
       <use x="63.623047" xlink:href="#DejaVuSans-2e"/>
       <use x="95.410156" xlink:href="#DejaVuSans-35"/>
       <use x="159.033203" xlink:href="#DejaVuSans-30"/>
      </g>
     </g>
    </g>
    <g id="xtick_28">
     <g id="line2d_74">
      <path clip-path="url(#p0146c1457d)" d="M 747.532384 465.764082 
L 747.532384 253.674082 
" style="fill:none;stroke:#ffffff;stroke-linecap:square;"/>
     </g>
     <g id="line2d_75">
      <path d="M 747.532384 465.764082 
" style="fill:none;stroke:#333333;stroke-linecap:square;stroke-width:1.5;"/>
      <g>
       <use style="fill:#333333;stroke:#000000;" x="747.532384" xlink:href="#mbb363f258e" y="465.764082"/>
      </g>
     </g>
     <g id="text_23">
      <!-- 0.75 -->
      <g style="fill:#4d4d4d;" transform="translate(737.735509 477.400707)scale(0.088 -0.088)">
       <use xlink:href="#DejaVuSans-30"/>
       <use x="63.623047" xlink:href="#DejaVuSans-2e"/>
       <use x="95.410156" xlink:href="#DejaVuSans-37"/>
       <use x="159.033203" xlink:href="#DejaVuSans-35"/>
      </g>
     </g>
    </g>
    <g id="xtick_29">
     <g id="line2d_76">
      <path clip-path="url(#p0146c1457d)" d="M 530.218486 465.764082 
L 530.218486 253.674082 
" style="fill:none;stroke:#ffffff;stroke-linecap:square;stroke-width:0.5;"/>
     </g>
    </g>
    <g id="xtick_30">
     <g id="line2d_77">
      <path clip-path="url(#p0146c1457d)" d="M 617.144045 465.764082 
L 617.144045 253.674082 
" style="fill:none;stroke:#ffffff;stroke-linecap:square;stroke-width:0.5;"/>
     </g>
    </g>
    <g id="xtick_31">
     <g id="line2d_78">
      <path clip-path="url(#p0146c1457d)" d="M 704.069604 465.764082 
L 704.069604 253.674082 
" style="fill:none;stroke:#ffffff;stroke-linecap:square;stroke-width:0.5;"/>
     </g>
    </g>
    <g id="xtick_32">
     <g id="line2d_79">
      <path clip-path="url(#p0146c1457d)" d="M 790.995164 465.764082 
L 790.995164 253.674082 
" style="fill:none;stroke:#ffffff;stroke-linecap:square;stroke-width:0.5;"/>
     </g>
    </g>
    <g id="text_24">
     <!-- Adam beta1 -->
     <g transform="translate(396.853297 491.989114)scale(0.11 -0.11)">
      <defs>
       <path d="M 2906 2969 
L 2906 4863 
L 3481 4863 
L 3481 0 
L 2906 0 
L 2906 525 
Q 2725 213 2448 61 
Q 2172 -91 1784 -91 
Q 1150 -91 751 415 
Q 353 922 353 1747 
Q 353 2572 751 3078 
Q 1150 3584 1784 3584 
Q 2172 3584 2448 3432 
Q 2725 3281 2906 2969 
z
M 947 1747 
Q 947 1113 1208 752 
Q 1469 391 1925 391 
Q 2381 391 2643 752 
Q 2906 1113 2906 1747 
Q 2906 2381 2643 2742 
Q 2381 3103 1925 3103 
Q 1469 3103 1208 2742 
Q 947 2381 947 1747 
z
" id="DejaVuSans-64" transform="scale(0.015625)"/>
       <path d="M 3328 2828 
Q 3544 3216 3844 3400 
Q 4144 3584 4550 3584 
Q 5097 3584 5394 3201 
Q 5691 2819 5691 2113 
L 5691 0 
L 5113 0 
L 5113 2094 
Q 5113 2597 4934 2840 
Q 4756 3084 4391 3084 
Q 3944 3084 3684 2787 
Q 3425 2491 3425 1978 
L 3425 0 
L 2847 0 
L 2847 2094 
Q 2847 2600 2669 2842 
Q 2491 3084 2119 3084 
Q 1678 3084 1418 2786 
Q 1159 2488 1159 1978 
L 1159 0 
L 581 0 
L 581 3500 
L 1159 3500 
L 1159 2956 
Q 1356 3278 1631 3431 
Q 1906 3584 2284 3584 
Q 2666 3584 2933 3390 
Q 3200 3197 3328 2828 
z
" id="DejaVuSans-6d" transform="scale(0.015625)"/>
       <path d="M 3116 1747 
Q 3116 2381 2855 2742 
Q 2594 3103 2138 3103 
Q 1681 3103 1420 2742 
Q 1159 2381 1159 1747 
Q 1159 1113 1420 752 
Q 1681 391 2138 391 
Q 2594 391 2855 752 
Q 3116 1113 3116 1747 
z
M 1159 2969 
Q 1341 3281 1617 3432 
Q 1894 3584 2278 3584 
Q 2916 3584 3314 3078 
Q 3713 2572 3713 1747 
Q 3713 922 3314 415 
Q 2916 -91 2278 -91 
Q 1894 -91 1617 61 
Q 1341 213 1159 525 
L 1159 0 
L 581 0 
L 581 4863 
L 1159 4863 
L 1159 2969 
z
" id="DejaVuSans-62" transform="scale(0.015625)"/>
       <path d="M 1172 4494 
L 1172 3500 
L 2356 3500 
L 2356 3053 
L 1172 3053 
L 1172 1153 
Q 1172 725 1289 603 
Q 1406 481 1766 481 
L 2356 481 
L 2356 0 
L 1766 0 
Q 1100 0 847 248 
Q 594 497 594 1153 
L 594 3053 
L 172 3053 
L 172 3500 
L 594 3500 
L 594 4494 
L 1172 4494 
z
" id="DejaVuSans-74" transform="scale(0.015625)"/>
      </defs>
      <use xlink:href="#DejaVuSans-41"/>
      <use x="66.658203" xlink:href="#DejaVuSans-64"/>
      <use x="130.134766" xlink:href="#DejaVuSans-61"/>
      <use x="191.414062" xlink:href="#DejaVuSans-6d"/>
      <use x="288.826172" xlink:href="#DejaVuSans-20"/>
      <use x="320.613281" xlink:href="#DejaVuSans-62"/>
      <use x="384.089844" xlink:href="#DejaVuSans-65"/>
      <use x="445.613281" xlink:href="#DejaVuSans-74"/>
      <use x="484.822266" xlink:href="#DejaVuSans-61"/>
      <use x="546.101562" xlink:href="#DejaVuSans-31"/>
     </g>
    </g>
   </g>
   <g id="matplotlib.axis_8">
    <g id="ytick_26">
     <g id="line2d_80">
      <path clip-path="url(#p0146c1457d)" d="M 470.23985 445.745465 
L 833.588688 445.745465 
" style="fill:none;stroke:#ffffff;stroke-linecap:square;"/>
     </g>
     <g id="line2d_81">
      <path d="M 470.23985 445.745465 
" style="fill:none;stroke:#333333;stroke-linecap:square;stroke-width:1.5;"/>
      <g>
       <use style="fill:#333333;stroke:#000000;" x="470.23985" xlink:href="#m3baae11394" y="445.745465"/>
      </g>
     </g>
     <g id="text_25">
      <!-- 0.63 -->
      <g style="fill:#4d4d4d;" transform="translate(445.6961 448.173715)scale(0.088 -0.088)">
       <defs>
        <path d="M 2113 2584 
Q 1688 2584 1439 2293 
Q 1191 2003 1191 1497 
Q 1191 994 1439 701 
Q 1688 409 2113 409 
Q 2538 409 2786 701 
Q 3034 994 3034 1497 
Q 3034 2003 2786 2293 
Q 2538 2584 2113 2584 
z
M 3366 4563 
L 3366 3988 
Q 3128 4100 2886 4159 
Q 2644 4219 2406 4219 
Q 1781 4219 1451 3797 
Q 1122 3375 1075 2522 
Q 1259 2794 1537 2939 
Q 1816 3084 2150 3084 
Q 2853 3084 3261 2657 
Q 3669 2231 3669 1497 
Q 3669 778 3244 343 
Q 2819 -91 2113 -91 
Q 1303 -91 875 529 
Q 447 1150 447 2328 
Q 447 3434 972 4092 
Q 1497 4750 2381 4750 
Q 2619 4750 2861 4703 
Q 3103 4656 3366 4563 
z
" id="DejaVuSans-36" transform="scale(0.015625)"/>
       </defs>
       <use xlink:href="#DejaVuSans-30"/>
       <use x="63.623047" xlink:href="#DejaVuSans-2e"/>
       <use x="95.410156" xlink:href="#DejaVuSans-36"/>
       <use x="159.033203" xlink:href="#DejaVuSans-33"/>
      </g>
     </g>
    </g>
    <g id="ytick_27">
     <g id="line2d_82">
      <path clip-path="url(#p0146c1457d)" d="M 470.23985 373.369791 
L 833.588688 373.369791 
" style="fill:none;stroke:#ffffff;stroke-linecap:square;"/>
     </g>
     <g id="line2d_83">
      <path d="M 470.23985 373.369791 
" style="fill:none;stroke:#333333;stroke-linecap:square;stroke-width:1.5;"/>
      <g>
       <use style="fill:#333333;stroke:#000000;" x="470.23985" xlink:href="#m3baae11394" y="373.369791"/>
      </g>
     </g>
     <g id="text_26">
      <!-- 0.64 -->
      <g style="fill:#4d4d4d;" transform="translate(445.6961 375.798041)scale(0.088 -0.088)">
       <use xlink:href="#DejaVuSans-30"/>
       <use x="63.623047" xlink:href="#DejaVuSans-2e"/>
       <use x="95.410156" xlink:href="#DejaVuSans-36"/>
       <use x="159.033203" xlink:href="#DejaVuSans-34"/>
      </g>
     </g>
    </g>
    <g id="ytick_28">
     <g id="line2d_84">
      <path clip-path="url(#p0146c1457d)" d="M 470.23985 300.994117 
L 833.588688 300.994117 
" style="fill:none;stroke:#ffffff;stroke-linecap:square;"/>
     </g>
     <g id="line2d_85">
      <path d="M 470.23985 300.994117 
" style="fill:none;stroke:#333333;stroke-linecap:square;stroke-width:1.5;"/>
      <g>
       <use style="fill:#333333;stroke:#000000;" x="470.23985" xlink:href="#m3baae11394" y="300.994117"/>
      </g>
     </g>
     <g id="text_27">
      <!-- 0.65 -->
      <g style="fill:#4d4d4d;" transform="translate(445.6961 303.422367)scale(0.088 -0.088)">
       <use xlink:href="#DejaVuSans-30"/>
       <use x="63.623047" xlink:href="#DejaVuSans-2e"/>
       <use x="95.410156" xlink:href="#DejaVuSans-36"/>
       <use x="159.033203" xlink:href="#DejaVuSans-35"/>
      </g>
     </g>
    </g>
    <g id="ytick_29">
     <g id="line2d_86">
      <path clip-path="url(#p0146c1457d)" d="M 470.23985 409.557628 
L 833.588688 409.557628 
" style="fill:none;stroke:#ffffff;stroke-linecap:square;stroke-width:0.5;"/>
     </g>
    </g>
    <g id="ytick_30">
     <g id="line2d_87">
      <path clip-path="url(#p0146c1457d)" d="M 470.23985 337.181954 
L 833.588688 337.181954 
" style="fill:none;stroke:#ffffff;stroke-linecap:square;stroke-width:0.5;"/>
     </g>
    </g>
    <g id="ytick_31">
     <g id="line2d_88">
      <path clip-path="url(#p0146c1457d)" d="M 470.23985 264.806279 
L 833.588688 264.806279 
" style="fill:none;stroke:#ffffff;stroke-linecap:square;stroke-width:0.5;"/>
     </g>
    </g>
   </g>
   <g id="line2d_89">
    <path clip-path="url(#p0146c1457d)" d="M 486.755707 350.612168 
L 521.52593 351.589831 
L 556.296154 359.300875 
L 591.066377 334.568947 
L 625.836601 377.051895 
L 660.606825 377.603227 
L 695.377048 331.875338 
L 730.147272 316.25225 
L 764.917496 339.548771 
L 799.687719 352.346308 
L 817.072831 387.02012 
" style="fill:none;stroke:#000000;stroke-width:0.886227;"/>
   </g>
   <g id="PathCollection_4">
    <path clip-path="url(#p0146c1457d)" d="M 486.755707 352.384622 
C 487.225767 352.384622 487.676638 352.197865 488.009021 351.865482 
C 488.341403 351.5331 488.52816 351.082228 488.52816 350.612168 
C 488.52816 350.142108 488.341403 349.691237 488.009021 349.358854 
C 487.676638 349.026471 487.225767 348.839714 486.755707 348.839714 
C 486.285646 348.839714 485.834775 349.026471 485.502392 349.358854 
C 485.17001 349.691237 484.983253 350.142108 484.983253 350.612168 
C 484.983253 351.082228 485.17001 351.5331 485.502392 351.865482 
C 485.834775 352.197865 486.285646 352.384622 486.755707 352.384622 
z
" style="stroke:#000000;stroke-width:0.886227;"/>
    <path clip-path="url(#p0146c1457d)" d="M 521.52593 353.362285 
C 521.99599 353.362285 522.446862 353.175528 522.779244 352.843145 
C 523.111627 352.510762 523.298384 352.059891 523.298384 351.589831 
C 523.298384 351.119771 523.111627 350.6689 522.779244 350.336517 
C 522.446862 350.004134 521.99599 349.817377 521.52593 349.817377 
C 521.05587 349.817377 520.604999 350.004134 520.272616 350.336517 
C 519.940233 350.6689 519.753476 351.119771 519.753476 351.589831 
C 519.753476 352.059891 519.940233 352.510762 520.272616 352.843145 
C 520.604999 353.175528 521.05587 353.362285 521.52593 353.362285 
z
" style="stroke:#000000;stroke-width:0.886227;"/>
    <path clip-path="url(#p0146c1457d)" d="M 556.296154 361.073329 
C 556.766214 361.073329 557.217085 360.886572 557.549468 360.554189 
C 557.881851 360.221807 558.068608 359.770936 558.068608 359.300875 
C 558.068608 358.830815 557.881851 358.379944 557.549468 358.047561 
C 557.217085 357.715178 556.766214 357.528421 556.296154 357.528421 
C 555.826094 357.528421 555.375222 357.715178 555.04284 358.047561 
C 554.710457 358.379944 554.5237 358.830815 554.5237 359.300875 
C 554.5237 359.770936 554.710457 360.221807 555.04284 360.554189 
C 555.375222 360.886572 555.826094 361.073329 556.296154 361.073329 
z
" style="stroke:#000000;stroke-width:0.886227;"/>
    <path clip-path="url(#p0146c1457d)" d="M 591.066377 336.3414 
C 591.536438 336.3414 591.987309 336.154643 592.319692 335.822261 
C 592.652074 335.489878 592.838831 335.039007 592.838831 334.568947 
C 592.838831 334.098886 592.652074 333.648015 592.319692 333.315632 
C 591.987309 332.98325 591.536438 332.796493 591.066377 332.796493 
C 590.596317 332.796493 590.145446 332.98325 589.813063 333.315632 
C 589.480681 333.648015 589.293924 334.098886 589.293924 334.568947 
C 589.293924 335.039007 589.480681 335.489878 589.813063 335.822261 
C 590.145446 336.154643 590.596317 336.3414 591.066377 336.3414 
z
" style="stroke:#000000;stroke-width:0.886227;"/>
    <path clip-path="url(#p0146c1457d)" d="M 625.836601 378.824349 
C 626.306661 378.824349 626.757532 378.637592 627.089915 378.305209 
C 627.422298 377.972826 627.609055 377.521955 627.609055 377.051895 
C 627.609055 376.581835 627.422298 376.130964 627.089915 375.798581 
C 626.757532 375.466198 626.306661 375.279441 625.836601 375.279441 
C 625.366541 375.279441 624.91567 375.466198 624.583287 375.798581 
C 624.250904 376.130964 624.064147 376.581835 624.064147 377.051895 
C 624.064147 377.521955 624.250904 377.972826 624.583287 378.305209 
C 624.91567 378.637592 625.366541 378.824349 625.836601 378.824349 
z
" style="stroke:#000000;stroke-width:0.886227;"/>
    <path clip-path="url(#p0146c1457d)" d="M 660.606825 379.375681 
C 661.076885 379.375681 661.527756 379.188924 661.860139 378.856541 
C 662.192522 378.524159 662.379279 378.073288 662.379279 377.603227 
C 662.379279 377.133167 662.192522 376.682296 661.860139 376.349913 
C 661.527756 376.01753 661.076885 375.830773 660.606825 375.830773 
C 660.136765 375.830773 659.685893 376.01753 659.353511 376.349913 
C 659.021128 376.682296 658.834371 377.133167 658.834371 377.603227 
C 658.834371 378.073288 659.021128 378.524159 659.353511 378.856541 
C 659.685893 379.188924 660.136765 379.375681 660.606825 379.375681 
z
" style="stroke:#000000;stroke-width:0.886227;"/>
    <path clip-path="url(#p0146c1457d)" d="M 695.377048 333.647792 
C 695.847109 333.647792 696.29798 333.461035 696.630363 333.128653 
C 696.962745 332.79627 697.149502 332.345399 697.149502 331.875338 
C 697.149502 331.405278 696.962745 330.954407 696.630363 330.622024 
C 696.29798 330.289642 695.847109 330.102885 695.377048 330.102885 
C 694.906988 330.102885 694.456117 330.289642 694.123734 330.622024 
C 693.791352 330.954407 693.604595 331.405278 693.604595 331.875338 
C 693.604595 332.345399 693.791352 332.79627 694.123734 333.128653 
C 694.456117 333.461035 694.906988 333.647792 695.377048 333.647792 
z
" style="stroke:#000000;stroke-width:0.886227;"/>
    <path clip-path="url(#p0146c1457d)" d="M 730.147272 318.024704 
C 730.617332 318.024704 731.068203 317.837947 731.400586 317.505564 
C 731.732969 317.173181 731.919726 316.72231 731.919726 316.25225 
C 731.919726 315.78219 731.732969 315.331318 731.400586 314.998936 
C 731.068203 314.666553 730.617332 314.479796 730.147272 314.479796 
C 729.677212 314.479796 729.226341 314.666553 728.893958 314.998936 
C 728.561575 315.331318 728.374818 315.78219 728.374818 316.25225 
C 728.374818 316.72231 728.561575 317.173181 728.893958 317.505564 
C 729.226341 317.837947 729.677212 318.024704 730.147272 318.024704 
z
" style="stroke:#000000;stroke-width:0.886227;"/>
    <path clip-path="url(#p0146c1457d)" d="M 764.917496 341.321225 
C 765.387556 341.321225 765.838427 341.134468 766.17081 340.802086 
C 766.503193 340.469703 766.68995 340.018832 766.68995 339.548771 
C 766.68995 339.078711 766.503193 338.62784 766.17081 338.295457 
C 765.838427 337.963075 765.387556 337.776318 764.917496 337.776318 
C 764.447436 337.776318 763.996564 337.963075 763.664182 338.295457 
C 763.331799 338.62784 763.145042 339.078711 763.145042 339.548771 
C 763.145042 340.018832 763.331799 340.469703 763.664182 340.802086 
C 763.996564 341.134468 764.447436 341.321225 764.917496 341.321225 
z
" style="stroke:#000000;stroke-width:0.886227;"/>
    <path clip-path="url(#p0146c1457d)" d="M 799.687719 354.118762 
C 800.15778 354.118762 800.608651 353.932005 800.941034 353.599622 
C 801.273416 353.267239 801.460173 352.816368 801.460173 352.346308 
C 801.460173 351.876248 801.273416 351.425376 800.941034 351.092994 
C 800.608651 350.760611 800.15778 350.573854 799.687719 350.573854 
C 799.217659 350.573854 798.766788 350.760611 798.434405 351.092994 
C 798.102023 351.425376 797.915266 351.876248 797.915266 352.346308 
C 797.915266 352.816368 798.102023 353.267239 798.434405 353.599622 
C 798.766788 353.932005 799.217659 354.118762 799.687719 354.118762 
z
" style="stroke:#000000;stroke-width:0.886227;"/>
    <path clip-path="url(#p0146c1457d)" d="M 817.072831 388.792574 
C 817.542892 388.792574 817.993763 388.605817 818.326145 388.273435 
C 818.658528 387.941052 818.845285 387.490181 818.845285 387.02012 
C 818.845285 386.55006 818.658528 386.099189 818.326145 385.766806 
C 817.993763 385.434423 817.542892 385.247667 817.072831 385.247667 
C 816.602771 385.247667 816.1519 385.434423 815.819517 385.766806 
C 815.487134 386.099189 815.300377 386.55006 815.300377 387.02012 
C 815.300377 387.490181 815.487134 387.941052 815.819517 388.273435 
C 816.1519 388.605817 816.602771 388.792574 817.072831 388.792574 
z
" style="stroke:#000000;stroke-width:0.886227;"/>
   </g>
   <g id="patch_9">
    <path d="M 470.23985 253.674082 
L 833.588688 253.674082 
L 833.588688 238.63 
L 470.23985 238.63 
z
" style="fill:#d9d9d9;"/>
   </g>
   <g id="PolyCollection_4">
    <path clip-path="url(#p0146c1457d)" d="M 486.755707 302.865445 
L 486.755707 398.358892 
L 521.52593 381.579552 
L 556.296154 426.544812 
L 591.066377 405.823356 
L 625.836601 456.123628 
L 660.606825 425.740327 
L 695.377048 383.42998 
L 730.147272 363.491157 
L 764.917496 391.942409 
L 799.687719 408.900025 
L 817.072831 430.174002 
L 817.072831 343.866239 
L 817.072831 343.866239 
L 799.687719 295.792591 
L 764.917496 287.155134 
L 730.147272 269.013343 
L 695.377048 280.320697 
L 660.606825 329.466128 
L 625.836601 297.980162 
L 591.066377 263.314537 
L 556.296154 292.056939 
L 521.52593 321.60011 
L 486.755707 302.865445 
z
" style="fill:#333333;fill-opacity:0.501961;"/>
   </g>
   <g id="text_28">
    <!-- F1 score: &gt;50K -->
    <g style="fill:#1a1a1a;" transform="translate(618.312706 248.580291)scale(0.088 -0.088)">
     <defs>
      <path d="M 678 3150 
L 678 3719 
L 4684 2266 
L 4684 1747 
L 678 294 
L 678 863 
L 3897 2003 
L 678 3150 
z
" id="DejaVuSans-3e" transform="scale(0.015625)"/>
     </defs>
     <use xlink:href="#DejaVuSans-46"/>
     <use x="57.519531" xlink:href="#DejaVuSans-31"/>
     <use x="121.142578" xlink:href="#DejaVuSans-20"/>
     <use x="152.929688" xlink:href="#DejaVuSans-73"/>
     <use x="205.029297" xlink:href="#DejaVuSans-63"/>
     <use x="260.009766" xlink:href="#DejaVuSans-6f"/>
     <use x="321.191406" xlink:href="#DejaVuSans-72"/>
     <use x="360.054688" xlink:href="#DejaVuSans-65"/>
     <use x="421.578125" xlink:href="#DejaVuSans-3a"/>
     <use x="455.269531" xlink:href="#DejaVuSans-20"/>
     <use x="487.056641" xlink:href="#DejaVuSans-3e"/>
     <use x="570.845703" xlink:href="#DejaVuSans-35"/>
     <use x="634.46875" xlink:href="#DejaVuSans-30"/>
     <use x="698.091797" xlink:href="#DejaVuSans-4b"/>
    </g>
   </g>
  </g>
 </g>
 <defs>
  <clipPath id="p94b62a7789">
   <rect height="212.09" width="363.348837" x="52.388688" y="22.244082"/>
  </clipPath>
  <clipPath id="p947b778629">
   <rect height="212.09" width="363.348837" x="470.23985" y="22.244082"/>
  </clipPath>
  <clipPath id="p489ed8f25f">
   <rect height="212.09" width="363.348837" x="52.388688" y="253.674082"/>
  </clipPath>
  <clipPath id="p0146c1457d">
   <rect height="212.09" width="363.348837" x="470.23985" y="253.674082"/>
  </clipPath>
 </defs>
</svg>
