<?xml version="1.0" encoding="utf-8" standalone="no"?>
<!DOCTYPE svg PUBLIC "-//W3C//DTD SVG 1.1//EN"
  "http://www.w3.org/Graphics/SVG/1.1/DTD/svg11.dtd">
<svg height="501.47677pt" version="1.1" viewBox="0 0 840.788688 501.47677" width="840.788688pt" xmlns="http://www.w3.org/2000/svg" xmlns:xlink="http://www.w3.org/1999/xlink">
 <metadata>
  <rdf:RDF xmlns:cc="http://creativecommons.org/ns#" xmlns:dc="http://purl.org/dc/elements/1.1/" xmlns:rdf="http://www.w3.org/1999/02/22-rdf-syntax-ns#">
   <cc:Work>
    <dc:type rdf:resource="http://purl.org/dc/dcmitype/StillImage"/>
    <dc:date>2022-05-06T15:56:28.395576</dc:date>
    <dc:format>image/svg+xml</dc:format>
    <dc:creator>
     <cc:Agent>
      <dc:title>Matplotlib v3.4.3, https://matplotlib.org/</dc:title>
     </cc:Agent>
    </dc:creator>
   </cc:Work>
  </rdf:RDF>
 </metadata>
 <defs>
  <style type="text/css">*{stroke-linecap:butt;stroke-linejoin:round;}</style>
 </defs>
 <g id="figure_1">
  <g id="patch_1">
   <path d="M 0 501.47677 
L 840.788688 501.47677 
L 840.788688 0 
L 0 0 
z
" style="fill:#ffffff;stroke:#ffffff;stroke-linejoin:miter;"/>
  </g>
  <g id="axes_1">
   <g id="patch_2">
    <path d="M 52.388688 234.334082 
L 415.737525 234.334082 
L 415.737525 22.244082 
L 52.388688 22.244082 
z
" style="fill:#ebebeb;"/>
   </g>
   <g id="matplotlib.axis_1">
    <g id="xtick_1">
     <g id="line2d_1">
      <path clip-path="url(#p98dc2de1be)" d="M 63.661415 234.334082 
L 63.661415 22.244082 
" style="fill:none;stroke:#ffffff;"/>
     </g>
    </g>
    <g id="xtick_2">
     <g id="line2d_2">
      <path clip-path="url(#p98dc2de1be)" d="M 145.585305 234.334082 
L 145.585305 22.244082 
" style="fill:none;stroke:#ffffff;"/>
     </g>
    </g>
    <g id="xtick_3">
     <g id="line2d_3">
      <path clip-path="url(#p98dc2de1be)" d="M 227.509195 234.334082 
L 227.509195 22.244082 
" style="fill:none;stroke:#ffffff;"/>
     </g>
    </g>
    <g id="xtick_4">
     <g id="line2d_4">
      <path clip-path="url(#p98dc2de1be)" d="M 309.433085 234.334082 
L 309.433085 22.244082 
" style="fill:none;stroke:#ffffff;"/>
     </g>
    </g>
    <g id="xtick_5">
     <g id="line2d_5">
      <path clip-path="url(#p98dc2de1be)" d="M 391.356975 234.334082 
L 391.356975 22.244082 
" style="fill:none;stroke:#ffffff;"/>
     </g>
    </g>
    <g id="xtick_6">
     <g id="line2d_6">
      <path clip-path="url(#p98dc2de1be)" d="M 104.62336 234.334082 
L 104.62336 22.244082 
" style="fill:none;stroke:#ffffff;stroke-width:0.5;"/>
     </g>
    </g>
    <g id="xtick_7">
     <g id="line2d_7">
      <path clip-path="url(#p98dc2de1be)" d="M 186.54725 234.334082 
L 186.54725 22.244082 
" style="fill:none;stroke:#ffffff;stroke-width:0.5;"/>
     </g>
    </g>
    <g id="xtick_8">
     <g id="line2d_8">
      <path clip-path="url(#p98dc2de1be)" d="M 268.47114 234.334082 
L 268.47114 22.244082 
" style="fill:none;stroke:#ffffff;stroke-width:0.5;"/>
     </g>
    </g>
    <g id="xtick_9">
     <g id="line2d_9">
      <path clip-path="url(#p98dc2de1be)" d="M 350.39503 234.334082 
L 350.39503 22.244082 
" style="fill:none;stroke:#ffffff;stroke-width:0.5;"/>
     </g>
    </g>
   </g>
   <g id="matplotlib.axis_2">
    <g id="ytick_1">
     <g id="line2d_10">
      <path clip-path="url(#p98dc2de1be)" d="M 52.388688 228.638092 
L 415.737525 228.638092 
" style="fill:none;stroke:#ffffff;"/>
     </g>
     <g id="line2d_11">
      <path d="M 52.388688 228.638092 
" style="fill:none;stroke:#333333;stroke-width:1.5;"/>
      <defs>
       <path d="M 0 0 
L -2.75 0 
" id="m83b6d1f84d" style="stroke:#000000;"/>
      </defs>
      <g>
       <use style="fill:#333333;stroke:#000000;" x="52.388688" xlink:href="#m83b6d1f84d" y="228.638092"/>
      </g>
     </g>
     <g id="text_1">
      <!-- 0.828 -->
      <g style="fill:#4d4d4d;" transform="translate(22.245938 231.066342)scale(0.088 -0.088)">
       <defs>
        <path d="M 2034 4250 
Q 1547 4250 1301 3770 
Q 1056 3291 1056 2328 
Q 1056 1369 1301 889 
Q 1547 409 2034 409 
Q 2525 409 2770 889 
Q 3016 1369 3016 2328 
Q 3016 3291 2770 3770 
Q 2525 4250 2034 4250 
z
M 2034 4750 
Q 2819 4750 3233 4129 
Q 3647 3509 3647 2328 
Q 3647 1150 3233 529 
Q 2819 -91 2034 -91 
Q 1250 -91 836 529 
Q 422 1150 422 2328 
Q 422 3509 836 4129 
Q 1250 4750 2034 4750 
z
" id="DejaVuSans-30" transform="scale(0.015625)"/>
        <path d="M 684 794 
L 1344 794 
L 1344 0 
L 684 0 
L 684 794 
z
" id="DejaVuSans-2e" transform="scale(0.015625)"/>
        <path d="M 2034 2216 
Q 1584 2216 1326 1975 
Q 1069 1734 1069 1313 
Q 1069 891 1326 650 
Q 1584 409 2034 409 
Q 2484 409 2743 651 
Q 3003 894 3003 1313 
Q 3003 1734 2745 1975 
Q 2488 2216 2034 2216 
z
M 1403 2484 
Q 997 2584 770 2862 
Q 544 3141 544 3541 
Q 544 4100 942 4425 
Q 1341 4750 2034 4750 
Q 2731 4750 3128 4425 
Q 3525 4100 3525 3541 
Q 3525 3141 3298 2862 
Q 3072 2584 2669 2484 
Q 3125 2378 3379 2068 
Q 3634 1759 3634 1313 
Q 3634 634 3220 271 
Q 2806 -91 2034 -91 
Q 1263 -91 848 271 
Q 434 634 434 1313 
Q 434 1759 690 2068 
Q 947 2378 1403 2484 
z
M 1172 3481 
Q 1172 3119 1398 2916 
Q 1625 2713 2034 2713 
Q 2441 2713 2670 2916 
Q 2900 3119 2900 3481 
Q 2900 3844 2670 4047 
Q 2441 4250 2034 4250 
Q 1625 4250 1398 4047 
Q 1172 3844 1172 3481 
z
" id="DejaVuSans-38" transform="scale(0.015625)"/>
        <path d="M 1228 531 
L 3431 531 
L 3431 0 
L 469 0 
L 469 531 
Q 828 903 1448 1529 
Q 2069 2156 2228 2338 
Q 2531 2678 2651 2914 
Q 2772 3150 2772 3378 
Q 2772 3750 2511 3984 
Q 2250 4219 1831 4219 
Q 1534 4219 1204 4116 
Q 875 4013 500 3803 
L 500 4441 
Q 881 4594 1212 4672 
Q 1544 4750 1819 4750 
Q 2544 4750 2975 4387 
Q 3406 4025 3406 3419 
Q 3406 3131 3298 2873 
Q 3191 2616 2906 2266 
Q 2828 2175 2409 1742 
Q 1991 1309 1228 531 
z
" id="DejaVuSans-32" transform="scale(0.015625)"/>
       </defs>
       <use xlink:href="#DejaVuSans-30"/>
       <use x="63.623047" xlink:href="#DejaVuSans-2e"/>
       <use x="95.410156" xlink:href="#DejaVuSans-38"/>
       <use x="159.033203" xlink:href="#DejaVuSans-32"/>
       <use x="222.65625" xlink:href="#DejaVuSans-38"/>
      </g>
     </g>
    </g>
    <g id="ytick_2">
     <g id="line2d_12">
      <path clip-path="url(#p98dc2de1be)" d="M 52.388688 177.384172 
L 415.737525 177.384172 
" style="fill:none;stroke:#ffffff;"/>
     </g>
     <g id="line2d_13">
      <path d="M 52.388688 177.384172 
" style="fill:none;stroke:#333333;stroke-width:1.5;"/>
      <g>
       <use style="fill:#333333;stroke:#000000;" x="52.388688" xlink:href="#m83b6d1f84d" y="177.384172"/>
      </g>
     </g>
     <g id="text_2">
      <!-- 0.830 -->
      <g style="fill:#4d4d4d;" transform="translate(22.245938 179.812422)scale(0.088 -0.088)">
       <defs>
        <path d="M 2597 2516 
Q 3050 2419 3304 2112 
Q 3559 1806 3559 1356 
Q 3559 666 3084 287 
Q 2609 -91 1734 -91 
Q 1441 -91 1130 -33 
Q 819 25 488 141 
L 488 750 
Q 750 597 1062 519 
Q 1375 441 1716 441 
Q 2309 441 2620 675 
Q 2931 909 2931 1356 
Q 2931 1769 2642 2001 
Q 2353 2234 1838 2234 
L 1294 2234 
L 1294 2753 
L 1863 2753 
Q 2328 2753 2575 2939 
Q 2822 3125 2822 3475 
Q 2822 3834 2567 4026 
Q 2313 4219 1838 4219 
Q 1578 4219 1281 4162 
Q 984 4106 628 3988 
L 628 4550 
Q 988 4650 1302 4700 
Q 1616 4750 1894 4750 
Q 2613 4750 3031 4423 
Q 3450 4097 3450 3541 
Q 3450 3153 3228 2886 
Q 3006 2619 2597 2516 
z
" id="DejaVuSans-33" transform="scale(0.015625)"/>
       </defs>
       <use xlink:href="#DejaVuSans-30"/>
       <use x="63.623047" xlink:href="#DejaVuSans-2e"/>
       <use x="95.410156" xlink:href="#DejaVuSans-38"/>
       <use x="159.033203" xlink:href="#DejaVuSans-33"/>
       <use x="222.65625" xlink:href="#DejaVuSans-30"/>
      </g>
     </g>
    </g>
    <g id="ytick_3">
     <g id="line2d_14">
      <path clip-path="url(#p98dc2de1be)" d="M 52.388688 126.130253 
L 415.737525 126.130253 
" style="fill:none;stroke:#ffffff;"/>
     </g>
     <g id="line2d_15">
      <path d="M 52.388688 126.130253 
" style="fill:none;stroke:#333333;stroke-width:1.5;"/>
      <g>
       <use style="fill:#333333;stroke:#000000;" x="52.388688" xlink:href="#m83b6d1f84d" y="126.130253"/>
      </g>
     </g>
     <g id="text_3">
      <!-- 0.832 -->
      <g style="fill:#4d4d4d;" transform="translate(22.245938 128.558503)scale(0.088 -0.088)">
       <use xlink:href="#DejaVuSans-30"/>
       <use x="63.623047" xlink:href="#DejaVuSans-2e"/>
       <use x="95.410156" xlink:href="#DejaVuSans-38"/>
       <use x="159.033203" xlink:href="#DejaVuSans-33"/>
       <use x="222.65625" xlink:href="#DejaVuSans-32"/>
      </g>
     </g>
    </g>
    <g id="ytick_4">
     <g id="line2d_16">
      <path clip-path="url(#p98dc2de1be)" d="M 52.388688 74.876333 
L 415.737525 74.876333 
" style="fill:none;stroke:#ffffff;"/>
     </g>
     <g id="line2d_17">
      <path d="M 52.388688 74.876333 
" style="fill:none;stroke:#333333;stroke-width:1.5;"/>
      <g>
       <use style="fill:#333333;stroke:#000000;" x="52.388688" xlink:href="#m83b6d1f84d" y="74.876333"/>
      </g>
     </g>
     <g id="text_4">
      <!-- 0.834 -->
      <g style="fill:#4d4d4d;" transform="translate(22.245938 77.304583)scale(0.088 -0.088)">
       <defs>
        <path d="M 2419 4116 
L 825 1625 
L 2419 1625 
L 2419 4116 
z
M 2253 4666 
L 3047 4666 
L 3047 1625 
L 3713 1625 
L 3713 1100 
L 3047 1100 
L 3047 0 
L 2419 0 
L 2419 1100 
L 313 1100 
L 313 1709 
L 2253 4666 
z
" id="DejaVuSans-34" transform="scale(0.015625)"/>
       </defs>
       <use xlink:href="#DejaVuSans-30"/>
       <use x="63.623047" xlink:href="#DejaVuSans-2e"/>
       <use x="95.410156" xlink:href="#DejaVuSans-38"/>
       <use x="159.033203" xlink:href="#DejaVuSans-33"/>
       <use x="222.65625" xlink:href="#DejaVuSans-34"/>
      </g>
     </g>
    </g>
    <g id="ytick_5">
     <g id="line2d_18">
      <path clip-path="url(#p98dc2de1be)" d="M 52.388688 23.622413 
L 415.737525 23.622413 
" style="fill:none;stroke:#ffffff;"/>
     </g>
     <g id="line2d_19">
      <path d="M 52.388688 23.622413 
" style="fill:none;stroke:#333333;stroke-width:1.5;"/>
      <g>
       <use style="fill:#333333;stroke:#000000;" x="52.388688" xlink:href="#m83b6d1f84d" y="23.622413"/>
      </g>
     </g>
     <g id="text_5">
      <!-- 0.836 -->
      <g style="fill:#4d4d4d;" transform="translate(22.245938 26.050663)scale(0.088 -0.088)">
       <defs>
        <path d="M 2113 2584 
Q 1688 2584 1439 2293 
Q 1191 2003 1191 1497 
Q 1191 994 1439 701 
Q 1688 409 2113 409 
Q 2538 409 2786 701 
Q 3034 994 3034 1497 
Q 3034 2003 2786 2293 
Q 2538 2584 2113 2584 
z
M 3366 4563 
L 3366 3988 
Q 3128 4100 2886 4159 
Q 2644 4219 2406 4219 
Q 1781 4219 1451 3797 
Q 1122 3375 1075 2522 
Q 1259 2794 1537 2939 
Q 1816 3084 2150 3084 
Q 2853 3084 3261 2657 
Q 3669 2231 3669 1497 
Q 3669 778 3244 343 
Q 2819 -91 2113 -91 
Q 1303 -91 875 529 
Q 447 1150 447 2328 
Q 447 3434 972 4092 
Q 1497 4750 2381 4750 
Q 2619 4750 2861 4703 
Q 3103 4656 3366 4563 
z
" id="DejaVuSans-36" transform="scale(0.015625)"/>
       </defs>
       <use xlink:href="#DejaVuSans-30"/>
       <use x="63.623047" xlink:href="#DejaVuSans-2e"/>
       <use x="95.410156" xlink:href="#DejaVuSans-38"/>
       <use x="159.033203" xlink:href="#DejaVuSans-33"/>
       <use x="222.65625" xlink:href="#DejaVuSans-36"/>
      </g>
     </g>
    </g>
    <g id="ytick_6">
     <g id="line2d_20">
      <path clip-path="url(#p98dc2de1be)" d="M 52.388688 203.011132 
L 415.737525 203.011132 
" style="fill:none;stroke:#ffffff;stroke-width:0.5;"/>
     </g>
    </g>
    <g id="ytick_7">
     <g id="line2d_21">
      <path clip-path="url(#p98dc2de1be)" d="M 52.388688 151.757213 
L 415.737525 151.757213 
" style="fill:none;stroke:#ffffff;stroke-width:0.5;"/>
     </g>
    </g>
    <g id="ytick_8">
     <g id="line2d_22">
      <path clip-path="url(#p98dc2de1be)" d="M 52.388688 100.503293 
L 415.737525 100.503293 
" style="fill:none;stroke:#ffffff;stroke-width:0.5;"/>
     </g>
    </g>
    <g id="ytick_9">
     <g id="line2d_23">
      <path clip-path="url(#p98dc2de1be)" d="M 52.388688 49.249373 
L 415.737525 49.249373 
" style="fill:none;stroke:#ffffff;stroke-width:0.5;"/>
     </g>
    </g>
    <g id="text_6">
     <!-- Value -->
     <g transform="translate(15.558281 256.228457)rotate(-90)scale(0.11 -0.11)">
      <defs>
       <path d="M 1831 0 
L 50 4666 
L 709 4666 
L 2188 738 
L 3669 4666 
L 4325 4666 
L 2547 0 
L 1831 0 
z
" id="DejaVuSans-56" transform="scale(0.015625)"/>
       <path d="M 2194 1759 
Q 1497 1759 1228 1600 
Q 959 1441 959 1056 
Q 959 750 1161 570 
Q 1363 391 1709 391 
Q 2188 391 2477 730 
Q 2766 1069 2766 1631 
L 2766 1759 
L 2194 1759 
z
M 3341 1997 
L 3341 0 
L 2766 0 
L 2766 531 
Q 2569 213 2275 61 
Q 1981 -91 1556 -91 
Q 1019 -91 701 211 
Q 384 513 384 1019 
Q 384 1609 779 1909 
Q 1175 2209 1959 2209 
L 2766 2209 
L 2766 2266 
Q 2766 2663 2505 2880 
Q 2244 3097 1772 3097 
Q 1472 3097 1187 3025 
Q 903 2953 641 2809 
L 641 3341 
Q 956 3463 1253 3523 
Q 1550 3584 1831 3584 
Q 2591 3584 2966 3190 
Q 3341 2797 3341 1997 
z
" id="DejaVuSans-61" transform="scale(0.015625)"/>
       <path d="M 603 4863 
L 1178 4863 
L 1178 0 
L 603 0 
L 603 4863 
z
" id="DejaVuSans-6c" transform="scale(0.015625)"/>
       <path d="M 544 1381 
L 544 3500 
L 1119 3500 
L 1119 1403 
Q 1119 906 1312 657 
Q 1506 409 1894 409 
Q 2359 409 2629 706 
Q 2900 1003 2900 1516 
L 2900 3500 
L 3475 3500 
L 3475 0 
L 2900 0 
L 2900 538 
Q 2691 219 2414 64 
Q 2138 -91 1772 -91 
Q 1169 -91 856 284 
Q 544 659 544 1381 
z
M 1991 3584 
L 1991 3584 
z
" id="DejaVuSans-75" transform="scale(0.015625)"/>
       <path d="M 3597 1894 
L 3597 1613 
L 953 1613 
Q 991 1019 1311 708 
Q 1631 397 2203 397 
Q 2534 397 2845 478 
Q 3156 559 3463 722 
L 3463 178 
Q 3153 47 2828 -22 
Q 2503 -91 2169 -91 
Q 1331 -91 842 396 
Q 353 884 353 1716 
Q 353 2575 817 3079 
Q 1281 3584 2069 3584 
Q 2775 3584 3186 3129 
Q 3597 2675 3597 1894 
z
M 3022 2063 
Q 3016 2534 2758 2815 
Q 2500 3097 2075 3097 
Q 1594 3097 1305 2825 
Q 1016 2553 972 2059 
L 3022 2063 
z
" id="DejaVuSans-65" transform="scale(0.015625)"/>
      </defs>
      <use xlink:href="#DejaVuSans-56"/>
      <use x="60.658203" xlink:href="#DejaVuSans-61"/>
      <use x="121.9375" xlink:href="#DejaVuSans-6c"/>
      <use x="149.720703" xlink:href="#DejaVuSans-75"/>
      <use x="213.099609" xlink:href="#DejaVuSans-65"/>
     </g>
    </g>
   </g>
   <g id="line2d_24">
    <path clip-path="url(#p98dc2de1be)" d="M 68.904544 173.300195 
L 74.147673 138.246053 
L 84.633931 145.222848 
L 95.120189 126.164286 
L 105.606446 120.548816 
L 126.578962 114.42285 
L 147.551478 150.157655 
L 189.49651 92.131138 
L 231.441542 107.275889 
L 321.230125 114.593016 
L 399.221668 111.019535 
" style="fill:none;stroke:#000000;stroke-width:0.886227;"/>
   </g>
   <g id="PathCollection_1">
    <path clip-path="url(#p98dc2de1be)" d="M 68.904544 175.072649 
C 69.374604 175.072649 69.825475 174.885892 70.157858 174.553509 
C 70.490241 174.221126 70.676998 173.770255 70.676998 173.300195 
C 70.676998 172.830134 70.490241 172.379263 70.157858 172.046881 
C 69.825475 171.714498 69.374604 171.527741 68.904544 171.527741 
C 68.434483 171.527741 67.983612 171.714498 67.65123 172.046881 
C 67.318847 172.379263 67.13209 172.830134 67.13209 173.300195 
C 67.13209 173.770255 67.318847 174.221126 67.65123 174.553509 
C 67.983612 174.885892 68.434483 175.072649 68.904544 175.072649 
z
" style="stroke:#000000;stroke-width:0.886227;"/>
    <path clip-path="url(#p98dc2de1be)" d="M 74.147673 140.018507 
C 74.617733 140.018507 75.068604 139.83175 75.400987 139.499367 
C 75.73337 139.166984 75.920127 138.716113 75.920127 138.246053 
C 75.920127 137.775993 75.73337 137.325122 75.400987 136.992739 
C 75.068604 136.660356 74.617733 136.473599 74.147673 136.473599 
C 73.677612 136.473599 73.226741 136.660356 72.894359 136.992739 
C 72.561976 137.325122 72.375219 137.775993 72.375219 138.246053 
C 72.375219 138.716113 72.561976 139.166984 72.894359 139.499367 
C 73.226741 139.83175 73.677612 140.018507 74.147673 140.018507 
z
" style="stroke:#000000;stroke-width:0.886227;"/>
    <path clip-path="url(#p98dc2de1be)" d="M 84.633931 146.995302 
C 85.103991 146.995302 85.554862 146.808545 85.887245 146.476162 
C 86.219628 146.14378 86.406384 145.692908 86.406384 145.222848 
C 86.406384 144.752788 86.219628 144.301917 85.887245 143.969534 
C 85.554862 143.637151 85.103991 143.450394 84.633931 143.450394 
C 84.16387 143.450394 83.712999 143.637151 83.380616 143.969534 
C 83.048234 144.301917 82.861477 144.752788 82.861477 145.222848 
C 82.861477 145.692908 83.048234 146.14378 83.380616 146.476162 
C 83.712999 146.808545 84.16387 146.995302 84.633931 146.995302 
z
" style="stroke:#000000;stroke-width:0.886227;"/>
    <path clip-path="url(#p98dc2de1be)" d="M 95.120189 127.93674 
C 95.590249 127.93674 96.04112 127.749983 96.373503 127.4176 
C 96.705885 127.085217 96.892642 126.634346 96.892642 126.164286 
C 96.892642 125.694226 96.705885 125.243354 96.373503 124.910972 
C 96.04112 124.578589 95.590249 124.391832 95.120189 124.391832 
C 94.650128 124.391832 94.199257 124.578589 93.866874 124.910972 
C 93.534492 125.243354 93.347735 125.694226 93.347735 126.164286 
C 93.347735 126.634346 93.534492 127.085217 93.866874 127.4176 
C 94.199257 127.749983 94.650128 127.93674 95.120189 127.93674 
z
" style="stroke:#000000;stroke-width:0.886227;"/>
    <path clip-path="url(#p98dc2de1be)" d="M 105.606446 122.32127 
C 106.076507 122.32127 106.527378 122.134513 106.859761 121.802131 
C 107.192143 121.469748 107.3789 121.018877 107.3789 120.548816 
C 107.3789 120.078756 107.192143 119.627885 106.859761 119.295502 
C 106.527378 118.96312 106.076507 118.776363 105.606446 118.776363 
C 105.136386 118.776363 104.685515 118.96312 104.353132 119.295502 
C 104.02075 119.627885 103.833993 120.078756 103.833993 120.548816 
C 103.833993 121.018877 104.02075 121.469748 104.353132 121.802131 
C 104.685515 122.134513 105.136386 122.32127 105.606446 122.32127 
z
" style="stroke:#000000;stroke-width:0.886227;"/>
    <path clip-path="url(#p98dc2de1be)" d="M 126.578962 116.195304 
C 127.049023 116.195304 127.499894 116.008547 127.832276 115.676164 
C 128.164659 115.343781 128.351416 114.89291 128.351416 114.42285 
C 128.351416 113.95279 128.164659 113.501919 127.832276 113.169536 
C 127.499894 112.837153 127.049023 112.650396 126.578962 112.650396 
C 126.108902 112.650396 125.658031 112.837153 125.325648 113.169536 
C 124.993265 113.501919 124.806508 113.95279 124.806508 114.42285 
C 124.806508 114.89291 124.993265 115.343781 125.325648 115.676164 
C 125.658031 116.008547 126.108902 116.195304 126.578962 116.195304 
z
" style="stroke:#000000;stroke-width:0.886227;"/>
    <path clip-path="url(#p98dc2de1be)" d="M 147.551478 151.930108 
C 148.021538 151.930108 148.47241 151.743352 148.804792 151.410969 
C 149.137175 151.078586 149.323932 150.627715 149.323932 150.157655 
C 149.323932 149.687594 149.137175 149.236723 148.804792 148.90434 
C 148.47241 148.571958 148.021538 148.385201 147.551478 148.385201 
C 147.081418 148.385201 146.630547 148.571958 146.298164 148.90434 
C 145.965781 149.236723 145.779024 149.687594 145.779024 150.157655 
C 145.779024 150.627715 145.965781 151.078586 146.298164 151.410969 
C 146.630547 151.743352 147.081418 151.930108 147.551478 151.930108 
z
" style="stroke:#000000;stroke-width:0.886227;"/>
    <path clip-path="url(#p98dc2de1be)" d="M 189.49651 93.903592 
C 189.96657 93.903592 190.417441 93.716835 190.749824 93.384453 
C 191.082207 93.05207 191.268964 92.601199 191.268964 92.131138 
C 191.268964 91.661078 191.082207 91.210207 190.749824 90.877824 
C 190.417441 90.545442 189.96657 90.358685 189.49651 90.358685 
C 189.02645 90.358685 188.575579 90.545442 188.243196 90.877824 
C 187.910813 91.210207 187.724056 91.661078 187.724056 92.131138 
C 187.724056 92.601199 187.910813 93.05207 188.243196 93.384453 
C 188.575579 93.716835 189.02645 93.903592 189.49651 93.903592 
z
" style="stroke:#000000;stroke-width:0.886227;"/>
    <path clip-path="url(#p98dc2de1be)" d="M 231.441542 109.048343 
C 231.911602 109.048343 232.362473 108.861586 232.694856 108.529203 
C 233.027239 108.19682 233.213995 107.745949 233.213995 107.275889 
C 233.213995 106.805829 233.027239 106.354958 232.694856 106.022575 
C 232.362473 105.690192 231.911602 105.503435 231.441542 105.503435 
C 230.971481 105.503435 230.52061 105.690192 230.188227 106.022575 
C 229.855845 106.354958 229.669088 106.805829 229.669088 107.275889 
C 229.669088 107.745949 229.855845 108.19682 230.188227 108.529203 
C 230.52061 108.861586 230.971481 109.048343 231.441542 109.048343 
z
" style="stroke:#000000;stroke-width:0.886227;"/>
    <path clip-path="url(#p98dc2de1be)" d="M 321.230125 116.36547 
C 321.700185 116.36547 322.151056 116.178713 322.483439 115.84633 
C 322.815822 115.513947 323.002579 115.063076 323.002579 114.593016 
C 323.002579 114.122955 322.815822 113.672084 322.483439 113.339702 
C 322.151056 113.007319 321.700185 112.820562 321.230125 112.820562 
C 320.760065 112.820562 320.309194 113.007319 319.976811 113.339702 
C 319.644428 113.672084 319.457671 114.122955 319.457671 114.593016 
C 319.457671 115.063076 319.644428 115.513947 319.976811 115.84633 
C 320.309194 116.178713 320.760065 116.36547 321.230125 116.36547 
z
" style="stroke:#000000;stroke-width:0.886227;"/>
    <path clip-path="url(#p98dc2de1be)" d="M 399.221668 112.791989 
C 399.691729 112.791989 400.1426 112.605232 400.474983 112.272849 
C 400.807365 111.940467 400.994122 111.489595 400.994122 111.019535 
C 400.994122 110.549475 400.807365 110.098604 400.474983 109.766221 
C 400.1426 109.433838 399.691729 109.247081 399.221668 109.247081 
C 398.751608 109.247081 398.300737 109.433838 397.968354 109.766221 
C 397.635972 110.098604 397.449215 110.549475 397.449215 111.019535 
C 397.449215 111.489595 397.635972 111.940467 397.968354 112.272849 
C 398.300737 112.605232 398.751608 112.791989 399.221668 112.791989 
z
" style="stroke:#000000;stroke-width:0.886227;"/>
   </g>
   <g id="patch_3">
    <path d="M 52.388688 22.244082 
L 415.737525 22.244082 
L 415.737525 7.2 
L 52.388688 7.2 
z
" style="fill:#d9d9d9;"/>
   </g>
   <g id="PolyCollection_1">
    <path clip-path="url(#p98dc2de1be)" d="M 68.904544 121.906762 
L 68.904544 224.693628 
L 74.147673 216.772701 
L 84.633931 178.184527 
L 95.120189 162.345619 
L 105.606446 173.485405 
L 126.578962 171.730062 
L 147.551478 210.941847 
L 189.49651 152.37774 
L 231.441542 155.460143 
L 321.230125 166.609483 
L 399.221668 166.042831 
L 399.221668 55.99624 
L 399.221668 55.99624 
L 321.230125 62.576548 
L 231.441542 59.091635 
L 189.49651 31.884537 
L 147.551478 89.373463 
L 126.578962 57.115638 
L 105.606446 67.612228 
L 95.120189 89.982952 
L 84.633931 112.26117 
L 74.147673 59.719405 
L 68.904544 121.906762 
z
" style="fill:#333333;fill-opacity:0.501961;"/>
   </g>
   <g id="text_7">
    <!-- Accuracy -->
    <g style="fill:#1a1a1a;" transform="translate(213.974356 17.150291)scale(0.088 -0.088)">
     <defs>
      <path d="M 2188 4044 
L 1331 1722 
L 3047 1722 
L 2188 4044 
z
M 1831 4666 
L 2547 4666 
L 4325 0 
L 3669 0 
L 3244 1197 
L 1141 1197 
L 716 0 
L 50 0 
L 1831 4666 
z
" id="DejaVuSans-41" transform="scale(0.015625)"/>
      <path d="M 3122 3366 
L 3122 2828 
Q 2878 2963 2633 3030 
Q 2388 3097 2138 3097 
Q 1578 3097 1268 2742 
Q 959 2388 959 1747 
Q 959 1106 1268 751 
Q 1578 397 2138 397 
Q 2388 397 2633 464 
Q 2878 531 3122 666 
L 3122 134 
Q 2881 22 2623 -34 
Q 2366 -91 2075 -91 
Q 1284 -91 818 406 
Q 353 903 353 1747 
Q 353 2603 823 3093 
Q 1294 3584 2113 3584 
Q 2378 3584 2631 3529 
Q 2884 3475 3122 3366 
z
" id="DejaVuSans-63" transform="scale(0.015625)"/>
      <path d="M 2631 2963 
Q 2534 3019 2420 3045 
Q 2306 3072 2169 3072 
Q 1681 3072 1420 2755 
Q 1159 2438 1159 1844 
L 1159 0 
L 581 0 
L 581 3500 
L 1159 3500 
L 1159 2956 
Q 1341 3275 1631 3429 
Q 1922 3584 2338 3584 
Q 2397 3584 2469 3576 
Q 2541 3569 2628 3553 
L 2631 2963 
z
" id="DejaVuSans-72" transform="scale(0.015625)"/>
      <path d="M 2059 -325 
Q 1816 -950 1584 -1140 
Q 1353 -1331 966 -1331 
L 506 -1331 
L 506 -850 
L 844 -850 
Q 1081 -850 1212 -737 
Q 1344 -625 1503 -206 
L 1606 56 
L 191 3500 
L 800 3500 
L 1894 763 
L 2988 3500 
L 3597 3500 
L 2059 -325 
z
" id="DejaVuSans-79" transform="scale(0.015625)"/>
     </defs>
     <use xlink:href="#DejaVuSans-41"/>
     <use x="66.658203" xlink:href="#DejaVuSans-63"/>
     <use x="121.638672" xlink:href="#DejaVuSans-63"/>
     <use x="176.619141" xlink:href="#DejaVuSans-75"/>
     <use x="239.998047" xlink:href="#DejaVuSans-72"/>
     <use x="281.111328" xlink:href="#DejaVuSans-61"/>
     <use x="342.390625" xlink:href="#DejaVuSans-63"/>
     <use x="397.371094" xlink:href="#DejaVuSans-79"/>
    </g>
   </g>
  </g>
  <g id="axes_2">
   <g id="patch_4">
    <path d="M 470.23985 234.334082 
L 833.588688 234.334082 
L 833.588688 22.244082 
L 470.23985 22.244082 
z
" style="fill:#ebebeb;"/>
   </g>
   <g id="matplotlib.axis_3">
    <g id="xtick_10">
     <g id="line2d_25">
      <path clip-path="url(#pc6ceacbdb1)" d="M 481.512578 234.334082 
L 481.512578 22.244082 
" style="fill:none;stroke:#ffffff;stroke-linecap:square;"/>
     </g>
    </g>
    <g id="xtick_11">
     <g id="line2d_26">
      <path clip-path="url(#pc6ceacbdb1)" d="M 563.436468 234.334082 
L 563.436468 22.244082 
" style="fill:none;stroke:#ffffff;stroke-linecap:square;"/>
     </g>
    </g>
    <g id="xtick_12">
     <g id="line2d_27">
      <path clip-path="url(#pc6ceacbdb1)" d="M 645.360358 234.334082 
L 645.360358 22.244082 
" style="fill:none;stroke:#ffffff;stroke-linecap:square;"/>
     </g>
    </g>
    <g id="xtick_13">
     <g id="line2d_28">
      <path clip-path="url(#pc6ceacbdb1)" d="M 727.284248 234.334082 
L 727.284248 22.244082 
" style="fill:none;stroke:#ffffff;stroke-linecap:square;"/>
     </g>
    </g>
    <g id="xtick_14">
     <g id="line2d_29">
      <path clip-path="url(#pc6ceacbdb1)" d="M 809.208138 234.334082 
L 809.208138 22.244082 
" style="fill:none;stroke:#ffffff;stroke-linecap:square;"/>
     </g>
    </g>
    <g id="xtick_15">
     <g id="line2d_30">
      <path clip-path="url(#pc6ceacbdb1)" d="M 522.474523 234.334082 
L 522.474523 22.244082 
" style="fill:none;stroke:#ffffff;stroke-linecap:square;stroke-width:0.5;"/>
     </g>
    </g>
    <g id="xtick_16">
     <g id="line2d_31">
      <path clip-path="url(#pc6ceacbdb1)" d="M 604.398413 234.334082 
L 604.398413 22.244082 
" style="fill:none;stroke:#ffffff;stroke-linecap:square;stroke-width:0.5;"/>
     </g>
    </g>
    <g id="xtick_17">
     <g id="line2d_32">
      <path clip-path="url(#pc6ceacbdb1)" d="M 686.322303 234.334082 
L 686.322303 22.244082 
" style="fill:none;stroke:#ffffff;stroke-linecap:square;stroke-width:0.5;"/>
     </g>
    </g>
    <g id="xtick_18">
     <g id="line2d_33">
      <path clip-path="url(#pc6ceacbdb1)" d="M 768.246193 234.334082 
L 768.246193 22.244082 
" style="fill:none;stroke:#ffffff;stroke-linecap:square;stroke-width:0.5;"/>
     </g>
    </g>
   </g>
   <g id="matplotlib.axis_4">
    <g id="ytick_10">
     <g id="line2d_34">
      <path clip-path="url(#pc6ceacbdb1)" d="M 470.23985 231.223241 
L 833.588688 231.223241 
" style="fill:none;stroke:#ffffff;stroke-linecap:square;"/>
     </g>
     <g id="line2d_35">
      <path d="M 470.23985 231.223241 
" style="fill:none;stroke:#333333;stroke-linecap:square;stroke-width:1.5;"/>
      <g>
       <use style="fill:#333333;stroke:#000000;" x="470.23985" xlink:href="#m83b6d1f84d" y="231.223241"/>
      </g>
     </g>
     <g id="text_8">
      <!-- 0.8750 -->
      <g style="fill:#4d4d4d;" transform="translate(434.4981 233.651491)scale(0.088 -0.088)">
       <defs>
        <path d="M 525 4666 
L 3525 4666 
L 3525 4397 
L 1831 0 
L 1172 0 
L 2766 4134 
L 525 4134 
L 525 4666 
z
" id="DejaVuSans-37" transform="scale(0.015625)"/>
        <path d="M 691 4666 
L 3169 4666 
L 3169 4134 
L 1269 4134 
L 1269 2991 
Q 1406 3038 1543 3061 
Q 1681 3084 1819 3084 
Q 2600 3084 3056 2656 
Q 3513 2228 3513 1497 
Q 3513 744 3044 326 
Q 2575 -91 1722 -91 
Q 1428 -91 1123 -41 
Q 819 9 494 109 
L 494 744 
Q 775 591 1075 516 
Q 1375 441 1709 441 
Q 2250 441 2565 725 
Q 2881 1009 2881 1497 
Q 2881 1984 2565 2268 
Q 2250 2553 1709 2553 
Q 1456 2553 1204 2497 
Q 953 2441 691 2322 
L 691 4666 
z
" id="DejaVuSans-35" transform="scale(0.015625)"/>
       </defs>
       <use xlink:href="#DejaVuSans-30"/>
       <use x="63.623047" xlink:href="#DejaVuSans-2e"/>
       <use x="95.410156" xlink:href="#DejaVuSans-38"/>
       <use x="159.033203" xlink:href="#DejaVuSans-37"/>
       <use x="222.65625" xlink:href="#DejaVuSans-35"/>
       <use x="286.279297" xlink:href="#DejaVuSans-30"/>
      </g>
     </g>
    </g>
    <g id="ytick_11">
     <g id="line2d_36">
      <path clip-path="url(#pc6ceacbdb1)" d="M 470.23985 177.417389 
L 833.588688 177.417389 
" style="fill:none;stroke:#ffffff;stroke-linecap:square;"/>
     </g>
     <g id="line2d_37">
      <path d="M 470.23985 177.417389 
" style="fill:none;stroke:#333333;stroke-linecap:square;stroke-width:1.5;"/>
      <g>
       <use style="fill:#333333;stroke:#000000;" x="470.23985" xlink:href="#m83b6d1f84d" y="177.417389"/>
      </g>
     </g>
     <g id="text_9">
      <!-- 0.8775 -->
      <g style="fill:#4d4d4d;" transform="translate(434.4981 179.845639)scale(0.088 -0.088)">
       <use xlink:href="#DejaVuSans-30"/>
       <use x="63.623047" xlink:href="#DejaVuSans-2e"/>
       <use x="95.410156" xlink:href="#DejaVuSans-38"/>
       <use x="159.033203" xlink:href="#DejaVuSans-37"/>
       <use x="222.65625" xlink:href="#DejaVuSans-37"/>
       <use x="286.279297" xlink:href="#DejaVuSans-35"/>
      </g>
     </g>
    </g>
    <g id="ytick_12">
     <g id="line2d_38">
      <path clip-path="url(#pc6ceacbdb1)" d="M 470.23985 123.611537 
L 833.588688 123.611537 
" style="fill:none;stroke:#ffffff;stroke-linecap:square;"/>
     </g>
     <g id="line2d_39">
      <path d="M 470.23985 123.611537 
" style="fill:none;stroke:#333333;stroke-linecap:square;stroke-width:1.5;"/>
      <g>
       <use style="fill:#333333;stroke:#000000;" x="470.23985" xlink:href="#m83b6d1f84d" y="123.611537"/>
      </g>
     </g>
     <g id="text_10">
      <!-- 0.8800 -->
      <g style="fill:#4d4d4d;" transform="translate(434.4981 126.039787)scale(0.088 -0.088)">
       <use xlink:href="#DejaVuSans-30"/>
       <use x="63.623047" xlink:href="#DejaVuSans-2e"/>
       <use x="95.410156" xlink:href="#DejaVuSans-38"/>
       <use x="159.033203" xlink:href="#DejaVuSans-38"/>
       <use x="222.65625" xlink:href="#DejaVuSans-30"/>
       <use x="286.279297" xlink:href="#DejaVuSans-30"/>
      </g>
     </g>
    </g>
    <g id="ytick_13">
     <g id="line2d_40">
      <path clip-path="url(#pc6ceacbdb1)" d="M 470.23985 69.805684 
L 833.588688 69.805684 
" style="fill:none;stroke:#ffffff;stroke-linecap:square;"/>
     </g>
     <g id="line2d_41">
      <path d="M 470.23985 69.805684 
" style="fill:none;stroke:#333333;stroke-linecap:square;stroke-width:1.5;"/>
      <g>
       <use style="fill:#333333;stroke:#000000;" x="470.23985" xlink:href="#m83b6d1f84d" y="69.805684"/>
      </g>
     </g>
     <g id="text_11">
      <!-- 0.8825 -->
      <g style="fill:#4d4d4d;" transform="translate(434.4981 72.233934)scale(0.088 -0.088)">
       <use xlink:href="#DejaVuSans-30"/>
       <use x="63.623047" xlink:href="#DejaVuSans-2e"/>
       <use x="95.410156" xlink:href="#DejaVuSans-38"/>
       <use x="159.033203" xlink:href="#DejaVuSans-38"/>
       <use x="222.65625" xlink:href="#DejaVuSans-32"/>
       <use x="286.279297" xlink:href="#DejaVuSans-35"/>
      </g>
     </g>
    </g>
    <g id="ytick_14">
     <g id="line2d_42">
      <path clip-path="url(#pc6ceacbdb1)" d="M 470.23985 204.320315 
L 833.588688 204.320315 
" style="fill:none;stroke:#ffffff;stroke-linecap:square;stroke-width:0.5;"/>
     </g>
    </g>
    <g id="ytick_15">
     <g id="line2d_43">
      <path clip-path="url(#pc6ceacbdb1)" d="M 470.23985 150.514463 
L 833.588688 150.514463 
" style="fill:none;stroke:#ffffff;stroke-linecap:square;stroke-width:0.5;"/>
     </g>
    </g>
    <g id="ytick_16">
     <g id="line2d_44">
      <path clip-path="url(#pc6ceacbdb1)" d="M 470.23985 96.708611 
L 833.588688 96.708611 
" style="fill:none;stroke:#ffffff;stroke-linecap:square;stroke-width:0.5;"/>
     </g>
    </g>
    <g id="ytick_17">
     <g id="line2d_45">
      <path clip-path="url(#pc6ceacbdb1)" d="M 470.23985 42.902758 
L 833.588688 42.902758 
" style="fill:none;stroke:#ffffff;stroke-linecap:square;stroke-width:0.5;"/>
     </g>
    </g>
   </g>
   <g id="line2d_46">
    <path clip-path="url(#pc6ceacbdb1)" d="M 486.755707 160.052687 
L 491.998835 153.617849 
L 502.485093 119.25484 
L 512.971351 110.510621 
L 523.457609 102.464859 
L 544.430125 103.522465 
L 565.402641 121.62093 
L 607.347673 89.888586 
L 649.292704 89.3802 
L 739.081288 72.480923 
L 817.072831 73.108487 
" style="fill:none;stroke:#000000;stroke-width:0.886227;"/>
   </g>
   <g id="PathCollection_2">
    <path clip-path="url(#pc6ceacbdb1)" d="M 486.755707 161.825141 
C 487.225767 161.825141 487.676638 161.638384 488.009021 161.306001 
C 488.341403 160.973618 488.52816 160.522747 488.52816 160.052687 
C 488.52816 159.582626 488.341403 159.131755 488.009021 158.799373 
C 487.676638 158.46699 487.225767 158.280233 486.755707 158.280233 
C 486.285646 158.280233 485.834775 158.46699 485.502392 158.799373 
C 485.17001 159.131755 484.983253 159.582626 484.983253 160.052687 
C 484.983253 160.522747 485.17001 160.973618 485.502392 161.306001 
C 485.834775 161.638384 486.285646 161.825141 486.755707 161.825141 
z
" style="stroke:#000000;stroke-width:0.886227;"/>
    <path clip-path="url(#pc6ceacbdb1)" d="M 491.998835 155.390303 
C 492.468896 155.390303 492.919767 155.203546 493.25215 154.871163 
C 493.584532 154.53878 493.771289 154.087909 493.771289 153.617849 
C 493.771289 153.147789 493.584532 152.696918 493.25215 152.364535 
C 492.919767 152.032152 492.468896 151.845395 491.998835 151.845395 
C 491.528775 151.845395 491.077904 152.032152 490.745521 152.364535 
C 490.413139 152.696918 490.226382 153.147789 490.226382 153.617849 
C 490.226382 154.087909 490.413139 154.53878 490.745521 154.871163 
C 491.077904 155.203546 491.528775 155.390303 491.998835 155.390303 
z
" style="stroke:#000000;stroke-width:0.886227;"/>
    <path clip-path="url(#pc6ceacbdb1)" d="M 502.485093 121.027294 
C 502.955154 121.027294 503.406025 120.840537 503.738408 120.508154 
C 504.07079 120.175771 504.257547 119.7249 504.257547 119.25484 
C 504.257547 118.784779 504.07079 118.333908 503.738408 118.001526 
C 503.406025 117.669143 502.955154 117.482386 502.485093 117.482386 
C 502.015033 117.482386 501.564162 117.669143 501.231779 118.001526 
C 500.899396 118.333908 500.71264 118.784779 500.71264 119.25484 
C 500.71264 119.7249 500.899396 120.175771 501.231779 120.508154 
C 501.564162 120.840537 502.015033 121.027294 502.485093 121.027294 
z
" style="stroke:#000000;stroke-width:0.886227;"/>
    <path clip-path="url(#pc6ceacbdb1)" d="M 512.971351 112.283074 
C 513.441412 112.283074 513.892283 112.096318 514.224665 111.763935 
C 514.557048 111.431552 514.743805 110.980681 514.743805 110.510621 
C 514.743805 110.04056 514.557048 109.589689 514.224665 109.257306 
C 513.892283 108.924924 513.441412 108.738167 512.971351 108.738167 
C 512.501291 108.738167 512.05042 108.924924 511.718037 109.257306 
C 511.385654 109.589689 511.198897 110.04056 511.198897 110.510621 
C 511.198897 110.980681 511.385654 111.431552 511.718037 111.763935 
C 512.05042 112.096318 512.501291 112.283074 512.971351 112.283074 
z
" style="stroke:#000000;stroke-width:0.886227;"/>
    <path clip-path="url(#pc6ceacbdb1)" d="M 523.457609 104.237313 
C 523.92767 104.237313 524.378541 104.050556 524.710923 103.718173 
C 525.043306 103.38579 525.230063 102.934919 525.230063 102.464859 
C 525.230063 101.994798 525.043306 101.543927 524.710923 101.211545 
C 524.378541 100.879162 523.92767 100.692405 523.457609 100.692405 
C 522.987549 100.692405 522.536678 100.879162 522.204295 101.211545 
C 521.871912 101.543927 521.685155 101.994798 521.685155 102.464859 
C 521.685155 102.934919 521.871912 103.38579 522.204295 103.718173 
C 522.536678 104.050556 522.987549 104.237313 523.457609 104.237313 
z
" style="stroke:#000000;stroke-width:0.886227;"/>
    <path clip-path="url(#pc6ceacbdb1)" d="M 544.430125 105.294919 
C 544.900185 105.294919 545.351056 105.108162 545.683439 104.775779 
C 546.015822 104.443397 546.202579 103.992526 546.202579 103.522465 
C 546.202579 103.052405 546.015822 102.601534 545.683439 102.269151 
C 545.351056 101.936768 544.900185 101.750011 544.430125 101.750011 
C 543.960065 101.750011 543.509194 101.936768 543.176811 102.269151 
C 542.844428 102.601534 542.657671 103.052405 542.657671 103.522465 
C 542.657671 103.992526 542.844428 104.443397 543.176811 104.775779 
C 543.509194 105.108162 543.960065 105.294919 544.430125 105.294919 
z
" style="stroke:#000000;stroke-width:0.886227;"/>
    <path clip-path="url(#pc6ceacbdb1)" d="M 565.402641 123.393384 
C 565.872701 123.393384 566.323572 123.206627 566.655955 122.874244 
C 566.988338 122.541861 567.175095 122.09099 567.175095 121.62093 
C 567.175095 121.15087 566.988338 120.699999 566.655955 120.367616 
C 566.323572 120.035233 565.872701 119.848476 565.402641 119.848476 
C 564.932581 119.848476 564.48171 120.035233 564.149327 120.367616 
C 563.816944 120.699999 563.630187 121.15087 563.630187 121.62093 
C 563.630187 122.09099 563.816944 122.541861 564.149327 122.874244 
C 564.48171 123.206627 564.932581 123.393384 565.402641 123.393384 
z
" style="stroke:#000000;stroke-width:0.886227;"/>
    <path clip-path="url(#pc6ceacbdb1)" d="M 607.347673 91.661039 
C 607.817733 91.661039 608.268604 91.474283 608.600987 91.1419 
C 608.93337 90.809517 609.120127 90.358646 609.120127 89.888586 
C 609.120127 89.418525 608.93337 88.967654 608.600987 88.635271 
C 608.268604 88.302889 607.817733 88.116132 607.347673 88.116132 
C 606.877612 88.116132 606.426741 88.302889 606.094359 88.635271 
C 605.761976 88.967654 605.575219 89.418525 605.575219 89.888586 
C 605.575219 90.358646 605.761976 90.809517 606.094359 91.1419 
C 606.426741 91.474283 606.877612 91.661039 607.347673 91.661039 
z
" style="stroke:#000000;stroke-width:0.886227;"/>
    <path clip-path="url(#pc6ceacbdb1)" d="M 649.292704 91.152654 
C 649.762765 91.152654 650.213636 90.965897 650.546019 90.633514 
C 650.878401 90.301132 651.065158 89.85026 651.065158 89.3802 
C 651.065158 88.91014 650.878401 88.459269 650.546019 88.126886 
C 650.213636 87.794503 649.762765 87.607746 649.292704 87.607746 
C 648.822644 87.607746 648.371773 87.794503 648.03939 88.126886 
C 647.707007 88.459269 647.520251 88.91014 647.520251 89.3802 
C 647.520251 89.85026 647.707007 90.301132 648.03939 90.633514 
C 648.371773 90.965897 648.822644 91.152654 649.292704 91.152654 
z
" style="stroke:#000000;stroke-width:0.886227;"/>
    <path clip-path="url(#pc6ceacbdb1)" d="M 739.081288 74.253377 
C 739.551348 74.253377 740.002219 74.06662 740.334602 73.734237 
C 740.666985 73.401854 740.853742 72.950983 740.853742 72.480923 
C 740.853742 72.010863 740.666985 71.559992 740.334602 71.227609 
C 740.002219 70.895226 739.551348 70.708469 739.081288 70.708469 
C 738.611228 70.708469 738.160357 70.895226 737.827974 71.227609 
C 737.495591 71.559992 737.308834 72.010863 737.308834 72.480923 
C 737.308834 72.950983 737.495591 73.401854 737.827974 73.734237 
C 738.160357 74.06662 738.611228 74.253377 739.081288 74.253377 
z
" style="stroke:#000000;stroke-width:0.886227;"/>
    <path clip-path="url(#pc6ceacbdb1)" d="M 817.072831 74.880941 
C 817.542892 74.880941 817.993763 74.694184 818.326145 74.361801 
C 818.658528 74.029418 818.845285 73.578547 818.845285 73.108487 
C 818.845285 72.638427 818.658528 72.187556 818.326145 71.855173 
C 817.993763 71.52279 817.542892 71.336033 817.072831 71.336033 
C 816.602771 71.336033 816.1519 71.52279 815.819517 71.855173 
C 815.487134 72.187556 815.300377 72.638427 815.300377 73.108487 
C 815.300377 73.578547 815.487134 74.029418 815.819517 74.361801 
C 816.1519 74.694184 816.602771 74.880941 817.072831 74.880941 
z
" style="stroke:#000000;stroke-width:0.886227;"/>
   </g>
   <g id="patch_5">
    <path d="M 470.23985 22.244082 
L 833.588688 22.244082 
L 833.588688 7.2 
L 470.23985 7.2 
z
" style="fill:#d9d9d9;"/>
   </g>
   <g id="PolyCollection_2">
    <path clip-path="url(#pc6ceacbdb1)" d="M 486.755707 111.089479 
L 486.755707 209.015894 
L 491.998835 224.693628 
L 502.485093 145.514573 
L 512.971351 167.219661 
L 523.457609 141.671615 
L 544.430125 134.862228 
L 565.402641 172.583079 
L 607.347673 141.744988 
L 649.292704 134.648677 
L 739.081288 113.077309 
L 817.072831 108.991302 
L 817.072831 37.225673 
L 817.072831 37.225673 
L 739.081288 31.884537 
L 649.292704 44.111723 
L 607.347673 38.032183 
L 565.402641 70.658781 
L 544.430125 72.182703 
L 523.457609 63.258102 
L 512.971351 53.80158 
L 502.485093 92.995107 
L 491.998835 82.54207 
L 486.755707 111.089479 
z
" style="fill:#333333;fill-opacity:0.501961;"/>
   </g>
   <g id="text_12">
    <!-- AUC -->
    <g style="fill:#1a1a1a;" transform="translate(642.611706 17.150291)scale(0.088 -0.088)">
     <defs>
      <path d="M 556 4666 
L 1191 4666 
L 1191 1831 
Q 1191 1081 1462 751 
Q 1734 422 2344 422 
Q 2950 422 3222 751 
Q 3494 1081 3494 1831 
L 3494 4666 
L 4128 4666 
L 4128 1753 
Q 4128 841 3676 375 
Q 3225 -91 2344 -91 
Q 1459 -91 1007 375 
Q 556 841 556 1753 
L 556 4666 
z
" id="DejaVuSans-55" transform="scale(0.015625)"/>
      <path d="M 4122 4306 
L 4122 3641 
Q 3803 3938 3442 4084 
Q 3081 4231 2675 4231 
Q 1875 4231 1450 3742 
Q 1025 3253 1025 2328 
Q 1025 1406 1450 917 
Q 1875 428 2675 428 
Q 3081 428 3442 575 
Q 3803 722 4122 1019 
L 4122 359 
Q 3791 134 3420 21 
Q 3050 -91 2638 -91 
Q 1578 -91 968 557 
Q 359 1206 359 2328 
Q 359 3453 968 4101 
Q 1578 4750 2638 4750 
Q 3056 4750 3426 4639 
Q 3797 4528 4122 4306 
z
" id="DejaVuSans-43" transform="scale(0.015625)"/>
     </defs>
     <use xlink:href="#DejaVuSans-41"/>
     <use x="68.408203" xlink:href="#DejaVuSans-55"/>
     <use x="141.601562" xlink:href="#DejaVuSans-43"/>
    </g>
   </g>
  </g>
  <g id="axes_3">
   <g id="patch_6">
    <path d="M 52.388688 465.764082 
L 415.737525 465.764082 
L 415.737525 253.674082 
L 52.388688 253.674082 
z
" style="fill:#ebebeb;"/>
   </g>
   <g id="matplotlib.axis_5">
    <g id="xtick_19">
     <g id="line2d_47">
      <path clip-path="url(#p38b4b7e4e8)" d="M 63.661415 465.764082 
L 63.661415 253.674082 
" style="fill:none;stroke:#ffffff;stroke-linecap:square;"/>
     </g>
     <g id="line2d_48">
      <path d="M 63.661415 465.764082 
" style="fill:none;stroke:#333333;stroke-linecap:square;stroke-width:1.5;"/>
      <defs>
       <path d="M 0 0 
L 0 2.75 
" id="m80a85640c8" style="stroke:#000000;"/>
      </defs>
      <g>
       <use style="fill:#333333;stroke:#000000;" x="63.661415" xlink:href="#m80a85640c8" y="465.764082"/>
      </g>
     </g>
     <g id="text_13">
      <!-- 0 -->
      <g style="fill:#4d4d4d;" transform="translate(60.861915 477.400707)scale(0.088 -0.088)">
       <use xlink:href="#DejaVuSans-30"/>
      </g>
     </g>
    </g>
    <g id="xtick_20">
     <g id="line2d_49">
      <path clip-path="url(#p38b4b7e4e8)" d="M 145.585305 465.764082 
L 145.585305 253.674082 
" style="fill:none;stroke:#ffffff;stroke-linecap:square;"/>
     </g>
     <g id="line2d_50">
      <path d="M 145.585305 465.764082 
" style="fill:none;stroke:#333333;stroke-linecap:square;stroke-width:1.5;"/>
      <g>
       <use style="fill:#333333;stroke:#000000;" x="145.585305" xlink:href="#m80a85640c8" y="465.764082"/>
      </g>
     </g>
     <g id="text_14">
      <!-- 250 -->
      <g style="fill:#4d4d4d;" transform="translate(137.186805 477.400707)scale(0.088 -0.088)">
       <use xlink:href="#DejaVuSans-32"/>
       <use x="63.623047" xlink:href="#DejaVuSans-35"/>
       <use x="127.246094" xlink:href="#DejaVuSans-30"/>
      </g>
     </g>
    </g>
    <g id="xtick_21">
     <g id="line2d_51">
      <path clip-path="url(#p38b4b7e4e8)" d="M 227.509195 465.764082 
L 227.509195 253.674082 
" style="fill:none;stroke:#ffffff;stroke-linecap:square;"/>
     </g>
     <g id="line2d_52">
      <path d="M 227.509195 465.764082 
" style="fill:none;stroke:#333333;stroke-linecap:square;stroke-width:1.5;"/>
      <g>
       <use style="fill:#333333;stroke:#000000;" x="227.509195" xlink:href="#m80a85640c8" y="465.764082"/>
      </g>
     </g>
     <g id="text_15">
      <!-- 500 -->
      <g style="fill:#4d4d4d;" transform="translate(219.110695 477.400707)scale(0.088 -0.088)">
       <use xlink:href="#DejaVuSans-35"/>
       <use x="63.623047" xlink:href="#DejaVuSans-30"/>
       <use x="127.246094" xlink:href="#DejaVuSans-30"/>
      </g>
     </g>
    </g>
    <g id="xtick_22">
     <g id="line2d_53">
      <path clip-path="url(#p38b4b7e4e8)" d="M 309.433085 465.764082 
L 309.433085 253.674082 
" style="fill:none;stroke:#ffffff;stroke-linecap:square;"/>
     </g>
     <g id="line2d_54">
      <path d="M 309.433085 465.764082 
" style="fill:none;stroke:#333333;stroke-linecap:square;stroke-width:1.5;"/>
      <g>
       <use style="fill:#333333;stroke:#000000;" x="309.433085" xlink:href="#m80a85640c8" y="465.764082"/>
      </g>
     </g>
     <g id="text_16">
      <!-- 750 -->
      <g style="fill:#4d4d4d;" transform="translate(301.034585 477.400707)scale(0.088 -0.088)">
       <use xlink:href="#DejaVuSans-37"/>
       <use x="63.623047" xlink:href="#DejaVuSans-35"/>
       <use x="127.246094" xlink:href="#DejaVuSans-30"/>
      </g>
     </g>
    </g>
    <g id="xtick_23">
     <g id="line2d_55">
      <path clip-path="url(#p38b4b7e4e8)" d="M 391.356975 465.764082 
L 391.356975 253.674082 
" style="fill:none;stroke:#ffffff;stroke-linecap:square;"/>
     </g>
     <g id="line2d_56">
      <path d="M 391.356975 465.764082 
" style="fill:none;stroke:#333333;stroke-linecap:square;stroke-width:1.5;"/>
      <g>
       <use style="fill:#333333;stroke:#000000;" x="391.356975" xlink:href="#m80a85640c8" y="465.764082"/>
      </g>
     </g>
     <g id="text_17">
      <!-- 1000 -->
      <g style="fill:#4d4d4d;" transform="translate(380.158975 477.400707)scale(0.088 -0.088)">
       <defs>
        <path d="M 794 531 
L 1825 531 
L 1825 4091 
L 703 3866 
L 703 4441 
L 1819 4666 
L 2450 4666 
L 2450 531 
L 3481 531 
L 3481 0 
L 794 0 
L 794 531 
z
" id="DejaVuSans-31" transform="scale(0.015625)"/>
       </defs>
       <use xlink:href="#DejaVuSans-31"/>
       <use x="63.623047" xlink:href="#DejaVuSans-30"/>
       <use x="127.246094" xlink:href="#DejaVuSans-30"/>
       <use x="190.869141" xlink:href="#DejaVuSans-30"/>
      </g>
     </g>
    </g>
    <g id="xtick_24">
     <g id="line2d_57">
      <path clip-path="url(#p38b4b7e4e8)" d="M 104.62336 465.764082 
L 104.62336 253.674082 
" style="fill:none;stroke:#ffffff;stroke-linecap:square;stroke-width:0.5;"/>
     </g>
    </g>
    <g id="xtick_25">
     <g id="line2d_58">
      <path clip-path="url(#p38b4b7e4e8)" d="M 186.54725 465.764082 
L 186.54725 253.674082 
" style="fill:none;stroke:#ffffff;stroke-linecap:square;stroke-width:0.5;"/>
     </g>
    </g>
    <g id="xtick_26">
     <g id="line2d_59">
      <path clip-path="url(#p38b4b7e4e8)" d="M 268.47114 465.764082 
L 268.47114 253.674082 
" style="fill:none;stroke:#ffffff;stroke-linecap:square;stroke-width:0.5;"/>
     </g>
    </g>
    <g id="xtick_27">
     <g id="line2d_60">
      <path clip-path="url(#p38b4b7e4e8)" d="M 350.39503 465.764082 
L 350.39503 253.674082 
" style="fill:none;stroke:#ffffff;stroke-linecap:square;stroke-width:0.5;"/>
     </g>
    </g>
   </g>
   <g id="matplotlib.axis_6">
    <g id="ytick_18">
     <g id="line2d_61">
      <path clip-path="url(#p38b4b7e4e8)" d="M 52.388688 461.331883 
L 415.737525 461.331883 
" style="fill:none;stroke:#ffffff;stroke-linecap:square;"/>
     </g>
     <g id="line2d_62">
      <path d="M 52.388688 461.331883 
" style="fill:none;stroke:#333333;stroke-linecap:square;stroke-width:1.5;"/>
      <g>
       <use style="fill:#333333;stroke:#000000;" x="52.388688" xlink:href="#m83b6d1f84d" y="461.331883"/>
      </g>
     </g>
     <g id="text_18">
      <!-- 0.887 -->
      <g style="fill:#4d4d4d;" transform="translate(22.245938 463.760133)scale(0.088 -0.088)">
       <use xlink:href="#DejaVuSans-30"/>
       <use x="63.623047" xlink:href="#DejaVuSans-2e"/>
       <use x="95.410156" xlink:href="#DejaVuSans-38"/>
       <use x="159.033203" xlink:href="#DejaVuSans-38"/>
       <use x="222.65625" xlink:href="#DejaVuSans-37"/>
      </g>
     </g>
    </g>
    <g id="ytick_19">
     <g id="line2d_63">
      <path clip-path="url(#p38b4b7e4e8)" d="M 52.388688 426.755534 
L 415.737525 426.755534 
" style="fill:none;stroke:#ffffff;stroke-linecap:square;"/>
     </g>
     <g id="line2d_64">
      <path d="M 52.388688 426.755534 
" style="fill:none;stroke:#333333;stroke-linecap:square;stroke-width:1.5;"/>
      <g>
       <use style="fill:#333333;stroke:#000000;" x="52.388688" xlink:href="#m83b6d1f84d" y="426.755534"/>
      </g>
     </g>
     <g id="text_19">
      <!-- 0.888 -->
      <g style="fill:#4d4d4d;" transform="translate(22.245938 429.183784)scale(0.088 -0.088)">
       <use xlink:href="#DejaVuSans-30"/>
       <use x="63.623047" xlink:href="#DejaVuSans-2e"/>
       <use x="95.410156" xlink:href="#DejaVuSans-38"/>
       <use x="159.033203" xlink:href="#DejaVuSans-38"/>
       <use x="222.65625" xlink:href="#DejaVuSans-38"/>
      </g>
     </g>
    </g>
    <g id="ytick_20">
     <g id="line2d_65">
      <path clip-path="url(#p38b4b7e4e8)" d="M 52.388688 392.179184 
L 415.737525 392.179184 
" style="fill:none;stroke:#ffffff;stroke-linecap:square;"/>
     </g>
     <g id="line2d_66">
      <path d="M 52.388688 392.179184 
" style="fill:none;stroke:#333333;stroke-linecap:square;stroke-width:1.5;"/>
      <g>
       <use style="fill:#333333;stroke:#000000;" x="52.388688" xlink:href="#m83b6d1f84d" y="392.179184"/>
      </g>
     </g>
     <g id="text_20">
      <!-- 0.889 -->
      <g style="fill:#4d4d4d;" transform="translate(22.245938 394.607434)scale(0.088 -0.088)">
       <defs>
        <path d="M 703 97 
L 703 672 
Q 941 559 1184 500 
Q 1428 441 1663 441 
Q 2288 441 2617 861 
Q 2947 1281 2994 2138 
Q 2813 1869 2534 1725 
Q 2256 1581 1919 1581 
Q 1219 1581 811 2004 
Q 403 2428 403 3163 
Q 403 3881 828 4315 
Q 1253 4750 1959 4750 
Q 2769 4750 3195 4129 
Q 3622 3509 3622 2328 
Q 3622 1225 3098 567 
Q 2575 -91 1691 -91 
Q 1453 -91 1209 -44 
Q 966 3 703 97 
z
M 1959 2075 
Q 2384 2075 2632 2365 
Q 2881 2656 2881 3163 
Q 2881 3666 2632 3958 
Q 2384 4250 1959 4250 
Q 1534 4250 1286 3958 
Q 1038 3666 1038 3163 
Q 1038 2656 1286 2365 
Q 1534 2075 1959 2075 
z
" id="DejaVuSans-39" transform="scale(0.015625)"/>
       </defs>
       <use xlink:href="#DejaVuSans-30"/>
       <use x="63.623047" xlink:href="#DejaVuSans-2e"/>
       <use x="95.410156" xlink:href="#DejaVuSans-38"/>
       <use x="159.033203" xlink:href="#DejaVuSans-38"/>
       <use x="222.65625" xlink:href="#DejaVuSans-39"/>
      </g>
     </g>
    </g>
    <g id="ytick_21">
     <g id="line2d_67">
      <path clip-path="url(#p38b4b7e4e8)" d="M 52.388688 357.602835 
L 415.737525 357.602835 
" style="fill:none;stroke:#ffffff;stroke-linecap:square;"/>
     </g>
     <g id="line2d_68">
      <path d="M 52.388688 357.602835 
" style="fill:none;stroke:#333333;stroke-linecap:square;stroke-width:1.5;"/>
      <g>
       <use style="fill:#333333;stroke:#000000;" x="52.388688" xlink:href="#m83b6d1f84d" y="357.602835"/>
      </g>
     </g>
     <g id="text_21">
      <!-- 0.890 -->
      <g style="fill:#4d4d4d;" transform="translate(22.245938 360.031085)scale(0.088 -0.088)">
       <use xlink:href="#DejaVuSans-30"/>
       <use x="63.623047" xlink:href="#DejaVuSans-2e"/>
       <use x="95.410156" xlink:href="#DejaVuSans-38"/>
       <use x="159.033203" xlink:href="#DejaVuSans-39"/>
       <use x="222.65625" xlink:href="#DejaVuSans-30"/>
      </g>
     </g>
    </g>
    <g id="ytick_22">
     <g id="line2d_69">
      <path clip-path="url(#p38b4b7e4e8)" d="M 52.388688 323.026485 
L 415.737525 323.026485 
" style="fill:none;stroke:#ffffff;stroke-linecap:square;"/>
     </g>
     <g id="line2d_70">
      <path d="M 52.388688 323.026485 
" style="fill:none;stroke:#333333;stroke-linecap:square;stroke-width:1.5;"/>
      <g>
       <use style="fill:#333333;stroke:#000000;" x="52.388688" xlink:href="#m83b6d1f84d" y="323.026485"/>
      </g>
     </g>
     <g id="text_22">
      <!-- 0.891 -->
      <g style="fill:#4d4d4d;" transform="translate(22.245938 325.454735)scale(0.088 -0.088)">
       <use xlink:href="#DejaVuSans-30"/>
       <use x="63.623047" xlink:href="#DejaVuSans-2e"/>
       <use x="95.410156" xlink:href="#DejaVuSans-38"/>
       <use x="159.033203" xlink:href="#DejaVuSans-39"/>
       <use x="222.65625" xlink:href="#DejaVuSans-31"/>
      </g>
     </g>
    </g>
    <g id="ytick_23">
     <g id="line2d_71">
      <path clip-path="url(#p38b4b7e4e8)" d="M 52.388688 288.450136 
L 415.737525 288.450136 
" style="fill:none;stroke:#ffffff;stroke-linecap:square;"/>
     </g>
     <g id="line2d_72">
      <path d="M 52.388688 288.450136 
" style="fill:none;stroke:#333333;stroke-linecap:square;stroke-width:1.5;"/>
      <g>
       <use style="fill:#333333;stroke:#000000;" x="52.388688" xlink:href="#m83b6d1f84d" y="288.450136"/>
      </g>
     </g>
     <g id="text_23">
      <!-- 0.892 -->
      <g style="fill:#4d4d4d;" transform="translate(22.245938 290.878386)scale(0.088 -0.088)">
       <use xlink:href="#DejaVuSans-30"/>
       <use x="63.623047" xlink:href="#DejaVuSans-2e"/>
       <use x="95.410156" xlink:href="#DejaVuSans-38"/>
       <use x="159.033203" xlink:href="#DejaVuSans-39"/>
       <use x="222.65625" xlink:href="#DejaVuSans-32"/>
      </g>
     </g>
    </g>
    <g id="ytick_24">
     <g id="line2d_73">
      <path clip-path="url(#p38b4b7e4e8)" d="M 52.388688 253.873786 
L 415.737525 253.873786 
" style="fill:none;stroke:#ffffff;stroke-linecap:square;"/>
     </g>
     <g id="line2d_74">
      <path d="M 52.388688 253.873786 
" style="fill:none;stroke:#333333;stroke-linecap:square;stroke-width:1.5;"/>
      <g>
       <use style="fill:#333333;stroke:#000000;" x="52.388688" xlink:href="#m83b6d1f84d" y="253.873786"/>
      </g>
     </g>
     <g id="text_24">
      <!-- 0.893 -->
      <g style="fill:#4d4d4d;" transform="translate(22.245938 256.302036)scale(0.088 -0.088)">
       <use xlink:href="#DejaVuSans-30"/>
       <use x="63.623047" xlink:href="#DejaVuSans-2e"/>
       <use x="95.410156" xlink:href="#DejaVuSans-38"/>
       <use x="159.033203" xlink:href="#DejaVuSans-39"/>
       <use x="222.65625" xlink:href="#DejaVuSans-33"/>
      </g>
     </g>
    </g>
    <g id="ytick_25">
     <g id="line2d_75">
      <path clip-path="url(#p38b4b7e4e8)" d="M 52.388688 444.043708 
L 415.737525 444.043708 
" style="fill:none;stroke:#ffffff;stroke-linecap:square;stroke-width:0.5;"/>
     </g>
    </g>
    <g id="ytick_26">
     <g id="line2d_76">
      <path clip-path="url(#p38b4b7e4e8)" d="M 52.388688 409.467359 
L 415.737525 409.467359 
" style="fill:none;stroke:#ffffff;stroke-linecap:square;stroke-width:0.5;"/>
     </g>
    </g>
    <g id="ytick_27">
     <g id="line2d_77">
      <path clip-path="url(#p38b4b7e4e8)" d="M 52.388688 374.891009 
L 415.737525 374.891009 
" style="fill:none;stroke:#ffffff;stroke-linecap:square;stroke-width:0.5;"/>
     </g>
    </g>
    <g id="ytick_28">
     <g id="line2d_78">
      <path clip-path="url(#p38b4b7e4e8)" d="M 52.388688 340.31466 
L 415.737525 340.31466 
" style="fill:none;stroke:#ffffff;stroke-linecap:square;stroke-width:0.5;"/>
     </g>
    </g>
    <g id="ytick_29">
     <g id="line2d_79">
      <path clip-path="url(#p38b4b7e4e8)" d="M 52.388688 305.73831 
L 415.737525 305.73831 
" style="fill:none;stroke:#ffffff;stroke-linecap:square;stroke-width:0.5;"/>
     </g>
    </g>
    <g id="ytick_30">
     <g id="line2d_80">
      <path clip-path="url(#p38b4b7e4e8)" d="M 52.388688 271.161961 
L 415.737525 271.161961 
" style="fill:none;stroke:#ffffff;stroke-linecap:square;stroke-width:0.5;"/>
     </g>
    </g>
   </g>
   <g id="line2d_81">
    <path clip-path="url(#p38b4b7e4e8)" d="M 68.904544 403.146711 
L 74.147673 371.592594 
L 84.633931 363.355792 
L 95.120189 362.49945 
L 105.606446 359.618738 
L 126.578962 343.246039 
L 147.551478 375.027163 
L 189.49651 316.903916 
L 231.441542 350.883482 
L 321.230125 347.071049 
L 399.221668 345.836071 
" style="fill:none;stroke:#000000;stroke-width:0.886227;"/>
   </g>
   <g id="PathCollection_3">
    <path clip-path="url(#p38b4b7e4e8)" d="M 68.904544 404.919165 
C 69.374604 404.919165 69.825475 404.732408 70.157858 404.400025 
C 70.490241 404.067642 70.676998 403.616771 70.676998 403.146711 
C 70.676998 402.676651 70.490241 402.225779 70.157858 401.893397 
C 69.825475 401.561014 69.374604 401.374257 68.904544 401.374257 
C 68.434483 401.374257 67.983612 401.561014 67.65123 401.893397 
C 67.318847 402.225779 67.13209 402.676651 67.13209 403.146711 
C 67.13209 403.616771 67.318847 404.067642 67.65123 404.400025 
C 67.983612 404.732408 68.434483 404.919165 68.904544 404.919165 
z
" style="stroke:#000000;stroke-width:0.886227;"/>
    <path clip-path="url(#p38b4b7e4e8)" d="M 74.147673 373.365048 
C 74.617733 373.365048 75.068604 373.178291 75.400987 372.845908 
C 75.73337 372.513525 75.920127 372.062654 75.920127 371.592594 
C 75.920127 371.122534 75.73337 370.671663 75.400987 370.33928 
C 75.068604 370.006897 74.617733 369.82014 74.147673 369.82014 
C 73.677612 369.82014 73.226741 370.006897 72.894359 370.33928 
C 72.561976 370.671663 72.375219 371.122534 72.375219 371.592594 
C 72.375219 372.062654 72.561976 372.513525 72.894359 372.845908 
C 73.226741 373.178291 73.677612 373.365048 74.147673 373.365048 
z
" style="stroke:#000000;stroke-width:0.886227;"/>
    <path clip-path="url(#p38b4b7e4e8)" d="M 84.633931 365.128246 
C 85.103991 365.128246 85.554862 364.941489 85.887245 364.609106 
C 86.219628 364.276723 86.406384 363.825852 86.406384 363.355792 
C 86.406384 362.885732 86.219628 362.434861 85.887245 362.102478 
C 85.554862 361.770095 85.103991 361.583338 84.633931 361.583338 
C 84.16387 361.583338 83.712999 361.770095 83.380616 362.102478 
C 83.048234 362.434861 82.861477 362.885732 82.861477 363.355792 
C 82.861477 363.825852 83.048234 364.276723 83.380616 364.609106 
C 83.712999 364.941489 84.16387 365.128246 84.633931 365.128246 
z
" style="stroke:#000000;stroke-width:0.886227;"/>
    <path clip-path="url(#p38b4b7e4e8)" d="M 95.120189 364.271904 
C 95.590249 364.271904 96.04112 364.085147 96.373503 363.752764 
C 96.705885 363.420381 96.892642 362.96951 96.892642 362.49945 
C 96.892642 362.02939 96.705885 361.578518 96.373503 361.246136 
C 96.04112 360.913753 95.590249 360.726996 95.120189 360.726996 
C 94.650128 360.726996 94.199257 360.913753 93.866874 361.246136 
C 93.534492 361.578518 93.347735 362.02939 93.347735 362.49945 
C 93.347735 362.96951 93.534492 363.420381 93.866874 363.752764 
C 94.199257 364.085147 94.650128 364.271904 95.120189 364.271904 
z
" style="stroke:#000000;stroke-width:0.886227;"/>
    <path clip-path="url(#p38b4b7e4e8)" d="M 105.606446 361.391191 
C 106.076507 361.391191 106.527378 361.204435 106.859761 360.872052 
C 107.192143 360.539669 107.3789 360.088798 107.3789 359.618738 
C 107.3789 359.148677 107.192143 358.697806 106.859761 358.365423 
C 106.527378 358.033041 106.076507 357.846284 105.606446 357.846284 
C 105.136386 357.846284 104.685515 358.033041 104.353132 358.365423 
C 104.02075 358.697806 103.833993 359.148677 103.833993 359.618738 
C 103.833993 360.088798 104.02075 360.539669 104.353132 360.872052 
C 104.685515 361.204435 105.136386 361.391191 105.606446 361.391191 
z
" style="stroke:#000000;stroke-width:0.886227;"/>
    <path clip-path="url(#p38b4b7e4e8)" d="M 126.578962 345.018493 
C 127.049023 345.018493 127.499894 344.831736 127.832276 344.499353 
C 128.164659 344.16697 128.351416 343.716099 128.351416 343.246039 
C 128.351416 342.775979 128.164659 342.325108 127.832276 341.992725 
C 127.499894 341.660342 127.049023 341.473585 126.578962 341.473585 
C 126.108902 341.473585 125.658031 341.660342 125.325648 341.992725 
C 124.993265 342.325108 124.806508 342.775979 124.806508 343.246039 
C 124.806508 343.716099 124.993265 344.16697 125.325648 344.499353 
C 125.658031 344.831736 126.108902 345.018493 126.578962 345.018493 
z
" style="stroke:#000000;stroke-width:0.886227;"/>
    <path clip-path="url(#p38b4b7e4e8)" d="M 147.551478 376.799616 
C 148.021538 376.799616 148.47241 376.61286 148.804792 376.280477 
C 149.137175 375.948094 149.323932 375.497223 149.323932 375.027163 
C 149.323932 374.557102 149.137175 374.106231 148.804792 373.773848 
C 148.47241 373.441466 148.021538 373.254709 147.551478 373.254709 
C 147.081418 373.254709 146.630547 373.441466 146.298164 373.773848 
C 145.965781 374.106231 145.779024 374.557102 145.779024 375.027163 
C 145.779024 375.497223 145.965781 375.948094 146.298164 376.280477 
C 146.630547 376.61286 147.081418 376.799616 147.551478 376.799616 
z
" style="stroke:#000000;stroke-width:0.886227;"/>
    <path clip-path="url(#p38b4b7e4e8)" d="M 189.49651 318.676369 
C 189.96657 318.676369 190.417441 318.489613 190.749824 318.15723 
C 191.082207 317.824847 191.268964 317.373976 191.268964 316.903916 
C 191.268964 316.433855 191.082207 315.982984 190.749824 315.650602 
C 190.417441 315.318219 189.96657 315.131462 189.49651 315.131462 
C 189.02645 315.131462 188.575579 315.318219 188.243196 315.650602 
C 187.910813 315.982984 187.724056 316.433855 187.724056 316.903916 
C 187.724056 317.373976 187.910813 317.824847 188.243196 318.15723 
C 188.575579 318.489613 189.02645 318.676369 189.49651 318.676369 
z
" style="stroke:#000000;stroke-width:0.886227;"/>
    <path clip-path="url(#p38b4b7e4e8)" d="M 231.441542 352.655936 
C 231.911602 352.655936 232.362473 352.469179 232.694856 352.136796 
C 233.027239 351.804413 233.213995 351.353542 233.213995 350.883482 
C 233.213995 350.413422 233.027239 349.962551 232.694856 349.630168 
C 232.362473 349.297785 231.911602 349.111028 231.441542 349.111028 
C 230.971481 349.111028 230.52061 349.297785 230.188227 349.630168 
C 229.855845 349.962551 229.669088 350.413422 229.669088 350.883482 
C 229.669088 351.353542 229.855845 351.804413 230.188227 352.136796 
C 230.52061 352.469179 230.971481 352.655936 231.441542 352.655936 
z
" style="stroke:#000000;stroke-width:0.886227;"/>
    <path clip-path="url(#p38b4b7e4e8)" d="M 321.230125 348.843503 
C 321.700185 348.843503 322.151056 348.656746 322.483439 348.324363 
C 322.815822 347.991981 323.002579 347.541109 323.002579 347.071049 
C 323.002579 346.600989 322.815822 346.150118 322.483439 345.817735 
C 322.151056 345.485352 321.700185 345.298595 321.230125 345.298595 
C 320.760065 345.298595 320.309194 345.485352 319.976811 345.817735 
C 319.644428 346.150118 319.457671 346.600989 319.457671 347.071049 
C 319.457671 347.541109 319.644428 347.991981 319.976811 348.324363 
C 320.309194 348.656746 320.760065 348.843503 321.230125 348.843503 
z
" style="stroke:#000000;stroke-width:0.886227;"/>
    <path clip-path="url(#p38b4b7e4e8)" d="M 399.221668 347.608525 
C 399.691729 347.608525 400.1426 347.421768 400.474983 347.089385 
C 400.807365 346.757002 400.994122 346.306131 400.994122 345.836071 
C 400.994122 345.366011 400.807365 344.91514 400.474983 344.582757 
C 400.1426 344.250374 399.691729 344.063617 399.221668 344.063617 
C 398.751608 344.063617 398.300737 344.250374 397.968354 344.582757 
C 397.635972 344.91514 397.449215 345.366011 397.449215 345.836071 
C 397.449215 346.306131 397.635972 346.757002 397.968354 347.089385 
C 398.300737 347.421768 398.751608 347.608525 399.221668 347.608525 
z
" style="stroke:#000000;stroke-width:0.886227;"/>
   </g>
   <g id="patch_7">
    <path d="M 52.388688 253.674082 
L 415.737525 253.674082 
L 415.737525 238.63 
L 52.388688 238.63 
z
" style="fill:#d9d9d9;"/>
   </g>
   <g id="PolyCollection_3">
    <path clip-path="url(#p38b4b7e4e8)" d="M 68.904544 352.039261 
L 68.904544 454.254161 
L 74.147673 456.123628 
L 84.633931 401.362047 
L 95.120189 401.191811 
L 105.606446 418.890277 
L 126.578962 418.552546 
L 147.551478 436.545437 
L 189.49651 370.493294 
L 231.441542 402.072519 
L 321.230125 400.563364 
L 399.221668 392.867671 
L 399.221668 298.80447 
L 399.221668 298.80447 
L 321.230125 293.578735 
L 231.441542 299.694446 
L 189.49651 263.314537 
L 147.551478 313.508889 
L 126.578962 267.939532 
L 105.606446 300.347198 
L 95.120189 323.807088 
L 84.633931 325.349537 
L 74.147673 287.06156 
L 68.904544 352.039261 
z
" style="fill:#333333;fill-opacity:0.501961;"/>
   </g>
   <g id="text_25">
    <!-- F1 score: &lt;=50K -->
    <g style="fill:#1a1a1a;" transform="translate(196.774481 248.580291)scale(0.088 -0.088)">
     <defs>
      <path d="M 628 4666 
L 3309 4666 
L 3309 4134 
L 1259 4134 
L 1259 2759 
L 3109 2759 
L 3109 2228 
L 1259 2228 
L 1259 0 
L 628 0 
L 628 4666 
z
" id="DejaVuSans-46" transform="scale(0.015625)"/>
      <path id="DejaVuSans-20" transform="scale(0.015625)"/>
      <path d="M 2834 3397 
L 2834 2853 
Q 2591 2978 2328 3040 
Q 2066 3103 1784 3103 
Q 1356 3103 1142 2972 
Q 928 2841 928 2578 
Q 928 2378 1081 2264 
Q 1234 2150 1697 2047 
L 1894 2003 
Q 2506 1872 2764 1633 
Q 3022 1394 3022 966 
Q 3022 478 2636 193 
Q 2250 -91 1575 -91 
Q 1294 -91 989 -36 
Q 684 19 347 128 
L 347 722 
Q 666 556 975 473 
Q 1284 391 1588 391 
Q 1994 391 2212 530 
Q 2431 669 2431 922 
Q 2431 1156 2273 1281 
Q 2116 1406 1581 1522 
L 1381 1569 
Q 847 1681 609 1914 
Q 372 2147 372 2553 
Q 372 3047 722 3315 
Q 1072 3584 1716 3584 
Q 2034 3584 2315 3537 
Q 2597 3491 2834 3397 
z
" id="DejaVuSans-73" transform="scale(0.015625)"/>
      <path d="M 1959 3097 
Q 1497 3097 1228 2736 
Q 959 2375 959 1747 
Q 959 1119 1226 758 
Q 1494 397 1959 397 
Q 2419 397 2687 759 
Q 2956 1122 2956 1747 
Q 2956 2369 2687 2733 
Q 2419 3097 1959 3097 
z
M 1959 3584 
Q 2709 3584 3137 3096 
Q 3566 2609 3566 1747 
Q 3566 888 3137 398 
Q 2709 -91 1959 -91 
Q 1206 -91 779 398 
Q 353 888 353 1747 
Q 353 2609 779 3096 
Q 1206 3584 1959 3584 
z
" id="DejaVuSans-6f" transform="scale(0.015625)"/>
      <path d="M 750 794 
L 1409 794 
L 1409 0 
L 750 0 
L 750 794 
z
M 750 3309 
L 1409 3309 
L 1409 2516 
L 750 2516 
L 750 3309 
z
" id="DejaVuSans-3a" transform="scale(0.015625)"/>
      <path d="M 4684 3150 
L 1459 2003 
L 4684 863 
L 4684 294 
L 678 1747 
L 678 2266 
L 4684 3719 
L 4684 3150 
z
" id="DejaVuSans-3c" transform="scale(0.015625)"/>
      <path d="M 678 2906 
L 4684 2906 
L 4684 2381 
L 678 2381 
L 678 2906 
z
M 678 1631 
L 4684 1631 
L 4684 1100 
L 678 1100 
L 678 1631 
z
" id="DejaVuSans-3d" transform="scale(0.015625)"/>
      <path d="M 628 4666 
L 1259 4666 
L 1259 2694 
L 3353 4666 
L 4166 4666 
L 1850 2491 
L 4331 0 
L 3500 0 
L 1259 2247 
L 1259 0 
L 628 0 
L 628 4666 
z
" id="DejaVuSans-4b" transform="scale(0.015625)"/>
     </defs>
     <use xlink:href="#DejaVuSans-46"/>
     <use x="57.519531" xlink:href="#DejaVuSans-31"/>
     <use x="121.142578" xlink:href="#DejaVuSans-20"/>
     <use x="152.929688" xlink:href="#DejaVuSans-73"/>
     <use x="205.029297" xlink:href="#DejaVuSans-63"/>
     <use x="260.009766" xlink:href="#DejaVuSans-6f"/>
     <use x="321.191406" xlink:href="#DejaVuSans-72"/>
     <use x="360.054688" xlink:href="#DejaVuSans-65"/>
     <use x="421.578125" xlink:href="#DejaVuSans-3a"/>
     <use x="455.269531" xlink:href="#DejaVuSans-20"/>
     <use x="487.056641" xlink:href="#DejaVuSans-3c"/>
     <use x="570.845703" xlink:href="#DejaVuSans-3d"/>
     <use x="654.634766" xlink:href="#DejaVuSans-35"/>
     <use x="718.257812" xlink:href="#DejaVuSans-30"/>
     <use x="781.880859" xlink:href="#DejaVuSans-4b"/>
    </g>
   </g>
  </g>
  <g id="axes_4">
   <g id="patch_8">
    <path d="M 470.23985 465.764082 
L 833.588688 465.764082 
L 833.588688 253.674082 
L 470.23985 253.674082 
z
" style="fill:#ebebeb;"/>
   </g>
   <g id="matplotlib.axis_7">
    <g id="xtick_28">
     <g id="line2d_82">
      <path clip-path="url(#pe58802f971)" d="M 481.512578 465.764082 
L 481.512578 253.674082 
" style="fill:none;stroke:#ffffff;stroke-linecap:square;"/>
     </g>
     <g id="line2d_83">
      <path d="M 481.512578 465.764082 
" style="fill:none;stroke:#333333;stroke-linecap:square;stroke-width:1.5;"/>
      <g>
       <use style="fill:#333333;stroke:#000000;" x="481.512578" xlink:href="#m80a85640c8" y="465.764082"/>
      </g>
     </g>
     <g id="text_26">
      <!-- 0 -->
      <g style="fill:#4d4d4d;" transform="translate(478.713078 477.400707)scale(0.088 -0.088)">
       <use xlink:href="#DejaVuSans-30"/>
      </g>
     </g>
    </g>
    <g id="xtick_29">
     <g id="line2d_84">
      <path clip-path="url(#pe58802f971)" d="M 563.436468 465.764082 
L 563.436468 253.674082 
" style="fill:none;stroke:#ffffff;stroke-linecap:square;"/>
     </g>
     <g id="line2d_85">
      <path d="M 563.436468 465.764082 
" style="fill:none;stroke:#333333;stroke-linecap:square;stroke-width:1.5;"/>
      <g>
       <use style="fill:#333333;stroke:#000000;" x="563.436468" xlink:href="#m80a85640c8" y="465.764082"/>
      </g>
     </g>
     <g id="text_27">
      <!-- 250 -->
      <g style="fill:#4d4d4d;" transform="translate(555.037968 477.400707)scale(0.088 -0.088)">
       <use xlink:href="#DejaVuSans-32"/>
       <use x="63.623047" xlink:href="#DejaVuSans-35"/>
       <use x="127.246094" xlink:href="#DejaVuSans-30"/>
      </g>
     </g>
    </g>
    <g id="xtick_30">
     <g id="line2d_86">
      <path clip-path="url(#pe58802f971)" d="M 645.360358 465.764082 
L 645.360358 253.674082 
" style="fill:none;stroke:#ffffff;stroke-linecap:square;"/>
     </g>
     <g id="line2d_87">
      <path d="M 645.360358 465.764082 
" style="fill:none;stroke:#333333;stroke-linecap:square;stroke-width:1.5;"/>
      <g>
       <use style="fill:#333333;stroke:#000000;" x="645.360358" xlink:href="#m80a85640c8" y="465.764082"/>
      </g>
     </g>
     <g id="text_28">
      <!-- 500 -->
      <g style="fill:#4d4d4d;" transform="translate(636.961858 477.400707)scale(0.088 -0.088)">
       <use xlink:href="#DejaVuSans-35"/>
       <use x="63.623047" xlink:href="#DejaVuSans-30"/>
       <use x="127.246094" xlink:href="#DejaVuSans-30"/>
      </g>
     </g>
    </g>
    <g id="xtick_31">
     <g id="line2d_88">
      <path clip-path="url(#pe58802f971)" d="M 727.284248 465.764082 
L 727.284248 253.674082 
" style="fill:none;stroke:#ffffff;stroke-linecap:square;"/>
     </g>
     <g id="line2d_89">
      <path d="M 727.284248 465.764082 
" style="fill:none;stroke:#333333;stroke-linecap:square;stroke-width:1.5;"/>
      <g>
       <use style="fill:#333333;stroke:#000000;" x="727.284248" xlink:href="#m80a85640c8" y="465.764082"/>
      </g>
     </g>
     <g id="text_29">
      <!-- 750 -->
      <g style="fill:#4d4d4d;" transform="translate(718.885748 477.400707)scale(0.088 -0.088)">
       <use xlink:href="#DejaVuSans-37"/>
       <use x="63.623047" xlink:href="#DejaVuSans-35"/>
       <use x="127.246094" xlink:href="#DejaVuSans-30"/>
      </g>
     </g>
    </g>
    <g id="xtick_32">
     <g id="line2d_90">
      <path clip-path="url(#pe58802f971)" d="M 809.208138 465.764082 
L 809.208138 253.674082 
" style="fill:none;stroke:#ffffff;stroke-linecap:square;"/>
     </g>
     <g id="line2d_91">
      <path d="M 809.208138 465.764082 
" style="fill:none;stroke:#333333;stroke-linecap:square;stroke-width:1.5;"/>
      <g>
       <use style="fill:#333333;stroke:#000000;" x="809.208138" xlink:href="#m80a85640c8" y="465.764082"/>
      </g>
     </g>
     <g id="text_30">
      <!-- 1000 -->
      <g style="fill:#4d4d4d;" transform="translate(798.010138 477.400707)scale(0.088 -0.088)">
       <use xlink:href="#DejaVuSans-31"/>
       <use x="63.623047" xlink:href="#DejaVuSans-30"/>
       <use x="127.246094" xlink:href="#DejaVuSans-30"/>
       <use x="190.869141" xlink:href="#DejaVuSans-30"/>
      </g>
     </g>
    </g>
    <g id="xtick_33">
     <g id="line2d_92">
      <path clip-path="url(#pe58802f971)" d="M 522.474523 465.764082 
L 522.474523 253.674082 
" style="fill:none;stroke:#ffffff;stroke-linecap:square;stroke-width:0.5;"/>
     </g>
    </g>
    <g id="xtick_34">
     <g id="line2d_93">
      <path clip-path="url(#pe58802f971)" d="M 604.398413 465.764082 
L 604.398413 253.674082 
" style="fill:none;stroke:#ffffff;stroke-linecap:square;stroke-width:0.5;"/>
     </g>
    </g>
    <g id="xtick_35">
     <g id="line2d_94">
      <path clip-path="url(#pe58802f971)" d="M 686.322303 465.764082 
L 686.322303 253.674082 
" style="fill:none;stroke:#ffffff;stroke-linecap:square;stroke-width:0.5;"/>
     </g>
    </g>
    <g id="xtick_36">
     <g id="line2d_95">
      <path clip-path="url(#pe58802f971)" d="M 768.246193 465.764082 
L 768.246193 253.674082 
" style="fill:none;stroke:#ffffff;stroke-linecap:square;stroke-width:0.5;"/>
     </g>
    </g>
    <g id="text_31">
     <!-- Dim latent -->
     <g transform="translate(401.439781 491.989114)scale(0.11 -0.11)">
      <defs>
       <path d="M 1259 4147 
L 1259 519 
L 2022 519 
Q 2988 519 3436 956 
Q 3884 1394 3884 2338 
Q 3884 3275 3436 3711 
Q 2988 4147 2022 4147 
L 1259 4147 
z
M 628 4666 
L 1925 4666 
Q 3281 4666 3915 4102 
Q 4550 3538 4550 2338 
Q 4550 1131 3912 565 
Q 3275 0 1925 0 
L 628 0 
L 628 4666 
z
" id="DejaVuSans-44" transform="scale(0.015625)"/>
       <path d="M 603 3500 
L 1178 3500 
L 1178 0 
L 603 0 
L 603 3500 
z
M 603 4863 
L 1178 4863 
L 1178 4134 
L 603 4134 
L 603 4863 
z
" id="DejaVuSans-69" transform="scale(0.015625)"/>
       <path d="M 3328 2828 
Q 3544 3216 3844 3400 
Q 4144 3584 4550 3584 
Q 5097 3584 5394 3201 
Q 5691 2819 5691 2113 
L 5691 0 
L 5113 0 
L 5113 2094 
Q 5113 2597 4934 2840 
Q 4756 3084 4391 3084 
Q 3944 3084 3684 2787 
Q 3425 2491 3425 1978 
L 3425 0 
L 2847 0 
L 2847 2094 
Q 2847 2600 2669 2842 
Q 2491 3084 2119 3084 
Q 1678 3084 1418 2786 
Q 1159 2488 1159 1978 
L 1159 0 
L 581 0 
L 581 3500 
L 1159 3500 
L 1159 2956 
Q 1356 3278 1631 3431 
Q 1906 3584 2284 3584 
Q 2666 3584 2933 3390 
Q 3200 3197 3328 2828 
z
" id="DejaVuSans-6d" transform="scale(0.015625)"/>
       <path d="M 1172 4494 
L 1172 3500 
L 2356 3500 
L 2356 3053 
L 1172 3053 
L 1172 1153 
Q 1172 725 1289 603 
Q 1406 481 1766 481 
L 2356 481 
L 2356 0 
L 1766 0 
Q 1100 0 847 248 
Q 594 497 594 1153 
L 594 3053 
L 172 3053 
L 172 3500 
L 594 3500 
L 594 4494 
L 1172 4494 
z
" id="DejaVuSans-74" transform="scale(0.015625)"/>
       <path d="M 3513 2113 
L 3513 0 
L 2938 0 
L 2938 2094 
Q 2938 2591 2744 2837 
Q 2550 3084 2163 3084 
Q 1697 3084 1428 2787 
Q 1159 2491 1159 1978 
L 1159 0 
L 581 0 
L 581 3500 
L 1159 3500 
L 1159 2956 
Q 1366 3272 1645 3428 
Q 1925 3584 2291 3584 
Q 2894 3584 3203 3211 
Q 3513 2838 3513 2113 
z
" id="DejaVuSans-6e" transform="scale(0.015625)"/>
      </defs>
      <use xlink:href="#DejaVuSans-44"/>
      <use x="77.001953" xlink:href="#DejaVuSans-69"/>
      <use x="104.785156" xlink:href="#DejaVuSans-6d"/>
      <use x="202.197266" xlink:href="#DejaVuSans-20"/>
      <use x="233.984375" xlink:href="#DejaVuSans-6c"/>
      <use x="261.767578" xlink:href="#DejaVuSans-61"/>
      <use x="323.046875" xlink:href="#DejaVuSans-74"/>
      <use x="362.255859" xlink:href="#DejaVuSans-65"/>
      <use x="423.779297" xlink:href="#DejaVuSans-6e"/>
      <use x="487.158203" xlink:href="#DejaVuSans-74"/>
     </g>
    </g>
   </g>
   <g id="matplotlib.axis_8">
    <g id="ytick_31">
     <g id="line2d_96">
      <path clip-path="url(#pe58802f971)" d="M 470.23985 457.804517 
L 833.588688 457.804517 
" style="fill:none;stroke:#ffffff;stroke-linecap:square;"/>
     </g>
     <g id="line2d_97">
      <path d="M 470.23985 457.804517 
" style="fill:none;stroke:#333333;stroke-linecap:square;stroke-width:1.5;"/>
      <g>
       <use style="fill:#333333;stroke:#000000;" x="470.23985" xlink:href="#m83b6d1f84d" y="457.804517"/>
      </g>
     </g>
     <g id="text_32">
      <!-- 0.635 -->
      <g style="fill:#4d4d4d;" transform="translate(440.0971 460.232767)scale(0.088 -0.088)">
       <use xlink:href="#DejaVuSans-30"/>
       <use x="63.623047" xlink:href="#DejaVuSans-2e"/>
       <use x="95.410156" xlink:href="#DejaVuSans-36"/>
       <use x="159.033203" xlink:href="#DejaVuSans-33"/>
       <use x="222.65625" xlink:href="#DejaVuSans-35"/>
      </g>
     </g>
    </g>
    <g id="ytick_32">
     <g id="line2d_98">
      <path clip-path="url(#pe58802f971)" d="M 470.23985 407.520703 
L 833.588688 407.520703 
" style="fill:none;stroke:#ffffff;stroke-linecap:square;"/>
     </g>
     <g id="line2d_99">
      <path d="M 470.23985 407.520703 
" style="fill:none;stroke:#333333;stroke-linecap:square;stroke-width:1.5;"/>
      <g>
       <use style="fill:#333333;stroke:#000000;" x="470.23985" xlink:href="#m83b6d1f84d" y="407.520703"/>
      </g>
     </g>
     <g id="text_33">
      <!-- 0.640 -->
      <g style="fill:#4d4d4d;" transform="translate(440.0971 409.948953)scale(0.088 -0.088)">
       <use xlink:href="#DejaVuSans-30"/>
       <use x="63.623047" xlink:href="#DejaVuSans-2e"/>
       <use x="95.410156" xlink:href="#DejaVuSans-36"/>
       <use x="159.033203" xlink:href="#DejaVuSans-34"/>
       <use x="222.65625" xlink:href="#DejaVuSans-30"/>
      </g>
     </g>
    </g>
    <g id="ytick_33">
     <g id="line2d_100">
      <path clip-path="url(#pe58802f971)" d="M 470.23985 357.23689 
L 833.588688 357.23689 
" style="fill:none;stroke:#ffffff;stroke-linecap:square;"/>
     </g>
     <g id="line2d_101">
      <path d="M 470.23985 357.23689 
" style="fill:none;stroke:#333333;stroke-linecap:square;stroke-width:1.5;"/>
      <g>
       <use style="fill:#333333;stroke:#000000;" x="470.23985" xlink:href="#m83b6d1f84d" y="357.23689"/>
      </g>
     </g>
     <g id="text_34">
      <!-- 0.645 -->
      <g style="fill:#4d4d4d;" transform="translate(440.0971 359.66514)scale(0.088 -0.088)">
       <use xlink:href="#DejaVuSans-30"/>
       <use x="63.623047" xlink:href="#DejaVuSans-2e"/>
       <use x="95.410156" xlink:href="#DejaVuSans-36"/>
       <use x="159.033203" xlink:href="#DejaVuSans-34"/>
       <use x="222.65625" xlink:href="#DejaVuSans-35"/>
      </g>
     </g>
    </g>
    <g id="ytick_34">
     <g id="line2d_102">
      <path clip-path="url(#pe58802f971)" d="M 470.23985 306.953077 
L 833.588688 306.953077 
" style="fill:none;stroke:#ffffff;stroke-linecap:square;"/>
     </g>
     <g id="line2d_103">
      <path d="M 470.23985 306.953077 
" style="fill:none;stroke:#333333;stroke-linecap:square;stroke-width:1.5;"/>
      <g>
       <use style="fill:#333333;stroke:#000000;" x="470.23985" xlink:href="#m83b6d1f84d" y="306.953077"/>
      </g>
     </g>
     <g id="text_35">
      <!-- 0.650 -->
      <g style="fill:#4d4d4d;" transform="translate(440.0971 309.381327)scale(0.088 -0.088)">
       <use xlink:href="#DejaVuSans-30"/>
       <use x="63.623047" xlink:href="#DejaVuSans-2e"/>
       <use x="95.410156" xlink:href="#DejaVuSans-36"/>
       <use x="159.033203" xlink:href="#DejaVuSans-35"/>
       <use x="222.65625" xlink:href="#DejaVuSans-30"/>
      </g>
     </g>
    </g>
    <g id="ytick_35">
     <g id="line2d_104">
      <path clip-path="url(#pe58802f971)" d="M 470.23985 256.669264 
L 833.588688 256.669264 
" style="fill:none;stroke:#ffffff;stroke-linecap:square;"/>
     </g>
     <g id="line2d_105">
      <path d="M 470.23985 256.669264 
" style="fill:none;stroke:#333333;stroke-linecap:square;stroke-width:1.5;"/>
      <g>
       <use style="fill:#333333;stroke:#000000;" x="470.23985" xlink:href="#m83b6d1f84d" y="256.669264"/>
      </g>
     </g>
     <g id="text_36">
      <!-- 0.655 -->
      <g style="fill:#4d4d4d;" transform="translate(440.0971 259.097514)scale(0.088 -0.088)">
       <use xlink:href="#DejaVuSans-30"/>
       <use x="63.623047" xlink:href="#DejaVuSans-2e"/>
       <use x="95.410156" xlink:href="#DejaVuSans-36"/>
       <use x="159.033203" xlink:href="#DejaVuSans-35"/>
       <use x="222.65625" xlink:href="#DejaVuSans-35"/>
      </g>
     </g>
    </g>
    <g id="ytick_36">
     <g id="line2d_106">
      <path clip-path="url(#pe58802f971)" d="M 470.23985 432.66261 
L 833.588688 432.66261 
" style="fill:none;stroke:#ffffff;stroke-linecap:square;stroke-width:0.5;"/>
     </g>
    </g>
    <g id="ytick_37">
     <g id="line2d_107">
      <path clip-path="url(#pe58802f971)" d="M 470.23985 382.378797 
L 833.588688 382.378797 
" style="fill:none;stroke:#ffffff;stroke-linecap:square;stroke-width:0.5;"/>
     </g>
    </g>
    <g id="ytick_38">
     <g id="line2d_108">
      <path clip-path="url(#pe58802f971)" d="M 470.23985 332.094984 
L 833.588688 332.094984 
" style="fill:none;stroke:#ffffff;stroke-linecap:square;stroke-width:0.5;"/>
     </g>
    </g>
    <g id="ytick_39">
     <g id="line2d_109">
      <path clip-path="url(#pe58802f971)" d="M 470.23985 281.81117 
L 833.588688 281.81117 
" style="fill:none;stroke:#ffffff;stroke-linecap:square;stroke-width:0.5;"/>
     </g>
    </g>
   </g>
   <g id="line2d_110">
    <path clip-path="url(#pe58802f971)" d="M 486.755707 389.415399 
L 491.998835 362.430139 
L 502.485093 411.901741 
L 512.971351 347.25304 
L 523.457609 337.218703 
L 544.430125 366.284208 
L 565.402641 393.758139 
L 607.347673 366.297002 
L 649.292704 316.603065 
L 739.081288 353.897104 
L 817.072831 344.566468 
" style="fill:none;stroke:#000000;stroke-width:0.886227;"/>
   </g>
   <g id="PathCollection_4">
    <path clip-path="url(#pe58802f971)" d="M 486.755707 391.187853 
C 487.225767 391.187853 487.676638 391.001096 488.009021 390.668713 
C 488.341403 390.33633 488.52816 389.885459 488.52816 389.415399 
C 488.52816 388.945339 488.341403 388.494468 488.009021 388.162085 
C 487.676638 387.829702 487.225767 387.642945 486.755707 387.642945 
C 486.285646 387.642945 485.834775 387.829702 485.502392 388.162085 
C 485.17001 388.494468 484.983253 388.945339 484.983253 389.415399 
C 484.983253 389.885459 485.17001 390.33633 485.502392 390.668713 
C 485.834775 391.001096 486.285646 391.187853 486.755707 391.187853 
z
" style="stroke:#000000;stroke-width:0.886227;"/>
    <path clip-path="url(#pe58802f971)" d="M 491.998835 364.202593 
C 492.468896 364.202593 492.919767 364.015836 493.25215 363.683453 
C 493.584532 363.35107 493.771289 362.900199 493.771289 362.430139 
C 493.771289 361.960078 493.584532 361.509207 493.25215 361.176825 
C 492.919767 360.844442 492.468896 360.657685 491.998835 360.657685 
C 491.528775 360.657685 491.077904 360.844442 490.745521 361.176825 
C 490.413139 361.509207 490.226382 361.960078 490.226382 362.430139 
C 490.226382 362.900199 490.413139 363.35107 490.745521 363.683453 
C 491.077904 364.015836 491.528775 364.202593 491.998835 364.202593 
z
" style="stroke:#000000;stroke-width:0.886227;"/>
    <path clip-path="url(#pe58802f971)" d="M 502.485093 413.674194 
C 502.955154 413.674194 503.406025 413.487438 503.738408 413.155055 
C 504.07079 412.822672 504.257547 412.371801 504.257547 411.901741 
C 504.257547 411.43168 504.07079 410.980809 503.738408 410.648426 
C 503.406025 410.316044 502.955154 410.129287 502.485093 410.129287 
C 502.015033 410.129287 501.564162 410.316044 501.231779 410.648426 
C 500.899396 410.980809 500.71264 411.43168 500.71264 411.901741 
C 500.71264 412.371801 500.899396 412.822672 501.231779 413.155055 
C 501.564162 413.487438 502.015033 413.674194 502.485093 413.674194 
z
" style="stroke:#000000;stroke-width:0.886227;"/>
    <path clip-path="url(#pe58802f971)" d="M 512.971351 349.025494 
C 513.441412 349.025494 513.892283 348.838737 514.224665 348.506354 
C 514.557048 348.173971 514.743805 347.7231 514.743805 347.25304 
C 514.743805 346.78298 514.557048 346.332109 514.224665 345.999726 
C 513.892283 345.667343 513.441412 345.480586 512.971351 345.480586 
C 512.501291 345.480586 512.05042 345.667343 511.718037 345.999726 
C 511.385654 346.332109 511.198897 346.78298 511.198897 347.25304 
C 511.198897 347.7231 511.385654 348.173971 511.718037 348.506354 
C 512.05042 348.838737 512.501291 349.025494 512.971351 349.025494 
z
" style="stroke:#000000;stroke-width:0.886227;"/>
    <path clip-path="url(#pe58802f971)" d="M 523.457609 338.991157 
C 523.92767 338.991157 524.378541 338.8044 524.710923 338.472017 
C 525.043306 338.139634 525.230063 337.688763 525.230063 337.218703 
C 525.230063 336.748642 525.043306 336.297771 524.710923 335.965389 
C 524.378541 335.633006 523.92767 335.446249 523.457609 335.446249 
C 522.987549 335.446249 522.536678 335.633006 522.204295 335.965389 
C 521.871912 336.297771 521.685155 336.748642 521.685155 337.218703 
C 521.685155 337.688763 521.871912 338.139634 522.204295 338.472017 
C 522.536678 338.8044 522.987549 338.991157 523.457609 338.991157 
z
" style="stroke:#000000;stroke-width:0.886227;"/>
    <path clip-path="url(#pe58802f971)" d="M 544.430125 368.056662 
C 544.900185 368.056662 545.351056 367.869905 545.683439 367.537522 
C 546.015822 367.205139 546.202579 366.754268 546.202579 366.284208 
C 546.202579 365.814148 546.015822 365.363277 545.683439 365.030894 
C 545.351056 364.698511 544.900185 364.511754 544.430125 364.511754 
C 543.960065 364.511754 543.509194 364.698511 543.176811 365.030894 
C 542.844428 365.363277 542.657671 365.814148 542.657671 366.284208 
C 542.657671 366.754268 542.844428 367.205139 543.176811 367.537522 
C 543.509194 367.869905 543.960065 368.056662 544.430125 368.056662 
z
" style="stroke:#000000;stroke-width:0.886227;"/>
    <path clip-path="url(#pe58802f971)" d="M 565.402641 395.530593 
C 565.872701 395.530593 566.323572 395.343836 566.655955 395.011453 
C 566.988338 394.679071 567.175095 394.228199 567.175095 393.758139 
C 567.175095 393.288079 566.988338 392.837208 566.655955 392.504825 
C 566.323572 392.172442 565.872701 391.985685 565.402641 391.985685 
C 564.932581 391.985685 564.48171 392.172442 564.149327 392.504825 
C 563.816944 392.837208 563.630187 393.288079 563.630187 393.758139 
C 563.630187 394.228199 563.816944 394.679071 564.149327 395.011453 
C 564.48171 395.343836 564.932581 395.530593 565.402641 395.530593 
z
" style="stroke:#000000;stroke-width:0.886227;"/>
    <path clip-path="url(#pe58802f971)" d="M 607.347673 368.069456 
C 607.817733 368.069456 608.268604 367.882699 608.600987 367.550316 
C 608.93337 367.217933 609.120127 366.767062 609.120127 366.297002 
C 609.120127 365.826942 608.93337 365.37607 608.600987 365.043688 
C 608.268604 364.711305 607.817733 364.524548 607.347673 364.524548 
C 606.877612 364.524548 606.426741 364.711305 606.094359 365.043688 
C 605.761976 365.37607 605.575219 365.826942 605.575219 366.297002 
C 605.575219 366.767062 605.761976 367.217933 606.094359 367.550316 
C 606.426741 367.882699 606.877612 368.069456 607.347673 368.069456 
z
" style="stroke:#000000;stroke-width:0.886227;"/>
    <path clip-path="url(#pe58802f971)" d="M 649.292704 318.375519 
C 649.762765 318.375519 650.213636 318.188762 650.546019 317.856379 
C 650.878401 317.523997 651.065158 317.073126 651.065158 316.603065 
C 651.065158 316.133005 650.878401 315.682134 650.546019 315.349751 
C 650.213636 315.017368 649.762765 314.830611 649.292704 314.830611 
C 648.822644 314.830611 648.371773 315.017368 648.03939 315.349751 
C 647.707007 315.682134 647.520251 316.133005 647.520251 316.603065 
C 647.520251 317.073126 647.707007 317.523997 648.03939 317.856379 
C 648.371773 318.188762 648.822644 318.375519 649.292704 318.375519 
z
" style="stroke:#000000;stroke-width:0.886227;"/>
    <path clip-path="url(#pe58802f971)" d="M 739.081288 355.669558 
C 739.551348 355.669558 740.002219 355.482801 740.334602 355.150418 
C 740.666985 354.818036 740.853742 354.367164 740.853742 353.897104 
C 740.853742 353.427044 740.666985 352.976173 740.334602 352.64379 
C 740.002219 352.311407 739.551348 352.12465 739.081288 352.12465 
C 738.611228 352.12465 738.160357 352.311407 737.827974 352.64379 
C 737.495591 352.976173 737.308834 353.427044 737.308834 353.897104 
C 737.308834 354.367164 737.495591 354.818036 737.827974 355.150418 
C 738.160357 355.482801 738.611228 355.669558 739.081288 355.669558 
z
" style="stroke:#000000;stroke-width:0.886227;"/>
    <path clip-path="url(#pe58802f971)" d="M 817.072831 346.338921 
C 817.542892 346.338921 817.993763 346.152165 818.326145 345.819782 
C 818.658528 345.487399 818.845285 345.036528 818.845285 344.566468 
C 818.845285 344.096407 818.658528 343.645536 818.326145 343.313153 
C 817.993763 342.980771 817.542892 342.794014 817.072831 342.794014 
C 816.602771 342.794014 816.1519 342.980771 815.819517 343.313153 
C 815.487134 343.645536 815.300377 344.096407 815.300377 344.566468 
C 815.300377 345.036528 815.487134 345.487399 815.819517 345.819782 
C 816.1519 346.152165 816.602771 346.338921 817.072831 346.338921 
z
" style="stroke:#000000;stroke-width:0.886227;"/>
   </g>
   <g id="patch_9">
    <path d="M 470.23985 253.674082 
L 833.588688 253.674082 
L 833.588688 238.63 
L 470.23985 238.63 
z
" style="fill:#d9d9d9;"/>
   </g>
   <g id="PolyCollection_4">
    <path clip-path="url(#pe58802f971)" d="M 486.755707 331.124517 
L 486.755707 447.706281 
L 491.998835 408.971687 
L 502.485093 454.370498 
L 512.971351 397.37312 
L 523.457609 400.997224 
L 544.430125 419.583729 
L 565.402641 456.123628 
L 607.347673 435.30076 
L 649.292704 369.891594 
L 739.081288 420.794135 
L 817.072831 417.981279 
L 817.072831 271.151657 
L 817.072831 271.151657 
L 739.081288 287.000073 
L 649.292704 263.314537 
L 607.347673 297.293243 
L 565.402641 331.392651 
L 544.430125 312.984687 
L 523.457609 273.440181 
L 512.971351 297.13296 
L 502.485093 369.432983 
L 491.998835 315.888591 
L 486.755707 331.124517 
z
" style="fill:#333333;fill-opacity:0.501961;"/>
   </g>
   <g id="text_37">
    <!-- F1 score: &gt;50K -->
    <g style="fill:#1a1a1a;" transform="translate(618.312706 248.580291)scale(0.088 -0.088)">
     <defs>
      <path d="M 678 3150 
L 678 3719 
L 4684 2266 
L 4684 1747 
L 678 294 
L 678 863 
L 3897 2003 
L 678 3150 
z
" id="DejaVuSans-3e" transform="scale(0.015625)"/>
     </defs>
     <use xlink:href="#DejaVuSans-46"/>
     <use x="57.519531" xlink:href="#DejaVuSans-31"/>
     <use x="121.142578" xlink:href="#DejaVuSans-20"/>
     <use x="152.929688" xlink:href="#DejaVuSans-73"/>
     <use x="205.029297" xlink:href="#DejaVuSans-63"/>
     <use x="260.009766" xlink:href="#DejaVuSans-6f"/>
     <use x="321.191406" xlink:href="#DejaVuSans-72"/>
     <use x="360.054688" xlink:href="#DejaVuSans-65"/>
     <use x="421.578125" xlink:href="#DejaVuSans-3a"/>
     <use x="455.269531" xlink:href="#DejaVuSans-20"/>
     <use x="487.056641" xlink:href="#DejaVuSans-3e"/>
     <use x="570.845703" xlink:href="#DejaVuSans-35"/>
     <use x="634.46875" xlink:href="#DejaVuSans-30"/>
     <use x="698.091797" xlink:href="#DejaVuSans-4b"/>
    </g>
   </g>
  </g>
 </g>
 <defs>
  <clipPath id="p98dc2de1be">
   <rect height="212.09" width="363.348837" x="52.388688" y="22.244082"/>
  </clipPath>
  <clipPath id="pc6ceacbdb1">
   <rect height="212.09" width="363.348837" x="470.23985" y="22.244082"/>
  </clipPath>
  <clipPath id="p38b4b7e4e8">
   <rect height="212.09" width="363.348837" x="52.388688" y="253.674082"/>
  </clipPath>
  <clipPath id="pe58802f971">
   <rect height="212.09" width="363.348837" x="470.23985" y="253.674082"/>
  </clipPath>
 </defs>
</svg>
