<?xml version="1.0" encoding="utf-8" standalone="no"?>
<!DOCTYPE svg PUBLIC "-//W3C//DTD SVG 1.1//EN"
  "http://www.w3.org/Graphics/SVG/1.1/DTD/svg11.dtd">
<svg height="501.47677pt" version="1.1" viewBox="0 0 840.788688 501.47677" width="840.788688pt" xmlns="http://www.w3.org/2000/svg" xmlns:xlink="http://www.w3.org/1999/xlink">
 <metadata>
  <rdf:RDF xmlns:cc="http://creativecommons.org/ns#" xmlns:dc="http://purl.org/dc/elements/1.1/" xmlns:rdf="http://www.w3.org/1999/02/22-rdf-syntax-ns#">
   <cc:Work>
    <dc:type rdf:resource="http://purl.org/dc/dcmitype/StillImage"/>
    <dc:date>2022-05-07T15:02:15.955184</dc:date>
    <dc:format>image/svg+xml</dc:format>
    <dc:creator>
     <cc:Agent>
      <dc:title>Matplotlib v3.4.3, https://matplotlib.org/</dc:title>
     </cc:Agent>
    </dc:creator>
   </cc:Work>
  </rdf:RDF>
 </metadata>
 <defs>
  <style type="text/css">*{stroke-linecap:butt;stroke-linejoin:round;}</style>
 </defs>
 <g id="figure_1">
  <g id="patch_1">
   <path d="M 0 501.47677 
L 840.788688 501.47677 
L 840.788688 0 
L 0 0 
z
" style="fill:#ffffff;stroke:#ffffff;stroke-linejoin:miter;"/>
  </g>
  <g id="axes_1">
   <g id="patch_2">
    <path d="M 52.388688 234.334082 
L 415.737525 234.334082 
L 415.737525 22.244082 
L 52.388688 22.244082 
z
" style="fill:#ebebeb;"/>
   </g>
   <g id="matplotlib.axis_1">
    <g id="xtick_1">
     <g id="line2d_1">
      <path clip-path="url(#p648e2abbc0)" d="M 65.568007 234.334082 
L 65.568007 22.244082 
" style="fill:none;stroke:#ffffff;"/>
     </g>
    </g>
    <g id="xtick_2">
     <g id="line2d_2">
      <path clip-path="url(#p648e2abbc0)" d="M 132.298739 234.334082 
L 132.298739 22.244082 
" style="fill:none;stroke:#ffffff;"/>
     </g>
    </g>
    <g id="xtick_3">
     <g id="line2d_3">
      <path clip-path="url(#p648e2abbc0)" d="M 199.029472 234.334082 
L 199.029472 22.244082 
" style="fill:none;stroke:#ffffff;"/>
     </g>
    </g>
    <g id="xtick_4">
     <g id="line2d_4">
      <path clip-path="url(#p648e2abbc0)" d="M 265.760204 234.334082 
L 265.760204 22.244082 
" style="fill:none;stroke:#ffffff;"/>
     </g>
    </g>
    <g id="xtick_5">
     <g id="line2d_5">
      <path clip-path="url(#p648e2abbc0)" d="M 332.490936 234.334082 
L 332.490936 22.244082 
" style="fill:none;stroke:#ffffff;"/>
     </g>
    </g>
    <g id="xtick_6">
     <g id="line2d_6">
      <path clip-path="url(#p648e2abbc0)" d="M 399.221668 234.334082 
L 399.221668 22.244082 
" style="fill:none;stroke:#ffffff;"/>
     </g>
    </g>
    <g id="xtick_7">
     <g id="line2d_7">
      <path clip-path="url(#p648e2abbc0)" d="M 98.933373 234.334082 
L 98.933373 22.244082 
" style="fill:none;stroke:#ffffff;stroke-width:0.5;"/>
     </g>
    </g>
    <g id="xtick_8">
     <g id="line2d_8">
      <path clip-path="url(#p648e2abbc0)" d="M 165.664106 234.334082 
L 165.664106 22.244082 
" style="fill:none;stroke:#ffffff;stroke-width:0.5;"/>
     </g>
    </g>
    <g id="xtick_9">
     <g id="line2d_9">
      <path clip-path="url(#p648e2abbc0)" d="M 232.394838 234.334082 
L 232.394838 22.244082 
" style="fill:none;stroke:#ffffff;stroke-width:0.5;"/>
     </g>
    </g>
    <g id="xtick_10">
     <g id="line2d_10">
      <path clip-path="url(#p648e2abbc0)" d="M 299.12557 234.334082 
L 299.12557 22.244082 
" style="fill:none;stroke:#ffffff;stroke-width:0.5;"/>
     </g>
    </g>
    <g id="xtick_11">
     <g id="line2d_11">
      <path clip-path="url(#p648e2abbc0)" d="M 365.856302 234.334082 
L 365.856302 22.244082 
" style="fill:none;stroke:#ffffff;stroke-width:0.5;"/>
     </g>
    </g>
   </g>
   <g id="matplotlib.axis_2">
    <g id="ytick_1">
     <g id="line2d_12">
      <path clip-path="url(#p648e2abbc0)" d="M 52.388688 186.844378 
L 415.737525 186.844378 
" style="fill:none;stroke:#ffffff;"/>
     </g>
     <g id="line2d_13">
      <path d="M 52.388688 186.844378 
" style="fill:none;stroke:#333333;stroke-width:1.5;"/>
      <defs>
       <path d="M 0 0 
L -2.75 0 
" id="m0701951a4c" style="stroke:#000000;"/>
      </defs>
      <g>
       <use style="fill:#333333;stroke:#000000;" x="52.388688" xlink:href="#m0701951a4c" y="186.844378"/>
      </g>
     </g>
     <g id="text_1">
      <!-- 0.829 -->
      <g style="fill:#4d4d4d;" transform="translate(22.245938 189.272628)scale(0.088 -0.088)">
       <defs>
        <path d="M 2034 4250 
Q 1547 4250 1301 3770 
Q 1056 3291 1056 2328 
Q 1056 1369 1301 889 
Q 1547 409 2034 409 
Q 2525 409 2770 889 
Q 3016 1369 3016 2328 
Q 3016 3291 2770 3770 
Q 2525 4250 2034 4250 
z
M 2034 4750 
Q 2819 4750 3233 4129 
Q 3647 3509 3647 2328 
Q 3647 1150 3233 529 
Q 2819 -91 2034 -91 
Q 1250 -91 836 529 
Q 422 1150 422 2328 
Q 422 3509 836 4129 
Q 1250 4750 2034 4750 
z
" id="DejaVuSans-30" transform="scale(0.015625)"/>
        <path d="M 684 794 
L 1344 794 
L 1344 0 
L 684 0 
L 684 794 
z
" id="DejaVuSans-2e" transform="scale(0.015625)"/>
        <path d="M 2034 2216 
Q 1584 2216 1326 1975 
Q 1069 1734 1069 1313 
Q 1069 891 1326 650 
Q 1584 409 2034 409 
Q 2484 409 2743 651 
Q 3003 894 3003 1313 
Q 3003 1734 2745 1975 
Q 2488 2216 2034 2216 
z
M 1403 2484 
Q 997 2584 770 2862 
Q 544 3141 544 3541 
Q 544 4100 942 4425 
Q 1341 4750 2034 4750 
Q 2731 4750 3128 4425 
Q 3525 4100 3525 3541 
Q 3525 3141 3298 2862 
Q 3072 2584 2669 2484 
Q 3125 2378 3379 2068 
Q 3634 1759 3634 1313 
Q 3634 634 3220 271 
Q 2806 -91 2034 -91 
Q 1263 -91 848 271 
Q 434 634 434 1313 
Q 434 1759 690 2068 
Q 947 2378 1403 2484 
z
M 1172 3481 
Q 1172 3119 1398 2916 
Q 1625 2713 2034 2713 
Q 2441 2713 2670 2916 
Q 2900 3119 2900 3481 
Q 2900 3844 2670 4047 
Q 2441 4250 2034 4250 
Q 1625 4250 1398 4047 
Q 1172 3844 1172 3481 
z
" id="DejaVuSans-38" transform="scale(0.015625)"/>
        <path d="M 1228 531 
L 3431 531 
L 3431 0 
L 469 0 
L 469 531 
Q 828 903 1448 1529 
Q 2069 2156 2228 2338 
Q 2531 2678 2651 2914 
Q 2772 3150 2772 3378 
Q 2772 3750 2511 3984 
Q 2250 4219 1831 4219 
Q 1534 4219 1204 4116 
Q 875 4013 500 3803 
L 500 4441 
Q 881 4594 1212 4672 
Q 1544 4750 1819 4750 
Q 2544 4750 2975 4387 
Q 3406 4025 3406 3419 
Q 3406 3131 3298 2873 
Q 3191 2616 2906 2266 
Q 2828 2175 2409 1742 
Q 1991 1309 1228 531 
z
" id="DejaVuSans-32" transform="scale(0.015625)"/>
        <path d="M 703 97 
L 703 672 
Q 941 559 1184 500 
Q 1428 441 1663 441 
Q 2288 441 2617 861 
Q 2947 1281 2994 2138 
Q 2813 1869 2534 1725 
Q 2256 1581 1919 1581 
Q 1219 1581 811 2004 
Q 403 2428 403 3163 
Q 403 3881 828 4315 
Q 1253 4750 1959 4750 
Q 2769 4750 3195 4129 
Q 3622 3509 3622 2328 
Q 3622 1225 3098 567 
Q 2575 -91 1691 -91 
Q 1453 -91 1209 -44 
Q 966 3 703 97 
z
M 1959 2075 
Q 2384 2075 2632 2365 
Q 2881 2656 2881 3163 
Q 2881 3666 2632 3958 
Q 2384 4250 1959 4250 
Q 1534 4250 1286 3958 
Q 1038 3666 1038 3163 
Q 1038 2656 1286 2365 
Q 1534 2075 1959 2075 
z
" id="DejaVuSans-39" transform="scale(0.015625)"/>
       </defs>
       <use xlink:href="#DejaVuSans-30"/>
       <use x="63.623047" xlink:href="#DejaVuSans-2e"/>
       <use x="95.410156" xlink:href="#DejaVuSans-38"/>
       <use x="159.033203" xlink:href="#DejaVuSans-32"/>
       <use x="222.65625" xlink:href="#DejaVuSans-39"/>
      </g>
     </g>
    </g>
    <g id="ytick_2">
     <g id="line2d_14">
      <path clip-path="url(#p648e2abbc0)" d="M 52.388688 132.751531 
L 415.737525 132.751531 
" style="fill:none;stroke:#ffffff;"/>
     </g>
     <g id="line2d_15">
      <path d="M 52.388688 132.751531 
" style="fill:none;stroke:#333333;stroke-width:1.5;"/>
      <g>
       <use style="fill:#333333;stroke:#000000;" x="52.388688" xlink:href="#m0701951a4c" y="132.751531"/>
      </g>
     </g>
     <g id="text_2">
      <!-- 0.831 -->
      <g style="fill:#4d4d4d;" transform="translate(22.245938 135.179781)scale(0.088 -0.088)">
       <defs>
        <path d="M 2597 2516 
Q 3050 2419 3304 2112 
Q 3559 1806 3559 1356 
Q 3559 666 3084 287 
Q 2609 -91 1734 -91 
Q 1441 -91 1130 -33 
Q 819 25 488 141 
L 488 750 
Q 750 597 1062 519 
Q 1375 441 1716 441 
Q 2309 441 2620 675 
Q 2931 909 2931 1356 
Q 2931 1769 2642 2001 
Q 2353 2234 1838 2234 
L 1294 2234 
L 1294 2753 
L 1863 2753 
Q 2328 2753 2575 2939 
Q 2822 3125 2822 3475 
Q 2822 3834 2567 4026 
Q 2313 4219 1838 4219 
Q 1578 4219 1281 4162 
Q 984 4106 628 3988 
L 628 4550 
Q 988 4650 1302 4700 
Q 1616 4750 1894 4750 
Q 2613 4750 3031 4423 
Q 3450 4097 3450 3541 
Q 3450 3153 3228 2886 
Q 3006 2619 2597 2516 
z
" id="DejaVuSans-33" transform="scale(0.015625)"/>
        <path d="M 794 531 
L 1825 531 
L 1825 4091 
L 703 3866 
L 703 4441 
L 1819 4666 
L 2450 4666 
L 2450 531 
L 3481 531 
L 3481 0 
L 794 0 
L 794 531 
z
" id="DejaVuSans-31" transform="scale(0.015625)"/>
       </defs>
       <use xlink:href="#DejaVuSans-30"/>
       <use x="63.623047" xlink:href="#DejaVuSans-2e"/>
       <use x="95.410156" xlink:href="#DejaVuSans-38"/>
       <use x="159.033203" xlink:href="#DejaVuSans-33"/>
       <use x="222.65625" xlink:href="#DejaVuSans-31"/>
      </g>
     </g>
    </g>
    <g id="ytick_3">
     <g id="line2d_16">
      <path clip-path="url(#p648e2abbc0)" d="M 52.388688 78.658683 
L 415.737525 78.658683 
" style="fill:none;stroke:#ffffff;"/>
     </g>
     <g id="line2d_17">
      <path d="M 52.388688 78.658683 
" style="fill:none;stroke:#333333;stroke-width:1.5;"/>
      <g>
       <use style="fill:#333333;stroke:#000000;" x="52.388688" xlink:href="#m0701951a4c" y="78.658683"/>
      </g>
     </g>
     <g id="text_3">
      <!-- 0.833 -->
      <g style="fill:#4d4d4d;" transform="translate(22.245938 81.086933)scale(0.088 -0.088)">
       <use xlink:href="#DejaVuSans-30"/>
       <use x="63.623047" xlink:href="#DejaVuSans-2e"/>
       <use x="95.410156" xlink:href="#DejaVuSans-38"/>
       <use x="159.033203" xlink:href="#DejaVuSans-33"/>
       <use x="222.65625" xlink:href="#DejaVuSans-33"/>
      </g>
     </g>
    </g>
    <g id="ytick_4">
     <g id="line2d_18">
      <path clip-path="url(#p648e2abbc0)" d="M 52.388688 24.565836 
L 415.737525 24.565836 
" style="fill:none;stroke:#ffffff;"/>
     </g>
     <g id="line2d_19">
      <path d="M 52.388688 24.565836 
" style="fill:none;stroke:#333333;stroke-width:1.5;"/>
      <g>
       <use style="fill:#333333;stroke:#000000;" x="52.388688" xlink:href="#m0701951a4c" y="24.565836"/>
      </g>
     </g>
     <g id="text_4">
      <!-- 0.835 -->
      <g style="fill:#4d4d4d;" transform="translate(22.245938 26.994086)scale(0.088 -0.088)">
       <defs>
        <path d="M 691 4666 
L 3169 4666 
L 3169 4134 
L 1269 4134 
L 1269 2991 
Q 1406 3038 1543 3061 
Q 1681 3084 1819 3084 
Q 2600 3084 3056 2656 
Q 3513 2228 3513 1497 
Q 3513 744 3044 326 
Q 2575 -91 1722 -91 
Q 1428 -91 1123 -41 
Q 819 9 494 109 
L 494 744 
Q 775 591 1075 516 
Q 1375 441 1709 441 
Q 2250 441 2565 725 
Q 2881 1009 2881 1497 
Q 2881 1984 2565 2268 
Q 2250 2553 1709 2553 
Q 1456 2553 1204 2497 
Q 953 2441 691 2322 
L 691 4666 
z
" id="DejaVuSans-35" transform="scale(0.015625)"/>
       </defs>
       <use xlink:href="#DejaVuSans-30"/>
       <use x="63.623047" xlink:href="#DejaVuSans-2e"/>
       <use x="95.410156" xlink:href="#DejaVuSans-38"/>
       <use x="159.033203" xlink:href="#DejaVuSans-33"/>
       <use x="222.65625" xlink:href="#DejaVuSans-35"/>
      </g>
     </g>
    </g>
    <g id="ytick_5">
     <g id="line2d_20">
      <path clip-path="url(#p648e2abbc0)" d="M 52.388688 213.890802 
L 415.737525 213.890802 
" style="fill:none;stroke:#ffffff;stroke-width:0.5;"/>
     </g>
    </g>
    <g id="ytick_6">
     <g id="line2d_21">
      <path clip-path="url(#p648e2abbc0)" d="M 52.388688 159.797954 
L 415.737525 159.797954 
" style="fill:none;stroke:#ffffff;stroke-width:0.5;"/>
     </g>
    </g>
    <g id="ytick_7">
     <g id="line2d_22">
      <path clip-path="url(#p648e2abbc0)" d="M 52.388688 105.705107 
L 415.737525 105.705107 
" style="fill:none;stroke:#ffffff;stroke-width:0.5;"/>
     </g>
    </g>
    <g id="ytick_8">
     <g id="line2d_23">
      <path clip-path="url(#p648e2abbc0)" d="M 52.388688 51.61226 
L 415.737525 51.61226 
" style="fill:none;stroke:#ffffff;stroke-width:0.5;"/>
     </g>
    </g>
    <g id="text_5">
     <!-- Value -->
     <g transform="translate(15.558281 256.228457)rotate(-90)scale(0.11 -0.11)">
      <defs>
       <path d="M 1831 0 
L 50 4666 
L 709 4666 
L 2188 738 
L 3669 4666 
L 4325 4666 
L 2547 0 
L 1831 0 
z
" id="DejaVuSans-56" transform="scale(0.015625)"/>
       <path d="M 2194 1759 
Q 1497 1759 1228 1600 
Q 959 1441 959 1056 
Q 959 750 1161 570 
Q 1363 391 1709 391 
Q 2188 391 2477 730 
Q 2766 1069 2766 1631 
L 2766 1759 
L 2194 1759 
z
M 3341 1997 
L 3341 0 
L 2766 0 
L 2766 531 
Q 2569 213 2275 61 
Q 1981 -91 1556 -91 
Q 1019 -91 701 211 
Q 384 513 384 1019 
Q 384 1609 779 1909 
Q 1175 2209 1959 2209 
L 2766 2209 
L 2766 2266 
Q 2766 2663 2505 2880 
Q 2244 3097 1772 3097 
Q 1472 3097 1187 3025 
Q 903 2953 641 2809 
L 641 3341 
Q 956 3463 1253 3523 
Q 1550 3584 1831 3584 
Q 2591 3584 2966 3190 
Q 3341 2797 3341 1997 
z
" id="DejaVuSans-61" transform="scale(0.015625)"/>
       <path d="M 603 4863 
L 1178 4863 
L 1178 0 
L 603 0 
L 603 4863 
z
" id="DejaVuSans-6c" transform="scale(0.015625)"/>
       <path d="M 544 1381 
L 544 3500 
L 1119 3500 
L 1119 1403 
Q 1119 906 1312 657 
Q 1506 409 1894 409 
Q 2359 409 2629 706 
Q 2900 1003 2900 1516 
L 2900 3500 
L 3475 3500 
L 3475 0 
L 2900 0 
L 2900 538 
Q 2691 219 2414 64 
Q 2138 -91 1772 -91 
Q 1169 -91 856 284 
Q 544 659 544 1381 
z
M 1991 3584 
L 1991 3584 
z
" id="DejaVuSans-75" transform="scale(0.015625)"/>
       <path d="M 3597 1894 
L 3597 1613 
L 953 1613 
Q 991 1019 1311 708 
Q 1631 397 2203 397 
Q 2534 397 2845 478 
Q 3156 559 3463 722 
L 3463 178 
Q 3153 47 2828 -22 
Q 2503 -91 2169 -91 
Q 1331 -91 842 396 
Q 353 884 353 1716 
Q 353 2575 817 3079 
Q 1281 3584 2069 3584 
Q 2775 3584 3186 3129 
Q 3597 2675 3597 1894 
z
M 3022 2063 
Q 3016 2534 2758 2815 
Q 2500 3097 2075 3097 
Q 1594 3097 1305 2825 
Q 1016 2553 972 2059 
L 3022 2063 
z
" id="DejaVuSans-65" transform="scale(0.015625)"/>
      </defs>
      <use xlink:href="#DejaVuSans-56"/>
      <use x="60.658203" xlink:href="#DejaVuSans-61"/>
      <use x="121.9375" xlink:href="#DejaVuSans-6c"/>
      <use x="149.720703" xlink:href="#DejaVuSans-75"/>
      <use x="213.099609" xlink:href="#DejaVuSans-65"/>
     </g>
    </g>
   </g>
   <g id="line2d_24">
    <path clip-path="url(#p648e2abbc0)" d="M 68.904544 142.198024 
L 72.24108 101.430838 
L 82.25069 100.1737 
L 98.933373 88.679868 
L 115.616056 144.891891 
L 132.298739 89.218642 
L 232.394838 78.802356 
L 399.221668 130.883783 
" style="fill:none;stroke:#000000;stroke-width:0.886227;"/>
   </g>
   <g id="PathCollection_1">
    <path clip-path="url(#p648e2abbc0)" d="M 68.904544 143.970478 
C 69.374604 143.970478 69.825475 143.783721 70.157858 143.451338 
C 70.490241 143.118955 70.676998 142.668084 70.676998 142.198024 
C 70.676998 141.727964 70.490241 141.277093 70.157858 140.94471 
C 69.825475 140.612327 69.374604 140.42557 68.904544 140.42557 
C 68.434483 140.42557 67.983612 140.612327 67.65123 140.94471 
C 67.318847 141.277093 67.13209 141.727964 67.13209 142.198024 
C 67.13209 142.668084 67.318847 143.118955 67.65123 143.451338 
C 67.983612 143.783721 68.434483 143.970478 68.904544 143.970478 
z
" style="stroke:#000000;stroke-width:0.886227;"/>
    <path clip-path="url(#p648e2abbc0)" d="M 72.24108 103.203292 
C 72.711141 103.203292 73.162012 103.016535 73.494394 102.684152 
C 73.826777 102.35177 74.013534 101.900899 74.013534 101.430838 
C 74.013534 100.960778 73.826777 100.509907 73.494394 100.177524 
C 73.162012 99.845141 72.711141 99.658384 72.24108 99.658384 
C 71.77102 99.658384 71.320149 99.845141 70.987766 100.177524 
C 70.655383 100.509907 70.468626 100.960778 70.468626 101.430838 
C 70.468626 101.900899 70.655383 102.35177 70.987766 102.684152 
C 71.320149 103.016535 71.77102 103.203292 72.24108 103.203292 
z
" style="stroke:#000000;stroke-width:0.886227;"/>
    <path clip-path="url(#p648e2abbc0)" d="M 82.25069 101.946154 
C 82.72075 101.946154 83.171622 101.759397 83.504004 101.427015 
C 83.836387 101.094632 84.023144 100.643761 84.023144 100.1737 
C 84.023144 99.70364 83.836387 99.252769 83.504004 98.920386 
C 83.171622 98.588003 82.72075 98.401247 82.25069 98.401247 
C 81.78063 98.401247 81.329759 98.588003 80.997376 98.920386 
C 80.664993 99.252769 80.478236 99.70364 80.478236 100.1737 
C 80.478236 100.643761 80.664993 101.094632 80.997376 101.427015 
C 81.329759 101.759397 81.78063 101.946154 82.25069 101.946154 
z
" style="stroke:#000000;stroke-width:0.886227;"/>
    <path clip-path="url(#p648e2abbc0)" d="M 98.933373 90.452322 
C 99.403434 90.452322 99.854305 90.265565 100.186687 89.933182 
C 100.51907 89.6008 100.705827 89.149929 100.705827 88.679868 
C 100.705827 88.209808 100.51907 87.758937 100.186687 87.426554 
C 99.854305 87.094171 99.403434 86.907414 98.933373 86.907414 
C 98.463313 86.907414 98.012442 87.094171 97.680059 87.426554 
C 97.347676 87.758937 97.160919 88.209808 97.160919 88.679868 
C 97.160919 89.149929 97.347676 89.6008 97.680059 89.933182 
C 98.012442 90.265565 98.463313 90.452322 98.933373 90.452322 
z
" style="stroke:#000000;stroke-width:0.886227;"/>
    <path clip-path="url(#p648e2abbc0)" d="M 115.616056 146.664345 
C 116.086117 146.664345 116.536988 146.477588 116.86937 146.145205 
C 117.201753 145.812822 117.38851 145.361951 117.38851 144.891891 
C 117.38851 144.421831 117.201753 143.97096 116.86937 143.638577 
C 116.536988 143.306194 116.086117 143.119437 115.616056 143.119437 
C 115.145996 143.119437 114.695125 143.306194 114.362742 143.638577 
C 114.030359 143.97096 113.843602 144.421831 113.843602 144.891891 
C 113.843602 145.361951 114.030359 145.812822 114.362742 146.145205 
C 114.695125 146.477588 115.145996 146.664345 115.616056 146.664345 
z
" style="stroke:#000000;stroke-width:0.886227;"/>
    <path clip-path="url(#p648e2abbc0)" d="M 132.298739 90.991096 
C 132.7688 90.991096 133.219671 90.804339 133.552054 90.471956 
C 133.884436 90.139573 134.071193 89.688702 134.071193 89.218642 
C 134.071193 88.748581 133.884436 88.29771 133.552054 87.965328 
C 133.219671 87.632945 132.7688 87.446188 132.298739 87.446188 
C 131.828679 87.446188 131.377808 87.632945 131.045425 87.965328 
C 130.713042 88.29771 130.526286 88.748581 130.526286 89.218642 
C 130.526286 89.688702 130.713042 90.139573 131.045425 90.471956 
C 131.377808 90.804339 131.828679 90.991096 132.298739 90.991096 
z
" style="stroke:#000000;stroke-width:0.886227;"/>
    <path clip-path="url(#p648e2abbc0)" d="M 232.394838 80.57481 
C 232.864898 80.57481 233.315769 80.388053 233.648152 80.055671 
C 233.980535 79.723288 234.167292 79.272417 234.167292 78.802356 
C 234.167292 78.332296 233.980535 77.881425 233.648152 77.549042 
C 233.315769 77.216659 232.864898 77.029903 232.394838 77.029903 
C 231.924778 77.029903 231.473906 77.216659 231.141524 77.549042 
C 230.809141 77.881425 230.622384 78.332296 230.622384 78.802356 
C 230.622384 79.272417 230.809141 79.723288 231.141524 80.055671 
C 231.473906 80.388053 231.924778 80.57481 232.394838 80.57481 
z
" style="stroke:#000000;stroke-width:0.886227;"/>
    <path clip-path="url(#p648e2abbc0)" d="M 399.221668 132.656237 
C 399.691729 132.656237 400.1426 132.46948 400.474983 132.137097 
C 400.807365 131.804714 400.994122 131.353843 400.994122 130.883783 
C 400.994122 130.413723 400.807365 129.962852 400.474983 129.630469 
C 400.1426 129.298086 399.691729 129.111329 399.221668 129.111329 
C 398.751608 129.111329 398.300737 129.298086 397.968354 129.630469 
C 397.635972 129.962852 397.449215 130.413723 397.449215 130.883783 
C 397.449215 131.353843 397.635972 131.804714 397.968354 132.137097 
C 398.300737 132.46948 398.751608 132.656237 399.221668 132.656237 
z
" style="stroke:#000000;stroke-width:0.886227;"/>
   </g>
   <g id="patch_3">
    <path d="M 52.388688 22.244082 
L 415.737525 22.244082 
L 415.737525 7.2 
L 52.388688 7.2 
z
" style="fill:#d9d9d9;"/>
   </g>
   <g id="PolyCollection_1">
    <path clip-path="url(#p648e2abbc0)" d="M 68.904544 88.379384 
L 68.904544 196.016664 
L 72.24108 170.97714 
L 82.25069 154.97107 
L 98.933373 141.634589 
L 115.616056 224.693628 
L 132.298739 135.043949 
L 232.394838 114.823251 
L 399.221668 218.337286 
L 399.221668 43.43028 
L 399.221668 43.43028 
L 232.394838 42.781462 
L 132.298739 43.393334 
L 115.616056 65.090154 
L 98.933373 35.725147 
L 82.25069 45.37633 
L 72.24108 31.884537 
L 68.904544 88.379384 
z
" style="fill:#333333;fill-opacity:0.501961;"/>
   </g>
   <g id="text_6">
    <!-- Accuracy -->
    <g style="fill:#1a1a1a;" transform="translate(213.974356 17.150291)scale(0.088 -0.088)">
     <defs>
      <path d="M 2188 4044 
L 1331 1722 
L 3047 1722 
L 2188 4044 
z
M 1831 4666 
L 2547 4666 
L 4325 0 
L 3669 0 
L 3244 1197 
L 1141 1197 
L 716 0 
L 50 0 
L 1831 4666 
z
" id="DejaVuSans-41" transform="scale(0.015625)"/>
      <path d="M 3122 3366 
L 3122 2828 
Q 2878 2963 2633 3030 
Q 2388 3097 2138 3097 
Q 1578 3097 1268 2742 
Q 959 2388 959 1747 
Q 959 1106 1268 751 
Q 1578 397 2138 397 
Q 2388 397 2633 464 
Q 2878 531 3122 666 
L 3122 134 
Q 2881 22 2623 -34 
Q 2366 -91 2075 -91 
Q 1284 -91 818 406 
Q 353 903 353 1747 
Q 353 2603 823 3093 
Q 1294 3584 2113 3584 
Q 2378 3584 2631 3529 
Q 2884 3475 3122 3366 
z
" id="DejaVuSans-63" transform="scale(0.015625)"/>
      <path d="M 2631 2963 
Q 2534 3019 2420 3045 
Q 2306 3072 2169 3072 
Q 1681 3072 1420 2755 
Q 1159 2438 1159 1844 
L 1159 0 
L 581 0 
L 581 3500 
L 1159 3500 
L 1159 2956 
Q 1341 3275 1631 3429 
Q 1922 3584 2338 3584 
Q 2397 3584 2469 3576 
Q 2541 3569 2628 3553 
L 2631 2963 
z
" id="DejaVuSans-72" transform="scale(0.015625)"/>
      <path d="M 2059 -325 
Q 1816 -950 1584 -1140 
Q 1353 -1331 966 -1331 
L 506 -1331 
L 506 -850 
L 844 -850 
Q 1081 -850 1212 -737 
Q 1344 -625 1503 -206 
L 1606 56 
L 191 3500 
L 800 3500 
L 1894 763 
L 2988 3500 
L 3597 3500 
L 2059 -325 
z
" id="DejaVuSans-79" transform="scale(0.015625)"/>
     </defs>
     <use xlink:href="#DejaVuSans-41"/>
     <use x="66.658203" xlink:href="#DejaVuSans-63"/>
     <use x="121.638672" xlink:href="#DejaVuSans-63"/>
     <use x="176.619141" xlink:href="#DejaVuSans-75"/>
     <use x="239.998047" xlink:href="#DejaVuSans-72"/>
     <use x="281.111328" xlink:href="#DejaVuSans-61"/>
     <use x="342.390625" xlink:href="#DejaVuSans-63"/>
     <use x="397.371094" xlink:href="#DejaVuSans-79"/>
    </g>
   </g>
  </g>
  <g id="axes_2">
   <g id="patch_4">
    <path d="M 470.23985 234.334082 
L 833.588688 234.334082 
L 833.588688 22.244082 
L 470.23985 22.244082 
z
" style="fill:#ebebeb;"/>
   </g>
   <g id="matplotlib.axis_3">
    <g id="xtick_12">
     <g id="line2d_25">
      <path clip-path="url(#pb90736f6b1)" d="M 483.41917 234.334082 
L 483.41917 22.244082 
" style="fill:none;stroke:#ffffff;stroke-linecap:square;"/>
     </g>
    </g>
    <g id="xtick_13">
     <g id="line2d_26">
      <path clip-path="url(#pb90736f6b1)" d="M 550.149902 234.334082 
L 550.149902 22.244082 
" style="fill:none;stroke:#ffffff;stroke-linecap:square;"/>
     </g>
    </g>
    <g id="xtick_14">
     <g id="line2d_27">
      <path clip-path="url(#pb90736f6b1)" d="M 616.880634 234.334082 
L 616.880634 22.244082 
" style="fill:none;stroke:#ffffff;stroke-linecap:square;"/>
     </g>
    </g>
    <g id="xtick_15">
     <g id="line2d_28">
      <path clip-path="url(#pb90736f6b1)" d="M 683.611367 234.334082 
L 683.611367 22.244082 
" style="fill:none;stroke:#ffffff;stroke-linecap:square;"/>
     </g>
    </g>
    <g id="xtick_16">
     <g id="line2d_29">
      <path clip-path="url(#pb90736f6b1)" d="M 750.342099 234.334082 
L 750.342099 22.244082 
" style="fill:none;stroke:#ffffff;stroke-linecap:square;"/>
     </g>
    </g>
    <g id="xtick_17">
     <g id="line2d_30">
      <path clip-path="url(#pb90736f6b1)" d="M 817.072831 234.334082 
L 817.072831 22.244082 
" style="fill:none;stroke:#ffffff;stroke-linecap:square;"/>
     </g>
    </g>
    <g id="xtick_18">
     <g id="line2d_31">
      <path clip-path="url(#pb90736f6b1)" d="M 516.784536 234.334082 
L 516.784536 22.244082 
" style="fill:none;stroke:#ffffff;stroke-linecap:square;stroke-width:0.5;"/>
     </g>
    </g>
    <g id="xtick_19">
     <g id="line2d_32">
      <path clip-path="url(#pb90736f6b1)" d="M 583.515268 234.334082 
L 583.515268 22.244082 
" style="fill:none;stroke:#ffffff;stroke-linecap:square;stroke-width:0.5;"/>
     </g>
    </g>
    <g id="xtick_20">
     <g id="line2d_33">
      <path clip-path="url(#pb90736f6b1)" d="M 650.246001 234.334082 
L 650.246001 22.244082 
" style="fill:none;stroke:#ffffff;stroke-linecap:square;stroke-width:0.5;"/>
     </g>
    </g>
    <g id="xtick_21">
     <g id="line2d_34">
      <path clip-path="url(#pb90736f6b1)" d="M 716.976733 234.334082 
L 716.976733 22.244082 
" style="fill:none;stroke:#ffffff;stroke-linecap:square;stroke-width:0.5;"/>
     </g>
    </g>
    <g id="xtick_22">
     <g id="line2d_35">
      <path clip-path="url(#pb90736f6b1)" d="M 783.707465 234.334082 
L 783.707465 22.244082 
" style="fill:none;stroke:#ffffff;stroke-linecap:square;stroke-width:0.5;"/>
     </g>
    </g>
   </g>
   <g id="matplotlib.axis_4">
    <g id="ytick_9">
     <g id="line2d_36">
      <path clip-path="url(#pb90736f6b1)" d="M 470.23985 183.543886 
L 833.588688 183.543886 
" style="fill:none;stroke:#ffffff;stroke-linecap:square;"/>
     </g>
     <g id="line2d_37">
      <path d="M 470.23985 183.543886 
" style="fill:none;stroke:#333333;stroke-linecap:square;stroke-width:1.5;"/>
      <g>
       <use style="fill:#333333;stroke:#000000;" x="470.23985" xlink:href="#m0701951a4c" y="183.543886"/>
      </g>
     </g>
     <g id="text_7">
      <!-- 0.8775 -->
      <g style="fill:#4d4d4d;" transform="translate(434.4981 185.972136)scale(0.088 -0.088)">
       <defs>
        <path d="M 525 4666 
L 3525 4666 
L 3525 4397 
L 1831 0 
L 1172 0 
L 2766 4134 
L 525 4134 
L 525 4666 
z
" id="DejaVuSans-37" transform="scale(0.015625)"/>
       </defs>
       <use xlink:href="#DejaVuSans-30"/>
       <use x="63.623047" xlink:href="#DejaVuSans-2e"/>
       <use x="95.410156" xlink:href="#DejaVuSans-38"/>
       <use x="159.033203" xlink:href="#DejaVuSans-37"/>
       <use x="222.65625" xlink:href="#DejaVuSans-37"/>
       <use x="286.279297" xlink:href="#DejaVuSans-35"/>
      </g>
     </g>
    </g>
    <g id="ytick_10">
     <g id="line2d_38">
      <path clip-path="url(#pb90736f6b1)" d="M 470.23985 130.522995 
L 833.588688 130.522995 
" style="fill:none;stroke:#ffffff;stroke-linecap:square;"/>
     </g>
     <g id="line2d_39">
      <path d="M 470.23985 130.522995 
" style="fill:none;stroke:#333333;stroke-linecap:square;stroke-width:1.5;"/>
      <g>
       <use style="fill:#333333;stroke:#000000;" x="470.23985" xlink:href="#m0701951a4c" y="130.522995"/>
      </g>
     </g>
     <g id="text_8">
      <!-- 0.8800 -->
      <g style="fill:#4d4d4d;" transform="translate(434.4981 132.951245)scale(0.088 -0.088)">
       <use xlink:href="#DejaVuSans-30"/>
       <use x="63.623047" xlink:href="#DejaVuSans-2e"/>
       <use x="95.410156" xlink:href="#DejaVuSans-38"/>
       <use x="159.033203" xlink:href="#DejaVuSans-38"/>
       <use x="222.65625" xlink:href="#DejaVuSans-30"/>
       <use x="286.279297" xlink:href="#DejaVuSans-30"/>
      </g>
     </g>
    </g>
    <g id="ytick_11">
     <g id="line2d_40">
      <path clip-path="url(#pb90736f6b1)" d="M 470.23985 77.502104 
L 833.588688 77.502104 
" style="fill:none;stroke:#ffffff;stroke-linecap:square;"/>
     </g>
     <g id="line2d_41">
      <path d="M 470.23985 77.502104 
" style="fill:none;stroke:#333333;stroke-linecap:square;stroke-width:1.5;"/>
      <g>
       <use style="fill:#333333;stroke:#000000;" x="470.23985" xlink:href="#m0701951a4c" y="77.502104"/>
      </g>
     </g>
     <g id="text_9">
      <!-- 0.8825 -->
      <g style="fill:#4d4d4d;" transform="translate(434.4981 79.930354)scale(0.088 -0.088)">
       <use xlink:href="#DejaVuSans-30"/>
       <use x="63.623047" xlink:href="#DejaVuSans-2e"/>
       <use x="95.410156" xlink:href="#DejaVuSans-38"/>
       <use x="159.033203" xlink:href="#DejaVuSans-38"/>
       <use x="222.65625" xlink:href="#DejaVuSans-32"/>
       <use x="286.279297" xlink:href="#DejaVuSans-35"/>
      </g>
     </g>
    </g>
    <g id="ytick_12">
     <g id="line2d_42">
      <path clip-path="url(#pb90736f6b1)" d="M 470.23985 24.481213 
L 833.588688 24.481213 
" style="fill:none;stroke:#ffffff;stroke-linecap:square;"/>
     </g>
     <g id="line2d_43">
      <path d="M 470.23985 24.481213 
" style="fill:none;stroke:#333333;stroke-linecap:square;stroke-width:1.5;"/>
      <g>
       <use style="fill:#333333;stroke:#000000;" x="470.23985" xlink:href="#m0701951a4c" y="24.481213"/>
      </g>
     </g>
     <g id="text_10">
      <!-- 0.8850 -->
      <g style="fill:#4d4d4d;" transform="translate(434.4981 26.909463)scale(0.088 -0.088)">
       <use xlink:href="#DejaVuSans-30"/>
       <use x="63.623047" xlink:href="#DejaVuSans-2e"/>
       <use x="95.410156" xlink:href="#DejaVuSans-38"/>
       <use x="159.033203" xlink:href="#DejaVuSans-38"/>
       <use x="222.65625" xlink:href="#DejaVuSans-35"/>
       <use x="286.279297" xlink:href="#DejaVuSans-30"/>
      </g>
     </g>
    </g>
    <g id="ytick_13">
     <g id="line2d_44">
      <path clip-path="url(#pb90736f6b1)" d="M 470.23985 210.054331 
L 833.588688 210.054331 
" style="fill:none;stroke:#ffffff;stroke-linecap:square;stroke-width:0.5;"/>
     </g>
    </g>
    <g id="ytick_14">
     <g id="line2d_45">
      <path clip-path="url(#pb90736f6b1)" d="M 470.23985 157.03344 
L 833.588688 157.03344 
" style="fill:none;stroke:#ffffff;stroke-linecap:square;stroke-width:0.5;"/>
     </g>
    </g>
    <g id="ytick_15">
     <g id="line2d_46">
      <path clip-path="url(#pb90736f6b1)" d="M 470.23985 104.01255 
L 833.588688 104.01255 
" style="fill:none;stroke:#ffffff;stroke-linecap:square;stroke-width:0.5;"/>
     </g>
    </g>
    <g id="ytick_16">
     <g id="line2d_47">
      <path clip-path="url(#pb90736f6b1)" d="M 470.23985 50.991659 
L 833.588688 50.991659 
" style="fill:none;stroke:#ffffff;stroke-linecap:square;stroke-width:0.5;"/>
     </g>
    </g>
   </g>
   <g id="line2d_48">
    <path clip-path="url(#pb90736f6b1)" d="M 486.755707 143.783566 
L 490.092243 103.833879 
L 500.101853 122.353095 
L 516.784536 124.738758 
L 533.467219 153.799358 
L 550.149902 147.26701 
L 650.246001 88.388013 
L 817.072831 162.030563 
" style="fill:none;stroke:#000000;stroke-width:0.886227;"/>
   </g>
   <g id="PathCollection_2">
    <path clip-path="url(#pb90736f6b1)" d="M 486.755707 145.55602 
C 487.225767 145.55602 487.676638 145.369263 488.009021 145.03688 
C 488.341403 144.704497 488.52816 144.253626 488.52816 143.783566 
C 488.52816 143.313506 488.341403 142.862635 488.009021 142.530252 
C 487.676638 142.197869 487.225767 142.011112 486.755707 142.011112 
C 486.285646 142.011112 485.834775 142.197869 485.502392 142.530252 
C 485.17001 142.862635 484.983253 143.313506 484.983253 143.783566 
C 484.983253 144.253626 485.17001 144.704497 485.502392 145.03688 
C 485.834775 145.369263 486.285646 145.55602 486.755707 145.55602 
z
" style="stroke:#000000;stroke-width:0.886227;"/>
    <path clip-path="url(#pb90736f6b1)" d="M 490.092243 105.606333 
C 490.562303 105.606333 491.013174 105.419576 491.345557 105.087193 
C 491.67794 104.75481 491.864697 104.303939 491.864697 103.833879 
C 491.864697 103.363819 491.67794 102.912948 491.345557 102.580565 
C 491.013174 102.248182 490.562303 102.061425 490.092243 102.061425 
C 489.622183 102.061425 489.171312 102.248182 488.838929 102.580565 
C 488.506546 102.912948 488.319789 103.363819 488.319789 103.833879 
C 488.319789 104.303939 488.506546 104.75481 488.838929 105.087193 
C 489.171312 105.419576 489.622183 105.606333 490.092243 105.606333 
z
" style="stroke:#000000;stroke-width:0.886227;"/>
    <path clip-path="url(#pb90736f6b1)" d="M 500.101853 124.125549 
C 500.571913 124.125549 501.022784 123.938792 501.355167 123.606409 
C 501.68755 123.274027 501.874307 122.823156 501.874307 122.353095 
C 501.874307 121.883035 501.68755 121.432164 501.355167 121.099781 
C 501.022784 120.767398 500.571913 120.580641 500.101853 120.580641 
C 499.631793 120.580641 499.180922 120.767398 498.848539 121.099781 
C 498.516156 121.432164 498.329399 121.883035 498.329399 122.353095 
C 498.329399 122.823156 498.516156 123.274027 498.848539 123.606409 
C 499.180922 123.938792 499.631793 124.125549 500.101853 124.125549 
z
" style="stroke:#000000;stroke-width:0.886227;"/>
    <path clip-path="url(#pb90736f6b1)" d="M 516.784536 126.511212 
C 517.254596 126.511212 517.705467 126.324455 518.03785 125.992072 
C 518.370233 125.659689 518.55699 125.208818 518.55699 124.738758 
C 518.55699 124.268698 518.370233 123.817826 518.03785 123.485444 
C 517.705467 123.153061 517.254596 122.966304 516.784536 122.966304 
C 516.314476 122.966304 515.863605 123.153061 515.531222 123.485444 
C 515.198839 123.817826 515.012082 124.268698 515.012082 124.738758 
C 515.012082 125.208818 515.198839 125.659689 515.531222 125.992072 
C 515.863605 126.324455 516.314476 126.511212 516.784536 126.511212 
z
" style="stroke:#000000;stroke-width:0.886227;"/>
    <path clip-path="url(#pb90736f6b1)" d="M 533.467219 155.571812 
C 533.937279 155.571812 534.38815 155.385055 534.720533 155.052672 
C 535.052916 154.720289 535.239673 154.269418 535.239673 153.799358 
C 535.239673 153.329297 535.052916 152.878426 534.720533 152.546044 
C 534.38815 152.213661 533.937279 152.026904 533.467219 152.026904 
C 532.997159 152.026904 532.546288 152.213661 532.213905 152.546044 
C 531.881522 152.878426 531.694765 153.329297 531.694765 153.799358 
C 531.694765 154.269418 531.881522 154.720289 532.213905 155.052672 
C 532.546288 155.385055 532.997159 155.571812 533.467219 155.571812 
z
" style="stroke:#000000;stroke-width:0.886227;"/>
    <path clip-path="url(#pb90736f6b1)" d="M 550.149902 149.039464 
C 550.619962 149.039464 551.070834 148.852707 551.403216 148.520325 
C 551.735599 148.187942 551.922356 147.737071 551.922356 147.26701 
C 551.922356 146.79695 551.735599 146.346079 551.403216 146.013696 
C 551.070834 145.681313 550.619962 145.494557 550.149902 145.494557 
C 549.679842 145.494557 549.228971 145.681313 548.896588 146.013696 
C 548.564205 146.346079 548.377448 146.79695 548.377448 147.26701 
C 548.377448 147.737071 548.564205 148.187942 548.896588 148.520325 
C 549.228971 148.852707 549.679842 149.039464 550.149902 149.039464 
z
" style="stroke:#000000;stroke-width:0.886227;"/>
    <path clip-path="url(#pb90736f6b1)" d="M 650.246001 90.160466 
C 650.716061 90.160466 651.166932 89.97371 651.499315 89.641327 
C 651.831698 89.308944 652.018454 88.858073 652.018454 88.388013 
C 652.018454 87.917952 651.831698 87.467081 651.499315 87.134698 
C 651.166932 86.802316 650.716061 86.615559 650.246001 86.615559 
C 649.77594 86.615559 649.325069 86.802316 648.992686 87.134698 
C 648.660304 87.467081 648.473547 87.917952 648.473547 88.388013 
C 648.473547 88.858073 648.660304 89.308944 648.992686 89.641327 
C 649.325069 89.97371 649.77594 90.160466 650.246001 90.160466 
z
" style="stroke:#000000;stroke-width:0.886227;"/>
    <path clip-path="url(#pb90736f6b1)" d="M 817.072831 163.803017 
C 817.542892 163.803017 817.993763 163.61626 818.326145 163.283878 
C 818.658528 162.951495 818.845285 162.500624 818.845285 162.030563 
C 818.845285 161.560503 818.658528 161.109632 818.326145 160.777249 
C 817.993763 160.444866 817.542892 160.25811 817.072831 160.25811 
C 816.602771 160.25811 816.1519 160.444866 815.819517 160.777249 
C 815.487134 161.109632 815.300377 161.560503 815.300377 162.030563 
C 815.300377 162.500624 815.487134 162.951495 815.819517 163.283878 
C 816.1519 163.61626 816.602771 163.803017 817.072831 163.803017 
z
" style="stroke:#000000;stroke-width:0.886227;"/>
   </g>
   <g id="patch_5">
    <path d="M 470.23985 22.244082 
L 833.588688 22.244082 
L 833.588688 7.2 
L 470.23985 7.2 
z
" style="fill:#d9d9d9;"/>
   </g>
   <g id="PolyCollection_2">
    <path clip-path="url(#pb90736f6b1)" d="M 486.755707 91.491079 
L 486.755707 196.076053 
L 490.092243 151.091938 
L 500.101853 153.606424 
L 516.784536 170.4328 
L 533.467219 224.693628 
L 550.149902 204.174725 
L 650.246001 144.891488 
L 817.072831 218.542971 
L 817.072831 105.518156 
L 817.072831 105.518156 
L 650.246001 31.884537 
L 550.149902 90.359296 
L 533.467219 82.905088 
L 516.784536 79.044716 
L 500.101853 91.099767 
L 490.092243 56.57582 
L 486.755707 91.491079 
z
" style="fill:#333333;fill-opacity:0.501961;"/>
   </g>
   <g id="text_11">
    <!-- AUC -->
    <g style="fill:#1a1a1a;" transform="translate(642.611706 17.150291)scale(0.088 -0.088)">
     <defs>
      <path d="M 556 4666 
L 1191 4666 
L 1191 1831 
Q 1191 1081 1462 751 
Q 1734 422 2344 422 
Q 2950 422 3222 751 
Q 3494 1081 3494 1831 
L 3494 4666 
L 4128 4666 
L 4128 1753 
Q 4128 841 3676 375 
Q 3225 -91 2344 -91 
Q 1459 -91 1007 375 
Q 556 841 556 1753 
L 556 4666 
z
" id="DejaVuSans-55" transform="scale(0.015625)"/>
      <path d="M 4122 4306 
L 4122 3641 
Q 3803 3938 3442 4084 
Q 3081 4231 2675 4231 
Q 1875 4231 1450 3742 
Q 1025 3253 1025 2328 
Q 1025 1406 1450 917 
Q 1875 428 2675 428 
Q 3081 428 3442 575 
Q 3803 722 4122 1019 
L 4122 359 
Q 3791 134 3420 21 
Q 3050 -91 2638 -91 
Q 1578 -91 968 557 
Q 359 1206 359 2328 
Q 359 3453 968 4101 
Q 1578 4750 2638 4750 
Q 3056 4750 3426 4639 
Q 3797 4528 4122 4306 
z
" id="DejaVuSans-43" transform="scale(0.015625)"/>
     </defs>
     <use xlink:href="#DejaVuSans-41"/>
     <use x="68.408203" xlink:href="#DejaVuSans-55"/>
     <use x="141.601562" xlink:href="#DejaVuSans-43"/>
    </g>
   </g>
  </g>
  <g id="axes_3">
   <g id="patch_6">
    <path d="M 52.388688 465.764082 
L 415.737525 465.764082 
L 415.737525 253.674082 
L 52.388688 253.674082 
z
" style="fill:#ebebeb;"/>
   </g>
   <g id="matplotlib.axis_5">
    <g id="xtick_23">
     <g id="line2d_49">
      <path clip-path="url(#p6fc2a7e2b8)" d="M 65.568007 465.764082 
L 65.568007 253.674082 
" style="fill:none;stroke:#ffffff;stroke-linecap:square;"/>
     </g>
     <g id="line2d_50">
      <path d="M 65.568007 465.764082 
" style="fill:none;stroke:#333333;stroke-linecap:square;stroke-width:1.5;"/>
      <defs>
       <path d="M 0 0 
L 0 2.75 
" id="m9eeedce2d4" style="stroke:#000000;"/>
      </defs>
      <g>
       <use style="fill:#333333;stroke:#000000;" x="65.568007" xlink:href="#m9eeedce2d4" y="465.764082"/>
      </g>
     </g>
     <g id="text_12">
      <!-- 0 -->
      <g style="fill:#4d4d4d;" transform="translate(62.768507 477.400707)scale(0.088 -0.088)">
       <use xlink:href="#DejaVuSans-30"/>
      </g>
     </g>
    </g>
    <g id="xtick_24">
     <g id="line2d_51">
      <path clip-path="url(#p6fc2a7e2b8)" d="M 132.298739 465.764082 
L 132.298739 253.674082 
" style="fill:none;stroke:#ffffff;stroke-linecap:square;"/>
     </g>
     <g id="line2d_52">
      <path d="M 132.298739 465.764082 
" style="fill:none;stroke:#333333;stroke-linecap:square;stroke-width:1.5;"/>
      <g>
       <use style="fill:#333333;stroke:#000000;" x="132.298739" xlink:href="#m9eeedce2d4" y="465.764082"/>
      </g>
     </g>
     <g id="text_13">
      <!-- 1000 -->
      <g style="fill:#4d4d4d;" transform="translate(121.100739 477.400707)scale(0.088 -0.088)">
       <use xlink:href="#DejaVuSans-31"/>
       <use x="63.623047" xlink:href="#DejaVuSans-30"/>
       <use x="127.246094" xlink:href="#DejaVuSans-30"/>
       <use x="190.869141" xlink:href="#DejaVuSans-30"/>
      </g>
     </g>
    </g>
    <g id="xtick_25">
     <g id="line2d_53">
      <path clip-path="url(#p6fc2a7e2b8)" d="M 199.029472 465.764082 
L 199.029472 253.674082 
" style="fill:none;stroke:#ffffff;stroke-linecap:square;"/>
     </g>
     <g id="line2d_54">
      <path d="M 199.029472 465.764082 
" style="fill:none;stroke:#333333;stroke-linecap:square;stroke-width:1.5;"/>
      <g>
       <use style="fill:#333333;stroke:#000000;" x="199.029472" xlink:href="#m9eeedce2d4" y="465.764082"/>
      </g>
     </g>
     <g id="text_14">
      <!-- 2000 -->
      <g style="fill:#4d4d4d;" transform="translate(187.831472 477.400707)scale(0.088 -0.088)">
       <use xlink:href="#DejaVuSans-32"/>
       <use x="63.623047" xlink:href="#DejaVuSans-30"/>
       <use x="127.246094" xlink:href="#DejaVuSans-30"/>
       <use x="190.869141" xlink:href="#DejaVuSans-30"/>
      </g>
     </g>
    </g>
    <g id="xtick_26">
     <g id="line2d_55">
      <path clip-path="url(#p6fc2a7e2b8)" d="M 265.760204 465.764082 
L 265.760204 253.674082 
" style="fill:none;stroke:#ffffff;stroke-linecap:square;"/>
     </g>
     <g id="line2d_56">
      <path d="M 265.760204 465.764082 
" style="fill:none;stroke:#333333;stroke-linecap:square;stroke-width:1.5;"/>
      <g>
       <use style="fill:#333333;stroke:#000000;" x="265.760204" xlink:href="#m9eeedce2d4" y="465.764082"/>
      </g>
     </g>
     <g id="text_15">
      <!-- 3000 -->
      <g style="fill:#4d4d4d;" transform="translate(254.562204 477.400707)scale(0.088 -0.088)">
       <use xlink:href="#DejaVuSans-33"/>
       <use x="63.623047" xlink:href="#DejaVuSans-30"/>
       <use x="127.246094" xlink:href="#DejaVuSans-30"/>
       <use x="190.869141" xlink:href="#DejaVuSans-30"/>
      </g>
     </g>
    </g>
    <g id="xtick_27">
     <g id="line2d_57">
      <path clip-path="url(#p6fc2a7e2b8)" d="M 332.490936 465.764082 
L 332.490936 253.674082 
" style="fill:none;stroke:#ffffff;stroke-linecap:square;"/>
     </g>
     <g id="line2d_58">
      <path d="M 332.490936 465.764082 
" style="fill:none;stroke:#333333;stroke-linecap:square;stroke-width:1.5;"/>
      <g>
       <use style="fill:#333333;stroke:#000000;" x="332.490936" xlink:href="#m9eeedce2d4" y="465.764082"/>
      </g>
     </g>
     <g id="text_16">
      <!-- 4000 -->
      <g style="fill:#4d4d4d;" transform="translate(321.292936 477.400707)scale(0.088 -0.088)">
       <defs>
        <path d="M 2419 4116 
L 825 1625 
L 2419 1625 
L 2419 4116 
z
M 2253 4666 
L 3047 4666 
L 3047 1625 
L 3713 1625 
L 3713 1100 
L 3047 1100 
L 3047 0 
L 2419 0 
L 2419 1100 
L 313 1100 
L 313 1709 
L 2253 4666 
z
" id="DejaVuSans-34" transform="scale(0.015625)"/>
       </defs>
       <use xlink:href="#DejaVuSans-34"/>
       <use x="63.623047" xlink:href="#DejaVuSans-30"/>
       <use x="127.246094" xlink:href="#DejaVuSans-30"/>
       <use x="190.869141" xlink:href="#DejaVuSans-30"/>
      </g>
     </g>
    </g>
    <g id="xtick_28">
     <g id="line2d_59">
      <path clip-path="url(#p6fc2a7e2b8)" d="M 399.221668 465.764082 
L 399.221668 253.674082 
" style="fill:none;stroke:#ffffff;stroke-linecap:square;"/>
     </g>
     <g id="line2d_60">
      <path d="M 399.221668 465.764082 
" style="fill:none;stroke:#333333;stroke-linecap:square;stroke-width:1.5;"/>
      <g>
       <use style="fill:#333333;stroke:#000000;" x="399.221668" xlink:href="#m9eeedce2d4" y="465.764082"/>
      </g>
     </g>
     <g id="text_17">
      <!-- 5000 -->
      <g style="fill:#4d4d4d;" transform="translate(388.023668 477.400707)scale(0.088 -0.088)">
       <use xlink:href="#DejaVuSans-35"/>
       <use x="63.623047" xlink:href="#DejaVuSans-30"/>
       <use x="127.246094" xlink:href="#DejaVuSans-30"/>
       <use x="190.869141" xlink:href="#DejaVuSans-30"/>
      </g>
     </g>
    </g>
    <g id="xtick_29">
     <g id="line2d_61">
      <path clip-path="url(#p6fc2a7e2b8)" d="M 98.933373 465.764082 
L 98.933373 253.674082 
" style="fill:none;stroke:#ffffff;stroke-linecap:square;stroke-width:0.5;"/>
     </g>
    </g>
    <g id="xtick_30">
     <g id="line2d_62">
      <path clip-path="url(#p6fc2a7e2b8)" d="M 165.664106 465.764082 
L 165.664106 253.674082 
" style="fill:none;stroke:#ffffff;stroke-linecap:square;stroke-width:0.5;"/>
     </g>
    </g>
    <g id="xtick_31">
     <g id="line2d_63">
      <path clip-path="url(#p6fc2a7e2b8)" d="M 232.394838 465.764082 
L 232.394838 253.674082 
" style="fill:none;stroke:#ffffff;stroke-linecap:square;stroke-width:0.5;"/>
     </g>
    </g>
    <g id="xtick_32">
     <g id="line2d_64">
      <path clip-path="url(#p6fc2a7e2b8)" d="M 299.12557 465.764082 
L 299.12557 253.674082 
" style="fill:none;stroke:#ffffff;stroke-linecap:square;stroke-width:0.5;"/>
     </g>
    </g>
    <g id="xtick_33">
     <g id="line2d_65">
      <path clip-path="url(#p6fc2a7e2b8)" d="M 365.856302 465.764082 
L 365.856302 253.674082 
" style="fill:none;stroke:#ffffff;stroke-linecap:square;stroke-width:0.5;"/>
     </g>
    </g>
   </g>
   <g id="matplotlib.axis_6">
    <g id="ytick_17">
     <g id="line2d_66">
      <path clip-path="url(#p6fc2a7e2b8)" d="M 52.388688 410.059604 
L 415.737525 410.059604 
" style="fill:none;stroke:#ffffff;stroke-linecap:square;"/>
     </g>
     <g id="line2d_67">
      <path d="M 52.388688 410.059604 
" style="fill:none;stroke:#333333;stroke-linecap:square;stroke-width:1.5;"/>
      <g>
       <use style="fill:#333333;stroke:#000000;" x="52.388688" xlink:href="#m0701951a4c" y="410.059604"/>
      </g>
     </g>
     <g id="text_18">
      <!-- 0.888 -->
      <g style="fill:#4d4d4d;" transform="translate(22.245938 412.487854)scale(0.088 -0.088)">
       <use xlink:href="#DejaVuSans-30"/>
       <use x="63.623047" xlink:href="#DejaVuSans-2e"/>
       <use x="95.410156" xlink:href="#DejaVuSans-38"/>
       <use x="159.033203" xlink:href="#DejaVuSans-38"/>
       <use x="222.65625" xlink:href="#DejaVuSans-38"/>
      </g>
     </g>
    </g>
    <g id="ytick_18">
     <g id="line2d_68">
      <path clip-path="url(#p6fc2a7e2b8)" d="M 52.388688 342.008051 
L 415.737525 342.008051 
" style="fill:none;stroke:#ffffff;stroke-linecap:square;"/>
     </g>
     <g id="line2d_69">
      <path d="M 52.388688 342.008051 
" style="fill:none;stroke:#333333;stroke-linecap:square;stroke-width:1.5;"/>
      <g>
       <use style="fill:#333333;stroke:#000000;" x="52.388688" xlink:href="#m0701951a4c" y="342.008051"/>
      </g>
     </g>
     <g id="text_19">
      <!-- 0.890 -->
      <g style="fill:#4d4d4d;" transform="translate(22.245938 344.436301)scale(0.088 -0.088)">
       <use xlink:href="#DejaVuSans-30"/>
       <use x="63.623047" xlink:href="#DejaVuSans-2e"/>
       <use x="95.410156" xlink:href="#DejaVuSans-38"/>
       <use x="159.033203" xlink:href="#DejaVuSans-39"/>
       <use x="222.65625" xlink:href="#DejaVuSans-30"/>
      </g>
     </g>
    </g>
    <g id="ytick_19">
     <g id="line2d_70">
      <path clip-path="url(#p6fc2a7e2b8)" d="M 52.388688 273.956498 
L 415.737525 273.956498 
" style="fill:none;stroke:#ffffff;stroke-linecap:square;"/>
     </g>
     <g id="line2d_71">
      <path d="M 52.388688 273.956498 
" style="fill:none;stroke:#333333;stroke-linecap:square;stroke-width:1.5;"/>
      <g>
       <use style="fill:#333333;stroke:#000000;" x="52.388688" xlink:href="#m0701951a4c" y="273.956498"/>
      </g>
     </g>
     <g id="text_20">
      <!-- 0.892 -->
      <g style="fill:#4d4d4d;" transform="translate(22.245938 276.384748)scale(0.088 -0.088)">
       <use xlink:href="#DejaVuSans-30"/>
       <use x="63.623047" xlink:href="#DejaVuSans-2e"/>
       <use x="95.410156" xlink:href="#DejaVuSans-38"/>
       <use x="159.033203" xlink:href="#DejaVuSans-39"/>
       <use x="222.65625" xlink:href="#DejaVuSans-32"/>
      </g>
     </g>
    </g>
    <g id="ytick_20">
     <g id="line2d_72">
      <path clip-path="url(#p6fc2a7e2b8)" d="M 52.388688 444.085381 
L 415.737525 444.085381 
" style="fill:none;stroke:#ffffff;stroke-linecap:square;stroke-width:0.5;"/>
     </g>
    </g>
    <g id="ytick_21">
     <g id="line2d_73">
      <path clip-path="url(#p6fc2a7e2b8)" d="M 52.388688 376.033828 
L 415.737525 376.033828 
" style="fill:none;stroke:#ffffff;stroke-linecap:square;stroke-width:0.5;"/>
     </g>
    </g>
    <g id="ytick_22">
     <g id="line2d_74">
      <path clip-path="url(#p6fc2a7e2b8)" d="M 52.388688 307.982275 
L 415.737525 307.982275 
" style="fill:none;stroke:#ffffff;stroke-linecap:square;stroke-width:0.5;"/>
     </g>
    </g>
   </g>
   <g id="line2d_75">
    <path clip-path="url(#p6fc2a7e2b8)" d="M 68.904544 379.181506 
L 72.24108 329.509367 
L 82.25069 339.729436 
L 98.933373 324.820876 
L 115.616056 370.530631 
L 132.298739 317.648836 
L 232.394838 315.139343 
L 399.221668 366.443181 
" style="fill:none;stroke:#000000;stroke-width:0.886227;"/>
   </g>
   <g id="PathCollection_3">
    <path clip-path="url(#p6fc2a7e2b8)" d="M 68.904544 380.95396 
C 69.374604 380.95396 69.825475 380.767203 70.157858 380.434821 
C 70.490241 380.102438 70.676998 379.651567 70.676998 379.181506 
C 70.676998 378.711446 70.490241 378.260575 70.157858 377.928192 
C 69.825475 377.59581 69.374604 377.409053 68.904544 377.409053 
C 68.434483 377.409053 67.983612 377.59581 67.65123 377.928192 
C 67.318847 378.260575 67.13209 378.711446 67.13209 379.181506 
C 67.13209 379.651567 67.318847 380.102438 67.65123 380.434821 
C 67.983612 380.767203 68.434483 380.95396 68.904544 380.95396 
z
" style="stroke:#000000;stroke-width:0.886227;"/>
    <path clip-path="url(#p6fc2a7e2b8)" d="M 72.24108 331.281821 
C 72.711141 331.281821 73.162012 331.095064 73.494394 330.762682 
C 73.826777 330.430299 74.013534 329.979428 74.013534 329.509367 
C 74.013534 329.039307 73.826777 328.588436 73.494394 328.256053 
C 73.162012 327.923671 72.711141 327.736914 72.24108 327.736914 
C 71.77102 327.736914 71.320149 327.923671 70.987766 328.256053 
C 70.655383 328.588436 70.468626 329.039307 70.468626 329.509367 
C 70.468626 329.979428 70.655383 330.430299 70.987766 330.762682 
C 71.320149 331.095064 71.77102 331.281821 72.24108 331.281821 
z
" style="stroke:#000000;stroke-width:0.886227;"/>
    <path clip-path="url(#p6fc2a7e2b8)" d="M 82.25069 341.50189 
C 82.72075 341.50189 83.171622 341.315133 83.504004 340.982751 
C 83.836387 340.650368 84.023144 340.199497 84.023144 339.729436 
C 84.023144 339.259376 83.836387 338.808505 83.504004 338.476122 
C 83.171622 338.143739 82.72075 337.956983 82.25069 337.956983 
C 81.78063 337.956983 81.329759 338.143739 80.997376 338.476122 
C 80.664993 338.808505 80.478236 339.259376 80.478236 339.729436 
C 80.478236 340.199497 80.664993 340.650368 80.997376 340.982751 
C 81.329759 341.315133 81.78063 341.50189 82.25069 341.50189 
z
" style="stroke:#000000;stroke-width:0.886227;"/>
    <path clip-path="url(#p6fc2a7e2b8)" d="M 98.933373 326.59333 
C 99.403434 326.59333 99.854305 326.406573 100.186687 326.07419 
C 100.51907 325.741807 100.705827 325.290936 100.705827 324.820876 
C 100.705827 324.350816 100.51907 323.899944 100.186687 323.567562 
C 99.854305 323.235179 99.403434 323.048422 98.933373 323.048422 
C 98.463313 323.048422 98.012442 323.235179 97.680059 323.567562 
C 97.347676 323.899944 97.160919 324.350816 97.160919 324.820876 
C 97.160919 325.290936 97.347676 325.741807 97.680059 326.07419 
C 98.012442 326.406573 98.463313 326.59333 98.933373 326.59333 
z
" style="stroke:#000000;stroke-width:0.886227;"/>
    <path clip-path="url(#p6fc2a7e2b8)" d="M 115.616056 372.303085 
C 116.086117 372.303085 116.536988 372.116328 116.86937 371.783945 
C 117.201753 371.451562 117.38851 371.000691 117.38851 370.530631 
C 117.38851 370.060571 117.201753 369.6097 116.86937 369.277317 
C 116.536988 368.944934 116.086117 368.758177 115.616056 368.758177 
C 115.145996 368.758177 114.695125 368.944934 114.362742 369.277317 
C 114.030359 369.6097 113.843602 370.060571 113.843602 370.530631 
C 113.843602 371.000691 114.030359 371.451562 114.362742 371.783945 
C 114.695125 372.116328 115.145996 372.303085 115.616056 372.303085 
z
" style="stroke:#000000;stroke-width:0.886227;"/>
    <path clip-path="url(#p6fc2a7e2b8)" d="M 132.298739 319.42129 
C 132.7688 319.42129 133.219671 319.234533 133.552054 318.902151 
C 133.884436 318.569768 134.071193 318.118897 134.071193 317.648836 
C 134.071193 317.178776 133.884436 316.727905 133.552054 316.395522 
C 133.219671 316.06314 132.7688 315.876383 132.298739 315.876383 
C 131.828679 315.876383 131.377808 316.06314 131.045425 316.395522 
C 130.713042 316.727905 130.526286 317.178776 130.526286 317.648836 
C 130.526286 318.118897 130.713042 318.569768 131.045425 318.902151 
C 131.377808 319.234533 131.828679 319.42129 132.298739 319.42129 
z
" style="stroke:#000000;stroke-width:0.886227;"/>
    <path clip-path="url(#p6fc2a7e2b8)" d="M 232.394838 316.911797 
C 232.864898 316.911797 233.315769 316.72504 233.648152 316.392658 
C 233.980535 316.060275 234.167292 315.609404 234.167292 315.139343 
C 234.167292 314.669283 233.980535 314.218412 233.648152 313.886029 
C 233.315769 313.553646 232.864898 313.36689 232.394838 313.36689 
C 231.924778 313.36689 231.473906 313.553646 231.141524 313.886029 
C 230.809141 314.218412 230.622384 314.669283 230.622384 315.139343 
C 230.622384 315.609404 230.809141 316.060275 231.141524 316.392658 
C 231.473906 316.72504 231.924778 316.911797 232.394838 316.911797 
z
" style="stroke:#000000;stroke-width:0.886227;"/>
    <path clip-path="url(#p6fc2a7e2b8)" d="M 399.221668 368.215635 
C 399.691729 368.215635 400.1426 368.028878 400.474983 367.696495 
C 400.807365 367.364112 400.994122 366.913241 400.994122 366.443181 
C 400.994122 365.973121 400.807365 365.52225 400.474983 365.189867 
C 400.1426 364.857484 399.691729 364.670727 399.221668 364.670727 
C 398.751608 364.670727 398.300737 364.857484 397.968354 365.189867 
C 397.635972 365.52225 397.449215 365.973121 397.449215 366.443181 
C 397.449215 366.913241 397.635972 367.364112 397.968354 367.696495 
C 398.300737 368.028878 398.751608 368.215635 399.221668 368.215635 
z
" style="stroke:#000000;stroke-width:0.886227;"/>
   </g>
   <g id="patch_7">
    <path d="M 52.388688 253.674082 
L 415.737525 253.674082 
L 415.737525 238.63 
L 52.388688 238.63 
z
" style="fill:#d9d9d9;"/>
   </g>
   <g id="PolyCollection_3">
    <path clip-path="url(#p6fc2a7e2b8)" d="M 68.904544 330.903616 
L 68.904544 427.459397 
L 72.24108 395.704198 
L 82.25069 397.164796 
L 98.933373 371.919673 
L 115.616056 444.248323 
L 132.298739 358.833014 
L 232.394838 343.311793 
L 399.221668 456.123628 
L 399.221668 276.762734 
L 399.221668 276.762734 
L 232.394838 286.966894 
L 132.298739 276.464659 
L 115.616056 296.812939 
L 98.933373 277.722078 
L 82.25069 282.294077 
L 72.24108 263.314537 
L 68.904544 330.903616 
z
" style="fill:#333333;fill-opacity:0.501961;"/>
   </g>
   <g id="text_21">
    <!-- F1 score: &lt;=50K -->
    <g style="fill:#1a1a1a;" transform="translate(196.774481 248.580291)scale(0.088 -0.088)">
     <defs>
      <path d="M 628 4666 
L 3309 4666 
L 3309 4134 
L 1259 4134 
L 1259 2759 
L 3109 2759 
L 3109 2228 
L 1259 2228 
L 1259 0 
L 628 0 
L 628 4666 
z
" id="DejaVuSans-46" transform="scale(0.015625)"/>
      <path id="DejaVuSans-20" transform="scale(0.015625)"/>
      <path d="M 2834 3397 
L 2834 2853 
Q 2591 2978 2328 3040 
Q 2066 3103 1784 3103 
Q 1356 3103 1142 2972 
Q 928 2841 928 2578 
Q 928 2378 1081 2264 
Q 1234 2150 1697 2047 
L 1894 2003 
Q 2506 1872 2764 1633 
Q 3022 1394 3022 966 
Q 3022 478 2636 193 
Q 2250 -91 1575 -91 
Q 1294 -91 989 -36 
Q 684 19 347 128 
L 347 722 
Q 666 556 975 473 
Q 1284 391 1588 391 
Q 1994 391 2212 530 
Q 2431 669 2431 922 
Q 2431 1156 2273 1281 
Q 2116 1406 1581 1522 
L 1381 1569 
Q 847 1681 609 1914 
Q 372 2147 372 2553 
Q 372 3047 722 3315 
Q 1072 3584 1716 3584 
Q 2034 3584 2315 3537 
Q 2597 3491 2834 3397 
z
" id="DejaVuSans-73" transform="scale(0.015625)"/>
      <path d="M 1959 3097 
Q 1497 3097 1228 2736 
Q 959 2375 959 1747 
Q 959 1119 1226 758 
Q 1494 397 1959 397 
Q 2419 397 2687 759 
Q 2956 1122 2956 1747 
Q 2956 2369 2687 2733 
Q 2419 3097 1959 3097 
z
M 1959 3584 
Q 2709 3584 3137 3096 
Q 3566 2609 3566 1747 
Q 3566 888 3137 398 
Q 2709 -91 1959 -91 
Q 1206 -91 779 398 
Q 353 888 353 1747 
Q 353 2609 779 3096 
Q 1206 3584 1959 3584 
z
" id="DejaVuSans-6f" transform="scale(0.015625)"/>
      <path d="M 750 794 
L 1409 794 
L 1409 0 
L 750 0 
L 750 794 
z
M 750 3309 
L 1409 3309 
L 1409 2516 
L 750 2516 
L 750 3309 
z
" id="DejaVuSans-3a" transform="scale(0.015625)"/>
      <path d="M 4684 3150 
L 1459 2003 
L 4684 863 
L 4684 294 
L 678 1747 
L 678 2266 
L 4684 3719 
L 4684 3150 
z
" id="DejaVuSans-3c" transform="scale(0.015625)"/>
      <path d="M 678 2906 
L 4684 2906 
L 4684 2381 
L 678 2381 
L 678 2906 
z
M 678 1631 
L 4684 1631 
L 4684 1100 
L 678 1100 
L 678 1631 
z
" id="DejaVuSans-3d" transform="scale(0.015625)"/>
      <path d="M 628 4666 
L 1259 4666 
L 1259 2694 
L 3353 4666 
L 4166 4666 
L 1850 2491 
L 4331 0 
L 3500 0 
L 1259 2247 
L 1259 0 
L 628 0 
L 628 4666 
z
" id="DejaVuSans-4b" transform="scale(0.015625)"/>
     </defs>
     <use xlink:href="#DejaVuSans-46"/>
     <use x="57.519531" xlink:href="#DejaVuSans-31"/>
     <use x="121.142578" xlink:href="#DejaVuSans-20"/>
     <use x="152.929688" xlink:href="#DejaVuSans-73"/>
     <use x="205.029297" xlink:href="#DejaVuSans-63"/>
     <use x="260.009766" xlink:href="#DejaVuSans-6f"/>
     <use x="321.191406" xlink:href="#DejaVuSans-72"/>
     <use x="360.054688" xlink:href="#DejaVuSans-65"/>
     <use x="421.578125" xlink:href="#DejaVuSans-3a"/>
     <use x="455.269531" xlink:href="#DejaVuSans-20"/>
     <use x="487.056641" xlink:href="#DejaVuSans-3c"/>
     <use x="570.845703" xlink:href="#DejaVuSans-3d"/>
     <use x="654.634766" xlink:href="#DejaVuSans-35"/>
     <use x="718.257812" xlink:href="#DejaVuSans-30"/>
     <use x="781.880859" xlink:href="#DejaVuSans-4b"/>
    </g>
   </g>
  </g>
  <g id="axes_4">
   <g id="patch_8">
    <path d="M 470.23985 465.764082 
L 833.588688 465.764082 
L 833.588688 253.674082 
L 470.23985 253.674082 
z
" style="fill:#ebebeb;"/>
   </g>
   <g id="matplotlib.axis_7">
    <g id="xtick_34">
     <g id="line2d_76">
      <path clip-path="url(#p05c6eedf31)" d="M 483.41917 465.764082 
L 483.41917 253.674082 
" style="fill:none;stroke:#ffffff;stroke-linecap:square;"/>
     </g>
     <g id="line2d_77">
      <path d="M 483.41917 465.764082 
" style="fill:none;stroke:#333333;stroke-linecap:square;stroke-width:1.5;"/>
      <g>
       <use style="fill:#333333;stroke:#000000;" x="483.41917" xlink:href="#m9eeedce2d4" y="465.764082"/>
      </g>
     </g>
     <g id="text_22">
      <!-- 0 -->
      <g style="fill:#4d4d4d;" transform="translate(480.61967 477.400707)scale(0.088 -0.088)">
       <use xlink:href="#DejaVuSans-30"/>
      </g>
     </g>
    </g>
    <g id="xtick_35">
     <g id="line2d_78">
      <path clip-path="url(#p05c6eedf31)" d="M 550.149902 465.764082 
L 550.149902 253.674082 
" style="fill:none;stroke:#ffffff;stroke-linecap:square;"/>
     </g>
     <g id="line2d_79">
      <path d="M 550.149902 465.764082 
" style="fill:none;stroke:#333333;stroke-linecap:square;stroke-width:1.5;"/>
      <g>
       <use style="fill:#333333;stroke:#000000;" x="550.149902" xlink:href="#m9eeedce2d4" y="465.764082"/>
      </g>
     </g>
     <g id="text_23">
      <!-- 1000 -->
      <g style="fill:#4d4d4d;" transform="translate(538.951902 477.400707)scale(0.088 -0.088)">
       <use xlink:href="#DejaVuSans-31"/>
       <use x="63.623047" xlink:href="#DejaVuSans-30"/>
       <use x="127.246094" xlink:href="#DejaVuSans-30"/>
       <use x="190.869141" xlink:href="#DejaVuSans-30"/>
      </g>
     </g>
    </g>
    <g id="xtick_36">
     <g id="line2d_80">
      <path clip-path="url(#p05c6eedf31)" d="M 616.880634 465.764082 
L 616.880634 253.674082 
" style="fill:none;stroke:#ffffff;stroke-linecap:square;"/>
     </g>
     <g id="line2d_81">
      <path d="M 616.880634 465.764082 
" style="fill:none;stroke:#333333;stroke-linecap:square;stroke-width:1.5;"/>
      <g>
       <use style="fill:#333333;stroke:#000000;" x="616.880634" xlink:href="#m9eeedce2d4" y="465.764082"/>
      </g>
     </g>
     <g id="text_24">
      <!-- 2000 -->
      <g style="fill:#4d4d4d;" transform="translate(605.682634 477.400707)scale(0.088 -0.088)">
       <use xlink:href="#DejaVuSans-32"/>
       <use x="63.623047" xlink:href="#DejaVuSans-30"/>
       <use x="127.246094" xlink:href="#DejaVuSans-30"/>
       <use x="190.869141" xlink:href="#DejaVuSans-30"/>
      </g>
     </g>
    </g>
    <g id="xtick_37">
     <g id="line2d_82">
      <path clip-path="url(#p05c6eedf31)" d="M 683.611367 465.764082 
L 683.611367 253.674082 
" style="fill:none;stroke:#ffffff;stroke-linecap:square;"/>
     </g>
     <g id="line2d_83">
      <path d="M 683.611367 465.764082 
" style="fill:none;stroke:#333333;stroke-linecap:square;stroke-width:1.5;"/>
      <g>
       <use style="fill:#333333;stroke:#000000;" x="683.611367" xlink:href="#m9eeedce2d4" y="465.764082"/>
      </g>
     </g>
     <g id="text_25">
      <!-- 3000 -->
      <g style="fill:#4d4d4d;" transform="translate(672.413367 477.400707)scale(0.088 -0.088)">
       <use xlink:href="#DejaVuSans-33"/>
       <use x="63.623047" xlink:href="#DejaVuSans-30"/>
       <use x="127.246094" xlink:href="#DejaVuSans-30"/>
       <use x="190.869141" xlink:href="#DejaVuSans-30"/>
      </g>
     </g>
    </g>
    <g id="xtick_38">
     <g id="line2d_84">
      <path clip-path="url(#p05c6eedf31)" d="M 750.342099 465.764082 
L 750.342099 253.674082 
" style="fill:none;stroke:#ffffff;stroke-linecap:square;"/>
     </g>
     <g id="line2d_85">
      <path d="M 750.342099 465.764082 
" style="fill:none;stroke:#333333;stroke-linecap:square;stroke-width:1.5;"/>
      <g>
       <use style="fill:#333333;stroke:#000000;" x="750.342099" xlink:href="#m9eeedce2d4" y="465.764082"/>
      </g>
     </g>
     <g id="text_26">
      <!-- 4000 -->
      <g style="fill:#4d4d4d;" transform="translate(739.144099 477.400707)scale(0.088 -0.088)">
       <use xlink:href="#DejaVuSans-34"/>
       <use x="63.623047" xlink:href="#DejaVuSans-30"/>
       <use x="127.246094" xlink:href="#DejaVuSans-30"/>
       <use x="190.869141" xlink:href="#DejaVuSans-30"/>
      </g>
     </g>
    </g>
    <g id="xtick_39">
     <g id="line2d_86">
      <path clip-path="url(#p05c6eedf31)" d="M 817.072831 465.764082 
L 817.072831 253.674082 
" style="fill:none;stroke:#ffffff;stroke-linecap:square;"/>
     </g>
     <g id="line2d_87">
      <path d="M 817.072831 465.764082 
" style="fill:none;stroke:#333333;stroke-linecap:square;stroke-width:1.5;"/>
      <g>
       <use style="fill:#333333;stroke:#000000;" x="817.072831" xlink:href="#m9eeedce2d4" y="465.764082"/>
      </g>
     </g>
     <g id="text_27">
      <!-- 5000 -->
      <g style="fill:#4d4d4d;" transform="translate(805.874831 477.400707)scale(0.088 -0.088)">
       <use xlink:href="#DejaVuSans-35"/>
       <use x="63.623047" xlink:href="#DejaVuSans-30"/>
       <use x="127.246094" xlink:href="#DejaVuSans-30"/>
       <use x="190.869141" xlink:href="#DejaVuSans-30"/>
      </g>
     </g>
    </g>
    <g id="xtick_40">
     <g id="line2d_88">
      <path clip-path="url(#p05c6eedf31)" d="M 516.784536 465.764082 
L 516.784536 253.674082 
" style="fill:none;stroke:#ffffff;stroke-linecap:square;stroke-width:0.5;"/>
     </g>
    </g>
    <g id="xtick_41">
     <g id="line2d_89">
      <path clip-path="url(#p05c6eedf31)" d="M 583.515268 465.764082 
L 583.515268 253.674082 
" style="fill:none;stroke:#ffffff;stroke-linecap:square;stroke-width:0.5;"/>
     </g>
    </g>
    <g id="xtick_42">
     <g id="line2d_90">
      <path clip-path="url(#p05c6eedf31)" d="M 650.246001 465.764082 
L 650.246001 253.674082 
" style="fill:none;stroke:#ffffff;stroke-linecap:square;stroke-width:0.5;"/>
     </g>
    </g>
    <g id="xtick_43">
     <g id="line2d_91">
      <path clip-path="url(#p05c6eedf31)" d="M 716.976733 465.764082 
L 716.976733 253.674082 
" style="fill:none;stroke:#ffffff;stroke-linecap:square;stroke-width:0.5;"/>
     </g>
    </g>
    <g id="xtick_44">
     <g id="line2d_92">
      <path clip-path="url(#p05c6eedf31)" d="M 783.707465 465.764082 
L 783.707465 253.674082 
" style="fill:none;stroke:#ffffff;stroke-linecap:square;stroke-width:0.5;"/>
     </g>
    </g>
    <g id="text_28">
     <!-- Batch size -->
     <g transform="translate(402.166813 491.989114)scale(0.11 -0.11)">
      <defs>
       <path d="M 1259 2228 
L 1259 519 
L 2272 519 
Q 2781 519 3026 730 
Q 3272 941 3272 1375 
Q 3272 1813 3026 2020 
Q 2781 2228 2272 2228 
L 1259 2228 
z
M 1259 4147 
L 1259 2741 
L 2194 2741 
Q 2656 2741 2882 2914 
Q 3109 3088 3109 3444 
Q 3109 3797 2882 3972 
Q 2656 4147 2194 4147 
L 1259 4147 
z
M 628 4666 
L 2241 4666 
Q 2963 4666 3353 4366 
Q 3744 4066 3744 3513 
Q 3744 3084 3544 2831 
Q 3344 2578 2956 2516 
Q 3422 2416 3680 2098 
Q 3938 1781 3938 1306 
Q 3938 681 3513 340 
Q 3088 0 2303 0 
L 628 0 
L 628 4666 
z
" id="DejaVuSans-42" transform="scale(0.015625)"/>
       <path d="M 1172 4494 
L 1172 3500 
L 2356 3500 
L 2356 3053 
L 1172 3053 
L 1172 1153 
Q 1172 725 1289 603 
Q 1406 481 1766 481 
L 2356 481 
L 2356 0 
L 1766 0 
Q 1100 0 847 248 
Q 594 497 594 1153 
L 594 3053 
L 172 3053 
L 172 3500 
L 594 3500 
L 594 4494 
L 1172 4494 
z
" id="DejaVuSans-74" transform="scale(0.015625)"/>
       <path d="M 3513 2113 
L 3513 0 
L 2938 0 
L 2938 2094 
Q 2938 2591 2744 2837 
Q 2550 3084 2163 3084 
Q 1697 3084 1428 2787 
Q 1159 2491 1159 1978 
L 1159 0 
L 581 0 
L 581 4863 
L 1159 4863 
L 1159 2956 
Q 1366 3272 1645 3428 
Q 1925 3584 2291 3584 
Q 2894 3584 3203 3211 
Q 3513 2838 3513 2113 
z
" id="DejaVuSans-68" transform="scale(0.015625)"/>
       <path d="M 603 3500 
L 1178 3500 
L 1178 0 
L 603 0 
L 603 3500 
z
M 603 4863 
L 1178 4863 
L 1178 4134 
L 603 4134 
L 603 4863 
z
" id="DejaVuSans-69" transform="scale(0.015625)"/>
       <path d="M 353 3500 
L 3084 3500 
L 3084 2975 
L 922 459 
L 3084 459 
L 3084 0 
L 275 0 
L 275 525 
L 2438 3041 
L 353 3041 
L 353 3500 
z
" id="DejaVuSans-7a" transform="scale(0.015625)"/>
      </defs>
      <use xlink:href="#DejaVuSans-42"/>
      <use x="68.603516" xlink:href="#DejaVuSans-61"/>
      <use x="129.882812" xlink:href="#DejaVuSans-74"/>
      <use x="169.091797" xlink:href="#DejaVuSans-63"/>
      <use x="224.072266" xlink:href="#DejaVuSans-68"/>
      <use x="287.451172" xlink:href="#DejaVuSans-20"/>
      <use x="319.238281" xlink:href="#DejaVuSans-73"/>
      <use x="371.337891" xlink:href="#DejaVuSans-69"/>
      <use x="399.121094" xlink:href="#DejaVuSans-7a"/>
      <use x="451.611328" xlink:href="#DejaVuSans-65"/>
     </g>
    </g>
   </g>
   <g id="matplotlib.axis_8">
    <g id="ytick_23">
     <g id="line2d_93">
      <path clip-path="url(#p05c6eedf31)" d="M 470.23985 425.28701 
L 833.588688 425.28701 
" style="fill:none;stroke:#ffffff;stroke-linecap:square;"/>
     </g>
     <g id="line2d_94">
      <path d="M 470.23985 425.28701 
" style="fill:none;stroke:#333333;stroke-linecap:square;stroke-width:1.5;"/>
      <g>
       <use style="fill:#333333;stroke:#000000;" x="470.23985" xlink:href="#m0701951a4c" y="425.28701"/>
      </g>
     </g>
     <g id="text_29">
      <!-- 0.635 -->
      <g style="fill:#4d4d4d;" transform="translate(440.0971 427.71526)scale(0.088 -0.088)">
       <defs>
        <path d="M 2113 2584 
Q 1688 2584 1439 2293 
Q 1191 2003 1191 1497 
Q 1191 994 1439 701 
Q 1688 409 2113 409 
Q 2538 409 2786 701 
Q 3034 994 3034 1497 
Q 3034 2003 2786 2293 
Q 2538 2584 2113 2584 
z
M 3366 4563 
L 3366 3988 
Q 3128 4100 2886 4159 
Q 2644 4219 2406 4219 
Q 1781 4219 1451 3797 
Q 1122 3375 1075 2522 
Q 1259 2794 1537 2939 
Q 1816 3084 2150 3084 
Q 2853 3084 3261 2657 
Q 3669 2231 3669 1497 
Q 3669 778 3244 343 
Q 2819 -91 2113 -91 
Q 1303 -91 875 529 
Q 447 1150 447 2328 
Q 447 3434 972 4092 
Q 1497 4750 2381 4750 
Q 2619 4750 2861 4703 
Q 3103 4656 3366 4563 
z
" id="DejaVuSans-36" transform="scale(0.015625)"/>
       </defs>
       <use xlink:href="#DejaVuSans-30"/>
       <use x="63.623047" xlink:href="#DejaVuSans-2e"/>
       <use x="95.410156" xlink:href="#DejaVuSans-36"/>
       <use x="159.033203" xlink:href="#DejaVuSans-33"/>
       <use x="222.65625" xlink:href="#DejaVuSans-35"/>
      </g>
     </g>
    </g>
    <g id="ytick_24">
     <g id="line2d_95">
      <path clip-path="url(#p05c6eedf31)" d="M 470.23985 380.124871 
L 833.588688 380.124871 
" style="fill:none;stroke:#ffffff;stroke-linecap:square;"/>
     </g>
     <g id="line2d_96">
      <path d="M 470.23985 380.124871 
" style="fill:none;stroke:#333333;stroke-linecap:square;stroke-width:1.5;"/>
      <g>
       <use style="fill:#333333;stroke:#000000;" x="470.23985" xlink:href="#m0701951a4c" y="380.124871"/>
      </g>
     </g>
     <g id="text_30">
      <!-- 0.640 -->
      <g style="fill:#4d4d4d;" transform="translate(440.0971 382.553121)scale(0.088 -0.088)">
       <use xlink:href="#DejaVuSans-30"/>
       <use x="63.623047" xlink:href="#DejaVuSans-2e"/>
       <use x="95.410156" xlink:href="#DejaVuSans-36"/>
       <use x="159.033203" xlink:href="#DejaVuSans-34"/>
       <use x="222.65625" xlink:href="#DejaVuSans-30"/>
      </g>
     </g>
    </g>
    <g id="ytick_25">
     <g id="line2d_97">
      <path clip-path="url(#p05c6eedf31)" d="M 470.23985 334.962732 
L 833.588688 334.962732 
" style="fill:none;stroke:#ffffff;stroke-linecap:square;"/>
     </g>
     <g id="line2d_98">
      <path d="M 470.23985 334.962732 
" style="fill:none;stroke:#333333;stroke-linecap:square;stroke-width:1.5;"/>
      <g>
       <use style="fill:#333333;stroke:#000000;" x="470.23985" xlink:href="#m0701951a4c" y="334.962732"/>
      </g>
     </g>
     <g id="text_31">
      <!-- 0.645 -->
      <g style="fill:#4d4d4d;" transform="translate(440.0971 337.390982)scale(0.088 -0.088)">
       <use xlink:href="#DejaVuSans-30"/>
       <use x="63.623047" xlink:href="#DejaVuSans-2e"/>
       <use x="95.410156" xlink:href="#DejaVuSans-36"/>
       <use x="159.033203" xlink:href="#DejaVuSans-34"/>
       <use x="222.65625" xlink:href="#DejaVuSans-35"/>
      </g>
     </g>
    </g>
    <g id="ytick_26">
     <g id="line2d_99">
      <path clip-path="url(#p05c6eedf31)" d="M 470.23985 289.800593 
L 833.588688 289.800593 
" style="fill:none;stroke:#ffffff;stroke-linecap:square;"/>
     </g>
     <g id="line2d_100">
      <path d="M 470.23985 289.800593 
" style="fill:none;stroke:#333333;stroke-linecap:square;stroke-width:1.5;"/>
      <g>
       <use style="fill:#333333;stroke:#000000;" x="470.23985" xlink:href="#m0701951a4c" y="289.800593"/>
      </g>
     </g>
     <g id="text_32">
      <!-- 0.650 -->
      <g style="fill:#4d4d4d;" transform="translate(440.0971 292.228843)scale(0.088 -0.088)">
       <use xlink:href="#DejaVuSans-30"/>
       <use x="63.623047" xlink:href="#DejaVuSans-2e"/>
       <use x="95.410156" xlink:href="#DejaVuSans-36"/>
       <use x="159.033203" xlink:href="#DejaVuSans-35"/>
       <use x="222.65625" xlink:href="#DejaVuSans-30"/>
      </g>
     </g>
    </g>
    <g id="ytick_27">
     <g id="line2d_101">
      <path clip-path="url(#p05c6eedf31)" d="M 470.23985 447.868079 
L 833.588688 447.868079 
" style="fill:none;stroke:#ffffff;stroke-linecap:square;stroke-width:0.5;"/>
     </g>
    </g>
    <g id="ytick_28">
     <g id="line2d_102">
      <path clip-path="url(#p05c6eedf31)" d="M 470.23985 402.70594 
L 833.588688 402.70594 
" style="fill:none;stroke:#ffffff;stroke-linecap:square;stroke-width:0.5;"/>
     </g>
    </g>
    <g id="ytick_29">
     <g id="line2d_103">
      <path clip-path="url(#p05c6eedf31)" d="M 470.23985 357.543801 
L 833.588688 357.543801 
" style="fill:none;stroke:#ffffff;stroke-linecap:square;stroke-width:0.5;"/>
     </g>
    </g>
    <g id="ytick_30">
     <g id="line2d_104">
      <path clip-path="url(#p05c6eedf31)" d="M 470.23985 312.381663 
L 833.588688 312.381663 
" style="fill:none;stroke:#ffffff;stroke-linecap:square;stroke-width:0.5;"/>
     </g>
    </g>
    <g id="ytick_31">
     <g id="line2d_105">
      <path clip-path="url(#p05c6eedf31)" d="M 470.23985 267.219524 
L 833.588688 267.219524 
" style="fill:none;stroke:#ffffff;stroke-linecap:square;stroke-width:0.5;"/>
     </g>
    </g>
   </g>
   <g id="line2d_106">
    <path clip-path="url(#p05c6eedf31)" d="M 486.755707 345.663834 
L 490.092243 361.620689 
L 500.101853 329.13008 
L 516.784536 335.521631 
L 533.467219 377.877451 
L 550.149902 359.719082 
L 650.246001 332.925677 
L 817.072831 348.236732 
" style="fill:none;stroke:#000000;stroke-width:0.886227;"/>
   </g>
   <g id="PathCollection_4">
    <path clip-path="url(#p05c6eedf31)" d="M 486.755707 347.436288 
C 487.225767 347.436288 487.676638 347.249531 488.009021 346.917148 
C 488.341403 346.584765 488.52816 346.133894 488.52816 345.663834 
C 488.52816 345.193774 488.341403 344.742903 488.009021 344.41052 
C 487.676638 344.078137 487.225767 343.89138 486.755707 343.89138 
C 486.285646 343.89138 485.834775 344.078137 485.502392 344.41052 
C 485.17001 344.742903 484.983253 345.193774 484.983253 345.663834 
C 484.983253 346.133894 485.17001 346.584765 485.502392 346.917148 
C 485.834775 347.249531 486.285646 347.436288 486.755707 347.436288 
z
" style="stroke:#000000;stroke-width:0.886227;"/>
    <path clip-path="url(#p05c6eedf31)" d="M 490.092243 363.393143 
C 490.562303 363.393143 491.013174 363.206386 491.345557 362.874003 
C 491.67794 362.54162 491.864697 362.090749 491.864697 361.620689 
C 491.864697 361.150629 491.67794 360.699758 491.345557 360.367375 
C 491.013174 360.034992 490.562303 359.848235 490.092243 359.848235 
C 489.622183 359.848235 489.171312 360.034992 488.838929 360.367375 
C 488.506546 360.699758 488.319789 361.150629 488.319789 361.620689 
C 488.319789 362.090749 488.506546 362.54162 488.838929 362.874003 
C 489.171312 363.206386 489.622183 363.393143 490.092243 363.393143 
z
" style="stroke:#000000;stroke-width:0.886227;"/>
    <path clip-path="url(#p05c6eedf31)" d="M 500.101853 330.902534 
C 500.571913 330.902534 501.022784 330.715777 501.355167 330.383394 
C 501.68755 330.051011 501.874307 329.60014 501.874307 329.13008 
C 501.874307 328.66002 501.68755 328.209149 501.355167 327.876766 
C 501.022784 327.544383 500.571913 327.357626 500.101853 327.357626 
C 499.631793 327.357626 499.180922 327.544383 498.848539 327.876766 
C 498.516156 328.209149 498.329399 328.66002 498.329399 329.13008 
C 498.329399 329.60014 498.516156 330.051011 498.848539 330.383394 
C 499.180922 330.715777 499.631793 330.902534 500.101853 330.902534 
z
" style="stroke:#000000;stroke-width:0.886227;"/>
    <path clip-path="url(#p05c6eedf31)" d="M 516.784536 337.294084 
C 517.254596 337.294084 517.705467 337.107328 518.03785 336.774945 
C 518.370233 336.442562 518.55699 335.991691 518.55699 335.521631 
C 518.55699 335.05157 518.370233 334.600699 518.03785 334.268316 
C 517.705467 333.935934 517.254596 333.749177 516.784536 333.749177 
C 516.314476 333.749177 515.863605 333.935934 515.531222 334.268316 
C 515.198839 334.600699 515.012082 335.05157 515.012082 335.521631 
C 515.012082 335.991691 515.198839 336.442562 515.531222 336.774945 
C 515.863605 337.107328 516.314476 337.294084 516.784536 337.294084 
z
" style="stroke:#000000;stroke-width:0.886227;"/>
    <path clip-path="url(#p05c6eedf31)" d="M 533.467219 379.649905 
C 533.937279 379.649905 534.38815 379.463148 534.720533 379.130765 
C 535.052916 378.798383 535.239673 378.347512 535.239673 377.877451 
C 535.239673 377.407391 535.052916 376.95652 534.720533 376.624137 
C 534.38815 376.291754 533.937279 376.104997 533.467219 376.104997 
C 532.997159 376.104997 532.546288 376.291754 532.213905 376.624137 
C 531.881522 376.95652 531.694765 377.407391 531.694765 377.877451 
C 531.694765 378.347512 531.881522 378.798383 532.213905 379.130765 
C 532.546288 379.463148 532.997159 379.649905 533.467219 379.649905 
z
" style="stroke:#000000;stroke-width:0.886227;"/>
    <path clip-path="url(#p05c6eedf31)" d="M 550.149902 361.491536 
C 550.619962 361.491536 551.070834 361.304779 551.403216 360.972396 
C 551.735599 360.640014 551.922356 360.189143 551.922356 359.719082 
C 551.922356 359.249022 551.735599 358.798151 551.403216 358.465768 
C 551.070834 358.133385 550.619962 357.946628 550.149902 357.946628 
C 549.679842 357.946628 549.228971 358.133385 548.896588 358.465768 
C 548.564205 358.798151 548.377448 359.249022 548.377448 359.719082 
C 548.377448 360.189143 548.564205 360.640014 548.896588 360.972396 
C 549.228971 361.304779 549.679842 361.491536 550.149902 361.491536 
z
" style="stroke:#000000;stroke-width:0.886227;"/>
    <path clip-path="url(#p05c6eedf31)" d="M 650.246001 334.698131 
C 650.716061 334.698131 651.166932 334.511374 651.499315 334.178991 
C 651.831698 333.846609 652.018454 333.395738 652.018454 332.925677 
C 652.018454 332.455617 651.831698 332.004746 651.499315 331.672363 
C 651.166932 331.33998 650.716061 331.153223 650.246001 331.153223 
C 649.77594 331.153223 649.325069 331.33998 648.992686 331.672363 
C 648.660304 332.004746 648.473547 332.455617 648.473547 332.925677 
C 648.473547 333.395738 648.660304 333.846609 648.992686 334.178991 
C 649.325069 334.511374 649.77594 334.698131 650.246001 334.698131 
z
" style="stroke:#000000;stroke-width:0.886227;"/>
    <path clip-path="url(#p05c6eedf31)" d="M 817.072831 350.009185 
C 817.542892 350.009185 817.993763 349.822428 818.326145 349.490046 
C 818.658528 349.157663 818.845285 348.706792 818.845285 348.236732 
C 818.845285 347.766671 818.658528 347.3158 818.326145 346.983417 
C 817.993763 346.651035 817.542892 346.464278 817.072831 346.464278 
C 816.602771 346.464278 816.1519 346.651035 815.819517 346.983417 
C 815.487134 347.3158 815.300377 347.766671 815.300377 348.236732 
C 815.300377 348.706792 815.487134 349.157663 815.819517 349.490046 
C 816.1519 349.822428 816.602771 350.009185 817.072831 350.009185 
z
" style="stroke:#000000;stroke-width:0.886227;"/>
   </g>
   <g id="patch_9">
    <path d="M 470.23985 253.674082 
L 833.588688 253.674082 
L 833.588688 238.63 
L 470.23985 238.63 
z
" style="fill:#d9d9d9;"/>
   </g>
   <g id="PolyCollection_4">
    <path clip-path="url(#p05c6eedf31)" d="M 486.755707 283.785768 
L 486.755707 407.5419 
L 490.092243 417.313851 
L 500.101853 365.923943 
L 516.784536 376.267126 
L 533.467219 445.656571 
L 550.149902 456.123628 
L 650.246001 378.326905 
L 817.072831 412.721496 
L 817.072831 283.751967 
L 817.072831 283.751967 
L 650.246001 287.52445 
L 550.149902 263.314537 
L 533.467219 310.098332 
L 516.784536 294.776135 
L 500.101853 292.336217 
L 490.092243 305.927527 
L 486.755707 283.785768 
z
" style="fill:#333333;fill-opacity:0.501961;"/>
   </g>
   <g id="text_33">
    <!-- F1 score: &gt;50K -->
    <g style="fill:#1a1a1a;" transform="translate(618.312706 248.580291)scale(0.088 -0.088)">
     <defs>
      <path d="M 678 3150 
L 678 3719 
L 4684 2266 
L 4684 1747 
L 678 294 
L 678 863 
L 3897 2003 
L 678 3150 
z
" id="DejaVuSans-3e" transform="scale(0.015625)"/>
     </defs>
     <use xlink:href="#DejaVuSans-46"/>
     <use x="57.519531" xlink:href="#DejaVuSans-31"/>
     <use x="121.142578" xlink:href="#DejaVuSans-20"/>
     <use x="152.929688" xlink:href="#DejaVuSans-73"/>
     <use x="205.029297" xlink:href="#DejaVuSans-63"/>
     <use x="260.009766" xlink:href="#DejaVuSans-6f"/>
     <use x="321.191406" xlink:href="#DejaVuSans-72"/>
     <use x="360.054688" xlink:href="#DejaVuSans-65"/>
     <use x="421.578125" xlink:href="#DejaVuSans-3a"/>
     <use x="455.269531" xlink:href="#DejaVuSans-20"/>
     <use x="487.056641" xlink:href="#DejaVuSans-3e"/>
     <use x="570.845703" xlink:href="#DejaVuSans-35"/>
     <use x="634.46875" xlink:href="#DejaVuSans-30"/>
     <use x="698.091797" xlink:href="#DejaVuSans-4b"/>
    </g>
   </g>
  </g>
 </g>
 <defs>
  <clipPath id="p648e2abbc0">
   <rect height="212.09" width="363.348837" x="52.388688" y="22.244082"/>
  </clipPath>
  <clipPath id="pb90736f6b1">
   <rect height="212.09" width="363.348837" x="470.23985" y="22.244082"/>
  </clipPath>
  <clipPath id="p6fc2a7e2b8">
   <rect height="212.09" width="363.348837" x="52.388688" y="253.674082"/>
  </clipPath>
  <clipPath id="p05c6eedf31">
   <rect height="212.09" width="363.348837" x="470.23985" y="253.674082"/>
  </clipPath>
 </defs>
</svg>
