<?xml version="1.0" encoding="utf-8" standalone="no"?>
<!DOCTYPE svg PUBLIC "-//W3C//DTD SVG 1.1//EN"
  "http://www.w3.org/Graphics/SVG/1.1/DTD/svg11.dtd">
<svg height="576pt" version="1.1" viewBox="0 0 1008 576" width="1008pt" xmlns="http://www.w3.org/2000/svg" xmlns:xlink="http://www.w3.org/1999/xlink">
 <metadata>
  <rdf:RDF xmlns:cc="http://creativecommons.org/ns#" xmlns:dc="http://purl.org/dc/elements/1.1/" xmlns:rdf="http://www.w3.org/1999/02/22-rdf-syntax-ns#">
   <cc:Work>
    <dc:type rdf:resource="http://purl.org/dc/dcmitype/StillImage"/>
    <dc:date>2022-03-15T14:04:39.647328</dc:date>
    <dc:format>image/svg+xml</dc:format>
    <dc:creator>
     <cc:Agent>
      <dc:title>Matplotlib v3.4.3, https://matplotlib.org/</dc:title>
     </cc:Agent>
    </dc:creator>
   </cc:Work>
  </rdf:RDF>
 </metadata>
 <defs>
  <style type="text/css">*{stroke-linecap:butt;stroke-linejoin:round;}</style>
 </defs>
 <g id="figure_1">
  <g id="patch_1">
   <path d="M 0 576 
L 1008 576 
L 1008 0 
L 0 0 
z
" style="fill:none;"/>
  </g>
  <g id="axes_1">
   <g id="patch_2">
    <path d="M 126 504 
L 481.090909 504 
L 481.090909 69.12 
L 126 69.12 
z
" style="fill:#ffffff;"/>
   </g>
   <g id="PolyCollection_1">
    <defs>
     <path d="M 142.140496 -457.24787 
L 142.140496 -399.335963 
L 142.637127 -373.904899 
L 143.133757 -384.157891 
L 143.630388 -406.212646 
L 144.127018 -381.019714 
L 144.623649 -387.121115 
L 145.12028 -380.788154 
L 145.61691 -384.724835 
L 146.113541 -403.242668 
L 146.610172 -396.770741 
L 147.106802 -400.49771 
L 147.603433 -376.683827 
L 148.100064 -382.041011 
L 148.596694 -400.397436 
L 149.093325 -400.569856 
L 149.589955 -386.664598 
L 150.086586 -398.87115 
L 150.583217 -394.932579 
L 151.079847 -408.255783 
L 151.576478 -387.892609 
L 152.073109 -420.717603 
L 157.039415 -407.176235 
L 162.005722 -397.008494 
L 166.972028 -390.261659 
L 171.938334 -393.985197 
L 176.904641 -409.613703 
L 181.870947 -385.820941 
L 186.837254 -375.571186 
L 191.80356 -384.451769 
L 216.635092 -348.674578 
L 241.466624 -347.648991 
L 266.298156 -323.407805 
L 291.129688 -340.120382 
L 315.961221 -337.828724 
L 340.792753 -296.249866 
L 365.624285 -294.204497 
L 390.455817 -252.47875 
L 415.287349 -227.150336 
L 440.118881 -199.167253 
L 464.950413 -91.767273 
L 464.950413 -220.731415 
L 464.950413 -220.731415 
L 440.118881 -306.977771 
L 415.287349 -325.0075 
L 390.455817 -349.181021 
L 365.624285 -380.508791 
L 340.792753 -383.479036 
L 315.961221 -402.959834 
L 291.129688 -414.188528 
L 266.298156 -424.358999 
L 241.466624 -424.105535 
L 216.635092 -432.456967 
L 191.80356 -465.808029 
L 186.837254 -442.632293 
L 181.870947 -450.046224 
L 176.904641 -445.443639 
L 171.938334 -458.019163 
L 166.972028 -470.901648 
L 162.005722 -470.91499 
L 157.039415 -474.703742 
L 152.073109 -487.112727 
L 151.576478 -445.575784 
L 151.079847 -458.35928 
L 150.583217 -467.53915 
L 150.086586 -473.195668 
L 149.589955 -448.330286 
L 149.093325 -459.721171 
L 148.596694 -472.977803 
L 148.100064 -428.966151 
L 147.603433 -445.662985 
L 147.106802 -463.936651 
L 146.610172 -467.88169 
L 146.113541 -472.095203 
L 145.61691 -431.516012 
L 145.12028 -472.742697 
L 144.623649 -442.422014 
L 144.127018 -447.651134 
L 143.630388 -450.371188 
L 143.133757 -472.862083 
L 142.637127 -449.096124 
L 142.140496 -457.24787 
z
" id="m4edc719118" style="stroke:#1f77b4;stroke-opacity:0.5;"/>
    </defs>
    <g clip-path="url(#p258356eac5)">
     <use style="fill:#1f77b4;fill-opacity:0.5;stroke:#1f77b4;stroke-opacity:0.5;" x="0" xlink:href="#m4edc719118" y="576"/>
    </g>
   </g>
   <g id="matplotlib.axis_1">
    <g id="xtick_1">
     <g id="line2d_1">
      <defs>
       <path d="M 0 0 
L 0 3.5 
" id="mdbe172cd16" style="stroke:#000000;stroke-width:0.8;"/>
      </defs>
      <g>
       <use style="stroke:#000000;stroke-width:0.8;" x="142.140496" xlink:href="#mdbe172cd16" y="504"/>
      </g>
     </g>
     <g id="text_1">
      <!-- 0.0 -->
      <g transform="translate(134.188933 518.598438)scale(0.1 -0.1)">
       <defs>
        <path d="M 2034 4250 
Q 1547 4250 1301 3770 
Q 1056 3291 1056 2328 
Q 1056 1369 1301 889 
Q 1547 409 2034 409 
Q 2525 409 2770 889 
Q 3016 1369 3016 2328 
Q 3016 3291 2770 3770 
Q 2525 4250 2034 4250 
z
M 2034 4750 
Q 2819 4750 3233 4129 
Q 3647 3509 3647 2328 
Q 3647 1150 3233 529 
Q 2819 -91 2034 -91 
Q 1250 -91 836 529 
Q 422 1150 422 2328 
Q 422 3509 836 4129 
Q 1250 4750 2034 4750 
z
" id="DejaVuSans-30" transform="scale(0.015625)"/>
        <path d="M 684 794 
L 1344 794 
L 1344 0 
L 684 0 
L 684 794 
z
" id="DejaVuSans-2e" transform="scale(0.015625)"/>
       </defs>
       <use xlink:href="#DejaVuSans-30"/>
       <use x="63.623047" xlink:href="#DejaVuSans-2e"/>
       <use x="95.410156" xlink:href="#DejaVuSans-30"/>
      </g>
     </g>
    </g>
    <g id="xtick_2">
     <g id="line2d_2">
      <g>
       <use style="stroke:#000000;stroke-width:0.8;" x="191.80356" xlink:href="#mdbe172cd16" y="504"/>
      </g>
     </g>
     <g id="text_2">
      <!-- 0.1 -->
      <g transform="translate(183.851998 518.598438)scale(0.1 -0.1)">
       <defs>
        <path d="M 794 531 
L 1825 531 
L 1825 4091 
L 703 3866 
L 703 4441 
L 1819 4666 
L 2450 4666 
L 2450 531 
L 3481 531 
L 3481 0 
L 794 0 
L 794 531 
z
" id="DejaVuSans-31" transform="scale(0.015625)"/>
       </defs>
       <use xlink:href="#DejaVuSans-30"/>
       <use x="63.623047" xlink:href="#DejaVuSans-2e"/>
       <use x="95.410156" xlink:href="#DejaVuSans-31"/>
      </g>
     </g>
    </g>
    <g id="xtick_3">
     <g id="line2d_3">
      <g>
       <use style="stroke:#000000;stroke-width:0.8;" x="241.466624" xlink:href="#mdbe172cd16" y="504"/>
      </g>
     </g>
     <g id="text_3">
      <!-- 0.2 -->
      <g transform="translate(233.515062 518.598438)scale(0.1 -0.1)">
       <defs>
        <path d="M 1228 531 
L 3431 531 
L 3431 0 
L 469 0 
L 469 531 
Q 828 903 1448 1529 
Q 2069 2156 2228 2338 
Q 2531 2678 2651 2914 
Q 2772 3150 2772 3378 
Q 2772 3750 2511 3984 
Q 2250 4219 1831 4219 
Q 1534 4219 1204 4116 
Q 875 4013 500 3803 
L 500 4441 
Q 881 4594 1212 4672 
Q 1544 4750 1819 4750 
Q 2544 4750 2975 4387 
Q 3406 4025 3406 3419 
Q 3406 3131 3298 2873 
Q 3191 2616 2906 2266 
Q 2828 2175 2409 1742 
Q 1991 1309 1228 531 
z
" id="DejaVuSans-32" transform="scale(0.015625)"/>
       </defs>
       <use xlink:href="#DejaVuSans-30"/>
       <use x="63.623047" xlink:href="#DejaVuSans-2e"/>
       <use x="95.410156" xlink:href="#DejaVuSans-32"/>
      </g>
     </g>
    </g>
    <g id="xtick_4">
     <g id="line2d_4">
      <g>
       <use style="stroke:#000000;stroke-width:0.8;" x="291.129688" xlink:href="#mdbe172cd16" y="504"/>
      </g>
     </g>
     <g id="text_4">
      <!-- 0.3 -->
      <g transform="translate(283.178126 518.598438)scale(0.1 -0.1)">
       <defs>
        <path d="M 2597 2516 
Q 3050 2419 3304 2112 
Q 3559 1806 3559 1356 
Q 3559 666 3084 287 
Q 2609 -91 1734 -91 
Q 1441 -91 1130 -33 
Q 819 25 488 141 
L 488 750 
Q 750 597 1062 519 
Q 1375 441 1716 441 
Q 2309 441 2620 675 
Q 2931 909 2931 1356 
Q 2931 1769 2642 2001 
Q 2353 2234 1838 2234 
L 1294 2234 
L 1294 2753 
L 1863 2753 
Q 2328 2753 2575 2939 
Q 2822 3125 2822 3475 
Q 2822 3834 2567 4026 
Q 2313 4219 1838 4219 
Q 1578 4219 1281 4162 
Q 984 4106 628 3988 
L 628 4550 
Q 988 4650 1302 4700 
Q 1616 4750 1894 4750 
Q 2613 4750 3031 4423 
Q 3450 4097 3450 3541 
Q 3450 3153 3228 2886 
Q 3006 2619 2597 2516 
z
" id="DejaVuSans-33" transform="scale(0.015625)"/>
       </defs>
       <use xlink:href="#DejaVuSans-30"/>
       <use x="63.623047" xlink:href="#DejaVuSans-2e"/>
       <use x="95.410156" xlink:href="#DejaVuSans-33"/>
      </g>
     </g>
    </g>
    <g id="xtick_5">
     <g id="line2d_5">
      <g>
       <use style="stroke:#000000;stroke-width:0.8;" x="340.792753" xlink:href="#mdbe172cd16" y="504"/>
      </g>
     </g>
     <g id="text_5">
      <!-- 0.4 -->
      <g transform="translate(332.84119 518.598438)scale(0.1 -0.1)">
       <defs>
        <path d="M 2419 4116 
L 825 1625 
L 2419 1625 
L 2419 4116 
z
M 2253 4666 
L 3047 4666 
L 3047 1625 
L 3713 1625 
L 3713 1100 
L 3047 1100 
L 3047 0 
L 2419 0 
L 2419 1100 
L 313 1100 
L 313 1709 
L 2253 4666 
z
" id="DejaVuSans-34" transform="scale(0.015625)"/>
       </defs>
       <use xlink:href="#DejaVuSans-30"/>
       <use x="63.623047" xlink:href="#DejaVuSans-2e"/>
       <use x="95.410156" xlink:href="#DejaVuSans-34"/>
      </g>
     </g>
    </g>
    <g id="xtick_6">
     <g id="line2d_6">
      <g>
       <use style="stroke:#000000;stroke-width:0.8;" x="390.455817" xlink:href="#mdbe172cd16" y="504"/>
      </g>
     </g>
     <g id="text_6">
      <!-- 0.5 -->
      <g transform="translate(382.504254 518.598438)scale(0.1 -0.1)">
       <defs>
        <path d="M 691 4666 
L 3169 4666 
L 3169 4134 
L 1269 4134 
L 1269 2991 
Q 1406 3038 1543 3061 
Q 1681 3084 1819 3084 
Q 2600 3084 3056 2656 
Q 3513 2228 3513 1497 
Q 3513 744 3044 326 
Q 2575 -91 1722 -91 
Q 1428 -91 1123 -41 
Q 819 9 494 109 
L 494 744 
Q 775 591 1075 516 
Q 1375 441 1709 441 
Q 2250 441 2565 725 
Q 2881 1009 2881 1497 
Q 2881 1984 2565 2268 
Q 2250 2553 1709 2553 
Q 1456 2553 1204 2497 
Q 953 2441 691 2322 
L 691 4666 
z
" id="DejaVuSans-35" transform="scale(0.015625)"/>
       </defs>
       <use xlink:href="#DejaVuSans-30"/>
       <use x="63.623047" xlink:href="#DejaVuSans-2e"/>
       <use x="95.410156" xlink:href="#DejaVuSans-35"/>
      </g>
     </g>
    </g>
    <g id="xtick_7">
     <g id="line2d_7">
      <g>
       <use style="stroke:#000000;stroke-width:0.8;" x="440.118881" xlink:href="#mdbe172cd16" y="504"/>
      </g>
     </g>
     <g id="text_7">
      <!-- 0.6 -->
      <g transform="translate(432.167319 518.598438)scale(0.1 -0.1)">
       <defs>
        <path d="M 2113 2584 
Q 1688 2584 1439 2293 
Q 1191 2003 1191 1497 
Q 1191 994 1439 701 
Q 1688 409 2113 409 
Q 2538 409 2786 701 
Q 3034 994 3034 1497 
Q 3034 2003 2786 2293 
Q 2538 2584 2113 2584 
z
M 3366 4563 
L 3366 3988 
Q 3128 4100 2886 4159 
Q 2644 4219 2406 4219 
Q 1781 4219 1451 3797 
Q 1122 3375 1075 2522 
Q 1259 2794 1537 2939 
Q 1816 3084 2150 3084 
Q 2853 3084 3261 2657 
Q 3669 2231 3669 1497 
Q 3669 778 3244 343 
Q 2819 -91 2113 -91 
Q 1303 -91 875 529 
Q 447 1150 447 2328 
Q 447 3434 972 4092 
Q 1497 4750 2381 4750 
Q 2619 4750 2861 4703 
Q 3103 4656 3366 4563 
z
" id="DejaVuSans-36" transform="scale(0.015625)"/>
       </defs>
       <use xlink:href="#DejaVuSans-30"/>
       <use x="63.623047" xlink:href="#DejaVuSans-2e"/>
       <use x="95.410156" xlink:href="#DejaVuSans-36"/>
      </g>
     </g>
    </g>
   </g>
   <g id="matplotlib.axis_2">
    <g id="ytick_1">
     <g id="line2d_8">
      <defs>
       <path d="M 0 0 
L -3.5 0 
" id="m0cca6ae2d5" style="stroke:#000000;stroke-width:0.8;"/>
      </defs>
      <g>
       <use style="stroke:#000000;stroke-width:0.8;" x="126" xlink:href="#m0cca6ae2d5" y="446.028115"/>
      </g>
     </g>
     <g id="text_8">
      <!-- 0.815 -->
      <g transform="translate(90.371875 449.827334)scale(0.1 -0.1)">
       <defs>
        <path d="M 2034 2216 
Q 1584 2216 1326 1975 
Q 1069 1734 1069 1313 
Q 1069 891 1326 650 
Q 1584 409 2034 409 
Q 2484 409 2743 651 
Q 3003 894 3003 1313 
Q 3003 1734 2745 1975 
Q 2488 2216 2034 2216 
z
M 1403 2484 
Q 997 2584 770 2862 
Q 544 3141 544 3541 
Q 544 4100 942 4425 
Q 1341 4750 2034 4750 
Q 2731 4750 3128 4425 
Q 3525 4100 3525 3541 
Q 3525 3141 3298 2862 
Q 3072 2584 2669 2484 
Q 3125 2378 3379 2068 
Q 3634 1759 3634 1313 
Q 3634 634 3220 271 
Q 2806 -91 2034 -91 
Q 1263 -91 848 271 
Q 434 634 434 1313 
Q 434 1759 690 2068 
Q 947 2378 1403 2484 
z
M 1172 3481 
Q 1172 3119 1398 2916 
Q 1625 2713 2034 2713 
Q 2441 2713 2670 2916 
Q 2900 3119 2900 3481 
Q 2900 3844 2670 4047 
Q 2441 4250 2034 4250 
Q 1625 4250 1398 4047 
Q 1172 3844 1172 3481 
z
" id="DejaVuSans-38" transform="scale(0.015625)"/>
       </defs>
       <use xlink:href="#DejaVuSans-30"/>
       <use x="63.623047" xlink:href="#DejaVuSans-2e"/>
       <use x="95.410156" xlink:href="#DejaVuSans-38"/>
       <use x="159.033203" xlink:href="#DejaVuSans-31"/>
       <use x="222.65625" xlink:href="#DejaVuSans-35"/>
      </g>
     </g>
    </g>
    <g id="ytick_2">
     <g id="line2d_9">
      <g>
       <use style="stroke:#000000;stroke-width:0.8;" x="126" xlink:href="#m0cca6ae2d5" y="363.924685"/>
      </g>
     </g>
     <g id="text_9">
      <!-- 0.820 -->
      <g transform="translate(90.371875 367.723904)scale(0.1 -0.1)">
       <use xlink:href="#DejaVuSans-30"/>
       <use x="63.623047" xlink:href="#DejaVuSans-2e"/>
       <use x="95.410156" xlink:href="#DejaVuSans-38"/>
       <use x="159.033203" xlink:href="#DejaVuSans-32"/>
       <use x="222.65625" xlink:href="#DejaVuSans-30"/>
      </g>
     </g>
    </g>
    <g id="ytick_3">
     <g id="line2d_10">
      <g>
       <use style="stroke:#000000;stroke-width:0.8;" x="126" xlink:href="#m0cca6ae2d5" y="281.821256"/>
      </g>
     </g>
     <g id="text_10">
      <!-- 0.825 -->
      <g transform="translate(90.371875 285.620474)scale(0.1 -0.1)">
       <use xlink:href="#DejaVuSans-30"/>
       <use x="63.623047" xlink:href="#DejaVuSans-2e"/>
       <use x="95.410156" xlink:href="#DejaVuSans-38"/>
       <use x="159.033203" xlink:href="#DejaVuSans-32"/>
       <use x="222.65625" xlink:href="#DejaVuSans-35"/>
      </g>
     </g>
    </g>
    <g id="ytick_4">
     <g id="line2d_11">
      <g>
       <use style="stroke:#000000;stroke-width:0.8;" x="126" xlink:href="#m0cca6ae2d5" y="199.717826"/>
      </g>
     </g>
     <g id="text_11">
      <!-- 0.830 -->
      <g transform="translate(90.371875 203.517044)scale(0.1 -0.1)">
       <use xlink:href="#DejaVuSans-30"/>
       <use x="63.623047" xlink:href="#DejaVuSans-2e"/>
       <use x="95.410156" xlink:href="#DejaVuSans-38"/>
       <use x="159.033203" xlink:href="#DejaVuSans-33"/>
       <use x="222.65625" xlink:href="#DejaVuSans-30"/>
      </g>
     </g>
    </g>
    <g id="ytick_5">
     <g id="line2d_12">
      <g>
       <use style="stroke:#000000;stroke-width:0.8;" x="126" xlink:href="#m0cca6ae2d5" y="117.614396"/>
      </g>
     </g>
     <g id="text_12">
      <!-- 0.835 -->
      <g transform="translate(90.371875 121.413614)scale(0.1 -0.1)">
       <use xlink:href="#DejaVuSans-30"/>
       <use x="63.623047" xlink:href="#DejaVuSans-2e"/>
       <use x="95.410156" xlink:href="#DejaVuSans-38"/>
       <use x="159.033203" xlink:href="#DejaVuSans-33"/>
       <use x="222.65625" xlink:href="#DejaVuSans-35"/>
      </g>
     </g>
    </g>
   </g>
   <g id="line2d_13">
    <path clip-path="url(#p258356eac5)" d="M 142.140496 147.708083 
L 142.637127 164.499488 
L 143.133757 147.490013 
L 143.630388 147.708083 
L 144.127018 161.664576 
L 144.623649 161.228435 
L 145.12028 149.234575 
L 145.61691 167.879577 
L 146.113541 138.331065 
L 146.610172 143.673784 
L 147.106802 143.78282 
L 147.603433 164.826594 
L 148.100064 170.496419 
L 148.596694 139.31238 
L 149.093325 145.854486 
L 149.589955 158.502558 
L 150.086586 139.966591 
L 150.583217 144.764135 
L 151.079847 142.692469 
L 151.576478 159.265804 
L 152.073109 122.084835 
L 157.039415 135.060012 
L 162.005722 142.038258 
L 166.972028 145.418346 
L 171.938334 149.99782 
L 176.904641 148.471329 
L 181.870947 158.066418 
L 186.837254 166.898261 
L 191.80356 150.870101 
L 216.635092 185.434228 
L 241.466624 190.122737 
L 266.298156 202.116598 
L 291.129688 198.845545 
L 315.961221 205.605721 
L 340.792753 236.135549 
L 365.624285 238.643356 
L 390.455817 275.170114 
L 415.287349 299.921082 
L 440.118881 322.927488 
L 464.950413 419.750656 
" style="fill:none;stroke:#1f77b4;stroke-linecap:square;stroke-width:1.5;"/>
    <defs>
     <path d="M 0 3 
C 0.795609 3 1.55874 2.683901 2.12132 2.12132 
C 2.683901 1.55874 3 0.795609 3 0 
C 3 -0.795609 2.683901 -1.55874 2.12132 -2.12132 
C 1.55874 -2.683901 0.795609 -3 0 -3 
C -0.795609 -3 -1.55874 -2.683901 -2.12132 -2.12132 
C -2.683901 -1.55874 -3 -0.795609 -3 0 
C -3 0.795609 -2.683901 1.55874 -2.12132 2.12132 
C -1.55874 2.683901 -0.795609 3 0 3 
z
" id="m4d67156418" style="stroke:#1f77b4;"/>
    </defs>
    <g clip-path="url(#p258356eac5)">
     <use style="fill:#1f77b4;stroke:#1f77b4;" x="142.140496" xlink:href="#m4d67156418" y="147.708083"/>
     <use style="fill:#1f77b4;stroke:#1f77b4;" x="142.637127" xlink:href="#m4d67156418" y="164.499488"/>
     <use style="fill:#1f77b4;stroke:#1f77b4;" x="143.133757" xlink:href="#m4d67156418" y="147.490013"/>
     <use style="fill:#1f77b4;stroke:#1f77b4;" x="143.630388" xlink:href="#m4d67156418" y="147.708083"/>
     <use style="fill:#1f77b4;stroke:#1f77b4;" x="144.127018" xlink:href="#m4d67156418" y="161.664576"/>
     <use style="fill:#1f77b4;stroke:#1f77b4;" x="144.623649" xlink:href="#m4d67156418" y="161.228435"/>
     <use style="fill:#1f77b4;stroke:#1f77b4;" x="145.12028" xlink:href="#m4d67156418" y="149.234575"/>
     <use style="fill:#1f77b4;stroke:#1f77b4;" x="145.61691" xlink:href="#m4d67156418" y="167.879577"/>
     <use style="fill:#1f77b4;stroke:#1f77b4;" x="146.113541" xlink:href="#m4d67156418" y="138.331065"/>
     <use style="fill:#1f77b4;stroke:#1f77b4;" x="146.610172" xlink:href="#m4d67156418" y="143.673784"/>
     <use style="fill:#1f77b4;stroke:#1f77b4;" x="147.106802" xlink:href="#m4d67156418" y="143.78282"/>
     <use style="fill:#1f77b4;stroke:#1f77b4;" x="147.603433" xlink:href="#m4d67156418" y="164.826594"/>
     <use style="fill:#1f77b4;stroke:#1f77b4;" x="148.100064" xlink:href="#m4d67156418" y="170.496419"/>
     <use style="fill:#1f77b4;stroke:#1f77b4;" x="148.596694" xlink:href="#m4d67156418" y="139.31238"/>
     <use style="fill:#1f77b4;stroke:#1f77b4;" x="149.093325" xlink:href="#m4d67156418" y="145.854486"/>
     <use style="fill:#1f77b4;stroke:#1f77b4;" x="149.589955" xlink:href="#m4d67156418" y="158.502558"/>
     <use style="fill:#1f77b4;stroke:#1f77b4;" x="150.086586" xlink:href="#m4d67156418" y="139.966591"/>
     <use style="fill:#1f77b4;stroke:#1f77b4;" x="150.583217" xlink:href="#m4d67156418" y="144.764135"/>
     <use style="fill:#1f77b4;stroke:#1f77b4;" x="151.079847" xlink:href="#m4d67156418" y="142.692469"/>
     <use style="fill:#1f77b4;stroke:#1f77b4;" x="151.576478" xlink:href="#m4d67156418" y="159.265804"/>
     <use style="fill:#1f77b4;stroke:#1f77b4;" x="152.073109" xlink:href="#m4d67156418" y="122.084835"/>
     <use style="fill:#1f77b4;stroke:#1f77b4;" x="157.039415" xlink:href="#m4d67156418" y="135.060012"/>
     <use style="fill:#1f77b4;stroke:#1f77b4;" x="162.005722" xlink:href="#m4d67156418" y="142.038258"/>
     <use style="fill:#1f77b4;stroke:#1f77b4;" x="166.972028" xlink:href="#m4d67156418" y="145.418346"/>
     <use style="fill:#1f77b4;stroke:#1f77b4;" x="171.938334" xlink:href="#m4d67156418" y="149.99782"/>
     <use style="fill:#1f77b4;stroke:#1f77b4;" x="176.904641" xlink:href="#m4d67156418" y="148.471329"/>
     <use style="fill:#1f77b4;stroke:#1f77b4;" x="181.870947" xlink:href="#m4d67156418" y="158.066418"/>
     <use style="fill:#1f77b4;stroke:#1f77b4;" x="186.837254" xlink:href="#m4d67156418" y="166.898261"/>
     <use style="fill:#1f77b4;stroke:#1f77b4;" x="191.80356" xlink:href="#m4d67156418" y="150.870101"/>
     <use style="fill:#1f77b4;stroke:#1f77b4;" x="216.635092" xlink:href="#m4d67156418" y="185.434228"/>
     <use style="fill:#1f77b4;stroke:#1f77b4;" x="241.466624" xlink:href="#m4d67156418" y="190.122737"/>
     <use style="fill:#1f77b4;stroke:#1f77b4;" x="266.298156" xlink:href="#m4d67156418" y="202.116598"/>
     <use style="fill:#1f77b4;stroke:#1f77b4;" x="291.129688" xlink:href="#m4d67156418" y="198.845545"/>
     <use style="fill:#1f77b4;stroke:#1f77b4;" x="315.961221" xlink:href="#m4d67156418" y="205.605721"/>
     <use style="fill:#1f77b4;stroke:#1f77b4;" x="340.792753" xlink:href="#m4d67156418" y="236.135549"/>
     <use style="fill:#1f77b4;stroke:#1f77b4;" x="365.624285" xlink:href="#m4d67156418" y="238.643356"/>
     <use style="fill:#1f77b4;stroke:#1f77b4;" x="390.455817" xlink:href="#m4d67156418" y="275.170114"/>
     <use style="fill:#1f77b4;stroke:#1f77b4;" x="415.287349" xlink:href="#m4d67156418" y="299.921082"/>
     <use style="fill:#1f77b4;stroke:#1f77b4;" x="440.118881" xlink:href="#m4d67156418" y="322.927488"/>
     <use style="fill:#1f77b4;stroke:#1f77b4;" x="464.950413" xlink:href="#m4d67156418" y="419.750656"/>
    </g>
   </g>
   <g id="patch_3">
    <path d="M 126 504 
L 126 69.12 
" style="fill:none;stroke:#000000;stroke-linecap:square;stroke-linejoin:miter;stroke-width:0.8;"/>
   </g>
   <g id="patch_4">
    <path d="M 481.090909 504 
L 481.090909 69.12 
" style="fill:none;stroke:#000000;stroke-linecap:square;stroke-linejoin:miter;stroke-width:0.8;"/>
   </g>
   <g id="patch_5">
    <path d="M 126 504 
L 481.090909 504 
" style="fill:none;stroke:#000000;stroke-linecap:square;stroke-linejoin:miter;stroke-width:0.8;"/>
   </g>
   <g id="patch_6">
    <path d="M 126 69.12 
L 481.090909 69.12 
" style="fill:none;stroke:#000000;stroke-linecap:square;stroke-linejoin:miter;stroke-width:0.8;"/>
   </g>
   <g id="legend_1">
    <g id="patch_7">
     <path d="M 318.390909 499 
L 474.090909 499 
Q 476.090909 499 476.090909 497 
L 476.090909 468.623438 
Q 476.090909 466.623438 474.090909 466.623438 
L 318.390909 466.623438 
Q 316.390909 466.623438 316.390909 468.623438 
L 316.390909 497 
Q 316.390909 499 318.390909 499 
z
" style="fill:#ffffff;opacity:0.8;stroke:#cccccc;stroke-linejoin:miter;"/>
    </g>
    <g id="line2d_14">
     <path d="M 320.390909 474.721875 
L 340.390909 474.721875 
" style="fill:none;stroke:#1f77b4;stroke-linecap:square;stroke-width:1.5;"/>
    </g>
    <g id="line2d_15">
     <g>
      <use style="fill:#1f77b4;stroke:#1f77b4;" x="330.390909" xlink:href="#m4d67156418" y="474.721875"/>
     </g>
    </g>
    <g id="text_13">
     <!-- Accuracy -->
     <g transform="translate(348.390909 478.221875)scale(0.1 -0.1)">
      <defs>
       <path d="M 2188 4044 
L 1331 1722 
L 3047 1722 
L 2188 4044 
z
M 1831 4666 
L 2547 4666 
L 4325 0 
L 3669 0 
L 3244 1197 
L 1141 1197 
L 716 0 
L 50 0 
L 1831 4666 
z
" id="DejaVuSans-41" transform="scale(0.015625)"/>
       <path d="M 3122 3366 
L 3122 2828 
Q 2878 2963 2633 3030 
Q 2388 3097 2138 3097 
Q 1578 3097 1268 2742 
Q 959 2388 959 1747 
Q 959 1106 1268 751 
Q 1578 397 2138 397 
Q 2388 397 2633 464 
Q 2878 531 3122 666 
L 3122 134 
Q 2881 22 2623 -34 
Q 2366 -91 2075 -91 
Q 1284 -91 818 406 
Q 353 903 353 1747 
Q 353 2603 823 3093 
Q 1294 3584 2113 3584 
Q 2378 3584 2631 3529 
Q 2884 3475 3122 3366 
z
" id="DejaVuSans-63" transform="scale(0.015625)"/>
       <path d="M 544 1381 
L 544 3500 
L 1119 3500 
L 1119 1403 
Q 1119 906 1312 657 
Q 1506 409 1894 409 
Q 2359 409 2629 706 
Q 2900 1003 2900 1516 
L 2900 3500 
L 3475 3500 
L 3475 0 
L 2900 0 
L 2900 538 
Q 2691 219 2414 64 
Q 2138 -91 1772 -91 
Q 1169 -91 856 284 
Q 544 659 544 1381 
z
M 1991 3584 
L 1991 3584 
z
" id="DejaVuSans-75" transform="scale(0.015625)"/>
       <path d="M 2631 2963 
Q 2534 3019 2420 3045 
Q 2306 3072 2169 3072 
Q 1681 3072 1420 2755 
Q 1159 2438 1159 1844 
L 1159 0 
L 581 0 
L 581 3500 
L 1159 3500 
L 1159 2956 
Q 1341 3275 1631 3429 
Q 1922 3584 2338 3584 
Q 2397 3584 2469 3576 
Q 2541 3569 2628 3553 
L 2631 2963 
z
" id="DejaVuSans-72" transform="scale(0.015625)"/>
       <path d="M 2194 1759 
Q 1497 1759 1228 1600 
Q 959 1441 959 1056 
Q 959 750 1161 570 
Q 1363 391 1709 391 
Q 2188 391 2477 730 
Q 2766 1069 2766 1631 
L 2766 1759 
L 2194 1759 
z
M 3341 1997 
L 3341 0 
L 2766 0 
L 2766 531 
Q 2569 213 2275 61 
Q 1981 -91 1556 -91 
Q 1019 -91 701 211 
Q 384 513 384 1019 
Q 384 1609 779 1909 
Q 1175 2209 1959 2209 
L 2766 2209 
L 2766 2266 
Q 2766 2663 2505 2880 
Q 2244 3097 1772 3097 
Q 1472 3097 1187 3025 
Q 903 2953 641 2809 
L 641 3341 
Q 956 3463 1253 3523 
Q 1550 3584 1831 3584 
Q 2591 3584 2966 3190 
Q 3341 2797 3341 1997 
z
" id="DejaVuSans-61" transform="scale(0.015625)"/>
       <path d="M 2059 -325 
Q 1816 -950 1584 -1140 
Q 1353 -1331 966 -1331 
L 506 -1331 
L 506 -850 
L 844 -850 
Q 1081 -850 1212 -737 
Q 1344 -625 1503 -206 
L 1606 56 
L 191 3500 
L 800 3500 
L 1894 763 
L 2988 3500 
L 3597 3500 
L 2059 -325 
z
" id="DejaVuSans-79" transform="scale(0.015625)"/>
      </defs>
      <use xlink:href="#DejaVuSans-41"/>
      <use x="66.658203" xlink:href="#DejaVuSans-63"/>
      <use x="121.638672" xlink:href="#DejaVuSans-63"/>
      <use x="176.619141" xlink:href="#DejaVuSans-75"/>
      <use x="239.998047" xlink:href="#DejaVuSans-72"/>
      <use x="281.111328" xlink:href="#DejaVuSans-61"/>
      <use x="342.390625" xlink:href="#DejaVuSans-63"/>
      <use x="397.371094" xlink:href="#DejaVuSans-79"/>
     </g>
    </g>
    <g id="patch_8">
     <path d="M 320.390909 492.9 
L 340.390909 492.9 
L 340.390909 485.9 
L 320.390909 485.9 
z
" style="fill:#1f77b4;fill-opacity:0.5;stroke:#1f77b4;stroke-linejoin:miter;stroke-opacity:0.5;"/>
    </g>
    <g id="text_14">
     <!-- Accuracy $\pm$ SD Accuracy -->
     <g transform="translate(348.390909 492.9)scale(0.1 -0.1)">
      <defs>
       <path id="DejaVuSans-20" transform="scale(0.015625)"/>
       <path d="M 2944 4013 
L 2944 2803 
L 4684 2803 
L 4684 2272 
L 2944 2272 
L 2944 1063 
L 2419 1063 
L 2419 2272 
L 678 2272 
L 678 2803 
L 2419 2803 
L 2419 4013 
L 2944 4013 
z
M 678 531 
L 4684 531 
L 4684 0 
L 678 0 
L 678 531 
z
" id="DejaVuSans-b1" transform="scale(0.015625)"/>
       <path d="M 3425 4513 
L 3425 3897 
Q 3066 4069 2747 4153 
Q 2428 4238 2131 4238 
Q 1616 4238 1336 4038 
Q 1056 3838 1056 3469 
Q 1056 3159 1242 3001 
Q 1428 2844 1947 2747 
L 2328 2669 
Q 3034 2534 3370 2195 
Q 3706 1856 3706 1288 
Q 3706 609 3251 259 
Q 2797 -91 1919 -91 
Q 1588 -91 1214 -16 
Q 841 59 441 206 
L 441 856 
Q 825 641 1194 531 
Q 1563 422 1919 422 
Q 2459 422 2753 634 
Q 3047 847 3047 1241 
Q 3047 1584 2836 1778 
Q 2625 1972 2144 2069 
L 1759 2144 
Q 1053 2284 737 2584 
Q 422 2884 422 3419 
Q 422 4038 858 4394 
Q 1294 4750 2059 4750 
Q 2388 4750 2728 4690 
Q 3069 4631 3425 4513 
z
" id="DejaVuSans-53" transform="scale(0.015625)"/>
       <path d="M 1259 4147 
L 1259 519 
L 2022 519 
Q 2988 519 3436 956 
Q 3884 1394 3884 2338 
Q 3884 3275 3436 3711 
Q 2988 4147 2022 4147 
L 1259 4147 
z
M 628 4666 
L 1925 4666 
Q 3281 4666 3915 4102 
Q 4550 3538 4550 2338 
Q 4550 1131 3912 565 
Q 3275 0 1925 0 
L 628 0 
L 628 4666 
z
" id="DejaVuSans-44" transform="scale(0.015625)"/>
      </defs>
      <use transform="translate(0 0.78125)" xlink:href="#DejaVuSans-41"/>
      <use transform="translate(68.408203 0.78125)" xlink:href="#DejaVuSans-63"/>
      <use transform="translate(123.388672 0.78125)" xlink:href="#DejaVuSans-63"/>
      <use transform="translate(178.369141 0.78125)" xlink:href="#DejaVuSans-75"/>
      <use transform="translate(241.748047 0.78125)" xlink:href="#DejaVuSans-72"/>
      <use transform="translate(282.861328 0.78125)" xlink:href="#DejaVuSans-61"/>
      <use transform="translate(344.140625 0.78125)" xlink:href="#DejaVuSans-63"/>
      <use transform="translate(399.121094 0.78125)" xlink:href="#DejaVuSans-79"/>
      <use transform="translate(458.300781 0.78125)" xlink:href="#DejaVuSans-20"/>
      <use transform="translate(490.087891 0.78125)" xlink:href="#DejaVuSans-b1"/>
      <use transform="translate(573.876953 0.78125)" xlink:href="#DejaVuSans-20"/>
      <use transform="translate(605.664062 0.78125)" xlink:href="#DejaVuSans-53"/>
      <use transform="translate(669.140625 0.78125)" xlink:href="#DejaVuSans-44"/>
      <use transform="translate(746.142578 0.78125)" xlink:href="#DejaVuSans-20"/>
      <use transform="translate(777.929688 0.78125)" xlink:href="#DejaVuSans-41"/>
      <use transform="translate(846.337891 0.78125)" xlink:href="#DejaVuSans-63"/>
      <use transform="translate(901.318359 0.78125)" xlink:href="#DejaVuSans-63"/>
      <use transform="translate(956.298828 0.78125)" xlink:href="#DejaVuSans-75"/>
      <use transform="translate(1019.677734 0.78125)" xlink:href="#DejaVuSans-72"/>
      <use transform="translate(1060.791016 0.78125)" xlink:href="#DejaVuSans-61"/>
      <use transform="translate(1122.070312 0.78125)" xlink:href="#DejaVuSans-63"/>
      <use transform="translate(1177.050781 0.78125)" xlink:href="#DejaVuSans-79"/>
     </g>
    </g>
   </g>
  </g>
  <g id="axes_2">
   <g id="patch_9">
    <path d="M 552.109091 504 
L 907.2 504 
L 907.2 69.12 
L 552.109091 69.12 
z
" style="fill:#ffffff;"/>
   </g>
   <g id="PolyCollection_2">
    <defs>
     <path d="M 568.249587 -449.550553 
L 568.249587 -397.177934 
L 568.746217 -386.401653 
L 569.242848 -387.276761 
L 569.739479 -405.423944 
L 570.236109 -399.173757 
L 570.73274 -421.029217 
L 571.229371 -392.610557 
L 571.726001 -397.44791 
L 572.222632 -413.608289 
L 572.719263 -417.322813 
L 573.215893 -408.527363 
L 573.712524 -406.108904 
L 574.209154 -401.516932 
L 574.705785 -409.178836 
L 575.202416 -421.19423 
L 575.699046 -413.417721 
L 576.195677 -408.593976 
L 576.692308 -411.578393 
L 577.188938 -389.792266 
L 577.685569 -400.096171 
L 578.1822 -413.828714 
L 583.148506 -418.791726 
L 588.114812 -407.248695 
L 593.081119 -404.393759 
L 598.047425 -386.819121 
L 603.013732 -407.430094 
L 607.980038 -398.973475 
L 612.946345 -388.840711 
L 617.912651 -395.774333 
L 642.744183 -395.034024 
L 667.575715 -386.770252 
L 692.407247 -371.609375 
L 717.238779 -365.193244 
L 742.070312 -349.06669 
L 766.901844 -342.057858 
L 791.733376 -315.193071 
L 816.564908 -322.602137 
L 841.39644 -274.919764 
L 866.227972 -194.900408 
L 891.059504 -91.767273 
L 891.059504 -307.4982 
L 891.059504 -307.4982 
L 866.227972 -369.31773 
L 841.39644 -341.35895 
L 816.564908 -371.423985 
L 791.733376 -365.993577 
L 766.901844 -405.422514 
L 742.070312 -412.1551 
L 717.238779 -410.768624 
L 692.407247 -433.891564 
L 667.575715 -437.139239 
L 642.744183 -421.800825 
L 617.912651 -446.795813 
L 612.946345 -432.811718 
L 607.980038 -440.523525 
L 603.013732 -445.479244 
L 598.047425 -444.759775 
L 593.081119 -454.106286 
L 588.114812 -464.593893 
L 583.148506 -471.258316 
L 578.1822 -456.051385 
L 577.685569 -460.072708 
L 577.188938 -458.062187 
L 576.692308 -443.115205 
L 576.195677 -465.644617 
L 575.699046 -452.037841 
L 575.202416 -456.51012 
L 574.705785 -451.094426 
L 574.209154 -436.385809 
L 573.712524 -487.112727 
L 573.215893 -441.24762 
L 572.719263 -461.95749 
L 572.222632 -453.409996 
L 571.726001 -447.597622 
L 571.229371 -453.289669 
L 570.73274 -442.099758 
L 570.236109 -463.428658 
L 569.739479 -448.547127 
L 569.242848 -463.608825 
L 568.746217 -461.132307 
L 568.249587 -449.550553 
z
" id="m6ca00849bf" style="stroke:#1f77b4;stroke-opacity:0.5;"/>
    </defs>
    <g clip-path="url(#pc1a5904c24)">
     <use style="fill:#1f77b4;fill-opacity:0.5;stroke:#1f77b4;stroke-opacity:0.5;" x="0" xlink:href="#m6ca00849bf" y="576"/>
    </g>
   </g>
   <g id="matplotlib.axis_3">
    <g id="xtick_8">
     <g id="line2d_16">
      <g>
       <use style="stroke:#000000;stroke-width:0.8;" x="568.249587" xlink:href="#mdbe172cd16" y="504"/>
      </g>
     </g>
     <g id="text_15">
      <!-- 0.0 -->
      <g transform="translate(560.298024 518.598438)scale(0.1 -0.1)">
       <use xlink:href="#DejaVuSans-30"/>
       <use x="63.623047" xlink:href="#DejaVuSans-2e"/>
       <use x="95.410156" xlink:href="#DejaVuSans-30"/>
      </g>
     </g>
    </g>
    <g id="xtick_9">
     <g id="line2d_17">
      <g>
       <use style="stroke:#000000;stroke-width:0.8;" x="617.912651" xlink:href="#mdbe172cd16" y="504"/>
      </g>
     </g>
     <g id="text_16">
      <!-- 0.1 -->
      <g transform="translate(609.961088 518.598438)scale(0.1 -0.1)">
       <use xlink:href="#DejaVuSans-30"/>
       <use x="63.623047" xlink:href="#DejaVuSans-2e"/>
       <use x="95.410156" xlink:href="#DejaVuSans-31"/>
      </g>
     </g>
    </g>
    <g id="xtick_10">
     <g id="line2d_18">
      <g>
       <use style="stroke:#000000;stroke-width:0.8;" x="667.575715" xlink:href="#mdbe172cd16" y="504"/>
      </g>
     </g>
     <g id="text_17">
      <!-- 0.2 -->
      <g transform="translate(659.624153 518.598438)scale(0.1 -0.1)">
       <use xlink:href="#DejaVuSans-30"/>
       <use x="63.623047" xlink:href="#DejaVuSans-2e"/>
       <use x="95.410156" xlink:href="#DejaVuSans-32"/>
      </g>
     </g>
    </g>
    <g id="xtick_11">
     <g id="line2d_19">
      <g>
       <use style="stroke:#000000;stroke-width:0.8;" x="717.238779" xlink:href="#mdbe172cd16" y="504"/>
      </g>
     </g>
     <g id="text_18">
      <!-- 0.3 -->
      <g transform="translate(709.287217 518.598438)scale(0.1 -0.1)">
       <use xlink:href="#DejaVuSans-30"/>
       <use x="63.623047" xlink:href="#DejaVuSans-2e"/>
       <use x="95.410156" xlink:href="#DejaVuSans-33"/>
      </g>
     </g>
    </g>
    <g id="xtick_12">
     <g id="line2d_20">
      <g>
       <use style="stroke:#000000;stroke-width:0.8;" x="766.901844" xlink:href="#mdbe172cd16" y="504"/>
      </g>
     </g>
     <g id="text_19">
      <!-- 0.4 -->
      <g transform="translate(758.950281 518.598438)scale(0.1 -0.1)">
       <use xlink:href="#DejaVuSans-30"/>
       <use x="63.623047" xlink:href="#DejaVuSans-2e"/>
       <use x="95.410156" xlink:href="#DejaVuSans-34"/>
      </g>
     </g>
    </g>
    <g id="xtick_13">
     <g id="line2d_21">
      <g>
       <use style="stroke:#000000;stroke-width:0.8;" x="816.564908" xlink:href="#mdbe172cd16" y="504"/>
      </g>
     </g>
     <g id="text_20">
      <!-- 0.5 -->
      <g transform="translate(808.613345 518.598438)scale(0.1 -0.1)">
       <use xlink:href="#DejaVuSans-30"/>
       <use x="63.623047" xlink:href="#DejaVuSans-2e"/>
       <use x="95.410156" xlink:href="#DejaVuSans-35"/>
      </g>
     </g>
    </g>
    <g id="xtick_14">
     <g id="line2d_22">
      <g>
       <use style="stroke:#000000;stroke-width:0.8;" x="866.227972" xlink:href="#mdbe172cd16" y="504"/>
      </g>
     </g>
     <g id="text_21">
      <!-- 0.6 -->
      <g transform="translate(858.27641 518.598438)scale(0.1 -0.1)">
       <use xlink:href="#DejaVuSans-30"/>
       <use x="63.623047" xlink:href="#DejaVuSans-2e"/>
       <use x="95.410156" xlink:href="#DejaVuSans-36"/>
      </g>
     </g>
    </g>
   </g>
   <g id="matplotlib.axis_4">
    <g id="ytick_6">
     <g id="line2d_23">
      <g>
       <use style="stroke:#000000;stroke-width:0.8;" x="552.109091" xlink:href="#m0cca6ae2d5" y="447.334076"/>
      </g>
     </g>
     <g id="text_22">
      <!-- 0.855 -->
      <g transform="translate(516.480966 451.133295)scale(0.1 -0.1)">
       <use xlink:href="#DejaVuSans-30"/>
       <use x="63.623047" xlink:href="#DejaVuSans-2e"/>
       <use x="95.410156" xlink:href="#DejaVuSans-38"/>
       <use x="159.033203" xlink:href="#DejaVuSans-35"/>
       <use x="222.65625" xlink:href="#DejaVuSans-35"/>
      </g>
     </g>
    </g>
    <g id="ytick_7">
     <g id="line2d_24">
      <g>
       <use style="stroke:#000000;stroke-width:0.8;" x="552.109091" xlink:href="#m0cca6ae2d5" y="390.590273"/>
      </g>
     </g>
     <g id="text_23">
      <!-- 0.860 -->
      <g transform="translate(516.480966 394.389491)scale(0.1 -0.1)">
       <use xlink:href="#DejaVuSans-30"/>
       <use x="63.623047" xlink:href="#DejaVuSans-2e"/>
       <use x="95.410156" xlink:href="#DejaVuSans-38"/>
       <use x="159.033203" xlink:href="#DejaVuSans-36"/>
       <use x="222.65625" xlink:href="#DejaVuSans-30"/>
      </g>
     </g>
    </g>
    <g id="ytick_8">
     <g id="line2d_25">
      <g>
       <use style="stroke:#000000;stroke-width:0.8;" x="552.109091" xlink:href="#m0cca6ae2d5" y="333.846469"/>
      </g>
     </g>
     <g id="text_24">
      <!-- 0.865 -->
      <g transform="translate(516.480966 337.645688)scale(0.1 -0.1)">
       <use xlink:href="#DejaVuSans-30"/>
       <use x="63.623047" xlink:href="#DejaVuSans-2e"/>
       <use x="95.410156" xlink:href="#DejaVuSans-38"/>
       <use x="159.033203" xlink:href="#DejaVuSans-36"/>
       <use x="222.65625" xlink:href="#DejaVuSans-35"/>
      </g>
     </g>
    </g>
    <g id="ytick_9">
     <g id="line2d_26">
      <g>
       <use style="stroke:#000000;stroke-width:0.8;" x="552.109091" xlink:href="#m0cca6ae2d5" y="277.102666"/>
      </g>
     </g>
     <g id="text_25">
      <!-- 0.870 -->
      <g transform="translate(516.480966 280.901884)scale(0.1 -0.1)">
       <defs>
        <path d="M 525 4666 
L 3525 4666 
L 3525 4397 
L 1831 0 
L 1172 0 
L 2766 4134 
L 525 4134 
L 525 4666 
z
" id="DejaVuSans-37" transform="scale(0.015625)"/>
       </defs>
       <use xlink:href="#DejaVuSans-30"/>
       <use x="63.623047" xlink:href="#DejaVuSans-2e"/>
       <use x="95.410156" xlink:href="#DejaVuSans-38"/>
       <use x="159.033203" xlink:href="#DejaVuSans-37"/>
       <use x="222.65625" xlink:href="#DejaVuSans-30"/>
      </g>
     </g>
    </g>
    <g id="ytick_10">
     <g id="line2d_27">
      <g>
       <use style="stroke:#000000;stroke-width:0.8;" x="552.109091" xlink:href="#m0cca6ae2d5" y="220.358862"/>
      </g>
     </g>
     <g id="text_26">
      <!-- 0.875 -->
      <g transform="translate(516.480966 224.158081)scale(0.1 -0.1)">
       <use xlink:href="#DejaVuSans-30"/>
       <use x="63.623047" xlink:href="#DejaVuSans-2e"/>
       <use x="95.410156" xlink:href="#DejaVuSans-38"/>
       <use x="159.033203" xlink:href="#DejaVuSans-37"/>
       <use x="222.65625" xlink:href="#DejaVuSans-35"/>
      </g>
     </g>
    </g>
    <g id="ytick_11">
     <g id="line2d_28">
      <g>
       <use style="stroke:#000000;stroke-width:0.8;" x="552.109091" xlink:href="#m0cca6ae2d5" y="163.615059"/>
      </g>
     </g>
     <g id="text_27">
      <!-- 0.880 -->
      <g transform="translate(516.480966 167.414278)scale(0.1 -0.1)">
       <use xlink:href="#DejaVuSans-30"/>
       <use x="63.623047" xlink:href="#DejaVuSans-2e"/>
       <use x="95.410156" xlink:href="#DejaVuSans-38"/>
       <use x="159.033203" xlink:href="#DejaVuSans-38"/>
       <use x="222.65625" xlink:href="#DejaVuSans-30"/>
      </g>
     </g>
    </g>
    <g id="ytick_12">
     <g id="line2d_29">
      <g>
       <use style="stroke:#000000;stroke-width:0.8;" x="552.109091" xlink:href="#m0cca6ae2d5" y="106.871255"/>
      </g>
     </g>
     <g id="text_28">
      <!-- 0.885 -->
      <g transform="translate(516.480966 110.670474)scale(0.1 -0.1)">
       <use xlink:href="#DejaVuSans-30"/>
       <use x="63.623047" xlink:href="#DejaVuSans-2e"/>
       <use x="95.410156" xlink:href="#DejaVuSans-38"/>
       <use x="159.033203" xlink:href="#DejaVuSans-38"/>
       <use x="222.65625" xlink:href="#DejaVuSans-35"/>
      </g>
     </g>
    </g>
   </g>
   <g id="line2d_30">
    <path clip-path="url(#pc1a5904c24)" d="M 568.249587 152.635757 
L 568.746217 152.23302 
L 569.242848 150.557207 
L 569.739479 149.014465 
L 570.236109 144.698793 
L 570.73274 144.435513 
L 571.229371 153.049887 
L 571.726001 153.477234 
L 572.222632 142.490858 
L 572.719263 136.359849 
L 573.215893 151.112508 
L 573.712524 129.389184 
L 574.209154 157.04863 
L 574.705785 145.863369 
L 575.202416 137.147825 
L 575.699046 143.272219 
L 576.195677 138.880703 
L 576.692308 148.653201 
L 577.188938 152.072774 
L 577.685569 145.915561 
L 578.1822 141.059951 
L 583.148506 130.974979 
L 588.114812 140.078706 
L 593.081119 146.749978 
L 598.047425 160.210552 
L 603.013732 149.545331 
L 607.980038 156.2515 
L 612.946345 165.173785 
L 617.912651 154.714927 
L 642.744183 167.582576 
L 667.575715 164.045254 
L 692.407247 173.249531 
L 717.238779 188.019066 
L 742.070312 195.389105 
L 766.901844 202.259814 
L 791.733376 235.406676 
L 816.564908 228.986939 
L 841.39644 267.860643 
L 866.227972 293.890931 
L 891.059504 376.367264 
" style="fill:none;stroke:#1f77b4;stroke-linecap:square;stroke-width:1.5;"/>
    <g clip-path="url(#pc1a5904c24)">
     <use style="fill:#1f77b4;stroke:#1f77b4;" x="568.249587" xlink:href="#m4d67156418" y="152.635757"/>
     <use style="fill:#1f77b4;stroke:#1f77b4;" x="568.746217" xlink:href="#m4d67156418" y="152.23302"/>
     <use style="fill:#1f77b4;stroke:#1f77b4;" x="569.242848" xlink:href="#m4d67156418" y="150.557207"/>
     <use style="fill:#1f77b4;stroke:#1f77b4;" x="569.739479" xlink:href="#m4d67156418" y="149.014465"/>
     <use style="fill:#1f77b4;stroke:#1f77b4;" x="570.236109" xlink:href="#m4d67156418" y="144.698793"/>
     <use style="fill:#1f77b4;stroke:#1f77b4;" x="570.73274" xlink:href="#m4d67156418" y="144.435513"/>
     <use style="fill:#1f77b4;stroke:#1f77b4;" x="571.229371" xlink:href="#m4d67156418" y="153.049887"/>
     <use style="fill:#1f77b4;stroke:#1f77b4;" x="571.726001" xlink:href="#m4d67156418" y="153.477234"/>
     <use style="fill:#1f77b4;stroke:#1f77b4;" x="572.222632" xlink:href="#m4d67156418" y="142.490858"/>
     <use style="fill:#1f77b4;stroke:#1f77b4;" x="572.719263" xlink:href="#m4d67156418" y="136.359849"/>
     <use style="fill:#1f77b4;stroke:#1f77b4;" x="573.215893" xlink:href="#m4d67156418" y="151.112508"/>
     <use style="fill:#1f77b4;stroke:#1f77b4;" x="573.712524" xlink:href="#m4d67156418" y="129.389184"/>
     <use style="fill:#1f77b4;stroke:#1f77b4;" x="574.209154" xlink:href="#m4d67156418" y="157.04863"/>
     <use style="fill:#1f77b4;stroke:#1f77b4;" x="574.705785" xlink:href="#m4d67156418" y="145.863369"/>
     <use style="fill:#1f77b4;stroke:#1f77b4;" x="575.202416" xlink:href="#m4d67156418" y="137.147825"/>
     <use style="fill:#1f77b4;stroke:#1f77b4;" x="575.699046" xlink:href="#m4d67156418" y="143.272219"/>
     <use style="fill:#1f77b4;stroke:#1f77b4;" x="576.195677" xlink:href="#m4d67156418" y="138.880703"/>
     <use style="fill:#1f77b4;stroke:#1f77b4;" x="576.692308" xlink:href="#m4d67156418" y="148.653201"/>
     <use style="fill:#1f77b4;stroke:#1f77b4;" x="577.188938" xlink:href="#m4d67156418" y="152.072774"/>
     <use style="fill:#1f77b4;stroke:#1f77b4;" x="577.685569" xlink:href="#m4d67156418" y="145.915561"/>
     <use style="fill:#1f77b4;stroke:#1f77b4;" x="578.1822" xlink:href="#m4d67156418" y="141.059951"/>
     <use style="fill:#1f77b4;stroke:#1f77b4;" x="583.148506" xlink:href="#m4d67156418" y="130.974979"/>
     <use style="fill:#1f77b4;stroke:#1f77b4;" x="588.114812" xlink:href="#m4d67156418" y="140.078706"/>
     <use style="fill:#1f77b4;stroke:#1f77b4;" x="593.081119" xlink:href="#m4d67156418" y="146.749978"/>
     <use style="fill:#1f77b4;stroke:#1f77b4;" x="598.047425" xlink:href="#m4d67156418" y="160.210552"/>
     <use style="fill:#1f77b4;stroke:#1f77b4;" x="603.013732" xlink:href="#m4d67156418" y="149.545331"/>
     <use style="fill:#1f77b4;stroke:#1f77b4;" x="607.980038" xlink:href="#m4d67156418" y="156.2515"/>
     <use style="fill:#1f77b4;stroke:#1f77b4;" x="612.946345" xlink:href="#m4d67156418" y="165.173785"/>
     <use style="fill:#1f77b4;stroke:#1f77b4;" x="617.912651" xlink:href="#m4d67156418" y="154.714927"/>
     <use style="fill:#1f77b4;stroke:#1f77b4;" x="642.744183" xlink:href="#m4d67156418" y="167.582576"/>
     <use style="fill:#1f77b4;stroke:#1f77b4;" x="667.575715" xlink:href="#m4d67156418" y="164.045254"/>
     <use style="fill:#1f77b4;stroke:#1f77b4;" x="692.407247" xlink:href="#m4d67156418" y="173.249531"/>
     <use style="fill:#1f77b4;stroke:#1f77b4;" x="717.238779" xlink:href="#m4d67156418" y="188.019066"/>
     <use style="fill:#1f77b4;stroke:#1f77b4;" x="742.070312" xlink:href="#m4d67156418" y="195.389105"/>
     <use style="fill:#1f77b4;stroke:#1f77b4;" x="766.901844" xlink:href="#m4d67156418" y="202.259814"/>
     <use style="fill:#1f77b4;stroke:#1f77b4;" x="791.733376" xlink:href="#m4d67156418" y="235.406676"/>
     <use style="fill:#1f77b4;stroke:#1f77b4;" x="816.564908" xlink:href="#m4d67156418" y="228.986939"/>
     <use style="fill:#1f77b4;stroke:#1f77b4;" x="841.39644" xlink:href="#m4d67156418" y="267.860643"/>
     <use style="fill:#1f77b4;stroke:#1f77b4;" x="866.227972" xlink:href="#m4d67156418" y="293.890931"/>
     <use style="fill:#1f77b4;stroke:#1f77b4;" x="891.059504" xlink:href="#m4d67156418" y="376.367264"/>
    </g>
   </g>
   <g id="patch_10">
    <path d="M 552.109091 504 
L 552.109091 69.12 
" style="fill:none;stroke:#000000;stroke-linecap:square;stroke-linejoin:miter;stroke-width:0.8;"/>
   </g>
   <g id="patch_11">
    <path d="M 907.2 504 
L 907.2 69.12 
" style="fill:none;stroke:#000000;stroke-linecap:square;stroke-linejoin:miter;stroke-width:0.8;"/>
   </g>
   <g id="patch_12">
    <path d="M 552.109091 504 
L 907.2 504 
" style="fill:none;stroke:#000000;stroke-linecap:square;stroke-linejoin:miter;stroke-width:0.8;"/>
   </g>
   <g id="patch_13">
    <path d="M 552.109091 69.12 
L 907.2 69.12 
" style="fill:none;stroke:#000000;stroke-linecap:square;stroke-linejoin:miter;stroke-width:0.8;"/>
   </g>
   <g id="legend_2">
    <g id="patch_14">
     <path d="M 793.9 499 
L 900.2 499 
Q 902.2 499 902.2 497 
L 902.2 468.64375 
Q 902.2 466.64375 900.2 466.64375 
L 793.9 466.64375 
Q 791.9 466.64375 791.9 468.64375 
L 791.9 497 
Q 791.9 499 793.9 499 
z
" style="fill:#ffffff;opacity:0.8;stroke:#cccccc;stroke-linejoin:miter;"/>
    </g>
    <g id="line2d_31">
     <path d="M 795.9 474.742188 
L 815.9 474.742188 
" style="fill:none;stroke:#1f77b4;stroke-linecap:square;stroke-width:1.5;"/>
    </g>
    <g id="line2d_32">
     <g>
      <use style="fill:#1f77b4;stroke:#1f77b4;" x="805.9" xlink:href="#m4d67156418" y="474.742188"/>
     </g>
    </g>
    <g id="text_29">
     <!-- AUC -->
     <g transform="translate(823.9 478.242188)scale(0.1 -0.1)">
      <defs>
       <path d="M 556 4666 
L 1191 4666 
L 1191 1831 
Q 1191 1081 1462 751 
Q 1734 422 2344 422 
Q 2950 422 3222 751 
Q 3494 1081 3494 1831 
L 3494 4666 
L 4128 4666 
L 4128 1753 
Q 4128 841 3676 375 
Q 3225 -91 2344 -91 
Q 1459 -91 1007 375 
Q 556 841 556 1753 
L 556 4666 
z
" id="DejaVuSans-55" transform="scale(0.015625)"/>
       <path d="M 4122 4306 
L 4122 3641 
Q 3803 3938 3442 4084 
Q 3081 4231 2675 4231 
Q 1875 4231 1450 3742 
Q 1025 3253 1025 2328 
Q 1025 1406 1450 917 
Q 1875 428 2675 428 
Q 3081 428 3442 575 
Q 3803 722 4122 1019 
L 4122 359 
Q 3791 134 3420 21 
Q 3050 -91 2638 -91 
Q 1578 -91 968 557 
Q 359 1206 359 2328 
Q 359 3453 968 4101 
Q 1578 4750 2638 4750 
Q 3056 4750 3426 4639 
Q 3797 4528 4122 4306 
z
" id="DejaVuSans-43" transform="scale(0.015625)"/>
      </defs>
      <use xlink:href="#DejaVuSans-41"/>
      <use x="68.408203" xlink:href="#DejaVuSans-55"/>
      <use x="141.601562" xlink:href="#DejaVuSans-43"/>
     </g>
    </g>
    <g id="patch_15">
     <path d="M 795.9 492.920313 
L 815.9 492.920313 
L 815.9 485.920313 
L 795.9 485.920313 
z
" style="fill:#1f77b4;fill-opacity:0.5;stroke:#1f77b4;stroke-linejoin:miter;stroke-opacity:0.5;"/>
    </g>
    <g id="text_30">
     <!-- AUC $\pm$ SD AUC -->
     <g transform="translate(823.9 492.920313)scale(0.1 -0.1)">
      <use transform="translate(0 0.78125)" xlink:href="#DejaVuSans-41"/>
      <use transform="translate(68.408203 0.78125)" xlink:href="#DejaVuSans-55"/>
      <use transform="translate(141.601562 0.78125)" xlink:href="#DejaVuSans-43"/>
      <use transform="translate(211.425781 0.78125)" xlink:href="#DejaVuSans-20"/>
      <use transform="translate(243.212891 0.78125)" xlink:href="#DejaVuSans-b1"/>
      <use transform="translate(327.001953 0.78125)" xlink:href="#DejaVuSans-20"/>
      <use transform="translate(358.789062 0.78125)" xlink:href="#DejaVuSans-53"/>
      <use transform="translate(422.265625 0.78125)" xlink:href="#DejaVuSans-44"/>
      <use transform="translate(499.267578 0.78125)" xlink:href="#DejaVuSans-20"/>
      <use transform="translate(531.054688 0.78125)" xlink:href="#DejaVuSans-41"/>
      <use transform="translate(599.462891 0.78125)" xlink:href="#DejaVuSans-55"/>
      <use transform="translate(672.65625 0.78125)" xlink:href="#DejaVuSans-43"/>
     </g>
    </g>
   </g>
  </g>
 </g>
 <defs>
  <clipPath id="p258356eac5">
   <rect height="434.88" width="355.090909" x="126" y="69.12"/>
  </clipPath>
  <clipPath id="pc1a5904c24">
   <rect height="434.88" width="355.090909" x="552.109091" y="69.12"/>
  </clipPath>
 </defs>
</svg>
