<?xml version="1.0" encoding="utf-8" standalone="no"?>
<!DOCTYPE svg PUBLIC "-//W3C//DTD SVG 1.1//EN"
  "http://www.w3.org/Graphics/SVG/1.1/DTD/svg11.dtd">
<svg height="501.47677pt" version="1.1" viewBox="0 0 835.189687 501.47677" width="835.189687pt" xmlns="http://www.w3.org/2000/svg" xmlns:xlink="http://www.w3.org/1999/xlink">
 <metadata>
  <rdf:RDF xmlns:cc="http://creativecommons.org/ns#" xmlns:dc="http://purl.org/dc/elements/1.1/" xmlns:rdf="http://www.w3.org/1999/02/22-rdf-syntax-ns#">
   <cc:Work>
    <dc:type rdf:resource="http://purl.org/dc/dcmitype/StillImage"/>
    <dc:date>2022-05-06T15:51:10.374079</dc:date>
    <dc:format>image/svg+xml</dc:format>
    <dc:creator>
     <cc:Agent>
      <dc:title>Matplotlib v3.4.3, https://matplotlib.org/</dc:title>
     </cc:Agent>
    </dc:creator>
   </cc:Work>
  </rdf:RDF>
 </metadata>
 <defs>
  <style type="text/css">*{stroke-linecap:butt;stroke-linejoin:round;}</style>
 </defs>
 <g id="figure_1">
  <g id="patch_1">
   <path d="M 0 501.47677 
L 835.189687 501.47677 
L 835.189687 0 
L 0 0 
z
" style="fill:#ffffff;stroke:#ffffff;stroke-linejoin:miter;"/>
  </g>
  <g id="axes_1">
   <g id="patch_2">
    <path d="M 46.789688 234.334082 
L 410.138525 234.334082 
L 410.138525 22.244082 
L 46.789688 22.244082 
z
" style="fill:#ebebeb;"/>
   </g>
   <g id="matplotlib.axis_1">
    <g id="xtick_1">
     <g id="line2d_1">
      <path clip-path="url(#pbbbf771d52)" d="M 58.062415 234.334082 
L 58.062415 22.244082 
" style="fill:none;stroke:#ffffff;"/>
     </g>
    </g>
    <g id="xtick_2">
     <g id="line2d_2">
      <path clip-path="url(#pbbbf771d52)" d="M 139.986305 234.334082 
L 139.986305 22.244082 
" style="fill:none;stroke:#ffffff;"/>
     </g>
    </g>
    <g id="xtick_3">
     <g id="line2d_3">
      <path clip-path="url(#pbbbf771d52)" d="M 221.910195 234.334082 
L 221.910195 22.244082 
" style="fill:none;stroke:#ffffff;"/>
     </g>
    </g>
    <g id="xtick_4">
     <g id="line2d_4">
      <path clip-path="url(#pbbbf771d52)" d="M 303.834085 234.334082 
L 303.834085 22.244082 
" style="fill:none;stroke:#ffffff;"/>
     </g>
    </g>
    <g id="xtick_5">
     <g id="line2d_5">
      <path clip-path="url(#pbbbf771d52)" d="M 385.757975 234.334082 
L 385.757975 22.244082 
" style="fill:none;stroke:#ffffff;"/>
     </g>
    </g>
    <g id="xtick_6">
     <g id="line2d_6">
      <path clip-path="url(#pbbbf771d52)" d="M 99.02436 234.334082 
L 99.02436 22.244082 
" style="fill:none;stroke:#ffffff;stroke-width:0.5;"/>
     </g>
    </g>
    <g id="xtick_7">
     <g id="line2d_7">
      <path clip-path="url(#pbbbf771d52)" d="M 180.94825 234.334082 
L 180.94825 22.244082 
" style="fill:none;stroke:#ffffff;stroke-width:0.5;"/>
     </g>
    </g>
    <g id="xtick_8">
     <g id="line2d_8">
      <path clip-path="url(#pbbbf771d52)" d="M 262.87214 234.334082 
L 262.87214 22.244082 
" style="fill:none;stroke:#ffffff;stroke-width:0.5;"/>
     </g>
    </g>
    <g id="xtick_9">
     <g id="line2d_9">
      <path clip-path="url(#pbbbf771d52)" d="M 344.79603 234.334082 
L 344.79603 22.244082 
" style="fill:none;stroke:#ffffff;stroke-width:0.5;"/>
     </g>
    </g>
   </g>
   <g id="matplotlib.axis_2">
    <g id="ytick_1">
     <g id="line2d_10">
      <path clip-path="url(#pbbbf771d52)" d="M 46.789688 219.627427 
L 410.138525 219.627427 
" style="fill:none;stroke:#ffffff;"/>
     </g>
     <g id="line2d_11">
      <path d="M 46.789688 219.627427 
" style="fill:none;stroke:#333333;stroke-width:1.5;"/>
      <defs>
       <path d="M 0 0 
L -2.75 0 
" id="m3f21b9299f" style="stroke:#000000;"/>
      </defs>
      <g>
       <use style="fill:#333333;stroke:#000000;" x="46.789688" xlink:href="#m3f21b9299f" y="219.627427"/>
      </g>
     </g>
     <g id="text_1">
      <!-- 0.80 -->
      <g style="fill:#4d4d4d;" transform="translate(22.245938 222.055677)scale(0.088 -0.088)">
       <defs>
        <path d="M 2034 4250 
Q 1547 4250 1301 3770 
Q 1056 3291 1056 2328 
Q 1056 1369 1301 889 
Q 1547 409 2034 409 
Q 2525 409 2770 889 
Q 3016 1369 3016 2328 
Q 3016 3291 2770 3770 
Q 2525 4250 2034 4250 
z
M 2034 4750 
Q 2819 4750 3233 4129 
Q 3647 3509 3647 2328 
Q 3647 1150 3233 529 
Q 2819 -91 2034 -91 
Q 1250 -91 836 529 
Q 422 1150 422 2328 
Q 422 3509 836 4129 
Q 1250 4750 2034 4750 
z
" id="DejaVuSans-30" transform="scale(0.015625)"/>
        <path d="M 684 794 
L 1344 794 
L 1344 0 
L 684 0 
L 684 794 
z
" id="DejaVuSans-2e" transform="scale(0.015625)"/>
        <path d="M 2034 2216 
Q 1584 2216 1326 1975 
Q 1069 1734 1069 1313 
Q 1069 891 1326 650 
Q 1584 409 2034 409 
Q 2484 409 2743 651 
Q 3003 894 3003 1313 
Q 3003 1734 2745 1975 
Q 2488 2216 2034 2216 
z
M 1403 2484 
Q 997 2584 770 2862 
Q 544 3141 544 3541 
Q 544 4100 942 4425 
Q 1341 4750 2034 4750 
Q 2731 4750 3128 4425 
Q 3525 4100 3525 3541 
Q 3525 3141 3298 2862 
Q 3072 2584 2669 2484 
Q 3125 2378 3379 2068 
Q 3634 1759 3634 1313 
Q 3634 634 3220 271 
Q 2806 -91 2034 -91 
Q 1263 -91 848 271 
Q 434 634 434 1313 
Q 434 1759 690 2068 
Q 947 2378 1403 2484 
z
M 1172 3481 
Q 1172 3119 1398 2916 
Q 1625 2713 2034 2713 
Q 2441 2713 2670 2916 
Q 2900 3119 2900 3481 
Q 2900 3844 2670 4047 
Q 2441 4250 2034 4250 
Q 1625 4250 1398 4047 
Q 1172 3844 1172 3481 
z
" id="DejaVuSans-38" transform="scale(0.015625)"/>
       </defs>
       <use xlink:href="#DejaVuSans-30"/>
       <use x="63.623047" xlink:href="#DejaVuSans-2e"/>
       <use x="95.410156" xlink:href="#DejaVuSans-38"/>
       <use x="159.033203" xlink:href="#DejaVuSans-30"/>
      </g>
     </g>
    </g>
    <g id="ytick_2">
     <g id="line2d_12">
      <path clip-path="url(#pbbbf771d52)" d="M 46.789688 166.672815 
L 410.138525 166.672815 
" style="fill:none;stroke:#ffffff;"/>
     </g>
     <g id="line2d_13">
      <path d="M 46.789688 166.672815 
" style="fill:none;stroke:#333333;stroke-width:1.5;"/>
      <g>
       <use style="fill:#333333;stroke:#000000;" x="46.789688" xlink:href="#m3f21b9299f" y="166.672815"/>
      </g>
     </g>
     <g id="text_2">
      <!-- 0.81 -->
      <g style="fill:#4d4d4d;" transform="translate(22.245938 169.101065)scale(0.088 -0.088)">
       <defs>
        <path d="M 794 531 
L 1825 531 
L 1825 4091 
L 703 3866 
L 703 4441 
L 1819 4666 
L 2450 4666 
L 2450 531 
L 3481 531 
L 3481 0 
L 794 0 
L 794 531 
z
" id="DejaVuSans-31" transform="scale(0.015625)"/>
       </defs>
       <use xlink:href="#DejaVuSans-30"/>
       <use x="63.623047" xlink:href="#DejaVuSans-2e"/>
       <use x="95.410156" xlink:href="#DejaVuSans-38"/>
       <use x="159.033203" xlink:href="#DejaVuSans-31"/>
      </g>
     </g>
    </g>
    <g id="ytick_3">
     <g id="line2d_14">
      <path clip-path="url(#pbbbf771d52)" d="M 46.789688 113.718203 
L 410.138525 113.718203 
" style="fill:none;stroke:#ffffff;"/>
     </g>
     <g id="line2d_15">
      <path d="M 46.789688 113.718203 
" style="fill:none;stroke:#333333;stroke-width:1.5;"/>
      <g>
       <use style="fill:#333333;stroke:#000000;" x="46.789688" xlink:href="#m3f21b9299f" y="113.718203"/>
      </g>
     </g>
     <g id="text_3">
      <!-- 0.82 -->
      <g style="fill:#4d4d4d;" transform="translate(22.245938 116.146453)scale(0.088 -0.088)">
       <defs>
        <path d="M 1228 531 
L 3431 531 
L 3431 0 
L 469 0 
L 469 531 
Q 828 903 1448 1529 
Q 2069 2156 2228 2338 
Q 2531 2678 2651 2914 
Q 2772 3150 2772 3378 
Q 2772 3750 2511 3984 
Q 2250 4219 1831 4219 
Q 1534 4219 1204 4116 
Q 875 4013 500 3803 
L 500 4441 
Q 881 4594 1212 4672 
Q 1544 4750 1819 4750 
Q 2544 4750 2975 4387 
Q 3406 4025 3406 3419 
Q 3406 3131 3298 2873 
Q 3191 2616 2906 2266 
Q 2828 2175 2409 1742 
Q 1991 1309 1228 531 
z
" id="DejaVuSans-32" transform="scale(0.015625)"/>
       </defs>
       <use xlink:href="#DejaVuSans-30"/>
       <use x="63.623047" xlink:href="#DejaVuSans-2e"/>
       <use x="95.410156" xlink:href="#DejaVuSans-38"/>
       <use x="159.033203" xlink:href="#DejaVuSans-32"/>
      </g>
     </g>
    </g>
    <g id="ytick_4">
     <g id="line2d_16">
      <path clip-path="url(#pbbbf771d52)" d="M 46.789688 60.763592 
L 410.138525 60.763592 
" style="fill:none;stroke:#ffffff;"/>
     </g>
     <g id="line2d_17">
      <path d="M 46.789688 60.763592 
" style="fill:none;stroke:#333333;stroke-width:1.5;"/>
      <g>
       <use style="fill:#333333;stroke:#000000;" x="46.789688" xlink:href="#m3f21b9299f" y="60.763592"/>
      </g>
     </g>
     <g id="text_4">
      <!-- 0.83 -->
      <g style="fill:#4d4d4d;" transform="translate(22.245938 63.191842)scale(0.088 -0.088)">
       <defs>
        <path d="M 2597 2516 
Q 3050 2419 3304 2112 
Q 3559 1806 3559 1356 
Q 3559 666 3084 287 
Q 2609 -91 1734 -91 
Q 1441 -91 1130 -33 
Q 819 25 488 141 
L 488 750 
Q 750 597 1062 519 
Q 1375 441 1716 441 
Q 2309 441 2620 675 
Q 2931 909 2931 1356 
Q 2931 1769 2642 2001 
Q 2353 2234 1838 2234 
L 1294 2234 
L 1294 2753 
L 1863 2753 
Q 2328 2753 2575 2939 
Q 2822 3125 2822 3475 
Q 2822 3834 2567 4026 
Q 2313 4219 1838 4219 
Q 1578 4219 1281 4162 
Q 984 4106 628 3988 
L 628 4550 
Q 988 4650 1302 4700 
Q 1616 4750 1894 4750 
Q 2613 4750 3031 4423 
Q 3450 4097 3450 3541 
Q 3450 3153 3228 2886 
Q 3006 2619 2597 2516 
z
" id="DejaVuSans-33" transform="scale(0.015625)"/>
       </defs>
       <use xlink:href="#DejaVuSans-30"/>
       <use x="63.623047" xlink:href="#DejaVuSans-2e"/>
       <use x="95.410156" xlink:href="#DejaVuSans-38"/>
       <use x="159.033203" xlink:href="#DejaVuSans-33"/>
      </g>
     </g>
    </g>
    <g id="ytick_5">
     <g id="line2d_18">
      <path clip-path="url(#pbbbf771d52)" d="M 46.789688 193.150121 
L 410.138525 193.150121 
" style="fill:none;stroke:#ffffff;stroke-width:0.5;"/>
     </g>
    </g>
    <g id="ytick_6">
     <g id="line2d_19">
      <path clip-path="url(#pbbbf771d52)" d="M 46.789688 140.195509 
L 410.138525 140.195509 
" style="fill:none;stroke:#ffffff;stroke-width:0.5;"/>
     </g>
    </g>
    <g id="ytick_7">
     <g id="line2d_20">
      <path clip-path="url(#pbbbf771d52)" d="M 46.789688 87.240898 
L 410.138525 87.240898 
" style="fill:none;stroke:#ffffff;stroke-width:0.5;"/>
     </g>
    </g>
    <g id="ytick_8">
     <g id="line2d_21">
      <path clip-path="url(#pbbbf771d52)" d="M 46.789688 34.286286 
L 410.138525 34.286286 
" style="fill:none;stroke:#ffffff;stroke-width:0.5;"/>
     </g>
    </g>
    <g id="text_5">
     <!-- Value -->
     <g transform="translate(15.558281 256.228457)rotate(-90)scale(0.11 -0.11)">
      <defs>
       <path d="M 1831 0 
L 50 4666 
L 709 4666 
L 2188 738 
L 3669 4666 
L 4325 4666 
L 2547 0 
L 1831 0 
z
" id="DejaVuSans-56" transform="scale(0.015625)"/>
       <path d="M 2194 1759 
Q 1497 1759 1228 1600 
Q 959 1441 959 1056 
Q 959 750 1161 570 
Q 1363 391 1709 391 
Q 2188 391 2477 730 
Q 2766 1069 2766 1631 
L 2766 1759 
L 2194 1759 
z
M 3341 1997 
L 3341 0 
L 2766 0 
L 2766 531 
Q 2569 213 2275 61 
Q 1981 -91 1556 -91 
Q 1019 -91 701 211 
Q 384 513 384 1019 
Q 384 1609 779 1909 
Q 1175 2209 1959 2209 
L 2766 2209 
L 2766 2266 
Q 2766 2663 2505 2880 
Q 2244 3097 1772 3097 
Q 1472 3097 1187 3025 
Q 903 2953 641 2809 
L 641 3341 
Q 956 3463 1253 3523 
Q 1550 3584 1831 3584 
Q 2591 3584 2966 3190 
Q 3341 2797 3341 1997 
z
" id="DejaVuSans-61" transform="scale(0.015625)"/>
       <path d="M 603 4863 
L 1178 4863 
L 1178 0 
L 603 0 
L 603 4863 
z
" id="DejaVuSans-6c" transform="scale(0.015625)"/>
       <path d="M 544 1381 
L 544 3500 
L 1119 3500 
L 1119 1403 
Q 1119 906 1312 657 
Q 1506 409 1894 409 
Q 2359 409 2629 706 
Q 2900 1003 2900 1516 
L 2900 3500 
L 3475 3500 
L 3475 0 
L 2900 0 
L 2900 538 
Q 2691 219 2414 64 
Q 2138 -91 1772 -91 
Q 1169 -91 856 284 
Q 544 659 544 1381 
z
M 1991 3584 
L 1991 3584 
z
" id="DejaVuSans-75" transform="scale(0.015625)"/>
       <path d="M 3597 1894 
L 3597 1613 
L 953 1613 
Q 991 1019 1311 708 
Q 1631 397 2203 397 
Q 2534 397 2845 478 
Q 3156 559 3463 722 
L 3463 178 
Q 3153 47 2828 -22 
Q 2503 -91 2169 -91 
Q 1331 -91 842 396 
Q 353 884 353 1716 
Q 353 2575 817 3079 
Q 1281 3584 2069 3584 
Q 2775 3584 3186 3129 
Q 3597 2675 3597 1894 
z
M 3022 2063 
Q 3016 2534 2758 2815 
Q 2500 3097 2075 3097 
Q 1594 3097 1305 2825 
Q 1016 2553 972 2059 
L 3022 2063 
z
" id="DejaVuSans-65" transform="scale(0.015625)"/>
      </defs>
      <use xlink:href="#DejaVuSans-56"/>
      <use x="60.658203" xlink:href="#DejaVuSans-61"/>
      <use x="121.9375" xlink:href="#DejaVuSans-6c"/>
      <use x="149.720703" xlink:href="#DejaVuSans-75"/>
      <use x="213.099609" xlink:href="#DejaVuSans-65"/>
     </g>
    </g>
   </g>
   <g id="line2d_22">
    <path clip-path="url(#pbbbf771d52)" d="M 63.305544 167.516714 
L 68.548673 112.135894 
L 79.034931 84.744365 
L 89.521189 73.844014 
L 100.007446 60.833916 
L 120.979962 55.911177 
L 141.952478 47.155733 
L 183.89751 42.90108 
L 225.842542 45.327287 
L 315.631125 42.690105 
L 393.622668 47.788657 
" style="fill:none;stroke:#000000;stroke-width:0.886227;"/>
   </g>
   <g id="PathCollection_1">
    <path clip-path="url(#pbbbf771d52)" d="M 63.305544 169.289168 
C 63.775604 169.289168 64.226475 169.102411 64.558858 168.770028 
C 64.891241 168.437645 65.077998 167.986774 65.077998 167.516714 
C 65.077998 167.046653 64.891241 166.595782 64.558858 166.2634 
C 64.226475 165.931017 63.775604 165.74426 63.305544 165.74426 
C 62.835483 165.74426 62.384612 165.931017 62.05223 166.2634 
C 61.719847 166.595782 61.53309 167.046653 61.53309 167.516714 
C 61.53309 167.986774 61.719847 168.437645 62.05223 168.770028 
C 62.384612 169.102411 62.835483 169.289168 63.305544 169.289168 
z
" style="stroke:#000000;stroke-width:0.886227;"/>
    <path clip-path="url(#pbbbf771d52)" d="M 68.548673 113.908348 
C 69.018733 113.908348 69.469604 113.721591 69.801987 113.389209 
C 70.13437 113.056826 70.321127 112.605955 70.321127 112.135894 
C 70.321127 111.665834 70.13437 111.214963 69.801987 110.88258 
C 69.469604 110.550197 69.018733 110.363441 68.548673 110.363441 
C 68.078612 110.363441 67.627741 110.550197 67.295359 110.88258 
C 66.962976 111.214963 66.776219 111.665834 66.776219 112.135894 
C 66.776219 112.605955 66.962976 113.056826 67.295359 113.389209 
C 67.627741 113.721591 68.078612 113.908348 68.548673 113.908348 
z
" style="stroke:#000000;stroke-width:0.886227;"/>
    <path clip-path="url(#pbbbf771d52)" d="M 79.034931 86.516819 
C 79.504991 86.516819 79.955862 86.330062 80.288245 85.997679 
C 80.620628 85.665297 80.807384 85.214426 80.807384 84.744365 
C 80.807384 84.274305 80.620628 83.823434 80.288245 83.491051 
C 79.955862 83.158668 79.504991 82.971911 79.034931 82.971911 
C 78.56487 82.971911 78.113999 83.158668 77.781616 83.491051 
C 77.449234 83.823434 77.262477 84.274305 77.262477 84.744365 
C 77.262477 85.214426 77.449234 85.665297 77.781616 85.997679 
C 78.113999 86.330062 78.56487 86.516819 79.034931 86.516819 
z
" style="stroke:#000000;stroke-width:0.886227;"/>
    <path clip-path="url(#pbbbf771d52)" d="M 89.521189 75.616467 
C 89.991249 75.616467 90.44212 75.429711 90.774503 75.097328 
C 91.106885 74.764945 91.293642 74.314074 91.293642 73.844014 
C 91.293642 73.373953 91.106885 72.923082 90.774503 72.590699 
C 90.44212 72.258317 89.991249 72.07156 89.521189 72.07156 
C 89.051128 72.07156 88.600257 72.258317 88.267874 72.590699 
C 87.935492 72.923082 87.748735 73.373953 87.748735 73.844014 
C 87.748735 74.314074 87.935492 74.764945 88.267874 75.097328 
C 88.600257 75.429711 89.051128 75.616467 89.521189 75.616467 
z
" style="stroke:#000000;stroke-width:0.886227;"/>
    <path clip-path="url(#pbbbf771d52)" d="M 100.007446 62.60637 
C 100.477507 62.60637 100.928378 62.419613 101.260761 62.087231 
C 101.593143 61.754848 101.7799 61.303977 101.7799 60.833916 
C 101.7799 60.363856 101.593143 59.912985 101.260761 59.580602 
C 100.928378 59.248219 100.477507 59.061463 100.007446 59.061463 
C 99.537386 59.061463 99.086515 59.248219 98.754132 59.580602 
C 98.42175 59.912985 98.234993 60.363856 98.234993 60.833916 
C 98.234993 61.303977 98.42175 61.754848 98.754132 62.087231 
C 99.086515 62.419613 99.537386 62.60637 100.007446 62.60637 
z
" style="stroke:#000000;stroke-width:0.886227;"/>
    <path clip-path="url(#pbbbf771d52)" d="M 120.979962 57.683631 
C 121.450023 57.683631 121.900894 57.496874 122.233276 57.164491 
C 122.565659 56.832108 122.752416 56.381237 122.752416 55.911177 
C 122.752416 55.441117 122.565659 54.990246 122.233276 54.657863 
C 121.900894 54.32548 121.450023 54.138723 120.979962 54.138723 
C 120.509902 54.138723 120.059031 54.32548 119.726648 54.657863 
C 119.394265 54.990246 119.207508 55.441117 119.207508 55.911177 
C 119.207508 56.381237 119.394265 56.832108 119.726648 57.164491 
C 120.059031 57.496874 120.509902 57.683631 120.979962 57.683631 
z
" style="stroke:#000000;stroke-width:0.886227;"/>
    <path clip-path="url(#pbbbf771d52)" d="M 141.952478 48.928187 
C 142.422538 48.928187 142.87341 48.74143 143.205792 48.409047 
C 143.538175 48.076664 143.724932 47.625793 143.724932 47.155733 
C 143.724932 46.685673 143.538175 46.234802 143.205792 45.902419 
C 142.87341 45.570036 142.422538 45.383279 141.952478 45.383279 
C 141.482418 45.383279 141.031547 45.570036 140.699164 45.902419 
C 140.366781 46.234802 140.180024 46.685673 140.180024 47.155733 
C 140.180024 47.625793 140.366781 48.076664 140.699164 48.409047 
C 141.031547 48.74143 141.482418 48.928187 141.952478 48.928187 
z
" style="stroke:#000000;stroke-width:0.886227;"/>
    <path clip-path="url(#pbbbf771d52)" d="M 183.89751 44.673534 
C 184.36757 44.673534 184.818441 44.486777 185.150824 44.154394 
C 185.483207 43.822011 185.669964 43.37114 185.669964 42.90108 
C 185.669964 42.431019 185.483207 41.980148 185.150824 41.647766 
C 184.818441 41.315383 184.36757 41.128626 183.89751 41.128626 
C 183.42745 41.128626 182.976579 41.315383 182.644196 41.647766 
C 182.311813 41.980148 182.125056 42.431019 182.125056 42.90108 
C 182.125056 43.37114 182.311813 43.822011 182.644196 44.154394 
C 182.976579 44.486777 183.42745 44.673534 183.89751 44.673534 
z
" style="stroke:#000000;stroke-width:0.886227;"/>
    <path clip-path="url(#pbbbf771d52)" d="M 225.842542 47.099741 
C 226.312602 47.099741 226.763473 46.912984 227.095856 46.580601 
C 227.428239 46.248218 227.614995 45.797347 227.614995 45.327287 
C 227.614995 44.857227 227.428239 44.406356 227.095856 44.073973 
C 226.763473 43.74159 226.312602 43.554833 225.842542 43.554833 
C 225.372481 43.554833 224.92161 43.74159 224.589227 44.073973 
C 224.256845 44.406356 224.070088 44.857227 224.070088 45.327287 
C 224.070088 45.797347 224.256845 46.248218 224.589227 46.580601 
C 224.92161 46.912984 225.372481 47.099741 225.842542 47.099741 
z
" style="stroke:#000000;stroke-width:0.886227;"/>
    <path clip-path="url(#pbbbf771d52)" d="M 315.631125 44.462559 
C 316.101185 44.462559 316.552056 44.275802 316.884439 43.943419 
C 317.216822 43.611036 317.403579 43.160165 317.403579 42.690105 
C 317.403579 42.220045 317.216822 41.769174 316.884439 41.436791 
C 316.552056 41.104408 316.101185 40.917651 315.631125 40.917651 
C 315.161065 40.917651 314.710194 41.104408 314.377811 41.436791 
C 314.045428 41.769174 313.858671 42.220045 313.858671 42.690105 
C 313.858671 43.160165 314.045428 43.611036 314.377811 43.943419 
C 314.710194 44.275802 315.161065 44.462559 315.631125 44.462559 
z
" style="stroke:#000000;stroke-width:0.886227;"/>
    <path clip-path="url(#pbbbf771d52)" d="M 393.622668 49.561111 
C 394.092729 49.561111 394.5436 49.374354 394.875983 49.041971 
C 395.208365 48.709588 395.395122 48.258717 395.395122 47.788657 
C 395.395122 47.318596 395.208365 46.867725 394.875983 46.535343 
C 394.5436 46.20296 394.092729 46.016203 393.622668 46.016203 
C 393.152608 46.016203 392.701737 46.20296 392.369354 46.535343 
C 392.036972 46.867725 391.850215 47.318596 391.850215 47.788657 
C 391.850215 48.258717 392.036972 48.709588 392.369354 49.041971 
C 392.701737 49.374354 393.152608 49.561111 393.622668 49.561111 
z
" style="stroke:#000000;stroke-width:0.886227;"/>
   </g>
   <g id="patch_3">
    <path d="M 46.789688 22.244082 
L 410.138525 22.244082 
L 410.138525 7.2 
L 46.789688 7.2 
z
" style="fill:#d9d9d9;"/>
   </g>
   <g id="PolyCollection_1">
    <path clip-path="url(#pbbbf771d52)" d="M 63.305544 110.3398 
L 63.305544 224.693628 
L 68.548673 132.729822 
L 79.034931 102.709027 
L 89.521189 88.684223 
L 100.007446 69.062525 
L 120.979962 66.369501 
L 141.952478 58.797895 
L 183.89751 51.521541 
L 225.842542 54.194983 
L 315.631125 53.495673 
L 393.622668 58.527943 
L 393.622668 37.049371 
L 393.622668 37.049371 
L 315.631125 31.884537 
L 225.842542 36.459591 
L 183.89751 34.280618 
L 141.952478 35.513572 
L 120.979962 45.452853 
L 100.007446 52.605308 
L 89.521189 59.003804 
L 79.034931 66.779704 
L 68.548673 91.541967 
L 63.305544 110.3398 
z
" style="fill:#333333;fill-opacity:0.501961;"/>
   </g>
   <g id="text_6">
    <!-- Accuracy -->
    <g style="fill:#1a1a1a;" transform="translate(208.375356 17.150291)scale(0.088 -0.088)">
     <defs>
      <path d="M 2188 4044 
L 1331 1722 
L 3047 1722 
L 2188 4044 
z
M 1831 4666 
L 2547 4666 
L 4325 0 
L 3669 0 
L 3244 1197 
L 1141 1197 
L 716 0 
L 50 0 
L 1831 4666 
z
" id="DejaVuSans-41" transform="scale(0.015625)"/>
      <path d="M 3122 3366 
L 3122 2828 
Q 2878 2963 2633 3030 
Q 2388 3097 2138 3097 
Q 1578 3097 1268 2742 
Q 959 2388 959 1747 
Q 959 1106 1268 751 
Q 1578 397 2138 397 
Q 2388 397 2633 464 
Q 2878 531 3122 666 
L 3122 134 
Q 2881 22 2623 -34 
Q 2366 -91 2075 -91 
Q 1284 -91 818 406 
Q 353 903 353 1747 
Q 353 2603 823 3093 
Q 1294 3584 2113 3584 
Q 2378 3584 2631 3529 
Q 2884 3475 3122 3366 
z
" id="DejaVuSans-63" transform="scale(0.015625)"/>
      <path d="M 2631 2963 
Q 2534 3019 2420 3045 
Q 2306 3072 2169 3072 
Q 1681 3072 1420 2755 
Q 1159 2438 1159 1844 
L 1159 0 
L 581 0 
L 581 3500 
L 1159 3500 
L 1159 2956 
Q 1341 3275 1631 3429 
Q 1922 3584 2338 3584 
Q 2397 3584 2469 3576 
Q 2541 3569 2628 3553 
L 2631 2963 
z
" id="DejaVuSans-72" transform="scale(0.015625)"/>
      <path d="M 2059 -325 
Q 1816 -950 1584 -1140 
Q 1353 -1331 966 -1331 
L 506 -1331 
L 506 -850 
L 844 -850 
Q 1081 -850 1212 -737 
Q 1344 -625 1503 -206 
L 1606 56 
L 191 3500 
L 800 3500 
L 1894 763 
L 2988 3500 
L 3597 3500 
L 2059 -325 
z
" id="DejaVuSans-79" transform="scale(0.015625)"/>
     </defs>
     <use xlink:href="#DejaVuSans-41"/>
     <use x="66.658203" xlink:href="#DejaVuSans-63"/>
     <use x="121.638672" xlink:href="#DejaVuSans-63"/>
     <use x="176.619141" xlink:href="#DejaVuSans-75"/>
     <use x="239.998047" xlink:href="#DejaVuSans-72"/>
     <use x="281.111328" xlink:href="#DejaVuSans-61"/>
     <use x="342.390625" xlink:href="#DejaVuSans-63"/>
     <use x="397.371094" xlink:href="#DejaVuSans-79"/>
    </g>
   </g>
  </g>
  <g id="axes_2">
   <g id="patch_4">
    <path d="M 464.64085 234.334082 
L 827.989688 234.334082 
L 827.989688 22.244082 
L 464.64085 22.244082 
z
" style="fill:#ebebeb;"/>
   </g>
   <g id="matplotlib.axis_3">
    <g id="xtick_10">
     <g id="line2d_23">
      <path clip-path="url(#p1424a94d01)" d="M 475.913578 234.334082 
L 475.913578 22.244082 
" style="fill:none;stroke:#ffffff;stroke-linecap:square;"/>
     </g>
    </g>
    <g id="xtick_11">
     <g id="line2d_24">
      <path clip-path="url(#p1424a94d01)" d="M 557.837468 234.334082 
L 557.837468 22.244082 
" style="fill:none;stroke:#ffffff;stroke-linecap:square;"/>
     </g>
    </g>
    <g id="xtick_12">
     <g id="line2d_25">
      <path clip-path="url(#p1424a94d01)" d="M 639.761358 234.334082 
L 639.761358 22.244082 
" style="fill:none;stroke:#ffffff;stroke-linecap:square;"/>
     </g>
    </g>
    <g id="xtick_13">
     <g id="line2d_26">
      <path clip-path="url(#p1424a94d01)" d="M 721.685248 234.334082 
L 721.685248 22.244082 
" style="fill:none;stroke:#ffffff;stroke-linecap:square;"/>
     </g>
    </g>
    <g id="xtick_14">
     <g id="line2d_27">
      <path clip-path="url(#p1424a94d01)" d="M 803.609138 234.334082 
L 803.609138 22.244082 
" style="fill:none;stroke:#ffffff;stroke-linecap:square;"/>
     </g>
    </g>
    <g id="xtick_15">
     <g id="line2d_28">
      <path clip-path="url(#p1424a94d01)" d="M 516.875523 234.334082 
L 516.875523 22.244082 
" style="fill:none;stroke:#ffffff;stroke-linecap:square;stroke-width:0.5;"/>
     </g>
    </g>
    <g id="xtick_16">
     <g id="line2d_29">
      <path clip-path="url(#p1424a94d01)" d="M 598.799413 234.334082 
L 598.799413 22.244082 
" style="fill:none;stroke:#ffffff;stroke-linecap:square;stroke-width:0.5;"/>
     </g>
    </g>
    <g id="xtick_17">
     <g id="line2d_30">
      <path clip-path="url(#p1424a94d01)" d="M 680.723303 234.334082 
L 680.723303 22.244082 
" style="fill:none;stroke:#ffffff;stroke-linecap:square;stroke-width:0.5;"/>
     </g>
    </g>
    <g id="xtick_18">
     <g id="line2d_31">
      <path clip-path="url(#p1424a94d01)" d="M 762.647193 234.334082 
L 762.647193 22.244082 
" style="fill:none;stroke:#ffffff;stroke-linecap:square;stroke-width:0.5;"/>
     </g>
    </g>
   </g>
   <g id="matplotlib.axis_4">
    <g id="ytick_9">
     <g id="line2d_32">
      <path clip-path="url(#p1424a94d01)" d="M 464.64085 219.689811 
L 827.989688 219.689811 
" style="fill:none;stroke:#ffffff;stroke-linecap:square;"/>
     </g>
     <g id="line2d_33">
      <path d="M 464.64085 219.689811 
" style="fill:none;stroke:#333333;stroke-linecap:square;stroke-width:1.5;"/>
      <g>
       <use style="fill:#333333;stroke:#000000;" x="464.64085" xlink:href="#m3f21b9299f" y="219.689811"/>
      </g>
     </g>
     <g id="text_7">
      <!-- 0.83 -->
      <g style="fill:#4d4d4d;" transform="translate(440.0971 222.118061)scale(0.088 -0.088)">
       <use xlink:href="#DejaVuSans-30"/>
       <use x="63.623047" xlink:href="#DejaVuSans-2e"/>
       <use x="95.410156" xlink:href="#DejaVuSans-38"/>
       <use x="159.033203" xlink:href="#DejaVuSans-33"/>
      </g>
     </g>
    </g>
    <g id="ytick_10">
     <g id="line2d_34">
      <path clip-path="url(#p1424a94d01)" d="M 464.64085 186.21279 
L 827.989688 186.21279 
" style="fill:none;stroke:#ffffff;stroke-linecap:square;"/>
     </g>
     <g id="line2d_35">
      <path d="M 464.64085 186.21279 
" style="fill:none;stroke:#333333;stroke-linecap:square;stroke-width:1.5;"/>
      <g>
       <use style="fill:#333333;stroke:#000000;" x="464.64085" xlink:href="#m3f21b9299f" y="186.21279"/>
      </g>
     </g>
     <g id="text_8">
      <!-- 0.84 -->
      <g style="fill:#4d4d4d;" transform="translate(440.0971 188.64104)scale(0.088 -0.088)">
       <defs>
        <path d="M 2419 4116 
L 825 1625 
L 2419 1625 
L 2419 4116 
z
M 2253 4666 
L 3047 4666 
L 3047 1625 
L 3713 1625 
L 3713 1100 
L 3047 1100 
L 3047 0 
L 2419 0 
L 2419 1100 
L 313 1100 
L 313 1709 
L 2253 4666 
z
" id="DejaVuSans-34" transform="scale(0.015625)"/>
       </defs>
       <use xlink:href="#DejaVuSans-30"/>
       <use x="63.623047" xlink:href="#DejaVuSans-2e"/>
       <use x="95.410156" xlink:href="#DejaVuSans-38"/>
       <use x="159.033203" xlink:href="#DejaVuSans-34"/>
      </g>
     </g>
    </g>
    <g id="ytick_11">
     <g id="line2d_36">
      <path clip-path="url(#p1424a94d01)" d="M 464.64085 152.73577 
L 827.989688 152.73577 
" style="fill:none;stroke:#ffffff;stroke-linecap:square;"/>
     </g>
     <g id="line2d_37">
      <path d="M 464.64085 152.73577 
" style="fill:none;stroke:#333333;stroke-linecap:square;stroke-width:1.5;"/>
      <g>
       <use style="fill:#333333;stroke:#000000;" x="464.64085" xlink:href="#m3f21b9299f" y="152.73577"/>
      </g>
     </g>
     <g id="text_9">
      <!-- 0.85 -->
      <g style="fill:#4d4d4d;" transform="translate(440.0971 155.16402)scale(0.088 -0.088)">
       <defs>
        <path d="M 691 4666 
L 3169 4666 
L 3169 4134 
L 1269 4134 
L 1269 2991 
Q 1406 3038 1543 3061 
Q 1681 3084 1819 3084 
Q 2600 3084 3056 2656 
Q 3513 2228 3513 1497 
Q 3513 744 3044 326 
Q 2575 -91 1722 -91 
Q 1428 -91 1123 -41 
Q 819 9 494 109 
L 494 744 
Q 775 591 1075 516 
Q 1375 441 1709 441 
Q 2250 441 2565 725 
Q 2881 1009 2881 1497 
Q 2881 1984 2565 2268 
Q 2250 2553 1709 2553 
Q 1456 2553 1204 2497 
Q 953 2441 691 2322 
L 691 4666 
z
" id="DejaVuSans-35" transform="scale(0.015625)"/>
       </defs>
       <use xlink:href="#DejaVuSans-30"/>
       <use x="63.623047" xlink:href="#DejaVuSans-2e"/>
       <use x="95.410156" xlink:href="#DejaVuSans-38"/>
       <use x="159.033203" xlink:href="#DejaVuSans-35"/>
      </g>
     </g>
    </g>
    <g id="ytick_12">
     <g id="line2d_38">
      <path clip-path="url(#p1424a94d01)" d="M 464.64085 119.25875 
L 827.989688 119.25875 
" style="fill:none;stroke:#ffffff;stroke-linecap:square;"/>
     </g>
     <g id="line2d_39">
      <path d="M 464.64085 119.25875 
" style="fill:none;stroke:#333333;stroke-linecap:square;stroke-width:1.5;"/>
      <g>
       <use style="fill:#333333;stroke:#000000;" x="464.64085" xlink:href="#m3f21b9299f" y="119.25875"/>
      </g>
     </g>
     <g id="text_10">
      <!-- 0.86 -->
      <g style="fill:#4d4d4d;" transform="translate(440.0971 121.687)scale(0.088 -0.088)">
       <defs>
        <path d="M 2113 2584 
Q 1688 2584 1439 2293 
Q 1191 2003 1191 1497 
Q 1191 994 1439 701 
Q 1688 409 2113 409 
Q 2538 409 2786 701 
Q 3034 994 3034 1497 
Q 3034 2003 2786 2293 
Q 2538 2584 2113 2584 
z
M 3366 4563 
L 3366 3988 
Q 3128 4100 2886 4159 
Q 2644 4219 2406 4219 
Q 1781 4219 1451 3797 
Q 1122 3375 1075 2522 
Q 1259 2794 1537 2939 
Q 1816 3084 2150 3084 
Q 2853 3084 3261 2657 
Q 3669 2231 3669 1497 
Q 3669 778 3244 343 
Q 2819 -91 2113 -91 
Q 1303 -91 875 529 
Q 447 1150 447 2328 
Q 447 3434 972 4092 
Q 1497 4750 2381 4750 
Q 2619 4750 2861 4703 
Q 3103 4656 3366 4563 
z
" id="DejaVuSans-36" transform="scale(0.015625)"/>
       </defs>
       <use xlink:href="#DejaVuSans-30"/>
       <use x="63.623047" xlink:href="#DejaVuSans-2e"/>
       <use x="95.410156" xlink:href="#DejaVuSans-38"/>
       <use x="159.033203" xlink:href="#DejaVuSans-36"/>
      </g>
     </g>
    </g>
    <g id="ytick_13">
     <g id="line2d_40">
      <path clip-path="url(#p1424a94d01)" d="M 464.64085 85.781729 
L 827.989688 85.781729 
" style="fill:none;stroke:#ffffff;stroke-linecap:square;"/>
     </g>
     <g id="line2d_41">
      <path d="M 464.64085 85.781729 
" style="fill:none;stroke:#333333;stroke-linecap:square;stroke-width:1.5;"/>
      <g>
       <use style="fill:#333333;stroke:#000000;" x="464.64085" xlink:href="#m3f21b9299f" y="85.781729"/>
      </g>
     </g>
     <g id="text_11">
      <!-- 0.87 -->
      <g style="fill:#4d4d4d;" transform="translate(440.0971 88.209979)scale(0.088 -0.088)">
       <defs>
        <path d="M 525 4666 
L 3525 4666 
L 3525 4397 
L 1831 0 
L 1172 0 
L 2766 4134 
L 525 4134 
L 525 4666 
z
" id="DejaVuSans-37" transform="scale(0.015625)"/>
       </defs>
       <use xlink:href="#DejaVuSans-30"/>
       <use x="63.623047" xlink:href="#DejaVuSans-2e"/>
       <use x="95.410156" xlink:href="#DejaVuSans-38"/>
       <use x="159.033203" xlink:href="#DejaVuSans-37"/>
      </g>
     </g>
    </g>
    <g id="ytick_14">
     <g id="line2d_42">
      <path clip-path="url(#p1424a94d01)" d="M 464.64085 52.304709 
L 827.989688 52.304709 
" style="fill:none;stroke:#ffffff;stroke-linecap:square;"/>
     </g>
     <g id="line2d_43">
      <path d="M 464.64085 52.304709 
" style="fill:none;stroke:#333333;stroke-linecap:square;stroke-width:1.5;"/>
      <g>
       <use style="fill:#333333;stroke:#000000;" x="464.64085" xlink:href="#m3f21b9299f" y="52.304709"/>
      </g>
     </g>
     <g id="text_12">
      <!-- 0.88 -->
      <g style="fill:#4d4d4d;" transform="translate(440.0971 54.732959)scale(0.088 -0.088)">
       <use xlink:href="#DejaVuSans-30"/>
       <use x="63.623047" xlink:href="#DejaVuSans-2e"/>
       <use x="95.410156" xlink:href="#DejaVuSans-38"/>
       <use x="159.033203" xlink:href="#DejaVuSans-38"/>
      </g>
     </g>
    </g>
    <g id="ytick_15">
     <g id="line2d_44">
      <path clip-path="url(#p1424a94d01)" d="M 464.64085 202.951301 
L 827.989688 202.951301 
" style="fill:none;stroke:#ffffff;stroke-linecap:square;stroke-width:0.5;"/>
     </g>
    </g>
    <g id="ytick_16">
     <g id="line2d_45">
      <path clip-path="url(#p1424a94d01)" d="M 464.64085 169.47428 
L 827.989688 169.47428 
" style="fill:none;stroke:#ffffff;stroke-linecap:square;stroke-width:0.5;"/>
     </g>
    </g>
    <g id="ytick_17">
     <g id="line2d_46">
      <path clip-path="url(#p1424a94d01)" d="M 464.64085 135.99726 
L 827.989688 135.99726 
" style="fill:none;stroke:#ffffff;stroke-linecap:square;stroke-width:0.5;"/>
     </g>
    </g>
    <g id="ytick_18">
     <g id="line2d_47">
      <path clip-path="url(#p1424a94d01)" d="M 464.64085 102.520239 
L 827.989688 102.520239 
" style="fill:none;stroke:#ffffff;stroke-linecap:square;stroke-width:0.5;"/>
     </g>
    </g>
    <g id="ytick_19">
     <g id="line2d_48">
      <path clip-path="url(#p1424a94d01)" d="M 464.64085 69.043219 
L 827.989688 69.043219 
" style="fill:none;stroke:#ffffff;stroke-linecap:square;stroke-width:0.5;"/>
     </g>
    </g>
    <g id="ytick_20">
     <g id="line2d_49">
      <path clip-path="url(#p1424a94d01)" d="M 464.64085 35.566199 
L 827.989688 35.566199 
" style="fill:none;stroke:#ffffff;stroke-linecap:square;stroke-width:0.5;"/>
     </g>
    </g>
   </g>
   <g id="line2d_50">
    <path clip-path="url(#p1424a94d01)" d="M 481.156707 177.004794 
L 486.399835 100.70451 
L 496.886093 70.853182 
L 507.372351 63.054972 
L 517.858609 58.104994 
L 538.831125 59.136579 
L 559.803641 49.198495 
L 601.748673 45.758706 
L 643.693704 47.600165 
L 733.482288 43.604586 
L 811.473831 39.165026 
" style="fill:none;stroke:#000000;stroke-width:0.886227;"/>
   </g>
   <g id="PathCollection_2">
    <path clip-path="url(#p1424a94d01)" d="M 481.156707 178.777248 
C 481.626767 178.777248 482.077638 178.590491 482.410021 178.258108 
C 482.742403 177.925725 482.92916 177.474854 482.92916 177.004794 
C 482.92916 176.534734 482.742403 176.083862 482.410021 175.75148 
C 482.077638 175.419097 481.626767 175.23234 481.156707 175.23234 
C 480.686646 175.23234 480.235775 175.419097 479.903392 175.75148 
C 479.57101 176.083862 479.384253 176.534734 479.384253 177.004794 
C 479.384253 177.474854 479.57101 177.925725 479.903392 178.258108 
C 480.235775 178.590491 480.686646 178.777248 481.156707 178.777248 
z
" style="stroke:#000000;stroke-width:0.886227;"/>
    <path clip-path="url(#p1424a94d01)" d="M 486.399835 102.476964 
C 486.869896 102.476964 487.320767 102.290207 487.65315 101.957824 
C 487.985532 101.625441 488.172289 101.17457 488.172289 100.70451 
C 488.172289 100.23445 487.985532 99.783579 487.65315 99.451196 
C 487.320767 99.118813 486.869896 98.932056 486.399835 98.932056 
C 485.929775 98.932056 485.478904 99.118813 485.146521 99.451196 
C 484.814139 99.783579 484.627382 100.23445 484.627382 100.70451 
C 484.627382 101.17457 484.814139 101.625441 485.146521 101.957824 
C 485.478904 102.290207 485.929775 102.476964 486.399835 102.476964 
z
" style="stroke:#000000;stroke-width:0.886227;"/>
    <path clip-path="url(#p1424a94d01)" d="M 496.886093 72.625636 
C 497.356154 72.625636 497.807025 72.438879 498.139408 72.106496 
C 498.47179 71.774113 498.658547 71.323242 498.658547 70.853182 
C 498.658547 70.383122 498.47179 69.932251 498.139408 69.599868 
C 497.807025 69.267485 497.356154 69.080728 496.886093 69.080728 
C 496.416033 69.080728 495.965162 69.267485 495.632779 69.599868 
C 495.300396 69.932251 495.11364 70.383122 495.11364 70.853182 
C 495.11364 71.323242 495.300396 71.774113 495.632779 72.106496 
C 495.965162 72.438879 496.416033 72.625636 496.886093 72.625636 
z
" style="stroke:#000000;stroke-width:0.886227;"/>
    <path clip-path="url(#p1424a94d01)" d="M 507.372351 64.827426 
C 507.842412 64.827426 508.293283 64.640669 508.625665 64.308287 
C 508.958048 63.975904 509.144805 63.525033 509.144805 63.054972 
C 509.144805 62.584912 508.958048 62.134041 508.625665 61.801658 
C 508.293283 61.469275 507.842412 61.282519 507.372351 61.282519 
C 506.902291 61.282519 506.45142 61.469275 506.119037 61.801658 
C 505.786654 62.134041 505.599897 62.584912 505.599897 63.054972 
C 505.599897 63.525033 505.786654 63.975904 506.119037 64.308287 
C 506.45142 64.640669 506.902291 64.827426 507.372351 64.827426 
z
" style="stroke:#000000;stroke-width:0.886227;"/>
    <path clip-path="url(#p1424a94d01)" d="M 517.858609 59.877448 
C 518.32867 59.877448 518.779541 59.690691 519.111923 59.358308 
C 519.444306 59.025925 519.631063 58.575054 519.631063 58.104994 
C 519.631063 57.634933 519.444306 57.184062 519.111923 56.85168 
C 518.779541 56.519297 518.32867 56.33254 517.858609 56.33254 
C 517.388549 56.33254 516.937678 56.519297 516.605295 56.85168 
C 516.272912 57.184062 516.086155 57.634933 516.086155 58.104994 
C 516.086155 58.575054 516.272912 59.025925 516.605295 59.358308 
C 516.937678 59.690691 517.388549 59.877448 517.858609 59.877448 
z
" style="stroke:#000000;stroke-width:0.886227;"/>
    <path clip-path="url(#p1424a94d01)" d="M 538.831125 60.909033 
C 539.301185 60.909033 539.752056 60.722276 540.084439 60.389893 
C 540.416822 60.057511 540.603579 59.606639 540.603579 59.136579 
C 540.603579 58.666519 540.416822 58.215648 540.084439 57.883265 
C 539.752056 57.550882 539.301185 57.364125 538.831125 57.364125 
C 538.361065 57.364125 537.910194 57.550882 537.577811 57.883265 
C 537.245428 58.215648 537.058671 58.666519 537.058671 59.136579 
C 537.058671 59.606639 537.245428 60.057511 537.577811 60.389893 
C 537.910194 60.722276 538.361065 60.909033 538.831125 60.909033 
z
" style="stroke:#000000;stroke-width:0.886227;"/>
    <path clip-path="url(#p1424a94d01)" d="M 559.803641 50.970949 
C 560.273701 50.970949 560.724572 50.784192 561.056955 50.451809 
C 561.389338 50.119426 561.576095 49.668555 561.576095 49.198495 
C 561.576095 48.728435 561.389338 48.277564 561.056955 47.945181 
C 560.724572 47.612798 560.273701 47.426041 559.803641 47.426041 
C 559.333581 47.426041 558.88271 47.612798 558.550327 47.945181 
C 558.217944 48.277564 558.031187 48.728435 558.031187 49.198495 
C 558.031187 49.668555 558.217944 50.119426 558.550327 50.451809 
C 558.88271 50.784192 559.333581 50.970949 559.803641 50.970949 
z
" style="stroke:#000000;stroke-width:0.886227;"/>
    <path clip-path="url(#p1424a94d01)" d="M 601.748673 47.53116 
C 602.218733 47.53116 602.669604 47.344403 603.001987 47.01202 
C 603.33437 46.679637 603.521127 46.228766 603.521127 45.758706 
C 603.521127 45.288645 603.33437 44.837774 603.001987 44.505392 
C 602.669604 44.173009 602.218733 43.986252 601.748673 43.986252 
C 601.278612 43.986252 600.827741 44.173009 600.495359 44.505392 
C 600.162976 44.837774 599.976219 45.288645 599.976219 45.758706 
C 599.976219 46.228766 600.162976 46.679637 600.495359 47.01202 
C 600.827741 47.344403 601.278612 47.53116 601.748673 47.53116 
z
" style="stroke:#000000;stroke-width:0.886227;"/>
    <path clip-path="url(#p1424a94d01)" d="M 643.693704 49.372619 
C 644.163765 49.372619 644.614636 49.185862 644.947019 48.853479 
C 645.279401 48.521096 645.466158 48.070225 645.466158 47.600165 
C 645.466158 47.130105 645.279401 46.679233 644.947019 46.346851 
C 644.614636 46.014468 644.163765 45.827711 643.693704 45.827711 
C 643.223644 45.827711 642.772773 46.014468 642.44039 46.346851 
C 642.108007 46.679233 641.921251 47.130105 641.921251 47.600165 
C 641.921251 48.070225 642.108007 48.521096 642.44039 48.853479 
C 642.772773 49.185862 643.223644 49.372619 643.693704 49.372619 
z
" style="stroke:#000000;stroke-width:0.886227;"/>
    <path clip-path="url(#p1424a94d01)" d="M 733.482288 45.37704 
C 733.952348 45.37704 734.403219 45.190283 734.735602 44.8579 
C 735.067985 44.525518 735.254742 44.074646 735.254742 43.604586 
C 735.254742 43.134526 735.067985 42.683655 734.735602 42.351272 
C 734.403219 42.018889 733.952348 41.832132 733.482288 41.832132 
C 733.012228 41.832132 732.561357 42.018889 732.228974 42.351272 
C 731.896591 42.683655 731.709834 43.134526 731.709834 43.604586 
C 731.709834 44.074646 731.896591 44.525518 732.228974 44.8579 
C 732.561357 45.190283 733.012228 45.37704 733.482288 45.37704 
z
" style="stroke:#000000;stroke-width:0.886227;"/>
    <path clip-path="url(#p1424a94d01)" d="M 811.473831 40.93748 
C 811.943892 40.93748 812.394763 40.750723 812.727145 40.41834 
C 813.059528 40.085957 813.246285 39.635086 813.246285 39.165026 
C 813.246285 38.694966 813.059528 38.244095 812.727145 37.911712 
C 812.394763 37.579329 811.943892 37.392572 811.473831 37.392572 
C 811.003771 37.392572 810.5529 37.579329 810.220517 37.911712 
C 809.888134 38.244095 809.701377 38.694966 809.701377 39.165026 
C 809.701377 39.635086 809.888134 40.085957 810.220517 40.41834 
C 810.5529 40.750723 811.003771 40.93748 811.473831 40.93748 
z
" style="stroke:#000000;stroke-width:0.886227;"/>
   </g>
   <g id="patch_5">
    <path d="M 464.64085 22.244082 
L 827.989688 22.244082 
L 827.989688 7.2 
L 464.64085 7.2 
z
" style="fill:#d9d9d9;"/>
   </g>
   <g id="PolyCollection_2">
    <path clip-path="url(#p1424a94d01)" d="M 481.156707 129.31596 
L 481.156707 224.693628 
L 486.399835 127.156725 
L 496.886093 83.873483 
L 507.372351 73.210187 
L 517.858609 70.730201 
L 538.831125 67.770991 
L 559.803641 57.040493 
L 601.748673 54.108982 
L 643.693704 51.671132 
L 733.482288 51.971874 
L 811.473831 46.445515 
L 811.473831 31.884537 
L 811.473831 31.884537 
L 733.482288 35.237299 
L 643.693704 43.529198 
L 601.748673 37.40843 
L 559.803641 41.356497 
L 538.831125 50.502167 
L 517.858609 45.479786 
L 507.372351 52.899758 
L 496.886093 57.832881 
L 486.399835 74.252296 
L 481.156707 129.31596 
z
" style="fill:#333333;fill-opacity:0.501961;"/>
   </g>
   <g id="text_13">
    <!-- AUC -->
    <g style="fill:#1a1a1a;" transform="translate(637.012706 17.150291)scale(0.088 -0.088)">
     <defs>
      <path d="M 556 4666 
L 1191 4666 
L 1191 1831 
Q 1191 1081 1462 751 
Q 1734 422 2344 422 
Q 2950 422 3222 751 
Q 3494 1081 3494 1831 
L 3494 4666 
L 4128 4666 
L 4128 1753 
Q 4128 841 3676 375 
Q 3225 -91 2344 -91 
Q 1459 -91 1007 375 
Q 556 841 556 1753 
L 556 4666 
z
" id="DejaVuSans-55" transform="scale(0.015625)"/>
      <path d="M 4122 4306 
L 4122 3641 
Q 3803 3938 3442 4084 
Q 3081 4231 2675 4231 
Q 1875 4231 1450 3742 
Q 1025 3253 1025 2328 
Q 1025 1406 1450 917 
Q 1875 428 2675 428 
Q 3081 428 3442 575 
Q 3803 722 4122 1019 
L 4122 359 
Q 3791 134 3420 21 
Q 3050 -91 2638 -91 
Q 1578 -91 968 557 
Q 359 1206 359 2328 
Q 359 3453 968 4101 
Q 1578 4750 2638 4750 
Q 3056 4750 3426 4639 
Q 3797 4528 4122 4306 
z
" id="DejaVuSans-43" transform="scale(0.015625)"/>
     </defs>
     <use xlink:href="#DejaVuSans-41"/>
     <use x="68.408203" xlink:href="#DejaVuSans-55"/>
     <use x="141.601562" xlink:href="#DejaVuSans-43"/>
    </g>
   </g>
  </g>
  <g id="axes_3">
   <g id="patch_6">
    <path d="M 46.789688 465.764082 
L 410.138525 465.764082 
L 410.138525 253.674082 
L 46.789688 253.674082 
z
" style="fill:#ebebeb;"/>
   </g>
   <g id="matplotlib.axis_5">
    <g id="xtick_19">
     <g id="line2d_51">
      <path clip-path="url(#pbddfa10243)" d="M 58.062415 465.764082 
L 58.062415 253.674082 
" style="fill:none;stroke:#ffffff;stroke-linecap:square;"/>
     </g>
     <g id="line2d_52">
      <path d="M 58.062415 465.764082 
" style="fill:none;stroke:#333333;stroke-linecap:square;stroke-width:1.5;"/>
      <defs>
       <path d="M 0 0 
L 0 2.75 
" id="m9b8a59bfab" style="stroke:#000000;"/>
      </defs>
      <g>
       <use style="fill:#333333;stroke:#000000;" x="58.062415" xlink:href="#m9b8a59bfab" y="465.764082"/>
      </g>
     </g>
     <g id="text_14">
      <!-- 0 -->
      <g style="fill:#4d4d4d;" transform="translate(55.262915 477.400707)scale(0.088 -0.088)">
       <use xlink:href="#DejaVuSans-30"/>
      </g>
     </g>
    </g>
    <g id="xtick_20">
     <g id="line2d_53">
      <path clip-path="url(#pbddfa10243)" d="M 139.986305 465.764082 
L 139.986305 253.674082 
" style="fill:none;stroke:#ffffff;stroke-linecap:square;"/>
     </g>
     <g id="line2d_54">
      <path d="M 139.986305 465.764082 
" style="fill:none;stroke:#333333;stroke-linecap:square;stroke-width:1.5;"/>
      <g>
       <use style="fill:#333333;stroke:#000000;" x="139.986305" xlink:href="#m9b8a59bfab" y="465.764082"/>
      </g>
     </g>
     <g id="text_15">
      <!-- 250 -->
      <g style="fill:#4d4d4d;" transform="translate(131.587805 477.400707)scale(0.088 -0.088)">
       <use xlink:href="#DejaVuSans-32"/>
       <use x="63.623047" xlink:href="#DejaVuSans-35"/>
       <use x="127.246094" xlink:href="#DejaVuSans-30"/>
      </g>
     </g>
    </g>
    <g id="xtick_21">
     <g id="line2d_55">
      <path clip-path="url(#pbddfa10243)" d="M 221.910195 465.764082 
L 221.910195 253.674082 
" style="fill:none;stroke:#ffffff;stroke-linecap:square;"/>
     </g>
     <g id="line2d_56">
      <path d="M 221.910195 465.764082 
" style="fill:none;stroke:#333333;stroke-linecap:square;stroke-width:1.5;"/>
      <g>
       <use style="fill:#333333;stroke:#000000;" x="221.910195" xlink:href="#m9b8a59bfab" y="465.764082"/>
      </g>
     </g>
     <g id="text_16">
      <!-- 500 -->
      <g style="fill:#4d4d4d;" transform="translate(213.511695 477.400707)scale(0.088 -0.088)">
       <use xlink:href="#DejaVuSans-35"/>
       <use x="63.623047" xlink:href="#DejaVuSans-30"/>
       <use x="127.246094" xlink:href="#DejaVuSans-30"/>
      </g>
     </g>
    </g>
    <g id="xtick_22">
     <g id="line2d_57">
      <path clip-path="url(#pbddfa10243)" d="M 303.834085 465.764082 
L 303.834085 253.674082 
" style="fill:none;stroke:#ffffff;stroke-linecap:square;"/>
     </g>
     <g id="line2d_58">
      <path d="M 303.834085 465.764082 
" style="fill:none;stroke:#333333;stroke-linecap:square;stroke-width:1.5;"/>
      <g>
       <use style="fill:#333333;stroke:#000000;" x="303.834085" xlink:href="#m9b8a59bfab" y="465.764082"/>
      </g>
     </g>
     <g id="text_17">
      <!-- 750 -->
      <g style="fill:#4d4d4d;" transform="translate(295.435585 477.400707)scale(0.088 -0.088)">
       <use xlink:href="#DejaVuSans-37"/>
       <use x="63.623047" xlink:href="#DejaVuSans-35"/>
       <use x="127.246094" xlink:href="#DejaVuSans-30"/>
      </g>
     </g>
    </g>
    <g id="xtick_23">
     <g id="line2d_59">
      <path clip-path="url(#pbddfa10243)" d="M 385.757975 465.764082 
L 385.757975 253.674082 
" style="fill:none;stroke:#ffffff;stroke-linecap:square;"/>
     </g>
     <g id="line2d_60">
      <path d="M 385.757975 465.764082 
" style="fill:none;stroke:#333333;stroke-linecap:square;stroke-width:1.5;"/>
      <g>
       <use style="fill:#333333;stroke:#000000;" x="385.757975" xlink:href="#m9b8a59bfab" y="465.764082"/>
      </g>
     </g>
     <g id="text_18">
      <!-- 1000 -->
      <g style="fill:#4d4d4d;" transform="translate(374.559975 477.400707)scale(0.088 -0.088)">
       <use xlink:href="#DejaVuSans-31"/>
       <use x="63.623047" xlink:href="#DejaVuSans-30"/>
       <use x="127.246094" xlink:href="#DejaVuSans-30"/>
       <use x="190.869141" xlink:href="#DejaVuSans-30"/>
      </g>
     </g>
    </g>
    <g id="xtick_24">
     <g id="line2d_61">
      <path clip-path="url(#pbddfa10243)" d="M 99.02436 465.764082 
L 99.02436 253.674082 
" style="fill:none;stroke:#ffffff;stroke-linecap:square;stroke-width:0.5;"/>
     </g>
    </g>
    <g id="xtick_25">
     <g id="line2d_62">
      <path clip-path="url(#pbddfa10243)" d="M 180.94825 465.764082 
L 180.94825 253.674082 
" style="fill:none;stroke:#ffffff;stroke-linecap:square;stroke-width:0.5;"/>
     </g>
    </g>
    <g id="xtick_26">
     <g id="line2d_63">
      <path clip-path="url(#pbddfa10243)" d="M 262.87214 465.764082 
L 262.87214 253.674082 
" style="fill:none;stroke:#ffffff;stroke-linecap:square;stroke-width:0.5;"/>
     </g>
    </g>
    <g id="xtick_27">
     <g id="line2d_64">
      <path clip-path="url(#pbddfa10243)" d="M 344.79603 465.764082 
L 344.79603 253.674082 
" style="fill:none;stroke:#ffffff;stroke-linecap:square;stroke-width:0.5;"/>
     </g>
    </g>
   </g>
   <g id="matplotlib.axis_6">
    <g id="ytick_21">
     <g id="line2d_65">
      <path clip-path="url(#pbddfa10243)" d="M 46.789688 430.387506 
L 410.138525 430.387506 
" style="fill:none;stroke:#ffffff;stroke-linecap:square;"/>
     </g>
     <g id="line2d_66">
      <path d="M 46.789688 430.387506 
" style="fill:none;stroke:#333333;stroke-linecap:square;stroke-width:1.5;"/>
      <g>
       <use style="fill:#333333;stroke:#000000;" x="46.789688" xlink:href="#m3f21b9299f" y="430.387506"/>
      </g>
     </g>
     <g id="text_19">
      <!-- 0.875 -->
      <g style="fill:#4d4d4d;" transform="translate(16.646938 432.815756)scale(0.088 -0.088)">
       <use xlink:href="#DejaVuSans-30"/>
       <use x="63.623047" xlink:href="#DejaVuSans-2e"/>
       <use x="95.410156" xlink:href="#DejaVuSans-38"/>
       <use x="159.033203" xlink:href="#DejaVuSans-37"/>
       <use x="222.65625" xlink:href="#DejaVuSans-35"/>
      </g>
     </g>
    </g>
    <g id="ytick_22">
     <g id="line2d_67">
      <path clip-path="url(#pbddfa10243)" d="M 46.789688 383.203303 
L 410.138525 383.203303 
" style="fill:none;stroke:#ffffff;stroke-linecap:square;"/>
     </g>
     <g id="line2d_68">
      <path d="M 46.789688 383.203303 
" style="fill:none;stroke:#333333;stroke-linecap:square;stroke-width:1.5;"/>
      <g>
       <use style="fill:#333333;stroke:#000000;" x="46.789688" xlink:href="#m3f21b9299f" y="383.203303"/>
      </g>
     </g>
     <g id="text_20">
      <!-- 0.880 -->
      <g style="fill:#4d4d4d;" transform="translate(16.646938 385.631553)scale(0.088 -0.088)">
       <use xlink:href="#DejaVuSans-30"/>
       <use x="63.623047" xlink:href="#DejaVuSans-2e"/>
       <use x="95.410156" xlink:href="#DejaVuSans-38"/>
       <use x="159.033203" xlink:href="#DejaVuSans-38"/>
       <use x="222.65625" xlink:href="#DejaVuSans-30"/>
      </g>
     </g>
    </g>
    <g id="ytick_23">
     <g id="line2d_69">
      <path clip-path="url(#pbddfa10243)" d="M 46.789688 336.019101 
L 410.138525 336.019101 
" style="fill:none;stroke:#ffffff;stroke-linecap:square;"/>
     </g>
     <g id="line2d_70">
      <path d="M 46.789688 336.019101 
" style="fill:none;stroke:#333333;stroke-linecap:square;stroke-width:1.5;"/>
      <g>
       <use style="fill:#333333;stroke:#000000;" x="46.789688" xlink:href="#m3f21b9299f" y="336.019101"/>
      </g>
     </g>
     <g id="text_21">
      <!-- 0.885 -->
      <g style="fill:#4d4d4d;" transform="translate(16.646938 338.447351)scale(0.088 -0.088)">
       <use xlink:href="#DejaVuSans-30"/>
       <use x="63.623047" xlink:href="#DejaVuSans-2e"/>
       <use x="95.410156" xlink:href="#DejaVuSans-38"/>
       <use x="159.033203" xlink:href="#DejaVuSans-38"/>
       <use x="222.65625" xlink:href="#DejaVuSans-35"/>
      </g>
     </g>
    </g>
    <g id="ytick_24">
     <g id="line2d_71">
      <path clip-path="url(#pbddfa10243)" d="M 46.789688 288.834898 
L 410.138525 288.834898 
" style="fill:none;stroke:#ffffff;stroke-linecap:square;"/>
     </g>
     <g id="line2d_72">
      <path d="M 46.789688 288.834898 
" style="fill:none;stroke:#333333;stroke-linecap:square;stroke-width:1.5;"/>
      <g>
       <use style="fill:#333333;stroke:#000000;" x="46.789688" xlink:href="#m3f21b9299f" y="288.834898"/>
      </g>
     </g>
     <g id="text_22">
      <!-- 0.890 -->
      <g style="fill:#4d4d4d;" transform="translate(16.646938 291.263148)scale(0.088 -0.088)">
       <defs>
        <path d="M 703 97 
L 703 672 
Q 941 559 1184 500 
Q 1428 441 1663 441 
Q 2288 441 2617 861 
Q 2947 1281 2994 2138 
Q 2813 1869 2534 1725 
Q 2256 1581 1919 1581 
Q 1219 1581 811 2004 
Q 403 2428 403 3163 
Q 403 3881 828 4315 
Q 1253 4750 1959 4750 
Q 2769 4750 3195 4129 
Q 3622 3509 3622 2328 
Q 3622 1225 3098 567 
Q 2575 -91 1691 -91 
Q 1453 -91 1209 -44 
Q 966 3 703 97 
z
M 1959 2075 
Q 2384 2075 2632 2365 
Q 2881 2656 2881 3163 
Q 2881 3666 2632 3958 
Q 2384 4250 1959 4250 
Q 1534 4250 1286 3958 
Q 1038 3666 1038 3163 
Q 1038 2656 1286 2365 
Q 1534 2075 1959 2075 
z
" id="DejaVuSans-39" transform="scale(0.015625)"/>
       </defs>
       <use xlink:href="#DejaVuSans-30"/>
       <use x="63.623047" xlink:href="#DejaVuSans-2e"/>
       <use x="95.410156" xlink:href="#DejaVuSans-38"/>
       <use x="159.033203" xlink:href="#DejaVuSans-39"/>
       <use x="222.65625" xlink:href="#DejaVuSans-30"/>
      </g>
     </g>
    </g>
    <g id="ytick_25">
     <g id="line2d_73">
      <path clip-path="url(#pbddfa10243)" d="M 46.789688 453.979607 
L 410.138525 453.979607 
" style="fill:none;stroke:#ffffff;stroke-linecap:square;stroke-width:0.5;"/>
     </g>
    </g>
    <g id="ytick_26">
     <g id="line2d_74">
      <path clip-path="url(#pbddfa10243)" d="M 46.789688 406.795405 
L 410.138525 406.795405 
" style="fill:none;stroke:#ffffff;stroke-linecap:square;stroke-width:0.5;"/>
     </g>
    </g>
    <g id="ytick_27">
     <g id="line2d_75">
      <path clip-path="url(#pbddfa10243)" d="M 46.789688 359.611202 
L 410.138525 359.611202 
" style="fill:none;stroke:#ffffff;stroke-linecap:square;stroke-width:0.5;"/>
     </g>
    </g>
    <g id="ytick_28">
     <g id="line2d_76">
      <path clip-path="url(#pbddfa10243)" d="M 46.789688 312.427 
L 410.138525 312.427 
" style="fill:none;stroke:#ffffff;stroke-linecap:square;stroke-width:0.5;"/>
     </g>
    </g>
    <g id="ytick_29">
     <g id="line2d_77">
      <path clip-path="url(#pbddfa10243)" d="M 46.789688 265.242797 
L 410.138525 265.242797 
" style="fill:none;stroke:#ffffff;stroke-linecap:square;stroke-width:0.5;"/>
     </g>
    </g>
   </g>
   <g id="line2d_78">
    <path clip-path="url(#pbddfa10243)" d="M 63.305544 401.022303 
L 68.548673 355.699067 
L 79.034931 330.476871 
L 89.521189 317.449617 
L 100.007446 299.456739 
L 120.979962 296.163411 
L 141.952478 285.963195 
L 183.89751 277.079062 
L 225.842542 282.712855 
L 315.631125 278.873708 
L 393.622668 284.652372 
" style="fill:none;stroke:#000000;stroke-width:0.886227;"/>
   </g>
   <g id="PathCollection_3">
    <path clip-path="url(#pbddfa10243)" d="M 63.305544 402.794756 
C 63.775604 402.794756 64.226475 402.608 64.558858 402.275617 
C 64.891241 401.943234 65.077998 401.492363 65.077998 401.022303 
C 65.077998 400.552242 64.891241 400.101371 64.558858 399.768988 
C 64.226475 399.436606 63.775604 399.249849 63.305544 399.249849 
C 62.835483 399.249849 62.384612 399.436606 62.05223 399.768988 
C 61.719847 400.101371 61.53309 400.552242 61.53309 401.022303 
C 61.53309 401.492363 61.719847 401.943234 62.05223 402.275617 
C 62.384612 402.608 62.835483 402.794756 63.305544 402.794756 
z
" style="stroke:#000000;stroke-width:0.886227;"/>
    <path clip-path="url(#pbddfa10243)" d="M 68.548673 357.471521 
C 69.018733 357.471521 69.469604 357.284764 69.801987 356.952381 
C 70.13437 356.619998 70.321127 356.169127 70.321127 355.699067 
C 70.321127 355.229007 70.13437 354.778136 69.801987 354.445753 
C 69.469604 354.11337 69.018733 353.926613 68.548673 353.926613 
C 68.078612 353.926613 67.627741 354.11337 67.295359 354.445753 
C 66.962976 354.778136 66.776219 355.229007 66.776219 355.699067 
C 66.776219 356.169127 66.962976 356.619998 67.295359 356.952381 
C 67.627741 357.284764 68.078612 357.471521 68.548673 357.471521 
z
" style="stroke:#000000;stroke-width:0.886227;"/>
    <path clip-path="url(#pbddfa10243)" d="M 79.034931 332.249325 
C 79.504991 332.249325 79.955862 332.062568 80.288245 331.730185 
C 80.620628 331.397802 80.807384 330.946931 80.807384 330.476871 
C 80.807384 330.006811 80.620628 329.555939 80.288245 329.223557 
C 79.955862 328.891174 79.504991 328.704417 79.034931 328.704417 
C 78.56487 328.704417 78.113999 328.891174 77.781616 329.223557 
C 77.449234 329.555939 77.262477 330.006811 77.262477 330.476871 
C 77.262477 330.946931 77.449234 331.397802 77.781616 331.730185 
C 78.113999 332.062568 78.56487 332.249325 79.034931 332.249325 
z
" style="stroke:#000000;stroke-width:0.886227;"/>
    <path clip-path="url(#pbddfa10243)" d="M 89.521189 319.222071 
C 89.991249 319.222071 90.44212 319.035314 90.774503 318.702931 
C 91.106885 318.370548 91.293642 317.919677 91.293642 317.449617 
C 91.293642 316.979556 91.106885 316.528685 90.774503 316.196303 
C 90.44212 315.86392 89.991249 315.677163 89.521189 315.677163 
C 89.051128 315.677163 88.600257 315.86392 88.267874 316.196303 
C 87.935492 316.528685 87.748735 316.979556 87.748735 317.449617 
C 87.748735 317.919677 87.935492 318.370548 88.267874 318.702931 
C 88.600257 319.035314 89.051128 319.222071 89.521189 319.222071 
z
" style="stroke:#000000;stroke-width:0.886227;"/>
    <path clip-path="url(#pbddfa10243)" d="M 100.007446 301.229193 
C 100.477507 301.229193 100.928378 301.042436 101.260761 300.710053 
C 101.593143 300.37767 101.7799 299.926799 101.7799 299.456739 
C 101.7799 298.986679 101.593143 298.535808 101.260761 298.203425 
C 100.928378 297.871042 100.477507 297.684285 100.007446 297.684285 
C 99.537386 297.684285 99.086515 297.871042 98.754132 298.203425 
C 98.42175 298.535808 98.234993 298.986679 98.234993 299.456739 
C 98.234993 299.926799 98.42175 300.37767 98.754132 300.710053 
C 99.086515 301.042436 99.537386 301.229193 100.007446 301.229193 
z
" style="stroke:#000000;stroke-width:0.886227;"/>
    <path clip-path="url(#pbddfa10243)" d="M 120.979962 297.935865 
C 121.450023 297.935865 121.900894 297.749108 122.233276 297.416725 
C 122.565659 297.084342 122.752416 296.633471 122.752416 296.163411 
C 122.752416 295.693351 122.565659 295.242479 122.233276 294.910097 
C 121.900894 294.577714 121.450023 294.390957 120.979962 294.390957 
C 120.509902 294.390957 120.059031 294.577714 119.726648 294.910097 
C 119.394265 295.242479 119.207508 295.693351 119.207508 296.163411 
C 119.207508 296.633471 119.394265 297.084342 119.726648 297.416725 
C 120.059031 297.749108 120.509902 297.935865 120.979962 297.935865 
z
" style="stroke:#000000;stroke-width:0.886227;"/>
    <path clip-path="url(#pbddfa10243)" d="M 141.952478 287.735649 
C 142.422538 287.735649 142.87341 287.548892 143.205792 287.21651 
C 143.538175 286.884127 143.724932 286.433256 143.724932 285.963195 
C 143.724932 285.493135 143.538175 285.042264 143.205792 284.709881 
C 142.87341 284.377499 142.422538 284.190742 141.952478 284.190742 
C 141.482418 284.190742 141.031547 284.377499 140.699164 284.709881 
C 140.366781 285.042264 140.180024 285.493135 140.180024 285.963195 
C 140.180024 286.433256 140.366781 286.884127 140.699164 287.21651 
C 141.031547 287.548892 141.482418 287.735649 141.952478 287.735649 
z
" style="stroke:#000000;stroke-width:0.886227;"/>
    <path clip-path="url(#pbddfa10243)" d="M 183.89751 278.851516 
C 184.36757 278.851516 184.818441 278.664759 185.150824 278.332377 
C 185.483207 277.999994 185.669964 277.549123 185.669964 277.079062 
C 185.669964 276.609002 185.483207 276.158131 185.150824 275.825748 
C 184.818441 275.493366 184.36757 275.306609 183.89751 275.306609 
C 183.42745 275.306609 182.976579 275.493366 182.644196 275.825748 
C 182.311813 276.158131 182.125056 276.609002 182.125056 277.079062 
C 182.125056 277.549123 182.311813 277.999994 182.644196 278.332377 
C 182.976579 278.664759 183.42745 278.851516 183.89751 278.851516 
z
" style="stroke:#000000;stroke-width:0.886227;"/>
    <path clip-path="url(#pbddfa10243)" d="M 225.842542 284.485309 
C 226.312602 284.485309 226.763473 284.298552 227.095856 283.966169 
C 227.428239 283.633786 227.614995 283.182915 227.614995 282.712855 
C 227.614995 282.242795 227.428239 281.791923 227.095856 281.459541 
C 226.763473 281.127158 226.312602 280.940401 225.842542 280.940401 
C 225.372481 280.940401 224.92161 281.127158 224.589227 281.459541 
C 224.256845 281.791923 224.070088 282.242795 224.070088 282.712855 
C 224.070088 283.182915 224.256845 283.633786 224.589227 283.966169 
C 224.92161 284.298552 225.372481 284.485309 225.842542 284.485309 
z
" style="stroke:#000000;stroke-width:0.886227;"/>
    <path clip-path="url(#pbddfa10243)" d="M 315.631125 280.646161 
C 316.101185 280.646161 316.552056 280.459405 316.884439 280.127022 
C 317.216822 279.794639 317.403579 279.343768 317.403579 278.873708 
C 317.403579 278.403647 317.216822 277.952776 316.884439 277.620393 
C 316.552056 277.288011 316.101185 277.101254 315.631125 277.101254 
C 315.161065 277.101254 314.710194 277.288011 314.377811 277.620393 
C 314.045428 277.952776 313.858671 278.403647 313.858671 278.873708 
C 313.858671 279.343768 314.045428 279.794639 314.377811 280.127022 
C 314.710194 280.459405 315.161065 280.646161 315.631125 280.646161 
z
" style="stroke:#000000;stroke-width:0.886227;"/>
    <path clip-path="url(#pbddfa10243)" d="M 393.622668 286.424826 
C 394.092729 286.424826 394.5436 286.238069 394.875983 285.905686 
C 395.208365 285.573303 395.395122 285.122432 395.395122 284.652372 
C 395.395122 284.182312 395.208365 283.731441 394.875983 283.399058 
C 394.5436 283.066675 394.092729 282.879918 393.622668 282.879918 
C 393.152608 282.879918 392.701737 283.066675 392.369354 283.399058 
C 392.036972 283.731441 391.850215 284.182312 391.850215 284.652372 
C 391.850215 285.122432 392.036972 285.573303 392.369354 285.905686 
C 392.701737 286.238069 393.152608 286.424826 393.622668 286.424826 
z
" style="stroke:#000000;stroke-width:0.886227;"/>
   </g>
   <g id="patch_7">
    <path d="M 46.789688 253.674082 
L 410.138525 253.674082 
L 410.138525 238.63 
L 46.789688 238.63 
z
" style="fill:#d9d9d9;"/>
   </g>
   <g id="PolyCollection_3">
    <path clip-path="url(#pbddfa10243)" d="M 63.305544 345.920977 
L 63.305544 456.123628 
L 68.548673 381.420796 
L 79.034931 354.665699 
L 89.521189 335.568382 
L 100.007446 312.991557 
L 120.979962 310.412714 
L 141.952478 299.341298 
L 183.89751 286.862515 
L 225.842542 296.363779 
L 315.631125 294.432878 
L 393.622668 300.321544 
L 393.622668 268.9832 
L 393.622668 268.9832 
L 315.631125 263.314537 
L 225.842542 269.06193 
L 183.89751 267.29561 
L 141.952478 272.585093 
L 120.979962 281.914108 
L 100.007446 285.921922 
L 89.521189 299.330851 
L 79.034931 306.288042 
L 68.548673 329.977338 
L 63.305544 345.920977 
z
" style="fill:#333333;fill-opacity:0.501961;"/>
   </g>
   <g id="text_23">
    <!-- F1 score: &lt;=50K -->
    <g style="fill:#1a1a1a;" transform="translate(191.175481 248.580291)scale(0.088 -0.088)">
     <defs>
      <path d="M 628 4666 
L 3309 4666 
L 3309 4134 
L 1259 4134 
L 1259 2759 
L 3109 2759 
L 3109 2228 
L 1259 2228 
L 1259 0 
L 628 0 
L 628 4666 
z
" id="DejaVuSans-46" transform="scale(0.015625)"/>
      <path id="DejaVuSans-20" transform="scale(0.015625)"/>
      <path d="M 2834 3397 
L 2834 2853 
Q 2591 2978 2328 3040 
Q 2066 3103 1784 3103 
Q 1356 3103 1142 2972 
Q 928 2841 928 2578 
Q 928 2378 1081 2264 
Q 1234 2150 1697 2047 
L 1894 2003 
Q 2506 1872 2764 1633 
Q 3022 1394 3022 966 
Q 3022 478 2636 193 
Q 2250 -91 1575 -91 
Q 1294 -91 989 -36 
Q 684 19 347 128 
L 347 722 
Q 666 556 975 473 
Q 1284 391 1588 391 
Q 1994 391 2212 530 
Q 2431 669 2431 922 
Q 2431 1156 2273 1281 
Q 2116 1406 1581 1522 
L 1381 1569 
Q 847 1681 609 1914 
Q 372 2147 372 2553 
Q 372 3047 722 3315 
Q 1072 3584 1716 3584 
Q 2034 3584 2315 3537 
Q 2597 3491 2834 3397 
z
" id="DejaVuSans-73" transform="scale(0.015625)"/>
      <path d="M 1959 3097 
Q 1497 3097 1228 2736 
Q 959 2375 959 1747 
Q 959 1119 1226 758 
Q 1494 397 1959 397 
Q 2419 397 2687 759 
Q 2956 1122 2956 1747 
Q 2956 2369 2687 2733 
Q 2419 3097 1959 3097 
z
M 1959 3584 
Q 2709 3584 3137 3096 
Q 3566 2609 3566 1747 
Q 3566 888 3137 398 
Q 2709 -91 1959 -91 
Q 1206 -91 779 398 
Q 353 888 353 1747 
Q 353 2609 779 3096 
Q 1206 3584 1959 3584 
z
" id="DejaVuSans-6f" transform="scale(0.015625)"/>
      <path d="M 750 794 
L 1409 794 
L 1409 0 
L 750 0 
L 750 794 
z
M 750 3309 
L 1409 3309 
L 1409 2516 
L 750 2516 
L 750 3309 
z
" id="DejaVuSans-3a" transform="scale(0.015625)"/>
      <path d="M 4684 3150 
L 1459 2003 
L 4684 863 
L 4684 294 
L 678 1747 
L 678 2266 
L 4684 3719 
L 4684 3150 
z
" id="DejaVuSans-3c" transform="scale(0.015625)"/>
      <path d="M 678 2906 
L 4684 2906 
L 4684 2381 
L 678 2381 
L 678 2906 
z
M 678 1631 
L 4684 1631 
L 4684 1100 
L 678 1100 
L 678 1631 
z
" id="DejaVuSans-3d" transform="scale(0.015625)"/>
      <path d="M 628 4666 
L 1259 4666 
L 1259 2694 
L 3353 4666 
L 4166 4666 
L 1850 2491 
L 4331 0 
L 3500 0 
L 1259 2247 
L 1259 0 
L 628 0 
L 628 4666 
z
" id="DejaVuSans-4b" transform="scale(0.015625)"/>
     </defs>
     <use xlink:href="#DejaVuSans-46"/>
     <use x="57.519531" xlink:href="#DejaVuSans-31"/>
     <use x="121.142578" xlink:href="#DejaVuSans-20"/>
     <use x="152.929688" xlink:href="#DejaVuSans-73"/>
     <use x="205.029297" xlink:href="#DejaVuSans-63"/>
     <use x="260.009766" xlink:href="#DejaVuSans-6f"/>
     <use x="321.191406" xlink:href="#DejaVuSans-72"/>
     <use x="360.054688" xlink:href="#DejaVuSans-65"/>
     <use x="421.578125" xlink:href="#DejaVuSans-3a"/>
     <use x="455.269531" xlink:href="#DejaVuSans-20"/>
     <use x="487.056641" xlink:href="#DejaVuSans-3c"/>
     <use x="570.845703" xlink:href="#DejaVuSans-3d"/>
     <use x="654.634766" xlink:href="#DejaVuSans-35"/>
     <use x="718.257812" xlink:href="#DejaVuSans-30"/>
     <use x="781.880859" xlink:href="#DejaVuSans-4b"/>
    </g>
   </g>
  </g>
  <g id="axes_4">
   <g id="patch_8">
    <path d="M 464.64085 465.764082 
L 827.989688 465.764082 
L 827.989688 253.674082 
L 464.64085 253.674082 
z
" style="fill:#ebebeb;"/>
   </g>
   <g id="matplotlib.axis_7">
    <g id="xtick_28">
     <g id="line2d_79">
      <path clip-path="url(#pd67e838848)" d="M 475.913578 465.764082 
L 475.913578 253.674082 
" style="fill:none;stroke:#ffffff;stroke-linecap:square;"/>
     </g>
     <g id="line2d_80">
      <path d="M 475.913578 465.764082 
" style="fill:none;stroke:#333333;stroke-linecap:square;stroke-width:1.5;"/>
      <g>
       <use style="fill:#333333;stroke:#000000;" x="475.913578" xlink:href="#m9b8a59bfab" y="465.764082"/>
      </g>
     </g>
     <g id="text_24">
      <!-- 0 -->
      <g style="fill:#4d4d4d;" transform="translate(473.114078 477.400707)scale(0.088 -0.088)">
       <use xlink:href="#DejaVuSans-30"/>
      </g>
     </g>
    </g>
    <g id="xtick_29">
     <g id="line2d_81">
      <path clip-path="url(#pd67e838848)" d="M 557.837468 465.764082 
L 557.837468 253.674082 
" style="fill:none;stroke:#ffffff;stroke-linecap:square;"/>
     </g>
     <g id="line2d_82">
      <path d="M 557.837468 465.764082 
" style="fill:none;stroke:#333333;stroke-linecap:square;stroke-width:1.5;"/>
      <g>
       <use style="fill:#333333;stroke:#000000;" x="557.837468" xlink:href="#m9b8a59bfab" y="465.764082"/>
      </g>
     </g>
     <g id="text_25">
      <!-- 250 -->
      <g style="fill:#4d4d4d;" transform="translate(549.438968 477.400707)scale(0.088 -0.088)">
       <use xlink:href="#DejaVuSans-32"/>
       <use x="63.623047" xlink:href="#DejaVuSans-35"/>
       <use x="127.246094" xlink:href="#DejaVuSans-30"/>
      </g>
     </g>
    </g>
    <g id="xtick_30">
     <g id="line2d_83">
      <path clip-path="url(#pd67e838848)" d="M 639.761358 465.764082 
L 639.761358 253.674082 
" style="fill:none;stroke:#ffffff;stroke-linecap:square;"/>
     </g>
     <g id="line2d_84">
      <path d="M 639.761358 465.764082 
" style="fill:none;stroke:#333333;stroke-linecap:square;stroke-width:1.5;"/>
      <g>
       <use style="fill:#333333;stroke:#000000;" x="639.761358" xlink:href="#m9b8a59bfab" y="465.764082"/>
      </g>
     </g>
     <g id="text_26">
      <!-- 500 -->
      <g style="fill:#4d4d4d;" transform="translate(631.362858 477.400707)scale(0.088 -0.088)">
       <use xlink:href="#DejaVuSans-35"/>
       <use x="63.623047" xlink:href="#DejaVuSans-30"/>
       <use x="127.246094" xlink:href="#DejaVuSans-30"/>
      </g>
     </g>
    </g>
    <g id="xtick_31">
     <g id="line2d_85">
      <path clip-path="url(#pd67e838848)" d="M 721.685248 465.764082 
L 721.685248 253.674082 
" style="fill:none;stroke:#ffffff;stroke-linecap:square;"/>
     </g>
     <g id="line2d_86">
      <path d="M 721.685248 465.764082 
" style="fill:none;stroke:#333333;stroke-linecap:square;stroke-width:1.5;"/>
      <g>
       <use style="fill:#333333;stroke:#000000;" x="721.685248" xlink:href="#m9b8a59bfab" y="465.764082"/>
      </g>
     </g>
     <g id="text_27">
      <!-- 750 -->
      <g style="fill:#4d4d4d;" transform="translate(713.286748 477.400707)scale(0.088 -0.088)">
       <use xlink:href="#DejaVuSans-37"/>
       <use x="63.623047" xlink:href="#DejaVuSans-35"/>
       <use x="127.246094" xlink:href="#DejaVuSans-30"/>
      </g>
     </g>
    </g>
    <g id="xtick_32">
     <g id="line2d_87">
      <path clip-path="url(#pd67e838848)" d="M 803.609138 465.764082 
L 803.609138 253.674082 
" style="fill:none;stroke:#ffffff;stroke-linecap:square;"/>
     </g>
     <g id="line2d_88">
      <path d="M 803.609138 465.764082 
" style="fill:none;stroke:#333333;stroke-linecap:square;stroke-width:1.5;"/>
      <g>
       <use style="fill:#333333;stroke:#000000;" x="803.609138" xlink:href="#m9b8a59bfab" y="465.764082"/>
      </g>
     </g>
     <g id="text_28">
      <!-- 1000 -->
      <g style="fill:#4d4d4d;" transform="translate(792.411138 477.400707)scale(0.088 -0.088)">
       <use xlink:href="#DejaVuSans-31"/>
       <use x="63.623047" xlink:href="#DejaVuSans-30"/>
       <use x="127.246094" xlink:href="#DejaVuSans-30"/>
       <use x="190.869141" xlink:href="#DejaVuSans-30"/>
      </g>
     </g>
    </g>
    <g id="xtick_33">
     <g id="line2d_89">
      <path clip-path="url(#pd67e838848)" d="M 516.875523 465.764082 
L 516.875523 253.674082 
" style="fill:none;stroke:#ffffff;stroke-linecap:square;stroke-width:0.5;"/>
     </g>
    </g>
    <g id="xtick_34">
     <g id="line2d_90">
      <path clip-path="url(#pd67e838848)" d="M 598.799413 465.764082 
L 598.799413 253.674082 
" style="fill:none;stroke:#ffffff;stroke-linecap:square;stroke-width:0.5;"/>
     </g>
    </g>
    <g id="xtick_35">
     <g id="line2d_91">
      <path clip-path="url(#pd67e838848)" d="M 680.723303 465.764082 
L 680.723303 253.674082 
" style="fill:none;stroke:#ffffff;stroke-linecap:square;stroke-width:0.5;"/>
     </g>
    </g>
    <g id="xtick_36">
     <g id="line2d_92">
      <path clip-path="url(#pd67e838848)" d="M 762.647193 465.764082 
L 762.647193 253.674082 
" style="fill:none;stroke:#ffffff;stroke-linecap:square;stroke-width:0.5;"/>
     </g>
    </g>
    <g id="text_29">
     <!-- Dim hidden -->
     <g transform="translate(393.054688 491.989114)scale(0.11 -0.11)">
      <defs>
       <path d="M 1259 4147 
L 1259 519 
L 2022 519 
Q 2988 519 3436 956 
Q 3884 1394 3884 2338 
Q 3884 3275 3436 3711 
Q 2988 4147 2022 4147 
L 1259 4147 
z
M 628 4666 
L 1925 4666 
Q 3281 4666 3915 4102 
Q 4550 3538 4550 2338 
Q 4550 1131 3912 565 
Q 3275 0 1925 0 
L 628 0 
L 628 4666 
z
" id="DejaVuSans-44" transform="scale(0.015625)"/>
       <path d="M 603 3500 
L 1178 3500 
L 1178 0 
L 603 0 
L 603 3500 
z
M 603 4863 
L 1178 4863 
L 1178 4134 
L 603 4134 
L 603 4863 
z
" id="DejaVuSans-69" transform="scale(0.015625)"/>
       <path d="M 3328 2828 
Q 3544 3216 3844 3400 
Q 4144 3584 4550 3584 
Q 5097 3584 5394 3201 
Q 5691 2819 5691 2113 
L 5691 0 
L 5113 0 
L 5113 2094 
Q 5113 2597 4934 2840 
Q 4756 3084 4391 3084 
Q 3944 3084 3684 2787 
Q 3425 2491 3425 1978 
L 3425 0 
L 2847 0 
L 2847 2094 
Q 2847 2600 2669 2842 
Q 2491 3084 2119 3084 
Q 1678 3084 1418 2786 
Q 1159 2488 1159 1978 
L 1159 0 
L 581 0 
L 581 3500 
L 1159 3500 
L 1159 2956 
Q 1356 3278 1631 3431 
Q 1906 3584 2284 3584 
Q 2666 3584 2933 3390 
Q 3200 3197 3328 2828 
z
" id="DejaVuSans-6d" transform="scale(0.015625)"/>
       <path d="M 3513 2113 
L 3513 0 
L 2938 0 
L 2938 2094 
Q 2938 2591 2744 2837 
Q 2550 3084 2163 3084 
Q 1697 3084 1428 2787 
Q 1159 2491 1159 1978 
L 1159 0 
L 581 0 
L 581 4863 
L 1159 4863 
L 1159 2956 
Q 1366 3272 1645 3428 
Q 1925 3584 2291 3584 
Q 2894 3584 3203 3211 
Q 3513 2838 3513 2113 
z
" id="DejaVuSans-68" transform="scale(0.015625)"/>
       <path d="M 2906 2969 
L 2906 4863 
L 3481 4863 
L 3481 0 
L 2906 0 
L 2906 525 
Q 2725 213 2448 61 
Q 2172 -91 1784 -91 
Q 1150 -91 751 415 
Q 353 922 353 1747 
Q 353 2572 751 3078 
Q 1150 3584 1784 3584 
Q 2172 3584 2448 3432 
Q 2725 3281 2906 2969 
z
M 947 1747 
Q 947 1113 1208 752 
Q 1469 391 1925 391 
Q 2381 391 2643 752 
Q 2906 1113 2906 1747 
Q 2906 2381 2643 2742 
Q 2381 3103 1925 3103 
Q 1469 3103 1208 2742 
Q 947 2381 947 1747 
z
" id="DejaVuSans-64" transform="scale(0.015625)"/>
       <path d="M 3513 2113 
L 3513 0 
L 2938 0 
L 2938 2094 
Q 2938 2591 2744 2837 
Q 2550 3084 2163 3084 
Q 1697 3084 1428 2787 
Q 1159 2491 1159 1978 
L 1159 0 
L 581 0 
L 581 3500 
L 1159 3500 
L 1159 2956 
Q 1366 3272 1645 3428 
Q 1925 3584 2291 3584 
Q 2894 3584 3203 3211 
Q 3513 2838 3513 2113 
z
" id="DejaVuSans-6e" transform="scale(0.015625)"/>
      </defs>
      <use xlink:href="#DejaVuSans-44"/>
      <use x="77.001953" xlink:href="#DejaVuSans-69"/>
      <use x="104.785156" xlink:href="#DejaVuSans-6d"/>
      <use x="202.197266" xlink:href="#DejaVuSans-20"/>
      <use x="233.984375" xlink:href="#DejaVuSans-68"/>
      <use x="297.363281" xlink:href="#DejaVuSans-69"/>
      <use x="325.146484" xlink:href="#DejaVuSans-64"/>
      <use x="388.623047" xlink:href="#DejaVuSans-64"/>
      <use x="452.099609" xlink:href="#DejaVuSans-65"/>
      <use x="513.623047" xlink:href="#DejaVuSans-6e"/>
     </g>
    </g>
   </g>
   <g id="matplotlib.axis_8">
    <g id="ytick_30">
     <g id="line2d_93">
      <path clip-path="url(#pd67e838848)" d="M 464.64085 412.734974 
L 827.989688 412.734974 
" style="fill:none;stroke:#ffffff;stroke-linecap:square;"/>
     </g>
     <g id="line2d_94">
      <path d="M 464.64085 412.734974 
" style="fill:none;stroke:#333333;stroke-linecap:square;stroke-width:1.5;"/>
      <g>
       <use style="fill:#333333;stroke:#000000;" x="464.64085" xlink:href="#m3f21b9299f" y="412.734974"/>
      </g>
     </g>
     <g id="text_30">
      <!-- 0.55 -->
      <g style="fill:#4d4d4d;" transform="translate(440.0971 415.163224)scale(0.088 -0.088)">
       <use xlink:href="#DejaVuSans-30"/>
       <use x="63.623047" xlink:href="#DejaVuSans-2e"/>
       <use x="95.410156" xlink:href="#DejaVuSans-35"/>
       <use x="159.033203" xlink:href="#DejaVuSans-35"/>
      </g>
     </g>
    </g>
    <g id="ytick_31">
     <g id="line2d_95">
      <path clip-path="url(#pd67e838848)" d="M 464.64085 341.083174 
L 827.989688 341.083174 
" style="fill:none;stroke:#ffffff;stroke-linecap:square;"/>
     </g>
     <g id="line2d_96">
      <path d="M 464.64085 341.083174 
" style="fill:none;stroke:#333333;stroke-linecap:square;stroke-width:1.5;"/>
      <g>
       <use style="fill:#333333;stroke:#000000;" x="464.64085" xlink:href="#m3f21b9299f" y="341.083174"/>
      </g>
     </g>
     <g id="text_31">
      <!-- 0.60 -->
      <g style="fill:#4d4d4d;" transform="translate(440.0971 343.511424)scale(0.088 -0.088)">
       <use xlink:href="#DejaVuSans-30"/>
       <use x="63.623047" xlink:href="#DejaVuSans-2e"/>
       <use x="95.410156" xlink:href="#DejaVuSans-36"/>
       <use x="159.033203" xlink:href="#DejaVuSans-30"/>
      </g>
     </g>
    </g>
    <g id="ytick_32">
     <g id="line2d_97">
      <path clip-path="url(#pd67e838848)" d="M 464.64085 269.431374 
L 827.989688 269.431374 
" style="fill:none;stroke:#ffffff;stroke-linecap:square;"/>
     </g>
     <g id="line2d_98">
      <path d="M 464.64085 269.431374 
" style="fill:none;stroke:#333333;stroke-linecap:square;stroke-width:1.5;"/>
      <g>
       <use style="fill:#333333;stroke:#000000;" x="464.64085" xlink:href="#m3f21b9299f" y="269.431374"/>
      </g>
     </g>
     <g id="text_32">
      <!-- 0.65 -->
      <g style="fill:#4d4d4d;" transform="translate(440.0971 271.859624)scale(0.088 -0.088)">
       <use xlink:href="#DejaVuSans-30"/>
       <use x="63.623047" xlink:href="#DejaVuSans-2e"/>
       <use x="95.410156" xlink:href="#DejaVuSans-36"/>
       <use x="159.033203" xlink:href="#DejaVuSans-35"/>
      </g>
     </g>
    </g>
    <g id="ytick_33">
     <g id="line2d_99">
      <path clip-path="url(#pd67e838848)" d="M 464.64085 448.560874 
L 827.989688 448.560874 
" style="fill:none;stroke:#ffffff;stroke-linecap:square;stroke-width:0.5;"/>
     </g>
    </g>
    <g id="ytick_34">
     <g id="line2d_100">
      <path clip-path="url(#pd67e838848)" d="M 464.64085 376.909074 
L 827.989688 376.909074 
" style="fill:none;stroke:#ffffff;stroke-linecap:square;stroke-width:0.5;"/>
     </g>
    </g>
    <g id="ytick_35">
     <g id="line2d_101">
      <path clip-path="url(#pd67e838848)" d="M 464.64085 305.257274 
L 827.989688 305.257274 
" style="fill:none;stroke:#ffffff;stroke-linecap:square;stroke-width:0.5;"/>
     </g>
    </g>
   </g>
   <g id="line2d_102">
    <path clip-path="url(#pd67e838848)" d="M 481.156707 389.791628 
L 486.399835 321.656657 
L 496.886093 295.155657 
L 507.372351 289.268931 
L 517.858609 286.431913 
L 538.831125 279.566839 
L 559.803641 274.547794 
L 601.748673 278.367237 
L 643.693704 275.289369 
L 733.482288 275.083452 
L 811.473831 278.17123 
" style="fill:none;stroke:#000000;stroke-width:0.886227;"/>
   </g>
   <g id="PathCollection_4">
    <path clip-path="url(#pd67e838848)" d="M 481.156707 391.564082 
C 481.626767 391.564082 482.077638 391.377325 482.410021 391.044942 
C 482.742403 390.712559 482.92916 390.261688 482.92916 389.791628 
C 482.92916 389.321568 482.742403 388.870697 482.410021 388.538314 
C 482.077638 388.205931 481.626767 388.019174 481.156707 388.019174 
C 480.686646 388.019174 480.235775 388.205931 479.903392 388.538314 
C 479.57101 388.870697 479.384253 389.321568 479.384253 389.791628 
C 479.384253 390.261688 479.57101 390.712559 479.903392 391.044942 
C 480.235775 391.377325 480.686646 391.564082 481.156707 391.564082 
z
" style="stroke:#000000;stroke-width:0.886227;"/>
    <path clip-path="url(#pd67e838848)" d="M 486.399835 323.429111 
C 486.869896 323.429111 487.320767 323.242354 487.65315 322.909971 
C 487.985532 322.577588 488.172289 322.126717 488.172289 321.656657 
C 488.172289 321.186597 487.985532 320.735726 487.65315 320.403343 
C 487.320767 320.07096 486.869896 319.884203 486.399835 319.884203 
C 485.929775 319.884203 485.478904 320.07096 485.146521 320.403343 
C 484.814139 320.735726 484.627382 321.186597 484.627382 321.656657 
C 484.627382 322.126717 484.814139 322.577588 485.146521 322.909971 
C 485.478904 323.242354 485.929775 323.429111 486.399835 323.429111 
z
" style="stroke:#000000;stroke-width:0.886227;"/>
    <path clip-path="url(#pd67e838848)" d="M 496.886093 296.928111 
C 497.356154 296.928111 497.807025 296.741354 498.139408 296.408971 
C 498.47179 296.076588 498.658547 295.625717 498.658547 295.155657 
C 498.658547 294.685597 498.47179 294.234725 498.139408 293.902343 
C 497.807025 293.56996 497.356154 293.383203 496.886093 293.383203 
C 496.416033 293.383203 495.965162 293.56996 495.632779 293.902343 
C 495.300396 294.234725 495.11364 294.685597 495.11364 295.155657 
C 495.11364 295.625717 495.300396 296.076588 495.632779 296.408971 
C 495.965162 296.741354 496.416033 296.928111 496.886093 296.928111 
z
" style="stroke:#000000;stroke-width:0.886227;"/>
    <path clip-path="url(#pd67e838848)" d="M 507.372351 291.041384 
C 507.842412 291.041384 508.293283 290.854628 508.625665 290.522245 
C 508.958048 290.189862 509.144805 289.738991 509.144805 289.268931 
C 509.144805 288.79887 508.958048 288.347999 508.625665 288.015616 
C 508.293283 287.683234 507.842412 287.496477 507.372351 287.496477 
C 506.902291 287.496477 506.45142 287.683234 506.119037 288.015616 
C 505.786654 288.347999 505.599897 288.79887 505.599897 289.268931 
C 505.599897 289.738991 505.786654 290.189862 506.119037 290.522245 
C 506.45142 290.854628 506.902291 291.041384 507.372351 291.041384 
z
" style="stroke:#000000;stroke-width:0.886227;"/>
    <path clip-path="url(#pd67e838848)" d="M 517.858609 288.204366 
C 518.32867 288.204366 518.779541 288.017609 519.111923 287.685227 
C 519.444306 287.352844 519.631063 286.901973 519.631063 286.431913 
C 519.631063 285.961852 519.444306 285.510981 519.111923 285.178598 
C 518.779541 284.846216 518.32867 284.659459 517.858609 284.659459 
C 517.388549 284.659459 516.937678 284.846216 516.605295 285.178598 
C 516.272912 285.510981 516.086155 285.961852 516.086155 286.431913 
C 516.086155 286.901973 516.272912 287.352844 516.605295 287.685227 
C 516.937678 288.017609 517.388549 288.204366 517.858609 288.204366 
z
" style="stroke:#000000;stroke-width:0.886227;"/>
    <path clip-path="url(#pd67e838848)" d="M 538.831125 281.339293 
C 539.301185 281.339293 539.752056 281.152536 540.084439 280.820153 
C 540.416822 280.48777 540.603579 280.036899 540.603579 279.566839 
C 540.603579 279.096779 540.416822 278.645907 540.084439 278.313525 
C 539.752056 277.981142 539.301185 277.794385 538.831125 277.794385 
C 538.361065 277.794385 537.910194 277.981142 537.577811 278.313525 
C 537.245428 278.645907 537.058671 279.096779 537.058671 279.566839 
C 537.058671 280.036899 537.245428 280.48777 537.577811 280.820153 
C 537.910194 281.152536 538.361065 281.339293 538.831125 281.339293 
z
" style="stroke:#000000;stroke-width:0.886227;"/>
    <path clip-path="url(#pd67e838848)" d="M 559.803641 276.320248 
C 560.273701 276.320248 560.724572 276.133491 561.056955 275.801109 
C 561.389338 275.468726 561.576095 275.017855 561.576095 274.547794 
C 561.576095 274.077734 561.389338 273.626863 561.056955 273.29448 
C 560.724572 272.962097 560.273701 272.775341 559.803641 272.775341 
C 559.333581 272.775341 558.88271 272.962097 558.550327 273.29448 
C 558.217944 273.626863 558.031187 274.077734 558.031187 274.547794 
C 558.031187 275.017855 558.217944 275.468726 558.550327 275.801109 
C 558.88271 276.133491 559.333581 276.320248 559.803641 276.320248 
z
" style="stroke:#000000;stroke-width:0.886227;"/>
    <path clip-path="url(#pd67e838848)" d="M 601.748673 280.139691 
C 602.218733 280.139691 602.669604 279.952934 603.001987 279.620552 
C 603.33437 279.288169 603.521127 278.837298 603.521127 278.367237 
C 603.521127 277.897177 603.33437 277.446306 603.001987 277.113923 
C 602.669604 276.78154 602.218733 276.594784 601.748673 276.594784 
C 601.278612 276.594784 600.827741 276.78154 600.495359 277.113923 
C 600.162976 277.446306 599.976219 277.897177 599.976219 278.367237 
C 599.976219 278.837298 600.162976 279.288169 600.495359 279.620552 
C 600.827741 279.952934 601.278612 280.139691 601.748673 280.139691 
z
" style="stroke:#000000;stroke-width:0.886227;"/>
    <path clip-path="url(#pd67e838848)" d="M 643.693704 277.061823 
C 644.163765 277.061823 644.614636 276.875066 644.947019 276.542684 
C 645.279401 276.210301 645.466158 275.75943 645.466158 275.289369 
C 645.466158 274.819309 645.279401 274.368438 644.947019 274.036055 
C 644.614636 273.703672 644.163765 273.516916 643.693704 273.516916 
C 643.223644 273.516916 642.772773 273.703672 642.44039 274.036055 
C 642.108007 274.368438 641.921251 274.819309 641.921251 275.289369 
C 641.921251 275.75943 642.108007 276.210301 642.44039 276.542684 
C 642.772773 276.875066 643.223644 277.061823 643.693704 277.061823 
z
" style="stroke:#000000;stroke-width:0.886227;"/>
    <path clip-path="url(#pd67e838848)" d="M 733.482288 276.855906 
C 733.952348 276.855906 734.403219 276.669149 734.735602 276.336766 
C 735.067985 276.004383 735.254742 275.553512 735.254742 275.083452 
C 735.254742 274.613392 735.067985 274.16252 734.735602 273.830138 
C 734.403219 273.497755 733.952348 273.310998 733.482288 273.310998 
C 733.012228 273.310998 732.561357 273.497755 732.228974 273.830138 
C 731.896591 274.16252 731.709834 274.613392 731.709834 275.083452 
C 731.709834 275.553512 731.896591 276.004383 732.228974 276.336766 
C 732.561357 276.669149 733.012228 276.855906 733.482288 276.855906 
z
" style="stroke:#000000;stroke-width:0.886227;"/>
    <path clip-path="url(#pd67e838848)" d="M 811.473831 279.943684 
C 811.943892 279.943684 812.394763 279.756927 812.727145 279.424544 
C 813.059528 279.092161 813.246285 278.64129 813.246285 278.17123 
C 813.246285 277.701169 813.059528 277.250298 812.727145 276.917916 
C 812.394763 276.585533 811.943892 276.398776 811.473831 276.398776 
C 811.003771 276.398776 810.5529 276.585533 810.220517 276.917916 
C 809.888134 277.250298 809.701377 277.701169 809.701377 278.17123 
C 809.701377 278.64129 809.888134 279.092161 810.220517 279.424544 
C 810.5529 279.756927 811.003771 279.943684 811.473831 279.943684 
z
" style="stroke:#000000;stroke-width:0.886227;"/>
   </g>
   <g id="patch_9">
    <path d="M 464.64085 253.674082 
L 827.989688 253.674082 
L 827.989688 238.63 
L 464.64085 238.63 
z
" style="fill:#d9d9d9;"/>
   </g>
   <g id="PolyCollection_4">
    <path clip-path="url(#pd67e838848)" d="M 481.156707 323.459628 
L 481.156707 456.123628 
L 486.399835 335.732408 
L 496.886093 306.856564 
L 507.372351 300.492982 
L 517.858609 296.116095 
L 538.831125 287.48971 
L 559.803641 285.781052 
L 601.748673 288.037288 
L 643.693704 282.461307 
L 733.482288 285.319314 
L 811.473831 285.054212 
L 811.473831 271.288248 
L 811.473831 271.288248 
L 733.482288 264.847589 
L 643.693704 268.117432 
L 601.748673 268.697187 
L 559.803641 263.314537 
L 538.831125 271.643968 
L 517.858609 276.74773 
L 507.372351 278.044879 
L 496.886093 283.45475 
L 486.399835 307.580906 
L 481.156707 323.459628 
z
" style="fill:#333333;fill-opacity:0.501961;"/>
   </g>
   <g id="text_33">
    <!-- F1 score: &gt;50K -->
    <g style="fill:#1a1a1a;" transform="translate(612.713706 248.580291)scale(0.088 -0.088)">
     <defs>
      <path d="M 678 3150 
L 678 3719 
L 4684 2266 
L 4684 1747 
L 678 294 
L 678 863 
L 3897 2003 
L 678 3150 
z
" id="DejaVuSans-3e" transform="scale(0.015625)"/>
     </defs>
     <use xlink:href="#DejaVuSans-46"/>
     <use x="57.519531" xlink:href="#DejaVuSans-31"/>
     <use x="121.142578" xlink:href="#DejaVuSans-20"/>
     <use x="152.929688" xlink:href="#DejaVuSans-73"/>
     <use x="205.029297" xlink:href="#DejaVuSans-63"/>
     <use x="260.009766" xlink:href="#DejaVuSans-6f"/>
     <use x="321.191406" xlink:href="#DejaVuSans-72"/>
     <use x="360.054688" xlink:href="#DejaVuSans-65"/>
     <use x="421.578125" xlink:href="#DejaVuSans-3a"/>
     <use x="455.269531" xlink:href="#DejaVuSans-20"/>
     <use x="487.056641" xlink:href="#DejaVuSans-3e"/>
     <use x="570.845703" xlink:href="#DejaVuSans-35"/>
     <use x="634.46875" xlink:href="#DejaVuSans-30"/>
     <use x="698.091797" xlink:href="#DejaVuSans-4b"/>
    </g>
   </g>
  </g>
 </g>
 <defs>
  <clipPath id="pbbbf771d52">
   <rect height="212.09" width="363.348837" x="46.789688" y="22.244082"/>
  </clipPath>
  <clipPath id="p1424a94d01">
   <rect height="212.09" width="363.348837" x="464.64085" y="22.244082"/>
  </clipPath>
  <clipPath id="pbddfa10243">
   <rect height="212.09" width="363.348837" x="46.789688" y="253.674082"/>
  </clipPath>
  <clipPath id="pd67e838848">
   <rect height="212.09" width="363.348837" x="464.64085" y="253.674082"/>
  </clipPath>
 </defs>
</svg>
