<?xml version="1.0" encoding="utf-8" standalone="no"?>
<!DOCTYPE svg PUBLIC "-//W3C//DTD SVG 1.1//EN"
  "http://www.w3.org/Graphics/SVG/1.1/DTD/svg11.dtd">
<svg height="501.47677pt" version="1.1" viewBox="0 0 953.27925 501.47677" width="953.27925pt" xmlns="http://www.w3.org/2000/svg" xmlns:xlink="http://www.w3.org/1999/xlink">
 <metadata>
  <rdf:RDF xmlns:cc="http://creativecommons.org/ns#" xmlns:dc="http://purl.org/dc/elements/1.1/" xmlns:rdf="http://www.w3.org/1999/02/22-rdf-syntax-ns#">
   <cc:Work>
    <dc:type rdf:resource="http://purl.org/dc/dcmitype/StillImage"/>
    <dc:date>2022-05-07T16:41:28.629874</dc:date>
    <dc:format>image/svg+xml</dc:format>
    <dc:creator>
     <cc:Agent>
      <dc:title>Matplotlib v3.4.3, https://matplotlib.org/</dc:title>
     </cc:Agent>
    </dc:creator>
   </cc:Work>
  </rdf:RDF>
 </metadata>
 <defs>
  <style type="text/css">*{stroke-linecap:butt;stroke-linejoin:round;}</style>
 </defs>
 <g id="figure_1">
  <g id="patch_1">
   <path d="M 0 501.47677 
L 953.27925 501.47677 
L 953.27925 0 
L 0 0 
z
" style="fill:#ffffff;stroke:#ffffff;stroke-linejoin:miter;"/>
  </g>
  <g id="axes_1">
   <g id="patch_2">
    <path d="M 57.987688 234.334082 
L 421.336525 234.334082 
L 421.336525 22.244082 
L 57.987688 22.244082 
z
" style="fill:#ebebeb;"/>
   </g>
   <g id="matplotlib.axis_1">
    <g id="xtick_1">
     <g id="line2d_1">
      <path clip-path="url(#pcf9426fa24)" d="M 57.987688 234.334082 
L 57.987688 22.244082 
" style="fill:none;stroke:#ffffff;"/>
     </g>
    </g>
    <g id="xtick_2">
     <g id="line2d_2">
      <path clip-path="url(#pcf9426fa24)" d="M 148.824897 234.334082 
L 148.824897 22.244082 
" style="fill:none;stroke:#ffffff;"/>
     </g>
    </g>
    <g id="xtick_3">
     <g id="line2d_3">
      <path clip-path="url(#pcf9426fa24)" d="M 239.662106 234.334082 
L 239.662106 22.244082 
" style="fill:none;stroke:#ffffff;"/>
     </g>
    </g>
    <g id="xtick_4">
     <g id="line2d_4">
      <path clip-path="url(#pcf9426fa24)" d="M 330.499315 234.334082 
L 330.499315 22.244082 
" style="fill:none;stroke:#ffffff;"/>
     </g>
    </g>
    <g id="xtick_5">
     <g id="line2d_5">
      <path clip-path="url(#pcf9426fa24)" d="M 421.336525 234.334082 
L 421.336525 22.244082 
" style="fill:none;stroke:#ffffff;"/>
     </g>
    </g>
    <g id="xtick_6">
     <g id="line2d_6">
      <path clip-path="url(#pcf9426fa24)" d="M 103.406292 234.334082 
L 103.406292 22.244082 
" style="fill:none;stroke:#ffffff;stroke-width:0.5;"/>
     </g>
    </g>
    <g id="xtick_7">
     <g id="line2d_7">
      <path clip-path="url(#pcf9426fa24)" d="M 194.243501 234.334082 
L 194.243501 22.244082 
" style="fill:none;stroke:#ffffff;stroke-width:0.5;"/>
     </g>
    </g>
    <g id="xtick_8">
     <g id="line2d_8">
      <path clip-path="url(#pcf9426fa24)" d="M 285.080711 234.334082 
L 285.080711 22.244082 
" style="fill:none;stroke:#ffffff;stroke-width:0.5;"/>
     </g>
    </g>
    <g id="xtick_9">
     <g id="line2d_9">
      <path clip-path="url(#pcf9426fa24)" d="M 375.91792 234.334082 
L 375.91792 22.244082 
" style="fill:none;stroke:#ffffff;stroke-width:0.5;"/>
     </g>
    </g>
   </g>
   <g id="matplotlib.axis_2">
    <g id="ytick_1">
     <g id="line2d_10">
      <path clip-path="url(#pcf9426fa24)" d="M 57.987688 220.674221 
L 421.336525 220.674221 
" style="fill:none;stroke:#ffffff;"/>
     </g>
     <g id="line2d_11">
      <path d="M 57.987688 220.674221 
" style="fill:none;stroke:#333333;stroke-width:1.5;"/>
      <defs>
       <path d="M 0 0 
L -2.75 0 
" id="me8562c546e" style="stroke:#000000;"/>
      </defs>
      <g>
       <use style="fill:#333333;stroke:#000000;" x="57.987688" xlink:href="#me8562c546e" y="220.674221"/>
      </g>
     </g>
     <g id="text_1">
      <!-- 0.8349 -->
      <g style="fill:#4d4d4d;" transform="translate(22.245938 223.102471)scale(0.088 -0.088)">
       <defs>
        <path d="M 2034 4250 
Q 1547 4250 1301 3770 
Q 1056 3291 1056 2328 
Q 1056 1369 1301 889 
Q 1547 409 2034 409 
Q 2525 409 2770 889 
Q 3016 1369 3016 2328 
Q 3016 3291 2770 3770 
Q 2525 4250 2034 4250 
z
M 2034 4750 
Q 2819 4750 3233 4129 
Q 3647 3509 3647 2328 
Q 3647 1150 3233 529 
Q 2819 -91 2034 -91 
Q 1250 -91 836 529 
Q 422 1150 422 2328 
Q 422 3509 836 4129 
Q 1250 4750 2034 4750 
z
" id="DejaVuSans-30" transform="scale(0.015625)"/>
        <path d="M 684 794 
L 1344 794 
L 1344 0 
L 684 0 
L 684 794 
z
" id="DejaVuSans-2e" transform="scale(0.015625)"/>
        <path d="M 2034 2216 
Q 1584 2216 1326 1975 
Q 1069 1734 1069 1313 
Q 1069 891 1326 650 
Q 1584 409 2034 409 
Q 2484 409 2743 651 
Q 3003 894 3003 1313 
Q 3003 1734 2745 1975 
Q 2488 2216 2034 2216 
z
M 1403 2484 
Q 997 2584 770 2862 
Q 544 3141 544 3541 
Q 544 4100 942 4425 
Q 1341 4750 2034 4750 
Q 2731 4750 3128 4425 
Q 3525 4100 3525 3541 
Q 3525 3141 3298 2862 
Q 3072 2584 2669 2484 
Q 3125 2378 3379 2068 
Q 3634 1759 3634 1313 
Q 3634 634 3220 271 
Q 2806 -91 2034 -91 
Q 1263 -91 848 271 
Q 434 634 434 1313 
Q 434 1759 690 2068 
Q 947 2378 1403 2484 
z
M 1172 3481 
Q 1172 3119 1398 2916 
Q 1625 2713 2034 2713 
Q 2441 2713 2670 2916 
Q 2900 3119 2900 3481 
Q 2900 3844 2670 4047 
Q 2441 4250 2034 4250 
Q 1625 4250 1398 4047 
Q 1172 3844 1172 3481 
z
" id="DejaVuSans-38" transform="scale(0.015625)"/>
        <path d="M 2597 2516 
Q 3050 2419 3304 2112 
Q 3559 1806 3559 1356 
Q 3559 666 3084 287 
Q 2609 -91 1734 -91 
Q 1441 -91 1130 -33 
Q 819 25 488 141 
L 488 750 
Q 750 597 1062 519 
Q 1375 441 1716 441 
Q 2309 441 2620 675 
Q 2931 909 2931 1356 
Q 2931 1769 2642 2001 
Q 2353 2234 1838 2234 
L 1294 2234 
L 1294 2753 
L 1863 2753 
Q 2328 2753 2575 2939 
Q 2822 3125 2822 3475 
Q 2822 3834 2567 4026 
Q 2313 4219 1838 4219 
Q 1578 4219 1281 4162 
Q 984 4106 628 3988 
L 628 4550 
Q 988 4650 1302 4700 
Q 1616 4750 1894 4750 
Q 2613 4750 3031 4423 
Q 3450 4097 3450 3541 
Q 3450 3153 3228 2886 
Q 3006 2619 2597 2516 
z
" id="DejaVuSans-33" transform="scale(0.015625)"/>
        <path d="M 2419 4116 
L 825 1625 
L 2419 1625 
L 2419 4116 
z
M 2253 4666 
L 3047 4666 
L 3047 1625 
L 3713 1625 
L 3713 1100 
L 3047 1100 
L 3047 0 
L 2419 0 
L 2419 1100 
L 313 1100 
L 313 1709 
L 2253 4666 
z
" id="DejaVuSans-34" transform="scale(0.015625)"/>
        <path d="M 703 97 
L 703 672 
Q 941 559 1184 500 
Q 1428 441 1663 441 
Q 2288 441 2617 861 
Q 2947 1281 2994 2138 
Q 2813 1869 2534 1725 
Q 2256 1581 1919 1581 
Q 1219 1581 811 2004 
Q 403 2428 403 3163 
Q 403 3881 828 4315 
Q 1253 4750 1959 4750 
Q 2769 4750 3195 4129 
Q 3622 3509 3622 2328 
Q 3622 1225 3098 567 
Q 2575 -91 1691 -91 
Q 1453 -91 1209 -44 
Q 966 3 703 97 
z
M 1959 2075 
Q 2384 2075 2632 2365 
Q 2881 2656 2881 3163 
Q 2881 3666 2632 3958 
Q 2384 4250 1959 4250 
Q 1534 4250 1286 3958 
Q 1038 3666 1038 3163 
Q 1038 2656 1286 2365 
Q 1534 2075 1959 2075 
z
" id="DejaVuSans-39" transform="scale(0.015625)"/>
       </defs>
       <use xlink:href="#DejaVuSans-30"/>
       <use x="63.623047" xlink:href="#DejaVuSans-2e"/>
       <use x="95.410156" xlink:href="#DejaVuSans-38"/>
       <use x="159.033203" xlink:href="#DejaVuSans-33"/>
       <use x="222.65625" xlink:href="#DejaVuSans-34"/>
       <use x="286.279297" xlink:href="#DejaVuSans-39"/>
      </g>
     </g>
    </g>
    <g id="ytick_2">
     <g id="line2d_12">
      <path clip-path="url(#pcf9426fa24)" d="M 57.987688 174.583667 
L 421.336525 174.583667 
" style="fill:none;stroke:#ffffff;"/>
     </g>
     <g id="line2d_13">
      <path d="M 57.987688 174.583667 
" style="fill:none;stroke:#333333;stroke-width:1.5;"/>
      <g>
       <use style="fill:#333333;stroke:#000000;" x="57.987688" xlink:href="#me8562c546e" y="174.583667"/>
      </g>
     </g>
     <g id="text_2">
      <!-- 0.8352 -->
      <g style="fill:#4d4d4d;" transform="translate(22.245938 177.011917)scale(0.088 -0.088)">
       <defs>
        <path d="M 691 4666 
L 3169 4666 
L 3169 4134 
L 1269 4134 
L 1269 2991 
Q 1406 3038 1543 3061 
Q 1681 3084 1819 3084 
Q 2600 3084 3056 2656 
Q 3513 2228 3513 1497 
Q 3513 744 3044 326 
Q 2575 -91 1722 -91 
Q 1428 -91 1123 -41 
Q 819 9 494 109 
L 494 744 
Q 775 591 1075 516 
Q 1375 441 1709 441 
Q 2250 441 2565 725 
Q 2881 1009 2881 1497 
Q 2881 1984 2565 2268 
Q 2250 2553 1709 2553 
Q 1456 2553 1204 2497 
Q 953 2441 691 2322 
L 691 4666 
z
" id="DejaVuSans-35" transform="scale(0.015625)"/>
        <path d="M 1228 531 
L 3431 531 
L 3431 0 
L 469 0 
L 469 531 
Q 828 903 1448 1529 
Q 2069 2156 2228 2338 
Q 2531 2678 2651 2914 
Q 2772 3150 2772 3378 
Q 2772 3750 2511 3984 
Q 2250 4219 1831 4219 
Q 1534 4219 1204 4116 
Q 875 4013 500 3803 
L 500 4441 
Q 881 4594 1212 4672 
Q 1544 4750 1819 4750 
Q 2544 4750 2975 4387 
Q 3406 4025 3406 3419 
Q 3406 3131 3298 2873 
Q 3191 2616 2906 2266 
Q 2828 2175 2409 1742 
Q 1991 1309 1228 531 
z
" id="DejaVuSans-32" transform="scale(0.015625)"/>
       </defs>
       <use xlink:href="#DejaVuSans-30"/>
       <use x="63.623047" xlink:href="#DejaVuSans-2e"/>
       <use x="95.410156" xlink:href="#DejaVuSans-38"/>
       <use x="159.033203" xlink:href="#DejaVuSans-33"/>
       <use x="222.65625" xlink:href="#DejaVuSans-35"/>
       <use x="286.279297" xlink:href="#DejaVuSans-32"/>
      </g>
     </g>
    </g>
    <g id="ytick_3">
     <g id="line2d_14">
      <path clip-path="url(#pcf9426fa24)" d="M 57.987688 128.493113 
L 421.336525 128.493113 
" style="fill:none;stroke:#ffffff;"/>
     </g>
     <g id="line2d_15">
      <path d="M 57.987688 128.493113 
" style="fill:none;stroke:#333333;stroke-width:1.5;"/>
      <g>
       <use style="fill:#333333;stroke:#000000;" x="57.987688" xlink:href="#me8562c546e" y="128.493113"/>
      </g>
     </g>
     <g id="text_3">
      <!-- 0.8355 -->
      <g style="fill:#4d4d4d;" transform="translate(22.245938 130.921363)scale(0.088 -0.088)">
       <use xlink:href="#DejaVuSans-30"/>
       <use x="63.623047" xlink:href="#DejaVuSans-2e"/>
       <use x="95.410156" xlink:href="#DejaVuSans-38"/>
       <use x="159.033203" xlink:href="#DejaVuSans-33"/>
       <use x="222.65625" xlink:href="#DejaVuSans-35"/>
       <use x="286.279297" xlink:href="#DejaVuSans-35"/>
      </g>
     </g>
    </g>
    <g id="ytick_4">
     <g id="line2d_16">
      <path clip-path="url(#pcf9426fa24)" d="M 57.987688 82.402559 
L 421.336525 82.402559 
" style="fill:none;stroke:#ffffff;"/>
     </g>
     <g id="line2d_17">
      <path d="M 57.987688 82.402559 
" style="fill:none;stroke:#333333;stroke-width:1.5;"/>
      <g>
       <use style="fill:#333333;stroke:#000000;" x="57.987688" xlink:href="#me8562c546e" y="82.402559"/>
      </g>
     </g>
     <g id="text_4">
      <!-- 0.8358 -->
      <g style="fill:#4d4d4d;" transform="translate(22.245938 84.830809)scale(0.088 -0.088)">
       <use xlink:href="#DejaVuSans-30"/>
       <use x="63.623047" xlink:href="#DejaVuSans-2e"/>
       <use x="95.410156" xlink:href="#DejaVuSans-38"/>
       <use x="159.033203" xlink:href="#DejaVuSans-33"/>
       <use x="222.65625" xlink:href="#DejaVuSans-35"/>
       <use x="286.279297" xlink:href="#DejaVuSans-38"/>
      </g>
     </g>
    </g>
    <g id="ytick_5">
     <g id="line2d_18">
      <path clip-path="url(#pcf9426fa24)" d="M 57.987688 36.312005 
L 421.336525 36.312005 
" style="fill:none;stroke:#ffffff;"/>
     </g>
     <g id="line2d_19">
      <path d="M 57.987688 36.312005 
" style="fill:none;stroke:#333333;stroke-width:1.5;"/>
      <g>
       <use style="fill:#333333;stroke:#000000;" x="57.987688" xlink:href="#me8562c546e" y="36.312005"/>
      </g>
     </g>
     <g id="text_5">
      <!-- 0.8361 -->
      <g style="fill:#4d4d4d;" transform="translate(22.245938 38.740255)scale(0.088 -0.088)">
       <defs>
        <path d="M 2113 2584 
Q 1688 2584 1439 2293 
Q 1191 2003 1191 1497 
Q 1191 994 1439 701 
Q 1688 409 2113 409 
Q 2538 409 2786 701 
Q 3034 994 3034 1497 
Q 3034 2003 2786 2293 
Q 2538 2584 2113 2584 
z
M 3366 4563 
L 3366 3988 
Q 3128 4100 2886 4159 
Q 2644 4219 2406 4219 
Q 1781 4219 1451 3797 
Q 1122 3375 1075 2522 
Q 1259 2794 1537 2939 
Q 1816 3084 2150 3084 
Q 2853 3084 3261 2657 
Q 3669 2231 3669 1497 
Q 3669 778 3244 343 
Q 2819 -91 2113 -91 
Q 1303 -91 875 529 
Q 447 1150 447 2328 
Q 447 3434 972 4092 
Q 1497 4750 2381 4750 
Q 2619 4750 2861 4703 
Q 3103 4656 3366 4563 
z
" id="DejaVuSans-36" transform="scale(0.015625)"/>
        <path d="M 794 531 
L 1825 531 
L 1825 4091 
L 703 3866 
L 703 4441 
L 1819 4666 
L 2450 4666 
L 2450 531 
L 3481 531 
L 3481 0 
L 794 0 
L 794 531 
z
" id="DejaVuSans-31" transform="scale(0.015625)"/>
       </defs>
       <use xlink:href="#DejaVuSans-30"/>
       <use x="63.623047" xlink:href="#DejaVuSans-2e"/>
       <use x="95.410156" xlink:href="#DejaVuSans-38"/>
       <use x="159.033203" xlink:href="#DejaVuSans-33"/>
       <use x="222.65625" xlink:href="#DejaVuSans-36"/>
       <use x="286.279297" xlink:href="#DejaVuSans-31"/>
      </g>
     </g>
    </g>
    <g id="ytick_6">
     <g id="line2d_20">
      <path clip-path="url(#pcf9426fa24)" d="M 57.987688 197.628944 
L 421.336525 197.628944 
" style="fill:none;stroke:#ffffff;stroke-width:0.5;"/>
     </g>
    </g>
    <g id="ytick_7">
     <g id="line2d_21">
      <path clip-path="url(#pcf9426fa24)" d="M 57.987688 151.53839 
L 421.336525 151.53839 
" style="fill:none;stroke:#ffffff;stroke-width:0.5;"/>
     </g>
    </g>
    <g id="ytick_8">
     <g id="line2d_22">
      <path clip-path="url(#pcf9426fa24)" d="M 57.987688 105.447836 
L 421.336525 105.447836 
" style="fill:none;stroke:#ffffff;stroke-width:0.5;"/>
     </g>
    </g>
    <g id="ytick_9">
     <g id="line2d_23">
      <path clip-path="url(#pcf9426fa24)" d="M 57.987688 59.357282 
L 421.336525 59.357282 
" style="fill:none;stroke:#ffffff;stroke-width:0.5;"/>
     </g>
    </g>
    <g id="text_6">
     <!-- Value -->
     <g transform="translate(15.558281 256.228457)rotate(-90)scale(0.11 -0.11)">
      <defs>
       <path d="M 1831 0 
L 50 4666 
L 709 4666 
L 2188 738 
L 3669 4666 
L 4325 4666 
L 2547 0 
L 1831 0 
z
" id="DejaVuSans-56" transform="scale(0.015625)"/>
       <path d="M 2194 1759 
Q 1497 1759 1228 1600 
Q 959 1441 959 1056 
Q 959 750 1161 570 
Q 1363 391 1709 391 
Q 2188 391 2477 730 
Q 2766 1069 2766 1631 
L 2766 1759 
L 2194 1759 
z
M 3341 1997 
L 3341 0 
L 2766 0 
L 2766 531 
Q 2569 213 2275 61 
Q 1981 -91 1556 -91 
Q 1019 -91 701 211 
Q 384 513 384 1019 
Q 384 1609 779 1909 
Q 1175 2209 1959 2209 
L 2766 2209 
L 2766 2266 
Q 2766 2663 2505 2880 
Q 2244 3097 1772 3097 
Q 1472 3097 1187 3025 
Q 903 2953 641 2809 
L 641 3341 
Q 956 3463 1253 3523 
Q 1550 3584 1831 3584 
Q 2591 3584 2966 3190 
Q 3341 2797 3341 1997 
z
" id="DejaVuSans-61" transform="scale(0.015625)"/>
       <path d="M 603 4863 
L 1178 4863 
L 1178 0 
L 603 0 
L 603 4863 
z
" id="DejaVuSans-6c" transform="scale(0.015625)"/>
       <path d="M 544 1381 
L 544 3500 
L 1119 3500 
L 1119 1403 
Q 1119 906 1312 657 
Q 1506 409 1894 409 
Q 2359 409 2629 706 
Q 2900 1003 2900 1516 
L 2900 3500 
L 3475 3500 
L 3475 0 
L 2900 0 
L 2900 538 
Q 2691 219 2414 64 
Q 2138 -91 1772 -91 
Q 1169 -91 856 284 
Q 544 659 544 1381 
z
M 1991 3584 
L 1991 3584 
z
" id="DejaVuSans-75" transform="scale(0.015625)"/>
       <path d="M 3597 1894 
L 3597 1613 
L 953 1613 
Q 991 1019 1311 708 
Q 1631 397 2203 397 
Q 2534 397 2845 478 
Q 3156 559 3463 722 
L 3463 178 
Q 3153 47 2828 -22 
Q 2503 -91 2169 -91 
Q 1331 -91 842 396 
Q 353 884 353 1716 
Q 353 2575 817 3079 
Q 1281 3584 2069 3584 
Q 2775 3584 3186 3129 
Q 3597 2675 3597 1894 
z
M 3022 2063 
Q 3016 2534 2758 2815 
Q 2500 3097 2075 3097 
Q 1594 3097 1305 2825 
Q 1016 2553 972 2059 
L 3022 2063 
z
" id="DejaVuSans-65" transform="scale(0.015625)"/>
      </defs>
      <use xlink:href="#DejaVuSans-56"/>
      <use x="60.658203" xlink:href="#DejaVuSans-61"/>
      <use x="121.9375" xlink:href="#DejaVuSans-6c"/>
      <use x="149.720703" xlink:href="#DejaVuSans-75"/>
      <use x="213.099609" xlink:href="#DejaVuSans-65"/>
     </g>
    </g>
   </g>
   <g id="PathCollection_1">
    <path clip-path="url(#pcf9426fa24)" d="M 239.662106 165.256846 
C 240.132166 165.256846 240.583037 165.07009 240.91542 164.737707 
C 241.247803 164.405324 241.43456 163.954453 241.43456 163.484393 
C 241.43456 163.014332 241.247803 162.563461 240.91542 162.231078 
C 240.583037 161.898696 240.132166 161.711939 239.662106 161.711939 
C 239.192046 161.711939 238.741175 161.898696 238.408792 162.231078 
C 238.076409 162.563461 237.889652 163.014332 237.889652 163.484393 
C 237.889652 163.954453 238.076409 164.405324 238.408792 164.737707 
C 238.741175 165.07009 239.192046 165.256846 239.662106 165.256846 
z
" style="fill:#db5f57;stroke:#db5f57;stroke-width:0.886227;"/>
    <path clip-path="url(#pcf9426fa24)" d="M 239.662106 33.656991 
C 240.132166 33.656991 240.583037 33.470234 240.91542 33.137851 
C 241.247803 32.805468 241.43456 32.354597 241.43456 31.884537 
C 241.43456 31.414477 241.247803 30.963606 240.91542 30.631223 
C 240.583037 30.29884 240.132166 30.112083 239.662106 30.112083 
C 239.192046 30.112083 238.741175 30.29884 238.408792 30.631223 
C 238.076409 30.963606 237.889652 31.414477 237.889652 31.884537 
C 237.889652 32.354597 238.076409 32.805468 238.408792 33.137851 
C 238.741175 33.470234 239.192046 33.656991 239.662106 33.656991 
z
" style="fill:#91db57;stroke:#91db57;stroke-width:0.886227;"/>
    <path clip-path="url(#pcf9426fa24)" d="M 239.662106 226.466082 
C 240.132166 226.466082 240.583037 226.279325 240.91542 225.946942 
C 241.247803 225.614559 241.43456 225.163688 241.43456 224.693628 
C 241.43456 224.223568 241.247803 223.772696 240.91542 223.440314 
C 240.583037 223.107931 240.132166 222.921174 239.662106 222.921174 
C 239.192046 222.921174 238.741175 223.107931 238.408792 223.440314 
C 238.076409 223.772696 237.889652 224.223568 237.889652 224.693628 
C 237.889652 225.163688 238.076409 225.614559 238.408792 225.946942 
C 238.741175 226.279325 239.192046 226.466082 239.662106 226.466082 
z
" style="fill:#57d3db;stroke:#57d3db;stroke-width:0.886227;"/>
    <path clip-path="url(#pcf9426fa24)" d="M 239.662106 219.325004 
C 240.132166 219.325004 240.583037 219.138247 240.91542 218.805864 
C 241.247803 218.473482 241.43456 218.022611 241.43456 217.55255 
C 241.43456 217.08249 241.247803 216.631619 240.91542 216.299236 
C 240.583037 215.966853 240.132166 215.780097 239.662106 215.780097 
C 239.192046 215.780097 238.741175 215.966853 238.408792 216.299236 
C 238.076409 216.631619 237.889652 217.08249 237.889652 217.55255 
C 237.889652 218.022611 238.076409 218.473482 238.408792 218.805864 
C 238.741175 219.138247 239.192046 219.325004 239.662106 219.325004 
z
" style="fill:#a157db;stroke:#a157db;stroke-width:0.886227;"/>
   </g>
   <g id="patch_3">
    <path d="M 57.987688 22.244082 
L 421.336525 22.244082 
L 421.336525 7.2 
L 57.987688 7.2 
z
" style="fill:#d9d9d9;"/>
   </g>
   <g id="text_7">
    <!-- Accuracy -->
    <g style="fill:#1a1a1a;" transform="translate(219.573356 17.150291)scale(0.088 -0.088)">
     <defs>
      <path d="M 2188 4044 
L 1331 1722 
L 3047 1722 
L 2188 4044 
z
M 1831 4666 
L 2547 4666 
L 4325 0 
L 3669 0 
L 3244 1197 
L 1141 1197 
L 716 0 
L 50 0 
L 1831 4666 
z
" id="DejaVuSans-41" transform="scale(0.015625)"/>
      <path d="M 3122 3366 
L 3122 2828 
Q 2878 2963 2633 3030 
Q 2388 3097 2138 3097 
Q 1578 3097 1268 2742 
Q 959 2388 959 1747 
Q 959 1106 1268 751 
Q 1578 397 2138 397 
Q 2388 397 2633 464 
Q 2878 531 3122 666 
L 3122 134 
Q 2881 22 2623 -34 
Q 2366 -91 2075 -91 
Q 1284 -91 818 406 
Q 353 903 353 1747 
Q 353 2603 823 3093 
Q 1294 3584 2113 3584 
Q 2378 3584 2631 3529 
Q 2884 3475 3122 3366 
z
" id="DejaVuSans-63" transform="scale(0.015625)"/>
      <path d="M 2631 2963 
Q 2534 3019 2420 3045 
Q 2306 3072 2169 3072 
Q 1681 3072 1420 2755 
Q 1159 2438 1159 1844 
L 1159 0 
L 581 0 
L 581 3500 
L 1159 3500 
L 1159 2956 
Q 1341 3275 1631 3429 
Q 1922 3584 2338 3584 
Q 2397 3584 2469 3576 
Q 2541 3569 2628 3553 
L 2631 2963 
z
" id="DejaVuSans-72" transform="scale(0.015625)"/>
      <path d="M 2059 -325 
Q 1816 -950 1584 -1140 
Q 1353 -1331 966 -1331 
L 506 -1331 
L 506 -850 
L 844 -850 
Q 1081 -850 1212 -737 
Q 1344 -625 1503 -206 
L 1606 56 
L 191 3500 
L 800 3500 
L 1894 763 
L 2988 3500 
L 3597 3500 
L 2059 -325 
z
" id="DejaVuSans-79" transform="scale(0.015625)"/>
     </defs>
     <use xlink:href="#DejaVuSans-41"/>
     <use x="66.658203" xlink:href="#DejaVuSans-63"/>
     <use x="121.638672" xlink:href="#DejaVuSans-63"/>
     <use x="176.619141" xlink:href="#DejaVuSans-75"/>
     <use x="239.998047" xlink:href="#DejaVuSans-72"/>
     <use x="281.111328" xlink:href="#DejaVuSans-61"/>
     <use x="342.390625" xlink:href="#DejaVuSans-63"/>
     <use x="397.371094" xlink:href="#DejaVuSans-79"/>
    </g>
   </g>
   <g id="patch_4">
    <path d="M 846.387687 295.527051 
L 946.07925 295.527051 
L 946.07925 186.721114 
L 846.387687 186.721114 
z
" style="fill:#ffffff;"/>
   </g>
   <g id="text_8">
    <!-- Gumbel temp -->
    <g transform="translate(858.587688 210.314707)scale(0.11 -0.11)">
     <defs>
      <path d="M 3809 666 
L 3809 1919 
L 2778 1919 
L 2778 2438 
L 4434 2438 
L 4434 434 
Q 4069 175 3628 42 
Q 3188 -91 2688 -91 
Q 1594 -91 976 548 
Q 359 1188 359 2328 
Q 359 3472 976 4111 
Q 1594 4750 2688 4750 
Q 3144 4750 3555 4637 
Q 3966 4525 4313 4306 
L 4313 3634 
Q 3963 3931 3569 4081 
Q 3175 4231 2741 4231 
Q 1884 4231 1454 3753 
Q 1025 3275 1025 2328 
Q 1025 1384 1454 906 
Q 1884 428 2741 428 
Q 3075 428 3337 486 
Q 3600 544 3809 666 
z
" id="DejaVuSans-47" transform="scale(0.015625)"/>
      <path d="M 3328 2828 
Q 3544 3216 3844 3400 
Q 4144 3584 4550 3584 
Q 5097 3584 5394 3201 
Q 5691 2819 5691 2113 
L 5691 0 
L 5113 0 
L 5113 2094 
Q 5113 2597 4934 2840 
Q 4756 3084 4391 3084 
Q 3944 3084 3684 2787 
Q 3425 2491 3425 1978 
L 3425 0 
L 2847 0 
L 2847 2094 
Q 2847 2600 2669 2842 
Q 2491 3084 2119 3084 
Q 1678 3084 1418 2786 
Q 1159 2488 1159 1978 
L 1159 0 
L 581 0 
L 581 3500 
L 1159 3500 
L 1159 2956 
Q 1356 3278 1631 3431 
Q 1906 3584 2284 3584 
Q 2666 3584 2933 3390 
Q 3200 3197 3328 2828 
z
" id="DejaVuSans-6d" transform="scale(0.015625)"/>
      <path d="M 3116 1747 
Q 3116 2381 2855 2742 
Q 2594 3103 2138 3103 
Q 1681 3103 1420 2742 
Q 1159 2381 1159 1747 
Q 1159 1113 1420 752 
Q 1681 391 2138 391 
Q 2594 391 2855 752 
Q 3116 1113 3116 1747 
z
M 1159 2969 
Q 1341 3281 1617 3432 
Q 1894 3584 2278 3584 
Q 2916 3584 3314 3078 
Q 3713 2572 3713 1747 
Q 3713 922 3314 415 
Q 2916 -91 2278 -91 
Q 1894 -91 1617 61 
Q 1341 213 1159 525 
L 1159 0 
L 581 0 
L 581 4863 
L 1159 4863 
L 1159 2969 
z
" id="DejaVuSans-62" transform="scale(0.015625)"/>
      <path id="DejaVuSans-20" transform="scale(0.015625)"/>
      <path d="M 1172 4494 
L 1172 3500 
L 2356 3500 
L 2356 3053 
L 1172 3053 
L 1172 1153 
Q 1172 725 1289 603 
Q 1406 481 1766 481 
L 2356 481 
L 2356 0 
L 1766 0 
Q 1100 0 847 248 
Q 594 497 594 1153 
L 594 3053 
L 172 3053 
L 172 3500 
L 594 3500 
L 594 4494 
L 1172 4494 
z
" id="DejaVuSans-74" transform="scale(0.015625)"/>
      <path d="M 1159 525 
L 1159 -1331 
L 581 -1331 
L 581 3500 
L 1159 3500 
L 1159 2969 
Q 1341 3281 1617 3432 
Q 1894 3584 2278 3584 
Q 2916 3584 3314 3078 
Q 3713 2572 3713 1747 
Q 3713 922 3314 415 
Q 2916 -91 2278 -91 
Q 1894 -91 1617 61 
Q 1341 213 1159 525 
z
M 3116 1747 
Q 3116 2381 2855 2742 
Q 2594 3103 2138 3103 
Q 1681 3103 1420 2742 
Q 1159 2381 1159 1747 
Q 1159 1113 1420 752 
Q 1681 391 2138 391 
Q 2594 391 2855 752 
Q 3116 1113 3116 1747 
z
" id="DejaVuSans-70" transform="scale(0.015625)"/>
     </defs>
     <use xlink:href="#DejaVuSans-47"/>
     <use x="77.490234" xlink:href="#DejaVuSans-75"/>
     <use x="140.869141" xlink:href="#DejaVuSans-6d"/>
     <use x="238.28125" xlink:href="#DejaVuSans-62"/>
     <use x="301.757812" xlink:href="#DejaVuSans-65"/>
     <use x="363.28125" xlink:href="#DejaVuSans-6c"/>
     <use x="391.064453" xlink:href="#DejaVuSans-20"/>
     <use x="422.851562" xlink:href="#DejaVuSans-74"/>
     <use x="462.060547" xlink:href="#DejaVuSans-65"/>
     <use x="523.583984" xlink:href="#DejaVuSans-6d"/>
     <use x="620.996094" xlink:href="#DejaVuSans-70"/>
    </g>
   </g>
   <g id="patch_5">
    <path clip-path="url(#p09d12cba2a)" d="M 858.587688 229.807051 
L 874.427688 229.807051 
L 874.427688 213.967051 
L 858.587688 213.967051 
z
" style="fill:#f2f2f2;"/>
   </g>
   <g id="line2d_24">
    <path clip-path="url(#p09d12cba2a)" d="M 858.587688 221.887051 
L 874.427688 221.887051 
" style="fill:none;stroke:#db5f57;stroke-width:0.886227;"/>
   </g>
   <g id="line2d_25">
    <path clip-path="url(#p09d12cba2a)" d="M 866.507687 221.887051 
" style="fill:none;stroke:#1f77b4;stroke-linecap:square;stroke-width:1.5;"/>
    <defs>
     <path d="M 0 1.772454 
C 0.47006 1.772454 0.920931 1.585697 1.253314 1.253314 
C 1.585697 0.920931 1.772454 0.47006 1.772454 0 
C 1.772454 -0.47006 1.585697 -0.920931 1.253314 -1.253314 
C 0.920931 -1.585697 0.47006 -1.772454 0 -1.772454 
C -0.47006 -1.772454 -0.920931 -1.585697 -1.253314 -1.253314 
C -1.585697 -0.920931 -1.772454 -0.47006 -1.772454 0 
C -1.772454 0.47006 -1.585697 0.920931 -1.253314 1.253314 
C -0.920931 1.585697 -0.47006 1.772454 0 1.772454 
z
" id="mce94dcd406" style="stroke:#db5f57;stroke-width:0.886227;"/>
    </defs>
    <g clip-path="url(#p09d12cba2a)">
     <use style="fill:#db5f57;stroke:#db5f57;stroke-width:0.886227;" x="866.507687" xlink:href="#mce94dcd406" y="221.887051"/>
    </g>
   </g>
   <g id="text_9">
    <!-- 0.1 -->
    <g transform="translate(877.427688 224.315301)scale(0.088 -0.088)">
     <use xlink:href="#DejaVuSans-30"/>
     <use x="63.623047" xlink:href="#DejaVuSans-2e"/>
     <use x="95.410156" xlink:href="#DejaVuSans-31"/>
    </g>
   </g>
   <g id="patch_6">
    <path clip-path="url(#pe83c1c0ed9)" d="M 858.587688 247.647051 
L 874.427688 247.647051 
L 874.427688 231.807051 
L 858.587688 231.807051 
z
" style="fill:#f2f2f2;"/>
   </g>
   <g id="line2d_26">
    <path clip-path="url(#pe83c1c0ed9)" d="M 858.587688 239.727051 
L 874.427688 239.727051 
" style="fill:none;stroke:#91db57;stroke-width:0.886227;"/>
   </g>
   <g id="line2d_27">
    <path clip-path="url(#pe83c1c0ed9)" d="M 866.507687 239.727051 
" style="fill:none;stroke:#1f77b4;stroke-linecap:square;stroke-width:1.5;"/>
    <defs>
     <path d="M 0 1.772454 
C 0.47006 1.772454 0.920931 1.585697 1.253314 1.253314 
C 1.585697 0.920931 1.772454 0.47006 1.772454 0 
C 1.772454 -0.47006 1.585697 -0.920931 1.253314 -1.253314 
C 0.920931 -1.585697 0.47006 -1.772454 0 -1.772454 
C -0.47006 -1.772454 -0.920931 -1.585697 -1.253314 -1.253314 
C -1.585697 -0.920931 -1.772454 -0.47006 -1.772454 0 
C -1.772454 0.47006 -1.585697 0.920931 -1.253314 1.253314 
C -0.920931 1.585697 -0.47006 1.772454 0 1.772454 
z
" id="m7b6cbc5025" style="stroke:#91db57;stroke-width:0.886227;"/>
    </defs>
    <g clip-path="url(#pe83c1c0ed9)">
     <use style="fill:#91db57;stroke:#91db57;stroke-width:0.886227;" x="866.507687" xlink:href="#m7b6cbc5025" y="239.727051"/>
    </g>
   </g>
   <g id="text_10">
    <!-- 0.2 -->
    <g transform="translate(877.427688 242.155301)scale(0.088 -0.088)">
     <use xlink:href="#DejaVuSans-30"/>
     <use x="63.623047" xlink:href="#DejaVuSans-2e"/>
     <use x="95.410156" xlink:href="#DejaVuSans-32"/>
    </g>
   </g>
   <g id="patch_7">
    <path clip-path="url(#p4e80d7ec8c)" d="M 858.587688 265.487051 
L 874.427688 265.487051 
L 874.427688 249.647051 
L 858.587688 249.647051 
z
" style="fill:#f2f2f2;"/>
   </g>
   <g id="line2d_28">
    <path clip-path="url(#p4e80d7ec8c)" d="M 858.587688 257.567051 
L 874.427688 257.567051 
" style="fill:none;stroke:#57d3db;stroke-width:0.886227;"/>
   </g>
   <g id="line2d_29">
    <path clip-path="url(#p4e80d7ec8c)" d="M 866.507687 257.567051 
" style="fill:none;stroke:#1f77b4;stroke-linecap:square;stroke-width:1.5;"/>
    <defs>
     <path d="M 0 1.772454 
C 0.47006 1.772454 0.920931 1.585697 1.253314 1.253314 
C 1.585697 0.920931 1.772454 0.47006 1.772454 0 
C 1.772454 -0.47006 1.585697 -0.920931 1.253314 -1.253314 
C 0.920931 -1.585697 0.47006 -1.772454 0 -1.772454 
C -0.47006 -1.772454 -0.920931 -1.585697 -1.253314 -1.253314 
C -1.585697 -0.920931 -1.772454 -0.47006 -1.772454 0 
C -1.772454 0.47006 -1.585697 0.920931 -1.253314 1.253314 
C -0.920931 1.585697 -0.47006 1.772454 0 1.772454 
z
" id="m3713cd2f9d" style="stroke:#57d3db;stroke-width:0.886227;"/>
    </defs>
    <g clip-path="url(#p4e80d7ec8c)">
     <use style="fill:#57d3db;stroke:#57d3db;stroke-width:0.886227;" x="866.507687" xlink:href="#m3713cd2f9d" y="257.567051"/>
    </g>
   </g>
   <g id="text_11">
    <!-- 0.3 -->
    <g transform="translate(877.427688 259.995301)scale(0.088 -0.088)">
     <use xlink:href="#DejaVuSans-30"/>
     <use x="63.623047" xlink:href="#DejaVuSans-2e"/>
     <use x="95.410156" xlink:href="#DejaVuSans-33"/>
    </g>
   </g>
   <g id="patch_8">
    <path clip-path="url(#p9f73516fb1)" d="M 858.587688 283.327051 
L 874.427688 283.327051 
L 874.427688 267.487051 
L 858.587688 267.487051 
z
" style="fill:#f2f2f2;"/>
   </g>
   <g id="line2d_30">
    <path clip-path="url(#p9f73516fb1)" d="M 858.587688 275.407051 
L 874.427688 275.407051 
" style="fill:none;stroke:#a157db;stroke-width:0.886227;"/>
   </g>
   <g id="line2d_31">
    <path clip-path="url(#p9f73516fb1)" d="M 866.507687 275.407051 
" style="fill:none;stroke:#1f77b4;stroke-linecap:square;stroke-width:1.5;"/>
    <defs>
     <path d="M 0 1.772454 
C 0.47006 1.772454 0.920931 1.585697 1.253314 1.253314 
C 1.585697 0.920931 1.772454 0.47006 1.772454 0 
C 1.772454 -0.47006 1.585697 -0.920931 1.253314 -1.253314 
C 0.920931 -1.585697 0.47006 -1.772454 0 -1.772454 
C -0.47006 -1.772454 -0.920931 -1.585697 -1.253314 -1.253314 
C -1.585697 -0.920931 -1.772454 -0.47006 -1.772454 0 
C -1.772454 0.47006 -1.585697 0.920931 -1.253314 1.253314 
C -0.920931 1.585697 -0.47006 1.772454 0 1.772454 
z
" id="m3751d4edb7" style="stroke:#a157db;stroke-width:0.886227;"/>
    </defs>
    <g clip-path="url(#p9f73516fb1)">
     <use style="fill:#a157db;stroke:#a157db;stroke-width:0.886227;" x="866.507687" xlink:href="#m3751d4edb7" y="275.407051"/>
    </g>
   </g>
   <g id="text_12">
    <!-- 0.4 -->
    <g transform="translate(877.427688 277.835301)scale(0.088 -0.088)">
     <use xlink:href="#DejaVuSans-30"/>
     <use x="63.623047" xlink:href="#DejaVuSans-2e"/>
     <use x="95.410156" xlink:href="#DejaVuSans-34"/>
    </g>
   </g>
  </g>
  <g id="axes_2">
   <g id="patch_9">
    <path d="M 475.83885 234.334082 
L 839.187688 234.334082 
L 839.187688 22.244082 
L 475.83885 22.244082 
z
" style="fill:#ebebeb;"/>
   </g>
   <g id="matplotlib.axis_3">
    <g id="xtick_10">
     <g id="line2d_32">
      <path clip-path="url(#pb1a49e7205)" d="M 475.83885 234.334082 
L 475.83885 22.244082 
" style="fill:none;stroke:#ffffff;stroke-linecap:square;"/>
     </g>
    </g>
    <g id="xtick_11">
     <g id="line2d_33">
      <path clip-path="url(#pb1a49e7205)" d="M 566.67606 234.334082 
L 566.67606 22.244082 
" style="fill:none;stroke:#ffffff;stroke-linecap:square;"/>
     </g>
    </g>
    <g id="xtick_12">
     <g id="line2d_34">
      <path clip-path="url(#pb1a49e7205)" d="M 657.513269 234.334082 
L 657.513269 22.244082 
" style="fill:none;stroke:#ffffff;stroke-linecap:square;"/>
     </g>
    </g>
    <g id="xtick_13">
     <g id="line2d_35">
      <path clip-path="url(#pb1a49e7205)" d="M 748.350478 234.334082 
L 748.350478 22.244082 
" style="fill:none;stroke:#ffffff;stroke-linecap:square;"/>
     </g>
    </g>
    <g id="xtick_14">
     <g id="line2d_36">
      <path clip-path="url(#pb1a49e7205)" d="M 839.187688 234.334082 
L 839.187688 22.244082 
" style="fill:none;stroke:#ffffff;stroke-linecap:square;"/>
     </g>
    </g>
    <g id="xtick_15">
     <g id="line2d_37">
      <path clip-path="url(#pb1a49e7205)" d="M 521.257455 234.334082 
L 521.257455 22.244082 
" style="fill:none;stroke:#ffffff;stroke-linecap:square;stroke-width:0.5;"/>
     </g>
    </g>
    <g id="xtick_16">
     <g id="line2d_38">
      <path clip-path="url(#pb1a49e7205)" d="M 612.094664 234.334082 
L 612.094664 22.244082 
" style="fill:none;stroke:#ffffff;stroke-linecap:square;stroke-width:0.5;"/>
     </g>
    </g>
    <g id="xtick_17">
     <g id="line2d_39">
      <path clip-path="url(#pb1a49e7205)" d="M 702.931874 234.334082 
L 702.931874 22.244082 
" style="fill:none;stroke:#ffffff;stroke-linecap:square;stroke-width:0.5;"/>
     </g>
    </g>
    <g id="xtick_18">
     <g id="line2d_40">
      <path clip-path="url(#pb1a49e7205)" d="M 793.769083 234.334082 
L 793.769083 22.244082 
" style="fill:none;stroke:#ffffff;stroke-linecap:square;stroke-width:0.5;"/>
     </g>
    </g>
   </g>
   <g id="matplotlib.axis_4">
    <g id="ytick_10">
     <g id="line2d_41">
      <path clip-path="url(#pb1a49e7205)" d="M 475.83885 189.704638 
L 839.187688 189.704638 
" style="fill:none;stroke:#ffffff;stroke-linecap:square;"/>
     </g>
     <g id="line2d_42">
      <path d="M 475.83885 189.704638 
" style="fill:none;stroke:#333333;stroke-linecap:square;stroke-width:1.5;"/>
      <g>
       <use style="fill:#333333;stroke:#000000;" x="475.83885" xlink:href="#me8562c546e" y="189.704638"/>
      </g>
     </g>
     <g id="text_13">
      <!-- 0.884 -->
      <g style="fill:#4d4d4d;" transform="translate(445.6961 192.132888)scale(0.088 -0.088)">
       <use xlink:href="#DejaVuSans-30"/>
       <use x="63.623047" xlink:href="#DejaVuSans-2e"/>
       <use x="95.410156" xlink:href="#DejaVuSans-38"/>
       <use x="159.033203" xlink:href="#DejaVuSans-38"/>
       <use x="222.65625" xlink:href="#DejaVuSans-34"/>
      </g>
     </g>
    </g>
    <g id="ytick_11">
     <g id="line2d_43">
      <path clip-path="url(#pb1a49e7205)" d="M 475.83885 144.155121 
L 839.187688 144.155121 
" style="fill:none;stroke:#ffffff;stroke-linecap:square;"/>
     </g>
     <g id="line2d_44">
      <path d="M 475.83885 144.155121 
" style="fill:none;stroke:#333333;stroke-linecap:square;stroke-width:1.5;"/>
      <g>
       <use style="fill:#333333;stroke:#000000;" x="475.83885" xlink:href="#me8562c546e" y="144.155121"/>
      </g>
     </g>
     <g id="text_14">
      <!-- 0.885 -->
      <g style="fill:#4d4d4d;" transform="translate(445.6961 146.583371)scale(0.088 -0.088)">
       <use xlink:href="#DejaVuSans-30"/>
       <use x="63.623047" xlink:href="#DejaVuSans-2e"/>
       <use x="95.410156" xlink:href="#DejaVuSans-38"/>
       <use x="159.033203" xlink:href="#DejaVuSans-38"/>
       <use x="222.65625" xlink:href="#DejaVuSans-35"/>
      </g>
     </g>
    </g>
    <g id="ytick_12">
     <g id="line2d_45">
      <path clip-path="url(#pb1a49e7205)" d="M 475.83885 98.605605 
L 839.187688 98.605605 
" style="fill:none;stroke:#ffffff;stroke-linecap:square;"/>
     </g>
     <g id="line2d_46">
      <path d="M 475.83885 98.605605 
" style="fill:none;stroke:#333333;stroke-linecap:square;stroke-width:1.5;"/>
      <g>
       <use style="fill:#333333;stroke:#000000;" x="475.83885" xlink:href="#me8562c546e" y="98.605605"/>
      </g>
     </g>
     <g id="text_15">
      <!-- 0.886 -->
      <g style="fill:#4d4d4d;" transform="translate(445.6961 101.033855)scale(0.088 -0.088)">
       <use xlink:href="#DejaVuSans-30"/>
       <use x="63.623047" xlink:href="#DejaVuSans-2e"/>
       <use x="95.410156" xlink:href="#DejaVuSans-38"/>
       <use x="159.033203" xlink:href="#DejaVuSans-38"/>
       <use x="222.65625" xlink:href="#DejaVuSans-36"/>
      </g>
     </g>
    </g>
    <g id="ytick_13">
     <g id="line2d_47">
      <path clip-path="url(#pb1a49e7205)" d="M 475.83885 53.056089 
L 839.187688 53.056089 
" style="fill:none;stroke:#ffffff;stroke-linecap:square;"/>
     </g>
     <g id="line2d_48">
      <path d="M 475.83885 53.056089 
" style="fill:none;stroke:#333333;stroke-linecap:square;stroke-width:1.5;"/>
      <g>
       <use style="fill:#333333;stroke:#000000;" x="475.83885" xlink:href="#me8562c546e" y="53.056089"/>
      </g>
     </g>
     <g id="text_16">
      <!-- 0.887 -->
      <g style="fill:#4d4d4d;" transform="translate(445.6961 55.484339)scale(0.088 -0.088)">
       <defs>
        <path d="M 525 4666 
L 3525 4666 
L 3525 4397 
L 1831 0 
L 1172 0 
L 2766 4134 
L 525 4134 
L 525 4666 
z
" id="DejaVuSans-37" transform="scale(0.015625)"/>
       </defs>
       <use xlink:href="#DejaVuSans-30"/>
       <use x="63.623047" xlink:href="#DejaVuSans-2e"/>
       <use x="95.410156" xlink:href="#DejaVuSans-38"/>
       <use x="159.033203" xlink:href="#DejaVuSans-38"/>
       <use x="222.65625" xlink:href="#DejaVuSans-37"/>
      </g>
     </g>
    </g>
    <g id="ytick_14">
     <g id="line2d_49">
      <path clip-path="url(#pb1a49e7205)" d="M 475.83885 212.479396 
L 839.187688 212.479396 
" style="fill:none;stroke:#ffffff;stroke-linecap:square;stroke-width:0.5;"/>
     </g>
    </g>
    <g id="ytick_15">
     <g id="line2d_50">
      <path clip-path="url(#pb1a49e7205)" d="M 475.83885 166.92988 
L 839.187688 166.92988 
" style="fill:none;stroke:#ffffff;stroke-linecap:square;stroke-width:0.5;"/>
     </g>
    </g>
    <g id="ytick_16">
     <g id="line2d_51">
      <path clip-path="url(#pb1a49e7205)" d="M 475.83885 121.380363 
L 839.187688 121.380363 
" style="fill:none;stroke:#ffffff;stroke-linecap:square;stroke-width:0.5;"/>
     </g>
    </g>
    <g id="ytick_17">
     <g id="line2d_52">
      <path clip-path="url(#pb1a49e7205)" d="M 475.83885 75.830847 
L 839.187688 75.830847 
" style="fill:none;stroke:#ffffff;stroke-linecap:square;stroke-width:0.5;"/>
     </g>
    </g>
    <g id="ytick_18">
     <g id="line2d_53">
      <path clip-path="url(#pb1a49e7205)" d="M 475.83885 30.281331 
L 839.187688 30.281331 
" style="fill:none;stroke:#ffffff;stroke-linecap:square;stroke-width:0.5;"/>
     </g>
    </g>
   </g>
   <g id="PathCollection_2">
    <path clip-path="url(#pb1a49e7205)" d="M 657.513269 54.05815 
C 657.983329 54.05815 658.4342 53.871393 658.766583 53.53901 
C 659.098966 53.206628 659.285723 52.755756 659.285723 52.285696 
C 659.285723 51.815636 659.098966 51.364765 658.766583 51.032382 
C 658.4342 50.699999 657.983329 50.513242 657.513269 50.513242 
C 657.043209 50.513242 656.592338 50.699999 656.259955 51.032382 
C 655.927572 51.364765 655.740815 51.815636 655.740815 52.285696 
C 655.740815 52.755756 655.927572 53.206628 656.259955 53.53901 
C 656.592338 53.871393 657.043209 54.05815 657.513269 54.05815 
z
" style="fill:#db5f57;stroke:#db5f57;stroke-width:0.886227;"/>
    <path clip-path="url(#pb1a49e7205)" d="M 657.513269 33.656991 
C 657.983329 33.656991 658.4342 33.470234 658.766583 33.137851 
C 659.098966 32.805468 659.285723 32.354597 659.285723 31.884537 
C 659.285723 31.414477 659.098966 30.963606 658.766583 30.631223 
C 658.4342 30.29884 657.983329 30.112083 657.513269 30.112083 
C 657.043209 30.112083 656.592338 30.29884 656.259955 30.631223 
C 655.927572 30.963606 655.740815 31.414477 655.740815 31.884537 
C 655.740815 32.354597 655.927572 32.805468 656.259955 33.137851 
C 656.592338 33.470234 657.043209 33.656991 657.513269 33.656991 
z
" style="fill:#91db57;stroke:#91db57;stroke-width:0.886227;"/>
    <path clip-path="url(#pb1a49e7205)" d="M 657.513269 121.820641 
C 657.983329 121.820641 658.4342 121.633884 658.766583 121.301502 
C 659.098966 120.969119 659.285723 120.518248 659.285723 120.048187 
C 659.285723 119.578127 659.098966 119.127256 658.766583 118.794873 
C 658.4342 118.46249 657.983329 118.275734 657.513269 118.275734 
C 657.043209 118.275734 656.592338 118.46249 656.259955 118.794873 
C 655.927572 119.127256 655.740815 119.578127 655.740815 120.048187 
C 655.740815 120.518248 655.927572 120.969119 656.259955 121.301502 
C 656.592338 121.633884 657.043209 121.820641 657.513269 121.820641 
z
" style="fill:#57d3db;stroke:#57d3db;stroke-width:0.886227;"/>
    <path clip-path="url(#pb1a49e7205)" d="M 657.513269 226.466082 
C 657.983329 226.466082 658.4342 226.279325 658.766583 225.946942 
C 659.098966 225.614559 659.285723 225.163688 659.285723 224.693628 
C 659.285723 224.223568 659.098966 223.772696 658.766583 223.440314 
C 658.4342 223.107931 657.983329 222.921174 657.513269 222.921174 
C 657.043209 222.921174 656.592338 223.107931 656.259955 223.440314 
C 655.927572 223.772696 655.740815 224.223568 655.740815 224.693628 
C 655.740815 225.163688 655.927572 225.614559 656.259955 225.946942 
C 656.592338 226.279325 657.043209 226.466082 657.513269 226.466082 
z
" style="fill:#a157db;stroke:#a157db;stroke-width:0.886227;"/>
   </g>
   <g id="patch_10">
    <path d="M 475.83885 22.244082 
L 839.187688 22.244082 
L 839.187688 7.2 
L 475.83885 7.2 
z
" style="fill:#d9d9d9;"/>
   </g>
   <g id="text_17">
    <!-- AUC -->
    <g style="fill:#1a1a1a;" transform="translate(648.210706 17.150291)scale(0.088 -0.088)">
     <defs>
      <path d="M 556 4666 
L 1191 4666 
L 1191 1831 
Q 1191 1081 1462 751 
Q 1734 422 2344 422 
Q 2950 422 3222 751 
Q 3494 1081 3494 1831 
L 3494 4666 
L 4128 4666 
L 4128 1753 
Q 4128 841 3676 375 
Q 3225 -91 2344 -91 
Q 1459 -91 1007 375 
Q 556 841 556 1753 
L 556 4666 
z
" id="DejaVuSans-55" transform="scale(0.015625)"/>
      <path d="M 4122 4306 
L 4122 3641 
Q 3803 3938 3442 4084 
Q 3081 4231 2675 4231 
Q 1875 4231 1450 3742 
Q 1025 3253 1025 2328 
Q 1025 1406 1450 917 
Q 1875 428 2675 428 
Q 3081 428 3442 575 
Q 3803 722 4122 1019 
L 4122 359 
Q 3791 134 3420 21 
Q 3050 -91 2638 -91 
Q 1578 -91 968 557 
Q 359 1206 359 2328 
Q 359 3453 968 4101 
Q 1578 4750 2638 4750 
Q 3056 4750 3426 4639 
Q 3797 4528 4122 4306 
z
" id="DejaVuSans-43" transform="scale(0.015625)"/>
     </defs>
     <use xlink:href="#DejaVuSans-41"/>
     <use x="68.408203" xlink:href="#DejaVuSans-55"/>
     <use x="141.601562" xlink:href="#DejaVuSans-43"/>
    </g>
   </g>
  </g>
  <g id="axes_3">
   <g id="patch_11">
    <path d="M 57.987688 465.764082 
L 421.336525 465.764082 
L 421.336525 253.674082 
L 57.987688 253.674082 
z
" style="fill:#ebebeb;"/>
   </g>
   <g id="matplotlib.axis_5">
    <g id="xtick_19">
     <g id="line2d_54">
      <path clip-path="url(#p194c83f8fe)" d="M 57.987688 465.764082 
L 57.987688 253.674082 
" style="fill:none;stroke:#ffffff;stroke-linecap:square;"/>
     </g>
     <g id="line2d_55">
      <path d="M 57.987688 465.764082 
" style="fill:none;stroke:#333333;stroke-linecap:square;stroke-width:1.5;"/>
      <defs>
       <path d="M 0 0 
L 0 2.75 
" id="mad931f1113" style="stroke:#000000;"/>
      </defs>
      <g>
       <use style="fill:#333333;stroke:#000000;" x="57.987688" xlink:href="#mad931f1113" y="465.764082"/>
      </g>
     </g>
     <g id="text_18">
      <!-- −0.50 -->
      <g style="fill:#4d4d4d;" transform="translate(44.50375 477.400707)scale(0.088 -0.088)">
       <defs>
        <path d="M 678 2272 
L 4684 2272 
L 4684 1741 
L 678 1741 
L 678 2272 
z
" id="DejaVuSans-2212" transform="scale(0.015625)"/>
       </defs>
       <use xlink:href="#DejaVuSans-2212"/>
       <use x="83.789062" xlink:href="#DejaVuSans-30"/>
       <use x="147.412109" xlink:href="#DejaVuSans-2e"/>
       <use x="179.199219" xlink:href="#DejaVuSans-35"/>
       <use x="242.822266" xlink:href="#DejaVuSans-30"/>
      </g>
     </g>
    </g>
    <g id="xtick_20">
     <g id="line2d_56">
      <path clip-path="url(#p194c83f8fe)" d="M 148.824897 465.764082 
L 148.824897 253.674082 
" style="fill:none;stroke:#ffffff;stroke-linecap:square;"/>
     </g>
     <g id="line2d_57">
      <path d="M 148.824897 465.764082 
" style="fill:none;stroke:#333333;stroke-linecap:square;stroke-width:1.5;"/>
      <g>
       <use style="fill:#333333;stroke:#000000;" x="148.824897" xlink:href="#mad931f1113" y="465.764082"/>
      </g>
     </g>
     <g id="text_19">
      <!-- −0.25 -->
      <g style="fill:#4d4d4d;" transform="translate(135.340959 477.400707)scale(0.088 -0.088)">
       <use xlink:href="#DejaVuSans-2212"/>
       <use x="83.789062" xlink:href="#DejaVuSans-30"/>
       <use x="147.412109" xlink:href="#DejaVuSans-2e"/>
       <use x="179.199219" xlink:href="#DejaVuSans-32"/>
       <use x="242.822266" xlink:href="#DejaVuSans-35"/>
      </g>
     </g>
    </g>
    <g id="xtick_21">
     <g id="line2d_58">
      <path clip-path="url(#p194c83f8fe)" d="M 239.662106 465.764082 
L 239.662106 253.674082 
" style="fill:none;stroke:#ffffff;stroke-linecap:square;"/>
     </g>
     <g id="line2d_59">
      <path d="M 239.662106 465.764082 
" style="fill:none;stroke:#333333;stroke-linecap:square;stroke-width:1.5;"/>
      <g>
       <use style="fill:#333333;stroke:#000000;" x="239.662106" xlink:href="#mad931f1113" y="465.764082"/>
      </g>
     </g>
     <g id="text_20">
      <!-- 0 -->
      <g style="fill:#4d4d4d;" transform="translate(236.862606 477.400707)scale(0.088 -0.088)">
       <use xlink:href="#DejaVuSans-30"/>
      </g>
     </g>
    </g>
    <g id="xtick_22">
     <g id="line2d_60">
      <path clip-path="url(#p194c83f8fe)" d="M 330.499315 465.764082 
L 330.499315 253.674082 
" style="fill:none;stroke:#ffffff;stroke-linecap:square;"/>
     </g>
     <g id="line2d_61">
      <path d="M 330.499315 465.764082 
" style="fill:none;stroke:#333333;stroke-linecap:square;stroke-width:1.5;"/>
      <g>
       <use style="fill:#333333;stroke:#000000;" x="330.499315" xlink:href="#mad931f1113" y="465.764082"/>
      </g>
     </g>
     <g id="text_21">
      <!-- 0.25 -->
      <g style="fill:#4d4d4d;" transform="translate(320.70244 477.400707)scale(0.088 -0.088)">
       <use xlink:href="#DejaVuSans-30"/>
       <use x="63.623047" xlink:href="#DejaVuSans-2e"/>
       <use x="95.410156" xlink:href="#DejaVuSans-32"/>
       <use x="159.033203" xlink:href="#DejaVuSans-35"/>
      </g>
     </g>
    </g>
    <g id="xtick_23">
     <g id="line2d_62">
      <path clip-path="url(#p194c83f8fe)" d="M 421.336525 465.764082 
L 421.336525 253.674082 
" style="fill:none;stroke:#ffffff;stroke-linecap:square;"/>
     </g>
     <g id="line2d_63">
      <path d="M 421.336525 465.764082 
" style="fill:none;stroke:#333333;stroke-linecap:square;stroke-width:1.5;"/>
      <g>
       <use style="fill:#333333;stroke:#000000;" x="421.336525" xlink:href="#mad931f1113" y="465.764082"/>
      </g>
     </g>
     <g id="text_22">
      <!-- 0.50 -->
      <g style="fill:#4d4d4d;" transform="translate(411.53965 477.400707)scale(0.088 -0.088)">
       <use xlink:href="#DejaVuSans-30"/>
       <use x="63.623047" xlink:href="#DejaVuSans-2e"/>
       <use x="95.410156" xlink:href="#DejaVuSans-35"/>
       <use x="159.033203" xlink:href="#DejaVuSans-30"/>
      </g>
     </g>
    </g>
    <g id="xtick_24">
     <g id="line2d_64">
      <path clip-path="url(#p194c83f8fe)" d="M 103.406292 465.764082 
L 103.406292 253.674082 
" style="fill:none;stroke:#ffffff;stroke-linecap:square;stroke-width:0.5;"/>
     </g>
    </g>
    <g id="xtick_25">
     <g id="line2d_65">
      <path clip-path="url(#p194c83f8fe)" d="M 194.243501 465.764082 
L 194.243501 253.674082 
" style="fill:none;stroke:#ffffff;stroke-linecap:square;stroke-width:0.5;"/>
     </g>
    </g>
    <g id="xtick_26">
     <g id="line2d_66">
      <path clip-path="url(#p194c83f8fe)" d="M 285.080711 465.764082 
L 285.080711 253.674082 
" style="fill:none;stroke:#ffffff;stroke-linecap:square;stroke-width:0.5;"/>
     </g>
    </g>
    <g id="xtick_27">
     <g id="line2d_67">
      <path clip-path="url(#p194c83f8fe)" d="M 375.91792 465.764082 
L 375.91792 253.674082 
" style="fill:none;stroke:#ffffff;stroke-linecap:square;stroke-width:0.5;"/>
     </g>
    </g>
   </g>
   <g id="matplotlib.axis_6">
    <g id="ytick_19">
     <g id="line2d_68">
      <path clip-path="url(#p194c83f8fe)" d="M 57.987688 412.071854 
L 421.336525 412.071854 
" style="fill:none;stroke:#ffffff;stroke-linecap:square;"/>
     </g>
     <g id="line2d_69">
      <path d="M 57.987688 412.071854 
" style="fill:none;stroke:#333333;stroke-linecap:square;stroke-width:1.5;"/>
      <g>
       <use style="fill:#333333;stroke:#000000;" x="57.987688" xlink:href="#me8562c546e" y="412.071854"/>
      </g>
     </g>
     <g id="text_23">
      <!-- 0.8925 -->
      <g style="fill:#4d4d4d;" transform="translate(22.245938 414.500104)scale(0.088 -0.088)">
       <use xlink:href="#DejaVuSans-30"/>
       <use x="63.623047" xlink:href="#DejaVuSans-2e"/>
       <use x="95.410156" xlink:href="#DejaVuSans-38"/>
       <use x="159.033203" xlink:href="#DejaVuSans-39"/>
       <use x="222.65625" xlink:href="#DejaVuSans-32"/>
       <use x="286.279297" xlink:href="#DejaVuSans-35"/>
      </g>
     </g>
    </g>
    <g id="ytick_20">
     <g id="line2d_70">
      <path clip-path="url(#p194c83f8fe)" d="M 57.987688 356.270029 
L 421.336525 356.270029 
" style="fill:none;stroke:#ffffff;stroke-linecap:square;"/>
     </g>
     <g id="line2d_71">
      <path d="M 57.987688 356.270029 
" style="fill:none;stroke:#333333;stroke-linecap:square;stroke-width:1.5;"/>
      <g>
       <use style="fill:#333333;stroke:#000000;" x="57.987688" xlink:href="#me8562c546e" y="356.270029"/>
      </g>
     </g>
     <g id="text_24">
      <!-- 0.8928 -->
      <g style="fill:#4d4d4d;" transform="translate(22.245938 358.698279)scale(0.088 -0.088)">
       <use xlink:href="#DejaVuSans-30"/>
       <use x="63.623047" xlink:href="#DejaVuSans-2e"/>
       <use x="95.410156" xlink:href="#DejaVuSans-38"/>
       <use x="159.033203" xlink:href="#DejaVuSans-39"/>
       <use x="222.65625" xlink:href="#DejaVuSans-32"/>
       <use x="286.279297" xlink:href="#DejaVuSans-38"/>
      </g>
     </g>
    </g>
    <g id="ytick_21">
     <g id="line2d_72">
      <path clip-path="url(#p194c83f8fe)" d="M 57.987688 300.468204 
L 421.336525 300.468204 
" style="fill:none;stroke:#ffffff;stroke-linecap:square;"/>
     </g>
     <g id="line2d_73">
      <path d="M 57.987688 300.468204 
" style="fill:none;stroke:#333333;stroke-linecap:square;stroke-width:1.5;"/>
      <g>
       <use style="fill:#333333;stroke:#000000;" x="57.987688" xlink:href="#me8562c546e" y="300.468204"/>
      </g>
     </g>
     <g id="text_25">
      <!-- 0.8931 -->
      <g style="fill:#4d4d4d;" transform="translate(22.245938 302.896454)scale(0.088 -0.088)">
       <use xlink:href="#DejaVuSans-30"/>
       <use x="63.623047" xlink:href="#DejaVuSans-2e"/>
       <use x="95.410156" xlink:href="#DejaVuSans-38"/>
       <use x="159.033203" xlink:href="#DejaVuSans-39"/>
       <use x="222.65625" xlink:href="#DejaVuSans-33"/>
       <use x="286.279297" xlink:href="#DejaVuSans-31"/>
      </g>
     </g>
    </g>
    <g id="ytick_22">
     <g id="line2d_74">
      <path clip-path="url(#p194c83f8fe)" d="M 57.987688 439.972766 
L 421.336525 439.972766 
" style="fill:none;stroke:#ffffff;stroke-linecap:square;stroke-width:0.5;"/>
     </g>
    </g>
    <g id="ytick_23">
     <g id="line2d_75">
      <path clip-path="url(#p194c83f8fe)" d="M 57.987688 384.170941 
L 421.336525 384.170941 
" style="fill:none;stroke:#ffffff;stroke-linecap:square;stroke-width:0.5;"/>
     </g>
    </g>
    <g id="ytick_24">
     <g id="line2d_76">
      <path clip-path="url(#p194c83f8fe)" d="M 57.987688 328.369116 
L 421.336525 328.369116 
" style="fill:none;stroke:#ffffff;stroke-linecap:square;stroke-width:0.5;"/>
     </g>
    </g>
    <g id="ytick_25">
     <g id="line2d_77">
      <path clip-path="url(#p194c83f8fe)" d="M 57.987688 272.567292 
L 421.336525 272.567292 
" style="fill:none;stroke:#ffffff;stroke-linecap:square;stroke-width:0.5;"/>
     </g>
    </g>
   </g>
   <g id="PathCollection_3">
    <path clip-path="url(#p194c83f8fe)" d="M 239.662106 265.086991 
C 240.132166 265.086991 240.583037 264.900234 240.91542 264.567851 
C 241.247803 264.235468 241.43456 263.784597 241.43456 263.314537 
C 241.43456 262.844477 241.247803 262.393606 240.91542 262.061223 
C 240.583037 261.72884 240.132166 261.542083 239.662106 261.542083 
C 239.192046 261.542083 238.741175 261.72884 238.408792 262.061223 
C 238.076409 262.393606 237.889652 262.844477 237.889652 263.314537 
C 237.889652 263.784597 238.076409 264.235468 238.408792 264.567851 
C 238.741175 264.900234 239.192046 265.086991 239.662106 265.086991 
z
" style="fill:#db5f57;stroke:#db5f57;stroke-width:0.886227;"/>
    <path clip-path="url(#p194c83f8fe)" d="M 239.662106 300.054988 
C 240.132166 300.054988 240.583037 299.868231 240.91542 299.535848 
C 241.247803 299.203466 241.43456 298.752595 241.43456 298.282534 
C 241.43456 297.812474 241.247803 297.361603 240.91542 297.02922 
C 240.583037 296.696837 240.132166 296.51008 239.662106 296.51008 
C 239.192046 296.51008 238.741175 296.696837 238.408792 297.02922 
C 238.076409 297.361603 237.889652 297.812474 237.889652 298.282534 
C 237.889652 298.752595 238.076409 299.203466 238.408792 299.535848 
C 238.741175 299.868231 239.192046 300.054988 239.662106 300.054988 
z
" style="fill:#91db57;stroke:#91db57;stroke-width:0.886227;"/>
    <path clip-path="url(#p194c83f8fe)" d="M 239.662106 457.896082 
C 240.132166 457.896082 240.583037 457.709325 240.91542 457.376942 
C 241.247803 457.044559 241.43456 456.593688 241.43456 456.123628 
C 241.43456 455.653568 241.247803 455.202696 240.91542 454.870314 
C 240.583037 454.537931 240.132166 454.351174 239.662106 454.351174 
C 239.192046 454.351174 238.741175 454.537931 238.408792 454.870314 
C 238.076409 455.202696 237.889652 455.653568 237.889652 456.123628 
C 237.889652 456.593688 238.076409 457.044559 238.408792 457.376942 
C 238.741175 457.709325 239.192046 457.896082 239.662106 457.896082 
z
" style="fill:#57d3db;stroke:#57d3db;stroke-width:0.886227;"/>
    <path clip-path="url(#p194c83f8fe)" d="M 239.662106 404.05531 
C 240.132166 404.05531 240.583037 403.868553 240.91542 403.53617 
C 241.247803 403.203787 241.43456 402.752916 241.43456 402.282856 
C 241.43456 401.812796 241.247803 401.361925 240.91542 401.029542 
C 240.583037 400.697159 240.132166 400.510402 239.662106 400.510402 
C 239.192046 400.510402 238.741175 400.697159 238.408792 401.029542 
C 238.076409 401.361925 237.889652 401.812796 237.889652 402.282856 
C 237.889652 402.752916 238.076409 403.203787 238.408792 403.53617 
C 238.741175 403.868553 239.192046 404.05531 239.662106 404.05531 
z
" style="fill:#a157db;stroke:#a157db;stroke-width:0.886227;"/>
   </g>
   <g id="patch_12">
    <path d="M 57.987688 253.674082 
L 421.336525 253.674082 
L 421.336525 238.63 
L 57.987688 238.63 
z
" style="fill:#d9d9d9;"/>
   </g>
   <g id="text_26">
    <!-- F1 score: &lt;=50K -->
    <g style="fill:#1a1a1a;" transform="translate(202.373481 248.580291)scale(0.088 -0.088)">
     <defs>
      <path d="M 628 4666 
L 3309 4666 
L 3309 4134 
L 1259 4134 
L 1259 2759 
L 3109 2759 
L 3109 2228 
L 1259 2228 
L 1259 0 
L 628 0 
L 628 4666 
z
" id="DejaVuSans-46" transform="scale(0.015625)"/>
      <path d="M 2834 3397 
L 2834 2853 
Q 2591 2978 2328 3040 
Q 2066 3103 1784 3103 
Q 1356 3103 1142 2972 
Q 928 2841 928 2578 
Q 928 2378 1081 2264 
Q 1234 2150 1697 2047 
L 1894 2003 
Q 2506 1872 2764 1633 
Q 3022 1394 3022 966 
Q 3022 478 2636 193 
Q 2250 -91 1575 -91 
Q 1294 -91 989 -36 
Q 684 19 347 128 
L 347 722 
Q 666 556 975 473 
Q 1284 391 1588 391 
Q 1994 391 2212 530 
Q 2431 669 2431 922 
Q 2431 1156 2273 1281 
Q 2116 1406 1581 1522 
L 1381 1569 
Q 847 1681 609 1914 
Q 372 2147 372 2553 
Q 372 3047 722 3315 
Q 1072 3584 1716 3584 
Q 2034 3584 2315 3537 
Q 2597 3491 2834 3397 
z
" id="DejaVuSans-73" transform="scale(0.015625)"/>
      <path d="M 1959 3097 
Q 1497 3097 1228 2736 
Q 959 2375 959 1747 
Q 959 1119 1226 758 
Q 1494 397 1959 397 
Q 2419 397 2687 759 
Q 2956 1122 2956 1747 
Q 2956 2369 2687 2733 
Q 2419 3097 1959 3097 
z
M 1959 3584 
Q 2709 3584 3137 3096 
Q 3566 2609 3566 1747 
Q 3566 888 3137 398 
Q 2709 -91 1959 -91 
Q 1206 -91 779 398 
Q 353 888 353 1747 
Q 353 2609 779 3096 
Q 1206 3584 1959 3584 
z
" id="DejaVuSans-6f" transform="scale(0.015625)"/>
      <path d="M 750 794 
L 1409 794 
L 1409 0 
L 750 0 
L 750 794 
z
M 750 3309 
L 1409 3309 
L 1409 2516 
L 750 2516 
L 750 3309 
z
" id="DejaVuSans-3a" transform="scale(0.015625)"/>
      <path d="M 4684 3150 
L 1459 2003 
L 4684 863 
L 4684 294 
L 678 1747 
L 678 2266 
L 4684 3719 
L 4684 3150 
z
" id="DejaVuSans-3c" transform="scale(0.015625)"/>
      <path d="M 678 2906 
L 4684 2906 
L 4684 2381 
L 678 2381 
L 678 2906 
z
M 678 1631 
L 4684 1631 
L 4684 1100 
L 678 1100 
L 678 1631 
z
" id="DejaVuSans-3d" transform="scale(0.015625)"/>
      <path d="M 628 4666 
L 1259 4666 
L 1259 2694 
L 3353 4666 
L 4166 4666 
L 1850 2491 
L 4331 0 
L 3500 0 
L 1259 2247 
L 1259 0 
L 628 0 
L 628 4666 
z
" id="DejaVuSans-4b" transform="scale(0.015625)"/>
     </defs>
     <use xlink:href="#DejaVuSans-46"/>
     <use x="57.519531" xlink:href="#DejaVuSans-31"/>
     <use x="121.142578" xlink:href="#DejaVuSans-20"/>
     <use x="152.929688" xlink:href="#DejaVuSans-73"/>
     <use x="205.029297" xlink:href="#DejaVuSans-63"/>
     <use x="260.009766" xlink:href="#DejaVuSans-6f"/>
     <use x="321.191406" xlink:href="#DejaVuSans-72"/>
     <use x="360.054688" xlink:href="#DejaVuSans-65"/>
     <use x="421.578125" xlink:href="#DejaVuSans-3a"/>
     <use x="455.269531" xlink:href="#DejaVuSans-20"/>
     <use x="487.056641" xlink:href="#DejaVuSans-3c"/>
     <use x="570.845703" xlink:href="#DejaVuSans-3d"/>
     <use x="654.634766" xlink:href="#DejaVuSans-35"/>
     <use x="718.257812" xlink:href="#DejaVuSans-30"/>
     <use x="781.880859" xlink:href="#DejaVuSans-4b"/>
    </g>
   </g>
  </g>
  <g id="axes_4">
   <g id="patch_13">
    <path d="M 475.83885 465.764082 
L 839.187688 465.764082 
L 839.187688 253.674082 
L 475.83885 253.674082 
z
" style="fill:#ebebeb;"/>
   </g>
   <g id="matplotlib.axis_7">
    <g id="xtick_28">
     <g id="line2d_78">
      <path clip-path="url(#p31447dfa00)" d="M 475.83885 465.764082 
L 475.83885 253.674082 
" style="fill:none;stroke:#ffffff;stroke-linecap:square;"/>
     </g>
     <g id="line2d_79">
      <path d="M 475.83885 465.764082 
" style="fill:none;stroke:#333333;stroke-linecap:square;stroke-width:1.5;"/>
      <g>
       <use style="fill:#333333;stroke:#000000;" x="475.83885" xlink:href="#mad931f1113" y="465.764082"/>
      </g>
     </g>
     <g id="text_27">
      <!-- −0.50 -->
      <g style="fill:#4d4d4d;" transform="translate(462.354913 477.400707)scale(0.088 -0.088)">
       <use xlink:href="#DejaVuSans-2212"/>
       <use x="83.789062" xlink:href="#DejaVuSans-30"/>
       <use x="147.412109" xlink:href="#DejaVuSans-2e"/>
       <use x="179.199219" xlink:href="#DejaVuSans-35"/>
       <use x="242.822266" xlink:href="#DejaVuSans-30"/>
      </g>
     </g>
    </g>
    <g id="xtick_29">
     <g id="line2d_80">
      <path clip-path="url(#p31447dfa00)" d="M 566.67606 465.764082 
L 566.67606 253.674082 
" style="fill:none;stroke:#ffffff;stroke-linecap:square;"/>
     </g>
     <g id="line2d_81">
      <path d="M 566.67606 465.764082 
" style="fill:none;stroke:#333333;stroke-linecap:square;stroke-width:1.5;"/>
      <g>
       <use style="fill:#333333;stroke:#000000;" x="566.67606" xlink:href="#mad931f1113" y="465.764082"/>
      </g>
     </g>
     <g id="text_28">
      <!-- −0.25 -->
      <g style="fill:#4d4d4d;" transform="translate(553.192122 477.400707)scale(0.088 -0.088)">
       <use xlink:href="#DejaVuSans-2212"/>
       <use x="83.789062" xlink:href="#DejaVuSans-30"/>
       <use x="147.412109" xlink:href="#DejaVuSans-2e"/>
       <use x="179.199219" xlink:href="#DejaVuSans-32"/>
       <use x="242.822266" xlink:href="#DejaVuSans-35"/>
      </g>
     </g>
    </g>
    <g id="xtick_30">
     <g id="line2d_82">
      <path clip-path="url(#p31447dfa00)" d="M 657.513269 465.764082 
L 657.513269 253.674082 
" style="fill:none;stroke:#ffffff;stroke-linecap:square;"/>
     </g>
     <g id="line2d_83">
      <path d="M 657.513269 465.764082 
" style="fill:none;stroke:#333333;stroke-linecap:square;stroke-width:1.5;"/>
      <g>
       <use style="fill:#333333;stroke:#000000;" x="657.513269" xlink:href="#mad931f1113" y="465.764082"/>
      </g>
     </g>
     <g id="text_29">
      <!-- 0 -->
      <g style="fill:#4d4d4d;" transform="translate(654.713769 477.400707)scale(0.088 -0.088)">
       <use xlink:href="#DejaVuSans-30"/>
      </g>
     </g>
    </g>
    <g id="xtick_31">
     <g id="line2d_84">
      <path clip-path="url(#p31447dfa00)" d="M 748.350478 465.764082 
L 748.350478 253.674082 
" style="fill:none;stroke:#ffffff;stroke-linecap:square;"/>
     </g>
     <g id="line2d_85">
      <path d="M 748.350478 465.764082 
" style="fill:none;stroke:#333333;stroke-linecap:square;stroke-width:1.5;"/>
      <g>
       <use style="fill:#333333;stroke:#000000;" x="748.350478" xlink:href="#mad931f1113" y="465.764082"/>
      </g>
     </g>
     <g id="text_30">
      <!-- 0.25 -->
      <g style="fill:#4d4d4d;" transform="translate(738.553603 477.400707)scale(0.088 -0.088)">
       <use xlink:href="#DejaVuSans-30"/>
       <use x="63.623047" xlink:href="#DejaVuSans-2e"/>
       <use x="95.410156" xlink:href="#DejaVuSans-32"/>
       <use x="159.033203" xlink:href="#DejaVuSans-35"/>
      </g>
     </g>
    </g>
    <g id="xtick_32">
     <g id="line2d_86">
      <path clip-path="url(#p31447dfa00)" d="M 839.187688 465.764082 
L 839.187688 253.674082 
" style="fill:none;stroke:#ffffff;stroke-linecap:square;"/>
     </g>
     <g id="line2d_87">
      <path d="M 839.187688 465.764082 
" style="fill:none;stroke:#333333;stroke-linecap:square;stroke-width:1.5;"/>
      <g>
       <use style="fill:#333333;stroke:#000000;" x="839.187688" xlink:href="#mad931f1113" y="465.764082"/>
      </g>
     </g>
     <g id="text_31">
      <!-- 0.50 -->
      <g style="fill:#4d4d4d;" transform="translate(829.390813 477.400707)scale(0.088 -0.088)">
       <use xlink:href="#DejaVuSans-30"/>
       <use x="63.623047" xlink:href="#DejaVuSans-2e"/>
       <use x="95.410156" xlink:href="#DejaVuSans-35"/>
       <use x="159.033203" xlink:href="#DejaVuSans-30"/>
      </g>
     </g>
    </g>
    <g id="xtick_33">
     <g id="line2d_88">
      <path clip-path="url(#p31447dfa00)" d="M 521.257455 465.764082 
L 521.257455 253.674082 
" style="fill:none;stroke:#ffffff;stroke-linecap:square;stroke-width:0.5;"/>
     </g>
    </g>
    <g id="xtick_34">
     <g id="line2d_89">
      <path clip-path="url(#p31447dfa00)" d="M 612.094664 465.764082 
L 612.094664 253.674082 
" style="fill:none;stroke:#ffffff;stroke-linecap:square;stroke-width:0.5;"/>
     </g>
    </g>
    <g id="xtick_35">
     <g id="line2d_90">
      <path clip-path="url(#p31447dfa00)" d="M 702.931874 465.764082 
L 702.931874 253.674082 
" style="fill:none;stroke:#ffffff;stroke-linecap:square;stroke-width:0.5;"/>
     </g>
    </g>
    <g id="xtick_36">
     <g id="line2d_91">
      <path clip-path="url(#p31447dfa00)" d="M 793.769083 465.764082 
L 793.769083 253.674082 
" style="fill:none;stroke:#ffffff;stroke-linecap:square;stroke-width:0.5;"/>
     </g>
    </g>
    <g id="text_32">
     <!-- Noise discrete unif max -->
     <g transform="translate(371.097141 491.989114)scale(0.11 -0.11)">
      <defs>
       <path d="M 628 4666 
L 1478 4666 
L 3547 763 
L 3547 4666 
L 4159 4666 
L 4159 0 
L 3309 0 
L 1241 3903 
L 1241 0 
L 628 0 
L 628 4666 
z
" id="DejaVuSans-4e" transform="scale(0.015625)"/>
       <path d="M 603 3500 
L 1178 3500 
L 1178 0 
L 603 0 
L 603 3500 
z
M 603 4863 
L 1178 4863 
L 1178 4134 
L 603 4134 
L 603 4863 
z
" id="DejaVuSans-69" transform="scale(0.015625)"/>
       <path d="M 2906 2969 
L 2906 4863 
L 3481 4863 
L 3481 0 
L 2906 0 
L 2906 525 
Q 2725 213 2448 61 
Q 2172 -91 1784 -91 
Q 1150 -91 751 415 
Q 353 922 353 1747 
Q 353 2572 751 3078 
Q 1150 3584 1784 3584 
Q 2172 3584 2448 3432 
Q 2725 3281 2906 2969 
z
M 947 1747 
Q 947 1113 1208 752 
Q 1469 391 1925 391 
Q 2381 391 2643 752 
Q 2906 1113 2906 1747 
Q 2906 2381 2643 2742 
Q 2381 3103 1925 3103 
Q 1469 3103 1208 2742 
Q 947 2381 947 1747 
z
" id="DejaVuSans-64" transform="scale(0.015625)"/>
       <path d="M 3513 2113 
L 3513 0 
L 2938 0 
L 2938 2094 
Q 2938 2591 2744 2837 
Q 2550 3084 2163 3084 
Q 1697 3084 1428 2787 
Q 1159 2491 1159 1978 
L 1159 0 
L 581 0 
L 581 3500 
L 1159 3500 
L 1159 2956 
Q 1366 3272 1645 3428 
Q 1925 3584 2291 3584 
Q 2894 3584 3203 3211 
Q 3513 2838 3513 2113 
z
" id="DejaVuSans-6e" transform="scale(0.015625)"/>
       <path d="M 2375 4863 
L 2375 4384 
L 1825 4384 
Q 1516 4384 1395 4259 
Q 1275 4134 1275 3809 
L 1275 3500 
L 2222 3500 
L 2222 3053 
L 1275 3053 
L 1275 0 
L 697 0 
L 697 3053 
L 147 3053 
L 147 3500 
L 697 3500 
L 697 3744 
Q 697 4328 969 4595 
Q 1241 4863 1831 4863 
L 2375 4863 
z
" id="DejaVuSans-66" transform="scale(0.015625)"/>
       <path d="M 3513 3500 
L 2247 1797 
L 3578 0 
L 2900 0 
L 1881 1375 
L 863 0 
L 184 0 
L 1544 1831 
L 300 3500 
L 978 3500 
L 1906 2253 
L 2834 3500 
L 3513 3500 
z
" id="DejaVuSans-78" transform="scale(0.015625)"/>
      </defs>
      <use xlink:href="#DejaVuSans-4e"/>
      <use x="74.804688" xlink:href="#DejaVuSans-6f"/>
      <use x="135.986328" xlink:href="#DejaVuSans-69"/>
      <use x="163.769531" xlink:href="#DejaVuSans-73"/>
      <use x="215.869141" xlink:href="#DejaVuSans-65"/>
      <use x="277.392578" xlink:href="#DejaVuSans-20"/>
      <use x="309.179688" xlink:href="#DejaVuSans-64"/>
      <use x="372.65625" xlink:href="#DejaVuSans-69"/>
      <use x="400.439453" xlink:href="#DejaVuSans-73"/>
      <use x="452.539062" xlink:href="#DejaVuSans-63"/>
      <use x="507.519531" xlink:href="#DejaVuSans-72"/>
      <use x="546.382812" xlink:href="#DejaVuSans-65"/>
      <use x="607.90625" xlink:href="#DejaVuSans-74"/>
      <use x="647.115234" xlink:href="#DejaVuSans-65"/>
      <use x="708.638672" xlink:href="#DejaVuSans-20"/>
      <use x="740.425781" xlink:href="#DejaVuSans-75"/>
      <use x="803.804688" xlink:href="#DejaVuSans-6e"/>
      <use x="867.183594" xlink:href="#DejaVuSans-69"/>
      <use x="894.966797" xlink:href="#DejaVuSans-66"/>
      <use x="930.171875" xlink:href="#DejaVuSans-20"/>
      <use x="961.958984" xlink:href="#DejaVuSans-6d"/>
      <use x="1059.371094" xlink:href="#DejaVuSans-61"/>
      <use x="1120.650391" xlink:href="#DejaVuSans-78"/>
     </g>
    </g>
   </g>
   <g id="matplotlib.axis_8">
    <g id="ytick_26">
     <g id="line2d_92">
      <path clip-path="url(#p31447dfa00)" d="M 475.83885 433.588889 
L 839.187688 433.588889 
" style="fill:none;stroke:#ffffff;stroke-linecap:square;"/>
     </g>
     <g id="line2d_93">
      <path d="M 475.83885 433.588889 
" style="fill:none;stroke:#333333;stroke-linecap:square;stroke-width:1.5;"/>
      <g>
       <use style="fill:#333333;stroke:#000000;" x="475.83885" xlink:href="#me8562c546e" y="433.588889"/>
      </g>
     </g>
     <g id="text_33">
      <!-- 0.6400 -->
      <g style="fill:#4d4d4d;" transform="translate(440.0971 436.017139)scale(0.088 -0.088)">
       <use xlink:href="#DejaVuSans-30"/>
       <use x="63.623047" xlink:href="#DejaVuSans-2e"/>
       <use x="95.410156" xlink:href="#DejaVuSans-36"/>
       <use x="159.033203" xlink:href="#DejaVuSans-34"/>
       <use x="222.65625" xlink:href="#DejaVuSans-30"/>
       <use x="286.279297" xlink:href="#DejaVuSans-30"/>
      </g>
     </g>
    </g>
    <g id="ytick_27">
     <g id="line2d_94">
      <path clip-path="url(#p31447dfa00)" d="M 475.83885 386.185825 
L 839.187688 386.185825 
" style="fill:none;stroke:#ffffff;stroke-linecap:square;"/>
     </g>
     <g id="line2d_95">
      <path d="M 475.83885 386.185825 
" style="fill:none;stroke:#333333;stroke-linecap:square;stroke-width:1.5;"/>
      <g>
       <use style="fill:#333333;stroke:#000000;" x="475.83885" xlink:href="#me8562c546e" y="386.185825"/>
      </g>
     </g>
     <g id="text_34">
      <!-- 0.6425 -->
      <g style="fill:#4d4d4d;" transform="translate(440.0971 388.614075)scale(0.088 -0.088)">
       <use xlink:href="#DejaVuSans-30"/>
       <use x="63.623047" xlink:href="#DejaVuSans-2e"/>
       <use x="95.410156" xlink:href="#DejaVuSans-36"/>
       <use x="159.033203" xlink:href="#DejaVuSans-34"/>
       <use x="222.65625" xlink:href="#DejaVuSans-32"/>
       <use x="286.279297" xlink:href="#DejaVuSans-35"/>
      </g>
     </g>
    </g>
    <g id="ytick_28">
     <g id="line2d_96">
      <path clip-path="url(#p31447dfa00)" d="M 475.83885 338.78276 
L 839.187688 338.78276 
" style="fill:none;stroke:#ffffff;stroke-linecap:square;"/>
     </g>
     <g id="line2d_97">
      <path d="M 475.83885 338.78276 
" style="fill:none;stroke:#333333;stroke-linecap:square;stroke-width:1.5;"/>
      <g>
       <use style="fill:#333333;stroke:#000000;" x="475.83885" xlink:href="#me8562c546e" y="338.78276"/>
      </g>
     </g>
     <g id="text_35">
      <!-- 0.6450 -->
      <g style="fill:#4d4d4d;" transform="translate(440.0971 341.21101)scale(0.088 -0.088)">
       <use xlink:href="#DejaVuSans-30"/>
       <use x="63.623047" xlink:href="#DejaVuSans-2e"/>
       <use x="95.410156" xlink:href="#DejaVuSans-36"/>
       <use x="159.033203" xlink:href="#DejaVuSans-34"/>
       <use x="222.65625" xlink:href="#DejaVuSans-35"/>
       <use x="286.279297" xlink:href="#DejaVuSans-30"/>
      </g>
     </g>
    </g>
    <g id="ytick_29">
     <g id="line2d_98">
      <path clip-path="url(#p31447dfa00)" d="M 475.83885 291.379696 
L 839.187688 291.379696 
" style="fill:none;stroke:#ffffff;stroke-linecap:square;"/>
     </g>
     <g id="line2d_99">
      <path d="M 475.83885 291.379696 
" style="fill:none;stroke:#333333;stroke-linecap:square;stroke-width:1.5;"/>
      <g>
       <use style="fill:#333333;stroke:#000000;" x="475.83885" xlink:href="#me8562c546e" y="291.379696"/>
      </g>
     </g>
     <g id="text_36">
      <!-- 0.6475 -->
      <g style="fill:#4d4d4d;" transform="translate(440.0971 293.807946)scale(0.088 -0.088)">
       <use xlink:href="#DejaVuSans-30"/>
       <use x="63.623047" xlink:href="#DejaVuSans-2e"/>
       <use x="95.410156" xlink:href="#DejaVuSans-36"/>
       <use x="159.033203" xlink:href="#DejaVuSans-34"/>
       <use x="222.65625" xlink:href="#DejaVuSans-37"/>
       <use x="286.279297" xlink:href="#DejaVuSans-35"/>
      </g>
     </g>
    </g>
    <g id="ytick_30">
     <g id="line2d_100">
      <path clip-path="url(#p31447dfa00)" d="M 475.83885 457.290421 
L 839.187688 457.290421 
" style="fill:none;stroke:#ffffff;stroke-linecap:square;stroke-width:0.5;"/>
     </g>
    </g>
    <g id="ytick_31">
     <g id="line2d_101">
      <path clip-path="url(#p31447dfa00)" d="M 475.83885 409.887357 
L 839.187688 409.887357 
" style="fill:none;stroke:#ffffff;stroke-linecap:square;stroke-width:0.5;"/>
     </g>
    </g>
    <g id="ytick_32">
     <g id="line2d_102">
      <path clip-path="url(#p31447dfa00)" d="M 475.83885 362.484292 
L 839.187688 362.484292 
" style="fill:none;stroke:#ffffff;stroke-linecap:square;stroke-width:0.5;"/>
     </g>
    </g>
    <g id="ytick_33">
     <g id="line2d_103">
      <path clip-path="url(#p31447dfa00)" d="M 475.83885 315.081228 
L 839.187688 315.081228 
" style="fill:none;stroke:#ffffff;stroke-linecap:square;stroke-width:0.5;"/>
     </g>
    </g>
    <g id="ytick_34">
     <g id="line2d_104">
      <path clip-path="url(#p31447dfa00)" d="M 475.83885 267.678164 
L 839.187688 267.678164 
" style="fill:none;stroke:#ffffff;stroke-linecap:square;stroke-width:0.5;"/>
     </g>
    </g>
   </g>
   <g id="PathCollection_4">
    <path clip-path="url(#p31447dfa00)" d="M 657.513269 457.896082 
C 657.983329 457.896082 658.4342 457.709325 658.766583 457.376942 
C 659.098966 457.044559 659.285723 456.593688 659.285723 456.123628 
C 659.285723 455.653568 659.098966 455.202696 658.766583 454.870314 
C 658.4342 454.537931 657.983329 454.351174 657.513269 454.351174 
C 657.043209 454.351174 656.592338 454.537931 656.259955 454.870314 
C 655.927572 455.202696 655.740815 455.653568 655.740815 456.123628 
C 655.740815 456.593688 655.927572 457.044559 656.259955 457.376942 
C 656.592338 457.709325 657.043209 457.896082 657.513269 457.896082 
z
" style="fill:#db5f57;stroke:#db5f57;stroke-width:0.886227;"/>
    <path clip-path="url(#p31447dfa00)" d="M 657.513269 265.086991 
C 657.983329 265.086991 658.4342 264.900234 658.766583 264.567851 
C 659.098966 264.235468 659.285723 263.784597 659.285723 263.314537 
C 659.285723 262.844477 659.098966 262.393606 658.766583 262.061223 
C 658.4342 261.72884 657.983329 261.542083 657.513269 261.542083 
C 657.043209 261.542083 656.592338 261.72884 656.259955 262.061223 
C 655.927572 262.393606 655.740815 262.844477 655.740815 263.314537 
C 655.740815 263.784597 655.927572 264.235468 656.259955 264.567851 
C 656.592338 264.900234 657.043209 265.086991 657.513269 265.086991 
z
" style="fill:#91db57;stroke:#91db57;stroke-width:0.886227;"/>
    <path clip-path="url(#p31447dfa00)" d="M 657.513269 310.400592 
C 657.983329 310.400592 658.4342 310.213835 658.766583 309.881452 
C 659.098966 309.549069 659.285723 309.098198 659.285723 308.628138 
C 659.285723 308.158077 659.098966 307.707206 658.766583 307.374824 
C 658.4342 307.042441 657.983329 306.855684 657.513269 306.855684 
C 657.043209 306.855684 656.592338 307.042441 656.259955 307.374824 
C 655.927572 307.707206 655.740815 308.158077 655.740815 308.628138 
C 655.740815 309.098198 655.927572 309.549069 656.259955 309.881452 
C 656.592338 310.213835 657.043209 310.400592 657.513269 310.400592 
z
" style="fill:#57d3db;stroke:#57d3db;stroke-width:0.886227;"/>
    <path clip-path="url(#p31447dfa00)" d="M 657.513269 362.064709 
C 657.983329 362.064709 658.4342 361.877952 658.766583 361.545569 
C 659.098966 361.213187 659.285723 360.762316 659.285723 360.292255 
C 659.285723 359.822195 659.098966 359.371324 658.766583 359.038941 
C 658.4342 358.706558 657.983329 358.519801 657.513269 358.519801 
C 657.043209 358.519801 656.592338 358.706558 656.259955 359.038941 
C 655.927572 359.371324 655.740815 359.822195 655.740815 360.292255 
C 655.740815 360.762316 655.927572 361.213187 656.259955 361.545569 
C 656.592338 361.877952 657.043209 362.064709 657.513269 362.064709 
z
" style="fill:#a157db;stroke:#a157db;stroke-width:0.886227;"/>
   </g>
   <g id="patch_14">
    <path d="M 475.83885 253.674082 
L 839.187688 253.674082 
L 839.187688 238.63 
L 475.83885 238.63 
z
" style="fill:#d9d9d9;"/>
   </g>
   <g id="text_37">
    <!-- F1 score: &gt;50K -->
    <g style="fill:#1a1a1a;" transform="translate(623.911706 248.580291)scale(0.088 -0.088)">
     <defs>
      <path d="M 678 3150 
L 678 3719 
L 4684 2266 
L 4684 1747 
L 678 294 
L 678 863 
L 3897 2003 
L 678 3150 
z
" id="DejaVuSans-3e" transform="scale(0.015625)"/>
     </defs>
     <use xlink:href="#DejaVuSans-46"/>
     <use x="57.519531" xlink:href="#DejaVuSans-31"/>
     <use x="121.142578" xlink:href="#DejaVuSans-20"/>
     <use x="152.929688" xlink:href="#DejaVuSans-73"/>
     <use x="205.029297" xlink:href="#DejaVuSans-63"/>
     <use x="260.009766" xlink:href="#DejaVuSans-6f"/>
     <use x="321.191406" xlink:href="#DejaVuSans-72"/>
     <use x="360.054688" xlink:href="#DejaVuSans-65"/>
     <use x="421.578125" xlink:href="#DejaVuSans-3a"/>
     <use x="455.269531" xlink:href="#DejaVuSans-20"/>
     <use x="487.056641" xlink:href="#DejaVuSans-3e"/>
     <use x="570.845703" xlink:href="#DejaVuSans-35"/>
     <use x="634.46875" xlink:href="#DejaVuSans-30"/>
     <use x="698.091797" xlink:href="#DejaVuSans-4b"/>
    </g>
   </g>
  </g>
 </g>
 <defs>
  <clipPath id="pcf9426fa24">
   <rect height="212.09" width="363.348837" x="57.987688" y="22.244082"/>
  </clipPath>
  <clipPath id="p09d12cba2a">
   <path d="M 858.587688 229.807051 
L 858.587688 213.967051 
L 874.427688 213.967051 
L 874.427688 229.807051 
"/>
  </clipPath>
  <clipPath id="pe83c1c0ed9">
   <path d="M 858.587688 247.647051 
L 858.587688 231.807051 
L 874.427688 231.807051 
L 874.427688 247.647051 
"/>
  </clipPath>
  <clipPath id="p4e80d7ec8c">
   <path d="M 858.587688 265.487051 
L 858.587688 249.647051 
L 874.427688 249.647051 
L 874.427688 265.487051 
"/>
  </clipPath>
  <clipPath id="p9f73516fb1">
   <path d="M 858.587688 283.327051 
L 858.587688 267.487051 
L 874.427688 267.487051 
L 874.427688 283.327051 
"/>
  </clipPath>
  <clipPath id="pb1a49e7205">
   <rect height="212.09" width="363.348837" x="475.83885" y="22.244082"/>
  </clipPath>
  <clipPath id="p194c83f8fe">
   <rect height="212.09" width="363.348837" x="57.987688" y="253.674082"/>
  </clipPath>
  <clipPath id="p31447dfa00">
   <rect height="212.09" width="363.348837" x="475.83885" y="253.674082"/>
  </clipPath>
 </defs>
</svg>
