<?xml version="1.0" encoding="utf-8" standalone="no"?>
<!DOCTYPE svg PUBLIC "-//W3C//DTD SVG 1.1//EN"
  "http://www.w3.org/Graphics/SVG/1.1/DTD/svg11.dtd">
<svg height="501.47677pt" version="1.1" viewBox="0 0 969.341063 501.47677" width="969.341063pt" xmlns="http://www.w3.org/2000/svg" xmlns:xlink="http://www.w3.org/1999/xlink">
 <metadata>
  <rdf:RDF xmlns:cc="http://creativecommons.org/ns#" xmlns:dc="http://purl.org/dc/elements/1.1/" xmlns:rdf="http://www.w3.org/1999/02/22-rdf-syntax-ns#">
   <cc:Work>
    <dc:type rdf:resource="http://purl.org/dc/dcmitype/StillImage"/>
    <dc:date>2022-05-08T01:08:15.179106</dc:date>
    <dc:format>image/svg+xml</dc:format>
    <dc:creator>
     <cc:Agent>
      <dc:title>Matplotlib v3.4.3, https://matplotlib.org/</dc:title>
     </cc:Agent>
    </dc:creator>
   </cc:Work>
  </rdf:RDF>
 </metadata>
 <defs>
  <style type="text/css">*{stroke-linecap:butt;stroke-linejoin:round;}</style>
 </defs>
 <g id="figure_1">
  <g id="patch_1">
   <path d="M 0 501.47677 
L 969.341063 501.47677 
L 969.341063 0 
L 0 0 
z
" style="fill:#ffffff;stroke:#ffffff;stroke-linejoin:miter;"/>
  </g>
  <g id="axes_1">
   <g id="patch_2">
    <path d="M 57.987688 234.334082 
L 421.336525 234.334082 
L 421.336525 22.244082 
L 57.987688 22.244082 
z
" style="fill:#ebebeb;"/>
   </g>
   <g id="matplotlib.axis_1">
    <g id="xtick_1">
     <g id="line2d_1">
      <path clip-path="url(#pd880e70279)" d="M 74.503544 234.334082 
L 74.503544 22.244082 
" style="fill:none;stroke:#ffffff;"/>
     </g>
    </g>
    <g id="xtick_2">
     <g id="line2d_2">
      <path clip-path="url(#pd880e70279)" d="M 157.082825 234.334082 
L 157.082825 22.244082 
" style="fill:none;stroke:#ffffff;"/>
     </g>
    </g>
    <g id="xtick_3">
     <g id="line2d_3">
      <path clip-path="url(#pd880e70279)" d="M 239.662106 234.334082 
L 239.662106 22.244082 
" style="fill:none;stroke:#ffffff;"/>
     </g>
    </g>
    <g id="xtick_4">
     <g id="line2d_4">
      <path clip-path="url(#pd880e70279)" d="M 322.241387 234.334082 
L 322.241387 22.244082 
" style="fill:none;stroke:#ffffff;"/>
     </g>
    </g>
    <g id="xtick_5">
     <g id="line2d_5">
      <path clip-path="url(#pd880e70279)" d="M 404.820668 234.334082 
L 404.820668 22.244082 
" style="fill:none;stroke:#ffffff;"/>
     </g>
    </g>
    <g id="xtick_6">
     <g id="line2d_6">
      <path clip-path="url(#pd880e70279)" d="M 115.793184 234.334082 
L 115.793184 22.244082 
" style="fill:none;stroke:#ffffff;stroke-width:0.5;"/>
     </g>
    </g>
    <g id="xtick_7">
     <g id="line2d_7">
      <path clip-path="url(#pd880e70279)" d="M 198.372466 234.334082 
L 198.372466 22.244082 
" style="fill:none;stroke:#ffffff;stroke-width:0.5;"/>
     </g>
    </g>
    <g id="xtick_8">
     <g id="line2d_8">
      <path clip-path="url(#pd880e70279)" d="M 280.951747 234.334082 
L 280.951747 22.244082 
" style="fill:none;stroke:#ffffff;stroke-width:0.5;"/>
     </g>
    </g>
    <g id="xtick_9">
     <g id="line2d_9">
      <path clip-path="url(#pd880e70279)" d="M 363.531028 234.334082 
L 363.531028 22.244082 
" style="fill:none;stroke:#ffffff;stroke-width:0.5;"/>
     </g>
    </g>
   </g>
   <g id="matplotlib.axis_2">
    <g id="ytick_1">
     <g id="line2d_10">
      <path clip-path="url(#pd880e70279)" d="M 57.987688 229.417451 
L 421.336525 229.417451 
" style="fill:none;stroke:#ffffff;"/>
     </g>
     <g id="line2d_11">
      <path d="M 57.987688 229.417451 
" style="fill:none;stroke:#333333;stroke-width:1.5;"/>
      <defs>
       <path d="M 0 0 
L -2.75 0 
" id="m358d1597b9" style="stroke:#000000;"/>
      </defs>
      <g>
       <use style="fill:#333333;stroke:#000000;" x="57.987688" xlink:href="#m358d1597b9" y="229.417451"/>
      </g>
     </g>
     <g id="text_1">
      <!-- 0.8367 -->
      <g style="fill:#4d4d4d;" transform="translate(22.245938 231.845701)scale(0.088 -0.088)">
       <defs>
        <path d="M 2034 4250 
Q 1547 4250 1301 3770 
Q 1056 3291 1056 2328 
Q 1056 1369 1301 889 
Q 1547 409 2034 409 
Q 2525 409 2770 889 
Q 3016 1369 3016 2328 
Q 3016 3291 2770 3770 
Q 2525 4250 2034 4250 
z
M 2034 4750 
Q 2819 4750 3233 4129 
Q 3647 3509 3647 2328 
Q 3647 1150 3233 529 
Q 2819 -91 2034 -91 
Q 1250 -91 836 529 
Q 422 1150 422 2328 
Q 422 3509 836 4129 
Q 1250 4750 2034 4750 
z
" id="DejaVuSans-30" transform="scale(0.015625)"/>
        <path d="M 684 794 
L 1344 794 
L 1344 0 
L 684 0 
L 684 794 
z
" id="DejaVuSans-2e" transform="scale(0.015625)"/>
        <path d="M 2034 2216 
Q 1584 2216 1326 1975 
Q 1069 1734 1069 1313 
Q 1069 891 1326 650 
Q 1584 409 2034 409 
Q 2484 409 2743 651 
Q 3003 894 3003 1313 
Q 3003 1734 2745 1975 
Q 2488 2216 2034 2216 
z
M 1403 2484 
Q 997 2584 770 2862 
Q 544 3141 544 3541 
Q 544 4100 942 4425 
Q 1341 4750 2034 4750 
Q 2731 4750 3128 4425 
Q 3525 4100 3525 3541 
Q 3525 3141 3298 2862 
Q 3072 2584 2669 2484 
Q 3125 2378 3379 2068 
Q 3634 1759 3634 1313 
Q 3634 634 3220 271 
Q 2806 -91 2034 -91 
Q 1263 -91 848 271 
Q 434 634 434 1313 
Q 434 1759 690 2068 
Q 947 2378 1403 2484 
z
M 1172 3481 
Q 1172 3119 1398 2916 
Q 1625 2713 2034 2713 
Q 2441 2713 2670 2916 
Q 2900 3119 2900 3481 
Q 2900 3844 2670 4047 
Q 2441 4250 2034 4250 
Q 1625 4250 1398 4047 
Q 1172 3844 1172 3481 
z
" id="DejaVuSans-38" transform="scale(0.015625)"/>
        <path d="M 2597 2516 
Q 3050 2419 3304 2112 
Q 3559 1806 3559 1356 
Q 3559 666 3084 287 
Q 2609 -91 1734 -91 
Q 1441 -91 1130 -33 
Q 819 25 488 141 
L 488 750 
Q 750 597 1062 519 
Q 1375 441 1716 441 
Q 2309 441 2620 675 
Q 2931 909 2931 1356 
Q 2931 1769 2642 2001 
Q 2353 2234 1838 2234 
L 1294 2234 
L 1294 2753 
L 1863 2753 
Q 2328 2753 2575 2939 
Q 2822 3125 2822 3475 
Q 2822 3834 2567 4026 
Q 2313 4219 1838 4219 
Q 1578 4219 1281 4162 
Q 984 4106 628 3988 
L 628 4550 
Q 988 4650 1302 4700 
Q 1616 4750 1894 4750 
Q 2613 4750 3031 4423 
Q 3450 4097 3450 3541 
Q 3450 3153 3228 2886 
Q 3006 2619 2597 2516 
z
" id="DejaVuSans-33" transform="scale(0.015625)"/>
        <path d="M 2113 2584 
Q 1688 2584 1439 2293 
Q 1191 2003 1191 1497 
Q 1191 994 1439 701 
Q 1688 409 2113 409 
Q 2538 409 2786 701 
Q 3034 994 3034 1497 
Q 3034 2003 2786 2293 
Q 2538 2584 2113 2584 
z
M 3366 4563 
L 3366 3988 
Q 3128 4100 2886 4159 
Q 2644 4219 2406 4219 
Q 1781 4219 1451 3797 
Q 1122 3375 1075 2522 
Q 1259 2794 1537 2939 
Q 1816 3084 2150 3084 
Q 2853 3084 3261 2657 
Q 3669 2231 3669 1497 
Q 3669 778 3244 343 
Q 2819 -91 2113 -91 
Q 1303 -91 875 529 
Q 447 1150 447 2328 
Q 447 3434 972 4092 
Q 1497 4750 2381 4750 
Q 2619 4750 2861 4703 
Q 3103 4656 3366 4563 
z
" id="DejaVuSans-36" transform="scale(0.015625)"/>
        <path d="M 525 4666 
L 3525 4666 
L 3525 4397 
L 1831 0 
L 1172 0 
L 2766 4134 
L 525 4134 
L 525 4666 
z
" id="DejaVuSans-37" transform="scale(0.015625)"/>
       </defs>
       <use xlink:href="#DejaVuSans-30"/>
       <use x="63.623047" xlink:href="#DejaVuSans-2e"/>
       <use x="95.410156" xlink:href="#DejaVuSans-38"/>
       <use x="159.033203" xlink:href="#DejaVuSans-33"/>
       <use x="222.65625" xlink:href="#DejaVuSans-36"/>
       <use x="286.279297" xlink:href="#DejaVuSans-37"/>
      </g>
     </g>
    </g>
    <g id="ytick_2">
     <g id="line2d_12">
      <path clip-path="url(#pd880e70279)" d="M 57.987688 156.824828 
L 421.336525 156.824828 
" style="fill:none;stroke:#ffffff;"/>
     </g>
     <g id="line2d_13">
      <path d="M 57.987688 156.824828 
" style="fill:none;stroke:#333333;stroke-width:1.5;"/>
      <g>
       <use style="fill:#333333;stroke:#000000;" x="57.987688" xlink:href="#m358d1597b9" y="156.824828"/>
      </g>
     </g>
     <g id="text_2">
      <!-- 0.8368 -->
      <g style="fill:#4d4d4d;" transform="translate(22.245938 159.253078)scale(0.088 -0.088)">
       <use xlink:href="#DejaVuSans-30"/>
       <use x="63.623047" xlink:href="#DejaVuSans-2e"/>
       <use x="95.410156" xlink:href="#DejaVuSans-38"/>
       <use x="159.033203" xlink:href="#DejaVuSans-33"/>
       <use x="222.65625" xlink:href="#DejaVuSans-36"/>
       <use x="286.279297" xlink:href="#DejaVuSans-38"/>
      </g>
     </g>
    </g>
    <g id="ytick_3">
     <g id="line2d_14">
      <path clip-path="url(#pd880e70279)" d="M 57.987688 84.232205 
L 421.336525 84.232205 
" style="fill:none;stroke:#ffffff;"/>
     </g>
     <g id="line2d_15">
      <path d="M 57.987688 84.232205 
" style="fill:none;stroke:#333333;stroke-width:1.5;"/>
      <g>
       <use style="fill:#333333;stroke:#000000;" x="57.987688" xlink:href="#m358d1597b9" y="84.232205"/>
      </g>
     </g>
     <g id="text_3">
      <!-- 0.8369 -->
      <g style="fill:#4d4d4d;" transform="translate(22.245938 86.660455)scale(0.088 -0.088)">
       <defs>
        <path d="M 703 97 
L 703 672 
Q 941 559 1184 500 
Q 1428 441 1663 441 
Q 2288 441 2617 861 
Q 2947 1281 2994 2138 
Q 2813 1869 2534 1725 
Q 2256 1581 1919 1581 
Q 1219 1581 811 2004 
Q 403 2428 403 3163 
Q 403 3881 828 4315 
Q 1253 4750 1959 4750 
Q 2769 4750 3195 4129 
Q 3622 3509 3622 2328 
Q 3622 1225 3098 567 
Q 2575 -91 1691 -91 
Q 1453 -91 1209 -44 
Q 966 3 703 97 
z
M 1959 2075 
Q 2384 2075 2632 2365 
Q 2881 2656 2881 3163 
Q 2881 3666 2632 3958 
Q 2384 4250 1959 4250 
Q 1534 4250 1286 3958 
Q 1038 3666 1038 3163 
Q 1038 2656 1286 2365 
Q 1534 2075 1959 2075 
z
" id="DejaVuSans-39" transform="scale(0.015625)"/>
       </defs>
       <use xlink:href="#DejaVuSans-30"/>
       <use x="63.623047" xlink:href="#DejaVuSans-2e"/>
       <use x="95.410156" xlink:href="#DejaVuSans-38"/>
       <use x="159.033203" xlink:href="#DejaVuSans-33"/>
       <use x="222.65625" xlink:href="#DejaVuSans-36"/>
       <use x="286.279297" xlink:href="#DejaVuSans-39"/>
      </g>
     </g>
    </g>
    <g id="ytick_4">
     <g id="line2d_16">
      <path clip-path="url(#pd880e70279)" d="M 57.987688 193.121139 
L 421.336525 193.121139 
" style="fill:none;stroke:#ffffff;stroke-width:0.5;"/>
     </g>
    </g>
    <g id="ytick_5">
     <g id="line2d_17">
      <path clip-path="url(#pd880e70279)" d="M 57.987688 120.528516 
L 421.336525 120.528516 
" style="fill:none;stroke:#ffffff;stroke-width:0.5;"/>
     </g>
    </g>
    <g id="ytick_6">
     <g id="line2d_18">
      <path clip-path="url(#pd880e70279)" d="M 57.987688 47.935894 
L 421.336525 47.935894 
" style="fill:none;stroke:#ffffff;stroke-width:0.5;"/>
     </g>
    </g>
    <g id="text_4">
     <!-- Value -->
     <g transform="translate(15.558281 256.228457)rotate(-90)scale(0.11 -0.11)">
      <defs>
       <path d="M 1831 0 
L 50 4666 
L 709 4666 
L 2188 738 
L 3669 4666 
L 4325 4666 
L 2547 0 
L 1831 0 
z
" id="DejaVuSans-56" transform="scale(0.015625)"/>
       <path d="M 2194 1759 
Q 1497 1759 1228 1600 
Q 959 1441 959 1056 
Q 959 750 1161 570 
Q 1363 391 1709 391 
Q 2188 391 2477 730 
Q 2766 1069 2766 1631 
L 2766 1759 
L 2194 1759 
z
M 3341 1997 
L 3341 0 
L 2766 0 
L 2766 531 
Q 2569 213 2275 61 
Q 1981 -91 1556 -91 
Q 1019 -91 701 211 
Q 384 513 384 1019 
Q 384 1609 779 1909 
Q 1175 2209 1959 2209 
L 2766 2209 
L 2766 2266 
Q 2766 2663 2505 2880 
Q 2244 3097 1772 3097 
Q 1472 3097 1187 3025 
Q 903 2953 641 2809 
L 641 3341 
Q 956 3463 1253 3523 
Q 1550 3584 1831 3584 
Q 2591 3584 2966 3190 
Q 3341 2797 3341 1997 
z
" id="DejaVuSans-61" transform="scale(0.015625)"/>
       <path d="M 603 4863 
L 1178 4863 
L 1178 0 
L 603 0 
L 603 4863 
z
" id="DejaVuSans-6c" transform="scale(0.015625)"/>
       <path d="M 544 1381 
L 544 3500 
L 1119 3500 
L 1119 1403 
Q 1119 906 1312 657 
Q 1506 409 1894 409 
Q 2359 409 2629 706 
Q 2900 1003 2900 1516 
L 2900 3500 
L 3475 3500 
L 3475 0 
L 2900 0 
L 2900 538 
Q 2691 219 2414 64 
Q 2138 -91 1772 -91 
Q 1169 -91 856 284 
Q 544 659 544 1381 
z
M 1991 3584 
L 1991 3584 
z
" id="DejaVuSans-75" transform="scale(0.015625)"/>
       <path d="M 3597 1894 
L 3597 1613 
L 953 1613 
Q 991 1019 1311 708 
Q 1631 397 2203 397 
Q 2534 397 2845 478 
Q 3156 559 3463 722 
L 3463 178 
Q 3153 47 2828 -22 
Q 2503 -91 2169 -91 
Q 1331 -91 842 396 
Q 353 884 353 1716 
Q 353 2575 817 3079 
Q 1281 3584 2069 3584 
Q 2775 3584 3186 3129 
Q 3597 2675 3597 1894 
z
M 3022 2063 
Q 3016 2534 2758 2815 
Q 2500 3097 2075 3097 
Q 1594 3097 1305 2825 
Q 1016 2553 972 2059 
L 3022 2063 
z
" id="DejaVuSans-65" transform="scale(0.015625)"/>
      </defs>
      <use xlink:href="#DejaVuSans-56"/>
      <use x="60.658203" xlink:href="#DejaVuSans-61"/>
      <use x="121.9375" xlink:href="#DejaVuSans-6c"/>
      <use x="149.720703" xlink:href="#DejaVuSans-75"/>
      <use x="213.099609" xlink:href="#DejaVuSans-65"/>
     </g>
    </g>
   </g>
   <g id="PathCollection_1">
    <path clip-path="url(#pd880e70279)" d="M 74.503544 226.466082 
C 74.973604 226.466082 75.424475 226.279325 75.756858 225.946942 
C 76.089241 225.614559 76.275998 225.163688 76.275998 224.693628 
C 76.275998 224.223568 76.089241 223.772696 75.756858 223.440314 
C 75.424475 223.107931 74.973604 222.921174 74.503544 222.921174 
C 74.033483 222.921174 73.582612 223.107931 73.25023 223.440314 
C 72.917847 223.772696 72.73109 224.223568 72.73109 224.693628 
C 72.73109 225.163688 72.917847 225.614559 73.25023 225.946942 
C 73.582612 226.279325 74.033483 226.466082 74.503544 226.466082 
z
" style="fill:#db5f57;stroke:#db5f57;stroke-width:0.886227;"/>
    <path clip-path="url(#pd880e70279)" d="M 404.820668 33.656991 
C 405.290729 33.656991 405.7416 33.470234 406.073983 33.137851 
C 406.406365 32.805468 406.593122 32.354597 406.593122 31.884537 
C 406.593122 31.414477 406.406365 30.963606 406.073983 30.631223 
C 405.7416 30.29884 405.290729 30.112083 404.820668 30.112083 
C 404.350608 30.112083 403.899737 30.29884 403.567354 30.631223 
C 403.234972 30.963606 403.048215 31.414477 403.048215 31.884537 
C 403.048215 32.354597 403.234972 32.805468 403.567354 33.137851 
C 403.899737 33.470234 404.350608 33.656991 404.820668 33.656991 
z
" style="fill:#57d3db;stroke:#57d3db;stroke-width:0.886227;"/>
   </g>
   <g id="patch_3">
    <path d="M 57.987688 22.244082 
L 421.336525 22.244082 
L 421.336525 7.2 
L 57.987688 7.2 
z
" style="fill:#d9d9d9;"/>
   </g>
   <g id="text_5">
    <!-- Accuracy -->
    <g style="fill:#1a1a1a;" transform="translate(219.573356 17.150291)scale(0.088 -0.088)">
     <defs>
      <path d="M 2188 4044 
L 1331 1722 
L 3047 1722 
L 2188 4044 
z
M 1831 4666 
L 2547 4666 
L 4325 0 
L 3669 0 
L 3244 1197 
L 1141 1197 
L 716 0 
L 50 0 
L 1831 4666 
z
" id="DejaVuSans-41" transform="scale(0.015625)"/>
      <path d="M 3122 3366 
L 3122 2828 
Q 2878 2963 2633 3030 
Q 2388 3097 2138 3097 
Q 1578 3097 1268 2742 
Q 959 2388 959 1747 
Q 959 1106 1268 751 
Q 1578 397 2138 397 
Q 2388 397 2633 464 
Q 2878 531 3122 666 
L 3122 134 
Q 2881 22 2623 -34 
Q 2366 -91 2075 -91 
Q 1284 -91 818 406 
Q 353 903 353 1747 
Q 353 2603 823 3093 
Q 1294 3584 2113 3584 
Q 2378 3584 2631 3529 
Q 2884 3475 3122 3366 
z
" id="DejaVuSans-63" transform="scale(0.015625)"/>
      <path d="M 2631 2963 
Q 2534 3019 2420 3045 
Q 2306 3072 2169 3072 
Q 1681 3072 1420 2755 
Q 1159 2438 1159 1844 
L 1159 0 
L 581 0 
L 581 3500 
L 1159 3500 
L 1159 2956 
Q 1341 3275 1631 3429 
Q 1922 3584 2338 3584 
Q 2397 3584 2469 3576 
Q 2541 3569 2628 3553 
L 2631 2963 
z
" id="DejaVuSans-72" transform="scale(0.015625)"/>
      <path d="M 2059 -325 
Q 1816 -950 1584 -1140 
Q 1353 -1331 966 -1331 
L 506 -1331 
L 506 -850 
L 844 -850 
Q 1081 -850 1212 -737 
Q 1344 -625 1503 -206 
L 1606 56 
L 191 3500 
L 800 3500 
L 1894 763 
L 2988 3500 
L 3597 3500 
L 2059 -325 
z
" id="DejaVuSans-79" transform="scale(0.015625)"/>
     </defs>
     <use xlink:href="#DejaVuSans-41"/>
     <use x="66.658203" xlink:href="#DejaVuSans-63"/>
     <use x="121.638672" xlink:href="#DejaVuSans-63"/>
     <use x="176.619141" xlink:href="#DejaVuSans-75"/>
     <use x="239.998047" xlink:href="#DejaVuSans-72"/>
     <use x="281.111328" xlink:href="#DejaVuSans-61"/>
     <use x="342.390625" xlink:href="#DejaVuSans-63"/>
     <use x="397.371094" xlink:href="#DejaVuSans-79"/>
    </g>
   </g>
   <g id="patch_4">
    <path d="M 846.387687 277.687051 
L 962.141062 277.687051 
L 962.141062 204.561114 
L 846.387687 204.561114 
z
" style="fill:#ffffff;"/>
   </g>
   <g id="text_6">
    <!-- Connection -->
    <g transform="translate(858.587688 228.154707)scale(0.11 -0.11)">
     <defs>
      <path d="M 4122 4306 
L 4122 3641 
Q 3803 3938 3442 4084 
Q 3081 4231 2675 4231 
Q 1875 4231 1450 3742 
Q 1025 3253 1025 2328 
Q 1025 1406 1450 917 
Q 1875 428 2675 428 
Q 3081 428 3442 575 
Q 3803 722 4122 1019 
L 4122 359 
Q 3791 134 3420 21 
Q 3050 -91 2638 -91 
Q 1578 -91 968 557 
Q 359 1206 359 2328 
Q 359 3453 968 4101 
Q 1578 4750 2638 4750 
Q 3056 4750 3426 4639 
Q 3797 4528 4122 4306 
z
" id="DejaVuSans-43" transform="scale(0.015625)"/>
      <path d="M 1959 3097 
Q 1497 3097 1228 2736 
Q 959 2375 959 1747 
Q 959 1119 1226 758 
Q 1494 397 1959 397 
Q 2419 397 2687 759 
Q 2956 1122 2956 1747 
Q 2956 2369 2687 2733 
Q 2419 3097 1959 3097 
z
M 1959 3584 
Q 2709 3584 3137 3096 
Q 3566 2609 3566 1747 
Q 3566 888 3137 398 
Q 2709 -91 1959 -91 
Q 1206 -91 779 398 
Q 353 888 353 1747 
Q 353 2609 779 3096 
Q 1206 3584 1959 3584 
z
" id="DejaVuSans-6f" transform="scale(0.015625)"/>
      <path d="M 3513 2113 
L 3513 0 
L 2938 0 
L 2938 2094 
Q 2938 2591 2744 2837 
Q 2550 3084 2163 3084 
Q 1697 3084 1428 2787 
Q 1159 2491 1159 1978 
L 1159 0 
L 581 0 
L 581 3500 
L 1159 3500 
L 1159 2956 
Q 1366 3272 1645 3428 
Q 1925 3584 2291 3584 
Q 2894 3584 3203 3211 
Q 3513 2838 3513 2113 
z
" id="DejaVuSans-6e" transform="scale(0.015625)"/>
      <path d="M 1172 4494 
L 1172 3500 
L 2356 3500 
L 2356 3053 
L 1172 3053 
L 1172 1153 
Q 1172 725 1289 603 
Q 1406 481 1766 481 
L 2356 481 
L 2356 0 
L 1766 0 
Q 1100 0 847 248 
Q 594 497 594 1153 
L 594 3053 
L 172 3053 
L 172 3500 
L 594 3500 
L 594 4494 
L 1172 4494 
z
" id="DejaVuSans-74" transform="scale(0.015625)"/>
      <path d="M 603 3500 
L 1178 3500 
L 1178 0 
L 603 0 
L 603 3500 
z
M 603 4863 
L 1178 4863 
L 1178 4134 
L 603 4134 
L 603 4863 
z
" id="DejaVuSans-69" transform="scale(0.015625)"/>
     </defs>
     <use xlink:href="#DejaVuSans-43"/>
     <use x="69.824219" xlink:href="#DejaVuSans-6f"/>
     <use x="131.005859" xlink:href="#DejaVuSans-6e"/>
     <use x="194.384766" xlink:href="#DejaVuSans-6e"/>
     <use x="257.763672" xlink:href="#DejaVuSans-65"/>
     <use x="319.287109" xlink:href="#DejaVuSans-63"/>
     <use x="374.267578" xlink:href="#DejaVuSans-74"/>
     <use x="413.476562" xlink:href="#DejaVuSans-69"/>
     <use x="441.259766" xlink:href="#DejaVuSans-6f"/>
     <use x="502.441406" xlink:href="#DejaVuSans-6e"/>
    </g>
   </g>
   <g id="patch_5">
    <path clip-path="url(#p7e5b7a10b9)" d="M 858.587688 247.647051 
L 874.427688 247.647051 
L 874.427688 231.807051 
L 858.587688 231.807051 
z
" style="fill:#f2f2f2;"/>
   </g>
   <g id="line2d_19">
    <path clip-path="url(#p7e5b7a10b9)" d="M 858.587688 239.727051 
L 874.427688 239.727051 
" style="fill:none;stroke:#db5f57;stroke-width:0.886227;"/>
   </g>
   <g id="line2d_20">
    <path clip-path="url(#p7e5b7a10b9)" d="M 866.507687 239.727051 
" style="fill:none;stroke:#1f77b4;stroke-linecap:square;stroke-width:1.5;"/>
    <defs>
     <path d="M 0 1.772454 
C 0.47006 1.772454 0.920931 1.585697 1.253314 1.253314 
C 1.585697 0.920931 1.772454 0.47006 1.772454 0 
C 1.772454 -0.47006 1.585697 -0.920931 1.253314 -1.253314 
C 0.920931 -1.585697 0.47006 -1.772454 0 -1.772454 
C -0.47006 -1.772454 -0.920931 -1.585697 -1.253314 -1.253314 
C -1.585697 -0.920931 -1.772454 -0.47006 -1.772454 0 
C -1.772454 0.47006 -1.585697 0.920931 -1.253314 1.253314 
C -0.920931 1.585697 -0.47006 1.772454 0 1.772454 
z
" id="m34f72a6880" style="stroke:#db5f57;stroke-width:0.886227;"/>
    </defs>
    <g clip-path="url(#p7e5b7a10b9)">
     <use style="fill:#db5f57;stroke:#db5f57;stroke-width:0.886227;" x="866.507687" xlink:href="#m34f72a6880" y="239.727051"/>
    </g>
   </g>
   <g id="text_7">
    <!-- None -->
    <g transform="translate(877.427688 242.155301)scale(0.088 -0.088)">
     <defs>
      <path d="M 628 4666 
L 1478 4666 
L 3547 763 
L 3547 4666 
L 4159 4666 
L 4159 0 
L 3309 0 
L 1241 3903 
L 1241 0 
L 628 0 
L 628 4666 
z
" id="DejaVuSans-4e" transform="scale(0.015625)"/>
     </defs>
     <use xlink:href="#DejaVuSans-4e"/>
     <use x="74.804688" xlink:href="#DejaVuSans-6f"/>
     <use x="135.986328" xlink:href="#DejaVuSans-6e"/>
     <use x="199.365234" xlink:href="#DejaVuSans-65"/>
    </g>
   </g>
   <g id="patch_6">
    <path clip-path="url(#pc19bd85da4)" d="M 858.587688 265.487051 
L 874.427688 265.487051 
L 874.427688 249.647051 
L 858.587688 249.647051 
z
" style="fill:#f2f2f2;"/>
   </g>
   <g id="line2d_21">
    <path clip-path="url(#pc19bd85da4)" d="M 858.587688 257.567051 
L 874.427688 257.567051 
" style="fill:none;stroke:#57d3db;stroke-width:0.886227;"/>
   </g>
   <g id="line2d_22">
    <path clip-path="url(#pc19bd85da4)" d="M 866.507687 257.567051 
" style="fill:none;stroke:#1f77b4;stroke-linecap:square;stroke-width:1.5;"/>
    <defs>
     <path d="M 0 1.772454 
C 0.47006 1.772454 0.920931 1.585697 1.253314 1.253314 
C 1.585697 0.920931 1.772454 0.47006 1.772454 0 
C 1.772454 -0.47006 1.585697 -0.920931 1.253314 -1.253314 
C 0.920931 -1.585697 0.47006 -1.772454 0 -1.772454 
C -0.47006 -1.772454 -0.920931 -1.585697 -1.253314 -1.253314 
C -1.585697 -0.920931 -1.772454 -0.47006 -1.772454 0 
C -1.772454 0.47006 -1.585697 0.920931 -1.253314 1.253314 
C -0.920931 1.585697 -0.47006 1.772454 0 1.772454 
z
" id="m564bc8e179" style="stroke:#57d3db;stroke-width:0.886227;"/>
    </defs>
    <g clip-path="url(#pc19bd85da4)">
     <use style="fill:#57d3db;stroke:#57d3db;stroke-width:0.886227;" x="866.507687" xlink:href="#m564bc8e179" y="257.567051"/>
    </g>
   </g>
   <g id="text_8">
    <!-- discrete_to_num -->
    <g transform="translate(877.427688 259.872926)scale(0.088 -0.088)">
     <defs>
      <path d="M 2906 2969 
L 2906 4863 
L 3481 4863 
L 3481 0 
L 2906 0 
L 2906 525 
Q 2725 213 2448 61 
Q 2172 -91 1784 -91 
Q 1150 -91 751 415 
Q 353 922 353 1747 
Q 353 2572 751 3078 
Q 1150 3584 1784 3584 
Q 2172 3584 2448 3432 
Q 2725 3281 2906 2969 
z
M 947 1747 
Q 947 1113 1208 752 
Q 1469 391 1925 391 
Q 2381 391 2643 752 
Q 2906 1113 2906 1747 
Q 2906 2381 2643 2742 
Q 2381 3103 1925 3103 
Q 1469 3103 1208 2742 
Q 947 2381 947 1747 
z
" id="DejaVuSans-64" transform="scale(0.015625)"/>
      <path d="M 2834 3397 
L 2834 2853 
Q 2591 2978 2328 3040 
Q 2066 3103 1784 3103 
Q 1356 3103 1142 2972 
Q 928 2841 928 2578 
Q 928 2378 1081 2264 
Q 1234 2150 1697 2047 
L 1894 2003 
Q 2506 1872 2764 1633 
Q 3022 1394 3022 966 
Q 3022 478 2636 193 
Q 2250 -91 1575 -91 
Q 1294 -91 989 -36 
Q 684 19 347 128 
L 347 722 
Q 666 556 975 473 
Q 1284 391 1588 391 
Q 1994 391 2212 530 
Q 2431 669 2431 922 
Q 2431 1156 2273 1281 
Q 2116 1406 1581 1522 
L 1381 1569 
Q 847 1681 609 1914 
Q 372 2147 372 2553 
Q 372 3047 722 3315 
Q 1072 3584 1716 3584 
Q 2034 3584 2315 3537 
Q 2597 3491 2834 3397 
z
" id="DejaVuSans-73" transform="scale(0.015625)"/>
      <path d="M 3263 -1063 
L 3263 -1509 
L -63 -1509 
L -63 -1063 
L 3263 -1063 
z
" id="DejaVuSans-5f" transform="scale(0.015625)"/>
      <path d="M 3328 2828 
Q 3544 3216 3844 3400 
Q 4144 3584 4550 3584 
Q 5097 3584 5394 3201 
Q 5691 2819 5691 2113 
L 5691 0 
L 5113 0 
L 5113 2094 
Q 5113 2597 4934 2840 
Q 4756 3084 4391 3084 
Q 3944 3084 3684 2787 
Q 3425 2491 3425 1978 
L 3425 0 
L 2847 0 
L 2847 2094 
Q 2847 2600 2669 2842 
Q 2491 3084 2119 3084 
Q 1678 3084 1418 2786 
Q 1159 2488 1159 1978 
L 1159 0 
L 581 0 
L 581 3500 
L 1159 3500 
L 1159 2956 
Q 1356 3278 1631 3431 
Q 1906 3584 2284 3584 
Q 2666 3584 2933 3390 
Q 3200 3197 3328 2828 
z
" id="DejaVuSans-6d" transform="scale(0.015625)"/>
     </defs>
     <use xlink:href="#DejaVuSans-64"/>
     <use x="63.476562" xlink:href="#DejaVuSans-69"/>
     <use x="91.259766" xlink:href="#DejaVuSans-73"/>
     <use x="143.359375" xlink:href="#DejaVuSans-63"/>
     <use x="198.339844" xlink:href="#DejaVuSans-72"/>
     <use x="237.203125" xlink:href="#DejaVuSans-65"/>
     <use x="298.726562" xlink:href="#DejaVuSans-74"/>
     <use x="337.935547" xlink:href="#DejaVuSans-65"/>
     <use x="399.458984" xlink:href="#DejaVuSans-5f"/>
     <use x="449.458984" xlink:href="#DejaVuSans-74"/>
     <use x="488.667969" xlink:href="#DejaVuSans-6f"/>
     <use x="549.849609" xlink:href="#DejaVuSans-5f"/>
     <use x="599.849609" xlink:href="#DejaVuSans-6e"/>
     <use x="663.228516" xlink:href="#DejaVuSans-75"/>
     <use x="726.607422" xlink:href="#DejaVuSans-6d"/>
    </g>
   </g>
  </g>
  <g id="axes_2">
   <g id="patch_7">
    <path d="M 475.83885 234.334082 
L 839.187688 234.334082 
L 839.187688 22.244082 
L 475.83885 22.244082 
z
" style="fill:#ebebeb;"/>
   </g>
   <g id="matplotlib.axis_3">
    <g id="xtick_10">
     <g id="line2d_23">
      <path clip-path="url(#p87d3b8190c)" d="M 492.354707 234.334082 
L 492.354707 22.244082 
" style="fill:none;stroke:#ffffff;stroke-linecap:square;"/>
     </g>
    </g>
    <g id="xtick_11">
     <g id="line2d_24">
      <path clip-path="url(#p87d3b8190c)" d="M 574.933988 234.334082 
L 574.933988 22.244082 
" style="fill:none;stroke:#ffffff;stroke-linecap:square;"/>
     </g>
    </g>
    <g id="xtick_12">
     <g id="line2d_25">
      <path clip-path="url(#p87d3b8190c)" d="M 657.513269 234.334082 
L 657.513269 22.244082 
" style="fill:none;stroke:#ffffff;stroke-linecap:square;"/>
     </g>
    </g>
    <g id="xtick_13">
     <g id="line2d_26">
      <path clip-path="url(#p87d3b8190c)" d="M 740.09255 234.334082 
L 740.09255 22.244082 
" style="fill:none;stroke:#ffffff;stroke-linecap:square;"/>
     </g>
    </g>
    <g id="xtick_14">
     <g id="line2d_27">
      <path clip-path="url(#p87d3b8190c)" d="M 822.671831 234.334082 
L 822.671831 22.244082 
" style="fill:none;stroke:#ffffff;stroke-linecap:square;"/>
     </g>
    </g>
    <g id="xtick_15">
     <g id="line2d_28">
      <path clip-path="url(#p87d3b8190c)" d="M 533.644347 234.334082 
L 533.644347 22.244082 
" style="fill:none;stroke:#ffffff;stroke-linecap:square;stroke-width:0.5;"/>
     </g>
    </g>
    <g id="xtick_16">
     <g id="line2d_29">
      <path clip-path="url(#p87d3b8190c)" d="M 616.223628 234.334082 
L 616.223628 22.244082 
" style="fill:none;stroke:#ffffff;stroke-linecap:square;stroke-width:0.5;"/>
     </g>
    </g>
    <g id="xtick_17">
     <g id="line2d_30">
      <path clip-path="url(#p87d3b8190c)" d="M 698.802909 234.334082 
L 698.802909 22.244082 
" style="fill:none;stroke:#ffffff;stroke-linecap:square;stroke-width:0.5;"/>
     </g>
    </g>
    <g id="xtick_18">
     <g id="line2d_31">
      <path clip-path="url(#p87d3b8190c)" d="M 781.382191 234.334082 
L 781.382191 22.244082 
" style="fill:none;stroke:#ffffff;stroke-linecap:square;stroke-width:0.5;"/>
     </g>
    </g>
   </g>
   <g id="matplotlib.axis_4">
    <g id="ytick_7">
     <g id="line2d_32">
      <path clip-path="url(#p87d3b8190c)" d="M 475.83885 216.622901 
L 839.187688 216.622901 
" style="fill:none;stroke:#ffffff;stroke-linecap:square;"/>
     </g>
     <g id="line2d_33">
      <path d="M 475.83885 216.622901 
" style="fill:none;stroke:#333333;stroke-linecap:square;stroke-width:1.5;"/>
      <g>
       <use style="fill:#333333;stroke:#000000;" x="475.83885" xlink:href="#m358d1597b9" y="216.622901"/>
      </g>
     </g>
     <g id="text_9">
      <!-- 0.8876 -->
      <g style="fill:#4d4d4d;" transform="translate(440.0971 219.051151)scale(0.088 -0.088)">
       <use xlink:href="#DejaVuSans-30"/>
       <use x="63.623047" xlink:href="#DejaVuSans-2e"/>
       <use x="95.410156" xlink:href="#DejaVuSans-38"/>
       <use x="159.033203" xlink:href="#DejaVuSans-38"/>
       <use x="222.65625" xlink:href="#DejaVuSans-37"/>
       <use x="286.279297" xlink:href="#DejaVuSans-36"/>
      </g>
     </g>
    </g>
    <g id="ytick_8">
     <g id="line2d_34">
      <path clip-path="url(#p87d3b8190c)" d="M 475.83885 173.17937 
L 839.187688 173.17937 
" style="fill:none;stroke:#ffffff;stroke-linecap:square;"/>
     </g>
     <g id="line2d_35">
      <path d="M 475.83885 173.17937 
" style="fill:none;stroke:#333333;stroke-linecap:square;stroke-width:1.5;"/>
      <g>
       <use style="fill:#333333;stroke:#000000;" x="475.83885" xlink:href="#m358d1597b9" y="173.17937"/>
      </g>
     </g>
     <g id="text_10">
      <!-- 0.8877 -->
      <g style="fill:#4d4d4d;" transform="translate(440.0971 175.60762)scale(0.088 -0.088)">
       <use xlink:href="#DejaVuSans-30"/>
       <use x="63.623047" xlink:href="#DejaVuSans-2e"/>
       <use x="95.410156" xlink:href="#DejaVuSans-38"/>
       <use x="159.033203" xlink:href="#DejaVuSans-38"/>
       <use x="222.65625" xlink:href="#DejaVuSans-37"/>
       <use x="286.279297" xlink:href="#DejaVuSans-37"/>
      </g>
     </g>
    </g>
    <g id="ytick_9">
     <g id="line2d_36">
      <path clip-path="url(#p87d3b8190c)" d="M 475.83885 129.735839 
L 839.187688 129.735839 
" style="fill:none;stroke:#ffffff;stroke-linecap:square;"/>
     </g>
     <g id="line2d_37">
      <path d="M 475.83885 129.735839 
" style="fill:none;stroke:#333333;stroke-linecap:square;stroke-width:1.5;"/>
      <g>
       <use style="fill:#333333;stroke:#000000;" x="475.83885" xlink:href="#m358d1597b9" y="129.735839"/>
      </g>
     </g>
     <g id="text_11">
      <!-- 0.8878 -->
      <g style="fill:#4d4d4d;" transform="translate(440.0971 132.164089)scale(0.088 -0.088)">
       <use xlink:href="#DejaVuSans-30"/>
       <use x="63.623047" xlink:href="#DejaVuSans-2e"/>
       <use x="95.410156" xlink:href="#DejaVuSans-38"/>
       <use x="159.033203" xlink:href="#DejaVuSans-38"/>
       <use x="222.65625" xlink:href="#DejaVuSans-37"/>
       <use x="286.279297" xlink:href="#DejaVuSans-38"/>
      </g>
     </g>
    </g>
    <g id="ytick_10">
     <g id="line2d_38">
      <path clip-path="url(#p87d3b8190c)" d="M 475.83885 86.292308 
L 839.187688 86.292308 
" style="fill:none;stroke:#ffffff;stroke-linecap:square;"/>
     </g>
     <g id="line2d_39">
      <path d="M 475.83885 86.292308 
" style="fill:none;stroke:#333333;stroke-linecap:square;stroke-width:1.5;"/>
      <g>
       <use style="fill:#333333;stroke:#000000;" x="475.83885" xlink:href="#m358d1597b9" y="86.292308"/>
      </g>
     </g>
     <g id="text_12">
      <!-- 0.8879 -->
      <g style="fill:#4d4d4d;" transform="translate(440.0971 88.720558)scale(0.088 -0.088)">
       <use xlink:href="#DejaVuSans-30"/>
       <use x="63.623047" xlink:href="#DejaVuSans-2e"/>
       <use x="95.410156" xlink:href="#DejaVuSans-38"/>
       <use x="159.033203" xlink:href="#DejaVuSans-38"/>
       <use x="222.65625" xlink:href="#DejaVuSans-37"/>
       <use x="286.279297" xlink:href="#DejaVuSans-39"/>
      </g>
     </g>
    </g>
    <g id="ytick_11">
     <g id="line2d_40">
      <path clip-path="url(#p87d3b8190c)" d="M 475.83885 42.848778 
L 839.187688 42.848778 
" style="fill:none;stroke:#ffffff;stroke-linecap:square;"/>
     </g>
     <g id="line2d_41">
      <path d="M 475.83885 42.848778 
" style="fill:none;stroke:#333333;stroke-linecap:square;stroke-width:1.5;"/>
      <g>
       <use style="fill:#333333;stroke:#000000;" x="475.83885" xlink:href="#m358d1597b9" y="42.848778"/>
      </g>
     </g>
     <g id="text_13">
      <!-- 0.8880 -->
      <g style="fill:#4d4d4d;" transform="translate(440.0971 45.277028)scale(0.088 -0.088)">
       <use xlink:href="#DejaVuSans-30"/>
       <use x="63.623047" xlink:href="#DejaVuSans-2e"/>
       <use x="95.410156" xlink:href="#DejaVuSans-38"/>
       <use x="159.033203" xlink:href="#DejaVuSans-38"/>
       <use x="222.65625" xlink:href="#DejaVuSans-38"/>
       <use x="286.279297" xlink:href="#DejaVuSans-30"/>
      </g>
     </g>
    </g>
    <g id="ytick_12">
     <g id="line2d_42">
      <path clip-path="url(#p87d3b8190c)" d="M 475.83885 194.901135 
L 839.187688 194.901135 
" style="fill:none;stroke:#ffffff;stroke-linecap:square;stroke-width:0.5;"/>
     </g>
    </g>
    <g id="ytick_13">
     <g id="line2d_43">
      <path clip-path="url(#p87d3b8190c)" d="M 475.83885 151.457604 
L 839.187688 151.457604 
" style="fill:none;stroke:#ffffff;stroke-linecap:square;stroke-width:0.5;"/>
     </g>
    </g>
    <g id="ytick_14">
     <g id="line2d_44">
      <path clip-path="url(#p87d3b8190c)" d="M 475.83885 108.014074 
L 839.187688 108.014074 
" style="fill:none;stroke:#ffffff;stroke-linecap:square;stroke-width:0.5;"/>
     </g>
    </g>
    <g id="ytick_15">
     <g id="line2d_45">
      <path clip-path="url(#p87d3b8190c)" d="M 475.83885 64.570543 
L 839.187688 64.570543 
" style="fill:none;stroke:#ffffff;stroke-linecap:square;stroke-width:0.5;"/>
     </g>
    </g>
   </g>
   <g id="PathCollection_2">
    <path clip-path="url(#p87d3b8190c)" d="M 492.354707 226.466082 
C 492.824767 226.466082 493.275638 226.279325 493.608021 225.946942 
C 493.940403 225.614559 494.12716 225.163688 494.12716 224.693628 
C 494.12716 224.223568 493.940403 223.772696 493.608021 223.440314 
C 493.275638 223.107931 492.824767 222.921174 492.354707 222.921174 
C 491.884646 222.921174 491.433775 223.107931 491.101392 223.440314 
C 490.76901 223.772696 490.582253 224.223568 490.582253 224.693628 
C 490.582253 225.163688 490.76901 225.614559 491.101392 225.946942 
C 491.433775 226.279325 491.884646 226.466082 492.354707 226.466082 
z
" style="fill:#db5f57;stroke:#db5f57;stroke-width:0.886227;"/>
    <path clip-path="url(#p87d3b8190c)" d="M 822.671831 33.656991 
C 823.141892 33.656991 823.592763 33.470234 823.925145 33.137851 
C 824.257528 32.805468 824.444285 32.354597 824.444285 31.884537 
C 824.444285 31.414477 824.257528 30.963606 823.925145 30.631223 
C 823.592763 30.29884 823.141892 30.112083 822.671831 30.112083 
C 822.201771 30.112083 821.7509 30.29884 821.418517 30.631223 
C 821.086134 30.963606 820.899377 31.414477 820.899377 31.884537 
C 820.899377 32.354597 821.086134 32.805468 821.418517 33.137851 
C 821.7509 33.470234 822.201771 33.656991 822.671831 33.656991 
z
" style="fill:#57d3db;stroke:#57d3db;stroke-width:0.886227;"/>
   </g>
   <g id="patch_8">
    <path d="M 475.83885 22.244082 
L 839.187688 22.244082 
L 839.187688 7.2 
L 475.83885 7.2 
z
" style="fill:#d9d9d9;"/>
   </g>
   <g id="text_14">
    <!-- AUC -->
    <g style="fill:#1a1a1a;" transform="translate(648.210706 17.150291)scale(0.088 -0.088)">
     <defs>
      <path d="M 556 4666 
L 1191 4666 
L 1191 1831 
Q 1191 1081 1462 751 
Q 1734 422 2344 422 
Q 2950 422 3222 751 
Q 3494 1081 3494 1831 
L 3494 4666 
L 4128 4666 
L 4128 1753 
Q 4128 841 3676 375 
Q 3225 -91 2344 -91 
Q 1459 -91 1007 375 
Q 556 841 556 1753 
L 556 4666 
z
" id="DejaVuSans-55" transform="scale(0.015625)"/>
     </defs>
     <use xlink:href="#DejaVuSans-41"/>
     <use x="68.408203" xlink:href="#DejaVuSans-55"/>
     <use x="141.601562" xlink:href="#DejaVuSans-43"/>
    </g>
   </g>
  </g>
  <g id="axes_3">
   <g id="patch_9">
    <path d="M 57.987688 465.764082 
L 421.336525 465.764082 
L 421.336525 253.674082 
L 57.987688 253.674082 
z
" style="fill:#ebebeb;"/>
   </g>
   <g id="matplotlib.axis_5">
    <g id="xtick_19">
     <g id="line2d_46">
      <path clip-path="url(#p5780544bef)" d="M 74.503544 465.764082 
L 74.503544 253.674082 
" style="fill:none;stroke:#ffffff;stroke-linecap:square;"/>
     </g>
     <g id="line2d_47">
      <path d="M 74.503544 465.764082 
" style="fill:none;stroke:#333333;stroke-linecap:square;stroke-width:1.5;"/>
      <defs>
       <path d="M 0 0 
L 0 2.75 
" id="m6e9c7c02ac" style="stroke:#000000;"/>
      </defs>
      <g>
       <use style="fill:#333333;stroke:#000000;" x="74.503544" xlink:href="#m6e9c7c02ac" y="465.764082"/>
      </g>
     </g>
     <g id="text_15">
      <!-- 0 -->
      <g style="fill:#4d4d4d;" transform="translate(71.704044 477.400707)scale(0.088 -0.088)">
       <use xlink:href="#DejaVuSans-30"/>
      </g>
     </g>
    </g>
    <g id="xtick_20">
     <g id="line2d_48">
      <path clip-path="url(#p5780544bef)" d="M 157.082825 465.764082 
L 157.082825 253.674082 
" style="fill:none;stroke:#ffffff;stroke-linecap:square;"/>
     </g>
     <g id="line2d_49">
      <path d="M 157.082825 465.764082 
" style="fill:none;stroke:#333333;stroke-linecap:square;stroke-width:1.5;"/>
      <g>
       <use style="fill:#333333;stroke:#000000;" x="157.082825" xlink:href="#m6e9c7c02ac" y="465.764082"/>
      </g>
     </g>
     <g id="text_16">
      <!-- 0.25 -->
      <g style="fill:#4d4d4d;" transform="translate(147.28595 477.400707)scale(0.088 -0.088)">
       <defs>
        <path d="M 1228 531 
L 3431 531 
L 3431 0 
L 469 0 
L 469 531 
Q 828 903 1448 1529 
Q 2069 2156 2228 2338 
Q 2531 2678 2651 2914 
Q 2772 3150 2772 3378 
Q 2772 3750 2511 3984 
Q 2250 4219 1831 4219 
Q 1534 4219 1204 4116 
Q 875 4013 500 3803 
L 500 4441 
Q 881 4594 1212 4672 
Q 1544 4750 1819 4750 
Q 2544 4750 2975 4387 
Q 3406 4025 3406 3419 
Q 3406 3131 3298 2873 
Q 3191 2616 2906 2266 
Q 2828 2175 2409 1742 
Q 1991 1309 1228 531 
z
" id="DejaVuSans-32" transform="scale(0.015625)"/>
        <path d="M 691 4666 
L 3169 4666 
L 3169 4134 
L 1269 4134 
L 1269 2991 
Q 1406 3038 1543 3061 
Q 1681 3084 1819 3084 
Q 2600 3084 3056 2656 
Q 3513 2228 3513 1497 
Q 3513 744 3044 326 
Q 2575 -91 1722 -91 
Q 1428 -91 1123 -41 
Q 819 9 494 109 
L 494 744 
Q 775 591 1075 516 
Q 1375 441 1709 441 
Q 2250 441 2565 725 
Q 2881 1009 2881 1497 
Q 2881 1984 2565 2268 
Q 2250 2553 1709 2553 
Q 1456 2553 1204 2497 
Q 953 2441 691 2322 
L 691 4666 
z
" id="DejaVuSans-35" transform="scale(0.015625)"/>
       </defs>
       <use xlink:href="#DejaVuSans-30"/>
       <use x="63.623047" xlink:href="#DejaVuSans-2e"/>
       <use x="95.410156" xlink:href="#DejaVuSans-32"/>
       <use x="159.033203" xlink:href="#DejaVuSans-35"/>
      </g>
     </g>
    </g>
    <g id="xtick_21">
     <g id="line2d_50">
      <path clip-path="url(#p5780544bef)" d="M 239.662106 465.764082 
L 239.662106 253.674082 
" style="fill:none;stroke:#ffffff;stroke-linecap:square;"/>
     </g>
     <g id="line2d_51">
      <path d="M 239.662106 465.764082 
" style="fill:none;stroke:#333333;stroke-linecap:square;stroke-width:1.5;"/>
      <g>
       <use style="fill:#333333;stroke:#000000;" x="239.662106" xlink:href="#m6e9c7c02ac" y="465.764082"/>
      </g>
     </g>
     <g id="text_17">
      <!-- 0.50 -->
      <g style="fill:#4d4d4d;" transform="translate(229.865231 477.400707)scale(0.088 -0.088)">
       <use xlink:href="#DejaVuSans-30"/>
       <use x="63.623047" xlink:href="#DejaVuSans-2e"/>
       <use x="95.410156" xlink:href="#DejaVuSans-35"/>
       <use x="159.033203" xlink:href="#DejaVuSans-30"/>
      </g>
     </g>
    </g>
    <g id="xtick_22">
     <g id="line2d_52">
      <path clip-path="url(#p5780544bef)" d="M 322.241387 465.764082 
L 322.241387 253.674082 
" style="fill:none;stroke:#ffffff;stroke-linecap:square;"/>
     </g>
     <g id="line2d_53">
      <path d="M 322.241387 465.764082 
" style="fill:none;stroke:#333333;stroke-linecap:square;stroke-width:1.5;"/>
      <g>
       <use style="fill:#333333;stroke:#000000;" x="322.241387" xlink:href="#m6e9c7c02ac" y="465.764082"/>
      </g>
     </g>
     <g id="text_18">
      <!-- 0.75 -->
      <g style="fill:#4d4d4d;" transform="translate(312.444512 477.400707)scale(0.088 -0.088)">
       <use xlink:href="#DejaVuSans-30"/>
       <use x="63.623047" xlink:href="#DejaVuSans-2e"/>
       <use x="95.410156" xlink:href="#DejaVuSans-37"/>
       <use x="159.033203" xlink:href="#DejaVuSans-35"/>
      </g>
     </g>
    </g>
    <g id="xtick_23">
     <g id="line2d_54">
      <path clip-path="url(#p5780544bef)" d="M 404.820668 465.764082 
L 404.820668 253.674082 
" style="fill:none;stroke:#ffffff;stroke-linecap:square;"/>
     </g>
     <g id="line2d_55">
      <path d="M 404.820668 465.764082 
" style="fill:none;stroke:#333333;stroke-linecap:square;stroke-width:1.5;"/>
      <g>
       <use style="fill:#333333;stroke:#000000;" x="404.820668" xlink:href="#m6e9c7c02ac" y="465.764082"/>
      </g>
     </g>
     <g id="text_19">
      <!-- 1 -->
      <g style="fill:#4d4d4d;" transform="translate(402.021168 477.400707)scale(0.088 -0.088)">
       <defs>
        <path d="M 794 531 
L 1825 531 
L 1825 4091 
L 703 3866 
L 703 4441 
L 1819 4666 
L 2450 4666 
L 2450 531 
L 3481 531 
L 3481 0 
L 794 0 
L 794 531 
z
" id="DejaVuSans-31" transform="scale(0.015625)"/>
       </defs>
       <use xlink:href="#DejaVuSans-31"/>
      </g>
     </g>
    </g>
    <g id="xtick_24">
     <g id="line2d_56">
      <path clip-path="url(#p5780544bef)" d="M 115.793184 465.764082 
L 115.793184 253.674082 
" style="fill:none;stroke:#ffffff;stroke-linecap:square;stroke-width:0.5;"/>
     </g>
    </g>
    <g id="xtick_25">
     <g id="line2d_57">
      <path clip-path="url(#p5780544bef)" d="M 198.372466 465.764082 
L 198.372466 253.674082 
" style="fill:none;stroke:#ffffff;stroke-linecap:square;stroke-width:0.5;"/>
     </g>
    </g>
    <g id="xtick_26">
     <g id="line2d_58">
      <path clip-path="url(#p5780544bef)" d="M 280.951747 465.764082 
L 280.951747 253.674082 
" style="fill:none;stroke:#ffffff;stroke-linecap:square;stroke-width:0.5;"/>
     </g>
    </g>
    <g id="xtick_27">
     <g id="line2d_59">
      <path clip-path="url(#p5780544bef)" d="M 363.531028 465.764082 
L 363.531028 253.674082 
" style="fill:none;stroke:#ffffff;stroke-linecap:square;stroke-width:0.5;"/>
     </g>
    </g>
   </g>
   <g id="matplotlib.axis_6">
    <g id="ytick_16">
     <g id="line2d_60">
      <path clip-path="url(#p5780544bef)" d="M 57.987688 460.586522 
L 421.336525 460.586522 
" style="fill:none;stroke:#ffffff;stroke-linecap:square;"/>
     </g>
     <g id="line2d_61">
      <path d="M 57.987688 460.586522 
" style="fill:none;stroke:#333333;stroke-linecap:square;stroke-width:1.5;"/>
      <g>
       <use style="fill:#333333;stroke:#000000;" x="57.987688" xlink:href="#m358d1597b9" y="460.586522"/>
      </g>
     </g>
     <g id="text_20">
      <!-- 0.89395 -->
      <g style="fill:#4d4d4d;" transform="translate(16.646938 463.014772)scale(0.088 -0.088)">
       <use xlink:href="#DejaVuSans-30"/>
       <use x="63.623047" xlink:href="#DejaVuSans-2e"/>
       <use x="95.410156" xlink:href="#DejaVuSans-38"/>
       <use x="159.033203" xlink:href="#DejaVuSans-39"/>
       <use x="222.65625" xlink:href="#DejaVuSans-33"/>
       <use x="286.279297" xlink:href="#DejaVuSans-39"/>
       <use x="349.902344" xlink:href="#DejaVuSans-35"/>
      </g>
     </g>
    </g>
    <g id="ytick_17">
     <g id="line2d_62">
      <path clip-path="url(#p5780544bef)" d="M 57.987688 414.094044 
L 421.336525 414.094044 
" style="fill:none;stroke:#ffffff;stroke-linecap:square;"/>
     </g>
     <g id="line2d_63">
      <path d="M 57.987688 414.094044 
" style="fill:none;stroke:#333333;stroke-linecap:square;stroke-width:1.5;"/>
      <g>
       <use style="fill:#333333;stroke:#000000;" x="57.987688" xlink:href="#m358d1597b9" y="414.094044"/>
      </g>
     </g>
     <g id="text_21">
      <!-- 0.89400 -->
      <g style="fill:#4d4d4d;" transform="translate(16.646938 416.522294)scale(0.088 -0.088)">
       <defs>
        <path d="M 2419 4116 
L 825 1625 
L 2419 1625 
L 2419 4116 
z
M 2253 4666 
L 3047 4666 
L 3047 1625 
L 3713 1625 
L 3713 1100 
L 3047 1100 
L 3047 0 
L 2419 0 
L 2419 1100 
L 313 1100 
L 313 1709 
L 2253 4666 
z
" id="DejaVuSans-34" transform="scale(0.015625)"/>
       </defs>
       <use xlink:href="#DejaVuSans-30"/>
       <use x="63.623047" xlink:href="#DejaVuSans-2e"/>
       <use x="95.410156" xlink:href="#DejaVuSans-38"/>
       <use x="159.033203" xlink:href="#DejaVuSans-39"/>
       <use x="222.65625" xlink:href="#DejaVuSans-34"/>
       <use x="286.279297" xlink:href="#DejaVuSans-30"/>
       <use x="349.902344" xlink:href="#DejaVuSans-30"/>
      </g>
     </g>
    </g>
    <g id="ytick_18">
     <g id="line2d_64">
      <path clip-path="url(#p5780544bef)" d="M 57.987688 367.601566 
L 421.336525 367.601566 
" style="fill:none;stroke:#ffffff;stroke-linecap:square;"/>
     </g>
     <g id="line2d_65">
      <path d="M 57.987688 367.601566 
" style="fill:none;stroke:#333333;stroke-linecap:square;stroke-width:1.5;"/>
      <g>
       <use style="fill:#333333;stroke:#000000;" x="57.987688" xlink:href="#m358d1597b9" y="367.601566"/>
      </g>
     </g>
     <g id="text_22">
      <!-- 0.89405 -->
      <g style="fill:#4d4d4d;" transform="translate(16.646938 370.029816)scale(0.088 -0.088)">
       <use xlink:href="#DejaVuSans-30"/>
       <use x="63.623047" xlink:href="#DejaVuSans-2e"/>
       <use x="95.410156" xlink:href="#DejaVuSans-38"/>
       <use x="159.033203" xlink:href="#DejaVuSans-39"/>
       <use x="222.65625" xlink:href="#DejaVuSans-34"/>
       <use x="286.279297" xlink:href="#DejaVuSans-30"/>
       <use x="349.902344" xlink:href="#DejaVuSans-35"/>
      </g>
     </g>
    </g>
    <g id="ytick_19">
     <g id="line2d_66">
      <path clip-path="url(#p5780544bef)" d="M 57.987688 321.109087 
L 421.336525 321.109087 
" style="fill:none;stroke:#ffffff;stroke-linecap:square;"/>
     </g>
     <g id="line2d_67">
      <path d="M 57.987688 321.109087 
" style="fill:none;stroke:#333333;stroke-linecap:square;stroke-width:1.5;"/>
      <g>
       <use style="fill:#333333;stroke:#000000;" x="57.987688" xlink:href="#m358d1597b9" y="321.109087"/>
      </g>
     </g>
     <g id="text_23">
      <!-- 0.89410 -->
      <g style="fill:#4d4d4d;" transform="translate(16.646938 323.537337)scale(0.088 -0.088)">
       <use xlink:href="#DejaVuSans-30"/>
       <use x="63.623047" xlink:href="#DejaVuSans-2e"/>
       <use x="95.410156" xlink:href="#DejaVuSans-38"/>
       <use x="159.033203" xlink:href="#DejaVuSans-39"/>
       <use x="222.65625" xlink:href="#DejaVuSans-34"/>
       <use x="286.279297" xlink:href="#DejaVuSans-31"/>
       <use x="349.902344" xlink:href="#DejaVuSans-30"/>
      </g>
     </g>
    </g>
    <g id="ytick_20">
     <g id="line2d_68">
      <path clip-path="url(#p5780544bef)" d="M 57.987688 274.616609 
L 421.336525 274.616609 
" style="fill:none;stroke:#ffffff;stroke-linecap:square;"/>
     </g>
     <g id="line2d_69">
      <path d="M 57.987688 274.616609 
" style="fill:none;stroke:#333333;stroke-linecap:square;stroke-width:1.5;"/>
      <g>
       <use style="fill:#333333;stroke:#000000;" x="57.987688" xlink:href="#m358d1597b9" y="274.616609"/>
      </g>
     </g>
     <g id="text_24">
      <!-- 0.89415 -->
      <g style="fill:#4d4d4d;" transform="translate(16.646938 277.044859)scale(0.088 -0.088)">
       <use xlink:href="#DejaVuSans-30"/>
       <use x="63.623047" xlink:href="#DejaVuSans-2e"/>
       <use x="95.410156" xlink:href="#DejaVuSans-38"/>
       <use x="159.033203" xlink:href="#DejaVuSans-39"/>
       <use x="222.65625" xlink:href="#DejaVuSans-34"/>
       <use x="286.279297" xlink:href="#DejaVuSans-31"/>
       <use x="349.902344" xlink:href="#DejaVuSans-35"/>
      </g>
     </g>
    </g>
    <g id="ytick_21">
     <g id="line2d_70">
      <path clip-path="url(#p5780544bef)" d="M 57.987688 437.340283 
L 421.336525 437.340283 
" style="fill:none;stroke:#ffffff;stroke-linecap:square;stroke-width:0.5;"/>
     </g>
    </g>
    <g id="ytick_22">
     <g id="line2d_71">
      <path clip-path="url(#p5780544bef)" d="M 57.987688 390.847805 
L 421.336525 390.847805 
" style="fill:none;stroke:#ffffff;stroke-linecap:square;stroke-width:0.5;"/>
     </g>
    </g>
    <g id="ytick_23">
     <g id="line2d_72">
      <path clip-path="url(#p5780544bef)" d="M 57.987688 344.355326 
L 421.336525 344.355326 
" style="fill:none;stroke:#ffffff;stroke-linecap:square;stroke-width:0.5;"/>
     </g>
    </g>
    <g id="ytick_24">
     <g id="line2d_73">
      <path clip-path="url(#p5780544bef)" d="M 57.987688 297.862848 
L 421.336525 297.862848 
" style="fill:none;stroke:#ffffff;stroke-linecap:square;stroke-width:0.5;"/>
     </g>
    </g>
   </g>
   <g id="PathCollection_3">
    <path clip-path="url(#p5780544bef)" d="M 74.503544 457.896082 
C 74.973604 457.896082 75.424475 457.709325 75.756858 457.376942 
C 76.089241 457.044559 76.275998 456.593688 76.275998 456.123628 
C 76.275998 455.653568 76.089241 455.202696 75.756858 454.870314 
C 75.424475 454.537931 74.973604 454.351174 74.503544 454.351174 
C 74.033483 454.351174 73.582612 454.537931 73.25023 454.870314 
C 72.917847 455.202696 72.73109 455.653568 72.73109 456.123628 
C 72.73109 456.593688 72.917847 457.044559 73.25023 457.376942 
C 73.582612 457.709325 74.033483 457.896082 74.503544 457.896082 
z
" style="fill:#db5f57;stroke:#db5f57;stroke-width:0.886227;"/>
    <path clip-path="url(#p5780544bef)" d="M 404.820668 265.086991 
C 405.290729 265.086991 405.7416 264.900234 406.073983 264.567851 
C 406.406365 264.235468 406.593122 263.784597 406.593122 263.314537 
C 406.593122 262.844477 406.406365 262.393606 406.073983 262.061223 
C 405.7416 261.72884 405.290729 261.542083 404.820668 261.542083 
C 404.350608 261.542083 403.899737 261.72884 403.567354 262.061223 
C 403.234972 262.393606 403.048215 262.844477 403.048215 263.314537 
C 403.048215 263.784597 403.234972 264.235468 403.567354 264.567851 
C 403.899737 264.900234 404.350608 265.086991 404.820668 265.086991 
z
" style="fill:#57d3db;stroke:#57d3db;stroke-width:0.886227;"/>
   </g>
   <g id="patch_10">
    <path d="M 57.987688 253.674082 
L 421.336525 253.674082 
L 421.336525 238.63 
L 57.987688 238.63 
z
" style="fill:#d9d9d9;"/>
   </g>
   <g id="text_25">
    <!-- F1 score: &lt;=50K -->
    <g style="fill:#1a1a1a;" transform="translate(202.373481 248.580291)scale(0.088 -0.088)">
     <defs>
      <path d="M 628 4666 
L 3309 4666 
L 3309 4134 
L 1259 4134 
L 1259 2759 
L 3109 2759 
L 3109 2228 
L 1259 2228 
L 1259 0 
L 628 0 
L 628 4666 
z
" id="DejaVuSans-46" transform="scale(0.015625)"/>
      <path id="DejaVuSans-20" transform="scale(0.015625)"/>
      <path d="M 750 794 
L 1409 794 
L 1409 0 
L 750 0 
L 750 794 
z
M 750 3309 
L 1409 3309 
L 1409 2516 
L 750 2516 
L 750 3309 
z
" id="DejaVuSans-3a" transform="scale(0.015625)"/>
      <path d="M 4684 3150 
L 1459 2003 
L 4684 863 
L 4684 294 
L 678 1747 
L 678 2266 
L 4684 3719 
L 4684 3150 
z
" id="DejaVuSans-3c" transform="scale(0.015625)"/>
      <path d="M 678 2906 
L 4684 2906 
L 4684 2381 
L 678 2381 
L 678 2906 
z
M 678 1631 
L 4684 1631 
L 4684 1100 
L 678 1100 
L 678 1631 
z
" id="DejaVuSans-3d" transform="scale(0.015625)"/>
      <path d="M 628 4666 
L 1259 4666 
L 1259 2694 
L 3353 4666 
L 4166 4666 
L 1850 2491 
L 4331 0 
L 3500 0 
L 1259 2247 
L 1259 0 
L 628 0 
L 628 4666 
z
" id="DejaVuSans-4b" transform="scale(0.015625)"/>
     </defs>
     <use xlink:href="#DejaVuSans-46"/>
     <use x="57.519531" xlink:href="#DejaVuSans-31"/>
     <use x="121.142578" xlink:href="#DejaVuSans-20"/>
     <use x="152.929688" xlink:href="#DejaVuSans-73"/>
     <use x="205.029297" xlink:href="#DejaVuSans-63"/>
     <use x="260.009766" xlink:href="#DejaVuSans-6f"/>
     <use x="321.191406" xlink:href="#DejaVuSans-72"/>
     <use x="360.054688" xlink:href="#DejaVuSans-65"/>
     <use x="421.578125" xlink:href="#DejaVuSans-3a"/>
     <use x="455.269531" xlink:href="#DejaVuSans-20"/>
     <use x="487.056641" xlink:href="#DejaVuSans-3c"/>
     <use x="570.845703" xlink:href="#DejaVuSans-3d"/>
     <use x="654.634766" xlink:href="#DejaVuSans-35"/>
     <use x="718.257812" xlink:href="#DejaVuSans-30"/>
     <use x="781.880859" xlink:href="#DejaVuSans-4b"/>
    </g>
   </g>
  </g>
  <g id="axes_4">
   <g id="patch_11">
    <path d="M 475.83885 465.764082 
L 839.187688 465.764082 
L 839.187688 253.674082 
L 475.83885 253.674082 
z
" style="fill:#ebebeb;"/>
   </g>
   <g id="matplotlib.axis_7">
    <g id="xtick_28">
     <g id="line2d_74">
      <path clip-path="url(#p3ebe3e9366)" d="M 492.354707 465.764082 
L 492.354707 253.674082 
" style="fill:none;stroke:#ffffff;stroke-linecap:square;"/>
     </g>
     <g id="line2d_75">
      <path d="M 492.354707 465.764082 
" style="fill:none;stroke:#333333;stroke-linecap:square;stroke-width:1.5;"/>
      <g>
       <use style="fill:#333333;stroke:#000000;" x="492.354707" xlink:href="#m6e9c7c02ac" y="465.764082"/>
      </g>
     </g>
     <g id="text_26">
      <!-- 0 -->
      <g style="fill:#4d4d4d;" transform="translate(489.555207 477.400707)scale(0.088 -0.088)">
       <use xlink:href="#DejaVuSans-30"/>
      </g>
     </g>
    </g>
    <g id="xtick_29">
     <g id="line2d_76">
      <path clip-path="url(#p3ebe3e9366)" d="M 574.933988 465.764082 
L 574.933988 253.674082 
" style="fill:none;stroke:#ffffff;stroke-linecap:square;"/>
     </g>
     <g id="line2d_77">
      <path d="M 574.933988 465.764082 
" style="fill:none;stroke:#333333;stroke-linecap:square;stroke-width:1.5;"/>
      <g>
       <use style="fill:#333333;stroke:#000000;" x="574.933988" xlink:href="#m6e9c7c02ac" y="465.764082"/>
      </g>
     </g>
     <g id="text_27">
      <!-- 0.25 -->
      <g style="fill:#4d4d4d;" transform="translate(565.137113 477.400707)scale(0.088 -0.088)">
       <use xlink:href="#DejaVuSans-30"/>
       <use x="63.623047" xlink:href="#DejaVuSans-2e"/>
       <use x="95.410156" xlink:href="#DejaVuSans-32"/>
       <use x="159.033203" xlink:href="#DejaVuSans-35"/>
      </g>
     </g>
    </g>
    <g id="xtick_30">
     <g id="line2d_78">
      <path clip-path="url(#p3ebe3e9366)" d="M 657.513269 465.764082 
L 657.513269 253.674082 
" style="fill:none;stroke:#ffffff;stroke-linecap:square;"/>
     </g>
     <g id="line2d_79">
      <path d="M 657.513269 465.764082 
" style="fill:none;stroke:#333333;stroke-linecap:square;stroke-width:1.5;"/>
      <g>
       <use style="fill:#333333;stroke:#000000;" x="657.513269" xlink:href="#m6e9c7c02ac" y="465.764082"/>
      </g>
     </g>
     <g id="text_28">
      <!-- 0.50 -->
      <g style="fill:#4d4d4d;" transform="translate(647.716394 477.400707)scale(0.088 -0.088)">
       <use xlink:href="#DejaVuSans-30"/>
       <use x="63.623047" xlink:href="#DejaVuSans-2e"/>
       <use x="95.410156" xlink:href="#DejaVuSans-35"/>
       <use x="159.033203" xlink:href="#DejaVuSans-30"/>
      </g>
     </g>
    </g>
    <g id="xtick_31">
     <g id="line2d_80">
      <path clip-path="url(#p3ebe3e9366)" d="M 740.09255 465.764082 
L 740.09255 253.674082 
" style="fill:none;stroke:#ffffff;stroke-linecap:square;"/>
     </g>
     <g id="line2d_81">
      <path d="M 740.09255 465.764082 
" style="fill:none;stroke:#333333;stroke-linecap:square;stroke-width:1.5;"/>
      <g>
       <use style="fill:#333333;stroke:#000000;" x="740.09255" xlink:href="#m6e9c7c02ac" y="465.764082"/>
      </g>
     </g>
     <g id="text_29">
      <!-- 0.75 -->
      <g style="fill:#4d4d4d;" transform="translate(730.295675 477.400707)scale(0.088 -0.088)">
       <use xlink:href="#DejaVuSans-30"/>
       <use x="63.623047" xlink:href="#DejaVuSans-2e"/>
       <use x="95.410156" xlink:href="#DejaVuSans-37"/>
       <use x="159.033203" xlink:href="#DejaVuSans-35"/>
      </g>
     </g>
    </g>
    <g id="xtick_32">
     <g id="line2d_82">
      <path clip-path="url(#p3ebe3e9366)" d="M 822.671831 465.764082 
L 822.671831 253.674082 
" style="fill:none;stroke:#ffffff;stroke-linecap:square;"/>
     </g>
     <g id="line2d_83">
      <path d="M 822.671831 465.764082 
" style="fill:none;stroke:#333333;stroke-linecap:square;stroke-width:1.5;"/>
      <g>
       <use style="fill:#333333;stroke:#000000;" x="822.671831" xlink:href="#m6e9c7c02ac" y="465.764082"/>
      </g>
     </g>
     <g id="text_30">
      <!-- 1 -->
      <g style="fill:#4d4d4d;" transform="translate(819.872331 477.400707)scale(0.088 -0.088)">
       <use xlink:href="#DejaVuSans-31"/>
      </g>
     </g>
    </g>
    <g id="xtick_33">
     <g id="line2d_84">
      <path clip-path="url(#p3ebe3e9366)" d="M 533.644347 465.764082 
L 533.644347 253.674082 
" style="fill:none;stroke:#ffffff;stroke-linecap:square;stroke-width:0.5;"/>
     </g>
    </g>
    <g id="xtick_34">
     <g id="line2d_85">
      <path clip-path="url(#p3ebe3e9366)" d="M 616.223628 465.764082 
L 616.223628 253.674082 
" style="fill:none;stroke:#ffffff;stroke-linecap:square;stroke-width:0.5;"/>
     </g>
    </g>
    <g id="xtick_35">
     <g id="line2d_86">
      <path clip-path="url(#p3ebe3e9366)" d="M 698.802909 465.764082 
L 698.802909 253.674082 
" style="fill:none;stroke:#ffffff;stroke-linecap:square;stroke-width:0.5;"/>
     </g>
    </g>
    <g id="xtick_36">
     <g id="line2d_87">
      <path clip-path="url(#p3ebe3e9366)" d="M 781.382191 465.764082 
L 781.382191 253.674082 
" style="fill:none;stroke:#ffffff;stroke-linecap:square;stroke-width:0.5;"/>
     </g>
    </g>
    <g id="text_31">
     <!-- Dim hidden connection -->
     <g transform="translate(372.200578 491.989114)scale(0.11 -0.11)">
      <defs>
       <path d="M 1259 4147 
L 1259 519 
L 2022 519 
Q 2988 519 3436 956 
Q 3884 1394 3884 2338 
Q 3884 3275 3436 3711 
Q 2988 4147 2022 4147 
L 1259 4147 
z
M 628 4666 
L 1925 4666 
Q 3281 4666 3915 4102 
Q 4550 3538 4550 2338 
Q 4550 1131 3912 565 
Q 3275 0 1925 0 
L 628 0 
L 628 4666 
z
" id="DejaVuSans-44" transform="scale(0.015625)"/>
       <path d="M 3513 2113 
L 3513 0 
L 2938 0 
L 2938 2094 
Q 2938 2591 2744 2837 
Q 2550 3084 2163 3084 
Q 1697 3084 1428 2787 
Q 1159 2491 1159 1978 
L 1159 0 
L 581 0 
L 581 4863 
L 1159 4863 
L 1159 2956 
Q 1366 3272 1645 3428 
Q 1925 3584 2291 3584 
Q 2894 3584 3203 3211 
Q 3513 2838 3513 2113 
z
" id="DejaVuSans-68" transform="scale(0.015625)"/>
      </defs>
      <use xlink:href="#DejaVuSans-44"/>
      <use x="77.001953" xlink:href="#DejaVuSans-69"/>
      <use x="104.785156" xlink:href="#DejaVuSans-6d"/>
      <use x="202.197266" xlink:href="#DejaVuSans-20"/>
      <use x="233.984375" xlink:href="#DejaVuSans-68"/>
      <use x="297.363281" xlink:href="#DejaVuSans-69"/>
      <use x="325.146484" xlink:href="#DejaVuSans-64"/>
      <use x="388.623047" xlink:href="#DejaVuSans-64"/>
      <use x="452.099609" xlink:href="#DejaVuSans-65"/>
      <use x="513.623047" xlink:href="#DejaVuSans-6e"/>
      <use x="577.001953" xlink:href="#DejaVuSans-20"/>
      <use x="608.789062" xlink:href="#DejaVuSans-63"/>
      <use x="663.769531" xlink:href="#DejaVuSans-6f"/>
      <use x="724.951172" xlink:href="#DejaVuSans-6e"/>
      <use x="788.330078" xlink:href="#DejaVuSans-6e"/>
      <use x="851.708984" xlink:href="#DejaVuSans-65"/>
      <use x="913.232422" xlink:href="#DejaVuSans-63"/>
      <use x="968.212891" xlink:href="#DejaVuSans-74"/>
      <use x="1007.421875" xlink:href="#DejaVuSans-69"/>
      <use x="1035.205078" xlink:href="#DejaVuSans-6f"/>
      <use x="1096.386719" xlink:href="#DejaVuSans-6e"/>
     </g>
    </g>
   </g>
   <g id="matplotlib.axis_8">
    <g id="ytick_25">
     <g id="line2d_88">
      <path clip-path="url(#p3ebe3e9366)" d="M 475.83885 454.495448 
L 839.187688 454.495448 
" style="fill:none;stroke:#ffffff;stroke-linecap:square;"/>
     </g>
     <g id="line2d_89">
      <path d="M 475.83885 454.495448 
" style="fill:none;stroke:#333333;stroke-linecap:square;stroke-width:1.5;"/>
      <g>
       <use style="fill:#333333;stroke:#000000;" x="475.83885" xlink:href="#m358d1597b9" y="454.495448"/>
      </g>
     </g>
     <g id="text_32">
      <!-- 0.64505 -->
      <g style="fill:#4d4d4d;" transform="translate(434.4981 456.923698)scale(0.088 -0.088)">
       <use xlink:href="#DejaVuSans-30"/>
       <use x="63.623047" xlink:href="#DejaVuSans-2e"/>
       <use x="95.410156" xlink:href="#DejaVuSans-36"/>
       <use x="159.033203" xlink:href="#DejaVuSans-34"/>
       <use x="222.65625" xlink:href="#DejaVuSans-35"/>
       <use x="286.279297" xlink:href="#DejaVuSans-30"/>
       <use x="349.902344" xlink:href="#DejaVuSans-35"/>
      </g>
     </g>
    </g>
    <g id="ytick_26">
     <g id="line2d_90">
      <path clip-path="url(#p3ebe3e9366)" d="M 475.83885 404.512413 
L 839.187688 404.512413 
" style="fill:none;stroke:#ffffff;stroke-linecap:square;"/>
     </g>
     <g id="line2d_91">
      <path d="M 475.83885 404.512413 
" style="fill:none;stroke:#333333;stroke-linecap:square;stroke-width:1.5;"/>
      <g>
       <use style="fill:#333333;stroke:#000000;" x="475.83885" xlink:href="#m358d1597b9" y="404.512413"/>
      </g>
     </g>
     <g id="text_33">
      <!-- 0.64510 -->
      <g style="fill:#4d4d4d;" transform="translate(434.4981 406.940663)scale(0.088 -0.088)">
       <use xlink:href="#DejaVuSans-30"/>
       <use x="63.623047" xlink:href="#DejaVuSans-2e"/>
       <use x="95.410156" xlink:href="#DejaVuSans-36"/>
       <use x="159.033203" xlink:href="#DejaVuSans-34"/>
       <use x="222.65625" xlink:href="#DejaVuSans-35"/>
       <use x="286.279297" xlink:href="#DejaVuSans-31"/>
       <use x="349.902344" xlink:href="#DejaVuSans-30"/>
      </g>
     </g>
    </g>
    <g id="ytick_27">
     <g id="line2d_92">
      <path clip-path="url(#p3ebe3e9366)" d="M 475.83885 354.529379 
L 839.187688 354.529379 
" style="fill:none;stroke:#ffffff;stroke-linecap:square;"/>
     </g>
     <g id="line2d_93">
      <path d="M 475.83885 354.529379 
" style="fill:none;stroke:#333333;stroke-linecap:square;stroke-width:1.5;"/>
      <g>
       <use style="fill:#333333;stroke:#000000;" x="475.83885" xlink:href="#m358d1597b9" y="354.529379"/>
      </g>
     </g>
     <g id="text_34">
      <!-- 0.64515 -->
      <g style="fill:#4d4d4d;" transform="translate(434.4981 356.957629)scale(0.088 -0.088)">
       <use xlink:href="#DejaVuSans-30"/>
       <use x="63.623047" xlink:href="#DejaVuSans-2e"/>
       <use x="95.410156" xlink:href="#DejaVuSans-36"/>
       <use x="159.033203" xlink:href="#DejaVuSans-34"/>
       <use x="222.65625" xlink:href="#DejaVuSans-35"/>
       <use x="286.279297" xlink:href="#DejaVuSans-31"/>
       <use x="349.902344" xlink:href="#DejaVuSans-35"/>
      </g>
     </g>
    </g>
    <g id="ytick_28">
     <g id="line2d_94">
      <path clip-path="url(#p3ebe3e9366)" d="M 475.83885 304.546344 
L 839.187688 304.546344 
" style="fill:none;stroke:#ffffff;stroke-linecap:square;"/>
     </g>
     <g id="line2d_95">
      <path d="M 475.83885 304.546344 
" style="fill:none;stroke:#333333;stroke-linecap:square;stroke-width:1.5;"/>
      <g>
       <use style="fill:#333333;stroke:#000000;" x="475.83885" xlink:href="#m358d1597b9" y="304.546344"/>
      </g>
     </g>
     <g id="text_35">
      <!-- 0.64520 -->
      <g style="fill:#4d4d4d;" transform="translate(434.4981 306.974594)scale(0.088 -0.088)">
       <use xlink:href="#DejaVuSans-30"/>
       <use x="63.623047" xlink:href="#DejaVuSans-2e"/>
       <use x="95.410156" xlink:href="#DejaVuSans-36"/>
       <use x="159.033203" xlink:href="#DejaVuSans-34"/>
       <use x="222.65625" xlink:href="#DejaVuSans-35"/>
       <use x="286.279297" xlink:href="#DejaVuSans-32"/>
       <use x="349.902344" xlink:href="#DejaVuSans-30"/>
      </g>
     </g>
    </g>
    <g id="ytick_29">
     <g id="line2d_96">
      <path clip-path="url(#p3ebe3e9366)" d="M 475.83885 254.563309 
L 839.187688 254.563309 
" style="fill:none;stroke:#ffffff;stroke-linecap:square;"/>
     </g>
     <g id="line2d_97">
      <path d="M 475.83885 254.563309 
" style="fill:none;stroke:#333333;stroke-linecap:square;stroke-width:1.5;"/>
      <g>
       <use style="fill:#333333;stroke:#000000;" x="475.83885" xlink:href="#m358d1597b9" y="254.563309"/>
      </g>
     </g>
     <g id="text_36">
      <!-- 0.64525 -->
      <g style="fill:#4d4d4d;" transform="translate(434.4981 256.991559)scale(0.088 -0.088)">
       <use xlink:href="#DejaVuSans-30"/>
       <use x="63.623047" xlink:href="#DejaVuSans-2e"/>
       <use x="95.410156" xlink:href="#DejaVuSans-36"/>
       <use x="159.033203" xlink:href="#DejaVuSans-34"/>
       <use x="222.65625" xlink:href="#DejaVuSans-35"/>
       <use x="286.279297" xlink:href="#DejaVuSans-32"/>
       <use x="349.902344" xlink:href="#DejaVuSans-35"/>
      </g>
     </g>
    </g>
    <g id="ytick_30">
     <g id="line2d_98">
      <path clip-path="url(#p3ebe3e9366)" d="M 475.83885 429.503931 
L 839.187688 429.503931 
" style="fill:none;stroke:#ffffff;stroke-linecap:square;stroke-width:0.5;"/>
     </g>
    </g>
    <g id="ytick_31">
     <g id="line2d_99">
      <path clip-path="url(#p3ebe3e9366)" d="M 475.83885 379.520896 
L 839.187688 379.520896 
" style="fill:none;stroke:#ffffff;stroke-linecap:square;stroke-width:0.5;"/>
     </g>
    </g>
    <g id="ytick_32">
     <g id="line2d_100">
      <path clip-path="url(#p3ebe3e9366)" d="M 475.83885 329.537861 
L 839.187688 329.537861 
" style="fill:none;stroke:#ffffff;stroke-linecap:square;stroke-width:0.5;"/>
     </g>
    </g>
    <g id="ytick_33">
     <g id="line2d_101">
      <path clip-path="url(#p3ebe3e9366)" d="M 475.83885 279.554827 
L 839.187688 279.554827 
" style="fill:none;stroke:#ffffff;stroke-linecap:square;stroke-width:0.5;"/>
     </g>
    </g>
   </g>
   <g id="PathCollection_4">
    <path clip-path="url(#p3ebe3e9366)" d="M 492.354707 457.896082 
C 492.824767 457.896082 493.275638 457.709325 493.608021 457.376942 
C 493.940403 457.044559 494.12716 456.593688 494.12716 456.123628 
C 494.12716 455.653568 493.940403 455.202696 493.608021 454.870314 
C 493.275638 454.537931 492.824767 454.351174 492.354707 454.351174 
C 491.884646 454.351174 491.433775 454.537931 491.101392 454.870314 
C 490.76901 455.202696 490.582253 455.653568 490.582253 456.123628 
C 490.582253 456.593688 490.76901 457.044559 491.101392 457.376942 
C 491.433775 457.709325 491.884646 457.896082 492.354707 457.896082 
z
" style="fill:#db5f57;stroke:#db5f57;stroke-width:0.886227;"/>
    <path clip-path="url(#p3ebe3e9366)" d="M 822.671831 265.086991 
C 823.141892 265.086991 823.592763 264.900234 823.925145 264.567851 
C 824.257528 264.235468 824.444285 263.784597 824.444285 263.314537 
C 824.444285 262.844477 824.257528 262.393606 823.925145 262.061223 
C 823.592763 261.72884 823.141892 261.542083 822.671831 261.542083 
C 822.201771 261.542083 821.7509 261.72884 821.418517 262.061223 
C 821.086134 262.393606 820.899377 262.844477 820.899377 263.314537 
C 820.899377 263.784597 821.086134 264.235468 821.418517 264.567851 
C 821.7509 264.900234 822.201771 265.086991 822.671831 265.086991 
z
" style="fill:#57d3db;stroke:#57d3db;stroke-width:0.886227;"/>
   </g>
   <g id="patch_12">
    <path d="M 475.83885 253.674082 
L 839.187688 253.674082 
L 839.187688 238.63 
L 475.83885 238.63 
z
" style="fill:#d9d9d9;"/>
   </g>
   <g id="text_37">
    <!-- F1 score: &gt;50K -->
    <g style="fill:#1a1a1a;" transform="translate(623.911706 248.580291)scale(0.088 -0.088)">
     <defs>
      <path d="M 678 3150 
L 678 3719 
L 4684 2266 
L 4684 1747 
L 678 294 
L 678 863 
L 3897 2003 
L 678 3150 
z
" id="DejaVuSans-3e" transform="scale(0.015625)"/>
     </defs>
     <use xlink:href="#DejaVuSans-46"/>
     <use x="57.519531" xlink:href="#DejaVuSans-31"/>
     <use x="121.142578" xlink:href="#DejaVuSans-20"/>
     <use x="152.929688" xlink:href="#DejaVuSans-73"/>
     <use x="205.029297" xlink:href="#DejaVuSans-63"/>
     <use x="260.009766" xlink:href="#DejaVuSans-6f"/>
     <use x="321.191406" xlink:href="#DejaVuSans-72"/>
     <use x="360.054688" xlink:href="#DejaVuSans-65"/>
     <use x="421.578125" xlink:href="#DejaVuSans-3a"/>
     <use x="455.269531" xlink:href="#DejaVuSans-20"/>
     <use x="487.056641" xlink:href="#DejaVuSans-3e"/>
     <use x="570.845703" xlink:href="#DejaVuSans-35"/>
     <use x="634.46875" xlink:href="#DejaVuSans-30"/>
     <use x="698.091797" xlink:href="#DejaVuSans-4b"/>
    </g>
   </g>
  </g>
 </g>
 <defs>
  <clipPath id="pd880e70279">
   <rect height="212.09" width="363.348837" x="57.987688" y="22.244082"/>
  </clipPath>
  <clipPath id="p7e5b7a10b9">
   <path d="M 858.587688 247.647051 
L 858.587688 231.807051 
L 874.427688 231.807051 
L 874.427688 247.647051 
"/>
  </clipPath>
  <clipPath id="pc19bd85da4">
   <path d="M 858.587688 265.487051 
L 858.587688 249.647051 
L 874.427688 249.647051 
L 874.427688 265.487051 
"/>
  </clipPath>
  <clipPath id="p87d3b8190c">
   <rect height="212.09" width="363.348837" x="475.83885" y="22.244082"/>
  </clipPath>
  <clipPath id="p5780544bef">
   <rect height="212.09" width="363.348837" x="57.987688" y="253.674082"/>
  </clipPath>
  <clipPath id="p3ebe3e9366">
   <rect height="212.09" width="363.348837" x="475.83885" y="253.674082"/>
  </clipPath>
 </defs>
</svg>
