<?xml version="1.0" encoding="utf-8" standalone="no"?>
<!DOCTYPE svg PUBLIC "-//W3C//DTD SVG 1.1//EN"
  "http://www.w3.org/Graphics/SVG/1.1/DTD/svg11.dtd">
<svg height="501.47677pt" version="1.1" viewBox="0 0 840.788688 501.47677" width="840.788688pt" xmlns="http://www.w3.org/2000/svg" xmlns:xlink="http://www.w3.org/1999/xlink">
 <metadata>
  <rdf:RDF xmlns:cc="http://creativecommons.org/ns#" xmlns:dc="http://purl.org/dc/elements/1.1/" xmlns:rdf="http://www.w3.org/1999/02/22-rdf-syntax-ns#">
   <cc:Work>
    <dc:type rdf:resource="http://purl.org/dc/dcmitype/StillImage"/>
    <dc:date>2022-05-07T13:24:02.974908</dc:date>
    <dc:format>image/svg+xml</dc:format>
    <dc:creator>
     <cc:Agent>
      <dc:title>Matplotlib v3.4.3, https://matplotlib.org/</dc:title>
     </cc:Agent>
    </dc:creator>
   </cc:Work>
  </rdf:RDF>
 </metadata>
 <defs>
  <style type="text/css">*{stroke-linecap:butt;stroke-linejoin:round;}</style>
 </defs>
 <g id="figure_1">
  <g id="patch_1">
   <path d="M 0 501.47677 
L 840.788688 501.47677 
L 840.788688 0 
L 0 0 
z
" style="fill:#ffffff;stroke:#ffffff;stroke-linejoin:miter;"/>
  </g>
  <g id="axes_1">
   <g id="patch_2">
    <path d="M 52.388688 234.334082 
L 415.737525 234.334082 
L 415.737525 22.244082 
L 52.388688 22.244082 
z
" style="fill:#ebebeb;"/>
   </g>
   <g id="matplotlib.axis_1">
    <g id="xtick_1">
     <g id="line2d_1">
      <path clip-path="url(#peb476a4e37)" d="M 68.904544 234.334082 
L 68.904544 22.244082 
" style="fill:none;stroke:#ffffff;"/>
     </g>
    </g>
    <g id="xtick_2">
     <g id="line2d_2">
      <path clip-path="url(#peb476a4e37)" d="M 134.967969 234.334082 
L 134.967969 22.244082 
" style="fill:none;stroke:#ffffff;"/>
     </g>
    </g>
    <g id="xtick_3">
     <g id="line2d_3">
      <path clip-path="url(#peb476a4e37)" d="M 201.031394 234.334082 
L 201.031394 22.244082 
" style="fill:none;stroke:#ffffff;"/>
     </g>
    </g>
    <g id="xtick_4">
     <g id="line2d_4">
      <path clip-path="url(#peb476a4e37)" d="M 267.094819 234.334082 
L 267.094819 22.244082 
" style="fill:none;stroke:#ffffff;"/>
     </g>
    </g>
    <g id="xtick_5">
     <g id="line2d_5">
      <path clip-path="url(#peb476a4e37)" d="M 333.158244 234.334082 
L 333.158244 22.244082 
" style="fill:none;stroke:#ffffff;"/>
     </g>
    </g>
    <g id="xtick_6">
     <g id="line2d_6">
      <path clip-path="url(#peb476a4e37)" d="M 399.221668 234.334082 
L 399.221668 22.244082 
" style="fill:none;stroke:#ffffff;"/>
     </g>
    </g>
    <g id="xtick_7">
     <g id="line2d_7">
      <path clip-path="url(#peb476a4e37)" d="M 101.936256 234.334082 
L 101.936256 22.244082 
" style="fill:none;stroke:#ffffff;stroke-width:0.5;"/>
     </g>
    </g>
    <g id="xtick_8">
     <g id="line2d_8">
      <path clip-path="url(#peb476a4e37)" d="M 167.999681 234.334082 
L 167.999681 22.244082 
" style="fill:none;stroke:#ffffff;stroke-width:0.5;"/>
     </g>
    </g>
    <g id="xtick_9">
     <g id="line2d_9">
      <path clip-path="url(#peb476a4e37)" d="M 234.063106 234.334082 
L 234.063106 22.244082 
" style="fill:none;stroke:#ffffff;stroke-width:0.5;"/>
     </g>
    </g>
    <g id="xtick_10">
     <g id="line2d_10">
      <path clip-path="url(#peb476a4e37)" d="M 300.126531 234.334082 
L 300.126531 22.244082 
" style="fill:none;stroke:#ffffff;stroke-width:0.5;"/>
     </g>
    </g>
    <g id="xtick_11">
     <g id="line2d_11">
      <path clip-path="url(#peb476a4e37)" d="M 366.189956 234.334082 
L 366.189956 22.244082 
" style="fill:none;stroke:#ffffff;stroke-width:0.5;"/>
     </g>
    </g>
   </g>
   <g id="matplotlib.axis_2">
    <g id="ytick_1">
     <g id="line2d_12">
      <path clip-path="url(#peb476a4e37)" d="M 52.388688 213.564435 
L 415.737525 213.564435 
" style="fill:none;stroke:#ffffff;"/>
     </g>
     <g id="line2d_13">
      <path d="M 52.388688 213.564435 
" style="fill:none;stroke:#333333;stroke-width:1.5;"/>
      <defs>
       <path d="M 0 0 
L -2.75 0 
" id="mf3d7274e3e" style="stroke:#000000;"/>
      </defs>
      <g>
       <use style="fill:#333333;stroke:#000000;" x="52.388688" xlink:href="#mf3d7274e3e" y="213.564435"/>
      </g>
     </g>
     <g id="text_1">
      <!-- 0.830 -->
      <g style="fill:#4d4d4d;" transform="translate(22.245938 215.992685)scale(0.088 -0.088)">
       <defs>
        <path d="M 2034 4250 
Q 1547 4250 1301 3770 
Q 1056 3291 1056 2328 
Q 1056 1369 1301 889 
Q 1547 409 2034 409 
Q 2525 409 2770 889 
Q 3016 1369 3016 2328 
Q 3016 3291 2770 3770 
Q 2525 4250 2034 4250 
z
M 2034 4750 
Q 2819 4750 3233 4129 
Q 3647 3509 3647 2328 
Q 3647 1150 3233 529 
Q 2819 -91 2034 -91 
Q 1250 -91 836 529 
Q 422 1150 422 2328 
Q 422 3509 836 4129 
Q 1250 4750 2034 4750 
z
" id="DejaVuSans-30" transform="scale(0.015625)"/>
        <path d="M 684 794 
L 1344 794 
L 1344 0 
L 684 0 
L 684 794 
z
" id="DejaVuSans-2e" transform="scale(0.015625)"/>
        <path d="M 2034 2216 
Q 1584 2216 1326 1975 
Q 1069 1734 1069 1313 
Q 1069 891 1326 650 
Q 1584 409 2034 409 
Q 2484 409 2743 651 
Q 3003 894 3003 1313 
Q 3003 1734 2745 1975 
Q 2488 2216 2034 2216 
z
M 1403 2484 
Q 997 2584 770 2862 
Q 544 3141 544 3541 
Q 544 4100 942 4425 
Q 1341 4750 2034 4750 
Q 2731 4750 3128 4425 
Q 3525 4100 3525 3541 
Q 3525 3141 3298 2862 
Q 3072 2584 2669 2484 
Q 3125 2378 3379 2068 
Q 3634 1759 3634 1313 
Q 3634 634 3220 271 
Q 2806 -91 2034 -91 
Q 1263 -91 848 271 
Q 434 634 434 1313 
Q 434 1759 690 2068 
Q 947 2378 1403 2484 
z
M 1172 3481 
Q 1172 3119 1398 2916 
Q 1625 2713 2034 2713 
Q 2441 2713 2670 2916 
Q 2900 3119 2900 3481 
Q 2900 3844 2670 4047 
Q 2441 4250 2034 4250 
Q 1625 4250 1398 4047 
Q 1172 3844 1172 3481 
z
" id="DejaVuSans-38" transform="scale(0.015625)"/>
        <path d="M 2597 2516 
Q 3050 2419 3304 2112 
Q 3559 1806 3559 1356 
Q 3559 666 3084 287 
Q 2609 -91 1734 -91 
Q 1441 -91 1130 -33 
Q 819 25 488 141 
L 488 750 
Q 750 597 1062 519 
Q 1375 441 1716 441 
Q 2309 441 2620 675 
Q 2931 909 2931 1356 
Q 2931 1769 2642 2001 
Q 2353 2234 1838 2234 
L 1294 2234 
L 1294 2753 
L 1863 2753 
Q 2328 2753 2575 2939 
Q 2822 3125 2822 3475 
Q 2822 3834 2567 4026 
Q 2313 4219 1838 4219 
Q 1578 4219 1281 4162 
Q 984 4106 628 3988 
L 628 4550 
Q 988 4650 1302 4700 
Q 1616 4750 1894 4750 
Q 2613 4750 3031 4423 
Q 3450 4097 3450 3541 
Q 3450 3153 3228 2886 
Q 3006 2619 2597 2516 
z
" id="DejaVuSans-33" transform="scale(0.015625)"/>
       </defs>
       <use xlink:href="#DejaVuSans-30"/>
       <use x="63.623047" xlink:href="#DejaVuSans-2e"/>
       <use x="95.410156" xlink:href="#DejaVuSans-38"/>
       <use x="159.033203" xlink:href="#DejaVuSans-33"/>
       <use x="222.65625" xlink:href="#DejaVuSans-30"/>
      </g>
     </g>
    </g>
    <g id="ytick_2">
     <g id="line2d_14">
      <path clip-path="url(#peb476a4e37)" d="M 52.388688 166.907064 
L 415.737525 166.907064 
" style="fill:none;stroke:#ffffff;"/>
     </g>
     <g id="line2d_15">
      <path d="M 52.388688 166.907064 
" style="fill:none;stroke:#333333;stroke-width:1.5;"/>
      <g>
       <use style="fill:#333333;stroke:#000000;" x="52.388688" xlink:href="#mf3d7274e3e" y="166.907064"/>
      </g>
     </g>
     <g id="text_2">
      <!-- 0.832 -->
      <g style="fill:#4d4d4d;" transform="translate(22.245938 169.335314)scale(0.088 -0.088)">
       <defs>
        <path d="M 1228 531 
L 3431 531 
L 3431 0 
L 469 0 
L 469 531 
Q 828 903 1448 1529 
Q 2069 2156 2228 2338 
Q 2531 2678 2651 2914 
Q 2772 3150 2772 3378 
Q 2772 3750 2511 3984 
Q 2250 4219 1831 4219 
Q 1534 4219 1204 4116 
Q 875 4013 500 3803 
L 500 4441 
Q 881 4594 1212 4672 
Q 1544 4750 1819 4750 
Q 2544 4750 2975 4387 
Q 3406 4025 3406 3419 
Q 3406 3131 3298 2873 
Q 3191 2616 2906 2266 
Q 2828 2175 2409 1742 
Q 1991 1309 1228 531 
z
" id="DejaVuSans-32" transform="scale(0.015625)"/>
       </defs>
       <use xlink:href="#DejaVuSans-30"/>
       <use x="63.623047" xlink:href="#DejaVuSans-2e"/>
       <use x="95.410156" xlink:href="#DejaVuSans-38"/>
       <use x="159.033203" xlink:href="#DejaVuSans-33"/>
       <use x="222.65625" xlink:href="#DejaVuSans-32"/>
      </g>
     </g>
    </g>
    <g id="ytick_3">
     <g id="line2d_16">
      <path clip-path="url(#peb476a4e37)" d="M 52.388688 120.249693 
L 415.737525 120.249693 
" style="fill:none;stroke:#ffffff;"/>
     </g>
     <g id="line2d_17">
      <path d="M 52.388688 120.249693 
" style="fill:none;stroke:#333333;stroke-width:1.5;"/>
      <g>
       <use style="fill:#333333;stroke:#000000;" x="52.388688" xlink:href="#mf3d7274e3e" y="120.249693"/>
      </g>
     </g>
     <g id="text_3">
      <!-- 0.834 -->
      <g style="fill:#4d4d4d;" transform="translate(22.245938 122.677943)scale(0.088 -0.088)">
       <defs>
        <path d="M 2419 4116 
L 825 1625 
L 2419 1625 
L 2419 4116 
z
M 2253 4666 
L 3047 4666 
L 3047 1625 
L 3713 1625 
L 3713 1100 
L 3047 1100 
L 3047 0 
L 2419 0 
L 2419 1100 
L 313 1100 
L 313 1709 
L 2253 4666 
z
" id="DejaVuSans-34" transform="scale(0.015625)"/>
       </defs>
       <use xlink:href="#DejaVuSans-30"/>
       <use x="63.623047" xlink:href="#DejaVuSans-2e"/>
       <use x="95.410156" xlink:href="#DejaVuSans-38"/>
       <use x="159.033203" xlink:href="#DejaVuSans-33"/>
       <use x="222.65625" xlink:href="#DejaVuSans-34"/>
      </g>
     </g>
    </g>
    <g id="ytick_4">
     <g id="line2d_18">
      <path clip-path="url(#peb476a4e37)" d="M 52.388688 73.592323 
L 415.737525 73.592323 
" style="fill:none;stroke:#ffffff;"/>
     </g>
     <g id="line2d_19">
      <path d="M 52.388688 73.592323 
" style="fill:none;stroke:#333333;stroke-width:1.5;"/>
      <g>
       <use style="fill:#333333;stroke:#000000;" x="52.388688" xlink:href="#mf3d7274e3e" y="73.592323"/>
      </g>
     </g>
     <g id="text_4">
      <!-- 0.836 -->
      <g style="fill:#4d4d4d;" transform="translate(22.245938 76.020573)scale(0.088 -0.088)">
       <defs>
        <path d="M 2113 2584 
Q 1688 2584 1439 2293 
Q 1191 2003 1191 1497 
Q 1191 994 1439 701 
Q 1688 409 2113 409 
Q 2538 409 2786 701 
Q 3034 994 3034 1497 
Q 3034 2003 2786 2293 
Q 2538 2584 2113 2584 
z
M 3366 4563 
L 3366 3988 
Q 3128 4100 2886 4159 
Q 2644 4219 2406 4219 
Q 1781 4219 1451 3797 
Q 1122 3375 1075 2522 
Q 1259 2794 1537 2939 
Q 1816 3084 2150 3084 
Q 2853 3084 3261 2657 
Q 3669 2231 3669 1497 
Q 3669 778 3244 343 
Q 2819 -91 2113 -91 
Q 1303 -91 875 529 
Q 447 1150 447 2328 
Q 447 3434 972 4092 
Q 1497 4750 2381 4750 
Q 2619 4750 2861 4703 
Q 3103 4656 3366 4563 
z
" id="DejaVuSans-36" transform="scale(0.015625)"/>
       </defs>
       <use xlink:href="#DejaVuSans-30"/>
       <use x="63.623047" xlink:href="#DejaVuSans-2e"/>
       <use x="95.410156" xlink:href="#DejaVuSans-38"/>
       <use x="159.033203" xlink:href="#DejaVuSans-33"/>
       <use x="222.65625" xlink:href="#DejaVuSans-36"/>
      </g>
     </g>
    </g>
    <g id="ytick_5">
     <g id="line2d_20">
      <path clip-path="url(#peb476a4e37)" d="M 52.388688 26.934952 
L 415.737525 26.934952 
" style="fill:none;stroke:#ffffff;"/>
     </g>
     <g id="line2d_21">
      <path d="M 52.388688 26.934952 
" style="fill:none;stroke:#333333;stroke-width:1.5;"/>
      <g>
       <use style="fill:#333333;stroke:#000000;" x="52.388688" xlink:href="#mf3d7274e3e" y="26.934952"/>
      </g>
     </g>
     <g id="text_5">
      <!-- 0.838 -->
      <g style="fill:#4d4d4d;" transform="translate(22.245938 29.363202)scale(0.088 -0.088)">
       <use xlink:href="#DejaVuSans-30"/>
       <use x="63.623047" xlink:href="#DejaVuSans-2e"/>
       <use x="95.410156" xlink:href="#DejaVuSans-38"/>
       <use x="159.033203" xlink:href="#DejaVuSans-33"/>
       <use x="222.65625" xlink:href="#DejaVuSans-38"/>
      </g>
     </g>
    </g>
    <g id="ytick_6">
     <g id="line2d_22">
      <path clip-path="url(#peb476a4e37)" d="M 52.388688 190.23575 
L 415.737525 190.23575 
" style="fill:none;stroke:#ffffff;stroke-width:0.5;"/>
     </g>
    </g>
    <g id="ytick_7">
     <g id="line2d_23">
      <path clip-path="url(#peb476a4e37)" d="M 52.388688 143.578379 
L 415.737525 143.578379 
" style="fill:none;stroke:#ffffff;stroke-width:0.5;"/>
     </g>
    </g>
    <g id="ytick_8">
     <g id="line2d_24">
      <path clip-path="url(#peb476a4e37)" d="M 52.388688 96.921008 
L 415.737525 96.921008 
" style="fill:none;stroke:#ffffff;stroke-width:0.5;"/>
     </g>
    </g>
    <g id="ytick_9">
     <g id="line2d_25">
      <path clip-path="url(#peb476a4e37)" d="M 52.388688 50.263637 
L 415.737525 50.263637 
" style="fill:none;stroke:#ffffff;stroke-width:0.5;"/>
     </g>
    </g>
    <g id="text_6">
     <!-- Value -->
     <g transform="translate(15.558281 256.228457)rotate(-90)scale(0.11 -0.11)">
      <defs>
       <path d="M 1831 0 
L 50 4666 
L 709 4666 
L 2188 738 
L 3669 4666 
L 4325 4666 
L 2547 0 
L 1831 0 
z
" id="DejaVuSans-56" transform="scale(0.015625)"/>
       <path d="M 2194 1759 
Q 1497 1759 1228 1600 
Q 959 1441 959 1056 
Q 959 750 1161 570 
Q 1363 391 1709 391 
Q 2188 391 2477 730 
Q 2766 1069 2766 1631 
L 2766 1759 
L 2194 1759 
z
M 3341 1997 
L 3341 0 
L 2766 0 
L 2766 531 
Q 2569 213 2275 61 
Q 1981 -91 1556 -91 
Q 1019 -91 701 211 
Q 384 513 384 1019 
Q 384 1609 779 1909 
Q 1175 2209 1959 2209 
L 2766 2209 
L 2766 2266 
Q 2766 2663 2505 2880 
Q 2244 3097 1772 3097 
Q 1472 3097 1187 3025 
Q 903 2953 641 2809 
L 641 3341 
Q 956 3463 1253 3523 
Q 1550 3584 1831 3584 
Q 2591 3584 2966 3190 
Q 3341 2797 3341 1997 
z
" id="DejaVuSans-61" transform="scale(0.015625)"/>
       <path d="M 603 4863 
L 1178 4863 
L 1178 0 
L 603 0 
L 603 4863 
z
" id="DejaVuSans-6c" transform="scale(0.015625)"/>
       <path d="M 544 1381 
L 544 3500 
L 1119 3500 
L 1119 1403 
Q 1119 906 1312 657 
Q 1506 409 1894 409 
Q 2359 409 2629 706 
Q 2900 1003 2900 1516 
L 2900 3500 
L 3475 3500 
L 3475 0 
L 2900 0 
L 2900 538 
Q 2691 219 2414 64 
Q 2138 -91 1772 -91 
Q 1169 -91 856 284 
Q 544 659 544 1381 
z
M 1991 3584 
L 1991 3584 
z
" id="DejaVuSans-75" transform="scale(0.015625)"/>
       <path d="M 3597 1894 
L 3597 1613 
L 953 1613 
Q 991 1019 1311 708 
Q 1631 397 2203 397 
Q 2534 397 2845 478 
Q 3156 559 3463 722 
L 3463 178 
Q 3153 47 2828 -22 
Q 2503 -91 2169 -91 
Q 1331 -91 842 396 
Q 353 884 353 1716 
Q 353 2575 817 3079 
Q 1281 3584 2069 3584 
Q 2775 3584 3186 3129 
Q 3597 2675 3597 1894 
z
M 3022 2063 
Q 3016 2534 2758 2815 
Q 2500 3097 2075 3097 
Q 1594 3097 1305 2825 
Q 1016 2553 972 2059 
L 3022 2063 
z
" id="DejaVuSans-65" transform="scale(0.015625)"/>
      </defs>
      <use xlink:href="#DejaVuSans-56"/>
      <use x="60.658203" xlink:href="#DejaVuSans-61"/>
      <use x="121.9375" xlink:href="#DejaVuSans-6c"/>
      <use x="149.720703" xlink:href="#DejaVuSans-75"/>
      <use x="213.099609" xlink:href="#DejaVuSans-65"/>
     </g>
    </g>
   </g>
   <g id="line2d_26">
    <path clip-path="url(#peb476a4e37)" d="M 68.904544 166.628235 
L 399.221668 84.218802 
" style="fill:none;stroke:#000000;stroke-width:0.886227;"/>
   </g>
   <g id="PathCollection_1">
    <path clip-path="url(#peb476a4e37)" d="M 68.904544 168.400689 
C 69.374604 168.400689 69.825475 168.213932 70.157858 167.881549 
C 70.490241 167.549167 70.676998 167.098296 70.676998 166.628235 
C 70.676998 166.158175 70.490241 165.707304 70.157858 165.374921 
C 69.825475 165.042538 69.374604 164.855781 68.904544 164.855781 
C 68.434483 164.855781 67.983612 165.042538 67.65123 165.374921 
C 67.318847 165.707304 67.13209 166.158175 67.13209 166.628235 
C 67.13209 167.098296 67.318847 167.549167 67.65123 167.881549 
C 67.983612 168.213932 68.434483 168.400689 68.904544 168.400689 
z
" style="stroke:#000000;stroke-width:0.886227;"/>
    <path clip-path="url(#peb476a4e37)" d="M 399.221668 85.991256 
C 399.691729 85.991256 400.1426 85.804499 400.474983 85.472116 
C 400.807365 85.139733 400.994122 84.688862 400.994122 84.218802 
C 400.994122 83.748742 400.807365 83.297871 400.474983 82.965488 
C 400.1426 82.633105 399.691729 82.446348 399.221668 82.446348 
C 398.751608 82.446348 398.300737 82.633105 397.968354 82.965488 
C 397.635972 83.297871 397.449215 83.748742 397.449215 84.218802 
C 397.449215 84.688862 397.635972 85.139733 397.968354 85.472116 
C 398.300737 85.804499 398.751608 85.991256 399.221668 85.991256 
z
" style="stroke:#000000;stroke-width:0.886227;"/>
   </g>
   <g id="patch_3">
    <path d="M 52.388688 22.244082 
L 415.737525 22.244082 
L 415.737525 7.2 
L 52.388688 7.2 
z
" style="fill:#d9d9d9;"/>
   </g>
   <g id="PolyCollection_1">
    <path clip-path="url(#peb476a4e37)" d="M 68.904544 108.562843 
L 68.904544 224.693628 
L 399.221668 136.553067 
L 399.221668 31.884537 
L 399.221668 31.884537 
L 68.904544 108.562843 
z
" style="fill:#333333;fill-opacity:0.501961;"/>
   </g>
   <g id="text_7">
    <!-- Accuracy -->
    <g style="fill:#1a1a1a;" transform="translate(213.974356 17.150291)scale(0.088 -0.088)">
     <defs>
      <path d="M 2188 4044 
L 1331 1722 
L 3047 1722 
L 2188 4044 
z
M 1831 4666 
L 2547 4666 
L 4325 0 
L 3669 0 
L 3244 1197 
L 1141 1197 
L 716 0 
L 50 0 
L 1831 4666 
z
" id="DejaVuSans-41" transform="scale(0.015625)"/>
      <path d="M 3122 3366 
L 3122 2828 
Q 2878 2963 2633 3030 
Q 2388 3097 2138 3097 
Q 1578 3097 1268 2742 
Q 959 2388 959 1747 
Q 959 1106 1268 751 
Q 1578 397 2138 397 
Q 2388 397 2633 464 
Q 2878 531 3122 666 
L 3122 134 
Q 2881 22 2623 -34 
Q 2366 -91 2075 -91 
Q 1284 -91 818 406 
Q 353 903 353 1747 
Q 353 2603 823 3093 
Q 1294 3584 2113 3584 
Q 2378 3584 2631 3529 
Q 2884 3475 3122 3366 
z
" id="DejaVuSans-63" transform="scale(0.015625)"/>
      <path d="M 2631 2963 
Q 2534 3019 2420 3045 
Q 2306 3072 2169 3072 
Q 1681 3072 1420 2755 
Q 1159 2438 1159 1844 
L 1159 0 
L 581 0 
L 581 3500 
L 1159 3500 
L 1159 2956 
Q 1341 3275 1631 3429 
Q 1922 3584 2338 3584 
Q 2397 3584 2469 3576 
Q 2541 3569 2628 3553 
L 2631 2963 
z
" id="DejaVuSans-72" transform="scale(0.015625)"/>
      <path d="M 2059 -325 
Q 1816 -950 1584 -1140 
Q 1353 -1331 966 -1331 
L 506 -1331 
L 506 -850 
L 844 -850 
Q 1081 -850 1212 -737 
Q 1344 -625 1503 -206 
L 1606 56 
L 191 3500 
L 800 3500 
L 1894 763 
L 2988 3500 
L 3597 3500 
L 2059 -325 
z
" id="DejaVuSans-79" transform="scale(0.015625)"/>
     </defs>
     <use xlink:href="#DejaVuSans-41"/>
     <use x="66.658203" xlink:href="#DejaVuSans-63"/>
     <use x="121.638672" xlink:href="#DejaVuSans-63"/>
     <use x="176.619141" xlink:href="#DejaVuSans-75"/>
     <use x="239.998047" xlink:href="#DejaVuSans-72"/>
     <use x="281.111328" xlink:href="#DejaVuSans-61"/>
     <use x="342.390625" xlink:href="#DejaVuSans-63"/>
     <use x="397.371094" xlink:href="#DejaVuSans-79"/>
    </g>
   </g>
  </g>
  <g id="axes_2">
   <g id="patch_4">
    <path d="M 470.23985 234.334082 
L 833.588688 234.334082 
L 833.588688 22.244082 
L 470.23985 22.244082 
z
" style="fill:#ebebeb;"/>
   </g>
   <g id="matplotlib.axis_3">
    <g id="xtick_12">
     <g id="line2d_27">
      <path clip-path="url(#pc2b6266d15)" d="M 486.755707 234.334082 
L 486.755707 22.244082 
" style="fill:none;stroke:#ffffff;stroke-linecap:square;"/>
     </g>
    </g>
    <g id="xtick_13">
     <g id="line2d_28">
      <path clip-path="url(#pc2b6266d15)" d="M 552.819131 234.334082 
L 552.819131 22.244082 
" style="fill:none;stroke:#ffffff;stroke-linecap:square;"/>
     </g>
    </g>
    <g id="xtick_14">
     <g id="line2d_29">
      <path clip-path="url(#pc2b6266d15)" d="M 618.882556 234.334082 
L 618.882556 22.244082 
" style="fill:none;stroke:#ffffff;stroke-linecap:square;"/>
     </g>
    </g>
    <g id="xtick_15">
     <g id="line2d_30">
      <path clip-path="url(#pc2b6266d15)" d="M 684.945981 234.334082 
L 684.945981 22.244082 
" style="fill:none;stroke:#ffffff;stroke-linecap:square;"/>
     </g>
    </g>
    <g id="xtick_16">
     <g id="line2d_31">
      <path clip-path="url(#pc2b6266d15)" d="M 751.009406 234.334082 
L 751.009406 22.244082 
" style="fill:none;stroke:#ffffff;stroke-linecap:square;"/>
     </g>
    </g>
    <g id="xtick_17">
     <g id="line2d_32">
      <path clip-path="url(#pc2b6266d15)" d="M 817.072831 234.334082 
L 817.072831 22.244082 
" style="fill:none;stroke:#ffffff;stroke-linecap:square;"/>
     </g>
    </g>
    <g id="xtick_18">
     <g id="line2d_33">
      <path clip-path="url(#pc2b6266d15)" d="M 519.787419 234.334082 
L 519.787419 22.244082 
" style="fill:none;stroke:#ffffff;stroke-linecap:square;stroke-width:0.5;"/>
     </g>
    </g>
    <g id="xtick_19">
     <g id="line2d_34">
      <path clip-path="url(#pc2b6266d15)" d="M 585.850844 234.334082 
L 585.850844 22.244082 
" style="fill:none;stroke:#ffffff;stroke-linecap:square;stroke-width:0.5;"/>
     </g>
    </g>
    <g id="xtick_20">
     <g id="line2d_35">
      <path clip-path="url(#pc2b6266d15)" d="M 651.914269 234.334082 
L 651.914269 22.244082 
" style="fill:none;stroke:#ffffff;stroke-linecap:square;stroke-width:0.5;"/>
     </g>
    </g>
    <g id="xtick_21">
     <g id="line2d_36">
      <path clip-path="url(#pc2b6266d15)" d="M 717.977694 234.334082 
L 717.977694 22.244082 
" style="fill:none;stroke:#ffffff;stroke-linecap:square;stroke-width:0.5;"/>
     </g>
    </g>
    <g id="xtick_22">
     <g id="line2d_37">
      <path clip-path="url(#pc2b6266d15)" d="M 784.041119 234.334082 
L 784.041119 22.244082 
" style="fill:none;stroke:#ffffff;stroke-linecap:square;stroke-width:0.5;"/>
     </g>
    </g>
   </g>
   <g id="matplotlib.axis_4">
    <g id="ytick_10">
     <g id="line2d_38">
      <path clip-path="url(#pc2b6266d15)" d="M 470.23985 189.205397 
L 833.588688 189.205397 
" style="fill:none;stroke:#ffffff;stroke-linecap:square;"/>
     </g>
     <g id="line2d_39">
      <path d="M 470.23985 189.205397 
" style="fill:none;stroke:#333333;stroke-linecap:square;stroke-width:1.5;"/>
      <g>
       <use style="fill:#333333;stroke:#000000;" x="470.23985" xlink:href="#mf3d7274e3e" y="189.205397"/>
      </g>
     </g>
     <g id="text_8">
      <!-- 0.884 -->
      <g style="fill:#4d4d4d;" transform="translate(440.0971 191.633647)scale(0.088 -0.088)">
       <use xlink:href="#DejaVuSans-30"/>
       <use x="63.623047" xlink:href="#DejaVuSans-2e"/>
       <use x="95.410156" xlink:href="#DejaVuSans-38"/>
       <use x="159.033203" xlink:href="#DejaVuSans-38"/>
       <use x="222.65625" xlink:href="#DejaVuSans-34"/>
      </g>
     </g>
    </g>
    <g id="ytick_11">
     <g id="line2d_40">
      <path clip-path="url(#pc2b6266d15)" d="M 470.23985 124.549002 
L 833.588688 124.549002 
" style="fill:none;stroke:#ffffff;stroke-linecap:square;"/>
     </g>
     <g id="line2d_41">
      <path d="M 470.23985 124.549002 
" style="fill:none;stroke:#333333;stroke-linecap:square;stroke-width:1.5;"/>
      <g>
       <use style="fill:#333333;stroke:#000000;" x="470.23985" xlink:href="#mf3d7274e3e" y="124.549002"/>
      </g>
     </g>
     <g id="text_9">
      <!-- 0.886 -->
      <g style="fill:#4d4d4d;" transform="translate(440.0971 126.977252)scale(0.088 -0.088)">
       <use xlink:href="#DejaVuSans-30"/>
       <use x="63.623047" xlink:href="#DejaVuSans-2e"/>
       <use x="95.410156" xlink:href="#DejaVuSans-38"/>
       <use x="159.033203" xlink:href="#DejaVuSans-38"/>
       <use x="222.65625" xlink:href="#DejaVuSans-36"/>
      </g>
     </g>
    </g>
    <g id="ytick_12">
     <g id="line2d_42">
      <path clip-path="url(#pc2b6266d15)" d="M 470.23985 59.892607 
L 833.588688 59.892607 
" style="fill:none;stroke:#ffffff;stroke-linecap:square;"/>
     </g>
     <g id="line2d_43">
      <path d="M 470.23985 59.892607 
" style="fill:none;stroke:#333333;stroke-linecap:square;stroke-width:1.5;"/>
      <g>
       <use style="fill:#333333;stroke:#000000;" x="470.23985" xlink:href="#mf3d7274e3e" y="59.892607"/>
      </g>
     </g>
     <g id="text_10">
      <!-- 0.888 -->
      <g style="fill:#4d4d4d;" transform="translate(440.0971 62.320857)scale(0.088 -0.088)">
       <use xlink:href="#DejaVuSans-30"/>
       <use x="63.623047" xlink:href="#DejaVuSans-2e"/>
       <use x="95.410156" xlink:href="#DejaVuSans-38"/>
       <use x="159.033203" xlink:href="#DejaVuSans-38"/>
       <use x="222.65625" xlink:href="#DejaVuSans-38"/>
      </g>
     </g>
    </g>
    <g id="ytick_13">
     <g id="line2d_44">
      <path clip-path="url(#pc2b6266d15)" d="M 470.23985 221.533594 
L 833.588688 221.533594 
" style="fill:none;stroke:#ffffff;stroke-linecap:square;stroke-width:0.5;"/>
     </g>
    </g>
    <g id="ytick_14">
     <g id="line2d_45">
      <path clip-path="url(#pc2b6266d15)" d="M 470.23985 156.877199 
L 833.588688 156.877199 
" style="fill:none;stroke:#ffffff;stroke-linecap:square;stroke-width:0.5;"/>
     </g>
    </g>
    <g id="ytick_15">
     <g id="line2d_46">
      <path clip-path="url(#pc2b6266d15)" d="M 470.23985 92.220804 
L 833.588688 92.220804 
" style="fill:none;stroke:#ffffff;stroke-linecap:square;stroke-width:0.5;"/>
     </g>
    </g>
    <g id="ytick_16">
     <g id="line2d_47">
      <path clip-path="url(#pc2b6266d15)" d="M 470.23985 27.564409 
L 833.588688 27.564409 
" style="fill:none;stroke:#ffffff;stroke-linecap:square;stroke-width:0.5;"/>
     </g>
    </g>
   </g>
   <g id="line2d_48">
    <path clip-path="url(#pc2b6266d15)" d="M 486.755707 173.836005 
L 817.072831 95.633947 
" style="fill:none;stroke:#000000;stroke-width:0.886227;"/>
   </g>
   <g id="PathCollection_2">
    <path clip-path="url(#pc2b6266d15)" d="M 486.755707 175.608459 
C 487.225767 175.608459 487.676638 175.421702 488.009021 175.089319 
C 488.341403 174.756936 488.52816 174.306065 488.52816 173.836005 
C 488.52816 173.365945 488.341403 172.915073 488.009021 172.582691 
C 487.676638 172.250308 487.225767 172.063551 486.755707 172.063551 
C 486.285646 172.063551 485.834775 172.250308 485.502392 172.582691 
C 485.17001 172.915073 484.983253 173.365945 484.983253 173.836005 
C 484.983253 174.306065 485.17001 174.756936 485.502392 175.089319 
C 485.834775 175.421702 486.285646 175.608459 486.755707 175.608459 
z
" style="stroke:#000000;stroke-width:0.886227;"/>
    <path clip-path="url(#pc2b6266d15)" d="M 817.072831 97.406401 
C 817.542892 97.406401 817.993763 97.219644 818.326145 96.887261 
C 818.658528 96.554879 818.845285 96.104008 818.845285 95.633947 
C 818.845285 95.163887 818.658528 94.713016 818.326145 94.380633 
C 817.993763 94.04825 817.542892 93.861493 817.072831 93.861493 
C 816.602771 93.861493 816.1519 94.04825 815.819517 94.380633 
C 815.487134 94.713016 815.300377 95.163887 815.300377 95.633947 
C 815.300377 96.104008 815.487134 96.554879 815.819517 96.887261 
C 816.1519 97.219644 816.602771 97.406401 817.072831 97.406401 
z
" style="stroke:#000000;stroke-width:0.886227;"/>
   </g>
   <g id="patch_5">
    <path d="M 470.23985 22.244082 
L 833.588688 22.244082 
L 833.588688 7.2 
L 470.23985 7.2 
z
" style="fill:#d9d9d9;"/>
   </g>
   <g id="PolyCollection_2">
    <path clip-path="url(#pc2b6266d15)" d="M 486.755707 122.978382 
L 486.755707 224.693628 
L 817.072831 159.383358 
L 817.072831 31.884537 
L 817.072831 31.884537 
L 486.755707 122.978382 
z
" style="fill:#333333;fill-opacity:0.501961;"/>
   </g>
   <g id="text_11">
    <!-- AUC -->
    <g style="fill:#1a1a1a;" transform="translate(642.611706 17.150291)scale(0.088 -0.088)">
     <defs>
      <path d="M 556 4666 
L 1191 4666 
L 1191 1831 
Q 1191 1081 1462 751 
Q 1734 422 2344 422 
Q 2950 422 3222 751 
Q 3494 1081 3494 1831 
L 3494 4666 
L 4128 4666 
L 4128 1753 
Q 4128 841 3676 375 
Q 3225 -91 2344 -91 
Q 1459 -91 1007 375 
Q 556 841 556 1753 
L 556 4666 
z
" id="DejaVuSans-55" transform="scale(0.015625)"/>
      <path d="M 4122 4306 
L 4122 3641 
Q 3803 3938 3442 4084 
Q 3081 4231 2675 4231 
Q 1875 4231 1450 3742 
Q 1025 3253 1025 2328 
Q 1025 1406 1450 917 
Q 1875 428 2675 428 
Q 3081 428 3442 575 
Q 3803 722 4122 1019 
L 4122 359 
Q 3791 134 3420 21 
Q 3050 -91 2638 -91 
Q 1578 -91 968 557 
Q 359 1206 359 2328 
Q 359 3453 968 4101 
Q 1578 4750 2638 4750 
Q 3056 4750 3426 4639 
Q 3797 4528 4122 4306 
z
" id="DejaVuSans-43" transform="scale(0.015625)"/>
     </defs>
     <use xlink:href="#DejaVuSans-41"/>
     <use x="68.408203" xlink:href="#DejaVuSans-55"/>
     <use x="141.601562" xlink:href="#DejaVuSans-43"/>
    </g>
   </g>
  </g>
  <g id="axes_3">
   <g id="patch_6">
    <path d="M 52.388688 465.764082 
L 415.737525 465.764082 
L 415.737525 253.674082 
L 52.388688 253.674082 
z
" style="fill:#ebebeb;"/>
   </g>
   <g id="matplotlib.axis_5">
    <g id="xtick_23">
     <g id="line2d_49">
      <path clip-path="url(#pa569421b27)" d="M 68.904544 465.764082 
L 68.904544 253.674082 
" style="fill:none;stroke:#ffffff;stroke-linecap:square;"/>
     </g>
     <g id="line2d_50">
      <path d="M 68.904544 465.764082 
" style="fill:none;stroke:#333333;stroke-linecap:square;stroke-width:1.5;"/>
      <defs>
       <path d="M 0 0 
L 0 2.75 
" id="m8d3f19022a" style="stroke:#000000;"/>
      </defs>
      <g>
       <use style="fill:#333333;stroke:#000000;" x="68.904544" xlink:href="#m8d3f19022a" y="465.764082"/>
      </g>
     </g>
     <g id="text_12">
      <!-- 0 -->
      <g style="fill:#4d4d4d;" transform="translate(66.105044 477.400707)scale(0.088 -0.088)">
       <use xlink:href="#DejaVuSans-30"/>
      </g>
     </g>
    </g>
    <g id="xtick_24">
     <g id="line2d_51">
      <path clip-path="url(#pa569421b27)" d="M 134.967969 465.764082 
L 134.967969 253.674082 
" style="fill:none;stroke:#ffffff;stroke-linecap:square;"/>
     </g>
     <g id="line2d_52">
      <path d="M 134.967969 465.764082 
" style="fill:none;stroke:#333333;stroke-linecap:square;stroke-width:1.5;"/>
      <g>
       <use style="fill:#333333;stroke:#000000;" x="134.967969" xlink:href="#m8d3f19022a" y="465.764082"/>
      </g>
     </g>
     <g id="text_13">
      <!-- 0.01 -->
      <g style="fill:#4d4d4d;" transform="translate(125.171094 477.400707)scale(0.088 -0.088)">
       <defs>
        <path d="M 794 531 
L 1825 531 
L 1825 4091 
L 703 3866 
L 703 4441 
L 1819 4666 
L 2450 4666 
L 2450 531 
L 3481 531 
L 3481 0 
L 794 0 
L 794 531 
z
" id="DejaVuSans-31" transform="scale(0.015625)"/>
       </defs>
       <use xlink:href="#DejaVuSans-30"/>
       <use x="63.623047" xlink:href="#DejaVuSans-2e"/>
       <use x="95.410156" xlink:href="#DejaVuSans-30"/>
       <use x="159.033203" xlink:href="#DejaVuSans-31"/>
      </g>
     </g>
    </g>
    <g id="xtick_25">
     <g id="line2d_53">
      <path clip-path="url(#pa569421b27)" d="M 201.031394 465.764082 
L 201.031394 253.674082 
" style="fill:none;stroke:#ffffff;stroke-linecap:square;"/>
     </g>
     <g id="line2d_54">
      <path d="M 201.031394 465.764082 
" style="fill:none;stroke:#333333;stroke-linecap:square;stroke-width:1.5;"/>
      <g>
       <use style="fill:#333333;stroke:#000000;" x="201.031394" xlink:href="#m8d3f19022a" y="465.764082"/>
      </g>
     </g>
     <g id="text_14">
      <!-- 0.02 -->
      <g style="fill:#4d4d4d;" transform="translate(191.234519 477.400707)scale(0.088 -0.088)">
       <use xlink:href="#DejaVuSans-30"/>
       <use x="63.623047" xlink:href="#DejaVuSans-2e"/>
       <use x="95.410156" xlink:href="#DejaVuSans-30"/>
       <use x="159.033203" xlink:href="#DejaVuSans-32"/>
      </g>
     </g>
    </g>
    <g id="xtick_26">
     <g id="line2d_55">
      <path clip-path="url(#pa569421b27)" d="M 267.094819 465.764082 
L 267.094819 253.674082 
" style="fill:none;stroke:#ffffff;stroke-linecap:square;"/>
     </g>
     <g id="line2d_56">
      <path d="M 267.094819 465.764082 
" style="fill:none;stroke:#333333;stroke-linecap:square;stroke-width:1.5;"/>
      <g>
       <use style="fill:#333333;stroke:#000000;" x="267.094819" xlink:href="#m8d3f19022a" y="465.764082"/>
      </g>
     </g>
     <g id="text_15">
      <!-- 0.03 -->
      <g style="fill:#4d4d4d;" transform="translate(257.297944 477.400707)scale(0.088 -0.088)">
       <use xlink:href="#DejaVuSans-30"/>
       <use x="63.623047" xlink:href="#DejaVuSans-2e"/>
       <use x="95.410156" xlink:href="#DejaVuSans-30"/>
       <use x="159.033203" xlink:href="#DejaVuSans-33"/>
      </g>
     </g>
    </g>
    <g id="xtick_27">
     <g id="line2d_57">
      <path clip-path="url(#pa569421b27)" d="M 333.158244 465.764082 
L 333.158244 253.674082 
" style="fill:none;stroke:#ffffff;stroke-linecap:square;"/>
     </g>
     <g id="line2d_58">
      <path d="M 333.158244 465.764082 
" style="fill:none;stroke:#333333;stroke-linecap:square;stroke-width:1.5;"/>
      <g>
       <use style="fill:#333333;stroke:#000000;" x="333.158244" xlink:href="#m8d3f19022a" y="465.764082"/>
      </g>
     </g>
     <g id="text_16">
      <!-- 0.04 -->
      <g style="fill:#4d4d4d;" transform="translate(323.361369 477.400707)scale(0.088 -0.088)">
       <use xlink:href="#DejaVuSans-30"/>
       <use x="63.623047" xlink:href="#DejaVuSans-2e"/>
       <use x="95.410156" xlink:href="#DejaVuSans-30"/>
       <use x="159.033203" xlink:href="#DejaVuSans-34"/>
      </g>
     </g>
    </g>
    <g id="xtick_28">
     <g id="line2d_59">
      <path clip-path="url(#pa569421b27)" d="M 399.221668 465.764082 
L 399.221668 253.674082 
" style="fill:none;stroke:#ffffff;stroke-linecap:square;"/>
     </g>
     <g id="line2d_60">
      <path d="M 399.221668 465.764082 
" style="fill:none;stroke:#333333;stroke-linecap:square;stroke-width:1.5;"/>
      <g>
       <use style="fill:#333333;stroke:#000000;" x="399.221668" xlink:href="#m8d3f19022a" y="465.764082"/>
      </g>
     </g>
     <g id="text_17">
      <!-- 0.05 -->
      <g style="fill:#4d4d4d;" transform="translate(389.424793 477.400707)scale(0.088 -0.088)">
       <defs>
        <path d="M 691 4666 
L 3169 4666 
L 3169 4134 
L 1269 4134 
L 1269 2991 
Q 1406 3038 1543 3061 
Q 1681 3084 1819 3084 
Q 2600 3084 3056 2656 
Q 3513 2228 3513 1497 
Q 3513 744 3044 326 
Q 2575 -91 1722 -91 
Q 1428 -91 1123 -41 
Q 819 9 494 109 
L 494 744 
Q 775 591 1075 516 
Q 1375 441 1709 441 
Q 2250 441 2565 725 
Q 2881 1009 2881 1497 
Q 2881 1984 2565 2268 
Q 2250 2553 1709 2553 
Q 1456 2553 1204 2497 
Q 953 2441 691 2322 
L 691 4666 
z
" id="DejaVuSans-35" transform="scale(0.015625)"/>
       </defs>
       <use xlink:href="#DejaVuSans-30"/>
       <use x="63.623047" xlink:href="#DejaVuSans-2e"/>
       <use x="95.410156" xlink:href="#DejaVuSans-30"/>
       <use x="159.033203" xlink:href="#DejaVuSans-35"/>
      </g>
     </g>
    </g>
    <g id="xtick_29">
     <g id="line2d_61">
      <path clip-path="url(#pa569421b27)" d="M 101.936256 465.764082 
L 101.936256 253.674082 
" style="fill:none;stroke:#ffffff;stroke-linecap:square;stroke-width:0.5;"/>
     </g>
    </g>
    <g id="xtick_30">
     <g id="line2d_62">
      <path clip-path="url(#pa569421b27)" d="M 167.999681 465.764082 
L 167.999681 253.674082 
" style="fill:none;stroke:#ffffff;stroke-linecap:square;stroke-width:0.5;"/>
     </g>
    </g>
    <g id="xtick_31">
     <g id="line2d_63">
      <path clip-path="url(#pa569421b27)" d="M 234.063106 465.764082 
L 234.063106 253.674082 
" style="fill:none;stroke:#ffffff;stroke-linecap:square;stroke-width:0.5;"/>
     </g>
    </g>
    <g id="xtick_32">
     <g id="line2d_64">
      <path clip-path="url(#pa569421b27)" d="M 300.126531 465.764082 
L 300.126531 253.674082 
" style="fill:none;stroke:#ffffff;stroke-linecap:square;stroke-width:0.5;"/>
     </g>
    </g>
    <g id="xtick_33">
     <g id="line2d_65">
      <path clip-path="url(#pa569421b27)" d="M 366.189956 465.764082 
L 366.189956 253.674082 
" style="fill:none;stroke:#ffffff;stroke-linecap:square;stroke-width:0.5;"/>
     </g>
    </g>
   </g>
   <g id="matplotlib.axis_6">
    <g id="ytick_17">
     <g id="line2d_66">
      <path clip-path="url(#pa569421b27)" d="M 52.388688 415.764201 
L 415.737525 415.764201 
" style="fill:none;stroke:#ffffff;stroke-linecap:square;"/>
     </g>
     <g id="line2d_67">
      <path d="M 52.388688 415.764201 
" style="fill:none;stroke:#333333;stroke-linecap:square;stroke-width:1.5;"/>
      <g>
       <use style="fill:#333333;stroke:#000000;" x="52.388688" xlink:href="#mf3d7274e3e" y="415.764201"/>
      </g>
     </g>
     <g id="text_18">
      <!-- 0.889 -->
      <g style="fill:#4d4d4d;" transform="translate(22.245938 418.192451)scale(0.088 -0.088)">
       <defs>
        <path d="M 703 97 
L 703 672 
Q 941 559 1184 500 
Q 1428 441 1663 441 
Q 2288 441 2617 861 
Q 2947 1281 2994 2138 
Q 2813 1869 2534 1725 
Q 2256 1581 1919 1581 
Q 1219 1581 811 2004 
Q 403 2428 403 3163 
Q 403 3881 828 4315 
Q 1253 4750 1959 4750 
Q 2769 4750 3195 4129 
Q 3622 3509 3622 2328 
Q 3622 1225 3098 567 
Q 2575 -91 1691 -91 
Q 1453 -91 1209 -44 
Q 966 3 703 97 
z
M 1959 2075 
Q 2384 2075 2632 2365 
Q 2881 2656 2881 3163 
Q 2881 3666 2632 3958 
Q 2384 4250 1959 4250 
Q 1534 4250 1286 3958 
Q 1038 3666 1038 3163 
Q 1038 2656 1286 2365 
Q 1534 2075 1959 2075 
z
" id="DejaVuSans-39" transform="scale(0.015625)"/>
       </defs>
       <use xlink:href="#DejaVuSans-30"/>
       <use x="63.623047" xlink:href="#DejaVuSans-2e"/>
       <use x="95.410156" xlink:href="#DejaVuSans-38"/>
       <use x="159.033203" xlink:href="#DejaVuSans-38"/>
       <use x="222.65625" xlink:href="#DejaVuSans-39"/>
      </g>
     </g>
    </g>
    <g id="ytick_18">
     <g id="line2d_68">
      <path clip-path="url(#pa569421b27)" d="M 52.388688 360.1557 
L 415.737525 360.1557 
" style="fill:none;stroke:#ffffff;stroke-linecap:square;"/>
     </g>
     <g id="line2d_69">
      <path d="M 52.388688 360.1557 
" style="fill:none;stroke:#333333;stroke-linecap:square;stroke-width:1.5;"/>
      <g>
       <use style="fill:#333333;stroke:#000000;" x="52.388688" xlink:href="#mf3d7274e3e" y="360.1557"/>
      </g>
     </g>
     <g id="text_19">
      <!-- 0.891 -->
      <g style="fill:#4d4d4d;" transform="translate(22.245938 362.58395)scale(0.088 -0.088)">
       <use xlink:href="#DejaVuSans-30"/>
       <use x="63.623047" xlink:href="#DejaVuSans-2e"/>
       <use x="95.410156" xlink:href="#DejaVuSans-38"/>
       <use x="159.033203" xlink:href="#DejaVuSans-39"/>
       <use x="222.65625" xlink:href="#DejaVuSans-31"/>
      </g>
     </g>
    </g>
    <g id="ytick_19">
     <g id="line2d_70">
      <path clip-path="url(#pa569421b27)" d="M 52.388688 304.547199 
L 415.737525 304.547199 
" style="fill:none;stroke:#ffffff;stroke-linecap:square;"/>
     </g>
     <g id="line2d_71">
      <path d="M 52.388688 304.547199 
" style="fill:none;stroke:#333333;stroke-linecap:square;stroke-width:1.5;"/>
      <g>
       <use style="fill:#333333;stroke:#000000;" x="52.388688" xlink:href="#mf3d7274e3e" y="304.547199"/>
      </g>
     </g>
     <g id="text_20">
      <!-- 0.893 -->
      <g style="fill:#4d4d4d;" transform="translate(22.245938 306.975449)scale(0.088 -0.088)">
       <use xlink:href="#DejaVuSans-30"/>
       <use x="63.623047" xlink:href="#DejaVuSans-2e"/>
       <use x="95.410156" xlink:href="#DejaVuSans-38"/>
       <use x="159.033203" xlink:href="#DejaVuSans-39"/>
       <use x="222.65625" xlink:href="#DejaVuSans-33"/>
      </g>
     </g>
    </g>
    <g id="ytick_20">
     <g id="line2d_72">
      <path clip-path="url(#pa569421b27)" d="M 52.388688 443.568452 
L 415.737525 443.568452 
" style="fill:none;stroke:#ffffff;stroke-linecap:square;stroke-width:0.5;"/>
     </g>
    </g>
    <g id="ytick_21">
     <g id="line2d_73">
      <path clip-path="url(#pa569421b27)" d="M 52.388688 387.959951 
L 415.737525 387.959951 
" style="fill:none;stroke:#ffffff;stroke-linecap:square;stroke-width:0.5;"/>
     </g>
    </g>
    <g id="ytick_22">
     <g id="line2d_74">
      <path clip-path="url(#pa569421b27)" d="M 52.388688 332.35145 
L 415.737525 332.35145 
" style="fill:none;stroke:#ffffff;stroke-linecap:square;stroke-width:0.5;"/>
     </g>
    </g>
    <g id="ytick_23">
     <g id="line2d_75">
      <path clip-path="url(#pa569421b27)" d="M 52.388688 276.742948 
L 415.737525 276.742948 
" style="fill:none;stroke:#ffffff;stroke-linecap:square;stroke-width:0.5;"/>
     </g>
    </g>
   </g>
   <g id="line2d_76">
    <path clip-path="url(#pa569421b27)" d="M 68.904544 389.595509 
L 399.221668 309.221446 
" style="fill:none;stroke:#000000;stroke-width:0.886227;"/>
   </g>
   <g id="PathCollection_3">
    <path clip-path="url(#pa569421b27)" d="M 68.904544 391.367963 
C 69.374604 391.367963 69.825475 391.181206 70.157858 390.848823 
C 70.490241 390.51644 70.676998 390.065569 70.676998 389.595509 
C 70.676998 389.125449 70.490241 388.674578 70.157858 388.342195 
C 69.825475 388.009812 69.374604 387.823055 68.904544 387.823055 
C 68.434483 387.823055 67.983612 388.009812 67.65123 388.342195 
C 67.318847 388.674578 67.13209 389.125449 67.13209 389.595509 
C 67.13209 390.065569 67.318847 390.51644 67.65123 390.848823 
C 67.983612 391.181206 68.434483 391.367963 68.904544 391.367963 
z
" style="stroke:#000000;stroke-width:0.886227;"/>
    <path clip-path="url(#pa569421b27)" d="M 399.221668 310.993899 
C 399.691729 310.993899 400.1426 310.807142 400.474983 310.47476 
C 400.807365 310.142377 400.994122 309.691506 400.994122 309.221446 
C 400.994122 308.751385 400.807365 308.300514 400.474983 307.968131 
C 400.1426 307.635749 399.691729 307.448992 399.221668 307.448992 
C 398.751608 307.448992 398.300737 307.635749 397.968354 307.968131 
C 397.635972 308.300514 397.449215 308.751385 397.449215 309.221446 
C 397.449215 309.691506 397.635972 310.142377 397.968354 310.47476 
C 398.300737 310.807142 398.751608 310.993899 399.221668 310.993899 
z
" style="stroke:#000000;stroke-width:0.886227;"/>
   </g>
   <g id="patch_7">
    <path d="M 52.388688 253.674082 
L 415.737525 253.674082 
L 415.737525 238.63 
L 52.388688 238.63 
z
" style="fill:#d9d9d9;"/>
   </g>
   <g id="PolyCollection_3">
    <path clip-path="url(#pa569421b27)" d="M 68.904544 323.06739 
L 68.904544 456.123628 
L 399.221668 355.128354 
L 399.221668 263.314537 
L 399.221668 263.314537 
L 68.904544 323.06739 
z
" style="fill:#333333;fill-opacity:0.501961;"/>
   </g>
   <g id="text_21">
    <!-- F1 score: &lt;=50K -->
    <g style="fill:#1a1a1a;" transform="translate(196.774481 248.580291)scale(0.088 -0.088)">
     <defs>
      <path d="M 628 4666 
L 3309 4666 
L 3309 4134 
L 1259 4134 
L 1259 2759 
L 3109 2759 
L 3109 2228 
L 1259 2228 
L 1259 0 
L 628 0 
L 628 4666 
z
" id="DejaVuSans-46" transform="scale(0.015625)"/>
      <path id="DejaVuSans-20" transform="scale(0.015625)"/>
      <path d="M 2834 3397 
L 2834 2853 
Q 2591 2978 2328 3040 
Q 2066 3103 1784 3103 
Q 1356 3103 1142 2972 
Q 928 2841 928 2578 
Q 928 2378 1081 2264 
Q 1234 2150 1697 2047 
L 1894 2003 
Q 2506 1872 2764 1633 
Q 3022 1394 3022 966 
Q 3022 478 2636 193 
Q 2250 -91 1575 -91 
Q 1294 -91 989 -36 
Q 684 19 347 128 
L 347 722 
Q 666 556 975 473 
Q 1284 391 1588 391 
Q 1994 391 2212 530 
Q 2431 669 2431 922 
Q 2431 1156 2273 1281 
Q 2116 1406 1581 1522 
L 1381 1569 
Q 847 1681 609 1914 
Q 372 2147 372 2553 
Q 372 3047 722 3315 
Q 1072 3584 1716 3584 
Q 2034 3584 2315 3537 
Q 2597 3491 2834 3397 
z
" id="DejaVuSans-73" transform="scale(0.015625)"/>
      <path d="M 1959 3097 
Q 1497 3097 1228 2736 
Q 959 2375 959 1747 
Q 959 1119 1226 758 
Q 1494 397 1959 397 
Q 2419 397 2687 759 
Q 2956 1122 2956 1747 
Q 2956 2369 2687 2733 
Q 2419 3097 1959 3097 
z
M 1959 3584 
Q 2709 3584 3137 3096 
Q 3566 2609 3566 1747 
Q 3566 888 3137 398 
Q 2709 -91 1959 -91 
Q 1206 -91 779 398 
Q 353 888 353 1747 
Q 353 2609 779 3096 
Q 1206 3584 1959 3584 
z
" id="DejaVuSans-6f" transform="scale(0.015625)"/>
      <path d="M 750 794 
L 1409 794 
L 1409 0 
L 750 0 
L 750 794 
z
M 750 3309 
L 1409 3309 
L 1409 2516 
L 750 2516 
L 750 3309 
z
" id="DejaVuSans-3a" transform="scale(0.015625)"/>
      <path d="M 4684 3150 
L 1459 2003 
L 4684 863 
L 4684 294 
L 678 1747 
L 678 2266 
L 4684 3719 
L 4684 3150 
z
" id="DejaVuSans-3c" transform="scale(0.015625)"/>
      <path d="M 678 2906 
L 4684 2906 
L 4684 2381 
L 678 2381 
L 678 2906 
z
M 678 1631 
L 4684 1631 
L 4684 1100 
L 678 1100 
L 678 1631 
z
" id="DejaVuSans-3d" transform="scale(0.015625)"/>
      <path d="M 628 4666 
L 1259 4666 
L 1259 2694 
L 3353 4666 
L 4166 4666 
L 1850 2491 
L 4331 0 
L 3500 0 
L 1259 2247 
L 1259 0 
L 628 0 
L 628 4666 
z
" id="DejaVuSans-4b" transform="scale(0.015625)"/>
     </defs>
     <use xlink:href="#DejaVuSans-46"/>
     <use x="57.519531" xlink:href="#DejaVuSans-31"/>
     <use x="121.142578" xlink:href="#DejaVuSans-20"/>
     <use x="152.929688" xlink:href="#DejaVuSans-73"/>
     <use x="205.029297" xlink:href="#DejaVuSans-63"/>
     <use x="260.009766" xlink:href="#DejaVuSans-6f"/>
     <use x="321.191406" xlink:href="#DejaVuSans-72"/>
     <use x="360.054688" xlink:href="#DejaVuSans-65"/>
     <use x="421.578125" xlink:href="#DejaVuSans-3a"/>
     <use x="455.269531" xlink:href="#DejaVuSans-20"/>
     <use x="487.056641" xlink:href="#DejaVuSans-3c"/>
     <use x="570.845703" xlink:href="#DejaVuSans-3d"/>
     <use x="654.634766" xlink:href="#DejaVuSans-35"/>
     <use x="718.257812" xlink:href="#DejaVuSans-30"/>
     <use x="781.880859" xlink:href="#DejaVuSans-4b"/>
    </g>
   </g>
  </g>
  <g id="axes_4">
   <g id="patch_8">
    <path d="M 470.23985 465.764082 
L 833.588688 465.764082 
L 833.588688 253.674082 
L 470.23985 253.674082 
z
" style="fill:#ebebeb;"/>
   </g>
   <g id="matplotlib.axis_7">
    <g id="xtick_34">
     <g id="line2d_77">
      <path clip-path="url(#p97e9da1538)" d="M 486.755707 465.764082 
L 486.755707 253.674082 
" style="fill:none;stroke:#ffffff;stroke-linecap:square;"/>
     </g>
     <g id="line2d_78">
      <path d="M 486.755707 465.764082 
" style="fill:none;stroke:#333333;stroke-linecap:square;stroke-width:1.5;"/>
      <g>
       <use style="fill:#333333;stroke:#000000;" x="486.755707" xlink:href="#m8d3f19022a" y="465.764082"/>
      </g>
     </g>
     <g id="text_22">
      <!-- 0 -->
      <g style="fill:#4d4d4d;" transform="translate(483.956207 477.400707)scale(0.088 -0.088)">
       <use xlink:href="#DejaVuSans-30"/>
      </g>
     </g>
    </g>
    <g id="xtick_35">
     <g id="line2d_79">
      <path clip-path="url(#p97e9da1538)" d="M 552.819131 465.764082 
L 552.819131 253.674082 
" style="fill:none;stroke:#ffffff;stroke-linecap:square;"/>
     </g>
     <g id="line2d_80">
      <path d="M 552.819131 465.764082 
" style="fill:none;stroke:#333333;stroke-linecap:square;stroke-width:1.5;"/>
      <g>
       <use style="fill:#333333;stroke:#000000;" x="552.819131" xlink:href="#m8d3f19022a" y="465.764082"/>
      </g>
     </g>
     <g id="text_23">
      <!-- 0.01 -->
      <g style="fill:#4d4d4d;" transform="translate(543.022256 477.400707)scale(0.088 -0.088)">
       <use xlink:href="#DejaVuSans-30"/>
       <use x="63.623047" xlink:href="#DejaVuSans-2e"/>
       <use x="95.410156" xlink:href="#DejaVuSans-30"/>
       <use x="159.033203" xlink:href="#DejaVuSans-31"/>
      </g>
     </g>
    </g>
    <g id="xtick_36">
     <g id="line2d_81">
      <path clip-path="url(#p97e9da1538)" d="M 618.882556 465.764082 
L 618.882556 253.674082 
" style="fill:none;stroke:#ffffff;stroke-linecap:square;"/>
     </g>
     <g id="line2d_82">
      <path d="M 618.882556 465.764082 
" style="fill:none;stroke:#333333;stroke-linecap:square;stroke-width:1.5;"/>
      <g>
       <use style="fill:#333333;stroke:#000000;" x="618.882556" xlink:href="#m8d3f19022a" y="465.764082"/>
      </g>
     </g>
     <g id="text_24">
      <!-- 0.02 -->
      <g style="fill:#4d4d4d;" transform="translate(609.085681 477.400707)scale(0.088 -0.088)">
       <use xlink:href="#DejaVuSans-30"/>
       <use x="63.623047" xlink:href="#DejaVuSans-2e"/>
       <use x="95.410156" xlink:href="#DejaVuSans-30"/>
       <use x="159.033203" xlink:href="#DejaVuSans-32"/>
      </g>
     </g>
    </g>
    <g id="xtick_37">
     <g id="line2d_83">
      <path clip-path="url(#p97e9da1538)" d="M 684.945981 465.764082 
L 684.945981 253.674082 
" style="fill:none;stroke:#ffffff;stroke-linecap:square;"/>
     </g>
     <g id="line2d_84">
      <path d="M 684.945981 465.764082 
" style="fill:none;stroke:#333333;stroke-linecap:square;stroke-width:1.5;"/>
      <g>
       <use style="fill:#333333;stroke:#000000;" x="684.945981" xlink:href="#m8d3f19022a" y="465.764082"/>
      </g>
     </g>
     <g id="text_25">
      <!-- 0.03 -->
      <g style="fill:#4d4d4d;" transform="translate(675.149106 477.400707)scale(0.088 -0.088)">
       <use xlink:href="#DejaVuSans-30"/>
       <use x="63.623047" xlink:href="#DejaVuSans-2e"/>
       <use x="95.410156" xlink:href="#DejaVuSans-30"/>
       <use x="159.033203" xlink:href="#DejaVuSans-33"/>
      </g>
     </g>
    </g>
    <g id="xtick_38">
     <g id="line2d_85">
      <path clip-path="url(#p97e9da1538)" d="M 751.009406 465.764082 
L 751.009406 253.674082 
" style="fill:none;stroke:#ffffff;stroke-linecap:square;"/>
     </g>
     <g id="line2d_86">
      <path d="M 751.009406 465.764082 
" style="fill:none;stroke:#333333;stroke-linecap:square;stroke-width:1.5;"/>
      <g>
       <use style="fill:#333333;stroke:#000000;" x="751.009406" xlink:href="#m8d3f19022a" y="465.764082"/>
      </g>
     </g>
     <g id="text_26">
      <!-- 0.04 -->
      <g style="fill:#4d4d4d;" transform="translate(741.212531 477.400707)scale(0.088 -0.088)">
       <use xlink:href="#DejaVuSans-30"/>
       <use x="63.623047" xlink:href="#DejaVuSans-2e"/>
       <use x="95.410156" xlink:href="#DejaVuSans-30"/>
       <use x="159.033203" xlink:href="#DejaVuSans-34"/>
      </g>
     </g>
    </g>
    <g id="xtick_39">
     <g id="line2d_87">
      <path clip-path="url(#p97e9da1538)" d="M 817.072831 465.764082 
L 817.072831 253.674082 
" style="fill:none;stroke:#ffffff;stroke-linecap:square;"/>
     </g>
     <g id="line2d_88">
      <path d="M 817.072831 465.764082 
" style="fill:none;stroke:#333333;stroke-linecap:square;stroke-width:1.5;"/>
      <g>
       <use style="fill:#333333;stroke:#000000;" x="817.072831" xlink:href="#m8d3f19022a" y="465.764082"/>
      </g>
     </g>
     <g id="text_27">
      <!-- 0.05 -->
      <g style="fill:#4d4d4d;" transform="translate(807.275956 477.400707)scale(0.088 -0.088)">
       <use xlink:href="#DejaVuSans-30"/>
       <use x="63.623047" xlink:href="#DejaVuSans-2e"/>
       <use x="95.410156" xlink:href="#DejaVuSans-30"/>
       <use x="159.033203" xlink:href="#DejaVuSans-35"/>
      </g>
     </g>
    </g>
    <g id="xtick_40">
     <g id="line2d_89">
      <path clip-path="url(#p97e9da1538)" d="M 519.787419 465.764082 
L 519.787419 253.674082 
" style="fill:none;stroke:#ffffff;stroke-linecap:square;stroke-width:0.5;"/>
     </g>
    </g>
    <g id="xtick_41">
     <g id="line2d_90">
      <path clip-path="url(#p97e9da1538)" d="M 585.850844 465.764082 
L 585.850844 253.674082 
" style="fill:none;stroke:#ffffff;stroke-linecap:square;stroke-width:0.5;"/>
     </g>
    </g>
    <g id="xtick_42">
     <g id="line2d_91">
      <path clip-path="url(#p97e9da1538)" d="M 651.914269 465.764082 
L 651.914269 253.674082 
" style="fill:none;stroke:#ffffff;stroke-linecap:square;stroke-width:0.5;"/>
     </g>
    </g>
    <g id="xtick_43">
     <g id="line2d_92">
      <path clip-path="url(#p97e9da1538)" d="M 717.977694 465.764082 
L 717.977694 253.674082 
" style="fill:none;stroke:#ffffff;stroke-linecap:square;stroke-width:0.5;"/>
     </g>
    </g>
    <g id="xtick_44">
     <g id="line2d_93">
      <path clip-path="url(#p97e9da1538)" d="M 784.041119 465.764082 
L 784.041119 253.674082 
" style="fill:none;stroke:#ffffff;stroke-linecap:square;stroke-width:0.5;"/>
     </g>
    </g>
    <g id="text_28">
     <!-- Qtr spread -->
     <g transform="translate(401.153609 491.989114)scale(0.11 -0.11)">
      <defs>
       <path d="M 2522 4238 
Q 1834 4238 1429 3725 
Q 1025 3213 1025 2328 
Q 1025 1447 1429 934 
Q 1834 422 2522 422 
Q 3209 422 3611 934 
Q 4013 1447 4013 2328 
Q 4013 3213 3611 3725 
Q 3209 4238 2522 4238 
z
M 3406 84 
L 4238 -825 
L 3475 -825 
L 2784 -78 
Q 2681 -84 2626 -87 
Q 2572 -91 2522 -91 
Q 1538 -91 948 567 
Q 359 1225 359 2328 
Q 359 3434 948 4092 
Q 1538 4750 2522 4750 
Q 3503 4750 4090 4092 
Q 4678 3434 4678 2328 
Q 4678 1516 4351 937 
Q 4025 359 3406 84 
z
" id="DejaVuSans-51" transform="scale(0.015625)"/>
       <path d="M 1172 4494 
L 1172 3500 
L 2356 3500 
L 2356 3053 
L 1172 3053 
L 1172 1153 
Q 1172 725 1289 603 
Q 1406 481 1766 481 
L 2356 481 
L 2356 0 
L 1766 0 
Q 1100 0 847 248 
Q 594 497 594 1153 
L 594 3053 
L 172 3053 
L 172 3500 
L 594 3500 
L 594 4494 
L 1172 4494 
z
" id="DejaVuSans-74" transform="scale(0.015625)"/>
       <path d="M 1159 525 
L 1159 -1331 
L 581 -1331 
L 581 3500 
L 1159 3500 
L 1159 2969 
Q 1341 3281 1617 3432 
Q 1894 3584 2278 3584 
Q 2916 3584 3314 3078 
Q 3713 2572 3713 1747 
Q 3713 922 3314 415 
Q 2916 -91 2278 -91 
Q 1894 -91 1617 61 
Q 1341 213 1159 525 
z
M 3116 1747 
Q 3116 2381 2855 2742 
Q 2594 3103 2138 3103 
Q 1681 3103 1420 2742 
Q 1159 2381 1159 1747 
Q 1159 1113 1420 752 
Q 1681 391 2138 391 
Q 2594 391 2855 752 
Q 3116 1113 3116 1747 
z
" id="DejaVuSans-70" transform="scale(0.015625)"/>
       <path d="M 2906 2969 
L 2906 4863 
L 3481 4863 
L 3481 0 
L 2906 0 
L 2906 525 
Q 2725 213 2448 61 
Q 2172 -91 1784 -91 
Q 1150 -91 751 415 
Q 353 922 353 1747 
Q 353 2572 751 3078 
Q 1150 3584 1784 3584 
Q 2172 3584 2448 3432 
Q 2725 3281 2906 2969 
z
M 947 1747 
Q 947 1113 1208 752 
Q 1469 391 1925 391 
Q 2381 391 2643 752 
Q 2906 1113 2906 1747 
Q 2906 2381 2643 2742 
Q 2381 3103 1925 3103 
Q 1469 3103 1208 2742 
Q 947 2381 947 1747 
z
" id="DejaVuSans-64" transform="scale(0.015625)"/>
      </defs>
      <use xlink:href="#DejaVuSans-51"/>
      <use x="78.710938" xlink:href="#DejaVuSans-74"/>
      <use x="117.919922" xlink:href="#DejaVuSans-72"/>
      <use x="159.033203" xlink:href="#DejaVuSans-20"/>
      <use x="190.820312" xlink:href="#DejaVuSans-73"/>
      <use x="242.919922" xlink:href="#DejaVuSans-70"/>
      <use x="306.396484" xlink:href="#DejaVuSans-72"/>
      <use x="345.259766" xlink:href="#DejaVuSans-65"/>
      <use x="406.783203" xlink:href="#DejaVuSans-61"/>
      <use x="468.0625" xlink:href="#DejaVuSans-64"/>
     </g>
    </g>
   </g>
   <g id="matplotlib.axis_8">
    <g id="ytick_24">
     <g id="line2d_94">
      <path clip-path="url(#p97e9da1538)" d="M 470.23985 451.499275 
L 833.588688 451.499275 
" style="fill:none;stroke:#ffffff;stroke-linecap:square;"/>
     </g>
     <g id="line2d_95">
      <path d="M 470.23985 451.499275 
" style="fill:none;stroke:#333333;stroke-linecap:square;stroke-width:1.5;"/>
      <g>
       <use style="fill:#333333;stroke:#000000;" x="470.23985" xlink:href="#mf3d7274e3e" y="451.499275"/>
      </g>
     </g>
     <g id="text_29">
      <!-- 0.640 -->
      <g style="fill:#4d4d4d;" transform="translate(440.0971 453.927525)scale(0.088 -0.088)">
       <use xlink:href="#DejaVuSans-30"/>
       <use x="63.623047" xlink:href="#DejaVuSans-2e"/>
       <use x="95.410156" xlink:href="#DejaVuSans-36"/>
       <use x="159.033203" xlink:href="#DejaVuSans-34"/>
       <use x="222.65625" xlink:href="#DejaVuSans-30"/>
      </g>
     </g>
    </g>
    <g id="ytick_25">
     <g id="line2d_96">
      <path clip-path="url(#p97e9da1538)" d="M 470.23985 381.285784 
L 833.588688 381.285784 
" style="fill:none;stroke:#ffffff;stroke-linecap:square;"/>
     </g>
     <g id="line2d_97">
      <path d="M 470.23985 381.285784 
" style="fill:none;stroke:#333333;stroke-linecap:square;stroke-width:1.5;"/>
      <g>
       <use style="fill:#333333;stroke:#000000;" x="470.23985" xlink:href="#mf3d7274e3e" y="381.285784"/>
      </g>
     </g>
     <g id="text_30">
      <!-- 0.645 -->
      <g style="fill:#4d4d4d;" transform="translate(440.0971 383.714034)scale(0.088 -0.088)">
       <use xlink:href="#DejaVuSans-30"/>
       <use x="63.623047" xlink:href="#DejaVuSans-2e"/>
       <use x="95.410156" xlink:href="#DejaVuSans-36"/>
       <use x="159.033203" xlink:href="#DejaVuSans-34"/>
       <use x="222.65625" xlink:href="#DejaVuSans-35"/>
      </g>
     </g>
    </g>
    <g id="ytick_26">
     <g id="line2d_98">
      <path clip-path="url(#p97e9da1538)" d="M 470.23985 311.072293 
L 833.588688 311.072293 
" style="fill:none;stroke:#ffffff;stroke-linecap:square;"/>
     </g>
     <g id="line2d_99">
      <path d="M 470.23985 311.072293 
" style="fill:none;stroke:#333333;stroke-linecap:square;stroke-width:1.5;"/>
      <g>
       <use style="fill:#333333;stroke:#000000;" x="470.23985" xlink:href="#mf3d7274e3e" y="311.072293"/>
      </g>
     </g>
     <g id="text_31">
      <!-- 0.650 -->
      <g style="fill:#4d4d4d;" transform="translate(440.0971 313.500543)scale(0.088 -0.088)">
       <use xlink:href="#DejaVuSans-30"/>
       <use x="63.623047" xlink:href="#DejaVuSans-2e"/>
       <use x="95.410156" xlink:href="#DejaVuSans-36"/>
       <use x="159.033203" xlink:href="#DejaVuSans-35"/>
       <use x="222.65625" xlink:href="#DejaVuSans-30"/>
      </g>
     </g>
    </g>
    <g id="ytick_27">
     <g id="line2d_100">
      <path clip-path="url(#p97e9da1538)" d="M 470.23985 416.392529 
L 833.588688 416.392529 
" style="fill:none;stroke:#ffffff;stroke-linecap:square;stroke-width:0.5;"/>
     </g>
    </g>
    <g id="ytick_28">
     <g id="line2d_101">
      <path clip-path="url(#p97e9da1538)" d="M 470.23985 346.179038 
L 833.588688 346.179038 
" style="fill:none;stroke:#ffffff;stroke-linecap:square;stroke-width:0.5;"/>
     </g>
    </g>
    <g id="ytick_29">
     <g id="line2d_102">
      <path clip-path="url(#p97e9da1538)" d="M 470.23985 275.965547 
L 833.588688 275.965547 
" style="fill:none;stroke:#ffffff;stroke-linecap:square;stroke-width:0.5;"/>
     </g>
    </g>
   </g>
   <g id="line2d_103">
    <path clip-path="url(#p97e9da1538)" d="M 486.755707 380.544523 
L 817.072831 359.631943 
" style="fill:none;stroke:#000000;stroke-width:0.886227;"/>
   </g>
   <g id="PathCollection_4">
    <path clip-path="url(#p97e9da1538)" d="M 486.755707 382.316977 
C 487.225767 382.316977 487.676638 382.13022 488.009021 381.797837 
C 488.341403 381.465454 488.52816 381.014583 488.52816 380.544523 
C 488.52816 380.074463 488.341403 379.623591 488.009021 379.291209 
C 487.676638 378.958826 487.225767 378.772069 486.755707 378.772069 
C 486.285646 378.772069 485.834775 378.958826 485.502392 379.291209 
C 485.17001 379.623591 484.983253 380.074463 484.983253 380.544523 
C 484.983253 381.014583 485.17001 381.465454 485.502392 381.797837 
C 485.834775 382.13022 486.285646 382.316977 486.755707 382.316977 
z
" style="stroke:#000000;stroke-width:0.886227;"/>
    <path clip-path="url(#p97e9da1538)" d="M 817.072831 361.404397 
C 817.542892 361.404397 817.993763 361.21764 818.326145 360.885257 
C 818.658528 360.552874 818.845285 360.102003 818.845285 359.631943 
C 818.845285 359.161882 818.658528 358.711011 818.326145 358.378629 
C 817.993763 358.046246 817.542892 357.859489 817.072831 357.859489 
C 816.602771 357.859489 816.1519 358.046246 815.819517 358.378629 
C 815.487134 358.711011 815.300377 359.161882 815.300377 359.631943 
C 815.300377 360.102003 815.487134 360.552874 815.819517 360.885257 
C 816.1519 361.21764 816.602771 361.404397 817.072831 361.404397 
z
" style="stroke:#000000;stroke-width:0.886227;"/>
   </g>
   <g id="patch_9">
    <path d="M 470.23985 253.674082 
L 833.588688 253.674082 
L 833.588688 238.63 
L 470.23985 238.63 
z
" style="fill:#d9d9d9;"/>
   </g>
   <g id="PolyCollection_4">
    <path clip-path="url(#p97e9da1538)" d="M 486.755707 304.965418 
L 486.755707 456.123628 
L 817.072831 455.949348 
L 817.072831 263.314537 
L 817.072831 263.314537 
L 486.755707 304.965418 
z
" style="fill:#333333;fill-opacity:0.501961;"/>
   </g>
   <g id="text_32">
    <!-- F1 score: &gt;50K -->
    <g style="fill:#1a1a1a;" transform="translate(618.312706 248.580291)scale(0.088 -0.088)">
     <defs>
      <path d="M 678 3150 
L 678 3719 
L 4684 2266 
L 4684 1747 
L 678 294 
L 678 863 
L 3897 2003 
L 678 3150 
z
" id="DejaVuSans-3e" transform="scale(0.015625)"/>
     </defs>
     <use xlink:href="#DejaVuSans-46"/>
     <use x="57.519531" xlink:href="#DejaVuSans-31"/>
     <use x="121.142578" xlink:href="#DejaVuSans-20"/>
     <use x="152.929688" xlink:href="#DejaVuSans-73"/>
     <use x="205.029297" xlink:href="#DejaVuSans-63"/>
     <use x="260.009766" xlink:href="#DejaVuSans-6f"/>
     <use x="321.191406" xlink:href="#DejaVuSans-72"/>
     <use x="360.054688" xlink:href="#DejaVuSans-65"/>
     <use x="421.578125" xlink:href="#DejaVuSans-3a"/>
     <use x="455.269531" xlink:href="#DejaVuSans-20"/>
     <use x="487.056641" xlink:href="#DejaVuSans-3e"/>
     <use x="570.845703" xlink:href="#DejaVuSans-35"/>
     <use x="634.46875" xlink:href="#DejaVuSans-30"/>
     <use x="698.091797" xlink:href="#DejaVuSans-4b"/>
    </g>
   </g>
  </g>
 </g>
 <defs>
  <clipPath id="peb476a4e37">
   <rect height="212.09" width="363.348837" x="52.388688" y="22.244082"/>
  </clipPath>
  <clipPath id="pc2b6266d15">
   <rect height="212.09" width="363.348837" x="470.23985" y="22.244082"/>
  </clipPath>
  <clipPath id="pa569421b27">
   <rect height="212.09" width="363.348837" x="52.388688" y="253.674082"/>
  </clipPath>
  <clipPath id="p97e9da1538">
   <rect height="212.09" width="363.348837" x="470.23985" y="253.674082"/>
  </clipPath>
 </defs>
</svg>
