<?xml version="1.0" encoding="utf-8" standalone="no"?>
<!DOCTYPE svg PUBLIC "-//W3C//DTD SVG 1.1//EN"
  "http://www.w3.org/Graphics/SVG/1.1/DTD/svg11.dtd">
<svg height="702.331951pt" version="1.1" viewBox="0 0 907.227407 702.331951" width="907.227407pt" xmlns="http://www.w3.org/2000/svg" xmlns:xlink="http://www.w3.org/1999/xlink">
 <metadata>
  <rdf:RDF xmlns:cc="http://creativecommons.org/ns#" xmlns:dc="http://purl.org/dc/elements/1.1/" xmlns:rdf="http://www.w3.org/1999/02/22-rdf-syntax-ns#">
   <cc:Work>
    <dc:type rdf:resource="http://purl.org/dc/dcmitype/StillImage"/>
    <dc:date>2022-05-12T11:08:28.192123</dc:date>
    <dc:format>image/svg+xml</dc:format>
    <dc:creator>
     <cc:Agent>
      <dc:title>Matplotlib v3.4.3, https://matplotlib.org/</dc:title>
     </cc:Agent>
    </dc:creator>
   </cc:Work>
  </rdf:RDF>
 </metadata>
 <defs>
  <style type="text/css">*{stroke-linecap:butt;stroke-linejoin:round;}</style>
 </defs>
 <g id="figure_1">
  <g id="patch_1">
   <path d="M 0 702.331951 
L 907.227407 702.331951 
L 907.227407 0 
L 0 0 
z
" style="fill:#ffffff;stroke:#ffffff;stroke-linejoin:miter;"/>
  </g>
  <g id="axes_1">
   <g id="patch_2">
    <path d="M 52.388688 234.334082 
L 415.737525 234.334082 
L 415.737525 22.244082 
L 52.388688 22.244082 
z
" style="fill:#ebebeb;"/>
   </g>
   <g id="matplotlib.axis_1">
    <g id="xtick_1">
     <g id="line2d_1">
      <path clip-path="url(#pe4d3ba670f)" d="M 90.635934 234.334082 
L 90.635934 22.244082 
" style="fill:none;stroke:#ffffff;"/>
     </g>
    </g>
    <g id="xtick_2">
     <g id="line2d_2">
      <path clip-path="url(#pe4d3ba670f)" d="M 186.254049 234.334082 
L 186.254049 22.244082 
" style="fill:none;stroke:#ffffff;"/>
     </g>
    </g>
    <g id="xtick_3">
     <g id="line2d_3">
      <path clip-path="url(#pe4d3ba670f)" d="M 281.872164 234.334082 
L 281.872164 22.244082 
" style="fill:none;stroke:#ffffff;"/>
     </g>
    </g>
    <g id="xtick_4">
     <g id="line2d_4">
      <path clip-path="url(#pe4d3ba670f)" d="M 377.490279 234.334082 
L 377.490279 22.244082 
" style="fill:none;stroke:#ffffff;"/>
     </g>
    </g>
    <g id="xtick_5">
     <g id="line2d_5">
      <path clip-path="url(#pe4d3ba670f)" d="M 138.444991 234.334082 
L 138.444991 22.244082 
" style="fill:none;stroke:#ffffff;stroke-width:0.5;"/>
     </g>
    </g>
    <g id="xtick_6">
     <g id="line2d_6">
      <path clip-path="url(#pe4d3ba670f)" d="M 234.063106 234.334082 
L 234.063106 22.244082 
" style="fill:none;stroke:#ffffff;stroke-width:0.5;"/>
     </g>
    </g>
    <g id="xtick_7">
     <g id="line2d_7">
      <path clip-path="url(#pe4d3ba670f)" d="M 329.681221 234.334082 
L 329.681221 22.244082 
" style="fill:none;stroke:#ffffff;stroke-width:0.5;"/>
     </g>
    </g>
   </g>
   <g id="matplotlib.axis_2">
    <g id="ytick_1">
     <g id="line2d_8">
      <path clip-path="url(#pe4d3ba670f)" d="M 52.388688 222.859756 
L 415.737525 222.859756 
" style="fill:none;stroke:#ffffff;"/>
     </g>
     <g id="line2d_9">
      <path d="M 52.388688 222.859756 
" style="fill:none;stroke:#333333;stroke-width:1.5;"/>
      <defs>
       <path d="M 0 0 
L -2.75 0 
" id="mbee923918b" style="stroke:#000000;"/>
      </defs>
      <g>
       <use style="fill:#333333;stroke:#000000;" x="52.388688" xlink:href="#mbee923918b" y="222.859756"/>
      </g>
     </g>
     <g id="text_1">
      <!-- 0.824 -->
      <g style="fill:#4d4d4d;" transform="translate(22.245938 225.288006)scale(0.088 -0.088)">
       <defs>
        <path d="M 2034 4250 
Q 1547 4250 1301 3770 
Q 1056 3291 1056 2328 
Q 1056 1369 1301 889 
Q 1547 409 2034 409 
Q 2525 409 2770 889 
Q 3016 1369 3016 2328 
Q 3016 3291 2770 3770 
Q 2525 4250 2034 4250 
z
M 2034 4750 
Q 2819 4750 3233 4129 
Q 3647 3509 3647 2328 
Q 3647 1150 3233 529 
Q 2819 -91 2034 -91 
Q 1250 -91 836 529 
Q 422 1150 422 2328 
Q 422 3509 836 4129 
Q 1250 4750 2034 4750 
z
" id="DejaVuSans-30" transform="scale(0.015625)"/>
        <path d="M 684 794 
L 1344 794 
L 1344 0 
L 684 0 
L 684 794 
z
" id="DejaVuSans-2e" transform="scale(0.015625)"/>
        <path d="M 2034 2216 
Q 1584 2216 1326 1975 
Q 1069 1734 1069 1313 
Q 1069 891 1326 650 
Q 1584 409 2034 409 
Q 2484 409 2743 651 
Q 3003 894 3003 1313 
Q 3003 1734 2745 1975 
Q 2488 2216 2034 2216 
z
M 1403 2484 
Q 997 2584 770 2862 
Q 544 3141 544 3541 
Q 544 4100 942 4425 
Q 1341 4750 2034 4750 
Q 2731 4750 3128 4425 
Q 3525 4100 3525 3541 
Q 3525 3141 3298 2862 
Q 3072 2584 2669 2484 
Q 3125 2378 3379 2068 
Q 3634 1759 3634 1313 
Q 3634 634 3220 271 
Q 2806 -91 2034 -91 
Q 1263 -91 848 271 
Q 434 634 434 1313 
Q 434 1759 690 2068 
Q 947 2378 1403 2484 
z
M 1172 3481 
Q 1172 3119 1398 2916 
Q 1625 2713 2034 2713 
Q 2441 2713 2670 2916 
Q 2900 3119 2900 3481 
Q 2900 3844 2670 4047 
Q 2441 4250 2034 4250 
Q 1625 4250 1398 4047 
Q 1172 3844 1172 3481 
z
" id="DejaVuSans-38" transform="scale(0.015625)"/>
        <path d="M 1228 531 
L 3431 531 
L 3431 0 
L 469 0 
L 469 531 
Q 828 903 1448 1529 
Q 2069 2156 2228 2338 
Q 2531 2678 2651 2914 
Q 2772 3150 2772 3378 
Q 2772 3750 2511 3984 
Q 2250 4219 1831 4219 
Q 1534 4219 1204 4116 
Q 875 4013 500 3803 
L 500 4441 
Q 881 4594 1212 4672 
Q 1544 4750 1819 4750 
Q 2544 4750 2975 4387 
Q 3406 4025 3406 3419 
Q 3406 3131 3298 2873 
Q 3191 2616 2906 2266 
Q 2828 2175 2409 1742 
Q 1991 1309 1228 531 
z
" id="DejaVuSans-32" transform="scale(0.015625)"/>
        <path d="M 2419 4116 
L 825 1625 
L 2419 1625 
L 2419 4116 
z
M 2253 4666 
L 3047 4666 
L 3047 1625 
L 3713 1625 
L 3713 1100 
L 3047 1100 
L 3047 0 
L 2419 0 
L 2419 1100 
L 313 1100 
L 313 1709 
L 2253 4666 
z
" id="DejaVuSans-34" transform="scale(0.015625)"/>
       </defs>
       <use xlink:href="#DejaVuSans-30"/>
       <use x="63.623047" xlink:href="#DejaVuSans-2e"/>
       <use x="95.410156" xlink:href="#DejaVuSans-38"/>
       <use x="159.033203" xlink:href="#DejaVuSans-32"/>
       <use x="222.65625" xlink:href="#DejaVuSans-34"/>
      </g>
     </g>
    </g>
    <g id="ytick_2">
     <g id="line2d_10">
      <path clip-path="url(#pe4d3ba670f)" d="M 52.388688 162.489551 
L 415.737525 162.489551 
" style="fill:none;stroke:#ffffff;"/>
     </g>
     <g id="line2d_11">
      <path d="M 52.388688 162.489551 
" style="fill:none;stroke:#333333;stroke-width:1.5;"/>
      <g>
       <use style="fill:#333333;stroke:#000000;" x="52.388688" xlink:href="#mbee923918b" y="162.489551"/>
      </g>
     </g>
     <g id="text_2">
      <!-- 0.828 -->
      <g style="fill:#4d4d4d;" transform="translate(22.245938 164.917801)scale(0.088 -0.088)">
       <use xlink:href="#DejaVuSans-30"/>
       <use x="63.623047" xlink:href="#DejaVuSans-2e"/>
       <use x="95.410156" xlink:href="#DejaVuSans-38"/>
       <use x="159.033203" xlink:href="#DejaVuSans-32"/>
       <use x="222.65625" xlink:href="#DejaVuSans-38"/>
      </g>
     </g>
    </g>
    <g id="ytick_3">
     <g id="line2d_12">
      <path clip-path="url(#pe4d3ba670f)" d="M 52.388688 102.119347 
L 415.737525 102.119347 
" style="fill:none;stroke:#ffffff;"/>
     </g>
     <g id="line2d_13">
      <path d="M 52.388688 102.119347 
" style="fill:none;stroke:#333333;stroke-width:1.5;"/>
      <g>
       <use style="fill:#333333;stroke:#000000;" x="52.388688" xlink:href="#mbee923918b" y="102.119347"/>
      </g>
     </g>
     <g id="text_3">
      <!-- 0.832 -->
      <g style="fill:#4d4d4d;" transform="translate(22.245938 104.547597)scale(0.088 -0.088)">
       <defs>
        <path d="M 2597 2516 
Q 3050 2419 3304 2112 
Q 3559 1806 3559 1356 
Q 3559 666 3084 287 
Q 2609 -91 1734 -91 
Q 1441 -91 1130 -33 
Q 819 25 488 141 
L 488 750 
Q 750 597 1062 519 
Q 1375 441 1716 441 
Q 2309 441 2620 675 
Q 2931 909 2931 1356 
Q 2931 1769 2642 2001 
Q 2353 2234 1838 2234 
L 1294 2234 
L 1294 2753 
L 1863 2753 
Q 2328 2753 2575 2939 
Q 2822 3125 2822 3475 
Q 2822 3834 2567 4026 
Q 2313 4219 1838 4219 
Q 1578 4219 1281 4162 
Q 984 4106 628 3988 
L 628 4550 
Q 988 4650 1302 4700 
Q 1616 4750 1894 4750 
Q 2613 4750 3031 4423 
Q 3450 4097 3450 3541 
Q 3450 3153 3228 2886 
Q 3006 2619 2597 2516 
z
" id="DejaVuSans-33" transform="scale(0.015625)"/>
       </defs>
       <use xlink:href="#DejaVuSans-30"/>
       <use x="63.623047" xlink:href="#DejaVuSans-2e"/>
       <use x="95.410156" xlink:href="#DejaVuSans-38"/>
       <use x="159.033203" xlink:href="#DejaVuSans-33"/>
       <use x="222.65625" xlink:href="#DejaVuSans-32"/>
      </g>
     </g>
    </g>
    <g id="ytick_4">
     <g id="line2d_14">
      <path clip-path="url(#pe4d3ba670f)" d="M 52.388688 41.749142 
L 415.737525 41.749142 
" style="fill:none;stroke:#ffffff;"/>
     </g>
     <g id="line2d_15">
      <path d="M 52.388688 41.749142 
" style="fill:none;stroke:#333333;stroke-width:1.5;"/>
      <g>
       <use style="fill:#333333;stroke:#000000;" x="52.388688" xlink:href="#mbee923918b" y="41.749142"/>
      </g>
     </g>
     <g id="text_4">
      <!-- 0.836 -->
      <g style="fill:#4d4d4d;" transform="translate(22.245938 44.177392)scale(0.088 -0.088)">
       <defs>
        <path d="M 2113 2584 
Q 1688 2584 1439 2293 
Q 1191 2003 1191 1497 
Q 1191 994 1439 701 
Q 1688 409 2113 409 
Q 2538 409 2786 701 
Q 3034 994 3034 1497 
Q 3034 2003 2786 2293 
Q 2538 2584 2113 2584 
z
M 3366 4563 
L 3366 3988 
Q 3128 4100 2886 4159 
Q 2644 4219 2406 4219 
Q 1781 4219 1451 3797 
Q 1122 3375 1075 2522 
Q 1259 2794 1537 2939 
Q 1816 3084 2150 3084 
Q 2853 3084 3261 2657 
Q 3669 2231 3669 1497 
Q 3669 778 3244 343 
Q 2819 -91 2113 -91 
Q 1303 -91 875 529 
Q 447 1150 447 2328 
Q 447 3434 972 4092 
Q 1497 4750 2381 4750 
Q 2619 4750 2861 4703 
Q 3103 4656 3366 4563 
z
" id="DejaVuSans-36" transform="scale(0.015625)"/>
       </defs>
       <use xlink:href="#DejaVuSans-30"/>
       <use x="63.623047" xlink:href="#DejaVuSans-2e"/>
       <use x="95.410156" xlink:href="#DejaVuSans-38"/>
       <use x="159.033203" xlink:href="#DejaVuSans-33"/>
       <use x="222.65625" xlink:href="#DejaVuSans-36"/>
      </g>
     </g>
    </g>
    <g id="ytick_5">
     <g id="line2d_16">
      <path clip-path="url(#pe4d3ba670f)" d="M 52.388688 192.674653 
L 415.737525 192.674653 
" style="fill:none;stroke:#ffffff;stroke-width:0.5;"/>
     </g>
    </g>
    <g id="ytick_6">
     <g id="line2d_17">
      <path clip-path="url(#pe4d3ba670f)" d="M 52.388688 132.304449 
L 415.737525 132.304449 
" style="fill:none;stroke:#ffffff;stroke-width:0.5;"/>
     </g>
    </g>
    <g id="ytick_7">
     <g id="line2d_18">
      <path clip-path="url(#pe4d3ba670f)" d="M 52.388688 71.934244 
L 415.737525 71.934244 
" style="fill:none;stroke:#ffffff;stroke-width:0.5;"/>
     </g>
    </g>
    <g id="text_5">
     <!-- Value -->
     <g transform="translate(15.558281 256.228457)rotate(-90)scale(0.11 -0.11)">
      <defs>
       <path d="M 1831 0 
L 50 4666 
L 709 4666 
L 2188 738 
L 3669 4666 
L 4325 4666 
L 2547 0 
L 1831 0 
z
" id="DejaVuSans-56" transform="scale(0.015625)"/>
       <path d="M 2194 1759 
Q 1497 1759 1228 1600 
Q 959 1441 959 1056 
Q 959 750 1161 570 
Q 1363 391 1709 391 
Q 2188 391 2477 730 
Q 2766 1069 2766 1631 
L 2766 1759 
L 2194 1759 
z
M 3341 1997 
L 3341 0 
L 2766 0 
L 2766 531 
Q 2569 213 2275 61 
Q 1981 -91 1556 -91 
Q 1019 -91 701 211 
Q 384 513 384 1019 
Q 384 1609 779 1909 
Q 1175 2209 1959 2209 
L 2766 2209 
L 2766 2266 
Q 2766 2663 2505 2880 
Q 2244 3097 1772 3097 
Q 1472 3097 1187 3025 
Q 903 2953 641 2809 
L 641 3341 
Q 956 3463 1253 3523 
Q 1550 3584 1831 3584 
Q 2591 3584 2966 3190 
Q 3341 2797 3341 1997 
z
" id="DejaVuSans-61" transform="scale(0.015625)"/>
       <path d="M 603 4863 
L 1178 4863 
L 1178 0 
L 603 0 
L 603 4863 
z
" id="DejaVuSans-6c" transform="scale(0.015625)"/>
       <path d="M 544 1381 
L 544 3500 
L 1119 3500 
L 1119 1403 
Q 1119 906 1312 657 
Q 1506 409 1894 409 
Q 2359 409 2629 706 
Q 2900 1003 2900 1516 
L 2900 3500 
L 3475 3500 
L 3475 0 
L 2900 0 
L 2900 538 
Q 2691 219 2414 64 
Q 2138 -91 1772 -91 
Q 1169 -91 856 284 
Q 544 659 544 1381 
z
M 1991 3584 
L 1991 3584 
z
" id="DejaVuSans-75" transform="scale(0.015625)"/>
       <path d="M 3597 1894 
L 3597 1613 
L 953 1613 
Q 991 1019 1311 708 
Q 1631 397 2203 397 
Q 2534 397 2845 478 
Q 3156 559 3463 722 
L 3463 178 
Q 3153 47 2828 -22 
Q 2503 -91 2169 -91 
Q 1331 -91 842 396 
Q 353 884 353 1716 
Q 353 2575 817 3079 
Q 1281 3584 2069 3584 
Q 2775 3584 3186 3129 
Q 3597 2675 3597 1894 
z
M 3022 2063 
Q 3016 2534 2758 2815 
Q 2500 3097 2075 3097 
Q 1594 3097 1305 2825 
Q 1016 2553 972 2059 
L 3022 2063 
z
" id="DejaVuSans-65" transform="scale(0.015625)"/>
      </defs>
      <use xlink:href="#DejaVuSans-56"/>
      <use x="60.658203" xlink:href="#DejaVuSans-61"/>
      <use x="121.9375" xlink:href="#DejaVuSans-6c"/>
      <use x="149.720703" xlink:href="#DejaVuSans-75"/>
      <use x="213.099609" xlink:href="#DejaVuSans-65"/>
     </g>
    </g>
   </g>
   <g id="line2d_19">
    <path clip-path="url(#pe4d3ba670f)" d="M 90.635934 68.727328 
L 186.254049 90.333928 
L 281.872164 86.926579 
L 377.490279 180.728889 
" style="fill:none;stroke:#000000;stroke-width:0.886227;"/>
   </g>
   <g id="PathCollection_1">
    <path clip-path="url(#pe4d3ba670f)" d="M 90.635934 70.499782 
C 91.105994 70.499782 91.556865 70.313025 91.889248 69.980642 
C 92.22163 69.648259 92.408387 69.197388 92.408387 68.727328 
C 92.408387 68.257268 92.22163 67.806396 91.889248 67.474014 
C 91.556865 67.141631 91.105994 66.954874 90.635934 66.954874 
C 90.165873 66.954874 89.715002 67.141631 89.382619 67.474014 
C 89.050237 67.806396 88.86348 68.257268 88.86348 68.727328 
C 88.86348 69.197388 89.050237 69.648259 89.382619 69.980642 
C 89.715002 70.313025 90.165873 70.499782 90.635934 70.499782 
z
" style="stroke:#000000;stroke-width:0.886227;"/>
    <path clip-path="url(#pe4d3ba670f)" d="M 186.254049 92.106382 
C 186.724109 92.106382 187.17498 91.919625 187.507363 91.587242 
C 187.839746 91.25486 188.026502 90.803988 188.026502 90.333928 
C 188.026502 89.863868 187.839746 89.412997 187.507363 89.080614 
C 187.17498 88.748231 186.724109 88.561474 186.254049 88.561474 
C 185.783988 88.561474 185.333117 88.748231 185.000734 89.080614 
C 184.668352 89.412997 184.481595 89.863868 184.481595 90.333928 
C 184.481595 90.803988 184.668352 91.25486 185.000734 91.587242 
C 185.333117 91.919625 185.783988 92.106382 186.254049 92.106382 
z
" style="stroke:#000000;stroke-width:0.886227;"/>
    <path clip-path="url(#pe4d3ba670f)" d="M 281.872164 88.699033 
C 282.342224 88.699033 282.793095 88.512276 283.125478 88.179894 
C 283.457861 87.847511 283.644617 87.39664 283.644617 86.926579 
C 283.644617 86.456519 283.457861 86.005648 283.125478 85.673265 
C 282.793095 85.340882 282.342224 85.154126 281.872164 85.154126 
C 281.402103 85.154126 280.951232 85.340882 280.618849 85.673265 
C 280.286467 86.005648 280.09971 86.456519 280.09971 86.926579 
C 280.09971 87.39664 280.286467 87.847511 280.618849 88.179894 
C 280.951232 88.512276 281.402103 88.699033 281.872164 88.699033 
z
" style="stroke:#000000;stroke-width:0.886227;"/>
    <path clip-path="url(#pe4d3ba670f)" d="M 377.490279 182.501343 
C 377.960339 182.501343 378.41121 182.314586 378.743593 181.982203 
C 379.075976 181.649821 379.262733 181.198949 379.262733 180.728889 
C 379.262733 180.258829 379.075976 179.807958 378.743593 179.475575 
C 378.41121 179.143192 377.960339 178.956435 377.490279 178.956435 
C 377.020218 178.956435 376.569347 179.143192 376.236965 179.475575 
C 375.904582 179.807958 375.717825 180.258829 375.717825 180.728889 
C 375.717825 181.198949 375.904582 181.649821 376.236965 181.982203 
C 376.569347 182.314586 377.020218 182.501343 377.490279 182.501343 
z
" style="stroke:#000000;stroke-width:0.886227;"/>
   </g>
   <g id="patch_3">
    <path d="M 52.388688 22.244082 
L 415.737525 22.244082 
L 415.737525 7.2 
L 52.388688 7.2 
z
" style="fill:#d9d9d9;"/>
   </g>
   <g id="PolyCollection_1">
    <path clip-path="url(#pe4d3ba670f)" d="M 90.635934 31.884537 
L 90.635934 105.570119 
L 186.254049 131.939654 
L 281.872164 127.244788 
L 377.490279 224.693628 
L 377.490279 136.764151 
L 377.490279 136.764151 
L 281.872164 46.608371 
L 186.254049 48.728202 
L 90.635934 31.884537 
z
" style="fill:#333333;fill-opacity:0.501961;"/>
   </g>
   <g id="text_6">
    <!-- Accuracy -->
    <g style="fill:#1a1a1a;" transform="translate(213.974356 17.150291)scale(0.088 -0.088)">
     <defs>
      <path d="M 2188 4044 
L 1331 1722 
L 3047 1722 
L 2188 4044 
z
M 1831 4666 
L 2547 4666 
L 4325 0 
L 3669 0 
L 3244 1197 
L 1141 1197 
L 716 0 
L 50 0 
L 1831 4666 
z
" id="DejaVuSans-41" transform="scale(0.015625)"/>
      <path d="M 3122 3366 
L 3122 2828 
Q 2878 2963 2633 3030 
Q 2388 3097 2138 3097 
Q 1578 3097 1268 2742 
Q 959 2388 959 1747 
Q 959 1106 1268 751 
Q 1578 397 2138 397 
Q 2388 397 2633 464 
Q 2878 531 3122 666 
L 3122 134 
Q 2881 22 2623 -34 
Q 2366 -91 2075 -91 
Q 1284 -91 818 406 
Q 353 903 353 1747 
Q 353 2603 823 3093 
Q 1294 3584 2113 3584 
Q 2378 3584 2631 3529 
Q 2884 3475 3122 3366 
z
" id="DejaVuSans-63" transform="scale(0.015625)"/>
      <path d="M 2631 2963 
Q 2534 3019 2420 3045 
Q 2306 3072 2169 3072 
Q 1681 3072 1420 2755 
Q 1159 2438 1159 1844 
L 1159 0 
L 581 0 
L 581 3500 
L 1159 3500 
L 1159 2956 
Q 1341 3275 1631 3429 
Q 1922 3584 2338 3584 
Q 2397 3584 2469 3576 
Q 2541 3569 2628 3553 
L 2631 2963 
z
" id="DejaVuSans-72" transform="scale(0.015625)"/>
      <path d="M 2059 -325 
Q 1816 -950 1584 -1140 
Q 1353 -1331 966 -1331 
L 506 -1331 
L 506 -850 
L 844 -850 
Q 1081 -850 1212 -737 
Q 1344 -625 1503 -206 
L 1606 56 
L 191 3500 
L 800 3500 
L 1894 763 
L 2988 3500 
L 3597 3500 
L 2059 -325 
z
" id="DejaVuSans-79" transform="scale(0.015625)"/>
     </defs>
     <use xlink:href="#DejaVuSans-41"/>
     <use x="66.658203" xlink:href="#DejaVuSans-63"/>
     <use x="121.638672" xlink:href="#DejaVuSans-63"/>
     <use x="176.619141" xlink:href="#DejaVuSans-75"/>
     <use x="239.998047" xlink:href="#DejaVuSans-72"/>
     <use x="281.111328" xlink:href="#DejaVuSans-61"/>
     <use x="342.390625" xlink:href="#DejaVuSans-63"/>
     <use x="397.371094" xlink:href="#DejaVuSans-79"/>
    </g>
   </g>
  </g>
  <g id="axes_2">
   <g id="patch_4">
    <path d="M 470.23985 234.334082 
L 833.588688 234.334082 
L 833.588688 22.244082 
L 470.23985 22.244082 
z
" style="fill:#ebebeb;"/>
   </g>
   <g id="matplotlib.axis_3">
    <g id="xtick_8">
     <g id="line2d_20">
      <path clip-path="url(#p6c2e6e93c0)" d="M 508.487096 234.334082 
L 508.487096 22.244082 
" style="fill:none;stroke:#ffffff;stroke-linecap:square;"/>
     </g>
    </g>
    <g id="xtick_9">
     <g id="line2d_21">
      <path clip-path="url(#p6c2e6e93c0)" d="M 604.105211 234.334082 
L 604.105211 22.244082 
" style="fill:none;stroke:#ffffff;stroke-linecap:square;"/>
     </g>
    </g>
    <g id="xtick_10">
     <g id="line2d_22">
      <path clip-path="url(#p6c2e6e93c0)" d="M 699.723326 234.334082 
L 699.723326 22.244082 
" style="fill:none;stroke:#ffffff;stroke-linecap:square;"/>
     </g>
    </g>
    <g id="xtick_11">
     <g id="line2d_23">
      <path clip-path="url(#p6c2e6e93c0)" d="M 795.341441 234.334082 
L 795.341441 22.244082 
" style="fill:none;stroke:#ffffff;stroke-linecap:square;"/>
     </g>
    </g>
    <g id="xtick_12">
     <g id="line2d_24">
      <path clip-path="url(#p6c2e6e93c0)" d="M 556.296154 234.334082 
L 556.296154 22.244082 
" style="fill:none;stroke:#ffffff;stroke-linecap:square;stroke-width:0.5;"/>
     </g>
    </g>
    <g id="xtick_13">
     <g id="line2d_25">
      <path clip-path="url(#p6c2e6e93c0)" d="M 651.914269 234.334082 
L 651.914269 22.244082 
" style="fill:none;stroke:#ffffff;stroke-linecap:square;stroke-width:0.5;"/>
     </g>
    </g>
    <g id="xtick_14">
     <g id="line2d_26">
      <path clip-path="url(#p6c2e6e93c0)" d="M 747.532384 234.334082 
L 747.532384 22.244082 
" style="fill:none;stroke:#ffffff;stroke-linecap:square;stroke-width:0.5;"/>
     </g>
    </g>
   </g>
   <g id="matplotlib.axis_4">
    <g id="ytick_8">
     <g id="line2d_27">
      <path clip-path="url(#p6c2e6e93c0)" d="M 470.23985 224.647835 
L 833.588688 224.647835 
" style="fill:none;stroke:#ffffff;stroke-linecap:square;"/>
     </g>
     <g id="line2d_28">
      <path d="M 470.23985 224.647835 
" style="fill:none;stroke:#333333;stroke-linecap:square;stroke-width:1.5;"/>
      <g>
       <use style="fill:#333333;stroke:#000000;" x="470.23985" xlink:href="#mbee923918b" y="224.647835"/>
      </g>
     </g>
     <g id="text_7">
      <!-- 0.8750 -->
      <g style="fill:#4d4d4d;" transform="translate(434.4981 227.076085)scale(0.088 -0.088)">
       <defs>
        <path d="M 525 4666 
L 3525 4666 
L 3525 4397 
L 1831 0 
L 1172 0 
L 2766 4134 
L 525 4134 
L 525 4666 
z
" id="DejaVuSans-37" transform="scale(0.015625)"/>
        <path d="M 691 4666 
L 3169 4666 
L 3169 4134 
L 1269 4134 
L 1269 2991 
Q 1406 3038 1543 3061 
Q 1681 3084 1819 3084 
Q 2600 3084 3056 2656 
Q 3513 2228 3513 1497 
Q 3513 744 3044 326 
Q 2575 -91 1722 -91 
Q 1428 -91 1123 -41 
Q 819 9 494 109 
L 494 744 
Q 775 591 1075 516 
Q 1375 441 1709 441 
Q 2250 441 2565 725 
Q 2881 1009 2881 1497 
Q 2881 1984 2565 2268 
Q 2250 2553 1709 2553 
Q 1456 2553 1204 2497 
Q 953 2441 691 2322 
L 691 4666 
z
" id="DejaVuSans-35" transform="scale(0.015625)"/>
       </defs>
       <use xlink:href="#DejaVuSans-30"/>
       <use x="63.623047" xlink:href="#DejaVuSans-2e"/>
       <use x="95.410156" xlink:href="#DejaVuSans-38"/>
       <use x="159.033203" xlink:href="#DejaVuSans-37"/>
       <use x="222.65625" xlink:href="#DejaVuSans-35"/>
       <use x="286.279297" xlink:href="#DejaVuSans-30"/>
      </g>
     </g>
    </g>
    <g id="ytick_9">
     <g id="line2d_29">
      <path clip-path="url(#p6c2e6e93c0)" d="M 470.23985 184.046276 
L 833.588688 184.046276 
" style="fill:none;stroke:#ffffff;stroke-linecap:square;"/>
     </g>
     <g id="line2d_30">
      <path d="M 470.23985 184.046276 
" style="fill:none;stroke:#333333;stroke-linecap:square;stroke-width:1.5;"/>
      <g>
       <use style="fill:#333333;stroke:#000000;" x="470.23985" xlink:href="#mbee923918b" y="184.046276"/>
      </g>
     </g>
     <g id="text_8">
      <!-- 0.8775 -->
      <g style="fill:#4d4d4d;" transform="translate(434.4981 186.474526)scale(0.088 -0.088)">
       <use xlink:href="#DejaVuSans-30"/>
       <use x="63.623047" xlink:href="#DejaVuSans-2e"/>
       <use x="95.410156" xlink:href="#DejaVuSans-38"/>
       <use x="159.033203" xlink:href="#DejaVuSans-37"/>
       <use x="222.65625" xlink:href="#DejaVuSans-37"/>
       <use x="286.279297" xlink:href="#DejaVuSans-35"/>
      </g>
     </g>
    </g>
    <g id="ytick_10">
     <g id="line2d_31">
      <path clip-path="url(#p6c2e6e93c0)" d="M 470.23985 143.444716 
L 833.588688 143.444716 
" style="fill:none;stroke:#ffffff;stroke-linecap:square;"/>
     </g>
     <g id="line2d_32">
      <path d="M 470.23985 143.444716 
" style="fill:none;stroke:#333333;stroke-linecap:square;stroke-width:1.5;"/>
      <g>
       <use style="fill:#333333;stroke:#000000;" x="470.23985" xlink:href="#mbee923918b" y="143.444716"/>
      </g>
     </g>
     <g id="text_9">
      <!-- 0.8800 -->
      <g style="fill:#4d4d4d;" transform="translate(434.4981 145.872966)scale(0.088 -0.088)">
       <use xlink:href="#DejaVuSans-30"/>
       <use x="63.623047" xlink:href="#DejaVuSans-2e"/>
       <use x="95.410156" xlink:href="#DejaVuSans-38"/>
       <use x="159.033203" xlink:href="#DejaVuSans-38"/>
       <use x="222.65625" xlink:href="#DejaVuSans-30"/>
       <use x="286.279297" xlink:href="#DejaVuSans-30"/>
      </g>
     </g>
    </g>
    <g id="ytick_11">
     <g id="line2d_33">
      <path clip-path="url(#p6c2e6e93c0)" d="M 470.23985 102.843157 
L 833.588688 102.843157 
" style="fill:none;stroke:#ffffff;stroke-linecap:square;"/>
     </g>
     <g id="line2d_34">
      <path d="M 470.23985 102.843157 
" style="fill:none;stroke:#333333;stroke-linecap:square;stroke-width:1.5;"/>
      <g>
       <use style="fill:#333333;stroke:#000000;" x="470.23985" xlink:href="#mbee923918b" y="102.843157"/>
      </g>
     </g>
     <g id="text_10">
      <!-- 0.8825 -->
      <g style="fill:#4d4d4d;" transform="translate(434.4981 105.271407)scale(0.088 -0.088)">
       <use xlink:href="#DejaVuSans-30"/>
       <use x="63.623047" xlink:href="#DejaVuSans-2e"/>
       <use x="95.410156" xlink:href="#DejaVuSans-38"/>
       <use x="159.033203" xlink:href="#DejaVuSans-38"/>
       <use x="222.65625" xlink:href="#DejaVuSans-32"/>
       <use x="286.279297" xlink:href="#DejaVuSans-35"/>
      </g>
     </g>
    </g>
    <g id="ytick_12">
     <g id="line2d_35">
      <path clip-path="url(#p6c2e6e93c0)" d="M 470.23985 62.241598 
L 833.588688 62.241598 
" style="fill:none;stroke:#ffffff;stroke-linecap:square;"/>
     </g>
     <g id="line2d_36">
      <path d="M 470.23985 62.241598 
" style="fill:none;stroke:#333333;stroke-linecap:square;stroke-width:1.5;"/>
      <g>
       <use style="fill:#333333;stroke:#000000;" x="470.23985" xlink:href="#mbee923918b" y="62.241598"/>
      </g>
     </g>
     <g id="text_11">
      <!-- 0.8850 -->
      <g style="fill:#4d4d4d;" transform="translate(434.4981 64.669848)scale(0.088 -0.088)">
       <use xlink:href="#DejaVuSans-30"/>
       <use x="63.623047" xlink:href="#DejaVuSans-2e"/>
       <use x="95.410156" xlink:href="#DejaVuSans-38"/>
       <use x="159.033203" xlink:href="#DejaVuSans-38"/>
       <use x="222.65625" xlink:href="#DejaVuSans-35"/>
       <use x="286.279297" xlink:href="#DejaVuSans-30"/>
      </g>
     </g>
    </g>
    <g id="ytick_13">
     <g id="line2d_37">
      <path clip-path="url(#p6c2e6e93c0)" d="M 470.23985 204.347055 
L 833.588688 204.347055 
" style="fill:none;stroke:#ffffff;stroke-linecap:square;stroke-width:0.5;"/>
     </g>
    </g>
    <g id="ytick_14">
     <g id="line2d_38">
      <path clip-path="url(#p6c2e6e93c0)" d="M 470.23985 163.745496 
L 833.588688 163.745496 
" style="fill:none;stroke:#ffffff;stroke-linecap:square;stroke-width:0.5;"/>
     </g>
    </g>
    <g id="ytick_15">
     <g id="line2d_39">
      <path clip-path="url(#p6c2e6e93c0)" d="M 470.23985 123.143937 
L 833.588688 123.143937 
" style="fill:none;stroke:#ffffff;stroke-linecap:square;stroke-width:0.5;"/>
     </g>
    </g>
    <g id="ytick_16">
     <g id="line2d_40">
      <path clip-path="url(#p6c2e6e93c0)" d="M 470.23985 82.542378 
L 833.588688 82.542378 
" style="fill:none;stroke:#ffffff;stroke-linecap:square;stroke-width:0.5;"/>
     </g>
    </g>
    <g id="ytick_17">
     <g id="line2d_41">
      <path clip-path="url(#p6c2e6e93c0)" d="M 470.23985 41.940819 
L 833.588688 41.940819 
" style="fill:none;stroke:#ffffff;stroke-linecap:square;stroke-width:0.5;"/>
     </g>
    </g>
   </g>
   <g id="line2d_42">
    <path clip-path="url(#p6c2e6e93c0)" d="M 508.487096 65.566969 
L 604.105211 81.416067 
L 699.723326 73.246529 
L 795.341441 166.875912 
" style="fill:none;stroke:#000000;stroke-width:0.886227;"/>
   </g>
   <g id="PathCollection_2">
    <path clip-path="url(#p6c2e6e93c0)" d="M 508.487096 67.339423 
C 508.957157 67.339423 509.408028 67.152666 509.74041 66.820284 
C 510.072793 66.487901 510.25955 66.03703 510.25955 65.566969 
C 510.25955 65.096909 510.072793 64.646038 509.74041 64.313655 
C 509.408028 63.981272 508.957157 63.794516 508.487096 63.794516 
C 508.017036 63.794516 507.566165 63.981272 507.233782 64.313655 
C 506.901399 64.646038 506.714642 65.096909 506.714642 65.566969 
C 506.714642 66.03703 506.901399 66.487901 507.233782 66.820284 
C 507.566165 67.152666 508.017036 67.339423 508.487096 67.339423 
z
" style="stroke:#000000;stroke-width:0.886227;"/>
    <path clip-path="url(#p6c2e6e93c0)" d="M 604.105211 83.188521 
C 604.575272 83.188521 605.026143 83.001764 605.358526 82.669381 
C 605.690908 82.336998 605.877665 81.886127 605.877665 81.416067 
C 605.877665 80.946007 605.690908 80.495136 605.358526 80.162753 
C 605.026143 79.83037 604.575272 79.643613 604.105211 79.643613 
C 603.635151 79.643613 603.18428 79.83037 602.851897 80.162753 
C 602.519514 80.495136 602.332758 80.946007 602.332758 81.416067 
C 602.332758 81.886127 602.519514 82.336998 602.851897 82.669381 
C 603.18428 83.001764 603.635151 83.188521 604.105211 83.188521 
z
" style="stroke:#000000;stroke-width:0.886227;"/>
    <path clip-path="url(#p6c2e6e93c0)" d="M 699.723326 75.018983 
C 700.193387 75.018983 700.644258 74.832226 700.976641 74.499844 
C 701.309023 74.167461 701.49578 73.71659 701.49578 73.246529 
C 701.49578 72.776469 701.309023 72.325598 700.976641 71.993215 
C 700.644258 71.660833 700.193387 71.474076 699.723326 71.474076 
C 699.253266 71.474076 698.802395 71.660833 698.470012 71.993215 
C 698.137629 72.325598 697.950873 72.776469 697.950873 73.246529 
C 697.950873 73.71659 698.137629 74.167461 698.470012 74.499844 
C 698.802395 74.832226 699.253266 75.018983 699.723326 75.018983 
z
" style="stroke:#000000;stroke-width:0.886227;"/>
    <path clip-path="url(#p6c2e6e93c0)" d="M 795.341441 168.648366 
C 795.811502 168.648366 796.262373 168.461609 796.594756 168.129226 
C 796.927138 167.796843 797.113895 167.345972 797.113895 166.875912 
C 797.113895 166.405852 796.927138 165.95498 796.594756 165.622598 
C 796.262373 165.290215 795.811502 165.103458 795.341441 165.103458 
C 794.871381 165.103458 794.42051 165.290215 794.088127 165.622598 
C 793.755745 165.95498 793.568988 166.405852 793.568988 166.875912 
C 793.568988 167.345972 793.755745 167.796843 794.088127 168.129226 
C 794.42051 168.461609 794.871381 168.648366 795.341441 168.648366 
z
" style="stroke:#000000;stroke-width:0.886227;"/>
   </g>
   <g id="patch_5">
    <path d="M 470.23985 22.244082 
L 833.588688 22.244082 
L 833.588688 7.2 
L 470.23985 7.2 
z
" style="fill:#d9d9d9;"/>
   </g>
   <g id="PolyCollection_2">
    <path clip-path="url(#p6c2e6e93c0)" d="M 508.487096 31.884537 
L 508.487096 99.249402 
L 604.105211 116.338612 
L 699.723326 111.585684 
L 795.341441 224.693628 
L 795.341441 109.058196 
L 795.341441 109.058196 
L 699.723326 34.907375 
L 604.105211 46.493522 
L 508.487096 31.884537 
z
" style="fill:#333333;fill-opacity:0.501961;"/>
   </g>
   <g id="text_12">
    <!-- AUC -->
    <g style="fill:#1a1a1a;" transform="translate(642.611706 17.150291)scale(0.088 -0.088)">
     <defs>
      <path d="M 556 4666 
L 1191 4666 
L 1191 1831 
Q 1191 1081 1462 751 
Q 1734 422 2344 422 
Q 2950 422 3222 751 
Q 3494 1081 3494 1831 
L 3494 4666 
L 4128 4666 
L 4128 1753 
Q 4128 841 3676 375 
Q 3225 -91 2344 -91 
Q 1459 -91 1007 375 
Q 556 841 556 1753 
L 556 4666 
z
" id="DejaVuSans-55" transform="scale(0.015625)"/>
      <path d="M 4122 4306 
L 4122 3641 
Q 3803 3938 3442 4084 
Q 3081 4231 2675 4231 
Q 1875 4231 1450 3742 
Q 1025 3253 1025 2328 
Q 1025 1406 1450 917 
Q 1875 428 2675 428 
Q 3081 428 3442 575 
Q 3803 722 4122 1019 
L 4122 359 
Q 3791 134 3420 21 
Q 3050 -91 2638 -91 
Q 1578 -91 968 557 
Q 359 1206 359 2328 
Q 359 3453 968 4101 
Q 1578 4750 2638 4750 
Q 3056 4750 3426 4639 
Q 3797 4528 4122 4306 
z
" id="DejaVuSans-43" transform="scale(0.015625)"/>
     </defs>
     <use xlink:href="#DejaVuSans-41"/>
     <use x="68.408203" xlink:href="#DejaVuSans-55"/>
     <use x="141.601562" xlink:href="#DejaVuSans-43"/>
    </g>
   </g>
  </g>
  <g id="axes_3">
   <g id="patch_6">
    <path d="M 52.388688 465.764082 
L 415.737525 465.764082 
L 415.737525 253.674082 
L 52.388688 253.674082 
z
" style="fill:#ebebeb;"/>
   </g>
   <g id="matplotlib.axis_5">
    <g id="xtick_15">
     <g id="line2d_43">
      <path clip-path="url(#p2f9980eb12)" d="M 90.635934 465.764082 
L 90.635934 253.674082 
" style="fill:none;stroke:#ffffff;stroke-linecap:square;"/>
     </g>
     <g id="line2d_44">
      <path d="M 90.635934 465.764082 
" style="fill:none;stroke:#333333;stroke-linecap:square;stroke-width:1.5;"/>
      <defs>
       <path d="M 0 0 
L 0 2.75 
" id="m6cd4090677" style="stroke:#000000;"/>
      </defs>
      <g>
       <use style="fill:#333333;stroke:#000000;" x="90.635934" xlink:href="#m6cd4090677" y="465.764082"/>
      </g>
     </g>
     <g id="text_13">
      <!-- Different_queries_generator_and_critic -->
      <g style="fill:#4d4d4d;" transform="translate(31.957871 596.059366)rotate(-45)scale(0.088 -0.088)">
       <defs>
        <path d="M 1259 4147 
L 1259 519 
L 2022 519 
Q 2988 519 3436 956 
Q 3884 1394 3884 2338 
Q 3884 3275 3436 3711 
Q 2988 4147 2022 4147 
L 1259 4147 
z
M 628 4666 
L 1925 4666 
Q 3281 4666 3915 4102 
Q 4550 3538 4550 2338 
Q 4550 1131 3912 565 
Q 3275 0 1925 0 
L 628 0 
L 628 4666 
z
" id="DejaVuSans-44" transform="scale(0.015625)"/>
        <path d="M 603 3500 
L 1178 3500 
L 1178 0 
L 603 0 
L 603 3500 
z
M 603 4863 
L 1178 4863 
L 1178 4134 
L 603 4134 
L 603 4863 
z
" id="DejaVuSans-69" transform="scale(0.015625)"/>
        <path d="M 2375 4863 
L 2375 4384 
L 1825 4384 
Q 1516 4384 1395 4259 
Q 1275 4134 1275 3809 
L 1275 3500 
L 2222 3500 
L 2222 3053 
L 1275 3053 
L 1275 0 
L 697 0 
L 697 3053 
L 147 3053 
L 147 3500 
L 697 3500 
L 697 3744 
Q 697 4328 969 4595 
Q 1241 4863 1831 4863 
L 2375 4863 
z
" id="DejaVuSans-66" transform="scale(0.015625)"/>
        <path d="M 3513 2113 
L 3513 0 
L 2938 0 
L 2938 2094 
Q 2938 2591 2744 2837 
Q 2550 3084 2163 3084 
Q 1697 3084 1428 2787 
Q 1159 2491 1159 1978 
L 1159 0 
L 581 0 
L 581 3500 
L 1159 3500 
L 1159 2956 
Q 1366 3272 1645 3428 
Q 1925 3584 2291 3584 
Q 2894 3584 3203 3211 
Q 3513 2838 3513 2113 
z
" id="DejaVuSans-6e" transform="scale(0.015625)"/>
        <path d="M 1172 4494 
L 1172 3500 
L 2356 3500 
L 2356 3053 
L 1172 3053 
L 1172 1153 
Q 1172 725 1289 603 
Q 1406 481 1766 481 
L 2356 481 
L 2356 0 
L 1766 0 
Q 1100 0 847 248 
Q 594 497 594 1153 
L 594 3053 
L 172 3053 
L 172 3500 
L 594 3500 
L 594 4494 
L 1172 4494 
z
" id="DejaVuSans-74" transform="scale(0.015625)"/>
        <path d="M 3263 -1063 
L 3263 -1509 
L -63 -1509 
L -63 -1063 
L 3263 -1063 
z
" id="DejaVuSans-5f" transform="scale(0.015625)"/>
        <path d="M 947 1747 
Q 947 1113 1208 752 
Q 1469 391 1925 391 
Q 2381 391 2643 752 
Q 2906 1113 2906 1747 
Q 2906 2381 2643 2742 
Q 2381 3103 1925 3103 
Q 1469 3103 1208 2742 
Q 947 2381 947 1747 
z
M 2906 525 
Q 2725 213 2448 61 
Q 2172 -91 1784 -91 
Q 1150 -91 751 415 
Q 353 922 353 1747 
Q 353 2572 751 3078 
Q 1150 3584 1784 3584 
Q 2172 3584 2448 3432 
Q 2725 3281 2906 2969 
L 2906 3500 
L 3481 3500 
L 3481 -1331 
L 2906 -1331 
L 2906 525 
z
" id="DejaVuSans-71" transform="scale(0.015625)"/>
        <path d="M 2834 3397 
L 2834 2853 
Q 2591 2978 2328 3040 
Q 2066 3103 1784 3103 
Q 1356 3103 1142 2972 
Q 928 2841 928 2578 
Q 928 2378 1081 2264 
Q 1234 2150 1697 2047 
L 1894 2003 
Q 2506 1872 2764 1633 
Q 3022 1394 3022 966 
Q 3022 478 2636 193 
Q 2250 -91 1575 -91 
Q 1294 -91 989 -36 
Q 684 19 347 128 
L 347 722 
Q 666 556 975 473 
Q 1284 391 1588 391 
Q 1994 391 2212 530 
Q 2431 669 2431 922 
Q 2431 1156 2273 1281 
Q 2116 1406 1581 1522 
L 1381 1569 
Q 847 1681 609 1914 
Q 372 2147 372 2553 
Q 372 3047 722 3315 
Q 1072 3584 1716 3584 
Q 2034 3584 2315 3537 
Q 2597 3491 2834 3397 
z
" id="DejaVuSans-73" transform="scale(0.015625)"/>
        <path d="M 2906 1791 
Q 2906 2416 2648 2759 
Q 2391 3103 1925 3103 
Q 1463 3103 1205 2759 
Q 947 2416 947 1791 
Q 947 1169 1205 825 
Q 1463 481 1925 481 
Q 2391 481 2648 825 
Q 2906 1169 2906 1791 
z
M 3481 434 
Q 3481 -459 3084 -895 
Q 2688 -1331 1869 -1331 
Q 1566 -1331 1297 -1286 
Q 1028 -1241 775 -1147 
L 775 -588 
Q 1028 -725 1275 -790 
Q 1522 -856 1778 -856 
Q 2344 -856 2625 -561 
Q 2906 -266 2906 331 
L 2906 616 
Q 2728 306 2450 153 
Q 2172 0 1784 0 
Q 1141 0 747 490 
Q 353 981 353 1791 
Q 353 2603 747 3093 
Q 1141 3584 1784 3584 
Q 2172 3584 2450 3431 
Q 2728 3278 2906 2969 
L 2906 3500 
L 3481 3500 
L 3481 434 
z
" id="DejaVuSans-67" transform="scale(0.015625)"/>
        <path d="M 1959 3097 
Q 1497 3097 1228 2736 
Q 959 2375 959 1747 
Q 959 1119 1226 758 
Q 1494 397 1959 397 
Q 2419 397 2687 759 
Q 2956 1122 2956 1747 
Q 2956 2369 2687 2733 
Q 2419 3097 1959 3097 
z
M 1959 3584 
Q 2709 3584 3137 3096 
Q 3566 2609 3566 1747 
Q 3566 888 3137 398 
Q 2709 -91 1959 -91 
Q 1206 -91 779 398 
Q 353 888 353 1747 
Q 353 2609 779 3096 
Q 1206 3584 1959 3584 
z
" id="DejaVuSans-6f" transform="scale(0.015625)"/>
        <path d="M 2906 2969 
L 2906 4863 
L 3481 4863 
L 3481 0 
L 2906 0 
L 2906 525 
Q 2725 213 2448 61 
Q 2172 -91 1784 -91 
Q 1150 -91 751 415 
Q 353 922 353 1747 
Q 353 2572 751 3078 
Q 1150 3584 1784 3584 
Q 2172 3584 2448 3432 
Q 2725 3281 2906 2969 
z
M 947 1747 
Q 947 1113 1208 752 
Q 1469 391 1925 391 
Q 2381 391 2643 752 
Q 2906 1113 2906 1747 
Q 2906 2381 2643 2742 
Q 2381 3103 1925 3103 
Q 1469 3103 1208 2742 
Q 947 2381 947 1747 
z
" id="DejaVuSans-64" transform="scale(0.015625)"/>
       </defs>
       <use xlink:href="#DejaVuSans-44"/>
       <use x="77.001953" xlink:href="#DejaVuSans-69"/>
       <use x="104.785156" xlink:href="#DejaVuSans-66"/>
       <use x="139.990234" xlink:href="#DejaVuSans-66"/>
       <use x="175.195312" xlink:href="#DejaVuSans-65"/>
       <use x="236.71875" xlink:href="#DejaVuSans-72"/>
       <use x="275.582031" xlink:href="#DejaVuSans-65"/>
       <use x="337.105469" xlink:href="#DejaVuSans-6e"/>
       <use x="400.484375" xlink:href="#DejaVuSans-74"/>
       <use x="439.693359" xlink:href="#DejaVuSans-5f"/>
       <use x="489.693359" xlink:href="#DejaVuSans-71"/>
       <use x="553.169922" xlink:href="#DejaVuSans-75"/>
       <use x="616.548828" xlink:href="#DejaVuSans-65"/>
       <use x="678.072266" xlink:href="#DejaVuSans-72"/>
       <use x="719.185547" xlink:href="#DejaVuSans-69"/>
       <use x="746.96875" xlink:href="#DejaVuSans-65"/>
       <use x="808.492188" xlink:href="#DejaVuSans-73"/>
       <use x="860.591797" xlink:href="#DejaVuSans-5f"/>
       <use x="910.591797" xlink:href="#DejaVuSans-67"/>
       <use x="974.068359" xlink:href="#DejaVuSans-65"/>
       <use x="1035.591797" xlink:href="#DejaVuSans-6e"/>
       <use x="1098.970703" xlink:href="#DejaVuSans-65"/>
       <use x="1160.494141" xlink:href="#DejaVuSans-72"/>
       <use x="1201.607422" xlink:href="#DejaVuSans-61"/>
       <use x="1262.886719" xlink:href="#DejaVuSans-74"/>
       <use x="1302.095703" xlink:href="#DejaVuSans-6f"/>
       <use x="1363.277344" xlink:href="#DejaVuSans-72"/>
       <use x="1404.390625" xlink:href="#DejaVuSans-5f"/>
       <use x="1454.390625" xlink:href="#DejaVuSans-61"/>
       <use x="1515.669922" xlink:href="#DejaVuSans-6e"/>
       <use x="1579.048828" xlink:href="#DejaVuSans-64"/>
       <use x="1642.525391" xlink:href="#DejaVuSans-5f"/>
       <use x="1692.525391" xlink:href="#DejaVuSans-63"/>
       <use x="1747.505859" xlink:href="#DejaVuSans-72"/>
       <use x="1788.619141" xlink:href="#DejaVuSans-69"/>
       <use x="1816.402344" xlink:href="#DejaVuSans-74"/>
       <use x="1855.611328" xlink:href="#DejaVuSans-69"/>
       <use x="1883.394531" xlink:href="#DejaVuSans-63"/>
      </g>
     </g>
    </g>
    <g id="xtick_16">
     <g id="line2d_45">
      <path clip-path="url(#p2f9980eb12)" d="M 186.254049 465.764082 
L 186.254049 253.674082 
" style="fill:none;stroke:#ffffff;stroke-linecap:square;"/>
     </g>
     <g id="line2d_46">
      <path d="M 186.254049 465.764082 
" style="fill:none;stroke:#333333;stroke-linecap:square;stroke-width:1.5;"/>
      <g>
       <use style="fill:#333333;stroke:#000000;" x="186.254049" xlink:href="#m6cd4090677" y="465.764082"/>
      </g>
     </g>
     <g id="text_14">
      <!-- Same_queries_generator_and_critic -->
      <g style="fill:#4d4d4d;" transform="translate(132.42908 586.353176)rotate(-45)scale(0.088 -0.088)">
       <defs>
        <path d="M 3425 4513 
L 3425 3897 
Q 3066 4069 2747 4153 
Q 2428 4238 2131 4238 
Q 1616 4238 1336 4038 
Q 1056 3838 1056 3469 
Q 1056 3159 1242 3001 
Q 1428 2844 1947 2747 
L 2328 2669 
Q 3034 2534 3370 2195 
Q 3706 1856 3706 1288 
Q 3706 609 3251 259 
Q 2797 -91 1919 -91 
Q 1588 -91 1214 -16 
Q 841 59 441 206 
L 441 856 
Q 825 641 1194 531 
Q 1563 422 1919 422 
Q 2459 422 2753 634 
Q 3047 847 3047 1241 
Q 3047 1584 2836 1778 
Q 2625 1972 2144 2069 
L 1759 2144 
Q 1053 2284 737 2584 
Q 422 2884 422 3419 
Q 422 4038 858 4394 
Q 1294 4750 2059 4750 
Q 2388 4750 2728 4690 
Q 3069 4631 3425 4513 
z
" id="DejaVuSans-53" transform="scale(0.015625)"/>
        <path d="M 3328 2828 
Q 3544 3216 3844 3400 
Q 4144 3584 4550 3584 
Q 5097 3584 5394 3201 
Q 5691 2819 5691 2113 
L 5691 0 
L 5113 0 
L 5113 2094 
Q 5113 2597 4934 2840 
Q 4756 3084 4391 3084 
Q 3944 3084 3684 2787 
Q 3425 2491 3425 1978 
L 3425 0 
L 2847 0 
L 2847 2094 
Q 2847 2600 2669 2842 
Q 2491 3084 2119 3084 
Q 1678 3084 1418 2786 
Q 1159 2488 1159 1978 
L 1159 0 
L 581 0 
L 581 3500 
L 1159 3500 
L 1159 2956 
Q 1356 3278 1631 3431 
Q 1906 3584 2284 3584 
Q 2666 3584 2933 3390 
Q 3200 3197 3328 2828 
z
" id="DejaVuSans-6d" transform="scale(0.015625)"/>
       </defs>
       <use xlink:href="#DejaVuSans-53"/>
       <use x="63.476562" xlink:href="#DejaVuSans-61"/>
       <use x="124.755859" xlink:href="#DejaVuSans-6d"/>
       <use x="222.167969" xlink:href="#DejaVuSans-65"/>
       <use x="283.691406" xlink:href="#DejaVuSans-5f"/>
       <use x="333.691406" xlink:href="#DejaVuSans-71"/>
       <use x="397.167969" xlink:href="#DejaVuSans-75"/>
       <use x="460.546875" xlink:href="#DejaVuSans-65"/>
       <use x="522.070312" xlink:href="#DejaVuSans-72"/>
       <use x="563.183594" xlink:href="#DejaVuSans-69"/>
       <use x="590.966797" xlink:href="#DejaVuSans-65"/>
       <use x="652.490234" xlink:href="#DejaVuSans-73"/>
       <use x="704.589844" xlink:href="#DejaVuSans-5f"/>
       <use x="754.589844" xlink:href="#DejaVuSans-67"/>
       <use x="818.066406" xlink:href="#DejaVuSans-65"/>
       <use x="879.589844" xlink:href="#DejaVuSans-6e"/>
       <use x="942.96875" xlink:href="#DejaVuSans-65"/>
       <use x="1004.492188" xlink:href="#DejaVuSans-72"/>
       <use x="1045.605469" xlink:href="#DejaVuSans-61"/>
       <use x="1106.884766" xlink:href="#DejaVuSans-74"/>
       <use x="1146.09375" xlink:href="#DejaVuSans-6f"/>
       <use x="1207.275391" xlink:href="#DejaVuSans-72"/>
       <use x="1248.388672" xlink:href="#DejaVuSans-5f"/>
       <use x="1298.388672" xlink:href="#DejaVuSans-61"/>
       <use x="1359.667969" xlink:href="#DejaVuSans-6e"/>
       <use x="1423.046875" xlink:href="#DejaVuSans-64"/>
       <use x="1486.523438" xlink:href="#DejaVuSans-5f"/>
       <use x="1536.523438" xlink:href="#DejaVuSans-63"/>
       <use x="1591.503906" xlink:href="#DejaVuSans-72"/>
       <use x="1632.617188" xlink:href="#DejaVuSans-69"/>
       <use x="1660.400391" xlink:href="#DejaVuSans-74"/>
       <use x="1699.609375" xlink:href="#DejaVuSans-69"/>
       <use x="1727.392578" xlink:href="#DejaVuSans-63"/>
      </g>
     </g>
    </g>
    <g id="xtick_17">
     <g id="line2d_47">
      <path clip-path="url(#p2f9980eb12)" d="M 281.872164 465.764082 
L 281.872164 253.674082 
" style="fill:none;stroke:#ffffff;stroke-linecap:square;"/>
     </g>
     <g id="line2d_48">
      <path d="M 281.872164 465.764082 
" style="fill:none;stroke:#333333;stroke-linecap:square;stroke-width:1.5;"/>
      <g>
       <use style="fill:#333333;stroke:#000000;" x="281.872164" xlink:href="#m6cd4090677" y="465.764082"/>
      </g>
     </g>
     <g id="text_15">
      <!-- Same_queries_generator_and_critic_but_diverse_penalty -->
      <g style="fill:#4d4d4d;" transform="translate(195.110515 652.226537)rotate(-45)scale(0.088 -0.088)">
       <defs>
        <path d="M 3116 1747 
Q 3116 2381 2855 2742 
Q 2594 3103 2138 3103 
Q 1681 3103 1420 2742 
Q 1159 2381 1159 1747 
Q 1159 1113 1420 752 
Q 1681 391 2138 391 
Q 2594 391 2855 752 
Q 3116 1113 3116 1747 
z
M 1159 2969 
Q 1341 3281 1617 3432 
Q 1894 3584 2278 3584 
Q 2916 3584 3314 3078 
Q 3713 2572 3713 1747 
Q 3713 922 3314 415 
Q 2916 -91 2278 -91 
Q 1894 -91 1617 61 
Q 1341 213 1159 525 
L 1159 0 
L 581 0 
L 581 4863 
L 1159 4863 
L 1159 2969 
z
" id="DejaVuSans-62" transform="scale(0.015625)"/>
        <path d="M 191 3500 
L 800 3500 
L 1894 563 
L 2988 3500 
L 3597 3500 
L 2284 0 
L 1503 0 
L 191 3500 
z
" id="DejaVuSans-76" transform="scale(0.015625)"/>
        <path d="M 1159 525 
L 1159 -1331 
L 581 -1331 
L 581 3500 
L 1159 3500 
L 1159 2969 
Q 1341 3281 1617 3432 
Q 1894 3584 2278 3584 
Q 2916 3584 3314 3078 
Q 3713 2572 3713 1747 
Q 3713 922 3314 415 
Q 2916 -91 2278 -91 
Q 1894 -91 1617 61 
Q 1341 213 1159 525 
z
M 3116 1747 
Q 3116 2381 2855 2742 
Q 2594 3103 2138 3103 
Q 1681 3103 1420 2742 
Q 1159 2381 1159 1747 
Q 1159 1113 1420 752 
Q 1681 391 2138 391 
Q 2594 391 2855 752 
Q 3116 1113 3116 1747 
z
" id="DejaVuSans-70" transform="scale(0.015625)"/>
       </defs>
       <use xlink:href="#DejaVuSans-53"/>
       <use x="63.476562" xlink:href="#DejaVuSans-61"/>
       <use x="124.755859" xlink:href="#DejaVuSans-6d"/>
       <use x="222.167969" xlink:href="#DejaVuSans-65"/>
       <use x="283.691406" xlink:href="#DejaVuSans-5f"/>
       <use x="333.691406" xlink:href="#DejaVuSans-71"/>
       <use x="397.167969" xlink:href="#DejaVuSans-75"/>
       <use x="460.546875" xlink:href="#DejaVuSans-65"/>
       <use x="522.070312" xlink:href="#DejaVuSans-72"/>
       <use x="563.183594" xlink:href="#DejaVuSans-69"/>
       <use x="590.966797" xlink:href="#DejaVuSans-65"/>
       <use x="652.490234" xlink:href="#DejaVuSans-73"/>
       <use x="704.589844" xlink:href="#DejaVuSans-5f"/>
       <use x="754.589844" xlink:href="#DejaVuSans-67"/>
       <use x="818.066406" xlink:href="#DejaVuSans-65"/>
       <use x="879.589844" xlink:href="#DejaVuSans-6e"/>
       <use x="942.96875" xlink:href="#DejaVuSans-65"/>
       <use x="1004.492188" xlink:href="#DejaVuSans-72"/>
       <use x="1045.605469" xlink:href="#DejaVuSans-61"/>
       <use x="1106.884766" xlink:href="#DejaVuSans-74"/>
       <use x="1146.09375" xlink:href="#DejaVuSans-6f"/>
       <use x="1207.275391" xlink:href="#DejaVuSans-72"/>
       <use x="1248.388672" xlink:href="#DejaVuSans-5f"/>
       <use x="1298.388672" xlink:href="#DejaVuSans-61"/>
       <use x="1359.667969" xlink:href="#DejaVuSans-6e"/>
       <use x="1423.046875" xlink:href="#DejaVuSans-64"/>
       <use x="1486.523438" xlink:href="#DejaVuSans-5f"/>
       <use x="1536.523438" xlink:href="#DejaVuSans-63"/>
       <use x="1591.503906" xlink:href="#DejaVuSans-72"/>
       <use x="1632.617188" xlink:href="#DejaVuSans-69"/>
       <use x="1660.400391" xlink:href="#DejaVuSans-74"/>
       <use x="1699.609375" xlink:href="#DejaVuSans-69"/>
       <use x="1727.392578" xlink:href="#DejaVuSans-63"/>
       <use x="1782.373047" xlink:href="#DejaVuSans-5f"/>
       <use x="1832.373047" xlink:href="#DejaVuSans-62"/>
       <use x="1895.849609" xlink:href="#DejaVuSans-75"/>
       <use x="1959.228516" xlink:href="#DejaVuSans-74"/>
       <use x="1998.4375" xlink:href="#DejaVuSans-5f"/>
       <use x="2048.4375" xlink:href="#DejaVuSans-64"/>
       <use x="2111.914062" xlink:href="#DejaVuSans-69"/>
       <use x="2139.697266" xlink:href="#DejaVuSans-76"/>
       <use x="2198.876953" xlink:href="#DejaVuSans-65"/>
       <use x="2260.400391" xlink:href="#DejaVuSans-72"/>
       <use x="2301.513672" xlink:href="#DejaVuSans-73"/>
       <use x="2353.613281" xlink:href="#DejaVuSans-65"/>
       <use x="2415.136719" xlink:href="#DejaVuSans-5f"/>
       <use x="2465.136719" xlink:href="#DejaVuSans-70"/>
       <use x="2528.613281" xlink:href="#DejaVuSans-65"/>
       <use x="2590.136719" xlink:href="#DejaVuSans-6e"/>
       <use x="2653.515625" xlink:href="#DejaVuSans-61"/>
       <use x="2714.794922" xlink:href="#DejaVuSans-6c"/>
       <use x="2742.578125" xlink:href="#DejaVuSans-74"/>
       <use x="2781.787109" xlink:href="#DejaVuSans-79"/>
      </g>
     </g>
    </g>
    <g id="xtick_18">
     <g id="line2d_49">
      <path clip-path="url(#p2f9980eb12)" d="M 377.490279 465.764082 
L 377.490279 253.674082 
" style="fill:none;stroke:#ffffff;stroke-linecap:square;"/>
     </g>
     <g id="line2d_50">
      <path d="M 377.490279 465.764082 
" style="fill:none;stroke:#333333;stroke-linecap:square;stroke-width:1.5;"/>
      <g>
       <use style="fill:#333333;stroke:#000000;" x="377.490279" xlink:href="#m6cd4090677" y="465.764082"/>
      </g>
     </g>
     <g id="text_16">
      <!-- Same_queries_generator_and_critic_but_no_query_input_to_critic -->
      <g style="fill:#4d4d4d;" transform="translate(277.532471 678.618856)rotate(-45)scale(0.088 -0.088)">
       <use xlink:href="#DejaVuSans-53"/>
       <use x="63.476562" xlink:href="#DejaVuSans-61"/>
       <use x="124.755859" xlink:href="#DejaVuSans-6d"/>
       <use x="222.167969" xlink:href="#DejaVuSans-65"/>
       <use x="283.691406" xlink:href="#DejaVuSans-5f"/>
       <use x="333.691406" xlink:href="#DejaVuSans-71"/>
       <use x="397.167969" xlink:href="#DejaVuSans-75"/>
       <use x="460.546875" xlink:href="#DejaVuSans-65"/>
       <use x="522.070312" xlink:href="#DejaVuSans-72"/>
       <use x="563.183594" xlink:href="#DejaVuSans-69"/>
       <use x="590.966797" xlink:href="#DejaVuSans-65"/>
       <use x="652.490234" xlink:href="#DejaVuSans-73"/>
       <use x="704.589844" xlink:href="#DejaVuSans-5f"/>
       <use x="754.589844" xlink:href="#DejaVuSans-67"/>
       <use x="818.066406" xlink:href="#DejaVuSans-65"/>
       <use x="879.589844" xlink:href="#DejaVuSans-6e"/>
       <use x="942.96875" xlink:href="#DejaVuSans-65"/>
       <use x="1004.492188" xlink:href="#DejaVuSans-72"/>
       <use x="1045.605469" xlink:href="#DejaVuSans-61"/>
       <use x="1106.884766" xlink:href="#DejaVuSans-74"/>
       <use x="1146.09375" xlink:href="#DejaVuSans-6f"/>
       <use x="1207.275391" xlink:href="#DejaVuSans-72"/>
       <use x="1248.388672" xlink:href="#DejaVuSans-5f"/>
       <use x="1298.388672" xlink:href="#DejaVuSans-61"/>
       <use x="1359.667969" xlink:href="#DejaVuSans-6e"/>
       <use x="1423.046875" xlink:href="#DejaVuSans-64"/>
       <use x="1486.523438" xlink:href="#DejaVuSans-5f"/>
       <use x="1536.523438" xlink:href="#DejaVuSans-63"/>
       <use x="1591.503906" xlink:href="#DejaVuSans-72"/>
       <use x="1632.617188" xlink:href="#DejaVuSans-69"/>
       <use x="1660.400391" xlink:href="#DejaVuSans-74"/>
       <use x="1699.609375" xlink:href="#DejaVuSans-69"/>
       <use x="1727.392578" xlink:href="#DejaVuSans-63"/>
       <use x="1782.373047" xlink:href="#DejaVuSans-5f"/>
       <use x="1832.373047" xlink:href="#DejaVuSans-62"/>
       <use x="1895.849609" xlink:href="#DejaVuSans-75"/>
       <use x="1959.228516" xlink:href="#DejaVuSans-74"/>
       <use x="1998.4375" xlink:href="#DejaVuSans-5f"/>
       <use x="2048.4375" xlink:href="#DejaVuSans-6e"/>
       <use x="2111.816406" xlink:href="#DejaVuSans-6f"/>
       <use x="2172.998047" xlink:href="#DejaVuSans-5f"/>
       <use x="2222.998047" xlink:href="#DejaVuSans-71"/>
       <use x="2286.474609" xlink:href="#DejaVuSans-75"/>
       <use x="2349.853516" xlink:href="#DejaVuSans-65"/>
       <use x="2411.376953" xlink:href="#DejaVuSans-72"/>
       <use x="2452.490234" xlink:href="#DejaVuSans-79"/>
       <use x="2511.669922" xlink:href="#DejaVuSans-5f"/>
       <use x="2561.669922" xlink:href="#DejaVuSans-69"/>
       <use x="2589.453125" xlink:href="#DejaVuSans-6e"/>
       <use x="2652.832031" xlink:href="#DejaVuSans-70"/>
       <use x="2716.308594" xlink:href="#DejaVuSans-75"/>
       <use x="2779.6875" xlink:href="#DejaVuSans-74"/>
       <use x="2818.896484" xlink:href="#DejaVuSans-5f"/>
       <use x="2868.896484" xlink:href="#DejaVuSans-74"/>
       <use x="2908.105469" xlink:href="#DejaVuSans-6f"/>
       <use x="2969.287109" xlink:href="#DejaVuSans-5f"/>
       <use x="3019.287109" xlink:href="#DejaVuSans-63"/>
       <use x="3074.267578" xlink:href="#DejaVuSans-72"/>
       <use x="3115.380859" xlink:href="#DejaVuSans-69"/>
       <use x="3143.164062" xlink:href="#DejaVuSans-74"/>
       <use x="3182.373047" xlink:href="#DejaVuSans-69"/>
       <use x="3210.15625" xlink:href="#DejaVuSans-63"/>
      </g>
     </g>
    </g>
    <g id="xtick_19">
     <g id="line2d_51">
      <path clip-path="url(#p2f9980eb12)" d="M 138.444991 465.764082 
L 138.444991 253.674082 
" style="fill:none;stroke:#ffffff;stroke-linecap:square;stroke-width:0.5;"/>
     </g>
    </g>
    <g id="xtick_20">
     <g id="line2d_52">
      <path clip-path="url(#p2f9980eb12)" d="M 234.063106 465.764082 
L 234.063106 253.674082 
" style="fill:none;stroke:#ffffff;stroke-linecap:square;stroke-width:0.5;"/>
     </g>
    </g>
    <g id="xtick_21">
     <g id="line2d_53">
      <path clip-path="url(#p2f9980eb12)" d="M 329.681221 465.764082 
L 329.681221 253.674082 
" style="fill:none;stroke:#ffffff;stroke-linecap:square;stroke-width:0.5;"/>
     </g>
    </g>
   </g>
   <g id="matplotlib.axis_6">
    <g id="ytick_18">
     <g id="line2d_54">
      <path clip-path="url(#p2f9980eb12)" d="M 52.388688 424.092668 
L 415.737525 424.092668 
" style="fill:none;stroke:#ffffff;stroke-linecap:square;"/>
     </g>
     <g id="line2d_55">
      <path d="M 52.388688 424.092668 
" style="fill:none;stroke:#333333;stroke-linecap:square;stroke-width:1.5;"/>
      <g>
       <use style="fill:#333333;stroke:#000000;" x="52.388688" xlink:href="#mbee923918b" y="424.092668"/>
      </g>
     </g>
     <g id="text_17">
      <!-- 0.8850 -->
      <g style="fill:#4d4d4d;" transform="translate(16.646938 426.520918)scale(0.088 -0.088)">
       <use xlink:href="#DejaVuSans-30"/>
       <use x="63.623047" xlink:href="#DejaVuSans-2e"/>
       <use x="95.410156" xlink:href="#DejaVuSans-38"/>
       <use x="159.033203" xlink:href="#DejaVuSans-38"/>
       <use x="222.65625" xlink:href="#DejaVuSans-35"/>
       <use x="286.279297" xlink:href="#DejaVuSans-30"/>
      </g>
     </g>
    </g>
    <g id="ytick_19">
     <g id="line2d_56">
      <path clip-path="url(#p2f9980eb12)" d="M 52.388688 380.861857 
L 415.737525 380.861857 
" style="fill:none;stroke:#ffffff;stroke-linecap:square;"/>
     </g>
     <g id="line2d_57">
      <path d="M 52.388688 380.861857 
" style="fill:none;stroke:#333333;stroke-linecap:square;stroke-width:1.5;"/>
      <g>
       <use style="fill:#333333;stroke:#000000;" x="52.388688" xlink:href="#mbee923918b" y="380.861857"/>
      </g>
     </g>
     <g id="text_18">
      <!-- 0.8875 -->
      <g style="fill:#4d4d4d;" transform="translate(16.646938 383.290107)scale(0.088 -0.088)">
       <use xlink:href="#DejaVuSans-30"/>
       <use x="63.623047" xlink:href="#DejaVuSans-2e"/>
       <use x="95.410156" xlink:href="#DejaVuSans-38"/>
       <use x="159.033203" xlink:href="#DejaVuSans-38"/>
       <use x="222.65625" xlink:href="#DejaVuSans-37"/>
       <use x="286.279297" xlink:href="#DejaVuSans-35"/>
      </g>
     </g>
    </g>
    <g id="ytick_20">
     <g id="line2d_58">
      <path clip-path="url(#p2f9980eb12)" d="M 52.388688 337.631047 
L 415.737525 337.631047 
" style="fill:none;stroke:#ffffff;stroke-linecap:square;"/>
     </g>
     <g id="line2d_59">
      <path d="M 52.388688 337.631047 
" style="fill:none;stroke:#333333;stroke-linecap:square;stroke-width:1.5;"/>
      <g>
       <use style="fill:#333333;stroke:#000000;" x="52.388688" xlink:href="#mbee923918b" y="337.631047"/>
      </g>
     </g>
     <g id="text_19">
      <!-- 0.8900 -->
      <g style="fill:#4d4d4d;" transform="translate(16.646938 340.059297)scale(0.088 -0.088)">
       <defs>
        <path d="M 703 97 
L 703 672 
Q 941 559 1184 500 
Q 1428 441 1663 441 
Q 2288 441 2617 861 
Q 2947 1281 2994 2138 
Q 2813 1869 2534 1725 
Q 2256 1581 1919 1581 
Q 1219 1581 811 2004 
Q 403 2428 403 3163 
Q 403 3881 828 4315 
Q 1253 4750 1959 4750 
Q 2769 4750 3195 4129 
Q 3622 3509 3622 2328 
Q 3622 1225 3098 567 
Q 2575 -91 1691 -91 
Q 1453 -91 1209 -44 
Q 966 3 703 97 
z
M 1959 2075 
Q 2384 2075 2632 2365 
Q 2881 2656 2881 3163 
Q 2881 3666 2632 3958 
Q 2384 4250 1959 4250 
Q 1534 4250 1286 3958 
Q 1038 3666 1038 3163 
Q 1038 2656 1286 2365 
Q 1534 2075 1959 2075 
z
" id="DejaVuSans-39" transform="scale(0.015625)"/>
       </defs>
       <use xlink:href="#DejaVuSans-30"/>
       <use x="63.623047" xlink:href="#DejaVuSans-2e"/>
       <use x="95.410156" xlink:href="#DejaVuSans-38"/>
       <use x="159.033203" xlink:href="#DejaVuSans-39"/>
       <use x="222.65625" xlink:href="#DejaVuSans-30"/>
       <use x="286.279297" xlink:href="#DejaVuSans-30"/>
      </g>
     </g>
    </g>
    <g id="ytick_21">
     <g id="line2d_60">
      <path clip-path="url(#p2f9980eb12)" d="M 52.388688 294.400236 
L 415.737525 294.400236 
" style="fill:none;stroke:#ffffff;stroke-linecap:square;"/>
     </g>
     <g id="line2d_61">
      <path d="M 52.388688 294.400236 
" style="fill:none;stroke:#333333;stroke-linecap:square;stroke-width:1.5;"/>
      <g>
       <use style="fill:#333333;stroke:#000000;" x="52.388688" xlink:href="#mbee923918b" y="294.400236"/>
      </g>
     </g>
     <g id="text_20">
      <!-- 0.8925 -->
      <g style="fill:#4d4d4d;" transform="translate(16.646938 296.828486)scale(0.088 -0.088)">
       <use xlink:href="#DejaVuSans-30"/>
       <use x="63.623047" xlink:href="#DejaVuSans-2e"/>
       <use x="95.410156" xlink:href="#DejaVuSans-38"/>
       <use x="159.033203" xlink:href="#DejaVuSans-39"/>
       <use x="222.65625" xlink:href="#DejaVuSans-32"/>
       <use x="286.279297" xlink:href="#DejaVuSans-35"/>
      </g>
     </g>
    </g>
    <g id="ytick_22">
     <g id="line2d_62">
      <path clip-path="url(#p2f9980eb12)" d="M 52.388688 445.708074 
L 415.737525 445.708074 
" style="fill:none;stroke:#ffffff;stroke-linecap:square;stroke-width:0.5;"/>
     </g>
    </g>
    <g id="ytick_23">
     <g id="line2d_63">
      <path clip-path="url(#p2f9980eb12)" d="M 52.388688 402.477263 
L 415.737525 402.477263 
" style="fill:none;stroke:#ffffff;stroke-linecap:square;stroke-width:0.5;"/>
     </g>
    </g>
    <g id="ytick_24">
     <g id="line2d_64">
      <path clip-path="url(#p2f9980eb12)" d="M 52.388688 359.246452 
L 415.737525 359.246452 
" style="fill:none;stroke:#ffffff;stroke-linecap:square;stroke-width:0.5;"/>
     </g>
    </g>
    <g id="ytick_25">
     <g id="line2d_65">
      <path clip-path="url(#p2f9980eb12)" d="M 52.388688 316.015641 
L 415.737525 316.015641 
" style="fill:none;stroke:#ffffff;stroke-linecap:square;stroke-width:0.5;"/>
     </g>
    </g>
    <g id="ytick_26">
     <g id="line2d_66">
      <path clip-path="url(#p2f9980eb12)" d="M 52.388688 272.784831 
L 415.737525 272.784831 
" style="fill:none;stroke:#ffffff;stroke-linecap:square;stroke-width:0.5;"/>
     </g>
    </g>
   </g>
   <g id="line2d_67">
    <path clip-path="url(#p2f9980eb12)" d="M 90.635934 298.690556 
L 186.254049 313.250078 
L 281.872164 313.380657 
L 377.490279 413.148485 
" style="fill:none;stroke:#000000;stroke-width:0.886227;"/>
   </g>
   <g id="PathCollection_3">
    <path clip-path="url(#p2f9980eb12)" d="M 90.635934 300.46301 
C 91.105994 300.46301 91.556865 300.276253 91.889248 299.943871 
C 92.22163 299.611488 92.408387 299.160617 92.408387 298.690556 
C 92.408387 298.220496 92.22163 297.769625 91.889248 297.437242 
C 91.556865 297.104859 91.105994 296.918103 90.635934 296.918103 
C 90.165873 296.918103 89.715002 297.104859 89.382619 297.437242 
C 89.050237 297.769625 88.86348 298.220496 88.86348 298.690556 
C 88.86348 299.160617 89.050237 299.611488 89.382619 299.943871 
C 89.715002 300.276253 90.165873 300.46301 90.635934 300.46301 
z
" style="stroke:#000000;stroke-width:0.886227;"/>
    <path clip-path="url(#p2f9980eb12)" d="M 186.254049 315.022532 
C 186.724109 315.022532 187.17498 314.835775 187.507363 314.503392 
C 187.839746 314.171009 188.026502 313.720138 188.026502 313.250078 
C 188.026502 312.780018 187.839746 312.329146 187.507363 311.996764 
C 187.17498 311.664381 186.724109 311.477624 186.254049 311.477624 
C 185.783988 311.477624 185.333117 311.664381 185.000734 311.996764 
C 184.668352 312.329146 184.481595 312.780018 184.481595 313.250078 
C 184.481595 313.720138 184.668352 314.171009 185.000734 314.503392 
C 185.333117 314.835775 185.783988 315.022532 186.254049 315.022532 
z
" style="stroke:#000000;stroke-width:0.886227;"/>
    <path clip-path="url(#p2f9980eb12)" d="M 281.872164 315.15311 
C 282.342224 315.15311 282.793095 314.966354 283.125478 314.633971 
C 283.457861 314.301588 283.644617 313.850717 283.644617 313.380657 
C 283.644617 312.910596 283.457861 312.459725 283.125478 312.127342 
C 282.793095 311.79496 282.342224 311.608203 281.872164 311.608203 
C 281.402103 311.608203 280.951232 311.79496 280.618849 312.127342 
C 280.286467 312.459725 280.09971 312.910596 280.09971 313.380657 
C 280.09971 313.850717 280.286467 314.301588 280.618849 314.633971 
C 280.951232 314.966354 281.402103 315.15311 281.872164 315.15311 
z
" style="stroke:#000000;stroke-width:0.886227;"/>
    <path clip-path="url(#p2f9980eb12)" d="M 377.490279 414.920939 
C 377.960339 414.920939 378.41121 414.734182 378.743593 414.4018 
C 379.075976 414.069417 379.262733 413.618546 379.262733 413.148485 
C 379.262733 412.678425 379.075976 412.227554 378.743593 411.895171 
C 378.41121 411.562789 377.960339 411.376032 377.490279 411.376032 
C 377.020218 411.376032 376.569347 411.562789 376.236965 411.895171 
C 375.904582 412.227554 375.717825 412.678425 375.717825 413.148485 
C 375.717825 413.618546 375.904582 414.069417 376.236965 414.4018 
C 376.569347 414.734182 377.020218 414.920939 377.490279 414.920939 
z
" style="stroke:#000000;stroke-width:0.886227;"/>
   </g>
   <g id="patch_7">
    <path d="M 52.388688 253.674082 
L 415.737525 253.674082 
L 415.737525 238.63 
L 52.388688 238.63 
z
" style="fill:#d9d9d9;"/>
   </g>
   <g id="PolyCollection_3">
    <path clip-path="url(#p2f9980eb12)" d="M 90.635934 263.314537 
L 90.635934 334.066576 
L 186.254049 348.925705 
L 281.872164 347.704801 
L 377.490279 456.123628 
L 377.490279 370.173343 
L 377.490279 370.173343 
L 281.872164 279.056513 
L 186.254049 277.574451 
L 90.635934 263.314537 
z
" style="fill:#333333;fill-opacity:0.501961;"/>
   </g>
   <g id="text_21">
    <!-- F1 score: &lt;=50K -->
    <g style="fill:#1a1a1a;" transform="translate(196.774481 248.580291)scale(0.088 -0.088)">
     <defs>
      <path d="M 628 4666 
L 3309 4666 
L 3309 4134 
L 1259 4134 
L 1259 2759 
L 3109 2759 
L 3109 2228 
L 1259 2228 
L 1259 0 
L 628 0 
L 628 4666 
z
" id="DejaVuSans-46" transform="scale(0.015625)"/>
      <path d="M 794 531 
L 1825 531 
L 1825 4091 
L 703 3866 
L 703 4441 
L 1819 4666 
L 2450 4666 
L 2450 531 
L 3481 531 
L 3481 0 
L 794 0 
L 794 531 
z
" id="DejaVuSans-31" transform="scale(0.015625)"/>
      <path id="DejaVuSans-20" transform="scale(0.015625)"/>
      <path d="M 750 794 
L 1409 794 
L 1409 0 
L 750 0 
L 750 794 
z
M 750 3309 
L 1409 3309 
L 1409 2516 
L 750 2516 
L 750 3309 
z
" id="DejaVuSans-3a" transform="scale(0.015625)"/>
      <path d="M 4684 3150 
L 1459 2003 
L 4684 863 
L 4684 294 
L 678 1747 
L 678 2266 
L 4684 3719 
L 4684 3150 
z
" id="DejaVuSans-3c" transform="scale(0.015625)"/>
      <path d="M 678 2906 
L 4684 2906 
L 4684 2381 
L 678 2381 
L 678 2906 
z
M 678 1631 
L 4684 1631 
L 4684 1100 
L 678 1100 
L 678 1631 
z
" id="DejaVuSans-3d" transform="scale(0.015625)"/>
      <path d="M 628 4666 
L 1259 4666 
L 1259 2694 
L 3353 4666 
L 4166 4666 
L 1850 2491 
L 4331 0 
L 3500 0 
L 1259 2247 
L 1259 0 
L 628 0 
L 628 4666 
z
" id="DejaVuSans-4b" transform="scale(0.015625)"/>
     </defs>
     <use xlink:href="#DejaVuSans-46"/>
     <use x="57.519531" xlink:href="#DejaVuSans-31"/>
     <use x="121.142578" xlink:href="#DejaVuSans-20"/>
     <use x="152.929688" xlink:href="#DejaVuSans-73"/>
     <use x="205.029297" xlink:href="#DejaVuSans-63"/>
     <use x="260.009766" xlink:href="#DejaVuSans-6f"/>
     <use x="321.191406" xlink:href="#DejaVuSans-72"/>
     <use x="360.054688" xlink:href="#DejaVuSans-65"/>
     <use x="421.578125" xlink:href="#DejaVuSans-3a"/>
     <use x="455.269531" xlink:href="#DejaVuSans-20"/>
     <use x="487.056641" xlink:href="#DejaVuSans-3c"/>
     <use x="570.845703" xlink:href="#DejaVuSans-3d"/>
     <use x="654.634766" xlink:href="#DejaVuSans-35"/>
     <use x="718.257812" xlink:href="#DejaVuSans-30"/>
     <use x="781.880859" xlink:href="#DejaVuSans-4b"/>
    </g>
   </g>
  </g>
  <g id="axes_4">
   <g id="patch_8">
    <path d="M 470.23985 465.764082 
L 833.588688 465.764082 
L 833.588688 253.674082 
L 470.23985 253.674082 
z
" style="fill:#ebebeb;"/>
   </g>
   <g id="matplotlib.axis_7">
    <g id="xtick_22">
     <g id="line2d_68">
      <path clip-path="url(#p74800df24c)" d="M 508.487096 465.764082 
L 508.487096 253.674082 
" style="fill:none;stroke:#ffffff;stroke-linecap:square;"/>
     </g>
     <g id="line2d_69">
      <path d="M 508.487096 465.764082 
" style="fill:none;stroke:#333333;stroke-linecap:square;stroke-width:1.5;"/>
      <g>
       <use style="fill:#333333;stroke:#000000;" x="508.487096" xlink:href="#m6cd4090677" y="465.764082"/>
      </g>
     </g>
     <g id="text_22">
      <!-- Different_queries_generator_and_critic -->
      <g style="fill:#4d4d4d;" transform="translate(449.809033 596.059366)rotate(-45)scale(0.088 -0.088)">
       <use xlink:href="#DejaVuSans-44"/>
       <use x="77.001953" xlink:href="#DejaVuSans-69"/>
       <use x="104.785156" xlink:href="#DejaVuSans-66"/>
       <use x="139.990234" xlink:href="#DejaVuSans-66"/>
       <use x="175.195312" xlink:href="#DejaVuSans-65"/>
       <use x="236.71875" xlink:href="#DejaVuSans-72"/>
       <use x="275.582031" xlink:href="#DejaVuSans-65"/>
       <use x="337.105469" xlink:href="#DejaVuSans-6e"/>
       <use x="400.484375" xlink:href="#DejaVuSans-74"/>
       <use x="439.693359" xlink:href="#DejaVuSans-5f"/>
       <use x="489.693359" xlink:href="#DejaVuSans-71"/>
       <use x="553.169922" xlink:href="#DejaVuSans-75"/>
       <use x="616.548828" xlink:href="#DejaVuSans-65"/>
       <use x="678.072266" xlink:href="#DejaVuSans-72"/>
       <use x="719.185547" xlink:href="#DejaVuSans-69"/>
       <use x="746.96875" xlink:href="#DejaVuSans-65"/>
       <use x="808.492188" xlink:href="#DejaVuSans-73"/>
       <use x="860.591797" xlink:href="#DejaVuSans-5f"/>
       <use x="910.591797" xlink:href="#DejaVuSans-67"/>
       <use x="974.068359" xlink:href="#DejaVuSans-65"/>
       <use x="1035.591797" xlink:href="#DejaVuSans-6e"/>
       <use x="1098.970703" xlink:href="#DejaVuSans-65"/>
       <use x="1160.494141" xlink:href="#DejaVuSans-72"/>
       <use x="1201.607422" xlink:href="#DejaVuSans-61"/>
       <use x="1262.886719" xlink:href="#DejaVuSans-74"/>
       <use x="1302.095703" xlink:href="#DejaVuSans-6f"/>
       <use x="1363.277344" xlink:href="#DejaVuSans-72"/>
       <use x="1404.390625" xlink:href="#DejaVuSans-5f"/>
       <use x="1454.390625" xlink:href="#DejaVuSans-61"/>
       <use x="1515.669922" xlink:href="#DejaVuSans-6e"/>
       <use x="1579.048828" xlink:href="#DejaVuSans-64"/>
       <use x="1642.525391" xlink:href="#DejaVuSans-5f"/>
       <use x="1692.525391" xlink:href="#DejaVuSans-63"/>
       <use x="1747.505859" xlink:href="#DejaVuSans-72"/>
       <use x="1788.619141" xlink:href="#DejaVuSans-69"/>
       <use x="1816.402344" xlink:href="#DejaVuSans-74"/>
       <use x="1855.611328" xlink:href="#DejaVuSans-69"/>
       <use x="1883.394531" xlink:href="#DejaVuSans-63"/>
      </g>
     </g>
    </g>
    <g id="xtick_23">
     <g id="line2d_70">
      <path clip-path="url(#p74800df24c)" d="M 604.105211 465.764082 
L 604.105211 253.674082 
" style="fill:none;stroke:#ffffff;stroke-linecap:square;"/>
     </g>
     <g id="line2d_71">
      <path d="M 604.105211 465.764082 
" style="fill:none;stroke:#333333;stroke-linecap:square;stroke-width:1.5;"/>
      <g>
       <use style="fill:#333333;stroke:#000000;" x="604.105211" xlink:href="#m6cd4090677" y="465.764082"/>
      </g>
     </g>
     <g id="text_23">
      <!-- Same_queries_generator_and_critic -->
      <g style="fill:#4d4d4d;" transform="translate(550.280243 586.353176)rotate(-45)scale(0.088 -0.088)">
       <use xlink:href="#DejaVuSans-53"/>
       <use x="63.476562" xlink:href="#DejaVuSans-61"/>
       <use x="124.755859" xlink:href="#DejaVuSans-6d"/>
       <use x="222.167969" xlink:href="#DejaVuSans-65"/>
       <use x="283.691406" xlink:href="#DejaVuSans-5f"/>
       <use x="333.691406" xlink:href="#DejaVuSans-71"/>
       <use x="397.167969" xlink:href="#DejaVuSans-75"/>
       <use x="460.546875" xlink:href="#DejaVuSans-65"/>
       <use x="522.070312" xlink:href="#DejaVuSans-72"/>
       <use x="563.183594" xlink:href="#DejaVuSans-69"/>
       <use x="590.966797" xlink:href="#DejaVuSans-65"/>
       <use x="652.490234" xlink:href="#DejaVuSans-73"/>
       <use x="704.589844" xlink:href="#DejaVuSans-5f"/>
       <use x="754.589844" xlink:href="#DejaVuSans-67"/>
       <use x="818.066406" xlink:href="#DejaVuSans-65"/>
       <use x="879.589844" xlink:href="#DejaVuSans-6e"/>
       <use x="942.96875" xlink:href="#DejaVuSans-65"/>
       <use x="1004.492188" xlink:href="#DejaVuSans-72"/>
       <use x="1045.605469" xlink:href="#DejaVuSans-61"/>
       <use x="1106.884766" xlink:href="#DejaVuSans-74"/>
       <use x="1146.09375" xlink:href="#DejaVuSans-6f"/>
       <use x="1207.275391" xlink:href="#DejaVuSans-72"/>
       <use x="1248.388672" xlink:href="#DejaVuSans-5f"/>
       <use x="1298.388672" xlink:href="#DejaVuSans-61"/>
       <use x="1359.667969" xlink:href="#DejaVuSans-6e"/>
       <use x="1423.046875" xlink:href="#DejaVuSans-64"/>
       <use x="1486.523438" xlink:href="#DejaVuSans-5f"/>
       <use x="1536.523438" xlink:href="#DejaVuSans-63"/>
       <use x="1591.503906" xlink:href="#DejaVuSans-72"/>
       <use x="1632.617188" xlink:href="#DejaVuSans-69"/>
       <use x="1660.400391" xlink:href="#DejaVuSans-74"/>
       <use x="1699.609375" xlink:href="#DejaVuSans-69"/>
       <use x="1727.392578" xlink:href="#DejaVuSans-63"/>
      </g>
     </g>
    </g>
    <g id="xtick_24">
     <g id="line2d_72">
      <path clip-path="url(#p74800df24c)" d="M 699.723326 465.764082 
L 699.723326 253.674082 
" style="fill:none;stroke:#ffffff;stroke-linecap:square;"/>
     </g>
     <g id="line2d_73">
      <path d="M 699.723326 465.764082 
" style="fill:none;stroke:#333333;stroke-linecap:square;stroke-width:1.5;"/>
      <g>
       <use style="fill:#333333;stroke:#000000;" x="699.723326" xlink:href="#m6cd4090677" y="465.764082"/>
      </g>
     </g>
     <g id="text_24">
      <!-- Same_queries_generator_and_critic_but_diverse_penalty -->
      <g style="fill:#4d4d4d;" transform="translate(612.961678 652.226537)rotate(-45)scale(0.088 -0.088)">
       <use xlink:href="#DejaVuSans-53"/>
       <use x="63.476562" xlink:href="#DejaVuSans-61"/>
       <use x="124.755859" xlink:href="#DejaVuSans-6d"/>
       <use x="222.167969" xlink:href="#DejaVuSans-65"/>
       <use x="283.691406" xlink:href="#DejaVuSans-5f"/>
       <use x="333.691406" xlink:href="#DejaVuSans-71"/>
       <use x="397.167969" xlink:href="#DejaVuSans-75"/>
       <use x="460.546875" xlink:href="#DejaVuSans-65"/>
       <use x="522.070312" xlink:href="#DejaVuSans-72"/>
       <use x="563.183594" xlink:href="#DejaVuSans-69"/>
       <use x="590.966797" xlink:href="#DejaVuSans-65"/>
       <use x="652.490234" xlink:href="#DejaVuSans-73"/>
       <use x="704.589844" xlink:href="#DejaVuSans-5f"/>
       <use x="754.589844" xlink:href="#DejaVuSans-67"/>
       <use x="818.066406" xlink:href="#DejaVuSans-65"/>
       <use x="879.589844" xlink:href="#DejaVuSans-6e"/>
       <use x="942.96875" xlink:href="#DejaVuSans-65"/>
       <use x="1004.492188" xlink:href="#DejaVuSans-72"/>
       <use x="1045.605469" xlink:href="#DejaVuSans-61"/>
       <use x="1106.884766" xlink:href="#DejaVuSans-74"/>
       <use x="1146.09375" xlink:href="#DejaVuSans-6f"/>
       <use x="1207.275391" xlink:href="#DejaVuSans-72"/>
       <use x="1248.388672" xlink:href="#DejaVuSans-5f"/>
       <use x="1298.388672" xlink:href="#DejaVuSans-61"/>
       <use x="1359.667969" xlink:href="#DejaVuSans-6e"/>
       <use x="1423.046875" xlink:href="#DejaVuSans-64"/>
       <use x="1486.523438" xlink:href="#DejaVuSans-5f"/>
       <use x="1536.523438" xlink:href="#DejaVuSans-63"/>
       <use x="1591.503906" xlink:href="#DejaVuSans-72"/>
       <use x="1632.617188" xlink:href="#DejaVuSans-69"/>
       <use x="1660.400391" xlink:href="#DejaVuSans-74"/>
       <use x="1699.609375" xlink:href="#DejaVuSans-69"/>
       <use x="1727.392578" xlink:href="#DejaVuSans-63"/>
       <use x="1782.373047" xlink:href="#DejaVuSans-5f"/>
       <use x="1832.373047" xlink:href="#DejaVuSans-62"/>
       <use x="1895.849609" xlink:href="#DejaVuSans-75"/>
       <use x="1959.228516" xlink:href="#DejaVuSans-74"/>
       <use x="1998.4375" xlink:href="#DejaVuSans-5f"/>
       <use x="2048.4375" xlink:href="#DejaVuSans-64"/>
       <use x="2111.914062" xlink:href="#DejaVuSans-69"/>
       <use x="2139.697266" xlink:href="#DejaVuSans-76"/>
       <use x="2198.876953" xlink:href="#DejaVuSans-65"/>
       <use x="2260.400391" xlink:href="#DejaVuSans-72"/>
       <use x="2301.513672" xlink:href="#DejaVuSans-73"/>
       <use x="2353.613281" xlink:href="#DejaVuSans-65"/>
       <use x="2415.136719" xlink:href="#DejaVuSans-5f"/>
       <use x="2465.136719" xlink:href="#DejaVuSans-70"/>
       <use x="2528.613281" xlink:href="#DejaVuSans-65"/>
       <use x="2590.136719" xlink:href="#DejaVuSans-6e"/>
       <use x="2653.515625" xlink:href="#DejaVuSans-61"/>
       <use x="2714.794922" xlink:href="#DejaVuSans-6c"/>
       <use x="2742.578125" xlink:href="#DejaVuSans-74"/>
       <use x="2781.787109" xlink:href="#DejaVuSans-79"/>
      </g>
     </g>
    </g>
    <g id="xtick_25">
     <g id="line2d_74">
      <path clip-path="url(#p74800df24c)" d="M 795.341441 465.764082 
L 795.341441 253.674082 
" style="fill:none;stroke:#ffffff;stroke-linecap:square;"/>
     </g>
     <g id="line2d_75">
      <path d="M 795.341441 465.764082 
" style="fill:none;stroke:#333333;stroke-linecap:square;stroke-width:1.5;"/>
      <g>
       <use style="fill:#333333;stroke:#000000;" x="795.341441" xlink:href="#m6cd4090677" y="465.764082"/>
      </g>
     </g>
     <g id="text_25">
      <!-- Same_queries_generator_and_critic_but_no_query_input_to_critic -->
      <g style="fill:#4d4d4d;" transform="translate(695.383634 678.618856)rotate(-45)scale(0.088 -0.088)">
       <use xlink:href="#DejaVuSans-53"/>
       <use x="63.476562" xlink:href="#DejaVuSans-61"/>
       <use x="124.755859" xlink:href="#DejaVuSans-6d"/>
       <use x="222.167969" xlink:href="#DejaVuSans-65"/>
       <use x="283.691406" xlink:href="#DejaVuSans-5f"/>
       <use x="333.691406" xlink:href="#DejaVuSans-71"/>
       <use x="397.167969" xlink:href="#DejaVuSans-75"/>
       <use x="460.546875" xlink:href="#DejaVuSans-65"/>
       <use x="522.070312" xlink:href="#DejaVuSans-72"/>
       <use x="563.183594" xlink:href="#DejaVuSans-69"/>
       <use x="590.966797" xlink:href="#DejaVuSans-65"/>
       <use x="652.490234" xlink:href="#DejaVuSans-73"/>
       <use x="704.589844" xlink:href="#DejaVuSans-5f"/>
       <use x="754.589844" xlink:href="#DejaVuSans-67"/>
       <use x="818.066406" xlink:href="#DejaVuSans-65"/>
       <use x="879.589844" xlink:href="#DejaVuSans-6e"/>
       <use x="942.96875" xlink:href="#DejaVuSans-65"/>
       <use x="1004.492188" xlink:href="#DejaVuSans-72"/>
       <use x="1045.605469" xlink:href="#DejaVuSans-61"/>
       <use x="1106.884766" xlink:href="#DejaVuSans-74"/>
       <use x="1146.09375" xlink:href="#DejaVuSans-6f"/>
       <use x="1207.275391" xlink:href="#DejaVuSans-72"/>
       <use x="1248.388672" xlink:href="#DejaVuSans-5f"/>
       <use x="1298.388672" xlink:href="#DejaVuSans-61"/>
       <use x="1359.667969" xlink:href="#DejaVuSans-6e"/>
       <use x="1423.046875" xlink:href="#DejaVuSans-64"/>
       <use x="1486.523438" xlink:href="#DejaVuSans-5f"/>
       <use x="1536.523438" xlink:href="#DejaVuSans-63"/>
       <use x="1591.503906" xlink:href="#DejaVuSans-72"/>
       <use x="1632.617188" xlink:href="#DejaVuSans-69"/>
       <use x="1660.400391" xlink:href="#DejaVuSans-74"/>
       <use x="1699.609375" xlink:href="#DejaVuSans-69"/>
       <use x="1727.392578" xlink:href="#DejaVuSans-63"/>
       <use x="1782.373047" xlink:href="#DejaVuSans-5f"/>
       <use x="1832.373047" xlink:href="#DejaVuSans-62"/>
       <use x="1895.849609" xlink:href="#DejaVuSans-75"/>
       <use x="1959.228516" xlink:href="#DejaVuSans-74"/>
       <use x="1998.4375" xlink:href="#DejaVuSans-5f"/>
       <use x="2048.4375" xlink:href="#DejaVuSans-6e"/>
       <use x="2111.816406" xlink:href="#DejaVuSans-6f"/>
       <use x="2172.998047" xlink:href="#DejaVuSans-5f"/>
       <use x="2222.998047" xlink:href="#DejaVuSans-71"/>
       <use x="2286.474609" xlink:href="#DejaVuSans-75"/>
       <use x="2349.853516" xlink:href="#DejaVuSans-65"/>
       <use x="2411.376953" xlink:href="#DejaVuSans-72"/>
       <use x="2452.490234" xlink:href="#DejaVuSans-79"/>
       <use x="2511.669922" xlink:href="#DejaVuSans-5f"/>
       <use x="2561.669922" xlink:href="#DejaVuSans-69"/>
       <use x="2589.453125" xlink:href="#DejaVuSans-6e"/>
       <use x="2652.832031" xlink:href="#DejaVuSans-70"/>
       <use x="2716.308594" xlink:href="#DejaVuSans-75"/>
       <use x="2779.6875" xlink:href="#DejaVuSans-74"/>
       <use x="2818.896484" xlink:href="#DejaVuSans-5f"/>
       <use x="2868.896484" xlink:href="#DejaVuSans-74"/>
       <use x="2908.105469" xlink:href="#DejaVuSans-6f"/>
       <use x="2969.287109" xlink:href="#DejaVuSans-5f"/>
       <use x="3019.287109" xlink:href="#DejaVuSans-63"/>
       <use x="3074.267578" xlink:href="#DejaVuSans-72"/>
       <use x="3115.380859" xlink:href="#DejaVuSans-69"/>
       <use x="3143.164062" xlink:href="#DejaVuSans-74"/>
       <use x="3182.373047" xlink:href="#DejaVuSans-69"/>
       <use x="3210.15625" xlink:href="#DejaVuSans-63"/>
      </g>
     </g>
    </g>
    <g id="xtick_26">
     <g id="line2d_76">
      <path clip-path="url(#p74800df24c)" d="M 556.296154 465.764082 
L 556.296154 253.674082 
" style="fill:none;stroke:#ffffff;stroke-linecap:square;stroke-width:0.5;"/>
     </g>
    </g>
    <g id="xtick_27">
     <g id="line2d_77">
      <path clip-path="url(#p74800df24c)" d="M 651.914269 465.764082 
L 651.914269 253.674082 
" style="fill:none;stroke:#ffffff;stroke-linecap:square;stroke-width:0.5;"/>
     </g>
    </g>
    <g id="xtick_28">
     <g id="line2d_78">
      <path clip-path="url(#p74800df24c)" d="M 747.532384 465.764082 
L 747.532384 253.674082 
" style="fill:none;stroke:#ffffff;stroke-linecap:square;stroke-width:0.5;"/>
     </g>
    </g>
    <g id="text_26">
     <!-- Wgan penalty query -->
     <g transform="translate(374.557672 692.844295)scale(0.11 -0.11)">
      <defs>
       <path d="M 213 4666 
L 850 4666 
L 1831 722 
L 2809 4666 
L 3519 4666 
L 4500 722 
L 5478 4666 
L 6119 4666 
L 4947 0 
L 4153 0 
L 3169 4050 
L 2175 0 
L 1381 0 
L 213 4666 
z
" id="DejaVuSans-57" transform="scale(0.015625)"/>
      </defs>
      <use xlink:href="#DejaVuSans-57"/>
      <use x="98.876953" xlink:href="#DejaVuSans-67"/>
      <use x="162.353516" xlink:href="#DejaVuSans-61"/>
      <use x="223.632812" xlink:href="#DejaVuSans-6e"/>
      <use x="287.011719" xlink:href="#DejaVuSans-20"/>
      <use x="318.798828" xlink:href="#DejaVuSans-70"/>
      <use x="382.275391" xlink:href="#DejaVuSans-65"/>
      <use x="443.798828" xlink:href="#DejaVuSans-6e"/>
      <use x="507.177734" xlink:href="#DejaVuSans-61"/>
      <use x="568.457031" xlink:href="#DejaVuSans-6c"/>
      <use x="596.240234" xlink:href="#DejaVuSans-74"/>
      <use x="635.449219" xlink:href="#DejaVuSans-79"/>
      <use x="694.628906" xlink:href="#DejaVuSans-20"/>
      <use x="726.416016" xlink:href="#DejaVuSans-71"/>
      <use x="789.892578" xlink:href="#DejaVuSans-75"/>
      <use x="853.271484" xlink:href="#DejaVuSans-65"/>
      <use x="914.794922" xlink:href="#DejaVuSans-72"/>
      <use x="955.908203" xlink:href="#DejaVuSans-79"/>
     </g>
    </g>
   </g>
   <g id="matplotlib.axis_8">
    <g id="ytick_27">
     <g id="line2d_79">
      <path clip-path="url(#p74800df24c)" d="M 470.23985 439.048208 
L 833.588688 439.048208 
" style="fill:none;stroke:#ffffff;stroke-linecap:square;"/>
     </g>
     <g id="line2d_80">
      <path d="M 470.23985 439.048208 
" style="fill:none;stroke:#333333;stroke-linecap:square;stroke-width:1.5;"/>
      <g>
       <use style="fill:#333333;stroke:#000000;" x="470.23985" xlink:href="#mbee923918b" y="439.048208"/>
      </g>
     </g>
     <g id="text_27">
      <!-- 0.630 -->
      <g style="fill:#4d4d4d;" transform="translate(440.0971 441.476458)scale(0.088 -0.088)">
       <use xlink:href="#DejaVuSans-30"/>
       <use x="63.623047" xlink:href="#DejaVuSans-2e"/>
       <use x="95.410156" xlink:href="#DejaVuSans-36"/>
       <use x="159.033203" xlink:href="#DejaVuSans-33"/>
       <use x="222.65625" xlink:href="#DejaVuSans-30"/>
      </g>
     </g>
    </g>
    <g id="ytick_28">
     <g id="line2d_81">
      <path clip-path="url(#p74800df24c)" d="M 470.23985 400.74835 
L 833.588688 400.74835 
" style="fill:none;stroke:#ffffff;stroke-linecap:square;"/>
     </g>
     <g id="line2d_82">
      <path d="M 470.23985 400.74835 
" style="fill:none;stroke:#333333;stroke-linecap:square;stroke-width:1.5;"/>
      <g>
       <use style="fill:#333333;stroke:#000000;" x="470.23985" xlink:href="#mbee923918b" y="400.74835"/>
      </g>
     </g>
     <g id="text_28">
      <!-- 0.635 -->
      <g style="fill:#4d4d4d;" transform="translate(440.0971 403.1766)scale(0.088 -0.088)">
       <use xlink:href="#DejaVuSans-30"/>
       <use x="63.623047" xlink:href="#DejaVuSans-2e"/>
       <use x="95.410156" xlink:href="#DejaVuSans-36"/>
       <use x="159.033203" xlink:href="#DejaVuSans-33"/>
       <use x="222.65625" xlink:href="#DejaVuSans-35"/>
      </g>
     </g>
    </g>
    <g id="ytick_29">
     <g id="line2d_83">
      <path clip-path="url(#p74800df24c)" d="M 470.23985 362.448491 
L 833.588688 362.448491 
" style="fill:none;stroke:#ffffff;stroke-linecap:square;"/>
     </g>
     <g id="line2d_84">
      <path d="M 470.23985 362.448491 
" style="fill:none;stroke:#333333;stroke-linecap:square;stroke-width:1.5;"/>
      <g>
       <use style="fill:#333333;stroke:#000000;" x="470.23985" xlink:href="#mbee923918b" y="362.448491"/>
      </g>
     </g>
     <g id="text_29">
      <!-- 0.640 -->
      <g style="fill:#4d4d4d;" transform="translate(440.0971 364.876741)scale(0.088 -0.088)">
       <use xlink:href="#DejaVuSans-30"/>
       <use x="63.623047" xlink:href="#DejaVuSans-2e"/>
       <use x="95.410156" xlink:href="#DejaVuSans-36"/>
       <use x="159.033203" xlink:href="#DejaVuSans-34"/>
       <use x="222.65625" xlink:href="#DejaVuSans-30"/>
      </g>
     </g>
    </g>
    <g id="ytick_30">
     <g id="line2d_85">
      <path clip-path="url(#p74800df24c)" d="M 470.23985 324.148633 
L 833.588688 324.148633 
" style="fill:none;stroke:#ffffff;stroke-linecap:square;"/>
     </g>
     <g id="line2d_86">
      <path d="M 470.23985 324.148633 
" style="fill:none;stroke:#333333;stroke-linecap:square;stroke-width:1.5;"/>
      <g>
       <use style="fill:#333333;stroke:#000000;" x="470.23985" xlink:href="#mbee923918b" y="324.148633"/>
      </g>
     </g>
     <g id="text_30">
      <!-- 0.645 -->
      <g style="fill:#4d4d4d;" transform="translate(440.0971 326.576883)scale(0.088 -0.088)">
       <use xlink:href="#DejaVuSans-30"/>
       <use x="63.623047" xlink:href="#DejaVuSans-2e"/>
       <use x="95.410156" xlink:href="#DejaVuSans-36"/>
       <use x="159.033203" xlink:href="#DejaVuSans-34"/>
       <use x="222.65625" xlink:href="#DejaVuSans-35"/>
      </g>
     </g>
    </g>
    <g id="ytick_31">
     <g id="line2d_87">
      <path clip-path="url(#p74800df24c)" d="M 470.23985 285.848774 
L 833.588688 285.848774 
" style="fill:none;stroke:#ffffff;stroke-linecap:square;"/>
     </g>
     <g id="line2d_88">
      <path d="M 470.23985 285.848774 
" style="fill:none;stroke:#333333;stroke-linecap:square;stroke-width:1.5;"/>
      <g>
       <use style="fill:#333333;stroke:#000000;" x="470.23985" xlink:href="#mbee923918b" y="285.848774"/>
      </g>
     </g>
     <g id="text_31">
      <!-- 0.650 -->
      <g style="fill:#4d4d4d;" transform="translate(440.0971 288.277024)scale(0.088 -0.088)">
       <use xlink:href="#DejaVuSans-30"/>
       <use x="63.623047" xlink:href="#DejaVuSans-2e"/>
       <use x="95.410156" xlink:href="#DejaVuSans-36"/>
       <use x="159.033203" xlink:href="#DejaVuSans-35"/>
       <use x="222.65625" xlink:href="#DejaVuSans-30"/>
      </g>
     </g>
    </g>
    <g id="ytick_32">
     <g id="line2d_89">
      <path clip-path="url(#p74800df24c)" d="M 470.23985 458.198138 
L 833.588688 458.198138 
" style="fill:none;stroke:#ffffff;stroke-linecap:square;stroke-width:0.5;"/>
     </g>
    </g>
    <g id="ytick_33">
     <g id="line2d_90">
      <path clip-path="url(#p74800df24c)" d="M 470.23985 419.898279 
L 833.588688 419.898279 
" style="fill:none;stroke:#ffffff;stroke-linecap:square;stroke-width:0.5;"/>
     </g>
    </g>
    <g id="ytick_34">
     <g id="line2d_91">
      <path clip-path="url(#p74800df24c)" d="M 470.23985 381.598421 
L 833.588688 381.598421 
" style="fill:none;stroke:#ffffff;stroke-linecap:square;stroke-width:0.5;"/>
     </g>
    </g>
    <g id="ytick_35">
     <g id="line2d_92">
      <path clip-path="url(#p74800df24c)" d="M 470.23985 343.298562 
L 833.588688 343.298562 
" style="fill:none;stroke:#ffffff;stroke-linecap:square;stroke-width:0.5;"/>
     </g>
    </g>
    <g id="ytick_36">
     <g id="line2d_93">
      <path clip-path="url(#p74800df24c)" d="M 470.23985 304.998703 
L 833.588688 304.998703 
" style="fill:none;stroke:#ffffff;stroke-linecap:square;stroke-width:0.5;"/>
     </g>
    </g>
    <g id="ytick_37">
     <g id="line2d_94">
      <path clip-path="url(#p74800df24c)" d="M 470.23985 266.698845 
L 833.588688 266.698845 
" style="fill:none;stroke:#ffffff;stroke-linecap:square;stroke-width:0.5;"/>
     </g>
    </g>
   </g>
   <g id="line2d_95">
    <path clip-path="url(#p74800df24c)" d="M 508.487096 359.383368 
L 604.105211 390.490834 
L 699.723326 373.184936 
L 795.341441 340.658576 
" style="fill:none;stroke:#000000;stroke-width:0.886227;"/>
   </g>
   <g id="PathCollection_4">
    <path clip-path="url(#p74800df24c)" d="M 508.487096 361.155822 
C 508.957157 361.155822 509.408028 360.969065 509.74041 360.636682 
C 510.072793 360.3043 510.25955 359.853428 510.25955 359.383368 
C 510.25955 358.913308 510.072793 358.462437 509.74041 358.130054 
C 509.408028 357.797671 508.957157 357.610914 508.487096 357.610914 
C 508.017036 357.610914 507.566165 357.797671 507.233782 358.130054 
C 506.901399 358.462437 506.714642 358.913308 506.714642 359.383368 
C 506.714642 359.853428 506.901399 360.3043 507.233782 360.636682 
C 507.566165 360.969065 508.017036 361.155822 508.487096 361.155822 
z
" style="stroke:#000000;stroke-width:0.886227;"/>
    <path clip-path="url(#p74800df24c)" d="M 604.105211 392.263288 
C 604.575272 392.263288 605.026143 392.076531 605.358526 391.744148 
C 605.690908 391.411766 605.877665 390.960894 605.877665 390.490834 
C 605.877665 390.020774 605.690908 389.569903 605.358526 389.23752 
C 605.026143 388.905137 604.575272 388.71838 604.105211 388.71838 
C 603.635151 388.71838 603.18428 388.905137 602.851897 389.23752 
C 602.519514 389.569903 602.332758 390.020774 602.332758 390.490834 
C 602.332758 390.960894 602.519514 391.411766 602.851897 391.744148 
C 603.18428 392.076531 603.635151 392.263288 604.105211 392.263288 
z
" style="stroke:#000000;stroke-width:0.886227;"/>
    <path clip-path="url(#p74800df24c)" d="M 699.723326 374.957389 
C 700.193387 374.957389 700.644258 374.770633 700.976641 374.43825 
C 701.309023 374.105867 701.49578 373.654996 701.49578 373.184936 
C 701.49578 372.714875 701.309023 372.264004 700.976641 371.931621 
C 700.644258 371.599239 700.193387 371.412482 699.723326 371.412482 
C 699.253266 371.412482 698.802395 371.599239 698.470012 371.931621 
C 698.137629 372.264004 697.950873 372.714875 697.950873 373.184936 
C 697.950873 373.654996 698.137629 374.105867 698.470012 374.43825 
C 698.802395 374.770633 699.253266 374.957389 699.723326 374.957389 
z
" style="stroke:#000000;stroke-width:0.886227;"/>
    <path clip-path="url(#p74800df24c)" d="M 795.341441 342.43103 
C 795.811502 342.43103 796.262373 342.244273 796.594756 341.911891 
C 796.927138 341.579508 797.113895 341.128637 797.113895 340.658576 
C 797.113895 340.188516 796.927138 339.737645 796.594756 339.405262 
C 796.262373 339.07288 795.811502 338.886123 795.341441 338.886123 
C 794.871381 338.886123 794.42051 339.07288 794.088127 339.405262 
C 793.755745 339.737645 793.568988 340.188516 793.568988 340.658576 
C 793.568988 341.128637 793.755745 341.579508 794.088127 341.911891 
C 794.42051 342.244273 794.871381 342.43103 795.341441 342.43103 
z
" style="stroke:#000000;stroke-width:0.886227;"/>
   </g>
   <g id="patch_9">
    <path d="M 470.23985 253.674082 
L 833.588688 253.674082 
L 833.588688 238.63 
L 470.23985 238.63 
z
" style="fill:#d9d9d9;"/>
   </g>
   <g id="PolyCollection_4">
    <path clip-path="url(#p74800df24c)" d="M 508.487096 303.032735 
L 508.487096 415.734001 
L 604.105211 456.123628 
L 699.723326 430.891521 
L 795.341441 418.002616 
L 795.341441 263.314537 
L 795.341441 263.314537 
L 699.723326 315.47835 
L 604.105211 324.858041 
L 508.487096 303.032735 
z
" style="fill:#333333;fill-opacity:0.501961;"/>
   </g>
   <g id="text_32">
    <!-- F1 score: &gt;50K -->
    <g style="fill:#1a1a1a;" transform="translate(618.312706 248.580291)scale(0.088 -0.088)">
     <defs>
      <path d="M 678 3150 
L 678 3719 
L 4684 2266 
L 4684 1747 
L 678 294 
L 678 863 
L 3897 2003 
L 678 3150 
z
" id="DejaVuSans-3e" transform="scale(0.015625)"/>
     </defs>
     <use xlink:href="#DejaVuSans-46"/>
     <use x="57.519531" xlink:href="#DejaVuSans-31"/>
     <use x="121.142578" xlink:href="#DejaVuSans-20"/>
     <use x="152.929688" xlink:href="#DejaVuSans-73"/>
     <use x="205.029297" xlink:href="#DejaVuSans-63"/>
     <use x="260.009766" xlink:href="#DejaVuSans-6f"/>
     <use x="321.191406" xlink:href="#DejaVuSans-72"/>
     <use x="360.054688" xlink:href="#DejaVuSans-65"/>
     <use x="421.578125" xlink:href="#DejaVuSans-3a"/>
     <use x="455.269531" xlink:href="#DejaVuSans-20"/>
     <use x="487.056641" xlink:href="#DejaVuSans-3e"/>
     <use x="570.845703" xlink:href="#DejaVuSans-35"/>
     <use x="634.46875" xlink:href="#DejaVuSans-30"/>
     <use x="698.091797" xlink:href="#DejaVuSans-4b"/>
    </g>
   </g>
  </g>
 </g>
 <defs>
  <clipPath id="pe4d3ba670f">
   <rect height="212.09" width="363.348837" x="52.388688" y="22.244082"/>
  </clipPath>
  <clipPath id="p6c2e6e93c0">
   <rect height="212.09" width="363.348837" x="470.23985" y="22.244082"/>
  </clipPath>
  <clipPath id="p2f9980eb12">
   <rect height="212.09" width="363.348837" x="52.388688" y="253.674082"/>
  </clipPath>
  <clipPath id="p74800df24c">
   <rect height="212.09" width="363.348837" x="470.23985" y="253.674082"/>
  </clipPath>
 </defs>
</svg>
