<?xml version="1.0" encoding="utf-8" standalone="no"?>
<!DOCTYPE svg PUBLIC "-//W3C//DTD SVG 1.1//EN"
  "http://www.w3.org/Graphics/SVG/1.1/DTD/svg11.dtd">
<svg height="501.47677pt" version="1.1" viewBox="0 0 846.387688 501.47677" width="846.387688pt" xmlns="http://www.w3.org/2000/svg" xmlns:xlink="http://www.w3.org/1999/xlink">
 <metadata>
  <rdf:RDF xmlns:cc="http://creativecommons.org/ns#" xmlns:dc="http://purl.org/dc/elements/1.1/" xmlns:rdf="http://www.w3.org/1999/02/22-rdf-syntax-ns#">
   <cc:Work>
    <dc:type rdf:resource="http://purl.org/dc/dcmitype/StillImage"/>
    <dc:date>2022-05-11T14:01:50.450742</dc:date>
    <dc:format>image/svg+xml</dc:format>
    <dc:creator>
     <cc:Agent>
      <dc:title>Matplotlib v3.4.3, https://matplotlib.org/</dc:title>
     </cc:Agent>
    </dc:creator>
   </cc:Work>
  </rdf:RDF>
 </metadata>
 <defs>
  <style type="text/css">*{stroke-linecap:butt;stroke-linejoin:round;}</style>
 </defs>
 <g id="figure_1">
  <g id="patch_1">
   <path d="M 0 501.47677 
L 846.387688 501.47677 
L 846.387688 0 
L 0 0 
z
" style="fill:#ffffff;stroke:#ffffff;stroke-linejoin:miter;"/>
  </g>
  <g id="axes_1">
   <g id="patch_2">
    <path d="M 57.987688 234.334082 
L 421.336525 234.334082 
L 421.336525 22.244082 
L 57.987688 22.244082 
z
" style="fill:#ebebeb;"/>
   </g>
   <g id="matplotlib.axis_1">
    <g id="xtick_1">
     <g id="line2d_1">
      <path clip-path="url(#p207a7f027e)" d="M 74.503544 234.334082 
L 74.503544 22.244082 
" style="fill:none;stroke:#ffffff;"/>
     </g>
    </g>
    <g id="xtick_2">
     <g id="line2d_2">
      <path clip-path="url(#p207a7f027e)" d="M 162.58811 234.334082 
L 162.58811 22.244082 
" style="fill:none;stroke:#ffffff;"/>
     </g>
    </g>
    <g id="xtick_3">
     <g id="line2d_3">
      <path clip-path="url(#p207a7f027e)" d="M 250.672677 234.334082 
L 250.672677 22.244082 
" style="fill:none;stroke:#ffffff;"/>
     </g>
    </g>
    <g id="xtick_4">
     <g id="line2d_4">
      <path clip-path="url(#p207a7f027e)" d="M 338.757244 234.334082 
L 338.757244 22.244082 
" style="fill:none;stroke:#ffffff;"/>
     </g>
    </g>
    <g id="xtick_5">
     <g id="line2d_5">
      <path clip-path="url(#p207a7f027e)" d="M 118.545827 234.334082 
L 118.545827 22.244082 
" style="fill:none;stroke:#ffffff;stroke-width:0.5;"/>
     </g>
    </g>
    <g id="xtick_6">
     <g id="line2d_6">
      <path clip-path="url(#p207a7f027e)" d="M 206.630394 234.334082 
L 206.630394 22.244082 
" style="fill:none;stroke:#ffffff;stroke-width:0.5;"/>
     </g>
    </g>
    <g id="xtick_7">
     <g id="line2d_7">
      <path clip-path="url(#p207a7f027e)" d="M 294.71496 234.334082 
L 294.71496 22.244082 
" style="fill:none;stroke:#ffffff;stroke-width:0.5;"/>
     </g>
    </g>
    <g id="xtick_8">
     <g id="line2d_8">
      <path clip-path="url(#p207a7f027e)" d="M 382.799527 234.334082 
L 382.799527 22.244082 
" style="fill:none;stroke:#ffffff;stroke-width:0.5;"/>
     </g>
    </g>
   </g>
   <g id="matplotlib.axis_2">
    <g id="ytick_1">
     <g id="line2d_9">
      <path clip-path="url(#p207a7f027e)" d="M 57.987688 196.202737 
L 421.336525 196.202737 
" style="fill:none;stroke:#ffffff;"/>
     </g>
     <g id="line2d_10">
      <path d="M 57.987688 196.202737 
" style="fill:none;stroke:#333333;stroke-width:1.5;"/>
      <defs>
       <path d="M 0 0 
L -2.75 0 
" id="m814c5b486a" style="stroke:#000000;"/>
      </defs>
      <g>
       <use style="fill:#333333;stroke:#000000;" x="57.987688" xlink:href="#m814c5b486a" y="196.202737"/>
      </g>
     </g>
     <g id="text_1">
      <!-- 0.8325 -->
      <g style="fill:#4d4d4d;" transform="translate(22.245938 198.630987)scale(0.088 -0.088)">
       <defs>
        <path d="M 2034 4250 
Q 1547 4250 1301 3770 
Q 1056 3291 1056 2328 
Q 1056 1369 1301 889 
Q 1547 409 2034 409 
Q 2525 409 2770 889 
Q 3016 1369 3016 2328 
Q 3016 3291 2770 3770 
Q 2525 4250 2034 4250 
z
M 2034 4750 
Q 2819 4750 3233 4129 
Q 3647 3509 3647 2328 
Q 3647 1150 3233 529 
Q 2819 -91 2034 -91 
Q 1250 -91 836 529 
Q 422 1150 422 2328 
Q 422 3509 836 4129 
Q 1250 4750 2034 4750 
z
" id="DejaVuSans-30" transform="scale(0.015625)"/>
        <path d="M 684 794 
L 1344 794 
L 1344 0 
L 684 0 
L 684 794 
z
" id="DejaVuSans-2e" transform="scale(0.015625)"/>
        <path d="M 2034 2216 
Q 1584 2216 1326 1975 
Q 1069 1734 1069 1313 
Q 1069 891 1326 650 
Q 1584 409 2034 409 
Q 2484 409 2743 651 
Q 3003 894 3003 1313 
Q 3003 1734 2745 1975 
Q 2488 2216 2034 2216 
z
M 1403 2484 
Q 997 2584 770 2862 
Q 544 3141 544 3541 
Q 544 4100 942 4425 
Q 1341 4750 2034 4750 
Q 2731 4750 3128 4425 
Q 3525 4100 3525 3541 
Q 3525 3141 3298 2862 
Q 3072 2584 2669 2484 
Q 3125 2378 3379 2068 
Q 3634 1759 3634 1313 
Q 3634 634 3220 271 
Q 2806 -91 2034 -91 
Q 1263 -91 848 271 
Q 434 634 434 1313 
Q 434 1759 690 2068 
Q 947 2378 1403 2484 
z
M 1172 3481 
Q 1172 3119 1398 2916 
Q 1625 2713 2034 2713 
Q 2441 2713 2670 2916 
Q 2900 3119 2900 3481 
Q 2900 3844 2670 4047 
Q 2441 4250 2034 4250 
Q 1625 4250 1398 4047 
Q 1172 3844 1172 3481 
z
" id="DejaVuSans-38" transform="scale(0.015625)"/>
        <path d="M 2597 2516 
Q 3050 2419 3304 2112 
Q 3559 1806 3559 1356 
Q 3559 666 3084 287 
Q 2609 -91 1734 -91 
Q 1441 -91 1130 -33 
Q 819 25 488 141 
L 488 750 
Q 750 597 1062 519 
Q 1375 441 1716 441 
Q 2309 441 2620 675 
Q 2931 909 2931 1356 
Q 2931 1769 2642 2001 
Q 2353 2234 1838 2234 
L 1294 2234 
L 1294 2753 
L 1863 2753 
Q 2328 2753 2575 2939 
Q 2822 3125 2822 3475 
Q 2822 3834 2567 4026 
Q 2313 4219 1838 4219 
Q 1578 4219 1281 4162 
Q 984 4106 628 3988 
L 628 4550 
Q 988 4650 1302 4700 
Q 1616 4750 1894 4750 
Q 2613 4750 3031 4423 
Q 3450 4097 3450 3541 
Q 3450 3153 3228 2886 
Q 3006 2619 2597 2516 
z
" id="DejaVuSans-33" transform="scale(0.015625)"/>
        <path d="M 1228 531 
L 3431 531 
L 3431 0 
L 469 0 
L 469 531 
Q 828 903 1448 1529 
Q 2069 2156 2228 2338 
Q 2531 2678 2651 2914 
Q 2772 3150 2772 3378 
Q 2772 3750 2511 3984 
Q 2250 4219 1831 4219 
Q 1534 4219 1204 4116 
Q 875 4013 500 3803 
L 500 4441 
Q 881 4594 1212 4672 
Q 1544 4750 1819 4750 
Q 2544 4750 2975 4387 
Q 3406 4025 3406 3419 
Q 3406 3131 3298 2873 
Q 3191 2616 2906 2266 
Q 2828 2175 2409 1742 
Q 1991 1309 1228 531 
z
" id="DejaVuSans-32" transform="scale(0.015625)"/>
        <path d="M 691 4666 
L 3169 4666 
L 3169 4134 
L 1269 4134 
L 1269 2991 
Q 1406 3038 1543 3061 
Q 1681 3084 1819 3084 
Q 2600 3084 3056 2656 
Q 3513 2228 3513 1497 
Q 3513 744 3044 326 
Q 2575 -91 1722 -91 
Q 1428 -91 1123 -41 
Q 819 9 494 109 
L 494 744 
Q 775 591 1075 516 
Q 1375 441 1709 441 
Q 2250 441 2565 725 
Q 2881 1009 2881 1497 
Q 2881 1984 2565 2268 
Q 2250 2553 1709 2553 
Q 1456 2553 1204 2497 
Q 953 2441 691 2322 
L 691 4666 
z
" id="DejaVuSans-35" transform="scale(0.015625)"/>
       </defs>
       <use xlink:href="#DejaVuSans-30"/>
       <use x="63.623047" xlink:href="#DejaVuSans-2e"/>
       <use x="95.410156" xlink:href="#DejaVuSans-38"/>
       <use x="159.033203" xlink:href="#DejaVuSans-33"/>
       <use x="222.65625" xlink:href="#DejaVuSans-32"/>
       <use x="286.279297" xlink:href="#DejaVuSans-35"/>
      </g>
     </g>
    </g>
    <g id="ytick_2">
     <g id="line2d_11">
      <path clip-path="url(#p207a7f027e)" d="M 57.987688 138.170848 
L 421.336525 138.170848 
" style="fill:none;stroke:#ffffff;"/>
     </g>
     <g id="line2d_12">
      <path d="M 57.987688 138.170848 
" style="fill:none;stroke:#333333;stroke-width:1.5;"/>
      <g>
       <use style="fill:#333333;stroke:#000000;" x="57.987688" xlink:href="#m814c5b486a" y="138.170848"/>
      </g>
     </g>
     <g id="text_2">
      <!-- 0.8350 -->
      <g style="fill:#4d4d4d;" transform="translate(22.245938 140.599098)scale(0.088 -0.088)">
       <use xlink:href="#DejaVuSans-30"/>
       <use x="63.623047" xlink:href="#DejaVuSans-2e"/>
       <use x="95.410156" xlink:href="#DejaVuSans-38"/>
       <use x="159.033203" xlink:href="#DejaVuSans-33"/>
       <use x="222.65625" xlink:href="#DejaVuSans-35"/>
       <use x="286.279297" xlink:href="#DejaVuSans-30"/>
      </g>
     </g>
    </g>
    <g id="ytick_3">
     <g id="line2d_13">
      <path clip-path="url(#p207a7f027e)" d="M 57.987688 80.13896 
L 421.336525 80.13896 
" style="fill:none;stroke:#ffffff;"/>
     </g>
     <g id="line2d_14">
      <path d="M 57.987688 80.13896 
" style="fill:none;stroke:#333333;stroke-width:1.5;"/>
      <g>
       <use style="fill:#333333;stroke:#000000;" x="57.987688" xlink:href="#m814c5b486a" y="80.13896"/>
      </g>
     </g>
     <g id="text_3">
      <!-- 0.8375 -->
      <g style="fill:#4d4d4d;" transform="translate(22.245938 82.56721)scale(0.088 -0.088)">
       <defs>
        <path d="M 525 4666 
L 3525 4666 
L 3525 4397 
L 1831 0 
L 1172 0 
L 2766 4134 
L 525 4134 
L 525 4666 
z
" id="DejaVuSans-37" transform="scale(0.015625)"/>
       </defs>
       <use xlink:href="#DejaVuSans-30"/>
       <use x="63.623047" xlink:href="#DejaVuSans-2e"/>
       <use x="95.410156" xlink:href="#DejaVuSans-38"/>
       <use x="159.033203" xlink:href="#DejaVuSans-33"/>
       <use x="222.65625" xlink:href="#DejaVuSans-37"/>
       <use x="286.279297" xlink:href="#DejaVuSans-35"/>
      </g>
     </g>
    </g>
    <g id="ytick_4">
     <g id="line2d_15">
      <path clip-path="url(#p207a7f027e)" d="M 57.987688 225.218681 
L 421.336525 225.218681 
" style="fill:none;stroke:#ffffff;stroke-width:0.5;"/>
     </g>
    </g>
    <g id="ytick_5">
     <g id="line2d_16">
      <path clip-path="url(#p207a7f027e)" d="M 57.987688 167.186793 
L 421.336525 167.186793 
" style="fill:none;stroke:#ffffff;stroke-width:0.5;"/>
     </g>
    </g>
    <g id="ytick_6">
     <g id="line2d_17">
      <path clip-path="url(#p207a7f027e)" d="M 57.987688 109.154904 
L 421.336525 109.154904 
" style="fill:none;stroke:#ffffff;stroke-width:0.5;"/>
     </g>
    </g>
    <g id="ytick_7">
     <g id="line2d_18">
      <path clip-path="url(#p207a7f027e)" d="M 57.987688 51.123016 
L 421.336525 51.123016 
" style="fill:none;stroke:#ffffff;stroke-width:0.5;"/>
     </g>
    </g>
    <g id="text_4">
     <!-- Value -->
     <g transform="translate(15.558281 256.228457)rotate(-90)scale(0.11 -0.11)">
      <defs>
       <path d="M 1831 0 
L 50 4666 
L 709 4666 
L 2188 738 
L 3669 4666 
L 4325 4666 
L 2547 0 
L 1831 0 
z
" id="DejaVuSans-56" transform="scale(0.015625)"/>
       <path d="M 2194 1759 
Q 1497 1759 1228 1600 
Q 959 1441 959 1056 
Q 959 750 1161 570 
Q 1363 391 1709 391 
Q 2188 391 2477 730 
Q 2766 1069 2766 1631 
L 2766 1759 
L 2194 1759 
z
M 3341 1997 
L 3341 0 
L 2766 0 
L 2766 531 
Q 2569 213 2275 61 
Q 1981 -91 1556 -91 
Q 1019 -91 701 211 
Q 384 513 384 1019 
Q 384 1609 779 1909 
Q 1175 2209 1959 2209 
L 2766 2209 
L 2766 2266 
Q 2766 2663 2505 2880 
Q 2244 3097 1772 3097 
Q 1472 3097 1187 3025 
Q 903 2953 641 2809 
L 641 3341 
Q 956 3463 1253 3523 
Q 1550 3584 1831 3584 
Q 2591 3584 2966 3190 
Q 3341 2797 3341 1997 
z
" id="DejaVuSans-61" transform="scale(0.015625)"/>
       <path d="M 603 4863 
L 1178 4863 
L 1178 0 
L 603 0 
L 603 4863 
z
" id="DejaVuSans-6c" transform="scale(0.015625)"/>
       <path d="M 544 1381 
L 544 3500 
L 1119 3500 
L 1119 1403 
Q 1119 906 1312 657 
Q 1506 409 1894 409 
Q 2359 409 2629 706 
Q 2900 1003 2900 1516 
L 2900 3500 
L 3475 3500 
L 3475 0 
L 2900 0 
L 2900 538 
Q 2691 219 2414 64 
Q 2138 -91 1772 -91 
Q 1169 -91 856 284 
Q 544 659 544 1381 
z
M 1991 3584 
L 1991 3584 
z
" id="DejaVuSans-75" transform="scale(0.015625)"/>
       <path d="M 3597 1894 
L 3597 1613 
L 953 1613 
Q 991 1019 1311 708 
Q 1631 397 2203 397 
Q 2534 397 2845 478 
Q 3156 559 3463 722 
L 3463 178 
Q 3153 47 2828 -22 
Q 2503 -91 2169 -91 
Q 1331 -91 842 396 
Q 353 884 353 1716 
Q 353 2575 817 3079 
Q 1281 3584 2069 3584 
Q 2775 3584 3186 3129 
Q 3597 2675 3597 1894 
z
M 3022 2063 
Q 3016 2534 2758 2815 
Q 2500 3097 2075 3097 
Q 1594 3097 1305 2825 
Q 1016 2553 972 2059 
L 3022 2063 
z
" id="DejaVuSans-65" transform="scale(0.015625)"/>
      </defs>
      <use xlink:href="#DejaVuSans-56"/>
      <use x="60.658203" xlink:href="#DejaVuSans-61"/>
      <use x="121.9375" xlink:href="#DejaVuSans-6c"/>
      <use x="149.720703" xlink:href="#DejaVuSans-75"/>
      <use x="213.099609" xlink:href="#DejaVuSans-65"/>
     </g>
    </g>
   </g>
   <g id="line2d_19">
    <path clip-path="url(#p207a7f027e)" d="M 74.503544 156.512933 
L 96.524685 166.809162 
L 118.545827 161.63022 
L 140.566969 162.431723 
L 162.58811 151.457299 
L 184.609252 155.958046 
L 206.630394 148.251288 
L 228.651535 138.016713 
L 250.672677 145.908434 
L 272.693819 120.260343 
L 294.71496 138.386638 
L 316.736102 133.515967 
L 338.757244 130.063339 
L 360.778385 116.622753 
L 382.799527 70.01228 
L 404.820668 92.207743 
" style="fill:none;stroke:#000000;stroke-width:0.886227;"/>
   </g>
   <g id="PathCollection_1">
    <path clip-path="url(#p207a7f027e)" d="M 74.503544 158.285387 
C 74.973604 158.285387 75.424475 158.09863 75.756858 157.766247 
C 76.089241 157.433864 76.275998 156.982993 76.275998 156.512933 
C 76.275998 156.042872 76.089241 155.592001 75.756858 155.259619 
C 75.424475 154.927236 74.973604 154.740479 74.503544 154.740479 
C 74.033483 154.740479 73.582612 154.927236 73.25023 155.259619 
C 72.917847 155.592001 72.73109 156.042872 72.73109 156.512933 
C 72.73109 156.982993 72.917847 157.433864 73.25023 157.766247 
C 73.582612 158.09863 74.033483 158.285387 74.503544 158.285387 
z
" style="stroke:#000000;stroke-width:0.886227;"/>
    <path clip-path="url(#p207a7f027e)" d="M 96.524685 168.581615 
C 96.994746 168.581615 97.445617 168.394858 97.778 168.062476 
C 98.110382 167.730093 98.297139 167.279222 98.297139 166.809162 
C 98.297139 166.339101 98.110382 165.88823 97.778 165.555847 
C 97.445617 165.223465 96.994746 165.036708 96.524685 165.036708 
C 96.054625 165.036708 95.603754 165.223465 95.271371 165.555847 
C 94.938988 165.88823 94.752232 166.339101 94.752232 166.809162 
C 94.752232 167.279222 94.938988 167.730093 95.271371 168.062476 
C 95.603754 168.394858 96.054625 168.581615 96.524685 168.581615 
z
" style="stroke:#000000;stroke-width:0.886227;"/>
    <path clip-path="url(#p207a7f027e)" d="M 118.545827 163.402674 
C 119.015887 163.402674 119.466758 163.215917 119.799141 162.883534 
C 120.131524 162.551151 120.318281 162.10028 120.318281 161.63022 
C 120.318281 161.16016 120.131524 160.709289 119.799141 160.376906 
C 119.466758 160.044523 119.015887 159.857766 118.545827 159.857766 
C 118.075767 159.857766 117.624896 160.044523 117.292513 160.376906 
C 116.96013 160.709289 116.773373 161.16016 116.773373 161.63022 
C 116.773373 162.10028 116.96013 162.551151 117.292513 162.883534 
C 117.624896 163.215917 118.075767 163.402674 118.545827 163.402674 
z
" style="stroke:#000000;stroke-width:0.886227;"/>
    <path clip-path="url(#p207a7f027e)" d="M 140.566969 164.204177 
C 141.037029 164.204177 141.4879 164.01742 141.820283 163.685037 
C 142.152666 163.352654 142.339423 162.901783 142.339423 162.431723 
C 142.339423 161.961663 142.152666 161.510792 141.820283 161.178409 
C 141.4879 160.846026 141.037029 160.659269 140.566969 160.659269 
C 140.096908 160.659269 139.646037 160.846026 139.313655 161.178409 
C 138.981272 161.510792 138.794515 161.961663 138.794515 162.431723 
C 138.794515 162.901783 138.981272 163.352654 139.313655 163.685037 
C 139.646037 164.01742 140.096908 164.204177 140.566969 164.204177 
z
" style="stroke:#000000;stroke-width:0.886227;"/>
    <path clip-path="url(#p207a7f027e)" d="M 162.58811 153.229753 
C 163.058171 153.229753 163.509042 153.042996 163.841424 152.710614 
C 164.173807 152.378231 164.360564 151.92736 164.360564 151.457299 
C 164.360564 150.987239 164.173807 150.536368 163.841424 150.203985 
C 163.509042 149.871602 163.058171 149.684846 162.58811 149.684846 
C 162.11805 149.684846 161.667179 149.871602 161.334796 150.203985 
C 161.002413 150.536368 160.815656 150.987239 160.815656 151.457299 
C 160.815656 151.92736 161.002413 152.378231 161.334796 152.710614 
C 161.667179 153.042996 162.11805 153.229753 162.58811 153.229753 
z
" style="stroke:#000000;stroke-width:0.886227;"/>
    <path clip-path="url(#p207a7f027e)" d="M 184.609252 157.7305 
C 185.079312 157.7305 185.530183 157.543743 185.862566 157.21136 
C 186.194949 156.878977 186.381706 156.428106 186.381706 155.958046 
C 186.381706 155.487986 186.194949 155.037115 185.862566 154.704732 
C 185.530183 154.372349 185.079312 154.185592 184.609252 154.185592 
C 184.139192 154.185592 183.688321 154.372349 183.355938 154.704732 
C 183.023555 155.037115 182.836798 155.487986 182.836798 155.958046 
C 182.836798 156.428106 183.023555 156.878977 183.355938 157.21136 
C 183.688321 157.543743 184.139192 157.7305 184.609252 157.7305 
z
" style="stroke:#000000;stroke-width:0.886227;"/>
    <path clip-path="url(#p207a7f027e)" d="M 206.630394 150.023742 
C 207.100454 150.023742 207.551325 149.836985 207.883708 149.504602 
C 208.216091 149.172219 208.402847 148.721348 208.402847 148.251288 
C 208.402847 147.781228 208.216091 147.330357 207.883708 146.997974 
C 207.551325 146.665591 207.100454 146.478834 206.630394 146.478834 
C 206.160333 146.478834 205.709462 146.665591 205.377079 146.997974 
C 205.044697 147.330357 204.85794 147.781228 204.85794 148.251288 
C 204.85794 148.721348 205.044697 149.172219 205.377079 149.504602 
C 205.709462 149.836985 206.160333 150.023742 206.630394 150.023742 
z
" style="stroke:#000000;stroke-width:0.886227;"/>
    <path clip-path="url(#p207a7f027e)" d="M 228.651535 139.789167 
C 229.121596 139.789167 229.572467 139.60241 229.904849 139.270027 
C 230.237232 138.937645 230.423989 138.486774 230.423989 138.016713 
C 230.423989 137.546653 230.237232 137.095782 229.904849 136.763399 
C 229.572467 136.431016 229.121596 136.244259 228.651535 136.244259 
C 228.181475 136.244259 227.730604 136.431016 227.398221 136.763399 
C 227.065838 137.095782 226.879081 137.546653 226.879081 138.016713 
C 226.879081 138.486774 227.065838 138.937645 227.398221 139.270027 
C 227.730604 139.60241 228.181475 139.789167 228.651535 139.789167 
z
" style="stroke:#000000;stroke-width:0.886227;"/>
    <path clip-path="url(#p207a7f027e)" d="M 250.672677 147.680887 
C 251.142737 147.680887 251.593608 147.494131 251.925991 147.161748 
C 252.258374 146.829365 252.445131 146.378494 252.445131 145.908434 
C 252.445131 145.438373 252.258374 144.987502 251.925991 144.655119 
C 251.593608 144.322737 251.142737 144.13598 250.672677 144.13598 
C 250.202617 144.13598 249.751746 144.322737 249.419363 144.655119 
C 249.08698 144.987502 248.900223 145.438373 248.900223 145.908434 
C 248.900223 146.378494 249.08698 146.829365 249.419363 147.161748 
C 249.751746 147.494131 250.202617 147.680887 250.672677 147.680887 
z
" style="stroke:#000000;stroke-width:0.886227;"/>
    <path clip-path="url(#p207a7f027e)" d="M 272.693819 122.032796 
C 273.163879 122.032796 273.61475 121.84604 273.947133 121.513657 
C 274.279516 121.181274 274.466272 120.730403 274.466272 120.260343 
C 274.466272 119.790282 274.279516 119.339411 273.947133 119.007029 
C 273.61475 118.674646 273.163879 118.487889 272.693819 118.487889 
C 272.223758 118.487889 271.772887 118.674646 271.440504 119.007029 
C 271.108122 119.339411 270.921365 119.790282 270.921365 120.260343 
C 270.921365 120.730403 271.108122 121.181274 271.440504 121.513657 
C 271.772887 121.84604 272.223758 122.032796 272.693819 122.032796 
z
" style="stroke:#000000;stroke-width:0.886227;"/>
    <path clip-path="url(#p207a7f027e)" d="M 294.71496 140.159092 
C 295.18502 140.159092 295.635892 139.972335 295.968274 139.639952 
C 296.300657 139.307569 296.487414 138.856698 296.487414 138.386638 
C 296.487414 137.916577 296.300657 137.465706 295.968274 137.133324 
C 295.635892 136.800941 295.18502 136.614184 294.71496 136.614184 
C 294.2449 136.614184 293.794029 136.800941 293.461646 137.133324 
C 293.129263 137.465706 292.942506 137.916577 292.942506 138.386638 
C 292.942506 138.856698 293.129263 139.307569 293.461646 139.639952 
C 293.794029 139.972335 294.2449 140.159092 294.71496 140.159092 
z
" style="stroke:#000000;stroke-width:0.886227;"/>
    <path clip-path="url(#p207a7f027e)" d="M 316.736102 135.28842 
C 317.206162 135.28842 317.657033 135.101663 317.989416 134.769281 
C 318.321799 134.436898 318.508556 133.986027 318.508556 133.515967 
C 318.508556 133.045906 318.321799 132.595035 317.989416 132.262652 
C 317.657033 131.93027 317.206162 131.743513 316.736102 131.743513 
C 316.266042 131.743513 315.815171 131.93027 315.482788 132.262652 
C 315.150405 132.595035 314.963648 133.045906 314.963648 133.515967 
C 314.963648 133.986027 315.150405 134.436898 315.482788 134.769281 
C 315.815171 135.101663 316.266042 135.28842 316.736102 135.28842 
z
" style="stroke:#000000;stroke-width:0.886227;"/>
    <path clip-path="url(#p207a7f027e)" d="M 338.757244 131.835793 
C 339.227304 131.835793 339.678175 131.649036 340.010558 131.316653 
C 340.34294 130.98427 340.529697 130.533399 340.529697 130.063339 
C 340.529697 129.593279 340.34294 129.142408 340.010558 128.810025 
C 339.678175 128.477642 339.227304 128.290885 338.757244 128.290885 
C 338.287183 128.290885 337.836312 128.477642 337.503929 128.810025 
C 337.171547 129.142408 336.98479 129.593279 336.98479 130.063339 
C 336.98479 130.533399 337.171547 130.98427 337.503929 131.316653 
C 337.836312 131.649036 338.287183 131.835793 338.757244 131.835793 
z
" style="stroke:#000000;stroke-width:0.886227;"/>
    <path clip-path="url(#p207a7f027e)" d="M 360.778385 118.395207 
C 361.248445 118.395207 361.699317 118.20845 362.031699 117.876067 
C 362.364082 117.543684 362.550839 117.092813 362.550839 116.622753 
C 362.550839 116.152693 362.364082 115.701821 362.031699 115.369439 
C 361.699317 115.037056 361.248445 114.850299 360.778385 114.850299 
C 360.308325 114.850299 359.857454 115.037056 359.525071 115.369439 
C 359.192688 115.701821 359.005931 116.152693 359.005931 116.622753 
C 359.005931 117.092813 359.192688 117.543684 359.525071 117.876067 
C 359.857454 118.20845 360.308325 118.395207 360.778385 118.395207 
z
" style="stroke:#000000;stroke-width:0.886227;"/>
    <path clip-path="url(#p207a7f027e)" d="M 382.799527 71.784734 
C 383.269587 71.784734 383.720458 71.597977 384.052841 71.265594 
C 384.385224 70.933211 384.571981 70.48234 384.571981 70.01228 
C 384.571981 69.54222 384.385224 69.091349 384.052841 68.758966 
C 383.720458 68.426583 383.269587 68.239826 382.799527 68.239826 
C 382.329467 68.239826 381.878595 68.426583 381.546213 68.758966 
C 381.21383 69.091349 381.027073 69.54222 381.027073 70.01228 
C 381.027073 70.48234 381.21383 70.933211 381.546213 71.265594 
C 381.878595 71.597977 382.329467 71.784734 382.799527 71.784734 
z
" style="stroke:#000000;stroke-width:0.886227;"/>
    <path clip-path="url(#p207a7f027e)" d="M 404.820668 93.980197 
C 405.290729 93.980197 405.7416 93.79344 406.073983 93.461057 
C 406.406365 93.128675 406.593122 92.677803 406.593122 92.207743 
C 406.593122 91.737683 406.406365 91.286812 406.073983 90.954429 
C 405.7416 90.622046 405.290729 90.435289 404.820668 90.435289 
C 404.350608 90.435289 403.899737 90.622046 403.567354 90.954429 
C 403.234972 91.286812 403.048215 91.737683 403.048215 92.207743 
C 403.048215 92.677803 403.234972 93.128675 403.567354 93.461057 
C 403.899737 93.79344 404.350608 93.980197 404.820668 93.980197 
z
" style="stroke:#000000;stroke-width:0.886227;"/>
   </g>
   <g id="patch_3">
    <path d="M 57.987688 22.244082 
L 421.336525 22.244082 
L 421.336525 7.2 
L 57.987688 7.2 
z
" style="fill:#d9d9d9;"/>
   </g>
   <g id="PolyCollection_1">
    <path clip-path="url(#p207a7f027e)" d="M 74.503544 92.594585 
L 74.503544 220.431281 
L 96.524685 224.693628 
L 118.545827 221.315877 
L 140.566969 209.778833 
L 162.58811 202.791704 
L 184.609252 212.622928 
L 206.630394 194.395309 
L 228.651535 197.374562 
L 250.672677 203.183566 
L 272.693819 172.279569 
L 294.71496 202.996273 
L 316.736102 184.335374 
L 338.757244 184.129208 
L 360.778385 172.957702 
L 382.799527 108.140023 
L 404.820668 141.391923 
L 404.820668 43.023563 
L 404.820668 43.023563 
L 382.799527 31.884537 
L 360.778385 60.287804 
L 338.757244 75.99747 
L 316.736102 82.696559 
L 294.71496 73.777002 
L 272.693819 68.241116 
L 250.672677 88.633301 
L 228.651535 78.658864 
L 206.630394 102.107267 
L 184.609252 99.293164 
L 162.58811 100.122894 
L 140.566969 115.084612 
L 118.545827 101.944563 
L 96.524685 108.924695 
L 74.503544 92.594585 
z
" style="fill:#333333;fill-opacity:0.501961;"/>
   </g>
   <g id="text_5">
    <!-- Accuracy -->
    <g style="fill:#1a1a1a;" transform="translate(219.573356 17.150291)scale(0.088 -0.088)">
     <defs>
      <path d="M 2188 4044 
L 1331 1722 
L 3047 1722 
L 2188 4044 
z
M 1831 4666 
L 2547 4666 
L 4325 0 
L 3669 0 
L 3244 1197 
L 1141 1197 
L 716 0 
L 50 0 
L 1831 4666 
z
" id="DejaVuSans-41" transform="scale(0.015625)"/>
      <path d="M 3122 3366 
L 3122 2828 
Q 2878 2963 2633 3030 
Q 2388 3097 2138 3097 
Q 1578 3097 1268 2742 
Q 959 2388 959 1747 
Q 959 1106 1268 751 
Q 1578 397 2138 397 
Q 2388 397 2633 464 
Q 2878 531 3122 666 
L 3122 134 
Q 2881 22 2623 -34 
Q 2366 -91 2075 -91 
Q 1284 -91 818 406 
Q 353 903 353 1747 
Q 353 2603 823 3093 
Q 1294 3584 2113 3584 
Q 2378 3584 2631 3529 
Q 2884 3475 3122 3366 
z
" id="DejaVuSans-63" transform="scale(0.015625)"/>
      <path d="M 2631 2963 
Q 2534 3019 2420 3045 
Q 2306 3072 2169 3072 
Q 1681 3072 1420 2755 
Q 1159 2438 1159 1844 
L 1159 0 
L 581 0 
L 581 3500 
L 1159 3500 
L 1159 2956 
Q 1341 3275 1631 3429 
Q 1922 3584 2338 3584 
Q 2397 3584 2469 3576 
Q 2541 3569 2628 3553 
L 2631 2963 
z
" id="DejaVuSans-72" transform="scale(0.015625)"/>
      <path d="M 2059 -325 
Q 1816 -950 1584 -1140 
Q 1353 -1331 966 -1331 
L 506 -1331 
L 506 -850 
L 844 -850 
Q 1081 -850 1212 -737 
Q 1344 -625 1503 -206 
L 1606 56 
L 191 3500 
L 800 3500 
L 1894 763 
L 2988 3500 
L 3597 3500 
L 2059 -325 
z
" id="DejaVuSans-79" transform="scale(0.015625)"/>
     </defs>
     <use xlink:href="#DejaVuSans-41"/>
     <use x="66.658203" xlink:href="#DejaVuSans-63"/>
     <use x="121.638672" xlink:href="#DejaVuSans-63"/>
     <use x="176.619141" xlink:href="#DejaVuSans-75"/>
     <use x="239.998047" xlink:href="#DejaVuSans-72"/>
     <use x="281.111328" xlink:href="#DejaVuSans-61"/>
     <use x="342.390625" xlink:href="#DejaVuSans-63"/>
     <use x="397.371094" xlink:href="#DejaVuSans-79"/>
    </g>
   </g>
  </g>
  <g id="axes_2">
   <g id="patch_4">
    <path d="M 475.83885 234.334082 
L 839.187688 234.334082 
L 839.187688 22.244082 
L 475.83885 22.244082 
z
" style="fill:#ebebeb;"/>
   </g>
   <g id="matplotlib.axis_3">
    <g id="xtick_9">
     <g id="line2d_20">
      <path clip-path="url(#pe985e46a91)" d="M 492.354707 234.334082 
L 492.354707 22.244082 
" style="fill:none;stroke:#ffffff;stroke-linecap:square;"/>
     </g>
    </g>
    <g id="xtick_10">
     <g id="line2d_21">
      <path clip-path="url(#pe985e46a91)" d="M 580.439273 234.334082 
L 580.439273 22.244082 
" style="fill:none;stroke:#ffffff;stroke-linecap:square;"/>
     </g>
    </g>
    <g id="xtick_11">
     <g id="line2d_22">
      <path clip-path="url(#pe985e46a91)" d="M 668.52384 234.334082 
L 668.52384 22.244082 
" style="fill:none;stroke:#ffffff;stroke-linecap:square;"/>
     </g>
    </g>
    <g id="xtick_12">
     <g id="line2d_23">
      <path clip-path="url(#pe985e46a91)" d="M 756.608406 234.334082 
L 756.608406 22.244082 
" style="fill:none;stroke:#ffffff;stroke-linecap:square;"/>
     </g>
    </g>
    <g id="xtick_13">
     <g id="line2d_24">
      <path clip-path="url(#pe985e46a91)" d="M 536.39699 234.334082 
L 536.39699 22.244082 
" style="fill:none;stroke:#ffffff;stroke-linecap:square;stroke-width:0.5;"/>
     </g>
    </g>
    <g id="xtick_14">
     <g id="line2d_25">
      <path clip-path="url(#pe985e46a91)" d="M 624.481556 234.334082 
L 624.481556 22.244082 
" style="fill:none;stroke:#ffffff;stroke-linecap:square;stroke-width:0.5;"/>
     </g>
    </g>
    <g id="xtick_15">
     <g id="line2d_26">
      <path clip-path="url(#pe985e46a91)" d="M 712.566123 234.334082 
L 712.566123 22.244082 
" style="fill:none;stroke:#ffffff;stroke-linecap:square;stroke-width:0.5;"/>
     </g>
    </g>
    <g id="xtick_16">
     <g id="line2d_27">
      <path clip-path="url(#pe985e46a91)" d="M 800.65069 234.334082 
L 800.65069 22.244082 
" style="fill:none;stroke:#ffffff;stroke-linecap:square;stroke-width:0.5;"/>
     </g>
    </g>
   </g>
   <g id="matplotlib.axis_4">
    <g id="ytick_8">
     <g id="line2d_28">
      <path clip-path="url(#pe985e46a91)" d="M 475.83885 187.244297 
L 839.187688 187.244297 
" style="fill:none;stroke:#ffffff;stroke-linecap:square;"/>
     </g>
     <g id="line2d_29">
      <path d="M 475.83885 187.244297 
" style="fill:none;stroke:#333333;stroke-linecap:square;stroke-width:1.5;"/>
      <g>
       <use style="fill:#333333;stroke:#000000;" x="475.83885" xlink:href="#m814c5b486a" y="187.244297"/>
      </g>
     </g>
     <g id="text_6">
      <!-- 0.886 -->
      <g style="fill:#4d4d4d;" transform="translate(445.6961 189.672547)scale(0.088 -0.088)">
       <defs>
        <path d="M 2113 2584 
Q 1688 2584 1439 2293 
Q 1191 2003 1191 1497 
Q 1191 994 1439 701 
Q 1688 409 2113 409 
Q 2538 409 2786 701 
Q 3034 994 3034 1497 
Q 3034 2003 2786 2293 
Q 2538 2584 2113 2584 
z
M 3366 4563 
L 3366 3988 
Q 3128 4100 2886 4159 
Q 2644 4219 2406 4219 
Q 1781 4219 1451 3797 
Q 1122 3375 1075 2522 
Q 1259 2794 1537 2939 
Q 1816 3084 2150 3084 
Q 2853 3084 3261 2657 
Q 3669 2231 3669 1497 
Q 3669 778 3244 343 
Q 2819 -91 2113 -91 
Q 1303 -91 875 529 
Q 447 1150 447 2328 
Q 447 3434 972 4092 
Q 1497 4750 2381 4750 
Q 2619 4750 2861 4703 
Q 3103 4656 3366 4563 
z
" id="DejaVuSans-36" transform="scale(0.015625)"/>
       </defs>
       <use xlink:href="#DejaVuSans-30"/>
       <use x="63.623047" xlink:href="#DejaVuSans-2e"/>
       <use x="95.410156" xlink:href="#DejaVuSans-38"/>
       <use x="159.033203" xlink:href="#DejaVuSans-38"/>
       <use x="222.65625" xlink:href="#DejaVuSans-36"/>
      </g>
     </g>
    </g>
    <g id="ytick_9">
     <g id="line2d_30">
      <path clip-path="url(#pe985e46a91)" d="M 475.83885 129.838201 
L 839.187688 129.838201 
" style="fill:none;stroke:#ffffff;stroke-linecap:square;"/>
     </g>
     <g id="line2d_31">
      <path d="M 475.83885 129.838201 
" style="fill:none;stroke:#333333;stroke-linecap:square;stroke-width:1.5;"/>
      <g>
       <use style="fill:#333333;stroke:#000000;" x="475.83885" xlink:href="#m814c5b486a" y="129.838201"/>
      </g>
     </g>
     <g id="text_7">
      <!-- 0.888 -->
      <g style="fill:#4d4d4d;" transform="translate(445.6961 132.266451)scale(0.088 -0.088)">
       <use xlink:href="#DejaVuSans-30"/>
       <use x="63.623047" xlink:href="#DejaVuSans-2e"/>
       <use x="95.410156" xlink:href="#DejaVuSans-38"/>
       <use x="159.033203" xlink:href="#DejaVuSans-38"/>
       <use x="222.65625" xlink:href="#DejaVuSans-38"/>
      </g>
     </g>
    </g>
    <g id="ytick_10">
     <g id="line2d_32">
      <path clip-path="url(#pe985e46a91)" d="M 475.83885 72.432106 
L 839.187688 72.432106 
" style="fill:none;stroke:#ffffff;stroke-linecap:square;"/>
     </g>
     <g id="line2d_33">
      <path d="M 475.83885 72.432106 
" style="fill:none;stroke:#333333;stroke-linecap:square;stroke-width:1.5;"/>
      <g>
       <use style="fill:#333333;stroke:#000000;" x="475.83885" xlink:href="#m814c5b486a" y="72.432106"/>
      </g>
     </g>
     <g id="text_8">
      <!-- 0.890 -->
      <g style="fill:#4d4d4d;" transform="translate(445.6961 74.860356)scale(0.088 -0.088)">
       <defs>
        <path d="M 703 97 
L 703 672 
Q 941 559 1184 500 
Q 1428 441 1663 441 
Q 2288 441 2617 861 
Q 2947 1281 2994 2138 
Q 2813 1869 2534 1725 
Q 2256 1581 1919 1581 
Q 1219 1581 811 2004 
Q 403 2428 403 3163 
Q 403 3881 828 4315 
Q 1253 4750 1959 4750 
Q 2769 4750 3195 4129 
Q 3622 3509 3622 2328 
Q 3622 1225 3098 567 
Q 2575 -91 1691 -91 
Q 1453 -91 1209 -44 
Q 966 3 703 97 
z
M 1959 2075 
Q 2384 2075 2632 2365 
Q 2881 2656 2881 3163 
Q 2881 3666 2632 3958 
Q 2384 4250 1959 4250 
Q 1534 4250 1286 3958 
Q 1038 3666 1038 3163 
Q 1038 2656 1286 2365 
Q 1534 2075 1959 2075 
z
" id="DejaVuSans-39" transform="scale(0.015625)"/>
       </defs>
       <use xlink:href="#DejaVuSans-30"/>
       <use x="63.623047" xlink:href="#DejaVuSans-2e"/>
       <use x="95.410156" xlink:href="#DejaVuSans-38"/>
       <use x="159.033203" xlink:href="#DejaVuSans-39"/>
       <use x="222.65625" xlink:href="#DejaVuSans-30"/>
      </g>
     </g>
    </g>
    <g id="ytick_11">
     <g id="line2d_34">
      <path clip-path="url(#pe985e46a91)" d="M 475.83885 215.947344 
L 839.187688 215.947344 
" style="fill:none;stroke:#ffffff;stroke-linecap:square;stroke-width:0.5;"/>
     </g>
    </g>
    <g id="ytick_12">
     <g id="line2d_35">
      <path clip-path="url(#pe985e46a91)" d="M 475.83885 158.541249 
L 839.187688 158.541249 
" style="fill:none;stroke:#ffffff;stroke-linecap:square;stroke-width:0.5;"/>
     </g>
    </g>
    <g id="ytick_13">
     <g id="line2d_36">
      <path clip-path="url(#pe985e46a91)" d="M 475.83885 101.135154 
L 839.187688 101.135154 
" style="fill:none;stroke:#ffffff;stroke-linecap:square;stroke-width:0.5;"/>
     </g>
    </g>
    <g id="ytick_14">
     <g id="line2d_37">
      <path clip-path="url(#pe985e46a91)" d="M 475.83885 43.729059 
L 839.187688 43.729059 
" style="fill:none;stroke:#ffffff;stroke-linecap:square;stroke-width:0.5;"/>
     </g>
    </g>
   </g>
   <g id="line2d_38">
    <path clip-path="url(#pe985e46a91)" d="M 492.354707 144.780694 
L 514.375848 156.601813 
L 536.39699 141.426811 
L 558.418131 131.979963 
L 580.439273 134.715084 
L 602.460415 134.251718 
L 624.481556 123.16167 
L 646.502698 121.925947 
L 668.52384 116.322475 
L 690.544981 108.202323 
L 712.566123 113.727592 
L 734.587265 131.735749 
L 756.608406 104.500742 
L 778.629548 100.734095 
L 800.65069 62.726431 
L 822.671831 86.557281 
" style="fill:none;stroke:#000000;stroke-width:0.886227;"/>
   </g>
   <g id="PathCollection_2">
    <path clip-path="url(#pe985e46a91)" d="M 492.354707 146.553148 
C 492.824767 146.553148 493.275638 146.366391 493.608021 146.034009 
C 493.940403 145.701626 494.12716 145.250755 494.12716 144.780694 
C 494.12716 144.310634 493.940403 143.859763 493.608021 143.52738 
C 493.275638 143.194997 492.824767 143.008241 492.354707 143.008241 
C 491.884646 143.008241 491.433775 143.194997 491.101392 143.52738 
C 490.76901 143.859763 490.582253 144.310634 490.582253 144.780694 
C 490.582253 145.250755 490.76901 145.701626 491.101392 146.034009 
C 491.433775 146.366391 491.884646 146.553148 492.354707 146.553148 
z
" style="stroke:#000000;stroke-width:0.886227;"/>
    <path clip-path="url(#pe985e46a91)" d="M 514.375848 158.374267 
C 514.845908 158.374267 515.29678 158.18751 515.629162 157.855127 
C 515.961545 157.522744 516.148302 157.071873 516.148302 156.601813 
C 516.148302 156.131753 515.961545 155.680882 515.629162 155.348499 
C 515.29678 155.016116 514.845908 154.829359 514.375848 154.829359 
C 513.905788 154.829359 513.454917 155.016116 513.122534 155.348499 
C 512.790151 155.680882 512.603394 156.131753 512.603394 156.601813 
C 512.603394 157.071873 512.790151 157.522744 513.122534 157.855127 
C 513.454917 158.18751 513.905788 158.374267 514.375848 158.374267 
z
" style="stroke:#000000;stroke-width:0.886227;"/>
    <path clip-path="url(#pe985e46a91)" d="M 536.39699 143.199265 
C 536.86705 143.199265 537.317921 143.012508 537.650304 142.680125 
C 537.982687 142.347742 538.169444 141.896871 538.169444 141.426811 
C 538.169444 140.956751 537.982687 140.50588 537.650304 140.173497 
C 537.317921 139.841114 536.86705 139.654357 536.39699 139.654357 
C 535.92693 139.654357 535.476058 139.841114 535.143676 140.173497 
C 534.811293 140.50588 534.624536 140.956751 534.624536 141.426811 
C 534.624536 141.896871 534.811293 142.347742 535.143676 142.680125 
C 535.476058 143.012508 535.92693 143.199265 536.39699 143.199265 
z
" style="stroke:#000000;stroke-width:0.886227;"/>
    <path clip-path="url(#pe985e46a91)" d="M 558.418131 133.752417 
C 558.888192 133.752417 559.339063 133.56566 559.671446 133.233277 
C 560.003828 132.900894 560.190585 132.450023 560.190585 131.979963 
C 560.190585 131.509903 560.003828 131.059032 559.671446 130.726649 
C 559.339063 130.394266 558.888192 130.207509 558.418131 130.207509 
C 557.948071 130.207509 557.4972 130.394266 557.164817 130.726649 
C 556.832435 131.059032 556.645678 131.509903 556.645678 131.979963 
C 556.645678 132.450023 556.832435 132.900894 557.164817 133.233277 
C 557.4972 133.56566 557.948071 133.752417 558.418131 133.752417 
z
" style="stroke:#000000;stroke-width:0.886227;"/>
    <path clip-path="url(#pe985e46a91)" d="M 580.439273 136.487537 
C 580.909333 136.487537 581.360204 136.300781 581.692587 135.968398 
C 582.02497 135.636015 582.211727 135.185144 582.211727 134.715084 
C 582.211727 134.245023 582.02497 133.794152 581.692587 133.461769 
C 581.360204 133.129387 580.909333 132.94263 580.439273 132.94263 
C 579.969213 132.94263 579.518342 133.129387 579.185959 133.461769 
C 578.853576 133.794152 578.666819 134.245023 578.666819 134.715084 
C 578.666819 135.185144 578.853576 135.636015 579.185959 135.968398 
C 579.518342 136.300781 579.969213 136.487537 580.439273 136.487537 
z
" style="stroke:#000000;stroke-width:0.886227;"/>
    <path clip-path="url(#pe985e46a91)" d="M 602.460415 136.024172 
C 602.930475 136.024172 603.381346 135.837415 603.713729 135.505033 
C 604.046112 135.17265 604.232869 134.721779 604.232869 134.251718 
C 604.232869 133.781658 604.046112 133.330787 603.713729 132.998404 
C 603.381346 132.666021 602.930475 132.479265 602.460415 132.479265 
C 601.990355 132.479265 601.539483 132.666021 601.207101 132.998404 
C 600.874718 133.330787 600.687961 133.781658 600.687961 134.251718 
C 600.687961 134.721779 600.874718 135.17265 601.207101 135.505033 
C 601.539483 135.837415 601.990355 136.024172 602.460415 136.024172 
z
" style="stroke:#000000;stroke-width:0.886227;"/>
    <path clip-path="url(#pe985e46a91)" d="M 624.481556 124.934124 
C 624.951617 124.934124 625.402488 124.747367 625.734871 124.414984 
C 626.067253 124.082601 626.25401 123.63173 626.25401 123.16167 
C 626.25401 122.69161 626.067253 122.240739 625.734871 121.908356 
C 625.402488 121.575973 624.951617 121.389216 624.481556 121.389216 
C 624.011496 121.389216 623.560625 121.575973 623.228242 121.908356 
C 622.895859 122.240739 622.709103 122.69161 622.709103 123.16167 
C 622.709103 123.63173 622.895859 124.082601 623.228242 124.414984 
C 623.560625 124.747367 624.011496 124.934124 624.481556 124.934124 
z
" style="stroke:#000000;stroke-width:0.886227;"/>
    <path clip-path="url(#pe985e46a91)" d="M 646.502698 123.698401 
C 646.972758 123.698401 647.423629 123.511644 647.756012 123.179262 
C 648.088395 122.846879 648.275152 122.396008 648.275152 121.925947 
C 648.275152 121.455887 648.088395 121.005016 647.756012 120.672633 
C 647.423629 120.340251 646.972758 120.153494 646.502698 120.153494 
C 646.032638 120.153494 645.581767 120.340251 645.249384 120.672633 
C 644.917001 121.005016 644.730244 121.455887 644.730244 121.925947 
C 644.730244 122.396008 644.917001 122.846879 645.249384 123.179262 
C 645.581767 123.511644 646.032638 123.698401 646.502698 123.698401 
z
" style="stroke:#000000;stroke-width:0.886227;"/>
    <path clip-path="url(#pe985e46a91)" d="M 668.52384 118.094929 
C 668.9939 118.094929 669.444771 117.908172 669.777154 117.575789 
C 670.109537 117.243406 670.296294 116.792535 670.296294 116.322475 
C 670.296294 115.852415 670.109537 115.401544 669.777154 115.069161 
C 669.444771 114.736778 668.9939 114.550021 668.52384 114.550021 
C 668.053779 114.550021 667.602908 114.736778 667.270526 115.069161 
C 666.938143 115.401544 666.751386 115.852415 666.751386 116.322475 
C 666.751386 116.792535 666.938143 117.243406 667.270526 117.575789 
C 667.602908 117.908172 668.053779 118.094929 668.52384 118.094929 
z
" style="stroke:#000000;stroke-width:0.886227;"/>
    <path clip-path="url(#pe985e46a91)" d="M 690.544981 109.974777 
C 691.015042 109.974777 691.465913 109.78802 691.798296 109.455637 
C 692.130678 109.123255 692.317435 108.672384 692.317435 108.202323 
C 692.317435 107.732263 692.130678 107.281392 691.798296 106.949009 
C 691.465913 106.616626 691.015042 106.429869 690.544981 106.429869 
C 690.074921 106.429869 689.62405 106.616626 689.291667 106.949009 
C 688.959284 107.281392 688.772528 107.732263 688.772528 108.202323 
C 688.772528 108.672384 688.959284 109.123255 689.291667 109.455637 
C 689.62405 109.78802 690.074921 109.974777 690.544981 109.974777 
z
" style="stroke:#000000;stroke-width:0.886227;"/>
    <path clip-path="url(#pe985e46a91)" d="M 712.566123 115.500046 
C 713.036183 115.500046 713.487054 115.313289 713.819437 114.980906 
C 714.15182 114.648523 714.338577 114.197652 714.338577 113.727592 
C 714.338577 113.257531 714.15182 112.80666 713.819437 112.474278 
C 713.487054 112.141895 713.036183 111.955138 712.566123 111.955138 
C 712.096063 111.955138 711.645192 112.141895 711.312809 112.474278 
C 710.980426 112.80666 710.793669 113.257531 710.793669 113.727592 
C 710.793669 114.197652 710.980426 114.648523 711.312809 114.980906 
C 711.645192 115.313289 712.096063 115.500046 712.566123 115.500046 
z
" style="stroke:#000000;stroke-width:0.886227;"/>
    <path clip-path="url(#pe985e46a91)" d="M 734.587265 133.508203 
C 735.057325 133.508203 735.508196 133.321446 735.840579 132.989063 
C 736.172962 132.656681 736.359719 132.20581 736.359719 131.735749 
C 736.359719 131.265689 736.172962 130.814818 735.840579 130.482435 
C 735.508196 130.150052 735.057325 129.963295 734.587265 129.963295 
C 734.117204 129.963295 733.666333 130.150052 733.333951 130.482435 
C 733.001568 130.814818 732.814811 131.265689 732.814811 131.735749 
C 732.814811 132.20581 733.001568 132.656681 733.333951 132.989063 
C 733.666333 133.321446 734.117204 133.508203 734.587265 133.508203 
z
" style="stroke:#000000;stroke-width:0.886227;"/>
    <path clip-path="url(#pe985e46a91)" d="M 756.608406 106.273196 
C 757.078467 106.273196 757.529338 106.086439 757.86172 105.754056 
C 758.194103 105.421673 758.38086 104.970802 758.38086 104.500742 
C 758.38086 104.030682 758.194103 103.579811 757.86172 103.247428 
C 757.529338 102.915045 757.078467 102.728288 756.608406 102.728288 
C 756.138346 102.728288 755.687475 102.915045 755.355092 103.247428 
C 755.022709 103.579811 754.835952 104.030682 754.835952 104.500742 
C 754.835952 104.970802 755.022709 105.421673 755.355092 105.754056 
C 755.687475 106.086439 756.138346 106.273196 756.608406 106.273196 
z
" style="stroke:#000000;stroke-width:0.886227;"/>
    <path clip-path="url(#pe985e46a91)" d="M 778.629548 102.506549 
C 779.099608 102.506549 779.550479 102.319792 779.882862 101.987409 
C 780.215245 101.655027 780.402002 101.204155 780.402002 100.734095 
C 780.402002 100.264035 780.215245 99.813164 779.882862 99.480781 
C 779.550479 99.148398 779.099608 98.961641 778.629548 98.961641 
C 778.159488 98.961641 777.708617 99.148398 777.376234 99.480781 
C 777.043851 99.813164 776.857094 100.264035 776.857094 100.734095 
C 776.857094 101.204155 777.043851 101.655027 777.376234 101.987409 
C 777.708617 102.319792 778.159488 102.506549 778.629548 102.506549 
z
" style="stroke:#000000;stroke-width:0.886227;"/>
    <path clip-path="url(#pe985e46a91)" d="M 800.65069 64.498885 
C 801.12075 64.498885 801.571621 64.312128 801.904004 63.979745 
C 802.236387 63.647362 802.423143 63.196491 802.423143 62.726431 
C 802.423143 62.256371 802.236387 61.8055 801.904004 61.473117 
C 801.571621 61.140734 801.12075 60.953977 800.65069 60.953977 
C 800.180629 60.953977 799.729758 61.140734 799.397375 61.473117 
C 799.064993 61.8055 798.878236 62.256371 798.878236 62.726431 
C 798.878236 63.196491 799.064993 63.647362 799.397375 63.979745 
C 799.729758 64.312128 800.180629 64.498885 800.65069 64.498885 
z
" style="stroke:#000000;stroke-width:0.886227;"/>
    <path clip-path="url(#pe985e46a91)" d="M 822.671831 88.329735 
C 823.141892 88.329735 823.592763 88.142978 823.925145 87.810595 
C 824.257528 87.478212 824.444285 87.027341 824.444285 86.557281 
C 824.444285 86.087221 824.257528 85.63635 823.925145 85.303967 
C 823.592763 84.971584 823.141892 84.784827 822.671831 84.784827 
C 822.201771 84.784827 821.7509 84.971584 821.418517 85.303967 
C 821.086134 85.63635 820.899377 86.087221 820.899377 86.557281 
C 820.899377 87.027341 821.086134 87.478212 821.418517 87.810595 
C 821.7509 88.142978 822.201771 88.329735 822.671831 88.329735 
z
" style="stroke:#000000;stroke-width:0.886227;"/>
   </g>
   <g id="patch_5">
    <path d="M 475.83885 22.244082 
L 839.187688 22.244082 
L 839.187688 7.2 
L 475.83885 7.2 
z
" style="fill:#d9d9d9;"/>
   </g>
   <g id="PolyCollection_2">
    <path clip-path="url(#pe985e46a91)" d="M 492.354707 81.400246 
L 492.354707 208.161143 
L 514.375848 224.693628 
L 536.39699 202.795247 
L 558.418131 177.94258 
L 580.439273 182.762299 
L 602.460415 183.601566 
L 624.481556 171.375741 
L 646.502698 175.030445 
L 668.52384 171.205688 
L 690.544981 159.535931 
L 712.566123 170.278692 
L 734.587265 174.787965 
L 756.608406 157.602647 
L 778.629548 146.857847 
L 800.65069 92.072794 
L 822.671831 141.230025 
L 822.671831 31.884537 
L 822.671831 31.884537 
L 800.65069 33.380068 
L 778.629548 54.610343 
L 756.608406 51.398837 
L 734.587265 88.683533 
L 712.566123 57.176492 
L 690.544981 56.868715 
L 668.52384 61.439262 
L 646.502698 68.82145 
L 624.481556 74.947599 
L 602.460415 84.901871 
L 580.439273 86.667868 
L 558.418131 86.017345 
L 536.39699 80.058375 
L 514.375848 88.509998 
L 492.354707 81.400246 
z
" style="fill:#333333;fill-opacity:0.501961;"/>
   </g>
   <g id="text_9">
    <!-- AUC -->
    <g style="fill:#1a1a1a;" transform="translate(648.210706 17.150291)scale(0.088 -0.088)">
     <defs>
      <path d="M 556 4666 
L 1191 4666 
L 1191 1831 
Q 1191 1081 1462 751 
Q 1734 422 2344 422 
Q 2950 422 3222 751 
Q 3494 1081 3494 1831 
L 3494 4666 
L 4128 4666 
L 4128 1753 
Q 4128 841 3676 375 
Q 3225 -91 2344 -91 
Q 1459 -91 1007 375 
Q 556 841 556 1753 
L 556 4666 
z
" id="DejaVuSans-55" transform="scale(0.015625)"/>
      <path d="M 4122 4306 
L 4122 3641 
Q 3803 3938 3442 4084 
Q 3081 4231 2675 4231 
Q 1875 4231 1450 3742 
Q 1025 3253 1025 2328 
Q 1025 1406 1450 917 
Q 1875 428 2675 428 
Q 3081 428 3442 575 
Q 3803 722 4122 1019 
L 4122 359 
Q 3791 134 3420 21 
Q 3050 -91 2638 -91 
Q 1578 -91 968 557 
Q 359 1206 359 2328 
Q 359 3453 968 4101 
Q 1578 4750 2638 4750 
Q 3056 4750 3426 4639 
Q 3797 4528 4122 4306 
z
" id="DejaVuSans-43" transform="scale(0.015625)"/>
     </defs>
     <use xlink:href="#DejaVuSans-41"/>
     <use x="68.408203" xlink:href="#DejaVuSans-55"/>
     <use x="141.601562" xlink:href="#DejaVuSans-43"/>
    </g>
   </g>
  </g>
  <g id="axes_3">
   <g id="patch_6">
    <path d="M 57.987688 465.764082 
L 421.336525 465.764082 
L 421.336525 253.674082 
L 57.987688 253.674082 
z
" style="fill:#ebebeb;"/>
   </g>
   <g id="matplotlib.axis_5">
    <g id="xtick_17">
     <g id="line2d_39">
      <path clip-path="url(#p7148304c3c)" d="M 74.503544 465.764082 
L 74.503544 253.674082 
" style="fill:none;stroke:#ffffff;stroke-linecap:square;"/>
     </g>
     <g id="line2d_40">
      <path d="M 74.503544 465.764082 
" style="fill:none;stroke:#333333;stroke-linecap:square;stroke-width:1.5;"/>
      <defs>
       <path d="M 0 0 
L 0 2.75 
" id="maa8cb137bb" style="stroke:#000000;"/>
      </defs>
      <g>
       <use style="fill:#333333;stroke:#000000;" x="74.503544" xlink:href="#maa8cb137bb" y="465.764082"/>
      </g>
     </g>
     <g id="text_10">
      <!-- 0 -->
      <g style="fill:#4d4d4d;" transform="translate(71.704044 477.400707)scale(0.088 -0.088)">
       <use xlink:href="#DejaVuSans-30"/>
      </g>
     </g>
    </g>
    <g id="xtick_18">
     <g id="line2d_41">
      <path clip-path="url(#p7148304c3c)" d="M 162.58811 465.764082 
L 162.58811 253.674082 
" style="fill:none;stroke:#ffffff;stroke-linecap:square;"/>
     </g>
     <g id="line2d_42">
      <path d="M 162.58811 465.764082 
" style="fill:none;stroke:#333333;stroke-linecap:square;stroke-width:1.5;"/>
      <g>
       <use style="fill:#333333;stroke:#000000;" x="162.58811" xlink:href="#maa8cb137bb" y="465.764082"/>
      </g>
     </g>
     <g id="text_11">
      <!-- 0.2 -->
      <g style="fill:#4d4d4d;" transform="translate(155.590735 477.400707)scale(0.088 -0.088)">
       <use xlink:href="#DejaVuSans-30"/>
       <use x="63.623047" xlink:href="#DejaVuSans-2e"/>
       <use x="95.410156" xlink:href="#DejaVuSans-32"/>
      </g>
     </g>
    </g>
    <g id="xtick_19">
     <g id="line2d_43">
      <path clip-path="url(#p7148304c3c)" d="M 250.672677 465.764082 
L 250.672677 253.674082 
" style="fill:none;stroke:#ffffff;stroke-linecap:square;"/>
     </g>
     <g id="line2d_44">
      <path d="M 250.672677 465.764082 
" style="fill:none;stroke:#333333;stroke-linecap:square;stroke-width:1.5;"/>
      <g>
       <use style="fill:#333333;stroke:#000000;" x="250.672677" xlink:href="#maa8cb137bb" y="465.764082"/>
      </g>
     </g>
     <g id="text_12">
      <!-- 0.4 -->
      <g style="fill:#4d4d4d;" transform="translate(243.675302 477.400707)scale(0.088 -0.088)">
       <defs>
        <path d="M 2419 4116 
L 825 1625 
L 2419 1625 
L 2419 4116 
z
M 2253 4666 
L 3047 4666 
L 3047 1625 
L 3713 1625 
L 3713 1100 
L 3047 1100 
L 3047 0 
L 2419 0 
L 2419 1100 
L 313 1100 
L 313 1709 
L 2253 4666 
z
" id="DejaVuSans-34" transform="scale(0.015625)"/>
       </defs>
       <use xlink:href="#DejaVuSans-30"/>
       <use x="63.623047" xlink:href="#DejaVuSans-2e"/>
       <use x="95.410156" xlink:href="#DejaVuSans-34"/>
      </g>
     </g>
    </g>
    <g id="xtick_20">
     <g id="line2d_45">
      <path clip-path="url(#p7148304c3c)" d="M 338.757244 465.764082 
L 338.757244 253.674082 
" style="fill:none;stroke:#ffffff;stroke-linecap:square;"/>
     </g>
     <g id="line2d_46">
      <path d="M 338.757244 465.764082 
" style="fill:none;stroke:#333333;stroke-linecap:square;stroke-width:1.5;"/>
      <g>
       <use style="fill:#333333;stroke:#000000;" x="338.757244" xlink:href="#maa8cb137bb" y="465.764082"/>
      </g>
     </g>
     <g id="text_13">
      <!-- 0.6 -->
      <g style="fill:#4d4d4d;" transform="translate(331.759869 477.400707)scale(0.088 -0.088)">
       <use xlink:href="#DejaVuSans-30"/>
       <use x="63.623047" xlink:href="#DejaVuSans-2e"/>
       <use x="95.410156" xlink:href="#DejaVuSans-36"/>
      </g>
     </g>
    </g>
    <g id="xtick_21">
     <g id="line2d_47">
      <path clip-path="url(#p7148304c3c)" d="M 118.545827 465.764082 
L 118.545827 253.674082 
" style="fill:none;stroke:#ffffff;stroke-linecap:square;stroke-width:0.5;"/>
     </g>
    </g>
    <g id="xtick_22">
     <g id="line2d_48">
      <path clip-path="url(#p7148304c3c)" d="M 206.630394 465.764082 
L 206.630394 253.674082 
" style="fill:none;stroke:#ffffff;stroke-linecap:square;stroke-width:0.5;"/>
     </g>
    </g>
    <g id="xtick_23">
     <g id="line2d_49">
      <path clip-path="url(#p7148304c3c)" d="M 294.71496 465.764082 
L 294.71496 253.674082 
" style="fill:none;stroke:#ffffff;stroke-linecap:square;stroke-width:0.5;"/>
     </g>
    </g>
    <g id="xtick_24">
     <g id="line2d_50">
      <path clip-path="url(#p7148304c3c)" d="M 382.799527 465.764082 
L 382.799527 253.674082 
" style="fill:none;stroke:#ffffff;stroke-linecap:square;stroke-width:0.5;"/>
     </g>
    </g>
   </g>
   <g id="matplotlib.axis_6">
    <g id="ytick_15">
     <g id="line2d_51">
      <path clip-path="url(#p7148304c3c)" d="M 57.987688 421.714831 
L 421.336525 421.714831 
" style="fill:none;stroke:#ffffff;stroke-linecap:square;"/>
     </g>
     <g id="line2d_52">
      <path d="M 57.987688 421.714831 
" style="fill:none;stroke:#333333;stroke-linecap:square;stroke-width:1.5;"/>
      <g>
       <use style="fill:#333333;stroke:#000000;" x="57.987688" xlink:href="#m814c5b486a" y="421.714831"/>
      </g>
     </g>
     <g id="text_14">
      <!-- 0.890 -->
      <g style="fill:#4d4d4d;" transform="translate(27.844938 424.143081)scale(0.088 -0.088)">
       <use xlink:href="#DejaVuSans-30"/>
       <use x="63.623047" xlink:href="#DejaVuSans-2e"/>
       <use x="95.410156" xlink:href="#DejaVuSans-38"/>
       <use x="159.033203" xlink:href="#DejaVuSans-39"/>
       <use x="222.65625" xlink:href="#DejaVuSans-30"/>
      </g>
     </g>
    </g>
    <g id="ytick_16">
     <g id="line2d_53">
      <path clip-path="url(#p7148304c3c)" d="M 57.987688 366.669131 
L 421.336525 366.669131 
" style="fill:none;stroke:#ffffff;stroke-linecap:square;"/>
     </g>
     <g id="line2d_54">
      <path d="M 57.987688 366.669131 
" style="fill:none;stroke:#333333;stroke-linecap:square;stroke-width:1.5;"/>
      <g>
       <use style="fill:#333333;stroke:#000000;" x="57.987688" xlink:href="#m814c5b486a" y="366.669131"/>
      </g>
     </g>
     <g id="text_15">
      <!-- 0.892 -->
      <g style="fill:#4d4d4d;" transform="translate(27.844938 369.097381)scale(0.088 -0.088)">
       <use xlink:href="#DejaVuSans-30"/>
       <use x="63.623047" xlink:href="#DejaVuSans-2e"/>
       <use x="95.410156" xlink:href="#DejaVuSans-38"/>
       <use x="159.033203" xlink:href="#DejaVuSans-39"/>
       <use x="222.65625" xlink:href="#DejaVuSans-32"/>
      </g>
     </g>
    </g>
    <g id="ytick_17">
     <g id="line2d_55">
      <path clip-path="url(#p7148304c3c)" d="M 57.987688 311.623431 
L 421.336525 311.623431 
" style="fill:none;stroke:#ffffff;stroke-linecap:square;"/>
     </g>
     <g id="line2d_56">
      <path d="M 57.987688 311.623431 
" style="fill:none;stroke:#333333;stroke-linecap:square;stroke-width:1.5;"/>
      <g>
       <use style="fill:#333333;stroke:#000000;" x="57.987688" xlink:href="#m814c5b486a" y="311.623431"/>
      </g>
     </g>
     <g id="text_16">
      <!-- 0.894 -->
      <g style="fill:#4d4d4d;" transform="translate(27.844938 314.051681)scale(0.088 -0.088)">
       <use xlink:href="#DejaVuSans-30"/>
       <use x="63.623047" xlink:href="#DejaVuSans-2e"/>
       <use x="95.410156" xlink:href="#DejaVuSans-38"/>
       <use x="159.033203" xlink:href="#DejaVuSans-39"/>
       <use x="222.65625" xlink:href="#DejaVuSans-34"/>
      </g>
     </g>
    </g>
    <g id="ytick_18">
     <g id="line2d_57">
      <path clip-path="url(#p7148304c3c)" d="M 57.987688 256.57773 
L 421.336525 256.57773 
" style="fill:none;stroke:#ffffff;stroke-linecap:square;"/>
     </g>
     <g id="line2d_58">
      <path d="M 57.987688 256.57773 
" style="fill:none;stroke:#333333;stroke-linecap:square;stroke-width:1.5;"/>
      <g>
       <use style="fill:#333333;stroke:#000000;" x="57.987688" xlink:href="#m814c5b486a" y="256.57773"/>
      </g>
     </g>
     <g id="text_17">
      <!-- 0.896 -->
      <g style="fill:#4d4d4d;" transform="translate(27.844938 259.00598)scale(0.088 -0.088)">
       <use xlink:href="#DejaVuSans-30"/>
       <use x="63.623047" xlink:href="#DejaVuSans-2e"/>
       <use x="95.410156" xlink:href="#DejaVuSans-38"/>
       <use x="159.033203" xlink:href="#DejaVuSans-39"/>
       <use x="222.65625" xlink:href="#DejaVuSans-36"/>
      </g>
     </g>
    </g>
    <g id="ytick_19">
     <g id="line2d_59">
      <path clip-path="url(#p7148304c3c)" d="M 57.987688 449.237681 
L 421.336525 449.237681 
" style="fill:none;stroke:#ffffff;stroke-linecap:square;stroke-width:0.5;"/>
     </g>
    </g>
    <g id="ytick_20">
     <g id="line2d_60">
      <path clip-path="url(#p7148304c3c)" d="M 57.987688 394.191981 
L 421.336525 394.191981 
" style="fill:none;stroke:#ffffff;stroke-linecap:square;stroke-width:0.5;"/>
     </g>
    </g>
    <g id="ytick_21">
     <g id="line2d_61">
      <path clip-path="url(#p7148304c3c)" d="M 57.987688 339.146281 
L 421.336525 339.146281 
" style="fill:none;stroke:#ffffff;stroke-linecap:square;stroke-width:0.5;"/>
     </g>
    </g>
    <g id="ytick_22">
     <g id="line2d_62">
      <path clip-path="url(#p7148304c3c)" d="M 57.987688 284.10058 
L 421.336525 284.10058 
" style="fill:none;stroke:#ffffff;stroke-linecap:square;stroke-width:0.5;"/>
     </g>
    </g>
   </g>
   <g id="line2d_63">
    <path clip-path="url(#p7148304c3c)" d="M 74.503544 386.636922 
L 96.524685 395.693628 
L 118.545827 398.676902 
L 140.566969 393.567103 
L 162.58811 383.894819 
L 184.609252 389.103765 
L 206.630394 374.383531 
L 228.651535 374.230824 
L 250.672677 378.499273 
L 272.693819 352.211067 
L 294.71496 376.109422 
L 316.736102 362.045858 
L 338.757244 366.860402 
L 360.778385 347.785533 
L 382.799527 302.647994 
L 404.820668 324.2401 
" style="fill:none;stroke:#000000;stroke-width:0.886227;"/>
   </g>
   <g id="PathCollection_3">
    <path clip-path="url(#p7148304c3c)" d="M 74.503544 388.409376 
C 74.973604 388.409376 75.424475 388.222619 75.756858 387.890237 
C 76.089241 387.557854 76.275998 387.106983 76.275998 386.636922 
C 76.275998 386.166862 76.089241 385.715991 75.756858 385.383608 
C 75.424475 385.051226 74.973604 384.864469 74.503544 384.864469 
C 74.033483 384.864469 73.582612 385.051226 73.25023 385.383608 
C 72.917847 385.715991 72.73109 386.166862 72.73109 386.636922 
C 72.73109 387.106983 72.917847 387.557854 73.25023 387.890237 
C 73.582612 388.222619 74.033483 388.409376 74.503544 388.409376 
z
" style="stroke:#000000;stroke-width:0.886227;"/>
    <path clip-path="url(#p7148304c3c)" d="M 96.524685 397.466082 
C 96.994746 397.466082 97.445617 397.279325 97.778 396.946942 
C 98.110382 396.61456 98.297139 396.163688 98.297139 395.693628 
C 98.297139 395.223568 98.110382 394.772697 97.778 394.440314 
C 97.445617 394.107931 96.994746 393.921174 96.524685 393.921174 
C 96.054625 393.921174 95.603754 394.107931 95.271371 394.440314 
C 94.938988 394.772697 94.752232 395.223568 94.752232 395.693628 
C 94.752232 396.163688 94.938988 396.61456 95.271371 396.946942 
C 95.603754 397.279325 96.054625 397.466082 96.524685 397.466082 
z
" style="stroke:#000000;stroke-width:0.886227;"/>
    <path clip-path="url(#p7148304c3c)" d="M 118.545827 400.449355 
C 119.015887 400.449355 119.466758 400.262599 119.799141 399.930216 
C 120.131524 399.597833 120.318281 399.146962 120.318281 398.676902 
C 120.318281 398.206841 120.131524 397.75597 119.799141 397.423587 
C 119.466758 397.091205 119.015887 396.904448 118.545827 396.904448 
C 118.075767 396.904448 117.624896 397.091205 117.292513 397.423587 
C 116.96013 397.75597 116.773373 398.206841 116.773373 398.676902 
C 116.773373 399.146962 116.96013 399.597833 117.292513 399.930216 
C 117.624896 400.262599 118.075767 400.449355 118.545827 400.449355 
z
" style="stroke:#000000;stroke-width:0.886227;"/>
    <path clip-path="url(#p7148304c3c)" d="M 140.566969 395.339557 
C 141.037029 395.339557 141.4879 395.1528 141.820283 394.820417 
C 142.152666 394.488034 142.339423 394.037163 142.339423 393.567103 
C 142.339423 393.097043 142.152666 392.646172 141.820283 392.313789 
C 141.4879 391.981406 141.037029 391.794649 140.566969 391.794649 
C 140.096908 391.794649 139.646037 391.981406 139.313655 392.313789 
C 138.981272 392.646172 138.794515 393.097043 138.794515 393.567103 
C 138.794515 394.037163 138.981272 394.488034 139.313655 394.820417 
C 139.646037 395.1528 140.096908 395.339557 140.566969 395.339557 
z
" style="stroke:#000000;stroke-width:0.886227;"/>
    <path clip-path="url(#p7148304c3c)" d="M 162.58811 385.667273 
C 163.058171 385.667273 163.509042 385.480516 163.841424 385.148134 
C 164.173807 384.815751 164.360564 384.36488 164.360564 383.894819 
C 164.360564 383.424759 164.173807 382.973888 163.841424 382.641505 
C 163.509042 382.309123 163.058171 382.122366 162.58811 382.122366 
C 162.11805 382.122366 161.667179 382.309123 161.334796 382.641505 
C 161.002413 382.973888 160.815656 383.424759 160.815656 383.894819 
C 160.815656 384.36488 161.002413 384.815751 161.334796 385.148134 
C 161.667179 385.480516 162.11805 385.667273 162.58811 385.667273 
z
" style="stroke:#000000;stroke-width:0.886227;"/>
    <path clip-path="url(#p7148304c3c)" d="M 184.609252 390.876219 
C 185.079312 390.876219 185.530183 390.689462 185.862566 390.35708 
C 186.194949 390.024697 186.381706 389.573826 186.381706 389.103765 
C 186.381706 388.633705 186.194949 388.182834 185.862566 387.850451 
C 185.530183 387.518068 185.079312 387.331312 184.609252 387.331312 
C 184.139192 387.331312 183.688321 387.518068 183.355938 387.850451 
C 183.023555 388.182834 182.836798 388.633705 182.836798 389.103765 
C 182.836798 389.573826 183.023555 390.024697 183.355938 390.35708 
C 183.688321 390.689462 184.139192 390.876219 184.609252 390.876219 
z
" style="stroke:#000000;stroke-width:0.886227;"/>
    <path clip-path="url(#p7148304c3c)" d="M 206.630394 376.155985 
C 207.100454 376.155985 207.551325 375.969228 207.883708 375.636845 
C 208.216091 375.304462 208.402847 374.853591 208.402847 374.383531 
C 208.402847 373.913471 208.216091 373.462599 207.883708 373.130217 
C 207.551325 372.797834 207.100454 372.611077 206.630394 372.611077 
C 206.160333 372.611077 205.709462 372.797834 205.377079 373.130217 
C 205.044697 373.462599 204.85794 373.913471 204.85794 374.383531 
C 204.85794 374.853591 205.044697 375.304462 205.377079 375.636845 
C 205.709462 375.969228 206.160333 376.155985 206.630394 376.155985 
z
" style="stroke:#000000;stroke-width:0.886227;"/>
    <path clip-path="url(#p7148304c3c)" d="M 228.651535 376.003277 
C 229.121596 376.003277 229.572467 375.816521 229.904849 375.484138 
C 230.237232 375.151755 230.423989 374.700884 230.423989 374.230824 
C 230.423989 373.760763 230.237232 373.309892 229.904849 372.97751 
C 229.572467 372.645127 229.121596 372.45837 228.651535 372.45837 
C 228.181475 372.45837 227.730604 372.645127 227.398221 372.97751 
C 227.065838 373.309892 226.879081 373.760763 226.879081 374.230824 
C 226.879081 374.700884 227.065838 375.151755 227.398221 375.484138 
C 227.730604 375.816521 228.181475 376.003277 228.651535 376.003277 
z
" style="stroke:#000000;stroke-width:0.886227;"/>
    <path clip-path="url(#p7148304c3c)" d="M 250.672677 380.271727 
C 251.142737 380.271727 251.593608 380.08497 251.925991 379.752587 
C 252.258374 379.420205 252.445131 378.969333 252.445131 378.499273 
C 252.445131 378.029213 252.258374 377.578342 251.925991 377.245959 
C 251.593608 376.913576 251.142737 376.726819 250.672677 376.726819 
C 250.202617 376.726819 249.751746 376.913576 249.419363 377.245959 
C 249.08698 377.578342 248.900223 378.029213 248.900223 378.499273 
C 248.900223 378.969333 249.08698 379.420205 249.419363 379.752587 
C 249.751746 380.08497 250.202617 380.271727 250.672677 380.271727 
z
" style="stroke:#000000;stroke-width:0.886227;"/>
    <path clip-path="url(#p7148304c3c)" d="M 272.693819 353.983521 
C 273.163879 353.983521 273.61475 353.796764 273.947133 353.464381 
C 274.279516 353.131999 274.466272 352.681127 274.466272 352.211067 
C 274.466272 351.741007 274.279516 351.290136 273.947133 350.957753 
C 273.61475 350.62537 273.163879 350.438613 272.693819 350.438613 
C 272.223758 350.438613 271.772887 350.62537 271.440504 350.957753 
C 271.108122 351.290136 270.921365 351.741007 270.921365 352.211067 
C 270.921365 352.681127 271.108122 353.131999 271.440504 353.464381 
C 271.772887 353.796764 272.223758 353.983521 272.693819 353.983521 
z
" style="stroke:#000000;stroke-width:0.886227;"/>
    <path clip-path="url(#p7148304c3c)" d="M 294.71496 377.881876 
C 295.18502 377.881876 295.635892 377.695119 295.968274 377.362736 
C 296.300657 377.030353 296.487414 376.579482 296.487414 376.109422 
C 296.487414 375.639362 296.300657 375.18849 295.968274 374.856108 
C 295.635892 374.523725 295.18502 374.336968 294.71496 374.336968 
C 294.2449 374.336968 293.794029 374.523725 293.461646 374.856108 
C 293.129263 375.18849 292.942506 375.639362 292.942506 376.109422 
C 292.942506 376.579482 293.129263 377.030353 293.461646 377.362736 
C 293.794029 377.695119 294.2449 377.881876 294.71496 377.881876 
z
" style="stroke:#000000;stroke-width:0.886227;"/>
    <path clip-path="url(#p7148304c3c)" d="M 316.736102 363.818312 
C 317.206162 363.818312 317.657033 363.631555 317.989416 363.299172 
C 318.321799 362.966789 318.508556 362.515918 318.508556 362.045858 
C 318.508556 361.575798 318.321799 361.124927 317.989416 360.792544 
C 317.657033 360.460161 317.206162 360.273404 316.736102 360.273404 
C 316.266042 360.273404 315.815171 360.460161 315.482788 360.792544 
C 315.150405 361.124927 314.963648 361.575798 314.963648 362.045858 
C 314.963648 362.515918 315.150405 362.966789 315.482788 363.299172 
C 315.815171 363.631555 316.266042 363.818312 316.736102 363.818312 
z
" style="stroke:#000000;stroke-width:0.886227;"/>
    <path clip-path="url(#p7148304c3c)" d="M 338.757244 368.632856 
C 339.227304 368.632856 339.678175 368.446099 340.010558 368.113716 
C 340.34294 367.781333 340.529697 367.330462 340.529697 366.860402 
C 340.529697 366.390342 340.34294 365.93947 340.010558 365.607088 
C 339.678175 365.274705 339.227304 365.087948 338.757244 365.087948 
C 338.287183 365.087948 337.836312 365.274705 337.503929 365.607088 
C 337.171547 365.93947 336.98479 366.390342 336.98479 366.860402 
C 336.98479 367.330462 337.171547 367.781333 337.503929 368.113716 
C 337.836312 368.446099 338.287183 368.632856 338.757244 368.632856 
z
" style="stroke:#000000;stroke-width:0.886227;"/>
    <path clip-path="url(#p7148304c3c)" d="M 360.778385 349.557987 
C 361.248445 349.557987 361.699317 349.37123 362.031699 349.038847 
C 362.364082 348.706465 362.550839 348.255593 362.550839 347.785533 
C 362.550839 347.315473 362.364082 346.864602 362.031699 346.532219 
C 361.699317 346.199836 361.248445 346.013079 360.778385 346.013079 
C 360.308325 346.013079 359.857454 346.199836 359.525071 346.532219 
C 359.192688 346.864602 359.005931 347.315473 359.005931 347.785533 
C 359.005931 348.255593 359.192688 348.706465 359.525071 349.038847 
C 359.857454 349.37123 360.308325 349.557987 360.778385 349.557987 
z
" style="stroke:#000000;stroke-width:0.886227;"/>
    <path clip-path="url(#p7148304c3c)" d="M 382.799527 304.420448 
C 383.269587 304.420448 383.720458 304.233691 384.052841 303.901308 
C 384.385224 303.568925 384.571981 303.118054 384.571981 302.647994 
C 384.571981 302.177934 384.385224 301.727063 384.052841 301.39468 
C 383.720458 301.062297 383.269587 300.87554 382.799527 300.87554 
C 382.329467 300.87554 381.878595 301.062297 381.546213 301.39468 
C 381.21383 301.727063 381.027073 302.177934 381.027073 302.647994 
C 381.027073 303.118054 381.21383 303.568925 381.546213 303.901308 
C 381.878595 304.233691 382.329467 304.420448 382.799527 304.420448 
z
" style="stroke:#000000;stroke-width:0.886227;"/>
    <path clip-path="url(#p7148304c3c)" d="M 404.820668 326.012553 
C 405.290729 326.012553 405.7416 325.825797 406.073983 325.493414 
C 406.406365 325.161031 406.593122 324.71016 406.593122 324.2401 
C 406.593122 323.770039 406.406365 323.319168 406.073983 322.986785 
C 405.7416 322.654403 405.290729 322.467646 404.820668 322.467646 
C 404.350608 322.467646 403.899737 322.654403 403.567354 322.986785 
C 403.234972 323.319168 403.048215 323.770039 403.048215 324.2401 
C 403.048215 324.71016 403.234972 325.161031 403.567354 325.493414 
C 403.899737 325.825797 404.350608 326.012553 404.820668 326.012553 
z
" style="stroke:#000000;stroke-width:0.886227;"/>
   </g>
   <g id="patch_7">
    <path d="M 57.987688 253.674082 
L 421.336525 253.674082 
L 421.336525 238.63 
L 57.987688 238.63 
z
" style="fill:#d9d9d9;"/>
   </g>
   <g id="PolyCollection_3">
    <path clip-path="url(#p7148304c3c)" d="M 74.503544 327.705237 
L 74.503544 445.568608 
L 96.524685 452.464583 
L 118.545827 456.123628 
L 140.566969 443.849862 
L 162.58811 432.139565 
L 184.609252 442.460979 
L 206.630394 418.39271 
L 228.651535 429.850707 
L 250.672677 429.135171 
L 272.693819 399.860948 
L 294.71496 439.875787 
L 316.736102 409.426779 
L 338.757244 419.30035 
L 360.778385 402.41726 
L 382.799527 341.981451 
L 404.820668 371.539676 
L 404.820668 276.940524 
L 404.820668 276.940524 
L 382.799527 263.314537 
L 360.778385 293.153807 
L 338.757244 314.420454 
L 316.736102 314.664936 
L 294.71496 312.343056 
L 272.693819 304.561186 
L 250.672677 327.863375 
L 228.651535 318.610941 
L 206.630394 330.374351 
L 184.609252 335.746552 
L 162.58811 335.650074 
L 140.566969 343.284344 
L 118.545827 341.230175 
L 96.524685 338.922674 
L 74.503544 327.705237 
z
" style="fill:#333333;fill-opacity:0.501961;"/>
   </g>
   <g id="text_18">
    <!-- F1 score: &lt;=50K -->
    <g style="fill:#1a1a1a;" transform="translate(202.373481 248.580291)scale(0.088 -0.088)">
     <defs>
      <path d="M 628 4666 
L 3309 4666 
L 3309 4134 
L 1259 4134 
L 1259 2759 
L 3109 2759 
L 3109 2228 
L 1259 2228 
L 1259 0 
L 628 0 
L 628 4666 
z
" id="DejaVuSans-46" transform="scale(0.015625)"/>
      <path d="M 794 531 
L 1825 531 
L 1825 4091 
L 703 3866 
L 703 4441 
L 1819 4666 
L 2450 4666 
L 2450 531 
L 3481 531 
L 3481 0 
L 794 0 
L 794 531 
z
" id="DejaVuSans-31" transform="scale(0.015625)"/>
      <path id="DejaVuSans-20" transform="scale(0.015625)"/>
      <path d="M 2834 3397 
L 2834 2853 
Q 2591 2978 2328 3040 
Q 2066 3103 1784 3103 
Q 1356 3103 1142 2972 
Q 928 2841 928 2578 
Q 928 2378 1081 2264 
Q 1234 2150 1697 2047 
L 1894 2003 
Q 2506 1872 2764 1633 
Q 3022 1394 3022 966 
Q 3022 478 2636 193 
Q 2250 -91 1575 -91 
Q 1294 -91 989 -36 
Q 684 19 347 128 
L 347 722 
Q 666 556 975 473 
Q 1284 391 1588 391 
Q 1994 391 2212 530 
Q 2431 669 2431 922 
Q 2431 1156 2273 1281 
Q 2116 1406 1581 1522 
L 1381 1569 
Q 847 1681 609 1914 
Q 372 2147 372 2553 
Q 372 3047 722 3315 
Q 1072 3584 1716 3584 
Q 2034 3584 2315 3537 
Q 2597 3491 2834 3397 
z
" id="DejaVuSans-73" transform="scale(0.015625)"/>
      <path d="M 1959 3097 
Q 1497 3097 1228 2736 
Q 959 2375 959 1747 
Q 959 1119 1226 758 
Q 1494 397 1959 397 
Q 2419 397 2687 759 
Q 2956 1122 2956 1747 
Q 2956 2369 2687 2733 
Q 2419 3097 1959 3097 
z
M 1959 3584 
Q 2709 3584 3137 3096 
Q 3566 2609 3566 1747 
Q 3566 888 3137 398 
Q 2709 -91 1959 -91 
Q 1206 -91 779 398 
Q 353 888 353 1747 
Q 353 2609 779 3096 
Q 1206 3584 1959 3584 
z
" id="DejaVuSans-6f" transform="scale(0.015625)"/>
      <path d="M 750 794 
L 1409 794 
L 1409 0 
L 750 0 
L 750 794 
z
M 750 3309 
L 1409 3309 
L 1409 2516 
L 750 2516 
L 750 3309 
z
" id="DejaVuSans-3a" transform="scale(0.015625)"/>
      <path d="M 4684 3150 
L 1459 2003 
L 4684 863 
L 4684 294 
L 678 1747 
L 678 2266 
L 4684 3719 
L 4684 3150 
z
" id="DejaVuSans-3c" transform="scale(0.015625)"/>
      <path d="M 678 2906 
L 4684 2906 
L 4684 2381 
L 678 2381 
L 678 2906 
z
M 678 1631 
L 4684 1631 
L 4684 1100 
L 678 1100 
L 678 1631 
z
" id="DejaVuSans-3d" transform="scale(0.015625)"/>
      <path d="M 628 4666 
L 1259 4666 
L 1259 2694 
L 3353 4666 
L 4166 4666 
L 1850 2491 
L 4331 0 
L 3500 0 
L 1259 2247 
L 1259 0 
L 628 0 
L 628 4666 
z
" id="DejaVuSans-4b" transform="scale(0.015625)"/>
     </defs>
     <use xlink:href="#DejaVuSans-46"/>
     <use x="57.519531" xlink:href="#DejaVuSans-31"/>
     <use x="121.142578" xlink:href="#DejaVuSans-20"/>
     <use x="152.929688" xlink:href="#DejaVuSans-73"/>
     <use x="205.029297" xlink:href="#DejaVuSans-63"/>
     <use x="260.009766" xlink:href="#DejaVuSans-6f"/>
     <use x="321.191406" xlink:href="#DejaVuSans-72"/>
     <use x="360.054688" xlink:href="#DejaVuSans-65"/>
     <use x="421.578125" xlink:href="#DejaVuSans-3a"/>
     <use x="455.269531" xlink:href="#DejaVuSans-20"/>
     <use x="487.056641" xlink:href="#DejaVuSans-3c"/>
     <use x="570.845703" xlink:href="#DejaVuSans-3d"/>
     <use x="654.634766" xlink:href="#DejaVuSans-35"/>
     <use x="718.257812" xlink:href="#DejaVuSans-30"/>
     <use x="781.880859" xlink:href="#DejaVuSans-4b"/>
    </g>
   </g>
  </g>
  <g id="axes_4">
   <g id="patch_8">
    <path d="M 475.83885 465.764082 
L 839.187688 465.764082 
L 839.187688 253.674082 
L 475.83885 253.674082 
z
" style="fill:#ebebeb;"/>
   </g>
   <g id="matplotlib.axis_7">
    <g id="xtick_25">
     <g id="line2d_64">
      <path clip-path="url(#p920feb0cb3)" d="M 492.354707 465.764082 
L 492.354707 253.674082 
" style="fill:none;stroke:#ffffff;stroke-linecap:square;"/>
     </g>
     <g id="line2d_65">
      <path d="M 492.354707 465.764082 
" style="fill:none;stroke:#333333;stroke-linecap:square;stroke-width:1.5;"/>
      <g>
       <use style="fill:#333333;stroke:#000000;" x="492.354707" xlink:href="#maa8cb137bb" y="465.764082"/>
      </g>
     </g>
     <g id="text_19">
      <!-- 0 -->
      <g style="fill:#4d4d4d;" transform="translate(489.555207 477.400707)scale(0.088 -0.088)">
       <use xlink:href="#DejaVuSans-30"/>
      </g>
     </g>
    </g>
    <g id="xtick_26">
     <g id="line2d_66">
      <path clip-path="url(#p920feb0cb3)" d="M 580.439273 465.764082 
L 580.439273 253.674082 
" style="fill:none;stroke:#ffffff;stroke-linecap:square;"/>
     </g>
     <g id="line2d_67">
      <path d="M 580.439273 465.764082 
" style="fill:none;stroke:#333333;stroke-linecap:square;stroke-width:1.5;"/>
      <g>
       <use style="fill:#333333;stroke:#000000;" x="580.439273" xlink:href="#maa8cb137bb" y="465.764082"/>
      </g>
     </g>
     <g id="text_20">
      <!-- 0.2 -->
      <g style="fill:#4d4d4d;" transform="translate(573.441898 477.400707)scale(0.088 -0.088)">
       <use xlink:href="#DejaVuSans-30"/>
       <use x="63.623047" xlink:href="#DejaVuSans-2e"/>
       <use x="95.410156" xlink:href="#DejaVuSans-32"/>
      </g>
     </g>
    </g>
    <g id="xtick_27">
     <g id="line2d_68">
      <path clip-path="url(#p920feb0cb3)" d="M 668.52384 465.764082 
L 668.52384 253.674082 
" style="fill:none;stroke:#ffffff;stroke-linecap:square;"/>
     </g>
     <g id="line2d_69">
      <path d="M 668.52384 465.764082 
" style="fill:none;stroke:#333333;stroke-linecap:square;stroke-width:1.5;"/>
      <g>
       <use style="fill:#333333;stroke:#000000;" x="668.52384" xlink:href="#maa8cb137bb" y="465.764082"/>
      </g>
     </g>
     <g id="text_21">
      <!-- 0.4 -->
      <g style="fill:#4d4d4d;" transform="translate(661.526465 477.400707)scale(0.088 -0.088)">
       <use xlink:href="#DejaVuSans-30"/>
       <use x="63.623047" xlink:href="#DejaVuSans-2e"/>
       <use x="95.410156" xlink:href="#DejaVuSans-34"/>
      </g>
     </g>
    </g>
    <g id="xtick_28">
     <g id="line2d_70">
      <path clip-path="url(#p920feb0cb3)" d="M 756.608406 465.764082 
L 756.608406 253.674082 
" style="fill:none;stroke:#ffffff;stroke-linecap:square;"/>
     </g>
     <g id="line2d_71">
      <path d="M 756.608406 465.764082 
" style="fill:none;stroke:#333333;stroke-linecap:square;stroke-width:1.5;"/>
      <g>
       <use style="fill:#333333;stroke:#000000;" x="756.608406" xlink:href="#maa8cb137bb" y="465.764082"/>
      </g>
     </g>
     <g id="text_22">
      <!-- 0.6 -->
      <g style="fill:#4d4d4d;" transform="translate(749.611031 477.400707)scale(0.088 -0.088)">
       <use xlink:href="#DejaVuSans-30"/>
       <use x="63.623047" xlink:href="#DejaVuSans-2e"/>
       <use x="95.410156" xlink:href="#DejaVuSans-36"/>
      </g>
     </g>
    </g>
    <g id="xtick_29">
     <g id="line2d_72">
      <path clip-path="url(#p920feb0cb3)" d="M 536.39699 465.764082 
L 536.39699 253.674082 
" style="fill:none;stroke:#ffffff;stroke-linecap:square;stroke-width:0.5;"/>
     </g>
    </g>
    <g id="xtick_30">
     <g id="line2d_73">
      <path clip-path="url(#p920feb0cb3)" d="M 624.481556 465.764082 
L 624.481556 253.674082 
" style="fill:none;stroke:#ffffff;stroke-linecap:square;stroke-width:0.5;"/>
     </g>
    </g>
    <g id="xtick_31">
     <g id="line2d_74">
      <path clip-path="url(#p920feb0cb3)" d="M 712.566123 465.764082 
L 712.566123 253.674082 
" style="fill:none;stroke:#ffffff;stroke-linecap:square;stroke-width:0.5;"/>
     </g>
    </g>
    <g id="xtick_32">
     <g id="line2d_75">
      <path clip-path="url(#p920feb0cb3)" d="M 800.65069 465.764082 
L 800.65069 253.674082 
" style="fill:none;stroke:#ffffff;stroke-linecap:square;stroke-width:0.5;"/>
     </g>
    </g>
    <g id="text_23">
     <!-- Qtr spread 300 epochs -->
     <g transform="translate(373.142453 491.989114)scale(0.11 -0.11)">
      <defs>
       <path d="M 2522 4238 
Q 1834 4238 1429 3725 
Q 1025 3213 1025 2328 
Q 1025 1447 1429 934 
Q 1834 422 2522 422 
Q 3209 422 3611 934 
Q 4013 1447 4013 2328 
Q 4013 3213 3611 3725 
Q 3209 4238 2522 4238 
z
M 3406 84 
L 4238 -825 
L 3475 -825 
L 2784 -78 
Q 2681 -84 2626 -87 
Q 2572 -91 2522 -91 
Q 1538 -91 948 567 
Q 359 1225 359 2328 
Q 359 3434 948 4092 
Q 1538 4750 2522 4750 
Q 3503 4750 4090 4092 
Q 4678 3434 4678 2328 
Q 4678 1516 4351 937 
Q 4025 359 3406 84 
z
" id="DejaVuSans-51" transform="scale(0.015625)"/>
       <path d="M 1172 4494 
L 1172 3500 
L 2356 3500 
L 2356 3053 
L 1172 3053 
L 1172 1153 
Q 1172 725 1289 603 
Q 1406 481 1766 481 
L 2356 481 
L 2356 0 
L 1766 0 
Q 1100 0 847 248 
Q 594 497 594 1153 
L 594 3053 
L 172 3053 
L 172 3500 
L 594 3500 
L 594 4494 
L 1172 4494 
z
" id="DejaVuSans-74" transform="scale(0.015625)"/>
       <path d="M 1159 525 
L 1159 -1331 
L 581 -1331 
L 581 3500 
L 1159 3500 
L 1159 2969 
Q 1341 3281 1617 3432 
Q 1894 3584 2278 3584 
Q 2916 3584 3314 3078 
Q 3713 2572 3713 1747 
Q 3713 922 3314 415 
Q 2916 -91 2278 -91 
Q 1894 -91 1617 61 
Q 1341 213 1159 525 
z
M 3116 1747 
Q 3116 2381 2855 2742 
Q 2594 3103 2138 3103 
Q 1681 3103 1420 2742 
Q 1159 2381 1159 1747 
Q 1159 1113 1420 752 
Q 1681 391 2138 391 
Q 2594 391 2855 752 
Q 3116 1113 3116 1747 
z
" id="DejaVuSans-70" transform="scale(0.015625)"/>
       <path d="M 2906 2969 
L 2906 4863 
L 3481 4863 
L 3481 0 
L 2906 0 
L 2906 525 
Q 2725 213 2448 61 
Q 2172 -91 1784 -91 
Q 1150 -91 751 415 
Q 353 922 353 1747 
Q 353 2572 751 3078 
Q 1150 3584 1784 3584 
Q 2172 3584 2448 3432 
Q 2725 3281 2906 2969 
z
M 947 1747 
Q 947 1113 1208 752 
Q 1469 391 1925 391 
Q 2381 391 2643 752 
Q 2906 1113 2906 1747 
Q 2906 2381 2643 2742 
Q 2381 3103 1925 3103 
Q 1469 3103 1208 2742 
Q 947 2381 947 1747 
z
" id="DejaVuSans-64" transform="scale(0.015625)"/>
       <path d="M 3513 2113 
L 3513 0 
L 2938 0 
L 2938 2094 
Q 2938 2591 2744 2837 
Q 2550 3084 2163 3084 
Q 1697 3084 1428 2787 
Q 1159 2491 1159 1978 
L 1159 0 
L 581 0 
L 581 4863 
L 1159 4863 
L 1159 2956 
Q 1366 3272 1645 3428 
Q 1925 3584 2291 3584 
Q 2894 3584 3203 3211 
Q 3513 2838 3513 2113 
z
" id="DejaVuSans-68" transform="scale(0.015625)"/>
      </defs>
      <use xlink:href="#DejaVuSans-51"/>
      <use x="78.710938" xlink:href="#DejaVuSans-74"/>
      <use x="117.919922" xlink:href="#DejaVuSans-72"/>
      <use x="159.033203" xlink:href="#DejaVuSans-20"/>
      <use x="190.820312" xlink:href="#DejaVuSans-73"/>
      <use x="242.919922" xlink:href="#DejaVuSans-70"/>
      <use x="306.396484" xlink:href="#DejaVuSans-72"/>
      <use x="345.259766" xlink:href="#DejaVuSans-65"/>
      <use x="406.783203" xlink:href="#DejaVuSans-61"/>
      <use x="468.0625" xlink:href="#DejaVuSans-64"/>
      <use x="531.539062" xlink:href="#DejaVuSans-20"/>
      <use x="563.326172" xlink:href="#DejaVuSans-33"/>
      <use x="626.949219" xlink:href="#DejaVuSans-30"/>
      <use x="690.572266" xlink:href="#DejaVuSans-30"/>
      <use x="754.195312" xlink:href="#DejaVuSans-20"/>
      <use x="785.982422" xlink:href="#DejaVuSans-65"/>
      <use x="847.505859" xlink:href="#DejaVuSans-70"/>
      <use x="910.982422" xlink:href="#DejaVuSans-6f"/>
      <use x="972.164062" xlink:href="#DejaVuSans-63"/>
      <use x="1027.144531" xlink:href="#DejaVuSans-68"/>
      <use x="1090.523438" xlink:href="#DejaVuSans-73"/>
     </g>
    </g>
   </g>
   <g id="matplotlib.axis_8">
    <g id="ytick_23">
     <g id="line2d_76">
      <path clip-path="url(#p920feb0cb3)" d="M 475.83885 428.108266 
L 839.187688 428.108266 
" style="fill:none;stroke:#ffffff;stroke-linecap:square;"/>
     </g>
     <g id="line2d_77">
      <path d="M 475.83885 428.108266 
" style="fill:none;stroke:#333333;stroke-linecap:square;stroke-width:1.5;"/>
      <g>
       <use style="fill:#333333;stroke:#000000;" x="475.83885" xlink:href="#m814c5b486a" y="428.108266"/>
      </g>
     </g>
     <g id="text_24">
      <!-- 0.645 -->
      <g style="fill:#4d4d4d;" transform="translate(445.6961 430.536516)scale(0.088 -0.088)">
       <use xlink:href="#DejaVuSans-30"/>
       <use x="63.623047" xlink:href="#DejaVuSans-2e"/>
       <use x="95.410156" xlink:href="#DejaVuSans-36"/>
       <use x="159.033203" xlink:href="#DejaVuSans-34"/>
       <use x="222.65625" xlink:href="#DejaVuSans-35"/>
      </g>
     </g>
    </g>
    <g id="ytick_24">
     <g id="line2d_78">
      <path clip-path="url(#p920feb0cb3)" d="M 475.83885 374.574497 
L 839.187688 374.574497 
" style="fill:none;stroke:#ffffff;stroke-linecap:square;"/>
     </g>
     <g id="line2d_79">
      <path d="M 475.83885 374.574497 
" style="fill:none;stroke:#333333;stroke-linecap:square;stroke-width:1.5;"/>
      <g>
       <use style="fill:#333333;stroke:#000000;" x="475.83885" xlink:href="#m814c5b486a" y="374.574497"/>
      </g>
     </g>
     <g id="text_25">
      <!-- 0.650 -->
      <g style="fill:#4d4d4d;" transform="translate(445.6961 377.002747)scale(0.088 -0.088)">
       <use xlink:href="#DejaVuSans-30"/>
       <use x="63.623047" xlink:href="#DejaVuSans-2e"/>
       <use x="95.410156" xlink:href="#DejaVuSans-36"/>
       <use x="159.033203" xlink:href="#DejaVuSans-35"/>
       <use x="222.65625" xlink:href="#DejaVuSans-30"/>
      </g>
     </g>
    </g>
    <g id="ytick_25">
     <g id="line2d_80">
      <path clip-path="url(#p920feb0cb3)" d="M 475.83885 321.040729 
L 839.187688 321.040729 
" style="fill:none;stroke:#ffffff;stroke-linecap:square;"/>
     </g>
     <g id="line2d_81">
      <path d="M 475.83885 321.040729 
" style="fill:none;stroke:#333333;stroke-linecap:square;stroke-width:1.5;"/>
      <g>
       <use style="fill:#333333;stroke:#000000;" x="475.83885" xlink:href="#m814c5b486a" y="321.040729"/>
      </g>
     </g>
     <g id="text_26">
      <!-- 0.655 -->
      <g style="fill:#4d4d4d;" transform="translate(445.6961 323.468979)scale(0.088 -0.088)">
       <use xlink:href="#DejaVuSans-30"/>
       <use x="63.623047" xlink:href="#DejaVuSans-2e"/>
       <use x="95.410156" xlink:href="#DejaVuSans-36"/>
       <use x="159.033203" xlink:href="#DejaVuSans-35"/>
       <use x="222.65625" xlink:href="#DejaVuSans-35"/>
      </g>
     </g>
    </g>
    <g id="ytick_26">
     <g id="line2d_82">
      <path clip-path="url(#p920feb0cb3)" d="M 475.83885 267.50696 
L 839.187688 267.50696 
" style="fill:none;stroke:#ffffff;stroke-linecap:square;"/>
     </g>
     <g id="line2d_83">
      <path d="M 475.83885 267.50696 
" style="fill:none;stroke:#333333;stroke-linecap:square;stroke-width:1.5;"/>
      <g>
       <use style="fill:#333333;stroke:#000000;" x="475.83885" xlink:href="#m814c5b486a" y="267.50696"/>
      </g>
     </g>
     <g id="text_27">
      <!-- 0.660 -->
      <g style="fill:#4d4d4d;" transform="translate(445.6961 269.93521)scale(0.088 -0.088)">
       <use xlink:href="#DejaVuSans-30"/>
       <use x="63.623047" xlink:href="#DejaVuSans-2e"/>
       <use x="95.410156" xlink:href="#DejaVuSans-36"/>
       <use x="159.033203" xlink:href="#DejaVuSans-36"/>
       <use x="222.65625" xlink:href="#DejaVuSans-30"/>
      </g>
     </g>
    </g>
    <g id="ytick_27">
     <g id="line2d_84">
      <path clip-path="url(#p920feb0cb3)" d="M 475.83885 454.87515 
L 839.187688 454.87515 
" style="fill:none;stroke:#ffffff;stroke-linecap:square;stroke-width:0.5;"/>
     </g>
    </g>
    <g id="ytick_28">
     <g id="line2d_85">
      <path clip-path="url(#p920feb0cb3)" d="M 475.83885 401.341382 
L 839.187688 401.341382 
" style="fill:none;stroke:#ffffff;stroke-linecap:square;stroke-width:0.5;"/>
     </g>
    </g>
    <g id="ytick_29">
     <g id="line2d_86">
      <path clip-path="url(#p920feb0cb3)" d="M 475.83885 347.807613 
L 839.187688 347.807613 
" style="fill:none;stroke:#ffffff;stroke-linecap:square;stroke-width:0.5;"/>
     </g>
    </g>
    <g id="ytick_30">
     <g id="line2d_87">
      <path clip-path="url(#p920feb0cb3)" d="M 475.83885 294.273844 
L 839.187688 294.273844 
" style="fill:none;stroke:#ffffff;stroke-linecap:square;stroke-width:0.5;"/>
     </g>
    </g>
   </g>
   <g id="line2d_88">
    <path clip-path="url(#p920feb0cb3)" d="M 492.354707 365.529217 
L 514.375848 370.223231 
L 536.39699 337.658977 
L 558.418131 361.588658 
L 580.439273 354.525062 
L 602.460415 352.639705 
L 624.481556 379.925685 
L 646.502698 338.774508 
L 668.52384 353.304921 
L 690.544981 354.548602 
L 712.566123 333.453751 
L 734.587265 369.276428 
L 756.608406 336.204221 
L 778.629548 357.694839 
L 800.65069 349.159391 
L 822.671831 352.848852 
" style="fill:none;stroke:#000000;stroke-width:0.886227;"/>
   </g>
   <g id="PathCollection_4">
    <path clip-path="url(#p920feb0cb3)" d="M 492.354707 367.301671 
C 492.824767 367.301671 493.275638 367.114914 493.608021 366.782532 
C 493.940403 366.450149 494.12716 365.999278 494.12716 365.529217 
C 494.12716 365.059157 493.940403 364.608286 493.608021 364.275903 
C 493.275638 363.94352 492.824767 363.756764 492.354707 363.756764 
C 491.884646 363.756764 491.433775 363.94352 491.101392 364.275903 
C 490.76901 364.608286 490.582253 365.059157 490.582253 365.529217 
C 490.582253 365.999278 490.76901 366.450149 491.101392 366.782532 
C 491.433775 367.114914 491.884646 367.301671 492.354707 367.301671 
z
" style="stroke:#000000;stroke-width:0.886227;"/>
    <path clip-path="url(#p920feb0cb3)" d="M 514.375848 371.995685 
C 514.845908 371.995685 515.29678 371.808928 515.629162 371.476545 
C 515.961545 371.144162 516.148302 370.693291 516.148302 370.223231 
C 516.148302 369.753171 515.961545 369.3023 515.629162 368.969917 
C 515.29678 368.637534 514.845908 368.450777 514.375848 368.450777 
C 513.905788 368.450777 513.454917 368.637534 513.122534 368.969917 
C 512.790151 369.3023 512.603394 369.753171 512.603394 370.223231 
C 512.603394 370.693291 512.790151 371.144162 513.122534 371.476545 
C 513.454917 371.808928 513.905788 371.995685 514.375848 371.995685 
z
" style="stroke:#000000;stroke-width:0.886227;"/>
    <path clip-path="url(#p920feb0cb3)" d="M 536.39699 339.431431 
C 536.86705 339.431431 537.317921 339.244674 537.650304 338.912291 
C 537.982687 338.579908 538.169444 338.129037 538.169444 337.658977 
C 538.169444 337.188917 537.982687 336.738046 537.650304 336.405663 
C 537.317921 336.07328 536.86705 335.886523 536.39699 335.886523 
C 535.92693 335.886523 535.476058 336.07328 535.143676 336.405663 
C 534.811293 336.738046 534.624536 337.188917 534.624536 337.658977 
C 534.624536 338.129037 534.811293 338.579908 535.143676 338.912291 
C 535.476058 339.244674 535.92693 339.431431 536.39699 339.431431 
z
" style="stroke:#000000;stroke-width:0.886227;"/>
    <path clip-path="url(#p920feb0cb3)" d="M 558.418131 363.361112 
C 558.888192 363.361112 559.339063 363.174355 559.671446 362.841972 
C 560.003828 362.509589 560.190585 362.058718 560.190585 361.588658 
C 560.190585 361.118598 560.003828 360.667727 559.671446 360.335344 
C 559.339063 360.002961 558.888192 359.816204 558.418131 359.816204 
C 557.948071 359.816204 557.4972 360.002961 557.164817 360.335344 
C 556.832435 360.667727 556.645678 361.118598 556.645678 361.588658 
C 556.645678 362.058718 556.832435 362.509589 557.164817 362.841972 
C 557.4972 363.174355 557.948071 363.361112 558.418131 363.361112 
z
" style="stroke:#000000;stroke-width:0.886227;"/>
    <path clip-path="url(#p920feb0cb3)" d="M 580.439273 356.297516 
C 580.909333 356.297516 581.360204 356.110759 581.692587 355.778377 
C 582.02497 355.445994 582.211727 354.995123 582.211727 354.525062 
C 582.211727 354.055002 582.02497 353.604131 581.692587 353.271748 
C 581.360204 352.939366 580.909333 352.752609 580.439273 352.752609 
C 579.969213 352.752609 579.518342 352.939366 579.185959 353.271748 
C 578.853576 353.604131 578.666819 354.055002 578.666819 354.525062 
C 578.666819 354.995123 578.853576 355.445994 579.185959 355.778377 
C 579.518342 356.110759 579.969213 356.297516 580.439273 356.297516 
z
" style="stroke:#000000;stroke-width:0.886227;"/>
    <path clip-path="url(#p920feb0cb3)" d="M 602.460415 354.412159 
C 602.930475 354.412159 603.381346 354.225402 603.713729 353.893019 
C 604.046112 353.560636 604.232869 353.109765 604.232869 352.639705 
C 604.232869 352.169645 604.046112 351.718774 603.713729 351.386391 
C 603.381346 351.054008 602.930475 350.867251 602.460415 350.867251 
C 601.990355 350.867251 601.539483 351.054008 601.207101 351.386391 
C 600.874718 351.718774 600.687961 352.169645 600.687961 352.639705 
C 600.687961 353.109765 600.874718 353.560636 601.207101 353.893019 
C 601.539483 354.225402 601.990355 354.412159 602.460415 354.412159 
z
" style="stroke:#000000;stroke-width:0.886227;"/>
    <path clip-path="url(#p920feb0cb3)" d="M 624.481556 381.698139 
C 624.951617 381.698139 625.402488 381.511382 625.734871 381.178999 
C 626.067253 380.846616 626.25401 380.395745 626.25401 379.925685 
C 626.25401 379.455625 626.067253 379.004753 625.734871 378.672371 
C 625.402488 378.339988 624.951617 378.153231 624.481556 378.153231 
C 624.011496 378.153231 623.560625 378.339988 623.228242 378.672371 
C 622.895859 379.004753 622.709103 379.455625 622.709103 379.925685 
C 622.709103 380.395745 622.895859 380.846616 623.228242 381.178999 
C 623.560625 381.511382 624.011496 381.698139 624.481556 381.698139 
z
" style="stroke:#000000;stroke-width:0.886227;"/>
    <path clip-path="url(#p920feb0cb3)" d="M 646.502698 340.546962 
C 646.972758 340.546962 647.423629 340.360205 647.756012 340.027822 
C 648.088395 339.69544 648.275152 339.244568 648.275152 338.774508 
C 648.275152 338.304448 648.088395 337.853577 647.756012 337.521194 
C 647.423629 337.188811 646.972758 337.002054 646.502698 337.002054 
C 646.032638 337.002054 645.581767 337.188811 645.249384 337.521194 
C 644.917001 337.853577 644.730244 338.304448 644.730244 338.774508 
C 644.730244 339.244568 644.917001 339.69544 645.249384 340.027822 
C 645.581767 340.360205 646.032638 340.546962 646.502698 340.546962 
z
" style="stroke:#000000;stroke-width:0.886227;"/>
    <path clip-path="url(#p920feb0cb3)" d="M 668.52384 355.077375 
C 668.9939 355.077375 669.444771 354.890618 669.777154 354.558235 
C 670.109537 354.225853 670.296294 353.774981 670.296294 353.304921 
C 670.296294 352.834861 670.109537 352.38399 669.777154 352.051607 
C 669.444771 351.719224 668.9939 351.532467 668.52384 351.532467 
C 668.053779 351.532467 667.602908 351.719224 667.270526 352.051607 
C 666.938143 352.38399 666.751386 352.834861 666.751386 353.304921 
C 666.751386 353.774981 666.938143 354.225853 667.270526 354.558235 
C 667.602908 354.890618 668.053779 355.077375 668.52384 355.077375 
z
" style="stroke:#000000;stroke-width:0.886227;"/>
    <path clip-path="url(#p920feb0cb3)" d="M 690.544981 356.321055 
C 691.015042 356.321055 691.465913 356.134299 691.798296 355.801916 
C 692.130678 355.469533 692.317435 355.018662 692.317435 354.548602 
C 692.317435 354.078541 692.130678 353.62767 691.798296 353.295287 
C 691.465913 352.962905 691.015042 352.776148 690.544981 352.776148 
C 690.074921 352.776148 689.62405 352.962905 689.291667 353.295287 
C 688.959284 353.62767 688.772528 354.078541 688.772528 354.548602 
C 688.772528 355.018662 688.959284 355.469533 689.291667 355.801916 
C 689.62405 356.134299 690.074921 356.321055 690.544981 356.321055 
z
" style="stroke:#000000;stroke-width:0.886227;"/>
    <path clip-path="url(#p920feb0cb3)" d="M 712.566123 335.226205 
C 713.036183 335.226205 713.487054 335.039448 713.819437 334.707065 
C 714.15182 334.374683 714.338577 333.923811 714.338577 333.453751 
C 714.338577 332.983691 714.15182 332.53282 713.819437 332.200437 
C 713.487054 331.868054 713.036183 331.681297 712.566123 331.681297 
C 712.096063 331.681297 711.645192 331.868054 711.312809 332.200437 
C 710.980426 332.53282 710.793669 332.983691 710.793669 333.453751 
C 710.793669 333.923811 710.980426 334.374683 711.312809 334.707065 
C 711.645192 335.039448 712.096063 335.226205 712.566123 335.226205 
z
" style="stroke:#000000;stroke-width:0.886227;"/>
    <path clip-path="url(#p920feb0cb3)" d="M 734.587265 371.048882 
C 735.057325 371.048882 735.508196 370.862125 735.840579 370.529743 
C 736.172962 370.19736 736.359719 369.746489 736.359719 369.276428 
C 736.359719 368.806368 736.172962 368.355497 735.840579 368.023114 
C 735.508196 367.690731 735.057325 367.503975 734.587265 367.503975 
C 734.117204 367.503975 733.666333 367.690731 733.333951 368.023114 
C 733.001568 368.355497 732.814811 368.806368 732.814811 369.276428 
C 732.814811 369.746489 733.001568 370.19736 733.333951 370.529743 
C 733.666333 370.862125 734.117204 371.048882 734.587265 371.048882 
z
" style="stroke:#000000;stroke-width:0.886227;"/>
    <path clip-path="url(#p920feb0cb3)" d="M 756.608406 337.976675 
C 757.078467 337.976675 757.529338 337.789918 757.86172 337.457536 
C 758.194103 337.125153 758.38086 336.674282 758.38086 336.204221 
C 758.38086 335.734161 758.194103 335.28329 757.86172 334.950907 
C 757.529338 334.618524 757.078467 334.431768 756.608406 334.431768 
C 756.138346 334.431768 755.687475 334.618524 755.355092 334.950907 
C 755.022709 335.28329 754.835952 335.734161 754.835952 336.204221 
C 754.835952 336.674282 755.022709 337.125153 755.355092 337.457536 
C 755.687475 337.789918 756.138346 337.976675 756.608406 337.976675 
z
" style="stroke:#000000;stroke-width:0.886227;"/>
    <path clip-path="url(#p920feb0cb3)" d="M 778.629548 359.467293 
C 779.099608 359.467293 779.550479 359.280536 779.882862 358.948153 
C 780.215245 358.615771 780.402002 358.164899 780.402002 357.694839 
C 780.402002 357.224779 780.215245 356.773908 779.882862 356.441525 
C 779.550479 356.109142 779.099608 355.922385 778.629548 355.922385 
C 778.159488 355.922385 777.708617 356.109142 777.376234 356.441525 
C 777.043851 356.773908 776.857094 357.224779 776.857094 357.694839 
C 776.857094 358.164899 777.043851 358.615771 777.376234 358.948153 
C 777.708617 359.280536 778.159488 359.467293 778.629548 359.467293 
z
" style="stroke:#000000;stroke-width:0.886227;"/>
    <path clip-path="url(#p920feb0cb3)" d="M 800.65069 350.931845 
C 801.12075 350.931845 801.571621 350.745088 801.904004 350.412705 
C 802.236387 350.080323 802.423143 349.629452 802.423143 349.159391 
C 802.423143 348.689331 802.236387 348.23846 801.904004 347.906077 
C 801.571621 347.573694 801.12075 347.386937 800.65069 347.386937 
C 800.180629 347.386937 799.729758 347.573694 799.397375 347.906077 
C 799.064993 348.23846 798.878236 348.689331 798.878236 349.159391 
C 798.878236 349.629452 799.064993 350.080323 799.397375 350.412705 
C 799.729758 350.745088 800.180629 350.931845 800.65069 350.931845 
z
" style="stroke:#000000;stroke-width:0.886227;"/>
    <path clip-path="url(#p920feb0cb3)" d="M 822.671831 354.621306 
C 823.141892 354.621306 823.592763 354.434549 823.925145 354.102166 
C 824.257528 353.769784 824.444285 353.318913 824.444285 352.848852 
C 824.444285 352.378792 824.257528 351.927921 823.925145 351.595538 
C 823.592763 351.263155 823.141892 351.076398 822.671831 351.076398 
C 822.201771 351.076398 821.7509 351.263155 821.418517 351.595538 
C 821.086134 351.927921 820.899377 352.378792 820.899377 352.848852 
C 820.899377 353.318913 821.086134 353.769784 821.418517 354.102166 
C 821.7509 354.434549 822.201771 354.621306 822.671831 354.621306 
z
" style="stroke:#000000;stroke-width:0.886227;"/>
   </g>
   <g id="patch_9">
    <path d="M 475.83885 253.674082 
L 839.187688 253.674082 
L 839.187688 238.63 
L 475.83885 238.63 
z
" style="fill:#d9d9d9;"/>
   </g>
   <g id="PolyCollection_4">
    <path clip-path="url(#p920feb0cb3)" d="M 492.354707 274.934807 
L 492.354707 456.123628 
L 514.375848 420.085475 
L 536.39699 399.113018 
L 558.418131 425.975425 
L 580.439273 410.639031 
L 602.460415 423.202091 
L 624.481556 441.527003 
L 646.502698 405.558127 
L 668.52384 415.660184 
L 690.544981 424.818769 
L 712.566123 401.922168 
L 734.587265 434.170829 
L 756.608406 409.093906 
L 778.629548 419.004937 
L 800.65069 405.184902 
L 822.671831 418.987659 
L 822.671831 286.710045 
L 822.671831 286.710045 
L 800.65069 293.13388 
L 778.629548 296.384741 
L 756.608406 263.314537 
L 734.587265 304.382028 
L 712.566123 264.985334 
L 690.544981 284.278434 
L 668.52384 290.949658 
L 646.502698 271.990889 
L 624.481556 318.324367 
L 602.460415 282.077319 
L 580.439273 298.411094 
L 558.418131 297.201891 
L 536.39699 276.204936 
L 514.375848 320.360987 
L 492.354707 274.934807 
z
" style="fill:#333333;fill-opacity:0.501961;"/>
   </g>
   <g id="text_28">
    <!-- F1 score: &gt;50K -->
    <g style="fill:#1a1a1a;" transform="translate(623.911706 248.580291)scale(0.088 -0.088)">
     <defs>
      <path d="M 678 3150 
L 678 3719 
L 4684 2266 
L 4684 1747 
L 678 294 
L 678 863 
L 3897 2003 
L 678 3150 
z
" id="DejaVuSans-3e" transform="scale(0.015625)"/>
     </defs>
     <use xlink:href="#DejaVuSans-46"/>
     <use x="57.519531" xlink:href="#DejaVuSans-31"/>
     <use x="121.142578" xlink:href="#DejaVuSans-20"/>
     <use x="152.929688" xlink:href="#DejaVuSans-73"/>
     <use x="205.029297" xlink:href="#DejaVuSans-63"/>
     <use x="260.009766" xlink:href="#DejaVuSans-6f"/>
     <use x="321.191406" xlink:href="#DejaVuSans-72"/>
     <use x="360.054688" xlink:href="#DejaVuSans-65"/>
     <use x="421.578125" xlink:href="#DejaVuSans-3a"/>
     <use x="455.269531" xlink:href="#DejaVuSans-20"/>
     <use x="487.056641" xlink:href="#DejaVuSans-3e"/>
     <use x="570.845703" xlink:href="#DejaVuSans-35"/>
     <use x="634.46875" xlink:href="#DejaVuSans-30"/>
     <use x="698.091797" xlink:href="#DejaVuSans-4b"/>
    </g>
   </g>
  </g>
 </g>
 <defs>
  <clipPath id="p207a7f027e">
   <rect height="212.09" width="363.348837" x="57.987688" y="22.244082"/>
  </clipPath>
  <clipPath id="pe985e46a91">
   <rect height="212.09" width="363.348837" x="475.83885" y="22.244082"/>
  </clipPath>
  <clipPath id="p7148304c3c">
   <rect height="212.09" width="363.348837" x="57.987688" y="253.674082"/>
  </clipPath>
  <clipPath id="p920feb0cb3">
   <rect height="212.09" width="363.348837" x="475.83885" y="253.674082"/>
  </clipPath>
 </defs>
</svg>
