<?xml version="1.0" encoding="utf-8" standalone="no"?>
<!DOCTYPE svg PUBLIC "-//W3C//DTD SVG 1.1//EN"
  "http://www.w3.org/Graphics/SVG/1.1/DTD/svg11.dtd">
<svg height="501.47677pt" version="1.1" viewBox="0 0 840.788688 501.47677" width="840.788688pt" xmlns="http://www.w3.org/2000/svg" xmlns:xlink="http://www.w3.org/1999/xlink">
 <metadata>
  <rdf:RDF xmlns:cc="http://creativecommons.org/ns#" xmlns:dc="http://purl.org/dc/elements/1.1/" xmlns:rdf="http://www.w3.org/1999/02/22-rdf-syntax-ns#">
   <cc:Work>
    <dc:type rdf:resource="http://purl.org/dc/dcmitype/StillImage"/>
    <dc:date>2022-05-10T10:26:00.691603</dc:date>
    <dc:format>image/svg+xml</dc:format>
    <dc:creator>
     <cc:Agent>
      <dc:title>Matplotlib v3.4.3, https://matplotlib.org/</dc:title>
     </cc:Agent>
    </dc:creator>
   </cc:Work>
  </rdf:RDF>
 </metadata>
 <defs>
  <style type="text/css">*{stroke-linecap:butt;stroke-linejoin:round;}</style>
 </defs>
 <g id="figure_1">
  <g id="patch_1">
   <path d="M 0 501.47677 
L 840.788688 501.47677 
L 840.788688 0 
L 0 0 
z
" style="fill:#ffffff;stroke:#ffffff;stroke-linejoin:miter;"/>
  </g>
  <g id="axes_1">
   <g id="patch_2">
    <path d="M 52.388688 234.334082 
L 415.737525 234.334082 
L 415.737525 22.244082 
L 52.388688 22.244082 
z
" style="fill:#ebebeb;"/>
   </g>
   <g id="matplotlib.axis_1">
    <g id="xtick_1">
     <g id="line2d_1">
      <path clip-path="url(#p20549bb3fe)" d="M 68.904544 234.334082 
L 68.904544 22.244082 
" style="fill:none;stroke:#ffffff;"/>
     </g>
    </g>
    <g id="xtick_2">
     <g id="line2d_2">
      <path clip-path="url(#p20549bb3fe)" d="M 142.308349 234.334082 
L 142.308349 22.244082 
" style="fill:none;stroke:#ffffff;"/>
     </g>
    </g>
    <g id="xtick_3">
     <g id="line2d_3">
      <path clip-path="url(#p20549bb3fe)" d="M 215.712155 234.334082 
L 215.712155 22.244082 
" style="fill:none;stroke:#ffffff;"/>
     </g>
    </g>
    <g id="xtick_4">
     <g id="line2d_4">
      <path clip-path="url(#p20549bb3fe)" d="M 289.11596 234.334082 
L 289.11596 22.244082 
" style="fill:none;stroke:#ffffff;"/>
     </g>
    </g>
    <g id="xtick_5">
     <g id="line2d_5">
      <path clip-path="url(#p20549bb3fe)" d="M 362.519766 234.334082 
L 362.519766 22.244082 
" style="fill:none;stroke:#ffffff;"/>
     </g>
    </g>
    <g id="xtick_6">
     <g id="line2d_6">
      <path clip-path="url(#p20549bb3fe)" d="M 105.606446 234.334082 
L 105.606446 22.244082 
" style="fill:none;stroke:#ffffff;stroke-width:0.5;"/>
     </g>
    </g>
    <g id="xtick_7">
     <g id="line2d_7">
      <path clip-path="url(#p20549bb3fe)" d="M 179.010252 234.334082 
L 179.010252 22.244082 
" style="fill:none;stroke:#ffffff;stroke-width:0.5;"/>
     </g>
    </g>
    <g id="xtick_8">
     <g id="line2d_8">
      <path clip-path="url(#p20549bb3fe)" d="M 252.414057 234.334082 
L 252.414057 22.244082 
" style="fill:none;stroke:#ffffff;stroke-width:0.5;"/>
     </g>
    </g>
    <g id="xtick_9">
     <g id="line2d_9">
      <path clip-path="url(#p20549bb3fe)" d="M 325.817863 234.334082 
L 325.817863 22.244082 
" style="fill:none;stroke:#ffffff;stroke-width:0.5;"/>
     </g>
    </g>
    <g id="xtick_10">
     <g id="line2d_10">
      <path clip-path="url(#p20549bb3fe)" d="M 399.221668 234.334082 
L 399.221668 22.244082 
" style="fill:none;stroke:#ffffff;stroke-width:0.5;"/>
     </g>
    </g>
   </g>
   <g id="matplotlib.axis_2">
    <g id="ytick_1">
     <g id="line2d_11">
      <path clip-path="url(#p20549bb3fe)" d="M 52.388688 203.885476 
L 415.737525 203.885476 
" style="fill:none;stroke:#ffffff;"/>
     </g>
     <g id="line2d_12">
      <path d="M 52.388688 203.885476 
" style="fill:none;stroke:#333333;stroke-width:1.5;"/>
      <defs>
       <path d="M 0 0 
L -2.75 0 
" id="md945d820b2" style="stroke:#000000;"/>
      </defs>
      <g>
       <use style="fill:#333333;stroke:#000000;" x="52.388688" xlink:href="#md945d820b2" y="203.885476"/>
      </g>
     </g>
     <g id="text_1">
      <!-- 0.832 -->
      <g style="fill:#4d4d4d;" transform="translate(22.245938 206.313726)scale(0.088 -0.088)">
       <defs>
        <path d="M 2034 4250 
Q 1547 4250 1301 3770 
Q 1056 3291 1056 2328 
Q 1056 1369 1301 889 
Q 1547 409 2034 409 
Q 2525 409 2770 889 
Q 3016 1369 3016 2328 
Q 3016 3291 2770 3770 
Q 2525 4250 2034 4250 
z
M 2034 4750 
Q 2819 4750 3233 4129 
Q 3647 3509 3647 2328 
Q 3647 1150 3233 529 
Q 2819 -91 2034 -91 
Q 1250 -91 836 529 
Q 422 1150 422 2328 
Q 422 3509 836 4129 
Q 1250 4750 2034 4750 
z
" id="DejaVuSans-30" transform="scale(0.015625)"/>
        <path d="M 684 794 
L 1344 794 
L 1344 0 
L 684 0 
L 684 794 
z
" id="DejaVuSans-2e" transform="scale(0.015625)"/>
        <path d="M 2034 2216 
Q 1584 2216 1326 1975 
Q 1069 1734 1069 1313 
Q 1069 891 1326 650 
Q 1584 409 2034 409 
Q 2484 409 2743 651 
Q 3003 894 3003 1313 
Q 3003 1734 2745 1975 
Q 2488 2216 2034 2216 
z
M 1403 2484 
Q 997 2584 770 2862 
Q 544 3141 544 3541 
Q 544 4100 942 4425 
Q 1341 4750 2034 4750 
Q 2731 4750 3128 4425 
Q 3525 4100 3525 3541 
Q 3525 3141 3298 2862 
Q 3072 2584 2669 2484 
Q 3125 2378 3379 2068 
Q 3634 1759 3634 1313 
Q 3634 634 3220 271 
Q 2806 -91 2034 -91 
Q 1263 -91 848 271 
Q 434 634 434 1313 
Q 434 1759 690 2068 
Q 947 2378 1403 2484 
z
M 1172 3481 
Q 1172 3119 1398 2916 
Q 1625 2713 2034 2713 
Q 2441 2713 2670 2916 
Q 2900 3119 2900 3481 
Q 2900 3844 2670 4047 
Q 2441 4250 2034 4250 
Q 1625 4250 1398 4047 
Q 1172 3844 1172 3481 
z
" id="DejaVuSans-38" transform="scale(0.015625)"/>
        <path d="M 2597 2516 
Q 3050 2419 3304 2112 
Q 3559 1806 3559 1356 
Q 3559 666 3084 287 
Q 2609 -91 1734 -91 
Q 1441 -91 1130 -33 
Q 819 25 488 141 
L 488 750 
Q 750 597 1062 519 
Q 1375 441 1716 441 
Q 2309 441 2620 675 
Q 2931 909 2931 1356 
Q 2931 1769 2642 2001 
Q 2353 2234 1838 2234 
L 1294 2234 
L 1294 2753 
L 1863 2753 
Q 2328 2753 2575 2939 
Q 2822 3125 2822 3475 
Q 2822 3834 2567 4026 
Q 2313 4219 1838 4219 
Q 1578 4219 1281 4162 
Q 984 4106 628 3988 
L 628 4550 
Q 988 4650 1302 4700 
Q 1616 4750 1894 4750 
Q 2613 4750 3031 4423 
Q 3450 4097 3450 3541 
Q 3450 3153 3228 2886 
Q 3006 2619 2597 2516 
z
" id="DejaVuSans-33" transform="scale(0.015625)"/>
        <path d="M 1228 531 
L 3431 531 
L 3431 0 
L 469 0 
L 469 531 
Q 828 903 1448 1529 
Q 2069 2156 2228 2338 
Q 2531 2678 2651 2914 
Q 2772 3150 2772 3378 
Q 2772 3750 2511 3984 
Q 2250 4219 1831 4219 
Q 1534 4219 1204 4116 
Q 875 4013 500 3803 
L 500 4441 
Q 881 4594 1212 4672 
Q 1544 4750 1819 4750 
Q 2544 4750 2975 4387 
Q 3406 4025 3406 3419 
Q 3406 3131 3298 2873 
Q 3191 2616 2906 2266 
Q 2828 2175 2409 1742 
Q 1991 1309 1228 531 
z
" id="DejaVuSans-32" transform="scale(0.015625)"/>
       </defs>
       <use xlink:href="#DejaVuSans-30"/>
       <use x="63.623047" xlink:href="#DejaVuSans-2e"/>
       <use x="95.410156" xlink:href="#DejaVuSans-38"/>
       <use x="159.033203" xlink:href="#DejaVuSans-33"/>
       <use x="222.65625" xlink:href="#DejaVuSans-32"/>
      </g>
     </g>
    </g>
    <g id="ytick_2">
     <g id="line2d_13">
      <path clip-path="url(#p20549bb3fe)" d="M 52.388688 146.671562 
L 415.737525 146.671562 
" style="fill:none;stroke:#ffffff;"/>
     </g>
     <g id="line2d_14">
      <path d="M 52.388688 146.671562 
" style="fill:none;stroke:#333333;stroke-width:1.5;"/>
      <g>
       <use style="fill:#333333;stroke:#000000;" x="52.388688" xlink:href="#md945d820b2" y="146.671562"/>
      </g>
     </g>
     <g id="text_2">
      <!-- 0.834 -->
      <g style="fill:#4d4d4d;" transform="translate(22.245938 149.099812)scale(0.088 -0.088)">
       <defs>
        <path d="M 2419 4116 
L 825 1625 
L 2419 1625 
L 2419 4116 
z
M 2253 4666 
L 3047 4666 
L 3047 1625 
L 3713 1625 
L 3713 1100 
L 3047 1100 
L 3047 0 
L 2419 0 
L 2419 1100 
L 313 1100 
L 313 1709 
L 2253 4666 
z
" id="DejaVuSans-34" transform="scale(0.015625)"/>
       </defs>
       <use xlink:href="#DejaVuSans-30"/>
       <use x="63.623047" xlink:href="#DejaVuSans-2e"/>
       <use x="95.410156" xlink:href="#DejaVuSans-38"/>
       <use x="159.033203" xlink:href="#DejaVuSans-33"/>
       <use x="222.65625" xlink:href="#DejaVuSans-34"/>
      </g>
     </g>
    </g>
    <g id="ytick_3">
     <g id="line2d_15">
      <path clip-path="url(#p20549bb3fe)" d="M 52.388688 89.457648 
L 415.737525 89.457648 
" style="fill:none;stroke:#ffffff;"/>
     </g>
     <g id="line2d_16">
      <path d="M 52.388688 89.457648 
" style="fill:none;stroke:#333333;stroke-width:1.5;"/>
      <g>
       <use style="fill:#333333;stroke:#000000;" x="52.388688" xlink:href="#md945d820b2" y="89.457648"/>
      </g>
     </g>
     <g id="text_3">
      <!-- 0.836 -->
      <g style="fill:#4d4d4d;" transform="translate(22.245938 91.885898)scale(0.088 -0.088)">
       <defs>
        <path d="M 2113 2584 
Q 1688 2584 1439 2293 
Q 1191 2003 1191 1497 
Q 1191 994 1439 701 
Q 1688 409 2113 409 
Q 2538 409 2786 701 
Q 3034 994 3034 1497 
Q 3034 2003 2786 2293 
Q 2538 2584 2113 2584 
z
M 3366 4563 
L 3366 3988 
Q 3128 4100 2886 4159 
Q 2644 4219 2406 4219 
Q 1781 4219 1451 3797 
Q 1122 3375 1075 2522 
Q 1259 2794 1537 2939 
Q 1816 3084 2150 3084 
Q 2853 3084 3261 2657 
Q 3669 2231 3669 1497 
Q 3669 778 3244 343 
Q 2819 -91 2113 -91 
Q 1303 -91 875 529 
Q 447 1150 447 2328 
Q 447 3434 972 4092 
Q 1497 4750 2381 4750 
Q 2619 4750 2861 4703 
Q 3103 4656 3366 4563 
z
" id="DejaVuSans-36" transform="scale(0.015625)"/>
       </defs>
       <use xlink:href="#DejaVuSans-30"/>
       <use x="63.623047" xlink:href="#DejaVuSans-2e"/>
       <use x="95.410156" xlink:href="#DejaVuSans-38"/>
       <use x="159.033203" xlink:href="#DejaVuSans-33"/>
       <use x="222.65625" xlink:href="#DejaVuSans-36"/>
      </g>
     </g>
    </g>
    <g id="ytick_4">
     <g id="line2d_17">
      <path clip-path="url(#p20549bb3fe)" d="M 52.388688 32.243734 
L 415.737525 32.243734 
" style="fill:none;stroke:#ffffff;"/>
     </g>
     <g id="line2d_18">
      <path d="M 52.388688 32.243734 
" style="fill:none;stroke:#333333;stroke-width:1.5;"/>
      <g>
       <use style="fill:#333333;stroke:#000000;" x="52.388688" xlink:href="#md945d820b2" y="32.243734"/>
      </g>
     </g>
     <g id="text_4">
      <!-- 0.838 -->
      <g style="fill:#4d4d4d;" transform="translate(22.245938 34.671984)scale(0.088 -0.088)">
       <use xlink:href="#DejaVuSans-30"/>
       <use x="63.623047" xlink:href="#DejaVuSans-2e"/>
       <use x="95.410156" xlink:href="#DejaVuSans-38"/>
       <use x="159.033203" xlink:href="#DejaVuSans-33"/>
       <use x="222.65625" xlink:href="#DejaVuSans-38"/>
      </g>
     </g>
    </g>
    <g id="ytick_5">
     <g id="line2d_19">
      <path clip-path="url(#p20549bb3fe)" d="M 52.388688 232.492433 
L 415.737525 232.492433 
" style="fill:none;stroke:#ffffff;stroke-width:0.5;"/>
     </g>
    </g>
    <g id="ytick_6">
     <g id="line2d_20">
      <path clip-path="url(#p20549bb3fe)" d="M 52.388688 175.278519 
L 415.737525 175.278519 
" style="fill:none;stroke:#ffffff;stroke-width:0.5;"/>
     </g>
    </g>
    <g id="ytick_7">
     <g id="line2d_21">
      <path clip-path="url(#p20549bb3fe)" d="M 52.388688 118.064605 
L 415.737525 118.064605 
" style="fill:none;stroke:#ffffff;stroke-width:0.5;"/>
     </g>
    </g>
    <g id="ytick_8">
     <g id="line2d_22">
      <path clip-path="url(#p20549bb3fe)" d="M 52.388688 60.850691 
L 415.737525 60.850691 
" style="fill:none;stroke:#ffffff;stroke-width:0.5;"/>
     </g>
    </g>
    <g id="text_5">
     <!-- Value -->
     <g transform="translate(15.558281 256.228457)rotate(-90)scale(0.11 -0.11)">
      <defs>
       <path d="M 1831 0 
L 50 4666 
L 709 4666 
L 2188 738 
L 3669 4666 
L 4325 4666 
L 2547 0 
L 1831 0 
z
" id="DejaVuSans-56" transform="scale(0.015625)"/>
       <path d="M 2194 1759 
Q 1497 1759 1228 1600 
Q 959 1441 959 1056 
Q 959 750 1161 570 
Q 1363 391 1709 391 
Q 2188 391 2477 730 
Q 2766 1069 2766 1631 
L 2766 1759 
L 2194 1759 
z
M 3341 1997 
L 3341 0 
L 2766 0 
L 2766 531 
Q 2569 213 2275 61 
Q 1981 -91 1556 -91 
Q 1019 -91 701 211 
Q 384 513 384 1019 
Q 384 1609 779 1909 
Q 1175 2209 1959 2209 
L 2766 2209 
L 2766 2266 
Q 2766 2663 2505 2880 
Q 2244 3097 1772 3097 
Q 1472 3097 1187 3025 
Q 903 2953 641 2809 
L 641 3341 
Q 956 3463 1253 3523 
Q 1550 3584 1831 3584 
Q 2591 3584 2966 3190 
Q 3341 2797 3341 1997 
z
" id="DejaVuSans-61" transform="scale(0.015625)"/>
       <path d="M 603 4863 
L 1178 4863 
L 1178 0 
L 603 0 
L 603 4863 
z
" id="DejaVuSans-6c" transform="scale(0.015625)"/>
       <path d="M 544 1381 
L 544 3500 
L 1119 3500 
L 1119 1403 
Q 1119 906 1312 657 
Q 1506 409 1894 409 
Q 2359 409 2629 706 
Q 2900 1003 2900 1516 
L 2900 3500 
L 3475 3500 
L 3475 0 
L 2900 0 
L 2900 538 
Q 2691 219 2414 64 
Q 2138 -91 1772 -91 
Q 1169 -91 856 284 
Q 544 659 544 1381 
z
M 1991 3584 
L 1991 3584 
z
" id="DejaVuSans-75" transform="scale(0.015625)"/>
       <path d="M 3597 1894 
L 3597 1613 
L 953 1613 
Q 991 1019 1311 708 
Q 1631 397 2203 397 
Q 2534 397 2845 478 
Q 3156 559 3463 722 
L 3463 178 
Q 3153 47 2828 -22 
Q 2503 -91 2169 -91 
Q 1331 -91 842 396 
Q 353 884 353 1716 
Q 353 2575 817 3079 
Q 1281 3584 2069 3584 
Q 2775 3584 3186 3129 
Q 3597 2675 3597 1894 
z
M 3022 2063 
Q 3016 2534 2758 2815 
Q 2500 3097 2075 3097 
Q 1594 3097 1305 2825 
Q 1016 2553 972 2059 
L 3022 2063 
z
" id="DejaVuSans-65" transform="scale(0.015625)"/>
      </defs>
      <use xlink:href="#DejaVuSans-56"/>
      <use x="60.658203" xlink:href="#DejaVuSans-61"/>
      <use x="121.9375" xlink:href="#DejaVuSans-6c"/>
      <use x="149.720703" xlink:href="#DejaVuSans-75"/>
      <use x="213.099609" xlink:href="#DejaVuSans-65"/>
     </g>
    </g>
   </g>
   <g id="line2d_23">
    <path clip-path="url(#p20549bb3fe)" d="M 68.904544 140.66904 
L 105.606446 153.357916 
L 142.308349 146.975487 
L 179.010252 147.963244 
L 215.712155 134.438574 
L 252.414057 139.985208 
L 289.11596 130.487546 
L 325.817863 117.874652 
L 362.519766 127.600257 
L 399.221668 95.992039 
" style="fill:none;stroke:#000000;stroke-width:0.886227;"/>
   </g>
   <g id="PathCollection_1">
    <path clip-path="url(#p20549bb3fe)" d="M 68.904544 142.441494 
C 69.374604 142.441494 69.825475 142.254737 70.157858 141.922354 
C 70.490241 141.589971 70.676998 141.1391 70.676998 140.66904 
C 70.676998 140.198979 70.490241 139.748108 70.157858 139.415726 
C 69.825475 139.083343 69.374604 138.896586 68.904544 138.896586 
C 68.434483 138.896586 67.983612 139.083343 67.65123 139.415726 
C 67.318847 139.748108 67.13209 140.198979 67.13209 140.66904 
C 67.13209 141.1391 67.318847 141.589971 67.65123 141.922354 
C 67.983612 142.254737 68.434483 142.441494 68.904544 142.441494 
z
" style="stroke:#000000;stroke-width:0.886227;"/>
    <path clip-path="url(#p20549bb3fe)" d="M 105.606446 155.13037 
C 106.076507 155.13037 106.527378 154.943613 106.859761 154.61123 
C 107.192143 154.278847 107.3789 153.827976 107.3789 153.357916 
C 107.3789 152.887855 107.192143 152.436984 106.859761 152.104602 
C 106.527378 151.772219 106.076507 151.585462 105.606446 151.585462 
C 105.136386 151.585462 104.685515 151.772219 104.353132 152.104602 
C 104.02075 152.436984 103.833993 152.887855 103.833993 153.357916 
C 103.833993 153.827976 104.02075 154.278847 104.353132 154.61123 
C 104.685515 154.943613 105.136386 155.13037 105.606446 155.13037 
z
" style="stroke:#000000;stroke-width:0.886227;"/>
    <path clip-path="url(#p20549bb3fe)" d="M 142.308349 148.747941 
C 142.778409 148.747941 143.229281 148.561184 143.561663 148.228801 
C 143.894046 147.896418 144.080803 147.445547 144.080803 146.975487 
C 144.080803 146.505427 143.894046 146.054556 143.561663 145.722173 
C 143.229281 145.38979 142.778409 145.203033 142.308349 145.203033 
C 141.838289 145.203033 141.387418 145.38979 141.055035 145.722173 
C 140.722652 146.054556 140.535895 146.505427 140.535895 146.975487 
C 140.535895 147.445547 140.722652 147.896418 141.055035 148.228801 
C 141.387418 148.561184 141.838289 148.747941 142.308349 148.747941 
z
" style="stroke:#000000;stroke-width:0.886227;"/>
    <path clip-path="url(#p20549bb3fe)" d="M 179.010252 149.735698 
C 179.480312 149.735698 179.931183 149.548941 180.263566 149.216558 
C 180.595949 148.884175 180.782706 148.433304 180.782706 147.963244 
C 180.782706 147.493184 180.595949 147.042313 180.263566 146.70993 
C 179.931183 146.377547 179.480312 146.19079 179.010252 146.19079 
C 178.540192 146.19079 178.089321 146.377547 177.756938 146.70993 
C 177.424555 147.042313 177.237798 147.493184 177.237798 147.963244 
C 177.237798 148.433304 177.424555 148.884175 177.756938 149.216558 
C 178.089321 149.548941 178.540192 149.735698 179.010252 149.735698 
z
" style="stroke:#000000;stroke-width:0.886227;"/>
    <path clip-path="url(#p20549bb3fe)" d="M 215.712155 136.211028 
C 216.182215 136.211028 216.633086 136.024271 216.965469 135.691888 
C 217.297852 135.359505 217.484609 134.908634 217.484609 134.438574 
C 217.484609 133.968513 217.297852 133.517642 216.965469 133.18526 
C 216.633086 132.852877 216.182215 132.66612 215.712155 132.66612 
C 215.242094 132.66612 214.791223 132.852877 214.458841 133.18526 
C 214.126458 133.517642 213.939701 133.968513 213.939701 134.438574 
C 213.939701 134.908634 214.126458 135.359505 214.458841 135.691888 
C 214.791223 136.024271 215.242094 136.211028 215.712155 136.211028 
z
" style="stroke:#000000;stroke-width:0.886227;"/>
    <path clip-path="url(#p20549bb3fe)" d="M 252.414057 141.757662 
C 252.884118 141.757662 253.334989 141.570905 253.667372 141.238522 
C 253.999754 140.906139 254.186511 140.455268 254.186511 139.985208 
C 254.186511 139.515148 253.999754 139.064277 253.667372 138.731894 
C 253.334989 138.399511 252.884118 138.212754 252.414057 138.212754 
C 251.943997 138.212754 251.493126 138.399511 251.160743 138.731894 
C 250.828361 139.064277 250.641604 139.515148 250.641604 139.985208 
C 250.641604 140.455268 250.828361 140.906139 251.160743 141.238522 
C 251.493126 141.570905 251.943997 141.757662 252.414057 141.757662 
z
" style="stroke:#000000;stroke-width:0.886227;"/>
    <path clip-path="url(#p20549bb3fe)" d="M 289.11596 132.26 
C 289.58602 132.26 290.036892 132.073243 290.369274 131.740861 
C 290.701657 131.408478 290.888414 130.957607 290.888414 130.487546 
C 290.888414 130.017486 290.701657 129.566615 290.369274 129.234232 
C 290.036892 128.90185 289.58602 128.715093 289.11596 128.715093 
C 288.6459 128.715093 288.195029 128.90185 287.862646 129.234232 
C 287.530263 129.566615 287.343506 130.017486 287.343506 130.487546 
C 287.343506 130.957607 287.530263 131.408478 287.862646 131.740861 
C 288.195029 132.073243 288.6459 132.26 289.11596 132.26 
z
" style="stroke:#000000;stroke-width:0.886227;"/>
    <path clip-path="url(#p20549bb3fe)" d="M 325.817863 119.647106 
C 326.287923 119.647106 326.738794 119.460349 327.071177 119.127966 
C 327.40356 118.795583 327.590317 118.344712 327.590317 117.874652 
C 327.590317 117.404592 327.40356 116.95372 327.071177 116.621338 
C 326.738794 116.288955 326.287923 116.102198 325.817863 116.102198 
C 325.347803 116.102198 324.896932 116.288955 324.564549 116.621338 
C 324.232166 116.95372 324.045409 117.404592 324.045409 117.874652 
C 324.045409 118.344712 324.232166 118.795583 324.564549 119.127966 
C 324.896932 119.460349 325.347803 119.647106 325.817863 119.647106 
z
" style="stroke:#000000;stroke-width:0.886227;"/>
    <path clip-path="url(#p20549bb3fe)" d="M 362.519766 129.372711 
C 362.989826 129.372711 363.440697 129.185954 363.77308 128.853571 
C 364.105463 128.521189 364.29222 128.070318 364.29222 127.600257 
C 364.29222 127.130197 364.105463 126.679326 363.77308 126.346943 
C 363.440697 126.01456 362.989826 125.827803 362.519766 125.827803 
C 362.049705 125.827803 361.598834 126.01456 361.266452 126.346943 
C 360.934069 126.679326 360.747312 127.130197 360.747312 127.600257 
C 360.747312 128.070318 360.934069 128.521189 361.266452 128.853571 
C 361.598834 129.185954 362.049705 129.372711 362.519766 129.372711 
z
" style="stroke:#000000;stroke-width:0.886227;"/>
    <path clip-path="url(#p20549bb3fe)" d="M 399.221668 97.764493 
C 399.691729 97.764493 400.1426 97.577736 400.474983 97.245353 
C 400.807365 96.912971 400.994122 96.4621 400.994122 95.992039 
C 400.994122 95.521979 400.807365 95.071108 400.474983 94.738725 
C 400.1426 94.406342 399.691729 94.219585 399.221668 94.219585 
C 398.751608 94.219585 398.300737 94.406342 397.968354 94.738725 
C 397.635972 95.071108 397.449215 95.521979 397.449215 95.992039 
C 397.449215 96.4621 397.635972 96.912971 397.968354 97.245353 
C 398.300737 97.577736 398.751608 97.764493 399.221668 97.764493 
z
" style="stroke:#000000;stroke-width:0.886227;"/>
   </g>
   <g id="patch_3">
    <path d="M 52.388688 22.244082 
L 415.737525 22.244082 
L 415.737525 7.2 
L 52.388688 7.2 
z
" style="fill:#d9d9d9;"/>
   </g>
   <g id="PolyCollection_1">
    <path clip-path="url(#p20549bb3fe)" d="M 68.904544 61.897287 
L 68.904544 219.440793 
L 105.606446 224.693628 
L 142.308349 220.530952 
L 179.010252 206.31292 
L 215.712155 197.702115 
L 252.414057 209.817928 
L 289.11596 187.354558 
L 325.817863 191.026133 
L 362.519766 198.185039 
L 399.221668 160.099542 
L 399.221668 31.884537 
L 399.221668 31.884537 
L 362.519766 57.015476 
L 325.817863 44.723171 
L 289.11596 73.620535 
L 252.414057 70.152488 
L 215.712155 71.175032 
L 179.010252 89.613568 
L 142.308349 73.420022 
L 105.606446 82.022204 
L 68.904544 61.897287 
z
" style="fill:#333333;fill-opacity:0.501961;"/>
   </g>
   <g id="text_6">
    <!-- Accuracy -->
    <g style="fill:#1a1a1a;" transform="translate(213.974356 17.150291)scale(0.088 -0.088)">
     <defs>
      <path d="M 2188 4044 
L 1331 1722 
L 3047 1722 
L 2188 4044 
z
M 1831 4666 
L 2547 4666 
L 4325 0 
L 3669 0 
L 3244 1197 
L 1141 1197 
L 716 0 
L 50 0 
L 1831 4666 
z
" id="DejaVuSans-41" transform="scale(0.015625)"/>
      <path d="M 3122 3366 
L 3122 2828 
Q 2878 2963 2633 3030 
Q 2388 3097 2138 3097 
Q 1578 3097 1268 2742 
Q 959 2388 959 1747 
Q 959 1106 1268 751 
Q 1578 397 2138 397 
Q 2388 397 2633 464 
Q 2878 531 3122 666 
L 3122 134 
Q 2881 22 2623 -34 
Q 2366 -91 2075 -91 
Q 1284 -91 818 406 
Q 353 903 353 1747 
Q 353 2603 823 3093 
Q 1294 3584 2113 3584 
Q 2378 3584 2631 3529 
Q 2884 3475 3122 3366 
z
" id="DejaVuSans-63" transform="scale(0.015625)"/>
      <path d="M 2631 2963 
Q 2534 3019 2420 3045 
Q 2306 3072 2169 3072 
Q 1681 3072 1420 2755 
Q 1159 2438 1159 1844 
L 1159 0 
L 581 0 
L 581 3500 
L 1159 3500 
L 1159 2956 
Q 1341 3275 1631 3429 
Q 1922 3584 2338 3584 
Q 2397 3584 2469 3576 
Q 2541 3569 2628 3553 
L 2631 2963 
z
" id="DejaVuSans-72" transform="scale(0.015625)"/>
      <path d="M 2059 -325 
Q 1816 -950 1584 -1140 
Q 1353 -1331 966 -1331 
L 506 -1331 
L 506 -850 
L 844 -850 
Q 1081 -850 1212 -737 
Q 1344 -625 1503 -206 
L 1606 56 
L 191 3500 
L 800 3500 
L 1894 763 
L 2988 3500 
L 3597 3500 
L 2059 -325 
z
" id="DejaVuSans-79" transform="scale(0.015625)"/>
     </defs>
     <use xlink:href="#DejaVuSans-41"/>
     <use x="66.658203" xlink:href="#DejaVuSans-63"/>
     <use x="121.638672" xlink:href="#DejaVuSans-63"/>
     <use x="176.619141" xlink:href="#DejaVuSans-75"/>
     <use x="239.998047" xlink:href="#DejaVuSans-72"/>
     <use x="281.111328" xlink:href="#DejaVuSans-61"/>
     <use x="342.390625" xlink:href="#DejaVuSans-63"/>
     <use x="397.371094" xlink:href="#DejaVuSans-79"/>
    </g>
   </g>
  </g>
  <g id="axes_2">
   <g id="patch_4">
    <path d="M 470.23985 234.334082 
L 833.588688 234.334082 
L 833.588688 22.244082 
L 470.23985 22.244082 
z
" style="fill:#ebebeb;"/>
   </g>
   <g id="matplotlib.axis_3">
    <g id="xtick_11">
     <g id="line2d_24">
      <path clip-path="url(#p6124f6fc1e)" d="M 486.755707 234.334082 
L 486.755707 22.244082 
" style="fill:none;stroke:#ffffff;stroke-linecap:square;"/>
     </g>
    </g>
    <g id="xtick_12">
     <g id="line2d_25">
      <path clip-path="url(#p6124f6fc1e)" d="M 560.159512 234.334082 
L 560.159512 22.244082 
" style="fill:none;stroke:#ffffff;stroke-linecap:square;"/>
     </g>
    </g>
    <g id="xtick_13">
     <g id="line2d_26">
      <path clip-path="url(#p6124f6fc1e)" d="M 633.563318 234.334082 
L 633.563318 22.244082 
" style="fill:none;stroke:#ffffff;stroke-linecap:square;"/>
     </g>
    </g>
    <g id="xtick_14">
     <g id="line2d_27">
      <path clip-path="url(#p6124f6fc1e)" d="M 706.967123 234.334082 
L 706.967123 22.244082 
" style="fill:none;stroke:#ffffff;stroke-linecap:square;"/>
     </g>
    </g>
    <g id="xtick_15">
     <g id="line2d_28">
      <path clip-path="url(#p6124f6fc1e)" d="M 780.370929 234.334082 
L 780.370929 22.244082 
" style="fill:none;stroke:#ffffff;stroke-linecap:square;"/>
     </g>
    </g>
    <g id="xtick_16">
     <g id="line2d_29">
      <path clip-path="url(#p6124f6fc1e)" d="M 523.457609 234.334082 
L 523.457609 22.244082 
" style="fill:none;stroke:#ffffff;stroke-linecap:square;stroke-width:0.5;"/>
     </g>
    </g>
    <g id="xtick_17">
     <g id="line2d_30">
      <path clip-path="url(#p6124f6fc1e)" d="M 596.861415 234.334082 
L 596.861415 22.244082 
" style="fill:none;stroke:#ffffff;stroke-linecap:square;stroke-width:0.5;"/>
     </g>
    </g>
    <g id="xtick_18">
     <g id="line2d_31">
      <path clip-path="url(#p6124f6fc1e)" d="M 670.26522 234.334082 
L 670.26522 22.244082 
" style="fill:none;stroke:#ffffff;stroke-linecap:square;stroke-width:0.5;"/>
     </g>
    </g>
    <g id="xtick_19">
     <g id="line2d_32">
      <path clip-path="url(#p6124f6fc1e)" d="M 743.669026 234.334082 
L 743.669026 22.244082 
" style="fill:none;stroke:#ffffff;stroke-linecap:square;stroke-width:0.5;"/>
     </g>
    </g>
    <g id="xtick_20">
     <g id="line2d_33">
      <path clip-path="url(#p6124f6fc1e)" d="M 817.072831 234.334082 
L 817.072831 22.244082 
" style="fill:none;stroke:#ffffff;stroke-linecap:square;stroke-width:0.5;"/>
     </g>
    </g>
   </g>
   <g id="matplotlib.axis_4">
    <g id="ytick_9">
     <g id="line2d_34">
      <path clip-path="url(#p6124f6fc1e)" d="M 470.23985 181.669196 
L 833.588688 181.669196 
" style="fill:none;stroke:#ffffff;stroke-linecap:square;"/>
     </g>
     <g id="line2d_35">
      <path d="M 470.23985 181.669196 
" style="fill:none;stroke:#333333;stroke-linecap:square;stroke-width:1.5;"/>
      <g>
       <use style="fill:#333333;stroke:#000000;" x="470.23985" xlink:href="#md945d820b2" y="181.669196"/>
      </g>
     </g>
     <g id="text_7">
      <!-- 0.886 -->
      <g style="fill:#4d4d4d;" transform="translate(440.0971 184.097446)scale(0.088 -0.088)">
       <use xlink:href="#DejaVuSans-30"/>
       <use x="63.623047" xlink:href="#DejaVuSans-2e"/>
       <use x="95.410156" xlink:href="#DejaVuSans-38"/>
       <use x="159.033203" xlink:href="#DejaVuSans-38"/>
       <use x="222.65625" xlink:href="#DejaVuSans-36"/>
      </g>
     </g>
    </g>
    <g id="ytick_10">
     <g id="line2d_36">
      <path clip-path="url(#p6124f6fc1e)" d="M 470.23985 115.717027 
L 833.588688 115.717027 
" style="fill:none;stroke:#ffffff;stroke-linecap:square;"/>
     </g>
     <g id="line2d_37">
      <path d="M 470.23985 115.717027 
" style="fill:none;stroke:#333333;stroke-linecap:square;stroke-width:1.5;"/>
      <g>
       <use style="fill:#333333;stroke:#000000;" x="470.23985" xlink:href="#md945d820b2" y="115.717027"/>
      </g>
     </g>
     <g id="text_8">
      <!-- 0.888 -->
      <g style="fill:#4d4d4d;" transform="translate(440.0971 118.145277)scale(0.088 -0.088)">
       <use xlink:href="#DejaVuSans-30"/>
       <use x="63.623047" xlink:href="#DejaVuSans-2e"/>
       <use x="95.410156" xlink:href="#DejaVuSans-38"/>
       <use x="159.033203" xlink:href="#DejaVuSans-38"/>
       <use x="222.65625" xlink:href="#DejaVuSans-38"/>
      </g>
     </g>
    </g>
    <g id="ytick_11">
     <g id="line2d_38">
      <path clip-path="url(#p6124f6fc1e)" d="M 470.23985 49.764858 
L 833.588688 49.764858 
" style="fill:none;stroke:#ffffff;stroke-linecap:square;"/>
     </g>
     <g id="line2d_39">
      <path d="M 470.23985 49.764858 
" style="fill:none;stroke:#333333;stroke-linecap:square;stroke-width:1.5;"/>
      <g>
       <use style="fill:#333333;stroke:#000000;" x="470.23985" xlink:href="#md945d820b2" y="49.764858"/>
      </g>
     </g>
     <g id="text_9">
      <!-- 0.890 -->
      <g style="fill:#4d4d4d;" transform="translate(440.0971 52.193108)scale(0.088 -0.088)">
       <defs>
        <path d="M 703 97 
L 703 672 
Q 941 559 1184 500 
Q 1428 441 1663 441 
Q 2288 441 2617 861 
Q 2947 1281 2994 2138 
Q 2813 1869 2534 1725 
Q 2256 1581 1919 1581 
Q 1219 1581 811 2004 
Q 403 2428 403 3163 
Q 403 3881 828 4315 
Q 1253 4750 1959 4750 
Q 2769 4750 3195 4129 
Q 3622 3509 3622 2328 
Q 3622 1225 3098 567 
Q 2575 -91 1691 -91 
Q 1453 -91 1209 -44 
Q 966 3 703 97 
z
M 1959 2075 
Q 2384 2075 2632 2365 
Q 2881 2656 2881 3163 
Q 2881 3666 2632 3958 
Q 2384 4250 1959 4250 
Q 1534 4250 1286 3958 
Q 1038 3666 1038 3163 
Q 1038 2656 1286 2365 
Q 1534 2075 1959 2075 
z
" id="DejaVuSans-39" transform="scale(0.015625)"/>
       </defs>
       <use xlink:href="#DejaVuSans-30"/>
       <use x="63.623047" xlink:href="#DejaVuSans-2e"/>
       <use x="95.410156" xlink:href="#DejaVuSans-38"/>
       <use x="159.033203" xlink:href="#DejaVuSans-39"/>
       <use x="222.65625" xlink:href="#DejaVuSans-30"/>
      </g>
     </g>
    </g>
    <g id="ytick_12">
     <g id="line2d_40">
      <path clip-path="url(#p6124f6fc1e)" d="M 470.23985 214.64528 
L 833.588688 214.64528 
" style="fill:none;stroke:#ffffff;stroke-linecap:square;stroke-width:0.5;"/>
     </g>
    </g>
    <g id="ytick_13">
     <g id="line2d_41">
      <path clip-path="url(#p6124f6fc1e)" d="M 470.23985 148.693111 
L 833.588688 148.693111 
" style="fill:none;stroke:#ffffff;stroke-linecap:square;stroke-width:0.5;"/>
     </g>
    </g>
    <g id="ytick_14">
     <g id="line2d_42">
      <path clip-path="url(#p6124f6fc1e)" d="M 470.23985 82.740942 
L 833.588688 82.740942 
" style="fill:none;stroke:#ffffff;stroke-linecap:square;stroke-width:0.5;"/>
     </g>
    </g>
   </g>
   <g id="line2d_43">
    <path clip-path="url(#p6124f6fc1e)" d="M 486.755707 132.884016 
L 523.457609 146.46495 
L 560.159512 129.030838 
L 596.861415 118.177633 
L 633.563318 121.319933 
L 670.26522 120.787586 
L 706.967123 108.046557 
L 743.669026 106.626872 
L 780.370929 100.189207 
L 817.072831 90.860205 
" style="fill:none;stroke:#000000;stroke-width:0.886227;"/>
   </g>
   <g id="PathCollection_2">
    <path clip-path="url(#p6124f6fc1e)" d="M 486.755707 134.65647 
C 487.225767 134.65647 487.676638 134.469713 488.009021 134.13733 
C 488.341403 133.804947 488.52816 133.354076 488.52816 132.884016 
C 488.52816 132.413956 488.341403 131.963085 488.009021 131.630702 
C 487.676638 131.298319 487.225767 131.111562 486.755707 131.111562 
C 486.285646 131.111562 485.834775 131.298319 485.502392 131.630702 
C 485.17001 131.963085 484.983253 132.413956 484.983253 132.884016 
C 484.983253 133.354076 485.17001 133.804947 485.502392 134.13733 
C 485.834775 134.469713 486.285646 134.65647 486.755707 134.65647 
z
" style="stroke:#000000;stroke-width:0.886227;"/>
    <path clip-path="url(#p6124f6fc1e)" d="M 523.457609 148.237404 
C 523.92767 148.237404 524.378541 148.050647 524.710923 147.718265 
C 525.043306 147.385882 525.230063 146.935011 525.230063 146.46495 
C 525.230063 145.99489 525.043306 145.544019 524.710923 145.211636 
C 524.378541 144.879253 523.92767 144.692497 523.457609 144.692497 
C 522.987549 144.692497 522.536678 144.879253 522.204295 145.211636 
C 521.871912 145.544019 521.685155 145.99489 521.685155 146.46495 
C 521.685155 146.935011 521.871912 147.385882 522.204295 147.718265 
C 522.536678 148.050647 522.987549 148.237404 523.457609 148.237404 
z
" style="stroke:#000000;stroke-width:0.886227;"/>
    <path clip-path="url(#p6124f6fc1e)" d="M 560.159512 130.803292 
C 560.629572 130.803292 561.080443 130.616535 561.412826 130.284153 
C 561.745209 129.95177 561.931966 129.500899 561.931966 129.030838 
C 561.931966 128.560778 561.745209 128.109907 561.412826 127.777524 
C 561.080443 127.445142 560.629572 127.258385 560.159512 127.258385 
C 559.689452 127.258385 559.238581 127.445142 558.906198 127.777524 
C 558.573815 128.109907 558.387058 128.560778 558.387058 129.030838 
C 558.387058 129.500899 558.573815 129.95177 558.906198 130.284153 
C 559.238581 130.616535 559.689452 130.803292 560.159512 130.803292 
z
" style="stroke:#000000;stroke-width:0.886227;"/>
    <path clip-path="url(#p6124f6fc1e)" d="M 596.861415 119.950087 
C 597.331475 119.950087 597.782346 119.76333 598.114729 119.430947 
C 598.447112 119.098565 598.633869 118.647694 598.633869 118.177633 
C 598.633869 117.707573 598.447112 117.256702 598.114729 116.924319 
C 597.782346 116.591936 597.331475 116.405179 596.861415 116.405179 
C 596.391355 116.405179 595.940483 116.591936 595.608101 116.924319 
C 595.275718 117.256702 595.088961 117.707573 595.088961 118.177633 
C 595.088961 118.647694 595.275718 119.098565 595.608101 119.430947 
C 595.940483 119.76333 596.391355 119.950087 596.861415 119.950087 
z
" style="stroke:#000000;stroke-width:0.886227;"/>
    <path clip-path="url(#p6124f6fc1e)" d="M 633.563318 123.092387 
C 634.033378 123.092387 634.484249 122.90563 634.816632 122.573247 
C 635.149014 122.240864 635.335771 121.789993 635.335771 121.319933 
C 635.335771 120.849873 635.149014 120.399001 634.816632 120.066619 
C 634.484249 119.734236 634.033378 119.547479 633.563318 119.547479 
C 633.093257 119.547479 632.642386 119.734236 632.310003 120.066619 
C 631.977621 120.399001 631.790864 120.849873 631.790864 121.319933 
C 631.790864 121.789993 631.977621 122.240864 632.310003 122.573247 
C 632.642386 122.90563 633.093257 123.092387 633.563318 123.092387 
z
" style="stroke:#000000;stroke-width:0.886227;"/>
    <path clip-path="url(#p6124f6fc1e)" d="M 670.26522 122.56004 
C 670.735281 122.56004 671.186152 122.373283 671.518534 122.0409 
C 671.850917 121.708518 672.037674 121.257646 672.037674 120.787586 
C 672.037674 120.317526 671.850917 119.866655 671.518534 119.534272 
C 671.186152 119.201889 670.735281 119.015132 670.26522 119.015132 
C 669.79516 119.015132 669.344289 119.201889 669.011906 119.534272 
C 668.679523 119.866655 668.492766 120.317526 668.492766 120.787586 
C 668.492766 121.257646 668.679523 121.708518 669.011906 122.0409 
C 669.344289 122.373283 669.79516 122.56004 670.26522 122.56004 
z
" style="stroke:#000000;stroke-width:0.886227;"/>
    <path clip-path="url(#p6124f6fc1e)" d="M 706.967123 109.81901 
C 707.437183 109.81901 707.888054 109.632254 708.220437 109.299871 
C 708.55282 108.967488 708.739577 108.516617 708.739577 108.046557 
C 708.739577 107.576496 708.55282 107.125625 708.220437 106.793242 
C 707.888054 106.46086 707.437183 106.274103 706.967123 106.274103 
C 706.497063 106.274103 706.046192 106.46086 705.713809 106.793242 
C 705.381426 107.125625 705.194669 107.576496 705.194669 108.046557 
C 705.194669 108.516617 705.381426 108.967488 705.713809 109.299871 
C 706.046192 109.632254 706.497063 109.81901 706.967123 109.81901 
z
" style="stroke:#000000;stroke-width:0.886227;"/>
    <path clip-path="url(#p6124f6fc1e)" d="M 743.669026 108.399325 
C 744.139086 108.399325 744.589957 108.212568 744.92234 107.880186 
C 745.254723 107.547803 745.44148 107.096932 745.44148 106.626872 
C 745.44148 106.156811 745.254723 105.70594 744.92234 105.373557 
C 744.589957 105.041175 744.139086 104.854418 743.669026 104.854418 
C 743.198966 104.854418 742.748094 105.041175 742.415712 105.373557 
C 742.083329 105.70594 741.896572 106.156811 741.896572 106.626872 
C 741.896572 107.096932 742.083329 107.547803 742.415712 107.880186 
C 742.748094 108.212568 743.198966 108.399325 743.669026 108.399325 
z
" style="stroke:#000000;stroke-width:0.886227;"/>
    <path clip-path="url(#p6124f6fc1e)" d="M 780.370929 101.961661 
C 780.840989 101.961661 781.29186 101.774904 781.624243 101.442522 
C 781.956625 101.110139 782.143382 100.659268 782.143382 100.189207 
C 782.143382 99.719147 781.956625 99.268276 781.624243 98.935893 
C 781.29186 98.60351 780.840989 98.416754 780.370929 98.416754 
C 779.900868 98.416754 779.449997 98.60351 779.117614 98.935893 
C 778.785232 99.268276 778.598475 99.719147 778.598475 100.189207 
C 778.598475 100.659268 778.785232 101.110139 779.117614 101.442522 
C 779.449997 101.774904 779.900868 101.961661 780.370929 101.961661 
z
" style="stroke:#000000;stroke-width:0.886227;"/>
    <path clip-path="url(#p6124f6fc1e)" d="M 817.072831 92.632658 
C 817.542892 92.632658 817.993763 92.445902 818.326145 92.113519 
C 818.658528 91.781136 818.845285 91.330265 818.845285 90.860205 
C 818.845285 90.390144 818.658528 89.939273 818.326145 89.60689 
C 817.993763 89.274508 817.542892 89.087751 817.072831 89.087751 
C 816.602771 89.087751 816.1519 89.274508 815.819517 89.60689 
C 815.487134 89.939273 815.300377 90.390144 815.300377 90.860205 
C 815.300377 91.330265 815.487134 91.781136 815.819517 92.113519 
C 816.1519 92.445902 816.602771 92.632658 817.072831 92.632658 
z
" style="stroke:#000000;stroke-width:0.886227;"/>
   </g>
   <g id="patch_5">
    <path d="M 470.23985 22.244082 
L 833.588688 22.244082 
L 833.588688 7.2 
L 470.23985 7.2 
z
" style="fill:#d9d9d9;"/>
   </g>
   <g id="PolyCollection_2">
    <path clip-path="url(#p6124f6fc1e)" d="M 486.755707 60.068089 
L 486.755707 205.699943 
L 523.457609 224.693628 
L 560.159512 199.535224 
L 596.861415 170.982728 
L 633.563318 176.519961 
L 670.26522 177.484171 
L 706.967123 163.438281 
L 743.669026 167.637062 
L 780.370929 163.242912 
L 817.072831 149.835872 
L 817.072831 31.884537 
L 817.072831 31.884537 
L 780.370929 37.135503 
L 743.669026 45.616681 
L 706.967123 52.654832 
L 670.26522 64.091002 
L 633.563318 66.119904 
L 596.861415 65.372538 
L 560.159512 58.526453 
L 523.457609 68.236273 
L 486.755707 60.068089 
z
" style="fill:#333333;fill-opacity:0.501961;"/>
   </g>
   <g id="text_10">
    <!-- AUC -->
    <g style="fill:#1a1a1a;" transform="translate(642.611706 17.150291)scale(0.088 -0.088)">
     <defs>
      <path d="M 556 4666 
L 1191 4666 
L 1191 1831 
Q 1191 1081 1462 751 
Q 1734 422 2344 422 
Q 2950 422 3222 751 
Q 3494 1081 3494 1831 
L 3494 4666 
L 4128 4666 
L 4128 1753 
Q 4128 841 3676 375 
Q 3225 -91 2344 -91 
Q 1459 -91 1007 375 
Q 556 841 556 1753 
L 556 4666 
z
" id="DejaVuSans-55" transform="scale(0.015625)"/>
      <path d="M 4122 4306 
L 4122 3641 
Q 3803 3938 3442 4084 
Q 3081 4231 2675 4231 
Q 1875 4231 1450 3742 
Q 1025 3253 1025 2328 
Q 1025 1406 1450 917 
Q 1875 428 2675 428 
Q 3081 428 3442 575 
Q 3803 722 4122 1019 
L 4122 359 
Q 3791 134 3420 21 
Q 3050 -91 2638 -91 
Q 1578 -91 968 557 
Q 359 1206 359 2328 
Q 359 3453 968 4101 
Q 1578 4750 2638 4750 
Q 3056 4750 3426 4639 
Q 3797 4528 4122 4306 
z
" id="DejaVuSans-43" transform="scale(0.015625)"/>
     </defs>
     <use xlink:href="#DejaVuSans-41"/>
     <use x="68.408203" xlink:href="#DejaVuSans-55"/>
     <use x="141.601562" xlink:href="#DejaVuSans-43"/>
    </g>
   </g>
  </g>
  <g id="axes_3">
   <g id="patch_6">
    <path d="M 52.388688 465.764082 
L 415.737525 465.764082 
L 415.737525 253.674082 
L 52.388688 253.674082 
z
" style="fill:#ebebeb;"/>
   </g>
   <g id="matplotlib.axis_5">
    <g id="xtick_21">
     <g id="line2d_44">
      <path clip-path="url(#pd061ee8500)" d="M 68.904544 465.764082 
L 68.904544 253.674082 
" style="fill:none;stroke:#ffffff;stroke-linecap:square;"/>
     </g>
     <g id="line2d_45">
      <path d="M 68.904544 465.764082 
" style="fill:none;stroke:#333333;stroke-linecap:square;stroke-width:1.5;"/>
      <defs>
       <path d="M 0 0 
L 0 2.75 
" id="m6a29b4640a" style="stroke:#000000;"/>
      </defs>
      <g>
       <use style="fill:#333333;stroke:#000000;" x="68.904544" xlink:href="#m6a29b4640a" y="465.764082"/>
      </g>
     </g>
     <g id="text_11">
      <!-- 0 -->
      <g style="fill:#4d4d4d;" transform="translate(66.105044 477.400707)scale(0.088 -0.088)">
       <use xlink:href="#DejaVuSans-30"/>
      </g>
     </g>
    </g>
    <g id="xtick_22">
     <g id="line2d_46">
      <path clip-path="url(#pd061ee8500)" d="M 142.308349 465.764082 
L 142.308349 253.674082 
" style="fill:none;stroke:#ffffff;stroke-linecap:square;"/>
     </g>
     <g id="line2d_47">
      <path d="M 142.308349 465.764082 
" style="fill:none;stroke:#333333;stroke-linecap:square;stroke-width:1.5;"/>
      <g>
       <use style="fill:#333333;stroke:#000000;" x="142.308349" xlink:href="#m6a29b4640a" y="465.764082"/>
      </g>
     </g>
     <g id="text_12">
      <!-- 0.1 -->
      <g style="fill:#4d4d4d;" transform="translate(135.310974 477.400707)scale(0.088 -0.088)">
       <defs>
        <path d="M 794 531 
L 1825 531 
L 1825 4091 
L 703 3866 
L 703 4441 
L 1819 4666 
L 2450 4666 
L 2450 531 
L 3481 531 
L 3481 0 
L 794 0 
L 794 531 
z
" id="DejaVuSans-31" transform="scale(0.015625)"/>
       </defs>
       <use xlink:href="#DejaVuSans-30"/>
       <use x="63.623047" xlink:href="#DejaVuSans-2e"/>
       <use x="95.410156" xlink:href="#DejaVuSans-31"/>
      </g>
     </g>
    </g>
    <g id="xtick_23">
     <g id="line2d_48">
      <path clip-path="url(#pd061ee8500)" d="M 215.712155 465.764082 
L 215.712155 253.674082 
" style="fill:none;stroke:#ffffff;stroke-linecap:square;"/>
     </g>
     <g id="line2d_49">
      <path d="M 215.712155 465.764082 
" style="fill:none;stroke:#333333;stroke-linecap:square;stroke-width:1.5;"/>
      <g>
       <use style="fill:#333333;stroke:#000000;" x="215.712155" xlink:href="#m6a29b4640a" y="465.764082"/>
      </g>
     </g>
     <g id="text_13">
      <!-- 0.2 -->
      <g style="fill:#4d4d4d;" transform="translate(208.71478 477.400707)scale(0.088 -0.088)">
       <use xlink:href="#DejaVuSans-30"/>
       <use x="63.623047" xlink:href="#DejaVuSans-2e"/>
       <use x="95.410156" xlink:href="#DejaVuSans-32"/>
      </g>
     </g>
    </g>
    <g id="xtick_24">
     <g id="line2d_50">
      <path clip-path="url(#pd061ee8500)" d="M 289.11596 465.764082 
L 289.11596 253.674082 
" style="fill:none;stroke:#ffffff;stroke-linecap:square;"/>
     </g>
     <g id="line2d_51">
      <path d="M 289.11596 465.764082 
" style="fill:none;stroke:#333333;stroke-linecap:square;stroke-width:1.5;"/>
      <g>
       <use style="fill:#333333;stroke:#000000;" x="289.11596" xlink:href="#m6a29b4640a" y="465.764082"/>
      </g>
     </g>
     <g id="text_14">
      <!-- 0.3 -->
      <g style="fill:#4d4d4d;" transform="translate(282.118585 477.400707)scale(0.088 -0.088)">
       <use xlink:href="#DejaVuSans-30"/>
       <use x="63.623047" xlink:href="#DejaVuSans-2e"/>
       <use x="95.410156" xlink:href="#DejaVuSans-33"/>
      </g>
     </g>
    </g>
    <g id="xtick_25">
     <g id="line2d_52">
      <path clip-path="url(#pd061ee8500)" d="M 362.519766 465.764082 
L 362.519766 253.674082 
" style="fill:none;stroke:#ffffff;stroke-linecap:square;"/>
     </g>
     <g id="line2d_53">
      <path d="M 362.519766 465.764082 
" style="fill:none;stroke:#333333;stroke-linecap:square;stroke-width:1.5;"/>
      <g>
       <use style="fill:#333333;stroke:#000000;" x="362.519766" xlink:href="#m6a29b4640a" y="465.764082"/>
      </g>
     </g>
     <g id="text_15">
      <!-- 0.4 -->
      <g style="fill:#4d4d4d;" transform="translate(355.522391 477.400707)scale(0.088 -0.088)">
       <use xlink:href="#DejaVuSans-30"/>
       <use x="63.623047" xlink:href="#DejaVuSans-2e"/>
       <use x="95.410156" xlink:href="#DejaVuSans-34"/>
      </g>
     </g>
    </g>
    <g id="xtick_26">
     <g id="line2d_54">
      <path clip-path="url(#pd061ee8500)" d="M 105.606446 465.764082 
L 105.606446 253.674082 
" style="fill:none;stroke:#ffffff;stroke-linecap:square;stroke-width:0.5;"/>
     </g>
    </g>
    <g id="xtick_27">
     <g id="line2d_55">
      <path clip-path="url(#pd061ee8500)" d="M 179.010252 465.764082 
L 179.010252 253.674082 
" style="fill:none;stroke:#ffffff;stroke-linecap:square;stroke-width:0.5;"/>
     </g>
    </g>
    <g id="xtick_28">
     <g id="line2d_56">
      <path clip-path="url(#pd061ee8500)" d="M 252.414057 465.764082 
L 252.414057 253.674082 
" style="fill:none;stroke:#ffffff;stroke-linecap:square;stroke-width:0.5;"/>
     </g>
    </g>
    <g id="xtick_29">
     <g id="line2d_57">
      <path clip-path="url(#pd061ee8500)" d="M 325.817863 465.764082 
L 325.817863 253.674082 
" style="fill:none;stroke:#ffffff;stroke-linecap:square;stroke-width:0.5;"/>
     </g>
    </g>
    <g id="xtick_30">
     <g id="line2d_58">
      <path clip-path="url(#pd061ee8500)" d="M 399.221668 465.764082 
L 399.221668 253.674082 
" style="fill:none;stroke:#ffffff;stroke-linecap:square;stroke-width:0.5;"/>
     </g>
    </g>
   </g>
   <g id="matplotlib.axis_6">
    <g id="ytick_15">
     <g id="line2d_59">
      <path clip-path="url(#pd061ee8500)" d="M 52.388688 412.35072 
L 415.737525 412.35072 
" style="fill:none;stroke:#ffffff;stroke-linecap:square;"/>
     </g>
     <g id="line2d_60">
      <path d="M 52.388688 412.35072 
" style="fill:none;stroke:#333333;stroke-linecap:square;stroke-width:1.5;"/>
      <g>
       <use style="fill:#333333;stroke:#000000;" x="52.388688" xlink:href="#md945d820b2" y="412.35072"/>
      </g>
     </g>
     <g id="text_16">
      <!-- 0.890 -->
      <g style="fill:#4d4d4d;" transform="translate(22.245938 414.77897)scale(0.088 -0.088)">
       <use xlink:href="#DejaVuSans-30"/>
       <use x="63.623047" xlink:href="#DejaVuSans-2e"/>
       <use x="95.410156" xlink:href="#DejaVuSans-38"/>
       <use x="159.033203" xlink:href="#DejaVuSans-39"/>
       <use x="222.65625" xlink:href="#DejaVuSans-30"/>
      </g>
     </g>
    </g>
    <g id="ytick_16">
     <g id="line2d_61">
      <path clip-path="url(#pd061ee8500)" d="M 52.388688 342.32472 
L 415.737525 342.32472 
" style="fill:none;stroke:#ffffff;stroke-linecap:square;"/>
     </g>
     <g id="line2d_62">
      <path d="M 52.388688 342.32472 
" style="fill:none;stroke:#333333;stroke-linecap:square;stroke-width:1.5;"/>
      <g>
       <use style="fill:#333333;stroke:#000000;" x="52.388688" xlink:href="#md945d820b2" y="342.32472"/>
      </g>
     </g>
     <g id="text_17">
      <!-- 0.892 -->
      <g style="fill:#4d4d4d;" transform="translate(22.245938 344.75297)scale(0.088 -0.088)">
       <use xlink:href="#DejaVuSans-30"/>
       <use x="63.623047" xlink:href="#DejaVuSans-2e"/>
       <use x="95.410156" xlink:href="#DejaVuSans-38"/>
       <use x="159.033203" xlink:href="#DejaVuSans-39"/>
       <use x="222.65625" xlink:href="#DejaVuSans-32"/>
      </g>
     </g>
    </g>
    <g id="ytick_17">
     <g id="line2d_63">
      <path clip-path="url(#pd061ee8500)" d="M 52.388688 272.298721 
L 415.737525 272.298721 
" style="fill:none;stroke:#ffffff;stroke-linecap:square;"/>
     </g>
     <g id="line2d_64">
      <path d="M 52.388688 272.298721 
" style="fill:none;stroke:#333333;stroke-linecap:square;stroke-width:1.5;"/>
      <g>
       <use style="fill:#333333;stroke:#000000;" x="52.388688" xlink:href="#md945d820b2" y="272.298721"/>
      </g>
     </g>
     <g id="text_18">
      <!-- 0.894 -->
      <g style="fill:#4d4d4d;" transform="translate(22.245938 274.726971)scale(0.088 -0.088)">
       <use xlink:href="#DejaVuSans-30"/>
       <use x="63.623047" xlink:href="#DejaVuSans-2e"/>
       <use x="95.410156" xlink:href="#DejaVuSans-38"/>
       <use x="159.033203" xlink:href="#DejaVuSans-39"/>
       <use x="222.65625" xlink:href="#DejaVuSans-34"/>
      </g>
     </g>
    </g>
    <g id="ytick_18">
     <g id="line2d_65">
      <path clip-path="url(#pd061ee8500)" d="M 52.388688 447.36372 
L 415.737525 447.36372 
" style="fill:none;stroke:#ffffff;stroke-linecap:square;stroke-width:0.5;"/>
     </g>
    </g>
    <g id="ytick_19">
     <g id="line2d_66">
      <path clip-path="url(#pd061ee8500)" d="M 52.388688 377.33772 
L 415.737525 377.33772 
" style="fill:none;stroke:#ffffff;stroke-linecap:square;stroke-width:0.5;"/>
     </g>
    </g>
    <g id="ytick_20">
     <g id="line2d_67">
      <path clip-path="url(#pd061ee8500)" d="M 52.388688 307.311721 
L 415.737525 307.311721 
" style="fill:none;stroke:#ffffff;stroke-linecap:square;stroke-width:0.5;"/>
     </g>
    </g>
   </g>
   <g id="line2d_68">
    <path clip-path="url(#pd061ee8500)" d="M 68.904544 367.726606 
L 105.606446 379.24803 
L 142.308349 383.04318 
L 179.010252 376.542786 
L 215.712155 364.238259 
L 252.414057 370.864782 
L 289.11596 352.13854 
L 325.817863 351.944274 
L 362.519766 357.374353 
L 399.221668 323.931997 
" style="fill:none;stroke:#000000;stroke-width:0.886227;"/>
   </g>
   <g id="PathCollection_3">
    <path clip-path="url(#pd061ee8500)" d="M 68.904544 369.49906 
C 69.374604 369.49906 69.825475 369.312303 70.157858 368.97992 
C 70.490241 368.647537 70.676998 368.196666 70.676998 367.726606 
C 70.676998 367.256545 70.490241 366.805674 70.157858 366.473292 
C 69.825475 366.140909 69.374604 365.954152 68.904544 365.954152 
C 68.434483 365.954152 67.983612 366.140909 67.65123 366.473292 
C 67.318847 366.805674 67.13209 367.256545 67.13209 367.726606 
C 67.13209 368.196666 67.318847 368.647537 67.65123 368.97992 
C 67.983612 369.312303 68.434483 369.49906 68.904544 369.49906 
z
" style="stroke:#000000;stroke-width:0.886227;"/>
    <path clip-path="url(#pd061ee8500)" d="M 105.606446 381.020484 
C 106.076507 381.020484 106.527378 380.833727 106.859761 380.501344 
C 107.192143 380.168961 107.3789 379.71809 107.3789 379.24803 
C 107.3789 378.77797 107.192143 378.327099 106.859761 377.994716 
C 106.527378 377.662333 106.076507 377.475576 105.606446 377.475576 
C 105.136386 377.475576 104.685515 377.662333 104.353132 377.994716 
C 104.02075 378.327099 103.833993 378.77797 103.833993 379.24803 
C 103.833993 379.71809 104.02075 380.168961 104.353132 380.501344 
C 104.685515 380.833727 105.136386 381.020484 105.606446 381.020484 
z
" style="stroke:#000000;stroke-width:0.886227;"/>
    <path clip-path="url(#pd061ee8500)" d="M 142.308349 384.815634 
C 142.778409 384.815634 143.229281 384.628877 143.561663 384.296494 
C 143.894046 383.964112 144.080803 383.51324 144.080803 383.04318 
C 144.080803 382.57312 143.894046 382.122249 143.561663 381.789866 
C 143.229281 381.457483 142.778409 381.270726 142.308349 381.270726 
C 141.838289 381.270726 141.387418 381.457483 141.055035 381.789866 
C 140.722652 382.122249 140.535895 382.57312 140.535895 383.04318 
C 140.535895 383.51324 140.722652 383.964112 141.055035 384.296494 
C 141.387418 384.628877 141.838289 384.815634 142.308349 384.815634 
z
" style="stroke:#000000;stroke-width:0.886227;"/>
    <path clip-path="url(#pd061ee8500)" d="M 179.010252 378.31524 
C 179.480312 378.31524 179.931183 378.128483 180.263566 377.7961 
C 180.595949 377.463717 180.782706 377.012846 180.782706 376.542786 
C 180.782706 376.072726 180.595949 375.621855 180.263566 375.289472 
C 179.931183 374.957089 179.480312 374.770332 179.010252 374.770332 
C 178.540192 374.770332 178.089321 374.957089 177.756938 375.289472 
C 177.424555 375.621855 177.237798 376.072726 177.237798 376.542786 
C 177.237798 377.012846 177.424555 377.463717 177.756938 377.7961 
C 178.089321 378.128483 178.540192 378.31524 179.010252 378.31524 
z
" style="stroke:#000000;stroke-width:0.886227;"/>
    <path clip-path="url(#pd061ee8500)" d="M 215.712155 366.010713 
C 216.182215 366.010713 216.633086 365.823956 216.965469 365.491573 
C 217.297852 365.15919 217.484609 364.708319 217.484609 364.238259 
C 217.484609 363.768198 217.297852 363.317327 216.965469 362.984945 
C 216.633086 362.652562 216.182215 362.465805 215.712155 362.465805 
C 215.242094 362.465805 214.791223 362.652562 214.458841 362.984945 
C 214.126458 363.317327 213.939701 363.768198 213.939701 364.238259 
C 213.939701 364.708319 214.126458 365.15919 214.458841 365.491573 
C 214.791223 365.823956 215.242094 366.010713 215.712155 366.010713 
z
" style="stroke:#000000;stroke-width:0.886227;"/>
    <path clip-path="url(#pd061ee8500)" d="M 252.414057 372.637236 
C 252.884118 372.637236 253.334989 372.450479 253.667372 372.118097 
C 253.999754 371.785714 254.186511 371.334843 254.186511 370.864782 
C 254.186511 370.394722 253.999754 369.943851 253.667372 369.611468 
C 253.334989 369.279086 252.884118 369.092329 252.414057 369.092329 
C 251.943997 369.092329 251.493126 369.279086 251.160743 369.611468 
C 250.828361 369.943851 250.641604 370.394722 250.641604 370.864782 
C 250.641604 371.334843 250.828361 371.785714 251.160743 372.118097 
C 251.493126 372.450479 251.943997 372.637236 252.414057 372.637236 
z
" style="stroke:#000000;stroke-width:0.886227;"/>
    <path clip-path="url(#pd061ee8500)" d="M 289.11596 353.910994 
C 289.58602 353.910994 290.036892 353.724237 290.369274 353.391854 
C 290.701657 353.059471 290.888414 352.6086 290.888414 352.13854 
C 290.888414 351.66848 290.701657 351.217608 290.369274 350.885226 
C 290.036892 350.552843 289.58602 350.366086 289.11596 350.366086 
C 288.6459 350.366086 288.195029 350.552843 287.862646 350.885226 
C 287.530263 351.217608 287.343506 351.66848 287.343506 352.13854 
C 287.343506 352.6086 287.530263 353.059471 287.862646 353.391854 
C 288.195029 353.724237 288.6459 353.910994 289.11596 353.910994 
z
" style="stroke:#000000;stroke-width:0.886227;"/>
    <path clip-path="url(#pd061ee8500)" d="M 325.817863 353.716728 
C 326.287923 353.716728 326.738794 353.529971 327.071177 353.197589 
C 327.40356 352.865206 327.590317 352.414335 327.590317 351.944274 
C 327.590317 351.474214 327.40356 351.023343 327.071177 350.69096 
C 326.738794 350.358578 326.287923 350.171821 325.817863 350.171821 
C 325.347803 350.171821 324.896932 350.358578 324.564549 350.69096 
C 324.232166 351.023343 324.045409 351.474214 324.045409 351.944274 
C 324.045409 352.414335 324.232166 352.865206 324.564549 353.197589 
C 324.896932 353.529971 325.347803 353.716728 325.817863 353.716728 
z
" style="stroke:#000000;stroke-width:0.886227;"/>
    <path clip-path="url(#pd061ee8500)" d="M 362.519766 359.146806 
C 362.989826 359.146806 363.440697 358.960049 363.77308 358.627667 
C 364.105463 358.295284 364.29222 357.844413 364.29222 357.374353 
C 364.29222 356.904292 364.105463 356.453421 363.77308 356.121038 
C 363.440697 355.788656 362.989826 355.601899 362.519766 355.601899 
C 362.049705 355.601899 361.598834 355.788656 361.266452 356.121038 
C 360.934069 356.453421 360.747312 356.904292 360.747312 357.374353 
C 360.747312 357.844413 360.934069 358.295284 361.266452 358.627667 
C 361.598834 358.960049 362.049705 359.146806 362.519766 359.146806 
z
" style="stroke:#000000;stroke-width:0.886227;"/>
    <path clip-path="url(#pd061ee8500)" d="M 399.221668 325.70445 
C 399.691729 325.70445 400.1426 325.517694 400.474983 325.185311 
C 400.807365 324.852928 400.994122 324.402057 400.994122 323.931997 
C 400.994122 323.461936 400.807365 323.011065 400.474983 322.678682 
C 400.1426 322.3463 399.691729 322.159543 399.221668 322.159543 
C 398.751608 322.159543 398.300737 322.3463 397.968354 322.678682 
C 397.635972 323.011065 397.449215 323.461936 397.449215 323.931997 
C 397.449215 324.402057 397.635972 324.852928 397.968354 325.185311 
C 398.300737 325.517694 398.751608 325.70445 399.221668 325.70445 
z
" style="stroke:#000000;stroke-width:0.886227;"/>
   </g>
   <g id="patch_7">
    <path d="M 52.388688 253.674082 
L 415.737525 253.674082 
L 415.737525 238.63 
L 52.388688 238.63 
z
" style="fill:#d9d9d9;"/>
   </g>
   <g id="PolyCollection_3">
    <path clip-path="url(#pd061ee8500)" d="M 68.904544 292.757077 
L 68.904544 442.696134 
L 105.606446 451.468799 
L 142.308349 456.123628 
L 179.010252 440.509643 
L 215.712155 425.612471 
L 252.414057 438.742786 
L 289.11596 408.124507 
L 325.817863 422.700716 
L 362.519766 421.790453 
L 399.221668 384.549456 
L 399.221668 263.314537 
L 399.221668 263.314537 
L 362.519766 292.958252 
L 325.817863 281.187833 
L 289.11596 296.152572 
L 252.414057 302.986779 
L 215.712155 302.864046 
L 179.010252 312.575929 
L 142.308349 309.962733 
L 105.606446 307.027261 
L 68.904544 292.757077 
z
" style="fill:#333333;fill-opacity:0.501961;"/>
   </g>
   <g id="text_19">
    <!-- F1 score: &lt;=50K -->
    <g style="fill:#1a1a1a;" transform="translate(196.774481 248.580291)scale(0.088 -0.088)">
     <defs>
      <path d="M 628 4666 
L 3309 4666 
L 3309 4134 
L 1259 4134 
L 1259 2759 
L 3109 2759 
L 3109 2228 
L 1259 2228 
L 1259 0 
L 628 0 
L 628 4666 
z
" id="DejaVuSans-46" transform="scale(0.015625)"/>
      <path id="DejaVuSans-20" transform="scale(0.015625)"/>
      <path d="M 2834 3397 
L 2834 2853 
Q 2591 2978 2328 3040 
Q 2066 3103 1784 3103 
Q 1356 3103 1142 2972 
Q 928 2841 928 2578 
Q 928 2378 1081 2264 
Q 1234 2150 1697 2047 
L 1894 2003 
Q 2506 1872 2764 1633 
Q 3022 1394 3022 966 
Q 3022 478 2636 193 
Q 2250 -91 1575 -91 
Q 1294 -91 989 -36 
Q 684 19 347 128 
L 347 722 
Q 666 556 975 473 
Q 1284 391 1588 391 
Q 1994 391 2212 530 
Q 2431 669 2431 922 
Q 2431 1156 2273 1281 
Q 2116 1406 1581 1522 
L 1381 1569 
Q 847 1681 609 1914 
Q 372 2147 372 2553 
Q 372 3047 722 3315 
Q 1072 3584 1716 3584 
Q 2034 3584 2315 3537 
Q 2597 3491 2834 3397 
z
" id="DejaVuSans-73" transform="scale(0.015625)"/>
      <path d="M 1959 3097 
Q 1497 3097 1228 2736 
Q 959 2375 959 1747 
Q 959 1119 1226 758 
Q 1494 397 1959 397 
Q 2419 397 2687 759 
Q 2956 1122 2956 1747 
Q 2956 2369 2687 2733 
Q 2419 3097 1959 3097 
z
M 1959 3584 
Q 2709 3584 3137 3096 
Q 3566 2609 3566 1747 
Q 3566 888 3137 398 
Q 2709 -91 1959 -91 
Q 1206 -91 779 398 
Q 353 888 353 1747 
Q 353 2609 779 3096 
Q 1206 3584 1959 3584 
z
" id="DejaVuSans-6f" transform="scale(0.015625)"/>
      <path d="M 750 794 
L 1409 794 
L 1409 0 
L 750 0 
L 750 794 
z
M 750 3309 
L 1409 3309 
L 1409 2516 
L 750 2516 
L 750 3309 
z
" id="DejaVuSans-3a" transform="scale(0.015625)"/>
      <path d="M 4684 3150 
L 1459 2003 
L 4684 863 
L 4684 294 
L 678 1747 
L 678 2266 
L 4684 3719 
L 4684 3150 
z
" id="DejaVuSans-3c" transform="scale(0.015625)"/>
      <path d="M 678 2906 
L 4684 2906 
L 4684 2381 
L 678 2381 
L 678 2906 
z
M 678 1631 
L 4684 1631 
L 4684 1100 
L 678 1100 
L 678 1631 
z
" id="DejaVuSans-3d" transform="scale(0.015625)"/>
      <path d="M 691 4666 
L 3169 4666 
L 3169 4134 
L 1269 4134 
L 1269 2991 
Q 1406 3038 1543 3061 
Q 1681 3084 1819 3084 
Q 2600 3084 3056 2656 
Q 3513 2228 3513 1497 
Q 3513 744 3044 326 
Q 2575 -91 1722 -91 
Q 1428 -91 1123 -41 
Q 819 9 494 109 
L 494 744 
Q 775 591 1075 516 
Q 1375 441 1709 441 
Q 2250 441 2565 725 
Q 2881 1009 2881 1497 
Q 2881 1984 2565 2268 
Q 2250 2553 1709 2553 
Q 1456 2553 1204 2497 
Q 953 2441 691 2322 
L 691 4666 
z
" id="DejaVuSans-35" transform="scale(0.015625)"/>
      <path d="M 628 4666 
L 1259 4666 
L 1259 2694 
L 3353 4666 
L 4166 4666 
L 1850 2491 
L 4331 0 
L 3500 0 
L 1259 2247 
L 1259 0 
L 628 0 
L 628 4666 
z
" id="DejaVuSans-4b" transform="scale(0.015625)"/>
     </defs>
     <use xlink:href="#DejaVuSans-46"/>
     <use x="57.519531" xlink:href="#DejaVuSans-31"/>
     <use x="121.142578" xlink:href="#DejaVuSans-20"/>
     <use x="152.929688" xlink:href="#DejaVuSans-73"/>
     <use x="205.029297" xlink:href="#DejaVuSans-63"/>
     <use x="260.009766" xlink:href="#DejaVuSans-6f"/>
     <use x="321.191406" xlink:href="#DejaVuSans-72"/>
     <use x="360.054688" xlink:href="#DejaVuSans-65"/>
     <use x="421.578125" xlink:href="#DejaVuSans-3a"/>
     <use x="455.269531" xlink:href="#DejaVuSans-20"/>
     <use x="487.056641" xlink:href="#DejaVuSans-3c"/>
     <use x="570.845703" xlink:href="#DejaVuSans-3d"/>
     <use x="654.634766" xlink:href="#DejaVuSans-35"/>
     <use x="718.257812" xlink:href="#DejaVuSans-30"/>
     <use x="781.880859" xlink:href="#DejaVuSans-4b"/>
    </g>
   </g>
  </g>
  <g id="axes_4">
   <g id="patch_8">
    <path d="M 470.23985 465.764082 
L 833.588688 465.764082 
L 833.588688 253.674082 
L 470.23985 253.674082 
z
" style="fill:#ebebeb;"/>
   </g>
   <g id="matplotlib.axis_7">
    <g id="xtick_31">
     <g id="line2d_69">
      <path clip-path="url(#p0ae052a37b)" d="M 486.755707 465.764082 
L 486.755707 253.674082 
" style="fill:none;stroke:#ffffff;stroke-linecap:square;"/>
     </g>
     <g id="line2d_70">
      <path d="M 486.755707 465.764082 
" style="fill:none;stroke:#333333;stroke-linecap:square;stroke-width:1.5;"/>
      <g>
       <use style="fill:#333333;stroke:#000000;" x="486.755707" xlink:href="#m6a29b4640a" y="465.764082"/>
      </g>
     </g>
     <g id="text_20">
      <!-- 0 -->
      <g style="fill:#4d4d4d;" transform="translate(483.956207 477.400707)scale(0.088 -0.088)">
       <use xlink:href="#DejaVuSans-30"/>
      </g>
     </g>
    </g>
    <g id="xtick_32">
     <g id="line2d_71">
      <path clip-path="url(#p0ae052a37b)" d="M 560.159512 465.764082 
L 560.159512 253.674082 
" style="fill:none;stroke:#ffffff;stroke-linecap:square;"/>
     </g>
     <g id="line2d_72">
      <path d="M 560.159512 465.764082 
" style="fill:none;stroke:#333333;stroke-linecap:square;stroke-width:1.5;"/>
      <g>
       <use style="fill:#333333;stroke:#000000;" x="560.159512" xlink:href="#m6a29b4640a" y="465.764082"/>
      </g>
     </g>
     <g id="text_21">
      <!-- 0.1 -->
      <g style="fill:#4d4d4d;" transform="translate(553.162137 477.400707)scale(0.088 -0.088)">
       <use xlink:href="#DejaVuSans-30"/>
       <use x="63.623047" xlink:href="#DejaVuSans-2e"/>
       <use x="95.410156" xlink:href="#DejaVuSans-31"/>
      </g>
     </g>
    </g>
    <g id="xtick_33">
     <g id="line2d_73">
      <path clip-path="url(#p0ae052a37b)" d="M 633.563318 465.764082 
L 633.563318 253.674082 
" style="fill:none;stroke:#ffffff;stroke-linecap:square;"/>
     </g>
     <g id="line2d_74">
      <path d="M 633.563318 465.764082 
" style="fill:none;stroke:#333333;stroke-linecap:square;stroke-width:1.5;"/>
      <g>
       <use style="fill:#333333;stroke:#000000;" x="633.563318" xlink:href="#m6a29b4640a" y="465.764082"/>
      </g>
     </g>
     <g id="text_22">
      <!-- 0.2 -->
      <g style="fill:#4d4d4d;" transform="translate(626.565943 477.400707)scale(0.088 -0.088)">
       <use xlink:href="#DejaVuSans-30"/>
       <use x="63.623047" xlink:href="#DejaVuSans-2e"/>
       <use x="95.410156" xlink:href="#DejaVuSans-32"/>
      </g>
     </g>
    </g>
    <g id="xtick_34">
     <g id="line2d_75">
      <path clip-path="url(#p0ae052a37b)" d="M 706.967123 465.764082 
L 706.967123 253.674082 
" style="fill:none;stroke:#ffffff;stroke-linecap:square;"/>
     </g>
     <g id="line2d_76">
      <path d="M 706.967123 465.764082 
" style="fill:none;stroke:#333333;stroke-linecap:square;stroke-width:1.5;"/>
      <g>
       <use style="fill:#333333;stroke:#000000;" x="706.967123" xlink:href="#m6a29b4640a" y="465.764082"/>
      </g>
     </g>
     <g id="text_23">
      <!-- 0.3 -->
      <g style="fill:#4d4d4d;" transform="translate(699.969748 477.400707)scale(0.088 -0.088)">
       <use xlink:href="#DejaVuSans-30"/>
       <use x="63.623047" xlink:href="#DejaVuSans-2e"/>
       <use x="95.410156" xlink:href="#DejaVuSans-33"/>
      </g>
     </g>
    </g>
    <g id="xtick_35">
     <g id="line2d_77">
      <path clip-path="url(#p0ae052a37b)" d="M 780.370929 465.764082 
L 780.370929 253.674082 
" style="fill:none;stroke:#ffffff;stroke-linecap:square;"/>
     </g>
     <g id="line2d_78">
      <path d="M 780.370929 465.764082 
" style="fill:none;stroke:#333333;stroke-linecap:square;stroke-width:1.5;"/>
      <g>
       <use style="fill:#333333;stroke:#000000;" x="780.370929" xlink:href="#m6a29b4640a" y="465.764082"/>
      </g>
     </g>
     <g id="text_24">
      <!-- 0.4 -->
      <g style="fill:#4d4d4d;" transform="translate(773.373554 477.400707)scale(0.088 -0.088)">
       <use xlink:href="#DejaVuSans-30"/>
       <use x="63.623047" xlink:href="#DejaVuSans-2e"/>
       <use x="95.410156" xlink:href="#DejaVuSans-34"/>
      </g>
     </g>
    </g>
    <g id="xtick_36">
     <g id="line2d_79">
      <path clip-path="url(#p0ae052a37b)" d="M 523.457609 465.764082 
L 523.457609 253.674082 
" style="fill:none;stroke:#ffffff;stroke-linecap:square;stroke-width:0.5;"/>
     </g>
    </g>
    <g id="xtick_37">
     <g id="line2d_80">
      <path clip-path="url(#p0ae052a37b)" d="M 596.861415 465.764082 
L 596.861415 253.674082 
" style="fill:none;stroke:#ffffff;stroke-linecap:square;stroke-width:0.5;"/>
     </g>
    </g>
    <g id="xtick_38">
     <g id="line2d_81">
      <path clip-path="url(#p0ae052a37b)" d="M 670.26522 465.764082 
L 670.26522 253.674082 
" style="fill:none;stroke:#ffffff;stroke-linecap:square;stroke-width:0.5;"/>
     </g>
    </g>
    <g id="xtick_39">
     <g id="line2d_82">
      <path clip-path="url(#p0ae052a37b)" d="M 743.669026 465.764082 
L 743.669026 253.674082 
" style="fill:none;stroke:#ffffff;stroke-linecap:square;stroke-width:0.5;"/>
     </g>
    </g>
    <g id="xtick_40">
     <g id="line2d_83">
      <path clip-path="url(#p0ae052a37b)" d="M 817.072831 465.764082 
L 817.072831 253.674082 
" style="fill:none;stroke:#ffffff;stroke-linecap:square;stroke-width:0.5;"/>
     </g>
    </g>
    <g id="text_25">
     <!-- Qtr spread 300 epochs -->
     <g transform="translate(367.543453 491.989114)scale(0.11 -0.11)">
      <defs>
       <path d="M 2522 4238 
Q 1834 4238 1429 3725 
Q 1025 3213 1025 2328 
Q 1025 1447 1429 934 
Q 1834 422 2522 422 
Q 3209 422 3611 934 
Q 4013 1447 4013 2328 
Q 4013 3213 3611 3725 
Q 3209 4238 2522 4238 
z
M 3406 84 
L 4238 -825 
L 3475 -825 
L 2784 -78 
Q 2681 -84 2626 -87 
Q 2572 -91 2522 -91 
Q 1538 -91 948 567 
Q 359 1225 359 2328 
Q 359 3434 948 4092 
Q 1538 4750 2522 4750 
Q 3503 4750 4090 4092 
Q 4678 3434 4678 2328 
Q 4678 1516 4351 937 
Q 4025 359 3406 84 
z
" id="DejaVuSans-51" transform="scale(0.015625)"/>
       <path d="M 1172 4494 
L 1172 3500 
L 2356 3500 
L 2356 3053 
L 1172 3053 
L 1172 1153 
Q 1172 725 1289 603 
Q 1406 481 1766 481 
L 2356 481 
L 2356 0 
L 1766 0 
Q 1100 0 847 248 
Q 594 497 594 1153 
L 594 3053 
L 172 3053 
L 172 3500 
L 594 3500 
L 594 4494 
L 1172 4494 
z
" id="DejaVuSans-74" transform="scale(0.015625)"/>
       <path d="M 1159 525 
L 1159 -1331 
L 581 -1331 
L 581 3500 
L 1159 3500 
L 1159 2969 
Q 1341 3281 1617 3432 
Q 1894 3584 2278 3584 
Q 2916 3584 3314 3078 
Q 3713 2572 3713 1747 
Q 3713 922 3314 415 
Q 2916 -91 2278 -91 
Q 1894 -91 1617 61 
Q 1341 213 1159 525 
z
M 3116 1747 
Q 3116 2381 2855 2742 
Q 2594 3103 2138 3103 
Q 1681 3103 1420 2742 
Q 1159 2381 1159 1747 
Q 1159 1113 1420 752 
Q 1681 391 2138 391 
Q 2594 391 2855 752 
Q 3116 1113 3116 1747 
z
" id="DejaVuSans-70" transform="scale(0.015625)"/>
       <path d="M 2906 2969 
L 2906 4863 
L 3481 4863 
L 3481 0 
L 2906 0 
L 2906 525 
Q 2725 213 2448 61 
Q 2172 -91 1784 -91 
Q 1150 -91 751 415 
Q 353 922 353 1747 
Q 353 2572 751 3078 
Q 1150 3584 1784 3584 
Q 2172 3584 2448 3432 
Q 2725 3281 2906 2969 
z
M 947 1747 
Q 947 1113 1208 752 
Q 1469 391 1925 391 
Q 2381 391 2643 752 
Q 2906 1113 2906 1747 
Q 2906 2381 2643 2742 
Q 2381 3103 1925 3103 
Q 1469 3103 1208 2742 
Q 947 2381 947 1747 
z
" id="DejaVuSans-64" transform="scale(0.015625)"/>
       <path d="M 3513 2113 
L 3513 0 
L 2938 0 
L 2938 2094 
Q 2938 2591 2744 2837 
Q 2550 3084 2163 3084 
Q 1697 3084 1428 2787 
Q 1159 2491 1159 1978 
L 1159 0 
L 581 0 
L 581 4863 
L 1159 4863 
L 1159 2956 
Q 1366 3272 1645 3428 
Q 1925 3584 2291 3584 
Q 2894 3584 3203 3211 
Q 3513 2838 3513 2113 
z
" id="DejaVuSans-68" transform="scale(0.015625)"/>
      </defs>
      <use xlink:href="#DejaVuSans-51"/>
      <use x="78.710938" xlink:href="#DejaVuSans-74"/>
      <use x="117.919922" xlink:href="#DejaVuSans-72"/>
      <use x="159.033203" xlink:href="#DejaVuSans-20"/>
      <use x="190.820312" xlink:href="#DejaVuSans-73"/>
      <use x="242.919922" xlink:href="#DejaVuSans-70"/>
      <use x="306.396484" xlink:href="#DejaVuSans-72"/>
      <use x="345.259766" xlink:href="#DejaVuSans-65"/>
      <use x="406.783203" xlink:href="#DejaVuSans-61"/>
      <use x="468.0625" xlink:href="#DejaVuSans-64"/>
      <use x="531.539062" xlink:href="#DejaVuSans-20"/>
      <use x="563.326172" xlink:href="#DejaVuSans-33"/>
      <use x="626.949219" xlink:href="#DejaVuSans-30"/>
      <use x="690.572266" xlink:href="#DejaVuSans-30"/>
      <use x="754.195312" xlink:href="#DejaVuSans-20"/>
      <use x="785.982422" xlink:href="#DejaVuSans-65"/>
      <use x="847.505859" xlink:href="#DejaVuSans-70"/>
      <use x="910.982422" xlink:href="#DejaVuSans-6f"/>
      <use x="972.164062" xlink:href="#DejaVuSans-63"/>
      <use x="1027.144531" xlink:href="#DejaVuSans-68"/>
      <use x="1090.523438" xlink:href="#DejaVuSans-73"/>
     </g>
    </g>
   </g>
   <g id="matplotlib.axis_8">
    <g id="ytick_21">
     <g id="line2d_84">
      <path clip-path="url(#p0ae052a37b)" d="M 470.23985 426.788179 
L 833.588688 426.788179 
" style="fill:none;stroke:#ffffff;stroke-linecap:square;"/>
     </g>
     <g id="line2d_85">
      <path d="M 470.23985 426.788179 
" style="fill:none;stroke:#333333;stroke-linecap:square;stroke-width:1.5;"/>
      <g>
       <use style="fill:#333333;stroke:#000000;" x="470.23985" xlink:href="#md945d820b2" y="426.788179"/>
      </g>
     </g>
     <g id="text_26">
      <!-- 0.645 -->
      <g style="fill:#4d4d4d;" transform="translate(440.0971 429.216429)scale(0.088 -0.088)">
       <use xlink:href="#DejaVuSans-30"/>
       <use x="63.623047" xlink:href="#DejaVuSans-2e"/>
       <use x="95.410156" xlink:href="#DejaVuSans-36"/>
       <use x="159.033203" xlink:href="#DejaVuSans-34"/>
       <use x="222.65625" xlink:href="#DejaVuSans-35"/>
      </g>
     </g>
    </g>
    <g id="ytick_22">
     <g id="line2d_86">
      <path clip-path="url(#p0ae052a37b)" d="M 470.23985 370.731894 
L 833.588688 370.731894 
" style="fill:none;stroke:#ffffff;stroke-linecap:square;"/>
     </g>
     <g id="line2d_87">
      <path d="M 470.23985 370.731894 
" style="fill:none;stroke:#333333;stroke-linecap:square;stroke-width:1.5;"/>
      <g>
       <use style="fill:#333333;stroke:#000000;" x="470.23985" xlink:href="#md945d820b2" y="370.731894"/>
      </g>
     </g>
     <g id="text_27">
      <!-- 0.650 -->
      <g style="fill:#4d4d4d;" transform="translate(440.0971 373.160144)scale(0.088 -0.088)">
       <use xlink:href="#DejaVuSans-30"/>
       <use x="63.623047" xlink:href="#DejaVuSans-2e"/>
       <use x="95.410156" xlink:href="#DejaVuSans-36"/>
       <use x="159.033203" xlink:href="#DejaVuSans-35"/>
       <use x="222.65625" xlink:href="#DejaVuSans-30"/>
      </g>
     </g>
    </g>
    <g id="ytick_23">
     <g id="line2d_88">
      <path clip-path="url(#p0ae052a37b)" d="M 470.23985 314.67561 
L 833.588688 314.67561 
" style="fill:none;stroke:#ffffff;stroke-linecap:square;"/>
     </g>
     <g id="line2d_89">
      <path d="M 470.23985 314.67561 
" style="fill:none;stroke:#333333;stroke-linecap:square;stroke-width:1.5;"/>
      <g>
       <use style="fill:#333333;stroke:#000000;" x="470.23985" xlink:href="#md945d820b2" y="314.67561"/>
      </g>
     </g>
     <g id="text_28">
      <!-- 0.655 -->
      <g style="fill:#4d4d4d;" transform="translate(440.0971 317.10386)scale(0.088 -0.088)">
       <use xlink:href="#DejaVuSans-30"/>
       <use x="63.623047" xlink:href="#DejaVuSans-2e"/>
       <use x="95.410156" xlink:href="#DejaVuSans-36"/>
       <use x="159.033203" xlink:href="#DejaVuSans-35"/>
       <use x="222.65625" xlink:href="#DejaVuSans-35"/>
      </g>
     </g>
    </g>
    <g id="ytick_24">
     <g id="line2d_90">
      <path clip-path="url(#p0ae052a37b)" d="M 470.23985 258.619325 
L 833.588688 258.619325 
" style="fill:none;stroke:#ffffff;stroke-linecap:square;"/>
     </g>
     <g id="line2d_91">
      <path d="M 470.23985 258.619325 
" style="fill:none;stroke:#333333;stroke-linecap:square;stroke-width:1.5;"/>
      <g>
       <use style="fill:#333333;stroke:#000000;" x="470.23985" xlink:href="#md945d820b2" y="258.619325"/>
      </g>
     </g>
     <g id="text_29">
      <!-- 0.660 -->
      <g style="fill:#4d4d4d;" transform="translate(440.0971 261.047575)scale(0.088 -0.088)">
       <use xlink:href="#DejaVuSans-30"/>
       <use x="63.623047" xlink:href="#DejaVuSans-2e"/>
       <use x="95.410156" xlink:href="#DejaVuSans-36"/>
       <use x="159.033203" xlink:href="#DejaVuSans-36"/>
       <use x="222.65625" xlink:href="#DejaVuSans-30"/>
      </g>
     </g>
    </g>
    <g id="ytick_25">
     <g id="line2d_92">
      <path clip-path="url(#p0ae052a37b)" d="M 470.23985 454.816322 
L 833.588688 454.816322 
" style="fill:none;stroke:#ffffff;stroke-linecap:square;stroke-width:0.5;"/>
     </g>
    </g>
    <g id="ytick_26">
     <g id="line2d_93">
      <path clip-path="url(#p0ae052a37b)" d="M 470.23985 398.760037 
L 833.588688 398.760037 
" style="fill:none;stroke:#ffffff;stroke-linecap:square;stroke-width:0.5;"/>
     </g>
    </g>
    <g id="ytick_27">
     <g id="line2d_94">
      <path clip-path="url(#p0ae052a37b)" d="M 470.23985 342.703752 
L 833.588688 342.703752 
" style="fill:none;stroke:#ffffff;stroke-linecap:square;stroke-width:0.5;"/>
     </g>
    </g>
    <g id="ytick_28">
     <g id="line2d_95">
      <path clip-path="url(#p0ae052a37b)" d="M 470.23985 286.647467 
L 833.588688 286.647467 
" style="fill:none;stroke:#ffffff;stroke-linecap:square;stroke-width:0.5;"/>
     </g>
    </g>
   </g>
   <g id="line2d_96">
    <path clip-path="url(#p0ae052a37b)" d="M 486.755707 361.2604 
L 523.457609 366.175596 
L 560.159512 332.076912 
L 596.861415 357.134161 
L 633.563318 349.737728 
L 670.26522 347.763533 
L 706.967123 376.33523 
L 743.669026 333.245006 
L 780.370929 348.460094 
L 817.072831 349.762377 
" style="fill:none;stroke:#000000;stroke-width:0.886227;"/>
   </g>
   <g id="PathCollection_4">
    <path clip-path="url(#p0ae052a37b)" d="M 486.755707 363.032854 
C 487.225767 363.032854 487.676638 362.846097 488.009021 362.513714 
C 488.341403 362.181331 488.52816 361.73046 488.52816 361.2604 
C 488.52816 360.79034 488.341403 360.339469 488.009021 360.007086 
C 487.676638 359.674703 487.225767 359.487946 486.755707 359.487946 
C 486.285646 359.487946 485.834775 359.674703 485.502392 360.007086 
C 485.17001 360.339469 484.983253 360.79034 484.983253 361.2604 
C 484.983253 361.73046 485.17001 362.181331 485.502392 362.513714 
C 485.834775 362.846097 486.285646 363.032854 486.755707 363.032854 
z
" style="stroke:#000000;stroke-width:0.886227;"/>
    <path clip-path="url(#p0ae052a37b)" d="M 523.457609 367.94805 
C 523.92767 367.94805 524.378541 367.761293 524.710923 367.42891 
C 525.043306 367.096527 525.230063 366.645656 525.230063 366.175596 
C 525.230063 365.705536 525.043306 365.254665 524.710923 364.922282 
C 524.378541 364.589899 523.92767 364.403142 523.457609 364.403142 
C 522.987549 364.403142 522.536678 364.589899 522.204295 364.922282 
C 521.871912 365.254665 521.685155 365.705536 521.685155 366.175596 
C 521.685155 366.645656 521.871912 367.096527 522.204295 367.42891 
C 522.536678 367.761293 522.987549 367.94805 523.457609 367.94805 
z
" style="stroke:#000000;stroke-width:0.886227;"/>
    <path clip-path="url(#p0ae052a37b)" d="M 560.159512 333.849365 
C 560.629572 333.849365 561.080443 333.662608 561.412826 333.330226 
C 561.745209 332.997843 561.931966 332.546972 561.931966 332.076912 
C 561.931966 331.606851 561.745209 331.15598 561.412826 330.823597 
C 561.080443 330.491215 560.629572 330.304458 560.159512 330.304458 
C 559.689452 330.304458 559.238581 330.491215 558.906198 330.823597 
C 558.573815 331.15598 558.387058 331.606851 558.387058 332.076912 
C 558.387058 332.546972 558.573815 332.997843 558.906198 333.330226 
C 559.238581 333.662608 559.689452 333.849365 560.159512 333.849365 
z
" style="stroke:#000000;stroke-width:0.886227;"/>
    <path clip-path="url(#p0ae052a37b)" d="M 596.861415 358.906615 
C 597.331475 358.906615 597.782346 358.719858 598.114729 358.387475 
C 598.447112 358.055093 598.633869 357.604221 598.633869 357.134161 
C 598.633869 356.664101 598.447112 356.21323 598.114729 355.880847 
C 597.782346 355.548464 597.331475 355.361707 596.861415 355.361707 
C 596.391355 355.361707 595.940483 355.548464 595.608101 355.880847 
C 595.275718 356.21323 595.088961 356.664101 595.088961 357.134161 
C 595.088961 357.604221 595.275718 358.055093 595.608101 358.387475 
C 595.940483 358.719858 596.391355 358.906615 596.861415 358.906615 
z
" style="stroke:#000000;stroke-width:0.886227;"/>
    <path clip-path="url(#p0ae052a37b)" d="M 633.563318 351.510182 
C 634.033378 351.510182 634.484249 351.323425 634.816632 350.991043 
C 635.149014 350.65866 635.335771 350.207789 635.335771 349.737728 
C 635.335771 349.267668 635.149014 348.816797 634.816632 348.484414 
C 634.484249 348.152031 634.033378 347.965275 633.563318 347.965275 
C 633.093257 347.965275 632.642386 348.152031 632.310003 348.484414 
C 631.977621 348.816797 631.790864 349.267668 631.790864 349.737728 
C 631.790864 350.207789 631.977621 350.65866 632.310003 350.991043 
C 632.642386 351.323425 633.093257 351.510182 633.563318 351.510182 
z
" style="stroke:#000000;stroke-width:0.886227;"/>
    <path clip-path="url(#p0ae052a37b)" d="M 670.26522 349.535987 
C 670.735281 349.535987 671.186152 349.34923 671.518534 349.016847 
C 671.850917 348.684464 672.037674 348.233593 672.037674 347.763533 
C 672.037674 347.293472 671.850917 346.842601 671.518534 346.510219 
C 671.186152 346.177836 670.735281 345.991079 670.26522 345.991079 
C 669.79516 345.991079 669.344289 346.177836 669.011906 346.510219 
C 668.679523 346.842601 668.492766 347.293472 668.492766 347.763533 
C 668.492766 348.233593 668.679523 348.684464 669.011906 349.016847 
C 669.344289 349.34923 669.79516 349.535987 670.26522 349.535987 
z
" style="stroke:#000000;stroke-width:0.886227;"/>
    <path clip-path="url(#p0ae052a37b)" d="M 706.967123 378.107684 
C 707.437183 378.107684 707.888054 377.920927 708.220437 377.588545 
C 708.55282 377.256162 708.739577 376.805291 708.739577 376.33523 
C 708.739577 375.86517 708.55282 375.414299 708.220437 375.081916 
C 707.888054 374.749533 707.437183 374.562777 706.967123 374.562777 
C 706.497063 374.562777 706.046192 374.749533 705.713809 375.081916 
C 705.381426 375.414299 705.194669 375.86517 705.194669 376.33523 
C 705.194669 376.805291 705.381426 377.256162 705.713809 377.588545 
C 706.046192 377.920927 706.497063 378.107684 706.967123 378.107684 
z
" style="stroke:#000000;stroke-width:0.886227;"/>
    <path clip-path="url(#p0ae052a37b)" d="M 743.669026 335.01746 
C 744.139086 335.01746 744.589957 334.830703 744.92234 334.498321 
C 745.254723 334.165938 745.44148 333.715067 745.44148 333.245006 
C 745.44148 332.774946 745.254723 332.324075 744.92234 331.991692 
C 744.589957 331.65931 744.139086 331.472553 743.669026 331.472553 
C 743.198966 331.472553 742.748094 331.65931 742.415712 331.991692 
C 742.083329 332.324075 741.896572 332.774946 741.896572 333.245006 
C 741.896572 333.715067 742.083329 334.165938 742.415712 334.498321 
C 742.748094 334.830703 743.198966 335.01746 743.669026 335.01746 
z
" style="stroke:#000000;stroke-width:0.886227;"/>
    <path clip-path="url(#p0ae052a37b)" d="M 780.370929 350.232548 
C 780.840989 350.232548 781.29186 350.045791 781.624243 349.713408 
C 781.956625 349.381025 782.143382 348.930154 782.143382 348.460094 
C 782.143382 347.990034 781.956625 347.539163 781.624243 347.20678 
C 781.29186 346.874397 780.840989 346.68764 780.370929 346.68764 
C 779.900868 346.68764 779.449997 346.874397 779.117614 347.20678 
C 778.785232 347.539163 778.598475 347.990034 778.598475 348.460094 
C 778.598475 348.930154 778.785232 349.381025 779.117614 349.713408 
C 779.449997 350.045791 779.900868 350.232548 780.370929 350.232548 
z
" style="stroke:#000000;stroke-width:0.886227;"/>
    <path clip-path="url(#p0ae052a37b)" d="M 817.072831 351.53483 
C 817.542892 351.53483 817.993763 351.348074 818.326145 351.015691 
C 818.658528 350.683308 818.845285 350.232437 818.845285 349.762377 
C 818.845285 349.292316 818.658528 348.841445 818.326145 348.509063 
C 817.993763 348.17668 817.542892 347.989923 817.072831 347.989923 
C 816.602771 347.989923 816.1519 348.17668 815.819517 348.509063 
C 815.487134 348.841445 815.300377 349.292316 815.300377 349.762377 
C 815.300377 350.232437 815.487134 350.683308 815.819517 351.015691 
C 816.1519 351.348074 816.602771 351.53483 817.072831 351.53483 
z
" style="stroke:#000000;stroke-width:0.886227;"/>
   </g>
   <g id="patch_9">
    <path d="M 470.23985 253.674082 
L 833.588688 253.674082 
L 833.588688 238.63 
L 470.23985 238.63 
z
" style="fill:#d9d9d9;"/>
   </g>
   <g id="PolyCollection_4">
    <path clip-path="url(#p0ae052a37b)" d="M 486.755707 266.397172 
L 486.755707 456.123628 
L 523.457609 418.387354 
L 560.159512 396.426673 
L 596.861415 424.554839 
L 633.563318 408.495792 
L 670.26522 421.650825 
L 706.967123 440.839208 
L 743.669026 403.175476 
L 780.370929 413.753543 
L 817.072831 423.343681 
L 817.072831 276.181072 
L 817.072831 276.181072 
L 780.370929 283.166645 
L 743.669026 263.314537 
L 706.967123 311.831253 
L 670.26522 273.87624 
L 633.563318 290.979665 
L 596.861415 289.713484 
L 560.159512 267.72715 
L 523.457609 313.963838 
L 486.755707 266.397172 
z
" style="fill:#333333;fill-opacity:0.501961;"/>
   </g>
   <g id="text_30">
    <!-- F1 score: &gt;50K -->
    <g style="fill:#1a1a1a;" transform="translate(618.312706 248.580291)scale(0.088 -0.088)">
     <defs>
      <path d="M 678 3150 
L 678 3719 
L 4684 2266 
L 4684 1747 
L 678 294 
L 678 863 
L 3897 2003 
L 678 3150 
z
" id="DejaVuSans-3e" transform="scale(0.015625)"/>
     </defs>
     <use xlink:href="#DejaVuSans-46"/>
     <use x="57.519531" xlink:href="#DejaVuSans-31"/>
     <use x="121.142578" xlink:href="#DejaVuSans-20"/>
     <use x="152.929688" xlink:href="#DejaVuSans-73"/>
     <use x="205.029297" xlink:href="#DejaVuSans-63"/>
     <use x="260.009766" xlink:href="#DejaVuSans-6f"/>
     <use x="321.191406" xlink:href="#DejaVuSans-72"/>
     <use x="360.054688" xlink:href="#DejaVuSans-65"/>
     <use x="421.578125" xlink:href="#DejaVuSans-3a"/>
     <use x="455.269531" xlink:href="#DejaVuSans-20"/>
     <use x="487.056641" xlink:href="#DejaVuSans-3e"/>
     <use x="570.845703" xlink:href="#DejaVuSans-35"/>
     <use x="634.46875" xlink:href="#DejaVuSans-30"/>
     <use x="698.091797" xlink:href="#DejaVuSans-4b"/>
    </g>
   </g>
  </g>
 </g>
 <defs>
  <clipPath id="p20549bb3fe">
   <rect height="212.09" width="363.348837" x="52.388688" y="22.244082"/>
  </clipPath>
  <clipPath id="p6124f6fc1e">
   <rect height="212.09" width="363.348837" x="470.23985" y="22.244082"/>
  </clipPath>
  <clipPath id="pd061ee8500">
   <rect height="212.09" width="363.348837" x="52.388688" y="253.674082"/>
  </clipPath>
  <clipPath id="p0ae052a37b">
   <rect height="212.09" width="363.348837" x="470.23985" y="253.674082"/>
  </clipPath>
 </defs>
</svg>
