<?xml version="1.0" encoding="UTF-8" standalone="no"?>
<!DOCTYPE svg PUBLIC "-//W3C//DTD SVG 1.1//EN"
 "http://www.w3.org/Graphics/SVG/1.1/DTD/svg11.dtd">
<!-- Generated by graphviz version 2.49.3 (20211023.0002)
 -->
<!-- Title: G Pages: 1 -->
<svg width="358pt" height="337pt"
 viewBox="0.00 0.00 358.00 337.00" xmlns="http://www.w3.org/2000/svg" xmlns:xlink="http://www.w3.org/1999/xlink">
<g id="graph0" class="graph" transform="scale(1 1) rotate(0) translate(4 333)">
<title>G</title>
<polygon fill="white" stroke="transparent" points="-4,4 -4,-333 354,-333 354,4 -4,4"/>
<!-- 1526005976264 -->
<g id="node1" class="node">
<title>1526005976264</title>
<polygon fill="none" stroke="black" points="0,-292.5 0,-328.5 167,-328.5 167,-292.5 0,-292.5"/>
<text text-anchor="middle" x="83.5" y="-306.8" font-family="Times New Roman,serif" font-size="14.00">Numeric_input: InputLayer</text>
</g>
<!-- 1526120439496 -->
<g id="node3" class="node">
<title>1526120439496</title>
<polygon fill="none" stroke="black" points="81,-219.5 81,-255.5 270,-255.5 270,-219.5 81,-219.5"/>
<text text-anchor="middle" x="175.5" y="-233.8" font-family="Times New Roman,serif" font-size="14.00">Combining_input: Concatenate</text>
</g>
<!-- 1526005976264&#45;&gt;1526120439496 -->
<g id="edge1" class="edge">
<title>1526005976264&#45;&gt;1526120439496</title>
<path fill="none" stroke="black" d="M105.77,-292.31C117.64,-283.16 132.4,-271.76 145.29,-261.82"/>
<polygon fill="black" stroke="black" points="147.66,-264.41 153.43,-255.53 143.38,-258.87 147.66,-264.41"/>
</g>
<!-- 1526120452808 -->
<g id="node2" class="node">
<title>1526120452808</title>
<polygon fill="none" stroke="black" points="185,-292.5 185,-328.5 350,-328.5 350,-292.5 185,-292.5"/>
<text text-anchor="middle" x="267.5" y="-306.8" font-family="Times New Roman,serif" font-size="14.00">Discrete_input: InputLayer</text>
</g>
<!-- 1526120452808&#45;&gt;1526120439496 -->
<g id="edge2" class="edge">
<title>1526120452808&#45;&gt;1526120439496</title>
<path fill="none" stroke="black" d="M245.23,-292.31C233.36,-283.16 218.6,-271.76 205.71,-261.82"/>
<polygon fill="black" stroke="black" points="207.62,-258.87 197.57,-255.53 203.34,-264.41 207.62,-258.87"/>
</g>
<!-- 1526120403912 -->
<g id="node4" class="node">
<title>1526120403912</title>
<polygon fill="none" stroke="black" points="124.5,-146.5 124.5,-182.5 226.5,-182.5 226.5,-146.5 124.5,-146.5"/>
<text text-anchor="middle" x="175.5" y="-160.8" font-family="Times New Roman,serif" font-size="14.00">hidden1: Dense</text>
</g>
<!-- 1526120439496&#45;&gt;1526120403912 -->
<g id="edge3" class="edge">
<title>1526120439496&#45;&gt;1526120403912</title>
<path fill="none" stroke="black" d="M175.5,-219.31C175.5,-211.29 175.5,-201.55 175.5,-192.57"/>
<polygon fill="black" stroke="black" points="179,-192.53 175.5,-182.53 172,-192.53 179,-192.53"/>
</g>
<!-- 1526120487944 -->
<g id="node5" class="node">
<title>1526120487944</title>
<polygon fill="none" stroke="black" points="124.5,-73.5 124.5,-109.5 226.5,-109.5 226.5,-73.5 124.5,-73.5"/>
<text text-anchor="middle" x="175.5" y="-87.8" font-family="Times New Roman,serif" font-size="14.00">hidden2: Dense</text>
</g>
<!-- 1526120403912&#45;&gt;1526120487944 -->
<g id="edge4" class="edge">
<title>1526120403912&#45;&gt;1526120487944</title>
<path fill="none" stroke="black" d="M175.5,-146.31C175.5,-138.29 175.5,-128.55 175.5,-119.57"/>
<polygon fill="black" stroke="black" points="179,-119.53 175.5,-109.53 172,-119.53 179,-119.53"/>
</g>
<!-- 1526120566088 -->
<g id="node6" class="node">
<title>1526120566088</title>
<polygon fill="none" stroke="black" points="88.5,-0.5 88.5,-36.5 262.5,-36.5 262.5,-0.5 88.5,-0.5"/>
<text text-anchor="middle" x="175.5" y="-14.8" font-family="Times New Roman,serif" font-size="14.00">output_discriminator: Dense</text>
</g>
<!-- 1526120487944&#45;&gt;1526120566088 -->
<g id="edge5" class="edge">
<title>1526120487944&#45;&gt;1526120566088</title>
<path fill="none" stroke="black" d="M175.5,-73.31C175.5,-65.29 175.5,-55.55 175.5,-46.57"/>
<polygon fill="black" stroke="black" points="179,-46.53 175.5,-36.53 172,-46.53 179,-46.53"/>
</g>
</g>
</svg>
