<?xml version="1.0" encoding="UTF-8" standalone="no"?>
<!DOCTYPE svg PUBLIC "-//W3C//DTD SVG 1.1//EN"
 "http://www.w3.org/Graphics/SVG/1.1/DTD/svg11.dtd">
<!-- Generated by graphviz version 2.49.3 (20211023.0002)
 -->
<!-- Title: G Pages: 1 -->
<svg width="1063pt" height="485pt"
 viewBox="0.00 0.00 1063.00 485.00" xmlns="http://www.w3.org/2000/svg" xmlns:xlink="http://www.w3.org/1999/xlink">
<g id="graph0" class="graph" transform="scale(1 1) rotate(0) translate(4 481)">
<title>G</title>
<polygon fill="white" stroke="transparent" points="-4,4 -4,-481 1059,-481 1059,4 -4,4"/>
<!-- 1525992109448 -->
<g id="node1" class="node">
<title>1525992109448</title>
<polygon fill="none" stroke="black" points="0,-220.5 0,-256.5 119,-256.5 119,-220.5 0,-220.5"/>
<text text-anchor="middle" x="59.5" y="-234.8" font-family="Times New Roman,serif" font-size="14.00">Latent: InputLayer</text>
</g>
<!-- 1525992013896 -->
<g id="node2" class="node">
<title>1525992013896</title>
<polygon fill="none" stroke="black" points="155,-220.5 155,-256.5 260,-256.5 260,-220.5 155,-220.5"/>
<text text-anchor="middle" x="207.5" y="-234.8" font-family="Times New Roman,serif" font-size="14.00">Hidden1: Dense</text>
</g>
<!-- 1525992109448&#45;&gt;1525992013896 -->
<g id="edge1" class="edge">
<title>1525992109448&#45;&gt;1525992013896</title>
<path fill="none" stroke="black" d="M119.04,-238.5C127.39,-238.5 136,-238.5 144.41,-238.5"/>
<polygon fill="black" stroke="black" points="144.54,-242 154.54,-238.5 144.54,-235 144.54,-242"/>
</g>
<!-- 1524969679624 -->
<g id="node3" class="node">
<title>1524969679624</title>
<polygon fill="none" stroke="black" points="296,-220.5 296,-256.5 401,-256.5 401,-220.5 296,-220.5"/>
<text text-anchor="middle" x="348.5" y="-234.8" font-family="Times New Roman,serif" font-size="14.00">Hidden2: Dense</text>
</g>
<!-- 1525992013896&#45;&gt;1524969679624 -->
<g id="edge2" class="edge">
<title>1525992013896&#45;&gt;1524969679624</title>
<path fill="none" stroke="black" d="M260.26,-238.5C268.49,-238.5 277.08,-238.5 285.51,-238.5"/>
<polygon fill="black" stroke="black" points="285.7,-242 295.7,-238.5 285.7,-235 285.7,-242"/>
</g>
<!-- 1525991897928 -->
<g id="node4" class="node">
<title>1525991897928</title>
<polygon fill="none" stroke="black" points="448,-440.5 448,-476.5 606,-476.5 606,-440.5 448,-440.5"/>
<text text-anchor="middle" x="527" y="-454.8" font-family="Times New Roman,serif" font-size="14.00">workclass_output: Dense</text>
</g>
<!-- 1524969679624&#45;&gt;1525991897928 -->
<g id="edge3" class="edge">
<title>1524969679624&#45;&gt;1525991897928</title>
<path fill="none" stroke="black" d="M352.56,-256.62C359.95,-294.74 382.37,-383.6 437,-431.5 438.34,-432.67 439.72,-433.79 441.15,-434.86"/>
<polygon fill="black" stroke="black" points="439.46,-437.94 449.75,-440.48 443.29,-432.08 439.46,-437.94"/>
</g>
<!-- 1525991993544 -->
<g id="node5" class="node">
<title>1525991993544</title>
<polygon fill="none" stroke="black" points="449.5,-385.5 449.5,-421.5 604.5,-421.5 604.5,-385.5 449.5,-385.5"/>
<text text-anchor="middle" x="527" y="-399.8" font-family="Times New Roman,serif" font-size="14.00">education_output: Dense</text>
</g>
<!-- 1524969679624&#45;&gt;1525991993544 -->
<g id="edge4" class="edge">
<title>1524969679624&#45;&gt;1525991993544</title>
<path fill="none" stroke="black" d="M356.13,-256.65C367.84,-286.18 395,-344.56 437,-376.5 438.64,-377.75 440.34,-378.94 442.08,-380.07"/>
<polygon fill="black" stroke="black" points="440.74,-383.34 451.15,-385.3 444.24,-377.27 440.74,-383.34"/>
</g>
<!-- 1525992174856 -->
<g id="node6" class="node">
<title>1525992174856</title>
<polygon fill="none" stroke="black" points="440,-330.5 440,-366.5 614,-366.5 614,-330.5 440,-330.5"/>
<text text-anchor="middle" x="527" y="-344.8" font-family="Times New Roman,serif" font-size="14.00">marital.status_output: Dense</text>
</g>
<!-- 1524969679624&#45;&gt;1525992174856 -->
<g id="edge5" class="edge">
<title>1524969679624&#45;&gt;1525992174856</title>
<path fill="none" stroke="black" d="M364.07,-256.61C380.09,-275.38 407.5,-304.34 437,-321.5 439.86,-323.16 442.84,-324.73 445.89,-326.22"/>
<polygon fill="black" stroke="black" points="444.67,-329.51 455.23,-330.4 447.53,-323.12 444.67,-329.51"/>
</g>
<!-- 1525993630152 -->
<g id="node7" class="node">
<title>1525993630152</title>
<polygon fill="none" stroke="black" points="445,-275.5 445,-311.5 609,-311.5 609,-275.5 445,-275.5"/>
<text text-anchor="middle" x="527" y="-289.8" font-family="Times New Roman,serif" font-size="14.00">occupation_output: Dense</text>
</g>
<!-- 1524969679624&#45;&gt;1525993630152 -->
<g id="edge6" class="edge">
<title>1524969679624&#45;&gt;1525993630152</title>
<path fill="none" stroke="black" d="M401.28,-255.21C413.01,-258.96 425.43,-262.89 437,-266.5 443.32,-268.47 449.89,-270.5 456.48,-272.52"/>
<polygon fill="black" stroke="black" points="455.53,-275.89 466.12,-275.47 457.58,-269.2 455.53,-275.89"/>
</g>
<!-- 1526005825928 -->
<g id="node8" class="node">
<title>1526005825928</title>
<polygon fill="none" stroke="black" points="464.5,-220.5 464.5,-256.5 589.5,-256.5 589.5,-220.5 464.5,-220.5"/>
<text text-anchor="middle" x="527" y="-234.8" font-family="Times New Roman,serif" font-size="14.00">race_output: Dense</text>
</g>
<!-- 1524969679624&#45;&gt;1526005825928 -->
<g id="edge7" class="edge">
<title>1524969679624&#45;&gt;1526005825928</title>
<path fill="none" stroke="black" d="M401.03,-238.5C417.61,-238.5 436.3,-238.5 454.08,-238.5"/>
<polygon fill="black" stroke="black" points="454.42,-242 464.42,-238.5 454.42,-235 454.42,-242"/>
</g>
<!-- 1526005975688 -->
<g id="node9" class="node">
<title>1526005975688</title>
<polygon fill="none" stroke="black" points="457.5,-165.5 457.5,-201.5 596.5,-201.5 596.5,-165.5 457.5,-165.5"/>
<text text-anchor="middle" x="527" y="-179.8" font-family="Times New Roman,serif" font-size="14.00">gender_output: Dense</text>
</g>
<!-- 1524969679624&#45;&gt;1526005975688 -->
<g id="edge8" class="edge">
<title>1524969679624&#45;&gt;1526005975688</title>
<path fill="none" stroke="black" d="M401.03,-222.44C419.04,-216.83 439.55,-210.44 458.66,-204.48"/>
<polygon fill="black" stroke="black" points="459.71,-207.82 468.21,-201.51 457.63,-201.14 459.71,-207.82"/>
</g>
<!-- 1526119769032 -->
<g id="node10" class="node">
<title>1526119769032</title>
<polygon fill="none" stroke="black" points="437,-110.5 437,-146.5 617,-146.5 617,-110.5 437,-110.5"/>
<text text-anchor="middle" x="527" y="-124.8" font-family="Times New Roman,serif" font-size="14.00">native.country_output: Dense</text>
</g>
<!-- 1524969679624&#45;&gt;1526119769032 -->
<g id="edge9" class="edge">
<title>1524969679624&#45;&gt;1526119769032</title>
<path fill="none" stroke="black" d="M364.45,-220.33C380.58,-201.83 407.88,-173.52 437,-156.5 440.62,-154.39 444.41,-152.41 448.32,-150.57"/>
<polygon fill="black" stroke="black" points="449.82,-153.74 457.57,-146.52 447.01,-147.32 449.82,-153.74"/>
</g>
<!-- 1526119940616 -->
<g id="node11" class="node">
<title>1526119940616</title>
<polygon fill="none" stroke="black" points="456,-55.5 456,-91.5 598,-91.5 598,-55.5 456,-55.5"/>
<text text-anchor="middle" x="527" y="-69.8" font-family="Times New Roman,serif" font-size="14.00">income_output: Dense</text>
</g>
<!-- 1524969679624&#45;&gt;1526119940616 -->
<g id="edge10" class="edge">
<title>1524969679624&#45;&gt;1526119940616</title>
<path fill="none" stroke="black" d="M356.39,-220.06C368.31,-190.66 395.55,-133.25 437,-101.5 440.01,-99.2 443.2,-97.08 446.54,-95.14"/>
<polygon fill="black" stroke="black" points="448.39,-98.12 455.62,-90.39 445.14,-91.92 448.39,-98.12"/>
</g>
<!-- 1526120044744 -->
<g id="node20" class="node">
<title>1526120044744</title>
<polygon fill="none" stroke="black" points="452.5,-0.5 452.5,-36.5 601.5,-36.5 601.5,-0.5 452.5,-0.5"/>
<text text-anchor="middle" x="527" y="-14.8" font-family="Times New Roman,serif" font-size="14.00">Numeric_output: Dense</text>
</g>
<!-- 1524969679624&#45;&gt;1526120044744 -->
<g id="edge19" class="edge">
<title>1524969679624&#45;&gt;1526120044744</title>
<path fill="none" stroke="black" d="M352.69,-220.22C360.26,-182.23 382.94,-94.3 437,-46.5 439.02,-44.72 441.15,-43.05 443.37,-41.48"/>
<polygon fill="black" stroke="black" points="445.65,-44.19 452.33,-35.96 441.98,-38.23 445.65,-44.19"/>
</g>
<!-- 1525992010952 -->
<g id="node12" class="node">
<title>1525992010952</title>
<polygon fill="none" stroke="black" points="653,-440.5 653,-476.5 837,-476.5 837,-440.5 653,-440.5"/>
<text text-anchor="middle" x="745" y="-454.8" font-family="Times New Roman,serif" font-size="14.00">Gumbel_softmax1: Activation</text>
</g>
<!-- 1525991897928&#45;&gt;1525992010952 -->
<g id="edge11" class="edge">
<title>1525991897928&#45;&gt;1525992010952</title>
<path fill="none" stroke="black" d="M606.29,-458.5C618.08,-458.5 630.38,-458.5 642.57,-458.5"/>
<polygon fill="black" stroke="black" points="642.77,-462 652.77,-458.5 642.77,-455 642.77,-462"/>
</g>
<!-- 1525992062472 -->
<g id="node13" class="node">
<title>1525992062472</title>
<polygon fill="none" stroke="black" points="653,-385.5 653,-421.5 837,-421.5 837,-385.5 653,-385.5"/>
<text text-anchor="middle" x="745" y="-399.8" font-family="Times New Roman,serif" font-size="14.00">Gumbel_softmax2: Activation</text>
</g>
<!-- 1525991993544&#45;&gt;1525992062472 -->
<g id="edge12" class="edge">
<title>1525991993544&#45;&gt;1525992062472</title>
<path fill="none" stroke="black" d="M604.76,-403.5C617.01,-403.5 629.84,-403.5 642.55,-403.5"/>
<polygon fill="black" stroke="black" points="642.71,-407 652.71,-403.5 642.71,-400 642.71,-407"/>
</g>
<!-- 1525993590920 -->
<g id="node14" class="node">
<title>1525993590920</title>
<polygon fill="none" stroke="black" points="653,-330.5 653,-366.5 837,-366.5 837,-330.5 653,-330.5"/>
<text text-anchor="middle" x="745" y="-344.8" font-family="Times New Roman,serif" font-size="14.00">Gumbel_softmax3: Activation</text>
</g>
<!-- 1525992174856&#45;&gt;1525993590920 -->
<g id="edge13" class="edge">
<title>1525992174856&#45;&gt;1525993590920</title>
<path fill="none" stroke="black" d="M614.3,-348.5C623.62,-348.5 633.16,-348.5 642.64,-348.5"/>
<polygon fill="black" stroke="black" points="642.88,-352 652.88,-348.5 642.88,-345 642.88,-352"/>
</g>
<!-- 1526005800584 -->
<g id="node15" class="node">
<title>1526005800584</title>
<polygon fill="none" stroke="black" points="653,-275.5 653,-311.5 837,-311.5 837,-275.5 653,-275.5"/>
<text text-anchor="middle" x="745" y="-289.8" font-family="Times New Roman,serif" font-size="14.00">Gumbel_softmax4: Activation</text>
</g>
<!-- 1525993630152&#45;&gt;1526005800584 -->
<g id="edge14" class="edge">
<title>1525993630152&#45;&gt;1526005800584</title>
<path fill="none" stroke="black" d="M609.04,-293.5C619.95,-293.5 631.25,-293.5 642.46,-293.5"/>
<polygon fill="black" stroke="black" points="642.71,-297 652.71,-293.5 642.71,-290 642.71,-297"/>
</g>
<!-- 1526005950600 -->
<g id="node16" class="node">
<title>1526005950600</title>
<polygon fill="none" stroke="black" points="653,-220.5 653,-256.5 837,-256.5 837,-220.5 653,-220.5"/>
<text text-anchor="middle" x="745" y="-234.8" font-family="Times New Roman,serif" font-size="14.00">Gumbel_softmax5: Activation</text>
</g>
<!-- 1526005825928&#45;&gt;1526005950600 -->
<g id="edge15" class="edge">
<title>1526005825928&#45;&gt;1526005950600</title>
<path fill="none" stroke="black" d="M589.61,-238.5C606.23,-238.5 624.67,-238.5 642.84,-238.5"/>
<polygon fill="black" stroke="black" points="642.9,-242 652.9,-238.5 642.9,-235 642.9,-242"/>
</g>
<!-- 1526119750088 -->
<g id="node17" class="node">
<title>1526119750088</title>
<polygon fill="none" stroke="black" points="653,-165.5 653,-201.5 837,-201.5 837,-165.5 653,-165.5"/>
<text text-anchor="middle" x="745" y="-179.8" font-family="Times New Roman,serif" font-size="14.00">Gumbel_softmax6: Activation</text>
</g>
<!-- 1526005975688&#45;&gt;1526119750088 -->
<g id="edge16" class="edge">
<title>1526005975688&#45;&gt;1526119750088</title>
<path fill="none" stroke="black" d="M596.64,-183.5C611.23,-183.5 626.94,-183.5 642.46,-183.5"/>
<polygon fill="black" stroke="black" points="642.62,-187 652.62,-183.5 642.62,-180 642.62,-187"/>
</g>
<!-- 1526119791560 -->
<g id="node18" class="node">
<title>1526119791560</title>
<polygon fill="none" stroke="black" points="653,-110.5 653,-146.5 837,-146.5 837,-110.5 653,-110.5"/>
<text text-anchor="middle" x="745" y="-124.8" font-family="Times New Roman,serif" font-size="14.00">Gumbel_softmax7: Activation</text>
</g>
<!-- 1526119769032&#45;&gt;1526119791560 -->
<g id="edge17" class="edge">
<title>1526119769032&#45;&gt;1526119791560</title>
<path fill="none" stroke="black" d="M617.1,-128.5C625.45,-128.5 633.95,-128.5 642.39,-128.5"/>
<polygon fill="black" stroke="black" points="642.66,-132 652.66,-128.5 642.66,-125 642.66,-132"/>
</g>
<!-- 1526120045384 -->
<g id="node19" class="node">
<title>1526120045384</title>
<polygon fill="none" stroke="black" points="653,-55.5 653,-91.5 837,-91.5 837,-55.5 653,-55.5"/>
<text text-anchor="middle" x="745" y="-69.8" font-family="Times New Roman,serif" font-size="14.00">Gumbel_softmax8: Activation</text>
</g>
<!-- 1526119940616&#45;&gt;1526120045384 -->
<g id="edge18" class="edge">
<title>1526119940616&#45;&gt;1526120045384</title>
<path fill="none" stroke="black" d="M598.13,-73.5C612.34,-73.5 627.56,-73.5 642.6,-73.5"/>
<polygon fill="black" stroke="black" points="642.97,-77 652.97,-73.5 642.97,-70 642.97,-77"/>
</g>
<!-- 1526120063944 -->
<g id="node21" class="node">
<title>1526120063944</title>
<polygon fill="none" stroke="black" points="873,-247.5 873,-283.5 1055,-283.5 1055,-247.5 873,-247.5"/>
<text text-anchor="middle" x="964" y="-261.8" font-family="Times New Roman,serif" font-size="14.00">Discrete_output: Concatenate</text>
</g>
<!-- 1525992010952&#45;&gt;1526120063944 -->
<g id="edge20" class="edge">
<title>1525992010952&#45;&gt;1526120063944</title>
<path fill="none" stroke="black" d="M821.3,-440.43C826.81,-437.83 832.12,-434.87 837,-431.5 889.59,-395.14 929.61,-329.88 949.36,-292.94"/>
<polygon fill="black" stroke="black" points="952.63,-294.25 954.16,-283.76 946.43,-291 952.63,-294.25"/>
</g>
<!-- 1525992062472&#45;&gt;1526120063944 -->
<g id="edge21" class="edge">
<title>1525992062472&#45;&gt;1526120063944</title>
<path fill="none" stroke="black" d="M817.76,-385.47C824.43,-382.83 830.94,-379.85 837,-376.5 877.74,-353.96 916.69,-316.34 940.23,-291.23"/>
<polygon fill="black" stroke="black" points="943.1,-293.28 947.31,-283.55 937.96,-288.53 943.1,-293.28"/>
</g>
<!-- 1525993590920&#45;&gt;1526120063944 -->
<g id="edge22" class="edge">
<title>1525993590920&#45;&gt;1526120063944</title>
<path fill="none" stroke="black" d="M810.97,-330.35C819.78,-327.56 828.65,-324.58 837,-321.5 863.75,-311.64 892.88,-298.83 916.38,-287.95"/>
<polygon fill="black" stroke="black" points="918.18,-290.98 925.76,-283.58 915.22,-284.64 918.18,-290.98"/>
</g>
<!-- 1526005800584&#45;&gt;1526120063944 -->
<g id="edge23" class="edge">
<title>1526005800584&#45;&gt;1526120063944</title>
<path fill="none" stroke="black" d="M837.08,-281.75C845.59,-280.65 854.24,-279.53 862.82,-278.43"/>
<polygon fill="black" stroke="black" points="863.37,-281.88 872.84,-277.13 862.48,-274.94 863.37,-281.88"/>
</g>
<!-- 1526005950600&#45;&gt;1526120063944 -->
<g id="edge24" class="edge">
<title>1526005950600&#45;&gt;1526120063944</title>
<path fill="none" stroke="black" d="M837.08,-249.83C845.59,-250.89 854.24,-251.97 862.82,-253.03"/>
<polygon fill="black" stroke="black" points="862.49,-256.52 872.84,-254.28 863.35,-249.57 862.49,-256.52"/>
</g>
<!-- 1526119750088&#45;&gt;1526120063944 -->
<g id="edge25" class="edge">
<title>1526119750088&#45;&gt;1526120063944</title>
<path fill="none" stroke="black" d="M807.97,-201.6C817.74,-204.73 827.69,-208.08 837,-211.5 862.92,-221.01 891.23,-232.99 914.43,-243.25"/>
<polygon fill="black" stroke="black" points="913.15,-246.51 923.71,-247.38 916,-240.12 913.15,-246.51"/>
</g>
<!-- 1526119791560&#45;&gt;1526120063944 -->
<g id="edge26" class="edge">
<title>1526119791560&#45;&gt;1526120063944</title>
<path fill="none" stroke="black" d="M815.81,-146.68C823.15,-149.55 830.35,-152.82 837,-156.5 877.18,-178.76 916,-215.35 939.68,-239.92"/>
<polygon fill="black" stroke="black" points="937.4,-242.6 946.82,-247.45 942.48,-237.78 937.4,-242.6"/>
</g>
<!-- 1526120045384&#45;&gt;1526120063944 -->
<g id="edge27" class="edge">
<title>1526120045384&#45;&gt;1526120063944</title>
<path fill="none" stroke="black" d="M819.43,-91.61C825.61,-94.45 831.57,-97.73 837,-101.5 888.97,-137.6 929.11,-201.73 949.07,-238.18"/>
<polygon fill="black" stroke="black" points="946.12,-240.09 953.93,-247.25 952.29,-236.78 946.12,-240.09"/>
</g>
</g>
</svg>
