<?xml version="1.0" encoding="utf-8" standalone="no"?>
<!DOCTYPE svg PUBLIC "-//W3C//DTD SVG 1.1//EN"
  "http://www.w3.org/Graphics/SVG/1.1/DTD/svg11.dtd">
<svg height="576pt" version="1.1" viewBox="0 0 1008 576" width="1008pt" xmlns="http://www.w3.org/2000/svg" xmlns:xlink="http://www.w3.org/1999/xlink">
 <metadata>
  <rdf:RDF xmlns:cc="http://creativecommons.org/ns#" xmlns:dc="http://purl.org/dc/elements/1.1/" xmlns:rdf="http://www.w3.org/1999/02/22-rdf-syntax-ns#">
   <cc:Work>
    <dc:type rdf:resource="http://purl.org/dc/dcmitype/StillImage"/>
    <dc:date>2022-02-28T10:57:17.737494</dc:date>
    <dc:format>image/svg+xml</dc:format>
    <dc:creator>
     <cc:Agent>
      <dc:title>Matplotlib v3.4.3, https://matplotlib.org/</dc:title>
     </cc:Agent>
    </dc:creator>
   </cc:Work>
  </rdf:RDF>
 </metadata>
 <defs>
  <style type="text/css">*{stroke-linecap:butt;stroke-linejoin:round;}</style>
 </defs>
 <g id="figure_1">
  <g id="patch_1">
   <path d="M 0 576 
L 1008 576 
L 1008 0 
L 0 0 
z
" style="fill:none;"/>
  </g>
  <g id="axes_1">
   <g id="patch_2">
    <path d="M 126 504 
L 907.2 504 
L 907.2 69.12 
L 126 69.12 
z
" style="fill:#ffffff;"/>
   </g>
   <g id="PolyCollection_1">
    <defs>
     <path d="M 161.509091 -205.732123 
L 161.509091 -182.819057 
L 170.386364 -186.706888 
L 179.263636 -188.313298 
L 197.018182 -177.124569 
L 214.772727 -191.968199 
L 232.527273 -191.219181 
L 250.281818 -193.005834 
L 268.036364 -194.611059 
L 285.790909 -192.960719 
L 303.545455 -193.841233 
L 321.3 -199.676087 
L 339.054545 -189.897014 
L 356.809091 -181.272525 
L 374.563636 -185.923238 
L 392.318182 -196.143963 
L 410.072727 -200.365306 
L 427.827273 -193.821225 
L 445.581818 -185.82574 
L 463.336364 -197.94132 
L 481.090909 -192.320499 
L 498.845455 -194.147019 
L 516.6 -189.674842 
L 534.354545 -187.682328 
L 552.109091 -183.896255 
L 569.863636 -179.542387 
L 587.618182 -168.776113 
L 605.372727 -170.995115 
L 623.127273 -170.08192 
L 640.881818 -173.610923 
L 658.636364 -161.9536 
L 676.390909 -150.361309 
L 694.145455 -164.423389 
L 711.9 -146.655889 
L 729.654545 -142.546168 
L 747.409091 -144.985298 
L 765.163636 -117.995373 
L 782.918182 -121.512965 
L 800.672727 -107.942295 
L 818.427273 -110.27466 
L 836.181818 -101.043656 
L 853.936364 -100.6531 
L 871.690909 -91.767273 
L 871.690909 -122.238307 
L 871.690909 -122.238307 
L 853.936364 -133.251366 
L 836.181818 -140.57249 
L 818.427273 -135.954722 
L 800.672727 -148.339812 
L 782.918182 -145.854682 
L 765.163636 -163.900527 
L 747.409091 -178.360879 
L 729.654545 -169.783324 
L 711.9 -172.352468 
L 694.145455 -190.458048 
L 676.390909 -177.666959 
L 658.636364 -197.541074 
L 640.881818 -195.110224 
L 623.127273 -197.468705 
L 605.372727 -197.381761 
L 587.618182 -206.899317 
L 569.863636 -208.939939 
L 552.109091 -216.360153 
L 534.354545 -220.216905 
L 516.6 -213.198028 
L 498.845455 -214.371902 
L 481.090909 -222.533017 
L 463.336364 -217.807301 
L 445.581818 -218.355362 
L 427.827273 -217.31416 
L 410.072727 -218.963738 
L 392.318182 -224.14904 
L 374.563636 -220.736618 
L 356.809091 -215.472315 
L 339.054545 -218.553054 
L 321.3 -215.5217 
L 303.545455 -216.192482 
L 285.790909 -214.38768 
L 268.036364 -212.393069 
L 250.281818 -220.814867 
L 232.527273 -210.68973 
L 214.772727 -208.839043 
L 197.018182 -213.97422 
L 179.263636 -209.257793 
L 170.386364 -211.897017 
L 161.509091 -205.732123 
z
" id="mc3b24906cd" style="stroke:#1f77b4;stroke-opacity:0.5;"/>
    </defs>
    <g clip-path="url(#p1fa6689e4a)">
     <use style="fill:#1f77b4;fill-opacity:0.5;stroke:#1f77b4;stroke-opacity:0.5;" x="0" xlink:href="#mc3b24906cd" y="576"/>
    </g>
   </g>
   <g id="PolyCollection_2">
    <defs>
     <path d="M 161.509091 -464.631849 
L 161.509091 -436.848581 
L 170.386364 -436.261046 
L 179.263636 -421.243326 
L 197.018182 -440.785934 
L 214.772727 -439.768729 
L 232.527273 -434.555198 
L 250.281818 -441.437194 
L 268.036364 -444.27846 
L 285.790909 -449.062007 
L 303.545455 -455.572902 
L 321.3 -458.604899 
L 339.054545 -452.798681 
L 356.809091 -452.512604 
L 374.563636 -455.643384 
L 392.318182 -462.148995 
L 410.072727 -461.924807 
L 427.827273 -459.311189 
L 445.581818 -456.552839 
L 463.336364 -467.466382 
L 481.090909 -454.893716 
L 498.845455 -446.34636 
L 516.6 -449.264516 
L 534.354545 -446.442509 
L 552.109091 -437.780172 
L 569.863636 -440.27208 
L 587.618182 -434.827195 
L 605.372727 -427.998134 
L 623.127273 -421.482429 
L 640.881818 -423.648939 
L 658.636364 -405.38066 
L 676.390909 -398.694088 
L 694.145455 -403.647582 
L 711.9 -381.534519 
L 729.654545 -366.456504 
L 747.409091 -372.767119 
L 765.163636 -331.725687 
L 782.918182 -331.552667 
L 800.672727 -313.299797 
L 818.427273 -321.675934 
L 836.181818 -299.657282 
L 853.936364 -290.995167 
L 871.690909 -265.022634 
L 871.690909 -312.337625 
L 871.690909 -312.337625 
L 853.936364 -334.857514 
L 836.181818 -352.975504 
L 818.427273 -349.847939 
L 800.672727 -359.426608 
L 782.918182 -369.670101 
L 765.163636 -388.809956 
L 747.409091 -401.812781 
L 729.654545 -401.257962 
L 711.9 -400.37315 
L 694.145455 -430.394487 
L 676.390909 -420.539498 
L 658.636364 -441.091087 
L 640.881818 -443.48968 
L 623.127273 -442.822722 
L 605.372727 -456.603969 
L 587.618182 -462.746101 
L 569.863636 -463.9421 
L 552.109091 -467.796418 
L 534.354545 -473.617087 
L 516.6 -471.416441 
L 498.845455 -472.655432 
L 481.090909 -479.863284 
L 463.336364 -487.112727 
L 445.581818 -482.206067 
L 427.827273 -482.069895 
L 410.072727 -477.993521 
L 392.318182 -482.665774 
L 374.563636 -476.008393 
L 356.809091 -482.666359 
L 339.054545 -474.269227 
L 321.3 -475.202119 
L 303.545455 -471.770784 
L 285.790909 -471.060511 
L 268.036364 -463.970019 
L 250.281818 -467.767028 
L 232.527273 -468.454501 
L 214.772727 -465.525694 
L 197.018182 -461.481507 
L 179.263636 -460.909267 
L 170.386364 -468.567365 
L 161.509091 -464.631849 
z
" id="m35dcab99c6" style="stroke:#ff7f0e;stroke-opacity:0.5;"/>
    </defs>
    <g clip-path="url(#p1fa6689e4a)">
     <use style="fill:#ff7f0e;fill-opacity:0.5;stroke:#ff7f0e;stroke-opacity:0.5;" x="0" xlink:href="#m35dcab99c6" y="576"/>
    </g>
   </g>
   <g id="matplotlib.axis_1">
    <g id="xtick_1">
     <g id="line2d_1">
      <defs>
       <path d="M 0 0 
L 0 3.5 
" id="mb67e1bfc4e" style="stroke:#000000;stroke-width:0.8;"/>
      </defs>
      <g>
       <use style="stroke:#000000;stroke-width:0.8;" x="161.509091" xlink:href="#mb67e1bfc4e" y="504"/>
      </g>
     </g>
     <g id="text_1">
      <!-- 0.00 -->
      <g transform="translate(150.376278 518.598438)scale(0.1 -0.1)">
       <defs>
        <path d="M 2034 4250 
Q 1547 4250 1301 3770 
Q 1056 3291 1056 2328 
Q 1056 1369 1301 889 
Q 1547 409 2034 409 
Q 2525 409 2770 889 
Q 3016 1369 3016 2328 
Q 3016 3291 2770 3770 
Q 2525 4250 2034 4250 
z
M 2034 4750 
Q 2819 4750 3233 4129 
Q 3647 3509 3647 2328 
Q 3647 1150 3233 529 
Q 2819 -91 2034 -91 
Q 1250 -91 836 529 
Q 422 1150 422 2328 
Q 422 3509 836 4129 
Q 1250 4750 2034 4750 
z
" id="DejaVuSans-30" transform="scale(0.015625)"/>
        <path d="M 684 794 
L 1344 794 
L 1344 0 
L 684 0 
L 684 794 
z
" id="DejaVuSans-2e" transform="scale(0.015625)"/>
       </defs>
       <use xlink:href="#DejaVuSans-30"/>
       <use x="63.623047" xlink:href="#DejaVuSans-2e"/>
       <use x="95.410156" xlink:href="#DejaVuSans-30"/>
       <use x="159.033203" xlink:href="#DejaVuSans-30"/>
      </g>
     </g>
    </g>
    <g id="xtick_2">
     <g id="line2d_2">
      <g>
       <use style="stroke:#000000;stroke-width:0.8;" x="250.281818" xlink:href="#mb67e1bfc4e" y="504"/>
      </g>
     </g>
     <g id="text_2">
      <!-- 0.05 -->
      <g transform="translate(239.149006 518.598438)scale(0.1 -0.1)">
       <defs>
        <path d="M 691 4666 
L 3169 4666 
L 3169 4134 
L 1269 4134 
L 1269 2991 
Q 1406 3038 1543 3061 
Q 1681 3084 1819 3084 
Q 2600 3084 3056 2656 
Q 3513 2228 3513 1497 
Q 3513 744 3044 326 
Q 2575 -91 1722 -91 
Q 1428 -91 1123 -41 
Q 819 9 494 109 
L 494 744 
Q 775 591 1075 516 
Q 1375 441 1709 441 
Q 2250 441 2565 725 
Q 2881 1009 2881 1497 
Q 2881 1984 2565 2268 
Q 2250 2553 1709 2553 
Q 1456 2553 1204 2497 
Q 953 2441 691 2322 
L 691 4666 
z
" id="DejaVuSans-35" transform="scale(0.015625)"/>
       </defs>
       <use xlink:href="#DejaVuSans-30"/>
       <use x="63.623047" xlink:href="#DejaVuSans-2e"/>
       <use x="95.410156" xlink:href="#DejaVuSans-30"/>
       <use x="159.033203" xlink:href="#DejaVuSans-35"/>
      </g>
     </g>
    </g>
    <g id="xtick_3">
     <g id="line2d_3">
      <g>
       <use style="stroke:#000000;stroke-width:0.8;" x="339.054545" xlink:href="#mb67e1bfc4e" y="504"/>
      </g>
     </g>
     <g id="text_3">
      <!-- 0.10 -->
      <g transform="translate(327.921733 518.598438)scale(0.1 -0.1)">
       <defs>
        <path d="M 794 531 
L 1825 531 
L 1825 4091 
L 703 3866 
L 703 4441 
L 1819 4666 
L 2450 4666 
L 2450 531 
L 3481 531 
L 3481 0 
L 794 0 
L 794 531 
z
" id="DejaVuSans-31" transform="scale(0.015625)"/>
       </defs>
       <use xlink:href="#DejaVuSans-30"/>
       <use x="63.623047" xlink:href="#DejaVuSans-2e"/>
       <use x="95.410156" xlink:href="#DejaVuSans-31"/>
       <use x="159.033203" xlink:href="#DejaVuSans-30"/>
      </g>
     </g>
    </g>
    <g id="xtick_4">
     <g id="line2d_4">
      <g>
       <use style="stroke:#000000;stroke-width:0.8;" x="427.827273" xlink:href="#mb67e1bfc4e" y="504"/>
      </g>
     </g>
     <g id="text_4">
      <!-- 0.15 -->
      <g transform="translate(416.69446 518.598438)scale(0.1 -0.1)">
       <use xlink:href="#DejaVuSans-30"/>
       <use x="63.623047" xlink:href="#DejaVuSans-2e"/>
       <use x="95.410156" xlink:href="#DejaVuSans-31"/>
       <use x="159.033203" xlink:href="#DejaVuSans-35"/>
      </g>
     </g>
    </g>
    <g id="xtick_5">
     <g id="line2d_5">
      <g>
       <use style="stroke:#000000;stroke-width:0.8;" x="516.6" xlink:href="#mb67e1bfc4e" y="504"/>
      </g>
     </g>
     <g id="text_5">
      <!-- 0.20 -->
      <g transform="translate(505.467187 518.598438)scale(0.1 -0.1)">
       <defs>
        <path d="M 1228 531 
L 3431 531 
L 3431 0 
L 469 0 
L 469 531 
Q 828 903 1448 1529 
Q 2069 2156 2228 2338 
Q 2531 2678 2651 2914 
Q 2772 3150 2772 3378 
Q 2772 3750 2511 3984 
Q 2250 4219 1831 4219 
Q 1534 4219 1204 4116 
Q 875 4013 500 3803 
L 500 4441 
Q 881 4594 1212 4672 
Q 1544 4750 1819 4750 
Q 2544 4750 2975 4387 
Q 3406 4025 3406 3419 
Q 3406 3131 3298 2873 
Q 3191 2616 2906 2266 
Q 2828 2175 2409 1742 
Q 1991 1309 1228 531 
z
" id="DejaVuSans-32" transform="scale(0.015625)"/>
       </defs>
       <use xlink:href="#DejaVuSans-30"/>
       <use x="63.623047" xlink:href="#DejaVuSans-2e"/>
       <use x="95.410156" xlink:href="#DejaVuSans-32"/>
       <use x="159.033203" xlink:href="#DejaVuSans-30"/>
      </g>
     </g>
    </g>
    <g id="xtick_6">
     <g id="line2d_6">
      <g>
       <use style="stroke:#000000;stroke-width:0.8;" x="605.372727" xlink:href="#mb67e1bfc4e" y="504"/>
      </g>
     </g>
     <g id="text_6">
      <!-- 0.25 -->
      <g transform="translate(594.239915 518.598438)scale(0.1 -0.1)">
       <use xlink:href="#DejaVuSans-30"/>
       <use x="63.623047" xlink:href="#DejaVuSans-2e"/>
       <use x="95.410156" xlink:href="#DejaVuSans-32"/>
       <use x="159.033203" xlink:href="#DejaVuSans-35"/>
      </g>
     </g>
    </g>
    <g id="xtick_7">
     <g id="line2d_7">
      <g>
       <use style="stroke:#000000;stroke-width:0.8;" x="694.145455" xlink:href="#mb67e1bfc4e" y="504"/>
      </g>
     </g>
     <g id="text_7">
      <!-- 0.30 -->
      <g transform="translate(683.012642 518.598438)scale(0.1 -0.1)">
       <defs>
        <path d="M 2597 2516 
Q 3050 2419 3304 2112 
Q 3559 1806 3559 1356 
Q 3559 666 3084 287 
Q 2609 -91 1734 -91 
Q 1441 -91 1130 -33 
Q 819 25 488 141 
L 488 750 
Q 750 597 1062 519 
Q 1375 441 1716 441 
Q 2309 441 2620 675 
Q 2931 909 2931 1356 
Q 2931 1769 2642 2001 
Q 2353 2234 1838 2234 
L 1294 2234 
L 1294 2753 
L 1863 2753 
Q 2328 2753 2575 2939 
Q 2822 3125 2822 3475 
Q 2822 3834 2567 4026 
Q 2313 4219 1838 4219 
Q 1578 4219 1281 4162 
Q 984 4106 628 3988 
L 628 4550 
Q 988 4650 1302 4700 
Q 1616 4750 1894 4750 
Q 2613 4750 3031 4423 
Q 3450 4097 3450 3541 
Q 3450 3153 3228 2886 
Q 3006 2619 2597 2516 
z
" id="DejaVuSans-33" transform="scale(0.015625)"/>
       </defs>
       <use xlink:href="#DejaVuSans-30"/>
       <use x="63.623047" xlink:href="#DejaVuSans-2e"/>
       <use x="95.410156" xlink:href="#DejaVuSans-33"/>
       <use x="159.033203" xlink:href="#DejaVuSans-30"/>
      </g>
     </g>
    </g>
    <g id="xtick_8">
     <g id="line2d_8">
      <g>
       <use style="stroke:#000000;stroke-width:0.8;" x="782.918182" xlink:href="#mb67e1bfc4e" y="504"/>
      </g>
     </g>
     <g id="text_8">
      <!-- 0.35 -->
      <g transform="translate(771.785369 518.598438)scale(0.1 -0.1)">
       <use xlink:href="#DejaVuSans-30"/>
       <use x="63.623047" xlink:href="#DejaVuSans-2e"/>
       <use x="95.410156" xlink:href="#DejaVuSans-33"/>
       <use x="159.033203" xlink:href="#DejaVuSans-35"/>
      </g>
     </g>
    </g>
    <g id="xtick_9">
     <g id="line2d_9">
      <g>
       <use style="stroke:#000000;stroke-width:0.8;" x="871.690909" xlink:href="#mb67e1bfc4e" y="504"/>
      </g>
     </g>
     <g id="text_9">
      <!-- 0.40 -->
      <g transform="translate(860.558097 518.598438)scale(0.1 -0.1)">
       <defs>
        <path d="M 2419 4116 
L 825 1625 
L 2419 1625 
L 2419 4116 
z
M 2253 4666 
L 3047 4666 
L 3047 1625 
L 3713 1625 
L 3713 1100 
L 3047 1100 
L 3047 0 
L 2419 0 
L 2419 1100 
L 313 1100 
L 313 1709 
L 2253 4666 
z
" id="DejaVuSans-34" transform="scale(0.015625)"/>
       </defs>
       <use xlink:href="#DejaVuSans-30"/>
       <use x="63.623047" xlink:href="#DejaVuSans-2e"/>
       <use x="95.410156" xlink:href="#DejaVuSans-34"/>
       <use x="159.033203" xlink:href="#DejaVuSans-30"/>
      </g>
     </g>
    </g>
   </g>
   <g id="matplotlib.axis_2">
    <g id="ytick_1">
     <g id="line2d_10">
      <defs>
       <path d="M 0 0 
L -3.5 0 
" id="m9cf5ce37ac" style="stroke:#000000;stroke-width:0.8;"/>
      </defs>
      <g>
       <use style="stroke:#000000;stroke-width:0.8;" x="126" xlink:href="#m9cf5ce37ac" y="493.406053"/>
      </g>
     </g>
     <g id="text_10">
      <!-- 0.81 -->
      <g transform="translate(96.734375 497.205272)scale(0.1 -0.1)">
       <defs>
        <path d="M 2034 2216 
Q 1584 2216 1326 1975 
Q 1069 1734 1069 1313 
Q 1069 891 1326 650 
Q 1584 409 2034 409 
Q 2484 409 2743 651 
Q 3003 894 3003 1313 
Q 3003 1734 2745 1975 
Q 2488 2216 2034 2216 
z
M 1403 2484 
Q 997 2584 770 2862 
Q 544 3141 544 3541 
Q 544 4100 942 4425 
Q 1341 4750 2034 4750 
Q 2731 4750 3128 4425 
Q 3525 4100 3525 3541 
Q 3525 3141 3298 2862 
Q 3072 2584 2669 2484 
Q 3125 2378 3379 2068 
Q 3634 1759 3634 1313 
Q 3634 634 3220 271 
Q 2806 -91 2034 -91 
Q 1263 -91 848 271 
Q 434 634 434 1313 
Q 434 1759 690 2068 
Q 947 2378 1403 2484 
z
M 1172 3481 
Q 1172 3119 1398 2916 
Q 1625 2713 2034 2713 
Q 2441 2713 2670 2916 
Q 2900 3119 2900 3481 
Q 2900 3844 2670 4047 
Q 2441 4250 2034 4250 
Q 1625 4250 1398 4047 
Q 1172 3844 1172 3481 
z
" id="DejaVuSans-38" transform="scale(0.015625)"/>
       </defs>
       <use xlink:href="#DejaVuSans-30"/>
       <use x="63.623047" xlink:href="#DejaVuSans-2e"/>
       <use x="95.410156" xlink:href="#DejaVuSans-38"/>
       <use x="159.033203" xlink:href="#DejaVuSans-31"/>
      </g>
     </g>
    </g>
    <g id="ytick_2">
     <g id="line2d_11">
      <g>
       <use style="stroke:#000000;stroke-width:0.8;" x="126" xlink:href="#m9cf5ce37ac" y="441.55878"/>
      </g>
     </g>
     <g id="text_11">
      <!-- 0.82 -->
      <g transform="translate(96.734375 445.357998)scale(0.1 -0.1)">
       <use xlink:href="#DejaVuSans-30"/>
       <use x="63.623047" xlink:href="#DejaVuSans-2e"/>
       <use x="95.410156" xlink:href="#DejaVuSans-38"/>
       <use x="159.033203" xlink:href="#DejaVuSans-32"/>
      </g>
     </g>
    </g>
    <g id="ytick_3">
     <g id="line2d_12">
      <g>
       <use style="stroke:#000000;stroke-width:0.8;" x="126" xlink:href="#m9cf5ce37ac" y="389.711506"/>
      </g>
     </g>
     <g id="text_12">
      <!-- 0.83 -->
      <g transform="translate(96.734375 393.510725)scale(0.1 -0.1)">
       <use xlink:href="#DejaVuSans-30"/>
       <use x="63.623047" xlink:href="#DejaVuSans-2e"/>
       <use x="95.410156" xlink:href="#DejaVuSans-38"/>
       <use x="159.033203" xlink:href="#DejaVuSans-33"/>
      </g>
     </g>
    </g>
    <g id="ytick_4">
     <g id="line2d_13">
      <g>
       <use style="stroke:#000000;stroke-width:0.8;" x="126" xlink:href="#m9cf5ce37ac" y="337.864233"/>
      </g>
     </g>
     <g id="text_13">
      <!-- 0.84 -->
      <g transform="translate(96.734375 341.663452)scale(0.1 -0.1)">
       <use xlink:href="#DejaVuSans-30"/>
       <use x="63.623047" xlink:href="#DejaVuSans-2e"/>
       <use x="95.410156" xlink:href="#DejaVuSans-38"/>
       <use x="159.033203" xlink:href="#DejaVuSans-34"/>
      </g>
     </g>
    </g>
    <g id="ytick_5">
     <g id="line2d_14">
      <g>
       <use style="stroke:#000000;stroke-width:0.8;" x="126" xlink:href="#m9cf5ce37ac" y="286.01696"/>
      </g>
     </g>
     <g id="text_14">
      <!-- 0.85 -->
      <g transform="translate(96.734375 289.816179)scale(0.1 -0.1)">
       <use xlink:href="#DejaVuSans-30"/>
       <use x="63.623047" xlink:href="#DejaVuSans-2e"/>
       <use x="95.410156" xlink:href="#DejaVuSans-38"/>
       <use x="159.033203" xlink:href="#DejaVuSans-35"/>
      </g>
     </g>
    </g>
    <g id="ytick_6">
     <g id="line2d_15">
      <g>
       <use style="stroke:#000000;stroke-width:0.8;" x="126" xlink:href="#m9cf5ce37ac" y="234.169687"/>
      </g>
     </g>
     <g id="text_15">
      <!-- 0.86 -->
      <g transform="translate(96.734375 237.968905)scale(0.1 -0.1)">
       <defs>
        <path d="M 2113 2584 
Q 1688 2584 1439 2293 
Q 1191 2003 1191 1497 
Q 1191 994 1439 701 
Q 1688 409 2113 409 
Q 2538 409 2786 701 
Q 3034 994 3034 1497 
Q 3034 2003 2786 2293 
Q 2538 2584 2113 2584 
z
M 3366 4563 
L 3366 3988 
Q 3128 4100 2886 4159 
Q 2644 4219 2406 4219 
Q 1781 4219 1451 3797 
Q 1122 3375 1075 2522 
Q 1259 2794 1537 2939 
Q 1816 3084 2150 3084 
Q 2853 3084 3261 2657 
Q 3669 2231 3669 1497 
Q 3669 778 3244 343 
Q 2819 -91 2113 -91 
Q 1303 -91 875 529 
Q 447 1150 447 2328 
Q 447 3434 972 4092 
Q 1497 4750 2381 4750 
Q 2619 4750 2861 4703 
Q 3103 4656 3366 4563 
z
" id="DejaVuSans-36" transform="scale(0.015625)"/>
       </defs>
       <use xlink:href="#DejaVuSans-30"/>
       <use x="63.623047" xlink:href="#DejaVuSans-2e"/>
       <use x="95.410156" xlink:href="#DejaVuSans-38"/>
       <use x="159.033203" xlink:href="#DejaVuSans-36"/>
      </g>
     </g>
    </g>
    <g id="ytick_7">
     <g id="line2d_16">
      <g>
       <use style="stroke:#000000;stroke-width:0.8;" x="126" xlink:href="#m9cf5ce37ac" y="182.322413"/>
      </g>
     </g>
     <g id="text_16">
      <!-- 0.87 -->
      <g transform="translate(96.734375 186.121632)scale(0.1 -0.1)">
       <defs>
        <path d="M 525 4666 
L 3525 4666 
L 3525 4397 
L 1831 0 
L 1172 0 
L 2766 4134 
L 525 4134 
L 525 4666 
z
" id="DejaVuSans-37" transform="scale(0.015625)"/>
       </defs>
       <use xlink:href="#DejaVuSans-30"/>
       <use x="63.623047" xlink:href="#DejaVuSans-2e"/>
       <use x="95.410156" xlink:href="#DejaVuSans-38"/>
       <use x="159.033203" xlink:href="#DejaVuSans-37"/>
      </g>
     </g>
    </g>
    <g id="ytick_8">
     <g id="line2d_17">
      <g>
       <use style="stroke:#000000;stroke-width:0.8;" x="126" xlink:href="#m9cf5ce37ac" y="130.47514"/>
      </g>
     </g>
     <g id="text_17">
      <!-- 0.88 -->
      <g transform="translate(96.734375 134.274359)scale(0.1 -0.1)">
       <use xlink:href="#DejaVuSans-30"/>
       <use x="63.623047" xlink:href="#DejaVuSans-2e"/>
       <use x="95.410156" xlink:href="#DejaVuSans-38"/>
       <use x="159.033203" xlink:href="#DejaVuSans-38"/>
      </g>
     </g>
    </g>
    <g id="ytick_9">
     <g id="line2d_18">
      <g>
       <use style="stroke:#000000;stroke-width:0.8;" x="126" xlink:href="#m9cf5ce37ac" y="78.627867"/>
      </g>
     </g>
     <g id="text_18">
      <!-- 0.89 -->
      <g transform="translate(96.734375 82.427086)scale(0.1 -0.1)">
       <defs>
        <path d="M 703 97 
L 703 672 
Q 941 559 1184 500 
Q 1428 441 1663 441 
Q 2288 441 2617 861 
Q 2947 1281 2994 2138 
Q 2813 1869 2534 1725 
Q 2256 1581 1919 1581 
Q 1219 1581 811 2004 
Q 403 2428 403 3163 
Q 403 3881 828 4315 
Q 1253 4750 1959 4750 
Q 2769 4750 3195 4129 
Q 3622 3509 3622 2328 
Q 3622 1225 3098 567 
Q 2575 -91 1691 -91 
Q 1453 -91 1209 -44 
Q 966 3 703 97 
z
M 1959 2075 
Q 2384 2075 2632 2365 
Q 2881 2656 2881 3163 
Q 2881 3666 2632 3958 
Q 2384 4250 1959 4250 
Q 1534 4250 1286 3958 
Q 1038 3666 1038 3163 
Q 1038 2656 1286 2365 
Q 1534 2075 1959 2075 
z
" id="DejaVuSans-39" transform="scale(0.015625)"/>
       </defs>
       <use xlink:href="#DejaVuSans-30"/>
       <use x="63.623047" xlink:href="#DejaVuSans-2e"/>
       <use x="95.410156" xlink:href="#DejaVuSans-38"/>
       <use x="159.033203" xlink:href="#DejaVuSans-39"/>
      </g>
     </g>
    </g>
   </g>
   <g id="line2d_19">
    <path clip-path="url(#p1fa6689e4a)" d="M 161.509091 381.72441 
L 170.386364 376.698047 
L 179.263636 377.214454 
L 197.018182 380.450606 
L 214.772727 375.596379 
L 232.527273 375.045545 
L 250.281818 369.089649 
L 268.036364 372.497936 
L 285.790909 372.325801 
L 303.545455 370.983142 
L 321.3 368.401107 
L 339.054545 371.774966 
L 356.809091 377.62758 
L 374.563636 372.670072 
L 392.318182 365.853498 
L 410.072727 366.335478 
L 427.827273 370.432308 
L 445.581818 373.909449 
L 463.336364 368.125689 
L 481.090909 368.573242 
L 498.845455 371.740539 
L 516.6 374.563565 
L 534.354545 372.050383 
L 552.109091 375.871796 
L 569.863636 381.758837 
L 587.618182 388.162285 
L 605.372727 391.811562 
L 623.127273 392.224688 
L 640.881818 391.639426 
L 658.636364 396.252663 
L 676.390909 411.985866 
L 694.145455 398.559281 
L 711.9 416.495821 
L 729.654545 419.835254 
L 747.409091 414.326912 
L 765.163636 435.05205 
L 782.918182 442.316177 
L 800.672727 447.858946 
L 818.427273 452.885309 
L 836.181818 455.191927 
L 853.936364 459.047767 
L 871.690909 468.99721 
" style="fill:none;stroke:#1f77b4;stroke-linecap:square;stroke-width:1.5;"/>
    <defs>
     <path d="M 0 3 
C 0.795609 3 1.55874 2.683901 2.12132 2.12132 
C 2.683901 1.55874 3 0.795609 3 0 
C 3 -0.795609 2.683901 -1.55874 2.12132 -2.12132 
C 1.55874 -2.683901 0.795609 -3 0 -3 
C -0.795609 -3 -1.55874 -2.683901 -2.12132 -2.12132 
C -2.683901 -1.55874 -3 -0.795609 -3 0 
C -3 0.795609 -2.683901 1.55874 -2.12132 2.12132 
C -1.55874 2.683901 -0.795609 3 0 3 
z
" id="me7b19a01c4" style="stroke:#1f77b4;"/>
    </defs>
    <g clip-path="url(#p1fa6689e4a)">
     <use style="fill:#1f77b4;stroke:#1f77b4;" x="161.509091" xlink:href="#me7b19a01c4" y="381.72441"/>
     <use style="fill:#1f77b4;stroke:#1f77b4;" x="170.386364" xlink:href="#me7b19a01c4" y="376.698047"/>
     <use style="fill:#1f77b4;stroke:#1f77b4;" x="179.263636" xlink:href="#me7b19a01c4" y="377.214454"/>
     <use style="fill:#1f77b4;stroke:#1f77b4;" x="197.018182" xlink:href="#me7b19a01c4" y="380.450606"/>
     <use style="fill:#1f77b4;stroke:#1f77b4;" x="214.772727" xlink:href="#me7b19a01c4" y="375.596379"/>
     <use style="fill:#1f77b4;stroke:#1f77b4;" x="232.527273" xlink:href="#me7b19a01c4" y="375.045545"/>
     <use style="fill:#1f77b4;stroke:#1f77b4;" x="250.281818" xlink:href="#me7b19a01c4" y="369.089649"/>
     <use style="fill:#1f77b4;stroke:#1f77b4;" x="268.036364" xlink:href="#me7b19a01c4" y="372.497936"/>
     <use style="fill:#1f77b4;stroke:#1f77b4;" x="285.790909" xlink:href="#me7b19a01c4" y="372.325801"/>
     <use style="fill:#1f77b4;stroke:#1f77b4;" x="303.545455" xlink:href="#me7b19a01c4" y="370.983142"/>
     <use style="fill:#1f77b4;stroke:#1f77b4;" x="321.3" xlink:href="#me7b19a01c4" y="368.401107"/>
     <use style="fill:#1f77b4;stroke:#1f77b4;" x="339.054545" xlink:href="#me7b19a01c4" y="371.774966"/>
     <use style="fill:#1f77b4;stroke:#1f77b4;" x="356.809091" xlink:href="#me7b19a01c4" y="377.62758"/>
     <use style="fill:#1f77b4;stroke:#1f77b4;" x="374.563636" xlink:href="#me7b19a01c4" y="372.670072"/>
     <use style="fill:#1f77b4;stroke:#1f77b4;" x="392.318182" xlink:href="#me7b19a01c4" y="365.853498"/>
     <use style="fill:#1f77b4;stroke:#1f77b4;" x="410.072727" xlink:href="#me7b19a01c4" y="366.335478"/>
     <use style="fill:#1f77b4;stroke:#1f77b4;" x="427.827273" xlink:href="#me7b19a01c4" y="370.432308"/>
     <use style="fill:#1f77b4;stroke:#1f77b4;" x="445.581818" xlink:href="#me7b19a01c4" y="373.909449"/>
     <use style="fill:#1f77b4;stroke:#1f77b4;" x="463.336364" xlink:href="#me7b19a01c4" y="368.125689"/>
     <use style="fill:#1f77b4;stroke:#1f77b4;" x="481.090909" xlink:href="#me7b19a01c4" y="368.573242"/>
     <use style="fill:#1f77b4;stroke:#1f77b4;" x="498.845455" xlink:href="#me7b19a01c4" y="371.740539"/>
     <use style="fill:#1f77b4;stroke:#1f77b4;" x="516.6" xlink:href="#me7b19a01c4" y="374.563565"/>
     <use style="fill:#1f77b4;stroke:#1f77b4;" x="534.354545" xlink:href="#me7b19a01c4" y="372.050383"/>
     <use style="fill:#1f77b4;stroke:#1f77b4;" x="552.109091" xlink:href="#me7b19a01c4" y="375.871796"/>
     <use style="fill:#1f77b4;stroke:#1f77b4;" x="569.863636" xlink:href="#me7b19a01c4" y="381.758837"/>
     <use style="fill:#1f77b4;stroke:#1f77b4;" x="587.618182" xlink:href="#me7b19a01c4" y="388.162285"/>
     <use style="fill:#1f77b4;stroke:#1f77b4;" x="605.372727" xlink:href="#me7b19a01c4" y="391.811562"/>
     <use style="fill:#1f77b4;stroke:#1f77b4;" x="623.127273" xlink:href="#me7b19a01c4" y="392.224688"/>
     <use style="fill:#1f77b4;stroke:#1f77b4;" x="640.881818" xlink:href="#me7b19a01c4" y="391.639426"/>
     <use style="fill:#1f77b4;stroke:#1f77b4;" x="658.636364" xlink:href="#me7b19a01c4" y="396.252663"/>
     <use style="fill:#1f77b4;stroke:#1f77b4;" x="676.390909" xlink:href="#me7b19a01c4" y="411.985866"/>
     <use style="fill:#1f77b4;stroke:#1f77b4;" x="694.145455" xlink:href="#me7b19a01c4" y="398.559281"/>
     <use style="fill:#1f77b4;stroke:#1f77b4;" x="711.9" xlink:href="#me7b19a01c4" y="416.495821"/>
     <use style="fill:#1f77b4;stroke:#1f77b4;" x="729.654545" xlink:href="#me7b19a01c4" y="419.835254"/>
     <use style="fill:#1f77b4;stroke:#1f77b4;" x="747.409091" xlink:href="#me7b19a01c4" y="414.326912"/>
     <use style="fill:#1f77b4;stroke:#1f77b4;" x="765.163636" xlink:href="#me7b19a01c4" y="435.05205"/>
     <use style="fill:#1f77b4;stroke:#1f77b4;" x="782.918182" xlink:href="#me7b19a01c4" y="442.316177"/>
     <use style="fill:#1f77b4;stroke:#1f77b4;" x="800.672727" xlink:href="#me7b19a01c4" y="447.858946"/>
     <use style="fill:#1f77b4;stroke:#1f77b4;" x="818.427273" xlink:href="#me7b19a01c4" y="452.885309"/>
     <use style="fill:#1f77b4;stroke:#1f77b4;" x="836.181818" xlink:href="#me7b19a01c4" y="455.191927"/>
     <use style="fill:#1f77b4;stroke:#1f77b4;" x="853.936364" xlink:href="#me7b19a01c4" y="459.047767"/>
     <use style="fill:#1f77b4;stroke:#1f77b4;" x="871.690909" xlink:href="#me7b19a01c4" y="468.99721"/>
    </g>
   </g>
   <g id="line2d_20">
    <path clip-path="url(#p1fa6689e4a)" d="M 161.509091 125.259785 
L 170.386364 123.585794 
L 179.263636 134.923703 
L 197.018182 124.86628 
L 214.772727 123.352789 
L 232.527273 124.495151 
L 250.281818 121.397889 
L 268.036364 121.875761 
L 285.790909 115.938741 
L 303.545455 112.328157 
L 321.3 109.096491 
L 339.054545 112.466046 
L 356.809091 108.410519 
L 374.563636 110.174112 
L 392.318182 103.592615 
L 410.072727 106.040836 
L 427.827273 105.309458 
L 445.581818 106.620547 
L 463.336364 98.710445 
L 481.090909 108.6215 
L 498.845455 116.499104 
L 516.6 115.659522 
L 534.354545 115.970202 
L 552.109091 123.211705 
L 569.863636 123.89291 
L 587.618182 127.213352 
L 605.372727 133.698948 
L 623.127273 143.847424 
L 640.881818 142.430691 
L 658.636364 152.764127 
L 676.390909 166.383207 
L 694.145455 158.978966 
L 711.9 185.046165 
L 729.654545 192.142767 
L 747.409091 188.71005 
L 765.163636 215.732179 
L 782.918182 225.388616 
L 800.672727 239.636797 
L 818.427273 240.238064 
L 836.181818 249.683607 
L 853.936364 263.07366 
L 871.690909 287.319871 
" style="fill:none;stroke:#ff7f0e;stroke-linecap:square;stroke-width:1.5;"/>
    <defs>
     <path d="M 0 3 
C 0.795609 3 1.55874 2.683901 2.12132 2.12132 
C 2.683901 1.55874 3 0.795609 3 0 
C 3 -0.795609 2.683901 -1.55874 2.12132 -2.12132 
C 1.55874 -2.683901 0.795609 -3 0 -3 
C -0.795609 -3 -1.55874 -2.683901 -2.12132 -2.12132 
C -2.683901 -1.55874 -3 -0.795609 -3 0 
C -3 0.795609 -2.683901 1.55874 -2.12132 2.12132 
C -1.55874 2.683901 -0.795609 3 0 3 
z
" id="m45ea626b86" style="stroke:#ff7f0e;"/>
    </defs>
    <g clip-path="url(#p1fa6689e4a)">
     <use style="fill:#ff7f0e;stroke:#ff7f0e;" x="161.509091" xlink:href="#m45ea626b86" y="125.259785"/>
     <use style="fill:#ff7f0e;stroke:#ff7f0e;" x="170.386364" xlink:href="#m45ea626b86" y="123.585794"/>
     <use style="fill:#ff7f0e;stroke:#ff7f0e;" x="179.263636" xlink:href="#m45ea626b86" y="134.923703"/>
     <use style="fill:#ff7f0e;stroke:#ff7f0e;" x="197.018182" xlink:href="#m45ea626b86" y="124.86628"/>
     <use style="fill:#ff7f0e;stroke:#ff7f0e;" x="214.772727" xlink:href="#m45ea626b86" y="123.352789"/>
     <use style="fill:#ff7f0e;stroke:#ff7f0e;" x="232.527273" xlink:href="#m45ea626b86" y="124.495151"/>
     <use style="fill:#ff7f0e;stroke:#ff7f0e;" x="250.281818" xlink:href="#m45ea626b86" y="121.397889"/>
     <use style="fill:#ff7f0e;stroke:#ff7f0e;" x="268.036364" xlink:href="#m45ea626b86" y="121.875761"/>
     <use style="fill:#ff7f0e;stroke:#ff7f0e;" x="285.790909" xlink:href="#m45ea626b86" y="115.938741"/>
     <use style="fill:#ff7f0e;stroke:#ff7f0e;" x="303.545455" xlink:href="#m45ea626b86" y="112.328157"/>
     <use style="fill:#ff7f0e;stroke:#ff7f0e;" x="321.3" xlink:href="#m45ea626b86" y="109.096491"/>
     <use style="fill:#ff7f0e;stroke:#ff7f0e;" x="339.054545" xlink:href="#m45ea626b86" y="112.466046"/>
     <use style="fill:#ff7f0e;stroke:#ff7f0e;" x="356.809091" xlink:href="#m45ea626b86" y="108.410519"/>
     <use style="fill:#ff7f0e;stroke:#ff7f0e;" x="374.563636" xlink:href="#m45ea626b86" y="110.174112"/>
     <use style="fill:#ff7f0e;stroke:#ff7f0e;" x="392.318182" xlink:href="#m45ea626b86" y="103.592615"/>
     <use style="fill:#ff7f0e;stroke:#ff7f0e;" x="410.072727" xlink:href="#m45ea626b86" y="106.040836"/>
     <use style="fill:#ff7f0e;stroke:#ff7f0e;" x="427.827273" xlink:href="#m45ea626b86" y="105.309458"/>
     <use style="fill:#ff7f0e;stroke:#ff7f0e;" x="445.581818" xlink:href="#m45ea626b86" y="106.620547"/>
     <use style="fill:#ff7f0e;stroke:#ff7f0e;" x="463.336364" xlink:href="#m45ea626b86" y="98.710445"/>
     <use style="fill:#ff7f0e;stroke:#ff7f0e;" x="481.090909" xlink:href="#m45ea626b86" y="108.6215"/>
     <use style="fill:#ff7f0e;stroke:#ff7f0e;" x="498.845455" xlink:href="#m45ea626b86" y="116.499104"/>
     <use style="fill:#ff7f0e;stroke:#ff7f0e;" x="516.6" xlink:href="#m45ea626b86" y="115.659522"/>
     <use style="fill:#ff7f0e;stroke:#ff7f0e;" x="534.354545" xlink:href="#m45ea626b86" y="115.970202"/>
     <use style="fill:#ff7f0e;stroke:#ff7f0e;" x="552.109091" xlink:href="#m45ea626b86" y="123.211705"/>
     <use style="fill:#ff7f0e;stroke:#ff7f0e;" x="569.863636" xlink:href="#m45ea626b86" y="123.89291"/>
     <use style="fill:#ff7f0e;stroke:#ff7f0e;" x="587.618182" xlink:href="#m45ea626b86" y="127.213352"/>
     <use style="fill:#ff7f0e;stroke:#ff7f0e;" x="605.372727" xlink:href="#m45ea626b86" y="133.698948"/>
     <use style="fill:#ff7f0e;stroke:#ff7f0e;" x="623.127273" xlink:href="#m45ea626b86" y="143.847424"/>
     <use style="fill:#ff7f0e;stroke:#ff7f0e;" x="640.881818" xlink:href="#m45ea626b86" y="142.430691"/>
     <use style="fill:#ff7f0e;stroke:#ff7f0e;" x="658.636364" xlink:href="#m45ea626b86" y="152.764127"/>
     <use style="fill:#ff7f0e;stroke:#ff7f0e;" x="676.390909" xlink:href="#m45ea626b86" y="166.383207"/>
     <use style="fill:#ff7f0e;stroke:#ff7f0e;" x="694.145455" xlink:href="#m45ea626b86" y="158.978966"/>
     <use style="fill:#ff7f0e;stroke:#ff7f0e;" x="711.9" xlink:href="#m45ea626b86" y="185.046165"/>
     <use style="fill:#ff7f0e;stroke:#ff7f0e;" x="729.654545" xlink:href="#m45ea626b86" y="192.142767"/>
     <use style="fill:#ff7f0e;stroke:#ff7f0e;" x="747.409091" xlink:href="#m45ea626b86" y="188.71005"/>
     <use style="fill:#ff7f0e;stroke:#ff7f0e;" x="765.163636" xlink:href="#m45ea626b86" y="215.732179"/>
     <use style="fill:#ff7f0e;stroke:#ff7f0e;" x="782.918182" xlink:href="#m45ea626b86" y="225.388616"/>
     <use style="fill:#ff7f0e;stroke:#ff7f0e;" x="800.672727" xlink:href="#m45ea626b86" y="239.636797"/>
     <use style="fill:#ff7f0e;stroke:#ff7f0e;" x="818.427273" xlink:href="#m45ea626b86" y="240.238064"/>
     <use style="fill:#ff7f0e;stroke:#ff7f0e;" x="836.181818" xlink:href="#m45ea626b86" y="249.683607"/>
     <use style="fill:#ff7f0e;stroke:#ff7f0e;" x="853.936364" xlink:href="#m45ea626b86" y="263.07366"/>
     <use style="fill:#ff7f0e;stroke:#ff7f0e;" x="871.690909" xlink:href="#m45ea626b86" y="287.319871"/>
    </g>
   </g>
   <g id="patch_3">
    <path d="M 126 504 
L 126 69.12 
" style="fill:none;stroke:#000000;stroke-linecap:square;stroke-linejoin:miter;stroke-width:0.8;"/>
   </g>
   <g id="patch_4">
    <path d="M 907.2 504 
L 907.2 69.12 
" style="fill:none;stroke:#000000;stroke-linecap:square;stroke-linejoin:miter;stroke-width:0.8;"/>
   </g>
   <g id="patch_5">
    <path d="M 126 504 
L 907.2 504 
" style="fill:none;stroke:#000000;stroke-linecap:square;stroke-linejoin:miter;stroke-width:0.8;"/>
   </g>
   <g id="patch_6">
    <path d="M 126 69.12 
L 907.2 69.12 
" style="fill:none;stroke:#000000;stroke-linecap:square;stroke-linejoin:miter;stroke-width:0.8;"/>
   </g>
   <g id="legend_1">
    <g id="patch_7">
     <path d="M 744.5 499 
L 900.2 499 
Q 902.2 499 902.2 497 
L 902.2 439.267187 
Q 902.2 437.267187 900.2 437.267187 
L 744.5 437.267187 
Q 742.5 437.267187 742.5 439.267187 
L 742.5 497 
Q 742.5 499 744.5 499 
z
" style="fill:#ffffff;opacity:0.8;stroke:#cccccc;stroke-linejoin:miter;"/>
    </g>
    <g id="line2d_21">
     <path d="M 746.5 445.365625 
L 766.5 445.365625 
" style="fill:none;stroke:#1f77b4;stroke-linecap:square;stroke-width:1.5;"/>
    </g>
    <g id="line2d_22">
     <g>
      <use style="fill:#1f77b4;stroke:#1f77b4;" x="756.5" xlink:href="#me7b19a01c4" y="445.365625"/>
     </g>
    </g>
    <g id="text_19">
     <!-- Accuracy -->
     <g transform="translate(774.5 448.865625)scale(0.1 -0.1)">
      <defs>
       <path d="M 2188 4044 
L 1331 1722 
L 3047 1722 
L 2188 4044 
z
M 1831 4666 
L 2547 4666 
L 4325 0 
L 3669 0 
L 3244 1197 
L 1141 1197 
L 716 0 
L 50 0 
L 1831 4666 
z
" id="DejaVuSans-41" transform="scale(0.015625)"/>
       <path d="M 3122 3366 
L 3122 2828 
Q 2878 2963 2633 3030 
Q 2388 3097 2138 3097 
Q 1578 3097 1268 2742 
Q 959 2388 959 1747 
Q 959 1106 1268 751 
Q 1578 397 2138 397 
Q 2388 397 2633 464 
Q 2878 531 3122 666 
L 3122 134 
Q 2881 22 2623 -34 
Q 2366 -91 2075 -91 
Q 1284 -91 818 406 
Q 353 903 353 1747 
Q 353 2603 823 3093 
Q 1294 3584 2113 3584 
Q 2378 3584 2631 3529 
Q 2884 3475 3122 3366 
z
" id="DejaVuSans-63" transform="scale(0.015625)"/>
       <path d="M 544 1381 
L 544 3500 
L 1119 3500 
L 1119 1403 
Q 1119 906 1312 657 
Q 1506 409 1894 409 
Q 2359 409 2629 706 
Q 2900 1003 2900 1516 
L 2900 3500 
L 3475 3500 
L 3475 0 
L 2900 0 
L 2900 538 
Q 2691 219 2414 64 
Q 2138 -91 1772 -91 
Q 1169 -91 856 284 
Q 544 659 544 1381 
z
M 1991 3584 
L 1991 3584 
z
" id="DejaVuSans-75" transform="scale(0.015625)"/>
       <path d="M 2631 2963 
Q 2534 3019 2420 3045 
Q 2306 3072 2169 3072 
Q 1681 3072 1420 2755 
Q 1159 2438 1159 1844 
L 1159 0 
L 581 0 
L 581 3500 
L 1159 3500 
L 1159 2956 
Q 1341 3275 1631 3429 
Q 1922 3584 2338 3584 
Q 2397 3584 2469 3576 
Q 2541 3569 2628 3553 
L 2631 2963 
z
" id="DejaVuSans-72" transform="scale(0.015625)"/>
       <path d="M 2194 1759 
Q 1497 1759 1228 1600 
Q 959 1441 959 1056 
Q 959 750 1161 570 
Q 1363 391 1709 391 
Q 2188 391 2477 730 
Q 2766 1069 2766 1631 
L 2766 1759 
L 2194 1759 
z
M 3341 1997 
L 3341 0 
L 2766 0 
L 2766 531 
Q 2569 213 2275 61 
Q 1981 -91 1556 -91 
Q 1019 -91 701 211 
Q 384 513 384 1019 
Q 384 1609 779 1909 
Q 1175 2209 1959 2209 
L 2766 2209 
L 2766 2266 
Q 2766 2663 2505 2880 
Q 2244 3097 1772 3097 
Q 1472 3097 1187 3025 
Q 903 2953 641 2809 
L 641 3341 
Q 956 3463 1253 3523 
Q 1550 3584 1831 3584 
Q 2591 3584 2966 3190 
Q 3341 2797 3341 1997 
z
" id="DejaVuSans-61" transform="scale(0.015625)"/>
       <path d="M 2059 -325 
Q 1816 -950 1584 -1140 
Q 1353 -1331 966 -1331 
L 506 -1331 
L 506 -850 
L 844 -850 
Q 1081 -850 1212 -737 
Q 1344 -625 1503 -206 
L 1606 56 
L 191 3500 
L 800 3500 
L 1894 763 
L 2988 3500 
L 3597 3500 
L 2059 -325 
z
" id="DejaVuSans-79" transform="scale(0.015625)"/>
      </defs>
      <use xlink:href="#DejaVuSans-41"/>
      <use x="66.658203" xlink:href="#DejaVuSans-63"/>
      <use x="121.638672" xlink:href="#DejaVuSans-63"/>
      <use x="176.619141" xlink:href="#DejaVuSans-75"/>
      <use x="239.998047" xlink:href="#DejaVuSans-72"/>
      <use x="281.111328" xlink:href="#DejaVuSans-61"/>
      <use x="342.390625" xlink:href="#DejaVuSans-63"/>
      <use x="397.371094" xlink:href="#DejaVuSans-79"/>
     </g>
    </g>
    <g id="line2d_23">
     <path d="M 746.5 460.04375 
L 766.5 460.04375 
" style="fill:none;stroke:#ff7f0e;stroke-linecap:square;stroke-width:1.5;"/>
    </g>
    <g id="line2d_24">
     <g>
      <use style="fill:#ff7f0e;stroke:#ff7f0e;" x="756.5" xlink:href="#m45ea626b86" y="460.04375"/>
     </g>
    </g>
    <g id="text_20">
     <!-- AUC -->
     <g transform="translate(774.5 463.54375)scale(0.1 -0.1)">
      <defs>
       <path d="M 556 4666 
L 1191 4666 
L 1191 1831 
Q 1191 1081 1462 751 
Q 1734 422 2344 422 
Q 2950 422 3222 751 
Q 3494 1081 3494 1831 
L 3494 4666 
L 4128 4666 
L 4128 1753 
Q 4128 841 3676 375 
Q 3225 -91 2344 -91 
Q 1459 -91 1007 375 
Q 556 841 556 1753 
L 556 4666 
z
" id="DejaVuSans-55" transform="scale(0.015625)"/>
       <path d="M 4122 4306 
L 4122 3641 
Q 3803 3938 3442 4084 
Q 3081 4231 2675 4231 
Q 1875 4231 1450 3742 
Q 1025 3253 1025 2328 
Q 1025 1406 1450 917 
Q 1875 428 2675 428 
Q 3081 428 3442 575 
Q 3803 722 4122 1019 
L 4122 359 
Q 3791 134 3420 21 
Q 3050 -91 2638 -91 
Q 1578 -91 968 557 
Q 359 1206 359 2328 
Q 359 3453 968 4101 
Q 1578 4750 2638 4750 
Q 3056 4750 3426 4639 
Q 3797 4528 4122 4306 
z
" id="DejaVuSans-43" transform="scale(0.015625)"/>
      </defs>
      <use xlink:href="#DejaVuSans-41"/>
      <use x="68.408203" xlink:href="#DejaVuSans-55"/>
      <use x="141.601562" xlink:href="#DejaVuSans-43"/>
     </g>
    </g>
    <g id="patch_8">
     <path d="M 746.5 478.221875 
L 766.5 478.221875 
L 766.5 471.221875 
L 746.5 471.221875 
z
" style="fill:#1f77b4;fill-opacity:0.5;stroke:#1f77b4;stroke-linejoin:miter;stroke-opacity:0.5;"/>
    </g>
    <g id="text_21">
     <!-- Accuracy $\pm$ SD Accuracy -->
     <g transform="translate(774.5 478.221875)scale(0.1 -0.1)">
      <defs>
       <path id="DejaVuSans-20" transform="scale(0.015625)"/>
       <path d="M 2944 4013 
L 2944 2803 
L 4684 2803 
L 4684 2272 
L 2944 2272 
L 2944 1063 
L 2419 1063 
L 2419 2272 
L 678 2272 
L 678 2803 
L 2419 2803 
L 2419 4013 
L 2944 4013 
z
M 678 531 
L 4684 531 
L 4684 0 
L 678 0 
L 678 531 
z
" id="DejaVuSans-b1" transform="scale(0.015625)"/>
       <path d="M 3425 4513 
L 3425 3897 
Q 3066 4069 2747 4153 
Q 2428 4238 2131 4238 
Q 1616 4238 1336 4038 
Q 1056 3838 1056 3469 
Q 1056 3159 1242 3001 
Q 1428 2844 1947 2747 
L 2328 2669 
Q 3034 2534 3370 2195 
Q 3706 1856 3706 1288 
Q 3706 609 3251 259 
Q 2797 -91 1919 -91 
Q 1588 -91 1214 -16 
Q 841 59 441 206 
L 441 856 
Q 825 641 1194 531 
Q 1563 422 1919 422 
Q 2459 422 2753 634 
Q 3047 847 3047 1241 
Q 3047 1584 2836 1778 
Q 2625 1972 2144 2069 
L 1759 2144 
Q 1053 2284 737 2584 
Q 422 2884 422 3419 
Q 422 4038 858 4394 
Q 1294 4750 2059 4750 
Q 2388 4750 2728 4690 
Q 3069 4631 3425 4513 
z
" id="DejaVuSans-53" transform="scale(0.015625)"/>
       <path d="M 1259 4147 
L 1259 519 
L 2022 519 
Q 2988 519 3436 956 
Q 3884 1394 3884 2338 
Q 3884 3275 3436 3711 
Q 2988 4147 2022 4147 
L 1259 4147 
z
M 628 4666 
L 1925 4666 
Q 3281 4666 3915 4102 
Q 4550 3538 4550 2338 
Q 4550 1131 3912 565 
Q 3275 0 1925 0 
L 628 0 
L 628 4666 
z
" id="DejaVuSans-44" transform="scale(0.015625)"/>
      </defs>
      <use transform="translate(0 0.78125)" xlink:href="#DejaVuSans-41"/>
      <use transform="translate(68.408203 0.78125)" xlink:href="#DejaVuSans-63"/>
      <use transform="translate(123.388672 0.78125)" xlink:href="#DejaVuSans-63"/>
      <use transform="translate(178.369141 0.78125)" xlink:href="#DejaVuSans-75"/>
      <use transform="translate(241.748047 0.78125)" xlink:href="#DejaVuSans-72"/>
      <use transform="translate(282.861328 0.78125)" xlink:href="#DejaVuSans-61"/>
      <use transform="translate(344.140625 0.78125)" xlink:href="#DejaVuSans-63"/>
      <use transform="translate(399.121094 0.78125)" xlink:href="#DejaVuSans-79"/>
      <use transform="translate(458.300781 0.78125)" xlink:href="#DejaVuSans-20"/>
      <use transform="translate(490.087891 0.78125)" xlink:href="#DejaVuSans-b1"/>
      <use transform="translate(573.876953 0.78125)" xlink:href="#DejaVuSans-20"/>
      <use transform="translate(605.664062 0.78125)" xlink:href="#DejaVuSans-53"/>
      <use transform="translate(669.140625 0.78125)" xlink:href="#DejaVuSans-44"/>
      <use transform="translate(746.142578 0.78125)" xlink:href="#DejaVuSans-20"/>
      <use transform="translate(777.929688 0.78125)" xlink:href="#DejaVuSans-41"/>
      <use transform="translate(846.337891 0.78125)" xlink:href="#DejaVuSans-63"/>
      <use transform="translate(901.318359 0.78125)" xlink:href="#DejaVuSans-63"/>
      <use transform="translate(956.298828 0.78125)" xlink:href="#DejaVuSans-75"/>
      <use transform="translate(1019.677734 0.78125)" xlink:href="#DejaVuSans-72"/>
      <use transform="translate(1060.791016 0.78125)" xlink:href="#DejaVuSans-61"/>
      <use transform="translate(1122.070312 0.78125)" xlink:href="#DejaVuSans-63"/>
      <use transform="translate(1177.050781 0.78125)" xlink:href="#DejaVuSans-79"/>
     </g>
    </g>
    <g id="patch_9">
     <path d="M 746.5 492.920313 
L 766.5 492.920313 
L 766.5 485.920313 
L 746.5 485.920313 
z
" style="fill:#ff7f0e;fill-opacity:0.5;stroke:#ff7f0e;stroke-linejoin:miter;stroke-opacity:0.5;"/>
    </g>
    <g id="text_22">
     <!-- AUC $\pm$ SD AUC -->
     <g transform="translate(774.5 492.920313)scale(0.1 -0.1)">
      <use transform="translate(0 0.78125)" xlink:href="#DejaVuSans-41"/>
      <use transform="translate(68.408203 0.78125)" xlink:href="#DejaVuSans-55"/>
      <use transform="translate(141.601562 0.78125)" xlink:href="#DejaVuSans-43"/>
      <use transform="translate(211.425781 0.78125)" xlink:href="#DejaVuSans-20"/>
      <use transform="translate(243.212891 0.78125)" xlink:href="#DejaVuSans-b1"/>
      <use transform="translate(327.001953 0.78125)" xlink:href="#DejaVuSans-20"/>
      <use transform="translate(358.789062 0.78125)" xlink:href="#DejaVuSans-53"/>
      <use transform="translate(422.265625 0.78125)" xlink:href="#DejaVuSans-44"/>
      <use transform="translate(499.267578 0.78125)" xlink:href="#DejaVuSans-20"/>
      <use transform="translate(531.054688 0.78125)" xlink:href="#DejaVuSans-41"/>
      <use transform="translate(599.462891 0.78125)" xlink:href="#DejaVuSans-55"/>
      <use transform="translate(672.65625 0.78125)" xlink:href="#DejaVuSans-43"/>
     </g>
    </g>
   </g>
  </g>
 </g>
 <defs>
  <clipPath id="p1fa6689e4a">
   <rect height="434.88" width="781.2" x="126" y="69.12"/>
  </clipPath>
 </defs>
</svg>
