<?xml version="1.0" encoding="utf-8" standalone="no"?>
<!DOCTYPE svg PUBLIC "-//W3C//DTD SVG 1.1//EN"
  "http://www.w3.org/Graphics/SVG/1.1/DTD/svg11.dtd">
<svg xmlns:xlink="http://www.w3.org/1999/xlink" width="1008pt" height="576pt" viewBox="0 0 1008 576" xmlns="http://www.w3.org/2000/svg" version="1.1">
 <metadata>
  <rdf:RDF xmlns:dc="http://purl.org/dc/elements/1.1/" xmlns:cc="http://creativecommons.org/ns#" xmlns:rdf="http://www.w3.org/1999/02/22-rdf-syntax-ns#">
   <cc:Work>
    <dc:type rdf:resource="http://purl.org/dc/dcmitype/StillImage"/>
    <dc:date>2022-02-03T16:17:18.725022</dc:date>
    <dc:format>image/svg+xml</dc:format>
    <dc:creator>
     <cc:Agent>
      <dc:title>Matplotlib v3.5.1, https://matplotlib.org/</dc:title>
     </cc:Agent>
    </dc:creator>
   </cc:Work>
  </rdf:RDF>
 </metadata>
 <defs>
  <style type="text/css">*{stroke-linejoin: round; stroke-linecap: butt}</style>
 </defs>
 <g id="figure_1">
  <g id="patch_1">
   <path d="M 0 576 
L 1008 576 
L 1008 0 
L 0 0 
L 0 576 
z
" style="fill: none"/>
  </g>
  <g id="axes_1">
   <g id="patch_2">
    <path d="M 126 504 
L 907.2 504 
L 907.2 69.12 
L 126 69.12 
z
" style="fill: #ffffff"/>
   </g>
   <g id="PathCollection_1">
    <defs>
     <path id="mc5c1882600" d="M 0 3 
C 0.795609 3 1.55874 2.683901 2.12132 2.12132 
C 2.683901 1.55874 3 0.795609 3 0 
C 3 -0.795609 2.683901 -1.55874 2.12132 -2.12132 
C 1.55874 -2.683901 0.795609 -3 0 -3 
C -0.795609 -3 -1.55874 -2.683901 -2.12132 -2.12132 
C -2.683901 -1.55874 -3 -0.795609 -3 0 
C -3 0.795609 -2.683901 1.55874 -2.12132 2.12132 
C -1.55874 2.683901 -0.795609 3 0 3 
z
" style="stroke: #1f77b4"/>
    </defs>
    <g clip-path="url(#p30757601b6)">
     <use xlink:href="#mc5c1882600" x="161.509091" y="274.885518" style="fill: #1f77b4; stroke: #1f77b4"/>
     <use xlink:href="#mc5c1882600" x="168.682645" y="226.463516" style="fill: #1f77b4; stroke: #1f77b4"/>
     <use xlink:href="#mc5c1882600" x="175.856198" y="203.019284" style="fill: #1f77b4; stroke: #1f77b4"/>
     <use xlink:href="#mc5c1882600" x="183.029752" y="205.498155" style="fill: #1f77b4; stroke: #1f77b4"/>
     <use xlink:href="#mc5c1882600" x="190.203306" y="199.300979" style="fill: #1f77b4; stroke: #1f77b4"/>
     <use xlink:href="#mc5c1882600" x="197.37686" y="194.469282" style="fill: #1f77b4; stroke: #1f77b4"/>
     <use xlink:href="#mc5c1882600" x="204.550413" y="194.175179" style="fill: #1f77b4; stroke: #1f77b4"/>
     <use xlink:href="#mc5c1882600" x="211.723967" y="191.969405" style="fill: #1f77b4; stroke: #1f77b4"/>
     <use xlink:href="#mc5c1882600" x="218.897521" y="193.944098" style="fill: #1f77b4; stroke: #1f77b4"/>
     <use xlink:href="#mc5c1882600" x="226.071074" y="188.314121" style="fill: #1f77b4; stroke: #1f77b4"/>
     <use xlink:href="#mc5c1882600" x="233.244628" y="185.982302" style="fill: #1f77b4; stroke: #1f77b4"/>
     <use xlink:href="#mc5c1882600" x="240.418182" y="190.582918" style="fill: #1f77b4; stroke: #1f77b4"/>
     <use xlink:href="#mc5c1882600" x="247.591736" y="187.851959" style="fill: #1f77b4; stroke: #1f77b4"/>
     <use xlink:href="#mc5c1882600" x="254.765289" y="190.729969" style="fill: #1f77b4; stroke: #1f77b4"/>
     <use xlink:href="#mc5c1882600" x="261.938843" y="186.780583" style="fill: #1f77b4; stroke: #1f77b4"/>
     <use xlink:href="#mc5c1882600" x="269.112397" y="182.978248" style="fill: #1f77b4; stroke: #1f77b4"/>
     <use xlink:href="#mc5c1882600" x="276.28595" y="184.532793" style="fill: #1f77b4; stroke: #1f77b4"/>
     <use xlink:href="#mc5c1882600" x="283.459504" y="183.734513" style="fill: #1f77b4; stroke: #1f77b4"/>
     <use xlink:href="#mc5c1882600" x="290.633058" y="183.818543" style="fill: #1f77b4; stroke: #1f77b4"/>
     <use xlink:href="#mc5c1882600" x="297.806612" y="178.986846" style="fill: #1f77b4; stroke: #1f77b4"/>
     <use xlink:href="#mc5c1882600" x="304.980165" y="185.015963" style="fill: #1f77b4; stroke: #1f77b4"/>
     <use xlink:href="#mc5c1882600" x="312.153719" y="179.238935" style="fill: #1f77b4; stroke: #1f77b4"/>
     <use xlink:href="#mc5c1882600" x="319.327273" y="179.070876" style="fill: #1f77b4; stroke: #1f77b4"/>
     <use xlink:href="#mc5c1882600" x="326.500826" y="179.932178" style="fill: #1f77b4; stroke: #1f77b4"/>
     <use xlink:href="#mc5c1882600" x="333.67438" y="177.180212" style="fill: #1f77b4; stroke: #1f77b4"/>
     <use xlink:href="#mc5c1882600" x="369.542149" y="179.512031" style="fill: #1f77b4; stroke: #1f77b4"/>
     <use xlink:href="#mc5c1882600" x="405.409917" y="174.55429" style="fill: #1f77b4; stroke: #1f77b4"/>
     <use xlink:href="#mc5c1882600" x="441.277686" y="176.339917" style="fill: #1f77b4; stroke: #1f77b4"/>
     <use xlink:href="#mc5c1882600" x="477.145455" y="172.075419" style="fill: #1f77b4; stroke: #1f77b4"/>
     <use xlink:href="#mc5c1882600" x="513.013223" y="171.172102" style="fill: #1f77b4; stroke: #1f77b4"/>
     <use xlink:href="#mc5c1882600" x="548.880992" y="168.777261" style="fill: #1f77b4; stroke: #1f77b4"/>
     <use xlink:href="#mc5c1882600" x="584.74876" y="170.541881" style="fill: #1f77b4; stroke: #1f77b4"/>
     <use xlink:href="#mc5c1882600" x="620.616529" y="169.932667" style="fill: #1f77b4; stroke: #1f77b4"/>
     <use xlink:href="#mc5c1882600" x="656.484298" y="174.449253" style="fill: #1f77b4; stroke: #1f77b4"/>
     <use xlink:href="#mc5c1882600" x="692.352066" y="172.579596" style="fill: #1f77b4; stroke: #1f77b4"/>
     <use xlink:href="#mc5c1882600" x="728.219835" y="170.877999" style="fill: #1f77b4; stroke: #1f77b4"/>
     <use xlink:href="#mc5c1882600" x="764.087603" y="169.722593" style="fill: #1f77b4; stroke: #1f77b4"/>
     <use xlink:href="#mc5c1882600" x="799.955372" y="170.121733" style="fill: #1f77b4; stroke: #1f77b4"/>
     <use xlink:href="#mc5c1882600" x="835.82314" y="170.478859" style="fill: #1f77b4; stroke: #1f77b4"/>
     <use xlink:href="#mc5c1882600" x="871.690909" y="168.987335" style="fill: #1f77b4; stroke: #1f77b4"/>
    </g>
   </g>
   <g id="PolyCollection_1">
    <defs>
     <path id="m7bf6033bc7" d="M 161.509091 -316.412122 
L 161.509091 -285.816842 
L 168.682645 -339.711184 
L 175.856198 -368.080365 
L 183.029752 -358.165023 
L 190.203306 -370.129521 
L 197.37686 -378.142338 
L 204.550413 -375.119024 
L 211.723967 -376.389395 
L 218.897521 -371.942732 
L 226.071074 -384.142289 
L 233.244628 -387.406015 
L 240.418182 -381.830661 
L 247.591736 -382.250391 
L 254.765289 -379.338506 
L 261.938843 -381.608366 
L 269.112397 -387.228514 
L 276.28595 -386.066064 
L 283.459504 -387.608004 
L 290.633058 -386.696158 
L 297.806612 -393.035597 
L 304.980165 -380.724004 
L 312.153719 -392.03903 
L 319.327273 -392.934186 
L 326.500826 -390.968176 
L 333.67438 -395.483383 
L 369.542149 -391.458468 
L 405.409917 -396.253275 
L 441.277686 -395.734794 
L 477.145455 -400.358644 
L 513.013223 -401.484754 
L 548.880992 -402.873958 
L 584.74876 -401.179313 
L 620.616529 -402.410963 
L 656.484298 -398.778569 
L 692.352066 -400.675743 
L 728.219835 -402.799379 
L 764.087603 -403.976739 
L 799.955372 -401.764038 
L 835.82314 -402.25789 
L 871.690909 -405.057286 
L 871.690909 -408.968044 
L 871.690909 -408.968044 
L 835.82314 -408.784392 
L 799.955372 -409.992496 
L 764.087603 -408.578074 
L 728.219835 -407.444623 
L 692.352066 -406.165064 
L 656.484298 -404.322925 
L 620.616529 -409.723703 
L 584.74876 -409.736925 
L 548.880992 -411.571519 
L 513.013223 -408.171042 
L 477.145455 -407.490517 
L 441.277686 -403.585372 
L 405.409917 -406.638145 
L 369.542149 -401.517471 
L 333.67438 -402.156193 
L 326.500826 -401.167468 
L 319.327273 -400.924062 
L 312.153719 -401.483101 
L 304.980165 -401.24407 
L 297.806612 -400.990711 
L 290.633058 -397.666756 
L 283.459504 -396.92297 
L 276.28595 -396.86835 
L 269.112397 -398.814991 
L 261.938843 -396.830468 
L 254.765289 -391.201555 
L 247.591736 -394.045691 
L 240.418182 -389.003503 
L 233.244628 -392.62938 
L 226.071074 -391.229469 
L 218.897521 -392.169072 
L 211.723967 -391.671796 
L 204.550413 -388.530618 
L 197.37686 -384.919097 
L 190.203306 -383.268522 
L 183.029752 -382.838667 
L 175.856198 -377.881066 
L 168.682645 -359.361784 
L 161.509091 -316.412122 
z
" style="stroke: #1f77b4; stroke-opacity: 0.5"/>
    </defs>
    <g clip-path="url(#p30757601b6)">
     <use xlink:href="#m7bf6033bc7" x="0" y="576" style="fill: #1f77b4; fill-opacity: 0.5; stroke: #1f77b4; stroke-opacity: 0.5"/>
    </g>
   </g>
   <g id="PathCollection_2">
    <defs>
     <path id="m1663cfe232" d="M 0 3 
C 0.795609 3 1.55874 2.683901 2.12132 2.12132 
C 2.683901 1.55874 3 0.795609 3 0 
C 3 -0.795609 2.683901 -1.55874 2.12132 -2.12132 
C 1.55874 -2.683901 0.795609 -3 0 -3 
C -0.795609 -3 -1.55874 -2.683901 -2.12132 -2.12132 
C -2.683901 -1.55874 -3 -0.795609 -3 0 
C -3 0.795609 -2.683901 1.55874 -2.12132 2.12132 
C -1.55874 2.683901 -0.795609 3 0 3 
z
" style="stroke: #ff7f0e"/>
    </defs>
    <g clip-path="url(#p30757601b6)">
     <use xlink:href="#m1663cfe232" x="161.509091" y="396.951531" style="fill: #ff7f0e; stroke: #ff7f0e"/>
     <use xlink:href="#m1663cfe232" x="168.682645" y="195.072521" style="fill: #ff7f0e; stroke: #ff7f0e"/>
     <use xlink:href="#m1663cfe232" x="175.856198" y="142.286346" style="fill: #ff7f0e; stroke: #ff7f0e"/>
     <use xlink:href="#m1663cfe232" x="183.029752" y="141.067092" style="fill: #ff7f0e; stroke: #ff7f0e"/>
     <use xlink:href="#m1663cfe232" x="190.203306" y="126.4072" style="fill: #ff7f0e; stroke: #ff7f0e"/>
     <use xlink:href="#m1663cfe232" x="197.37686" y="119.790892" style="fill: #ff7f0e; stroke: #ff7f0e"/>
     <use xlink:href="#m1663cfe232" x="204.550413" y="111.473656" style="fill: #ff7f0e; stroke: #ff7f0e"/>
     <use xlink:href="#m1663cfe232" x="211.723967" y="111.136033" style="fill: #ff7f0e; stroke: #ff7f0e"/>
     <use xlink:href="#m1663cfe232" x="218.897521" y="115.625037" style="fill: #ff7f0e; stroke: #ff7f0e"/>
     <use xlink:href="#m1663cfe232" x="226.071074" y="107.386962" style="fill: #ff7f0e; stroke: #ff7f0e"/>
     <use xlink:href="#m1663cfe232" x="233.244628" y="108.49172" style="fill: #ff7f0e; stroke: #ff7f0e"/>
     <use xlink:href="#m1663cfe232" x="240.418182" y="108.084383" style="fill: #ff7f0e; stroke: #ff7f0e"/>
     <use xlink:href="#m1663cfe232" x="247.591736" y="105.928153" style="fill: #ff7f0e; stroke: #ff7f0e"/>
     <use xlink:href="#m1663cfe232" x="254.765289" y="106.280269" style="fill: #ff7f0e; stroke: #ff7f0e"/>
     <use xlink:href="#m1663cfe232" x="261.938843" y="106.54041" style="fill: #ff7f0e; stroke: #ff7f0e"/>
     <use xlink:href="#m1663cfe232" x="269.112397" y="102.836327" style="fill: #ff7f0e; stroke: #ff7f0e"/>
     <use xlink:href="#m1663cfe232" x="276.28595" y="101.516841" style="fill: #ff7f0e; stroke: #ff7f0e"/>
     <use xlink:href="#m1663cfe232" x="283.459504" y="99.93995" style="fill: #ff7f0e; stroke: #ff7f0e"/>
     <use xlink:href="#m1663cfe232" x="290.633058" y="100.771975" style="fill: #ff7f0e; stroke: #ff7f0e"/>
     <use xlink:href="#m1663cfe232" x="297.806612" y="97.626784" style="fill: #ff7f0e; stroke: #ff7f0e"/>
     <use xlink:href="#m1663cfe232" x="304.980165" y="103.21816" style="fill: #ff7f0e; stroke: #ff7f0e"/>
     <use xlink:href="#m1663cfe232" x="312.153719" y="99.121127" style="fill: #ff7f0e; stroke: #ff7f0e"/>
     <use xlink:href="#m1663cfe232" x="319.327273" y="98.429066" style="fill: #ff7f0e; stroke: #ff7f0e"/>
     <use xlink:href="#m1663cfe232" x="326.500826" y="99.050164" style="fill: #ff7f0e; stroke: #ff7f0e"/>
     <use xlink:href="#m1663cfe232" x="333.67438" y="97.487032" style="fill: #ff7f0e; stroke: #ff7f0e"/>
     <use xlink:href="#m1663cfe232" x="369.542149" y="100.014101" style="fill: #ff7f0e; stroke: #ff7f0e"/>
     <use xlink:href="#m1663cfe232" x="405.409917" y="100.346113" style="fill: #ff7f0e; stroke: #ff7f0e"/>
     <use xlink:href="#m1663cfe232" x="441.277686" y="99.477523" style="fill: #ff7f0e; stroke: #ff7f0e"/>
     <use xlink:href="#m1663cfe232" x="477.145455" y="96.071622" style="fill: #ff7f0e; stroke: #ff7f0e"/>
     <use xlink:href="#m1663cfe232" x="513.013223" y="94.608504" style="fill: #ff7f0e; stroke: #ff7f0e"/>
     <use xlink:href="#m1663cfe232" x="548.880992" y="95.756106" style="fill: #ff7f0e; stroke: #ff7f0e"/>
     <use xlink:href="#m1663cfe232" x="584.74876" y="94.931841" style="fill: #ff7f0e; stroke: #ff7f0e"/>
     <use xlink:href="#m1663cfe232" x="620.616529" y="93.91549" style="fill: #ff7f0e; stroke: #ff7f0e"/>
     <use xlink:href="#m1663cfe232" x="656.484298" y="95.804346" style="fill: #ff7f0e; stroke: #ff7f0e"/>
     <use xlink:href="#m1663cfe232" x="692.352066" y="94.91958" style="fill: #ff7f0e; stroke: #ff7f0e"/>
     <use xlink:href="#m1663cfe232" x="728.219835" y="95.667853" style="fill: #ff7f0e; stroke: #ff7f0e"/>
     <use xlink:href="#m1663cfe232" x="764.087603" y="92.589753" style="fill: #ff7f0e; stroke: #ff7f0e"/>
     <use xlink:href="#m1663cfe232" x="799.955372" y="92.818319" style="fill: #ff7f0e; stroke: #ff7f0e"/>
     <use xlink:href="#m1663cfe232" x="835.82314" y="95.625931" style="fill: #ff7f0e; stroke: #ff7f0e"/>
     <use xlink:href="#m1663cfe232" x="871.690909" y="90.637784" style="fill: #ff7f0e; stroke: #ff7f0e"/>
    </g>
   </g>
   <g id="PolyCollection_2">
    <defs>
     <path id="m56e49f3ea7" d="M 161.509091 -266.329666 
L 161.509091 -91.767273 
L 168.682645 -373.225037 
L 175.856198 -428.624709 
L 183.029752 -413.508509 
L 190.203306 -442.594941 
L 197.37686 -452.157685 
L 204.550413 -458.572779 
L 211.723967 -457.556239 
L 218.897521 -449.917328 
L 226.071074 -466.792674 
L 233.244628 -463.803476 
L 240.418182 -464.156052 
L 247.591736 -466.624997 
L 254.765289 -467.170908 
L 261.938843 -462.168244 
L 269.112397 -470.31055 
L 276.28595 -468.109738 
L 283.459504 -471.1847 
L 290.633058 -471.253287 
L 297.806612 -473.976249 
L 304.980165 -465.081975 
L 312.153719 -470.949026 
L 319.327273 -472.529047 
L 326.500826 -472.768367 
L 333.67438 -471.784412 
L 369.542149 -473.156576 
L 405.409917 -471.087371 
L 441.277686 -472.496583 
L 477.145455 -477.580133 
L 513.013223 -478.409564 
L 548.880992 -476.933329 
L 584.74876 -476.904445 
L 620.616529 -479.559506 
L 656.484298 -477.981803 
L 692.352066 -478.652611 
L 728.219835 -478.46045 
L 764.087603 -480.421721 
L 799.955372 -481.621107 
L 835.82314 -477.81871 
L 871.690909 -483.611704 
L 871.690909 -487.112727 
L 871.690909 -487.112727 
L 835.82314 -482.929427 
L 799.955372 -484.742255 
L 764.087603 -486.398773 
L 728.219835 -482.203845 
L 692.352066 -483.508229 
L 656.484298 -482.409506 
L 620.616529 -484.609514 
L 584.74876 -485.231873 
L 548.880992 -483.55446 
L 513.013223 -484.373428 
L 477.145455 -482.276623 
L 441.277686 -480.548372 
L 405.409917 -480.220403 
L 369.542149 -478.815222 
L 333.67438 -485.241525 
L 326.500826 -481.131306 
L 319.327273 -482.612821 
L 312.153719 -482.808719 
L 304.980165 -480.481705 
L 297.806612 -482.770184 
L 290.633058 -479.202764 
L 283.459504 -480.935401 
L 276.28595 -480.85658 
L 269.112397 -476.016796 
L 261.938843 -476.750936 
L 254.765289 -472.268554 
L 247.591736 -473.518698 
L 240.418182 -471.675183 
L 233.244628 -471.213084 
L 226.071074 -470.433402 
L 218.897521 -470.832598 
L 211.723967 -472.171695 
L 204.550413 -470.479908 
L 197.37686 -460.260532 
L 190.203306 -456.590659 
L 183.029752 -456.357308 
L 175.856198 -438.802599 
L 168.682645 -388.629921 
L 161.509091 -266.329666 
z
" style="stroke: #ff7f0e; stroke-opacity: 0.5"/>
    </defs>
    <g clip-path="url(#p30757601b6)">
     <use xlink:href="#m56e49f3ea7" x="0" y="576" style="fill: #ff7f0e; fill-opacity: 0.5; stroke: #ff7f0e; stroke-opacity: 0.5"/>
    </g>
   </g>
   <g id="matplotlib.axis_1">
    <g id="xtick_1">
     <g id="line2d_1">
      <defs>
       <path id="ma11b3b9794" d="M 0 0 
L 0 3.5 
" style="stroke: #000000; stroke-width: 0.8"/>
      </defs>
      <g>
       <use xlink:href="#ma11b3b9794" x="154.335537" y="504" style="stroke: #000000; stroke-width: 0.8"/>
      </g>
     </g>
     <g id="text_1">
      <!-- 0 -->
      <g transform="translate(151.154287 518.598438)scale(0.1 -0.1)">
       <defs>
        <path id="DejaVuSans-30" d="M 2034 4250 
Q 1547 4250 1301 3770 
Q 1056 3291 1056 2328 
Q 1056 1369 1301 889 
Q 1547 409 2034 409 
Q 2525 409 2770 889 
Q 3016 1369 3016 2328 
Q 3016 3291 2770 3770 
Q 2525 4250 2034 4250 
z
M 2034 4750 
Q 2819 4750 3233 4129 
Q 3647 3509 3647 2328 
Q 3647 1150 3233 529 
Q 2819 -91 2034 -91 
Q 1250 -91 836 529 
Q 422 1150 422 2328 
Q 422 3509 836 4129 
Q 1250 4750 2034 4750 
z
" transform="scale(0.015625)"/>
       </defs>
       <use xlink:href="#DejaVuSans-30"/>
      </g>
     </g>
    </g>
    <g id="xtick_2">
     <g id="line2d_2">
      <g>
       <use xlink:href="#ma11b3b9794" x="297.806612" y="504" style="stroke: #000000; stroke-width: 0.8"/>
      </g>
     </g>
     <g id="text_2">
      <!-- 20 -->
      <g transform="translate(291.444112 518.598438)scale(0.1 -0.1)">
       <defs>
        <path id="DejaVuSans-32" d="M 1228 531 
L 3431 531 
L 3431 0 
L 469 0 
L 469 531 
Q 828 903 1448 1529 
Q 2069 2156 2228 2338 
Q 2531 2678 2651 2914 
Q 2772 3150 2772 3378 
Q 2772 3750 2511 3984 
Q 2250 4219 1831 4219 
Q 1534 4219 1204 4116 
Q 875 4013 500 3803 
L 500 4441 
Q 881 4594 1212 4672 
Q 1544 4750 1819 4750 
Q 2544 4750 2975 4387 
Q 3406 4025 3406 3419 
Q 3406 3131 3298 2873 
Q 3191 2616 2906 2266 
Q 2828 2175 2409 1742 
Q 1991 1309 1228 531 
z
" transform="scale(0.015625)"/>
       </defs>
       <use xlink:href="#DejaVuSans-32"/>
       <use xlink:href="#DejaVuSans-30" x="63.623047"/>
      </g>
     </g>
    </g>
    <g id="xtick_3">
     <g id="line2d_3">
      <g>
       <use xlink:href="#ma11b3b9794" x="441.277686" y="504" style="stroke: #000000; stroke-width: 0.8"/>
      </g>
     </g>
     <g id="text_3">
      <!-- 40 -->
      <g transform="translate(434.915186 518.598438)scale(0.1 -0.1)">
       <defs>
        <path id="DejaVuSans-34" d="M 2419 4116 
L 825 1625 
L 2419 1625 
L 2419 4116 
z
M 2253 4666 
L 3047 4666 
L 3047 1625 
L 3713 1625 
L 3713 1100 
L 3047 1100 
L 3047 0 
L 2419 0 
L 2419 1100 
L 313 1100 
L 313 1709 
L 2253 4666 
z
" transform="scale(0.015625)"/>
       </defs>
       <use xlink:href="#DejaVuSans-34"/>
       <use xlink:href="#DejaVuSans-30" x="63.623047"/>
      </g>
     </g>
    </g>
    <g id="xtick_4">
     <g id="line2d_4">
      <g>
       <use xlink:href="#ma11b3b9794" x="584.74876" y="504" style="stroke: #000000; stroke-width: 0.8"/>
      </g>
     </g>
     <g id="text_4">
      <!-- 60 -->
      <g transform="translate(578.38626 518.598438)scale(0.1 -0.1)">
       <defs>
        <path id="DejaVuSans-36" d="M 2113 2584 
Q 1688 2584 1439 2293 
Q 1191 2003 1191 1497 
Q 1191 994 1439 701 
Q 1688 409 2113 409 
Q 2538 409 2786 701 
Q 3034 994 3034 1497 
Q 3034 2003 2786 2293 
Q 2538 2584 2113 2584 
z
M 3366 4563 
L 3366 3988 
Q 3128 4100 2886 4159 
Q 2644 4219 2406 4219 
Q 1781 4219 1451 3797 
Q 1122 3375 1075 2522 
Q 1259 2794 1537 2939 
Q 1816 3084 2150 3084 
Q 2853 3084 3261 2657 
Q 3669 2231 3669 1497 
Q 3669 778 3244 343 
Q 2819 -91 2113 -91 
Q 1303 -91 875 529 
Q 447 1150 447 2328 
Q 447 3434 972 4092 
Q 1497 4750 2381 4750 
Q 2619 4750 2861 4703 
Q 3103 4656 3366 4563 
z
" transform="scale(0.015625)"/>
       </defs>
       <use xlink:href="#DejaVuSans-36"/>
       <use xlink:href="#DejaVuSans-30" x="63.623047"/>
      </g>
     </g>
    </g>
    <g id="xtick_5">
     <g id="line2d_5">
      <g>
       <use xlink:href="#ma11b3b9794" x="728.219835" y="504" style="stroke: #000000; stroke-width: 0.8"/>
      </g>
     </g>
     <g id="text_5">
      <!-- 80 -->
      <g transform="translate(721.857335 518.598438)scale(0.1 -0.1)">
       <defs>
        <path id="DejaVuSans-38" d="M 2034 2216 
Q 1584 2216 1326 1975 
Q 1069 1734 1069 1313 
Q 1069 891 1326 650 
Q 1584 409 2034 409 
Q 2484 409 2743 651 
Q 3003 894 3003 1313 
Q 3003 1734 2745 1975 
Q 2488 2216 2034 2216 
z
M 1403 2484 
Q 997 2584 770 2862 
Q 544 3141 544 3541 
Q 544 4100 942 4425 
Q 1341 4750 2034 4750 
Q 2731 4750 3128 4425 
Q 3525 4100 3525 3541 
Q 3525 3141 3298 2862 
Q 3072 2584 2669 2484 
Q 3125 2378 3379 2068 
Q 3634 1759 3634 1313 
Q 3634 634 3220 271 
Q 2806 -91 2034 -91 
Q 1263 -91 848 271 
Q 434 634 434 1313 
Q 434 1759 690 2068 
Q 947 2378 1403 2484 
z
M 1172 3481 
Q 1172 3119 1398 2916 
Q 1625 2713 2034 2713 
Q 2441 2713 2670 2916 
Q 2900 3119 2900 3481 
Q 2900 3844 2670 4047 
Q 2441 4250 2034 4250 
Q 1625 4250 1398 4047 
Q 1172 3844 1172 3481 
z
" transform="scale(0.015625)"/>
       </defs>
       <use xlink:href="#DejaVuSans-38"/>
       <use xlink:href="#DejaVuSans-30" x="63.623047"/>
      </g>
     </g>
    </g>
    <g id="xtick_6">
     <g id="line2d_6">
      <g>
       <use xlink:href="#ma11b3b9794" x="871.690909" y="504" style="stroke: #000000; stroke-width: 0.8"/>
      </g>
     </g>
     <g id="text_6">
      <!-- 100 -->
      <g transform="translate(862.147159 518.598438)scale(0.1 -0.1)">
       <defs>
        <path id="DejaVuSans-31" d="M 794 531 
L 1825 531 
L 1825 4091 
L 703 3866 
L 703 4441 
L 1819 4666 
L 2450 4666 
L 2450 531 
L 3481 531 
L 3481 0 
L 794 0 
L 794 531 
z
" transform="scale(0.015625)"/>
       </defs>
       <use xlink:href="#DejaVuSans-31"/>
       <use xlink:href="#DejaVuSans-30" x="63.623047"/>
       <use xlink:href="#DejaVuSans-30" x="127.246094"/>
      </g>
     </g>
    </g>
   </g>
   <g id="matplotlib.axis_2">
    <g id="ytick_1">
     <g id="line2d_7">
      <defs>
       <path id="me4aa717e93" d="M 0 0 
L -3.5 0 
" style="stroke: #000000; stroke-width: 0.8"/>
      </defs>
      <g>
       <use xlink:href="#me4aa717e93" x="126" y="457.019468" style="stroke: #000000; stroke-width: 0.8"/>
      </g>
     </g>
     <g id="text_7">
      <!-- 0.65 -->
      <g transform="translate(96.734375 460.818687)scale(0.1 -0.1)">
       <defs>
        <path id="DejaVuSans-2e" d="M 684 794 
L 1344 794 
L 1344 0 
L 684 0 
L 684 794 
z
" transform="scale(0.015625)"/>
        <path id="DejaVuSans-35" d="M 691 4666 
L 3169 4666 
L 3169 4134 
L 1269 4134 
L 1269 2991 
Q 1406 3038 1543 3061 
Q 1681 3084 1819 3084 
Q 2600 3084 3056 2656 
Q 3513 2228 3513 1497 
Q 3513 744 3044 326 
Q 2575 -91 1722 -91 
Q 1428 -91 1123 -41 
Q 819 9 494 109 
L 494 744 
Q 775 591 1075 516 
Q 1375 441 1709 441 
Q 2250 441 2565 725 
Q 2881 1009 2881 1497 
Q 2881 1984 2565 2268 
Q 2250 2553 1709 2553 
Q 1456 2553 1204 2497 
Q 953 2441 691 2322 
L 691 4666 
z
" transform="scale(0.015625)"/>
       </defs>
       <use xlink:href="#DejaVuSans-30"/>
       <use xlink:href="#DejaVuSans-2e" x="63.623047"/>
       <use xlink:href="#DejaVuSans-36" x="95.410156"/>
       <use xlink:href="#DejaVuSans-35" x="159.033203"/>
      </g>
     </g>
    </g>
    <g id="ytick_2">
     <g id="line2d_8">
      <g>
       <use xlink:href="#me4aa717e93" x="126" y="377.926697" style="stroke: #000000; stroke-width: 0.8"/>
      </g>
     </g>
     <g id="text_8">
      <!-- 0.70 -->
      <g transform="translate(96.734375 381.725916)scale(0.1 -0.1)">
       <defs>
        <path id="DejaVuSans-37" d="M 525 4666 
L 3525 4666 
L 3525 4397 
L 1831 0 
L 1172 0 
L 2766 4134 
L 525 4134 
L 525 4666 
z
" transform="scale(0.015625)"/>
       </defs>
       <use xlink:href="#DejaVuSans-30"/>
       <use xlink:href="#DejaVuSans-2e" x="63.623047"/>
       <use xlink:href="#DejaVuSans-37" x="95.410156"/>
       <use xlink:href="#DejaVuSans-30" x="159.033203"/>
      </g>
     </g>
    </g>
    <g id="ytick_3">
     <g id="line2d_9">
      <g>
       <use xlink:href="#me4aa717e93" x="126" y="298.833926" style="stroke: #000000; stroke-width: 0.8"/>
      </g>
     </g>
     <g id="text_9">
      <!-- 0.75 -->
      <g transform="translate(96.734375 302.633145)scale(0.1 -0.1)">
       <use xlink:href="#DejaVuSans-30"/>
       <use xlink:href="#DejaVuSans-2e" x="63.623047"/>
       <use xlink:href="#DejaVuSans-37" x="95.410156"/>
       <use xlink:href="#DejaVuSans-35" x="159.033203"/>
      </g>
     </g>
    </g>
    <g id="ytick_4">
     <g id="line2d_10">
      <g>
       <use xlink:href="#me4aa717e93" x="126" y="219.741156" style="stroke: #000000; stroke-width: 0.8"/>
      </g>
     </g>
     <g id="text_10">
      <!-- 0.80 -->
      <g transform="translate(96.734375 223.540374)scale(0.1 -0.1)">
       <use xlink:href="#DejaVuSans-30"/>
       <use xlink:href="#DejaVuSans-2e" x="63.623047"/>
       <use xlink:href="#DejaVuSans-38" x="95.410156"/>
       <use xlink:href="#DejaVuSans-30" x="159.033203"/>
      </g>
     </g>
    </g>
    <g id="ytick_5">
     <g id="line2d_11">
      <g>
       <use xlink:href="#me4aa717e93" x="126" y="140.648385" style="stroke: #000000; stroke-width: 0.8"/>
      </g>
     </g>
     <g id="text_11">
      <!-- 0.85 -->
      <g transform="translate(96.734375 144.447604)scale(0.1 -0.1)">
       <use xlink:href="#DejaVuSans-30"/>
       <use xlink:href="#DejaVuSans-2e" x="63.623047"/>
       <use xlink:href="#DejaVuSans-38" x="95.410156"/>
       <use xlink:href="#DejaVuSans-35" x="159.033203"/>
      </g>
     </g>
    </g>
   </g>
   <g id="line2d_12">
    <path d="M 161.509091 274.885518 
L 168.682645 226.463516 
L 175.856198 203.019284 
L 183.029752 205.498155 
L 190.203306 199.300979 
L 197.37686 194.469282 
L 204.550413 194.175179 
L 211.723967 191.969405 
L 218.897521 193.944098 
L 226.071074 188.314121 
L 233.244628 185.982302 
L 240.418182 190.582918 
L 247.591736 187.851959 
L 254.765289 190.729969 
L 261.938843 186.780583 
L 269.112397 182.978248 
L 276.28595 184.532793 
L 283.459504 183.734513 
L 290.633058 183.818543 
L 297.806612 178.986846 
L 304.980165 185.015963 
L 312.153719 179.238935 
L 319.327273 179.070876 
L 326.500826 179.932178 
L 333.67438 177.180212 
L 369.542149 179.512031 
L 405.409917 174.55429 
L 441.277686 176.339917 
L 477.145455 172.075419 
L 513.013223 171.172102 
L 548.880992 168.777261 
L 584.74876 170.541881 
L 620.616529 169.932667 
L 656.484298 174.449253 
L 692.352066 172.579596 
L 728.219835 170.877999 
L 764.087603 169.722593 
L 799.955372 170.121733 
L 835.82314 170.478859 
L 871.690909 168.987335 
" clip-path="url(#p30757601b6)" style="fill: none; stroke: #1f77b4; stroke-width: 1.5; stroke-linecap: square"/>
   </g>
   <g id="line2d_13">
    <path d="M 161.509091 396.951531 
L 168.682645 195.072521 
L 175.856198 142.286346 
L 183.029752 141.067092 
L 190.203306 126.4072 
L 197.37686 119.790892 
L 204.550413 111.473656 
L 211.723967 111.136033 
L 218.897521 115.625037 
L 226.071074 107.386962 
L 233.244628 108.49172 
L 240.418182 108.084383 
L 247.591736 105.928153 
L 254.765289 106.280269 
L 261.938843 106.54041 
L 269.112397 102.836327 
L 276.28595 101.516841 
L 283.459504 99.93995 
L 290.633058 100.771975 
L 297.806612 97.626784 
L 304.980165 103.21816 
L 312.153719 99.121127 
L 319.327273 98.429066 
L 326.500826 99.050164 
L 333.67438 97.487032 
L 369.542149 100.014101 
L 405.409917 100.346113 
L 441.277686 99.477523 
L 477.145455 96.071622 
L 513.013223 94.608504 
L 548.880992 95.756106 
L 584.74876 94.931841 
L 620.616529 93.91549 
L 656.484298 95.804346 
L 692.352066 94.91958 
L 728.219835 95.667853 
L 764.087603 92.589753 
L 799.955372 92.818319 
L 835.82314 95.625931 
L 871.690909 90.637784 
" clip-path="url(#p30757601b6)" style="fill: none; stroke: #ff7f0e; stroke-width: 1.5; stroke-linecap: square"/>
   </g>
   <g id="patch_3">
    <path d="M 126 504 
L 126 69.12 
" style="fill: none; stroke: #000000; stroke-width: 0.8; stroke-linejoin: miter; stroke-linecap: square"/>
   </g>
   <g id="patch_4">
    <path d="M 907.2 504 
L 907.2 69.12 
" style="fill: none; stroke: #000000; stroke-width: 0.8; stroke-linejoin: miter; stroke-linecap: square"/>
   </g>
   <g id="patch_5">
    <path d="M 126 504 
L 907.2 504 
" style="fill: none; stroke: #000000; stroke-width: 0.8; stroke-linejoin: miter; stroke-linecap: square"/>
   </g>
   <g id="patch_6">
    <path d="M 126 69.12 
L 907.2 69.12 
" style="fill: none; stroke: #000000; stroke-width: 0.8; stroke-linejoin: miter; stroke-linecap: square"/>
   </g>
   <g id="legend_1">
    <g id="patch_7">
     <path d="M 744.5 499 
L 900.2 499 
Q 902.2 499 902.2 497 
L 902.2 439.267187 
Q 902.2 437.267187 900.2 437.267187 
L 744.5 437.267187 
Q 742.5 437.267187 742.5 439.267187 
L 742.5 497 
Q 742.5 499 744.5 499 
z
" style="fill: #ffffff; opacity: 0.8; stroke: #cccccc; stroke-linejoin: miter"/>
    </g>
    <g id="line2d_14">
     <path d="M 746.5 445.365625 
L 756.5 445.365625 
L 766.5 445.365625 
" style="fill: none; stroke: #1f77b4; stroke-width: 1.5; stroke-linecap: square"/>
    </g>
    <g id="text_12">
     <!-- Accuracy -->
     <g transform="translate(774.5 448.865625)scale(0.1 -0.1)">
      <defs>
       <path id="DejaVuSans-41" d="M 2188 4044 
L 1331 1722 
L 3047 1722 
L 2188 4044 
z
M 1831 4666 
L 2547 4666 
L 4325 0 
L 3669 0 
L 3244 1197 
L 1141 1197 
L 716 0 
L 50 0 
L 1831 4666 
z
" transform="scale(0.015625)"/>
       <path id="DejaVuSans-63" d="M 3122 3366 
L 3122 2828 
Q 2878 2963 2633 3030 
Q 2388 3097 2138 3097 
Q 1578 3097 1268 2742 
Q 959 2388 959 1747 
Q 959 1106 1268 751 
Q 1578 397 2138 397 
Q 2388 397 2633 464 
Q 2878 531 3122 666 
L 3122 134 
Q 2881 22 2623 -34 
Q 2366 -91 2075 -91 
Q 1284 -91 818 406 
Q 353 903 353 1747 
Q 353 2603 823 3093 
Q 1294 3584 2113 3584 
Q 2378 3584 2631 3529 
Q 2884 3475 3122 3366 
z
" transform="scale(0.015625)"/>
       <path id="DejaVuSans-75" d="M 544 1381 
L 544 3500 
L 1119 3500 
L 1119 1403 
Q 1119 906 1312 657 
Q 1506 409 1894 409 
Q 2359 409 2629 706 
Q 2900 1003 2900 1516 
L 2900 3500 
L 3475 3500 
L 3475 0 
L 2900 0 
L 2900 538 
Q 2691 219 2414 64 
Q 2138 -91 1772 -91 
Q 1169 -91 856 284 
Q 544 659 544 1381 
z
M 1991 3584 
L 1991 3584 
z
" transform="scale(0.015625)"/>
       <path id="DejaVuSans-72" d="M 2631 2963 
Q 2534 3019 2420 3045 
Q 2306 3072 2169 3072 
Q 1681 3072 1420 2755 
Q 1159 2438 1159 1844 
L 1159 0 
L 581 0 
L 581 3500 
L 1159 3500 
L 1159 2956 
Q 1341 3275 1631 3429 
Q 1922 3584 2338 3584 
Q 2397 3584 2469 3576 
Q 2541 3569 2628 3553 
L 2631 2963 
z
" transform="scale(0.015625)"/>
       <path id="DejaVuSans-61" d="M 2194 1759 
Q 1497 1759 1228 1600 
Q 959 1441 959 1056 
Q 959 750 1161 570 
Q 1363 391 1709 391 
Q 2188 391 2477 730 
Q 2766 1069 2766 1631 
L 2766 1759 
L 2194 1759 
z
M 3341 1997 
L 3341 0 
L 2766 0 
L 2766 531 
Q 2569 213 2275 61 
Q 1981 -91 1556 -91 
Q 1019 -91 701 211 
Q 384 513 384 1019 
Q 384 1609 779 1909 
Q 1175 2209 1959 2209 
L 2766 2209 
L 2766 2266 
Q 2766 2663 2505 2880 
Q 2244 3097 1772 3097 
Q 1472 3097 1187 3025 
Q 903 2953 641 2809 
L 641 3341 
Q 956 3463 1253 3523 
Q 1550 3584 1831 3584 
Q 2591 3584 2966 3190 
Q 3341 2797 3341 1997 
z
" transform="scale(0.015625)"/>
       <path id="DejaVuSans-79" d="M 2059 -325 
Q 1816 -950 1584 -1140 
Q 1353 -1331 966 -1331 
L 506 -1331 
L 506 -850 
L 844 -850 
Q 1081 -850 1212 -737 
Q 1344 -625 1503 -206 
L 1606 56 
L 191 3500 
L 800 3500 
L 1894 763 
L 2988 3500 
L 3597 3500 
L 2059 -325 
z
" transform="scale(0.015625)"/>
      </defs>
      <use xlink:href="#DejaVuSans-41"/>
      <use xlink:href="#DejaVuSans-63" x="66.658203"/>
      <use xlink:href="#DejaVuSans-63" x="121.638672"/>
      <use xlink:href="#DejaVuSans-75" x="176.619141"/>
      <use xlink:href="#DejaVuSans-72" x="239.998047"/>
      <use xlink:href="#DejaVuSans-61" x="281.111328"/>
      <use xlink:href="#DejaVuSans-63" x="342.390625"/>
      <use xlink:href="#DejaVuSans-79" x="397.371094"/>
     </g>
    </g>
    <g id="patch_8">
     <path d="M 746.5 463.54375 
L 766.5 463.54375 
L 766.5 456.54375 
L 746.5 456.54375 
z
" style="fill: #1f77b4; fill-opacity: 0.5; stroke: #1f77b4; stroke-opacity: 0.5; stroke-linejoin: miter"/>
    </g>
    <g id="text_13">
     <!-- Accuracy $\pm$ SD Accuracy -->
     <g transform="translate(774.5 463.54375)scale(0.1 -0.1)">
      <defs>
       <path id="DejaVuSans-20" transform="scale(0.015625)"/>
       <path id="DejaVuSans-b1" d="M 2944 4013 
L 2944 2803 
L 4684 2803 
L 4684 2272 
L 2944 2272 
L 2944 1063 
L 2419 1063 
L 2419 2272 
L 678 2272 
L 678 2803 
L 2419 2803 
L 2419 4013 
L 2944 4013 
z
M 678 531 
L 4684 531 
L 4684 0 
L 678 0 
L 678 531 
z
" transform="scale(0.015625)"/>
       <path id="DejaVuSans-53" d="M 3425 4513 
L 3425 3897 
Q 3066 4069 2747 4153 
Q 2428 4238 2131 4238 
Q 1616 4238 1336 4038 
Q 1056 3838 1056 3469 
Q 1056 3159 1242 3001 
Q 1428 2844 1947 2747 
L 2328 2669 
Q 3034 2534 3370 2195 
Q 3706 1856 3706 1288 
Q 3706 609 3251 259 
Q 2797 -91 1919 -91 
Q 1588 -91 1214 -16 
Q 841 59 441 206 
L 441 856 
Q 825 641 1194 531 
Q 1563 422 1919 422 
Q 2459 422 2753 634 
Q 3047 847 3047 1241 
Q 3047 1584 2836 1778 
Q 2625 1972 2144 2069 
L 1759 2144 
Q 1053 2284 737 2584 
Q 422 2884 422 3419 
Q 422 4038 858 4394 
Q 1294 4750 2059 4750 
Q 2388 4750 2728 4690 
Q 3069 4631 3425 4513 
z
" transform="scale(0.015625)"/>
       <path id="DejaVuSans-44" d="M 1259 4147 
L 1259 519 
L 2022 519 
Q 2988 519 3436 956 
Q 3884 1394 3884 2338 
Q 3884 3275 3436 3711 
Q 2988 4147 2022 4147 
L 1259 4147 
z
M 628 4666 
L 1925 4666 
Q 3281 4666 3915 4102 
Q 4550 3538 4550 2338 
Q 4550 1131 3912 565 
Q 3275 0 1925 0 
L 628 0 
L 628 4666 
z
" transform="scale(0.015625)"/>
      </defs>
      <use xlink:href="#DejaVuSans-41" transform="translate(0 0.78125)"/>
      <use xlink:href="#DejaVuSans-63" transform="translate(68.408203 0.78125)"/>
      <use xlink:href="#DejaVuSans-63" transform="translate(123.388672 0.78125)"/>
      <use xlink:href="#DejaVuSans-75" transform="translate(178.369141 0.78125)"/>
      <use xlink:href="#DejaVuSans-72" transform="translate(241.748047 0.78125)"/>
      <use xlink:href="#DejaVuSans-61" transform="translate(282.861328 0.78125)"/>
      <use xlink:href="#DejaVuSans-63" transform="translate(344.140625 0.78125)"/>
      <use xlink:href="#DejaVuSans-79" transform="translate(399.121094 0.78125)"/>
      <use xlink:href="#DejaVuSans-20" transform="translate(458.300781 0.78125)"/>
      <use xlink:href="#DejaVuSans-b1" transform="translate(490.087891 0.78125)"/>
      <use xlink:href="#DejaVuSans-20" transform="translate(573.876953 0.78125)"/>
      <use xlink:href="#DejaVuSans-53" transform="translate(605.664062 0.78125)"/>
      <use xlink:href="#DejaVuSans-44" transform="translate(669.140625 0.78125)"/>
      <use xlink:href="#DejaVuSans-20" transform="translate(746.142578 0.78125)"/>
      <use xlink:href="#DejaVuSans-41" transform="translate(777.929688 0.78125)"/>
      <use xlink:href="#DejaVuSans-63" transform="translate(846.337891 0.78125)"/>
      <use xlink:href="#DejaVuSans-63" transform="translate(901.318359 0.78125)"/>
      <use xlink:href="#DejaVuSans-75" transform="translate(956.298828 0.78125)"/>
      <use xlink:href="#DejaVuSans-72" transform="translate(1019.677734 0.78125)"/>
      <use xlink:href="#DejaVuSans-61" transform="translate(1060.791016 0.78125)"/>
      <use xlink:href="#DejaVuSans-63" transform="translate(1122.070312 0.78125)"/>
      <use xlink:href="#DejaVuSans-79" transform="translate(1177.050781 0.78125)"/>
     </g>
    </g>
    <g id="line2d_15">
     <path d="M 746.5 474.742188 
L 756.5 474.742188 
L 766.5 474.742188 
" style="fill: none; stroke: #ff7f0e; stroke-width: 1.5; stroke-linecap: square"/>
    </g>
    <g id="text_14">
     <!-- AUC -->
     <g transform="translate(774.5 478.242188)scale(0.1 -0.1)">
      <defs>
       <path id="DejaVuSans-55" d="M 556 4666 
L 1191 4666 
L 1191 1831 
Q 1191 1081 1462 751 
Q 1734 422 2344 422 
Q 2950 422 3222 751 
Q 3494 1081 3494 1831 
L 3494 4666 
L 4128 4666 
L 4128 1753 
Q 4128 841 3676 375 
Q 3225 -91 2344 -91 
Q 1459 -91 1007 375 
Q 556 841 556 1753 
L 556 4666 
z
" transform="scale(0.015625)"/>
       <path id="DejaVuSans-43" d="M 4122 4306 
L 4122 3641 
Q 3803 3938 3442 4084 
Q 3081 4231 2675 4231 
Q 1875 4231 1450 3742 
Q 1025 3253 1025 2328 
Q 1025 1406 1450 917 
Q 1875 428 2675 428 
Q 3081 428 3442 575 
Q 3803 722 4122 1019 
L 4122 359 
Q 3791 134 3420 21 
Q 3050 -91 2638 -91 
Q 1578 -91 968 557 
Q 359 1206 359 2328 
Q 359 3453 968 4101 
Q 1578 4750 2638 4750 
Q 3056 4750 3426 4639 
Q 3797 4528 4122 4306 
z
" transform="scale(0.015625)"/>
      </defs>
      <use xlink:href="#DejaVuSans-41"/>
      <use xlink:href="#DejaVuSans-55" x="68.408203"/>
      <use xlink:href="#DejaVuSans-43" x="141.601562"/>
     </g>
    </g>
    <g id="patch_9">
     <path d="M 746.5 492.920313 
L 766.5 492.920313 
L 766.5 485.920313 
L 746.5 485.920313 
z
" style="fill: #ff7f0e; fill-opacity: 0.5; stroke: #ff7f0e; stroke-opacity: 0.5; stroke-linejoin: miter"/>
    </g>
    <g id="text_15">
     <!-- AUC $\pm$ SD AUC -->
     <g transform="translate(774.5 492.920313)scale(0.1 -0.1)">
      <use xlink:href="#DejaVuSans-41" transform="translate(0 0.78125)"/>
      <use xlink:href="#DejaVuSans-55" transform="translate(68.408203 0.78125)"/>
      <use xlink:href="#DejaVuSans-43" transform="translate(141.601562 0.78125)"/>
      <use xlink:href="#DejaVuSans-20" transform="translate(211.425781 0.78125)"/>
      <use xlink:href="#DejaVuSans-b1" transform="translate(243.212891 0.78125)"/>
      <use xlink:href="#DejaVuSans-20" transform="translate(327.001953 0.78125)"/>
      <use xlink:href="#DejaVuSans-53" transform="translate(358.789062 0.78125)"/>
      <use xlink:href="#DejaVuSans-44" transform="translate(422.265625 0.78125)"/>
      <use xlink:href="#DejaVuSans-20" transform="translate(499.267578 0.78125)"/>
      <use xlink:href="#DejaVuSans-41" transform="translate(531.054688 0.78125)"/>
      <use xlink:href="#DejaVuSans-55" transform="translate(599.462891 0.78125)"/>
      <use xlink:href="#DejaVuSans-43" transform="translate(672.65625 0.78125)"/>
     </g>
    </g>
   </g>
  </g>
 </g>
 <defs>
  <clipPath id="p30757601b6">
   <rect x="126" y="69.12" width="781.2" height="434.88"/>
  </clipPath>
 </defs>
</svg>
