<?xml version="1.0" encoding="utf-8" standalone="no"?>
<!DOCTYPE svg PUBLIC "-//W3C//DTD SVG 1.1//EN"
  "http://www.w3.org/Graphics/SVG/1.1/DTD/svg11.dtd">
<svg height="576pt" version="1.1" viewBox="0 0 1008 576" width="1008pt" xmlns="http://www.w3.org/2000/svg" xmlns:xlink="http://www.w3.org/1999/xlink">
 <metadata>
  <rdf:RDF xmlns:cc="http://creativecommons.org/ns#" xmlns:dc="http://purl.org/dc/elements/1.1/" xmlns:rdf="http://www.w3.org/1999/02/22-rdf-syntax-ns#">
   <cc:Work>
    <dc:type rdf:resource="http://purl.org/dc/dcmitype/StillImage"/>
    <dc:date>2022-03-04T14:27:06.746808</dc:date>
    <dc:format>image/svg+xml</dc:format>
    <dc:creator>
     <cc:Agent>
      <dc:title>Matplotlib v3.4.3, https://matplotlib.org/</dc:title>
     </cc:Agent>
    </dc:creator>
   </cc:Work>
  </rdf:RDF>
 </metadata>
 <defs>
  <style type="text/css">*{stroke-linecap:butt;stroke-linejoin:round;}</style>
 </defs>
 <g id="figure_1">
  <g id="patch_1">
   <path d="M 0 576 
L 1008 576 
L 1008 0 
L 0 0 
z
" style="fill:none;"/>
  </g>
  <g id="axes_1">
   <g id="patch_2">
    <path d="M 126 504 
L 907.2 504 
L 907.2 69.12 
L 126 69.12 
z
" style="fill:#ffffff;"/>
   </g>
   <g id="PolyCollection_1">
    <defs>
     <path d="M 161.509091 -133.640238 
L 161.509091 -91.767273 
L 226.272522 -120.0744 
L 264.156701 -124.511173 
L 291.035954 -119.868558 
L 311.885122 -141.749089 
L 328.920132 -134.363616 
L 343.323029 -146.027789 
L 355.799385 -130.57525 
L 366.804311 -142.174387 
L 376.648553 -159.672844 
L 441.411985 -144.692505 
L 479.296163 -137.866242 
L 506.175416 -156.45685 
L 527.024584 -150.062032 
L 544.059595 -150.926616 
L 558.462491 -163.103741 
L 570.938847 -158.534925 
L 581.943774 -150.072198 
L 591.788015 -167.563709 
L 600.693215 -146.759458 
L 608.823026 -160.80583 
L 616.301727 -164.254653 
L 623.225922 -163.591177 
L 629.672194 -160.477489 
L 635.702279 -153.34195 
L 641.366672 -158.425819 
L 646.707205 -160.411604 
L 651.758915 -154.214957 
L 656.551447 -152.733824 
L 694.435626 -151.737715 
L 721.314878 -152.981854 
L 742.164046 -141.696073 
L 759.199057 -136.367641 
L 773.601953 -136.433224 
L 786.07831 -133.767873 
L 797.083236 -144.645751 
L 806.927478 -145.981363 
L 815.832678 -143.106519 
L 823.962488 -143.413965 
L 831.441189 -140.92054 
L 838.365385 -138.151977 
L 844.811656 -142.812373 
L 850.841741 -127.056411 
L 856.506135 -127.050613 
L 861.846667 -132.268726 
L 866.898378 -115.820163 
L 871.690909 -112.789032 
L 871.690909 -158.169996 
L 871.690909 -158.169996 
L 866.898378 -160.488876 
L 861.846667 -149.084608 
L 856.506135 -160.722734 
L 850.841741 -149.329057 
L 844.811656 -158.106713 
L 838.365385 -158.257815 
L 831.441189 -160.227833 
L 823.962488 -170.803719 
L 815.832678 -165.302582 
L 806.927478 -166.55489 
L 797.083236 -162.311204 
L 786.07831 -170.972649 
L 773.601953 -168.307299 
L 759.199057 -158.590006 
L 742.164046 -166.713028 
L 721.314878 -179.884438 
L 694.435626 -182.810008 
L 656.551447 -167.292442 
L 651.758915 -173.148466 
L 646.707205 -183.918996 
L 641.366672 -179.790483 
L 635.702279 -173.715759 
L 629.672194 -186.986689 
L 623.225922 -187.312293 
L 616.301727 -185.578814 
L 608.823026 -195.371221 
L 600.693215 -197.265427 
L 591.788015 -189.759773 
L 581.943774 -180.119088 
L 570.938847 -174.866368 
L 558.462491 -181.532574 
L 544.059595 -179.26467 
L 527.024584 -193.504281 
L 506.175416 -178.85516 
L 479.296163 -176.122156 
L 441.411985 -179.766627 
L 376.648553 -174.110592 
L 366.804311 -166.769715 
L 355.799385 -167.363117 
L 343.323029 -173.616334 
L 328.920132 -163.269035 
L 311.885122 -165.284295 
L 291.035954 -152.619045 
L 264.156701 -160.128596 
L 226.272522 -157.151783 
L 161.509091 -133.640238 
z
" id="mdc719f75fc" style="stroke:#1f77b4;stroke-opacity:0.5;"/>
    </defs>
    <g clip-path="url(#pbfceb07360)">
     <use style="fill:#1f77b4;fill-opacity:0.5;stroke:#1f77b4;stroke-opacity:0.5;" x="0" xlink:href="#mdc719f75fc" y="576"/>
    </g>
   </g>
   <g id="PolyCollection_2">
    <defs>
     <path d="M 161.509091 -417.087237 
L 161.509091 -372.024913 
L 226.272522 -400.79029 
L 264.156701 -409.552758 
L 291.035954 -426.327029 
L 311.885122 -419.952146 
L 328.920132 -427.785173 
L 343.323029 -428.135173 
L 355.799385 -424.359031 
L 366.804311 -439.881932 
L 376.648553 -436.006371 
L 441.411985 -438.158177 
L 479.296163 -441.456712 
L 506.175416 -448.036404 
L 527.024584 -442.789096 
L 544.059595 -442.83237 
L 558.462491 -449.49448 
L 570.938847 -451.88091 
L 581.943774 -446.567441 
L 591.788015 -460.728979 
L 600.693215 -447.560531 
L 608.823026 -451.419823 
L 616.301727 -453.122094 
L 623.225922 -454.065408 
L 629.672194 -459.273265 
L 635.702279 -452.872244 
L 641.366672 -457.884704 
L 646.707205 -453.494973 
L 651.758915 -449.397434 
L 656.551447 -443.305187 
L 694.435626 -442.531784 
L 721.314878 -430.929507 
L 742.164046 -413.400572 
L 759.199057 -406.399401 
L 773.601953 -415.172591 
L 786.07831 -414.406215 
L 797.083236 -408.406255 
L 806.927478 -409.600248 
L 815.832678 -400.137767 
L 823.962488 -411.193706 
L 831.441189 -394.553944 
L 838.365385 -402.489467 
L 844.811656 -396.14636 
L 850.841741 -391.104736 
L 856.506135 -339.831069 
L 861.846667 -391.140187 
L 866.898378 -382.85476 
L 871.690909 -379.276601 
L 871.690909 -425.140876 
L 871.690909 -425.140876 
L 866.898378 -417.549454 
L 861.846667 -414.552344 
L 856.506135 -445.749877 
L 850.841741 -426.676809 
L 844.811656 -423.40547 
L 838.365385 -436.421537 
L 831.441189 -428.799826 
L 823.962488 -435.559995 
L 815.832678 -434.887215 
L 806.927478 -435.527771 
L 797.083236 -424.212044 
L 786.07831 -444.050231 
L 773.601953 -437.504483 
L 759.199057 -455.024284 
L 742.164046 -444.930632 
L 721.314878 -466.786524 
L 694.435626 -474.883863 
L 656.551447 -471.618585 
L 651.758915 -466.212561 
L 646.707205 -473.060057 
L 641.366672 -471.986359 
L 635.702279 -469.920431 
L 629.672194 -475.793201 
L 623.225922 -475.191699 
L 616.301727 -476.844417 
L 608.823026 -487.112727 
L 600.693215 -479.3738 
L 591.788015 -480.742823 
L 581.943774 -472.78292 
L 570.938847 -478.847103 
L 558.462491 -481.564294 
L 544.059595 -472.337518 
L 527.024584 -473.77164 
L 506.175416 -479.695918 
L 479.296163 -473.64592 
L 441.411985 -465.257196 
L 376.648553 -456.193917 
L 366.804311 -457.332487 
L 355.799385 -454.341389 
L 343.323029 -464.311394 
L 328.920132 -449.773911 
L 311.885122 -445.975789 
L 291.035954 -447.333107 
L 264.156701 -440.534748 
L 226.272522 -436.702838 
L 161.509091 -417.087237 
z
" id="m391e4e6f08" style="stroke:#ff7f0e;stroke-opacity:0.5;"/>
    </defs>
    <g clip-path="url(#pbfceb07360)">
     <use style="fill:#ff7f0e;fill-opacity:0.5;stroke:#ff7f0e;stroke-opacity:0.5;" x="0" xlink:href="#m391e4e6f08" y="576"/>
    </g>
   </g>
   <g id="matplotlib.axis_1">
    <g id="xtick_1">
     <g id="line2d_1">
      <defs>
       <path d="M 0 0 
L 0 3.5 
" id="m50d08b5816" style="stroke:#000000;stroke-width:0.8;"/>
      </defs>
      <g>
       <use style="stroke:#000000;stroke-width:0.8;" x="161.509091" xlink:href="#m50d08b5816" y="504"/>
      </g>
     </g>
     <g id="text_1">
      <!-- $\mathdefault{10^{-3}}$ -->
      <g transform="translate(149.759091 518.598438)scale(0.1 -0.1)">
       <defs>
        <path d="M 794 531 
L 1825 531 
L 1825 4091 
L 703 3866 
L 703 4441 
L 1819 4666 
L 2450 4666 
L 2450 531 
L 3481 531 
L 3481 0 
L 794 0 
L 794 531 
z
" id="DejaVuSans-31" transform="scale(0.015625)"/>
        <path d="M 2034 4250 
Q 1547 4250 1301 3770 
Q 1056 3291 1056 2328 
Q 1056 1369 1301 889 
Q 1547 409 2034 409 
Q 2525 409 2770 889 
Q 3016 1369 3016 2328 
Q 3016 3291 2770 3770 
Q 2525 4250 2034 4250 
z
M 2034 4750 
Q 2819 4750 3233 4129 
Q 3647 3509 3647 2328 
Q 3647 1150 3233 529 
Q 2819 -91 2034 -91 
Q 1250 -91 836 529 
Q 422 1150 422 2328 
Q 422 3509 836 4129 
Q 1250 4750 2034 4750 
z
" id="DejaVuSans-30" transform="scale(0.015625)"/>
        <path d="M 678 2272 
L 4684 2272 
L 4684 1741 
L 678 1741 
L 678 2272 
z
" id="DejaVuSans-2212" transform="scale(0.015625)"/>
        <path d="M 2597 2516 
Q 3050 2419 3304 2112 
Q 3559 1806 3559 1356 
Q 3559 666 3084 287 
Q 2609 -91 1734 -91 
Q 1441 -91 1130 -33 
Q 819 25 488 141 
L 488 750 
Q 750 597 1062 519 
Q 1375 441 1716 441 
Q 2309 441 2620 675 
Q 2931 909 2931 1356 
Q 2931 1769 2642 2001 
Q 2353 2234 1838 2234 
L 1294 2234 
L 1294 2753 
L 1863 2753 
Q 2328 2753 2575 2939 
Q 2822 3125 2822 3475 
Q 2822 3834 2567 4026 
Q 2313 4219 1838 4219 
Q 1578 4219 1281 4162 
Q 984 4106 628 3988 
L 628 4550 
Q 988 4650 1302 4700 
Q 1616 4750 1894 4750 
Q 2613 4750 3031 4423 
Q 3450 4097 3450 3541 
Q 3450 3153 3228 2886 
Q 3006 2619 2597 2516 
z
" id="DejaVuSans-33" transform="scale(0.015625)"/>
       </defs>
       <use transform="translate(0 0.765625)" xlink:href="#DejaVuSans-31"/>
       <use transform="translate(63.623047 0.765625)" xlink:href="#DejaVuSans-30"/>
       <use transform="translate(128.203125 39.046875)scale(0.7)" xlink:href="#DejaVuSans-2212"/>
       <use transform="translate(186.855469 39.046875)scale(0.7)" xlink:href="#DejaVuSans-33"/>
      </g>
     </g>
    </g>
    <g id="xtick_2">
     <g id="line2d_2">
      <g>
       <use style="stroke:#000000;stroke-width:0.8;" x="376.648553" xlink:href="#m50d08b5816" y="504"/>
      </g>
     </g>
     <g id="text_2">
      <!-- $\mathdefault{10^{-2}}$ -->
      <g transform="translate(364.898553 518.598438)scale(0.1 -0.1)">
       <defs>
        <path d="M 1228 531 
L 3431 531 
L 3431 0 
L 469 0 
L 469 531 
Q 828 903 1448 1529 
Q 2069 2156 2228 2338 
Q 2531 2678 2651 2914 
Q 2772 3150 2772 3378 
Q 2772 3750 2511 3984 
Q 2250 4219 1831 4219 
Q 1534 4219 1204 4116 
Q 875 4013 500 3803 
L 500 4441 
Q 881 4594 1212 4672 
Q 1544 4750 1819 4750 
Q 2544 4750 2975 4387 
Q 3406 4025 3406 3419 
Q 3406 3131 3298 2873 
Q 3191 2616 2906 2266 
Q 2828 2175 2409 1742 
Q 1991 1309 1228 531 
z
" id="DejaVuSans-32" transform="scale(0.015625)"/>
       </defs>
       <use transform="translate(0 0.765625)" xlink:href="#DejaVuSans-31"/>
       <use transform="translate(63.623047 0.765625)" xlink:href="#DejaVuSans-30"/>
       <use transform="translate(128.203125 39.046875)scale(0.7)" xlink:href="#DejaVuSans-2212"/>
       <use transform="translate(186.855469 39.046875)scale(0.7)" xlink:href="#DejaVuSans-32"/>
      </g>
     </g>
    </g>
    <g id="xtick_3">
     <g id="line2d_3">
      <g>
       <use style="stroke:#000000;stroke-width:0.8;" x="591.788015" xlink:href="#m50d08b5816" y="504"/>
      </g>
     </g>
     <g id="text_3">
      <!-- $\mathdefault{10^{-1}}$ -->
      <g transform="translate(580.038015 518.598438)scale(0.1 -0.1)">
       <use transform="translate(0 0.684375)" xlink:href="#DejaVuSans-31"/>
       <use transform="translate(63.623047 0.684375)" xlink:href="#DejaVuSans-30"/>
       <use transform="translate(128.203125 38.965625)scale(0.7)" xlink:href="#DejaVuSans-2212"/>
       <use transform="translate(186.855469 38.965625)scale(0.7)" xlink:href="#DejaVuSans-31"/>
      </g>
     </g>
    </g>
    <g id="xtick_4">
     <g id="line2d_4">
      <g>
       <use style="stroke:#000000;stroke-width:0.8;" x="806.927478" xlink:href="#m50d08b5816" y="504"/>
      </g>
     </g>
     <g id="text_4">
      <!-- $\mathdefault{10^{0}}$ -->
      <g transform="translate(798.127478 518.598438)scale(0.1 -0.1)">
       <use transform="translate(0 0.765625)" xlink:href="#DejaVuSans-31"/>
       <use transform="translate(63.623047 0.765625)" xlink:href="#DejaVuSans-30"/>
       <use transform="translate(128.203125 39.046875)scale(0.7)" xlink:href="#DejaVuSans-30"/>
      </g>
     </g>
    </g>
    <g id="xtick_5">
     <g id="line2d_5">
      <defs>
       <path d="M 0 0 
L 0 2 
" id="m54871918a0" style="stroke:#000000;stroke-width:0.6;"/>
      </defs>
      <g>
       <use style="stroke:#000000;stroke-width:0.6;" x="128.183567" xlink:href="#m54871918a0" y="504"/>
      </g>
     </g>
    </g>
    <g id="xtick_6">
     <g id="line2d_6">
      <g>
       <use style="stroke:#000000;stroke-width:0.6;" x="140.659923" xlink:href="#m54871918a0" y="504"/>
      </g>
     </g>
    </g>
    <g id="xtick_7">
     <g id="line2d_7">
      <g>
       <use style="stroke:#000000;stroke-width:0.6;" x="151.664849" xlink:href="#m54871918a0" y="504"/>
      </g>
     </g>
    </g>
    <g id="xtick_8">
     <g id="line2d_8">
      <g>
       <use style="stroke:#000000;stroke-width:0.6;" x="226.272522" xlink:href="#m54871918a0" y="504"/>
      </g>
     </g>
    </g>
    <g id="xtick_9">
     <g id="line2d_9">
      <g>
       <use style="stroke:#000000;stroke-width:0.6;" x="264.156701" xlink:href="#m54871918a0" y="504"/>
      </g>
     </g>
    </g>
    <g id="xtick_10">
     <g id="line2d_10">
      <g>
       <use style="stroke:#000000;stroke-width:0.6;" x="291.035954" xlink:href="#m54871918a0" y="504"/>
      </g>
     </g>
    </g>
    <g id="xtick_11">
     <g id="line2d_11">
      <g>
       <use style="stroke:#000000;stroke-width:0.6;" x="311.885122" xlink:href="#m54871918a0" y="504"/>
      </g>
     </g>
    </g>
    <g id="xtick_12">
     <g id="line2d_12">
      <g>
       <use style="stroke:#000000;stroke-width:0.6;" x="328.920132" xlink:href="#m54871918a0" y="504"/>
      </g>
     </g>
    </g>
    <g id="xtick_13">
     <g id="line2d_13">
      <g>
       <use style="stroke:#000000;stroke-width:0.6;" x="343.323029" xlink:href="#m54871918a0" y="504"/>
      </g>
     </g>
    </g>
    <g id="xtick_14">
     <g id="line2d_14">
      <g>
       <use style="stroke:#000000;stroke-width:0.6;" x="355.799385" xlink:href="#m54871918a0" y="504"/>
      </g>
     </g>
    </g>
    <g id="xtick_15">
     <g id="line2d_15">
      <g>
       <use style="stroke:#000000;stroke-width:0.6;" x="366.804311" xlink:href="#m54871918a0" y="504"/>
      </g>
     </g>
    </g>
    <g id="xtick_16">
     <g id="line2d_16">
      <g>
       <use style="stroke:#000000;stroke-width:0.6;" x="441.411985" xlink:href="#m54871918a0" y="504"/>
      </g>
     </g>
    </g>
    <g id="xtick_17">
     <g id="line2d_17">
      <g>
       <use style="stroke:#000000;stroke-width:0.6;" x="479.296163" xlink:href="#m54871918a0" y="504"/>
      </g>
     </g>
    </g>
    <g id="xtick_18">
     <g id="line2d_18">
      <g>
       <use style="stroke:#000000;stroke-width:0.6;" x="506.175416" xlink:href="#m54871918a0" y="504"/>
      </g>
     </g>
    </g>
    <g id="xtick_19">
     <g id="line2d_19">
      <g>
       <use style="stroke:#000000;stroke-width:0.6;" x="527.024584" xlink:href="#m54871918a0" y="504"/>
      </g>
     </g>
    </g>
    <g id="xtick_20">
     <g id="line2d_20">
      <g>
       <use style="stroke:#000000;stroke-width:0.6;" x="544.059595" xlink:href="#m54871918a0" y="504"/>
      </g>
     </g>
    </g>
    <g id="xtick_21">
     <g id="line2d_21">
      <g>
       <use style="stroke:#000000;stroke-width:0.6;" x="558.462491" xlink:href="#m54871918a0" y="504"/>
      </g>
     </g>
    </g>
    <g id="xtick_22">
     <g id="line2d_22">
      <g>
       <use style="stroke:#000000;stroke-width:0.6;" x="570.938847" xlink:href="#m54871918a0" y="504"/>
      </g>
     </g>
    </g>
    <g id="xtick_23">
     <g id="line2d_23">
      <g>
       <use style="stroke:#000000;stroke-width:0.6;" x="581.943774" xlink:href="#m54871918a0" y="504"/>
      </g>
     </g>
    </g>
    <g id="xtick_24">
     <g id="line2d_24">
      <g>
       <use style="stroke:#000000;stroke-width:0.6;" x="656.551447" xlink:href="#m54871918a0" y="504"/>
      </g>
     </g>
    </g>
    <g id="xtick_25">
     <g id="line2d_25">
      <g>
       <use style="stroke:#000000;stroke-width:0.6;" x="694.435626" xlink:href="#m54871918a0" y="504"/>
      </g>
     </g>
    </g>
    <g id="xtick_26">
     <g id="line2d_26">
      <g>
       <use style="stroke:#000000;stroke-width:0.6;" x="721.314878" xlink:href="#m54871918a0" y="504"/>
      </g>
     </g>
    </g>
    <g id="xtick_27">
     <g id="line2d_27">
      <g>
       <use style="stroke:#000000;stroke-width:0.6;" x="742.164046" xlink:href="#m54871918a0" y="504"/>
      </g>
     </g>
    </g>
    <g id="xtick_28">
     <g id="line2d_28">
      <g>
       <use style="stroke:#000000;stroke-width:0.6;" x="759.199057" xlink:href="#m54871918a0" y="504"/>
      </g>
     </g>
    </g>
    <g id="xtick_29">
     <g id="line2d_29">
      <g>
       <use style="stroke:#000000;stroke-width:0.6;" x="773.601953" xlink:href="#m54871918a0" y="504"/>
      </g>
     </g>
    </g>
    <g id="xtick_30">
     <g id="line2d_30">
      <g>
       <use style="stroke:#000000;stroke-width:0.6;" x="786.07831" xlink:href="#m54871918a0" y="504"/>
      </g>
     </g>
    </g>
    <g id="xtick_31">
     <g id="line2d_31">
      <g>
       <use style="stroke:#000000;stroke-width:0.6;" x="797.083236" xlink:href="#m54871918a0" y="504"/>
      </g>
     </g>
    </g>
    <g id="xtick_32">
     <g id="line2d_32">
      <g>
       <use style="stroke:#000000;stroke-width:0.6;" x="871.690909" xlink:href="#m54871918a0" y="504"/>
      </g>
     </g>
    </g>
   </g>
   <g id="matplotlib.axis_2">
    <g id="ytick_1">
     <g id="line2d_33">
      <defs>
       <path d="M 0 0 
L -3.5 0 
" id="mc33db5d07b" style="stroke:#000000;stroke-width:0.8;"/>
      </defs>
      <g>
       <use style="stroke:#000000;stroke-width:0.8;" x="126" xlink:href="#mc33db5d07b" y="486.033789"/>
      </g>
     </g>
     <g id="text_5">
      <!-- 0.82 -->
      <g transform="translate(96.734375 489.833008)scale(0.1 -0.1)">
       <defs>
        <path d="M 684 794 
L 1344 794 
L 1344 0 
L 684 0 
L 684 794 
z
" id="DejaVuSans-2e" transform="scale(0.015625)"/>
        <path d="M 2034 2216 
Q 1584 2216 1326 1975 
Q 1069 1734 1069 1313 
Q 1069 891 1326 650 
Q 1584 409 2034 409 
Q 2484 409 2743 651 
Q 3003 894 3003 1313 
Q 3003 1734 2745 1975 
Q 2488 2216 2034 2216 
z
M 1403 2484 
Q 997 2584 770 2862 
Q 544 3141 544 3541 
Q 544 4100 942 4425 
Q 1341 4750 2034 4750 
Q 2731 4750 3128 4425 
Q 3525 4100 3525 3541 
Q 3525 3141 3298 2862 
Q 3072 2584 2669 2484 
Q 3125 2378 3379 2068 
Q 3634 1759 3634 1313 
Q 3634 634 3220 271 
Q 2806 -91 2034 -91 
Q 1263 -91 848 271 
Q 434 634 434 1313 
Q 434 1759 690 2068 
Q 947 2378 1403 2484 
z
M 1172 3481 
Q 1172 3119 1398 2916 
Q 1625 2713 2034 2713 
Q 2441 2713 2670 2916 
Q 2900 3119 2900 3481 
Q 2900 3844 2670 4047 
Q 2441 4250 2034 4250 
Q 1625 4250 1398 4047 
Q 1172 3844 1172 3481 
z
" id="DejaVuSans-38" transform="scale(0.015625)"/>
       </defs>
       <use xlink:href="#DejaVuSans-30"/>
       <use x="63.623047" xlink:href="#DejaVuSans-2e"/>
       <use x="95.410156" xlink:href="#DejaVuSans-38"/>
       <use x="159.033203" xlink:href="#DejaVuSans-32"/>
      </g>
     </g>
    </g>
    <g id="ytick_2">
     <g id="line2d_34">
      <g>
       <use style="stroke:#000000;stroke-width:0.8;" x="126" xlink:href="#mc33db5d07b" y="428.482962"/>
      </g>
     </g>
     <g id="text_6">
      <!-- 0.83 -->
      <g transform="translate(96.734375 432.282181)scale(0.1 -0.1)">
       <use xlink:href="#DejaVuSans-30"/>
       <use x="63.623047" xlink:href="#DejaVuSans-2e"/>
       <use x="95.410156" xlink:href="#DejaVuSans-38"/>
       <use x="159.033203" xlink:href="#DejaVuSans-33"/>
      </g>
     </g>
    </g>
    <g id="ytick_3">
     <g id="line2d_35">
      <g>
       <use style="stroke:#000000;stroke-width:0.8;" x="126" xlink:href="#mc33db5d07b" y="370.932136"/>
      </g>
     </g>
     <g id="text_7">
      <!-- 0.84 -->
      <g transform="translate(96.734375 374.731355)scale(0.1 -0.1)">
       <defs>
        <path d="M 2419 4116 
L 825 1625 
L 2419 1625 
L 2419 4116 
z
M 2253 4666 
L 3047 4666 
L 3047 1625 
L 3713 1625 
L 3713 1100 
L 3047 1100 
L 3047 0 
L 2419 0 
L 2419 1100 
L 313 1100 
L 313 1709 
L 2253 4666 
z
" id="DejaVuSans-34" transform="scale(0.015625)"/>
       </defs>
       <use xlink:href="#DejaVuSans-30"/>
       <use x="63.623047" xlink:href="#DejaVuSans-2e"/>
       <use x="95.410156" xlink:href="#DejaVuSans-38"/>
       <use x="159.033203" xlink:href="#DejaVuSans-34"/>
      </g>
     </g>
    </g>
    <g id="ytick_4">
     <g id="line2d_36">
      <g>
       <use style="stroke:#000000;stroke-width:0.8;" x="126" xlink:href="#mc33db5d07b" y="313.38131"/>
      </g>
     </g>
     <g id="text_8">
      <!-- 0.85 -->
      <g transform="translate(96.734375 317.180528)scale(0.1 -0.1)">
       <defs>
        <path d="M 691 4666 
L 3169 4666 
L 3169 4134 
L 1269 4134 
L 1269 2991 
Q 1406 3038 1543 3061 
Q 1681 3084 1819 3084 
Q 2600 3084 3056 2656 
Q 3513 2228 3513 1497 
Q 3513 744 3044 326 
Q 2575 -91 1722 -91 
Q 1428 -91 1123 -41 
Q 819 9 494 109 
L 494 744 
Q 775 591 1075 516 
Q 1375 441 1709 441 
Q 2250 441 2565 725 
Q 2881 1009 2881 1497 
Q 2881 1984 2565 2268 
Q 2250 2553 1709 2553 
Q 1456 2553 1204 2497 
Q 953 2441 691 2322 
L 691 4666 
z
" id="DejaVuSans-35" transform="scale(0.015625)"/>
       </defs>
       <use xlink:href="#DejaVuSans-30"/>
       <use x="63.623047" xlink:href="#DejaVuSans-2e"/>
       <use x="95.410156" xlink:href="#DejaVuSans-38"/>
       <use x="159.033203" xlink:href="#DejaVuSans-35"/>
      </g>
     </g>
    </g>
    <g id="ytick_5">
     <g id="line2d_37">
      <g>
       <use style="stroke:#000000;stroke-width:0.8;" x="126" xlink:href="#mc33db5d07b" y="255.830483"/>
      </g>
     </g>
     <g id="text_9">
      <!-- 0.86 -->
      <g transform="translate(96.734375 259.629702)scale(0.1 -0.1)">
       <defs>
        <path d="M 2113 2584 
Q 1688 2584 1439 2293 
Q 1191 2003 1191 1497 
Q 1191 994 1439 701 
Q 1688 409 2113 409 
Q 2538 409 2786 701 
Q 3034 994 3034 1497 
Q 3034 2003 2786 2293 
Q 2538 2584 2113 2584 
z
M 3366 4563 
L 3366 3988 
Q 3128 4100 2886 4159 
Q 2644 4219 2406 4219 
Q 1781 4219 1451 3797 
Q 1122 3375 1075 2522 
Q 1259 2794 1537 2939 
Q 1816 3084 2150 3084 
Q 2853 3084 3261 2657 
Q 3669 2231 3669 1497 
Q 3669 778 3244 343 
Q 2819 -91 2113 -91 
Q 1303 -91 875 529 
Q 447 1150 447 2328 
Q 447 3434 972 4092 
Q 1497 4750 2381 4750 
Q 2619 4750 2861 4703 
Q 3103 4656 3366 4563 
z
" id="DejaVuSans-36" transform="scale(0.015625)"/>
       </defs>
       <use xlink:href="#DejaVuSans-30"/>
       <use x="63.623047" xlink:href="#DejaVuSans-2e"/>
       <use x="95.410156" xlink:href="#DejaVuSans-38"/>
       <use x="159.033203" xlink:href="#DejaVuSans-36"/>
      </g>
     </g>
    </g>
    <g id="ytick_6">
     <g id="line2d_38">
      <g>
       <use style="stroke:#000000;stroke-width:0.8;" x="126" xlink:href="#mc33db5d07b" y="198.279657"/>
      </g>
     </g>
     <g id="text_10">
      <!-- 0.87 -->
      <g transform="translate(96.734375 202.078876)scale(0.1 -0.1)">
       <defs>
        <path d="M 525 4666 
L 3525 4666 
L 3525 4397 
L 1831 0 
L 1172 0 
L 2766 4134 
L 525 4134 
L 525 4666 
z
" id="DejaVuSans-37" transform="scale(0.015625)"/>
       </defs>
       <use xlink:href="#DejaVuSans-30"/>
       <use x="63.623047" xlink:href="#DejaVuSans-2e"/>
       <use x="95.410156" xlink:href="#DejaVuSans-38"/>
       <use x="159.033203" xlink:href="#DejaVuSans-37"/>
      </g>
     </g>
    </g>
    <g id="ytick_7">
     <g id="line2d_39">
      <g>
       <use style="stroke:#000000;stroke-width:0.8;" x="126" xlink:href="#mc33db5d07b" y="140.728831"/>
      </g>
     </g>
     <g id="text_11">
      <!-- 0.88 -->
      <g transform="translate(96.734375 144.528049)scale(0.1 -0.1)">
       <use xlink:href="#DejaVuSans-30"/>
       <use x="63.623047" xlink:href="#DejaVuSans-2e"/>
       <use x="95.410156" xlink:href="#DejaVuSans-38"/>
       <use x="159.033203" xlink:href="#DejaVuSans-38"/>
      </g>
     </g>
    </g>
    <g id="ytick_8">
     <g id="line2d_40">
      <g>
       <use style="stroke:#000000;stroke-width:0.8;" x="126" xlink:href="#mc33db5d07b" y="83.178004"/>
      </g>
     </g>
     <g id="text_12">
      <!-- 0.89 -->
      <g transform="translate(96.734375 86.977223)scale(0.1 -0.1)">
       <defs>
        <path d="M 703 97 
L 703 672 
Q 941 559 1184 500 
Q 1428 441 1663 441 
Q 2288 441 2617 861 
Q 2947 1281 2994 2138 
Q 2813 1869 2534 1725 
Q 2256 1581 1919 1581 
Q 1219 1581 811 2004 
Q 403 2428 403 3163 
Q 403 3881 828 4315 
Q 1253 4750 1959 4750 
Q 2769 4750 3195 4129 
Q 3622 3509 3622 2328 
Q 3622 1225 3098 567 
Q 2575 -91 1691 -91 
Q 1453 -91 1209 -44 
Q 966 3 703 97 
z
M 1959 2075 
Q 2384 2075 2632 2365 
Q 2881 2656 2881 3163 
Q 2881 3666 2632 3958 
Q 2384 4250 1959 4250 
Q 1534 4250 1286 3958 
Q 1038 3666 1038 3163 
Q 1038 2656 1286 2365 
Q 1534 2075 1959 2075 
z
" id="DejaVuSans-39" transform="scale(0.015625)"/>
       </defs>
       <use xlink:href="#DejaVuSans-30"/>
       <use x="63.623047" xlink:href="#DejaVuSans-2e"/>
       <use x="95.410156" xlink:href="#DejaVuSans-38"/>
       <use x="159.033203" xlink:href="#DejaVuSans-39"/>
      </g>
     </g>
    </g>
   </g>
   <g id="line2d_41">
    <path clip-path="url(#pbfceb07360)" d="M 161.509091 463.296245 
L 226.272522 437.386908 
L 264.156701 433.680115 
L 291.035954 439.756199 
L 311.885122 422.483308 
L 328.920132 427.183674 
L 343.323029 416.177938 
L 355.799385 427.030817 
L 366.804311 421.527949 
L 376.648553 409.108282 
L 441.411985 413.770434 
L 479.296163 419.005801 
L 506.175416 408.343995 
L 527.024584 404.216844 
L 544.059595 410.904357 
L 558.462491 403.681843 
L 570.938847 409.299354 
L 581.943774 410.904357 
L 591.788015 397.338259 
L 600.693215 403.987558 
L 608.823026 397.911474 
L 616.301727 401.083266 
L 623.225922 400.548265 
L 629.672194 402.267911 
L 635.702279 412.471146 
L 641.366672 406.891849 
L 646.707205 403.8347 
L 651.758915 412.318288 
L 656.551447 415.986867 
L 694.435626 408.726138 
L 721.314878 409.566854 
L 742.164046 421.795449 
L 759.199057 428.521177 
L 773.601953 423.629739 
L 786.07831 423.629739 
L 797.083236 422.521522 
L 806.927478 419.731874 
L 815.832678 421.795449 
L 823.962488 418.891158 
L 831.441189 425.425814 
L 838.365385 427.795104 
L 844.811656 425.540457 
L 850.841741 437.807266 
L 856.506135 432.113327 
L 861.846667 435.323333 
L 866.898378 437.845481 
L 871.690909 440.520486 
" style="fill:none;stroke:#1f77b4;stroke-linecap:square;stroke-width:1.5;"/>
    <defs>
     <path d="M 0 3 
C 0.795609 3 1.55874 2.683901 2.12132 2.12132 
C 2.683901 1.55874 3 0.795609 3 0 
C 3 -0.795609 2.683901 -1.55874 2.12132 -2.12132 
C 1.55874 -2.683901 0.795609 -3 0 -3 
C -0.795609 -3 -1.55874 -2.683901 -2.12132 -2.12132 
C -2.683901 -1.55874 -3 -0.795609 -3 0 
C -3 0.795609 -2.683901 1.55874 -2.12132 2.12132 
C -1.55874 2.683901 -0.795609 3 0 3 
z
" id="m13ef74e5c3" style="stroke:#1f77b4;"/>
    </defs>
    <g clip-path="url(#pbfceb07360)">
     <use style="fill:#1f77b4;stroke:#1f77b4;" x="161.509091" xlink:href="#m13ef74e5c3" y="463.296245"/>
     <use style="fill:#1f77b4;stroke:#1f77b4;" x="226.272522" xlink:href="#m13ef74e5c3" y="437.386908"/>
     <use style="fill:#1f77b4;stroke:#1f77b4;" x="264.156701" xlink:href="#m13ef74e5c3" y="433.680115"/>
     <use style="fill:#1f77b4;stroke:#1f77b4;" x="291.035954" xlink:href="#m13ef74e5c3" y="439.756199"/>
     <use style="fill:#1f77b4;stroke:#1f77b4;" x="311.885122" xlink:href="#m13ef74e5c3" y="422.483308"/>
     <use style="fill:#1f77b4;stroke:#1f77b4;" x="328.920132" xlink:href="#m13ef74e5c3" y="427.183674"/>
     <use style="fill:#1f77b4;stroke:#1f77b4;" x="343.323029" xlink:href="#m13ef74e5c3" y="416.177938"/>
     <use style="fill:#1f77b4;stroke:#1f77b4;" x="355.799385" xlink:href="#m13ef74e5c3" y="427.030817"/>
     <use style="fill:#1f77b4;stroke:#1f77b4;" x="366.804311" xlink:href="#m13ef74e5c3" y="421.527949"/>
     <use style="fill:#1f77b4;stroke:#1f77b4;" x="376.648553" xlink:href="#m13ef74e5c3" y="409.108282"/>
     <use style="fill:#1f77b4;stroke:#1f77b4;" x="441.411985" xlink:href="#m13ef74e5c3" y="413.770434"/>
     <use style="fill:#1f77b4;stroke:#1f77b4;" x="479.296163" xlink:href="#m13ef74e5c3" y="419.005801"/>
     <use style="fill:#1f77b4;stroke:#1f77b4;" x="506.175416" xlink:href="#m13ef74e5c3" y="408.343995"/>
     <use style="fill:#1f77b4;stroke:#1f77b4;" x="527.024584" xlink:href="#m13ef74e5c3" y="404.216844"/>
     <use style="fill:#1f77b4;stroke:#1f77b4;" x="544.059595" xlink:href="#m13ef74e5c3" y="410.904357"/>
     <use style="fill:#1f77b4;stroke:#1f77b4;" x="558.462491" xlink:href="#m13ef74e5c3" y="403.681843"/>
     <use style="fill:#1f77b4;stroke:#1f77b4;" x="570.938847" xlink:href="#m13ef74e5c3" y="409.299354"/>
     <use style="fill:#1f77b4;stroke:#1f77b4;" x="581.943774" xlink:href="#m13ef74e5c3" y="410.904357"/>
     <use style="fill:#1f77b4;stroke:#1f77b4;" x="591.788015" xlink:href="#m13ef74e5c3" y="397.338259"/>
     <use style="fill:#1f77b4;stroke:#1f77b4;" x="600.693215" xlink:href="#m13ef74e5c3" y="403.987558"/>
     <use style="fill:#1f77b4;stroke:#1f77b4;" x="608.823026" xlink:href="#m13ef74e5c3" y="397.911474"/>
     <use style="fill:#1f77b4;stroke:#1f77b4;" x="616.301727" xlink:href="#m13ef74e5c3" y="401.083266"/>
     <use style="fill:#1f77b4;stroke:#1f77b4;" x="623.225922" xlink:href="#m13ef74e5c3" y="400.548265"/>
     <use style="fill:#1f77b4;stroke:#1f77b4;" x="629.672194" xlink:href="#m13ef74e5c3" y="402.267911"/>
     <use style="fill:#1f77b4;stroke:#1f77b4;" x="635.702279" xlink:href="#m13ef74e5c3" y="412.471146"/>
     <use style="fill:#1f77b4;stroke:#1f77b4;" x="641.366672" xlink:href="#m13ef74e5c3" y="406.891849"/>
     <use style="fill:#1f77b4;stroke:#1f77b4;" x="646.707205" xlink:href="#m13ef74e5c3" y="403.8347"/>
     <use style="fill:#1f77b4;stroke:#1f77b4;" x="651.758915" xlink:href="#m13ef74e5c3" y="412.318288"/>
     <use style="fill:#1f77b4;stroke:#1f77b4;" x="656.551447" xlink:href="#m13ef74e5c3" y="415.986867"/>
     <use style="fill:#1f77b4;stroke:#1f77b4;" x="694.435626" xlink:href="#m13ef74e5c3" y="408.726138"/>
     <use style="fill:#1f77b4;stroke:#1f77b4;" x="721.314878" xlink:href="#m13ef74e5c3" y="409.566854"/>
     <use style="fill:#1f77b4;stroke:#1f77b4;" x="742.164046" xlink:href="#m13ef74e5c3" y="421.795449"/>
     <use style="fill:#1f77b4;stroke:#1f77b4;" x="759.199057" xlink:href="#m13ef74e5c3" y="428.521177"/>
     <use style="fill:#1f77b4;stroke:#1f77b4;" x="773.601953" xlink:href="#m13ef74e5c3" y="423.629739"/>
     <use style="fill:#1f77b4;stroke:#1f77b4;" x="786.07831" xlink:href="#m13ef74e5c3" y="423.629739"/>
     <use style="fill:#1f77b4;stroke:#1f77b4;" x="797.083236" xlink:href="#m13ef74e5c3" y="422.521522"/>
     <use style="fill:#1f77b4;stroke:#1f77b4;" x="806.927478" xlink:href="#m13ef74e5c3" y="419.731874"/>
     <use style="fill:#1f77b4;stroke:#1f77b4;" x="815.832678" xlink:href="#m13ef74e5c3" y="421.795449"/>
     <use style="fill:#1f77b4;stroke:#1f77b4;" x="823.962488" xlink:href="#m13ef74e5c3" y="418.891158"/>
     <use style="fill:#1f77b4;stroke:#1f77b4;" x="831.441189" xlink:href="#m13ef74e5c3" y="425.425814"/>
     <use style="fill:#1f77b4;stroke:#1f77b4;" x="838.365385" xlink:href="#m13ef74e5c3" y="427.795104"/>
     <use style="fill:#1f77b4;stroke:#1f77b4;" x="844.811656" xlink:href="#m13ef74e5c3" y="425.540457"/>
     <use style="fill:#1f77b4;stroke:#1f77b4;" x="850.841741" xlink:href="#m13ef74e5c3" y="437.807266"/>
     <use style="fill:#1f77b4;stroke:#1f77b4;" x="856.506135" xlink:href="#m13ef74e5c3" y="432.113327"/>
     <use style="fill:#1f77b4;stroke:#1f77b4;" x="861.846667" xlink:href="#m13ef74e5c3" y="435.323333"/>
     <use style="fill:#1f77b4;stroke:#1f77b4;" x="866.898378" xlink:href="#m13ef74e5c3" y="437.845481"/>
     <use style="fill:#1f77b4;stroke:#1f77b4;" x="871.690909" xlink:href="#m13ef74e5c3" y="440.520486"/>
    </g>
   </g>
   <g id="line2d_42">
    <path clip-path="url(#pbfceb07360)" d="M 161.509091 181.443925 
L 226.272522 157.253436 
L 264.156701 150.956247 
L 291.035954 139.169932 
L 311.885122 143.036032 
L 328.920132 137.220458 
L 343.323029 129.776716 
L 355.799385 136.64979 
L 366.804311 127.39279 
L 376.648553 129.899856 
L 441.411985 124.292314 
L 479.296163 118.448684 
L 506.175416 112.133839 
L 527.024584 117.719632 
L 544.059595 118.415056 
L 558.462491 110.470613 
L 570.938847 110.635993 
L 581.943774 116.32482 
L 591.788015 105.264099 
L 600.693215 112.532835 
L 608.823026 106.733725 
L 616.301727 111.016745 
L 623.225922 111.371446 
L 629.672194 108.466767 
L 635.702279 114.603662 
L 641.366672 111.064469 
L 646.707205 112.722485 
L 651.758915 118.195003 
L 656.551447 118.538114 
L 694.435626 117.292177 
L 721.314878 127.141984 
L 742.164046 146.834398 
L 759.199057 145.288158 
L 773.601953 149.661463 
L 786.07831 146.771777 
L 797.083236 159.69085 
L 806.927478 153.435991 
L 815.832678 158.487509 
L 823.962488 152.62315 
L 831.441189 164.323115 
L 838.365385 156.544498 
L 844.811656 166.224085 
L 850.841741 167.109227 
L 856.506135 183.209527 
L 861.846667 173.153735 
L 866.898378 175.797893 
L 871.690909 173.791261 
" style="fill:none;stroke:#ff7f0e;stroke-linecap:square;stroke-width:1.5;"/>
    <defs>
     <path d="M 0 3 
C 0.795609 3 1.55874 2.683901 2.12132 2.12132 
C 2.683901 1.55874 3 0.795609 3 0 
C 3 -0.795609 2.683901 -1.55874 2.12132 -2.12132 
C 1.55874 -2.683901 0.795609 -3 0 -3 
C -0.795609 -3 -1.55874 -2.683901 -2.12132 -2.12132 
C -2.683901 -1.55874 -3 -0.795609 -3 0 
C -3 0.795609 -2.683901 1.55874 -2.12132 2.12132 
C -1.55874 2.683901 -0.795609 3 0 3 
z
" id="md55ac9957f" style="stroke:#ff7f0e;"/>
    </defs>
    <g clip-path="url(#pbfceb07360)">
     <use style="fill:#ff7f0e;stroke:#ff7f0e;" x="161.509091" xlink:href="#md55ac9957f" y="181.443925"/>
     <use style="fill:#ff7f0e;stroke:#ff7f0e;" x="226.272522" xlink:href="#md55ac9957f" y="157.253436"/>
     <use style="fill:#ff7f0e;stroke:#ff7f0e;" x="264.156701" xlink:href="#md55ac9957f" y="150.956247"/>
     <use style="fill:#ff7f0e;stroke:#ff7f0e;" x="291.035954" xlink:href="#md55ac9957f" y="139.169932"/>
     <use style="fill:#ff7f0e;stroke:#ff7f0e;" x="311.885122" xlink:href="#md55ac9957f" y="143.036032"/>
     <use style="fill:#ff7f0e;stroke:#ff7f0e;" x="328.920132" xlink:href="#md55ac9957f" y="137.220458"/>
     <use style="fill:#ff7f0e;stroke:#ff7f0e;" x="343.323029" xlink:href="#md55ac9957f" y="129.776716"/>
     <use style="fill:#ff7f0e;stroke:#ff7f0e;" x="355.799385" xlink:href="#md55ac9957f" y="136.64979"/>
     <use style="fill:#ff7f0e;stroke:#ff7f0e;" x="366.804311" xlink:href="#md55ac9957f" y="127.39279"/>
     <use style="fill:#ff7f0e;stroke:#ff7f0e;" x="376.648553" xlink:href="#md55ac9957f" y="129.899856"/>
     <use style="fill:#ff7f0e;stroke:#ff7f0e;" x="441.411985" xlink:href="#md55ac9957f" y="124.292314"/>
     <use style="fill:#ff7f0e;stroke:#ff7f0e;" x="479.296163" xlink:href="#md55ac9957f" y="118.448684"/>
     <use style="fill:#ff7f0e;stroke:#ff7f0e;" x="506.175416" xlink:href="#md55ac9957f" y="112.133839"/>
     <use style="fill:#ff7f0e;stroke:#ff7f0e;" x="527.024584" xlink:href="#md55ac9957f" y="117.719632"/>
     <use style="fill:#ff7f0e;stroke:#ff7f0e;" x="544.059595" xlink:href="#md55ac9957f" y="118.415056"/>
     <use style="fill:#ff7f0e;stroke:#ff7f0e;" x="558.462491" xlink:href="#md55ac9957f" y="110.470613"/>
     <use style="fill:#ff7f0e;stroke:#ff7f0e;" x="570.938847" xlink:href="#md55ac9957f" y="110.635993"/>
     <use style="fill:#ff7f0e;stroke:#ff7f0e;" x="581.943774" xlink:href="#md55ac9957f" y="116.32482"/>
     <use style="fill:#ff7f0e;stroke:#ff7f0e;" x="591.788015" xlink:href="#md55ac9957f" y="105.264099"/>
     <use style="fill:#ff7f0e;stroke:#ff7f0e;" x="600.693215" xlink:href="#md55ac9957f" y="112.532835"/>
     <use style="fill:#ff7f0e;stroke:#ff7f0e;" x="608.823026" xlink:href="#md55ac9957f" y="106.733725"/>
     <use style="fill:#ff7f0e;stroke:#ff7f0e;" x="616.301727" xlink:href="#md55ac9957f" y="111.016745"/>
     <use style="fill:#ff7f0e;stroke:#ff7f0e;" x="623.225922" xlink:href="#md55ac9957f" y="111.371446"/>
     <use style="fill:#ff7f0e;stroke:#ff7f0e;" x="629.672194" xlink:href="#md55ac9957f" y="108.466767"/>
     <use style="fill:#ff7f0e;stroke:#ff7f0e;" x="635.702279" xlink:href="#md55ac9957f" y="114.603662"/>
     <use style="fill:#ff7f0e;stroke:#ff7f0e;" x="641.366672" xlink:href="#md55ac9957f" y="111.064469"/>
     <use style="fill:#ff7f0e;stroke:#ff7f0e;" x="646.707205" xlink:href="#md55ac9957f" y="112.722485"/>
     <use style="fill:#ff7f0e;stroke:#ff7f0e;" x="651.758915" xlink:href="#md55ac9957f" y="118.195003"/>
     <use style="fill:#ff7f0e;stroke:#ff7f0e;" x="656.551447" xlink:href="#md55ac9957f" y="118.538114"/>
     <use style="fill:#ff7f0e;stroke:#ff7f0e;" x="694.435626" xlink:href="#md55ac9957f" y="117.292177"/>
     <use style="fill:#ff7f0e;stroke:#ff7f0e;" x="721.314878" xlink:href="#md55ac9957f" y="127.141984"/>
     <use style="fill:#ff7f0e;stroke:#ff7f0e;" x="742.164046" xlink:href="#md55ac9957f" y="146.834398"/>
     <use style="fill:#ff7f0e;stroke:#ff7f0e;" x="759.199057" xlink:href="#md55ac9957f" y="145.288158"/>
     <use style="fill:#ff7f0e;stroke:#ff7f0e;" x="773.601953" xlink:href="#md55ac9957f" y="149.661463"/>
     <use style="fill:#ff7f0e;stroke:#ff7f0e;" x="786.07831" xlink:href="#md55ac9957f" y="146.771777"/>
     <use style="fill:#ff7f0e;stroke:#ff7f0e;" x="797.083236" xlink:href="#md55ac9957f" y="159.69085"/>
     <use style="fill:#ff7f0e;stroke:#ff7f0e;" x="806.927478" xlink:href="#md55ac9957f" y="153.435991"/>
     <use style="fill:#ff7f0e;stroke:#ff7f0e;" x="815.832678" xlink:href="#md55ac9957f" y="158.487509"/>
     <use style="fill:#ff7f0e;stroke:#ff7f0e;" x="823.962488" xlink:href="#md55ac9957f" y="152.62315"/>
     <use style="fill:#ff7f0e;stroke:#ff7f0e;" x="831.441189" xlink:href="#md55ac9957f" y="164.323115"/>
     <use style="fill:#ff7f0e;stroke:#ff7f0e;" x="838.365385" xlink:href="#md55ac9957f" y="156.544498"/>
     <use style="fill:#ff7f0e;stroke:#ff7f0e;" x="844.811656" xlink:href="#md55ac9957f" y="166.224085"/>
     <use style="fill:#ff7f0e;stroke:#ff7f0e;" x="850.841741" xlink:href="#md55ac9957f" y="167.109227"/>
     <use style="fill:#ff7f0e;stroke:#ff7f0e;" x="856.506135" xlink:href="#md55ac9957f" y="183.209527"/>
     <use style="fill:#ff7f0e;stroke:#ff7f0e;" x="861.846667" xlink:href="#md55ac9957f" y="173.153735"/>
     <use style="fill:#ff7f0e;stroke:#ff7f0e;" x="866.898378" xlink:href="#md55ac9957f" y="175.797893"/>
     <use style="fill:#ff7f0e;stroke:#ff7f0e;" x="871.690909" xlink:href="#md55ac9957f" y="173.791261"/>
    </g>
   </g>
   <g id="patch_3">
    <path d="M 126 504 
L 126 69.12 
" style="fill:none;stroke:#000000;stroke-linecap:square;stroke-linejoin:miter;stroke-width:0.8;"/>
   </g>
   <g id="patch_4">
    <path d="M 907.2 504 
L 907.2 69.12 
" style="fill:none;stroke:#000000;stroke-linecap:square;stroke-linejoin:miter;stroke-width:0.8;"/>
   </g>
   <g id="patch_5">
    <path d="M 126 504 
L 907.2 504 
" style="fill:none;stroke:#000000;stroke-linecap:square;stroke-linejoin:miter;stroke-width:0.8;"/>
   </g>
   <g id="patch_6">
    <path d="M 126 69.12 
L 907.2 69.12 
" style="fill:none;stroke:#000000;stroke-linecap:square;stroke-linejoin:miter;stroke-width:0.8;"/>
   </g>
   <g id="legend_1">
    <g id="patch_7">
     <path d="M 744.5 499 
L 900.2 499 
Q 902.2 499 902.2 497 
L 902.2 439.267187 
Q 902.2 437.267187 900.2 437.267187 
L 744.5 437.267187 
Q 742.5 437.267187 742.5 439.267187 
L 742.5 497 
Q 742.5 499 744.5 499 
z
" style="fill:#ffffff;opacity:0.8;stroke:#cccccc;stroke-linejoin:miter;"/>
    </g>
    <g id="line2d_43">
     <path d="M 746.5 445.365625 
L 766.5 445.365625 
" style="fill:none;stroke:#1f77b4;stroke-linecap:square;stroke-width:1.5;"/>
    </g>
    <g id="line2d_44">
     <g>
      <use style="fill:#1f77b4;stroke:#1f77b4;" x="756.5" xlink:href="#m13ef74e5c3" y="445.365625"/>
     </g>
    </g>
    <g id="text_13">
     <!-- Accuracy -->
     <g transform="translate(774.5 448.865625)scale(0.1 -0.1)">
      <defs>
       <path d="M 2188 4044 
L 1331 1722 
L 3047 1722 
L 2188 4044 
z
M 1831 4666 
L 2547 4666 
L 4325 0 
L 3669 0 
L 3244 1197 
L 1141 1197 
L 716 0 
L 50 0 
L 1831 4666 
z
" id="DejaVuSans-41" transform="scale(0.015625)"/>
       <path d="M 3122 3366 
L 3122 2828 
Q 2878 2963 2633 3030 
Q 2388 3097 2138 3097 
Q 1578 3097 1268 2742 
Q 959 2388 959 1747 
Q 959 1106 1268 751 
Q 1578 397 2138 397 
Q 2388 397 2633 464 
Q 2878 531 3122 666 
L 3122 134 
Q 2881 22 2623 -34 
Q 2366 -91 2075 -91 
Q 1284 -91 818 406 
Q 353 903 353 1747 
Q 353 2603 823 3093 
Q 1294 3584 2113 3584 
Q 2378 3584 2631 3529 
Q 2884 3475 3122 3366 
z
" id="DejaVuSans-63" transform="scale(0.015625)"/>
       <path d="M 544 1381 
L 544 3500 
L 1119 3500 
L 1119 1403 
Q 1119 906 1312 657 
Q 1506 409 1894 409 
Q 2359 409 2629 706 
Q 2900 1003 2900 1516 
L 2900 3500 
L 3475 3500 
L 3475 0 
L 2900 0 
L 2900 538 
Q 2691 219 2414 64 
Q 2138 -91 1772 -91 
Q 1169 -91 856 284 
Q 544 659 544 1381 
z
M 1991 3584 
L 1991 3584 
z
" id="DejaVuSans-75" transform="scale(0.015625)"/>
       <path d="M 2631 2963 
Q 2534 3019 2420 3045 
Q 2306 3072 2169 3072 
Q 1681 3072 1420 2755 
Q 1159 2438 1159 1844 
L 1159 0 
L 581 0 
L 581 3500 
L 1159 3500 
L 1159 2956 
Q 1341 3275 1631 3429 
Q 1922 3584 2338 3584 
Q 2397 3584 2469 3576 
Q 2541 3569 2628 3553 
L 2631 2963 
z
" id="DejaVuSans-72" transform="scale(0.015625)"/>
       <path d="M 2194 1759 
Q 1497 1759 1228 1600 
Q 959 1441 959 1056 
Q 959 750 1161 570 
Q 1363 391 1709 391 
Q 2188 391 2477 730 
Q 2766 1069 2766 1631 
L 2766 1759 
L 2194 1759 
z
M 3341 1997 
L 3341 0 
L 2766 0 
L 2766 531 
Q 2569 213 2275 61 
Q 1981 -91 1556 -91 
Q 1019 -91 701 211 
Q 384 513 384 1019 
Q 384 1609 779 1909 
Q 1175 2209 1959 2209 
L 2766 2209 
L 2766 2266 
Q 2766 2663 2505 2880 
Q 2244 3097 1772 3097 
Q 1472 3097 1187 3025 
Q 903 2953 641 2809 
L 641 3341 
Q 956 3463 1253 3523 
Q 1550 3584 1831 3584 
Q 2591 3584 2966 3190 
Q 3341 2797 3341 1997 
z
" id="DejaVuSans-61" transform="scale(0.015625)"/>
       <path d="M 2059 -325 
Q 1816 -950 1584 -1140 
Q 1353 -1331 966 -1331 
L 506 -1331 
L 506 -850 
L 844 -850 
Q 1081 -850 1212 -737 
Q 1344 -625 1503 -206 
L 1606 56 
L 191 3500 
L 800 3500 
L 1894 763 
L 2988 3500 
L 3597 3500 
L 2059 -325 
z
" id="DejaVuSans-79" transform="scale(0.015625)"/>
      </defs>
      <use xlink:href="#DejaVuSans-41"/>
      <use x="66.658203" xlink:href="#DejaVuSans-63"/>
      <use x="121.638672" xlink:href="#DejaVuSans-63"/>
      <use x="176.619141" xlink:href="#DejaVuSans-75"/>
      <use x="239.998047" xlink:href="#DejaVuSans-72"/>
      <use x="281.111328" xlink:href="#DejaVuSans-61"/>
      <use x="342.390625" xlink:href="#DejaVuSans-63"/>
      <use x="397.371094" xlink:href="#DejaVuSans-79"/>
     </g>
    </g>
    <g id="line2d_45">
     <path d="M 746.5 460.04375 
L 766.5 460.04375 
" style="fill:none;stroke:#ff7f0e;stroke-linecap:square;stroke-width:1.5;"/>
    </g>
    <g id="line2d_46">
     <g>
      <use style="fill:#ff7f0e;stroke:#ff7f0e;" x="756.5" xlink:href="#md55ac9957f" y="460.04375"/>
     </g>
    </g>
    <g id="text_14">
     <!-- AUC -->
     <g transform="translate(774.5 463.54375)scale(0.1 -0.1)">
      <defs>
       <path d="M 556 4666 
L 1191 4666 
L 1191 1831 
Q 1191 1081 1462 751 
Q 1734 422 2344 422 
Q 2950 422 3222 751 
Q 3494 1081 3494 1831 
L 3494 4666 
L 4128 4666 
L 4128 1753 
Q 4128 841 3676 375 
Q 3225 -91 2344 -91 
Q 1459 -91 1007 375 
Q 556 841 556 1753 
L 556 4666 
z
" id="DejaVuSans-55" transform="scale(0.015625)"/>
       <path d="M 4122 4306 
L 4122 3641 
Q 3803 3938 3442 4084 
Q 3081 4231 2675 4231 
Q 1875 4231 1450 3742 
Q 1025 3253 1025 2328 
Q 1025 1406 1450 917 
Q 1875 428 2675 428 
Q 3081 428 3442 575 
Q 3803 722 4122 1019 
L 4122 359 
Q 3791 134 3420 21 
Q 3050 -91 2638 -91 
Q 1578 -91 968 557 
Q 359 1206 359 2328 
Q 359 3453 968 4101 
Q 1578 4750 2638 4750 
Q 3056 4750 3426 4639 
Q 3797 4528 4122 4306 
z
" id="DejaVuSans-43" transform="scale(0.015625)"/>
      </defs>
      <use xlink:href="#DejaVuSans-41"/>
      <use x="68.408203" xlink:href="#DejaVuSans-55"/>
      <use x="141.601562" xlink:href="#DejaVuSans-43"/>
     </g>
    </g>
    <g id="patch_8">
     <path d="M 746.5 478.221875 
L 766.5 478.221875 
L 766.5 471.221875 
L 746.5 471.221875 
z
" style="fill:#1f77b4;fill-opacity:0.5;stroke:#1f77b4;stroke-linejoin:miter;stroke-opacity:0.5;"/>
    </g>
    <g id="text_15">
     <!-- Accuracy $\pm$ SD Accuracy -->
     <g transform="translate(774.5 478.221875)scale(0.1 -0.1)">
      <defs>
       <path id="DejaVuSans-20" transform="scale(0.015625)"/>
       <path d="M 2944 4013 
L 2944 2803 
L 4684 2803 
L 4684 2272 
L 2944 2272 
L 2944 1063 
L 2419 1063 
L 2419 2272 
L 678 2272 
L 678 2803 
L 2419 2803 
L 2419 4013 
L 2944 4013 
z
M 678 531 
L 4684 531 
L 4684 0 
L 678 0 
L 678 531 
z
" id="DejaVuSans-b1" transform="scale(0.015625)"/>
       <path d="M 3425 4513 
L 3425 3897 
Q 3066 4069 2747 4153 
Q 2428 4238 2131 4238 
Q 1616 4238 1336 4038 
Q 1056 3838 1056 3469 
Q 1056 3159 1242 3001 
Q 1428 2844 1947 2747 
L 2328 2669 
Q 3034 2534 3370 2195 
Q 3706 1856 3706 1288 
Q 3706 609 3251 259 
Q 2797 -91 1919 -91 
Q 1588 -91 1214 -16 
Q 841 59 441 206 
L 441 856 
Q 825 641 1194 531 
Q 1563 422 1919 422 
Q 2459 422 2753 634 
Q 3047 847 3047 1241 
Q 3047 1584 2836 1778 
Q 2625 1972 2144 2069 
L 1759 2144 
Q 1053 2284 737 2584 
Q 422 2884 422 3419 
Q 422 4038 858 4394 
Q 1294 4750 2059 4750 
Q 2388 4750 2728 4690 
Q 3069 4631 3425 4513 
z
" id="DejaVuSans-53" transform="scale(0.015625)"/>
       <path d="M 1259 4147 
L 1259 519 
L 2022 519 
Q 2988 519 3436 956 
Q 3884 1394 3884 2338 
Q 3884 3275 3436 3711 
Q 2988 4147 2022 4147 
L 1259 4147 
z
M 628 4666 
L 1925 4666 
Q 3281 4666 3915 4102 
Q 4550 3538 4550 2338 
Q 4550 1131 3912 565 
Q 3275 0 1925 0 
L 628 0 
L 628 4666 
z
" id="DejaVuSans-44" transform="scale(0.015625)"/>
      </defs>
      <use transform="translate(0 0.78125)" xlink:href="#DejaVuSans-41"/>
      <use transform="translate(68.408203 0.78125)" xlink:href="#DejaVuSans-63"/>
      <use transform="translate(123.388672 0.78125)" xlink:href="#DejaVuSans-63"/>
      <use transform="translate(178.369141 0.78125)" xlink:href="#DejaVuSans-75"/>
      <use transform="translate(241.748047 0.78125)" xlink:href="#DejaVuSans-72"/>
      <use transform="translate(282.861328 0.78125)" xlink:href="#DejaVuSans-61"/>
      <use transform="translate(344.140625 0.78125)" xlink:href="#DejaVuSans-63"/>
      <use transform="translate(399.121094 0.78125)" xlink:href="#DejaVuSans-79"/>
      <use transform="translate(458.300781 0.78125)" xlink:href="#DejaVuSans-20"/>
      <use transform="translate(490.087891 0.78125)" xlink:href="#DejaVuSans-b1"/>
      <use transform="translate(573.876953 0.78125)" xlink:href="#DejaVuSans-20"/>
      <use transform="translate(605.664062 0.78125)" xlink:href="#DejaVuSans-53"/>
      <use transform="translate(669.140625 0.78125)" xlink:href="#DejaVuSans-44"/>
      <use transform="translate(746.142578 0.78125)" xlink:href="#DejaVuSans-20"/>
      <use transform="translate(777.929688 0.78125)" xlink:href="#DejaVuSans-41"/>
      <use transform="translate(846.337891 0.78125)" xlink:href="#DejaVuSans-63"/>
      <use transform="translate(901.318359 0.78125)" xlink:href="#DejaVuSans-63"/>
      <use transform="translate(956.298828 0.78125)" xlink:href="#DejaVuSans-75"/>
      <use transform="translate(1019.677734 0.78125)" xlink:href="#DejaVuSans-72"/>
      <use transform="translate(1060.791016 0.78125)" xlink:href="#DejaVuSans-61"/>
      <use transform="translate(1122.070312 0.78125)" xlink:href="#DejaVuSans-63"/>
      <use transform="translate(1177.050781 0.78125)" xlink:href="#DejaVuSans-79"/>
     </g>
    </g>
    <g id="patch_9">
     <path d="M 746.5 492.920313 
L 766.5 492.920313 
L 766.5 485.920313 
L 746.5 485.920313 
z
" style="fill:#ff7f0e;fill-opacity:0.5;stroke:#ff7f0e;stroke-linejoin:miter;stroke-opacity:0.5;"/>
    </g>
    <g id="text_16">
     <!-- AUC $\pm$ SD AUC -->
     <g transform="translate(774.5 492.920313)scale(0.1 -0.1)">
      <use transform="translate(0 0.78125)" xlink:href="#DejaVuSans-41"/>
      <use transform="translate(68.408203 0.78125)" xlink:href="#DejaVuSans-55"/>
      <use transform="translate(141.601562 0.78125)" xlink:href="#DejaVuSans-43"/>
      <use transform="translate(211.425781 0.78125)" xlink:href="#DejaVuSans-20"/>
      <use transform="translate(243.212891 0.78125)" xlink:href="#DejaVuSans-b1"/>
      <use transform="translate(327.001953 0.78125)" xlink:href="#DejaVuSans-20"/>
      <use transform="translate(358.789062 0.78125)" xlink:href="#DejaVuSans-53"/>
      <use transform="translate(422.265625 0.78125)" xlink:href="#DejaVuSans-44"/>
      <use transform="translate(499.267578 0.78125)" xlink:href="#DejaVuSans-20"/>
      <use transform="translate(531.054688 0.78125)" xlink:href="#DejaVuSans-41"/>
      <use transform="translate(599.462891 0.78125)" xlink:href="#DejaVuSans-55"/>
      <use transform="translate(672.65625 0.78125)" xlink:href="#DejaVuSans-43"/>
     </g>
    </g>
   </g>
  </g>
 </g>
 <defs>
  <clipPath id="pbfceb07360">
   <rect height="434.88" width="781.2" x="126" y="69.12"/>
  </clipPath>
 </defs>
</svg>
