<?xml version="1.0" encoding="utf-8" standalone="no"?>
<!DOCTYPE svg PUBLIC "-//W3C//DTD SVG 1.1//EN"
  "http://www.w3.org/Graphics/SVG/1.1/DTD/svg11.dtd">
<svg height="576pt" version="1.1" viewBox="0 0 1008 576" width="1008pt" xmlns="http://www.w3.org/2000/svg" xmlns:xlink="http://www.w3.org/1999/xlink">
 <metadata>
  <rdf:RDF xmlns:cc="http://creativecommons.org/ns#" xmlns:dc="http://purl.org/dc/elements/1.1/" xmlns:rdf="http://www.w3.org/1999/02/22-rdf-syntax-ns#">
   <cc:Work>
    <dc:type rdf:resource="http://purl.org/dc/dcmitype/StillImage"/>
    <dc:date>2022-03-14T13:37:54.049576</dc:date>
    <dc:format>image/svg+xml</dc:format>
    <dc:creator>
     <cc:Agent>
      <dc:title>Matplotlib v3.4.3, https://matplotlib.org/</dc:title>
     </cc:Agent>
    </dc:creator>
   </cc:Work>
  </rdf:RDF>
 </metadata>
 <defs>
  <style type="text/css">*{stroke-linecap:butt;stroke-linejoin:round;}</style>
 </defs>
 <g id="figure_1">
  <g id="patch_1">
   <path d="M 0 576 
L 1008 576 
L 1008 0 
L 0 0 
z
" style="fill:none;"/>
  </g>
  <g id="axes_1">
   <g id="patch_2">
    <path d="M 126 504 
L 481.090909 504 
L 481.090909 69.12 
L 126 69.12 
z
" style="fill:#ffffff;"/>
   </g>
   <g id="PolyCollection_1">
    <defs>
     <path d="M 142.140496 -435.794585 
L 142.140496 -165.235258 
L 142.570909 -200.077958 
L 143.001322 -225.74148 
L 143.431736 -268.604849 
L 143.862149 -219.809901 
L 144.292562 -258.044986 
L 144.722975 -112.475815 
L 145.153388 -211.896426 
L 145.583802 -258.603133 
L 146.014215 -270.127726 
L 146.444628 -282.058322 
L 146.875041 -266.472663 
L 147.305455 -259.717705 
L 147.735868 -246.137387 
L 148.166281 -211.774583 
L 148.596694 -249.253106 
L 149.027107 -246.050023 
L 149.457521 -199.553572 
L 149.887934 -263.571392 
L 150.318347 -241.281003 
L 150.74876 -274.904106 
L 155.052893 -191.296466 
L 159.357025 -245.841398 
L 163.661157 -281.731238 
L 167.965289 -255.853477 
L 172.269421 -179.298892 
L 176.573554 -248.038404 
L 180.877686 -281.780098 
L 185.181818 -209.683268 
L 206.702479 -282.810933 
L 228.22314 -235.845242 
L 249.743802 -148.333739 
L 271.264463 -189.506142 
L 292.785124 -226.182802 
L 314.305785 -91.767273 
L 335.826446 -170.882719 
L 357.347107 -130.775127 
L 378.867769 -203.810472 
L 400.38843 -137.223181 
L 421.909091 -140.858598 
L 443.429752 -187.711575 
L 464.950413 -145.376299 
L 464.950413 -314.463165 
L 464.950413 -314.463165 
L 443.429752 -357.525296 
L 421.909091 -369.649994 
L 400.38843 -325.462863 
L 378.867769 -409.175009 
L 357.347107 -325.648442 
L 335.826446 -366.383727 
L 314.305785 -373.196036 
L 292.785124 -377.693622 
L 271.264463 -344.344408 
L 249.743802 -338.263579 
L 228.22314 -390.803824 
L 206.702479 -387.106152 
L 185.181818 -436.322544 
L 180.877686 -449.62312 
L 176.573554 -429.849106 
L 172.269421 -405.790103 
L 167.965289 -418.618137 
L 163.661157 -433.161815 
L 159.357025 -427.491583 
L 155.052893 -484.883096 
L 150.74876 -419.49357 
L 150.318347 -393.338487 
L 149.887934 -426.841071 
L 149.457521 -441.897711 
L 149.027107 -382.306991 
L 148.596694 -405.292446 
L 148.166281 -417.151747 
L 147.735868 -411.254745 
L 147.305455 -419.877753 
L 146.875041 -436.464753 
L 146.444628 -471.548222 
L 146.014215 -374.739453 
L 145.583802 -437.502491 
L 145.153388 -406.782215 
L 144.722975 -396.324829 
L 144.292562 -385.683561 
L 143.862149 -487.112727 
L 143.431736 -454.258628 
L 143.001322 -437.913128 
L 142.570909 -398.674621 
L 142.140496 -435.794585 
z
" id="m27d9a61d1a" style="stroke:#1f77b4;stroke-opacity:0.5;"/>
    </defs>
    <g clip-path="url(#p93532e0559)">
     <use style="fill:#1f77b4;fill-opacity:0.5;stroke:#1f77b4;stroke-opacity:0.5;" x="0" xlink:href="#m27d9a61d1a" y="576"/>
    </g>
   </g>
   <g id="matplotlib.axis_1">
    <g id="xtick_1">
     <g id="line2d_1">
      <defs>
       <path d="M 0 0 
L 0 3.5 
" id="mf577b370fc" style="stroke:#000000;stroke-width:0.8;"/>
      </defs>
      <g>
       <use style="stroke:#000000;stroke-width:0.8;" x="142.140496" xlink:href="#mf577b370fc" y="504"/>
      </g>
     </g>
     <g id="text_1">
      <!-- 0.0 -->
      <g transform="translate(134.188933 518.598438)scale(0.1 -0.1)">
       <defs>
        <path d="M 2034 4250 
Q 1547 4250 1301 3770 
Q 1056 3291 1056 2328 
Q 1056 1369 1301 889 
Q 1547 409 2034 409 
Q 2525 409 2770 889 
Q 3016 1369 3016 2328 
Q 3016 3291 2770 3770 
Q 2525 4250 2034 4250 
z
M 2034 4750 
Q 2819 4750 3233 4129 
Q 3647 3509 3647 2328 
Q 3647 1150 3233 529 
Q 2819 -91 2034 -91 
Q 1250 -91 836 529 
Q 422 1150 422 2328 
Q 422 3509 836 4129 
Q 1250 4750 2034 4750 
z
" id="DejaVuSans-30" transform="scale(0.015625)"/>
        <path d="M 684 794 
L 1344 794 
L 1344 0 
L 684 0 
L 684 794 
z
" id="DejaVuSans-2e" transform="scale(0.015625)"/>
       </defs>
       <use xlink:href="#DejaVuSans-30"/>
       <use x="63.623047" xlink:href="#DejaVuSans-2e"/>
       <use x="95.410156" xlink:href="#DejaVuSans-30"/>
      </g>
     </g>
    </g>
    <g id="xtick_2">
     <g id="line2d_2">
      <g>
       <use style="stroke:#000000;stroke-width:0.8;" x="185.181818" xlink:href="#mf577b370fc" y="504"/>
      </g>
     </g>
     <g id="text_2">
      <!-- 0.1 -->
      <g transform="translate(177.230256 518.598438)scale(0.1 -0.1)">
       <defs>
        <path d="M 794 531 
L 1825 531 
L 1825 4091 
L 703 3866 
L 703 4441 
L 1819 4666 
L 2450 4666 
L 2450 531 
L 3481 531 
L 3481 0 
L 794 0 
L 794 531 
z
" id="DejaVuSans-31" transform="scale(0.015625)"/>
       </defs>
       <use xlink:href="#DejaVuSans-30"/>
       <use x="63.623047" xlink:href="#DejaVuSans-2e"/>
       <use x="95.410156" xlink:href="#DejaVuSans-31"/>
      </g>
     </g>
    </g>
    <g id="xtick_3">
     <g id="line2d_3">
      <g>
       <use style="stroke:#000000;stroke-width:0.8;" x="228.22314" xlink:href="#mf577b370fc" y="504"/>
      </g>
     </g>
     <g id="text_3">
      <!-- 0.2 -->
      <g transform="translate(220.271578 518.598438)scale(0.1 -0.1)">
       <defs>
        <path d="M 1228 531 
L 3431 531 
L 3431 0 
L 469 0 
L 469 531 
Q 828 903 1448 1529 
Q 2069 2156 2228 2338 
Q 2531 2678 2651 2914 
Q 2772 3150 2772 3378 
Q 2772 3750 2511 3984 
Q 2250 4219 1831 4219 
Q 1534 4219 1204 4116 
Q 875 4013 500 3803 
L 500 4441 
Q 881 4594 1212 4672 
Q 1544 4750 1819 4750 
Q 2544 4750 2975 4387 
Q 3406 4025 3406 3419 
Q 3406 3131 3298 2873 
Q 3191 2616 2906 2266 
Q 2828 2175 2409 1742 
Q 1991 1309 1228 531 
z
" id="DejaVuSans-32" transform="scale(0.015625)"/>
       </defs>
       <use xlink:href="#DejaVuSans-30"/>
       <use x="63.623047" xlink:href="#DejaVuSans-2e"/>
       <use x="95.410156" xlink:href="#DejaVuSans-32"/>
      </g>
     </g>
    </g>
    <g id="xtick_4">
     <g id="line2d_4">
      <g>
       <use style="stroke:#000000;stroke-width:0.8;" x="271.264463" xlink:href="#mf577b370fc" y="504"/>
      </g>
     </g>
     <g id="text_4">
      <!-- 0.3 -->
      <g transform="translate(263.3129 518.598438)scale(0.1 -0.1)">
       <defs>
        <path d="M 2597 2516 
Q 3050 2419 3304 2112 
Q 3559 1806 3559 1356 
Q 3559 666 3084 287 
Q 2609 -91 1734 -91 
Q 1441 -91 1130 -33 
Q 819 25 488 141 
L 488 750 
Q 750 597 1062 519 
Q 1375 441 1716 441 
Q 2309 441 2620 675 
Q 2931 909 2931 1356 
Q 2931 1769 2642 2001 
Q 2353 2234 1838 2234 
L 1294 2234 
L 1294 2753 
L 1863 2753 
Q 2328 2753 2575 2939 
Q 2822 3125 2822 3475 
Q 2822 3834 2567 4026 
Q 2313 4219 1838 4219 
Q 1578 4219 1281 4162 
Q 984 4106 628 3988 
L 628 4550 
Q 988 4650 1302 4700 
Q 1616 4750 1894 4750 
Q 2613 4750 3031 4423 
Q 3450 4097 3450 3541 
Q 3450 3153 3228 2886 
Q 3006 2619 2597 2516 
z
" id="DejaVuSans-33" transform="scale(0.015625)"/>
       </defs>
       <use xlink:href="#DejaVuSans-30"/>
       <use x="63.623047" xlink:href="#DejaVuSans-2e"/>
       <use x="95.410156" xlink:href="#DejaVuSans-33"/>
      </g>
     </g>
    </g>
    <g id="xtick_5">
     <g id="line2d_5">
      <g>
       <use style="stroke:#000000;stroke-width:0.8;" x="314.305785" xlink:href="#mf577b370fc" y="504"/>
      </g>
     </g>
     <g id="text_5">
      <!-- 0.4 -->
      <g transform="translate(306.354223 518.598438)scale(0.1 -0.1)">
       <defs>
        <path d="M 2419 4116 
L 825 1625 
L 2419 1625 
L 2419 4116 
z
M 2253 4666 
L 3047 4666 
L 3047 1625 
L 3713 1625 
L 3713 1100 
L 3047 1100 
L 3047 0 
L 2419 0 
L 2419 1100 
L 313 1100 
L 313 1709 
L 2253 4666 
z
" id="DejaVuSans-34" transform="scale(0.015625)"/>
       </defs>
       <use xlink:href="#DejaVuSans-30"/>
       <use x="63.623047" xlink:href="#DejaVuSans-2e"/>
       <use x="95.410156" xlink:href="#DejaVuSans-34"/>
      </g>
     </g>
    </g>
    <g id="xtick_6">
     <g id="line2d_6">
      <g>
       <use style="stroke:#000000;stroke-width:0.8;" x="357.347107" xlink:href="#mf577b370fc" y="504"/>
      </g>
     </g>
     <g id="text_6">
      <!-- 0.5 -->
      <g transform="translate(349.395545 518.598438)scale(0.1 -0.1)">
       <defs>
        <path d="M 691 4666 
L 3169 4666 
L 3169 4134 
L 1269 4134 
L 1269 2991 
Q 1406 3038 1543 3061 
Q 1681 3084 1819 3084 
Q 2600 3084 3056 2656 
Q 3513 2228 3513 1497 
Q 3513 744 3044 326 
Q 2575 -91 1722 -91 
Q 1428 -91 1123 -41 
Q 819 9 494 109 
L 494 744 
Q 775 591 1075 516 
Q 1375 441 1709 441 
Q 2250 441 2565 725 
Q 2881 1009 2881 1497 
Q 2881 1984 2565 2268 
Q 2250 2553 1709 2553 
Q 1456 2553 1204 2497 
Q 953 2441 691 2322 
L 691 4666 
z
" id="DejaVuSans-35" transform="scale(0.015625)"/>
       </defs>
       <use xlink:href="#DejaVuSans-30"/>
       <use x="63.623047" xlink:href="#DejaVuSans-2e"/>
       <use x="95.410156" xlink:href="#DejaVuSans-35"/>
      </g>
     </g>
    </g>
    <g id="xtick_7">
     <g id="line2d_7">
      <g>
       <use style="stroke:#000000;stroke-width:0.8;" x="400.38843" xlink:href="#mf577b370fc" y="504"/>
      </g>
     </g>
     <g id="text_7">
      <!-- 0.6 -->
      <g transform="translate(392.436867 518.598438)scale(0.1 -0.1)">
       <defs>
        <path d="M 2113 2584 
Q 1688 2584 1439 2293 
Q 1191 2003 1191 1497 
Q 1191 994 1439 701 
Q 1688 409 2113 409 
Q 2538 409 2786 701 
Q 3034 994 3034 1497 
Q 3034 2003 2786 2293 
Q 2538 2584 2113 2584 
z
M 3366 4563 
L 3366 3988 
Q 3128 4100 2886 4159 
Q 2644 4219 2406 4219 
Q 1781 4219 1451 3797 
Q 1122 3375 1075 2522 
Q 1259 2794 1537 2939 
Q 1816 3084 2150 3084 
Q 2853 3084 3261 2657 
Q 3669 2231 3669 1497 
Q 3669 778 3244 343 
Q 2819 -91 2113 -91 
Q 1303 -91 875 529 
Q 447 1150 447 2328 
Q 447 3434 972 4092 
Q 1497 4750 2381 4750 
Q 2619 4750 2861 4703 
Q 3103 4656 3366 4563 
z
" id="DejaVuSans-36" transform="scale(0.015625)"/>
       </defs>
       <use xlink:href="#DejaVuSans-30"/>
       <use x="63.623047" xlink:href="#DejaVuSans-2e"/>
       <use x="95.410156" xlink:href="#DejaVuSans-36"/>
      </g>
     </g>
    </g>
    <g id="xtick_8">
     <g id="line2d_8">
      <g>
       <use style="stroke:#000000;stroke-width:0.8;" x="443.429752" xlink:href="#mf577b370fc" y="504"/>
      </g>
     </g>
     <g id="text_8">
      <!-- 0.7 -->
      <g transform="translate(435.47819 518.598438)scale(0.1 -0.1)">
       <defs>
        <path d="M 525 4666 
L 3525 4666 
L 3525 4397 
L 1831 0 
L 1172 0 
L 2766 4134 
L 525 4134 
L 525 4666 
z
" id="DejaVuSans-37" transform="scale(0.015625)"/>
       </defs>
       <use xlink:href="#DejaVuSans-30"/>
       <use x="63.623047" xlink:href="#DejaVuSans-2e"/>
       <use x="95.410156" xlink:href="#DejaVuSans-37"/>
      </g>
     </g>
    </g>
   </g>
   <g id="matplotlib.axis_2">
    <g id="ytick_1">
     <g id="line2d_9">
      <defs>
       <path d="M 0 0 
L -3.5 0 
" id="m2c9eacd9e9" style="stroke:#000000;stroke-width:0.8;"/>
      </defs>
      <g>
       <use style="stroke:#000000;stroke-width:0.8;" x="126" xlink:href="#m2c9eacd9e9" y="446.906139"/>
      </g>
     </g>
     <g id="text_9">
      <!-- 0.828 -->
      <g transform="translate(90.371875 450.705358)scale(0.1 -0.1)">
       <defs>
        <path d="M 2034 2216 
Q 1584 2216 1326 1975 
Q 1069 1734 1069 1313 
Q 1069 891 1326 650 
Q 1584 409 2034 409 
Q 2484 409 2743 651 
Q 3003 894 3003 1313 
Q 3003 1734 2745 1975 
Q 2488 2216 2034 2216 
z
M 1403 2484 
Q 997 2584 770 2862 
Q 544 3141 544 3541 
Q 544 4100 942 4425 
Q 1341 4750 2034 4750 
Q 2731 4750 3128 4425 
Q 3525 4100 3525 3541 
Q 3525 3141 3298 2862 
Q 3072 2584 2669 2484 
Q 3125 2378 3379 2068 
Q 3634 1759 3634 1313 
Q 3634 634 3220 271 
Q 2806 -91 2034 -91 
Q 1263 -91 848 271 
Q 434 634 434 1313 
Q 434 1759 690 2068 
Q 947 2378 1403 2484 
z
M 1172 3481 
Q 1172 3119 1398 2916 
Q 1625 2713 2034 2713 
Q 2441 2713 2670 2916 
Q 2900 3119 2900 3481 
Q 2900 3844 2670 4047 
Q 2441 4250 2034 4250 
Q 1625 4250 1398 4047 
Q 1172 3844 1172 3481 
z
" id="DejaVuSans-38" transform="scale(0.015625)"/>
       </defs>
       <use xlink:href="#DejaVuSans-30"/>
       <use x="63.623047" xlink:href="#DejaVuSans-2e"/>
       <use x="95.410156" xlink:href="#DejaVuSans-38"/>
       <use x="159.033203" xlink:href="#DejaVuSans-32"/>
       <use x="222.65625" xlink:href="#DejaVuSans-38"/>
      </g>
     </g>
    </g>
    <g id="ytick_2">
     <g id="line2d_10">
      <g>
       <use style="stroke:#000000;stroke-width:0.8;" x="126" xlink:href="#m2c9eacd9e9" y="361.167143"/>
      </g>
     </g>
     <g id="text_10">
      <!-- 0.830 -->
      <g transform="translate(90.371875 364.966362)scale(0.1 -0.1)">
       <use xlink:href="#DejaVuSans-30"/>
       <use x="63.623047" xlink:href="#DejaVuSans-2e"/>
       <use x="95.410156" xlink:href="#DejaVuSans-38"/>
       <use x="159.033203" xlink:href="#DejaVuSans-33"/>
       <use x="222.65625" xlink:href="#DejaVuSans-30"/>
      </g>
     </g>
    </g>
    <g id="ytick_3">
     <g id="line2d_11">
      <g>
       <use style="stroke:#000000;stroke-width:0.8;" x="126" xlink:href="#m2c9eacd9e9" y="275.428146"/>
      </g>
     </g>
     <g id="text_11">
      <!-- 0.832 -->
      <g transform="translate(90.371875 279.227365)scale(0.1 -0.1)">
       <use xlink:href="#DejaVuSans-30"/>
       <use x="63.623047" xlink:href="#DejaVuSans-2e"/>
       <use x="95.410156" xlink:href="#DejaVuSans-38"/>
       <use x="159.033203" xlink:href="#DejaVuSans-33"/>
       <use x="222.65625" xlink:href="#DejaVuSans-32"/>
      </g>
     </g>
    </g>
    <g id="ytick_4">
     <g id="line2d_12">
      <g>
       <use style="stroke:#000000;stroke-width:0.8;" x="126" xlink:href="#m2c9eacd9e9" y="189.68915"/>
      </g>
     </g>
     <g id="text_12">
      <!-- 0.834 -->
      <g transform="translate(90.371875 193.488369)scale(0.1 -0.1)">
       <use xlink:href="#DejaVuSans-30"/>
       <use x="63.623047" xlink:href="#DejaVuSans-2e"/>
       <use x="95.410156" xlink:href="#DejaVuSans-38"/>
       <use x="159.033203" xlink:href="#DejaVuSans-33"/>
       <use x="222.65625" xlink:href="#DejaVuSans-34"/>
      </g>
     </g>
    </g>
    <g id="ytick_5">
     <g id="line2d_13">
      <g>
       <use style="stroke:#000000;stroke-width:0.8;" x="126" xlink:href="#m2c9eacd9e9" y="103.950154"/>
      </g>
     </g>
     <g id="text_13">
      <!-- 0.836 -->
      <g transform="translate(90.371875 107.749372)scale(0.1 -0.1)">
       <use xlink:href="#DejaVuSans-30"/>
       <use x="63.623047" xlink:href="#DejaVuSans-2e"/>
       <use x="95.410156" xlink:href="#DejaVuSans-38"/>
       <use x="159.033203" xlink:href="#DejaVuSans-33"/>
       <use x="222.65625" xlink:href="#DejaVuSans-36"/>
      </g>
     </g>
    </g>
   </g>
   <g id="line2d_14">
    <path clip-path="url(#p93532e0559)" d="M 142.140496 275.485078 
L 142.570909 276.62371 
L 143.001322 244.172696 
L 143.431736 214.568261 
L 143.862149 222.538686 
L 144.292562 254.135726 
L 144.722975 321.599678 
L 145.153388 266.660679 
L 145.583802 227.947188 
L 146.014215 253.56641 
L 146.444628 199.196728 
L 146.875041 224.531292 
L 147.305455 236.202271 
L 147.735868 247.303934 
L 148.166281 261.536835 
L 148.596694 248.727224 
L 149.027107 261.821493 
L 149.457521 255.274358 
L 149.887934 230.793769 
L 150.318347 258.690255 
L 150.74876 228.801162 
L 155.052893 237.910219 
L 159.357025 239.333509 
L 163.661157 218.553474 
L 167.965289 238.764193 
L 172.269421 283.455503 
L 176.573554 237.056245 
L 180.877686 210.298391 
L 185.181818 252.997094 
L 206.702479 241.041457 
L 228.22314 262.675467 
L 249.743802 332.701341 
L 271.264463 309.074725 
L 292.785124 274.061788 
L 314.305785 343.518346 
L 335.826446 307.366777 
L 357.347107 347.788216 
L 378.867769 269.50726 
L 400.38843 344.656978 
L 421.909091 320.745704 
L 443.429752 303.381564 
L 464.950413 346.080268 
" style="fill:none;stroke:#1f77b4;stroke-linecap:square;stroke-width:1.5;"/>
    <defs>
     <path d="M 0 3 
C 0.795609 3 1.55874 2.683901 2.12132 2.12132 
C 2.683901 1.55874 3 0.795609 3 0 
C 3 -0.795609 2.683901 -1.55874 2.12132 -2.12132 
C 1.55874 -2.683901 0.795609 -3 0 -3 
C -0.795609 -3 -1.55874 -2.683901 -2.12132 -2.12132 
C -2.683901 -1.55874 -3 -0.795609 -3 0 
C -3 0.795609 -2.683901 1.55874 -2.12132 2.12132 
C -1.55874 2.683901 -0.795609 3 0 3 
z
" id="m142edcbb34" style="stroke:#1f77b4;"/>
    </defs>
    <g clip-path="url(#p93532e0559)">
     <use style="fill:#1f77b4;stroke:#1f77b4;" x="142.140496" xlink:href="#m142edcbb34" y="275.485078"/>
     <use style="fill:#1f77b4;stroke:#1f77b4;" x="142.570909" xlink:href="#m142edcbb34" y="276.62371"/>
     <use style="fill:#1f77b4;stroke:#1f77b4;" x="143.001322" xlink:href="#m142edcbb34" y="244.172696"/>
     <use style="fill:#1f77b4;stroke:#1f77b4;" x="143.431736" xlink:href="#m142edcbb34" y="214.568261"/>
     <use style="fill:#1f77b4;stroke:#1f77b4;" x="143.862149" xlink:href="#m142edcbb34" y="222.538686"/>
     <use style="fill:#1f77b4;stroke:#1f77b4;" x="144.292562" xlink:href="#m142edcbb34" y="254.135726"/>
     <use style="fill:#1f77b4;stroke:#1f77b4;" x="144.722975" xlink:href="#m142edcbb34" y="321.599678"/>
     <use style="fill:#1f77b4;stroke:#1f77b4;" x="145.153388" xlink:href="#m142edcbb34" y="266.660679"/>
     <use style="fill:#1f77b4;stroke:#1f77b4;" x="145.583802" xlink:href="#m142edcbb34" y="227.947188"/>
     <use style="fill:#1f77b4;stroke:#1f77b4;" x="146.014215" xlink:href="#m142edcbb34" y="253.56641"/>
     <use style="fill:#1f77b4;stroke:#1f77b4;" x="146.444628" xlink:href="#m142edcbb34" y="199.196728"/>
     <use style="fill:#1f77b4;stroke:#1f77b4;" x="146.875041" xlink:href="#m142edcbb34" y="224.531292"/>
     <use style="fill:#1f77b4;stroke:#1f77b4;" x="147.305455" xlink:href="#m142edcbb34" y="236.202271"/>
     <use style="fill:#1f77b4;stroke:#1f77b4;" x="147.735868" xlink:href="#m142edcbb34" y="247.303934"/>
     <use style="fill:#1f77b4;stroke:#1f77b4;" x="148.166281" xlink:href="#m142edcbb34" y="261.536835"/>
     <use style="fill:#1f77b4;stroke:#1f77b4;" x="148.596694" xlink:href="#m142edcbb34" y="248.727224"/>
     <use style="fill:#1f77b4;stroke:#1f77b4;" x="149.027107" xlink:href="#m142edcbb34" y="261.821493"/>
     <use style="fill:#1f77b4;stroke:#1f77b4;" x="149.457521" xlink:href="#m142edcbb34" y="255.274358"/>
     <use style="fill:#1f77b4;stroke:#1f77b4;" x="149.887934" xlink:href="#m142edcbb34" y="230.793769"/>
     <use style="fill:#1f77b4;stroke:#1f77b4;" x="150.318347" xlink:href="#m142edcbb34" y="258.690255"/>
     <use style="fill:#1f77b4;stroke:#1f77b4;" x="150.74876" xlink:href="#m142edcbb34" y="228.801162"/>
     <use style="fill:#1f77b4;stroke:#1f77b4;" x="155.052893" xlink:href="#m142edcbb34" y="237.910219"/>
     <use style="fill:#1f77b4;stroke:#1f77b4;" x="159.357025" xlink:href="#m142edcbb34" y="239.333509"/>
     <use style="fill:#1f77b4;stroke:#1f77b4;" x="163.661157" xlink:href="#m142edcbb34" y="218.553474"/>
     <use style="fill:#1f77b4;stroke:#1f77b4;" x="167.965289" xlink:href="#m142edcbb34" y="238.764193"/>
     <use style="fill:#1f77b4;stroke:#1f77b4;" x="172.269421" xlink:href="#m142edcbb34" y="283.455503"/>
     <use style="fill:#1f77b4;stroke:#1f77b4;" x="176.573554" xlink:href="#m142edcbb34" y="237.056245"/>
     <use style="fill:#1f77b4;stroke:#1f77b4;" x="180.877686" xlink:href="#m142edcbb34" y="210.298391"/>
     <use style="fill:#1f77b4;stroke:#1f77b4;" x="185.181818" xlink:href="#m142edcbb34" y="252.997094"/>
     <use style="fill:#1f77b4;stroke:#1f77b4;" x="206.702479" xlink:href="#m142edcbb34" y="241.041457"/>
     <use style="fill:#1f77b4;stroke:#1f77b4;" x="228.22314" xlink:href="#m142edcbb34" y="262.675467"/>
     <use style="fill:#1f77b4;stroke:#1f77b4;" x="249.743802" xlink:href="#m142edcbb34" y="332.701341"/>
     <use style="fill:#1f77b4;stroke:#1f77b4;" x="271.264463" xlink:href="#m142edcbb34" y="309.074725"/>
     <use style="fill:#1f77b4;stroke:#1f77b4;" x="292.785124" xlink:href="#m142edcbb34" y="274.061788"/>
     <use style="fill:#1f77b4;stroke:#1f77b4;" x="314.305785" xlink:href="#m142edcbb34" y="343.518346"/>
     <use style="fill:#1f77b4;stroke:#1f77b4;" x="335.826446" xlink:href="#m142edcbb34" y="307.366777"/>
     <use style="fill:#1f77b4;stroke:#1f77b4;" x="357.347107" xlink:href="#m142edcbb34" y="347.788216"/>
     <use style="fill:#1f77b4;stroke:#1f77b4;" x="378.867769" xlink:href="#m142edcbb34" y="269.50726"/>
     <use style="fill:#1f77b4;stroke:#1f77b4;" x="400.38843" xlink:href="#m142edcbb34" y="344.656978"/>
     <use style="fill:#1f77b4;stroke:#1f77b4;" x="421.909091" xlink:href="#m142edcbb34" y="320.745704"/>
     <use style="fill:#1f77b4;stroke:#1f77b4;" x="443.429752" xlink:href="#m142edcbb34" y="303.381564"/>
     <use style="fill:#1f77b4;stroke:#1f77b4;" x="464.950413" xlink:href="#m142edcbb34" y="346.080268"/>
    </g>
   </g>
   <g id="patch_3">
    <path d="M 126 504 
L 126 69.12 
" style="fill:none;stroke:#000000;stroke-linecap:square;stroke-linejoin:miter;stroke-width:0.8;"/>
   </g>
   <g id="patch_4">
    <path d="M 481.090909 504 
L 481.090909 69.12 
" style="fill:none;stroke:#000000;stroke-linecap:square;stroke-linejoin:miter;stroke-width:0.8;"/>
   </g>
   <g id="patch_5">
    <path d="M 126 504 
L 481.090909 504 
" style="fill:none;stroke:#000000;stroke-linecap:square;stroke-linejoin:miter;stroke-width:0.8;"/>
   </g>
   <g id="patch_6">
    <path d="M 126 69.12 
L 481.090909 69.12 
" style="fill:none;stroke:#000000;stroke-linecap:square;stroke-linejoin:miter;stroke-width:0.8;"/>
   </g>
   <g id="legend_1">
    <g id="patch_7">
     <path d="M 318.390909 499 
L 474.090909 499 
Q 476.090909 499 476.090909 497 
L 476.090909 468.623438 
Q 476.090909 466.623438 474.090909 466.623438 
L 318.390909 466.623438 
Q 316.390909 466.623438 316.390909 468.623438 
L 316.390909 497 
Q 316.390909 499 318.390909 499 
z
" style="fill:#ffffff;opacity:0.8;stroke:#cccccc;stroke-linejoin:miter;"/>
    </g>
    <g id="line2d_15">
     <path d="M 320.390909 474.721875 
L 340.390909 474.721875 
" style="fill:none;stroke:#1f77b4;stroke-linecap:square;stroke-width:1.5;"/>
    </g>
    <g id="line2d_16">
     <g>
      <use style="fill:#1f77b4;stroke:#1f77b4;" x="330.390909" xlink:href="#m142edcbb34" y="474.721875"/>
     </g>
    </g>
    <g id="text_14">
     <!-- Accuracy -->
     <g transform="translate(348.390909 478.221875)scale(0.1 -0.1)">
      <defs>
       <path d="M 2188 4044 
L 1331 1722 
L 3047 1722 
L 2188 4044 
z
M 1831 4666 
L 2547 4666 
L 4325 0 
L 3669 0 
L 3244 1197 
L 1141 1197 
L 716 0 
L 50 0 
L 1831 4666 
z
" id="DejaVuSans-41" transform="scale(0.015625)"/>
       <path d="M 3122 3366 
L 3122 2828 
Q 2878 2963 2633 3030 
Q 2388 3097 2138 3097 
Q 1578 3097 1268 2742 
Q 959 2388 959 1747 
Q 959 1106 1268 751 
Q 1578 397 2138 397 
Q 2388 397 2633 464 
Q 2878 531 3122 666 
L 3122 134 
Q 2881 22 2623 -34 
Q 2366 -91 2075 -91 
Q 1284 -91 818 406 
Q 353 903 353 1747 
Q 353 2603 823 3093 
Q 1294 3584 2113 3584 
Q 2378 3584 2631 3529 
Q 2884 3475 3122 3366 
z
" id="DejaVuSans-63" transform="scale(0.015625)"/>
       <path d="M 544 1381 
L 544 3500 
L 1119 3500 
L 1119 1403 
Q 1119 906 1312 657 
Q 1506 409 1894 409 
Q 2359 409 2629 706 
Q 2900 1003 2900 1516 
L 2900 3500 
L 3475 3500 
L 3475 0 
L 2900 0 
L 2900 538 
Q 2691 219 2414 64 
Q 2138 -91 1772 -91 
Q 1169 -91 856 284 
Q 544 659 544 1381 
z
M 1991 3584 
L 1991 3584 
z
" id="DejaVuSans-75" transform="scale(0.015625)"/>
       <path d="M 2631 2963 
Q 2534 3019 2420 3045 
Q 2306 3072 2169 3072 
Q 1681 3072 1420 2755 
Q 1159 2438 1159 1844 
L 1159 0 
L 581 0 
L 581 3500 
L 1159 3500 
L 1159 2956 
Q 1341 3275 1631 3429 
Q 1922 3584 2338 3584 
Q 2397 3584 2469 3576 
Q 2541 3569 2628 3553 
L 2631 2963 
z
" id="DejaVuSans-72" transform="scale(0.015625)"/>
       <path d="M 2194 1759 
Q 1497 1759 1228 1600 
Q 959 1441 959 1056 
Q 959 750 1161 570 
Q 1363 391 1709 391 
Q 2188 391 2477 730 
Q 2766 1069 2766 1631 
L 2766 1759 
L 2194 1759 
z
M 3341 1997 
L 3341 0 
L 2766 0 
L 2766 531 
Q 2569 213 2275 61 
Q 1981 -91 1556 -91 
Q 1019 -91 701 211 
Q 384 513 384 1019 
Q 384 1609 779 1909 
Q 1175 2209 1959 2209 
L 2766 2209 
L 2766 2266 
Q 2766 2663 2505 2880 
Q 2244 3097 1772 3097 
Q 1472 3097 1187 3025 
Q 903 2953 641 2809 
L 641 3341 
Q 956 3463 1253 3523 
Q 1550 3584 1831 3584 
Q 2591 3584 2966 3190 
Q 3341 2797 3341 1997 
z
" id="DejaVuSans-61" transform="scale(0.015625)"/>
       <path d="M 2059 -325 
Q 1816 -950 1584 -1140 
Q 1353 -1331 966 -1331 
L 506 -1331 
L 506 -850 
L 844 -850 
Q 1081 -850 1212 -737 
Q 1344 -625 1503 -206 
L 1606 56 
L 191 3500 
L 800 3500 
L 1894 763 
L 2988 3500 
L 3597 3500 
L 2059 -325 
z
" id="DejaVuSans-79" transform="scale(0.015625)"/>
      </defs>
      <use xlink:href="#DejaVuSans-41"/>
      <use x="66.658203" xlink:href="#DejaVuSans-63"/>
      <use x="121.638672" xlink:href="#DejaVuSans-63"/>
      <use x="176.619141" xlink:href="#DejaVuSans-75"/>
      <use x="239.998047" xlink:href="#DejaVuSans-72"/>
      <use x="281.111328" xlink:href="#DejaVuSans-61"/>
      <use x="342.390625" xlink:href="#DejaVuSans-63"/>
      <use x="397.371094" xlink:href="#DejaVuSans-79"/>
     </g>
    </g>
    <g id="patch_8">
     <path d="M 320.390909 492.9 
L 340.390909 492.9 
L 340.390909 485.9 
L 320.390909 485.9 
z
" style="fill:#1f77b4;fill-opacity:0.5;stroke:#1f77b4;stroke-linejoin:miter;stroke-opacity:0.5;"/>
    </g>
    <g id="text_15">
     <!-- Accuracy $\pm$ SD Accuracy -->
     <g transform="translate(348.390909 492.9)scale(0.1 -0.1)">
      <defs>
       <path id="DejaVuSans-20" transform="scale(0.015625)"/>
       <path d="M 2944 4013 
L 2944 2803 
L 4684 2803 
L 4684 2272 
L 2944 2272 
L 2944 1063 
L 2419 1063 
L 2419 2272 
L 678 2272 
L 678 2803 
L 2419 2803 
L 2419 4013 
L 2944 4013 
z
M 678 531 
L 4684 531 
L 4684 0 
L 678 0 
L 678 531 
z
" id="DejaVuSans-b1" transform="scale(0.015625)"/>
       <path d="M 3425 4513 
L 3425 3897 
Q 3066 4069 2747 4153 
Q 2428 4238 2131 4238 
Q 1616 4238 1336 4038 
Q 1056 3838 1056 3469 
Q 1056 3159 1242 3001 
Q 1428 2844 1947 2747 
L 2328 2669 
Q 3034 2534 3370 2195 
Q 3706 1856 3706 1288 
Q 3706 609 3251 259 
Q 2797 -91 1919 -91 
Q 1588 -91 1214 -16 
Q 841 59 441 206 
L 441 856 
Q 825 641 1194 531 
Q 1563 422 1919 422 
Q 2459 422 2753 634 
Q 3047 847 3047 1241 
Q 3047 1584 2836 1778 
Q 2625 1972 2144 2069 
L 1759 2144 
Q 1053 2284 737 2584 
Q 422 2884 422 3419 
Q 422 4038 858 4394 
Q 1294 4750 2059 4750 
Q 2388 4750 2728 4690 
Q 3069 4631 3425 4513 
z
" id="DejaVuSans-53" transform="scale(0.015625)"/>
       <path d="M 1259 4147 
L 1259 519 
L 2022 519 
Q 2988 519 3436 956 
Q 3884 1394 3884 2338 
Q 3884 3275 3436 3711 
Q 2988 4147 2022 4147 
L 1259 4147 
z
M 628 4666 
L 1925 4666 
Q 3281 4666 3915 4102 
Q 4550 3538 4550 2338 
Q 4550 1131 3912 565 
Q 3275 0 1925 0 
L 628 0 
L 628 4666 
z
" id="DejaVuSans-44" transform="scale(0.015625)"/>
      </defs>
      <use transform="translate(0 0.78125)" xlink:href="#DejaVuSans-41"/>
      <use transform="translate(68.408203 0.78125)" xlink:href="#DejaVuSans-63"/>
      <use transform="translate(123.388672 0.78125)" xlink:href="#DejaVuSans-63"/>
      <use transform="translate(178.369141 0.78125)" xlink:href="#DejaVuSans-75"/>
      <use transform="translate(241.748047 0.78125)" xlink:href="#DejaVuSans-72"/>
      <use transform="translate(282.861328 0.78125)" xlink:href="#DejaVuSans-61"/>
      <use transform="translate(344.140625 0.78125)" xlink:href="#DejaVuSans-63"/>
      <use transform="translate(399.121094 0.78125)" xlink:href="#DejaVuSans-79"/>
      <use transform="translate(458.300781 0.78125)" xlink:href="#DejaVuSans-20"/>
      <use transform="translate(490.087891 0.78125)" xlink:href="#DejaVuSans-b1"/>
      <use transform="translate(573.876953 0.78125)" xlink:href="#DejaVuSans-20"/>
      <use transform="translate(605.664062 0.78125)" xlink:href="#DejaVuSans-53"/>
      <use transform="translate(669.140625 0.78125)" xlink:href="#DejaVuSans-44"/>
      <use transform="translate(746.142578 0.78125)" xlink:href="#DejaVuSans-20"/>
      <use transform="translate(777.929688 0.78125)" xlink:href="#DejaVuSans-41"/>
      <use transform="translate(846.337891 0.78125)" xlink:href="#DejaVuSans-63"/>
      <use transform="translate(901.318359 0.78125)" xlink:href="#DejaVuSans-63"/>
      <use transform="translate(956.298828 0.78125)" xlink:href="#DejaVuSans-75"/>
      <use transform="translate(1019.677734 0.78125)" xlink:href="#DejaVuSans-72"/>
      <use transform="translate(1060.791016 0.78125)" xlink:href="#DejaVuSans-61"/>
      <use transform="translate(1122.070312 0.78125)" xlink:href="#DejaVuSans-63"/>
      <use transform="translate(1177.050781 0.78125)" xlink:href="#DejaVuSans-79"/>
     </g>
    </g>
   </g>
  </g>
  <g id="axes_2">
   <g id="patch_9">
    <path d="M 552.109091 504 
L 907.2 504 
L 907.2 69.12 
L 552.109091 69.12 
z
" style="fill:#ffffff;"/>
   </g>
   <g id="PolyCollection_2">
    <defs>
     <path d="M 568.249587 -423.813822 
L 568.249587 -190.487747 
L 568.68 -173.603173 
L 569.110413 -145.190246 
L 569.540826 -264.220084 
L 569.97124 -184.467622 
L 570.401653 -196.168433 
L 570.832066 -97.762537 
L 571.262479 -152.777729 
L 571.692893 -267.303834 
L 572.123306 -143.697525 
L 572.553719 -264.325292 
L 572.984132 -204.005393 
L 573.414545 -278.804408 
L 573.844959 -175.254822 
L 574.275372 -209.129461 
L 574.705785 -223.99844 
L 575.136198 -162.877002 
L 575.566612 -232.674867 
L 575.997025 -197.824757 
L 576.427438 -194.888609 
L 576.857851 -166.882183 
L 581.161983 -163.492147 
L 585.466116 -192.30906 
L 589.770248 -217.277436 
L 594.07438 -205.777792 
L 598.378512 -153.689226 
L 602.682645 -178.772433 
L 606.986777 -203.656722 
L 611.290909 -208.146065 
L 632.81157 -214.629951 
L 654.332231 -148.069099 
L 675.852893 -91.767273 
L 697.373554 -129.09857 
L 718.894215 -152.162338 
L 740.414876 -116.183322 
L 761.935537 -93.965931 
L 783.456198 -119.186987 
L 804.97686 -155.412338 
L 826.497521 -196.011694 
L 848.018182 -109.103739 
L 869.538843 -142.358014 
L 891.059504 -98.632944 
L 891.059504 -295.613559 
L 891.059504 -295.613559 
L 869.538843 -328.186432 
L 848.018182 -301.458644 
L 826.497521 -291.504796 
L 804.97686 -294.451904 
L 783.456198 -289.425519 
L 761.935537 -331.516876 
L 740.414876 -314.64526 
L 718.894215 -322.306989 
L 697.373554 -380.288027 
L 675.852893 -281.970976 
L 654.332231 -332.159388 
L 632.81157 -367.057226 
L 611.290909 -324.797886 
L 606.986777 -367.353276 
L 602.682645 -372.672301 
L 598.378512 -307.756927 
L 594.07438 -324.58938 
L 589.770248 -370.852878 
L 585.466116 -379.564 
L 581.161983 -394.774471 
L 576.857851 -429.519551 
L 576.427438 -339.610447 
L 575.997025 -395.737671 
L 575.566612 -384.732258 
L 575.136198 -322.911192 
L 574.705785 -400.719227 
L 574.275372 -320.059595 
L 573.844959 -387.705648 
L 573.414545 -403.153002 
L 572.984132 -350.932433 
L 572.553719 -487.112727 
L 572.123306 -272.184681 
L 571.692893 -406.714787 
L 571.262479 -391.749684 
L 570.832066 -359.800404 
L 570.401653 -389.311173 
L 569.97124 -315.438524 
L 569.540826 -418.260314 
L 569.110413 -344.996185 
L 568.68 -303.51614 
L 568.249587 -423.813822 
z
" id="m52bccdd73d" style="stroke:#1f77b4;stroke-opacity:0.5;"/>
    </defs>
    <g clip-path="url(#p97c603b1be)">
     <use style="fill:#1f77b4;fill-opacity:0.5;stroke:#1f77b4;stroke-opacity:0.5;" x="0" xlink:href="#m52bccdd73d" y="576"/>
    </g>
   </g>
   <g id="matplotlib.axis_3">
    <g id="xtick_9">
     <g id="line2d_17">
      <g>
       <use style="stroke:#000000;stroke-width:0.8;" x="568.249587" xlink:href="#mf577b370fc" y="504"/>
      </g>
     </g>
     <g id="text_16">
      <!-- 0.0 -->
      <g transform="translate(560.298024 518.598438)scale(0.1 -0.1)">
       <use xlink:href="#DejaVuSans-30"/>
       <use x="63.623047" xlink:href="#DejaVuSans-2e"/>
       <use x="95.410156" xlink:href="#DejaVuSans-30"/>
      </g>
     </g>
    </g>
    <g id="xtick_10">
     <g id="line2d_18">
      <g>
       <use style="stroke:#000000;stroke-width:0.8;" x="611.290909" xlink:href="#mf577b370fc" y="504"/>
      </g>
     </g>
     <g id="text_17">
      <!-- 0.1 -->
      <g transform="translate(603.339347 518.598438)scale(0.1 -0.1)">
       <use xlink:href="#DejaVuSans-30"/>
       <use x="63.623047" xlink:href="#DejaVuSans-2e"/>
       <use x="95.410156" xlink:href="#DejaVuSans-31"/>
      </g>
     </g>
    </g>
    <g id="xtick_11">
     <g id="line2d_19">
      <g>
       <use style="stroke:#000000;stroke-width:0.8;" x="654.332231" xlink:href="#mf577b370fc" y="504"/>
      </g>
     </g>
     <g id="text_18">
      <!-- 0.2 -->
      <g transform="translate(646.380669 518.598438)scale(0.1 -0.1)">
       <use xlink:href="#DejaVuSans-30"/>
       <use x="63.623047" xlink:href="#DejaVuSans-2e"/>
       <use x="95.410156" xlink:href="#DejaVuSans-32"/>
      </g>
     </g>
    </g>
    <g id="xtick_12">
     <g id="line2d_20">
      <g>
       <use style="stroke:#000000;stroke-width:0.8;" x="697.373554" xlink:href="#mf577b370fc" y="504"/>
      </g>
     </g>
     <g id="text_19">
      <!-- 0.3 -->
      <g transform="translate(689.421991 518.598438)scale(0.1 -0.1)">
       <use xlink:href="#DejaVuSans-30"/>
       <use x="63.623047" xlink:href="#DejaVuSans-2e"/>
       <use x="95.410156" xlink:href="#DejaVuSans-33"/>
      </g>
     </g>
    </g>
    <g id="xtick_13">
     <g id="line2d_21">
      <g>
       <use style="stroke:#000000;stroke-width:0.8;" x="740.414876" xlink:href="#mf577b370fc" y="504"/>
      </g>
     </g>
     <g id="text_20">
      <!-- 0.4 -->
      <g transform="translate(732.463314 518.598438)scale(0.1 -0.1)">
       <use xlink:href="#DejaVuSans-30"/>
       <use x="63.623047" xlink:href="#DejaVuSans-2e"/>
       <use x="95.410156" xlink:href="#DejaVuSans-34"/>
      </g>
     </g>
    </g>
    <g id="xtick_14">
     <g id="line2d_22">
      <g>
       <use style="stroke:#000000;stroke-width:0.8;" x="783.456198" xlink:href="#mf577b370fc" y="504"/>
      </g>
     </g>
     <g id="text_21">
      <!-- 0.5 -->
      <g transform="translate(775.504636 518.598438)scale(0.1 -0.1)">
       <use xlink:href="#DejaVuSans-30"/>
       <use x="63.623047" xlink:href="#DejaVuSans-2e"/>
       <use x="95.410156" xlink:href="#DejaVuSans-35"/>
      </g>
     </g>
    </g>
    <g id="xtick_15">
     <g id="line2d_23">
      <g>
       <use style="stroke:#000000;stroke-width:0.8;" x="826.497521" xlink:href="#mf577b370fc" y="504"/>
      </g>
     </g>
     <g id="text_22">
      <!-- 0.6 -->
      <g transform="translate(818.545958 518.598438)scale(0.1 -0.1)">
       <use xlink:href="#DejaVuSans-30"/>
       <use x="63.623047" xlink:href="#DejaVuSans-2e"/>
       <use x="95.410156" xlink:href="#DejaVuSans-36"/>
      </g>
     </g>
    </g>
    <g id="xtick_16">
     <g id="line2d_24">
      <g>
       <use style="stroke:#000000;stroke-width:0.8;" x="869.538843" xlink:href="#mf577b370fc" y="504"/>
      </g>
     </g>
     <g id="text_23">
      <!-- 0.7 -->
      <g transform="translate(861.58728 518.598438)scale(0.1 -0.1)">
       <use xlink:href="#DejaVuSans-30"/>
       <use x="63.623047" xlink:href="#DejaVuSans-2e"/>
       <use x="95.410156" xlink:href="#DejaVuSans-37"/>
      </g>
     </g>
    </g>
   </g>
   <g id="matplotlib.axis_4">
    <g id="ytick_6">
     <g id="line2d_25">
      <g>
       <use style="stroke:#000000;stroke-width:0.8;" x="552.109091" xlink:href="#m2c9eacd9e9" y="420.590829"/>
      </g>
     </g>
     <g id="text_24">
      <!-- 0.878 -->
      <g transform="translate(516.480966 424.390048)scale(0.1 -0.1)">
       <use xlink:href="#DejaVuSans-30"/>
       <use x="63.623047" xlink:href="#DejaVuSans-2e"/>
       <use x="95.410156" xlink:href="#DejaVuSans-38"/>
       <use x="159.033203" xlink:href="#DejaVuSans-37"/>
       <use x="222.65625" xlink:href="#DejaVuSans-38"/>
      </g>
     </g>
    </g>
    <g id="ytick_7">
     <g id="line2d_26">
      <g>
       <use style="stroke:#000000;stroke-width:0.8;" x="552.109091" xlink:href="#m2c9eacd9e9" y="333.670404"/>
      </g>
     </g>
     <g id="text_25">
      <!-- 0.880 -->
      <g transform="translate(516.480966 337.469623)scale(0.1 -0.1)">
       <use xlink:href="#DejaVuSans-30"/>
       <use x="63.623047" xlink:href="#DejaVuSans-2e"/>
       <use x="95.410156" xlink:href="#DejaVuSans-38"/>
       <use x="159.033203" xlink:href="#DejaVuSans-38"/>
       <use x="222.65625" xlink:href="#DejaVuSans-30"/>
      </g>
     </g>
    </g>
    <g id="ytick_8">
     <g id="line2d_27">
      <g>
       <use style="stroke:#000000;stroke-width:0.8;" x="552.109091" xlink:href="#m2c9eacd9e9" y="246.749979"/>
      </g>
     </g>
     <g id="text_26">
      <!-- 0.882 -->
      <g transform="translate(516.480966 250.549198)scale(0.1 -0.1)">
       <use xlink:href="#DejaVuSans-30"/>
       <use x="63.623047" xlink:href="#DejaVuSans-2e"/>
       <use x="95.410156" xlink:href="#DejaVuSans-38"/>
       <use x="159.033203" xlink:href="#DejaVuSans-38"/>
       <use x="222.65625" xlink:href="#DejaVuSans-32"/>
      </g>
     </g>
    </g>
    <g id="ytick_9">
     <g id="line2d_28">
      <g>
       <use style="stroke:#000000;stroke-width:0.8;" x="552.109091" xlink:href="#m2c9eacd9e9" y="159.829554"/>
      </g>
     </g>
     <g id="text_27">
      <!-- 0.884 -->
      <g transform="translate(516.480966 163.628773)scale(0.1 -0.1)">
       <use xlink:href="#DejaVuSans-30"/>
       <use x="63.623047" xlink:href="#DejaVuSans-2e"/>
       <use x="95.410156" xlink:href="#DejaVuSans-38"/>
       <use x="159.033203" xlink:href="#DejaVuSans-38"/>
       <use x="222.65625" xlink:href="#DejaVuSans-34"/>
      </g>
     </g>
    </g>
    <g id="ytick_10">
     <g id="line2d_29">
      <g>
       <use style="stroke:#000000;stroke-width:0.8;" x="552.109091" xlink:href="#m2c9eacd9e9" y="72.909129"/>
      </g>
     </g>
     <g id="text_28">
      <!-- 0.886 -->
      <g transform="translate(516.480966 76.708348)scale(0.1 -0.1)">
       <use xlink:href="#DejaVuSans-30"/>
       <use x="63.623047" xlink:href="#DejaVuSans-2e"/>
       <use x="95.410156" xlink:href="#DejaVuSans-38"/>
       <use x="159.033203" xlink:href="#DejaVuSans-38"/>
       <use x="222.65625" xlink:href="#DejaVuSans-36"/>
      </g>
     </g>
    </g>
   </g>
   <g id="line2d_30">
    <path clip-path="url(#p97c603b1be)" d="M 568.249587 268.849216 
L 568.68 337.440344 
L 569.110413 330.906784 
L 569.540826 234.759801 
L 569.97124 326.046927 
L 570.401653 283.260197 
L 570.832066 347.21853 
L 571.262479 303.736293 
L 571.692893 238.990689 
L 572.123306 368.058897 
L 572.553719 200.28099 
L 572.984132 298.531087 
L 573.414545 235.021295 
L 573.844959 294.519765 
L 574.275372 311.405472 
L 574.705785 263.641166 
L 575.136198 333.105903 
L 575.566612 267.296438 
L 575.997025 279.218786 
L 576.427438 308.750472 
L 576.857851 277.799133 
L 581.161983 296.866691 
L 585.466116 290.06347 
L 589.770248 281.934843 
L 594.07438 310.816414 
L 598.378512 345.276924 
L 602.682645 300.277633 
L 606.986777 290.495001 
L 611.290909 309.528024 
L 632.81157 285.156412 
L 654.332231 335.885756 
L 675.852893 389.130875 
L 697.373554 321.306701 
L 718.894215 338.765336 
L 740.414876 360.585709 
L 761.935537 363.258597 
L 783.456198 371.693747 
L 804.97686 351.067879 
L 826.497521 332.241755 
L 848.018182 370.718808 
L 869.538843 340.727777 
L 891.059504 378.876749 
" style="fill:none;stroke:#1f77b4;stroke-linecap:square;stroke-width:1.5;"/>
    <g clip-path="url(#p97c603b1be)">
     <use style="fill:#1f77b4;stroke:#1f77b4;" x="568.249587" xlink:href="#m142edcbb34" y="268.849216"/>
     <use style="fill:#1f77b4;stroke:#1f77b4;" x="568.68" xlink:href="#m142edcbb34" y="337.440344"/>
     <use style="fill:#1f77b4;stroke:#1f77b4;" x="569.110413" xlink:href="#m142edcbb34" y="330.906784"/>
     <use style="fill:#1f77b4;stroke:#1f77b4;" x="569.540826" xlink:href="#m142edcbb34" y="234.759801"/>
     <use style="fill:#1f77b4;stroke:#1f77b4;" x="569.97124" xlink:href="#m142edcbb34" y="326.046927"/>
     <use style="fill:#1f77b4;stroke:#1f77b4;" x="570.401653" xlink:href="#m142edcbb34" y="283.260197"/>
     <use style="fill:#1f77b4;stroke:#1f77b4;" x="570.832066" xlink:href="#m142edcbb34" y="347.21853"/>
     <use style="fill:#1f77b4;stroke:#1f77b4;" x="571.262479" xlink:href="#m142edcbb34" y="303.736293"/>
     <use style="fill:#1f77b4;stroke:#1f77b4;" x="571.692893" xlink:href="#m142edcbb34" y="238.990689"/>
     <use style="fill:#1f77b4;stroke:#1f77b4;" x="572.123306" xlink:href="#m142edcbb34" y="368.058897"/>
     <use style="fill:#1f77b4;stroke:#1f77b4;" x="572.553719" xlink:href="#m142edcbb34" y="200.28099"/>
     <use style="fill:#1f77b4;stroke:#1f77b4;" x="572.984132" xlink:href="#m142edcbb34" y="298.531087"/>
     <use style="fill:#1f77b4;stroke:#1f77b4;" x="573.414545" xlink:href="#m142edcbb34" y="235.021295"/>
     <use style="fill:#1f77b4;stroke:#1f77b4;" x="573.844959" xlink:href="#m142edcbb34" y="294.519765"/>
     <use style="fill:#1f77b4;stroke:#1f77b4;" x="574.275372" xlink:href="#m142edcbb34" y="311.405472"/>
     <use style="fill:#1f77b4;stroke:#1f77b4;" x="574.705785" xlink:href="#m142edcbb34" y="263.641166"/>
     <use style="fill:#1f77b4;stroke:#1f77b4;" x="575.136198" xlink:href="#m142edcbb34" y="333.105903"/>
     <use style="fill:#1f77b4;stroke:#1f77b4;" x="575.566612" xlink:href="#m142edcbb34" y="267.296438"/>
     <use style="fill:#1f77b4;stroke:#1f77b4;" x="575.997025" xlink:href="#m142edcbb34" y="279.218786"/>
     <use style="fill:#1f77b4;stroke:#1f77b4;" x="576.427438" xlink:href="#m142edcbb34" y="308.750472"/>
     <use style="fill:#1f77b4;stroke:#1f77b4;" x="576.857851" xlink:href="#m142edcbb34" y="277.799133"/>
     <use style="fill:#1f77b4;stroke:#1f77b4;" x="581.161983" xlink:href="#m142edcbb34" y="296.866691"/>
     <use style="fill:#1f77b4;stroke:#1f77b4;" x="585.466116" xlink:href="#m142edcbb34" y="290.06347"/>
     <use style="fill:#1f77b4;stroke:#1f77b4;" x="589.770248" xlink:href="#m142edcbb34" y="281.934843"/>
     <use style="fill:#1f77b4;stroke:#1f77b4;" x="594.07438" xlink:href="#m142edcbb34" y="310.816414"/>
     <use style="fill:#1f77b4;stroke:#1f77b4;" x="598.378512" xlink:href="#m142edcbb34" y="345.276924"/>
     <use style="fill:#1f77b4;stroke:#1f77b4;" x="602.682645" xlink:href="#m142edcbb34" y="300.277633"/>
     <use style="fill:#1f77b4;stroke:#1f77b4;" x="606.986777" xlink:href="#m142edcbb34" y="290.495001"/>
     <use style="fill:#1f77b4;stroke:#1f77b4;" x="611.290909" xlink:href="#m142edcbb34" y="309.528024"/>
     <use style="fill:#1f77b4;stroke:#1f77b4;" x="632.81157" xlink:href="#m142edcbb34" y="285.156412"/>
     <use style="fill:#1f77b4;stroke:#1f77b4;" x="654.332231" xlink:href="#m142edcbb34" y="335.885756"/>
     <use style="fill:#1f77b4;stroke:#1f77b4;" x="675.852893" xlink:href="#m142edcbb34" y="389.130875"/>
     <use style="fill:#1f77b4;stroke:#1f77b4;" x="697.373554" xlink:href="#m142edcbb34" y="321.306701"/>
     <use style="fill:#1f77b4;stroke:#1f77b4;" x="718.894215" xlink:href="#m142edcbb34" y="338.765336"/>
     <use style="fill:#1f77b4;stroke:#1f77b4;" x="740.414876" xlink:href="#m142edcbb34" y="360.585709"/>
     <use style="fill:#1f77b4;stroke:#1f77b4;" x="761.935537" xlink:href="#m142edcbb34" y="363.258597"/>
     <use style="fill:#1f77b4;stroke:#1f77b4;" x="783.456198" xlink:href="#m142edcbb34" y="371.693747"/>
     <use style="fill:#1f77b4;stroke:#1f77b4;" x="804.97686" xlink:href="#m142edcbb34" y="351.067879"/>
     <use style="fill:#1f77b4;stroke:#1f77b4;" x="826.497521" xlink:href="#m142edcbb34" y="332.241755"/>
     <use style="fill:#1f77b4;stroke:#1f77b4;" x="848.018182" xlink:href="#m142edcbb34" y="370.718808"/>
     <use style="fill:#1f77b4;stroke:#1f77b4;" x="869.538843" xlink:href="#m142edcbb34" y="340.727777"/>
     <use style="fill:#1f77b4;stroke:#1f77b4;" x="891.059504" xlink:href="#m142edcbb34" y="378.876749"/>
    </g>
   </g>
   <g id="patch_10">
    <path d="M 552.109091 504 
L 552.109091 69.12 
" style="fill:none;stroke:#000000;stroke-linecap:square;stroke-linejoin:miter;stroke-width:0.8;"/>
   </g>
   <g id="patch_11">
    <path d="M 907.2 504 
L 907.2 69.12 
" style="fill:none;stroke:#000000;stroke-linecap:square;stroke-linejoin:miter;stroke-width:0.8;"/>
   </g>
   <g id="patch_12">
    <path d="M 552.109091 504 
L 907.2 504 
" style="fill:none;stroke:#000000;stroke-linecap:square;stroke-linejoin:miter;stroke-width:0.8;"/>
   </g>
   <g id="patch_13">
    <path d="M 552.109091 69.12 
L 907.2 69.12 
" style="fill:none;stroke:#000000;stroke-linecap:square;stroke-linejoin:miter;stroke-width:0.8;"/>
   </g>
   <g id="legend_2">
    <g id="patch_14">
     <path d="M 793.9 499 
L 900.2 499 
Q 902.2 499 902.2 497 
L 902.2 468.64375 
Q 902.2 466.64375 900.2 466.64375 
L 793.9 466.64375 
Q 791.9 466.64375 791.9 468.64375 
L 791.9 497 
Q 791.9 499 793.9 499 
z
" style="fill:#ffffff;opacity:0.8;stroke:#cccccc;stroke-linejoin:miter;"/>
    </g>
    <g id="line2d_31">
     <path d="M 795.9 474.742188 
L 815.9 474.742188 
" style="fill:none;stroke:#1f77b4;stroke-linecap:square;stroke-width:1.5;"/>
    </g>
    <g id="line2d_32">
     <g>
      <use style="fill:#1f77b4;stroke:#1f77b4;" x="805.9" xlink:href="#m142edcbb34" y="474.742188"/>
     </g>
    </g>
    <g id="text_29">
     <!-- AUC -->
     <g transform="translate(823.9 478.242188)scale(0.1 -0.1)">
      <defs>
       <path d="M 556 4666 
L 1191 4666 
L 1191 1831 
Q 1191 1081 1462 751 
Q 1734 422 2344 422 
Q 2950 422 3222 751 
Q 3494 1081 3494 1831 
L 3494 4666 
L 4128 4666 
L 4128 1753 
Q 4128 841 3676 375 
Q 3225 -91 2344 -91 
Q 1459 -91 1007 375 
Q 556 841 556 1753 
L 556 4666 
z
" id="DejaVuSans-55" transform="scale(0.015625)"/>
       <path d="M 4122 4306 
L 4122 3641 
Q 3803 3938 3442 4084 
Q 3081 4231 2675 4231 
Q 1875 4231 1450 3742 
Q 1025 3253 1025 2328 
Q 1025 1406 1450 917 
Q 1875 428 2675 428 
Q 3081 428 3442 575 
Q 3803 722 4122 1019 
L 4122 359 
Q 3791 134 3420 21 
Q 3050 -91 2638 -91 
Q 1578 -91 968 557 
Q 359 1206 359 2328 
Q 359 3453 968 4101 
Q 1578 4750 2638 4750 
Q 3056 4750 3426 4639 
Q 3797 4528 4122 4306 
z
" id="DejaVuSans-43" transform="scale(0.015625)"/>
      </defs>
      <use xlink:href="#DejaVuSans-41"/>
      <use x="68.408203" xlink:href="#DejaVuSans-55"/>
      <use x="141.601562" xlink:href="#DejaVuSans-43"/>
     </g>
    </g>
    <g id="patch_15">
     <path d="M 795.9 492.920313 
L 815.9 492.920313 
L 815.9 485.920313 
L 795.9 485.920313 
z
" style="fill:#1f77b4;fill-opacity:0.5;stroke:#1f77b4;stroke-linejoin:miter;stroke-opacity:0.5;"/>
    </g>
    <g id="text_30">
     <!-- AUC $\pm$ SD AUC -->
     <g transform="translate(823.9 492.920313)scale(0.1 -0.1)">
      <use transform="translate(0 0.78125)" xlink:href="#DejaVuSans-41"/>
      <use transform="translate(68.408203 0.78125)" xlink:href="#DejaVuSans-55"/>
      <use transform="translate(141.601562 0.78125)" xlink:href="#DejaVuSans-43"/>
      <use transform="translate(211.425781 0.78125)" xlink:href="#DejaVuSans-20"/>
      <use transform="translate(243.212891 0.78125)" xlink:href="#DejaVuSans-b1"/>
      <use transform="translate(327.001953 0.78125)" xlink:href="#DejaVuSans-20"/>
      <use transform="translate(358.789062 0.78125)" xlink:href="#DejaVuSans-53"/>
      <use transform="translate(422.265625 0.78125)" xlink:href="#DejaVuSans-44"/>
      <use transform="translate(499.267578 0.78125)" xlink:href="#DejaVuSans-20"/>
      <use transform="translate(531.054688 0.78125)" xlink:href="#DejaVuSans-41"/>
      <use transform="translate(599.462891 0.78125)" xlink:href="#DejaVuSans-55"/>
      <use transform="translate(672.65625 0.78125)" xlink:href="#DejaVuSans-43"/>
     </g>
    </g>
   </g>
  </g>
 </g>
 <defs>
  <clipPath id="p93532e0559">
   <rect height="434.88" width="355.090909" x="126" y="69.12"/>
  </clipPath>
  <clipPath id="p97c603b1be">
   <rect height="434.88" width="355.090909" x="552.109091" y="69.12"/>
  </clipPath>
 </defs>
</svg>
