<?xml version="1.0" encoding="utf-8" standalone="no"?>
<!DOCTYPE svg PUBLIC "-//W3C//DTD SVG 1.1//EN"
  "http://www.w3.org/Graphics/SVG/1.1/DTD/svg11.dtd">
<svg height="576pt" version="1.1" viewBox="0 0 1008 576" width="1008pt" xmlns="http://www.w3.org/2000/svg" xmlns:xlink="http://www.w3.org/1999/xlink">
 <metadata>
  <rdf:RDF xmlns:cc="http://creativecommons.org/ns#" xmlns:dc="http://purl.org/dc/elements/1.1/" xmlns:rdf="http://www.w3.org/1999/02/22-rdf-syntax-ns#">
   <cc:Work>
    <dc:type rdf:resource="http://purl.org/dc/dcmitype/StillImage"/>
    <dc:date>2022-02-05T02:37:28.832252</dc:date>
    <dc:format>image/svg+xml</dc:format>
    <dc:creator>
     <cc:Agent>
      <dc:title>Matplotlib v3.4.3, https://matplotlib.org/</dc:title>
     </cc:Agent>
    </dc:creator>
   </cc:Work>
  </rdf:RDF>
 </metadata>
 <defs>
  <style type="text/css">*{stroke-linecap:butt;stroke-linejoin:round;}</style>
 </defs>
 <g id="figure_1">
  <g id="patch_1">
   <path d="M 0 576 
L 1008 576 
L 1008 0 
L 0 0 
z
" style="fill:none;"/>
  </g>
  <g id="axes_1">
   <g id="patch_2">
    <path d="M 126 504 
L 907.2 504 
L 907.2 69.12 
L 126 69.12 
z
" style="fill:#ffffff;"/>
   </g>
   <g id="PathCollection_1">
    <defs>
     <path d="M 0 3 
C 0.795609 3 1.55874 2.683901 2.12132 2.12132 
C 2.683901 1.55874 3 0.795609 3 0 
C 3 -0.795609 2.683901 -1.55874 2.12132 -2.12132 
C 1.55874 -2.683901 0.795609 -3 0 -3 
C -0.795609 -3 -1.55874 -2.683901 -2.12132 -2.12132 
C -2.683901 -1.55874 -3 -0.795609 -3 0 
C -3 0.795609 -2.683901 1.55874 -2.12132 2.12132 
C -1.55874 2.683901 -0.795609 3 0 3 
z
" id="m35c7c29fab" style="stroke:#1f77b4;"/>
    </defs>
    <g clip-path="url(#p62e0da8aab)">
     <use style="fill:#1f77b4;stroke:#1f77b4;" x="161.509091" xlink:href="#m35c7c29fab" y="432.242981"/>
     <use style="fill:#1f77b4;stroke:#1f77b4;" x="191.1" xlink:href="#m35c7c29fab" y="323.07606"/>
     <use style="fill:#1f77b4;stroke:#1f77b4;" x="220.690909" xlink:href="#m35c7c29fab" y="304.018955"/>
     <use style="fill:#1f77b4;stroke:#1f77b4;" x="250.281818" xlink:href="#m35c7c29fab" y="295.718739"/>
     <use style="fill:#1f77b4;stroke:#1f77b4;" x="279.872727" xlink:href="#m35c7c29fab" y="289.326619"/>
     <use style="fill:#1f77b4;stroke:#1f77b4;" x="309.463636" xlink:href="#m35c7c29fab" y="287.657035"/>
     <use style="fill:#1f77b4;stroke:#1f77b4;" x="339.054545" xlink:href="#m35c7c29fab" y="285.605833"/>
     <use style="fill:#1f77b4;stroke:#1f77b4;" x="368.645455" xlink:href="#m35c7c29fab" y="285.868196"/>
     <use style="fill:#1f77b4;stroke:#1f77b4;" x="398.236364" xlink:href="#m35c7c29fab" y="283.55463"/>
     <use style="fill:#1f77b4;stroke:#1f77b4;" x="427.827273" xlink:href="#m35c7c29fab" y="286.774541"/>
     <use style="fill:#1f77b4;stroke:#1f77b4;" x="457.418182" xlink:href="#m35c7c29fab" y="279.643034"/>
     <use style="fill:#1f77b4;stroke:#1f77b4;" x="487.009091" xlink:href="#m35c7c29fab" y="281.36032"/>
     <use style="fill:#1f77b4;stroke:#1f77b4;" x="516.6" xlink:href="#m35c7c29fab" y="280.048504"/>
     <use style="fill:#1f77b4;stroke:#1f77b4;" x="546.190909" xlink:href="#m35c7c29fab" y="281.837344"/>
     <use style="fill:#1f77b4;stroke:#1f77b4;" x="575.781818" xlink:href="#m35c7c29fab" y="280.072355"/>
     <use style="fill:#1f77b4;stroke:#1f77b4;" x="605.372727" xlink:href="#m35c7c29fab" y="278.617432"/>
     <use style="fill:#1f77b4;stroke:#1f77b4;" x="634.963636" xlink:href="#m35c7c29fab" y="278.426623"/>
     <use style="fill:#1f77b4;stroke:#1f77b4;" x="664.554545" xlink:href="#m35c7c29fab" y="275.636033"/>
     <use style="fill:#1f77b4;stroke:#1f77b4;" x="694.145455" xlink:href="#m35c7c29fab" y="279.261415"/>
     <use style="fill:#1f77b4;stroke:#1f77b4;" x="723.736364" xlink:href="#m35c7c29fab" y="280.406272"/>
     <use style="fill:#1f77b4;stroke:#1f77b4;" x="753.327273" xlink:href="#m35c7c29fab" y="275.18286"/>
     <use style="fill:#1f77b4;stroke:#1f77b4;" x="782.918182" xlink:href="#m35c7c29fab" y="272.511526"/>
     <use style="fill:#1f77b4;stroke:#1f77b4;" x="812.509091" xlink:href="#m35c7c29fab" y="274.395771"/>
     <use style="fill:#1f77b4;stroke:#1f77b4;" x="842.1" xlink:href="#m35c7c29fab" y="280.16776"/>
     <use style="fill:#1f77b4;stroke:#1f77b4;" x="871.690909" xlink:href="#m35c7c29fab" y="275.77914"/>
    </g>
   </g>
   <g id="PolyCollection_1">
    <defs>
     <path d="M 161.509091 -195.746766 
L 161.509091 -91.767273 
L 191.1 -238.02284 
L 220.690909 -258.675134 
L 250.281818 -266.407223 
L 279.872727 -277.060994 
L 309.463636 -276.136814 
L 339.054545 -283.950415 
L 368.645455 -280.377978 
L 398.236364 -277.955597 
L 427.827273 -285.67011 
L 457.418182 -290.5739 
L 487.009091 -281.989977 
L 516.6 -288.272448 
L 546.190909 -287.256469 
L 575.781818 -286.630297 
L 605.372727 -289.209713 
L 634.963636 -288.572276 
L 664.554545 -295.351753 
L 694.145455 -288.485762 
L 723.736364 -291.787911 
L 753.327273 -294.497518 
L 782.918182 -294.231382 
L 812.509091 -295.82313 
L 842.1 -288.654615 
L 871.690909 -292.712126 
L 871.690909 -307.729593 
L 871.690909 -307.729593 
L 842.1 -303.009865 
L 812.509091 -307.385328 
L 782.918182 -312.745565 
L 753.327273 -307.136761 
L 723.736364 -299.399545 
L 694.145455 -304.991409 
L 664.554545 -305.376181 
L 634.963636 -306.574478 
L 605.372727 -305.555422 
L 575.781818 -305.224992 
L 546.190909 -301.068844 
L 516.6 -303.630544 
L 487.009091 -307.289384 
L 457.418182 -302.140033 
L 427.827273 -292.780807 
L 398.236364 -306.935143 
L 368.645455 -299.885631 
L 339.054545 -296.83792 
L 309.463636 -300.549115 
L 279.872727 -296.285768 
L 250.281818 -294.155298 
L 220.690909 -285.286955 
L 191.1 -267.825039 
L 161.509091 -195.746766 
z
" id="mb36c2c65f2" style="stroke:#1f77b4;stroke-opacity:0.5;"/>
    </defs>
    <g clip-path="url(#p62e0da8aab)">
     <use style="fill:#1f77b4;fill-opacity:0.5;stroke:#1f77b4;stroke-opacity:0.5;" x="0" xlink:href="#mb36c2c65f2" y="576"/>
    </g>
   </g>
   <g id="PathCollection_2">
    <defs>
     <path d="M 0 3 
C 0.795609 3 1.55874 2.683901 2.12132 2.12132 
C 2.683901 1.55874 3 0.795609 3 0 
C 3 -0.795609 2.683901 -1.55874 2.12132 -2.12132 
C 1.55874 -2.683901 0.795609 -3 0 -3 
C -0.795609 -3 -1.55874 -2.683901 -2.12132 -2.12132 
C -2.683901 -1.55874 -3 -0.795609 -3 0 
C -3 0.795609 -2.683901 1.55874 -2.12132 2.12132 
C -1.55874 2.683901 -0.795609 3 0 3 
z
" id="m7a39143c2a" style="stroke:#ff7f0e;"/>
    </defs>
    <g clip-path="url(#p62e0da8aab)">
     <use style="fill:#ff7f0e;stroke:#ff7f0e;" x="161.509091" xlink:href="#m7a39143c2a" y="258.484903"/>
     <use style="fill:#ff7f0e;stroke:#ff7f0e;" x="191.1" xlink:href="#m7a39143c2a" y="150.593063"/>
     <use style="fill:#ff7f0e;stroke:#ff7f0e;" x="220.690909" xlink:href="#m7a39143c2a" y="143.066207"/>
     <use style="fill:#ff7f0e;stroke:#ff7f0e;" x="250.281818" xlink:href="#m7a39143c2a" y="118.521225"/>
     <use style="fill:#ff7f0e;stroke:#ff7f0e;" x="279.872727" xlink:href="#m7a39143c2a" y="119.077658"/>
     <use style="fill:#ff7f0e;stroke:#ff7f0e;" x="309.463636" xlink:href="#m7a39143c2a" y="113.294406"/>
     <use style="fill:#ff7f0e;stroke:#ff7f0e;" x="339.054545" xlink:href="#m7a39143c2a" y="115.212521"/>
     <use style="fill:#ff7f0e;stroke:#ff7f0e;" x="368.645455" xlink:href="#m7a39143c2a" y="117.232802"/>
     <use style="fill:#ff7f0e;stroke:#ff7f0e;" x="398.236364" xlink:href="#m7a39143c2a" y="112.226646"/>
     <use style="fill:#ff7f0e;stroke:#ff7f0e;" x="427.827273" xlink:href="#m7a39143c2a" y="113.110517"/>
     <use style="fill:#ff7f0e;stroke:#ff7f0e;" x="457.418182" xlink:href="#m7a39143c2a" y="105.98229"/>
     <use style="fill:#ff7f0e;stroke:#ff7f0e;" x="487.009091" xlink:href="#m7a39143c2a" y="104.36107"/>
     <use style="fill:#ff7f0e;stroke:#ff7f0e;" x="516.6" xlink:href="#m7a39143c2a" y="106.393238"/>
     <use style="fill:#ff7f0e;stroke:#ff7f0e;" x="546.190909" xlink:href="#m7a39143c2a" y="107.048294"/>
     <use style="fill:#ff7f0e;stroke:#ff7f0e;" x="575.781818" xlink:href="#m7a39143c2a" y="99.056608"/>
     <use style="fill:#ff7f0e;stroke:#ff7f0e;" x="605.372727" xlink:href="#m7a39143c2a" y="103.552202"/>
     <use style="fill:#ff7f0e;stroke:#ff7f0e;" x="634.963636" xlink:href="#m7a39143c2a" y="106.990225"/>
     <use style="fill:#ff7f0e;stroke:#ff7f0e;" x="664.554545" xlink:href="#m7a39143c2a" y="99.658855"/>
     <use style="fill:#ff7f0e;stroke:#ff7f0e;" x="694.145455" xlink:href="#m7a39143c2a" y="107.746076"/>
     <use style="fill:#ff7f0e;stroke:#ff7f0e;" x="723.736364" xlink:href="#m7a39143c2a" y="106.53348"/>
     <use style="fill:#ff7f0e;stroke:#ff7f0e;" x="753.327273" xlink:href="#m7a39143c2a" y="105.007653"/>
     <use style="fill:#ff7f0e;stroke:#ff7f0e;" x="782.918182" xlink:href="#m7a39143c2a" y="97.030503"/>
     <use style="fill:#ff7f0e;stroke:#ff7f0e;" x="812.509091" xlink:href="#m7a39143c2a" y="103.461778"/>
     <use style="fill:#ff7f0e;stroke:#ff7f0e;" x="842.1" xlink:href="#m7a39143c2a" y="109.293827"/>
     <use style="fill:#ff7f0e;stroke:#ff7f0e;" x="871.690909" xlink:href="#m7a39143c2a" y="97.392035"/>
    </g>
   </g>
   <g id="PolyCollection_2">
    <defs>
     <path d="M 161.509091 -377.098805 
L 161.509091 -257.931388 
L 191.1 -416.07093 
L 220.690909 -416.679069 
L 250.281818 -448.830512 
L 279.872727 -445.09095 
L 309.463636 -454.504519 
L 339.054545 -455.766054 
L 368.645455 -447.361993 
L 398.236364 -452.121184 
L 427.827273 -455.755405 
L 457.418182 -461.753101 
L 487.009091 -459.617282 
L 516.6 -459.190584 
L 546.190909 -459.189519 
L 575.781818 -467.2441 
L 605.372727 -463.340762 
L 634.963636 -459.323481 
L 664.554545 -468.084121 
L 694.145455 -456.607476 
L 723.736364 -460.106761 
L 753.327273 -462.472633 
L 782.918182 -473.301562 
L 812.509091 -463.037018 
L 842.1 -455.394854 
L 871.690909 -470.103202 
L 871.690909 -487.112727 
L 871.690909 -487.112727 
L 842.1 -478.017493 
L 812.509091 -482.039426 
L 782.918182 -484.637431 
L 753.327273 -479.51206 
L 723.736364 -478.826279 
L 694.145455 -479.900373 
L 664.554545 -484.598169 
L 634.963636 -478.696068 
L 605.372727 -481.554834 
L 575.781818 -486.642684 
L 546.190909 -478.713892 
L 516.6 -480.022939 
L 487.009091 -483.660578 
L 457.418182 -478.282319 
L 427.827273 -470.023561 
L 398.236364 -475.425525 
L 368.645455 -470.172403 
L 339.054545 -465.808903 
L 309.463636 -470.906669 
L 279.872727 -468.753734 
L 250.281818 -466.127038 
L 220.690909 -449.188518 
L 191.1 -434.742944 
L 161.509091 -377.098805 
z
" id="m74bf2d3bfc" style="stroke:#ff7f0e;stroke-opacity:0.5;"/>
    </defs>
    <g clip-path="url(#p62e0da8aab)">
     <use style="fill:#ff7f0e;fill-opacity:0.5;stroke:#ff7f0e;stroke-opacity:0.5;" x="0" xlink:href="#m74bf2d3bfc" y="576"/>
    </g>
   </g>
   <g id="matplotlib.axis_1">
    <g id="xtick_1">
     <g id="line2d_1">
      <defs>
       <path d="M 0 0 
L 0 3.5 
" id="m299504b0a5" style="stroke:#000000;stroke-width:0.8;"/>
      </defs>
      <g>
       <use style="stroke:#000000;stroke-width:0.8;" x="131.918182" xlink:href="#m299504b0a5" y="504"/>
      </g>
     </g>
     <g id="text_1">
      <!-- 0 -->
      <g transform="translate(128.736932 518.598438)scale(0.1 -0.1)">
       <defs>
        <path d="M 2034 4250 
Q 1547 4250 1301 3770 
Q 1056 3291 1056 2328 
Q 1056 1369 1301 889 
Q 1547 409 2034 409 
Q 2525 409 2770 889 
Q 3016 1369 3016 2328 
Q 3016 3291 2770 3770 
Q 2525 4250 2034 4250 
z
M 2034 4750 
Q 2819 4750 3233 4129 
Q 3647 3509 3647 2328 
Q 3647 1150 3233 529 
Q 2819 -91 2034 -91 
Q 1250 -91 836 529 
Q 422 1150 422 2328 
Q 422 3509 836 4129 
Q 1250 4750 2034 4750 
z
" id="DejaVuSans-30" transform="scale(0.015625)"/>
       </defs>
       <use xlink:href="#DejaVuSans-30"/>
      </g>
     </g>
    </g>
    <g id="xtick_2">
     <g id="line2d_2">
      <g>
       <use style="stroke:#000000;stroke-width:0.8;" x="279.872727" xlink:href="#m299504b0a5" y="504"/>
      </g>
     </g>
     <g id="text_2">
      <!-- 5 -->
      <g transform="translate(276.691477 518.598438)scale(0.1 -0.1)">
       <defs>
        <path d="M 691 4666 
L 3169 4666 
L 3169 4134 
L 1269 4134 
L 1269 2991 
Q 1406 3038 1543 3061 
Q 1681 3084 1819 3084 
Q 2600 3084 3056 2656 
Q 3513 2228 3513 1497 
Q 3513 744 3044 326 
Q 2575 -91 1722 -91 
Q 1428 -91 1123 -41 
Q 819 9 494 109 
L 494 744 
Q 775 591 1075 516 
Q 1375 441 1709 441 
Q 2250 441 2565 725 
Q 2881 1009 2881 1497 
Q 2881 1984 2565 2268 
Q 2250 2553 1709 2553 
Q 1456 2553 1204 2497 
Q 953 2441 691 2322 
L 691 4666 
z
" id="DejaVuSans-35" transform="scale(0.015625)"/>
       </defs>
       <use xlink:href="#DejaVuSans-35"/>
      </g>
     </g>
    </g>
    <g id="xtick_3">
     <g id="line2d_3">
      <g>
       <use style="stroke:#000000;stroke-width:0.8;" x="427.827273" xlink:href="#m299504b0a5" y="504"/>
      </g>
     </g>
     <g id="text_3">
      <!-- 10 -->
      <g transform="translate(421.464773 518.598438)scale(0.1 -0.1)">
       <defs>
        <path d="M 794 531 
L 1825 531 
L 1825 4091 
L 703 3866 
L 703 4441 
L 1819 4666 
L 2450 4666 
L 2450 531 
L 3481 531 
L 3481 0 
L 794 0 
L 794 531 
z
" id="DejaVuSans-31" transform="scale(0.015625)"/>
       </defs>
       <use xlink:href="#DejaVuSans-31"/>
       <use x="63.623047" xlink:href="#DejaVuSans-30"/>
      </g>
     </g>
    </g>
    <g id="xtick_4">
     <g id="line2d_4">
      <g>
       <use style="stroke:#000000;stroke-width:0.8;" x="575.781818" xlink:href="#m299504b0a5" y="504"/>
      </g>
     </g>
     <g id="text_4">
      <!-- 15 -->
      <g transform="translate(569.419318 518.598438)scale(0.1 -0.1)">
       <use xlink:href="#DejaVuSans-31"/>
       <use x="63.623047" xlink:href="#DejaVuSans-35"/>
      </g>
     </g>
    </g>
    <g id="xtick_5">
     <g id="line2d_5">
      <g>
       <use style="stroke:#000000;stroke-width:0.8;" x="723.736364" xlink:href="#m299504b0a5" y="504"/>
      </g>
     </g>
     <g id="text_5">
      <!-- 20 -->
      <g transform="translate(717.373864 518.598438)scale(0.1 -0.1)">
       <defs>
        <path d="M 1228 531 
L 3431 531 
L 3431 0 
L 469 0 
L 469 531 
Q 828 903 1448 1529 
Q 2069 2156 2228 2338 
Q 2531 2678 2651 2914 
Q 2772 3150 2772 3378 
Q 2772 3750 2511 3984 
Q 2250 4219 1831 4219 
Q 1534 4219 1204 4116 
Q 875 4013 500 3803 
L 500 4441 
Q 881 4594 1212 4672 
Q 1544 4750 1819 4750 
Q 2544 4750 2975 4387 
Q 3406 4025 3406 3419 
Q 3406 3131 3298 2873 
Q 3191 2616 2906 2266 
Q 2828 2175 2409 1742 
Q 1991 1309 1228 531 
z
" id="DejaVuSans-32" transform="scale(0.015625)"/>
       </defs>
       <use xlink:href="#DejaVuSans-32"/>
       <use x="63.623047" xlink:href="#DejaVuSans-30"/>
      </g>
     </g>
    </g>
    <g id="xtick_6">
     <g id="line2d_6">
      <g>
       <use style="stroke:#000000;stroke-width:0.8;" x="871.690909" xlink:href="#m299504b0a5" y="504"/>
      </g>
     </g>
     <g id="text_6">
      <!-- 25 -->
      <g transform="translate(865.328409 518.598438)scale(0.1 -0.1)">
       <use xlink:href="#DejaVuSans-32"/>
       <use x="63.623047" xlink:href="#DejaVuSans-35"/>
      </g>
     </g>
    </g>
   </g>
   <g id="matplotlib.axis_2">
    <g id="ytick_1">
     <g id="line2d_7">
      <defs>
       <path d="M 0 0 
L -3.5 0 
" id="m0d5a2828bb" style="stroke:#000000;stroke-width:0.8;"/>
      </defs>
      <g>
       <use style="stroke:#000000;stroke-width:0.8;" x="126" xlink:href="#m0d5a2828bb" y="467.852815"/>
      </g>
     </g>
     <g id="text_7">
      <!-- 0.78 -->
      <g transform="translate(96.734375 471.652034)scale(0.1 -0.1)">
       <defs>
        <path d="M 684 794 
L 1344 794 
L 1344 0 
L 684 0 
L 684 794 
z
" id="DejaVuSans-2e" transform="scale(0.015625)"/>
        <path d="M 525 4666 
L 3525 4666 
L 3525 4397 
L 1831 0 
L 1172 0 
L 2766 4134 
L 525 4134 
L 525 4666 
z
" id="DejaVuSans-37" transform="scale(0.015625)"/>
        <path d="M 2034 2216 
Q 1584 2216 1326 1975 
Q 1069 1734 1069 1313 
Q 1069 891 1326 650 
Q 1584 409 2034 409 
Q 2484 409 2743 651 
Q 3003 894 3003 1313 
Q 3003 1734 2745 1975 
Q 2488 2216 2034 2216 
z
M 1403 2484 
Q 997 2584 770 2862 
Q 544 3141 544 3541 
Q 544 4100 942 4425 
Q 1341 4750 2034 4750 
Q 2731 4750 3128 4425 
Q 3525 4100 3525 3541 
Q 3525 3141 3298 2862 
Q 3072 2584 2669 2484 
Q 3125 2378 3379 2068 
Q 3634 1759 3634 1313 
Q 3634 634 3220 271 
Q 2806 -91 2034 -91 
Q 1263 -91 848 271 
Q 434 634 434 1313 
Q 434 1759 690 2068 
Q 947 2378 1403 2484 
z
M 1172 3481 
Q 1172 3119 1398 2916 
Q 1625 2713 2034 2713 
Q 2441 2713 2670 2916 
Q 2900 3119 2900 3481 
Q 2900 3844 2670 4047 
Q 2441 4250 2034 4250 
Q 1625 4250 1398 4047 
Q 1172 3844 1172 3481 
z
" id="DejaVuSans-38" transform="scale(0.015625)"/>
       </defs>
       <use xlink:href="#DejaVuSans-30"/>
       <use x="63.623047" xlink:href="#DejaVuSans-2e"/>
       <use x="95.410156" xlink:href="#DejaVuSans-37"/>
       <use x="159.033203" xlink:href="#DejaVuSans-38"/>
      </g>
     </g>
    </g>
    <g id="ytick_2">
     <g id="line2d_8">
      <g>
       <use style="stroke:#000000;stroke-width:0.8;" x="126" xlink:href="#m0d5a2828bb" y="396.013015"/>
      </g>
     </g>
     <g id="text_8">
      <!-- 0.80 -->
      <g transform="translate(96.734375 399.812234)scale(0.1 -0.1)">
       <use xlink:href="#DejaVuSans-30"/>
       <use x="63.623047" xlink:href="#DejaVuSans-2e"/>
       <use x="95.410156" xlink:href="#DejaVuSans-38"/>
       <use x="159.033203" xlink:href="#DejaVuSans-30"/>
      </g>
     </g>
    </g>
    <g id="ytick_3">
     <g id="line2d_9">
      <g>
       <use style="stroke:#000000;stroke-width:0.8;" x="126" xlink:href="#m0d5a2828bb" y="324.173215"/>
      </g>
     </g>
     <g id="text_9">
      <!-- 0.82 -->
      <g transform="translate(96.734375 327.972434)scale(0.1 -0.1)">
       <use xlink:href="#DejaVuSans-30"/>
       <use x="63.623047" xlink:href="#DejaVuSans-2e"/>
       <use x="95.410156" xlink:href="#DejaVuSans-38"/>
       <use x="159.033203" xlink:href="#DejaVuSans-32"/>
      </g>
     </g>
    </g>
    <g id="ytick_4">
     <g id="line2d_10">
      <g>
       <use style="stroke:#000000;stroke-width:0.8;" x="126" xlink:href="#m0d5a2828bb" y="252.333415"/>
      </g>
     </g>
     <g id="text_10">
      <!-- 0.84 -->
      <g transform="translate(96.734375 256.132634)scale(0.1 -0.1)">
       <defs>
        <path d="M 2419 4116 
L 825 1625 
L 2419 1625 
L 2419 4116 
z
M 2253 4666 
L 3047 4666 
L 3047 1625 
L 3713 1625 
L 3713 1100 
L 3047 1100 
L 3047 0 
L 2419 0 
L 2419 1100 
L 313 1100 
L 313 1709 
L 2253 4666 
z
" id="DejaVuSans-34" transform="scale(0.015625)"/>
       </defs>
       <use xlink:href="#DejaVuSans-30"/>
       <use x="63.623047" xlink:href="#DejaVuSans-2e"/>
       <use x="95.410156" xlink:href="#DejaVuSans-38"/>
       <use x="159.033203" xlink:href="#DejaVuSans-34"/>
      </g>
     </g>
    </g>
    <g id="ytick_5">
     <g id="line2d_11">
      <g>
       <use style="stroke:#000000;stroke-width:0.8;" x="126" xlink:href="#m0d5a2828bb" y="180.493615"/>
      </g>
     </g>
     <g id="text_11">
      <!-- 0.86 -->
      <g transform="translate(96.734375 184.292834)scale(0.1 -0.1)">
       <defs>
        <path d="M 2113 2584 
Q 1688 2584 1439 2293 
Q 1191 2003 1191 1497 
Q 1191 994 1439 701 
Q 1688 409 2113 409 
Q 2538 409 2786 701 
Q 3034 994 3034 1497 
Q 3034 2003 2786 2293 
Q 2538 2584 2113 2584 
z
M 3366 4563 
L 3366 3988 
Q 3128 4100 2886 4159 
Q 2644 4219 2406 4219 
Q 1781 4219 1451 3797 
Q 1122 3375 1075 2522 
Q 1259 2794 1537 2939 
Q 1816 3084 2150 3084 
Q 2853 3084 3261 2657 
Q 3669 2231 3669 1497 
Q 3669 778 3244 343 
Q 2819 -91 2113 -91 
Q 1303 -91 875 529 
Q 447 1150 447 2328 
Q 447 3434 972 4092 
Q 1497 4750 2381 4750 
Q 2619 4750 2861 4703 
Q 3103 4656 3366 4563 
z
" id="DejaVuSans-36" transform="scale(0.015625)"/>
       </defs>
       <use xlink:href="#DejaVuSans-30"/>
       <use x="63.623047" xlink:href="#DejaVuSans-2e"/>
       <use x="95.410156" xlink:href="#DejaVuSans-38"/>
       <use x="159.033203" xlink:href="#DejaVuSans-36"/>
      </g>
     </g>
    </g>
    <g id="ytick_6">
     <g id="line2d_12">
      <g>
       <use style="stroke:#000000;stroke-width:0.8;" x="126" xlink:href="#m0d5a2828bb" y="108.653815"/>
      </g>
     </g>
     <g id="text_12">
      <!-- 0.88 -->
      <g transform="translate(96.734375 112.453034)scale(0.1 -0.1)">
       <use xlink:href="#DejaVuSans-30"/>
       <use x="63.623047" xlink:href="#DejaVuSans-2e"/>
       <use x="95.410156" xlink:href="#DejaVuSans-38"/>
       <use x="159.033203" xlink:href="#DejaVuSans-38"/>
      </g>
     </g>
    </g>
   </g>
   <g id="line2d_13">
    <path clip-path="url(#p62e0da8aab)" d="M 161.509091 432.242981 
L 191.1 323.07606 
L 220.690909 304.018955 
L 250.281818 295.718739 
L 279.872727 289.326619 
L 309.463636 287.657035 
L 339.054545 285.605833 
L 368.645455 285.868196 
L 398.236364 283.55463 
L 427.827273 286.774541 
L 457.418182 279.643034 
L 487.009091 281.36032 
L 516.6 280.048504 
L 546.190909 281.837344 
L 575.781818 280.072355 
L 605.372727 278.617432 
L 634.963636 278.426623 
L 664.554545 275.636033 
L 694.145455 279.261415 
L 723.736364 280.406272 
L 753.327273 275.18286 
L 782.918182 272.511526 
L 812.509091 274.395771 
L 842.1 280.16776 
L 871.690909 275.77914 
" style="fill:none;stroke:#1f77b4;stroke-linecap:square;stroke-width:1.5;"/>
   </g>
   <g id="line2d_14">
    <path clip-path="url(#p62e0da8aab)" d="M 161.509091 258.484903 
L 191.1 150.593063 
L 220.690909 143.066207 
L 250.281818 118.521225 
L 279.872727 119.077658 
L 309.463636 113.294406 
L 339.054545 115.212521 
L 368.645455 117.232802 
L 398.236364 112.226646 
L 427.827273 113.110517 
L 457.418182 105.98229 
L 487.009091 104.36107 
L 516.6 106.393238 
L 546.190909 107.048294 
L 575.781818 99.056608 
L 605.372727 103.552202 
L 634.963636 106.990225 
L 664.554545 99.658855 
L 694.145455 107.746076 
L 723.736364 106.53348 
L 753.327273 105.007653 
L 782.918182 97.030503 
L 812.509091 103.461778 
L 842.1 109.293827 
L 871.690909 97.392035 
" style="fill:none;stroke:#ff7f0e;stroke-linecap:square;stroke-width:1.5;"/>
   </g>
   <g id="patch_3">
    <path d="M 126 504 
L 126 69.12 
" style="fill:none;stroke:#000000;stroke-linecap:square;stroke-linejoin:miter;stroke-width:0.8;"/>
   </g>
   <g id="patch_4">
    <path d="M 907.2 504 
L 907.2 69.12 
" style="fill:none;stroke:#000000;stroke-linecap:square;stroke-linejoin:miter;stroke-width:0.8;"/>
   </g>
   <g id="patch_5">
    <path d="M 126 504 
L 907.2 504 
" style="fill:none;stroke:#000000;stroke-linecap:square;stroke-linejoin:miter;stroke-width:0.8;"/>
   </g>
   <g id="patch_6">
    <path d="M 126 69.12 
L 907.2 69.12 
" style="fill:none;stroke:#000000;stroke-linecap:square;stroke-linejoin:miter;stroke-width:0.8;"/>
   </g>
   <g id="legend_1">
    <g id="patch_7">
     <path d="M 744.5 499 
L 900.2 499 
Q 902.2 499 902.2 497 
L 902.2 439.267187 
Q 902.2 437.267187 900.2 437.267187 
L 744.5 437.267187 
Q 742.5 437.267187 742.5 439.267187 
L 742.5 497 
Q 742.5 499 744.5 499 
z
" style="fill:#ffffff;opacity:0.8;stroke:#cccccc;stroke-linejoin:miter;"/>
    </g>
    <g id="line2d_15">
     <path d="M 746.5 445.365625 
L 766.5 445.365625 
" style="fill:none;stroke:#1f77b4;stroke-linecap:square;stroke-width:1.5;"/>
    </g>
    <g id="line2d_16"/>
    <g id="text_13">
     <!-- Accuracy -->
     <g transform="translate(774.5 448.865625)scale(0.1 -0.1)">
      <defs>
       <path d="M 2188 4044 
L 1331 1722 
L 3047 1722 
L 2188 4044 
z
M 1831 4666 
L 2547 4666 
L 4325 0 
L 3669 0 
L 3244 1197 
L 1141 1197 
L 716 0 
L 50 0 
L 1831 4666 
z
" id="DejaVuSans-41" transform="scale(0.015625)"/>
       <path d="M 3122 3366 
L 3122 2828 
Q 2878 2963 2633 3030 
Q 2388 3097 2138 3097 
Q 1578 3097 1268 2742 
Q 959 2388 959 1747 
Q 959 1106 1268 751 
Q 1578 397 2138 397 
Q 2388 397 2633 464 
Q 2878 531 3122 666 
L 3122 134 
Q 2881 22 2623 -34 
Q 2366 -91 2075 -91 
Q 1284 -91 818 406 
Q 353 903 353 1747 
Q 353 2603 823 3093 
Q 1294 3584 2113 3584 
Q 2378 3584 2631 3529 
Q 2884 3475 3122 3366 
z
" id="DejaVuSans-63" transform="scale(0.015625)"/>
       <path d="M 544 1381 
L 544 3500 
L 1119 3500 
L 1119 1403 
Q 1119 906 1312 657 
Q 1506 409 1894 409 
Q 2359 409 2629 706 
Q 2900 1003 2900 1516 
L 2900 3500 
L 3475 3500 
L 3475 0 
L 2900 0 
L 2900 538 
Q 2691 219 2414 64 
Q 2138 -91 1772 -91 
Q 1169 -91 856 284 
Q 544 659 544 1381 
z
M 1991 3584 
L 1991 3584 
z
" id="DejaVuSans-75" transform="scale(0.015625)"/>
       <path d="M 2631 2963 
Q 2534 3019 2420 3045 
Q 2306 3072 2169 3072 
Q 1681 3072 1420 2755 
Q 1159 2438 1159 1844 
L 1159 0 
L 581 0 
L 581 3500 
L 1159 3500 
L 1159 2956 
Q 1341 3275 1631 3429 
Q 1922 3584 2338 3584 
Q 2397 3584 2469 3576 
Q 2541 3569 2628 3553 
L 2631 2963 
z
" id="DejaVuSans-72" transform="scale(0.015625)"/>
       <path d="M 2194 1759 
Q 1497 1759 1228 1600 
Q 959 1441 959 1056 
Q 959 750 1161 570 
Q 1363 391 1709 391 
Q 2188 391 2477 730 
Q 2766 1069 2766 1631 
L 2766 1759 
L 2194 1759 
z
M 3341 1997 
L 3341 0 
L 2766 0 
L 2766 531 
Q 2569 213 2275 61 
Q 1981 -91 1556 -91 
Q 1019 -91 701 211 
Q 384 513 384 1019 
Q 384 1609 779 1909 
Q 1175 2209 1959 2209 
L 2766 2209 
L 2766 2266 
Q 2766 2663 2505 2880 
Q 2244 3097 1772 3097 
Q 1472 3097 1187 3025 
Q 903 2953 641 2809 
L 641 3341 
Q 956 3463 1253 3523 
Q 1550 3584 1831 3584 
Q 2591 3584 2966 3190 
Q 3341 2797 3341 1997 
z
" id="DejaVuSans-61" transform="scale(0.015625)"/>
       <path d="M 2059 -325 
Q 1816 -950 1584 -1140 
Q 1353 -1331 966 -1331 
L 506 -1331 
L 506 -850 
L 844 -850 
Q 1081 -850 1212 -737 
Q 1344 -625 1503 -206 
L 1606 56 
L 191 3500 
L 800 3500 
L 1894 763 
L 2988 3500 
L 3597 3500 
L 2059 -325 
z
" id="DejaVuSans-79" transform="scale(0.015625)"/>
      </defs>
      <use xlink:href="#DejaVuSans-41"/>
      <use x="66.658203" xlink:href="#DejaVuSans-63"/>
      <use x="121.638672" xlink:href="#DejaVuSans-63"/>
      <use x="176.619141" xlink:href="#DejaVuSans-75"/>
      <use x="239.998047" xlink:href="#DejaVuSans-72"/>
      <use x="281.111328" xlink:href="#DejaVuSans-61"/>
      <use x="342.390625" xlink:href="#DejaVuSans-63"/>
      <use x="397.371094" xlink:href="#DejaVuSans-79"/>
     </g>
    </g>
    <g id="line2d_17">
     <path d="M 746.5 460.04375 
L 766.5 460.04375 
" style="fill:none;stroke:#ff7f0e;stroke-linecap:square;stroke-width:1.5;"/>
    </g>
    <g id="line2d_18"/>
    <g id="text_14">
     <!-- AUC -->
     <g transform="translate(774.5 463.54375)scale(0.1 -0.1)">
      <defs>
       <path d="M 556 4666 
L 1191 4666 
L 1191 1831 
Q 1191 1081 1462 751 
Q 1734 422 2344 422 
Q 2950 422 3222 751 
Q 3494 1081 3494 1831 
L 3494 4666 
L 4128 4666 
L 4128 1753 
Q 4128 841 3676 375 
Q 3225 -91 2344 -91 
Q 1459 -91 1007 375 
Q 556 841 556 1753 
L 556 4666 
z
" id="DejaVuSans-55" transform="scale(0.015625)"/>
       <path d="M 4122 4306 
L 4122 3641 
Q 3803 3938 3442 4084 
Q 3081 4231 2675 4231 
Q 1875 4231 1450 3742 
Q 1025 3253 1025 2328 
Q 1025 1406 1450 917 
Q 1875 428 2675 428 
Q 3081 428 3442 575 
Q 3803 722 4122 1019 
L 4122 359 
Q 3791 134 3420 21 
Q 3050 -91 2638 -91 
Q 1578 -91 968 557 
Q 359 1206 359 2328 
Q 359 3453 968 4101 
Q 1578 4750 2638 4750 
Q 3056 4750 3426 4639 
Q 3797 4528 4122 4306 
z
" id="DejaVuSans-43" transform="scale(0.015625)"/>
      </defs>
      <use xlink:href="#DejaVuSans-41"/>
      <use x="68.408203" xlink:href="#DejaVuSans-55"/>
      <use x="141.601562" xlink:href="#DejaVuSans-43"/>
     </g>
    </g>
    <g id="patch_8">
     <path d="M 746.5 478.221875 
L 766.5 478.221875 
L 766.5 471.221875 
L 746.5 471.221875 
z
" style="fill:#1f77b4;fill-opacity:0.5;stroke:#1f77b4;stroke-linejoin:miter;stroke-opacity:0.5;"/>
    </g>
    <g id="text_15">
     <!-- Accuracy $\pm$ SD Accuracy -->
     <g transform="translate(774.5 478.221875)scale(0.1 -0.1)">
      <defs>
       <path id="DejaVuSans-20" transform="scale(0.015625)"/>
       <path d="M 2944 4013 
L 2944 2803 
L 4684 2803 
L 4684 2272 
L 2944 2272 
L 2944 1063 
L 2419 1063 
L 2419 2272 
L 678 2272 
L 678 2803 
L 2419 2803 
L 2419 4013 
L 2944 4013 
z
M 678 531 
L 4684 531 
L 4684 0 
L 678 0 
L 678 531 
z
" id="DejaVuSans-b1" transform="scale(0.015625)"/>
       <path d="M 3425 4513 
L 3425 3897 
Q 3066 4069 2747 4153 
Q 2428 4238 2131 4238 
Q 1616 4238 1336 4038 
Q 1056 3838 1056 3469 
Q 1056 3159 1242 3001 
Q 1428 2844 1947 2747 
L 2328 2669 
Q 3034 2534 3370 2195 
Q 3706 1856 3706 1288 
Q 3706 609 3251 259 
Q 2797 -91 1919 -91 
Q 1588 -91 1214 -16 
Q 841 59 441 206 
L 441 856 
Q 825 641 1194 531 
Q 1563 422 1919 422 
Q 2459 422 2753 634 
Q 3047 847 3047 1241 
Q 3047 1584 2836 1778 
Q 2625 1972 2144 2069 
L 1759 2144 
Q 1053 2284 737 2584 
Q 422 2884 422 3419 
Q 422 4038 858 4394 
Q 1294 4750 2059 4750 
Q 2388 4750 2728 4690 
Q 3069 4631 3425 4513 
z
" id="DejaVuSans-53" transform="scale(0.015625)"/>
       <path d="M 1259 4147 
L 1259 519 
L 2022 519 
Q 2988 519 3436 956 
Q 3884 1394 3884 2338 
Q 3884 3275 3436 3711 
Q 2988 4147 2022 4147 
L 1259 4147 
z
M 628 4666 
L 1925 4666 
Q 3281 4666 3915 4102 
Q 4550 3538 4550 2338 
Q 4550 1131 3912 565 
Q 3275 0 1925 0 
L 628 0 
L 628 4666 
z
" id="DejaVuSans-44" transform="scale(0.015625)"/>
      </defs>
      <use transform="translate(0 0.78125)" xlink:href="#DejaVuSans-41"/>
      <use transform="translate(68.408203 0.78125)" xlink:href="#DejaVuSans-63"/>
      <use transform="translate(123.388672 0.78125)" xlink:href="#DejaVuSans-63"/>
      <use transform="translate(178.369141 0.78125)" xlink:href="#DejaVuSans-75"/>
      <use transform="translate(241.748047 0.78125)" xlink:href="#DejaVuSans-72"/>
      <use transform="translate(282.861328 0.78125)" xlink:href="#DejaVuSans-61"/>
      <use transform="translate(344.140625 0.78125)" xlink:href="#DejaVuSans-63"/>
      <use transform="translate(399.121094 0.78125)" xlink:href="#DejaVuSans-79"/>
      <use transform="translate(458.300781 0.78125)" xlink:href="#DejaVuSans-20"/>
      <use transform="translate(490.087891 0.78125)" xlink:href="#DejaVuSans-b1"/>
      <use transform="translate(573.876953 0.78125)" xlink:href="#DejaVuSans-20"/>
      <use transform="translate(605.664062 0.78125)" xlink:href="#DejaVuSans-53"/>
      <use transform="translate(669.140625 0.78125)" xlink:href="#DejaVuSans-44"/>
      <use transform="translate(746.142578 0.78125)" xlink:href="#DejaVuSans-20"/>
      <use transform="translate(777.929688 0.78125)" xlink:href="#DejaVuSans-41"/>
      <use transform="translate(846.337891 0.78125)" xlink:href="#DejaVuSans-63"/>
      <use transform="translate(901.318359 0.78125)" xlink:href="#DejaVuSans-63"/>
      <use transform="translate(956.298828 0.78125)" xlink:href="#DejaVuSans-75"/>
      <use transform="translate(1019.677734 0.78125)" xlink:href="#DejaVuSans-72"/>
      <use transform="translate(1060.791016 0.78125)" xlink:href="#DejaVuSans-61"/>
      <use transform="translate(1122.070312 0.78125)" xlink:href="#DejaVuSans-63"/>
      <use transform="translate(1177.050781 0.78125)" xlink:href="#DejaVuSans-79"/>
     </g>
    </g>
    <g id="patch_9">
     <path d="M 746.5 492.920313 
L 766.5 492.920313 
L 766.5 485.920313 
L 746.5 485.920313 
z
" style="fill:#ff7f0e;fill-opacity:0.5;stroke:#ff7f0e;stroke-linejoin:miter;stroke-opacity:0.5;"/>
    </g>
    <g id="text_16">
     <!-- AUC $\pm$ SD AUC -->
     <g transform="translate(774.5 492.920313)scale(0.1 -0.1)">
      <use transform="translate(0 0.78125)" xlink:href="#DejaVuSans-41"/>
      <use transform="translate(68.408203 0.78125)" xlink:href="#DejaVuSans-55"/>
      <use transform="translate(141.601562 0.78125)" xlink:href="#DejaVuSans-43"/>
      <use transform="translate(211.425781 0.78125)" xlink:href="#DejaVuSans-20"/>
      <use transform="translate(243.212891 0.78125)" xlink:href="#DejaVuSans-b1"/>
      <use transform="translate(327.001953 0.78125)" xlink:href="#DejaVuSans-20"/>
      <use transform="translate(358.789062 0.78125)" xlink:href="#DejaVuSans-53"/>
      <use transform="translate(422.265625 0.78125)" xlink:href="#DejaVuSans-44"/>
      <use transform="translate(499.267578 0.78125)" xlink:href="#DejaVuSans-20"/>
      <use transform="translate(531.054688 0.78125)" xlink:href="#DejaVuSans-41"/>
      <use transform="translate(599.462891 0.78125)" xlink:href="#DejaVuSans-55"/>
      <use transform="translate(672.65625 0.78125)" xlink:href="#DejaVuSans-43"/>
     </g>
    </g>
   </g>
  </g>
 </g>
 <defs>
  <clipPath id="p62e0da8aab">
   <rect height="434.88" width="781.2" x="126" y="69.12"/>
  </clipPath>
 </defs>
</svg>
