<?xml version="1.0" encoding="utf-8" standalone="no"?>
<!DOCTYPE svg PUBLIC "-//W3C//DTD SVG 1.1//EN"
  "http://www.w3.org/Graphics/SVG/1.1/DTD/svg11.dtd">
<svg xmlns:xlink="http://www.w3.org/1999/xlink" width="394.100397pt" height="320.112687pt" viewBox="0 0 394.100397 320.112687" xmlns="http://www.w3.org/2000/svg" version="1.1">
 <metadata>
  <rdf:RDF xmlns:dc="http://purl.org/dc/elements/1.1/" xmlns:cc="http://creativecommons.org/ns#" xmlns:rdf="http://www.w3.org/1999/02/22-rdf-syntax-ns#">
   <cc:Work>
    <dc:type rdf:resource="http://purl.org/dc/dcmitype/StillImage"/>
    <dc:date>2022-05-30T22:17:23.179189</dc:date>
    <dc:format>image/svg+xml</dc:format>
    <dc:creator>
     <cc:Agent>
      <dc:title>Matplotlib v3.5.2, https://matplotlib.org/</dc:title>
     </cc:Agent>
    </dc:creator>
   </cc:Work>
  </rdf:RDF>
 </metadata>
 <defs>
  <style type="text/css">*{stroke-linejoin: round; stroke-linecap: butt}</style>
 </defs>
 <g id="figure_1">
  <g id="patch_1">
   <path d="M 0 320.112687 
L 394.100397 320.112687 
L 394.100397 0 
L 0 0 
z
" style="fill: #ffffff; stroke: #ffffff; stroke-linejoin: miter"/>
  </g>
  <g id="axes_1">
   <g id="patch_2">
    <path d="M 49.78375 284.4 
L 384.58375 284.4 
L 384.58375 7.2 
L 49.78375 7.2 
z
" style="fill: #ebebeb"/>
   </g>
   <g id="matplotlib.axis_1">
    <g id="xtick_1">
     <g id="line2d_1">
      <path d="M 53.066103 284.4 
L 53.066103 7.2 
" clip-path="url(#p9ba2031228)" style="fill: none; stroke: #ffffff"/>
     </g>
     <g id="line2d_2">
      <path d="M 53.066103 284.4 
" style="fill: none; stroke: #333333; stroke-width: 1.5"/>
      <defs>
       <path id="me898300e49" d="M 0 0 
L 0 2.75 
" style="stroke: #000000"/>
      </defs>
      <g>
       <use xlink:href="#me898300e49" x="53.066103" y="284.4" style="fill: #333333; stroke: #000000"/>
      </g>
     </g>
     <g id="text_1">
      <!-- 0 -->
      <g style="fill: #4d4d4d" transform="translate(50.266603 296.036625)scale(0.088 -0.088)">
       <defs>
        <path id="DejaVuSans-30" d="M 2034 4250 
Q 1547 4250 1301 3770 
Q 1056 3291 1056 2328 
Q 1056 1369 1301 889 
Q 1547 409 2034 409 
Q 2525 409 2770 889 
Q 3016 1369 3016 2328 
Q 3016 3291 2770 3770 
Q 2525 4250 2034 4250 
z
M 2034 4750 
Q 2819 4750 3233 4129 
Q 3647 3509 3647 2328 
Q 3647 1150 3233 529 
Q 2819 -91 2034 -91 
Q 1250 -91 836 529 
Q 422 1150 422 2328 
Q 422 3509 836 4129 
Q 1250 4750 2034 4750 
z
" transform="scale(0.015625)"/>
       </defs>
       <use xlink:href="#DejaVuSans-30"/>
      </g>
     </g>
    </g>
    <g id="xtick_2">
     <g id="line2d_3">
      <path d="M 135.124926 284.4 
L 135.124926 7.2 
" clip-path="url(#p9ba2031228)" style="fill: none; stroke: #ffffff"/>
     </g>
     <g id="line2d_4">
      <path d="M 135.124926 284.4 
" style="fill: none; stroke: #333333; stroke-width: 1.5"/>
      <g>
       <use xlink:href="#me898300e49" x="135.124926" y="284.4" style="fill: #333333; stroke: #000000"/>
      </g>
     </g>
     <g id="text_2">
      <!-- 2.5 -->
      <g style="fill: #4d4d4d" transform="translate(128.127551 296.036625)scale(0.088 -0.088)">
       <defs>
        <path id="DejaVuSans-32" d="M 1228 531 
L 3431 531 
L 3431 0 
L 469 0 
L 469 531 
Q 828 903 1448 1529 
Q 2069 2156 2228 2338 
Q 2531 2678 2651 2914 
Q 2772 3150 2772 3378 
Q 2772 3750 2511 3984 
Q 2250 4219 1831 4219 
Q 1534 4219 1204 4116 
Q 875 4013 500 3803 
L 500 4441 
Q 881 4594 1212 4672 
Q 1544 4750 1819 4750 
Q 2544 4750 2975 4387 
Q 3406 4025 3406 3419 
Q 3406 3131 3298 2873 
Q 3191 2616 2906 2266 
Q 2828 2175 2409 1742 
Q 1991 1309 1228 531 
z
" transform="scale(0.015625)"/>
        <path id="DejaVuSans-2e" d="M 684 794 
L 1344 794 
L 1344 0 
L 684 0 
L 684 794 
z
" transform="scale(0.015625)"/>
        <path id="DejaVuSans-35" d="M 691 4666 
L 3169 4666 
L 3169 4134 
L 1269 4134 
L 1269 2991 
Q 1406 3038 1543 3061 
Q 1681 3084 1819 3084 
Q 2600 3084 3056 2656 
Q 3513 2228 3513 1497 
Q 3513 744 3044 326 
Q 2575 -91 1722 -91 
Q 1428 -91 1123 -41 
Q 819 9 494 109 
L 494 744 
Q 775 591 1075 516 
Q 1375 441 1709 441 
Q 2250 441 2565 725 
Q 2881 1009 2881 1497 
Q 2881 1984 2565 2268 
Q 2250 2553 1709 2553 
Q 1456 2553 1204 2497 
Q 953 2441 691 2322 
L 691 4666 
z
" transform="scale(0.015625)"/>
       </defs>
       <use xlink:href="#DejaVuSans-32"/>
       <use xlink:href="#DejaVuSans-2e" x="63.623047"/>
       <use xlink:href="#DejaVuSans-35" x="95.410156"/>
      </g>
     </g>
    </g>
    <g id="xtick_3">
     <g id="line2d_5">
      <path d="M 217.18375 284.4 
L 217.18375 7.2 
" clip-path="url(#p9ba2031228)" style="fill: none; stroke: #ffffff"/>
     </g>
     <g id="line2d_6">
      <path d="M 217.18375 284.4 
" style="fill: none; stroke: #333333; stroke-width: 1.5"/>
      <g>
       <use xlink:href="#me898300e49" x="217.18375" y="284.4" style="fill: #333333; stroke: #000000"/>
      </g>
     </g>
     <g id="text_3">
      <!-- 5 -->
      <g style="fill: #4d4d4d" transform="translate(214.38425 296.036625)scale(0.088 -0.088)">
       <use xlink:href="#DejaVuSans-35"/>
      </g>
     </g>
    </g>
    <g id="xtick_4">
     <g id="line2d_7">
      <path d="M 299.242574 284.4 
L 299.242574 7.2 
" clip-path="url(#p9ba2031228)" style="fill: none; stroke: #ffffff"/>
     </g>
     <g id="line2d_8">
      <path d="M 299.242574 284.4 
" style="fill: none; stroke: #333333; stroke-width: 1.5"/>
      <g>
       <use xlink:href="#me898300e49" x="299.242574" y="284.4" style="fill: #333333; stroke: #000000"/>
      </g>
     </g>
     <g id="text_4">
      <!-- 7.5 -->
      <g style="fill: #4d4d4d" transform="translate(292.245199 296.036625)scale(0.088 -0.088)">
       <defs>
        <path id="DejaVuSans-37" d="M 525 4666 
L 3525 4666 
L 3525 4397 
L 1831 0 
L 1172 0 
L 2766 4134 
L 525 4134 
L 525 4666 
z
" transform="scale(0.015625)"/>
       </defs>
       <use xlink:href="#DejaVuSans-37"/>
       <use xlink:href="#DejaVuSans-2e" x="63.623047"/>
       <use xlink:href="#DejaVuSans-35" x="95.410156"/>
      </g>
     </g>
    </g>
    <g id="xtick_5">
     <g id="line2d_9">
      <path d="M 381.301397 284.4 
L 381.301397 7.2 
" clip-path="url(#p9ba2031228)" style="fill: none; stroke: #ffffff"/>
     </g>
     <g id="line2d_10">
      <path d="M 381.301397 284.4 
" style="fill: none; stroke: #333333; stroke-width: 1.5"/>
      <g>
       <use xlink:href="#me898300e49" x="381.301397" y="284.4" style="fill: #333333; stroke: #000000"/>
      </g>
     </g>
     <g id="text_5">
      <!-- 10 -->
      <g style="fill: #4d4d4d" transform="translate(375.702397 296.036625)scale(0.088 -0.088)">
       <defs>
        <path id="DejaVuSans-31" d="M 794 531 
L 1825 531 
L 1825 4091 
L 703 3866 
L 703 4441 
L 1819 4666 
L 2450 4666 
L 2450 531 
L 3481 531 
L 3481 0 
L 794 0 
L 794 531 
z
" transform="scale(0.015625)"/>
       </defs>
       <use xlink:href="#DejaVuSans-31"/>
       <use xlink:href="#DejaVuSans-30" x="63.623047"/>
      </g>
     </g>
    </g>
    <g id="xtick_6">
     <g id="line2d_11">
      <path d="M 94.095515 284.4 
L 94.095515 7.2 
" clip-path="url(#p9ba2031228)" style="fill: none; stroke: #ffffff; stroke-width: 0.5"/>
     </g>
    </g>
    <g id="xtick_7">
     <g id="line2d_12">
      <path d="M 176.154338 284.4 
L 176.154338 7.2 
" clip-path="url(#p9ba2031228)" style="fill: none; stroke: #ffffff; stroke-width: 0.5"/>
     </g>
    </g>
    <g id="xtick_8">
     <g id="line2d_13">
      <path d="M 258.213162 284.4 
L 258.213162 7.2 
" clip-path="url(#p9ba2031228)" style="fill: none; stroke: #ffffff; stroke-width: 0.5"/>
     </g>
    </g>
    <g id="xtick_9">
     <g id="line2d_14">
      <path d="M 340.271985 284.4 
L 340.271985 7.2 
" clip-path="url(#p9ba2031228)" style="fill: none; stroke: #ffffff; stroke-width: 0.5"/>
     </g>
    </g>
    <g id="text_6">
     <!-- x -->
     <g transform="translate(208.528437 310.625031)scale(0.11 -0.11)">
      <defs>
       <path id="DejaVuSans-78" d="M 3513 3500 
L 2247 1797 
L 3578 0 
L 2900 0 
L 1881 1375 
L 863 0 
L 184 0 
L 1544 1831 
L 300 3500 
L 978 3500 
L 1906 2253 
L 2834 3500 
L 3513 3500 
z
" transform="scale(0.015625)"/>
      </defs>
      <use xlink:href="#DejaVuSans-78"/>
     </g>
    </g>
   </g>
   <g id="matplotlib.axis_2">
    <g id="ytick_1">
     <g id="line2d_15">
      <path d="M 49.78375 271.548252 
L 384.58375 271.548252 
" clip-path="url(#p9ba2031228)" style="fill: none; stroke: #ffffff"/>
     </g>
     <g id="line2d_16">
      <path d="M 49.78375 271.548252 
" style="fill: none; stroke: #333333; stroke-width: 1.5"/>
      <defs>
       <path id="m30288bf7bd" d="M 0 0 
L -2.75 0 
" style="stroke: #000000"/>
      </defs>
      <g>
       <use xlink:href="#m30288bf7bd" x="49.78375" y="271.548252" style="fill: #333333; stroke: #000000"/>
      </g>
     </g>
     <g id="text_7">
      <!-- 0 -->
      <g style="fill: #4d4d4d" transform="translate(39.23475 273.976502)scale(0.088 -0.088)">
       <use xlink:href="#DejaVuSans-30"/>
      </g>
     </g>
    </g>
    <g id="ytick_2">
     <g id="line2d_17">
      <path d="M 49.78375 208.611189 
L 384.58375 208.611189 
" clip-path="url(#p9ba2031228)" style="fill: none; stroke: #ffffff"/>
     </g>
     <g id="line2d_18">
      <path d="M 49.78375 208.611189 
" style="fill: none; stroke: #333333; stroke-width: 1.5"/>
      <g>
       <use xlink:href="#m30288bf7bd" x="49.78375" y="208.611189" style="fill: #333333; stroke: #000000"/>
      </g>
     </g>
     <g id="text_8">
      <!-- 0.25 -->
      <g style="fill: #4d4d4d" transform="translate(25.24 211.039439)scale(0.088 -0.088)">
       <use xlink:href="#DejaVuSans-30"/>
       <use xlink:href="#DejaVuSans-2e" x="63.623047"/>
       <use xlink:href="#DejaVuSans-32" x="95.410156"/>
       <use xlink:href="#DejaVuSans-35" x="159.033203"/>
      </g>
     </g>
    </g>
    <g id="ytick_3">
     <g id="line2d_19">
      <path d="M 49.78375 145.674126 
L 384.58375 145.674126 
" clip-path="url(#p9ba2031228)" style="fill: none; stroke: #ffffff"/>
     </g>
     <g id="line2d_20">
      <path d="M 49.78375 145.674126 
" style="fill: none; stroke: #333333; stroke-width: 1.5"/>
      <g>
       <use xlink:href="#m30288bf7bd" x="49.78375" y="145.674126" style="fill: #333333; stroke: #000000"/>
      </g>
     </g>
     <g id="text_9">
      <!-- 0.50 -->
      <g style="fill: #4d4d4d" transform="translate(25.24 148.102376)scale(0.088 -0.088)">
       <use xlink:href="#DejaVuSans-30"/>
       <use xlink:href="#DejaVuSans-2e" x="63.623047"/>
       <use xlink:href="#DejaVuSans-35" x="95.410156"/>
       <use xlink:href="#DejaVuSans-30" x="159.033203"/>
      </g>
     </g>
    </g>
    <g id="ytick_4">
     <g id="line2d_21">
      <path d="M 49.78375 82.737063 
L 384.58375 82.737063 
" clip-path="url(#p9ba2031228)" style="fill: none; stroke: #ffffff"/>
     </g>
     <g id="line2d_22">
      <path d="M 49.78375 82.737063 
" style="fill: none; stroke: #333333; stroke-width: 1.5"/>
      <g>
       <use xlink:href="#m30288bf7bd" x="49.78375" y="82.737063" style="fill: #333333; stroke: #000000"/>
      </g>
     </g>
     <g id="text_10">
      <!-- 0.75 -->
      <g style="fill: #4d4d4d" transform="translate(25.24 85.165313)scale(0.088 -0.088)">
       <use xlink:href="#DejaVuSans-30"/>
       <use xlink:href="#DejaVuSans-2e" x="63.623047"/>
       <use xlink:href="#DejaVuSans-37" x="95.410156"/>
       <use xlink:href="#DejaVuSans-35" x="159.033203"/>
      </g>
     </g>
    </g>
    <g id="ytick_5">
     <g id="line2d_23">
      <path d="M 49.78375 19.8 
L 384.58375 19.8 
" clip-path="url(#p9ba2031228)" style="fill: none; stroke: #ffffff"/>
     </g>
     <g id="line2d_24">
      <path d="M 49.78375 19.8 
" style="fill: none; stroke: #333333; stroke-width: 1.5"/>
      <g>
       <use xlink:href="#m30288bf7bd" x="49.78375" y="19.8" style="fill: #333333; stroke: #000000"/>
      </g>
     </g>
     <g id="text_11">
      <!-- 1 -->
      <g style="fill: #4d4d4d" transform="translate(39.23475 22.22825)scale(0.088 -0.088)">
       <use xlink:href="#DejaVuSans-31"/>
      </g>
     </g>
    </g>
    <g id="ytick_6">
     <g id="line2d_25">
      <path d="M 49.78375 240.07972 
L 384.58375 240.07972 
" clip-path="url(#p9ba2031228)" style="fill: none; stroke: #ffffff; stroke-width: 0.5"/>
     </g>
    </g>
    <g id="ytick_7">
     <g id="line2d_26">
      <path d="M 49.78375 177.142657 
L 384.58375 177.142657 
" clip-path="url(#p9ba2031228)" style="fill: none; stroke: #ffffff; stroke-width: 0.5"/>
     </g>
    </g>
    <g id="ytick_8">
     <g id="line2d_27">
      <path d="M 49.78375 114.205594 
L 384.58375 114.205594 
" clip-path="url(#p9ba2031228)" style="fill: none; stroke: #ffffff; stroke-width: 0.5"/>
     </g>
    </g>
    <g id="ytick_9">
     <g id="line2d_28">
      <path d="M 49.78375 51.268531 
L 384.58375 51.268531 
" clip-path="url(#p9ba2031228)" style="fill: none; stroke: #ffffff; stroke-width: 0.5"/>
     </g>
    </g>
    <g id="text_12">
     <!-- $\hat F(x)$ -->
     <g transform="translate(18.552344 154.725)rotate(-90)scale(0.11 -0.11)">
      <defs>
       <path id="DejaVuSans-302" d="M -1831 5119 
L -1369 5119 
L -603 3944 
L -1038 3944 
L -1600 4709 
L -2163 3944 
L -2597 3944 
L -1831 5119 
z
M -1600 3584 
L -1600 3584 
z
" transform="scale(0.015625)"/>
       <path id="DejaVuSans-Oblique-46" d="M 1081 4666 
L 3756 4666 
L 3653 4134 
L 1606 4134 
L 1338 2759 
L 3188 2759 
L 3084 2228 
L 1234 2228 
L 800 0 
L 172 0 
L 1081 4666 
z
" transform="scale(0.015625)"/>
       <path id="DejaVuSans-28" d="M 1984 4856 
Q 1566 4138 1362 3434 
Q 1159 2731 1159 2009 
Q 1159 1288 1364 580 
Q 1569 -128 1984 -844 
L 1484 -844 
Q 1016 -109 783 600 
Q 550 1309 550 2009 
Q 550 2706 781 3412 
Q 1013 4119 1484 4856 
L 1984 4856 
z
" transform="scale(0.015625)"/>
       <path id="DejaVuSans-Oblique-78" d="M 3841 3500 
L 2234 1784 
L 3219 0 
L 2559 0 
L 1819 1388 
L 531 0 
L -166 0 
L 1556 1844 
L 641 3500 
L 1300 3500 
L 1972 2234 
L 3144 3500 
L 3841 3500 
z
" transform="scale(0.015625)"/>
       <path id="DejaVuSans-29" d="M 513 4856 
L 1013 4856 
Q 1481 4119 1714 3412 
Q 1947 2706 1947 2009 
Q 1947 1309 1714 600 
Q 1481 -109 1013 -844 
L 513 -844 
Q 928 -128 1133 580 
Q 1338 1288 1338 2009 
Q 1338 2731 1133 3434 
Q 928 4138 513 4856 
z
" transform="scale(0.015625)"/>
      </defs>
      <use xlink:href="#DejaVuSans-302" transform="translate(59.578125 30.015625)"/>
      <use xlink:href="#DejaVuSans-Oblique-46" transform="translate(0 0.609375)"/>
      <use xlink:href="#DejaVuSans-28" transform="translate(57.519531 0.609375)"/>
      <use xlink:href="#DejaVuSans-Oblique-78" transform="translate(96.533203 0.609375)"/>
      <use xlink:href="#DejaVuSans-29" transform="translate(155.712891 0.609375)"/>
     </g>
    </g>
   </g>
   <g id="line2d_29">
    <path d="M 85.889632 271.8 
L 85.889632 271.548252 
" clip-path="url(#p9ba2031228)" style="fill: none; stroke-dasharray: 5.671852,1.417963,0.886227,1.417963; stroke-dashoffset: 0; stroke: #808080; stroke-width: 0.886227"/>
   </g>
   <g id="patch_3">
    <path d="M 89.616627 285.457584 
L 85.889632 271.548252 
L 82.162638 285.457584 
" clip-path="url(#p9ba2031228)" style="fill: #808080; stroke-dasharray: 5.671852,1.417963,0.886227,1.417963; stroke-dashoffset: 0; stroke: #808080; stroke-width: 0.886227"/>
   </g>
   <g id="line2d_30">
    <path d="M 115.430809 271.548252 
L 115.430809 242.500377 
" clip-path="url(#p9ba2031228)" style="fill: none; stroke-dasharray: 5.671852,1.417963,0.886227,1.417963; stroke-dashoffset: 0; stroke: #808080; stroke-width: 0.886227"/>
   </g>
   <g id="patch_4">
    <path d="M 119.157803 256.409708 
L 115.430809 242.500377 
L 111.703815 256.409708 
" clip-path="url(#p9ba2031228)" style="fill: #808080; stroke-dasharray: 5.671852,1.417963,0.886227,1.417963; stroke-dashoffset: 0; stroke: #808080; stroke-width: 0.886227"/>
   </g>
   <g id="line2d_31">
    <path d="M 121.995515 271.548252 
L 121.995515 242.500377 
" clip-path="url(#p9ba2031228)" style="fill: none; stroke-dasharray: 5.671852,1.417963,0.886227,1.417963; stroke-dashoffset: 0; stroke: #808080; stroke-width: 0.886227"/>
   </g>
   <g id="patch_5">
    <path d="M 125.722509 256.409708 
L 121.995515 242.500377 
L 118.26852 256.409708 
" clip-path="url(#p9ba2031228)" style="fill: #808080; stroke-dasharray: 5.671852,1.417963,0.886227,1.417963; stroke-dashoffset: 0; stroke: #808080; stroke-width: 0.886227"/>
   </g>
   <g id="line2d_32">
    <path d="M 151.536691 271.548252 
L 151.536691 213.452501 
" clip-path="url(#p9ba2031228)" style="fill: none; stroke-dasharray: 5.671852,1.417963,0.886227,1.417963; stroke-dashoffset: 0; stroke: #808080; stroke-width: 0.886227"/>
   </g>
   <g id="patch_6">
    <path d="M 155.263685 227.361833 
L 151.536691 213.452501 
L 147.809697 227.361833 
" clip-path="url(#p9ba2031228)" style="fill: #808080; stroke-dasharray: 5.671852,1.417963,0.886227,1.417963; stroke-dashoffset: 0; stroke: #808080; stroke-width: 0.886227"/>
   </g>
   <g id="line2d_33">
    <path d="M 174.513162 271.548252 
L 174.513162 145.674126 
" clip-path="url(#p9ba2031228)" style="fill: none; stroke-dasharray: 5.671852,1.417963,0.886227,1.417963; stroke-dashoffset: 0; stroke: #808080; stroke-width: 0.886227"/>
   </g>
   <g id="patch_7">
    <path d="M 178.240156 159.583458 
L 174.513162 145.674126 
L 170.786168 159.583458 
" clip-path="url(#p9ba2031228)" style="fill: #808080; stroke-dasharray: 5.671852,1.417963,0.886227,1.417963; stroke-dashoffset: 0; stroke: #808080; stroke-width: 0.886227"/>
   </g>
   <g id="line2d_34">
    <path d="M 178.451985 271.548252 
L 178.451985 145.674126 
" clip-path="url(#p9ba2031228)" style="fill: none; stroke-dasharray: 5.671852,1.417963,0.886227,1.417963; stroke-dashoffset: 0; stroke: #808080; stroke-width: 0.886227"/>
   </g>
   <g id="patch_8">
    <path d="M 182.17898 159.583458 
L 178.451985 145.674126 
L 174.724991 159.583458 
" clip-path="url(#p9ba2031228)" style="fill: #808080; stroke-dasharray: 5.671852,1.417963,0.886227,1.417963; stroke-dashoffset: 0; stroke: #808080; stroke-width: 0.886227"/>
   </g>
   <g id="line2d_35">
    <path d="M 182.390809 271.548252 
L 182.390809 145.674126 
" clip-path="url(#p9ba2031228)" style="fill: none; stroke-dasharray: 5.671852,1.417963,0.886227,1.417963; stroke-dashoffset: 0; stroke: #808080; stroke-width: 0.886227"/>
   </g>
   <g id="patch_9">
    <path d="M 186.117803 159.583458 
L 182.390809 145.674126 
L 178.663815 159.583458 
" clip-path="url(#p9ba2031228)" style="fill: #808080; stroke-dasharray: 5.671852,1.417963,0.886227,1.417963; stroke-dashoffset: 0; stroke: #808080; stroke-width: 0.886227"/>
   </g>
   <g id="line2d_36">
    <path d="M 186.329632 271.548252 
L 186.329632 145.674126 
" clip-path="url(#p9ba2031228)" style="fill: none; stroke-dasharray: 5.671852,1.417963,0.886227,1.417963; stroke-dashoffset: 0; stroke: #808080; stroke-width: 0.886227"/>
   </g>
   <g id="patch_10">
    <path d="M 190.056627 159.583458 
L 186.329632 145.674126 
L 182.602638 159.583458 
" clip-path="url(#p9ba2031228)" style="fill: #808080; stroke-dasharray: 5.671852,1.417963,0.886227,1.417963; stroke-dashoffset: 0; stroke: #808080; stroke-width: 0.886227"/>
   </g>
   <g id="line2d_37">
    <path d="M 190.268456 271.548252 
L 190.268456 145.674126 
" clip-path="url(#p9ba2031228)" style="fill: none; stroke-dasharray: 5.671852,1.417963,0.886227,1.417963; stroke-dashoffset: 0; stroke: #808080; stroke-width: 0.886227"/>
   </g>
   <g id="patch_11">
    <path d="M 193.99545 159.583458 
L 190.268456 145.674126 
L 186.541462 159.583458 
" clip-path="url(#p9ba2031228)" style="fill: #808080; stroke-dasharray: 5.671852,1.417963,0.886227,1.417963; stroke-dashoffset: 0; stroke: #808080; stroke-width: 0.886227"/>
   </g>
   <g id="line2d_38">
    <path d="M 194.207279 271.548252 
L 194.207279 145.674126 
" clip-path="url(#p9ba2031228)" style="fill: none; stroke-dasharray: 5.671852,1.417963,0.886227,1.417963; stroke-dashoffset: 0; stroke: #808080; stroke-width: 0.886227"/>
   </g>
   <g id="patch_12">
    <path d="M 197.934274 159.583458 
L 194.207279 145.674126 
L 190.480285 159.583458 
" clip-path="url(#p9ba2031228)" style="fill: #808080; stroke-dasharray: 5.671852,1.417963,0.886227,1.417963; stroke-dashoffset: 0; stroke: #808080; stroke-width: 0.886227"/>
   </g>
   <g id="line2d_39">
    <path d="M 217.18375 271.548252 
L 217.18375 77.89575 
" clip-path="url(#p9ba2031228)" style="fill: none; stroke-dasharray: 5.671852,1.417963,0.886227,1.417963; stroke-dashoffset: 0; stroke: #808080; stroke-width: 0.886227"/>
   </g>
   <g id="patch_13">
    <path d="M 220.910744 91.805082 
L 217.18375 77.89575 
L 213.456756 91.805082 
" clip-path="url(#p9ba2031228)" style="fill: #808080; stroke-dasharray: 5.671852,1.417963,0.886227,1.417963; stroke-dashoffset: 0; stroke: #808080; stroke-width: 0.886227"/>
   </g>
   <g id="line2d_40">
    <path d="M 282.830809 271.548252 
L 282.830809 58.5305 
" clip-path="url(#p9ba2031228)" style="fill: none; stroke-dasharray: 5.671852,1.417963,0.886227,1.417963; stroke-dashoffset: 0; stroke: #808080; stroke-width: 0.886227"/>
   </g>
   <g id="patch_14">
    <path d="M 286.557803 72.439832 
L 282.830809 58.5305 
L 279.103815 72.439832 
" clip-path="url(#p9ba2031228)" style="fill: #808080; stroke-dasharray: 5.671852,1.417963,0.886227,1.417963; stroke-dashoffset: 0; stroke: #808080; stroke-width: 0.886227"/>
   </g>
   <g id="line2d_41">
    <path d="M 315.654338 271.548252 
L 315.654338 39.16525 
" clip-path="url(#p9ba2031228)" style="fill: none; stroke-dasharray: 5.671852,1.417963,0.886227,1.417963; stroke-dashoffset: 0; stroke: #808080; stroke-width: 0.886227"/>
   </g>
   <g id="patch_15">
    <path d="M 319.381332 53.074582 
L 315.654338 39.16525 
L 311.927344 53.074582 
" clip-path="url(#p9ba2031228)" style="fill: #808080; stroke-dasharray: 5.671852,1.417963,0.886227,1.417963; stroke-dashoffset: 0; stroke: #808080; stroke-width: 0.886227"/>
   </g>
   <g id="line2d_42">
    <path d="M 348.477868 271.548252 
L 348.477868 19.8 
" clip-path="url(#p9ba2031228)" style="fill: none; stroke-dasharray: 5.671852,1.417963,0.886227,1.417963; stroke-dashoffset: 0; stroke: #808080; stroke-width: 0.886227"/>
   </g>
   <g id="patch_16">
    <path d="M 352.204862 33.709332 
L 348.477868 19.8 
L 344.750873 33.709332 
" clip-path="url(#p9ba2031228)" style="fill: #808080; stroke-dasharray: 5.671852,1.417963,0.886227,1.417963; stroke-dashoffset: 0; stroke: #808080; stroke-width: 0.886227"/>
   </g>
   <g id="line2d_43">
    <path d="M 53.066103 271.548252 
L 86.251053 271.528867 
L 86.251053 271.335021 
L 86.579616 271.335021 
L 86.579616 271.141174 
L 86.90818 271.141174 
L 86.90818 270.947328 
L 87.236744 270.947328 
L 87.236744 270.753482 
L 87.565308 270.753482 
L 87.565308 270.559635 
L 87.893872 270.559635 
L 87.893872 270.365789 
L 88.222436 270.365789 
L 88.222436 270.171943 
L 88.551 270.171943 
L 88.551 269.978096 
L 88.879563 269.978096 
L 88.879563 269.78425 
L 89.208127 269.78425 
L 89.208127 269.590404 
L 89.536691 269.590404 
L 89.536691 269.396557 
L 89.865255 269.396557 
L 89.865255 269.202711 
L 90.193819 269.202711 
L 90.193819 269.008865 
L 90.522383 269.008865 
L 90.522383 268.815018 
L 90.850947 268.815018 
L 90.850947 268.621172 
L 91.17951 268.621172 
L 91.17951 268.427326 
L 91.508074 268.427326 
L 91.508074 268.233479 
L 91.836638 268.233479 
L 91.836638 268.039633 
L 92.165202 268.039633 
L 92.165202 267.845787 
L 92.493766 267.845787 
L 92.493766 267.65194 
L 92.82233 267.65194 
L 92.82233 267.458094 
L 93.150894 267.458094 
L 93.150894 267.264247 
L 93.479457 267.264247 
L 93.479457 267.070401 
L 93.808021 267.070401 
L 93.808021 266.876555 
L 94.136585 266.876555 
L 94.136585 266.682708 
L 94.465149 266.682708 
L 94.465149 266.488862 
L 94.793713 266.488862 
L 94.793713 266.295016 
L 95.122277 266.295016 
L 95.122277 266.101169 
L 95.450841 266.101169 
L 95.450841 265.907323 
L 95.779404 265.907323 
L 95.779404 265.713477 
L 96.107968 265.713477 
L 96.107968 265.51963 
L 96.436532 265.51963 
L 96.436532 265.325784 
L 96.765096 265.325784 
L 96.765096 265.131938 
L 97.09366 265.131938 
L 97.09366 264.938091 
L 97.422224 264.938091 
L 97.422224 264.744245 
L 97.750788 264.744245 
L 97.750788 264.550399 
L 98.079351 264.550399 
L 98.079351 264.356552 
L 98.407915 264.356552 
L 98.407915 264.162706 
L 98.736479 264.162706 
L 98.736479 263.96886 
L 99.065043 263.96886 
L 99.065043 263.775013 
L 99.393607 263.775013 
L 99.393607 263.581167 
L 99.722171 263.581167 
L 99.722171 263.387321 
L 100.050735 263.387321 
L 100.050735 263.193474 
L 100.379298 263.193474 
L 100.379298 262.999628 
L 100.707862 262.999628 
L 100.707862 262.805781 
L 101.036426 262.805781 
L 101.036426 262.611935 
L 101.36499 262.611935 
L 101.36499 262.418089 
L 101.693554 262.418089 
L 101.693554 262.224242 
L 102.022118 262.224242 
L 102.022118 262.030396 
L 102.350682 262.030396 
L 102.350682 261.83655 
L 102.679245 261.83655 
L 102.679245 261.642703 
L 103.007809 261.642703 
L 103.007809 261.448857 
L 103.336373 261.448857 
L 103.336373 261.255011 
L 103.664937 261.255011 
L 103.664937 261.061164 
L 103.993501 261.061164 
L 103.993501 260.867318 
L 104.322065 260.867318 
L 104.322065 260.673472 
L 104.650629 260.673472 
L 104.650629 260.479625 
L 104.979193 260.479625 
L 104.979193 260.285779 
L 105.307756 260.285779 
L 105.307756 260.091933 
L 105.63632 260.091933 
L 105.63632 259.898086 
L 105.964884 259.898086 
L 105.964884 259.70424 
L 106.293448 259.70424 
L 106.293448 259.510394 
L 106.622012 259.510394 
L 106.622012 259.316547 
L 106.950576 259.316547 
L 106.950576 259.122701 
L 107.27914 259.122701 
L 107.27914 258.928855 
L 107.607703 258.928855 
L 107.607703 258.735008 
L 107.936267 258.735008 
L 107.936267 258.541162 
L 108.264831 258.541162 
L 108.264831 258.347315 
L 108.593395 258.347315 
L 108.593395 258.153469 
L 108.921959 258.153469 
L 108.921959 257.959623 
L 109.250523 257.959623 
L 109.250523 257.765776 
L 109.579087 257.765776 
L 109.579087 257.57193 
L 109.90765 257.57193 
L 109.90765 257.378084 
L 110.236214 257.378084 
L 110.236214 257.184237 
L 110.564778 257.184237 
L 110.564778 256.990391 
L 110.893342 256.990391 
L 110.893342 256.796545 
L 111.221906 256.796545 
L 111.221906 256.602698 
L 111.55047 256.602698 
L 111.55047 256.408852 
L 111.879034 256.408852 
L 111.879034 256.215006 
L 112.207597 256.215006 
L 112.207597 256.021159 
L 112.536161 256.021159 
L 112.536161 255.827313 
L 112.864725 255.827313 
L 112.864725 255.633467 
L 113.193289 255.633467 
L 113.193289 255.43962 
L 113.521853 255.43962 
L 113.521853 255.245774 
L 113.850417 255.245774 
L 113.850417 255.051928 
L 114.178981 255.051928 
L 114.178981 254.858081 
L 114.507544 254.858081 
L 114.507544 254.664235 
L 114.836108 254.664235 
L 114.836108 254.470389 
L 115.164672 254.470389 
L 115.164672 254.276542 
L 115.493236 254.276542 
L 115.493236 254.082696 
L 115.8218 254.082696 
L 115.8218 253.888849 
L 116.150364 253.888849 
L 116.150364 253.695003 
L 116.478928 253.695003 
L 116.478928 253.501157 
L 116.807491 253.501157 
L 116.807491 253.30731 
L 117.136055 253.30731 
L 117.136055 253.113464 
L 117.464619 253.113464 
L 117.464619 252.919618 
L 117.793183 252.919618 
L 117.793183 252.725771 
L 118.121747 252.725771 
L 118.121747 252.531925 
L 118.450311 252.531925 
L 118.450311 252.338079 
L 118.778875 252.338079 
L 118.778875 232.778982 
L 119.107438 232.778982 
L 119.107438 232.585136 
L 119.436002 232.585136 
L 119.436002 232.39129 
L 119.764566 232.39129 
L 119.764566 232.197443 
L 120.09313 232.197443 
L 120.09313 232.003597 
L 120.421694 232.003597 
L 120.421694 231.80975 
L 120.750258 231.80975 
L 120.750258 231.615904 
L 121.078822 231.615904 
L 121.078822 231.422058 
L 121.407385 231.422058 
L 121.407385 231.228211 
L 121.735949 231.228211 
L 121.735949 231.034365 
L 122.064513 231.034365 
L 122.064513 230.840519 
L 122.393077 230.840519 
L 122.393077 230.646672 
L 122.721641 230.646672 
L 122.721641 230.452826 
L 123.050205 230.452826 
L 123.050205 230.25898 
L 123.378769 230.25898 
L 123.378769 230.065133 
L 123.707332 230.065133 
L 123.707332 229.871287 
L 124.035896 229.871287 
L 124.035896 229.677441 
L 124.36446 229.677441 
L 124.36446 229.483594 
L 124.693024 229.483594 
L 124.693024 229.289748 
L 125.021588 229.289748 
L 125.021588 229.095902 
L 125.350152 229.095902 
L 125.350152 228.902055 
L 125.678716 228.902055 
L 125.678716 228.708209 
L 126.007279 228.708209 
L 126.007279 228.514363 
L 126.335843 228.514363 
L 126.335843 228.320516 
L 126.664407 228.320516 
L 126.664407 228.12667 
L 126.992971 228.12667 
L 126.992971 227.932824 
L 127.321535 227.932824 
L 127.321535 227.738977 
L 127.650099 227.738977 
L 127.650099 227.545131 
L 127.978663 227.545131 
L 127.978663 227.351284 
L 128.307226 227.351284 
L 128.307226 227.157438 
L 128.63579 227.157438 
L 128.63579 226.963592 
L 128.964354 226.963592 
L 128.964354 226.769745 
L 129.292918 226.769745 
L 129.292918 226.575899 
L 129.621482 226.575899 
L 129.621482 226.382053 
L 129.950046 226.382053 
L 129.950046 226.188206 
L 130.27861 226.188206 
L 130.27861 225.99436 
L 130.607173 225.99436 
L 130.607173 225.800514 
L 130.935737 225.800514 
L 130.935737 225.606667 
L 131.264301 225.606667 
L 131.264301 225.412821 
L 131.592865 225.412821 
L 131.592865 225.218975 
L 131.921429 225.218975 
L 131.921429 225.025128 
L 132.249993 225.025128 
L 132.249993 224.831282 
L 132.578557 224.831282 
L 132.578557 224.637436 
L 132.90712 224.637436 
L 132.90712 224.443589 
L 133.235684 224.443589 
L 133.235684 224.249743 
L 133.564248 224.249743 
L 133.564248 224.055897 
L 133.892812 224.055897 
L 133.892812 223.86205 
L 134.221376 223.86205 
L 134.221376 223.668204 
L 134.54994 223.668204 
L 134.54994 223.474358 
L 134.878504 223.474358 
L 134.878504 223.280511 
L 135.207067 223.280511 
L 135.207067 223.086665 
L 135.535631 223.086665 
L 135.535631 222.892818 
L 135.864195 222.892818 
L 135.864195 222.698972 
L 136.192759 222.698972 
L 136.192759 222.505126 
L 136.521323 222.505126 
L 136.521323 222.311279 
L 136.849887 222.311279 
L 136.849887 222.117433 
L 137.178451 222.117433 
L 137.178451 221.923587 
L 137.507014 221.923587 
L 137.507014 221.72974 
L 137.835578 221.72974 
L 137.835578 221.535894 
L 138.164142 221.535894 
L 138.164142 221.342048 
L 138.492706 221.342048 
L 138.492706 221.148201 
L 138.82127 221.148201 
L 138.82127 220.954355 
L 139.149834 220.954355 
L 139.149834 220.760509 
L 139.478398 220.760509 
L 139.478398 220.566662 
L 139.806961 220.566662 
L 139.806961 220.372816 
L 140.135525 220.372816 
L 140.135525 220.17897 
L 140.464089 220.17897 
L 140.464089 219.985123 
L 140.792653 219.985123 
L 140.792653 219.791277 
L 141.121217 219.791277 
L 141.121217 219.597431 
L 141.449781 219.597431 
L 141.449781 219.403584 
L 141.778345 219.403584 
L 141.778345 219.209738 
L 142.106908 219.209738 
L 142.106908 219.015892 
L 142.435472 219.015892 
L 142.435472 218.822045 
L 142.764036 218.822045 
L 142.764036 218.628199 
L 143.0926 218.628199 
L 143.0926 218.434352 
L 143.421164 218.434352 
L 143.421164 218.240506 
L 143.749728 218.240506 
L 143.749728 218.04666 
L 144.078292 218.04666 
L 144.078292 217.852813 
L 144.406855 217.852813 
L 144.406855 217.658967 
L 144.735419 217.658967 
L 144.735419 217.465121 
L 145.063983 217.465121 
L 145.063983 217.271274 
L 145.392547 217.271274 
L 145.392547 217.077428 
L 145.721111 217.077428 
L 145.721111 216.883582 
L 146.049675 216.883582 
L 146.049675 216.689735 
L 146.378239 216.689735 
L 146.378239 216.495889 
L 146.706802 216.495889 
L 146.706802 216.302043 
L 147.035366 216.302043 
L 147.035366 216.108196 
L 147.36393 216.108196 
L 147.36393 215.91435 
L 147.692494 215.91435 
L 147.692494 215.720504 
L 148.021058 215.720504 
L 148.021058 215.526657 
L 148.349622 215.526657 
L 148.349622 215.332811 
L 148.678186 215.332811 
L 148.678186 215.138965 
L 149.006749 215.138965 
L 149.006749 214.945118 
L 149.335313 214.945118 
L 149.335313 214.751272 
L 149.663877 214.751272 
L 149.663877 214.557426 
L 149.992441 214.557426 
L 149.992441 214.363579 
L 150.321005 214.363579 
L 150.321005 214.169733 
L 150.649569 214.169733 
L 150.649569 213.975886 
L 150.978133 213.975886 
L 150.978133 213.78204 
L 151.306696 213.78204 
L 151.306696 213.588194 
L 151.63526 213.588194 
L 151.63526 213.394347 
L 151.963824 213.394347 
L 151.963824 213.200501 
L 152.292388 213.200501 
L 152.292388 213.006655 
L 152.620952 213.006655 
L 152.620952 212.812808 
L 152.949516 212.812808 
L 152.949516 212.618962 
L 153.27808 212.618962 
L 153.27808 212.425116 
L 153.606643 212.425116 
L 153.606643 212.231269 
L 153.935207 212.231269 
L 153.935207 212.037423 
L 154.263771 212.037423 
L 154.263771 211.843577 
L 154.592335 211.843577 
L 154.592335 211.64973 
L 154.920899 211.64973 
L 154.920899 211.455884 
L 155.249463 211.455884 
L 155.249463 211.262038 
L 155.578027 211.262038 
L 155.578027 211.068191 
L 155.90659 211.068191 
L 155.90659 210.874345 
L 156.235154 210.874345 
L 156.235154 210.680499 
L 156.563718 210.680499 
L 156.563718 210.486652 
L 156.892282 210.486652 
L 156.892282 210.292806 
L 157.220846 210.292806 
L 157.220846 210.09896 
L 157.54941 210.09896 
L 157.54941 209.905113 
L 157.877974 209.905113 
L 157.877974 209.711267 
L 158.206537 209.711267 
L 158.206537 209.51742 
L 158.535101 209.51742 
L 158.535101 209.323574 
L 158.863665 209.323574 
L 158.863665 209.129728 
L 159.192229 209.129728 
L 159.192229 208.935881 
L 159.520793 208.935881 
L 159.520793 208.742035 
L 159.849357 208.742035 
L 159.849357 208.548189 
L 160.177921 208.548189 
L 160.177921 208.354342 
L 160.506484 208.354342 
L 160.506484 208.160496 
L 160.835048 208.160496 
L 160.835048 207.96665 
L 161.163612 207.96665 
L 161.163612 207.772803 
L 161.492176 207.772803 
L 161.492176 207.578957 
L 161.82074 207.578957 
L 161.82074 207.385111 
L 162.149304 207.385111 
L 162.149304 207.191264 
L 162.477868 207.191264 
L 162.477868 206.997418 
L 162.806432 206.997418 
L 162.806432 206.803572 
L 163.134995 206.803572 
L 163.134995 206.609725 
L 163.463559 206.609725 
L 163.463559 206.415879 
L 163.792123 206.415879 
L 163.792123 206.222033 
L 164.120687 206.222033 
L 164.120687 206.028186 
L 164.449251 206.028186 
L 164.449251 205.83434 
L 164.777815 205.83434 
L 164.777815 205.640494 
L 165.106379 205.640494 
L 165.106379 205.446647 
L 165.434942 205.446647 
L 165.434942 205.252801 
L 165.763506 205.252801 
L 165.763506 205.058954 
L 166.09207 205.058954 
L 166.09207 204.865108 
L 166.420634 204.865108 
L 166.420634 204.671262 
L 166.749198 204.671262 
L 166.749198 204.477415 
L 167.077762 204.477415 
L 167.077762 204.283569 
L 167.406326 204.283569 
L 167.406326 204.089723 
L 167.734889 204.089723 
L 167.734889 203.895876 
L 168.063453 203.895876 
L 168.063453 203.70203 
L 168.392017 203.70203 
L 168.392017 203.508184 
L 168.720581 203.508184 
L 168.720581 203.314337 
L 169.049145 203.314337 
L 169.049145 203.120491 
L 169.377709 203.120491 
L 169.377709 202.926645 
L 169.706273 202.926645 
L 169.706273 202.732798 
L 170.034836 202.732798 
L 170.034836 202.538952 
L 170.3634 202.538952 
L 170.3634 202.345106 
L 170.691964 202.345106 
L 170.691964 202.151259 
L 171.020528 202.151259 
L 171.020528 201.957413 
L 171.349092 201.957413 
L 171.349092 201.763567 
L 171.677656 201.763567 
L 171.677656 201.56972 
L 172.00622 201.56972 
L 172.00622 201.375874 
L 172.334783 201.375874 
L 172.334783 201.182028 
L 172.663347 201.182028 
L 172.663347 200.988181 
L 172.991911 200.988181 
L 172.991911 200.794335 
L 173.320475 200.794335 
L 173.320475 200.600488 
L 173.649039 200.600488 
L 173.649039 200.406642 
L 173.977603 200.406642 
L 173.977603 200.212796 
L 174.306167 200.212796 
L 174.306167 200.018949 
L 174.63473 200.018949 
L 174.63473 199.825103 
L 174.963294 199.825103 
L 174.963294 199.631257 
L 175.291858 199.631257 
L 175.291858 199.43741 
L 175.620422 199.43741 
L 175.620422 199.243564 
L 175.948986 199.243564 
L 175.948986 199.049718 
L 176.27755 199.049718 
L 176.27755 198.855871 
L 176.606114 198.855871 
L 176.606114 198.662025 
L 176.934677 198.662025 
L 176.934677 198.468179 
L 177.263241 198.468179 
L 177.263241 198.274332 
L 177.591805 198.274332 
L 177.591805 198.080486 
L 177.920369 198.080486 
L 177.920369 197.88664 
L 178.248933 197.88664 
L 178.248933 197.692793 
L 178.577497 197.692793 
L 178.577497 197.498947 
L 178.906061 197.498947 
L 178.906061 197.305101 
L 179.234624 197.305101 
L 179.234624 197.111254 
L 179.563188 197.111254 
L 179.563188 196.917408 
L 179.891752 196.917408 
L 179.891752 196.723562 
L 180.220316 196.723562 
L 180.220316 196.529715 
L 180.54888 196.529715 
L 180.54888 196.335869 
L 180.877444 196.335869 
L 180.877444 196.142022 
L 181.206008 196.142022 
L 181.206008 195.948176 
L 181.534571 195.948176 
L 181.534571 195.75433 
L 181.863135 195.75433 
L 181.863135 195.560483 
L 182.191699 195.560483 
L 182.191699 195.366637 
L 182.520263 195.366637 
L 182.520263 195.172791 
L 182.848827 195.172791 
L 182.848827 194.978944 
L 183.177391 194.978944 
L 183.177391 194.785098 
L 183.505955 194.785098 
L 183.505955 194.591252 
L 183.834518 194.591252 
L 183.834518 194.397405 
L 184.163082 194.397405 
L 184.163082 194.203559 
L 184.491646 194.203559 
L 184.491646 97.183462 
L 184.82021 97.183462 
L 184.82021 96.989616 
L 185.148774 96.989616 
L 185.148774 96.795769 
L 185.477338 96.795769 
L 185.477338 96.601923 
L 185.805902 96.601923 
L 185.805902 96.408077 
L 186.134465 96.408077 
L 186.134465 96.21423 
L 186.463029 96.21423 
L 186.463029 96.020384 
L 186.791593 96.020384 
L 186.791593 95.826538 
L 187.120157 95.826538 
L 187.120157 95.632691 
L 187.448721 95.632691 
L 187.448721 95.438845 
L 187.777285 95.438845 
L 187.777285 95.244999 
L 188.105849 95.244999 
L 188.105849 95.051152 
L 188.434412 95.051152 
L 188.434412 94.857306 
L 188.762976 94.857306 
L 188.762976 94.663459 
L 189.09154 94.663459 
L 189.09154 94.469613 
L 189.420104 94.469613 
L 189.420104 94.275767 
L 189.748668 94.275767 
L 189.748668 94.08192 
L 190.077232 94.08192 
L 190.077232 93.888074 
L 190.405796 93.888074 
L 190.405796 93.694228 
L 190.734359 93.694228 
L 190.734359 93.500381 
L 191.062923 93.500381 
L 191.062923 93.306535 
L 191.391487 93.306535 
L 191.391487 93.112689 
L 191.720051 93.112689 
L 191.720051 92.918842 
L 192.048615 92.918842 
L 192.048615 92.724996 
L 192.377179 92.724996 
L 192.377179 92.53115 
L 192.705743 92.53115 
L 192.705743 92.337303 
L 193.034306 92.337303 
L 193.034306 92.143457 
L 193.36287 92.143457 
L 193.36287 91.949611 
L 193.691434 91.949611 
L 193.691434 91.755764 
L 194.019998 91.755764 
L 194.019998 91.561918 
L 194.348562 91.561918 
L 194.348562 91.368072 
L 194.677126 91.368072 
L 194.677126 91.174225 
L 195.00569 91.174225 
L 195.00569 90.980379 
L 195.334253 90.980379 
L 195.334253 90.786533 
L 195.662817 90.786533 
L 195.662817 90.592686 
L 195.991381 90.592686 
L 195.991381 90.39884 
L 196.319945 90.39884 
L 196.319945 90.204993 
L 196.648509 90.204993 
L 196.648509 90.011147 
L 196.977073 90.011147 
L 196.977073 89.817301 
L 197.305637 89.817301 
L 197.305637 89.623454 
L 197.6342 89.623454 
L 197.6342 89.429608 
L 197.962764 89.429608 
L 197.962764 89.235762 
L 198.291328 89.235762 
L 198.291328 89.041915 
L 198.619892 89.041915 
L 198.619892 88.848069 
L 198.948456 88.848069 
L 198.948456 88.654223 
L 199.27702 88.654223 
L 199.27702 88.460376 
L 199.605584 88.460376 
L 199.605584 88.26653 
L 199.934147 88.26653 
L 199.934147 88.072684 
L 200.262711 88.072684 
L 200.262711 87.878837 
L 200.591275 87.878837 
L 200.591275 87.684991 
L 200.919839 87.684991 
L 200.919839 87.491145 
L 201.248403 87.491145 
L 201.248403 87.297298 
L 201.576967 87.297298 
L 201.576967 87.103452 
L 201.905531 87.103452 
L 201.905531 86.909606 
L 202.234094 86.909606 
L 202.234094 86.715759 
L 202.562658 86.715759 
L 202.562658 86.521913 
L 202.891222 86.521913 
L 202.891222 86.328067 
L 203.219786 86.328067 
L 203.219786 86.13422 
L 203.54835 86.13422 
L 203.54835 85.940374 
L 203.876914 85.940374 
L 203.876914 85.746527 
L 204.205478 85.746527 
L 204.205478 85.552681 
L 204.534041 85.552681 
L 204.534041 85.358835 
L 204.862605 85.358835 
L 204.862605 85.164988 
L 205.191169 85.164988 
L 205.191169 84.971142 
L 205.519733 84.971142 
L 205.519733 84.777296 
L 205.848297 84.777296 
L 205.848297 84.583449 
L 206.176861 84.583449 
L 206.176861 84.389603 
L 206.505425 84.389603 
L 206.505425 84.195757 
L 206.833988 84.195757 
L 206.833988 84.00191 
L 207.162552 84.00191 
L 207.162552 83.808064 
L 207.491116 83.808064 
L 207.491116 83.614218 
L 207.81968 83.614218 
L 207.81968 83.420371 
L 208.148244 83.420371 
L 208.148244 83.226525 
L 208.476808 83.226525 
L 208.476808 83.032679 
L 208.805372 83.032679 
L 208.805372 82.838832 
L 209.133935 82.838832 
L 209.133935 82.644986 
L 209.462499 82.644986 
L 209.462499 82.45114 
L 209.791063 82.45114 
L 209.791063 82.257293 
L 210.119627 82.257293 
L 210.119627 82.063447 
L 210.448191 82.063447 
L 210.448191 81.869601 
L 210.776755 81.869601 
L 210.776755 81.675754 
L 211.105319 81.675754 
L 211.105319 81.481908 
L 211.433882 81.481908 
L 211.433882 81.288061 
L 211.762446 81.288061 
L 211.762446 81.094215 
L 212.09101 81.094215 
L 212.09101 80.900369 
L 212.419574 80.900369 
L 212.419574 80.706522 
L 212.748138 80.706522 
L 212.748138 80.512676 
L 213.076702 80.512676 
L 213.076702 80.31883 
L 213.405266 80.31883 
L 213.405266 80.124983 
L 213.733829 80.124983 
L 213.733829 79.931137 
L 214.062393 79.931137 
L 214.062393 79.737291 
L 214.390957 79.737291 
L 214.390957 79.543444 
L 214.719521 79.543444 
L 214.719521 79.349598 
L 215.048085 79.349598 
L 215.048085 79.155752 
L 215.376649 79.155752 
L 215.376649 78.961905 
L 215.705213 78.961905 
L 215.705213 78.768059 
L 216.033776 78.768059 
L 216.033776 78.574213 
L 216.36234 78.574213 
L 216.36234 78.380366 
L 216.690904 78.380366 
L 216.690904 78.18652 
L 217.019468 78.18652 
L 217.019468 77.992674 
L 217.348032 77.992674 
L 217.348032 77.847289 
L 218.00516 77.750366 
L 218.00516 77.653442 
L 218.662287 77.556519 
L 218.662287 77.459596 
L 219.319415 77.362673 
L 219.319415 77.26575 
L 219.976543 77.168827 
L 219.976543 77.071903 
L 220.633671 76.97498 
L 220.633671 76.878057 
L 221.290798 76.781134 
L 221.290798 76.684211 
L 221.947926 76.587288 
L 221.947926 76.490364 
L 222.605054 76.393441 
L 222.605054 76.296518 
L 223.262181 76.199595 
L 223.262181 76.102672 
L 223.919309 76.005749 
L 223.919309 75.908825 
L 224.576437 75.811902 
L 224.576437 75.714979 
L 225.233565 75.618056 
L 225.233565 75.521133 
L 225.890692 75.424209 
L 225.890692 75.327286 
L 226.54782 75.230363 
L 226.54782 75.13344 
L 227.204948 75.036517 
L 227.204948 74.939594 
L 227.862075 74.84267 
L 227.862075 74.745747 
L 228.519203 74.648824 
L 228.519203 74.551901 
L 229.176331 74.454978 
L 229.176331 74.358055 
L 229.833459 74.261131 
L 229.833459 74.164208 
L 230.490586 74.067285 
L 230.490586 73.970362 
L 231.147714 73.873439 
L 231.147714 73.776516 
L 231.804842 73.679592 
L 231.804842 73.582669 
L 232.461969 73.485746 
L 232.461969 73.388823 
L 233.119097 73.2919 
L 233.119097 73.194976 
L 233.776225 73.098053 
L 233.776225 73.00113 
L 234.433353 72.904207 
L 234.433353 72.807284 
L 235.09048 72.710361 
L 235.09048 72.613437 
L 235.747608 72.516514 
L 235.747608 72.419591 
L 236.404736 72.322668 
L 236.404736 72.225745 
L 237.061863 72.128822 
L 237.061863 72.031898 
L 237.718991 71.934975 
L 237.718991 71.838052 
L 238.376119 71.741129 
L 238.376119 71.644206 
L 239.033247 71.547283 
L 239.033247 71.450359 
L 239.690374 71.353436 
L 239.690374 71.256513 
L 240.347502 71.15959 
L 240.347502 71.062667 
L 241.00463 70.965743 
L 241.00463 70.86882 
L 241.661757 70.771897 
L 241.661757 70.674974 
L 242.318885 70.578051 
L 242.318885 70.481128 
L 242.976013 70.384204 
L 242.976013 70.287281 
L 243.633141 70.190358 
L 243.633141 70.093435 
L 244.290268 69.996512 
L 244.290268 69.899589 
L 244.947396 69.802665 
L 244.947396 69.705742 
L 245.604524 69.608819 
L 245.604524 69.511896 
L 246.261651 69.414973 
L 246.261651 69.31805 
L 246.918779 69.221126 
L 246.918779 69.124203 
L 247.575907 69.02728 
L 247.575907 68.930357 
L 248.233035 68.833434 
L 248.233035 68.73651 
L 248.890162 68.639587 
L 248.890162 68.542664 
L 249.54729 68.445741 
L 249.54729 68.348818 
L 250.204418 68.251895 
L 250.204418 68.154971 
L 250.861545 68.058048 
L 250.861545 67.961125 
L 251.518673 67.864202 
L 251.518673 67.767279 
L 252.175801 67.670356 
L 252.175801 67.573432 
L 252.832929 67.476509 
L 252.832929 67.379586 
L 253.490056 67.282663 
L 253.490056 67.18574 
L 254.147184 67.088817 
L 254.147184 66.991893 
L 254.804312 66.89497 
L 254.804312 66.798047 
L 255.461439 66.701124 
L 255.461439 66.604201 
L 256.118567 66.507277 
L 256.118567 66.410354 
L 256.775695 66.313431 
L 256.775695 66.216508 
L 257.432823 66.119585 
L 257.432823 66.022662 
L 258.08995 65.925738 
L 258.08995 65.828815 
L 258.747078 65.731892 
L 258.747078 65.634969 
L 259.404206 65.538046 
L 259.404206 65.441123 
L 260.061333 65.344199 
L 260.061333 65.247276 
L 260.718461 65.150353 
L 260.718461 65.05343 
L 261.375589 64.956507 
L 261.375589 64.859584 
L 262.032717 64.76266 
L 262.032717 64.665737 
L 262.689844 64.568814 
L 262.689844 64.471891 
L 263.346972 64.374968 
L 263.346972 64.278044 
L 264.0041 64.181121 
L 264.0041 64.084198 
L 264.661227 63.987275 
L 264.661227 63.890352 
L 265.318355 63.793429 
L 265.318355 63.696505 
L 265.975483 63.599582 
L 265.975483 63.502659 
L 266.632611 63.405736 
L 266.632611 63.308813 
L 267.289738 63.21189 
L 267.289738 63.114966 
L 267.946866 63.018043 
L 267.946866 62.92112 
L 268.603994 62.824197 
L 268.603994 62.727274 
L 269.261121 62.630351 
L 269.261121 62.533427 
L 269.918249 62.436504 
L 269.918249 62.339581 
L 270.575377 62.242658 
L 270.575377 62.145735 
L 271.232505 62.048811 
L 271.232505 61.951888 
L 271.889632 61.854965 
L 271.889632 61.758042 
L 272.54676 61.661119 
L 272.54676 61.564196 
L 273.203888 61.467272 
L 273.203888 61.370349 
L 273.861016 61.273426 
L 273.861016 61.176503 
L 274.518143 61.07958 
L 274.518143 60.982657 
L 275.175271 60.885733 
L 275.175271 60.78881 
L 275.832399 60.691887 
L 275.832399 60.594964 
L 276.489526 60.498041 
L 276.489526 60.401118 
L 277.146654 60.304194 
L 277.146654 60.207271 
L 277.803782 60.110348 
L 277.803782 60.013425 
L 278.46091 59.916502 
L 278.46091 59.819578 
L 279.118037 59.722655 
L 279.118037 59.625732 
L 279.775165 59.528809 
L 279.775165 59.431886 
L 280.432293 59.334963 
L 280.432293 59.238039 
L 281.08942 59.141116 
L 281.08942 59.044193 
L 281.746548 58.94727 
L 281.746548 58.850347 
L 282.403676 58.753424 
L 282.403676 58.6565 
L 283.060804 58.559577 
L 283.060804 58.394808 
L 283.389367 58.394808 
L 283.389367 58.200961 
L 283.717931 58.200961 
L 283.717931 58.007115 
L 284.046495 58.007115 
L 284.046495 57.813269 
L 284.375059 57.813269 
L 284.375059 57.619422 
L 284.703623 57.619422 
L 284.703623 57.425576 
L 285.032187 57.425576 
L 285.032187 57.23173 
L 285.360751 57.23173 
L 285.360751 57.037883 
L 285.689314 57.037883 
L 285.689314 56.844037 
L 286.017878 56.844037 
L 286.017878 56.650191 
L 286.346442 56.650191 
L 286.346442 56.456344 
L 286.675006 56.456344 
L 286.675006 56.262498 
L 287.00357 56.262498 
L 287.00357 56.068652 
L 287.332134 56.068652 
L 287.332134 55.874805 
L 287.660698 55.874805 
L 287.660698 55.680959 
L 287.989261 55.680959 
L 287.989261 55.487113 
L 288.317825 55.487113 
L 288.317825 55.293266 
L 288.646389 55.293266 
L 288.646389 55.09942 
L 288.974953 55.09942 
L 288.974953 54.905574 
L 289.303517 54.905574 
L 289.303517 54.711727 
L 289.632081 54.711727 
L 289.632081 54.517881 
L 289.960645 54.517881 
L 289.960645 54.324035 
L 290.289208 54.324035 
L 290.289208 54.130188 
L 290.617772 54.130188 
L 290.617772 53.936342 
L 290.946336 53.936342 
L 290.946336 53.742495 
L 291.2749 53.742495 
L 291.2749 53.548649 
L 291.603464 53.548649 
L 291.603464 53.354803 
L 291.932028 53.354803 
L 291.932028 53.160956 
L 292.260592 53.160956 
L 292.260592 52.96711 
L 292.589155 52.96711 
L 292.589155 52.773264 
L 292.917719 52.773264 
L 292.917719 52.579417 
L 293.246283 52.579417 
L 293.246283 52.385571 
L 293.574847 52.385571 
L 293.574847 52.191725 
L 293.903411 52.191725 
L 293.903411 51.997878 
L 294.231975 51.997878 
L 294.231975 51.804032 
L 294.560539 51.804032 
L 294.560539 51.610186 
L 294.889102 51.610186 
L 294.889102 51.416339 
L 295.217666 51.416339 
L 295.217666 51.222493 
L 295.54623 51.222493 
L 295.54623 51.028647 
L 295.874794 51.028647 
L 295.874794 50.8348 
L 296.203358 50.8348 
L 296.203358 50.640954 
L 296.531922 50.640954 
L 296.531922 50.447108 
L 296.860486 50.447108 
L 296.860486 50.253261 
L 297.189049 50.253261 
L 297.189049 50.059415 
L 297.517613 50.059415 
L 297.517613 49.865569 
L 297.846177 49.865569 
L 297.846177 49.671722 
L 298.174741 49.671722 
L 298.174741 49.477876 
L 298.503305 49.477876 
L 298.503305 49.284029 
L 298.831869 49.284029 
L 298.831869 49.090183 
L 299.160433 49.090183 
L 299.160433 48.896337 
L 299.488996 48.896337 
L 299.488996 48.70249 
L 299.81756 48.70249 
L 299.81756 48.508644 
L 300.146124 48.508644 
L 300.146124 48.314798 
L 300.474688 48.314798 
L 300.474688 48.120951 
L 300.803252 48.120951 
L 300.803252 47.927105 
L 301.131816 47.927105 
L 301.131816 47.733259 
L 301.46038 47.733259 
L 301.46038 47.539412 
L 301.788943 47.539412 
L 301.788943 47.345566 
L 302.117507 47.345566 
L 302.117507 47.15172 
L 302.446071 47.15172 
L 302.446071 46.957873 
L 302.774635 46.957873 
L 302.774635 46.764027 
L 303.103199 46.764027 
L 303.103199 46.570181 
L 303.431763 46.570181 
L 303.431763 46.376334 
L 303.760327 46.376334 
L 303.760327 46.182488 
L 304.08889 46.182488 
L 304.08889 45.988642 
L 304.417454 45.988642 
L 304.417454 45.794795 
L 304.746018 45.794795 
L 304.746018 45.600949 
L 305.074582 45.600949 
L 305.074582 45.407103 
L 305.403146 45.407103 
L 305.403146 45.213256 
L 305.73171 45.213256 
L 305.73171 45.01941 
L 306.060274 45.01941 
L 306.060274 44.825563 
L 306.388837 44.825563 
L 306.388837 44.631717 
L 306.717401 44.631717 
L 306.717401 44.437871 
L 307.045965 44.437871 
L 307.045965 44.244024 
L 307.374529 44.244024 
L 307.374529 44.050178 
L 307.703093 44.050178 
L 307.703093 43.856332 
L 308.031657 43.856332 
L 308.031657 43.662485 
L 308.360221 43.662485 
L 308.360221 43.468639 
L 308.688784 43.468639 
L 308.688784 43.274793 
L 309.017348 43.274793 
L 309.017348 43.080946 
L 309.345912 43.080946 
L 309.345912 42.8871 
L 309.674476 42.8871 
L 309.674476 42.693254 
L 310.00304 42.693254 
L 310.00304 42.499407 
L 310.331604 42.499407 
L 310.331604 42.305561 
L 310.660168 42.305561 
L 310.660168 42.111715 
L 310.988731 42.111715 
L 310.988731 41.917868 
L 311.317295 41.917868 
L 311.317295 41.724022 
L 311.645859 41.724022 
L 311.645859 41.530176 
L 311.974423 41.530176 
L 311.974423 41.336329 
L 312.302987 41.336329 
L 312.302987 41.142483 
L 312.631551 41.142483 
L 312.631551 40.948637 
L 312.960115 40.948637 
L 312.960115 40.75479 
L 313.288678 40.75479 
L 313.288678 40.560944 
L 313.617242 40.560944 
L 313.617242 40.367097 
L 313.945806 40.367097 
L 313.945806 40.173251 
L 314.27437 40.173251 
L 314.27437 39.979405 
L 314.602934 39.979405 
L 314.602934 39.785558 
L 314.931498 39.785558 
L 314.931498 39.591712 
L 315.260062 39.591712 
L 315.260062 39.397866 
L 315.588625 39.397866 
L 315.588625 39.204019 
L 315.917189 39.204019 
L 315.917189 39.010173 
L 316.245753 39.010173 
L 316.245753 38.816327 
L 316.574317 38.816327 
L 316.574317 38.62248 
L 316.902881 38.62248 
L 316.902881 38.428634 
L 317.231445 38.428634 
L 317.231445 38.234788 
L 317.560009 38.234788 
L 317.560009 38.040941 
L 317.888572 38.040941 
L 317.888572 37.847095 
L 318.217136 37.847095 
L 318.217136 37.653249 
L 318.5457 37.653249 
L 318.5457 37.459402 
L 318.874264 37.459402 
L 318.874264 37.265556 
L 319.202828 37.265556 
L 319.202828 37.07171 
L 319.531392 37.07171 
L 319.531392 36.877863 
L 319.859956 36.877863 
L 319.859956 36.684017 
L 320.188519 36.684017 
L 320.188519 36.490171 
L 320.517083 36.490171 
L 320.517083 36.296324 
L 320.845647 36.296324 
L 320.845647 36.102478 
L 321.174211 36.102478 
L 321.174211 35.908631 
L 321.502775 35.908631 
L 321.502775 35.714785 
L 321.831339 35.714785 
L 321.831339 35.520939 
L 322.159903 35.520939 
L 322.159903 35.327092 
L 322.488466 35.327092 
L 322.488466 35.133246 
L 322.81703 35.133246 
L 322.81703 34.9394 
L 323.145594 34.9394 
L 323.145594 34.745553 
L 323.474158 34.745553 
L 323.474158 34.551707 
L 323.802722 34.551707 
L 323.802722 34.357861 
L 324.131286 34.357861 
L 324.131286 34.164014 
L 324.45985 34.164014 
L 324.45985 33.970168 
L 324.788413 33.970168 
L 324.788413 33.776322 
L 325.116977 33.776322 
L 325.116977 33.582475 
L 325.445541 33.582475 
L 325.445541 33.388629 
L 325.774105 33.388629 
L 325.774105 33.194783 
L 326.102669 33.194783 
L 326.102669 33.000936 
L 326.431233 33.000936 
L 326.431233 32.80709 
L 326.759797 32.80709 
L 326.759797 32.613244 
L 327.08836 32.613244 
L 327.08836 32.419397 
L 327.416924 32.419397 
L 327.416924 32.225551 
L 327.745488 32.225551 
L 327.745488 32.031705 
L 328.074052 32.031705 
L 328.074052 31.837858 
L 328.402616 31.837858 
L 328.402616 31.644012 
L 328.73118 31.644012 
L 328.73118 31.450165 
L 329.059744 31.450165 
L 329.059744 31.256319 
L 329.388307 31.256319 
L 329.388307 31.062473 
L 329.716871 31.062473 
L 329.716871 30.868626 
L 330.045435 30.868626 
L 330.045435 30.67478 
L 330.373999 30.67478 
L 330.373999 30.480934 
L 330.702563 30.480934 
L 330.702563 30.287087 
L 331.031127 30.287087 
L 331.031127 30.093241 
L 331.359691 30.093241 
L 331.359691 29.899395 
L 331.688255 29.899395 
L 331.688255 29.705548 
L 332.016818 29.705548 
L 332.016818 29.511702 
L 332.345382 29.511702 
L 332.345382 29.317856 
L 332.673946 29.317856 
L 332.673946 29.124009 
L 333.00251 29.124009 
L 333.00251 28.930163 
L 333.331074 28.930163 
L 333.331074 28.736317 
L 333.659638 28.736317 
L 333.659638 28.54247 
L 333.988202 28.54247 
L 333.988202 28.348624 
L 334.316765 28.348624 
L 334.316765 28.154778 
L 334.645329 28.154778 
L 334.645329 27.960931 
L 334.973893 27.960931 
L 334.973893 27.767085 
L 335.302457 27.767085 
L 335.302457 27.573239 
L 335.631021 27.573239 
L 335.631021 27.379392 
L 335.959585 27.379392 
L 335.959585 27.185546 
L 336.288149 27.185546 
L 336.288149 26.991699 
L 336.616712 26.991699 
L 336.616712 26.797853 
L 336.945276 26.797853 
L 336.945276 26.604007 
L 337.27384 26.604007 
L 337.27384 26.41016 
L 337.602404 26.41016 
L 337.602404 26.216314 
L 337.930968 26.216314 
L 337.930968 26.022468 
L 338.259532 26.022468 
L 338.259532 25.828621 
L 338.588096 25.828621 
L 338.588096 25.634775 
L 338.916659 25.634775 
L 338.916659 25.440929 
L 339.245223 25.440929 
L 339.245223 25.247082 
L 339.573787 25.247082 
L 339.573787 25.053236 
L 339.902351 25.053236 
L 339.902351 24.85939 
L 340.230915 24.85939 
L 340.230915 24.665543 
L 340.559479 24.665543 
L 340.559479 24.471697 
L 340.888043 24.471697 
L 340.888043 24.277851 
L 341.216606 24.277851 
L 341.216606 24.084004 
L 341.54517 24.084004 
L 341.54517 23.890158 
L 341.873734 23.890158 
L 341.873734 23.696312 
L 342.202298 23.696312 
L 342.202298 23.502465 
L 342.530862 23.502465 
L 342.530862 23.308619 
L 342.859426 23.308619 
L 342.859426 23.114773 
L 343.18799 23.114773 
L 343.18799 22.920926 
L 343.516553 22.920926 
L 343.516553 22.72708 
L 343.845117 22.72708 
L 343.845117 22.533234 
L 344.173681 22.533234 
L 344.173681 22.339387 
L 344.502245 22.339387 
L 344.502245 22.145541 
L 344.830809 22.145541 
L 344.830809 21.951694 
L 345.159373 21.951694 
L 345.159373 21.757848 
L 345.487937 21.757848 
L 345.487937 21.564002 
L 345.8165 21.564002 
L 345.8165 21.370155 
L 346.145064 21.370155 
L 346.145064 21.176309 
L 346.473628 21.176309 
L 346.473628 20.982463 
L 346.802192 20.982463 
L 346.802192 20.788616 
L 347.130756 20.788616 
L 347.130756 20.59477 
L 347.45932 20.59477 
L 347.45932 20.400924 
L 347.787884 20.400924 
L 347.787884 20.207077 
L 348.116447 20.207077 
L 348.116447 20.013231 
L 348.445011 20.013231 
L 348.445011 19.819385 
L 381.301397 19.8 
L 381.301397 19.8 
" clip-path="url(#p9ba2031228)" style="fill: none; stroke: #000000; stroke-width: 0.886227; stroke-linejoin: miter"/>
   </g>
  </g>
 </g>
 <defs>
  <clipPath id="p9ba2031228">
   <rect x="49.78375" y="7.2" width="334.8" height="277.2"/>
  </clipPath>
 </defs>
</svg>
