<?xml version="1.0" encoding="utf-8" standalone="no"?>
<!DOCTYPE svg PUBLIC "-//W3C//DTD SVG 1.1//EN"
  "http://www.w3.org/Graphics/SVG/1.1/DTD/svg11.dtd">
<svg xmlns:xlink="http://www.w3.org/1999/xlink" width="387.479772pt" height="320.112687pt" viewBox="0 0 387.479772 320.112687" xmlns="http://www.w3.org/2000/svg" version="1.1">
 <metadata>
  <rdf:RDF xmlns:dc="http://purl.org/dc/elements/1.1/" xmlns:cc="http://creativecommons.org/ns#" xmlns:rdf="http://www.w3.org/1999/02/22-rdf-syntax-ns#">
   <cc:Work>
    <dc:type rdf:resource="http://purl.org/dc/dcmitype/StillImage"/>
    <dc:date>2022-05-30T22:17:24.203929</dc:date>
    <dc:format>image/svg+xml</dc:format>
    <dc:creator>
     <cc:Agent>
      <dc:title>Matplotlib v3.5.2, https://matplotlib.org/</dc:title>
     </cc:Agent>
    </dc:creator>
   </cc:Work>
  </rdf:RDF>
 </metadata>
 <defs>
  <style type="text/css">*{stroke-linejoin: round; stroke-linecap: butt}</style>
 </defs>
 <g id="figure_1">
  <g id="patch_1">
   <path d="M 0 320.112687 
L 387.479772 320.112687 
L 387.479772 0 
L 0 0 
z
" style="fill: #ffffff; stroke: #ffffff; stroke-linejoin: miter"/>
  </g>
  <g id="axes_1">
   <g id="patch_2">
    <path d="M 43.163125 284.4 
L 377.963125 284.4 
L 377.963125 7.2 
L 43.163125 7.2 
z
" style="fill: #ebebeb"/>
   </g>
   <g id="matplotlib.axis_1">
    <g id="xtick_1">
     <g id="line2d_1">
      <path d="M 46.445478 284.4 
L 46.445478 7.2 
" clip-path="url(#p2a59883b5e)" style="fill: none; stroke: #ffffff"/>
     </g>
     <g id="line2d_2">
      <path d="M 46.445478 284.4 
" style="fill: none; stroke: #333333; stroke-width: 1.5"/>
      <defs>
       <path id="m0d1f4437dd" d="M 0 0 
L 0 2.75 
" style="stroke: #000000"/>
      </defs>
      <g>
       <use xlink:href="#m0d1f4437dd" x="46.445478" y="284.4" style="fill: #333333; stroke: #000000"/>
      </g>
     </g>
     <g id="text_1">
      <!-- 0 -->
      <g style="fill: #4d4d4d" transform="translate(43.645978 296.036625)scale(0.088 -0.088)">
       <defs>
        <path id="DejaVuSans-30" d="M 2034 4250 
Q 1547 4250 1301 3770 
Q 1056 3291 1056 2328 
Q 1056 1369 1301 889 
Q 1547 409 2034 409 
Q 2525 409 2770 889 
Q 3016 1369 3016 2328 
Q 3016 3291 2770 3770 
Q 2525 4250 2034 4250 
z
M 2034 4750 
Q 2819 4750 3233 4129 
Q 3647 3509 3647 2328 
Q 3647 1150 3233 529 
Q 2819 -91 2034 -91 
Q 1250 -91 836 529 
Q 422 1150 422 2328 
Q 422 3509 836 4129 
Q 1250 4750 2034 4750 
z
" transform="scale(0.015625)"/>
       </defs>
       <use xlink:href="#DejaVuSans-30"/>
      </g>
     </g>
    </g>
    <g id="xtick_2">
     <g id="line2d_3">
      <path d="M 128.504301 284.4 
L 128.504301 7.2 
" clip-path="url(#p2a59883b5e)" style="fill: none; stroke: #ffffff"/>
     </g>
     <g id="line2d_4">
      <path d="M 128.504301 284.4 
" style="fill: none; stroke: #333333; stroke-width: 1.5"/>
      <g>
       <use xlink:href="#m0d1f4437dd" x="128.504301" y="284.4" style="fill: #333333; stroke: #000000"/>
      </g>
     </g>
     <g id="text_2">
      <!-- 2.5 -->
      <g style="fill: #4d4d4d" transform="translate(121.506926 296.036625)scale(0.088 -0.088)">
       <defs>
        <path id="DejaVuSans-32" d="M 1228 531 
L 3431 531 
L 3431 0 
L 469 0 
L 469 531 
Q 828 903 1448 1529 
Q 2069 2156 2228 2338 
Q 2531 2678 2651 2914 
Q 2772 3150 2772 3378 
Q 2772 3750 2511 3984 
Q 2250 4219 1831 4219 
Q 1534 4219 1204 4116 
Q 875 4013 500 3803 
L 500 4441 
Q 881 4594 1212 4672 
Q 1544 4750 1819 4750 
Q 2544 4750 2975 4387 
Q 3406 4025 3406 3419 
Q 3406 3131 3298 2873 
Q 3191 2616 2906 2266 
Q 2828 2175 2409 1742 
Q 1991 1309 1228 531 
z
" transform="scale(0.015625)"/>
        <path id="DejaVuSans-2e" d="M 684 794 
L 1344 794 
L 1344 0 
L 684 0 
L 684 794 
z
" transform="scale(0.015625)"/>
        <path id="DejaVuSans-35" d="M 691 4666 
L 3169 4666 
L 3169 4134 
L 1269 4134 
L 1269 2991 
Q 1406 3038 1543 3061 
Q 1681 3084 1819 3084 
Q 2600 3084 3056 2656 
Q 3513 2228 3513 1497 
Q 3513 744 3044 326 
Q 2575 -91 1722 -91 
Q 1428 -91 1123 -41 
Q 819 9 494 109 
L 494 744 
Q 775 591 1075 516 
Q 1375 441 1709 441 
Q 2250 441 2565 725 
Q 2881 1009 2881 1497 
Q 2881 1984 2565 2268 
Q 2250 2553 1709 2553 
Q 1456 2553 1204 2497 
Q 953 2441 691 2322 
L 691 4666 
z
" transform="scale(0.015625)"/>
       </defs>
       <use xlink:href="#DejaVuSans-32"/>
       <use xlink:href="#DejaVuSans-2e" x="63.623047"/>
       <use xlink:href="#DejaVuSans-35" x="95.410156"/>
      </g>
     </g>
    </g>
    <g id="xtick_3">
     <g id="line2d_5">
      <path d="M 210.563125 284.4 
L 210.563125 7.2 
" clip-path="url(#p2a59883b5e)" style="fill: none; stroke: #ffffff"/>
     </g>
     <g id="line2d_6">
      <path d="M 210.563125 284.4 
" style="fill: none; stroke: #333333; stroke-width: 1.5"/>
      <g>
       <use xlink:href="#m0d1f4437dd" x="210.563125" y="284.4" style="fill: #333333; stroke: #000000"/>
      </g>
     </g>
     <g id="text_3">
      <!-- 5 -->
      <g style="fill: #4d4d4d" transform="translate(207.763625 296.036625)scale(0.088 -0.088)">
       <use xlink:href="#DejaVuSans-35"/>
      </g>
     </g>
    </g>
    <g id="xtick_4">
     <g id="line2d_7">
      <path d="M 292.621949 284.4 
L 292.621949 7.2 
" clip-path="url(#p2a59883b5e)" style="fill: none; stroke: #ffffff"/>
     </g>
     <g id="line2d_8">
      <path d="M 292.621949 284.4 
" style="fill: none; stroke: #333333; stroke-width: 1.5"/>
      <g>
       <use xlink:href="#m0d1f4437dd" x="292.621949" y="284.4" style="fill: #333333; stroke: #000000"/>
      </g>
     </g>
     <g id="text_4">
      <!-- 7.5 -->
      <g style="fill: #4d4d4d" transform="translate(285.624574 296.036625)scale(0.088 -0.088)">
       <defs>
        <path id="DejaVuSans-37" d="M 525 4666 
L 3525 4666 
L 3525 4397 
L 1831 0 
L 1172 0 
L 2766 4134 
L 525 4134 
L 525 4666 
z
" transform="scale(0.015625)"/>
       </defs>
       <use xlink:href="#DejaVuSans-37"/>
       <use xlink:href="#DejaVuSans-2e" x="63.623047"/>
       <use xlink:href="#DejaVuSans-35" x="95.410156"/>
      </g>
     </g>
    </g>
    <g id="xtick_5">
     <g id="line2d_9">
      <path d="M 374.680772 284.4 
L 374.680772 7.2 
" clip-path="url(#p2a59883b5e)" style="fill: none; stroke: #ffffff"/>
     </g>
     <g id="line2d_10">
      <path d="M 374.680772 284.4 
" style="fill: none; stroke: #333333; stroke-width: 1.5"/>
      <g>
       <use xlink:href="#m0d1f4437dd" x="374.680772" y="284.4" style="fill: #333333; stroke: #000000"/>
      </g>
     </g>
     <g id="text_5">
      <!-- 10 -->
      <g style="fill: #4d4d4d" transform="translate(369.081772 296.036625)scale(0.088 -0.088)">
       <defs>
        <path id="DejaVuSans-31" d="M 794 531 
L 1825 531 
L 1825 4091 
L 703 3866 
L 703 4441 
L 1819 4666 
L 2450 4666 
L 2450 531 
L 3481 531 
L 3481 0 
L 794 0 
L 794 531 
z
" transform="scale(0.015625)"/>
       </defs>
       <use xlink:href="#DejaVuSans-31"/>
       <use xlink:href="#DejaVuSans-30" x="63.623047"/>
      </g>
     </g>
    </g>
    <g id="xtick_6">
     <g id="line2d_11">
      <path d="M 87.47489 284.4 
L 87.47489 7.2 
" clip-path="url(#p2a59883b5e)" style="fill: none; stroke: #ffffff; stroke-width: 0.5"/>
     </g>
    </g>
    <g id="xtick_7">
     <g id="line2d_12">
      <path d="M 169.533713 284.4 
L 169.533713 7.2 
" clip-path="url(#p2a59883b5e)" style="fill: none; stroke: #ffffff; stroke-width: 0.5"/>
     </g>
    </g>
    <g id="xtick_8">
     <g id="line2d_13">
      <path d="M 251.592537 284.4 
L 251.592537 7.2 
" clip-path="url(#p2a59883b5e)" style="fill: none; stroke: #ffffff; stroke-width: 0.5"/>
     </g>
    </g>
    <g id="xtick_9">
     <g id="line2d_14">
      <path d="M 333.65136 284.4 
L 333.65136 7.2 
" clip-path="url(#p2a59883b5e)" style="fill: none; stroke: #ffffff; stroke-width: 0.5"/>
     </g>
    </g>
    <g id="text_6">
     <!-- x -->
     <g transform="translate(201.907813 310.625031)scale(0.11 -0.11)">
      <defs>
       <path id="DejaVuSans-78" d="M 3513 3500 
L 2247 1797 
L 3578 0 
L 2900 0 
L 1881 1375 
L 863 0 
L 184 0 
L 1544 1831 
L 300 3500 
L 978 3500 
L 1906 2253 
L 2834 3500 
L 3513 3500 
z
" transform="scale(0.015625)"/>
      </defs>
      <use xlink:href="#DejaVuSans-78"/>
     </g>
    </g>
   </g>
   <g id="matplotlib.axis_2">
    <g id="ytick_1">
     <g id="line2d_15">
      <path d="M 43.163125 218.501567 
L 377.963125 218.501567 
" clip-path="url(#p2a59883b5e)" style="fill: none; stroke: #ffffff"/>
     </g>
     <g id="line2d_16">
      <path d="M 43.163125 218.501567 
" style="fill: none; stroke: #333333; stroke-width: 1.5"/>
      <defs>
       <path id="m991b9c81cc" d="M 0 0 
L -2.75 0 
" style="stroke: #000000"/>
      </defs>
      <g>
       <use xlink:href="#m991b9c81cc" x="43.163125" y="218.501567" style="fill: #333333; stroke: #000000"/>
      </g>
     </g>
     <g id="text_7">
      <!-- −3 -->
      <g style="fill: #4d4d4d" transform="translate(25.24 220.929817)scale(0.088 -0.088)">
       <defs>
        <path id="DejaVuSans-2212" d="M 678 2272 
L 4684 2272 
L 4684 1741 
L 678 1741 
L 678 2272 
z
" transform="scale(0.015625)"/>
        <path id="DejaVuSans-33" d="M 2597 2516 
Q 3050 2419 3304 2112 
Q 3559 1806 3559 1356 
Q 3559 666 3084 287 
Q 2609 -91 1734 -91 
Q 1441 -91 1130 -33 
Q 819 25 488 141 
L 488 750 
Q 750 597 1062 519 
Q 1375 441 1716 441 
Q 2309 441 2620 675 
Q 2931 909 2931 1356 
Q 2931 1769 2642 2001 
Q 2353 2234 1838 2234 
L 1294 2234 
L 1294 2753 
L 1863 2753 
Q 2328 2753 2575 2939 
Q 2822 3125 2822 3475 
Q 2822 3834 2567 4026 
Q 2313 4219 1838 4219 
Q 1578 4219 1281 4162 
Q 984 4106 628 3988 
L 628 4550 
Q 988 4650 1302 4700 
Q 1616 4750 1894 4750 
Q 2613 4750 3031 4423 
Q 3450 4097 3450 3541 
Q 3450 3153 3228 2886 
Q 3006 2619 2597 2516 
z
" transform="scale(0.015625)"/>
       </defs>
       <use xlink:href="#DejaVuSans-2212"/>
       <use xlink:href="#DejaVuSans-33" x="83.789062"/>
      </g>
     </g>
    </g>
    <g id="ytick_2">
     <g id="line2d_17">
      <path d="M 43.163125 145.799999 
L 377.963125 145.799999 
" clip-path="url(#p2a59883b5e)" style="fill: none; stroke: #ffffff"/>
     </g>
     <g id="line2d_18">
      <path d="M 43.163125 145.799999 
" style="fill: none; stroke: #333333; stroke-width: 1.5"/>
      <g>
       <use xlink:href="#m991b9c81cc" x="43.163125" y="145.799999" style="fill: #333333; stroke: #000000"/>
      </g>
     </g>
     <g id="text_8">
      <!-- 0 -->
      <g style="fill: #4d4d4d" transform="translate(32.614125 148.228249)scale(0.088 -0.088)">
       <use xlink:href="#DejaVuSans-30"/>
      </g>
     </g>
    </g>
    <g id="ytick_3">
     <g id="line2d_19">
      <path d="M 43.163125 73.09843 
L 377.963125 73.09843 
" clip-path="url(#p2a59883b5e)" style="fill: none; stroke: #ffffff"/>
     </g>
     <g id="line2d_20">
      <path d="M 43.163125 73.09843 
" style="fill: none; stroke: #333333; stroke-width: 1.5"/>
      <g>
       <use xlink:href="#m991b9c81cc" x="43.163125" y="73.09843" style="fill: #333333; stroke: #000000"/>
      </g>
     </g>
     <g id="text_9">
      <!-- 3 -->
      <g style="fill: #4d4d4d" transform="translate(32.614125 75.52668)scale(0.088 -0.088)">
       <use xlink:href="#DejaVuSans-33"/>
      </g>
     </g>
    </g>
    <g id="ytick_4">
     <g id="line2d_21">
      <path d="M 43.163125 254.852351 
L 377.963125 254.852351 
" clip-path="url(#p2a59883b5e)" style="fill: none; stroke: #ffffff; stroke-width: 0.5"/>
     </g>
    </g>
    <g id="ytick_5">
     <g id="line2d_22">
      <path d="M 43.163125 182.150783 
L 377.963125 182.150783 
" clip-path="url(#p2a59883b5e)" style="fill: none; stroke: #ffffff; stroke-width: 0.5"/>
     </g>
    </g>
    <g id="ytick_6">
     <g id="line2d_23">
      <path d="M 43.163125 109.449215 
L 377.963125 109.449215 
" clip-path="url(#p2a59883b5e)" style="fill: none; stroke: #ffffff; stroke-width: 0.5"/>
     </g>
    </g>
    <g id="ytick_7">
     <g id="line2d_24">
      <path d="M 43.163125 36.747646 
L 377.963125 36.747646 
" clip-path="url(#p2a59883b5e)" style="fill: none; stroke: #ffffff; stroke-width: 0.5"/>
     </g>
    </g>
    <g id="text_10">
     <!-- $\Phi^{-1}(\hat F(x))$ -->
     <g transform="translate(18.552344 169.245)rotate(-90)scale(0.11 -0.11)">
      <defs>
       <path id="DejaVuSans-3a6" d="M 2206 3644 
Q 1738 3578 1431 3306 
Q 1025 2947 1025 2328 
Q 1025 1713 1431 1353 
Q 1738 1081 2206 1016 
L 2206 3644 
z
M 2838 1016 
Q 3306 1081 3613 1353 
Q 4013 1713 4013 2328 
Q 4013 2947 3613 3306 
Q 3306 3578 2838 3644 
L 2838 1016 
z
M 2206 494 
Q 1444 563 950 981 
Q 359 1481 359 2328 
Q 359 3175 950 3678 
Q 1441 4100 2206 4169 
L 2206 4666 
L 2838 4666 
L 2838 4169 
Q 3600 4097 4091 3678 
Q 4678 3175 4678 2328 
Q 4678 1484 4091 981 
Q 3600 563 2838 491 
L 2838 0 
L 2206 0 
L 2206 494 
z
" transform="scale(0.015625)"/>
       <path id="DejaVuSans-28" d="M 1984 4856 
Q 1566 4138 1362 3434 
Q 1159 2731 1159 2009 
Q 1159 1288 1364 580 
Q 1569 -128 1984 -844 
L 1484 -844 
Q 1016 -109 783 600 
Q 550 1309 550 2009 
Q 550 2706 781 3412 
Q 1013 4119 1484 4856 
L 1984 4856 
z
" transform="scale(0.015625)"/>
       <path id="DejaVuSans-302" d="M -1831 5119 
L -1369 5119 
L -603 3944 
L -1038 3944 
L -1600 4709 
L -2163 3944 
L -2597 3944 
L -1831 5119 
z
M -1600 3584 
L -1600 3584 
z
" transform="scale(0.015625)"/>
       <path id="DejaVuSans-Oblique-46" d="M 1081 4666 
L 3756 4666 
L 3653 4134 
L 1606 4134 
L 1338 2759 
L 3188 2759 
L 3084 2228 
L 1234 2228 
L 800 0 
L 172 0 
L 1081 4666 
z
" transform="scale(0.015625)"/>
       <path id="DejaVuSans-Oblique-78" d="M 3841 3500 
L 2234 1784 
L 3219 0 
L 2559 0 
L 1819 1388 
L 531 0 
L -166 0 
L 1556 1844 
L 641 3500 
L 1300 3500 
L 1972 2234 
L 3144 3500 
L 3841 3500 
z
" transform="scale(0.015625)"/>
       <path id="DejaVuSans-29" d="M 513 4856 
L 1013 4856 
Q 1481 4119 1714 3412 
Q 1947 2706 1947 2009 
Q 1947 1309 1714 600 
Q 1481 -109 1013 -844 
L 513 -844 
Q 928 -128 1133 580 
Q 1338 1288 1338 2009 
Q 1338 2731 1133 3434 
Q 928 4138 513 4856 
z
" transform="scale(0.015625)"/>
      </defs>
      <use xlink:href="#DejaVuSans-3a6" transform="translate(0 0.609375)"/>
      <use xlink:href="#DejaVuSans-2212" transform="translate(79.667969 38.890625)scale(0.7)"/>
      <use xlink:href="#DejaVuSans-31" transform="translate(138.320312 38.890625)scale(0.7)"/>
      <use xlink:href="#DejaVuSans-28" transform="translate(185.59082 0.609375)"/>
      <use xlink:href="#DejaVuSans-302" transform="translate(284.182617 30.015625)"/>
      <use xlink:href="#DejaVuSans-Oblique-46" transform="translate(224.604492 0.609375)"/>
      <use xlink:href="#DejaVuSans-28" transform="translate(282.124023 0.609375)"/>
      <use xlink:href="#DejaVuSans-Oblique-78" transform="translate(321.137695 0.609375)"/>
      <use xlink:href="#DejaVuSans-29" transform="translate(380.317383 0.609375)"/>
      <use xlink:href="#DejaVuSans-29" transform="translate(419.331055 0.609375)"/>
     </g>
    </g>
   </g>
   <g id="line2d_25">
    <path d="M 79.269007 271.8 
L 79.269007 271.799998 
" clip-path="url(#p2a59883b5e)" style="fill: none; stroke-dasharray: 5.671852,1.417963,0.886227,1.417963; stroke-dashoffset: 0; stroke: #808080; stroke-width: 0.886227"/>
   </g>
   <g id="patch_3">
    <path d="M 82.996002 285.709329 
L 79.269007 271.799998 
L 75.542013 285.709329 
" clip-path="url(#p2a59883b5e)" style="fill: #808080; stroke-dasharray: 5.671852,1.417963,0.886227,1.417963; stroke-dashoffset: 0; stroke: #808080; stroke-width: 0.886227"/>
   </g>
   <g id="line2d_26">
    <path d="M 108.810184 271.8 
L 108.810184 174.84136 
" clip-path="url(#p2a59883b5e)" style="fill: none; stroke-dasharray: 5.671852,1.417963,0.886227,1.417963; stroke-dashoffset: 0; stroke: #808080; stroke-width: 0.886227"/>
   </g>
   <g id="patch_4">
    <path d="M 112.537178 188.750692 
L 108.810184 174.84136 
L 105.08319 188.750692 
" clip-path="url(#p2a59883b5e)" style="fill: #808080; stroke-dasharray: 5.671852,1.417963,0.886227,1.417963; stroke-dashoffset: 0; stroke: #808080; stroke-width: 0.886227"/>
   </g>
   <g id="line2d_27">
    <path d="M 115.37489 271.8 
L 115.37489 174.84136 
" clip-path="url(#p2a59883b5e)" style="fill: none; stroke-dasharray: 5.671852,1.417963,0.886227,1.417963; stroke-dashoffset: 0; stroke: #808080; stroke-width: 0.886227"/>
   </g>
   <g id="patch_5">
    <path d="M 119.101884 188.750692 
L 115.37489 174.84136 
L 111.647895 188.750692 
" clip-path="url(#p2a59883b5e)" style="fill: #808080; stroke-dasharray: 5.671852,1.417963,0.886227,1.417963; stroke-dashoffset: 0; stroke: #808080; stroke-width: 0.886227"/>
   </g>
   <g id="line2d_28">
    <path d="M 144.916066 271.8 
L 144.916066 163.643773 
" clip-path="url(#p2a59883b5e)" style="fill: none; stroke-dasharray: 5.671852,1.417963,0.886227,1.417963; stroke-dashoffset: 0; stroke: #808080; stroke-width: 0.886227"/>
   </g>
   <g id="patch_6">
    <path d="M 148.64306 177.553105 
L 144.916066 163.643773 
L 141.189072 177.553105 
" clip-path="url(#p2a59883b5e)" style="fill: #808080; stroke-dasharray: 5.671852,1.417963,0.886227,1.417963; stroke-dashoffset: 0; stroke: #808080; stroke-width: 0.886227"/>
   </g>
   <g id="line2d_29">
    <path d="M 167.892537 271.8 
L 167.892537 145.799999 
" clip-path="url(#p2a59883b5e)" style="fill: none; stroke-dasharray: 5.671852,1.417963,0.886227,1.417963; stroke-dashoffset: 0; stroke: #808080; stroke-width: 0.886227"/>
   </g>
   <g id="patch_7">
    <path d="M 171.619531 159.709331 
L 167.892537 145.799999 
L 164.165543 159.709331 
" clip-path="url(#p2a59883b5e)" style="fill: #808080; stroke-dasharray: 5.671852,1.417963,0.886227,1.417963; stroke-dashoffset: 0; stroke: #808080; stroke-width: 0.886227"/>
   </g>
   <g id="line2d_30">
    <path d="M 171.83136 271.8 
L 171.83136 145.799999 
" clip-path="url(#p2a59883b5e)" style="fill: none; stroke-dasharray: 5.671852,1.417963,0.886227,1.417963; stroke-dashoffset: 0; stroke: #808080; stroke-width: 0.886227"/>
   </g>
   <g id="patch_8">
    <path d="M 175.558355 159.709331 
L 171.83136 145.799999 
L 168.104366 159.709331 
" clip-path="url(#p2a59883b5e)" style="fill: #808080; stroke-dasharray: 5.671852,1.417963,0.886227,1.417963; stroke-dashoffset: 0; stroke: #808080; stroke-width: 0.886227"/>
   </g>
   <g id="line2d_31">
    <path d="M 175.770184 271.8 
L 175.770184 145.799999 
" clip-path="url(#p2a59883b5e)" style="fill: none; stroke-dasharray: 5.671852,1.417963,0.886227,1.417963; stroke-dashoffset: 0; stroke: #808080; stroke-width: 0.886227"/>
   </g>
   <g id="patch_9">
    <path d="M 179.497178 159.709331 
L 175.770184 145.799999 
L 172.04319 159.709331 
" clip-path="url(#p2a59883b5e)" style="fill: #808080; stroke-dasharray: 5.671852,1.417963,0.886227,1.417963; stroke-dashoffset: 0; stroke: #808080; stroke-width: 0.886227"/>
   </g>
   <g id="line2d_32">
    <path d="M 179.709007 271.8 
L 179.709007 145.799999 
" clip-path="url(#p2a59883b5e)" style="fill: none; stroke-dasharray: 5.671852,1.417963,0.886227,1.417963; stroke-dashoffset: 0; stroke: #808080; stroke-width: 0.886227"/>
   </g>
   <g id="patch_10">
    <path d="M 183.436002 159.709331 
L 179.709007 145.799999 
L 175.982013 159.709331 
" clip-path="url(#p2a59883b5e)" style="fill: #808080; stroke-dasharray: 5.671852,1.417963,0.886227,1.417963; stroke-dashoffset: 0; stroke: #808080; stroke-width: 0.886227"/>
   </g>
   <g id="line2d_33">
    <path d="M 183.647831 271.8 
L 183.647831 145.799999 
" clip-path="url(#p2a59883b5e)" style="fill: none; stroke-dasharray: 5.671852,1.417963,0.886227,1.417963; stroke-dashoffset: 0; stroke: #808080; stroke-width: 0.886227"/>
   </g>
   <g id="patch_11">
    <path d="M 187.374825 159.709331 
L 183.647831 145.799999 
L 179.920837 159.709331 
" clip-path="url(#p2a59883b5e)" style="fill: #808080; stroke-dasharray: 5.671852,1.417963,0.886227,1.417963; stroke-dashoffset: 0; stroke: #808080; stroke-width: 0.886227"/>
   </g>
   <g id="line2d_34">
    <path d="M 187.586654 271.8 
L 187.586654 145.799999 
" clip-path="url(#p2a59883b5e)" style="fill: none; stroke-dasharray: 5.671852,1.417963,0.886227,1.417963; stroke-dashoffset: 0; stroke: #808080; stroke-width: 0.886227"/>
   </g>
   <g id="patch_12">
    <path d="M 191.313649 159.709331 
L 187.586654 145.799999 
L 183.85966 159.709331 
" clip-path="url(#p2a59883b5e)" style="fill: #808080; stroke-dasharray: 5.671852,1.417963,0.886227,1.417963; stroke-dashoffset: 0; stroke: #808080; stroke-width: 0.886227"/>
   </g>
   <g id="line2d_35">
    <path d="M 210.563125 271.8 
L 210.563125 127.956225 
" clip-path="url(#p2a59883b5e)" style="fill: none; stroke-dasharray: 5.671852,1.417963,0.886227,1.417963; stroke-dashoffset: 0; stroke: #808080; stroke-width: 0.886227"/>
   </g>
   <g id="patch_13">
    <path d="M 214.290119 141.865557 
L 210.563125 127.956225 
L 206.836131 141.865557 
" clip-path="url(#p2a59883b5e)" style="fill: #808080; stroke-dasharray: 5.671852,1.417963,0.886227,1.417963; stroke-dashoffset: 0; stroke: #808080; stroke-width: 0.886227"/>
   </g>
   <g id="line2d_36">
    <path d="M 276.210184 271.8 
L 276.210184 121.079618 
" clip-path="url(#p2a59883b5e)" style="fill: none; stroke-dasharray: 5.671852,1.417963,0.886227,1.417963; stroke-dashoffset: 0; stroke: #808080; stroke-width: 0.886227"/>
   </g>
   <g id="patch_14">
    <path d="M 279.937178 134.98895 
L 276.210184 121.079618 
L 272.48319 134.98895 
" clip-path="url(#p2a59883b5e)" style="fill: #808080; stroke-dasharray: 5.671852,1.417963,0.886227,1.417963; stroke-dashoffset: 0; stroke: #808080; stroke-width: 0.886227"/>
   </g>
   <g id="line2d_37">
    <path d="M 309.033713 271.8 
L 309.033713 111.240657 
" clip-path="url(#p2a59883b5e)" style="fill: none; stroke-dasharray: 5.671852,1.417963,0.886227,1.417963; stroke-dashoffset: 0; stroke: #808080; stroke-width: 0.886227"/>
   </g>
   <g id="patch_15">
    <path d="M 312.760707 125.149989 
L 309.033713 111.240657 
L 305.306719 125.149989 
" clip-path="url(#p2a59883b5e)" style="fill: #808080; stroke-dasharray: 5.671852,1.417963,0.886227,1.417963; stroke-dashoffset: 0; stroke: #808080; stroke-width: 0.886227"/>
   </g>
   <g id="line2d_38">
    <path d="M 341.857243 271.8 
L 341.857243 19.8 
" clip-path="url(#p2a59883b5e)" style="fill: none; stroke-dasharray: 5.671852,1.417963,0.886227,1.417963; stroke-dashoffset: 0; stroke: #808080; stroke-width: 0.886227"/>
   </g>
   <g id="patch_16">
    <path d="M 345.584237 33.709332 
L 341.857243 19.8 
L 338.130248 33.709332 
" clip-path="url(#p2a59883b5e)" style="fill: #808080; stroke-dasharray: 5.671852,1.417963,0.886227,1.417963; stroke-dashoffset: 0; stroke: #808080; stroke-width: 0.886227"/>
   </g>
   <g id="line2d_39">
    <path d="M 46.445478 271.799998 
L 79.301864 271.799998 
L 79.301864 237.513722 
L 79.630428 237.513722 
L 79.630428 221.875323 
L 79.958991 221.875323 
L 79.958991 217.158365 
L 80.287555 217.158365 
L 80.287555 214.185519 
L 80.616119 214.185519 
L 80.616119 211.982964 
L 80.944683 211.982964 
L 80.944683 210.220429 
L 81.273247 210.220429 
L 81.273247 208.744341 
L 81.601811 208.744341 
L 81.601811 207.470334 
L 81.930375 207.470334 
L 81.930375 206.346912 
L 82.258938 206.346912 
L 82.258938 205.340256 
L 82.587502 205.340256 
L 82.587502 204.426923 
L 82.916066 204.426923 
L 82.916066 203.589973 
L 83.24463 203.589973 
L 83.24463 202.816755 
L 83.573194 202.816755 
L 83.573194 202.097562 
L 83.901758 202.097562 
L 83.901758 201.424779 
L 84.230322 201.424779 
L 84.230322 200.792319 
L 84.558885 200.792319 
L 84.558885 200.195236 
L 84.887449 200.195236 
L 84.887449 199.629454 
L 85.216013 199.629454 
L 85.216013 199.091576 
L 85.544577 199.091576 
L 85.544577 198.578736 
L 85.873141 198.578736 
L 85.873141 198.088497 
L 86.201705 198.088497 
L 86.201705 197.618766 
L 86.530269 197.618766 
L 86.530269 197.167734 
L 86.858832 197.167734 
L 86.858832 196.733823 
L 87.187396 196.733823 
L 87.187396 196.315651 
L 87.51596 196.315651 
L 87.51596 195.912002 
L 87.844524 195.912002 
L 87.844524 195.521794 
L 88.173088 195.521794 
L 88.173088 195.144068 
L 88.501652 195.144068 
L 88.501652 194.777962 
L 88.830216 194.777962 
L 88.830216 194.422704 
L 89.158779 194.422704 
L 89.158779 194.077598 
L 89.487343 194.077598 
L 89.487343 193.742014 
L 89.815907 193.742014 
L 89.815907 193.415378 
L 90.144471 193.415378 
L 90.144471 193.097171 
L 90.473035 193.097171 
L 90.473035 192.786916 
L 90.801599 192.786916 
L 90.801599 192.484176 
L 91.130163 192.484176 
L 91.130163 192.188551 
L 91.458726 192.188551 
L 91.458726 191.899672 
L 91.78729 191.899672 
L 91.78729 191.617199 
L 92.115854 191.617199 
L 92.115854 191.340817 
L 92.444418 191.340817 
L 92.444418 191.070235 
L 92.772982 191.070235 
L 92.772982 190.805181 
L 93.101546 190.805181 
L 93.101546 190.545404 
L 93.43011 190.545404 
L 93.43011 190.29067 
L 93.758673 190.29067 
L 93.758673 190.040759 
L 94.087237 190.040759 
L 94.087237 189.795465 
L 94.415801 189.795465 
L 94.415801 189.554599 
L 94.744365 189.554599 
L 94.744365 189.317978 
L 95.072929 189.317978 
L 95.072929 189.085436 
L 95.401493 189.085436 
L 95.401493 188.856812 
L 95.730057 188.856812 
L 95.730057 188.631957 
L 96.05862 188.631957 
L 96.05862 188.41073 
L 96.387184 188.41073 
L 96.387184 188.192998 
L 96.715748 188.192998 
L 96.715748 187.978636 
L 97.044312 187.978636 
L 97.044312 187.767523 
L 97.372876 187.767523 
L 97.372876 187.559549 
L 97.70144 187.559549 
L 97.70144 187.354605 
L 98.030004 187.354605 
L 98.030004 187.152591 
L 98.358568 187.152591 
L 98.358568 186.953411 
L 98.687131 186.953411 
L 98.687131 186.756972 
L 99.015695 186.756972 
L 99.015695 186.563188 
L 99.344259 186.563188 
L 99.344259 186.371976 
L 99.672823 186.371976 
L 99.672823 186.183257 
L 100.001387 186.183257 
L 100.001387 185.996956 
L 100.329951 185.996956 
L 100.329951 185.813 
L 100.658515 185.813 
L 100.658515 185.631322 
L 100.987078 185.631322 
L 100.987078 185.451855 
L 101.315642 185.451855 
L 101.315642 185.274537 
L 101.644206 185.274537 
L 101.644206 185.099307 
L 101.97277 185.099307 
L 101.97277 184.926109 
L 102.301334 184.926109 
L 102.301334 184.754886 
L 102.629898 184.754886 
L 102.629898 184.585586 
L 102.958462 184.585586 
L 102.958462 184.418158 
L 103.287025 184.418158 
L 103.287025 184.252553 
L 103.615589 184.252553 
L 103.615589 184.088724 
L 103.944153 184.088724 
L 103.944153 183.926628 
L 104.272717 183.926628 
L 104.272717 183.766219 
L 104.601281 183.766219 
L 104.601281 183.607456 
L 104.929845 183.607456 
L 104.929845 183.4503 
L 105.258409 183.4503 
L 105.258409 183.294712 
L 105.586972 183.294712 
L 105.586972 183.140654 
L 105.915536 183.140654 
L 105.915536 182.98809 
L 106.2441 182.98809 
L 106.2441 182.836986 
L 106.572664 182.836986 
L 106.572664 182.687309 
L 106.901228 182.687309 
L 106.901228 182.539025 
L 107.229792 182.539025 
L 107.229792 182.392105 
L 107.558356 182.392105 
L 107.558356 182.246517 
L 107.886919 182.246517 
L 107.886919 182.102233 
L 108.215483 182.102233 
L 108.215483 181.959224 
L 108.544047 181.959224 
L 108.544047 181.817464 
L 108.872611 181.817464 
L 108.872611 181.676925 
L 109.201175 181.676925 
L 109.201175 181.537583 
L 109.529739 181.537583 
L 109.529739 181.399413 
L 109.858303 181.399413 
L 109.858303 181.26239 
L 110.186866 181.26239 
L 110.186866 181.126491 
L 110.51543 181.126491 
L 110.51543 180.991695 
L 110.843994 180.991695 
L 110.843994 180.857978 
L 111.172558 180.857978 
L 111.172558 180.725321 
L 111.501122 180.725321 
L 111.501122 180.593702 
L 111.829686 180.593702 
L 111.829686 180.463101 
L 112.15825 180.463101 
L 112.15825 170.504645 
L 112.815377 170.42613 
L 112.815377 170.347873 
L 113.472505 170.26987 
L 113.472505 170.192121 
L 114.129633 170.114621 
L 114.129633 170.03737 
L 114.78676 169.960364 
L 114.78676 169.883601 
L 115.443888 169.807079 
L 115.443888 169.730796 
L 116.101016 169.654749 
L 116.101016 169.578937 
L 116.758144 169.503356 
L 116.758144 169.428005 
L 117.415271 169.352882 
L 117.415271 169.277985 
L 118.072399 169.203311 
L 118.072399 169.128858 
L 118.729527 169.054626 
L 118.729527 168.980611 
L 119.386654 168.906811 
L 119.386654 168.833225 
L 120.043782 168.759851 
L 120.043782 168.686687 
L 120.70091 168.61373 
L 120.70091 168.54098 
L 121.358038 168.468435 
L 121.358038 168.396092 
L 122.015165 168.323949 
L 122.015165 168.252006 
L 122.672293 168.18026 
L 122.672293 168.10871 
L 123.329421 168.037353 
L 123.329421 167.966189 
L 123.986548 167.895216 
L 123.986548 167.824431 
L 124.643676 167.753834 
L 124.643676 167.683423 
L 125.300804 167.613196 
L 125.300804 167.543152 
L 125.957932 167.473289 
L 125.957932 167.403606 
L 126.615059 167.3341 
L 126.615059 167.264772 
L 127.272187 167.195619 
L 127.272187 167.126639 
L 127.929315 167.057832 
L 127.929315 166.989196 
L 128.586442 166.920729 
L 128.586442 166.85243 
L 129.24357 166.784299 
L 129.24357 166.716333 
L 129.900698 166.64853 
L 129.900698 166.580891 
L 130.557826 166.513413 
L 130.557826 166.446096 
L 131.214953 166.378937 
L 131.214953 166.311936 
L 131.872081 166.245092 
L 131.872081 166.178402 
L 132.529209 166.111867 
L 132.529209 166.045484 
L 133.186336 165.979253 
L 133.186336 165.913173 
L 133.843464 165.847241 
L 133.843464 165.781458 
L 134.500592 165.715821 
L 134.500592 165.65033 
L 135.15772 165.584984 
L 135.15772 165.519782 
L 135.814847 165.454722 
L 135.814847 165.389803 
L 136.471975 165.325025 
L 136.471975 165.260385 
L 137.129103 165.195884 
L 137.129103 165.13152 
L 137.78623 165.067292 
L 137.78623 165.0032 
L 138.443358 164.939241 
L 138.443358 164.875415 
L 139.100486 164.811721 
L 139.100486 164.748159 
L 139.757614 164.684726 
L 139.757614 164.621423 
L 140.414741 164.558247 
L 140.414741 164.495199 
L 141.071869 164.432277 
L 141.071869 164.369481 
L 141.728997 164.306809 
L 141.728997 164.244261 
L 142.386124 164.181835 
L 142.386124 164.119531 
L 143.043252 164.057348 
L 143.043252 163.995284 
L 143.70038 163.93334 
L 143.70038 163.871514 
L 144.357508 163.809806 
L 144.357508 163.748214 
L 145.014635 163.686738 
L 145.014635 163.625376 
L 145.671763 163.564129 
L 145.671763 163.502995 
L 146.328891 163.441974 
L 146.328891 163.381064 
L 146.986018 163.320265 
L 146.986018 163.259576 
L 147.643146 163.198996 
L 147.643146 163.138525 
L 148.300274 163.078162 
L 148.300274 163.017905 
L 148.957402 162.957755 
L 148.957402 162.897711 
L 149.614529 162.837771 
L 149.614529 162.777935 
L 150.271657 162.718203 
L 150.271657 162.658573 
L 150.928785 162.599045 
L 150.928785 162.539619 
L 151.585912 162.480292 
L 151.585912 162.421066 
L 152.24304 162.361939 
L 152.24304 162.30291 
L 152.900168 162.243979 
L 152.900168 162.185145 
L 153.557296 162.126407 
L 153.557296 162.067765 
L 154.214423 162.009219 
L 154.214423 161.950766 
L 154.871551 161.892408 
L 154.871551 161.834142 
L 155.528679 161.77597 
L 155.528679 161.717889 
L 156.185807 161.659899 
L 156.185807 161.602 
L 156.842934 161.544192 
L 156.842934 161.486472 
L 157.500062 161.428842 
L 157.500062 161.371299 
L 158.15719 161.313845 
L 158.15719 161.256477 
L 158.814317 161.199196 
L 158.814317 161.142001 
L 159.471445 161.084891 
L 159.471445 161.027866 
L 160.128573 160.970925 
L 160.128573 160.914068 
L 160.785701 160.857294 
L 160.785701 160.800602 
L 161.442828 160.743992 
L 161.442828 160.687464 
L 162.099956 160.631017 
L 162.099956 160.57465 
L 162.757084 160.518363 
L 162.757084 160.462155 
L 163.414211 160.406026 
L 163.414211 160.349975 
L 164.071339 160.294002 
L 164.071339 160.238106 
L 164.728467 160.182286 
L 164.728467 160.126543 
L 165.385595 160.070876 
L 165.385595 160.015284 
L 166.371286 159.904323 
L 166.371286 159.848954 
L 167.356978 159.738434 
L 167.356978 159.683283 
L 168.342669 159.573195 
L 168.342669 159.518258 
L 169.328361 159.408595 
L 169.328361 159.353867 
L 170.314052 159.244619 
L 170.314052 159.190098 
L 171.299744 159.081257 
L 171.299744 159.026937 
L 172.285436 158.918497 
L 172.285436 158.864375 
L 173.271127 158.756325 
L 173.271127 158.702397 
L 174.256819 158.594732 
L 174.256819 158.540995 
L 175.24251 158.433706 
L 175.24251 158.380155 
L 176.228202 158.273236 
L 176.228202 158.219868 
L 177.213893 158.113311 
L 177.213893 158.060122 
L 177.871021 158.006992 
L 177.871021 133.603625 
L 178.856713 133.497329 
L 178.856713 133.444093 
L 179.842404 133.33744 
L 179.842404 133.284023 
L 180.828096 133.177006 
L 180.828096 133.123406 
L 181.813787 133.016018 
L 181.813787 132.96223 
L 182.799479 132.854463 
L 182.799479 132.800484 
L 183.785171 132.692331 
L 183.785171 132.638156 
L 184.770862 132.52961 
L 184.770862 132.475236 
L 185.756554 132.366288 
L 185.756554 132.311712 
L 186.742245 132.202354 
L 186.742245 132.147571 
L 187.727937 132.037795 
L 187.727937 131.982801 
L 188.713628 131.8726 
L 188.713628 131.817391 
L 189.69932 131.706754 
L 189.69932 131.651326 
L 190.685012 131.540246 
L 190.685012 131.484594 
L 191.342139 131.428866 
L 191.342139 131.373062 
L 191.999267 131.317181 
L 191.999267 131.261224 
L 192.656395 131.205188 
L 192.656395 131.149075 
L 193.313522 131.092883 
L 193.313522 131.036612 
L 193.97065 130.980261 
L 193.97065 130.923829 
L 194.627778 130.867317 
L 194.627778 130.810724 
L 195.284906 130.754049 
L 195.284906 130.697291 
L 195.942033 130.640451 
L 195.942033 130.583526 
L 196.599161 130.526518 
L 196.599161 130.469425 
L 197.256289 130.412247 
L 197.256289 130.354984 
L 197.913416 130.297633 
L 197.913416 130.240196 
L 198.570544 130.182671 
L 198.570544 130.125059 
L 199.227672 130.067357 
L 199.227672 130.009566 
L 199.8848 129.951685 
L 199.8848 129.893714 
L 200.541927 129.835651 
L 200.541927 129.777497 
L 201.199055 129.71925 
L 201.199055 129.660911 
L 201.856183 129.602477 
L 201.856183 129.543949 
L 202.51331 129.485326 
L 202.51331 129.426608 
L 203.170438 129.367793 
L 203.170438 129.308882 
L 203.827566 129.249872 
L 203.827566 129.190765 
L 204.484694 129.131558 
L 204.484694 129.072252 
L 205.141821 129.012846 
L 205.141821 128.953338 
L 205.798949 128.893729 
L 205.798949 128.834017 
L 206.456077 128.774202 
L 206.456077 128.714283 
L 207.113204 128.65426 
L 207.113204 128.594131 
L 207.770332 128.533896 
L 207.770332 128.473554 
L 208.42746 128.413104 
L 208.42746 128.352546 
L 209.084588 128.291879 
L 209.084588 128.231102 
L 209.741715 128.170215 
L 209.741715 128.109216 
L 210.398843 128.048104 
L 210.398843 127.98688 
L 211.713099 127.879462 
L 211.713099 127.848707 
L 213.027354 127.756267 
L 213.027354 127.725395 
L 214.341609 127.632603 
L 214.341609 127.601613 
L 215.655865 127.508464 
L 215.655865 127.477354 
L 216.97012 127.383844 
L 216.97012 127.352612 
L 218.284376 127.258734 
L 218.284376 127.22738 
L 219.598631 127.133129 
L 219.598631 127.101649 
L 220.912887 127.00702 
L 220.912887 126.975413 
L 222.227142 126.8804 
L 222.227142 126.848664 
L 223.541397 126.753261 
L 223.541397 126.721394 
L 224.855653 126.625596 
L 224.855653 126.593597 
L 226.169908 126.497397 
L 226.169908 126.465262 
L 227.484164 126.368655 
L 227.484164 126.336384 
L 228.798419 126.239362 
L 228.798419 126.206952 
L 230.112675 126.10951 
L 230.112675 126.076959 
L 231.42693 125.979091 
L 231.42693 125.946396 
L 232.741185 125.848094 
L 232.741185 125.815254 
L 234.055441 125.716513 
L 234.055441 125.683525 
L 235.369696 125.584336 
L 235.369696 125.551198 
L 236.683952 125.451555 
L 236.683952 125.418264 
L 237.998207 125.318161 
L 237.998207 125.284715 
L 239.312463 125.184143 
L 239.312463 125.15054 
L 240.626718 125.049491 
L 240.626718 125.015728 
L 241.940973 124.914196 
L 241.940973 124.880271 
L 243.255229 124.778247 
L 243.255229 124.744156 
L 244.569484 124.641633 
L 244.569484 124.607374 
L 245.88374 124.504343 
L 245.88374 124.469914 
L 247.197995 124.366366 
L 247.197995 124.331763 
L 248.512251 124.227691 
L 248.512251 124.192912 
L 249.826506 124.088306 
L 249.826506 124.053348 
L 251.140761 123.948199 
L 251.140761 123.913058 
L 252.455017 123.807358 
L 252.455017 123.772031 
L 253.769272 123.66577 
L 253.769272 123.630255 
L 255.083528 123.523422 
L 255.083528 123.487715 
L 256.397783 123.380302 
L 256.397783 123.344399 
L 257.712039 123.236395 
L 257.712039 123.200294 
L 259.026294 123.091688 
L 259.026294 123.055385 
L 260.340549 122.946167 
L 260.340549 122.909658 
L 261.654805 122.799817 
L 261.654805 122.763098 
L 262.96906 122.652623 
L 262.96906 122.615691 
L 263.954752 122.541665 
L 263.954752 122.504571 
L 264.940443 122.430218 
L 264.940443 122.392958 
L 265.926135 122.318273 
L 265.926135 122.280847 
L 266.911827 122.205826 
L 266.911827 122.16823 
L 267.897518 122.092868 
L 267.897518 122.055101 
L 268.88321 121.979393 
L 268.88321 121.941452 
L 269.868901 121.865393 
L 269.868901 121.827275 
L 270.854593 121.750861 
L 270.854593 121.712564 
L 271.840285 121.635789 
L 271.840285 121.59731 
L 272.825976 121.52017 
L 272.825976 121.481507 
L 273.811668 121.403995 
L 273.811668 121.365146 
L 274.797359 121.287257 
L 274.797359 121.248218 
L 275.783051 121.169948 
L 275.783051 121.130716 
L 276.768742 121.024466 
L 276.768742 120.945455 
L 277.42587 120.866178 
L 277.42587 120.786633 
L 278.082998 120.706819 
L 278.082998 120.626731 
L 278.740126 120.546367 
L 278.740126 120.465724 
L 279.397253 120.3848 
L 279.397253 120.303592 
L 280.054381 120.222096 
L 280.054381 120.14031 
L 280.711509 120.05823 
L 280.711509 119.975854 
L 281.368636 119.893179 
L 281.368636 119.810201 
L 282.025764 119.726918 
L 282.025764 119.643325 
L 282.682892 119.55942 
L 282.682892 119.475199 
L 283.34002 119.390659 
L 283.34002 119.305796 
L 283.997147 119.220607 
L 283.997147 119.135088 
L 284.654275 119.049237 
L 284.654275 118.963048 
L 285.311403 118.876518 
L 285.311403 118.789643 
L 285.96853 118.70242 
L 285.96853 118.614845 
L 286.625658 118.526913 
L 286.625658 118.438621 
L 287.282786 118.349964 
L 287.282786 118.260938 
L 287.939914 118.171539 
L 287.939914 118.081762 
L 288.597041 117.991603 
L 288.597041 117.901058 
L 289.254169 117.810121 
L 289.254169 117.718789 
L 289.911297 117.627056 
L 289.911297 117.534917 
L 290.568424 117.442369 
L 290.568424 117.349404 
L 291.225552 117.256019 
L 291.225552 117.162209 
L 291.88268 117.067967 
L 291.88268 116.973289 
L 292.539808 116.878168 
L 292.539808 116.7826 
L 293.196935 116.686579 
L 293.196935 116.590098 
L 293.854063 116.493152 
L 293.854063 116.395735 
L 294.511191 116.29784 
L 294.511191 116.199462 
L 295.168318 116.100593 
L 295.168318 116.001227 
L 295.825446 115.901358 
L 295.825446 115.800978 
L 296.482574 115.700082 
L 296.482574 115.59866 
L 297.139702 115.496707 
L 297.139702 115.394215 
L 297.796829 115.291176 
L 297.796829 115.187582 
L 298.453957 115.083426 
L 298.453957 114.9787 
L 299.111085 114.873394 
L 299.111085 114.767502 
L 299.768212 114.661013 
L 299.768212 114.55392 
L 300.42534 114.446214 
L 300.42534 114.337884 
L 301.082468 114.228922 
L 301.082468 114.119318 
L 301.739596 114.009062 
L 301.739596 113.898144 
L 302.068159 113.898144 
L 302.068159 113.786553 
L 302.396723 113.786553 
L 302.396723 113.67428 
L 302.725287 113.67428 
L 302.725287 113.561313 
L 303.053851 113.561313 
L 303.053851 113.447641 
L 303.382415 113.447641 
L 303.382415 113.333252 
L 303.710979 113.333252 
L 303.710979 113.218136 
L 304.039543 113.218136 
L 304.039543 113.10228 
L 304.368106 113.10228 
L 304.368106 112.985671 
L 304.69667 112.985671 
L 304.69667 112.868298 
L 305.025234 112.868298 
L 305.025234 112.750147 
L 305.353798 112.750147 
L 305.353798 112.631205 
L 305.682362 112.631205 
L 305.682362 112.511459 
L 306.010926 112.511459 
L 306.010926 112.390895 
L 306.33949 112.390895 
L 306.33949 112.269497 
L 306.668053 112.269497 
L 306.668053 112.147253 
L 306.996617 112.147253 
L 306.996617 112.024146 
L 307.325181 112.024146 
L 307.325181 111.900162 
L 307.653745 111.900162 
L 307.653745 111.775283 
L 307.982309 111.775283 
L 307.982309 111.649495 
L 308.310873 111.649495 
L 308.310873 111.522779 
L 308.639437 111.522779 
L 308.639437 111.39512 
L 308.968 111.39512 
L 308.968 111.266498 
L 309.296564 111.266498 
L 309.296564 111.136897 
L 309.625128 111.136897 
L 309.625128 111.006296 
L 309.953692 111.006296 
L 309.953692 110.874677 
L 310.282256 110.874677 
L 310.282256 110.742019 
L 310.61082 110.742019 
L 310.61082 110.608303 
L 310.939384 110.608303 
L 310.939384 110.473506 
L 311.267947 110.473506 
L 311.267947 110.337608 
L 311.596511 110.337608 
L 311.596511 110.200585 
L 311.925075 110.200585 
L 311.925075 110.062414 
L 312.253639 110.062414 
L 312.253639 109.923072 
L 312.582203 109.923072 
L 312.582203 109.782534 
L 312.910767 109.782534 
L 312.910767 109.640773 
L 313.239331 109.640773 
L 313.239331 109.497765 
L 313.567894 109.497765 
L 313.567894 109.353481 
L 313.896458 109.353481 
L 313.896458 109.207893 
L 314.225022 109.207893 
L 314.225022 109.060972 
L 314.553586 109.060972 
L 314.553586 108.912689 
L 314.88215 108.912689 
L 314.88215 108.763011 
L 315.210714 108.763011 
L 315.210714 108.611908 
L 315.539278 108.611908 
L 315.539278 108.459344 
L 315.867841 108.459344 
L 315.867841 108.305286 
L 316.196405 108.305286 
L 316.196405 108.149697 
L 316.524969 108.149697 
L 316.524969 107.992541 
L 316.853533 107.992541 
L 316.853533 107.833779 
L 317.182097 107.833779 
L 317.182097 107.67337 
L 317.510661 107.67337 
L 317.510661 107.511273 
L 317.839225 107.511273 
L 317.839225 107.347445 
L 318.167788 107.347445 
L 318.167788 107.18184 
L 318.496352 107.18184 
L 318.496352 107.014412 
L 318.824916 107.014412 
L 318.824916 106.845112 
L 319.15348 106.845112 
L 319.15348 106.673889 
L 319.482044 106.673889 
L 319.482044 106.50069 
L 319.810608 106.50069 
L 319.810608 106.325461 
L 320.139172 106.325461 
L 320.139172 106.148142 
L 320.467735 106.148142 
L 320.467735 105.968676 
L 320.796299 105.968676 
L 320.796299 105.786997 
L 321.124863 105.786997 
L 321.124863 105.603042 
L 321.453427 105.603042 
L 321.453427 105.416741 
L 321.781991 105.416741 
L 321.781991 105.228022 
L 322.110555 105.228022 
L 322.110555 105.03681 
L 322.439119 105.03681 
L 322.439119 104.843026 
L 322.767682 104.843026 
L 322.767682 104.646587 
L 323.096246 104.646587 
L 323.096246 104.447406 
L 323.42481 104.447406 
L 323.42481 104.245392 
L 323.753374 104.245392 
L 323.753374 104.040449 
L 324.081938 104.040449 
L 324.081938 103.832474 
L 324.410502 103.832474 
L 324.410502 103.621362 
L 324.739066 103.621362 
L 324.739066 103.407 
L 325.06763 103.407 
L 325.06763 103.189268 
L 325.396193 103.189268 
L 325.396193 102.968041 
L 325.724757 102.968041 
L 325.724757 102.743186 
L 326.053321 102.743186 
L 326.053321 102.514562 
L 326.381885 102.514562 
L 326.381885 102.282019 
L 326.710449 102.282019 
L 326.710449 102.045399 
L 327.039013 102.045399 
L 327.039013 101.804532 
L 327.367577 101.804532 
L 327.367577 101.559239 
L 327.69614 101.559239 
L 327.69614 101.309328 
L 328.024704 101.309328 
L 328.024704 101.054593 
L 328.353268 101.054593 
L 328.353268 100.794817 
L 328.681832 100.794817 
L 328.681832 100.529763 
L 329.010396 100.529763 
L 329.010396 100.259181 
L 329.33896 100.259181 
L 329.33896 99.982799 
L 329.667524 99.982799 
L 329.667524 99.700326 
L 329.996087 99.700326 
L 329.996087 99.411447 
L 330.324651 99.411447 
L 330.324651 99.115822 
L 330.653215 99.115822 
L 330.653215 98.813082 
L 330.981779 98.813082 
L 330.981779 98.502826 
L 331.310343 98.502826 
L 331.310343 98.184619 
L 331.638907 98.184619 
L 331.638907 97.857984 
L 331.967471 97.857984 
L 331.967471 97.5224 
L 332.296034 97.5224 
L 332.296034 97.177294 
L 332.624598 97.177294 
L 332.624598 96.822036 
L 332.953162 96.822036 
L 332.953162 96.45593 
L 333.281726 96.45593 
L 333.281726 96.078203 
L 333.61029 96.078203 
L 333.61029 95.687996 
L 333.938854 95.687996 
L 333.938854 95.284346 
L 334.267418 95.284346 
L 334.267418 94.866175 
L 334.595981 94.866175 
L 334.595981 94.432264 
L 334.924545 94.432264 
L 334.924545 93.981231 
L 335.253109 93.981231 
L 335.253109 93.5115 
L 335.581673 93.5115 
L 335.581673 93.021262 
L 335.910237 93.021262 
L 335.910237 92.508422 
L 336.238801 92.508422 
L 336.238801 91.970543 
L 336.567365 91.970543 
L 336.567365 91.404762 
L 336.895928 91.404762 
L 336.895928 90.807678 
L 337.224492 90.807678 
L 337.224492 90.175218 
L 337.553056 90.175218 
L 337.553056 89.502436 
L 337.88162 89.502436 
L 337.88162 88.783243 
L 338.210184 88.783243 
L 338.210184 88.010024 
L 338.538748 88.010024 
L 338.538748 87.173075 
L 338.867312 87.173075 
L 338.867312 86.259741 
L 339.195875 86.259741 
L 339.195875 85.253085 
L 339.524439 85.253085 
L 339.524439 84.129664 
L 339.853003 84.129664 
L 339.853003 82.855657 
L 340.181567 82.855657 
L 340.181567 81.379569 
L 340.510131 81.379569 
L 340.510131 79.617033 
L 340.838695 79.617033 
L 340.838695 77.414478 
L 341.167259 77.414478 
L 341.167259 74.441633 
L 341.495822 74.441633 
L 341.495822 69.724675 
L 341.824386 69.724675 
L 341.824386 54.086276 
L 342.15295 54.086276 
L 342.15295 19.8 
L 374.680772 19.8 
L 374.680772 19.8 
" clip-path="url(#p2a59883b5e)" style="fill: none; stroke: #000000; stroke-width: 0.886227; stroke-linejoin: miter"/>
   </g>
  </g>
 </g>
 <defs>
  <clipPath id="p2a59883b5e">
   <rect x="43.163125" y="7.2" width="334.8" height="277.2"/>
  </clipPath>
 </defs>
</svg>
