<?xml version="1.0" encoding="utf-8" standalone="no"?>
<!DOCTYPE svg PUBLIC "-//W3C//DTD SVG 1.1//EN"
  "http://www.w3.org/Graphics/SVG/1.1/DTD/svg11.dtd">
<svg height="501.47677pt" version="1.1" viewBox="0 0 1019.681187 501.47677" width="1019.681187pt" xmlns="http://www.w3.org/2000/svg" xmlns:xlink="http://www.w3.org/1999/xlink">
 <metadata>
  <rdf:RDF xmlns:cc="http://creativecommons.org/ns#" xmlns:dc="http://purl.org/dc/elements/1.1/" xmlns:rdf="http://www.w3.org/1999/02/22-rdf-syntax-ns#">
   <cc:Work>
    <dc:type rdf:resource="http://purl.org/dc/dcmitype/StillImage"/>
    <dc:date>2022-05-24T14:33:49.891884</dc:date>
    <dc:format>image/svg+xml</dc:format>
    <dc:creator>
     <cc:Agent>
      <dc:title>Matplotlib v3.4.3, https://matplotlib.org/</dc:title>
     </cc:Agent>
    </dc:creator>
   </cc:Work>
  </rdf:RDF>
 </metadata>
 <defs>
  <style type="text/css">*{stroke-linecap:butt;stroke-linejoin:round;}</style>
 </defs>
 <g id="figure_1">
  <g id="patch_1">
   <path d="M 0 501.47677 
L 1019.681187 501.47677 
L 1019.681187 0 
L 0 0 
z
" style="fill:#ffffff;stroke:#ffffff;stroke-linejoin:miter;"/>
  </g>
  <g id="axes_1">
   <g id="patch_2">
    <path d="M 52.388688 234.334082 
L 415.737525 234.334082 
L 415.737525 22.244082 
L 52.388688 22.244082 
z
" style="fill:#ebebeb;"/>
   </g>
   <g id="matplotlib.axis_1">
    <g id="xtick_1">
     <g id="line2d_1">
      <path clip-path="url(#p74d6561333)" d="M 104.295664 234.334082 
L 104.295664 22.244082 
" style="fill:none;stroke:#ffffff;"/>
     </g>
    </g>
    <g id="xtick_2">
     <g id="line2d_2">
      <path clip-path="url(#p74d6561333)" d="M 363.830548 234.334082 
L 363.830548 22.244082 
" style="fill:none;stroke:#ffffff;"/>
     </g>
    </g>
    <g id="xtick_3">
     <g id="line2d_3">
      <path clip-path="url(#p74d6561333)" d="M 234.063106 234.334082 
L 234.063106 22.244082 
" style="fill:none;stroke:#ffffff;stroke-width:0.5;"/>
     </g>
    </g>
   </g>
   <g id="matplotlib.axis_2">
    <g id="ytick_1">
     <g id="line2d_4">
      <path clip-path="url(#p74d6561333)" d="M 52.388688 179.041519 
L 415.737525 179.041519 
" style="fill:none;stroke:#ffffff;"/>
     </g>
     <g id="line2d_5">
      <path d="M 52.388688 179.041519 
" style="fill:none;stroke:#333333;stroke-width:1.5;"/>
      <defs>
       <path d="M 0 0 
L -2.75 0 
" id="mc667adcb93" style="stroke:#000000;"/>
      </defs>
      <g>
       <use style="fill:#333333;stroke:#000000;" x="52.388688" xlink:href="#mc667adcb93" y="179.041519"/>
      </g>
     </g>
     <g id="text_1">
      <!-- 0.834 -->
      <g style="fill:#4d4d4d;" transform="translate(22.245938 181.469769)scale(0.088 -0.088)">
       <defs>
        <path d="M 2034 4250 
Q 1547 4250 1301 3770 
Q 1056 3291 1056 2328 
Q 1056 1369 1301 889 
Q 1547 409 2034 409 
Q 2525 409 2770 889 
Q 3016 1369 3016 2328 
Q 3016 3291 2770 3770 
Q 2525 4250 2034 4250 
z
M 2034 4750 
Q 2819 4750 3233 4129 
Q 3647 3509 3647 2328 
Q 3647 1150 3233 529 
Q 2819 -91 2034 -91 
Q 1250 -91 836 529 
Q 422 1150 422 2328 
Q 422 3509 836 4129 
Q 1250 4750 2034 4750 
z
" id="DejaVuSans-30" transform="scale(0.015625)"/>
        <path d="M 684 794 
L 1344 794 
L 1344 0 
L 684 0 
L 684 794 
z
" id="DejaVuSans-2e" transform="scale(0.015625)"/>
        <path d="M 2034 2216 
Q 1584 2216 1326 1975 
Q 1069 1734 1069 1313 
Q 1069 891 1326 650 
Q 1584 409 2034 409 
Q 2484 409 2743 651 
Q 3003 894 3003 1313 
Q 3003 1734 2745 1975 
Q 2488 2216 2034 2216 
z
M 1403 2484 
Q 997 2584 770 2862 
Q 544 3141 544 3541 
Q 544 4100 942 4425 
Q 1341 4750 2034 4750 
Q 2731 4750 3128 4425 
Q 3525 4100 3525 3541 
Q 3525 3141 3298 2862 
Q 3072 2584 2669 2484 
Q 3125 2378 3379 2068 
Q 3634 1759 3634 1313 
Q 3634 634 3220 271 
Q 2806 -91 2034 -91 
Q 1263 -91 848 271 
Q 434 634 434 1313 
Q 434 1759 690 2068 
Q 947 2378 1403 2484 
z
M 1172 3481 
Q 1172 3119 1398 2916 
Q 1625 2713 2034 2713 
Q 2441 2713 2670 2916 
Q 2900 3119 2900 3481 
Q 2900 3844 2670 4047 
Q 2441 4250 2034 4250 
Q 1625 4250 1398 4047 
Q 1172 3844 1172 3481 
z
" id="DejaVuSans-38" transform="scale(0.015625)"/>
        <path d="M 2597 2516 
Q 3050 2419 3304 2112 
Q 3559 1806 3559 1356 
Q 3559 666 3084 287 
Q 2609 -91 1734 -91 
Q 1441 -91 1130 -33 
Q 819 25 488 141 
L 488 750 
Q 750 597 1062 519 
Q 1375 441 1716 441 
Q 2309 441 2620 675 
Q 2931 909 2931 1356 
Q 2931 1769 2642 2001 
Q 2353 2234 1838 2234 
L 1294 2234 
L 1294 2753 
L 1863 2753 
Q 2328 2753 2575 2939 
Q 2822 3125 2822 3475 
Q 2822 3834 2567 4026 
Q 2313 4219 1838 4219 
Q 1578 4219 1281 4162 
Q 984 4106 628 3988 
L 628 4550 
Q 988 4650 1302 4700 
Q 1616 4750 1894 4750 
Q 2613 4750 3031 4423 
Q 3450 4097 3450 3541 
Q 3450 3153 3228 2886 
Q 3006 2619 2597 2516 
z
" id="DejaVuSans-33" transform="scale(0.015625)"/>
        <path d="M 2419 4116 
L 825 1625 
L 2419 1625 
L 2419 4116 
z
M 2253 4666 
L 3047 4666 
L 3047 1625 
L 3713 1625 
L 3713 1100 
L 3047 1100 
L 3047 0 
L 2419 0 
L 2419 1100 
L 313 1100 
L 313 1709 
L 2253 4666 
z
" id="DejaVuSans-34" transform="scale(0.015625)"/>
       </defs>
       <use xlink:href="#DejaVuSans-30"/>
       <use x="63.623047" xlink:href="#DejaVuSans-2e"/>
       <use x="95.410156" xlink:href="#DejaVuSans-38"/>
       <use x="159.033203" xlink:href="#DejaVuSans-33"/>
       <use x="222.65625" xlink:href="#DejaVuSans-34"/>
      </g>
     </g>
    </g>
    <g id="ytick_2">
     <g id="line2d_6">
      <path clip-path="url(#p74d6561333)" d="M 52.388688 116.081742 
L 415.737525 116.081742 
" style="fill:none;stroke:#ffffff;"/>
     </g>
     <g id="line2d_7">
      <path d="M 52.388688 116.081742 
" style="fill:none;stroke:#333333;stroke-width:1.5;"/>
      <g>
       <use style="fill:#333333;stroke:#000000;" x="52.388688" xlink:href="#mc667adcb93" y="116.081742"/>
      </g>
     </g>
     <g id="text_2">
      <!-- 0.836 -->
      <g style="fill:#4d4d4d;" transform="translate(22.245938 118.509992)scale(0.088 -0.088)">
       <defs>
        <path d="M 2113 2584 
Q 1688 2584 1439 2293 
Q 1191 2003 1191 1497 
Q 1191 994 1439 701 
Q 1688 409 2113 409 
Q 2538 409 2786 701 
Q 3034 994 3034 1497 
Q 3034 2003 2786 2293 
Q 2538 2584 2113 2584 
z
M 3366 4563 
L 3366 3988 
Q 3128 4100 2886 4159 
Q 2644 4219 2406 4219 
Q 1781 4219 1451 3797 
Q 1122 3375 1075 2522 
Q 1259 2794 1537 2939 
Q 1816 3084 2150 3084 
Q 2853 3084 3261 2657 
Q 3669 2231 3669 1497 
Q 3669 778 3244 343 
Q 2819 -91 2113 -91 
Q 1303 -91 875 529 
Q 447 1150 447 2328 
Q 447 3434 972 4092 
Q 1497 4750 2381 4750 
Q 2619 4750 2861 4703 
Q 3103 4656 3366 4563 
z
" id="DejaVuSans-36" transform="scale(0.015625)"/>
       </defs>
       <use xlink:href="#DejaVuSans-30"/>
       <use x="63.623047" xlink:href="#DejaVuSans-2e"/>
       <use x="95.410156" xlink:href="#DejaVuSans-38"/>
       <use x="159.033203" xlink:href="#DejaVuSans-33"/>
       <use x="222.65625" xlink:href="#DejaVuSans-36"/>
      </g>
     </g>
    </g>
    <g id="ytick_3">
     <g id="line2d_8">
      <path clip-path="url(#p74d6561333)" d="M 52.388688 53.121965 
L 415.737525 53.121965 
" style="fill:none;stroke:#ffffff;"/>
     </g>
     <g id="line2d_9">
      <path d="M 52.388688 53.121965 
" style="fill:none;stroke:#333333;stroke-width:1.5;"/>
      <g>
       <use style="fill:#333333;stroke:#000000;" x="52.388688" xlink:href="#mc667adcb93" y="53.121965"/>
      </g>
     </g>
     <g id="text_3">
      <!-- 0.838 -->
      <g style="fill:#4d4d4d;" transform="translate(22.245938 55.550215)scale(0.088 -0.088)">
       <use xlink:href="#DejaVuSans-30"/>
       <use x="63.623047" xlink:href="#DejaVuSans-2e"/>
       <use x="95.410156" xlink:href="#DejaVuSans-38"/>
       <use x="159.033203" xlink:href="#DejaVuSans-33"/>
       <use x="222.65625" xlink:href="#DejaVuSans-38"/>
      </g>
     </g>
    </g>
    <g id="ytick_4">
     <g id="line2d_10">
      <path clip-path="url(#p74d6561333)" d="M 52.388688 210.521407 
L 415.737525 210.521407 
" style="fill:none;stroke:#ffffff;stroke-width:0.5;"/>
     </g>
    </g>
    <g id="ytick_5">
     <g id="line2d_11">
      <path clip-path="url(#p74d6561333)" d="M 52.388688 147.56163 
L 415.737525 147.56163 
" style="fill:none;stroke:#ffffff;stroke-width:0.5;"/>
     </g>
    </g>
    <g id="ytick_6">
     <g id="line2d_12">
      <path clip-path="url(#p74d6561333)" d="M 52.388688 84.601853 
L 415.737525 84.601853 
" style="fill:none;stroke:#ffffff;stroke-width:0.5;"/>
     </g>
    </g>
    <g id="text_4">
     <!-- Value -->
     <g transform="translate(15.558281 256.228457)rotate(-90)scale(0.11 -0.11)">
      <defs>
       <path d="M 1831 0 
L 50 4666 
L 709 4666 
L 2188 738 
L 3669 4666 
L 4325 4666 
L 2547 0 
L 1831 0 
z
" id="DejaVuSans-56" transform="scale(0.015625)"/>
       <path d="M 2194 1759 
Q 1497 1759 1228 1600 
Q 959 1441 959 1056 
Q 959 750 1161 570 
Q 1363 391 1709 391 
Q 2188 391 2477 730 
Q 2766 1069 2766 1631 
L 2766 1759 
L 2194 1759 
z
M 3341 1997 
L 3341 0 
L 2766 0 
L 2766 531 
Q 2569 213 2275 61 
Q 1981 -91 1556 -91 
Q 1019 -91 701 211 
Q 384 513 384 1019 
Q 384 1609 779 1909 
Q 1175 2209 1959 2209 
L 2766 2209 
L 2766 2266 
Q 2766 2663 2505 2880 
Q 2244 3097 1772 3097 
Q 1472 3097 1187 3025 
Q 903 2953 641 2809 
L 641 3341 
Q 956 3463 1253 3523 
Q 1550 3584 1831 3584 
Q 2591 3584 2966 3190 
Q 3341 2797 3341 1997 
z
" id="DejaVuSans-61" transform="scale(0.015625)"/>
       <path d="M 603 4863 
L 1178 4863 
L 1178 0 
L 603 0 
L 603 4863 
z
" id="DejaVuSans-6c" transform="scale(0.015625)"/>
       <path d="M 544 1381 
L 544 3500 
L 1119 3500 
L 1119 1403 
Q 1119 906 1312 657 
Q 1506 409 1894 409 
Q 2359 409 2629 706 
Q 2900 1003 2900 1516 
L 2900 3500 
L 3475 3500 
L 3475 0 
L 2900 0 
L 2900 538 
Q 2691 219 2414 64 
Q 2138 -91 1772 -91 
Q 1169 -91 856 284 
Q 544 659 544 1381 
z
M 1991 3584 
L 1991 3584 
z
" id="DejaVuSans-75" transform="scale(0.015625)"/>
       <path d="M 3597 1894 
L 3597 1613 
L 953 1613 
Q 991 1019 1311 708 
Q 1631 397 2203 397 
Q 2534 397 2845 478 
Q 3156 559 3463 722 
L 3463 178 
Q 3153 47 2828 -22 
Q 2503 -91 2169 -91 
Q 1331 -91 842 396 
Q 353 884 353 1716 
Q 353 2575 817 3079 
Q 1281 3584 2069 3584 
Q 2775 3584 3186 3129 
Q 3597 2675 3597 1894 
z
M 3022 2063 
Q 3016 2534 2758 2815 
Q 2500 3097 2075 3097 
Q 1594 3097 1305 2825 
Q 1016 2553 972 2059 
L 3022 2063 
z
" id="DejaVuSans-65" transform="scale(0.015625)"/>
      </defs>
      <use xlink:href="#DejaVuSans-56"/>
      <use x="60.658203" xlink:href="#DejaVuSans-61"/>
      <use x="121.9375" xlink:href="#DejaVuSans-6c"/>
      <use x="149.720703" xlink:href="#DejaVuSans-75"/>
      <use x="213.099609" xlink:href="#DejaVuSans-65"/>
     </g>
    </g>
   </g>
   <g id="line2d_13">
    <path clip-path="url(#p74d6561333)" d="M 104.295664 31.884537 
L 363.830548 37.988207 
" style="fill:none;stroke:#57d3db;stroke-width:0.886227;"/>
   </g>
   <g id="line2d_14">
    <path clip-path="url(#p74d6561333)" d="M 104.295664 41.081848 
L 363.830548 40.747401 
" style="fill:none;stroke:#a157db;stroke-width:0.886227;"/>
   </g>
   <g id="PathCollection_1">
    <path clip-path="url(#p74d6561333)" d="M 104.295664 33.656991 
C 104.765725 33.656991 105.216596 33.470234 105.548978 33.137851 
C 105.881361 32.805468 106.068118 32.354597 106.068118 31.884537 
C 106.068118 31.414477 105.881361 30.963606 105.548978 30.631223 
C 105.216596 30.29884 104.765725 30.112083 104.295664 30.112083 
C 103.825604 30.112083 103.374733 30.29884 103.04235 30.631223 
C 102.709967 30.963606 102.52321 31.414477 102.52321 31.884537 
C 102.52321 32.354597 102.709967 32.805468 103.04235 33.137851 
C 103.374733 33.470234 103.825604 33.656991 104.295664 33.656991 
z
" style="fill:#57d3db;stroke:#57d3db;stroke-width:0.886227;"/>
    <path clip-path="url(#p74d6561333)" d="M 104.295664 42.854302 
C 104.765725 42.854302 105.216596 42.667545 105.548978 42.335162 
C 105.881361 42.00278 106.068118 41.551909 106.068118 41.081848 
C 106.068118 40.611788 105.881361 40.160917 105.548978 39.828534 
C 105.216596 39.496151 104.765725 39.309394 104.295664 39.309394 
C 103.825604 39.309394 103.374733 39.496151 103.04235 39.828534 
C 102.709967 40.160917 102.52321 40.611788 102.52321 41.081848 
C 102.52321 41.551909 102.709967 42.00278 103.04235 42.335162 
C 103.374733 42.667545 103.825604 42.854302 104.295664 42.854302 
z
" style="fill:#a157db;stroke:#a157db;stroke-width:0.886227;"/>
    <path clip-path="url(#p74d6561333)" d="M 363.830548 40.095109 
C 364.300608 40.095109 364.751479 39.908352 365.083862 39.575969 
C 365.416245 39.243586 365.603002 38.792715 365.603002 38.322655 
C 365.603002 37.852595 365.416245 37.401723 365.083862 37.069341 
C 364.751479 36.736958 364.300608 36.550201 363.830548 36.550201 
C 363.360488 36.550201 362.909617 36.736958 362.577234 37.069341 
C 362.244851 37.401723 362.058094 37.852595 362.058094 38.322655 
C 362.058094 38.792715 362.244851 39.243586 362.577234 39.575969 
C 362.909617 39.908352 363.360488 40.095109 363.830548 40.095109 
z
" style="fill:#db5f57;stroke:#db5f57;stroke-width:0.886227;"/>
    <path clip-path="url(#p74d6561333)" d="M 363.830548 226.466082 
C 364.300608 226.466082 364.751479 226.279325 365.083862 225.946942 
C 365.416245 225.614559 365.603002 225.163688 365.603002 224.693628 
C 365.603002 224.223568 365.416245 223.772696 365.083862 223.440314 
C 364.751479 223.107931 364.300608 222.921174 363.830548 222.921174 
C 363.360488 222.921174 362.909617 223.107931 362.577234 223.440314 
C 362.244851 223.772696 362.058094 224.223568 362.058094 224.693628 
C 362.058094 225.163688 362.244851 225.614559 362.577234 225.946942 
C 362.909617 226.279325 363.360488 226.466082 363.830548 226.466082 
z
" style="fill:#91db57;stroke:#91db57;stroke-width:0.886227;"/>
    <path clip-path="url(#p74d6561333)" d="M 363.830548 39.760661 
C 364.300608 39.760661 364.751479 39.573904 365.083862 39.241521 
C 365.416245 38.909138 365.603002 38.458267 365.603002 37.988207 
C 365.603002 37.518147 365.416245 37.067276 365.083862 36.734893 
C 364.751479 36.40251 364.300608 36.215753 363.830548 36.215753 
C 363.360488 36.215753 362.909617 36.40251 362.577234 36.734893 
C 362.244851 37.067276 362.058094 37.518147 362.058094 37.988207 
C 362.058094 38.458267 362.244851 38.909138 362.577234 39.241521 
C 362.909617 39.573904 363.360488 39.760661 363.830548 39.760661 
z
" style="fill:#57d3db;stroke:#57d3db;stroke-width:0.886227;"/>
    <path clip-path="url(#p74d6561333)" d="M 363.830548 42.519854 
C 364.300608 42.519854 364.751479 42.333097 365.083862 42.000715 
C 365.416245 41.668332 365.603002 41.217461 365.603002 40.747401 
C 365.603002 40.27734 365.416245 39.826469 365.083862 39.494086 
C 364.751479 39.161704 364.300608 38.974947 363.830548 38.974947 
C 363.360488 38.974947 362.909617 39.161704 362.577234 39.494086 
C 362.244851 39.826469 362.058094 40.27734 362.058094 40.747401 
C 362.058094 41.217461 362.244851 41.668332 362.577234 42.000715 
C 362.909617 42.333097 363.360488 42.519854 363.830548 42.519854 
z
" style="fill:#a157db;stroke:#a157db;stroke-width:0.886227;"/>
   </g>
   <g id="patch_3">
    <path d="M 52.388688 22.244082 
L 415.737525 22.244082 
L 415.737525 7.2 
L 52.388688 7.2 
z
" style="fill:#d9d9d9;"/>
   </g>
   <g id="text_5">
    <!-- Accuracy -->
    <g style="fill:#1a1a1a;" transform="translate(213.974356 17.150291)scale(0.088 -0.088)">
     <defs>
      <path d="M 2188 4044 
L 1331 1722 
L 3047 1722 
L 2188 4044 
z
M 1831 4666 
L 2547 4666 
L 4325 0 
L 3669 0 
L 3244 1197 
L 1141 1197 
L 716 0 
L 50 0 
L 1831 4666 
z
" id="DejaVuSans-41" transform="scale(0.015625)"/>
      <path d="M 3122 3366 
L 3122 2828 
Q 2878 2963 2633 3030 
Q 2388 3097 2138 3097 
Q 1578 3097 1268 2742 
Q 959 2388 959 1747 
Q 959 1106 1268 751 
Q 1578 397 2138 397 
Q 2388 397 2633 464 
Q 2878 531 3122 666 
L 3122 134 
Q 2881 22 2623 -34 
Q 2366 -91 2075 -91 
Q 1284 -91 818 406 
Q 353 903 353 1747 
Q 353 2603 823 3093 
Q 1294 3584 2113 3584 
Q 2378 3584 2631 3529 
Q 2884 3475 3122 3366 
z
" id="DejaVuSans-63" transform="scale(0.015625)"/>
      <path d="M 2631 2963 
Q 2534 3019 2420 3045 
Q 2306 3072 2169 3072 
Q 1681 3072 1420 2755 
Q 1159 2438 1159 1844 
L 1159 0 
L 581 0 
L 581 3500 
L 1159 3500 
L 1159 2956 
Q 1341 3275 1631 3429 
Q 1922 3584 2338 3584 
Q 2397 3584 2469 3576 
Q 2541 3569 2628 3553 
L 2631 2963 
z
" id="DejaVuSans-72" transform="scale(0.015625)"/>
      <path d="M 2059 -325 
Q 1816 -950 1584 -1140 
Q 1353 -1331 966 -1331 
L 506 -1331 
L 506 -850 
L 844 -850 
Q 1081 -850 1212 -737 
Q 1344 -625 1503 -206 
L 1606 56 
L 191 3500 
L 800 3500 
L 1894 763 
L 2988 3500 
L 3597 3500 
L 2059 -325 
z
" id="DejaVuSans-79" transform="scale(0.015625)"/>
     </defs>
     <use xlink:href="#DejaVuSans-41"/>
     <use x="66.658203" xlink:href="#DejaVuSans-63"/>
     <use x="121.638672" xlink:href="#DejaVuSans-63"/>
     <use x="176.619141" xlink:href="#DejaVuSans-75"/>
     <use x="239.998047" xlink:href="#DejaVuSans-72"/>
     <use x="281.111328" xlink:href="#DejaVuSans-61"/>
     <use x="342.390625" xlink:href="#DejaVuSans-63"/>
     <use x="397.371094" xlink:href="#DejaVuSans-79"/>
    </g>
   </g>
   <g id="patch_4">
    <path d="M 840.788688 295.527051 
L 1012.481188 295.527051 
L 1012.481188 186.721114 
L 840.788688 186.721114 
z
" style="fill:#ffffff;"/>
   </g>
   <g id="text_6">
    <!-- Other argument -->
    <g transform="translate(852.988688 210.314707)scale(0.11 -0.11)">
     <defs>
      <path d="M 2522 4238 
Q 1834 4238 1429 3725 
Q 1025 3213 1025 2328 
Q 1025 1447 1429 934 
Q 1834 422 2522 422 
Q 3209 422 3611 934 
Q 4013 1447 4013 2328 
Q 4013 3213 3611 3725 
Q 3209 4238 2522 4238 
z
M 2522 4750 
Q 3503 4750 4090 4092 
Q 4678 3434 4678 2328 
Q 4678 1225 4090 567 
Q 3503 -91 2522 -91 
Q 1538 -91 948 565 
Q 359 1222 359 2328 
Q 359 3434 948 4092 
Q 1538 4750 2522 4750 
z
" id="DejaVuSans-4f" transform="scale(0.015625)"/>
      <path d="M 1172 4494 
L 1172 3500 
L 2356 3500 
L 2356 3053 
L 1172 3053 
L 1172 1153 
Q 1172 725 1289 603 
Q 1406 481 1766 481 
L 2356 481 
L 2356 0 
L 1766 0 
Q 1100 0 847 248 
Q 594 497 594 1153 
L 594 3053 
L 172 3053 
L 172 3500 
L 594 3500 
L 594 4494 
L 1172 4494 
z
" id="DejaVuSans-74" transform="scale(0.015625)"/>
      <path d="M 3513 2113 
L 3513 0 
L 2938 0 
L 2938 2094 
Q 2938 2591 2744 2837 
Q 2550 3084 2163 3084 
Q 1697 3084 1428 2787 
Q 1159 2491 1159 1978 
L 1159 0 
L 581 0 
L 581 4863 
L 1159 4863 
L 1159 2956 
Q 1366 3272 1645 3428 
Q 1925 3584 2291 3584 
Q 2894 3584 3203 3211 
Q 3513 2838 3513 2113 
z
" id="DejaVuSans-68" transform="scale(0.015625)"/>
      <path id="DejaVuSans-20" transform="scale(0.015625)"/>
      <path d="M 2906 1791 
Q 2906 2416 2648 2759 
Q 2391 3103 1925 3103 
Q 1463 3103 1205 2759 
Q 947 2416 947 1791 
Q 947 1169 1205 825 
Q 1463 481 1925 481 
Q 2391 481 2648 825 
Q 2906 1169 2906 1791 
z
M 3481 434 
Q 3481 -459 3084 -895 
Q 2688 -1331 1869 -1331 
Q 1566 -1331 1297 -1286 
Q 1028 -1241 775 -1147 
L 775 -588 
Q 1028 -725 1275 -790 
Q 1522 -856 1778 -856 
Q 2344 -856 2625 -561 
Q 2906 -266 2906 331 
L 2906 616 
Q 2728 306 2450 153 
Q 2172 0 1784 0 
Q 1141 0 747 490 
Q 353 981 353 1791 
Q 353 2603 747 3093 
Q 1141 3584 1784 3584 
Q 2172 3584 2450 3431 
Q 2728 3278 2906 2969 
L 2906 3500 
L 3481 3500 
L 3481 434 
z
" id="DejaVuSans-67" transform="scale(0.015625)"/>
      <path d="M 3328 2828 
Q 3544 3216 3844 3400 
Q 4144 3584 4550 3584 
Q 5097 3584 5394 3201 
Q 5691 2819 5691 2113 
L 5691 0 
L 5113 0 
L 5113 2094 
Q 5113 2597 4934 2840 
Q 4756 3084 4391 3084 
Q 3944 3084 3684 2787 
Q 3425 2491 3425 1978 
L 3425 0 
L 2847 0 
L 2847 2094 
Q 2847 2600 2669 2842 
Q 2491 3084 2119 3084 
Q 1678 3084 1418 2786 
Q 1159 2488 1159 1978 
L 1159 0 
L 581 0 
L 581 3500 
L 1159 3500 
L 1159 2956 
Q 1356 3278 1631 3431 
Q 1906 3584 2284 3584 
Q 2666 3584 2933 3390 
Q 3200 3197 3328 2828 
z
" id="DejaVuSans-6d" transform="scale(0.015625)"/>
      <path d="M 3513 2113 
L 3513 0 
L 2938 0 
L 2938 2094 
Q 2938 2591 2744 2837 
Q 2550 3084 2163 3084 
Q 1697 3084 1428 2787 
Q 1159 2491 1159 1978 
L 1159 0 
L 581 0 
L 581 3500 
L 1159 3500 
L 1159 2956 
Q 1366 3272 1645 3428 
Q 1925 3584 2291 3584 
Q 2894 3584 3203 3211 
Q 3513 2838 3513 2113 
z
" id="DejaVuSans-6e" transform="scale(0.015625)"/>
     </defs>
     <use xlink:href="#DejaVuSans-4f"/>
     <use x="78.710938" xlink:href="#DejaVuSans-74"/>
     <use x="117.919922" xlink:href="#DejaVuSans-68"/>
     <use x="181.298828" xlink:href="#DejaVuSans-65"/>
     <use x="242.822266" xlink:href="#DejaVuSans-72"/>
     <use x="283.935547" xlink:href="#DejaVuSans-20"/>
     <use x="315.722656" xlink:href="#DejaVuSans-61"/>
     <use x="377.001953" xlink:href="#DejaVuSans-72"/>
     <use x="416.365234" xlink:href="#DejaVuSans-67"/>
     <use x="479.841797" xlink:href="#DejaVuSans-75"/>
     <use x="543.220703" xlink:href="#DejaVuSans-6d"/>
     <use x="640.632812" xlink:href="#DejaVuSans-65"/>
     <use x="702.15625" xlink:href="#DejaVuSans-6e"/>
     <use x="765.535156" xlink:href="#DejaVuSans-74"/>
    </g>
   </g>
   <g id="patch_5">
    <path clip-path="url(#p5ae5b619a4)" d="M 852.988688 229.807051 
L 868.828688 229.807051 
L 868.828688 213.967051 
L 852.988688 213.967051 
z
" style="fill:#f2f2f2;"/>
   </g>
   <g id="line2d_15">
    <path clip-path="url(#p5ae5b619a4)" d="M 852.988688 221.887051 
L 868.828688 221.887051 
" style="fill:none;stroke:#db5f57;stroke-width:0.886227;"/>
   </g>
   <g id="line2d_16">
    <path clip-path="url(#p5ae5b619a4)" d="M 860.908688 221.887051 
" style="fill:none;stroke:#1f77b4;stroke-linecap:square;stroke-width:1.5;"/>
    <defs>
     <path d="M 0 1.772454 
C 0.47006 1.772454 0.920931 1.585697 1.253314 1.253314 
C 1.585697 0.920931 1.772454 0.47006 1.772454 0 
C 1.772454 -0.47006 1.585697 -0.920931 1.253314 -1.253314 
C 0.920931 -1.585697 0.47006 -1.772454 0 -1.772454 
C -0.47006 -1.772454 -0.920931 -1.585697 -1.253314 -1.253314 
C -1.585697 -0.920931 -1.772454 -0.47006 -1.772454 0 
C -1.772454 0.47006 -1.585697 0.920931 -1.253314 1.253314 
C -0.920931 1.585697 -0.47006 1.772454 0 1.772454 
z
" id="mfbcc24439a" style="stroke:#db5f57;stroke-width:0.886227;"/>
    </defs>
    <g clip-path="url(#p5ae5b619a4)">
     <use style="fill:#db5f57;stroke:#db5f57;stroke-width:0.886227;" x="860.908688" xlink:href="#mfbcc24439a" y="221.887051"/>
    </g>
   </g>
   <g id="text_7">
    <!-- Diverse query WGAN penalty -->
    <g transform="translate(871.828688 224.315301)scale(0.088 -0.088)">
     <defs>
      <path d="M 1259 4147 
L 1259 519 
L 2022 519 
Q 2988 519 3436 956 
Q 3884 1394 3884 2338 
Q 3884 3275 3436 3711 
Q 2988 4147 2022 4147 
L 1259 4147 
z
M 628 4666 
L 1925 4666 
Q 3281 4666 3915 4102 
Q 4550 3538 4550 2338 
Q 4550 1131 3912 565 
Q 3275 0 1925 0 
L 628 0 
L 628 4666 
z
" id="DejaVuSans-44" transform="scale(0.015625)"/>
      <path d="M 603 3500 
L 1178 3500 
L 1178 0 
L 603 0 
L 603 3500 
z
M 603 4863 
L 1178 4863 
L 1178 4134 
L 603 4134 
L 603 4863 
z
" id="DejaVuSans-69" transform="scale(0.015625)"/>
      <path d="M 191 3500 
L 800 3500 
L 1894 563 
L 2988 3500 
L 3597 3500 
L 2284 0 
L 1503 0 
L 191 3500 
z
" id="DejaVuSans-76" transform="scale(0.015625)"/>
      <path d="M 2834 3397 
L 2834 2853 
Q 2591 2978 2328 3040 
Q 2066 3103 1784 3103 
Q 1356 3103 1142 2972 
Q 928 2841 928 2578 
Q 928 2378 1081 2264 
Q 1234 2150 1697 2047 
L 1894 2003 
Q 2506 1872 2764 1633 
Q 3022 1394 3022 966 
Q 3022 478 2636 193 
Q 2250 -91 1575 -91 
Q 1294 -91 989 -36 
Q 684 19 347 128 
L 347 722 
Q 666 556 975 473 
Q 1284 391 1588 391 
Q 1994 391 2212 530 
Q 2431 669 2431 922 
Q 2431 1156 2273 1281 
Q 2116 1406 1581 1522 
L 1381 1569 
Q 847 1681 609 1914 
Q 372 2147 372 2553 
Q 372 3047 722 3315 
Q 1072 3584 1716 3584 
Q 2034 3584 2315 3537 
Q 2597 3491 2834 3397 
z
" id="DejaVuSans-73" transform="scale(0.015625)"/>
      <path d="M 947 1747 
Q 947 1113 1208 752 
Q 1469 391 1925 391 
Q 2381 391 2643 752 
Q 2906 1113 2906 1747 
Q 2906 2381 2643 2742 
Q 2381 3103 1925 3103 
Q 1469 3103 1208 2742 
Q 947 2381 947 1747 
z
M 2906 525 
Q 2725 213 2448 61 
Q 2172 -91 1784 -91 
Q 1150 -91 751 415 
Q 353 922 353 1747 
Q 353 2572 751 3078 
Q 1150 3584 1784 3584 
Q 2172 3584 2448 3432 
Q 2725 3281 2906 2969 
L 2906 3500 
L 3481 3500 
L 3481 -1331 
L 2906 -1331 
L 2906 525 
z
" id="DejaVuSans-71" transform="scale(0.015625)"/>
      <path d="M 213 4666 
L 850 4666 
L 1831 722 
L 2809 4666 
L 3519 4666 
L 4500 722 
L 5478 4666 
L 6119 4666 
L 4947 0 
L 4153 0 
L 3169 4050 
L 2175 0 
L 1381 0 
L 213 4666 
z
" id="DejaVuSans-57" transform="scale(0.015625)"/>
      <path d="M 3809 666 
L 3809 1919 
L 2778 1919 
L 2778 2438 
L 4434 2438 
L 4434 434 
Q 4069 175 3628 42 
Q 3188 -91 2688 -91 
Q 1594 -91 976 548 
Q 359 1188 359 2328 
Q 359 3472 976 4111 
Q 1594 4750 2688 4750 
Q 3144 4750 3555 4637 
Q 3966 4525 4313 4306 
L 4313 3634 
Q 3963 3931 3569 4081 
Q 3175 4231 2741 4231 
Q 1884 4231 1454 3753 
Q 1025 3275 1025 2328 
Q 1025 1384 1454 906 
Q 1884 428 2741 428 
Q 3075 428 3337 486 
Q 3600 544 3809 666 
z
" id="DejaVuSans-47" transform="scale(0.015625)"/>
      <path d="M 628 4666 
L 1478 4666 
L 3547 763 
L 3547 4666 
L 4159 4666 
L 4159 0 
L 3309 0 
L 1241 3903 
L 1241 0 
L 628 0 
L 628 4666 
z
" id="DejaVuSans-4e" transform="scale(0.015625)"/>
      <path d="M 1159 525 
L 1159 -1331 
L 581 -1331 
L 581 3500 
L 1159 3500 
L 1159 2969 
Q 1341 3281 1617 3432 
Q 1894 3584 2278 3584 
Q 2916 3584 3314 3078 
Q 3713 2572 3713 1747 
Q 3713 922 3314 415 
Q 2916 -91 2278 -91 
Q 1894 -91 1617 61 
Q 1341 213 1159 525 
z
M 3116 1747 
Q 3116 2381 2855 2742 
Q 2594 3103 2138 3103 
Q 1681 3103 1420 2742 
Q 1159 2381 1159 1747 
Q 1159 1113 1420 752 
Q 1681 391 2138 391 
Q 2594 391 2855 752 
Q 3116 1113 3116 1747 
z
" id="DejaVuSans-70" transform="scale(0.015625)"/>
     </defs>
     <use xlink:href="#DejaVuSans-44"/>
     <use x="77.001953" xlink:href="#DejaVuSans-69"/>
     <use x="104.785156" xlink:href="#DejaVuSans-76"/>
     <use x="163.964844" xlink:href="#DejaVuSans-65"/>
     <use x="225.488281" xlink:href="#DejaVuSans-72"/>
     <use x="266.601562" xlink:href="#DejaVuSans-73"/>
     <use x="318.701172" xlink:href="#DejaVuSans-65"/>
     <use x="380.224609" xlink:href="#DejaVuSans-20"/>
     <use x="412.011719" xlink:href="#DejaVuSans-71"/>
     <use x="475.488281" xlink:href="#DejaVuSans-75"/>
     <use x="538.867188" xlink:href="#DejaVuSans-65"/>
     <use x="600.390625" xlink:href="#DejaVuSans-72"/>
     <use x="641.503906" xlink:href="#DejaVuSans-79"/>
     <use x="700.683594" xlink:href="#DejaVuSans-20"/>
     <use x="732.470703" xlink:href="#DejaVuSans-57"/>
     <use x="831.347656" xlink:href="#DejaVuSans-47"/>
     <use x="908.837891" xlink:href="#DejaVuSans-41"/>
     <use x="977.246094" xlink:href="#DejaVuSans-4e"/>
     <use x="1052.050781" xlink:href="#DejaVuSans-20"/>
     <use x="1083.837891" xlink:href="#DejaVuSans-70"/>
     <use x="1147.314453" xlink:href="#DejaVuSans-65"/>
     <use x="1208.837891" xlink:href="#DejaVuSans-6e"/>
     <use x="1272.216797" xlink:href="#DejaVuSans-61"/>
     <use x="1333.496094" xlink:href="#DejaVuSans-6c"/>
     <use x="1361.279297" xlink:href="#DejaVuSans-74"/>
     <use x="1400.488281" xlink:href="#DejaVuSans-79"/>
    </g>
   </g>
   <g id="patch_6">
    <path clip-path="url(#pf570516c92)" d="M 852.988688 247.647051 
L 868.828688 247.647051 
L 868.828688 231.807051 
L 852.988688 231.807051 
z
" style="fill:#f2f2f2;"/>
   </g>
   <g id="line2d_17">
    <path clip-path="url(#pf570516c92)" d="M 852.988688 239.727051 
L 868.828688 239.727051 
" style="fill:none;stroke:#91db57;stroke-width:0.886227;"/>
   </g>
   <g id="line2d_18">
    <path clip-path="url(#pf570516c92)" d="M 860.908688 239.727051 
" style="fill:none;stroke:#1f77b4;stroke-linecap:square;stroke-width:1.5;"/>
    <defs>
     <path d="M 0 1.772454 
C 0.47006 1.772454 0.920931 1.585697 1.253314 1.253314 
C 1.585697 0.920931 1.772454 0.47006 1.772454 0 
C 1.772454 -0.47006 1.585697 -0.920931 1.253314 -1.253314 
C 0.920931 -1.585697 0.47006 -1.772454 0 -1.772454 
C -0.47006 -1.772454 -0.920931 -1.585697 -1.253314 -1.253314 
C -1.585697 -0.920931 -1.772454 -0.47006 -1.772454 0 
C -1.772454 0.47006 -1.585697 0.920931 -1.253314 1.253314 
C -0.920931 1.585697 -0.47006 1.772454 0 1.772454 
z
" id="mce29556a1a" style="stroke:#91db57;stroke-width:0.886227;"/>
    </defs>
    <g clip-path="url(#pf570516c92)">
     <use style="fill:#91db57;stroke:#91db57;stroke-width:0.886227;" x="860.908688" xlink:href="#mce29556a1a" y="239.727051"/>
    </g>
   </g>
   <g id="text_8">
    <!-- No query input to critic -->
    <g transform="translate(871.828688 242.155301)scale(0.088 -0.088)">
     <defs>
      <path d="M 1959 3097 
Q 1497 3097 1228 2736 
Q 959 2375 959 1747 
Q 959 1119 1226 758 
Q 1494 397 1959 397 
Q 2419 397 2687 759 
Q 2956 1122 2956 1747 
Q 2956 2369 2687 2733 
Q 2419 3097 1959 3097 
z
M 1959 3584 
Q 2709 3584 3137 3096 
Q 3566 2609 3566 1747 
Q 3566 888 3137 398 
Q 2709 -91 1959 -91 
Q 1206 -91 779 398 
Q 353 888 353 1747 
Q 353 2609 779 3096 
Q 1206 3584 1959 3584 
z
" id="DejaVuSans-6f" transform="scale(0.015625)"/>
     </defs>
     <use xlink:href="#DejaVuSans-4e"/>
     <use x="74.804688" xlink:href="#DejaVuSans-6f"/>
     <use x="135.986328" xlink:href="#DejaVuSans-20"/>
     <use x="167.773438" xlink:href="#DejaVuSans-71"/>
     <use x="231.25" xlink:href="#DejaVuSans-75"/>
     <use x="294.628906" xlink:href="#DejaVuSans-65"/>
     <use x="356.152344" xlink:href="#DejaVuSans-72"/>
     <use x="397.265625" xlink:href="#DejaVuSans-79"/>
     <use x="456.445312" xlink:href="#DejaVuSans-20"/>
     <use x="488.232422" xlink:href="#DejaVuSans-69"/>
     <use x="516.015625" xlink:href="#DejaVuSans-6e"/>
     <use x="579.394531" xlink:href="#DejaVuSans-70"/>
     <use x="642.871094" xlink:href="#DejaVuSans-75"/>
     <use x="706.25" xlink:href="#DejaVuSans-74"/>
     <use x="745.458984" xlink:href="#DejaVuSans-20"/>
     <use x="777.246094" xlink:href="#DejaVuSans-74"/>
     <use x="816.455078" xlink:href="#DejaVuSans-6f"/>
     <use x="877.636719" xlink:href="#DejaVuSans-20"/>
     <use x="909.423828" xlink:href="#DejaVuSans-63"/>
     <use x="964.404297" xlink:href="#DejaVuSans-72"/>
     <use x="1005.517578" xlink:href="#DejaVuSans-69"/>
     <use x="1033.300781" xlink:href="#DejaVuSans-74"/>
     <use x="1072.509766" xlink:href="#DejaVuSans-69"/>
     <use x="1100.292969" xlink:href="#DejaVuSans-63"/>
    </g>
   </g>
   <g id="patch_7">
    <path clip-path="url(#p42345fead1)" d="M 852.988688 265.487051 
L 868.828688 265.487051 
L 868.828688 249.647051 
L 852.988688 249.647051 
z
" style="fill:#f2f2f2;"/>
   </g>
   <g id="line2d_19">
    <path clip-path="url(#p42345fead1)" d="M 852.988688 257.567051 
L 868.828688 257.567051 
" style="fill:none;stroke:#57d3db;stroke-width:0.886227;"/>
   </g>
   <g id="line2d_20">
    <path clip-path="url(#p42345fead1)" d="M 860.908688 257.567051 
" style="fill:none;stroke:#1f77b4;stroke-linecap:square;stroke-width:1.5;"/>
    <defs>
     <path d="M 0 1.772454 
C 0.47006 1.772454 0.920931 1.585697 1.253314 1.253314 
C 1.585697 0.920931 1.772454 0.47006 1.772454 0 
C 1.772454 -0.47006 1.585697 -0.920931 1.253314 -1.253314 
C 0.920931 -1.585697 0.47006 -1.772454 0 -1.772454 
C -0.47006 -1.772454 -0.920931 -1.585697 -1.253314 -1.253314 
C -1.585697 -0.920931 -1.772454 -0.47006 -1.772454 0 
C -1.772454 0.47006 -1.585697 0.920931 -1.253314 1.253314 
C -0.920931 1.585697 -0.47006 1.772454 0 1.772454 
z
" id="mcfc756863d" style="stroke:#57d3db;stroke-width:0.886227;"/>
    </defs>
    <g clip-path="url(#p42345fead1)">
     <use style="fill:#57d3db;stroke:#57d3db;stroke-width:0.886227;" x="860.908688" xlink:href="#mcfc756863d" y="257.567051"/>
    </g>
   </g>
   <g id="text_9">
    <!-- No wgan query penalty -->
    <g transform="translate(871.828688 259.995301)scale(0.088 -0.088)">
     <defs>
      <path d="M 269 3500 
L 844 3500 
L 1563 769 
L 2278 3500 
L 2956 3500 
L 3675 769 
L 4391 3500 
L 4966 3500 
L 4050 0 
L 3372 0 
L 2619 2869 
L 1863 0 
L 1184 0 
L 269 3500 
z
" id="DejaVuSans-77" transform="scale(0.015625)"/>
     </defs>
     <use xlink:href="#DejaVuSans-4e"/>
     <use x="74.804688" xlink:href="#DejaVuSans-6f"/>
     <use x="135.986328" xlink:href="#DejaVuSans-20"/>
     <use x="167.773438" xlink:href="#DejaVuSans-77"/>
     <use x="249.560547" xlink:href="#DejaVuSans-67"/>
     <use x="313.037109" xlink:href="#DejaVuSans-61"/>
     <use x="374.316406" xlink:href="#DejaVuSans-6e"/>
     <use x="437.695312" xlink:href="#DejaVuSans-20"/>
     <use x="469.482422" xlink:href="#DejaVuSans-71"/>
     <use x="532.958984" xlink:href="#DejaVuSans-75"/>
     <use x="596.337891" xlink:href="#DejaVuSans-65"/>
     <use x="657.861328" xlink:href="#DejaVuSans-72"/>
     <use x="698.974609" xlink:href="#DejaVuSans-79"/>
     <use x="758.154297" xlink:href="#DejaVuSans-20"/>
     <use x="789.941406" xlink:href="#DejaVuSans-70"/>
     <use x="853.417969" xlink:href="#DejaVuSans-65"/>
     <use x="914.941406" xlink:href="#DejaVuSans-6e"/>
     <use x="978.320312" xlink:href="#DejaVuSans-61"/>
     <use x="1039.599609" xlink:href="#DejaVuSans-6c"/>
     <use x="1067.382812" xlink:href="#DejaVuSans-74"/>
     <use x="1106.591797" xlink:href="#DejaVuSans-79"/>
    </g>
   </g>
   <g id="patch_8">
    <path clip-path="url(#p84ec03e6c4)" d="M 852.988688 283.327051 
L 868.828688 283.327051 
L 868.828688 267.487051 
L 852.988688 267.487051 
z
" style="fill:#f2f2f2;"/>
   </g>
   <g id="line2d_21">
    <path clip-path="url(#p84ec03e6c4)" d="M 852.988688 275.407051 
L 868.828688 275.407051 
" style="fill:none;stroke:#a157db;stroke-width:0.886227;"/>
   </g>
   <g id="line2d_22">
    <path clip-path="url(#p84ec03e6c4)" d="M 860.908688 275.407051 
" style="fill:none;stroke:#1f77b4;stroke-linecap:square;stroke-width:1.5;"/>
    <defs>
     <path d="M 0 1.772454 
C 0.47006 1.772454 0.920931 1.585697 1.253314 1.253314 
C 1.585697 0.920931 1.772454 0.47006 1.772454 0 
C 1.772454 -0.47006 1.585697 -0.920931 1.253314 -1.253314 
C 0.920931 -1.585697 0.47006 -1.772454 0 -1.772454 
C -0.47006 -1.772454 -0.920931 -1.585697 -1.253314 -1.253314 
C -1.585697 -0.920931 -1.772454 -0.47006 -1.772454 0 
C -1.772454 0.47006 -1.585697 0.920931 -1.253314 1.253314 
C -0.920931 1.585697 -0.47006 1.772454 0 1.772454 
z
" id="m6a48fbcdfe" style="stroke:#a157db;stroke-width:0.886227;"/>
    </defs>
    <g clip-path="url(#p84ec03e6c4)">
     <use style="fill:#a157db;stroke:#a157db;stroke-width:0.886227;" x="860.908688" xlink:href="#m6a48fbcdfe" y="275.407051"/>
    </g>
   </g>
   <g id="text_10">
    <!-- None -->
    <g transform="translate(871.828688 277.835301)scale(0.088 -0.088)">
     <use xlink:href="#DejaVuSans-4e"/>
     <use x="74.804688" xlink:href="#DejaVuSans-6f"/>
     <use x="135.986328" xlink:href="#DejaVuSans-6e"/>
     <use x="199.365234" xlink:href="#DejaVuSans-65"/>
    </g>
   </g>
  </g>
  <g id="axes_2">
   <g id="patch_9">
    <path d="M 470.23985 234.334082 
L 833.588688 234.334082 
L 833.588688 22.244082 
L 470.23985 22.244082 
z
" style="fill:#ebebeb;"/>
   </g>
   <g id="matplotlib.axis_3">
    <g id="xtick_4">
     <g id="line2d_23">
      <path clip-path="url(#p8ad7bc701b)" d="M 522.146827 234.334082 
L 522.146827 22.244082 
" style="fill:none;stroke:#ffffff;stroke-linecap:square;"/>
     </g>
    </g>
    <g id="xtick_5">
     <g id="line2d_24">
      <path clip-path="url(#p8ad7bc701b)" d="M 781.681711 234.334082 
L 781.681711 22.244082 
" style="fill:none;stroke:#ffffff;stroke-linecap:square;"/>
     </g>
    </g>
    <g id="xtick_6">
     <g id="line2d_25">
      <path clip-path="url(#p8ad7bc701b)" d="M 651.914269 234.334082 
L 651.914269 22.244082 
" style="fill:none;stroke:#ffffff;stroke-linecap:square;stroke-width:0.5;"/>
     </g>
    </g>
   </g>
   <g id="matplotlib.axis_4">
    <g id="ytick_7">
     <g id="line2d_26">
      <path clip-path="url(#p8ad7bc701b)" d="M 470.23985 209.390614 
L 833.588688 209.390614 
" style="fill:none;stroke:#ffffff;stroke-linecap:square;"/>
     </g>
     <g id="line2d_27">
      <path d="M 470.23985 209.390614 
" style="fill:none;stroke:#333333;stroke-linecap:square;stroke-width:1.5;"/>
      <g>
       <use style="fill:#333333;stroke:#000000;" x="470.23985" xlink:href="#mc667adcb93" y="209.390614"/>
      </g>
     </g>
     <g id="text_11">
      <!-- 0.8910 -->
      <g style="fill:#4d4d4d;" transform="translate(434.4981 211.818864)scale(0.088 -0.088)">
       <defs>
        <path d="M 703 97 
L 703 672 
Q 941 559 1184 500 
Q 1428 441 1663 441 
Q 2288 441 2617 861 
Q 2947 1281 2994 2138 
Q 2813 1869 2534 1725 
Q 2256 1581 1919 1581 
Q 1219 1581 811 2004 
Q 403 2428 403 3163 
Q 403 3881 828 4315 
Q 1253 4750 1959 4750 
Q 2769 4750 3195 4129 
Q 3622 3509 3622 2328 
Q 3622 1225 3098 567 
Q 2575 -91 1691 -91 
Q 1453 -91 1209 -44 
Q 966 3 703 97 
z
M 1959 2075 
Q 2384 2075 2632 2365 
Q 2881 2656 2881 3163 
Q 2881 3666 2632 3958 
Q 2384 4250 1959 4250 
Q 1534 4250 1286 3958 
Q 1038 3666 1038 3163 
Q 1038 2656 1286 2365 
Q 1534 2075 1959 2075 
z
" id="DejaVuSans-39" transform="scale(0.015625)"/>
        <path d="M 794 531 
L 1825 531 
L 1825 4091 
L 703 3866 
L 703 4441 
L 1819 4666 
L 2450 4666 
L 2450 531 
L 3481 531 
L 3481 0 
L 794 0 
L 794 531 
z
" id="DejaVuSans-31" transform="scale(0.015625)"/>
       </defs>
       <use xlink:href="#DejaVuSans-30"/>
       <use x="63.623047" xlink:href="#DejaVuSans-2e"/>
       <use x="95.410156" xlink:href="#DejaVuSans-38"/>
       <use x="159.033203" xlink:href="#DejaVuSans-39"/>
       <use x="222.65625" xlink:href="#DejaVuSans-31"/>
       <use x="286.279297" xlink:href="#DejaVuSans-30"/>
      </g>
     </g>
    </g>
    <g id="ytick_8">
     <g id="line2d_28">
      <path clip-path="url(#p8ad7bc701b)" d="M 470.23985 152.32155 
L 833.588688 152.32155 
" style="fill:none;stroke:#ffffff;stroke-linecap:square;"/>
     </g>
     <g id="line2d_29">
      <path d="M 470.23985 152.32155 
" style="fill:none;stroke:#333333;stroke-linecap:square;stroke-width:1.5;"/>
      <g>
       <use style="fill:#333333;stroke:#000000;" x="470.23985" xlink:href="#mc667adcb93" y="152.32155"/>
      </g>
     </g>
     <g id="text_12">
      <!-- 0.8915 -->
      <g style="fill:#4d4d4d;" transform="translate(434.4981 154.7498)scale(0.088 -0.088)">
       <defs>
        <path d="M 691 4666 
L 3169 4666 
L 3169 4134 
L 1269 4134 
L 1269 2991 
Q 1406 3038 1543 3061 
Q 1681 3084 1819 3084 
Q 2600 3084 3056 2656 
Q 3513 2228 3513 1497 
Q 3513 744 3044 326 
Q 2575 -91 1722 -91 
Q 1428 -91 1123 -41 
Q 819 9 494 109 
L 494 744 
Q 775 591 1075 516 
Q 1375 441 1709 441 
Q 2250 441 2565 725 
Q 2881 1009 2881 1497 
Q 2881 1984 2565 2268 
Q 2250 2553 1709 2553 
Q 1456 2553 1204 2497 
Q 953 2441 691 2322 
L 691 4666 
z
" id="DejaVuSans-35" transform="scale(0.015625)"/>
       </defs>
       <use xlink:href="#DejaVuSans-30"/>
       <use x="63.623047" xlink:href="#DejaVuSans-2e"/>
       <use x="95.410156" xlink:href="#DejaVuSans-38"/>
       <use x="159.033203" xlink:href="#DejaVuSans-39"/>
       <use x="222.65625" xlink:href="#DejaVuSans-31"/>
       <use x="286.279297" xlink:href="#DejaVuSans-35"/>
      </g>
     </g>
    </g>
    <g id="ytick_9">
     <g id="line2d_30">
      <path clip-path="url(#p8ad7bc701b)" d="M 470.23985 95.252487 
L 833.588688 95.252487 
" style="fill:none;stroke:#ffffff;stroke-linecap:square;"/>
     </g>
     <g id="line2d_31">
      <path d="M 470.23985 95.252487 
" style="fill:none;stroke:#333333;stroke-linecap:square;stroke-width:1.5;"/>
      <g>
       <use style="fill:#333333;stroke:#000000;" x="470.23985" xlink:href="#mc667adcb93" y="95.252487"/>
      </g>
     </g>
     <g id="text_13">
      <!-- 0.8920 -->
      <g style="fill:#4d4d4d;" transform="translate(434.4981 97.680737)scale(0.088 -0.088)">
       <defs>
        <path d="M 1228 531 
L 3431 531 
L 3431 0 
L 469 0 
L 469 531 
Q 828 903 1448 1529 
Q 2069 2156 2228 2338 
Q 2531 2678 2651 2914 
Q 2772 3150 2772 3378 
Q 2772 3750 2511 3984 
Q 2250 4219 1831 4219 
Q 1534 4219 1204 4116 
Q 875 4013 500 3803 
L 500 4441 
Q 881 4594 1212 4672 
Q 1544 4750 1819 4750 
Q 2544 4750 2975 4387 
Q 3406 4025 3406 3419 
Q 3406 3131 3298 2873 
Q 3191 2616 2906 2266 
Q 2828 2175 2409 1742 
Q 1991 1309 1228 531 
z
" id="DejaVuSans-32" transform="scale(0.015625)"/>
       </defs>
       <use xlink:href="#DejaVuSans-30"/>
       <use x="63.623047" xlink:href="#DejaVuSans-2e"/>
       <use x="95.410156" xlink:href="#DejaVuSans-38"/>
       <use x="159.033203" xlink:href="#DejaVuSans-39"/>
       <use x="222.65625" xlink:href="#DejaVuSans-32"/>
       <use x="286.279297" xlink:href="#DejaVuSans-30"/>
      </g>
     </g>
    </g>
    <g id="ytick_10">
     <g id="line2d_32">
      <path clip-path="url(#p8ad7bc701b)" d="M 470.23985 38.183423 
L 833.588688 38.183423 
" style="fill:none;stroke:#ffffff;stroke-linecap:square;"/>
     </g>
     <g id="line2d_33">
      <path d="M 470.23985 38.183423 
" style="fill:none;stroke:#333333;stroke-linecap:square;stroke-width:1.5;"/>
      <g>
       <use style="fill:#333333;stroke:#000000;" x="470.23985" xlink:href="#mc667adcb93" y="38.183423"/>
      </g>
     </g>
     <g id="text_14">
      <!-- 0.8925 -->
      <g style="fill:#4d4d4d;" transform="translate(434.4981 40.611673)scale(0.088 -0.088)">
       <use xlink:href="#DejaVuSans-30"/>
       <use x="63.623047" xlink:href="#DejaVuSans-2e"/>
       <use x="95.410156" xlink:href="#DejaVuSans-38"/>
       <use x="159.033203" xlink:href="#DejaVuSans-39"/>
       <use x="222.65625" xlink:href="#DejaVuSans-32"/>
       <use x="286.279297" xlink:href="#DejaVuSans-35"/>
      </g>
     </g>
    </g>
    <g id="ytick_11">
     <g id="line2d_34">
      <path clip-path="url(#p8ad7bc701b)" d="M 470.23985 180.856082 
L 833.588688 180.856082 
" style="fill:none;stroke:#ffffff;stroke-linecap:square;stroke-width:0.5;"/>
     </g>
    </g>
    <g id="ytick_12">
     <g id="line2d_35">
      <path clip-path="url(#p8ad7bc701b)" d="M 470.23985 123.787019 
L 833.588688 123.787019 
" style="fill:none;stroke:#ffffff;stroke-linecap:square;stroke-width:0.5;"/>
     </g>
    </g>
    <g id="ytick_13">
     <g id="line2d_36">
      <path clip-path="url(#p8ad7bc701b)" d="M 470.23985 66.717955 
L 833.588688 66.717955 
" style="fill:none;stroke:#ffffff;stroke-linecap:square;stroke-width:0.5;"/>
     </g>
    </g>
   </g>
   <g id="line2d_37">
    <path clip-path="url(#p8ad7bc701b)" d="M 522.146827 104.779675 
L 781.681711 119.668411 
" style="fill:none;stroke:#57d3db;stroke-width:0.886227;"/>
   </g>
   <g id="line2d_38">
    <path clip-path="url(#p8ad7bc701b)" d="M 522.146827 58.947319 
L 781.681711 100.411187 
" style="fill:none;stroke:#a157db;stroke-width:0.886227;"/>
   </g>
   <g id="PathCollection_2">
    <path clip-path="url(#p8ad7bc701b)" d="M 522.146827 106.552129 
C 522.616887 106.552129 523.067758 106.365372 523.400141 106.032989 
C 523.732524 105.700606 523.919281 105.249735 523.919281 104.779675 
C 523.919281 104.309615 523.732524 103.858744 523.400141 103.526361 
C 523.067758 103.193978 522.616887 103.007221 522.146827 103.007221 
C 521.676767 103.007221 521.225896 103.193978 520.893513 103.526361 
C 520.56113 103.858744 520.374373 104.309615 520.374373 104.779675 
C 520.374373 105.249735 520.56113 105.700606 520.893513 106.032989 
C 521.225896 106.365372 521.676767 106.552129 522.146827 106.552129 
z
" style="fill:#57d3db;stroke:#57d3db;stroke-width:0.886227;"/>
    <path clip-path="url(#p8ad7bc701b)" d="M 522.146827 60.719773 
C 522.616887 60.719773 523.067758 60.533016 523.400141 60.200633 
C 523.732524 59.86825 523.919281 59.417379 523.919281 58.947319 
C 523.919281 58.477259 523.732524 58.026388 523.400141 57.694005 
C 523.067758 57.361622 522.616887 57.174865 522.146827 57.174865 
C 521.676767 57.174865 521.225896 57.361622 520.893513 57.694005 
C 520.56113 58.026388 520.374373 58.477259 520.374373 58.947319 
C 520.374373 59.417379 520.56113 59.86825 520.893513 60.200633 
C 521.225896 60.533016 521.676767 60.719773 522.146827 60.719773 
z
" style="fill:#a157db;stroke:#a157db;stroke-width:0.886227;"/>
    <path clip-path="url(#p8ad7bc701b)" d="M 781.681711 33.656991 
C 782.151771 33.656991 782.602642 33.470234 782.935025 33.137851 
C 783.267408 32.805468 783.454165 32.354597 783.454165 31.884537 
C 783.454165 31.414477 783.267408 30.963606 782.935025 30.631223 
C 782.602642 30.29884 782.151771 30.112083 781.681711 30.112083 
C 781.21165 30.112083 780.760779 30.29884 780.428397 30.631223 
C 780.096014 30.963606 779.909257 31.414477 779.909257 31.884537 
C 779.909257 32.354597 780.096014 32.805468 780.428397 33.137851 
C 780.760779 33.470234 781.21165 33.656991 781.681711 33.656991 
z
" style="fill:#db5f57;stroke:#db5f57;stroke-width:0.886227;"/>
    <path clip-path="url(#p8ad7bc701b)" d="M 781.681711 226.466082 
C 782.151771 226.466082 782.602642 226.279325 782.935025 225.946942 
C 783.267408 225.614559 783.454165 225.163688 783.454165 224.693628 
C 783.454165 224.223568 783.267408 223.772696 782.935025 223.440314 
C 782.602642 223.107931 782.151771 222.921174 781.681711 222.921174 
C 781.21165 222.921174 780.760779 223.107931 780.428397 223.440314 
C 780.096014 223.772696 779.909257 224.223568 779.909257 224.693628 
C 779.909257 225.163688 780.096014 225.614559 780.428397 225.946942 
C 780.760779 226.279325 781.21165 226.466082 781.681711 226.466082 
z
" style="fill:#91db57;stroke:#91db57;stroke-width:0.886227;"/>
    <path clip-path="url(#p8ad7bc701b)" d="M 781.681711 121.440865 
C 782.151771 121.440865 782.602642 121.254108 782.935025 120.921726 
C 783.267408 120.589343 783.454165 120.138472 783.454165 119.668411 
C 783.454165 119.198351 783.267408 118.74748 782.935025 118.415097 
C 782.602642 118.082715 782.151771 117.895958 781.681711 117.895958 
C 781.21165 117.895958 780.760779 118.082715 780.428397 118.415097 
C 780.096014 118.74748 779.909257 119.198351 779.909257 119.668411 
C 779.909257 120.138472 780.096014 120.589343 780.428397 120.921726 
C 780.760779 121.254108 781.21165 121.440865 781.681711 121.440865 
z
" style="fill:#57d3db;stroke:#57d3db;stroke-width:0.886227;"/>
    <path clip-path="url(#p8ad7bc701b)" d="M 781.681711 102.183641 
C 782.151771 102.183641 782.602642 101.996884 782.935025 101.664501 
C 783.267408 101.332118 783.454165 100.881247 783.454165 100.411187 
C 783.454165 99.941127 783.267408 99.490256 782.935025 99.157873 
C 782.602642 98.82549 782.151771 98.638733 781.681711 98.638733 
C 781.21165 98.638733 780.760779 98.82549 780.428397 99.157873 
C 780.096014 99.490256 779.909257 99.941127 779.909257 100.411187 
C 779.909257 100.881247 780.096014 101.332118 780.428397 101.664501 
C 780.760779 101.996884 781.21165 102.183641 781.681711 102.183641 
z
" style="fill:#a157db;stroke:#a157db;stroke-width:0.886227;"/>
   </g>
   <g id="patch_10">
    <path d="M 470.23985 22.244082 
L 833.588688 22.244082 
L 833.588688 7.2 
L 470.23985 7.2 
z
" style="fill:#d9d9d9;"/>
   </g>
   <g id="text_15">
    <!-- AUC -->
    <g style="fill:#1a1a1a;" transform="translate(642.611706 17.150291)scale(0.088 -0.088)">
     <defs>
      <path d="M 556 4666 
L 1191 4666 
L 1191 1831 
Q 1191 1081 1462 751 
Q 1734 422 2344 422 
Q 2950 422 3222 751 
Q 3494 1081 3494 1831 
L 3494 4666 
L 4128 4666 
L 4128 1753 
Q 4128 841 3676 375 
Q 3225 -91 2344 -91 
Q 1459 -91 1007 375 
Q 556 841 556 1753 
L 556 4666 
z
" id="DejaVuSans-55" transform="scale(0.015625)"/>
      <path d="M 4122 4306 
L 4122 3641 
Q 3803 3938 3442 4084 
Q 3081 4231 2675 4231 
Q 1875 4231 1450 3742 
Q 1025 3253 1025 2328 
Q 1025 1406 1450 917 
Q 1875 428 2675 428 
Q 3081 428 3442 575 
Q 3803 722 4122 1019 
L 4122 359 
Q 3791 134 3420 21 
Q 3050 -91 2638 -91 
Q 1578 -91 968 557 
Q 359 1206 359 2328 
Q 359 3453 968 4101 
Q 1578 4750 2638 4750 
Q 3056 4750 3426 4639 
Q 3797 4528 4122 4306 
z
" id="DejaVuSans-43" transform="scale(0.015625)"/>
     </defs>
     <use xlink:href="#DejaVuSans-41"/>
     <use x="68.408203" xlink:href="#DejaVuSans-55"/>
     <use x="141.601562" xlink:href="#DejaVuSans-43"/>
    </g>
   </g>
  </g>
  <g id="axes_3">
   <g id="patch_11">
    <path d="M 52.388688 465.764082 
L 415.737525 465.764082 
L 415.737525 253.674082 
L 52.388688 253.674082 
z
" style="fill:#ebebeb;"/>
   </g>
   <g id="matplotlib.axis_5">
    <g id="xtick_7">
     <g id="line2d_39">
      <path clip-path="url(#p6a3dd71994)" d="M 104.295664 465.764082 
L 104.295664 253.674082 
" style="fill:none;stroke:#ffffff;stroke-linecap:square;"/>
     </g>
     <g id="line2d_40">
      <path d="M 104.295664 465.764082 
" style="fill:none;stroke:#333333;stroke-linecap:square;stroke-width:1.5;"/>
      <defs>
       <path d="M 0 0 
L 0 2.75 
" id="mbe2d27fd22" style="stroke:#000000;"/>
      </defs>
      <g>
       <use style="fill:#333333;stroke:#000000;" x="104.295664" xlink:href="#mbe2d27fd22" y="465.764082"/>
      </g>
     </g>
     <g id="text_16">
      <!-- False -->
      <g style="fill:#4d4d4d;" transform="translate(93.248227 477.400707)scale(0.088 -0.088)">
       <defs>
        <path d="M 628 4666 
L 3309 4666 
L 3309 4134 
L 1259 4134 
L 1259 2759 
L 3109 2759 
L 3109 2228 
L 1259 2228 
L 1259 0 
L 628 0 
L 628 4666 
z
" id="DejaVuSans-46" transform="scale(0.015625)"/>
       </defs>
       <use xlink:href="#DejaVuSans-46"/>
       <use x="48.394531" xlink:href="#DejaVuSans-61"/>
       <use x="109.673828" xlink:href="#DejaVuSans-6c"/>
       <use x="137.457031" xlink:href="#DejaVuSans-73"/>
       <use x="189.556641" xlink:href="#DejaVuSans-65"/>
      </g>
     </g>
    </g>
    <g id="xtick_8">
     <g id="line2d_41">
      <path clip-path="url(#p6a3dd71994)" d="M 363.830548 465.764082 
L 363.830548 253.674082 
" style="fill:none;stroke:#ffffff;stroke-linecap:square;"/>
     </g>
     <g id="line2d_42">
      <path d="M 363.830548 465.764082 
" style="fill:none;stroke:#333333;stroke-linecap:square;stroke-width:1.5;"/>
      <g>
       <use style="fill:#333333;stroke:#000000;" x="363.830548" xlink:href="#mbe2d27fd22" y="465.764082"/>
      </g>
     </g>
     <g id="text_17">
      <!-- True -->
      <g style="fill:#4d4d4d;" transform="translate(354.487423 477.400707)scale(0.088 -0.088)">
       <defs>
        <path d="M -19 4666 
L 3928 4666 
L 3928 4134 
L 2272 4134 
L 2272 0 
L 1638 0 
L 1638 4134 
L -19 4134 
L -19 4666 
z
" id="DejaVuSans-54" transform="scale(0.015625)"/>
       </defs>
       <use xlink:href="#DejaVuSans-54"/>
       <use x="46.333984" xlink:href="#DejaVuSans-72"/>
       <use x="87.447266" xlink:href="#DejaVuSans-75"/>
       <use x="150.826172" xlink:href="#DejaVuSans-65"/>
      </g>
     </g>
    </g>
    <g id="xtick_9">
     <g id="line2d_43">
      <path clip-path="url(#p6a3dd71994)" d="M 234.063106 465.764082 
L 234.063106 253.674082 
" style="fill:none;stroke:#ffffff;stroke-linecap:square;stroke-width:0.5;"/>
     </g>
    </g>
   </g>
   <g id="matplotlib.axis_6">
    <g id="ytick_14">
     <g id="line2d_44">
      <path clip-path="url(#p6a3dd71994)" d="M 52.388688 462.49194 
L 415.737525 462.49194 
" style="fill:none;stroke:#ffffff;stroke-linecap:square;"/>
     </g>
     <g id="line2d_45">
      <path d="M 52.388688 462.49194 
" style="fill:none;stroke:#333333;stroke-linecap:square;stroke-width:1.5;"/>
      <g>
       <use style="fill:#333333;stroke:#000000;" x="52.388688" xlink:href="#mc667adcb93" y="462.49194"/>
      </g>
     </g>
     <g id="text_18">
      <!-- 0.888 -->
      <g style="fill:#4d4d4d;" transform="translate(22.245938 464.92019)scale(0.088 -0.088)">
       <use xlink:href="#DejaVuSans-30"/>
       <use x="63.623047" xlink:href="#DejaVuSans-2e"/>
       <use x="95.410156" xlink:href="#DejaVuSans-38"/>
       <use x="159.033203" xlink:href="#DejaVuSans-38"/>
       <use x="222.65625" xlink:href="#DejaVuSans-38"/>
      </g>
     </g>
    </g>
    <g id="ytick_15">
     <g id="line2d_46">
      <path clip-path="url(#p6a3dd71994)" d="M 52.388688 405.414418 
L 415.737525 405.414418 
" style="fill:none;stroke:#ffffff;stroke-linecap:square;"/>
     </g>
     <g id="line2d_47">
      <path d="M 52.388688 405.414418 
" style="fill:none;stroke:#333333;stroke-linecap:square;stroke-width:1.5;"/>
      <g>
       <use style="fill:#333333;stroke:#000000;" x="52.388688" xlink:href="#mc667adcb93" y="405.414418"/>
      </g>
     </g>
     <g id="text_19">
      <!-- 0.890 -->
      <g style="fill:#4d4d4d;" transform="translate(22.245938 407.842668)scale(0.088 -0.088)">
       <use xlink:href="#DejaVuSans-30"/>
       <use x="63.623047" xlink:href="#DejaVuSans-2e"/>
       <use x="95.410156" xlink:href="#DejaVuSans-38"/>
       <use x="159.033203" xlink:href="#DejaVuSans-39"/>
       <use x="222.65625" xlink:href="#DejaVuSans-30"/>
      </g>
     </g>
    </g>
    <g id="ytick_16">
     <g id="line2d_48">
      <path clip-path="url(#p6a3dd71994)" d="M 52.388688 348.336896 
L 415.737525 348.336896 
" style="fill:none;stroke:#ffffff;stroke-linecap:square;"/>
     </g>
     <g id="line2d_49">
      <path d="M 52.388688 348.336896 
" style="fill:none;stroke:#333333;stroke-linecap:square;stroke-width:1.5;"/>
      <g>
       <use style="fill:#333333;stroke:#000000;" x="52.388688" xlink:href="#mc667adcb93" y="348.336896"/>
      </g>
     </g>
     <g id="text_20">
      <!-- 0.892 -->
      <g style="fill:#4d4d4d;" transform="translate(22.245938 350.765146)scale(0.088 -0.088)">
       <use xlink:href="#DejaVuSans-30"/>
       <use x="63.623047" xlink:href="#DejaVuSans-2e"/>
       <use x="95.410156" xlink:href="#DejaVuSans-38"/>
       <use x="159.033203" xlink:href="#DejaVuSans-39"/>
       <use x="222.65625" xlink:href="#DejaVuSans-32"/>
      </g>
     </g>
    </g>
    <g id="ytick_17">
     <g id="line2d_50">
      <path clip-path="url(#p6a3dd71994)" d="M 52.388688 291.259374 
L 415.737525 291.259374 
" style="fill:none;stroke:#ffffff;stroke-linecap:square;"/>
     </g>
     <g id="line2d_51">
      <path d="M 52.388688 291.259374 
" style="fill:none;stroke:#333333;stroke-linecap:square;stroke-width:1.5;"/>
      <g>
       <use style="fill:#333333;stroke:#000000;" x="52.388688" xlink:href="#mc667adcb93" y="291.259374"/>
      </g>
     </g>
     <g id="text_21">
      <!-- 0.894 -->
      <g style="fill:#4d4d4d;" transform="translate(22.245938 293.687624)scale(0.088 -0.088)">
       <use xlink:href="#DejaVuSans-30"/>
       <use x="63.623047" xlink:href="#DejaVuSans-2e"/>
       <use x="95.410156" xlink:href="#DejaVuSans-38"/>
       <use x="159.033203" xlink:href="#DejaVuSans-39"/>
       <use x="222.65625" xlink:href="#DejaVuSans-34"/>
      </g>
     </g>
    </g>
    <g id="ytick_18">
     <g id="line2d_52">
      <path clip-path="url(#p6a3dd71994)" d="M 52.388688 433.953179 
L 415.737525 433.953179 
" style="fill:none;stroke:#ffffff;stroke-linecap:square;stroke-width:0.5;"/>
     </g>
    </g>
    <g id="ytick_19">
     <g id="line2d_53">
      <path clip-path="url(#p6a3dd71994)" d="M 52.388688 376.875657 
L 415.737525 376.875657 
" style="fill:none;stroke:#ffffff;stroke-linecap:square;stroke-width:0.5;"/>
     </g>
    </g>
    <g id="ytick_20">
     <g id="line2d_54">
      <path clip-path="url(#p6a3dd71994)" d="M 52.388688 319.798135 
L 415.737525 319.798135 
" style="fill:none;stroke:#ffffff;stroke-linecap:square;stroke-width:0.5;"/>
     </g>
    </g>
    <g id="ytick_21">
     <g id="line2d_55">
      <path clip-path="url(#p6a3dd71994)" d="M 52.388688 262.720612 
L 415.737525 262.720612 
" style="fill:none;stroke:#ffffff;stroke-linecap:square;stroke-width:0.5;"/>
     </g>
    </g>
   </g>
   <g id="line2d_56">
    <path clip-path="url(#p6a3dd71994)" d="M 104.295664 263.314537 
L 363.830548 266.191556 
" style="fill:none;stroke:#57d3db;stroke-width:0.886227;"/>
   </g>
   <g id="line2d_57">
    <path clip-path="url(#p6a3dd71994)" d="M 104.295664 274.662975 
L 363.830548 275.407063 
" style="fill:none;stroke:#a157db;stroke-width:0.886227;"/>
   </g>
   <g id="PathCollection_3">
    <path clip-path="url(#p6a3dd71994)" d="M 104.295664 265.086991 
C 104.765725 265.086991 105.216596 264.900234 105.548978 264.567851 
C 105.881361 264.235468 106.068118 263.784597 106.068118 263.314537 
C 106.068118 262.844477 105.881361 262.393606 105.548978 262.061223 
C 105.216596 261.72884 104.765725 261.542083 104.295664 261.542083 
C 103.825604 261.542083 103.374733 261.72884 103.04235 262.061223 
C 102.709967 262.393606 102.52321 262.844477 102.52321 263.314537 
C 102.52321 263.784597 102.709967 264.235468 103.04235 264.567851 
C 103.374733 264.900234 103.825604 265.086991 104.295664 265.086991 
z
" style="fill:#57d3db;stroke:#57d3db;stroke-width:0.886227;"/>
    <path clip-path="url(#p6a3dd71994)" d="M 104.295664 276.435429 
C 104.765725 276.435429 105.216596 276.248672 105.548978 275.916289 
C 105.881361 275.583906 106.068118 275.133035 106.068118 274.662975 
C 106.068118 274.192914 105.881361 273.742043 105.548978 273.409661 
C 105.216596 273.077278 104.765725 272.890521 104.295664 272.890521 
C 103.825604 272.890521 103.374733 273.077278 103.04235 273.409661 
C 102.709967 273.742043 102.52321 274.192914 102.52321 274.662975 
C 102.52321 275.133035 102.709967 275.583906 103.04235 275.916289 
C 103.374733 276.248672 103.825604 276.435429 104.295664 276.435429 
z
" style="fill:#a157db;stroke:#a157db;stroke-width:0.886227;"/>
    <path clip-path="url(#p6a3dd71994)" d="M 363.830548 272.549651 
C 364.300608 272.549651 364.751479 272.362894 365.083862 272.030511 
C 365.416245 271.698128 365.603002 271.247257 365.603002 270.777197 
C 365.603002 270.307137 365.416245 269.856266 365.083862 269.523883 
C 364.751479 269.1915 364.300608 269.004743 363.830548 269.004743 
C 363.360488 269.004743 362.909617 269.1915 362.577234 269.523883 
C 362.244851 269.856266 362.058094 270.307137 362.058094 270.777197 
C 362.058094 271.247257 362.244851 271.698128 362.577234 272.030511 
C 362.909617 272.362894 363.360488 272.549651 363.830548 272.549651 
z
" style="fill:#db5f57;stroke:#db5f57;stroke-width:0.886227;"/>
    <path clip-path="url(#p6a3dd71994)" d="M 363.830548 457.896082 
C 364.300608 457.896082 364.751479 457.709325 365.083862 457.376942 
C 365.416245 457.044559 365.603002 456.593688 365.603002 456.123628 
C 365.603002 455.653568 365.416245 455.202696 365.083862 454.870314 
C 364.751479 454.537931 364.300608 454.351174 363.830548 454.351174 
C 363.360488 454.351174 362.909617 454.537931 362.577234 454.870314 
C 362.244851 455.202696 362.058094 455.653568 362.058094 456.123628 
C 362.058094 456.593688 362.244851 457.044559 362.577234 457.376942 
C 362.909617 457.709325 363.360488 457.896082 363.830548 457.896082 
z
" style="fill:#91db57;stroke:#91db57;stroke-width:0.886227;"/>
    <path clip-path="url(#p6a3dd71994)" d="M 363.830548 267.96401 
C 364.300608 267.96401 364.751479 267.777253 365.083862 267.44487 
C 365.416245 267.112488 365.603002 266.661617 365.603002 266.191556 
C 365.603002 265.721496 365.416245 265.270625 365.083862 264.938242 
C 364.751479 264.605859 364.300608 264.419103 363.830548 264.419103 
C 363.360488 264.419103 362.909617 264.605859 362.577234 264.938242 
C 362.244851 265.270625 362.058094 265.721496 362.058094 266.191556 
C 362.058094 266.661617 362.244851 267.112488 362.577234 267.44487 
C 362.909617 267.777253 363.360488 267.96401 363.830548 267.96401 
z
" style="fill:#57d3db;stroke:#57d3db;stroke-width:0.886227;"/>
    <path clip-path="url(#p6a3dd71994)" d="M 363.830548 277.179517 
C 364.300608 277.179517 364.751479 276.99276 365.083862 276.660377 
C 365.416245 276.327995 365.603002 275.877124 365.603002 275.407063 
C 365.603002 274.937003 365.416245 274.486132 365.083862 274.153749 
C 364.751479 273.821366 364.300608 273.634609 363.830548 273.634609 
C 363.360488 273.634609 362.909617 273.821366 362.577234 274.153749 
C 362.244851 274.486132 362.058094 274.937003 362.058094 275.407063 
C 362.058094 275.877124 362.244851 276.327995 362.577234 276.660377 
C 362.909617 276.99276 363.360488 277.179517 363.830548 277.179517 
z
" style="fill:#a157db;stroke:#a157db;stroke-width:0.886227;"/>
   </g>
   <g id="patch_12">
    <path d="M 52.388688 253.674082 
L 415.737525 253.674082 
L 415.737525 238.63 
L 52.388688 238.63 
z
" style="fill:#d9d9d9;"/>
   </g>
   <g id="text_22">
    <!-- F1 score: &lt;=50K -->
    <g style="fill:#1a1a1a;" transform="translate(196.774481 248.580291)scale(0.088 -0.088)">
     <defs>
      <path d="M 750 794 
L 1409 794 
L 1409 0 
L 750 0 
L 750 794 
z
M 750 3309 
L 1409 3309 
L 1409 2516 
L 750 2516 
L 750 3309 
z
" id="DejaVuSans-3a" transform="scale(0.015625)"/>
      <path d="M 4684 3150 
L 1459 2003 
L 4684 863 
L 4684 294 
L 678 1747 
L 678 2266 
L 4684 3719 
L 4684 3150 
z
" id="DejaVuSans-3c" transform="scale(0.015625)"/>
      <path d="M 678 2906 
L 4684 2906 
L 4684 2381 
L 678 2381 
L 678 2906 
z
M 678 1631 
L 4684 1631 
L 4684 1100 
L 678 1100 
L 678 1631 
z
" id="DejaVuSans-3d" transform="scale(0.015625)"/>
      <path d="M 628 4666 
L 1259 4666 
L 1259 2694 
L 3353 4666 
L 4166 4666 
L 1850 2491 
L 4331 0 
L 3500 0 
L 1259 2247 
L 1259 0 
L 628 0 
L 628 4666 
z
" id="DejaVuSans-4b" transform="scale(0.015625)"/>
     </defs>
     <use xlink:href="#DejaVuSans-46"/>
     <use x="57.519531" xlink:href="#DejaVuSans-31"/>
     <use x="121.142578" xlink:href="#DejaVuSans-20"/>
     <use x="152.929688" xlink:href="#DejaVuSans-73"/>
     <use x="205.029297" xlink:href="#DejaVuSans-63"/>
     <use x="260.009766" xlink:href="#DejaVuSans-6f"/>
     <use x="321.191406" xlink:href="#DejaVuSans-72"/>
     <use x="360.054688" xlink:href="#DejaVuSans-65"/>
     <use x="421.578125" xlink:href="#DejaVuSans-3a"/>
     <use x="455.269531" xlink:href="#DejaVuSans-20"/>
     <use x="487.056641" xlink:href="#DejaVuSans-3c"/>
     <use x="570.845703" xlink:href="#DejaVuSans-3d"/>
     <use x="654.634766" xlink:href="#DejaVuSans-35"/>
     <use x="718.257812" xlink:href="#DejaVuSans-30"/>
     <use x="781.880859" xlink:href="#DejaVuSans-4b"/>
    </g>
   </g>
  </g>
  <g id="axes_4">
   <g id="patch_13">
    <path d="M 470.23985 465.764082 
L 833.588688 465.764082 
L 833.588688 253.674082 
L 470.23985 253.674082 
z
" style="fill:#ebebeb;"/>
   </g>
   <g id="matplotlib.axis_7">
    <g id="xtick_10">
     <g id="line2d_58">
      <path clip-path="url(#pd977fb109c)" d="M 522.146827 465.764082 
L 522.146827 253.674082 
" style="fill:none;stroke:#ffffff;stroke-linecap:square;"/>
     </g>
     <g id="line2d_59">
      <path d="M 522.146827 465.764082 
" style="fill:none;stroke:#333333;stroke-linecap:square;stroke-width:1.5;"/>
      <g>
       <use style="fill:#333333;stroke:#000000;" x="522.146827" xlink:href="#mbe2d27fd22" y="465.764082"/>
      </g>
     </g>
     <g id="text_23">
      <!-- False -->
      <g style="fill:#4d4d4d;" transform="translate(511.09939 477.400707)scale(0.088 -0.088)">
       <use xlink:href="#DejaVuSans-46"/>
       <use x="48.394531" xlink:href="#DejaVuSans-61"/>
       <use x="109.673828" xlink:href="#DejaVuSans-6c"/>
       <use x="137.457031" xlink:href="#DejaVuSans-73"/>
       <use x="189.556641" xlink:href="#DejaVuSans-65"/>
      </g>
     </g>
    </g>
    <g id="xtick_11">
     <g id="line2d_60">
      <path clip-path="url(#pd977fb109c)" d="M 781.681711 465.764082 
L 781.681711 253.674082 
" style="fill:none;stroke:#ffffff;stroke-linecap:square;"/>
     </g>
     <g id="line2d_61">
      <path d="M 781.681711 465.764082 
" style="fill:none;stroke:#333333;stroke-linecap:square;stroke-width:1.5;"/>
      <g>
       <use style="fill:#333333;stroke:#000000;" x="781.681711" xlink:href="#mbe2d27fd22" y="465.764082"/>
      </g>
     </g>
     <g id="text_24">
      <!-- True -->
      <g style="fill:#4d4d4d;" transform="translate(772.338586 477.400707)scale(0.088 -0.088)">
       <use xlink:href="#DejaVuSans-54"/>
       <use x="46.333984" xlink:href="#DejaVuSans-72"/>
       <use x="87.447266" xlink:href="#DejaVuSans-75"/>
       <use x="150.826172" xlink:href="#DejaVuSans-65"/>
      </g>
     </g>
    </g>
    <g id="xtick_12">
     <g id="line2d_62">
      <path clip-path="url(#pd977fb109c)" d="M 651.914269 465.764082 
L 651.914269 253.674082 
" style="fill:none;stroke:#ffffff;stroke-linecap:square;stroke-width:0.5;"/>
     </g>
    </g>
    <g id="text_25">
     <!-- Same queries generator and critic -->
     <g transform="translate(336.364469 491.989114)scale(0.11 -0.11)">
      <defs>
       <path d="M 3425 4513 
L 3425 3897 
Q 3066 4069 2747 4153 
Q 2428 4238 2131 4238 
Q 1616 4238 1336 4038 
Q 1056 3838 1056 3469 
Q 1056 3159 1242 3001 
Q 1428 2844 1947 2747 
L 2328 2669 
Q 3034 2534 3370 2195 
Q 3706 1856 3706 1288 
Q 3706 609 3251 259 
Q 2797 -91 1919 -91 
Q 1588 -91 1214 -16 
Q 841 59 441 206 
L 441 856 
Q 825 641 1194 531 
Q 1563 422 1919 422 
Q 2459 422 2753 634 
Q 3047 847 3047 1241 
Q 3047 1584 2836 1778 
Q 2625 1972 2144 2069 
L 1759 2144 
Q 1053 2284 737 2584 
Q 422 2884 422 3419 
Q 422 4038 858 4394 
Q 1294 4750 2059 4750 
Q 2388 4750 2728 4690 
Q 3069 4631 3425 4513 
z
" id="DejaVuSans-53" transform="scale(0.015625)"/>
       <path d="M 2906 2969 
L 2906 4863 
L 3481 4863 
L 3481 0 
L 2906 0 
L 2906 525 
Q 2725 213 2448 61 
Q 2172 -91 1784 -91 
Q 1150 -91 751 415 
Q 353 922 353 1747 
Q 353 2572 751 3078 
Q 1150 3584 1784 3584 
Q 2172 3584 2448 3432 
Q 2725 3281 2906 2969 
z
M 947 1747 
Q 947 1113 1208 752 
Q 1469 391 1925 391 
Q 2381 391 2643 752 
Q 2906 1113 2906 1747 
Q 2906 2381 2643 2742 
Q 2381 3103 1925 3103 
Q 1469 3103 1208 2742 
Q 947 2381 947 1747 
z
" id="DejaVuSans-64" transform="scale(0.015625)"/>
      </defs>
      <use xlink:href="#DejaVuSans-53"/>
      <use x="63.476562" xlink:href="#DejaVuSans-61"/>
      <use x="124.755859" xlink:href="#DejaVuSans-6d"/>
      <use x="222.167969" xlink:href="#DejaVuSans-65"/>
      <use x="283.691406" xlink:href="#DejaVuSans-20"/>
      <use x="315.478516" xlink:href="#DejaVuSans-71"/>
      <use x="378.955078" xlink:href="#DejaVuSans-75"/>
      <use x="442.333984" xlink:href="#DejaVuSans-65"/>
      <use x="503.857422" xlink:href="#DejaVuSans-72"/>
      <use x="544.970703" xlink:href="#DejaVuSans-69"/>
      <use x="572.753906" xlink:href="#DejaVuSans-65"/>
      <use x="634.277344" xlink:href="#DejaVuSans-73"/>
      <use x="686.376953" xlink:href="#DejaVuSans-20"/>
      <use x="718.164062" xlink:href="#DejaVuSans-67"/>
      <use x="781.640625" xlink:href="#DejaVuSans-65"/>
      <use x="843.164062" xlink:href="#DejaVuSans-6e"/>
      <use x="906.542969" xlink:href="#DejaVuSans-65"/>
      <use x="968.066406" xlink:href="#DejaVuSans-72"/>
      <use x="1009.179688" xlink:href="#DejaVuSans-61"/>
      <use x="1070.458984" xlink:href="#DejaVuSans-74"/>
      <use x="1109.667969" xlink:href="#DejaVuSans-6f"/>
      <use x="1170.849609" xlink:href="#DejaVuSans-72"/>
      <use x="1211.962891" xlink:href="#DejaVuSans-20"/>
      <use x="1243.75" xlink:href="#DejaVuSans-61"/>
      <use x="1305.029297" xlink:href="#DejaVuSans-6e"/>
      <use x="1368.408203" xlink:href="#DejaVuSans-64"/>
      <use x="1431.884766" xlink:href="#DejaVuSans-20"/>
      <use x="1463.671875" xlink:href="#DejaVuSans-63"/>
      <use x="1518.652344" xlink:href="#DejaVuSans-72"/>
      <use x="1559.765625" xlink:href="#DejaVuSans-69"/>
      <use x="1587.548828" xlink:href="#DejaVuSans-74"/>
      <use x="1626.757812" xlink:href="#DejaVuSans-69"/>
      <use x="1654.541016" xlink:href="#DejaVuSans-63"/>
     </g>
    </g>
   </g>
   <g id="matplotlib.axis_8">
    <g id="ytick_22">
     <g id="line2d_63">
      <path clip-path="url(#pd977fb109c)" d="M 470.23985 409.403087 
L 833.588688 409.403087 
" style="fill:none;stroke:#ffffff;stroke-linecap:square;"/>
     </g>
     <g id="line2d_64">
      <path d="M 470.23985 409.403087 
" style="fill:none;stroke:#333333;stroke-linecap:square;stroke-width:1.5;"/>
      <g>
       <use style="fill:#333333;stroke:#000000;" x="470.23985" xlink:href="#mc667adcb93" y="409.403087"/>
      </g>
     </g>
     <g id="text_26">
      <!-- 0.655 -->
      <g style="fill:#4d4d4d;" transform="translate(440.0971 411.831337)scale(0.088 -0.088)">
       <use xlink:href="#DejaVuSans-30"/>
       <use x="63.623047" xlink:href="#DejaVuSans-2e"/>
       <use x="95.410156" xlink:href="#DejaVuSans-36"/>
       <use x="159.033203" xlink:href="#DejaVuSans-35"/>
       <use x="222.65625" xlink:href="#DejaVuSans-35"/>
      </g>
     </g>
    </g>
    <g id="ytick_23">
     <g id="line2d_65">
      <path clip-path="url(#pd977fb109c)" d="M 470.23985 344.17192 
L 833.588688 344.17192 
" style="fill:none;stroke:#ffffff;stroke-linecap:square;"/>
     </g>
     <g id="line2d_66">
      <path d="M 470.23985 344.17192 
" style="fill:none;stroke:#333333;stroke-linecap:square;stroke-width:1.5;"/>
      <g>
       <use style="fill:#333333;stroke:#000000;" x="470.23985" xlink:href="#mc667adcb93" y="344.17192"/>
      </g>
     </g>
     <g id="text_27">
      <!-- 0.660 -->
      <g style="fill:#4d4d4d;" transform="translate(440.0971 346.60017)scale(0.088 -0.088)">
       <use xlink:href="#DejaVuSans-30"/>
       <use x="63.623047" xlink:href="#DejaVuSans-2e"/>
       <use x="95.410156" xlink:href="#DejaVuSans-36"/>
       <use x="159.033203" xlink:href="#DejaVuSans-36"/>
       <use x="222.65625" xlink:href="#DejaVuSans-30"/>
      </g>
     </g>
    </g>
    <g id="ytick_24">
     <g id="line2d_67">
      <path clip-path="url(#pd977fb109c)" d="M 470.23985 278.940753 
L 833.588688 278.940753 
" style="fill:none;stroke:#ffffff;stroke-linecap:square;"/>
     </g>
     <g id="line2d_68">
      <path d="M 470.23985 278.940753 
" style="fill:none;stroke:#333333;stroke-linecap:square;stroke-width:1.5;"/>
      <g>
       <use style="fill:#333333;stroke:#000000;" x="470.23985" xlink:href="#mc667adcb93" y="278.940753"/>
      </g>
     </g>
     <g id="text_28">
      <!-- 0.665 -->
      <g style="fill:#4d4d4d;" transform="translate(440.0971 281.369003)scale(0.088 -0.088)">
       <use xlink:href="#DejaVuSans-30"/>
       <use x="63.623047" xlink:href="#DejaVuSans-2e"/>
       <use x="95.410156" xlink:href="#DejaVuSans-36"/>
       <use x="159.033203" xlink:href="#DejaVuSans-36"/>
       <use x="222.65625" xlink:href="#DejaVuSans-35"/>
      </g>
     </g>
    </g>
    <g id="ytick_25">
     <g id="line2d_69">
      <path clip-path="url(#pd977fb109c)" d="M 470.23985 442.01867 
L 833.588688 442.01867 
" style="fill:none;stroke:#ffffff;stroke-linecap:square;stroke-width:0.5;"/>
     </g>
    </g>
    <g id="ytick_26">
     <g id="line2d_70">
      <path clip-path="url(#pd977fb109c)" d="M 470.23985 376.787503 
L 833.588688 376.787503 
" style="fill:none;stroke:#ffffff;stroke-linecap:square;stroke-width:0.5;"/>
     </g>
    </g>
    <g id="ytick_27">
     <g id="line2d_71">
      <path clip-path="url(#pd977fb109c)" d="M 470.23985 311.556337 
L 833.588688 311.556337 
" style="fill:none;stroke:#ffffff;stroke-linecap:square;stroke-width:0.5;"/>
     </g>
    </g>
   </g>
   <g id="line2d_72">
    <path clip-path="url(#pd977fb109c)" d="M 522.146827 448.571093 
L 781.681711 456.123628 
" style="fill:none;stroke:#57d3db;stroke-width:0.886227;"/>
   </g>
   <g id="line2d_73">
    <path clip-path="url(#pd977fb109c)" d="M 522.146827 427.267472 
L 781.681711 422.86489 
" style="fill:none;stroke:#a157db;stroke-width:0.886227;"/>
   </g>
   <g id="PathCollection_4">
    <path clip-path="url(#pd977fb109c)" d="M 522.146827 450.343547 
C 522.616887 450.343547 523.067758 450.15679 523.400141 449.824407 
C 523.732524 449.492024 523.919281 449.041153 523.919281 448.571093 
C 523.919281 448.101033 523.732524 447.650162 523.400141 447.317779 
C 523.067758 446.985396 522.616887 446.798639 522.146827 446.798639 
C 521.676767 446.798639 521.225896 446.985396 520.893513 447.317779 
C 520.56113 447.650162 520.374373 448.101033 520.374373 448.571093 
C 520.374373 449.041153 520.56113 449.492024 520.893513 449.824407 
C 521.225896 450.15679 521.676767 450.343547 522.146827 450.343547 
z
" style="fill:#57d3db;stroke:#57d3db;stroke-width:0.886227;"/>
    <path clip-path="url(#pd977fb109c)" d="M 522.146827 429.039926 
C 522.616887 429.039926 523.067758 428.853169 523.400141 428.520786 
C 523.732524 428.188403 523.919281 427.737532 523.919281 427.267472 
C 523.919281 426.797412 523.732524 426.346541 523.400141 426.014158 
C 523.067758 425.681775 522.616887 425.495018 522.146827 425.495018 
C 521.676767 425.495018 521.225896 425.681775 520.893513 426.014158 
C 520.56113 426.346541 520.374373 426.797412 520.374373 427.267472 
C 520.374373 427.737532 520.56113 428.188403 520.893513 428.520786 
C 521.225896 428.853169 521.676767 429.039926 522.146827 429.039926 
z
" style="fill:#a157db;stroke:#a157db;stroke-width:0.886227;"/>
    <path clip-path="url(#pd977fb109c)" d="M 781.681711 438.044269 
C 782.151771 438.044269 782.602642 437.857512 782.935025 437.525129 
C 783.267408 437.192746 783.454165 436.741875 783.454165 436.271815 
C 783.454165 435.801755 783.267408 435.350883 782.935025 435.018501 
C 782.602642 434.686118 782.151771 434.499361 781.681711 434.499361 
C 781.21165 434.499361 780.760779 434.686118 780.428397 435.018501 
C 780.096014 435.350883 779.909257 435.801755 779.909257 436.271815 
C 779.909257 436.741875 780.096014 437.192746 780.428397 437.525129 
C 780.760779 437.857512 781.21165 438.044269 781.681711 438.044269 
z
" style="fill:#db5f57;stroke:#db5f57;stroke-width:0.886227;"/>
    <path clip-path="url(#pd977fb109c)" d="M 781.681711 265.086991 
C 782.151771 265.086991 782.602642 264.900234 782.935025 264.567851 
C 783.267408 264.235468 783.454165 263.784597 783.454165 263.314537 
C 783.454165 262.844477 783.267408 262.393606 782.935025 262.061223 
C 782.602642 261.72884 782.151771 261.542083 781.681711 261.542083 
C 781.21165 261.542083 780.760779 261.72884 780.428397 262.061223 
C 780.096014 262.393606 779.909257 262.844477 779.909257 263.314537 
C 779.909257 263.784597 780.096014 264.235468 780.428397 264.567851 
C 780.760779 264.900234 781.21165 265.086991 781.681711 265.086991 
z
" style="fill:#91db57;stroke:#91db57;stroke-width:0.886227;"/>
    <path clip-path="url(#pd977fb109c)" d="M 781.681711 457.896082 
C 782.151771 457.896082 782.602642 457.709325 782.935025 457.376942 
C 783.267408 457.044559 783.454165 456.593688 783.454165 456.123628 
C 783.454165 455.653568 783.267408 455.202696 782.935025 454.870314 
C 782.602642 454.537931 782.151771 454.351174 781.681711 454.351174 
C 781.21165 454.351174 780.760779 454.537931 780.428397 454.870314 
C 780.096014 455.202696 779.909257 455.653568 779.909257 456.123628 
C 779.909257 456.593688 780.096014 457.044559 780.428397 457.376942 
C 780.760779 457.709325 781.21165 457.896082 781.681711 457.896082 
z
" style="fill:#57d3db;stroke:#57d3db;stroke-width:0.886227;"/>
    <path clip-path="url(#pd977fb109c)" d="M 781.681711 424.637344 
C 782.151771 424.637344 782.602642 424.450587 782.935025 424.118204 
C 783.267408 423.785821 783.454165 423.33495 783.454165 422.86489 
C 783.454165 422.394829 783.267408 421.943958 782.935025 421.611576 
C 782.602642 421.279193 782.151771 421.092436 781.681711 421.092436 
C 781.21165 421.092436 780.760779 421.279193 780.428397 421.611576 
C 780.096014 421.943958 779.909257 422.394829 779.909257 422.86489 
C 779.909257 423.33495 780.096014 423.785821 780.428397 424.118204 
C 780.760779 424.450587 781.21165 424.637344 781.681711 424.637344 
z
" style="fill:#a157db;stroke:#a157db;stroke-width:0.886227;"/>
   </g>
   <g id="patch_14">
    <path d="M 470.23985 253.674082 
L 833.588688 253.674082 
L 833.588688 238.63 
L 470.23985 238.63 
z
" style="fill:#d9d9d9;"/>
   </g>
   <g id="text_29">
    <!-- F1 score: &gt;50K -->
    <g style="fill:#1a1a1a;" transform="translate(618.312706 248.580291)scale(0.088 -0.088)">
     <defs>
      <path d="M 678 3150 
L 678 3719 
L 4684 2266 
L 4684 1747 
L 678 294 
L 678 863 
L 3897 2003 
L 678 3150 
z
" id="DejaVuSans-3e" transform="scale(0.015625)"/>
     </defs>
     <use xlink:href="#DejaVuSans-46"/>
     <use x="57.519531" xlink:href="#DejaVuSans-31"/>
     <use x="121.142578" xlink:href="#DejaVuSans-20"/>
     <use x="152.929688" xlink:href="#DejaVuSans-73"/>
     <use x="205.029297" xlink:href="#DejaVuSans-63"/>
     <use x="260.009766" xlink:href="#DejaVuSans-6f"/>
     <use x="321.191406" xlink:href="#DejaVuSans-72"/>
     <use x="360.054688" xlink:href="#DejaVuSans-65"/>
     <use x="421.578125" xlink:href="#DejaVuSans-3a"/>
     <use x="455.269531" xlink:href="#DejaVuSans-20"/>
     <use x="487.056641" xlink:href="#DejaVuSans-3e"/>
     <use x="570.845703" xlink:href="#DejaVuSans-35"/>
     <use x="634.46875" xlink:href="#DejaVuSans-30"/>
     <use x="698.091797" xlink:href="#DejaVuSans-4b"/>
    </g>
   </g>
  </g>
 </g>
 <defs>
  <clipPath id="p74d6561333">
   <rect height="212.09" width="363.348837" x="52.388688" y="22.244082"/>
  </clipPath>
  <clipPath id="p5ae5b619a4">
   <path d="M 852.988688 229.807051 
L 852.988688 213.967051 
L 868.828688 213.967051 
L 868.828688 229.807051 
"/>
  </clipPath>
  <clipPath id="pf570516c92">
   <path d="M 852.988688 247.647051 
L 852.988688 231.807051 
L 868.828688 231.807051 
L 868.828688 247.647051 
"/>
  </clipPath>
  <clipPath id="p42345fead1">
   <path d="M 852.988688 265.487051 
L 852.988688 249.647051 
L 868.828688 249.647051 
L 868.828688 265.487051 
"/>
  </clipPath>
  <clipPath id="p84ec03e6c4">
   <path d="M 852.988688 283.327051 
L 852.988688 267.487051 
L 868.828688 267.487051 
L 868.828688 283.327051 
"/>
  </clipPath>
  <clipPath id="p8ad7bc701b">
   <rect height="212.09" width="363.348837" x="470.23985" y="22.244082"/>
  </clipPath>
  <clipPath id="p6a3dd71994">
   <rect height="212.09" width="363.348837" x="52.388688" y="253.674082"/>
  </clipPath>
  <clipPath id="pd977fb109c">
   <rect height="212.09" width="363.348837" x="470.23985" y="253.674082"/>
  </clipPath>
 </defs>
</svg>
