<?xml version="1.0" encoding="utf-8" standalone="no"?>
<!DOCTYPE svg PUBLIC "-//W3C//DTD SVG 1.1//EN"
  "http://www.w3.org/Graphics/SVG/1.1/DTD/svg11.dtd">
<svg xmlns:xlink="http://www.w3.org/1999/xlink" width="394.388688pt" height="274.683597pt" viewBox="0 0 394.388688 274.683597" xmlns="http://www.w3.org/2000/svg" version="1.1">
 <metadata>
  <rdf:RDF xmlns:dc="http://purl.org/dc/elements/1.1/" xmlns:cc="http://creativecommons.org/ns#" xmlns:rdf="http://www.w3.org/1999/02/22-rdf-syntax-ns#">
   <cc:Work>
    <dc:type rdf:resource="http://purl.org/dc/dcmitype/StillImage"/>
    <dc:date>2022-06-02T16:17:42.030082</dc:date>
    <dc:format>image/svg+xml</dc:format>
    <dc:creator>
     <cc:Agent>
      <dc:title>Matplotlib v3.5.2, https://matplotlib.org/</dc:title>
     </cc:Agent>
    </dc:creator>
   </cc:Work>
  </rdf:RDF>
 </metadata>
 <defs>
  <style type="text/css">*{stroke-linejoin: round; stroke-linecap: butt}</style>
 </defs>
 <g id="figure_1">
  <g id="patch_1">
   <path d="M 0 274.683597 
L 394.388688 274.683597 
L 394.388688 0 
L 0 0 
z
" style="fill: #ffffff; stroke: #ffffff; stroke-linejoin: miter"/>
  </g>
  <g id="axes_1">
   <g id="patch_2">
    <path d="M 52.388688 120.58091 
L 208.109618 120.58091 
L 208.109618 21.53091 
L 52.388688 21.53091 
z
" style="fill: #ebebeb"/>
   </g>
   <g id="matplotlib.axis_1">
    <g id="xtick_1">
     <g id="line2d_1">
      <path d="M 59.466912 120.58091 
L 59.466912 21.53091 
" clip-path="url(#pfb781da8b4)" style="fill: none; stroke: #ffffff"/>
     </g>
    </g>
    <g id="xtick_2">
     <g id="line2d_2">
      <path d="M 94.858032 120.58091 
L 94.858032 21.53091 
" clip-path="url(#pfb781da8b4)" style="fill: none; stroke: #ffffff"/>
     </g>
    </g>
    <g id="xtick_3">
     <g id="line2d_3">
      <path d="M 130.249153 120.58091 
L 130.249153 21.53091 
" clip-path="url(#pfb781da8b4)" style="fill: none; stroke: #ffffff"/>
     </g>
    </g>
    <g id="xtick_4">
     <g id="line2d_4">
      <path d="M 165.640273 120.58091 
L 165.640273 21.53091 
" clip-path="url(#pfb781da8b4)" style="fill: none; stroke: #ffffff"/>
     </g>
    </g>
    <g id="xtick_5">
     <g id="line2d_5">
      <path d="M 201.031394 120.58091 
L 201.031394 21.53091 
" clip-path="url(#pfb781da8b4)" style="fill: none; stroke: #ffffff"/>
     </g>
    </g>
    <g id="xtick_6">
     <g id="line2d_6">
      <path d="M 77.162472 120.58091 
L 77.162472 21.53091 
" clip-path="url(#pfb781da8b4)" style="fill: none; stroke: #ffffff; stroke-width: 0.5"/>
     </g>
    </g>
    <g id="xtick_7">
     <g id="line2d_7">
      <path d="M 112.553592 120.58091 
L 112.553592 21.53091 
" clip-path="url(#pfb781da8b4)" style="fill: none; stroke: #ffffff; stroke-width: 0.5"/>
     </g>
    </g>
    <g id="xtick_8">
     <g id="line2d_8">
      <path d="M 147.944713 120.58091 
L 147.944713 21.53091 
" clip-path="url(#pfb781da8b4)" style="fill: none; stroke: #ffffff; stroke-width: 0.5"/>
     </g>
    </g>
    <g id="xtick_9">
     <g id="line2d_9">
      <path d="M 183.335833 120.58091 
L 183.335833 21.53091 
" clip-path="url(#pfb781da8b4)" style="fill: none; stroke: #ffffff; stroke-width: 0.5"/>
     </g>
    </g>
   </g>
   <g id="matplotlib.axis_2">
    <g id="ytick_1">
     <g id="line2d_10">
      <path d="M 52.388688 98.008903 
L 208.109618 98.008903 
" clip-path="url(#pfb781da8b4)" style="fill: none; stroke: #ffffff"/>
     </g>
     <g id="line2d_11">
      <path d="M 52.388688 98.008903 
" style="fill: none; stroke: #333333; stroke-width: 1.5"/>
      <defs>
       <path id="me7feddee89" d="M 0 0 
L -2.75 0 
" style="stroke: #000000"/>
      </defs>
      <g>
       <use xlink:href="#me7feddee89" x="52.388688" y="98.008903" style="fill: #333333; stroke: #000000"/>
      </g>
     </g>
     <g id="text_1">
      <!-- 0.834 -->
      <g style="fill: #4d4d4d" transform="translate(22.245938 100.437153)scale(0.088 -0.088)">
       <defs>
        <path id="DejaVuSans-30" d="M 2034 4250 
Q 1547 4250 1301 3770 
Q 1056 3291 1056 2328 
Q 1056 1369 1301 889 
Q 1547 409 2034 409 
Q 2525 409 2770 889 
Q 3016 1369 3016 2328 
Q 3016 3291 2770 3770 
Q 2525 4250 2034 4250 
z
M 2034 4750 
Q 2819 4750 3233 4129 
Q 3647 3509 3647 2328 
Q 3647 1150 3233 529 
Q 2819 -91 2034 -91 
Q 1250 -91 836 529 
Q 422 1150 422 2328 
Q 422 3509 836 4129 
Q 1250 4750 2034 4750 
z
" transform="scale(0.015625)"/>
        <path id="DejaVuSans-2e" d="M 684 794 
L 1344 794 
L 1344 0 
L 684 0 
L 684 794 
z
" transform="scale(0.015625)"/>
        <path id="DejaVuSans-38" d="M 2034 2216 
Q 1584 2216 1326 1975 
Q 1069 1734 1069 1313 
Q 1069 891 1326 650 
Q 1584 409 2034 409 
Q 2484 409 2743 651 
Q 3003 894 3003 1313 
Q 3003 1734 2745 1975 
Q 2488 2216 2034 2216 
z
M 1403 2484 
Q 997 2584 770 2862 
Q 544 3141 544 3541 
Q 544 4100 942 4425 
Q 1341 4750 2034 4750 
Q 2731 4750 3128 4425 
Q 3525 4100 3525 3541 
Q 3525 3141 3298 2862 
Q 3072 2584 2669 2484 
Q 3125 2378 3379 2068 
Q 3634 1759 3634 1313 
Q 3634 634 3220 271 
Q 2806 -91 2034 -91 
Q 1263 -91 848 271 
Q 434 634 434 1313 
Q 434 1759 690 2068 
Q 947 2378 1403 2484 
z
M 1172 3481 
Q 1172 3119 1398 2916 
Q 1625 2713 2034 2713 
Q 2441 2713 2670 2916 
Q 2900 3119 2900 3481 
Q 2900 3844 2670 4047 
Q 2441 4250 2034 4250 
Q 1625 4250 1398 4047 
Q 1172 3844 1172 3481 
z
" transform="scale(0.015625)"/>
        <path id="DejaVuSans-33" d="M 2597 2516 
Q 3050 2419 3304 2112 
Q 3559 1806 3559 1356 
Q 3559 666 3084 287 
Q 2609 -91 1734 -91 
Q 1441 -91 1130 -33 
Q 819 25 488 141 
L 488 750 
Q 750 597 1062 519 
Q 1375 441 1716 441 
Q 2309 441 2620 675 
Q 2931 909 2931 1356 
Q 2931 1769 2642 2001 
Q 2353 2234 1838 2234 
L 1294 2234 
L 1294 2753 
L 1863 2753 
Q 2328 2753 2575 2939 
Q 2822 3125 2822 3475 
Q 2822 3834 2567 4026 
Q 2313 4219 1838 4219 
Q 1578 4219 1281 4162 
Q 984 4106 628 3988 
L 628 4550 
Q 988 4650 1302 4700 
Q 1616 4750 1894 4750 
Q 2613 4750 3031 4423 
Q 3450 4097 3450 3541 
Q 3450 3153 3228 2886 
Q 3006 2619 2597 2516 
z
" transform="scale(0.015625)"/>
        <path id="DejaVuSans-34" d="M 2419 4116 
L 825 1625 
L 2419 1625 
L 2419 4116 
z
M 2253 4666 
L 3047 4666 
L 3047 1625 
L 3713 1625 
L 3713 1100 
L 3047 1100 
L 3047 0 
L 2419 0 
L 2419 1100 
L 313 1100 
L 313 1709 
L 2253 4666 
z
" transform="scale(0.015625)"/>
       </defs>
       <use xlink:href="#DejaVuSans-30"/>
       <use xlink:href="#DejaVuSans-2e" x="63.623047"/>
       <use xlink:href="#DejaVuSans-38" x="95.410156"/>
       <use xlink:href="#DejaVuSans-33" x="159.033203"/>
       <use xlink:href="#DejaVuSans-34" x="222.65625"/>
      </g>
     </g>
    </g>
    <g id="ytick_2">
     <g id="line2d_12">
      <path d="M 52.388688 74.623306 
L 208.109618 74.623306 
" clip-path="url(#pfb781da8b4)" style="fill: none; stroke: #ffffff"/>
     </g>
     <g id="line2d_13">
      <path d="M 52.388688 74.623306 
" style="fill: none; stroke: #333333; stroke-width: 1.5"/>
      <g>
       <use xlink:href="#me7feddee89" x="52.388688" y="74.623306" style="fill: #333333; stroke: #000000"/>
      </g>
     </g>
     <g id="text_2">
      <!-- 0.836 -->
      <g style="fill: #4d4d4d" transform="translate(22.245938 77.051556)scale(0.088 -0.088)">
       <defs>
        <path id="DejaVuSans-36" d="M 2113 2584 
Q 1688 2584 1439 2293 
Q 1191 2003 1191 1497 
Q 1191 994 1439 701 
Q 1688 409 2113 409 
Q 2538 409 2786 701 
Q 3034 994 3034 1497 
Q 3034 2003 2786 2293 
Q 2538 2584 2113 2584 
z
M 3366 4563 
L 3366 3988 
Q 3128 4100 2886 4159 
Q 2644 4219 2406 4219 
Q 1781 4219 1451 3797 
Q 1122 3375 1075 2522 
Q 1259 2794 1537 2939 
Q 1816 3084 2150 3084 
Q 2853 3084 3261 2657 
Q 3669 2231 3669 1497 
Q 3669 778 3244 343 
Q 2819 -91 2113 -91 
Q 1303 -91 875 529 
Q 447 1150 447 2328 
Q 447 3434 972 4092 
Q 1497 4750 2381 4750 
Q 2619 4750 2861 4703 
Q 3103 4656 3366 4563 
z
" transform="scale(0.015625)"/>
       </defs>
       <use xlink:href="#DejaVuSans-30"/>
       <use xlink:href="#DejaVuSans-2e" x="63.623047"/>
       <use xlink:href="#DejaVuSans-38" x="95.410156"/>
       <use xlink:href="#DejaVuSans-33" x="159.033203"/>
       <use xlink:href="#DejaVuSans-36" x="222.65625"/>
      </g>
     </g>
    </g>
    <g id="ytick_3">
     <g id="line2d_14">
      <path d="M 52.388688 51.237709 
L 208.109618 51.237709 
" clip-path="url(#pfb781da8b4)" style="fill: none; stroke: #ffffff"/>
     </g>
     <g id="line2d_15">
      <path d="M 52.388688 51.237709 
" style="fill: none; stroke: #333333; stroke-width: 1.5"/>
      <g>
       <use xlink:href="#me7feddee89" x="52.388688" y="51.237709" style="fill: #333333; stroke: #000000"/>
      </g>
     </g>
     <g id="text_3">
      <!-- 0.838 -->
      <g style="fill: #4d4d4d" transform="translate(22.245938 53.665959)scale(0.088 -0.088)">
       <use xlink:href="#DejaVuSans-30"/>
       <use xlink:href="#DejaVuSans-2e" x="63.623047"/>
       <use xlink:href="#DejaVuSans-38" x="95.410156"/>
       <use xlink:href="#DejaVuSans-33" x="159.033203"/>
       <use xlink:href="#DejaVuSans-38" x="222.65625"/>
      </g>
     </g>
    </g>
    <g id="ytick_4">
     <g id="line2d_16">
      <path d="M 52.388688 27.852113 
L 208.109618 27.852113 
" clip-path="url(#pfb781da8b4)" style="fill: none; stroke: #ffffff"/>
     </g>
     <g id="line2d_17">
      <path d="M 52.388688 27.852113 
" style="fill: none; stroke: #333333; stroke-width: 1.5"/>
      <g>
       <use xlink:href="#me7feddee89" x="52.388688" y="27.852113" style="fill: #333333; stroke: #000000"/>
      </g>
     </g>
     <g id="text_4">
      <!-- 0.840 -->
      <g style="fill: #4d4d4d" transform="translate(22.245938 30.280363)scale(0.088 -0.088)">
       <use xlink:href="#DejaVuSans-30"/>
       <use xlink:href="#DejaVuSans-2e" x="63.623047"/>
       <use xlink:href="#DejaVuSans-38" x="95.410156"/>
       <use xlink:href="#DejaVuSans-34" x="159.033203"/>
       <use xlink:href="#DejaVuSans-30" x="222.65625"/>
      </g>
     </g>
    </g>
    <g id="ytick_5">
     <g id="line2d_18">
      <path d="M 52.388688 109.701701 
L 208.109618 109.701701 
" clip-path="url(#pfb781da8b4)" style="fill: none; stroke: #ffffff; stroke-width: 0.5"/>
     </g>
    </g>
    <g id="ytick_6">
     <g id="line2d_19">
      <path d="M 52.388688 86.316104 
L 208.109618 86.316104 
" clip-path="url(#pfb781da8b4)" style="fill: none; stroke: #ffffff; stroke-width: 0.5"/>
     </g>
    </g>
    <g id="ytick_7">
     <g id="line2d_20">
      <path d="M 52.388688 62.930508 
L 208.109618 62.930508 
" clip-path="url(#pfb781da8b4)" style="fill: none; stroke: #ffffff; stroke-width: 0.5"/>
     </g>
    </g>
    <g id="ytick_8">
     <g id="line2d_21">
      <path d="M 52.388688 39.544911 
L 208.109618 39.544911 
" clip-path="url(#pfb781da8b4)" style="fill: none; stroke: #ffffff; stroke-width: 0.5"/>
     </g>
    </g>
    <g id="text_5">
     <!-- Value -->
     <g transform="translate(15.558281 146.075285)rotate(-90)scale(0.11 -0.11)">
      <defs>
       <path id="DejaVuSans-56" d="M 1831 0 
L 50 4666 
L 709 4666 
L 2188 738 
L 3669 4666 
L 4325 4666 
L 2547 0 
L 1831 0 
z
" transform="scale(0.015625)"/>
       <path id="DejaVuSans-61" d="M 2194 1759 
Q 1497 1759 1228 1600 
Q 959 1441 959 1056 
Q 959 750 1161 570 
Q 1363 391 1709 391 
Q 2188 391 2477 730 
Q 2766 1069 2766 1631 
L 2766 1759 
L 2194 1759 
z
M 3341 1997 
L 3341 0 
L 2766 0 
L 2766 531 
Q 2569 213 2275 61 
Q 1981 -91 1556 -91 
Q 1019 -91 701 211 
Q 384 513 384 1019 
Q 384 1609 779 1909 
Q 1175 2209 1959 2209 
L 2766 2209 
L 2766 2266 
Q 2766 2663 2505 2880 
Q 2244 3097 1772 3097 
Q 1472 3097 1187 3025 
Q 903 2953 641 2809 
L 641 3341 
Q 956 3463 1253 3523 
Q 1550 3584 1831 3584 
Q 2591 3584 2966 3190 
Q 3341 2797 3341 1997 
z
" transform="scale(0.015625)"/>
       <path id="DejaVuSans-6c" d="M 603 4863 
L 1178 4863 
L 1178 0 
L 603 0 
L 603 4863 
z
" transform="scale(0.015625)"/>
       <path id="DejaVuSans-75" d="M 544 1381 
L 544 3500 
L 1119 3500 
L 1119 1403 
Q 1119 906 1312 657 
Q 1506 409 1894 409 
Q 2359 409 2629 706 
Q 2900 1003 2900 1516 
L 2900 3500 
L 3475 3500 
L 3475 0 
L 2900 0 
L 2900 538 
Q 2691 219 2414 64 
Q 2138 -91 1772 -91 
Q 1169 -91 856 284 
Q 544 659 544 1381 
z
M 1991 3584 
L 1991 3584 
z
" transform="scale(0.015625)"/>
       <path id="DejaVuSans-65" d="M 3597 1894 
L 3597 1613 
L 953 1613 
Q 991 1019 1311 708 
Q 1631 397 2203 397 
Q 2534 397 2845 478 
Q 3156 559 3463 722 
L 3463 178 
Q 3153 47 2828 -22 
Q 2503 -91 2169 -91 
Q 1331 -91 842 396 
Q 353 884 353 1716 
Q 353 2575 817 3079 
Q 1281 3584 2069 3584 
Q 2775 3584 3186 3129 
Q 3597 2675 3597 1894 
z
M 3022 2063 
Q 3016 2534 2758 2815 
Q 2500 3097 2075 3097 
Q 1594 3097 1305 2825 
Q 1016 2553 972 2059 
L 3022 2063 
z
" transform="scale(0.015625)"/>
      </defs>
      <use xlink:href="#DejaVuSans-56"/>
      <use xlink:href="#DejaVuSans-61" x="60.658203"/>
      <use xlink:href="#DejaVuSans-6c" x="121.9375"/>
      <use xlink:href="#DejaVuSans-75" x="149.720703"/>
      <use xlink:href="#DejaVuSans-65" x="213.099609"/>
     </g>
    </g>
   </g>
   <g id="line2d_22">
    <path d="M 59.466912 90.4311 
L 77.162472 82.138996 
L 94.858032 69.685312 
L 112.553592 49.622768 
L 130.249153 57.449023 
L 147.944713 71.051801 
L 165.640273 66.238032 
L 183.335833 68.07037 
L 201.031394 60.678907 
" clip-path="url(#pfb781da8b4)" style="fill: none; stroke: #000000; stroke-width: 0.886227"/>
   </g>
   <g id="PathCollection_1">
    <path d="M 59.466912 92.203554 
C 59.936972 92.203554 60.387843 92.016797 60.720226 91.684414 
C 61.052609 91.352031 61.239365 90.90116 61.239365 90.4311 
C 61.239365 89.96104 61.052609 89.510169 60.720226 89.177786 
C 60.387843 88.845403 59.936972 88.658646 59.466912 88.658646 
C 58.996851 88.658646 58.54598 88.845403 58.213597 89.177786 
C 57.881215 89.510169 57.694458 89.96104 57.694458 90.4311 
C 57.694458 90.90116 57.881215 91.352031 58.213597 91.684414 
C 58.54598 92.016797 58.996851 92.203554 59.466912 92.203554 
z
" clip-path="url(#pfb781da8b4)" style="stroke: #000000; stroke-width: 0.886227"/>
    <path d="M 77.162472 83.91145 
C 77.632532 83.91145 78.083403 83.724693 78.415786 83.39231 
C 78.748169 83.059927 78.934926 82.609056 78.934926 82.138996 
C 78.934926 81.668936 78.748169 81.218065 78.415786 80.885682 
C 78.083403 80.553299 77.632532 80.366542 77.162472 80.366542 
C 76.692412 80.366542 76.241541 80.553299 75.909158 80.885682 
C 75.576775 81.218065 75.390018 81.668936 75.390018 82.138996 
C 75.390018 82.609056 75.576775 83.059927 75.909158 83.39231 
C 76.241541 83.724693 76.692412 83.91145 77.162472 83.91145 
z
" clip-path="url(#pfb781da8b4)" style="stroke: #000000; stroke-width: 0.886227"/>
    <path d="M 94.858032 71.457765 
C 95.328092 71.457765 95.778963 71.271009 96.111346 70.938626 
C 96.443729 70.606243 96.630486 70.155372 96.630486 69.685312 
C 96.630486 69.215251 96.443729 68.76438 96.111346 68.431997 
C 95.778963 68.099615 95.328092 67.912858 94.858032 67.912858 
C 94.387972 67.912858 93.937101 68.099615 93.604718 68.431997 
C 93.272335 68.76438 93.085578 69.215251 93.085578 69.685312 
C 93.085578 70.155372 93.272335 70.606243 93.604718 70.938626 
C 93.937101 71.271009 94.387972 71.457765 94.858032 71.457765 
z
" clip-path="url(#pfb781da8b4)" style="stroke: #000000; stroke-width: 0.886227"/>
    <path d="M 112.553592 51.395222 
C 113.023653 51.395222 113.474524 51.208465 113.806906 50.876082 
C 114.139289 50.543699 114.326046 50.092828 114.326046 49.622768 
C 114.326046 49.152708 114.139289 48.701837 113.806906 48.369454 
C 113.474524 48.037071 113.023653 47.850314 112.553592 47.850314 
C 112.083532 47.850314 111.632661 48.037071 111.300278 48.369454 
C 110.967895 48.701837 110.781139 49.152708 110.781139 49.622768 
C 110.781139 50.092828 110.967895 50.543699 111.300278 50.876082 
C 111.632661 51.208465 112.083532 51.395222 112.553592 51.395222 
z
" clip-path="url(#pfb781da8b4)" style="stroke: #000000; stroke-width: 0.886227"/>
    <path d="M 130.249153 59.221477 
C 130.719213 59.221477 131.170084 59.03472 131.502467 58.702337 
C 131.83485 58.369955 132.021606 57.919084 132.021606 57.449023 
C 132.021606 56.978963 131.83485 56.528092 131.502467 56.195709 
C 131.170084 55.863326 130.719213 55.676569 130.249153 55.676569 
C 129.779092 55.676569 129.328221 55.863326 128.995838 56.195709 
C 128.663456 56.528092 128.476699 56.978963 128.476699 57.449023 
C 128.476699 57.919084 128.663456 58.369955 128.995838 58.702337 
C 129.328221 59.03472 129.779092 59.221477 130.249153 59.221477 
z
" clip-path="url(#pfb781da8b4)" style="stroke: #000000; stroke-width: 0.886227"/>
    <path d="M 147.944713 72.824255 
C 148.414773 72.824255 148.865644 72.637498 149.198027 72.305115 
C 149.53041 71.972732 149.717167 71.521861 149.717167 71.051801 
C 149.717167 70.58174 149.53041 70.130869 149.198027 69.798487 
C 148.865644 69.466104 148.414773 69.279347 147.944713 69.279347 
C 147.474653 69.279347 147.023782 69.466104 146.691399 69.798487 
C 146.359016 70.130869 146.172259 70.58174 146.172259 71.051801 
C 146.172259 71.521861 146.359016 71.972732 146.691399 72.305115 
C 147.023782 72.637498 147.474653 72.824255 147.944713 72.824255 
z
" clip-path="url(#pfb781da8b4)" style="stroke: #000000; stroke-width: 0.886227"/>
    <path d="M 165.640273 68.010486 
C 166.110333 68.010486 166.561204 67.823729 166.893587 67.491347 
C 167.22597 67.158964 167.412727 66.708093 167.412727 66.238032 
C 167.412727 65.767972 167.22597 65.317101 166.893587 64.984718 
C 166.561204 64.652336 166.110333 64.465579 165.640273 64.465579 
C 165.170213 64.465579 164.719342 64.652336 164.386959 64.984718 
C 164.054576 65.317101 163.867819 65.767972 163.867819 66.238032 
C 163.867819 66.708093 164.054576 67.158964 164.386959 67.491347 
C 164.719342 67.823729 165.170213 68.010486 165.640273 68.010486 
z
" clip-path="url(#pfb781da8b4)" style="stroke: #000000; stroke-width: 0.886227"/>
    <path d="M 183.335833 69.842824 
C 183.805894 69.842824 184.256765 69.656067 184.589148 69.323684 
C 184.92153 68.991301 185.108287 68.54043 185.108287 68.07037 
C 185.108287 67.60031 184.92153 67.149439 184.589148 66.817056 
C 184.256765 66.484673 183.805894 66.297916 183.335833 66.297916 
C 182.865773 66.297916 182.414902 66.484673 182.082519 66.817056 
C 181.750136 67.149439 181.56338 67.60031 181.56338 68.07037 
C 181.56338 68.54043 181.750136 68.991301 182.082519 69.323684 
C 182.414902 69.656067 182.865773 69.842824 183.335833 69.842824 
z
" clip-path="url(#pfb781da8b4)" style="stroke: #000000; stroke-width: 0.886227"/>
    <path d="M 201.031394 62.45136 
C 201.501454 62.45136 201.952325 62.264603 202.284708 61.932221 
C 202.617091 61.599838 202.803847 61.148967 202.803847 60.678907 
C 202.803847 60.208846 202.617091 59.757975 202.284708 59.425592 
C 201.952325 59.09321 201.501454 58.906453 201.031394 58.906453 
C 200.561333 58.906453 200.110462 59.09321 199.778079 59.425592 
C 199.445697 59.757975 199.25894 60.208846 199.25894 60.678907 
C 199.25894 61.148967 199.445697 61.599838 199.778079 61.932221 
C 200.110462 62.264603 200.561333 62.45136 201.031394 62.45136 
z
" clip-path="url(#pfb781da8b4)" style="stroke: #000000; stroke-width: 0.886227"/>
   </g>
   <g id="patch_3">
    <path d="M 52.388688 21.53091 
L 208.109618 21.53091 
L 208.109618 7.2 
L 52.388688 7.2 
z
" style="fill: #d9d9d9"/>
   </g>
   <g id="PolyCollection_1">
    <path d="M 59.466912 64.783563 
L 59.466912 116.078637 
L 77.162472 107.838302 
L 94.858032 88.835055 
L 112.553592 73.212353 
L 130.249153 83.778071 
L 147.944713 94.154298 
L 165.640273 90.530226 
L 183.335833 95.547976 
L 201.031394 85.708189 
L 201.031394 35.649624 
L 201.031394 35.649624 
L 183.335833 40.592764 
L 165.640273 41.945839 
L 147.944713 47.949303 
L 130.249153 31.119975 
L 112.553592 26.033182 
L 94.858032 50.535568 
L 77.162472 56.43969 
L 59.466912 64.783563 
z
" clip-path="url(#pfb781da8b4)" style="fill: #333333; fill-opacity: 0.501961"/>
   </g>
   <g id="text_6">
    <!-- Accuracy -->
    <g style="fill: #1a1a1a" transform="translate(110.160403 16.793705)scale(0.088 -0.088)">
     <defs>
      <path id="DejaVuSans-41" d="M 2188 4044 
L 1331 1722 
L 3047 1722 
L 2188 4044 
z
M 1831 4666 
L 2547 4666 
L 4325 0 
L 3669 0 
L 3244 1197 
L 1141 1197 
L 716 0 
L 50 0 
L 1831 4666 
z
" transform="scale(0.015625)"/>
      <path id="DejaVuSans-63" d="M 3122 3366 
L 3122 2828 
Q 2878 2963 2633 3030 
Q 2388 3097 2138 3097 
Q 1578 3097 1268 2742 
Q 959 2388 959 1747 
Q 959 1106 1268 751 
Q 1578 397 2138 397 
Q 2388 397 2633 464 
Q 2878 531 3122 666 
L 3122 134 
Q 2881 22 2623 -34 
Q 2366 -91 2075 -91 
Q 1284 -91 818 406 
Q 353 903 353 1747 
Q 353 2603 823 3093 
Q 1294 3584 2113 3584 
Q 2378 3584 2631 3529 
Q 2884 3475 3122 3366 
z
" transform="scale(0.015625)"/>
      <path id="DejaVuSans-72" d="M 2631 2963 
Q 2534 3019 2420 3045 
Q 2306 3072 2169 3072 
Q 1681 3072 1420 2755 
Q 1159 2438 1159 1844 
L 1159 0 
L 581 0 
L 581 3500 
L 1159 3500 
L 1159 2956 
Q 1341 3275 1631 3429 
Q 1922 3584 2338 3584 
Q 2397 3584 2469 3576 
Q 2541 3569 2628 3553 
L 2631 2963 
z
" transform="scale(0.015625)"/>
      <path id="DejaVuSans-79" d="M 2059 -325 
Q 1816 -950 1584 -1140 
Q 1353 -1331 966 -1331 
L 506 -1331 
L 506 -850 
L 844 -850 
Q 1081 -850 1212 -737 
Q 1344 -625 1503 -206 
L 1606 56 
L 191 3500 
L 800 3500 
L 1894 763 
L 2988 3500 
L 3597 3500 
L 2059 -325 
z
" transform="scale(0.015625)"/>
     </defs>
     <use xlink:href="#DejaVuSans-41"/>
     <use xlink:href="#DejaVuSans-63" x="66.658203"/>
     <use xlink:href="#DejaVuSans-63" x="121.638672"/>
     <use xlink:href="#DejaVuSans-75" x="176.619141"/>
     <use xlink:href="#DejaVuSans-72" x="239.998047"/>
     <use xlink:href="#DejaVuSans-61" x="281.111328"/>
     <use xlink:href="#DejaVuSans-63" x="342.390625"/>
     <use xlink:href="#DejaVuSans-79" x="397.371094"/>
    </g>
   </g>
  </g>
  <g id="axes_2">
   <g id="patch_4">
    <path d="M 231.467757 120.58091 
L 387.188688 120.58091 
L 387.188688 21.53091 
L 231.467757 21.53091 
z
" style="fill: #ebebeb"/>
   </g>
   <g id="matplotlib.axis_3">
    <g id="xtick_10">
     <g id="line2d_23">
      <path d="M 238.545981 120.58091 
L 238.545981 21.53091 
" clip-path="url(#pf4a21144a6)" style="fill: none; stroke: #ffffff; stroke-linecap: square"/>
     </g>
    </g>
    <g id="xtick_11">
     <g id="line2d_24">
      <path d="M 273.937102 120.58091 
L 273.937102 21.53091 
" clip-path="url(#pf4a21144a6)" style="fill: none; stroke: #ffffff; stroke-linecap: square"/>
     </g>
    </g>
    <g id="xtick_12">
     <g id="line2d_25">
      <path d="M 309.328222 120.58091 
L 309.328222 21.53091 
" clip-path="url(#pf4a21144a6)" style="fill: none; stroke: #ffffff; stroke-linecap: square"/>
     </g>
    </g>
    <g id="xtick_13">
     <g id="line2d_26">
      <path d="M 344.719343 120.58091 
L 344.719343 21.53091 
" clip-path="url(#pf4a21144a6)" style="fill: none; stroke: #ffffff; stroke-linecap: square"/>
     </g>
    </g>
    <g id="xtick_14">
     <g id="line2d_27">
      <path d="M 380.110463 120.58091 
L 380.110463 21.53091 
" clip-path="url(#pf4a21144a6)" style="fill: none; stroke: #ffffff; stroke-linecap: square"/>
     </g>
    </g>
    <g id="xtick_15">
     <g id="line2d_28">
      <path d="M 256.241542 120.58091 
L 256.241542 21.53091 
" clip-path="url(#pf4a21144a6)" style="fill: none; stroke: #ffffff; stroke-width: 0.5; stroke-linecap: square"/>
     </g>
    </g>
    <g id="xtick_16">
     <g id="line2d_29">
      <path d="M 291.632662 120.58091 
L 291.632662 21.53091 
" clip-path="url(#pf4a21144a6)" style="fill: none; stroke: #ffffff; stroke-width: 0.5; stroke-linecap: square"/>
     </g>
    </g>
    <g id="xtick_17">
     <g id="line2d_30">
      <path d="M 327.023783 120.58091 
L 327.023783 21.53091 
" clip-path="url(#pf4a21144a6)" style="fill: none; stroke: #ffffff; stroke-width: 0.5; stroke-linecap: square"/>
     </g>
    </g>
    <g id="xtick_18">
     <g id="line2d_31">
      <path d="M 362.414903 120.58091 
L 362.414903 21.53091 
" clip-path="url(#pf4a21144a6)" style="fill: none; stroke: #ffffff; stroke-width: 0.5; stroke-linecap: square"/>
     </g>
    </g>
   </g>
   <g id="matplotlib.axis_4">
    <g id="ytick_9">
     <g id="line2d_32">
      <path d="M 231.467757 98.696876 
L 387.188688 98.696876 
" clip-path="url(#pf4a21144a6)" style="fill: none; stroke: #ffffff; stroke-linecap: square"/>
     </g>
     <g id="line2d_33">
      <path d="M 231.467757 98.696876 
" style="fill: none; stroke: #333333; stroke-width: 1.5; stroke-linecap: square"/>
      <g>
       <use xlink:href="#me7feddee89" x="231.467757" y="98.696876" style="fill: #333333; stroke: #000000"/>
      </g>
     </g>
     <g id="text_7">
      <!-- 0.888 -->
      <g style="fill: #4d4d4d" transform="translate(201.325007 101.125126)scale(0.088 -0.088)">
       <use xlink:href="#DejaVuSans-30"/>
       <use xlink:href="#DejaVuSans-2e" x="63.623047"/>
       <use xlink:href="#DejaVuSans-38" x="95.410156"/>
       <use xlink:href="#DejaVuSans-38" x="159.033203"/>
       <use xlink:href="#DejaVuSans-38" x="222.65625"/>
      </g>
     </g>
    </g>
    <g id="ytick_10">
     <g id="line2d_34">
      <path d="M 231.467757 75.516505 
L 387.188688 75.516505 
" clip-path="url(#pf4a21144a6)" style="fill: none; stroke: #ffffff; stroke-linecap: square"/>
     </g>
     <g id="line2d_35">
      <path d="M 231.467757 75.516505 
" style="fill: none; stroke: #333333; stroke-width: 1.5; stroke-linecap: square"/>
      <g>
       <use xlink:href="#me7feddee89" x="231.467757" y="75.516505" style="fill: #333333; stroke: #000000"/>
      </g>
     </g>
     <g id="text_8">
      <!-- 0.890 -->
      <g style="fill: #4d4d4d" transform="translate(201.325007 77.944755)scale(0.088 -0.088)">
       <defs>
        <path id="DejaVuSans-39" d="M 703 97 
L 703 672 
Q 941 559 1184 500 
Q 1428 441 1663 441 
Q 2288 441 2617 861 
Q 2947 1281 2994 2138 
Q 2813 1869 2534 1725 
Q 2256 1581 1919 1581 
Q 1219 1581 811 2004 
Q 403 2428 403 3163 
Q 403 3881 828 4315 
Q 1253 4750 1959 4750 
Q 2769 4750 3195 4129 
Q 3622 3509 3622 2328 
Q 3622 1225 3098 567 
Q 2575 -91 1691 -91 
Q 1453 -91 1209 -44 
Q 966 3 703 97 
z
M 1959 2075 
Q 2384 2075 2632 2365 
Q 2881 2656 2881 3163 
Q 2881 3666 2632 3958 
Q 2384 4250 1959 4250 
Q 1534 4250 1286 3958 
Q 1038 3666 1038 3163 
Q 1038 2656 1286 2365 
Q 1534 2075 1959 2075 
z
" transform="scale(0.015625)"/>
       </defs>
       <use xlink:href="#DejaVuSans-30"/>
       <use xlink:href="#DejaVuSans-2e" x="63.623047"/>
       <use xlink:href="#DejaVuSans-38" x="95.410156"/>
       <use xlink:href="#DejaVuSans-39" x="159.033203"/>
       <use xlink:href="#DejaVuSans-30" x="222.65625"/>
      </g>
     </g>
    </g>
    <g id="ytick_11">
     <g id="line2d_36">
      <path d="M 231.467757 52.336135 
L 387.188688 52.336135 
" clip-path="url(#pf4a21144a6)" style="fill: none; stroke: #ffffff; stroke-linecap: square"/>
     </g>
     <g id="line2d_37">
      <path d="M 231.467757 52.336135 
" style="fill: none; stroke: #333333; stroke-width: 1.5; stroke-linecap: square"/>
      <g>
       <use xlink:href="#me7feddee89" x="231.467757" y="52.336135" style="fill: #333333; stroke: #000000"/>
      </g>
     </g>
     <g id="text_9">
      <!-- 0.892 -->
      <g style="fill: #4d4d4d" transform="translate(201.325007 54.764385)scale(0.088 -0.088)">
       <defs>
        <path id="DejaVuSans-32" d="M 1228 531 
L 3431 531 
L 3431 0 
L 469 0 
L 469 531 
Q 828 903 1448 1529 
Q 2069 2156 2228 2338 
Q 2531 2678 2651 2914 
Q 2772 3150 2772 3378 
Q 2772 3750 2511 3984 
Q 2250 4219 1831 4219 
Q 1534 4219 1204 4116 
Q 875 4013 500 3803 
L 500 4441 
Q 881 4594 1212 4672 
Q 1544 4750 1819 4750 
Q 2544 4750 2975 4387 
Q 3406 4025 3406 3419 
Q 3406 3131 3298 2873 
Q 3191 2616 2906 2266 
Q 2828 2175 2409 1742 
Q 1991 1309 1228 531 
z
" transform="scale(0.015625)"/>
       </defs>
       <use xlink:href="#DejaVuSans-30"/>
       <use xlink:href="#DejaVuSans-2e" x="63.623047"/>
       <use xlink:href="#DejaVuSans-38" x="95.410156"/>
       <use xlink:href="#DejaVuSans-39" x="159.033203"/>
       <use xlink:href="#DejaVuSans-32" x="222.65625"/>
      </g>
     </g>
    </g>
    <g id="ytick_12">
     <g id="line2d_38">
      <path d="M 231.467757 29.155764 
L 387.188688 29.155764 
" clip-path="url(#pf4a21144a6)" style="fill: none; stroke: #ffffff; stroke-linecap: square"/>
     </g>
     <g id="line2d_39">
      <path d="M 231.467757 29.155764 
" style="fill: none; stroke: #333333; stroke-width: 1.5; stroke-linecap: square"/>
      <g>
       <use xlink:href="#me7feddee89" x="231.467757" y="29.155764" style="fill: #333333; stroke: #000000"/>
      </g>
     </g>
     <g id="text_10">
      <!-- 0.894 -->
      <g style="fill: #4d4d4d" transform="translate(201.325007 31.584014)scale(0.088 -0.088)">
       <use xlink:href="#DejaVuSans-30"/>
       <use xlink:href="#DejaVuSans-2e" x="63.623047"/>
       <use xlink:href="#DejaVuSans-38" x="95.410156"/>
       <use xlink:href="#DejaVuSans-39" x="159.033203"/>
       <use xlink:href="#DejaVuSans-34" x="222.65625"/>
      </g>
     </g>
    </g>
    <g id="ytick_13">
     <g id="line2d_40">
      <path d="M 231.467757 110.287062 
L 387.188688 110.287062 
" clip-path="url(#pf4a21144a6)" style="fill: none; stroke: #ffffff; stroke-width: 0.5; stroke-linecap: square"/>
     </g>
    </g>
    <g id="ytick_14">
     <g id="line2d_41">
      <path d="M 231.467757 87.106691 
L 387.188688 87.106691 
" clip-path="url(#pf4a21144a6)" style="fill: none; stroke: #ffffff; stroke-width: 0.5; stroke-linecap: square"/>
     </g>
    </g>
    <g id="ytick_15">
     <g id="line2d_42">
      <path d="M 231.467757 63.92632 
L 387.188688 63.92632 
" clip-path="url(#pf4a21144a6)" style="fill: none; stroke: #ffffff; stroke-width: 0.5; stroke-linecap: square"/>
     </g>
    </g>
    <g id="ytick_16">
     <g id="line2d_43">
      <path d="M 231.467757 40.745949 
L 387.188688 40.745949 
" clip-path="url(#pf4a21144a6)" style="fill: none; stroke: #ffffff; stroke-width: 0.5; stroke-linecap: square"/>
     </g>
    </g>
   </g>
   <g id="line2d_44">
    <path d="M 238.545981 93.021772 
L 256.241542 75.511239 
L 273.937102 53.617199 
L 291.632662 44.31993 
L 309.328222 48.767746 
L 327.023783 55.225453 
L 344.719343 52.99973 
L 362.414903 57.632159 
L 380.110463 55.287016 
" clip-path="url(#pf4a21144a6)" style="fill: none; stroke: #000000; stroke-width: 0.886227"/>
   </g>
   <g id="PathCollection_2">
    <path d="M 238.545981 94.794226 
C 239.016042 94.794226 239.466913 94.607469 239.799296 94.275086 
C 240.131678 93.942703 240.318435 93.491832 240.318435 93.021772 
C 240.318435 92.551712 240.131678 92.100841 239.799296 91.768458 
C 239.466913 91.436075 239.016042 91.249318 238.545981 91.249318 
C 238.075921 91.249318 237.62505 91.436075 237.292667 91.768458 
C 236.960284 92.100841 236.773528 92.551712 236.773528 93.021772 
C 236.773528 93.491832 236.960284 93.942703 237.292667 94.275086 
C 237.62505 94.607469 238.075921 94.794226 238.545981 94.794226 
z
" clip-path="url(#pf4a21144a6)" style="stroke: #000000; stroke-width: 0.886227"/>
    <path d="M 256.241542 77.283693 
C 256.711602 77.283693 257.162473 77.096936 257.494856 76.764553 
C 257.827239 76.43217 258.013995 75.981299 258.013995 75.511239 
C 258.013995 75.041178 257.827239 74.590307 257.494856 74.257925 
C 257.162473 73.925542 256.711602 73.738785 256.241542 73.738785 
C 255.771481 73.738785 255.32061 73.925542 254.988227 74.257925 
C 254.655845 74.590307 254.469088 75.041178 254.469088 75.511239 
C 254.469088 75.981299 254.655845 76.43217 254.988227 76.764553 
C 255.32061 77.096936 255.771481 77.283693 256.241542 77.283693 
z
" clip-path="url(#pf4a21144a6)" style="stroke: #000000; stroke-width: 0.886227"/>
    <path d="M 273.937102 55.389653 
C 274.407162 55.389653 274.858033 55.202896 275.190416 54.870513 
C 275.522799 54.53813 275.709556 54.087259 275.709556 53.617199 
C 275.709556 53.147139 275.522799 52.696267 275.190416 52.363885 
C 274.858033 52.031502 274.407162 51.844745 273.937102 51.844745 
C 273.467042 51.844745 273.016171 52.031502 272.683788 52.363885 
C 272.351405 52.696267 272.164648 53.147139 272.164648 53.617199 
C 272.164648 54.087259 272.351405 54.53813 272.683788 54.870513 
C 273.016171 55.202896 273.467042 55.389653 273.937102 55.389653 
z
" clip-path="url(#pf4a21144a6)" style="stroke: #000000; stroke-width: 0.886227"/>
    <path d="M 291.632662 46.092384 
C 292.102722 46.092384 292.553593 45.905627 292.885976 45.573244 
C 293.218359 45.240861 293.405116 44.78999 293.405116 44.31993 
C 293.405116 43.84987 293.218359 43.398999 292.885976 43.066616 
C 292.553593 42.734233 292.102722 42.547476 291.632662 42.547476 
C 291.162602 42.547476 290.711731 42.734233 290.379348 43.066616 
C 290.046965 43.398999 289.860208 43.84987 289.860208 44.31993 
C 289.860208 44.78999 290.046965 45.240861 290.379348 45.573244 
C 290.711731 45.905627 291.162602 46.092384 291.632662 46.092384 
z
" clip-path="url(#pf4a21144a6)" style="stroke: #000000; stroke-width: 0.886227"/>
    <path d="M 309.328222 50.5402 
C 309.798283 50.5402 310.249154 50.353443 310.581537 50.02106 
C 310.913919 49.688678 311.100676 49.237807 311.100676 48.767746 
C 311.100676 48.297686 310.913919 47.846815 310.581537 47.514432 
C 310.249154 47.182049 309.798283 46.995292 309.328222 46.995292 
C 308.858162 46.995292 308.407291 47.182049 308.074908 47.514432 
C 307.742525 47.846815 307.555769 48.297686 307.555769 48.767746 
C 307.555769 49.237807 307.742525 49.688678 308.074908 50.02106 
C 308.407291 50.353443 308.858162 50.5402 309.328222 50.5402 
z
" clip-path="url(#pf4a21144a6)" style="stroke: #000000; stroke-width: 0.886227"/>
    <path d="M 327.023783 56.997907 
C 327.493843 56.997907 327.944714 56.81115 328.277097 56.478767 
C 328.60948 56.146384 328.796236 55.695513 328.796236 55.225453 
C 328.796236 54.755393 328.60948 54.304521 328.277097 53.972139 
C 327.944714 53.639756 327.493843 53.452999 327.023783 53.452999 
C 326.553722 53.452999 326.102851 53.639756 325.770469 53.972139 
C 325.438086 54.304521 325.251329 54.755393 325.251329 55.225453 
C 325.251329 55.695513 325.438086 56.146384 325.770469 56.478767 
C 326.102851 56.81115 326.553722 56.997907 327.023783 56.997907 
z
" clip-path="url(#pf4a21144a6)" style="stroke: #000000; stroke-width: 0.886227"/>
    <path d="M 344.719343 54.772184 
C 345.189403 54.772184 345.640274 54.585427 345.972657 54.253044 
C 346.30504 53.920662 346.491797 53.46979 346.491797 52.99973 
C 346.491797 52.52967 346.30504 52.078799 345.972657 51.746416 
C 345.640274 51.414033 345.189403 51.227276 344.719343 51.227276 
C 344.249283 51.227276 343.798412 51.414033 343.466029 51.746416 
C 343.133646 52.078799 342.946889 52.52967 342.946889 52.99973 
C 342.946889 53.46979 343.133646 53.920662 343.466029 54.253044 
C 343.798412 54.585427 344.249283 54.772184 344.719343 54.772184 
z
" clip-path="url(#pf4a21144a6)" style="stroke: #000000; stroke-width: 0.886227"/>
    <path d="M 362.414903 59.404613 
C 362.884963 59.404613 363.335834 59.217856 363.668217 58.885473 
C 364.0006 58.55309 364.187357 58.102219 364.187357 57.632159 
C 364.187357 57.162099 364.0006 56.711228 363.668217 56.378845 
C 363.335834 56.046462 362.884963 55.859705 362.414903 55.859705 
C 361.944843 55.859705 361.493972 56.046462 361.161589 56.378845 
C 360.829206 56.711228 360.642449 57.162099 360.642449 57.632159 
C 360.642449 58.102219 360.829206 58.55309 361.161589 58.885473 
C 361.493972 59.217856 361.944843 59.404613 362.414903 59.404613 
z
" clip-path="url(#pf4a21144a6)" style="stroke: #000000; stroke-width: 0.886227"/>
    <path d="M 380.110463 57.05947 
C 380.580524 57.05947 381.031395 56.872713 381.363778 56.54033 
C 381.69616 56.207947 381.882917 55.757076 381.882917 55.287016 
C 381.882917 54.816956 381.69616 54.366085 381.363778 54.033702 
C 381.031395 53.701319 380.580524 53.514562 380.110463 53.514562 
C 379.640403 53.514562 379.189532 53.701319 378.857149 54.033702 
C 378.524766 54.366085 378.33801 54.816956 378.33801 55.287016 
C 378.33801 55.757076 378.524766 56.207947 378.857149 56.54033 
C 379.189532 56.872713 379.640403 57.05947 380.110463 57.05947 
z
" clip-path="url(#pf4a21144a6)" style="stroke: #000000; stroke-width: 0.886227"/>
   </g>
   <g id="patch_5">
    <path d="M 231.467757 21.53091 
L 387.188688 21.53091 
L 387.188688 7.2 
L 231.467757 7.2 
z
" style="fill: #d9d9d9"/>
   </g>
   <g id="PolyCollection_2">
    <path d="M 238.545981 69.964907 
L 238.545981 116.078637 
L 256.241542 101.415069 
L 273.937102 70.562426 
L 291.632662 62.606678 
L 309.328222 63.864048 
L 327.023783 75.113626 
L 344.719343 67.450748 
L 362.414903 76.987451 
L 380.110463 73.359382 
L 380.110463 37.21465 
L 380.110463 37.21465 
L 362.414903 38.276867 
L 344.719343 38.548712 
L 327.023783 35.33728 
L 309.328222 33.671444 
L 291.632662 26.033182 
L 273.937102 36.671972 
L 256.241542 49.607409 
L 238.545981 69.964907 
z
" clip-path="url(#pf4a21144a6)" style="fill: #333333; fill-opacity: 0.501961"/>
   </g>
   <g id="text_11">
    <!-- AUC -->
    <g style="fill: #1a1a1a" transform="translate(300.02566 16.793705)scale(0.088 -0.088)">
     <defs>
      <path id="DejaVuSans-55" d="M 556 4666 
L 1191 4666 
L 1191 1831 
Q 1191 1081 1462 751 
Q 1734 422 2344 422 
Q 2950 422 3222 751 
Q 3494 1081 3494 1831 
L 3494 4666 
L 4128 4666 
L 4128 1753 
Q 4128 841 3676 375 
Q 3225 -91 2344 -91 
Q 1459 -91 1007 375 
Q 556 841 556 1753 
L 556 4666 
z
" transform="scale(0.015625)"/>
      <path id="DejaVuSans-43" d="M 4122 4306 
L 4122 3641 
Q 3803 3938 3442 4084 
Q 3081 4231 2675 4231 
Q 1875 4231 1450 3742 
Q 1025 3253 1025 2328 
Q 1025 1406 1450 917 
Q 1875 428 2675 428 
Q 3081 428 3442 575 
Q 3803 722 4122 1019 
L 4122 359 
Q 3791 134 3420 21 
Q 3050 -91 2638 -91 
Q 1578 -91 968 557 
Q 359 1206 359 2328 
Q 359 3453 968 4101 
Q 1578 4750 2638 4750 
Q 3056 4750 3426 4639 
Q 3797 4528 4122 4306 
z
" transform="scale(0.015625)"/>
     </defs>
     <use xlink:href="#DejaVuSans-41"/>
     <use xlink:href="#DejaVuSans-55" x="68.408203"/>
     <use xlink:href="#DejaVuSans-43" x="141.601562"/>
    </g>
   </g>
  </g>
  <g id="axes_3">
   <g id="patch_6">
    <path d="M 52.388688 238.97091 
L 208.109618 238.97091 
L 208.109618 139.92091 
L 52.388688 139.92091 
z
" style="fill: #ebebeb"/>
   </g>
   <g id="matplotlib.axis_5">
    <g id="xtick_19">
     <g id="line2d_45">
      <path d="M 59.466912 238.97091 
L 59.466912 139.92091 
" clip-path="url(#p956858c048)" style="fill: none; stroke: #ffffff; stroke-linecap: square"/>
     </g>
     <g id="line2d_46">
      <path d="M 59.466912 238.97091 
" style="fill: none; stroke: #333333; stroke-width: 1.5; stroke-linecap: square"/>
      <defs>
       <path id="ma1ac143859" d="M 0 0 
L 0 2.75 
" style="stroke: #000000"/>
      </defs>
      <g>
       <use xlink:href="#ma1ac143859" x="59.466912" y="238.97091" style="fill: #333333; stroke: #000000"/>
      </g>
     </g>
     <g id="text_12">
      <!-- 0 -->
      <g style="fill: #4d4d4d" transform="translate(56.667412 250.607535)scale(0.088 -0.088)">
       <use xlink:href="#DejaVuSans-30"/>
      </g>
     </g>
    </g>
    <g id="xtick_20">
     <g id="line2d_47">
      <path d="M 94.858032 238.97091 
L 94.858032 139.92091 
" clip-path="url(#p956858c048)" style="fill: none; stroke: #ffffff; stroke-linecap: square"/>
     </g>
     <g id="line2d_48">
      <path d="M 94.858032 238.97091 
" style="fill: none; stroke: #333333; stroke-width: 1.5; stroke-linecap: square"/>
      <g>
       <use xlink:href="#ma1ac143859" x="94.858032" y="238.97091" style="fill: #333333; stroke: #000000"/>
      </g>
     </g>
     <g id="text_13">
      <!-- 0.1 -->
      <g style="fill: #4d4d4d" transform="translate(87.860657 250.607535)scale(0.088 -0.088)">
       <defs>
        <path id="DejaVuSans-31" d="M 794 531 
L 1825 531 
L 1825 4091 
L 703 3866 
L 703 4441 
L 1819 4666 
L 2450 4666 
L 2450 531 
L 3481 531 
L 3481 0 
L 794 0 
L 794 531 
z
" transform="scale(0.015625)"/>
       </defs>
       <use xlink:href="#DejaVuSans-30"/>
       <use xlink:href="#DejaVuSans-2e" x="63.623047"/>
       <use xlink:href="#DejaVuSans-31" x="95.410156"/>
      </g>
     </g>
    </g>
    <g id="xtick_21">
     <g id="line2d_49">
      <path d="M 130.249153 238.97091 
L 130.249153 139.92091 
" clip-path="url(#p956858c048)" style="fill: none; stroke: #ffffff; stroke-linecap: square"/>
     </g>
     <g id="line2d_50">
      <path d="M 130.249153 238.97091 
" style="fill: none; stroke: #333333; stroke-width: 1.5; stroke-linecap: square"/>
      <g>
       <use xlink:href="#ma1ac143859" x="130.249153" y="238.97091" style="fill: #333333; stroke: #000000"/>
      </g>
     </g>
     <g id="text_14">
      <!-- 0.2 -->
      <g style="fill: #4d4d4d" transform="translate(123.251778 250.607535)scale(0.088 -0.088)">
       <use xlink:href="#DejaVuSans-30"/>
       <use xlink:href="#DejaVuSans-2e" x="63.623047"/>
       <use xlink:href="#DejaVuSans-32" x="95.410156"/>
      </g>
     </g>
    </g>
    <g id="xtick_22">
     <g id="line2d_51">
      <path d="M 165.640273 238.97091 
L 165.640273 139.92091 
" clip-path="url(#p956858c048)" style="fill: none; stroke: #ffffff; stroke-linecap: square"/>
     </g>
     <g id="line2d_52">
      <path d="M 165.640273 238.97091 
" style="fill: none; stroke: #333333; stroke-width: 1.5; stroke-linecap: square"/>
      <g>
       <use xlink:href="#ma1ac143859" x="165.640273" y="238.97091" style="fill: #333333; stroke: #000000"/>
      </g>
     </g>
     <g id="text_15">
      <!-- 0.3 -->
      <g style="fill: #4d4d4d" transform="translate(158.642898 250.607535)scale(0.088 -0.088)">
       <use xlink:href="#DejaVuSans-30"/>
       <use xlink:href="#DejaVuSans-2e" x="63.623047"/>
       <use xlink:href="#DejaVuSans-33" x="95.410156"/>
      </g>
     </g>
    </g>
    <g id="xtick_23">
     <g id="line2d_53">
      <path d="M 201.031394 238.97091 
L 201.031394 139.92091 
" clip-path="url(#p956858c048)" style="fill: none; stroke: #ffffff; stroke-linecap: square"/>
     </g>
     <g id="line2d_54">
      <path d="M 201.031394 238.97091 
" style="fill: none; stroke: #333333; stroke-width: 1.5; stroke-linecap: square"/>
      <g>
       <use xlink:href="#ma1ac143859" x="201.031394" y="238.97091" style="fill: #333333; stroke: #000000"/>
      </g>
     </g>
     <g id="text_16">
      <!-- 0.4 -->
      <g style="fill: #4d4d4d" transform="translate(194.034019 250.607535)scale(0.088 -0.088)">
       <use xlink:href="#DejaVuSans-30"/>
       <use xlink:href="#DejaVuSans-2e" x="63.623047"/>
       <use xlink:href="#DejaVuSans-34" x="95.410156"/>
      </g>
     </g>
    </g>
    <g id="xtick_24">
     <g id="line2d_55">
      <path d="M 77.162472 238.97091 
L 77.162472 139.92091 
" clip-path="url(#p956858c048)" style="fill: none; stroke: #ffffff; stroke-width: 0.5; stroke-linecap: square"/>
     </g>
    </g>
    <g id="xtick_25">
     <g id="line2d_56">
      <path d="M 112.553592 238.97091 
L 112.553592 139.92091 
" clip-path="url(#p956858c048)" style="fill: none; stroke: #ffffff; stroke-width: 0.5; stroke-linecap: square"/>
     </g>
    </g>
    <g id="xtick_26">
     <g id="line2d_57">
      <path d="M 147.944713 238.97091 
L 147.944713 139.92091 
" clip-path="url(#p956858c048)" style="fill: none; stroke: #ffffff; stroke-width: 0.5; stroke-linecap: square"/>
     </g>
    </g>
    <g id="xtick_27">
     <g id="line2d_58">
      <path d="M 183.335833 238.97091 
L 183.335833 139.92091 
" clip-path="url(#p956858c048)" style="fill: none; stroke: #ffffff; stroke-width: 0.5; stroke-linecap: square"/>
     </g>
    </g>
   </g>
   <g id="matplotlib.axis_6">
    <g id="ytick_17">
     <g id="line2d_59">
      <path d="M 52.388688 236.596399 
L 208.109618 236.596399 
" clip-path="url(#p956858c048)" style="fill: none; stroke: #ffffff; stroke-linecap: square"/>
     </g>
     <g id="line2d_60">
      <path d="M 52.388688 236.596399 
" style="fill: none; stroke: #333333; stroke-width: 1.5; stroke-linecap: square"/>
      <g>
       <use xlink:href="#me7feddee89" x="52.388688" y="236.596399" style="fill: #333333; stroke: #000000"/>
      </g>
     </g>
     <g id="text_17">
      <!-- 0.890 -->
      <g style="fill: #4d4d4d" transform="translate(22.245938 239.024649)scale(0.088 -0.088)">
       <use xlink:href="#DejaVuSans-30"/>
       <use xlink:href="#DejaVuSans-2e" x="63.623047"/>
       <use xlink:href="#DejaVuSans-38" x="95.410156"/>
       <use xlink:href="#DejaVuSans-39" x="159.033203"/>
       <use xlink:href="#DejaVuSans-30" x="222.65625"/>
      </g>
     </g>
    </g>
    <g id="ytick_18">
     <g id="line2d_61">
      <path d="M 52.388688 202.484137 
L 208.109618 202.484137 
" clip-path="url(#p956858c048)" style="fill: none; stroke: #ffffff; stroke-linecap: square"/>
     </g>
     <g id="line2d_62">
      <path d="M 52.388688 202.484137 
" style="fill: none; stroke: #333333; stroke-width: 1.5; stroke-linecap: square"/>
      <g>
       <use xlink:href="#me7feddee89" x="52.388688" y="202.484137" style="fill: #333333; stroke: #000000"/>
      </g>
     </g>
     <g id="text_18">
      <!-- 0.892 -->
      <g style="fill: #4d4d4d" transform="translate(22.245938 204.912387)scale(0.088 -0.088)">
       <use xlink:href="#DejaVuSans-30"/>
       <use xlink:href="#DejaVuSans-2e" x="63.623047"/>
       <use xlink:href="#DejaVuSans-38" x="95.410156"/>
       <use xlink:href="#DejaVuSans-39" x="159.033203"/>
       <use xlink:href="#DejaVuSans-32" x="222.65625"/>
      </g>
     </g>
    </g>
    <g id="ytick_19">
     <g id="line2d_63">
      <path d="M 52.388688 168.371875 
L 208.109618 168.371875 
" clip-path="url(#p956858c048)" style="fill: none; stroke: #ffffff; stroke-linecap: square"/>
     </g>
     <g id="line2d_64">
      <path d="M 52.388688 168.371875 
" style="fill: none; stroke: #333333; stroke-width: 1.5; stroke-linecap: square"/>
      <g>
       <use xlink:href="#me7feddee89" x="52.388688" y="168.371875" style="fill: #333333; stroke: #000000"/>
      </g>
     </g>
     <g id="text_19">
      <!-- 0.894 -->
      <g style="fill: #4d4d4d" transform="translate(22.245938 170.800125)scale(0.088 -0.088)">
       <use xlink:href="#DejaVuSans-30"/>
       <use xlink:href="#DejaVuSans-2e" x="63.623047"/>
       <use xlink:href="#DejaVuSans-38" x="95.410156"/>
       <use xlink:href="#DejaVuSans-39" x="159.033203"/>
       <use xlink:href="#DejaVuSans-34" x="222.65625"/>
      </g>
     </g>
    </g>
    <g id="ytick_20">
     <g id="line2d_65">
      <path d="M 52.388688 219.540268 
L 208.109618 219.540268 
" clip-path="url(#p956858c048)" style="fill: none; stroke: #ffffff; stroke-width: 0.5; stroke-linecap: square"/>
     </g>
    </g>
    <g id="ytick_21">
     <g id="line2d_66">
      <path d="M 52.388688 185.428006 
L 208.109618 185.428006 
" clip-path="url(#p956858c048)" style="fill: none; stroke: #ffffff; stroke-width: 0.5; stroke-linecap: square"/>
     </g>
    </g>
    <g id="ytick_22">
     <g id="line2d_67">
      <path d="M 52.388688 151.315744 
L 208.109618 151.315744 
" clip-path="url(#p956858c048)" style="fill: none; stroke: #ffffff; stroke-width: 0.5; stroke-linecap: square"/>
     </g>
    </g>
   </g>
   <g id="line2d_68">
    <path d="M 59.466912 205.104037 
L 77.162472 202.897962 
L 94.858032 194.356789 
L 112.553592 172.34065 
L 130.249153 179.163408 
L 147.944713 193.525245 
L 165.640273 191.33282 
L 183.335833 190.884115 
L 201.031394 182.297908 
" clip-path="url(#p956858c048)" style="fill: none; stroke: #000000; stroke-width: 0.886227"/>
   </g>
   <g id="PathCollection_3">
    <path d="M 59.466912 206.876491 
C 59.936972 206.876491 60.387843 206.689734 60.720226 206.357351 
C 61.052609 206.024968 61.239365 205.574097 61.239365 205.104037 
C 61.239365 204.633977 61.052609 204.183106 60.720226 203.850723 
C 60.387843 203.51834 59.936972 203.331583 59.466912 203.331583 
C 58.996851 203.331583 58.54598 203.51834 58.213597 203.850723 
C 57.881215 204.183106 57.694458 204.633977 57.694458 205.104037 
C 57.694458 205.574097 57.881215 206.024968 58.213597 206.357351 
C 58.54598 206.689734 58.996851 206.876491 59.466912 206.876491 
z
" clip-path="url(#p956858c048)" style="stroke: #000000; stroke-width: 0.886227"/>
    <path d="M 77.162472 204.670416 
C 77.632532 204.670416 78.083403 204.483659 78.415786 204.151276 
C 78.748169 203.818893 78.934926 203.368022 78.934926 202.897962 
C 78.934926 202.427902 78.748169 201.977031 78.415786 201.644648 
C 78.083403 201.312265 77.632532 201.125508 77.162472 201.125508 
C 76.692412 201.125508 76.241541 201.312265 75.909158 201.644648 
C 75.576775 201.977031 75.390018 202.427902 75.390018 202.897962 
C 75.390018 203.368022 75.576775 203.818893 75.909158 204.151276 
C 76.241541 204.483659 76.692412 204.670416 77.162472 204.670416 
z
" clip-path="url(#p956858c048)" style="stroke: #000000; stroke-width: 0.886227"/>
    <path d="M 94.858032 196.129243 
C 95.328092 196.129243 95.778963 195.942486 96.111346 195.610103 
C 96.443729 195.27772 96.630486 194.826849 96.630486 194.356789 
C 96.630486 193.886729 96.443729 193.435858 96.111346 193.103475 
C 95.778963 192.771092 95.328092 192.584335 94.858032 192.584335 
C 94.387972 192.584335 93.937101 192.771092 93.604718 193.103475 
C 93.272335 193.435858 93.085578 193.886729 93.085578 194.356789 
C 93.085578 194.826849 93.272335 195.27772 93.604718 195.610103 
C 93.937101 195.942486 94.387972 196.129243 94.858032 196.129243 
z
" clip-path="url(#p956858c048)" style="stroke: #000000; stroke-width: 0.886227"/>
    <path d="M 112.553592 174.113104 
C 113.023653 174.113104 113.474524 173.926347 113.806906 173.593964 
C 114.139289 173.261581 114.326046 172.81071 114.326046 172.34065 
C 114.326046 171.87059 114.139289 171.419718 113.806906 171.087336 
C 113.474524 170.754953 113.023653 170.568196 112.553592 170.568196 
C 112.083532 170.568196 111.632661 170.754953 111.300278 171.087336 
C 110.967895 171.419718 110.781139 171.87059 110.781139 172.34065 
C 110.781139 172.81071 110.967895 173.261581 111.300278 173.593964 
C 111.632661 173.926347 112.083532 174.113104 112.553592 174.113104 
z
" clip-path="url(#p956858c048)" style="stroke: #000000; stroke-width: 0.886227"/>
    <path d="M 130.249153 180.935862 
C 130.719213 180.935862 131.170084 180.749105 131.502467 180.416722 
C 131.83485 180.084339 132.021606 179.633468 132.021606 179.163408 
C 132.021606 178.693348 131.83485 178.242476 131.502467 177.910094 
C 131.170084 177.577711 130.719213 177.390954 130.249153 177.390954 
C 129.779092 177.390954 129.328221 177.577711 128.995838 177.910094 
C 128.663456 178.242476 128.476699 178.693348 128.476699 179.163408 
C 128.476699 179.633468 128.663456 180.084339 128.995838 180.416722 
C 129.328221 180.749105 129.779092 180.935862 130.249153 180.935862 
z
" clip-path="url(#p956858c048)" style="stroke: #000000; stroke-width: 0.886227"/>
    <path d="M 147.944713 195.297699 
C 148.414773 195.297699 148.865644 195.110942 149.198027 194.77856 
C 149.53041 194.446177 149.717167 193.995306 149.717167 193.525245 
C 149.717167 193.055185 149.53041 192.604314 149.198027 192.271931 
C 148.865644 191.939549 148.414773 191.752792 147.944713 191.752792 
C 147.474653 191.752792 147.023782 191.939549 146.691399 192.271931 
C 146.359016 192.604314 146.172259 193.055185 146.172259 193.525245 
C 146.172259 193.995306 146.359016 194.446177 146.691399 194.77856 
C 147.023782 195.110942 147.474653 195.297699 147.944713 195.297699 
z
" clip-path="url(#p956858c048)" style="stroke: #000000; stroke-width: 0.886227"/>
    <path d="M 165.640273 193.105274 
C 166.110333 193.105274 166.561204 192.918517 166.893587 192.586134 
C 167.22597 192.253752 167.412727 191.802881 167.412727 191.33282 
C 167.412727 190.86276 167.22597 190.411889 166.893587 190.079506 
C 166.561204 189.747123 166.110333 189.560366 165.640273 189.560366 
C 165.170213 189.560366 164.719342 189.747123 164.386959 190.079506 
C 164.054576 190.411889 163.867819 190.86276 163.867819 191.33282 
C 163.867819 191.802881 164.054576 192.253752 164.386959 192.586134 
C 164.719342 192.918517 165.170213 193.105274 165.640273 193.105274 
z
" clip-path="url(#p956858c048)" style="stroke: #000000; stroke-width: 0.886227"/>
    <path d="M 183.335833 192.656568 
C 183.805894 192.656568 184.256765 192.469811 184.589148 192.137429 
C 184.92153 191.805046 185.108287 191.354175 185.108287 190.884115 
C 185.108287 190.414054 184.92153 189.963183 184.589148 189.6308 
C 184.256765 189.298418 183.805894 189.111661 183.335833 189.111661 
C 182.865773 189.111661 182.414902 189.298418 182.082519 189.6308 
C 181.750136 189.963183 181.56338 190.414054 181.56338 190.884115 
C 181.56338 191.354175 181.750136 191.805046 182.082519 192.137429 
C 182.414902 192.469811 182.865773 192.656568 183.335833 192.656568 
z
" clip-path="url(#p956858c048)" style="stroke: #000000; stroke-width: 0.886227"/>
    <path d="M 201.031394 184.070362 
C 201.501454 184.070362 201.952325 183.883605 202.284708 183.551222 
C 202.617091 183.218839 202.803847 182.767968 202.803847 182.297908 
C 202.803847 181.827848 202.617091 181.376977 202.284708 181.044594 
C 201.952325 180.712211 201.501454 180.525454 201.031394 180.525454 
C 200.561333 180.525454 200.110462 180.712211 199.778079 181.044594 
C 199.445697 181.376977 199.25894 181.827848 199.25894 182.297908 
C 199.25894 182.767968 199.445697 183.218839 199.778079 183.551222 
C 200.110462 183.883605 200.561333 184.070362 201.031394 184.070362 
z
" clip-path="url(#p956858c048)" style="stroke: #000000; stroke-width: 0.886227"/>
   </g>
   <g id="patch_7">
    <path d="M 52.388688 139.92091 
L 208.109618 139.92091 
L 208.109618 125.59 
L 52.388688 125.59 
z
" style="fill: #d9d9d9"/>
   </g>
   <g id="PolyCollection_3">
    <path d="M 59.466912 175.739437 
L 59.466912 234.468637 
L 77.162472 232.756969 
L 94.858032 219.11111 
L 112.553592 200.258117 
L 130.249153 208.370236 
L 147.944713 224.973286 
L 165.640273 222.624997 
L 183.335833 224.432929 
L 201.031394 213.063661 
L 201.031394 151.532155 
L 201.031394 151.532155 
L 183.335833 157.3353 
L 165.640273 160.040643 
L 147.944713 162.077205 
L 130.249153 149.956579 
L 112.553592 144.423182 
L 94.858032 169.602468 
L 77.162472 173.038955 
L 59.466912 175.739437 
z
" clip-path="url(#p956858c048)" style="fill: #333333; fill-opacity: 0.501961"/>
   </g>
   <g id="text_20">
    <!-- F1 score: &lt;=50K -->
    <g style="fill: #1a1a1a" transform="translate(92.960528 135.183705)scale(0.088 -0.088)">
     <defs>
      <path id="DejaVuSans-46" d="M 628 4666 
L 3309 4666 
L 3309 4134 
L 1259 4134 
L 1259 2759 
L 3109 2759 
L 3109 2228 
L 1259 2228 
L 1259 0 
L 628 0 
L 628 4666 
z
" transform="scale(0.015625)"/>
      <path id="DejaVuSans-20" transform="scale(0.015625)"/>
      <path id="DejaVuSans-73" d="M 2834 3397 
L 2834 2853 
Q 2591 2978 2328 3040 
Q 2066 3103 1784 3103 
Q 1356 3103 1142 2972 
Q 928 2841 928 2578 
Q 928 2378 1081 2264 
Q 1234 2150 1697 2047 
L 1894 2003 
Q 2506 1872 2764 1633 
Q 3022 1394 3022 966 
Q 3022 478 2636 193 
Q 2250 -91 1575 -91 
Q 1294 -91 989 -36 
Q 684 19 347 128 
L 347 722 
Q 666 556 975 473 
Q 1284 391 1588 391 
Q 1994 391 2212 530 
Q 2431 669 2431 922 
Q 2431 1156 2273 1281 
Q 2116 1406 1581 1522 
L 1381 1569 
Q 847 1681 609 1914 
Q 372 2147 372 2553 
Q 372 3047 722 3315 
Q 1072 3584 1716 3584 
Q 2034 3584 2315 3537 
Q 2597 3491 2834 3397 
z
" transform="scale(0.015625)"/>
      <path id="DejaVuSans-6f" d="M 1959 3097 
Q 1497 3097 1228 2736 
Q 959 2375 959 1747 
Q 959 1119 1226 758 
Q 1494 397 1959 397 
Q 2419 397 2687 759 
Q 2956 1122 2956 1747 
Q 2956 2369 2687 2733 
Q 2419 3097 1959 3097 
z
M 1959 3584 
Q 2709 3584 3137 3096 
Q 3566 2609 3566 1747 
Q 3566 888 3137 398 
Q 2709 -91 1959 -91 
Q 1206 -91 779 398 
Q 353 888 353 1747 
Q 353 2609 779 3096 
Q 1206 3584 1959 3584 
z
" transform="scale(0.015625)"/>
      <path id="DejaVuSans-3a" d="M 750 794 
L 1409 794 
L 1409 0 
L 750 0 
L 750 794 
z
M 750 3309 
L 1409 3309 
L 1409 2516 
L 750 2516 
L 750 3309 
z
" transform="scale(0.015625)"/>
      <path id="DejaVuSans-3c" d="M 4684 3150 
L 1459 2003 
L 4684 863 
L 4684 294 
L 678 1747 
L 678 2266 
L 4684 3719 
L 4684 3150 
z
" transform="scale(0.015625)"/>
      <path id="DejaVuSans-3d" d="M 678 2906 
L 4684 2906 
L 4684 2381 
L 678 2381 
L 678 2906 
z
M 678 1631 
L 4684 1631 
L 4684 1100 
L 678 1100 
L 678 1631 
z
" transform="scale(0.015625)"/>
      <path id="DejaVuSans-35" d="M 691 4666 
L 3169 4666 
L 3169 4134 
L 1269 4134 
L 1269 2991 
Q 1406 3038 1543 3061 
Q 1681 3084 1819 3084 
Q 2600 3084 3056 2656 
Q 3513 2228 3513 1497 
Q 3513 744 3044 326 
Q 2575 -91 1722 -91 
Q 1428 -91 1123 -41 
Q 819 9 494 109 
L 494 744 
Q 775 591 1075 516 
Q 1375 441 1709 441 
Q 2250 441 2565 725 
Q 2881 1009 2881 1497 
Q 2881 1984 2565 2268 
Q 2250 2553 1709 2553 
Q 1456 2553 1204 2497 
Q 953 2441 691 2322 
L 691 4666 
z
" transform="scale(0.015625)"/>
      <path id="DejaVuSans-4b" d="M 628 4666 
L 1259 4666 
L 1259 2694 
L 3353 4666 
L 4166 4666 
L 1850 2491 
L 4331 0 
L 3500 0 
L 1259 2247 
L 1259 0 
L 628 0 
L 628 4666 
z
" transform="scale(0.015625)"/>
     </defs>
     <use xlink:href="#DejaVuSans-46"/>
     <use xlink:href="#DejaVuSans-31" x="57.519531"/>
     <use xlink:href="#DejaVuSans-20" x="121.142578"/>
     <use xlink:href="#DejaVuSans-73" x="152.929688"/>
     <use xlink:href="#DejaVuSans-63" x="205.029297"/>
     <use xlink:href="#DejaVuSans-6f" x="260.009766"/>
     <use xlink:href="#DejaVuSans-72" x="321.191406"/>
     <use xlink:href="#DejaVuSans-65" x="360.054688"/>
     <use xlink:href="#DejaVuSans-3a" x="421.578125"/>
     <use xlink:href="#DejaVuSans-20" x="455.269531"/>
     <use xlink:href="#DejaVuSans-3c" x="487.056641"/>
     <use xlink:href="#DejaVuSans-3d" x="570.845703"/>
     <use xlink:href="#DejaVuSans-35" x="654.634766"/>
     <use xlink:href="#DejaVuSans-30" x="718.257812"/>
     <use xlink:href="#DejaVuSans-4b" x="781.880859"/>
    </g>
   </g>
  </g>
  <g id="axes_4">
   <g id="patch_8">
    <path d="M 231.467757 238.97091 
L 387.188688 238.97091 
L 387.188688 139.92091 
L 231.467757 139.92091 
z
" style="fill: #ebebeb"/>
   </g>
   <g id="matplotlib.axis_7">
    <g id="xtick_28">
     <g id="line2d_69">
      <path d="M 238.545981 238.97091 
L 238.545981 139.92091 
" clip-path="url(#pb2efc86034)" style="fill: none; stroke: #ffffff; stroke-linecap: square"/>
     </g>
     <g id="line2d_70">
      <path d="M 238.545981 238.97091 
" style="fill: none; stroke: #333333; stroke-width: 1.5; stroke-linecap: square"/>
      <g>
       <use xlink:href="#ma1ac143859" x="238.545981" y="238.97091" style="fill: #333333; stroke: #000000"/>
      </g>
     </g>
     <g id="text_21">
      <!-- 0 -->
      <g style="fill: #4d4d4d" transform="translate(235.746481 250.607535)scale(0.088 -0.088)">
       <use xlink:href="#DejaVuSans-30"/>
      </g>
     </g>
    </g>
    <g id="xtick_29">
     <g id="line2d_71">
      <path d="M 273.937102 238.97091 
L 273.937102 139.92091 
" clip-path="url(#pb2efc86034)" style="fill: none; stroke: #ffffff; stroke-linecap: square"/>
     </g>
     <g id="line2d_72">
      <path d="M 273.937102 238.97091 
" style="fill: none; stroke: #333333; stroke-width: 1.5; stroke-linecap: square"/>
      <g>
       <use xlink:href="#ma1ac143859" x="273.937102" y="238.97091" style="fill: #333333; stroke: #000000"/>
      </g>
     </g>
     <g id="text_22">
      <!-- 0.1 -->
      <g style="fill: #4d4d4d" transform="translate(266.939727 250.607535)scale(0.088 -0.088)">
       <use xlink:href="#DejaVuSans-30"/>
       <use xlink:href="#DejaVuSans-2e" x="63.623047"/>
       <use xlink:href="#DejaVuSans-31" x="95.410156"/>
      </g>
     </g>
    </g>
    <g id="xtick_30">
     <g id="line2d_73">
      <path d="M 309.328222 238.97091 
L 309.328222 139.92091 
" clip-path="url(#pb2efc86034)" style="fill: none; stroke: #ffffff; stroke-linecap: square"/>
     </g>
     <g id="line2d_74">
      <path d="M 309.328222 238.97091 
" style="fill: none; stroke: #333333; stroke-width: 1.5; stroke-linecap: square"/>
      <g>
       <use xlink:href="#ma1ac143859" x="309.328222" y="238.97091" style="fill: #333333; stroke: #000000"/>
      </g>
     </g>
     <g id="text_23">
      <!-- 0.2 -->
      <g style="fill: #4d4d4d" transform="translate(302.330847 250.607535)scale(0.088 -0.088)">
       <use xlink:href="#DejaVuSans-30"/>
       <use xlink:href="#DejaVuSans-2e" x="63.623047"/>
       <use xlink:href="#DejaVuSans-32" x="95.410156"/>
      </g>
     </g>
    </g>
    <g id="xtick_31">
     <g id="line2d_75">
      <path d="M 344.719343 238.97091 
L 344.719343 139.92091 
" clip-path="url(#pb2efc86034)" style="fill: none; stroke: #ffffff; stroke-linecap: square"/>
     </g>
     <g id="line2d_76">
      <path d="M 344.719343 238.97091 
" style="fill: none; stroke: #333333; stroke-width: 1.5; stroke-linecap: square"/>
      <g>
       <use xlink:href="#ma1ac143859" x="344.719343" y="238.97091" style="fill: #333333; stroke: #000000"/>
      </g>
     </g>
     <g id="text_24">
      <!-- 0.3 -->
      <g style="fill: #4d4d4d" transform="translate(337.721968 250.607535)scale(0.088 -0.088)">
       <use xlink:href="#DejaVuSans-30"/>
       <use xlink:href="#DejaVuSans-2e" x="63.623047"/>
       <use xlink:href="#DejaVuSans-33" x="95.410156"/>
      </g>
     </g>
    </g>
    <g id="xtick_32">
     <g id="line2d_77">
      <path d="M 380.110463 238.97091 
L 380.110463 139.92091 
" clip-path="url(#pb2efc86034)" style="fill: none; stroke: #ffffff; stroke-linecap: square"/>
     </g>
     <g id="line2d_78">
      <path d="M 380.110463 238.97091 
" style="fill: none; stroke: #333333; stroke-width: 1.5; stroke-linecap: square"/>
      <g>
       <use xlink:href="#ma1ac143859" x="380.110463" y="238.97091" style="fill: #333333; stroke: #000000"/>
      </g>
     </g>
     <g id="text_25">
      <!-- 0.4 -->
      <g style="fill: #4d4d4d" transform="translate(373.113088 250.607535)scale(0.088 -0.088)">
       <use xlink:href="#DejaVuSans-30"/>
       <use xlink:href="#DejaVuSans-2e" x="63.623047"/>
       <use xlink:href="#DejaVuSans-34" x="95.410156"/>
      </g>
     </g>
    </g>
    <g id="xtick_33">
     <g id="line2d_79">
      <path d="M 256.241542 238.97091 
L 256.241542 139.92091 
" clip-path="url(#pb2efc86034)" style="fill: none; stroke: #ffffff; stroke-width: 0.5; stroke-linecap: square"/>
     </g>
    </g>
    <g id="xtick_34">
     <g id="line2d_80">
      <path d="M 291.632662 238.97091 
L 291.632662 139.92091 
" clip-path="url(#pb2efc86034)" style="fill: none; stroke: #ffffff; stroke-width: 0.5; stroke-linecap: square"/>
     </g>
    </g>
    <g id="xtick_35">
     <g id="line2d_81">
      <path d="M 327.023783 238.97091 
L 327.023783 139.92091 
" clip-path="url(#pb2efc86034)" style="fill: none; stroke: #ffffff; stroke-width: 0.5; stroke-linecap: square"/>
     </g>
    </g>
    <g id="xtick_36">
     <g id="line2d_82">
      <path d="M 362.414903 238.97091 
L 362.414903 139.92091 
" clip-path="url(#pb2efc86034)" style="fill: none; stroke: #ffffff; stroke-width: 0.5; stroke-linecap: square"/>
     </g>
    </g>
    <g id="text_26">
     <!-- Qtr spread -->
     <g transform="translate(185.153609 265.195941)scale(0.11 -0.11)">
      <defs>
       <path id="DejaVuSans-51" d="M 2522 4238 
Q 1834 4238 1429 3725 
Q 1025 3213 1025 2328 
Q 1025 1447 1429 934 
Q 1834 422 2522 422 
Q 3209 422 3611 934 
Q 4013 1447 4013 2328 
Q 4013 3213 3611 3725 
Q 3209 4238 2522 4238 
z
M 3406 84 
L 4238 -825 
L 3475 -825 
L 2784 -78 
Q 2681 -84 2626 -87 
Q 2572 -91 2522 -91 
Q 1538 -91 948 567 
Q 359 1225 359 2328 
Q 359 3434 948 4092 
Q 1538 4750 2522 4750 
Q 3503 4750 4090 4092 
Q 4678 3434 4678 2328 
Q 4678 1516 4351 937 
Q 4025 359 3406 84 
z
" transform="scale(0.015625)"/>
       <path id="DejaVuSans-74" d="M 1172 4494 
L 1172 3500 
L 2356 3500 
L 2356 3053 
L 1172 3053 
L 1172 1153 
Q 1172 725 1289 603 
Q 1406 481 1766 481 
L 2356 481 
L 2356 0 
L 1766 0 
Q 1100 0 847 248 
Q 594 497 594 1153 
L 594 3053 
L 172 3053 
L 172 3500 
L 594 3500 
L 594 4494 
L 1172 4494 
z
" transform="scale(0.015625)"/>
       <path id="DejaVuSans-70" d="M 1159 525 
L 1159 -1331 
L 581 -1331 
L 581 3500 
L 1159 3500 
L 1159 2969 
Q 1341 3281 1617 3432 
Q 1894 3584 2278 3584 
Q 2916 3584 3314 3078 
Q 3713 2572 3713 1747 
Q 3713 922 3314 415 
Q 2916 -91 2278 -91 
Q 1894 -91 1617 61 
Q 1341 213 1159 525 
z
M 3116 1747 
Q 3116 2381 2855 2742 
Q 2594 3103 2138 3103 
Q 1681 3103 1420 2742 
Q 1159 2381 1159 1747 
Q 1159 1113 1420 752 
Q 1681 391 2138 391 
Q 2594 391 2855 752 
Q 3116 1113 3116 1747 
z
" transform="scale(0.015625)"/>
       <path id="DejaVuSans-64" d="M 2906 2969 
L 2906 4863 
L 3481 4863 
L 3481 0 
L 2906 0 
L 2906 525 
Q 2725 213 2448 61 
Q 2172 -91 1784 -91 
Q 1150 -91 751 415 
Q 353 922 353 1747 
Q 353 2572 751 3078 
Q 1150 3584 1784 3584 
Q 2172 3584 2448 3432 
Q 2725 3281 2906 2969 
z
M 947 1747 
Q 947 1113 1208 752 
Q 1469 391 1925 391 
Q 2381 391 2643 752 
Q 2906 1113 2906 1747 
Q 2906 2381 2643 2742 
Q 2381 3103 1925 3103 
Q 1469 3103 1208 2742 
Q 947 2381 947 1747 
z
" transform="scale(0.015625)"/>
      </defs>
      <use xlink:href="#DejaVuSans-51"/>
      <use xlink:href="#DejaVuSans-74" x="78.710938"/>
      <use xlink:href="#DejaVuSans-72" x="117.919922"/>
      <use xlink:href="#DejaVuSans-20" x="159.033203"/>
      <use xlink:href="#DejaVuSans-73" x="190.820312"/>
      <use xlink:href="#DejaVuSans-70" x="242.919922"/>
      <use xlink:href="#DejaVuSans-72" x="306.396484"/>
      <use xlink:href="#DejaVuSans-65" x="345.259766"/>
      <use xlink:href="#DejaVuSans-61" x="406.783203"/>
      <use xlink:href="#DejaVuSans-64" x="468.0625"/>
     </g>
    </g>
   </g>
   <g id="matplotlib.axis_8">
    <g id="ytick_23">
     <g id="line2d_83">
      <path d="M 231.467757 228.477149 
L 387.188688 228.477149 
" clip-path="url(#pb2efc86034)" style="fill: none; stroke: #ffffff; stroke-linecap: square"/>
     </g>
     <g id="line2d_84">
      <path d="M 231.467757 228.477149 
" style="fill: none; stroke: #333333; stroke-width: 1.5; stroke-linecap: square"/>
      <g>
       <use xlink:href="#me7feddee89" x="231.467757" y="228.477149" style="fill: #333333; stroke: #000000"/>
      </g>
     </g>
     <g id="text_27">
      <!-- 0.645 -->
      <g style="fill: #4d4d4d" transform="translate(201.325007 230.905399)scale(0.088 -0.088)">
       <use xlink:href="#DejaVuSans-30"/>
       <use xlink:href="#DejaVuSans-2e" x="63.623047"/>
       <use xlink:href="#DejaVuSans-36" x="95.410156"/>
       <use xlink:href="#DejaVuSans-34" x="159.033203"/>
       <use xlink:href="#DejaVuSans-35" x="222.65625"/>
      </g>
     </g>
    </g>
    <g id="ytick_24">
     <g id="line2d_85">
      <path d="M 231.467757 207.034536 
L 387.188688 207.034536 
" clip-path="url(#pb2efc86034)" style="fill: none; stroke: #ffffff; stroke-linecap: square"/>
     </g>
     <g id="line2d_86">
      <path d="M 231.467757 207.034536 
" style="fill: none; stroke: #333333; stroke-width: 1.5; stroke-linecap: square"/>
      <g>
       <use xlink:href="#me7feddee89" x="231.467757" y="207.034536" style="fill: #333333; stroke: #000000"/>
      </g>
     </g>
     <g id="text_28">
      <!-- 0.650 -->
      <g style="fill: #4d4d4d" transform="translate(201.325007 209.462786)scale(0.088 -0.088)">
       <use xlink:href="#DejaVuSans-30"/>
       <use xlink:href="#DejaVuSans-2e" x="63.623047"/>
       <use xlink:href="#DejaVuSans-36" x="95.410156"/>
       <use xlink:href="#DejaVuSans-35" x="159.033203"/>
       <use xlink:href="#DejaVuSans-30" x="222.65625"/>
      </g>
     </g>
    </g>
    <g id="ytick_25">
     <g id="line2d_87">
      <path d="M 231.467757 185.591922 
L 387.188688 185.591922 
" clip-path="url(#pb2efc86034)" style="fill: none; stroke: #ffffff; stroke-linecap: square"/>
     </g>
     <g id="line2d_88">
      <path d="M 231.467757 185.591922 
" style="fill: none; stroke: #333333; stroke-width: 1.5; stroke-linecap: square"/>
      <g>
       <use xlink:href="#me7feddee89" x="231.467757" y="185.591922" style="fill: #333333; stroke: #000000"/>
      </g>
     </g>
     <g id="text_29">
      <!-- 0.655 -->
      <g style="fill: #4d4d4d" transform="translate(201.325007 188.020172)scale(0.088 -0.088)">
       <use xlink:href="#DejaVuSans-30"/>
       <use xlink:href="#DejaVuSans-2e" x="63.623047"/>
       <use xlink:href="#DejaVuSans-36" x="95.410156"/>
       <use xlink:href="#DejaVuSans-35" x="159.033203"/>
       <use xlink:href="#DejaVuSans-35" x="222.65625"/>
      </g>
     </g>
    </g>
    <g id="ytick_26">
     <g id="line2d_89">
      <path d="M 231.467757 164.149309 
L 387.188688 164.149309 
" clip-path="url(#pb2efc86034)" style="fill: none; stroke: #ffffff; stroke-linecap: square"/>
     </g>
     <g id="line2d_90">
      <path d="M 231.467757 164.149309 
" style="fill: none; stroke: #333333; stroke-width: 1.5; stroke-linecap: square"/>
      <g>
       <use xlink:href="#me7feddee89" x="231.467757" y="164.149309" style="fill: #333333; stroke: #000000"/>
      </g>
     </g>
     <g id="text_30">
      <!-- 0.660 -->
      <g style="fill: #4d4d4d" transform="translate(201.325007 166.577559)scale(0.088 -0.088)">
       <use xlink:href="#DejaVuSans-30"/>
       <use xlink:href="#DejaVuSans-2e" x="63.623047"/>
       <use xlink:href="#DejaVuSans-36" x="95.410156"/>
       <use xlink:href="#DejaVuSans-36" x="159.033203"/>
       <use xlink:href="#DejaVuSans-30" x="222.65625"/>
      </g>
     </g>
    </g>
    <g id="ytick_27">
     <g id="line2d_91">
      <path d="M 231.467757 142.706695 
L 387.188688 142.706695 
" clip-path="url(#pb2efc86034)" style="fill: none; stroke: #ffffff; stroke-linecap: square"/>
     </g>
     <g id="line2d_92">
      <path d="M 231.467757 142.706695 
" style="fill: none; stroke: #333333; stroke-width: 1.5; stroke-linecap: square"/>
      <g>
       <use xlink:href="#me7feddee89" x="231.467757" y="142.706695" style="fill: #333333; stroke: #000000"/>
      </g>
     </g>
     <g id="text_31">
      <!-- 0.665 -->
      <g style="fill: #4d4d4d" transform="translate(201.325007 145.134945)scale(0.088 -0.088)">
       <use xlink:href="#DejaVuSans-30"/>
       <use xlink:href="#DejaVuSans-2e" x="63.623047"/>
       <use xlink:href="#DejaVuSans-36" x="95.410156"/>
       <use xlink:href="#DejaVuSans-36" x="159.033203"/>
       <use xlink:href="#DejaVuSans-35" x="222.65625"/>
      </g>
     </g>
    </g>
    <g id="ytick_28">
     <g id="line2d_93">
      <path d="M 231.467757 217.755842 
L 387.188688 217.755842 
" clip-path="url(#pb2efc86034)" style="fill: none; stroke: #ffffff; stroke-width: 0.5; stroke-linecap: square"/>
     </g>
    </g>
    <g id="ytick_29">
     <g id="line2d_94">
      <path d="M 231.467757 196.313229 
L 387.188688 196.313229 
" clip-path="url(#pb2efc86034)" style="fill: none; stroke: #ffffff; stroke-width: 0.5; stroke-linecap: square"/>
     </g>
    </g>
    <g id="ytick_30">
     <g id="line2d_95">
      <path d="M 231.467757 174.870615 
L 387.188688 174.870615 
" clip-path="url(#pb2efc86034)" style="fill: none; stroke: #ffffff; stroke-width: 0.5; stroke-linecap: square"/>
     </g>
    </g>
    <g id="ytick_31">
     <g id="line2d_96">
      <path d="M 231.467757 153.428002 
L 387.188688 153.428002 
" clip-path="url(#pb2efc86034)" style="fill: none; stroke: #ffffff; stroke-width: 0.5; stroke-linecap: square"/>
     </g>
    </g>
   </g>
   <g id="line2d_97">
    <path d="M 238.545981 211.620143 
L 256.241542 190.609847 
L 273.937102 172.004347 
L 291.632662 163.692309 
L 309.328222 171.519238 
L 327.023783 178.879934 
L 344.719343 168.729311 
L 362.414903 175.829152 
L 380.110463 173.954119 
" clip-path="url(#pb2efc86034)" style="fill: none; stroke: #000000; stroke-width: 0.886227"/>
   </g>
   <g id="PathCollection_4">
    <path d="M 238.545981 213.392597 
C 239.016042 213.392597 239.466913 213.20584 239.799296 212.873457 
C 240.131678 212.541074 240.318435 212.090203 240.318435 211.620143 
C 240.318435 211.150083 240.131678 210.699211 239.799296 210.366829 
C 239.466913 210.034446 239.016042 209.847689 238.545981 209.847689 
C 238.075921 209.847689 237.62505 210.034446 237.292667 210.366829 
C 236.960284 210.699211 236.773528 211.150083 236.773528 211.620143 
C 236.773528 212.090203 236.960284 212.541074 237.292667 212.873457 
C 237.62505 213.20584 238.075921 213.392597 238.545981 213.392597 
z
" clip-path="url(#pb2efc86034)" style="stroke: #000000; stroke-width: 0.886227"/>
    <path d="M 256.241542 192.3823 
C 256.711602 192.3823 257.162473 192.195544 257.494856 191.863161 
C 257.827239 191.530778 258.013995 191.079907 258.013995 190.609847 
C 258.013995 190.139786 257.827239 189.688915 257.494856 189.356532 
C 257.162473 189.02415 256.711602 188.837393 256.241542 188.837393 
C 255.771481 188.837393 255.32061 189.02415 254.988227 189.356532 
C 254.655845 189.688915 254.469088 190.139786 254.469088 190.609847 
C 254.469088 191.079907 254.655845 191.530778 254.988227 191.863161 
C 255.32061 192.195544 255.771481 192.3823 256.241542 192.3823 
z
" clip-path="url(#pb2efc86034)" style="stroke: #000000; stroke-width: 0.886227"/>
    <path d="M 273.937102 173.776801 
C 274.407162 173.776801 274.858033 173.590044 275.190416 173.257661 
C 275.522799 172.925279 275.709556 172.474408 275.709556 172.004347 
C 275.709556 171.534287 275.522799 171.083416 275.190416 170.751033 
C 274.858033 170.41865 274.407162 170.231893 273.937102 170.231893 
C 273.467042 170.231893 273.016171 170.41865 272.683788 170.751033 
C 272.351405 171.083416 272.164648 171.534287 272.164648 172.004347 
C 272.164648 172.474408 272.351405 172.925279 272.683788 173.257661 
C 273.016171 173.590044 273.467042 173.776801 273.937102 173.776801 
z
" clip-path="url(#pb2efc86034)" style="stroke: #000000; stroke-width: 0.886227"/>
    <path d="M 291.632662 165.464763 
C 292.102722 165.464763 292.553593 165.278006 292.885976 164.945623 
C 293.218359 164.61324 293.405116 164.162369 293.405116 163.692309 
C 293.405116 163.222249 293.218359 162.771378 292.885976 162.438995 
C 292.553593 162.106612 292.102722 161.919855 291.632662 161.919855 
C 291.162602 161.919855 290.711731 162.106612 290.379348 162.438995 
C 290.046965 162.771378 289.860208 163.222249 289.860208 163.692309 
C 289.860208 164.162369 290.046965 164.61324 290.379348 164.945623 
C 290.711731 165.278006 291.162602 165.464763 291.632662 165.464763 
z
" clip-path="url(#pb2efc86034)" style="stroke: #000000; stroke-width: 0.886227"/>
    <path d="M 309.328222 173.291692 
C 309.798283 173.291692 310.249154 173.104935 310.581537 172.772552 
C 310.913919 172.44017 311.100676 171.989299 311.100676 171.519238 
C 311.100676 171.049178 310.913919 170.598307 310.581537 170.265924 
C 310.249154 169.933541 309.798283 169.746784 309.328222 169.746784 
C 308.858162 169.746784 308.407291 169.933541 308.074908 170.265924 
C 307.742525 170.598307 307.555769 171.049178 307.555769 171.519238 
C 307.555769 171.989299 307.742525 172.44017 308.074908 172.772552 
C 308.407291 173.104935 308.858162 173.291692 309.328222 173.291692 
z
" clip-path="url(#pb2efc86034)" style="stroke: #000000; stroke-width: 0.886227"/>
    <path d="M 327.023783 180.652387 
C 327.493843 180.652387 327.944714 180.465631 328.277097 180.133248 
C 328.60948 179.800865 328.796236 179.349994 328.796236 178.879934 
C 328.796236 178.409873 328.60948 177.959002 328.277097 177.626619 
C 327.944714 177.294237 327.493843 177.10748 327.023783 177.10748 
C 326.553722 177.10748 326.102851 177.294237 325.770469 177.626619 
C 325.438086 177.959002 325.251329 178.409873 325.251329 178.879934 
C 325.251329 179.349994 325.438086 179.800865 325.770469 180.133248 
C 326.102851 180.465631 326.553722 180.652387 327.023783 180.652387 
z
" clip-path="url(#pb2efc86034)" style="stroke: #000000; stroke-width: 0.886227"/>
    <path d="M 344.719343 170.501765 
C 345.189403 170.501765 345.640274 170.315008 345.972657 169.982625 
C 346.30504 169.650243 346.491797 169.199372 346.491797 168.729311 
C 346.491797 168.259251 346.30504 167.80838 345.972657 167.475997 
C 345.640274 167.143614 345.189403 166.956857 344.719343 166.956857 
C 344.249283 166.956857 343.798412 167.143614 343.466029 167.475997 
C 343.133646 167.80838 342.946889 168.259251 342.946889 168.729311 
C 342.946889 169.199372 343.133646 169.650243 343.466029 169.982625 
C 343.798412 170.315008 344.249283 170.501765 344.719343 170.501765 
z
" clip-path="url(#pb2efc86034)" style="stroke: #000000; stroke-width: 0.886227"/>
    <path d="M 362.414903 177.601605 
C 362.884963 177.601605 363.335834 177.414849 363.668217 177.082466 
C 364.0006 176.750083 364.187357 176.299212 364.187357 175.829152 
C 364.187357 175.359091 364.0006 174.90822 363.668217 174.575838 
C 363.335834 174.243455 362.884963 174.056698 362.414903 174.056698 
C 361.944843 174.056698 361.493972 174.243455 361.161589 174.575838 
C 360.829206 174.90822 360.642449 175.359091 360.642449 175.829152 
C 360.642449 176.299212 360.829206 176.750083 361.161589 177.082466 
C 361.493972 177.414849 361.944843 177.601605 362.414903 177.601605 
z
" clip-path="url(#pb2efc86034)" style="stroke: #000000; stroke-width: 0.886227"/>
    <path d="M 380.110463 175.726573 
C 380.580524 175.726573 381.031395 175.539816 381.363778 175.207433 
C 381.69616 174.87505 381.882917 174.424179 381.882917 173.954119 
C 381.882917 173.484058 381.69616 173.033187 381.363778 172.700805 
C 381.031395 172.368422 380.580524 172.181665 380.110463 172.181665 
C 379.640403 172.181665 379.189532 172.368422 378.857149 172.700805 
C 378.524766 173.033187 378.33801 173.484058 378.33801 173.954119 
C 378.33801 174.424179 378.524766 174.87505 378.857149 175.207433 
C 379.189532 175.539816 379.640403 175.726573 380.110463 175.726573 
z
" clip-path="url(#pb2efc86034)" style="stroke: #000000; stroke-width: 0.886227"/>
   </g>
   <g id="patch_9">
    <path d="M 231.467757 139.92091 
L 387.188688 139.92091 
L 387.188688 125.59 
L 231.467757 125.59 
z
" style="fill: #d9d9d9"/>
   </g>
   <g id="PolyCollection_4">
    <path d="M 238.545981 188.771649 
L 238.545981 234.468637 
L 256.241542 222.264192 
L 273.937102 189.932192 
L 291.632662 182.961435 
L 309.328222 197.332928 
L 327.023783 200.606018 
L 344.719343 184.340117 
L 362.414903 196.939011 
L 380.110463 193.902377 
L 380.110463 154.00586 
L 380.110463 154.00586 
L 362.414903 154.719293 
L 344.719343 153.118506 
L 327.023783 157.153849 
L 309.328222 145.705549 
L 291.632662 144.423182 
L 273.937102 154.076502 
L 256.241542 158.955501 
L 238.545981 188.771649 
z
" clip-path="url(#pb2efc86034)" style="fill: #333333; fill-opacity: 0.501961"/>
   </g>
   <g id="text_32">
    <!-- F1 score: &gt;50K -->
    <g style="fill: #1a1a1a" transform="translate(275.72666 135.183705)scale(0.088 -0.088)">
     <defs>
      <path id="DejaVuSans-3e" d="M 678 3150 
L 678 3719 
L 4684 2266 
L 4684 1747 
L 678 294 
L 678 863 
L 3897 2003 
L 678 3150 
z
" transform="scale(0.015625)"/>
     </defs>
     <use xlink:href="#DejaVuSans-46"/>
     <use xlink:href="#DejaVuSans-31" x="57.519531"/>
     <use xlink:href="#DejaVuSans-20" x="121.142578"/>
     <use xlink:href="#DejaVuSans-73" x="152.929688"/>
     <use xlink:href="#DejaVuSans-63" x="205.029297"/>
     <use xlink:href="#DejaVuSans-6f" x="260.009766"/>
     <use xlink:href="#DejaVuSans-72" x="321.191406"/>
     <use xlink:href="#DejaVuSans-65" x="360.054688"/>
     <use xlink:href="#DejaVuSans-3a" x="421.578125"/>
     <use xlink:href="#DejaVuSans-20" x="455.269531"/>
     <use xlink:href="#DejaVuSans-3e" x="487.056641"/>
     <use xlink:href="#DejaVuSans-35" x="570.845703"/>
     <use xlink:href="#DejaVuSans-30" x="634.46875"/>
     <use xlink:href="#DejaVuSans-4b" x="698.091797"/>
    </g>
   </g>
  </g>
 </g>
 <defs>
  <clipPath id="pfb781da8b4">
   <rect x="52.388688" y="21.53091" width="155.72093" height="99.05"/>
  </clipPath>
  <clipPath id="pf4a21144a6">
   <rect x="231.467757" y="21.53091" width="155.72093" height="99.05"/>
  </clipPath>
  <clipPath id="p956858c048">
   <rect x="52.388688" y="139.92091" width="155.72093" height="99.05"/>
  </clipPath>
  <clipPath id="pb2efc86034">
   <rect x="231.467757" y="139.92091" width="155.72093" height="99.05"/>
  </clipPath>
 </defs>
</svg>
