<?xml version="1.0" encoding="utf-8" standalone="no"?>
<!DOCTYPE svg PUBLIC "-//W3C//DTD SVG 1.1//EN"
  "http://www.w3.org/Graphics/SVG/1.1/DTD/svg11.dtd">
<svg height="501.47677pt" version="1.1" viewBox="0 0 840.788688 501.47677" width="840.788688pt" xmlns="http://www.w3.org/2000/svg" xmlns:xlink="http://www.w3.org/1999/xlink">
 <metadata>
  <rdf:RDF xmlns:cc="http://creativecommons.org/ns#" xmlns:dc="http://purl.org/dc/elements/1.1/" xmlns:rdf="http://www.w3.org/1999/02/22-rdf-syntax-ns#">
   <cc:Work>
    <dc:type rdf:resource="http://purl.org/dc/dcmitype/StillImage"/>
    <dc:date>2022-06-10T12:02:35.229861</dc:date>
    <dc:format>image/svg+xml</dc:format>
    <dc:creator>
     <cc:Agent>
      <dc:title>Matplotlib v3.4.3, https://matplotlib.org/</dc:title>
     </cc:Agent>
    </dc:creator>
   </cc:Work>
  </rdf:RDF>
 </metadata>
 <defs>
  <style type="text/css">*{stroke-linecap:butt;stroke-linejoin:round;}</style>
 </defs>
 <g id="figure_1">
  <g id="patch_1">
   <path d="M 0 501.47677 
L 840.788688 501.47677 
L 840.788688 0 
L 0 0 
z
" style="fill:#ffffff;stroke:#ffffff;stroke-linejoin:miter;"/>
  </g>
  <g id="axes_1">
   <g id="patch_2">
    <path d="M 52.388688 234.334082 
L 415.737525 234.334082 
L 415.737525 22.244082 
L 52.388688 22.244082 
z
" style="fill:#ebebeb;"/>
   </g>
   <g id="matplotlib.axis_1">
    <g id="xtick_1">
     <g id="line2d_1">
      <path clip-path="url(#pefbce0a3a5)" d="M 151.483825 234.334082 
L 151.483825 22.244082 
" style="fill:none;stroke:#ffffff;"/>
     </g>
    </g>
    <g id="xtick_2">
     <g id="line2d_2">
      <path clip-path="url(#pefbce0a3a5)" d="M 261.589533 234.334082 
L 261.589533 22.244082 
" style="fill:none;stroke:#ffffff;"/>
     </g>
    </g>
    <g id="xtick_3">
     <g id="line2d_3">
      <path clip-path="url(#pefbce0a3a5)" d="M 371.695241 234.334082 
L 371.695241 22.244082 
" style="fill:none;stroke:#ffffff;"/>
     </g>
    </g>
    <g id="xtick_4">
     <g id="line2d_4">
      <path clip-path="url(#pefbce0a3a5)" d="M 96.430971 234.334082 
L 96.430971 22.244082 
" style="fill:none;stroke:#ffffff;stroke-width:0.5;"/>
     </g>
    </g>
    <g id="xtick_5">
     <g id="line2d_5">
      <path clip-path="url(#pefbce0a3a5)" d="M 206.536679 234.334082 
L 206.536679 22.244082 
" style="fill:none;stroke:#ffffff;stroke-width:0.5;"/>
     </g>
    </g>
    <g id="xtick_6">
     <g id="line2d_6">
      <path clip-path="url(#pefbce0a3a5)" d="M 316.642387 234.334082 
L 316.642387 22.244082 
" style="fill:none;stroke:#ffffff;stroke-width:0.5;"/>
     </g>
    </g>
   </g>
   <g id="matplotlib.axis_2">
    <g id="ytick_1">
     <g id="line2d_7">
      <path clip-path="url(#pefbce0a3a5)" d="M 52.388688 202.352606 
L 415.737525 202.352606 
" style="fill:none;stroke:#ffffff;"/>
     </g>
     <g id="line2d_8">
      <path d="M 52.388688 202.352606 
" style="fill:none;stroke:#333333;stroke-width:1.5;"/>
      <defs>
       <path d="M 0 0 
L -2.75 0 
" id="m5f243cb8b4" style="stroke:#000000;"/>
      </defs>
      <g>
       <use style="fill:#333333;stroke:#000000;" x="52.388688" xlink:href="#m5f243cb8b4" y="202.352606"/>
      </g>
     </g>
     <g id="text_1">
      <!-- 0.840 -->
      <g style="fill:#4d4d4d;" transform="translate(22.245938 204.780856)scale(0.088 -0.088)">
       <defs>
        <path d="M 2034 4250 
Q 1547 4250 1301 3770 
Q 1056 3291 1056 2328 
Q 1056 1369 1301 889 
Q 1547 409 2034 409 
Q 2525 409 2770 889 
Q 3016 1369 3016 2328 
Q 3016 3291 2770 3770 
Q 2525 4250 2034 4250 
z
M 2034 4750 
Q 2819 4750 3233 4129 
Q 3647 3509 3647 2328 
Q 3647 1150 3233 529 
Q 2819 -91 2034 -91 
Q 1250 -91 836 529 
Q 422 1150 422 2328 
Q 422 3509 836 4129 
Q 1250 4750 2034 4750 
z
" id="DejaVuSans-30" transform="scale(0.015625)"/>
        <path d="M 684 794 
L 1344 794 
L 1344 0 
L 684 0 
L 684 794 
z
" id="DejaVuSans-2e" transform="scale(0.015625)"/>
        <path d="M 2034 2216 
Q 1584 2216 1326 1975 
Q 1069 1734 1069 1313 
Q 1069 891 1326 650 
Q 1584 409 2034 409 
Q 2484 409 2743 651 
Q 3003 894 3003 1313 
Q 3003 1734 2745 1975 
Q 2488 2216 2034 2216 
z
M 1403 2484 
Q 997 2584 770 2862 
Q 544 3141 544 3541 
Q 544 4100 942 4425 
Q 1341 4750 2034 4750 
Q 2731 4750 3128 4425 
Q 3525 4100 3525 3541 
Q 3525 3141 3298 2862 
Q 3072 2584 2669 2484 
Q 3125 2378 3379 2068 
Q 3634 1759 3634 1313 
Q 3634 634 3220 271 
Q 2806 -91 2034 -91 
Q 1263 -91 848 271 
Q 434 634 434 1313 
Q 434 1759 690 2068 
Q 947 2378 1403 2484 
z
M 1172 3481 
Q 1172 3119 1398 2916 
Q 1625 2713 2034 2713 
Q 2441 2713 2670 2916 
Q 2900 3119 2900 3481 
Q 2900 3844 2670 4047 
Q 2441 4250 2034 4250 
Q 1625 4250 1398 4047 
Q 1172 3844 1172 3481 
z
" id="DejaVuSans-38" transform="scale(0.015625)"/>
        <path d="M 2419 4116 
L 825 1625 
L 2419 1625 
L 2419 4116 
z
M 2253 4666 
L 3047 4666 
L 3047 1625 
L 3713 1625 
L 3713 1100 
L 3047 1100 
L 3047 0 
L 2419 0 
L 2419 1100 
L 313 1100 
L 313 1709 
L 2253 4666 
z
" id="DejaVuSans-34" transform="scale(0.015625)"/>
       </defs>
       <use xlink:href="#DejaVuSans-30"/>
       <use x="63.623047" xlink:href="#DejaVuSans-2e"/>
       <use x="95.410156" xlink:href="#DejaVuSans-38"/>
       <use x="159.033203" xlink:href="#DejaVuSans-34"/>
       <use x="222.65625" xlink:href="#DejaVuSans-30"/>
      </g>
     </g>
    </g>
    <g id="ytick_2">
     <g id="line2d_9">
      <path clip-path="url(#pefbce0a3a5)" d="M 52.388688 139.866606 
L 415.737525 139.866606 
" style="fill:none;stroke:#ffffff;"/>
     </g>
     <g id="line2d_10">
      <path d="M 52.388688 139.866606 
" style="fill:none;stroke:#333333;stroke-width:1.5;"/>
      <g>
       <use style="fill:#333333;stroke:#000000;" x="52.388688" xlink:href="#m5f243cb8b4" y="139.866606"/>
      </g>
     </g>
     <g id="text_2">
      <!-- 0.842 -->
      <g style="fill:#4d4d4d;" transform="translate(22.245938 142.294856)scale(0.088 -0.088)">
       <defs>
        <path d="M 1228 531 
L 3431 531 
L 3431 0 
L 469 0 
L 469 531 
Q 828 903 1448 1529 
Q 2069 2156 2228 2338 
Q 2531 2678 2651 2914 
Q 2772 3150 2772 3378 
Q 2772 3750 2511 3984 
Q 2250 4219 1831 4219 
Q 1534 4219 1204 4116 
Q 875 4013 500 3803 
L 500 4441 
Q 881 4594 1212 4672 
Q 1544 4750 1819 4750 
Q 2544 4750 2975 4387 
Q 3406 4025 3406 3419 
Q 3406 3131 3298 2873 
Q 3191 2616 2906 2266 
Q 2828 2175 2409 1742 
Q 1991 1309 1228 531 
z
" id="DejaVuSans-32" transform="scale(0.015625)"/>
       </defs>
       <use xlink:href="#DejaVuSans-30"/>
       <use x="63.623047" xlink:href="#DejaVuSans-2e"/>
       <use x="95.410156" xlink:href="#DejaVuSans-38"/>
       <use x="159.033203" xlink:href="#DejaVuSans-34"/>
       <use x="222.65625" xlink:href="#DejaVuSans-32"/>
      </g>
     </g>
    </g>
    <g id="ytick_3">
     <g id="line2d_11">
      <path clip-path="url(#pefbce0a3a5)" d="M 52.388688 77.380605 
L 415.737525 77.380605 
" style="fill:none;stroke:#ffffff;"/>
     </g>
     <g id="line2d_12">
      <path d="M 52.388688 77.380605 
" style="fill:none;stroke:#333333;stroke-width:1.5;"/>
      <g>
       <use style="fill:#333333;stroke:#000000;" x="52.388688" xlink:href="#m5f243cb8b4" y="77.380605"/>
      </g>
     </g>
     <g id="text_3">
      <!-- 0.844 -->
      <g style="fill:#4d4d4d;" transform="translate(22.245938 79.808855)scale(0.088 -0.088)">
       <use xlink:href="#DejaVuSans-30"/>
       <use x="63.623047" xlink:href="#DejaVuSans-2e"/>
       <use x="95.410156" xlink:href="#DejaVuSans-38"/>
       <use x="159.033203" xlink:href="#DejaVuSans-34"/>
       <use x="222.65625" xlink:href="#DejaVuSans-34"/>
      </g>
     </g>
    </g>
    <g id="ytick_4">
     <g id="line2d_13">
      <path clip-path="url(#pefbce0a3a5)" d="M 52.388688 233.595607 
L 415.737525 233.595607 
" style="fill:none;stroke:#ffffff;stroke-width:0.5;"/>
     </g>
    </g>
    <g id="ytick_5">
     <g id="line2d_14">
      <path clip-path="url(#pefbce0a3a5)" d="M 52.388688 171.109606 
L 415.737525 171.109606 
" style="fill:none;stroke:#ffffff;stroke-width:0.5;"/>
     </g>
    </g>
    <g id="ytick_6">
     <g id="line2d_15">
      <path clip-path="url(#pefbce0a3a5)" d="M 52.388688 108.623605 
L 415.737525 108.623605 
" style="fill:none;stroke:#ffffff;stroke-width:0.5;"/>
     </g>
    </g>
    <g id="ytick_7">
     <g id="line2d_16">
      <path clip-path="url(#pefbce0a3a5)" d="M 52.388688 46.137605 
L 415.737525 46.137605 
" style="fill:none;stroke:#ffffff;stroke-width:0.5;"/>
     </g>
    </g>
    <g id="text_4">
     <!-- Value -->
     <g transform="translate(15.558281 256.228457)rotate(-90)scale(0.11 -0.11)">
      <defs>
       <path d="M 1831 0 
L 50 4666 
L 709 4666 
L 2188 738 
L 3669 4666 
L 4325 4666 
L 2547 0 
L 1831 0 
z
" id="DejaVuSans-56" transform="scale(0.015625)"/>
       <path d="M 2194 1759 
Q 1497 1759 1228 1600 
Q 959 1441 959 1056 
Q 959 750 1161 570 
Q 1363 391 1709 391 
Q 2188 391 2477 730 
Q 2766 1069 2766 1631 
L 2766 1759 
L 2194 1759 
z
M 3341 1997 
L 3341 0 
L 2766 0 
L 2766 531 
Q 2569 213 2275 61 
Q 1981 -91 1556 -91 
Q 1019 -91 701 211 
Q 384 513 384 1019 
Q 384 1609 779 1909 
Q 1175 2209 1959 2209 
L 2766 2209 
L 2766 2266 
Q 2766 2663 2505 2880 
Q 2244 3097 1772 3097 
Q 1472 3097 1187 3025 
Q 903 2953 641 2809 
L 641 3341 
Q 956 3463 1253 3523 
Q 1550 3584 1831 3584 
Q 2591 3584 2966 3190 
Q 3341 2797 3341 1997 
z
" id="DejaVuSans-61" transform="scale(0.015625)"/>
       <path d="M 603 4863 
L 1178 4863 
L 1178 0 
L 603 0 
L 603 4863 
z
" id="DejaVuSans-6c" transform="scale(0.015625)"/>
       <path d="M 544 1381 
L 544 3500 
L 1119 3500 
L 1119 1403 
Q 1119 906 1312 657 
Q 1506 409 1894 409 
Q 2359 409 2629 706 
Q 2900 1003 2900 1516 
L 2900 3500 
L 3475 3500 
L 3475 0 
L 2900 0 
L 2900 538 
Q 2691 219 2414 64 
Q 2138 -91 1772 -91 
Q 1169 -91 856 284 
Q 544 659 544 1381 
z
M 1991 3584 
L 1991 3584 
z
" id="DejaVuSans-75" transform="scale(0.015625)"/>
       <path d="M 3597 1894 
L 3597 1613 
L 953 1613 
Q 991 1019 1311 708 
Q 1631 397 2203 397 
Q 2534 397 2845 478 
Q 3156 559 3463 722 
L 3463 178 
Q 3153 47 2828 -22 
Q 2503 -91 2169 -91 
Q 1331 -91 842 396 
Q 353 884 353 1716 
Q 353 2575 817 3079 
Q 1281 3584 2069 3584 
Q 2775 3584 3186 3129 
Q 3597 2675 3597 1894 
z
M 3022 2063 
Q 3016 2534 2758 2815 
Q 2500 3097 2075 3097 
Q 1594 3097 1305 2825 
Q 1016 2553 972 2059 
L 3022 2063 
z
" id="DejaVuSans-65" transform="scale(0.015625)"/>
      </defs>
      <use xlink:href="#DejaVuSans-56"/>
      <use x="60.658203" xlink:href="#DejaVuSans-61"/>
      <use x="121.9375" xlink:href="#DejaVuSans-6c"/>
      <use x="149.720703" xlink:href="#DejaVuSans-75"/>
      <use x="213.099609" xlink:href="#DejaVuSans-65"/>
     </g>
    </g>
   </g>
   <g id="line2d_17">
    <path clip-path="url(#pefbce0a3a5)" d="M 68.904544 149.036198 
L 96.430971 158.164299 
L 123.957398 165.840202 
L 151.483825 126.423402 
L 179.010252 149.036198 
L 206.536679 116.672931 
L 234.063106 110.034312 
L 261.589533 123.31155 
L 289.11596 122.896636 
L 316.642387 169.574425 
L 344.168814 137.833529 
L 371.695241 126.215945 
L 399.221668 124.141377 
" style="fill:none;stroke:#000000;stroke-width:0.886227;"/>
   </g>
   <g id="PathCollection_1">
    <path clip-path="url(#pefbce0a3a5)" d="M 68.904544 150.808652 
C 69.374604 150.808652 69.825475 150.621895 70.157858 150.289512 
C 70.490241 149.957129 70.676998 149.506258 70.676998 149.036198 
C 70.676998 148.566138 70.490241 148.115267 70.157858 147.782884 
C 69.825475 147.450501 69.374604 147.263744 68.904544 147.263744 
C 68.434483 147.263744 67.983612 147.450501 67.65123 147.782884 
C 67.318847 148.115267 67.13209 148.566138 67.13209 149.036198 
C 67.13209 149.506258 67.318847 149.957129 67.65123 150.289512 
C 67.983612 150.621895 68.434483 150.808652 68.904544 150.808652 
z
" style="stroke:#000000;stroke-width:0.886227;"/>
    <path clip-path="url(#pefbce0a3a5)" d="M 96.430971 159.936753 
C 96.901031 159.936753 97.351902 159.749996 97.684285 159.417613 
C 98.016668 159.08523 98.203425 158.634359 98.203425 158.164299 
C 98.203425 157.694239 98.016668 157.243368 97.684285 156.910985 
C 97.351902 156.578602 96.901031 156.391845 96.430971 156.391845 
C 95.960911 156.391845 95.510039 156.578602 95.177657 156.910985 
C 94.845274 157.243368 94.658517 157.694239 94.658517 158.164299 
C 94.658517 158.634359 94.845274 159.08523 95.177657 159.417613 
C 95.510039 159.749996 95.960911 159.936753 96.430971 159.936753 
z
" style="stroke:#000000;stroke-width:0.886227;"/>
    <path clip-path="url(#pefbce0a3a5)" d="M 123.957398 167.612656 
C 124.427458 167.612656 124.878329 167.425899 125.210712 167.093516 
C 125.543095 166.761134 125.729852 166.310262 125.729852 165.840202 
C 125.729852 165.370142 125.543095 164.919271 125.210712 164.586888 
C 124.878329 164.254505 124.427458 164.067748 123.957398 164.067748 
C 123.487338 164.067748 123.036467 164.254505 122.704084 164.586888 
C 122.371701 164.919271 122.184944 165.370142 122.184944 165.840202 
C 122.184944 166.310262 122.371701 166.761134 122.704084 167.093516 
C 123.036467 167.425899 123.487338 167.612656 123.957398 167.612656 
z
" style="stroke:#000000;stroke-width:0.886227;"/>
    <path clip-path="url(#pefbce0a3a5)" d="M 151.483825 128.195856 
C 151.953885 128.195856 152.404756 128.009099 152.737139 127.676716 
C 153.069522 127.344334 153.256279 126.893463 153.256279 126.423402 
C 153.256279 125.953342 153.069522 125.502471 152.737139 125.170088 
C 152.404756 124.837705 151.953885 124.650948 151.483825 124.650948 
C 151.013765 124.650948 150.562894 124.837705 150.230511 125.170088 
C 149.898128 125.502471 149.711371 125.953342 149.711371 126.423402 
C 149.711371 126.893463 149.898128 127.344334 150.230511 127.676716 
C 150.562894 128.009099 151.013765 128.195856 151.483825 128.195856 
z
" style="stroke:#000000;stroke-width:0.886227;"/>
    <path clip-path="url(#pefbce0a3a5)" d="M 179.010252 150.808652 
C 179.480312 150.808652 179.931183 150.621895 180.263566 150.289512 
C 180.595949 149.957129 180.782706 149.506258 180.782706 149.036198 
C 180.782706 148.566138 180.595949 148.115267 180.263566 147.782884 
C 179.931183 147.450501 179.480312 147.263744 179.010252 147.263744 
C 178.540192 147.263744 178.089321 147.450501 177.756938 147.782884 
C 177.424555 148.115267 177.237798 148.566138 177.237798 149.036198 
C 177.237798 149.506258 177.424555 149.957129 177.756938 150.289512 
C 178.089321 150.621895 178.540192 150.808652 179.010252 150.808652 
z
" style="stroke:#000000;stroke-width:0.886227;"/>
    <path clip-path="url(#pefbce0a3a5)" d="M 206.536679 118.445385 
C 207.006739 118.445385 207.45761 118.258628 207.789993 117.926245 
C 208.122376 117.593862 208.309133 117.142991 208.309133 116.672931 
C 208.309133 116.20287 208.122376 115.751999 207.789993 115.419617 
C 207.45761 115.087234 207.006739 114.900477 206.536679 114.900477 
C 206.066619 114.900477 205.615748 115.087234 205.283365 115.419617 
C 204.950982 115.751999 204.764225 116.20287 204.764225 116.672931 
C 204.764225 117.142991 204.950982 117.593862 205.283365 117.926245 
C 205.615748 118.258628 206.066619 118.445385 206.536679 118.445385 
z
" style="stroke:#000000;stroke-width:0.886227;"/>
    <path clip-path="url(#pefbce0a3a5)" d="M 234.063106 111.806766 
C 234.533166 111.806766 234.984037 111.620009 235.31642 111.287626 
C 235.648803 110.955243 235.83556 110.504372 235.83556 110.034312 
C 235.83556 109.564252 235.648803 109.11338 235.31642 108.780998 
C 234.984037 108.448615 234.533166 108.261858 234.063106 108.261858 
C 233.593046 108.261858 233.142175 108.448615 232.809792 108.780998 
C 232.477409 109.11338 232.290652 109.564252 232.290652 110.034312 
C 232.290652 110.504372 232.477409 110.955243 232.809792 111.287626 
C 233.142175 111.620009 233.593046 111.806766 234.063106 111.806766 
z
" style="stroke:#000000;stroke-width:0.886227;"/>
    <path clip-path="url(#pefbce0a3a5)" d="M 261.589533 125.084004 
C 262.059593 125.084004 262.510465 124.897247 262.842847 124.564864 
C 263.17523 124.232481 263.361987 123.78161 263.361987 123.31155 
C 263.361987 122.841489 263.17523 122.390618 262.842847 122.058236 
C 262.510465 121.725853 262.059593 121.539096 261.589533 121.539096 
C 261.119473 121.539096 260.668602 121.725853 260.336219 122.058236 
C 260.003836 122.390618 259.817079 122.841489 259.817079 123.31155 
C 259.817079 123.78161 260.003836 124.232481 260.336219 124.564864 
C 260.668602 124.897247 261.119473 125.084004 261.589533 125.084004 
z
" style="stroke:#000000;stroke-width:0.886227;"/>
    <path clip-path="url(#pefbce0a3a5)" d="M 289.11596 124.66909 
C 289.58602 124.66909 290.036892 124.482333 290.369274 124.14995 
C 290.701657 123.817567 290.888414 123.366696 290.888414 122.896636 
C 290.888414 122.426576 290.701657 121.975705 290.369274 121.643322 
C 290.036892 121.310939 289.58602 121.124182 289.11596 121.124182 
C 288.6459 121.124182 288.195029 121.310939 287.862646 121.643322 
C 287.530263 121.975705 287.343506 122.426576 287.343506 122.896636 
C 287.343506 123.366696 287.530263 123.817567 287.862646 124.14995 
C 288.195029 124.482333 288.6459 124.66909 289.11596 124.66909 
z
" style="stroke:#000000;stroke-width:0.886227;"/>
    <path clip-path="url(#pefbce0a3a5)" d="M 316.642387 171.346879 
C 317.112448 171.346879 317.563319 171.160122 317.895701 170.82774 
C 318.228084 170.495357 318.414841 170.044486 318.414841 169.574425 
C 318.414841 169.104365 318.228084 168.653494 317.895701 168.321111 
C 317.563319 167.988728 317.112448 167.801972 316.642387 167.801972 
C 316.172327 167.801972 315.721456 167.988728 315.389073 168.321111 
C 315.05669 168.653494 314.869933 169.104365 314.869933 169.574425 
C 314.869933 170.044486 315.05669 170.495357 315.389073 170.82774 
C 315.721456 171.160122 316.172327 171.346879 316.642387 171.346879 
z
" style="stroke:#000000;stroke-width:0.886227;"/>
    <path clip-path="url(#pefbce0a3a5)" d="M 344.168814 139.605982 
C 344.638875 139.605982 345.089746 139.419226 345.422128 139.086843 
C 345.754511 138.75446 345.941268 138.303589 345.941268 137.833529 
C 345.941268 137.363468 345.754511 136.912597 345.422128 136.580214 
C 345.089746 136.247832 344.638875 136.061075 344.168814 136.061075 
C 343.698754 136.061075 343.247883 136.247832 342.9155 136.580214 
C 342.583117 136.912597 342.39636 137.363468 342.39636 137.833529 
C 342.39636 138.303589 342.583117 138.75446 342.9155 139.086843 
C 343.247883 139.419226 343.698754 139.605982 344.168814 139.605982 
z
" style="stroke:#000000;stroke-width:0.886227;"/>
    <path clip-path="url(#pefbce0a3a5)" d="M 371.695241 127.988399 
C 372.165302 127.988399 372.616173 127.801642 372.948556 127.46926 
C 373.280938 127.136877 373.467695 126.686006 373.467695 126.215945 
C 373.467695 125.745885 373.280938 125.295014 372.948556 124.962631 
C 372.616173 124.630249 372.165302 124.443492 371.695241 124.443492 
C 371.225181 124.443492 370.77431 124.630249 370.441927 124.962631 
C 370.109544 125.295014 369.922788 125.745885 369.922788 126.215945 
C 369.922788 126.686006 370.109544 127.136877 370.441927 127.46926 
C 370.77431 127.801642 371.225181 127.988399 371.695241 127.988399 
z
" style="stroke:#000000;stroke-width:0.886227;"/>
    <path clip-path="url(#pefbce0a3a5)" d="M 399.221668 125.913831 
C 399.691729 125.913831 400.1426 125.727074 400.474983 125.394691 
C 400.807365 125.062308 400.994122 124.611437 400.994122 124.141377 
C 400.994122 123.671317 400.807365 123.220446 400.474983 122.888063 
C 400.1426 122.55568 399.691729 122.368923 399.221668 122.368923 
C 398.751608 122.368923 398.300737 122.55568 397.968354 122.888063 
C 397.635972 123.220446 397.449215 123.671317 397.449215 124.141377 
C 397.449215 124.611437 397.635972 125.062308 397.968354 125.394691 
C 398.300737 125.727074 398.751608 125.913831 399.221668 125.913831 
z
" style="stroke:#000000;stroke-width:0.886227;"/>
   </g>
   <g id="patch_3">
    <path d="M 52.388688 22.244082 
L 415.737525 22.244082 
L 415.737525 7.2 
L 52.388688 7.2 
z
" style="fill:#d9d9d9;"/>
   </g>
   <g id="PolyCollection_1">
    <path clip-path="url(#pefbce0a3a5)" d="M 68.904544 101.047256 
L 68.904544 197.025141 
L 96.430971 208.273179 
L 123.957398 224.693628 
L 151.483825 193.551 
L 179.010252 213.263778 
L 206.536679 167.751569 
L 234.063106 171.4531 
L 261.589533 187.06699 
L 289.11596 213.908735 
L 316.642387 204.508581 
L 344.168814 205.898661 
L 371.695241 195.380016 
L 399.221668 180.640145 
L 399.221668 67.64261 
L 399.221668 67.64261 
L 371.695241 57.051875 
L 344.168814 69.768396 
L 316.642387 134.64027 
L 289.11596 31.884537 
L 261.589533 59.55611 
L 234.063106 48.615523 
L 206.536679 65.594293 
L 179.010252 84.808619 
L 151.483825 59.295805 
L 123.957398 106.986777 
L 96.430971 108.055419 
L 68.904544 101.047256 
z
" style="fill:#333333;fill-opacity:0.501961;"/>
   </g>
   <g id="text_5">
    <!-- Accuracy -->
    <g style="fill:#1a1a1a;" transform="translate(213.974356 17.150291)scale(0.088 -0.088)">
     <defs>
      <path d="M 2188 4044 
L 1331 1722 
L 3047 1722 
L 2188 4044 
z
M 1831 4666 
L 2547 4666 
L 4325 0 
L 3669 0 
L 3244 1197 
L 1141 1197 
L 716 0 
L 50 0 
L 1831 4666 
z
" id="DejaVuSans-41" transform="scale(0.015625)"/>
      <path d="M 3122 3366 
L 3122 2828 
Q 2878 2963 2633 3030 
Q 2388 3097 2138 3097 
Q 1578 3097 1268 2742 
Q 959 2388 959 1747 
Q 959 1106 1268 751 
Q 1578 397 2138 397 
Q 2388 397 2633 464 
Q 2878 531 3122 666 
L 3122 134 
Q 2881 22 2623 -34 
Q 2366 -91 2075 -91 
Q 1284 -91 818 406 
Q 353 903 353 1747 
Q 353 2603 823 3093 
Q 1294 3584 2113 3584 
Q 2378 3584 2631 3529 
Q 2884 3475 3122 3366 
z
" id="DejaVuSans-63" transform="scale(0.015625)"/>
      <path d="M 2631 2963 
Q 2534 3019 2420 3045 
Q 2306 3072 2169 3072 
Q 1681 3072 1420 2755 
Q 1159 2438 1159 1844 
L 1159 0 
L 581 0 
L 581 3500 
L 1159 3500 
L 1159 2956 
Q 1341 3275 1631 3429 
Q 1922 3584 2338 3584 
Q 2397 3584 2469 3576 
Q 2541 3569 2628 3553 
L 2631 2963 
z
" id="DejaVuSans-72" transform="scale(0.015625)"/>
      <path d="M 2059 -325 
Q 1816 -950 1584 -1140 
Q 1353 -1331 966 -1331 
L 506 -1331 
L 506 -850 
L 844 -850 
Q 1081 -850 1212 -737 
Q 1344 -625 1503 -206 
L 1606 56 
L 191 3500 
L 800 3500 
L 1894 763 
L 2988 3500 
L 3597 3500 
L 2059 -325 
z
" id="DejaVuSans-79" transform="scale(0.015625)"/>
     </defs>
     <use xlink:href="#DejaVuSans-41"/>
     <use x="66.658203" xlink:href="#DejaVuSans-63"/>
     <use x="121.638672" xlink:href="#DejaVuSans-63"/>
     <use x="176.619141" xlink:href="#DejaVuSans-75"/>
     <use x="239.998047" xlink:href="#DejaVuSans-72"/>
     <use x="281.111328" xlink:href="#DejaVuSans-61"/>
     <use x="342.390625" xlink:href="#DejaVuSans-63"/>
     <use x="397.371094" xlink:href="#DejaVuSans-79"/>
    </g>
   </g>
  </g>
  <g id="axes_2">
   <g id="patch_4">
    <path d="M 470.23985 234.334082 
L 833.588688 234.334082 
L 833.588688 22.244082 
L 470.23985 22.244082 
z
" style="fill:#ebebeb;"/>
   </g>
   <g id="matplotlib.axis_3">
    <g id="xtick_7">
     <g id="line2d_18">
      <path clip-path="url(#pb532ddf732)" d="M 569.334988 234.334082 
L 569.334988 22.244082 
" style="fill:none;stroke:#ffffff;stroke-linecap:square;"/>
     </g>
    </g>
    <g id="xtick_8">
     <g id="line2d_19">
      <path clip-path="url(#pb532ddf732)" d="M 679.440696 234.334082 
L 679.440696 22.244082 
" style="fill:none;stroke:#ffffff;stroke-linecap:square;"/>
     </g>
    </g>
    <g id="xtick_9">
     <g id="line2d_20">
      <path clip-path="url(#pb532ddf732)" d="M 789.546404 234.334082 
L 789.546404 22.244082 
" style="fill:none;stroke:#ffffff;stroke-linecap:square;"/>
     </g>
    </g>
    <g id="xtick_10">
     <g id="line2d_21">
      <path clip-path="url(#pb532ddf732)" d="M 514.282134 234.334082 
L 514.282134 22.244082 
" style="fill:none;stroke:#ffffff;stroke-linecap:square;stroke-width:0.5;"/>
     </g>
    </g>
    <g id="xtick_11">
     <g id="line2d_22">
      <path clip-path="url(#pb532ddf732)" d="M 624.387842 234.334082 
L 624.387842 22.244082 
" style="fill:none;stroke:#ffffff;stroke-linecap:square;stroke-width:0.5;"/>
     </g>
    </g>
    <g id="xtick_12">
     <g id="line2d_23">
      <path clip-path="url(#pb532ddf732)" d="M 734.49355 234.334082 
L 734.49355 22.244082 
" style="fill:none;stroke:#ffffff;stroke-linecap:square;stroke-width:0.5;"/>
     </g>
    </g>
   </g>
   <g id="matplotlib.axis_4">
    <g id="ytick_8">
     <g id="line2d_24">
      <path clip-path="url(#pb532ddf732)" d="M 470.23985 214.891978 
L 833.588688 214.891978 
" style="fill:none;stroke:#ffffff;stroke-linecap:square;"/>
     </g>
     <g id="line2d_25">
      <path d="M 470.23985 214.891978 
" style="fill:none;stroke:#333333;stroke-linecap:square;stroke-width:1.5;"/>
      <g>
       <use style="fill:#333333;stroke:#000000;" x="470.23985" xlink:href="#m5f243cb8b4" y="214.891978"/>
      </g>
     </g>
     <g id="text_6">
      <!-- 0.894 -->
      <g style="fill:#4d4d4d;" transform="translate(440.0971 217.320228)scale(0.088 -0.088)">
       <defs>
        <path d="M 703 97 
L 703 672 
Q 941 559 1184 500 
Q 1428 441 1663 441 
Q 2288 441 2617 861 
Q 2947 1281 2994 2138 
Q 2813 1869 2534 1725 
Q 2256 1581 1919 1581 
Q 1219 1581 811 2004 
Q 403 2428 403 3163 
Q 403 3881 828 4315 
Q 1253 4750 1959 4750 
Q 2769 4750 3195 4129 
Q 3622 3509 3622 2328 
Q 3622 1225 3098 567 
Q 2575 -91 1691 -91 
Q 1453 -91 1209 -44 
Q 966 3 703 97 
z
M 1959 2075 
Q 2384 2075 2632 2365 
Q 2881 2656 2881 3163 
Q 2881 3666 2632 3958 
Q 2384 4250 1959 4250 
Q 1534 4250 1286 3958 
Q 1038 3666 1038 3163 
Q 1038 2656 1286 2365 
Q 1534 2075 1959 2075 
z
" id="DejaVuSans-39" transform="scale(0.015625)"/>
       </defs>
       <use xlink:href="#DejaVuSans-30"/>
       <use x="63.623047" xlink:href="#DejaVuSans-2e"/>
       <use x="95.410156" xlink:href="#DejaVuSans-38"/>
       <use x="159.033203" xlink:href="#DejaVuSans-39"/>
       <use x="222.65625" xlink:href="#DejaVuSans-34"/>
      </g>
     </g>
    </g>
    <g id="ytick_9">
     <g id="line2d_26">
      <path clip-path="url(#pb532ddf732)" d="M 470.23985 145.583706 
L 833.588688 145.583706 
" style="fill:none;stroke:#ffffff;stroke-linecap:square;"/>
     </g>
     <g id="line2d_27">
      <path d="M 470.23985 145.583706 
" style="fill:none;stroke:#333333;stroke-linecap:square;stroke-width:1.5;"/>
      <g>
       <use style="fill:#333333;stroke:#000000;" x="470.23985" xlink:href="#m5f243cb8b4" y="145.583706"/>
      </g>
     </g>
     <g id="text_7">
      <!-- 0.896 -->
      <g style="fill:#4d4d4d;" transform="translate(440.0971 148.011956)scale(0.088 -0.088)">
       <defs>
        <path d="M 2113 2584 
Q 1688 2584 1439 2293 
Q 1191 2003 1191 1497 
Q 1191 994 1439 701 
Q 1688 409 2113 409 
Q 2538 409 2786 701 
Q 3034 994 3034 1497 
Q 3034 2003 2786 2293 
Q 2538 2584 2113 2584 
z
M 3366 4563 
L 3366 3988 
Q 3128 4100 2886 4159 
Q 2644 4219 2406 4219 
Q 1781 4219 1451 3797 
Q 1122 3375 1075 2522 
Q 1259 2794 1537 2939 
Q 1816 3084 2150 3084 
Q 2853 3084 3261 2657 
Q 3669 2231 3669 1497 
Q 3669 778 3244 343 
Q 2819 -91 2113 -91 
Q 1303 -91 875 529 
Q 447 1150 447 2328 
Q 447 3434 972 4092 
Q 1497 4750 2381 4750 
Q 2619 4750 2861 4703 
Q 3103 4656 3366 4563 
z
" id="DejaVuSans-36" transform="scale(0.015625)"/>
       </defs>
       <use xlink:href="#DejaVuSans-30"/>
       <use x="63.623047" xlink:href="#DejaVuSans-2e"/>
       <use x="95.410156" xlink:href="#DejaVuSans-38"/>
       <use x="159.033203" xlink:href="#DejaVuSans-39"/>
       <use x="222.65625" xlink:href="#DejaVuSans-36"/>
      </g>
     </g>
    </g>
    <g id="ytick_10">
     <g id="line2d_28">
      <path clip-path="url(#pb532ddf732)" d="M 470.23985 76.275434 
L 833.588688 76.275434 
" style="fill:none;stroke:#ffffff;stroke-linecap:square;"/>
     </g>
     <g id="line2d_29">
      <path d="M 470.23985 76.275434 
" style="fill:none;stroke:#333333;stroke-linecap:square;stroke-width:1.5;"/>
      <g>
       <use style="fill:#333333;stroke:#000000;" x="470.23985" xlink:href="#m5f243cb8b4" y="76.275434"/>
      </g>
     </g>
     <g id="text_8">
      <!-- 0.898 -->
      <g style="fill:#4d4d4d;" transform="translate(440.0971 78.703684)scale(0.088 -0.088)">
       <use xlink:href="#DejaVuSans-30"/>
       <use x="63.623047" xlink:href="#DejaVuSans-2e"/>
       <use x="95.410156" xlink:href="#DejaVuSans-38"/>
       <use x="159.033203" xlink:href="#DejaVuSans-39"/>
       <use x="222.65625" xlink:href="#DejaVuSans-38"/>
      </g>
     </g>
    </g>
    <g id="ytick_11">
     <g id="line2d_30">
      <path clip-path="url(#pb532ddf732)" d="M 470.23985 180.237842 
L 833.588688 180.237842 
" style="fill:none;stroke:#ffffff;stroke-linecap:square;stroke-width:0.5;"/>
     </g>
    </g>
    <g id="ytick_12">
     <g id="line2d_31">
      <path clip-path="url(#pb532ddf732)" d="M 470.23985 110.92957 
L 833.588688 110.92957 
" style="fill:none;stroke:#ffffff;stroke-linecap:square;stroke-width:0.5;"/>
     </g>
    </g>
    <g id="ytick_13">
     <g id="line2d_32">
      <path clip-path="url(#pb532ddf732)" d="M 470.23985 41.621298 
L 833.588688 41.621298 
" style="fill:none;stroke:#ffffff;stroke-linecap:square;stroke-width:0.5;"/>
     </g>
    </g>
   </g>
   <g id="line2d_33">
    <path clip-path="url(#pb532ddf732)" d="M 486.755707 159.904961 
L 514.282134 183.360523 
L 541.808561 134.471289 
L 569.334988 116.217104 
L 596.861415 136.274777 
L 624.387842 110.520468 
L 651.914269 114.403929 
L 679.440696 106.75672 
L 706.967123 112.388264 
L 734.49355 128.909866 
L 762.019977 120.141253 
L 789.546404 132.709107 
L 817.072831 112.699295 
" style="fill:none;stroke:#000000;stroke-width:0.886227;"/>
   </g>
   <g id="PathCollection_2">
    <path clip-path="url(#pb532ddf732)" d="M 486.755707 161.677415 
C 487.225767 161.677415 487.676638 161.490658 488.009021 161.158275 
C 488.341403 160.825893 488.52816 160.375022 488.52816 159.904961 
C 488.52816 159.434901 488.341403 158.98403 488.009021 158.651647 
C 487.676638 158.319264 487.225767 158.132507 486.755707 158.132507 
C 486.285646 158.132507 485.834775 158.319264 485.502392 158.651647 
C 485.17001 158.98403 484.983253 159.434901 484.983253 159.904961 
C 484.983253 160.375022 485.17001 160.825893 485.502392 161.158275 
C 485.834775 161.490658 486.285646 161.677415 486.755707 161.677415 
z
" style="stroke:#000000;stroke-width:0.886227;"/>
    <path clip-path="url(#pb532ddf732)" d="M 514.282134 185.132977 
C 514.752194 185.132977 515.203065 184.94622 515.535448 184.613837 
C 515.867831 184.281455 516.054587 183.830583 516.054587 183.360523 
C 516.054587 182.890463 515.867831 182.439592 515.535448 182.107209 
C 515.203065 181.774826 514.752194 181.588069 514.282134 181.588069 
C 513.812073 181.588069 513.361202 181.774826 513.028819 182.107209 
C 512.696437 182.439592 512.50968 182.890463 512.50968 183.360523 
C 512.50968 183.830583 512.696437 184.281455 513.028819 184.613837 
C 513.361202 184.94622 513.812073 185.132977 514.282134 185.132977 
z
" style="stroke:#000000;stroke-width:0.886227;"/>
    <path clip-path="url(#pb532ddf732)" d="M 541.808561 136.243743 
C 542.278621 136.243743 542.729492 136.056986 543.061875 135.724603 
C 543.394258 135.39222 543.581015 134.941349 543.581015 134.471289 
C 543.581015 134.001229 543.394258 133.550358 543.061875 133.217975 
C 542.729492 132.885592 542.278621 132.698835 541.808561 132.698835 
C 541.3385 132.698835 540.887629 132.885592 540.555247 133.217975 
C 540.222864 133.550358 540.036107 134.001229 540.036107 134.471289 
C 540.036107 134.941349 540.222864 135.39222 540.555247 135.724603 
C 540.887629 136.056986 541.3385 136.243743 541.808561 136.243743 
z
" style="stroke:#000000;stroke-width:0.886227;"/>
    <path clip-path="url(#pb532ddf732)" d="M 569.334988 117.989558 
C 569.805048 117.989558 570.255919 117.802801 570.588302 117.470418 
C 570.920685 117.138035 571.107442 116.687164 571.107442 116.217104 
C 571.107442 115.747044 570.920685 115.296173 570.588302 114.96379 
C 570.255919 114.631407 569.805048 114.44465 569.334988 114.44465 
C 568.864927 114.44465 568.414056 114.631407 568.081674 114.96379 
C 567.749291 115.296173 567.562534 115.747044 567.562534 116.217104 
C 567.562534 116.687164 567.749291 117.138035 568.081674 117.470418 
C 568.414056 117.802801 568.864927 117.989558 569.334988 117.989558 
z
" style="stroke:#000000;stroke-width:0.886227;"/>
    <path clip-path="url(#pb532ddf732)" d="M 596.861415 138.04723 
C 597.331475 138.04723 597.782346 137.860474 598.114729 137.528091 
C 598.447112 137.195708 598.633869 136.744837 598.633869 136.274777 
C 598.633869 135.804716 598.447112 135.353845 598.114729 135.021462 
C 597.782346 134.68908 597.331475 134.502323 596.861415 134.502323 
C 596.391355 134.502323 595.940483 134.68908 595.608101 135.021462 
C 595.275718 135.353845 595.088961 135.804716 595.088961 136.274777 
C 595.088961 136.744837 595.275718 137.195708 595.608101 137.528091 
C 595.940483 137.860474 596.391355 138.04723 596.861415 138.04723 
z
" style="stroke:#000000;stroke-width:0.886227;"/>
    <path clip-path="url(#pb532ddf732)" d="M 624.387842 112.292922 
C 624.857902 112.292922 625.308773 112.106165 625.641156 111.773782 
C 625.973539 111.441399 626.160296 110.990528 626.160296 110.520468 
C 626.160296 110.050408 625.973539 109.599536 625.641156 109.267154 
C 625.308773 108.934771 624.857902 108.748014 624.387842 108.748014 
C 623.917782 108.748014 623.46691 108.934771 623.134528 109.267154 
C 622.802145 109.599536 622.615388 110.050408 622.615388 110.520468 
C 622.615388 110.990528 622.802145 111.441399 623.134528 111.773782 
C 623.46691 112.106165 623.917782 112.292922 624.387842 112.292922 
z
" style="stroke:#000000;stroke-width:0.886227;"/>
    <path clip-path="url(#pb532ddf732)" d="M 651.914269 116.176383 
C 652.384329 116.176383 652.8352 115.989626 653.167583 115.657243 
C 653.499966 115.32486 653.686723 114.873989 653.686723 114.403929 
C 653.686723 113.933869 653.499966 113.482998 653.167583 113.150615 
C 652.8352 112.818232 652.384329 112.631475 651.914269 112.631475 
C 651.444209 112.631475 650.993338 112.818232 650.660955 113.150615 
C 650.328572 113.482998 650.141815 113.933869 650.141815 114.403929 
C 650.141815 114.873989 650.328572 115.32486 650.660955 115.657243 
C 650.993338 115.989626 651.444209 116.176383 651.914269 116.176383 
z
" style="stroke:#000000;stroke-width:0.886227;"/>
    <path clip-path="url(#pb532ddf732)" d="M 679.440696 108.529173 
C 679.910756 108.529173 680.361627 108.342417 680.69401 108.010034 
C 681.026393 107.677651 681.21315 107.22678 681.21315 106.75672 
C 681.21315 106.286659 681.026393 105.835788 680.69401 105.503405 
C 680.361627 105.171023 679.910756 104.984266 679.440696 104.984266 
C 678.970636 104.984266 678.519765 105.171023 678.187382 105.503405 
C 677.854999 105.835788 677.668242 106.286659 677.668242 106.75672 
C 677.668242 107.22678 677.854999 107.677651 678.187382 108.010034 
C 678.519765 108.342417 678.970636 108.529173 679.440696 108.529173 
z
" style="stroke:#000000;stroke-width:0.886227;"/>
    <path clip-path="url(#pb532ddf732)" d="M 706.967123 114.160718 
C 707.437183 114.160718 707.888054 113.973961 708.220437 113.641578 
C 708.55282 113.309195 708.739577 112.858324 708.739577 112.388264 
C 708.739577 111.918204 708.55282 111.467333 708.220437 111.13495 
C 707.888054 110.802567 707.437183 110.61581 706.967123 110.61581 
C 706.497063 110.61581 706.046192 110.802567 705.713809 111.13495 
C 705.381426 111.467333 705.194669 111.918204 705.194669 112.388264 
C 705.194669 112.858324 705.381426 113.309195 705.713809 113.641578 
C 706.046192 113.973961 706.497063 114.160718 706.967123 114.160718 
z
" style="stroke:#000000;stroke-width:0.886227;"/>
    <path clip-path="url(#pb532ddf732)" d="M 734.49355 130.68232 
C 734.96361 130.68232 735.414481 130.495563 735.746864 130.16318 
C 736.079247 129.830797 736.266004 129.379926 736.266004 128.909866 
C 736.266004 128.439806 736.079247 127.988934 735.746864 127.656552 
C 735.414481 127.324169 734.96361 127.137412 734.49355 127.137412 
C 734.02349 127.137412 733.572619 127.324169 733.240236 127.656552 
C 732.907853 127.988934 732.721096 128.439806 732.721096 128.909866 
C 732.721096 129.379926 732.907853 129.830797 733.240236 130.16318 
C 733.572619 130.495563 734.02349 130.68232 734.49355 130.68232 
z
" style="stroke:#000000;stroke-width:0.886227;"/>
    <path clip-path="url(#pb532ddf732)" d="M 762.019977 121.913707 
C 762.490037 121.913707 762.940908 121.72695 763.273291 121.394567 
C 763.605674 121.062184 763.792431 120.611313 763.792431 120.141253 
C 763.792431 119.671193 763.605674 119.220322 763.273291 118.887939 
C 762.940908 118.555556 762.490037 118.368799 762.019977 118.368799 
C 761.549917 118.368799 761.099046 118.555556 760.766663 118.887939 
C 760.43428 119.220322 760.247523 119.671193 760.247523 120.141253 
C 760.247523 120.611313 760.43428 121.062184 760.766663 121.394567 
C 761.099046 121.72695 761.549917 121.913707 762.019977 121.913707 
z
" style="stroke:#000000;stroke-width:0.886227;"/>
    <path clip-path="url(#pb532ddf732)" d="M 789.546404 134.481561 
C 790.016464 134.481561 790.467336 134.294804 790.799718 133.962422 
C 791.132101 133.630039 791.318858 133.179168 791.318858 132.709107 
C 791.318858 132.239047 791.132101 131.788176 790.799718 131.455793 
C 790.467336 131.12341 790.016464 130.936654 789.546404 130.936654 
C 789.076344 130.936654 788.625473 131.12341 788.29309 131.455793 
C 787.960707 131.788176 787.77395 132.239047 787.77395 132.709107 
C 787.77395 133.179168 787.960707 133.630039 788.29309 133.962422 
C 788.625473 134.294804 789.076344 134.481561 789.546404 134.481561 
z
" style="stroke:#000000;stroke-width:0.886227;"/>
    <path clip-path="url(#pb532ddf732)" d="M 817.072831 114.471749 
C 817.542892 114.471749 817.993763 114.284992 818.326145 113.95261 
C 818.658528 113.620227 818.845285 113.169356 818.845285 112.699295 
C 818.845285 112.229235 818.658528 111.778364 818.326145 111.445981 
C 817.993763 111.113599 817.542892 110.926842 817.072831 110.926842 
C 816.602771 110.926842 816.1519 111.113599 815.819517 111.445981 
C 815.487134 111.778364 815.300377 112.229235 815.300377 112.699295 
C 815.300377 113.169356 815.487134 113.620227 815.819517 113.95261 
C 816.1519 114.284992 816.602771 114.471749 817.072831 114.471749 
z
" style="stroke:#000000;stroke-width:0.886227;"/>
   </g>
   <g id="patch_5">
    <path d="M 470.23985 22.244082 
L 833.588688 22.244082 
L 833.588688 7.2 
L 470.23985 7.2 
z
" style="fill:#d9d9d9;"/>
   </g>
   <g id="PolyCollection_2">
    <path clip-path="url(#pb532ddf732)" d="M 486.755707 117.543113 
L 486.755707 202.26681 
L 514.282134 224.693628 
L 541.808561 199.730323 
L 569.334988 158.208216 
L 596.861415 176.007447 
L 624.387842 154.92639 
L 651.914269 160.46306 
L 679.440696 169.930045 
L 706.967123 192.891991 
L 734.49355 170.686172 
L 762.019977 171.263275 
L 789.546404 184.326923 
L 817.072831 157.600163 
L 817.072831 67.798427 
L 817.072831 67.798427 
L 789.546404 81.091292 
L 762.019977 69.019231 
L 734.49355 87.133559 
L 706.967123 31.884537 
L 679.440696 43.583394 
L 651.914269 68.344798 
L 624.387842 66.114546 
L 596.861415 96.542107 
L 569.334988 74.225992 
L 541.808561 69.212255 
L 514.282134 142.027419 
L 486.755707 117.543113 
z
" style="fill:#333333;fill-opacity:0.501961;"/>
   </g>
   <g id="text_9">
    <!-- AUC -->
    <g style="fill:#1a1a1a;" transform="translate(642.611706 17.150291)scale(0.088 -0.088)">
     <defs>
      <path d="M 556 4666 
L 1191 4666 
L 1191 1831 
Q 1191 1081 1462 751 
Q 1734 422 2344 422 
Q 2950 422 3222 751 
Q 3494 1081 3494 1831 
L 3494 4666 
L 4128 4666 
L 4128 1753 
Q 4128 841 3676 375 
Q 3225 -91 2344 -91 
Q 1459 -91 1007 375 
Q 556 841 556 1753 
L 556 4666 
z
" id="DejaVuSans-55" transform="scale(0.015625)"/>
      <path d="M 4122 4306 
L 4122 3641 
Q 3803 3938 3442 4084 
Q 3081 4231 2675 4231 
Q 1875 4231 1450 3742 
Q 1025 3253 1025 2328 
Q 1025 1406 1450 917 
Q 1875 428 2675 428 
Q 3081 428 3442 575 
Q 3803 722 4122 1019 
L 4122 359 
Q 3791 134 3420 21 
Q 3050 -91 2638 -91 
Q 1578 -91 968 557 
Q 359 1206 359 2328 
Q 359 3453 968 4101 
Q 1578 4750 2638 4750 
Q 3056 4750 3426 4639 
Q 3797 4528 4122 4306 
z
" id="DejaVuSans-43" transform="scale(0.015625)"/>
     </defs>
     <use xlink:href="#DejaVuSans-41"/>
     <use x="68.408203" xlink:href="#DejaVuSans-55"/>
     <use x="141.601562" xlink:href="#DejaVuSans-43"/>
    </g>
   </g>
  </g>
  <g id="axes_3">
   <g id="patch_6">
    <path d="M 52.388688 465.764082 
L 415.737525 465.764082 
L 415.737525 253.674082 
L 52.388688 253.674082 
z
" style="fill:#ebebeb;"/>
   </g>
   <g id="matplotlib.axis_5">
    <g id="xtick_13">
     <g id="line2d_34">
      <path clip-path="url(#p99d3dea338)" d="M 151.483825 465.764082 
L 151.483825 253.674082 
" style="fill:none;stroke:#ffffff;stroke-linecap:square;"/>
     </g>
     <g id="line2d_35">
      <path d="M 151.483825 465.764082 
" style="fill:none;stroke:#333333;stroke-linecap:square;stroke-width:1.5;"/>
      <defs>
       <path d="M 0 0 
L 0 2.75 
" id="m82de0eb219" style="stroke:#000000;"/>
      </defs>
      <g>
       <use style="fill:#333333;stroke:#000000;" x="151.483825" xlink:href="#m82de0eb219" y="465.764082"/>
      </g>
     </g>
     <g id="text_10">
      <!-- 0.2 -->
      <g style="fill:#4d4d4d;" transform="translate(144.48645 477.400707)scale(0.088 -0.088)">
       <use xlink:href="#DejaVuSans-30"/>
       <use x="63.623047" xlink:href="#DejaVuSans-2e"/>
       <use x="95.410156" xlink:href="#DejaVuSans-32"/>
      </g>
     </g>
    </g>
    <g id="xtick_14">
     <g id="line2d_36">
      <path clip-path="url(#p99d3dea338)" d="M 261.589533 465.764082 
L 261.589533 253.674082 
" style="fill:none;stroke:#ffffff;stroke-linecap:square;"/>
     </g>
     <g id="line2d_37">
      <path d="M 261.589533 465.764082 
" style="fill:none;stroke:#333333;stroke-linecap:square;stroke-width:1.5;"/>
      <g>
       <use style="fill:#333333;stroke:#000000;" x="261.589533" xlink:href="#m82de0eb219" y="465.764082"/>
      </g>
     </g>
     <g id="text_11">
      <!-- 0.4 -->
      <g style="fill:#4d4d4d;" transform="translate(254.592158 477.400707)scale(0.088 -0.088)">
       <use xlink:href="#DejaVuSans-30"/>
       <use x="63.623047" xlink:href="#DejaVuSans-2e"/>
       <use x="95.410156" xlink:href="#DejaVuSans-34"/>
      </g>
     </g>
    </g>
    <g id="xtick_15">
     <g id="line2d_38">
      <path clip-path="url(#p99d3dea338)" d="M 371.695241 465.764082 
L 371.695241 253.674082 
" style="fill:none;stroke:#ffffff;stroke-linecap:square;"/>
     </g>
     <g id="line2d_39">
      <path d="M 371.695241 465.764082 
" style="fill:none;stroke:#333333;stroke-linecap:square;stroke-width:1.5;"/>
      <g>
       <use style="fill:#333333;stroke:#000000;" x="371.695241" xlink:href="#m82de0eb219" y="465.764082"/>
      </g>
     </g>
     <g id="text_12">
      <!-- 0.6 -->
      <g style="fill:#4d4d4d;" transform="translate(364.697866 477.400707)scale(0.088 -0.088)">
       <use xlink:href="#DejaVuSans-30"/>
       <use x="63.623047" xlink:href="#DejaVuSans-2e"/>
       <use x="95.410156" xlink:href="#DejaVuSans-36"/>
      </g>
     </g>
    </g>
    <g id="xtick_16">
     <g id="line2d_40">
      <path clip-path="url(#p99d3dea338)" d="M 96.430971 465.764082 
L 96.430971 253.674082 
" style="fill:none;stroke:#ffffff;stroke-linecap:square;stroke-width:0.5;"/>
     </g>
    </g>
    <g id="xtick_17">
     <g id="line2d_41">
      <path clip-path="url(#p99d3dea338)" d="M 206.536679 465.764082 
L 206.536679 253.674082 
" style="fill:none;stroke:#ffffff;stroke-linecap:square;stroke-width:0.5;"/>
     </g>
    </g>
    <g id="xtick_18">
     <g id="line2d_42">
      <path clip-path="url(#p99d3dea338)" d="M 316.642387 465.764082 
L 316.642387 253.674082 
" style="fill:none;stroke:#ffffff;stroke-linecap:square;stroke-width:0.5;"/>
     </g>
    </g>
   </g>
   <g id="matplotlib.axis_6">
    <g id="ytick_14">
     <g id="line2d_43">
      <path clip-path="url(#p99d3dea338)" d="M 52.388688 461.4296 
L 415.737525 461.4296 
" style="fill:none;stroke:#ffffff;stroke-linecap:square;"/>
     </g>
     <g id="line2d_44">
      <path d="M 52.388688 461.4296 
" style="fill:none;stroke:#333333;stroke-linecap:square;stroke-width:1.5;"/>
      <g>
       <use style="fill:#333333;stroke:#000000;" x="52.388688" xlink:href="#m5f243cb8b4" y="461.4296"/>
      </g>
     </g>
     <g id="text_13">
      <!-- 0.895 -->
      <g style="fill:#4d4d4d;" transform="translate(22.245938 463.85785)scale(0.088 -0.088)">
       <defs>
        <path d="M 691 4666 
L 3169 4666 
L 3169 4134 
L 1269 4134 
L 1269 2991 
Q 1406 3038 1543 3061 
Q 1681 3084 1819 3084 
Q 2600 3084 3056 2656 
Q 3513 2228 3513 1497 
Q 3513 744 3044 326 
Q 2575 -91 1722 -91 
Q 1428 -91 1123 -41 
Q 819 9 494 109 
L 494 744 
Q 775 591 1075 516 
Q 1375 441 1709 441 
Q 2250 441 2565 725 
Q 2881 1009 2881 1497 
Q 2881 1984 2565 2268 
Q 2250 2553 1709 2553 
Q 1456 2553 1204 2497 
Q 953 2441 691 2322 
L 691 4666 
z
" id="DejaVuSans-35" transform="scale(0.015625)"/>
       </defs>
       <use xlink:href="#DejaVuSans-30"/>
       <use x="63.623047" xlink:href="#DejaVuSans-2e"/>
       <use x="95.410156" xlink:href="#DejaVuSans-38"/>
       <use x="159.033203" xlink:href="#DejaVuSans-39"/>
       <use x="222.65625" xlink:href="#DejaVuSans-35"/>
      </g>
     </g>
    </g>
    <g id="ytick_15">
     <g id="line2d_45">
      <path clip-path="url(#p99d3dea338)" d="M 52.388688 421.924041 
L 415.737525 421.924041 
" style="fill:none;stroke:#ffffff;stroke-linecap:square;"/>
     </g>
     <g id="line2d_46">
      <path d="M 52.388688 421.924041 
" style="fill:none;stroke:#333333;stroke-linecap:square;stroke-width:1.5;"/>
      <g>
       <use style="fill:#333333;stroke:#000000;" x="52.388688" xlink:href="#m5f243cb8b4" y="421.924041"/>
      </g>
     </g>
     <g id="text_14">
      <!-- 0.896 -->
      <g style="fill:#4d4d4d;" transform="translate(22.245938 424.352291)scale(0.088 -0.088)">
       <use xlink:href="#DejaVuSans-30"/>
       <use x="63.623047" xlink:href="#DejaVuSans-2e"/>
       <use x="95.410156" xlink:href="#DejaVuSans-38"/>
       <use x="159.033203" xlink:href="#DejaVuSans-39"/>
       <use x="222.65625" xlink:href="#DejaVuSans-36"/>
      </g>
     </g>
    </g>
    <g id="ytick_16">
     <g id="line2d_47">
      <path clip-path="url(#p99d3dea338)" d="M 52.388688 382.418482 
L 415.737525 382.418482 
" style="fill:none;stroke:#ffffff;stroke-linecap:square;"/>
     </g>
     <g id="line2d_48">
      <path d="M 52.388688 382.418482 
" style="fill:none;stroke:#333333;stroke-linecap:square;stroke-width:1.5;"/>
      <g>
       <use style="fill:#333333;stroke:#000000;" x="52.388688" xlink:href="#m5f243cb8b4" y="382.418482"/>
      </g>
     </g>
     <g id="text_15">
      <!-- 0.897 -->
      <g style="fill:#4d4d4d;" transform="translate(22.245938 384.846732)scale(0.088 -0.088)">
       <defs>
        <path d="M 525 4666 
L 3525 4666 
L 3525 4397 
L 1831 0 
L 1172 0 
L 2766 4134 
L 525 4134 
L 525 4666 
z
" id="DejaVuSans-37" transform="scale(0.015625)"/>
       </defs>
       <use xlink:href="#DejaVuSans-30"/>
       <use x="63.623047" xlink:href="#DejaVuSans-2e"/>
       <use x="95.410156" xlink:href="#DejaVuSans-38"/>
       <use x="159.033203" xlink:href="#DejaVuSans-39"/>
       <use x="222.65625" xlink:href="#DejaVuSans-37"/>
      </g>
     </g>
    </g>
    <g id="ytick_17">
     <g id="line2d_49">
      <path clip-path="url(#p99d3dea338)" d="M 52.388688 342.912923 
L 415.737525 342.912923 
" style="fill:none;stroke:#ffffff;stroke-linecap:square;"/>
     </g>
     <g id="line2d_50">
      <path d="M 52.388688 342.912923 
" style="fill:none;stroke:#333333;stroke-linecap:square;stroke-width:1.5;"/>
      <g>
       <use style="fill:#333333;stroke:#000000;" x="52.388688" xlink:href="#m5f243cb8b4" y="342.912923"/>
      </g>
     </g>
     <g id="text_16">
      <!-- 0.898 -->
      <g style="fill:#4d4d4d;" transform="translate(22.245938 345.341173)scale(0.088 -0.088)">
       <use xlink:href="#DejaVuSans-30"/>
       <use x="63.623047" xlink:href="#DejaVuSans-2e"/>
       <use x="95.410156" xlink:href="#DejaVuSans-38"/>
       <use x="159.033203" xlink:href="#DejaVuSans-39"/>
       <use x="222.65625" xlink:href="#DejaVuSans-38"/>
      </g>
     </g>
    </g>
    <g id="ytick_18">
     <g id="line2d_51">
      <path clip-path="url(#p99d3dea338)" d="M 52.388688 303.407364 
L 415.737525 303.407364 
" style="fill:none;stroke:#ffffff;stroke-linecap:square;"/>
     </g>
     <g id="line2d_52">
      <path d="M 52.388688 303.407364 
" style="fill:none;stroke:#333333;stroke-linecap:square;stroke-width:1.5;"/>
      <g>
       <use style="fill:#333333;stroke:#000000;" x="52.388688" xlink:href="#m5f243cb8b4" y="303.407364"/>
      </g>
     </g>
     <g id="text_17">
      <!-- 0.899 -->
      <g style="fill:#4d4d4d;" transform="translate(22.245938 305.835614)scale(0.088 -0.088)">
       <use xlink:href="#DejaVuSans-30"/>
       <use x="63.623047" xlink:href="#DejaVuSans-2e"/>
       <use x="95.410156" xlink:href="#DejaVuSans-38"/>
       <use x="159.033203" xlink:href="#DejaVuSans-39"/>
       <use x="222.65625" xlink:href="#DejaVuSans-39"/>
      </g>
     </g>
    </g>
    <g id="ytick_19">
     <g id="line2d_53">
      <path clip-path="url(#p99d3dea338)" d="M 52.388688 263.901805 
L 415.737525 263.901805 
" style="fill:none;stroke:#ffffff;stroke-linecap:square;"/>
     </g>
     <g id="line2d_54">
      <path d="M 52.388688 263.901805 
" style="fill:none;stroke:#333333;stroke-linecap:square;stroke-width:1.5;"/>
      <g>
       <use style="fill:#333333;stroke:#000000;" x="52.388688" xlink:href="#m5f243cb8b4" y="263.901805"/>
      </g>
     </g>
     <g id="text_18">
      <!-- 0.900 -->
      <g style="fill:#4d4d4d;" transform="translate(22.245938 266.330055)scale(0.088 -0.088)">
       <use xlink:href="#DejaVuSans-30"/>
       <use x="63.623047" xlink:href="#DejaVuSans-2e"/>
       <use x="95.410156" xlink:href="#DejaVuSans-39"/>
       <use x="159.033203" xlink:href="#DejaVuSans-30"/>
       <use x="222.65625" xlink:href="#DejaVuSans-30"/>
      </g>
     </g>
    </g>
    <g id="ytick_20">
     <g id="line2d_55">
      <path clip-path="url(#p99d3dea338)" d="M 52.388688 441.67682 
L 415.737525 441.67682 
" style="fill:none;stroke:#ffffff;stroke-linecap:square;stroke-width:0.5;"/>
     </g>
    </g>
    <g id="ytick_21">
     <g id="line2d_56">
      <path clip-path="url(#p99d3dea338)" d="M 52.388688 402.171261 
L 415.737525 402.171261 
" style="fill:none;stroke:#ffffff;stroke-linecap:square;stroke-width:0.5;"/>
     </g>
    </g>
    <g id="ytick_22">
     <g id="line2d_57">
      <path clip-path="url(#p99d3dea338)" d="M 52.388688 362.665702 
L 415.737525 362.665702 
" style="fill:none;stroke:#ffffff;stroke-linecap:square;stroke-width:0.5;"/>
     </g>
    </g>
    <g id="ytick_23">
     <g id="line2d_58">
      <path clip-path="url(#p99d3dea338)" d="M 52.388688 323.160143 
L 415.737525 323.160143 
" style="fill:none;stroke:#ffffff;stroke-linecap:square;stroke-width:0.5;"/>
     </g>
    </g>
    <g id="ytick_24">
     <g id="line2d_59">
      <path clip-path="url(#p99d3dea338)" d="M 52.388688 283.654584 
L 415.737525 283.654584 
" style="fill:none;stroke:#ffffff;stroke-linecap:square;stroke-width:0.5;"/>
     </g>
    </g>
   </g>
   <g id="line2d_60">
    <path clip-path="url(#p99d3dea338)" d="M 68.904544 373.209098 
L 96.430971 387.046547 
L 123.957398 395.707626 
L 151.483825 350.387674 
L 179.010252 390.663509 
L 206.536679 354.131792 
L 234.063106 339.886853 
L 261.589533 356.257658 
L 289.11596 359.719082 
L 316.642387 403.902294 
L 344.168814 375.623082 
L 371.695241 369.931722 
L 399.221668 358.246183 
" style="fill:none;stroke:#000000;stroke-width:0.886227;"/>
   </g>
   <g id="PathCollection_3">
    <path clip-path="url(#p99d3dea338)" d="M 68.904544 374.981552 
C 69.374604 374.981552 69.825475 374.794795 70.157858 374.462413 
C 70.490241 374.13003 70.676998 373.679159 70.676998 373.209098 
C 70.676998 372.739038 70.490241 372.288167 70.157858 371.955784 
C 69.825475 371.623401 69.374604 371.436645 68.904544 371.436645 
C 68.434483 371.436645 67.983612 371.623401 67.65123 371.955784 
C 67.318847 372.288167 67.13209 372.739038 67.13209 373.209098 
C 67.13209 373.679159 67.318847 374.13003 67.65123 374.462413 
C 67.983612 374.794795 68.434483 374.981552 68.904544 374.981552 
z
" style="stroke:#000000;stroke-width:0.886227;"/>
    <path clip-path="url(#p99d3dea338)" d="M 96.430971 388.819001 
C 96.901031 388.819001 97.351902 388.632244 97.684285 388.299861 
C 98.016668 387.967478 98.203425 387.516607 98.203425 387.046547 
C 98.203425 386.576487 98.016668 386.125615 97.684285 385.793233 
C 97.351902 385.46085 96.901031 385.274093 96.430971 385.274093 
C 95.960911 385.274093 95.510039 385.46085 95.177657 385.793233 
C 94.845274 386.125615 94.658517 386.576487 94.658517 387.046547 
C 94.658517 387.516607 94.845274 387.967478 95.177657 388.299861 
C 95.510039 388.632244 95.960911 388.819001 96.430971 388.819001 
z
" style="stroke:#000000;stroke-width:0.886227;"/>
    <path clip-path="url(#p99d3dea338)" d="M 123.957398 397.480079 
C 124.427458 397.480079 124.878329 397.293322 125.210712 396.96094 
C 125.543095 396.628557 125.729852 396.177686 125.729852 395.707626 
C 125.729852 395.237565 125.543095 394.786694 125.210712 394.454311 
C 124.878329 394.121929 124.427458 393.935172 123.957398 393.935172 
C 123.487338 393.935172 123.036467 394.121929 122.704084 394.454311 
C 122.371701 394.786694 122.184944 395.237565 122.184944 395.707626 
C 122.184944 396.177686 122.371701 396.628557 122.704084 396.96094 
C 123.036467 397.293322 123.487338 397.480079 123.957398 397.480079 
z
" style="stroke:#000000;stroke-width:0.886227;"/>
    <path clip-path="url(#p99d3dea338)" d="M 151.483825 352.160128 
C 151.953885 352.160128 152.404756 351.973371 152.737139 351.640988 
C 153.069522 351.308605 153.256279 350.857734 153.256279 350.387674 
C 153.256279 349.917614 153.069522 349.466742 152.737139 349.13436 
C 152.404756 348.801977 151.953885 348.61522 151.483825 348.61522 
C 151.013765 348.61522 150.562894 348.801977 150.230511 349.13436 
C 149.898128 349.466742 149.711371 349.917614 149.711371 350.387674 
C 149.711371 350.857734 149.898128 351.308605 150.230511 351.640988 
C 150.562894 351.973371 151.013765 352.160128 151.483825 352.160128 
z
" style="stroke:#000000;stroke-width:0.886227;"/>
    <path clip-path="url(#p99d3dea338)" d="M 179.010252 392.435963 
C 179.480312 392.435963 179.931183 392.249206 180.263566 391.916823 
C 180.595949 391.58444 180.782706 391.133569 180.782706 390.663509 
C 180.782706 390.193448 180.595949 389.742577 180.263566 389.410195 
C 179.931183 389.077812 179.480312 388.891055 179.010252 388.891055 
C 178.540192 388.891055 178.089321 389.077812 177.756938 389.410195 
C 177.424555 389.742577 177.237798 390.193448 177.237798 390.663509 
C 177.237798 391.133569 177.424555 391.58444 177.756938 391.916823 
C 178.089321 392.249206 178.540192 392.435963 179.010252 392.435963 
z
" style="stroke:#000000;stroke-width:0.886227;"/>
    <path clip-path="url(#p99d3dea338)" d="M 206.536679 355.904246 
C 207.006739 355.904246 207.45761 355.717489 207.789993 355.385106 
C 208.122376 355.052723 208.309133 354.601852 208.309133 354.131792 
C 208.309133 353.661732 208.122376 353.210861 207.789993 352.878478 
C 207.45761 352.546095 207.006739 352.359338 206.536679 352.359338 
C 206.066619 352.359338 205.615748 352.546095 205.283365 352.878478 
C 204.950982 353.210861 204.764225 353.661732 204.764225 354.131792 
C 204.764225 354.601852 204.950982 355.052723 205.283365 355.385106 
C 205.615748 355.717489 206.066619 355.904246 206.536679 355.904246 
z
" style="stroke:#000000;stroke-width:0.886227;"/>
    <path clip-path="url(#p99d3dea338)" d="M 234.063106 341.659307 
C 234.533166 341.659307 234.984037 341.47255 235.31642 341.140167 
C 235.648803 340.807784 235.83556 340.356913 235.83556 339.886853 
C 235.83556 339.416792 235.648803 338.965921 235.31642 338.633539 
C 234.984037 338.301156 234.533166 338.114399 234.063106 338.114399 
C 233.593046 338.114399 233.142175 338.301156 232.809792 338.633539 
C 232.477409 338.965921 232.290652 339.416792 232.290652 339.886853 
C 232.290652 340.356913 232.477409 340.807784 232.809792 341.140167 
C 233.142175 341.47255 233.593046 341.659307 234.063106 341.659307 
z
" style="stroke:#000000;stroke-width:0.886227;"/>
    <path clip-path="url(#p99d3dea338)" d="M 261.589533 358.030112 
C 262.059593 358.030112 262.510465 357.843355 262.842847 357.510972 
C 263.17523 357.17859 263.361987 356.727719 263.361987 356.257658 
C 263.361987 355.787598 263.17523 355.336727 262.842847 355.004344 
C 262.510465 354.671961 262.059593 354.485204 261.589533 354.485204 
C 261.119473 354.485204 260.668602 354.671961 260.336219 355.004344 
C 260.003836 355.336727 259.817079 355.787598 259.817079 356.257658 
C 259.817079 356.727719 260.003836 357.17859 260.336219 357.510972 
C 260.668602 357.843355 261.119473 358.030112 261.589533 358.030112 
z
" style="stroke:#000000;stroke-width:0.886227;"/>
    <path clip-path="url(#p99d3dea338)" d="M 289.11596 361.491536 
C 289.58602 361.491536 290.036892 361.304779 290.369274 360.972396 
C 290.701657 360.640014 290.888414 360.189143 290.888414 359.719082 
C 290.888414 359.249022 290.701657 358.798151 290.369274 358.465768 
C 290.036892 358.133385 289.58602 357.946628 289.11596 357.946628 
C 288.6459 357.946628 288.195029 358.133385 287.862646 358.465768 
C 287.530263 358.798151 287.343506 359.249022 287.343506 359.719082 
C 287.343506 360.189143 287.530263 360.640014 287.862646 360.972396 
C 288.195029 361.304779 288.6459 361.491536 289.11596 361.491536 
z
" style="stroke:#000000;stroke-width:0.886227;"/>
    <path clip-path="url(#p99d3dea338)" d="M 316.642387 405.674748 
C 317.112448 405.674748 317.563319 405.487991 317.895701 405.155609 
C 318.228084 404.823226 318.414841 404.372355 318.414841 403.902294 
C 318.414841 403.432234 318.228084 402.981363 317.895701 402.64898 
C 317.563319 402.316598 317.112448 402.129841 316.642387 402.129841 
C 316.172327 402.129841 315.721456 402.316598 315.389073 402.64898 
C 315.05669 402.981363 314.869933 403.432234 314.869933 403.902294 
C 314.869933 404.372355 315.05669 404.823226 315.389073 405.155609 
C 315.721456 405.487991 316.172327 405.674748 316.642387 405.674748 
z
" style="stroke:#000000;stroke-width:0.886227;"/>
    <path clip-path="url(#p99d3dea338)" d="M 344.168814 377.395536 
C 344.638875 377.395536 345.089746 377.208779 345.422128 376.876397 
C 345.754511 376.544014 345.941268 376.093143 345.941268 375.623082 
C 345.941268 375.153022 345.754511 374.702151 345.422128 374.369768 
C 345.089746 374.037386 344.638875 373.850629 344.168814 373.850629 
C 343.698754 373.850629 343.247883 374.037386 342.9155 374.369768 
C 342.583117 374.702151 342.39636 375.153022 342.39636 375.623082 
C 342.39636 376.093143 342.583117 376.544014 342.9155 376.876397 
C 343.247883 377.208779 343.698754 377.395536 344.168814 377.395536 
z
" style="stroke:#000000;stroke-width:0.886227;"/>
    <path clip-path="url(#p99d3dea338)" d="M 371.695241 371.704176 
C 372.165302 371.704176 372.616173 371.517419 372.948556 371.185036 
C 373.280938 370.852653 373.467695 370.401782 373.467695 369.931722 
C 373.467695 369.461662 373.280938 369.010791 372.948556 368.678408 
C 372.616173 368.346025 372.165302 368.159268 371.695241 368.159268 
C 371.225181 368.159268 370.77431 368.346025 370.441927 368.678408 
C 370.109544 369.010791 369.922788 369.461662 369.922788 369.931722 
C 369.922788 370.401782 370.109544 370.852653 370.441927 371.185036 
C 370.77431 371.517419 371.225181 371.704176 371.695241 371.704176 
z
" style="stroke:#000000;stroke-width:0.886227;"/>
    <path clip-path="url(#p99d3dea338)" d="M 399.221668 360.018637 
C 399.691729 360.018637 400.1426 359.83188 400.474983 359.499497 
C 400.807365 359.167114 400.994122 358.716243 400.994122 358.246183 
C 400.994122 357.776122 400.807365 357.325251 400.474983 356.992869 
C 400.1426 356.660486 399.691729 356.473729 399.221668 356.473729 
C 398.751608 356.473729 398.300737 356.660486 397.968354 356.992869 
C 397.635972 357.325251 397.449215 357.776122 397.449215 358.246183 
C 397.449215 358.716243 397.635972 359.167114 397.968354 359.499497 
C 398.300737 359.83188 398.751608 360.018637 399.221668 360.018637 
z
" style="stroke:#000000;stroke-width:0.886227;"/>
   </g>
   <g id="patch_7">
    <path d="M 52.388688 253.674082 
L 415.737525 253.674082 
L 415.737525 238.63 
L 52.388688 238.63 
z
" style="fill:#d9d9d9;"/>
   </g>
   <g id="PolyCollection_3">
    <path clip-path="url(#p99d3dea338)" d="M 68.904544 325.061442 
L 68.904544 421.356755 
L 96.430971 427.48252 
L 123.957398 453.721312 
L 151.483825 412.863405 
L 179.010252 454.977138 
L 206.536679 399.485531 
L 234.063106 403.32301 
L 261.589533 418.335397 
L 289.11596 456.123628 
L 316.642387 439.098581 
L 344.168814 433.285205 
L 371.695241 430.887741 
L 399.221668 410.119282 
L 399.221668 306.373083 
L 399.221668 306.373083 
L 371.695241 308.975703 
L 344.168814 317.96096 
L 316.642387 368.706008 
L 289.11596 263.314537 
L 261.589533 294.179919 
L 234.063106 276.450696 
L 206.536679 308.778052 
L 179.010252 326.349879 
L 151.483825 287.911943 
L 123.957398 337.693939 
L 96.430971 346.610574 
L 68.904544 325.061442 
z
" style="fill:#333333;fill-opacity:0.501961;"/>
   </g>
   <g id="text_19">
    <!-- F1 score: &lt;=50K -->
    <g style="fill:#1a1a1a;" transform="translate(196.774481 248.580291)scale(0.088 -0.088)">
     <defs>
      <path d="M 628 4666 
L 3309 4666 
L 3309 4134 
L 1259 4134 
L 1259 2759 
L 3109 2759 
L 3109 2228 
L 1259 2228 
L 1259 0 
L 628 0 
L 628 4666 
z
" id="DejaVuSans-46" transform="scale(0.015625)"/>
      <path d="M 794 531 
L 1825 531 
L 1825 4091 
L 703 3866 
L 703 4441 
L 1819 4666 
L 2450 4666 
L 2450 531 
L 3481 531 
L 3481 0 
L 794 0 
L 794 531 
z
" id="DejaVuSans-31" transform="scale(0.015625)"/>
      <path id="DejaVuSans-20" transform="scale(0.015625)"/>
      <path d="M 2834 3397 
L 2834 2853 
Q 2591 2978 2328 3040 
Q 2066 3103 1784 3103 
Q 1356 3103 1142 2972 
Q 928 2841 928 2578 
Q 928 2378 1081 2264 
Q 1234 2150 1697 2047 
L 1894 2003 
Q 2506 1872 2764 1633 
Q 3022 1394 3022 966 
Q 3022 478 2636 193 
Q 2250 -91 1575 -91 
Q 1294 -91 989 -36 
Q 684 19 347 128 
L 347 722 
Q 666 556 975 473 
Q 1284 391 1588 391 
Q 1994 391 2212 530 
Q 2431 669 2431 922 
Q 2431 1156 2273 1281 
Q 2116 1406 1581 1522 
L 1381 1569 
Q 847 1681 609 1914 
Q 372 2147 372 2553 
Q 372 3047 722 3315 
Q 1072 3584 1716 3584 
Q 2034 3584 2315 3537 
Q 2597 3491 2834 3397 
z
" id="DejaVuSans-73" transform="scale(0.015625)"/>
      <path d="M 1959 3097 
Q 1497 3097 1228 2736 
Q 959 2375 959 1747 
Q 959 1119 1226 758 
Q 1494 397 1959 397 
Q 2419 397 2687 759 
Q 2956 1122 2956 1747 
Q 2956 2369 2687 2733 
Q 2419 3097 1959 3097 
z
M 1959 3584 
Q 2709 3584 3137 3096 
Q 3566 2609 3566 1747 
Q 3566 888 3137 398 
Q 2709 -91 1959 -91 
Q 1206 -91 779 398 
Q 353 888 353 1747 
Q 353 2609 779 3096 
Q 1206 3584 1959 3584 
z
" id="DejaVuSans-6f" transform="scale(0.015625)"/>
      <path d="M 750 794 
L 1409 794 
L 1409 0 
L 750 0 
L 750 794 
z
M 750 3309 
L 1409 3309 
L 1409 2516 
L 750 2516 
L 750 3309 
z
" id="DejaVuSans-3a" transform="scale(0.015625)"/>
      <path d="M 4684 3150 
L 1459 2003 
L 4684 863 
L 4684 294 
L 678 1747 
L 678 2266 
L 4684 3719 
L 4684 3150 
z
" id="DejaVuSans-3c" transform="scale(0.015625)"/>
      <path d="M 678 2906 
L 4684 2906 
L 4684 2381 
L 678 2381 
L 678 2906 
z
M 678 1631 
L 4684 1631 
L 4684 1100 
L 678 1100 
L 678 1631 
z
" id="DejaVuSans-3d" transform="scale(0.015625)"/>
      <path d="M 628 4666 
L 1259 4666 
L 1259 2694 
L 3353 4666 
L 4166 4666 
L 1850 2491 
L 4331 0 
L 3500 0 
L 1259 2247 
L 1259 0 
L 628 0 
L 628 4666 
z
" id="DejaVuSans-4b" transform="scale(0.015625)"/>
     </defs>
     <use xlink:href="#DejaVuSans-46"/>
     <use x="57.519531" xlink:href="#DejaVuSans-31"/>
     <use x="121.142578" xlink:href="#DejaVuSans-20"/>
     <use x="152.929688" xlink:href="#DejaVuSans-73"/>
     <use x="205.029297" xlink:href="#DejaVuSans-63"/>
     <use x="260.009766" xlink:href="#DejaVuSans-6f"/>
     <use x="321.191406" xlink:href="#DejaVuSans-72"/>
     <use x="360.054688" xlink:href="#DejaVuSans-65"/>
     <use x="421.578125" xlink:href="#DejaVuSans-3a"/>
     <use x="455.269531" xlink:href="#DejaVuSans-20"/>
     <use x="487.056641" xlink:href="#DejaVuSans-3c"/>
     <use x="570.845703" xlink:href="#DejaVuSans-3d"/>
     <use x="654.634766" xlink:href="#DejaVuSans-35"/>
     <use x="718.257812" xlink:href="#DejaVuSans-30"/>
     <use x="781.880859" xlink:href="#DejaVuSans-4b"/>
    </g>
   </g>
  </g>
  <g id="axes_4">
   <g id="patch_8">
    <path d="M 470.23985 465.764082 
L 833.588688 465.764082 
L 833.588688 253.674082 
L 470.23985 253.674082 
z
" style="fill:#ebebeb;"/>
   </g>
   <g id="matplotlib.axis_7">
    <g id="xtick_19">
     <g id="line2d_61">
      <path clip-path="url(#p10cee42382)" d="M 569.334988 465.764082 
L 569.334988 253.674082 
" style="fill:none;stroke:#ffffff;stroke-linecap:square;"/>
     </g>
     <g id="line2d_62">
      <path d="M 569.334988 465.764082 
" style="fill:none;stroke:#333333;stroke-linecap:square;stroke-width:1.5;"/>
      <g>
       <use style="fill:#333333;stroke:#000000;" x="569.334988" xlink:href="#m82de0eb219" y="465.764082"/>
      </g>
     </g>
     <g id="text_20">
      <!-- 0.2 -->
      <g style="fill:#4d4d4d;" transform="translate(562.337613 477.400707)scale(0.088 -0.088)">
       <use xlink:href="#DejaVuSans-30"/>
       <use x="63.623047" xlink:href="#DejaVuSans-2e"/>
       <use x="95.410156" xlink:href="#DejaVuSans-32"/>
      </g>
     </g>
    </g>
    <g id="xtick_20">
     <g id="line2d_63">
      <path clip-path="url(#p10cee42382)" d="M 679.440696 465.764082 
L 679.440696 253.674082 
" style="fill:none;stroke:#ffffff;stroke-linecap:square;"/>
     </g>
     <g id="line2d_64">
      <path d="M 679.440696 465.764082 
" style="fill:none;stroke:#333333;stroke-linecap:square;stroke-width:1.5;"/>
      <g>
       <use style="fill:#333333;stroke:#000000;" x="679.440696" xlink:href="#m82de0eb219" y="465.764082"/>
      </g>
     </g>
     <g id="text_21">
      <!-- 0.4 -->
      <g style="fill:#4d4d4d;" transform="translate(672.443321 477.400707)scale(0.088 -0.088)">
       <use xlink:href="#DejaVuSans-30"/>
       <use x="63.623047" xlink:href="#DejaVuSans-2e"/>
       <use x="95.410156" xlink:href="#DejaVuSans-34"/>
      </g>
     </g>
    </g>
    <g id="xtick_21">
     <g id="line2d_65">
      <path clip-path="url(#p10cee42382)" d="M 789.546404 465.764082 
L 789.546404 253.674082 
" style="fill:none;stroke:#ffffff;stroke-linecap:square;"/>
     </g>
     <g id="line2d_66">
      <path d="M 789.546404 465.764082 
" style="fill:none;stroke:#333333;stroke-linecap:square;stroke-width:1.5;"/>
      <g>
       <use style="fill:#333333;stroke:#000000;" x="789.546404" xlink:href="#m82de0eb219" y="465.764082"/>
      </g>
     </g>
     <g id="text_22">
      <!-- 0.6 -->
      <g style="fill:#4d4d4d;" transform="translate(782.549029 477.400707)scale(0.088 -0.088)">
       <use xlink:href="#DejaVuSans-30"/>
       <use x="63.623047" xlink:href="#DejaVuSans-2e"/>
       <use x="95.410156" xlink:href="#DejaVuSans-36"/>
      </g>
     </g>
    </g>
    <g id="xtick_22">
     <g id="line2d_67">
      <path clip-path="url(#p10cee42382)" d="M 514.282134 465.764082 
L 514.282134 253.674082 
" style="fill:none;stroke:#ffffff;stroke-linecap:square;stroke-width:0.5;"/>
     </g>
    </g>
    <g id="xtick_23">
     <g id="line2d_68">
      <path clip-path="url(#p10cee42382)" d="M 624.387842 465.764082 
L 624.387842 253.674082 
" style="fill:none;stroke:#ffffff;stroke-linecap:square;stroke-width:0.5;"/>
     </g>
    </g>
    <g id="xtick_24">
     <g id="line2d_69">
      <path clip-path="url(#p10cee42382)" d="M 734.49355 465.764082 
L 734.49355 253.674082 
" style="fill:none;stroke:#ffffff;stroke-linecap:square;stroke-width:0.5;"/>
     </g>
    </g>
    <g id="text_23">
     <!-- Adam beta1 -->
     <g transform="translate(396.853297 491.989114)scale(0.11 -0.11)">
      <defs>
       <path d="M 2906 2969 
L 2906 4863 
L 3481 4863 
L 3481 0 
L 2906 0 
L 2906 525 
Q 2725 213 2448 61 
Q 2172 -91 1784 -91 
Q 1150 -91 751 415 
Q 353 922 353 1747 
Q 353 2572 751 3078 
Q 1150 3584 1784 3584 
Q 2172 3584 2448 3432 
Q 2725 3281 2906 2969 
z
M 947 1747 
Q 947 1113 1208 752 
Q 1469 391 1925 391 
Q 2381 391 2643 752 
Q 2906 1113 2906 1747 
Q 2906 2381 2643 2742 
Q 2381 3103 1925 3103 
Q 1469 3103 1208 2742 
Q 947 2381 947 1747 
z
" id="DejaVuSans-64" transform="scale(0.015625)"/>
       <path d="M 3328 2828 
Q 3544 3216 3844 3400 
Q 4144 3584 4550 3584 
Q 5097 3584 5394 3201 
Q 5691 2819 5691 2113 
L 5691 0 
L 5113 0 
L 5113 2094 
Q 5113 2597 4934 2840 
Q 4756 3084 4391 3084 
Q 3944 3084 3684 2787 
Q 3425 2491 3425 1978 
L 3425 0 
L 2847 0 
L 2847 2094 
Q 2847 2600 2669 2842 
Q 2491 3084 2119 3084 
Q 1678 3084 1418 2786 
Q 1159 2488 1159 1978 
L 1159 0 
L 581 0 
L 581 3500 
L 1159 3500 
L 1159 2956 
Q 1356 3278 1631 3431 
Q 1906 3584 2284 3584 
Q 2666 3584 2933 3390 
Q 3200 3197 3328 2828 
z
" id="DejaVuSans-6d" transform="scale(0.015625)"/>
       <path d="M 3116 1747 
Q 3116 2381 2855 2742 
Q 2594 3103 2138 3103 
Q 1681 3103 1420 2742 
Q 1159 2381 1159 1747 
Q 1159 1113 1420 752 
Q 1681 391 2138 391 
Q 2594 391 2855 752 
Q 3116 1113 3116 1747 
z
M 1159 2969 
Q 1341 3281 1617 3432 
Q 1894 3584 2278 3584 
Q 2916 3584 3314 3078 
Q 3713 2572 3713 1747 
Q 3713 922 3314 415 
Q 2916 -91 2278 -91 
Q 1894 -91 1617 61 
Q 1341 213 1159 525 
L 1159 0 
L 581 0 
L 581 4863 
L 1159 4863 
L 1159 2969 
z
" id="DejaVuSans-62" transform="scale(0.015625)"/>
       <path d="M 1172 4494 
L 1172 3500 
L 2356 3500 
L 2356 3053 
L 1172 3053 
L 1172 1153 
Q 1172 725 1289 603 
Q 1406 481 1766 481 
L 2356 481 
L 2356 0 
L 1766 0 
Q 1100 0 847 248 
Q 594 497 594 1153 
L 594 3053 
L 172 3053 
L 172 3500 
L 594 3500 
L 594 4494 
L 1172 4494 
z
" id="DejaVuSans-74" transform="scale(0.015625)"/>
      </defs>
      <use xlink:href="#DejaVuSans-41"/>
      <use x="66.658203" xlink:href="#DejaVuSans-64"/>
      <use x="130.134766" xlink:href="#DejaVuSans-61"/>
      <use x="191.414062" xlink:href="#DejaVuSans-6d"/>
      <use x="288.826172" xlink:href="#DejaVuSans-20"/>
      <use x="320.613281" xlink:href="#DejaVuSans-62"/>
      <use x="384.089844" xlink:href="#DejaVuSans-65"/>
      <use x="445.613281" xlink:href="#DejaVuSans-74"/>
      <use x="484.822266" xlink:href="#DejaVuSans-61"/>
      <use x="546.101562" xlink:href="#DejaVuSans-31"/>
     </g>
    </g>
   </g>
   <g id="matplotlib.axis_8">
    <g id="ytick_25">
     <g id="line2d_70">
      <path clip-path="url(#p10cee42382)" d="M 470.23985 439.198804 
L 833.588688 439.198804 
" style="fill:none;stroke:#ffffff;stroke-linecap:square;"/>
     </g>
     <g id="line2d_71">
      <path d="M 470.23985 439.198804 
" style="fill:none;stroke:#333333;stroke-linecap:square;stroke-width:1.5;"/>
      <g>
       <use style="fill:#333333;stroke:#000000;" x="470.23985" xlink:href="#m5f243cb8b4" y="439.198804"/>
      </g>
     </g>
     <g id="text_24">
      <!-- 0.650 -->
      <g style="fill:#4d4d4d;" transform="translate(440.0971 441.627054)scale(0.088 -0.088)">
       <use xlink:href="#DejaVuSans-30"/>
       <use x="63.623047" xlink:href="#DejaVuSans-2e"/>
       <use x="95.410156" xlink:href="#DejaVuSans-36"/>
       <use x="159.033203" xlink:href="#DejaVuSans-35"/>
       <use x="222.65625" xlink:href="#DejaVuSans-30"/>
      </g>
     </g>
    </g>
    <g id="ytick_26">
     <g id="line2d_72">
      <path clip-path="url(#p10cee42382)" d="M 470.23985 389.578068 
L 833.588688 389.578068 
" style="fill:none;stroke:#ffffff;stroke-linecap:square;"/>
     </g>
     <g id="line2d_73">
      <path d="M 470.23985 389.578068 
" style="fill:none;stroke:#333333;stroke-linecap:square;stroke-width:1.5;"/>
      <g>
       <use style="fill:#333333;stroke:#000000;" x="470.23985" xlink:href="#m5f243cb8b4" y="389.578068"/>
      </g>
     </g>
     <g id="text_25">
      <!-- 0.655 -->
      <g style="fill:#4d4d4d;" transform="translate(440.0971 392.006318)scale(0.088 -0.088)">
       <use xlink:href="#DejaVuSans-30"/>
       <use x="63.623047" xlink:href="#DejaVuSans-2e"/>
       <use x="95.410156" xlink:href="#DejaVuSans-36"/>
       <use x="159.033203" xlink:href="#DejaVuSans-35"/>
       <use x="222.65625" xlink:href="#DejaVuSans-35"/>
      </g>
     </g>
    </g>
    <g id="ytick_27">
     <g id="line2d_74">
      <path clip-path="url(#p10cee42382)" d="M 470.23985 339.957333 
L 833.588688 339.957333 
" style="fill:none;stroke:#ffffff;stroke-linecap:square;"/>
     </g>
     <g id="line2d_75">
      <path d="M 470.23985 339.957333 
" style="fill:none;stroke:#333333;stroke-linecap:square;stroke-width:1.5;"/>
      <g>
       <use style="fill:#333333;stroke:#000000;" x="470.23985" xlink:href="#m5f243cb8b4" y="339.957333"/>
      </g>
     </g>
     <g id="text_26">
      <!-- 0.660 -->
      <g style="fill:#4d4d4d;" transform="translate(440.0971 342.385583)scale(0.088 -0.088)">
       <use xlink:href="#DejaVuSans-30"/>
       <use x="63.623047" xlink:href="#DejaVuSans-2e"/>
       <use x="95.410156" xlink:href="#DejaVuSans-36"/>
       <use x="159.033203" xlink:href="#DejaVuSans-36"/>
       <use x="222.65625" xlink:href="#DejaVuSans-30"/>
      </g>
     </g>
    </g>
    <g id="ytick_28">
     <g id="line2d_76">
      <path clip-path="url(#p10cee42382)" d="M 470.23985 290.336597 
L 833.588688 290.336597 
" style="fill:none;stroke:#ffffff;stroke-linecap:square;"/>
     </g>
     <g id="line2d_77">
      <path d="M 470.23985 290.336597 
" style="fill:none;stroke:#333333;stroke-linecap:square;stroke-width:1.5;"/>
      <g>
       <use style="fill:#333333;stroke:#000000;" x="470.23985" xlink:href="#m5f243cb8b4" y="290.336597"/>
      </g>
     </g>
     <g id="text_27">
      <!-- 0.665 -->
      <g style="fill:#4d4d4d;" transform="translate(440.0971 292.764847)scale(0.088 -0.088)">
       <use xlink:href="#DejaVuSans-30"/>
       <use x="63.623047" xlink:href="#DejaVuSans-2e"/>
       <use x="95.410156" xlink:href="#DejaVuSans-36"/>
       <use x="159.033203" xlink:href="#DejaVuSans-36"/>
       <use x="222.65625" xlink:href="#DejaVuSans-35"/>
      </g>
     </g>
    </g>
    <g id="ytick_29">
     <g id="line2d_78">
      <path clip-path="url(#p10cee42382)" d="M 470.23985 464.009171 
L 833.588688 464.009171 
" style="fill:none;stroke:#ffffff;stroke-linecap:square;stroke-width:0.5;"/>
     </g>
    </g>
    <g id="ytick_30">
     <g id="line2d_79">
      <path clip-path="url(#p10cee42382)" d="M 470.23985 414.388436 
L 833.588688 414.388436 
" style="fill:none;stroke:#ffffff;stroke-linecap:square;stroke-width:0.5;"/>
     </g>
    </g>
    <g id="ytick_31">
     <g id="line2d_80">
      <path clip-path="url(#p10cee42382)" d="M 470.23985 364.7677 
L 833.588688 364.7677 
" style="fill:none;stroke:#ffffff;stroke-linecap:square;stroke-width:0.5;"/>
     </g>
    </g>
    <g id="ytick_32">
     <g id="line2d_81">
      <path clip-path="url(#p10cee42382)" d="M 470.23985 315.146965 
L 833.588688 315.146965 
" style="fill:none;stroke:#ffffff;stroke-linecap:square;stroke-width:0.5;"/>
     </g>
    </g>
    <g id="ytick_33">
     <g id="line2d_82">
      <path clip-path="url(#p10cee42382)" d="M 470.23985 265.526229 
L 833.588688 265.526229 
" style="fill:none;stroke:#ffffff;stroke-linecap:square;stroke-width:0.5;"/>
     </g>
    </g>
   </g>
   <g id="line2d_83">
    <path clip-path="url(#p10cee42382)" d="M 486.755707 384.85879 
L 514.282134 372.945759 
L 541.808561 372.07783 
L 569.334988 380.234818 
L 596.861415 336.105781 
L 624.387842 340.387491 
L 651.914269 361.418304 
L 679.440696 355.612144 
L 706.967123 346.067415 
L 734.49355 359.732754 
L 762.019977 344.308812 
L 789.546404 325.304279 
L 817.072831 351.263893 
" style="fill:none;stroke:#000000;stroke-width:0.886227;"/>
   </g>
   <g id="PathCollection_4">
    <path clip-path="url(#p10cee42382)" d="M 486.755707 386.631243 
C 487.225767 386.631243 487.676638 386.444487 488.009021 386.112104 
C 488.341403 385.779721 488.52816 385.32885 488.52816 384.85879 
C 488.52816 384.388729 488.341403 383.937858 488.009021 383.605475 
C 487.676638 383.273093 487.225767 383.086336 486.755707 383.086336 
C 486.285646 383.086336 485.834775 383.273093 485.502392 383.605475 
C 485.17001 383.937858 484.983253 384.388729 484.983253 384.85879 
C 484.983253 385.32885 485.17001 385.779721 485.502392 386.112104 
C 485.834775 386.444487 486.285646 386.631243 486.755707 386.631243 
z
" style="stroke:#000000;stroke-width:0.886227;"/>
    <path clip-path="url(#p10cee42382)" d="M 514.282134 374.718213 
C 514.752194 374.718213 515.203065 374.531456 515.535448 374.199073 
C 515.867831 373.866691 516.054587 373.41582 516.054587 372.945759 
C 516.054587 372.475699 515.867831 372.024828 515.535448 371.692445 
C 515.203065 371.360062 514.752194 371.173305 514.282134 371.173305 
C 513.812073 371.173305 513.361202 371.360062 513.028819 371.692445 
C 512.696437 372.024828 512.50968 372.475699 512.50968 372.945759 
C 512.50968 373.41582 512.696437 373.866691 513.028819 374.199073 
C 513.361202 374.531456 513.812073 374.718213 514.282134 374.718213 
z
" style="stroke:#000000;stroke-width:0.886227;"/>
    <path clip-path="url(#p10cee42382)" d="M 541.808561 373.850284 
C 542.278621 373.850284 542.729492 373.663527 543.061875 373.331144 
C 543.394258 372.998762 543.581015 372.54789 543.581015 372.07783 
C 543.581015 371.60777 543.394258 371.156899 543.061875 370.824516 
C 542.729492 370.492133 542.278621 370.305376 541.808561 370.305376 
C 541.3385 370.305376 540.887629 370.492133 540.555247 370.824516 
C 540.222864 371.156899 540.036107 371.60777 540.036107 372.07783 
C 540.036107 372.54789 540.222864 372.998762 540.555247 373.331144 
C 540.887629 373.663527 541.3385 373.850284 541.808561 373.850284 
z
" style="stroke:#000000;stroke-width:0.886227;"/>
    <path clip-path="url(#p10cee42382)" d="M 569.334988 382.007272 
C 569.805048 382.007272 570.255919 381.820515 570.588302 381.488132 
C 570.920685 381.155749 571.107442 380.704878 571.107442 380.234818 
C 571.107442 379.764758 570.920685 379.313887 570.588302 378.981504 
C 570.255919 378.649121 569.805048 378.462364 569.334988 378.462364 
C 568.864927 378.462364 568.414056 378.649121 568.081674 378.981504 
C 567.749291 379.313887 567.562534 379.764758 567.562534 380.234818 
C 567.562534 380.704878 567.749291 381.155749 568.081674 381.488132 
C 568.414056 381.820515 568.864927 382.007272 569.334988 382.007272 
z
" style="stroke:#000000;stroke-width:0.886227;"/>
    <path clip-path="url(#p10cee42382)" d="M 596.861415 337.878235 
C 597.331475 337.878235 597.782346 337.691478 598.114729 337.359095 
C 598.447112 337.026713 598.633869 336.575842 598.633869 336.105781 
C 598.633869 335.635721 598.447112 335.18485 598.114729 334.852467 
C 597.782346 334.520084 597.331475 334.333327 596.861415 334.333327 
C 596.391355 334.333327 595.940483 334.520084 595.608101 334.852467 
C 595.275718 335.18485 595.088961 335.635721 595.088961 336.105781 
C 595.088961 336.575842 595.275718 337.026713 595.608101 337.359095 
C 595.940483 337.691478 596.391355 337.878235 596.861415 337.878235 
z
" style="stroke:#000000;stroke-width:0.886227;"/>
    <path clip-path="url(#p10cee42382)" d="M 624.387842 342.159945 
C 624.857902 342.159945 625.308773 341.973188 625.641156 341.640805 
C 625.973539 341.308423 626.160296 340.857551 626.160296 340.387491 
C 626.160296 339.917431 625.973539 339.46656 625.641156 339.134177 
C 625.308773 338.801794 624.857902 338.615037 624.387842 338.615037 
C 623.917782 338.615037 623.46691 338.801794 623.134528 339.134177 
C 622.802145 339.46656 622.615388 339.917431 622.615388 340.387491 
C 622.615388 340.857551 622.802145 341.308423 623.134528 341.640805 
C 623.46691 341.973188 623.917782 342.159945 624.387842 342.159945 
z
" style="stroke:#000000;stroke-width:0.886227;"/>
    <path clip-path="url(#p10cee42382)" d="M 651.914269 363.190758 
C 652.384329 363.190758 652.8352 363.004001 653.167583 362.671618 
C 653.499966 362.339235 653.686723 361.888364 653.686723 361.418304 
C 653.686723 360.948244 653.499966 360.497372 653.167583 360.16499 
C 652.8352 359.832607 652.384329 359.64585 651.914269 359.64585 
C 651.444209 359.64585 650.993338 359.832607 650.660955 360.16499 
C 650.328572 360.497372 650.141815 360.948244 650.141815 361.418304 
C 650.141815 361.888364 650.328572 362.339235 650.660955 362.671618 
C 650.993338 363.004001 651.444209 363.190758 651.914269 363.190758 
z
" style="stroke:#000000;stroke-width:0.886227;"/>
    <path clip-path="url(#p10cee42382)" d="M 679.440696 357.384597 
C 679.910756 357.384597 680.361627 357.19784 680.69401 356.865458 
C 681.026393 356.533075 681.21315 356.082204 681.21315 355.612144 
C 681.21315 355.142083 681.026393 354.691212 680.69401 354.358829 
C 680.361627 354.026447 679.910756 353.83969 679.440696 353.83969 
C 678.970636 353.83969 678.519765 354.026447 678.187382 354.358829 
C 677.854999 354.691212 677.668242 355.142083 677.668242 355.612144 
C 677.668242 356.082204 677.854999 356.533075 678.187382 356.865458 
C 678.519765 357.19784 678.970636 357.384597 679.440696 357.384597 
z
" style="stroke:#000000;stroke-width:0.886227;"/>
    <path clip-path="url(#p10cee42382)" d="M 706.967123 347.839869 
C 707.437183 347.839869 707.888054 347.653112 708.220437 347.32073 
C 708.55282 346.988347 708.739577 346.537476 708.739577 346.067415 
C 708.739577 345.597355 708.55282 345.146484 708.220437 344.814101 
C 707.888054 344.481719 707.437183 344.294962 706.967123 344.294962 
C 706.497063 344.294962 706.046192 344.481719 705.713809 344.814101 
C 705.381426 345.146484 705.194669 345.597355 705.194669 346.067415 
C 705.194669 346.537476 705.381426 346.988347 705.713809 347.32073 
C 706.046192 347.653112 706.497063 347.839869 706.967123 347.839869 
z
" style="stroke:#000000;stroke-width:0.886227;"/>
    <path clip-path="url(#p10cee42382)" d="M 734.49355 361.505208 
C 734.96361 361.505208 735.414481 361.318451 735.746864 360.986068 
C 736.079247 360.653685 736.266004 360.202814 736.266004 359.732754 
C 736.266004 359.262694 736.079247 358.811823 735.746864 358.47944 
C 735.414481 358.147057 734.96361 357.9603 734.49355 357.9603 
C 734.02349 357.9603 733.572619 358.147057 733.240236 358.47944 
C 732.907853 358.811823 732.721096 359.262694 732.721096 359.732754 
C 732.721096 360.202814 732.907853 360.653685 733.240236 360.986068 
C 733.572619 361.318451 734.02349 361.505208 734.49355 361.505208 
z
" style="stroke:#000000;stroke-width:0.886227;"/>
    <path clip-path="url(#p10cee42382)" d="M 762.019977 346.081266 
C 762.490037 346.081266 762.940908 345.894509 763.273291 345.562126 
C 763.605674 345.229743 763.792431 344.778872 763.792431 344.308812 
C 763.792431 343.838752 763.605674 343.387881 763.273291 343.055498 
C 762.940908 342.723115 762.490037 342.536358 762.019977 342.536358 
C 761.549917 342.536358 761.099046 342.723115 760.766663 343.055498 
C 760.43428 343.387881 760.247523 343.838752 760.247523 344.308812 
C 760.247523 344.778872 760.43428 345.229743 760.766663 345.562126 
C 761.099046 345.894509 761.549917 346.081266 762.019977 346.081266 
z
" style="stroke:#000000;stroke-width:0.886227;"/>
    <path clip-path="url(#p10cee42382)" d="M 789.546404 327.076732 
C 790.016464 327.076732 790.467336 326.889975 790.799718 326.557593 
C 791.132101 326.22521 791.318858 325.774339 791.318858 325.304279 
C 791.318858 324.834218 791.132101 324.383347 790.799718 324.050964 
C 790.467336 323.718582 790.016464 323.531825 789.546404 323.531825 
C 789.076344 323.531825 788.625473 323.718582 788.29309 324.050964 
C 787.960707 324.383347 787.77395 324.834218 787.77395 325.304279 
C 787.77395 325.774339 787.960707 326.22521 788.29309 326.557593 
C 788.625473 326.889975 789.076344 327.076732 789.546404 327.076732 
z
" style="stroke:#000000;stroke-width:0.886227;"/>
    <path clip-path="url(#p10cee42382)" d="M 817.072831 353.036347 
C 817.542892 353.036347 817.993763 352.84959 818.326145 352.517207 
C 818.658528 352.184825 818.845285 351.733953 818.845285 351.263893 
C 818.845285 350.793833 818.658528 350.342962 818.326145 350.010579 
C 817.993763 349.678196 817.542892 349.491439 817.072831 349.491439 
C 816.602771 349.491439 816.1519 349.678196 815.819517 350.010579 
C 815.487134 350.342962 815.300377 350.793833 815.300377 351.263893 
C 815.300377 351.733953 815.487134 352.184825 815.819517 352.517207 
C 816.1519 352.84959 816.602771 353.036347 817.072831 353.036347 
z
" style="stroke:#000000;stroke-width:0.886227;"/>
   </g>
   <g id="patch_9">
    <path d="M 470.23985 253.674082 
L 833.588688 253.674082 
L 833.588688 238.63 
L 470.23985 238.63 
z
" style="fill:#d9d9d9;"/>
   </g>
   <g id="PolyCollection_4">
    <path clip-path="url(#p10cee42382)" d="M 486.755707 313.593951 
L 486.755707 456.123628 
L 514.282134 447.616081 
L 541.808561 441.29182 
L 569.334988 427.328112 
L 596.861415 392.958849 
L 624.387842 389.454163 
L 651.914269 420.184598 
L 679.440696 432.723791 
L 706.967123 426.369576 
L 734.49355 409.346894 
L 762.019977 421.318517 
L 789.546404 387.29402 
L 817.072831 401.193944 
L 817.072831 301.333842 
L 817.072831 301.333842 
L 789.546404 263.314537 
L 762.019977 267.299108 
L 734.49355 310.118614 
L 706.967123 265.765254 
L 679.440696 278.500496 
L 651.914269 302.652009 
L 624.387842 291.320819 
L 596.861415 279.252714 
L 569.334988 333.141524 
L 541.808561 302.863841 
L 514.282134 298.275437 
L 486.755707 313.593951 
z
" style="fill:#333333;fill-opacity:0.501961;"/>
   </g>
   <g id="text_28">
    <!-- F1 score: &gt;50K -->
    <g style="fill:#1a1a1a;" transform="translate(618.312706 248.580291)scale(0.088 -0.088)">
     <defs>
      <path d="M 678 3150 
L 678 3719 
L 4684 2266 
L 4684 1747 
L 678 294 
L 678 863 
L 3897 2003 
L 678 3150 
z
" id="DejaVuSans-3e" transform="scale(0.015625)"/>
     </defs>
     <use xlink:href="#DejaVuSans-46"/>
     <use x="57.519531" xlink:href="#DejaVuSans-31"/>
     <use x="121.142578" xlink:href="#DejaVuSans-20"/>
     <use x="152.929688" xlink:href="#DejaVuSans-73"/>
     <use x="205.029297" xlink:href="#DejaVuSans-63"/>
     <use x="260.009766" xlink:href="#DejaVuSans-6f"/>
     <use x="321.191406" xlink:href="#DejaVuSans-72"/>
     <use x="360.054688" xlink:href="#DejaVuSans-65"/>
     <use x="421.578125" xlink:href="#DejaVuSans-3a"/>
     <use x="455.269531" xlink:href="#DejaVuSans-20"/>
     <use x="487.056641" xlink:href="#DejaVuSans-3e"/>
     <use x="570.845703" xlink:href="#DejaVuSans-35"/>
     <use x="634.46875" xlink:href="#DejaVuSans-30"/>
     <use x="698.091797" xlink:href="#DejaVuSans-4b"/>
    </g>
   </g>
  </g>
 </g>
 <defs>
  <clipPath id="pefbce0a3a5">
   <rect height="212.09" width="363.348837" x="52.388688" y="22.244082"/>
  </clipPath>
  <clipPath id="pb532ddf732">
   <rect height="212.09" width="363.348837" x="470.23985" y="22.244082"/>
  </clipPath>
  <clipPath id="p99d3dea338">
   <rect height="212.09" width="363.348837" x="52.388688" y="253.674082"/>
  </clipPath>
  <clipPath id="p10cee42382">
   <rect height="212.09" width="363.348837" x="470.23985" y="253.674082"/>
  </clipPath>
 </defs>
</svg>
