<?xml version="1.0" encoding="utf-8" standalone="no"?>
<!DOCTYPE svg PUBLIC "-//W3C//DTD SVG 1.1//EN"
  "http://www.w3.org/Graphics/SVG/1.1/DTD/svg11.dtd">
<svg height="501.47677pt" version="1.1" viewBox="0 0 975.888375 501.47677" width="975.888375pt" xmlns="http://www.w3.org/2000/svg" xmlns:xlink="http://www.w3.org/1999/xlink">
 <metadata>
  <rdf:RDF xmlns:cc="http://creativecommons.org/ns#" xmlns:dc="http://purl.org/dc/elements/1.1/" xmlns:rdf="http://www.w3.org/1999/02/22-rdf-syntax-ns#">
   <cc:Work>
    <dc:type rdf:resource="http://purl.org/dc/dcmitype/StillImage"/>
    <dc:date>2022-06-10T12:09:37.410970</dc:date>
    <dc:format>image/svg+xml</dc:format>
    <dc:creator>
     <cc:Agent>
      <dc:title>Matplotlib v3.4.3, https://matplotlib.org/</dc:title>
     </cc:Agent>
    </dc:creator>
   </cc:Work>
  </rdf:RDF>
 </metadata>
 <defs>
  <style type="text/css">*{stroke-linecap:butt;stroke-linejoin:round;}</style>
 </defs>
 <g id="figure_1">
  <g id="patch_1">
   <path d="M 0 501.47677 
L 975.888375 501.47677 
L 975.888375 0 
L 0 0 
z
" style="fill:#ffffff;stroke:#ffffff;stroke-linejoin:miter;"/>
  </g>
  <g id="axes_1">
   <g id="patch_2">
    <path d="M 52.388688 234.334082 
L 415.737525 234.334082 
L 415.737525 22.244082 
L 52.388688 22.244082 
z
" style="fill:#ebebeb;"/>
   </g>
   <g id="matplotlib.axis_1">
    <g id="xtick_1">
     <g id="line2d_1">
      <path clip-path="url(#p305a3b4b37)" d="M 123.957398 234.334082 
L 123.957398 22.244082 
" style="fill:none;stroke:#ffffff;"/>
     </g>
    </g>
    <g id="xtick_2">
     <g id="line2d_2">
      <path clip-path="url(#p305a3b4b37)" d="M 234.063106 234.334082 
L 234.063106 22.244082 
" style="fill:none;stroke:#ffffff;"/>
     </g>
    </g>
    <g id="xtick_3">
     <g id="line2d_3">
      <path clip-path="url(#p305a3b4b37)" d="M 344.168814 234.334082 
L 344.168814 22.244082 
" style="fill:none;stroke:#ffffff;"/>
     </g>
    </g>
    <g id="xtick_4">
     <g id="line2d_4">
      <path clip-path="url(#p305a3b4b37)" d="M 68.904544 234.334082 
L 68.904544 22.244082 
" style="fill:none;stroke:#ffffff;stroke-width:0.5;"/>
     </g>
    </g>
    <g id="xtick_5">
     <g id="line2d_5">
      <path clip-path="url(#p305a3b4b37)" d="M 179.010252 234.334082 
L 179.010252 22.244082 
" style="fill:none;stroke:#ffffff;stroke-width:0.5;"/>
     </g>
    </g>
    <g id="xtick_6">
     <g id="line2d_6">
      <path clip-path="url(#p305a3b4b37)" d="M 289.11596 234.334082 
L 289.11596 22.244082 
" style="fill:none;stroke:#ffffff;stroke-width:0.5;"/>
     </g>
    </g>
    <g id="xtick_7">
     <g id="line2d_7">
      <path clip-path="url(#p305a3b4b37)" d="M 399.221668 234.334082 
L 399.221668 22.244082 
" style="fill:none;stroke:#ffffff;stroke-width:0.5;"/>
     </g>
    </g>
   </g>
   <g id="matplotlib.axis_2">
    <g id="ytick_1">
     <g id="line2d_8">
      <path clip-path="url(#p305a3b4b37)" d="M 52.388688 227.622373 
L 415.737525 227.622373 
" style="fill:none;stroke:#ffffff;"/>
     </g>
     <g id="line2d_9">
      <path d="M 52.388688 227.622373 
" style="fill:none;stroke:#333333;stroke-width:1.5;"/>
      <defs>
       <path d="M 0 0 
L -2.75 0 
" id="m9467b3c3c6" style="stroke:#000000;"/>
      </defs>
      <g>
       <use style="fill:#333333;stroke:#000000;" x="52.388688" xlink:href="#m9467b3c3c6" y="227.622373"/>
      </g>
     </g>
     <g id="text_1">
      <!-- 0.839 -->
      <g style="fill:#4d4d4d;" transform="translate(22.245938 230.050623)scale(0.088 -0.088)">
       <defs>
        <path d="M 2034 4250 
Q 1547 4250 1301 3770 
Q 1056 3291 1056 2328 
Q 1056 1369 1301 889 
Q 1547 409 2034 409 
Q 2525 409 2770 889 
Q 3016 1369 3016 2328 
Q 3016 3291 2770 3770 
Q 2525 4250 2034 4250 
z
M 2034 4750 
Q 2819 4750 3233 4129 
Q 3647 3509 3647 2328 
Q 3647 1150 3233 529 
Q 2819 -91 2034 -91 
Q 1250 -91 836 529 
Q 422 1150 422 2328 
Q 422 3509 836 4129 
Q 1250 4750 2034 4750 
z
" id="DejaVuSans-30" transform="scale(0.015625)"/>
        <path d="M 684 794 
L 1344 794 
L 1344 0 
L 684 0 
L 684 794 
z
" id="DejaVuSans-2e" transform="scale(0.015625)"/>
        <path d="M 2034 2216 
Q 1584 2216 1326 1975 
Q 1069 1734 1069 1313 
Q 1069 891 1326 650 
Q 1584 409 2034 409 
Q 2484 409 2743 651 
Q 3003 894 3003 1313 
Q 3003 1734 2745 1975 
Q 2488 2216 2034 2216 
z
M 1403 2484 
Q 997 2584 770 2862 
Q 544 3141 544 3541 
Q 544 4100 942 4425 
Q 1341 4750 2034 4750 
Q 2731 4750 3128 4425 
Q 3525 4100 3525 3541 
Q 3525 3141 3298 2862 
Q 3072 2584 2669 2484 
Q 3125 2378 3379 2068 
Q 3634 1759 3634 1313 
Q 3634 634 3220 271 
Q 2806 -91 2034 -91 
Q 1263 -91 848 271 
Q 434 634 434 1313 
Q 434 1759 690 2068 
Q 947 2378 1403 2484 
z
M 1172 3481 
Q 1172 3119 1398 2916 
Q 1625 2713 2034 2713 
Q 2441 2713 2670 2916 
Q 2900 3119 2900 3481 
Q 2900 3844 2670 4047 
Q 2441 4250 2034 4250 
Q 1625 4250 1398 4047 
Q 1172 3844 1172 3481 
z
" id="DejaVuSans-38" transform="scale(0.015625)"/>
        <path d="M 2597 2516 
Q 3050 2419 3304 2112 
Q 3559 1806 3559 1356 
Q 3559 666 3084 287 
Q 2609 -91 1734 -91 
Q 1441 -91 1130 -33 
Q 819 25 488 141 
L 488 750 
Q 750 597 1062 519 
Q 1375 441 1716 441 
Q 2309 441 2620 675 
Q 2931 909 2931 1356 
Q 2931 1769 2642 2001 
Q 2353 2234 1838 2234 
L 1294 2234 
L 1294 2753 
L 1863 2753 
Q 2328 2753 2575 2939 
Q 2822 3125 2822 3475 
Q 2822 3834 2567 4026 
Q 2313 4219 1838 4219 
Q 1578 4219 1281 4162 
Q 984 4106 628 3988 
L 628 4550 
Q 988 4650 1302 4700 
Q 1616 4750 1894 4750 
Q 2613 4750 3031 4423 
Q 3450 4097 3450 3541 
Q 3450 3153 3228 2886 
Q 3006 2619 2597 2516 
z
" id="DejaVuSans-33" transform="scale(0.015625)"/>
        <path d="M 703 97 
L 703 672 
Q 941 559 1184 500 
Q 1428 441 1663 441 
Q 2288 441 2617 861 
Q 2947 1281 2994 2138 
Q 2813 1869 2534 1725 
Q 2256 1581 1919 1581 
Q 1219 1581 811 2004 
Q 403 2428 403 3163 
Q 403 3881 828 4315 
Q 1253 4750 1959 4750 
Q 2769 4750 3195 4129 
Q 3622 3509 3622 2328 
Q 3622 1225 3098 567 
Q 2575 -91 1691 -91 
Q 1453 -91 1209 -44 
Q 966 3 703 97 
z
M 1959 2075 
Q 2384 2075 2632 2365 
Q 2881 2656 2881 3163 
Q 2881 3666 2632 3958 
Q 2384 4250 1959 4250 
Q 1534 4250 1286 3958 
Q 1038 3666 1038 3163 
Q 1038 2656 1286 2365 
Q 1534 2075 1959 2075 
z
" id="DejaVuSans-39" transform="scale(0.015625)"/>
       </defs>
       <use xlink:href="#DejaVuSans-30"/>
       <use x="63.623047" xlink:href="#DejaVuSans-2e"/>
       <use x="95.410156" xlink:href="#DejaVuSans-38"/>
       <use x="159.033203" xlink:href="#DejaVuSans-33"/>
       <use x="222.65625" xlink:href="#DejaVuSans-39"/>
      </g>
     </g>
    </g>
    <g id="ytick_2">
     <g id="line2d_10">
      <path clip-path="url(#p305a3b4b37)" d="M 52.388688 181.677676 
L 415.737525 181.677676 
" style="fill:none;stroke:#ffffff;"/>
     </g>
     <g id="line2d_11">
      <path d="M 52.388688 181.677676 
" style="fill:none;stroke:#333333;stroke-width:1.5;"/>
      <g>
       <use style="fill:#333333;stroke:#000000;" x="52.388688" xlink:href="#m9467b3c3c6" y="181.677676"/>
      </g>
     </g>
     <g id="text_2">
      <!-- 0.840 -->
      <g style="fill:#4d4d4d;" transform="translate(22.245938 184.105926)scale(0.088 -0.088)">
       <defs>
        <path d="M 2419 4116 
L 825 1625 
L 2419 1625 
L 2419 4116 
z
M 2253 4666 
L 3047 4666 
L 3047 1625 
L 3713 1625 
L 3713 1100 
L 3047 1100 
L 3047 0 
L 2419 0 
L 2419 1100 
L 313 1100 
L 313 1709 
L 2253 4666 
z
" id="DejaVuSans-34" transform="scale(0.015625)"/>
       </defs>
       <use xlink:href="#DejaVuSans-30"/>
       <use x="63.623047" xlink:href="#DejaVuSans-2e"/>
       <use x="95.410156" xlink:href="#DejaVuSans-38"/>
       <use x="159.033203" xlink:href="#DejaVuSans-34"/>
       <use x="222.65625" xlink:href="#DejaVuSans-30"/>
      </g>
     </g>
    </g>
    <g id="ytick_3">
     <g id="line2d_12">
      <path clip-path="url(#p305a3b4b37)" d="M 52.388688 135.732978 
L 415.737525 135.732978 
" style="fill:none;stroke:#ffffff;"/>
     </g>
     <g id="line2d_13">
      <path d="M 52.388688 135.732978 
" style="fill:none;stroke:#333333;stroke-width:1.5;"/>
      <g>
       <use style="fill:#333333;stroke:#000000;" x="52.388688" xlink:href="#m9467b3c3c6" y="135.732978"/>
      </g>
     </g>
     <g id="text_3">
      <!-- 0.841 -->
      <g style="fill:#4d4d4d;" transform="translate(22.245938 138.161228)scale(0.088 -0.088)">
       <defs>
        <path d="M 794 531 
L 1825 531 
L 1825 4091 
L 703 3866 
L 703 4441 
L 1819 4666 
L 2450 4666 
L 2450 531 
L 3481 531 
L 3481 0 
L 794 0 
L 794 531 
z
" id="DejaVuSans-31" transform="scale(0.015625)"/>
       </defs>
       <use xlink:href="#DejaVuSans-30"/>
       <use x="63.623047" xlink:href="#DejaVuSans-2e"/>
       <use x="95.410156" xlink:href="#DejaVuSans-38"/>
       <use x="159.033203" xlink:href="#DejaVuSans-34"/>
       <use x="222.65625" xlink:href="#DejaVuSans-31"/>
      </g>
     </g>
    </g>
    <g id="ytick_4">
     <g id="line2d_14">
      <path clip-path="url(#p305a3b4b37)" d="M 52.388688 89.78828 
L 415.737525 89.78828 
" style="fill:none;stroke:#ffffff;"/>
     </g>
     <g id="line2d_15">
      <path d="M 52.388688 89.78828 
" style="fill:none;stroke:#333333;stroke-width:1.5;"/>
      <g>
       <use style="fill:#333333;stroke:#000000;" x="52.388688" xlink:href="#m9467b3c3c6" y="89.78828"/>
      </g>
     </g>
     <g id="text_4">
      <!-- 0.842 -->
      <g style="fill:#4d4d4d;" transform="translate(22.245938 92.21653)scale(0.088 -0.088)">
       <defs>
        <path d="M 1228 531 
L 3431 531 
L 3431 0 
L 469 0 
L 469 531 
Q 828 903 1448 1529 
Q 2069 2156 2228 2338 
Q 2531 2678 2651 2914 
Q 2772 3150 2772 3378 
Q 2772 3750 2511 3984 
Q 2250 4219 1831 4219 
Q 1534 4219 1204 4116 
Q 875 4013 500 3803 
L 500 4441 
Q 881 4594 1212 4672 
Q 1544 4750 1819 4750 
Q 2544 4750 2975 4387 
Q 3406 4025 3406 3419 
Q 3406 3131 3298 2873 
Q 3191 2616 2906 2266 
Q 2828 2175 2409 1742 
Q 1991 1309 1228 531 
z
" id="DejaVuSans-32" transform="scale(0.015625)"/>
       </defs>
       <use xlink:href="#DejaVuSans-30"/>
       <use x="63.623047" xlink:href="#DejaVuSans-2e"/>
       <use x="95.410156" xlink:href="#DejaVuSans-38"/>
       <use x="159.033203" xlink:href="#DejaVuSans-34"/>
       <use x="222.65625" xlink:href="#DejaVuSans-32"/>
      </g>
     </g>
    </g>
    <g id="ytick_5">
     <g id="line2d_16">
      <path clip-path="url(#p305a3b4b37)" d="M 52.388688 43.843582 
L 415.737525 43.843582 
" style="fill:none;stroke:#ffffff;"/>
     </g>
     <g id="line2d_17">
      <path d="M 52.388688 43.843582 
" style="fill:none;stroke:#333333;stroke-width:1.5;"/>
      <g>
       <use style="fill:#333333;stroke:#000000;" x="52.388688" xlink:href="#m9467b3c3c6" y="43.843582"/>
      </g>
     </g>
     <g id="text_5">
      <!-- 0.843 -->
      <g style="fill:#4d4d4d;" transform="translate(22.245938 46.271832)scale(0.088 -0.088)">
       <use xlink:href="#DejaVuSans-30"/>
       <use x="63.623047" xlink:href="#DejaVuSans-2e"/>
       <use x="95.410156" xlink:href="#DejaVuSans-38"/>
       <use x="159.033203" xlink:href="#DejaVuSans-34"/>
       <use x="222.65625" xlink:href="#DejaVuSans-33"/>
      </g>
     </g>
    </g>
    <g id="ytick_6">
     <g id="line2d_18">
      <path clip-path="url(#p305a3b4b37)" d="M 52.388688 204.650025 
L 415.737525 204.650025 
" style="fill:none;stroke:#ffffff;stroke-width:0.5;"/>
     </g>
    </g>
    <g id="ytick_7">
     <g id="line2d_19">
      <path clip-path="url(#p305a3b4b37)" d="M 52.388688 158.705327 
L 415.737525 158.705327 
" style="fill:none;stroke:#ffffff;stroke-width:0.5;"/>
     </g>
    </g>
    <g id="ytick_8">
     <g id="line2d_20">
      <path clip-path="url(#p305a3b4b37)" d="M 52.388688 112.760629 
L 415.737525 112.760629 
" style="fill:none;stroke:#ffffff;stroke-width:0.5;"/>
     </g>
    </g>
    <g id="ytick_9">
     <g id="line2d_21">
      <path clip-path="url(#p305a3b4b37)" d="M 52.388688 66.815931 
L 415.737525 66.815931 
" style="fill:none;stroke:#ffffff;stroke-width:0.5;"/>
     </g>
    </g>
    <g id="text_6">
     <!-- Value -->
     <g transform="translate(15.558281 256.228457)rotate(-90)scale(0.11 -0.11)">
      <defs>
       <path d="M 1831 0 
L 50 4666 
L 709 4666 
L 2188 738 
L 3669 4666 
L 4325 4666 
L 2547 0 
L 1831 0 
z
" id="DejaVuSans-56" transform="scale(0.015625)"/>
       <path d="M 2194 1759 
Q 1497 1759 1228 1600 
Q 959 1441 959 1056 
Q 959 750 1161 570 
Q 1363 391 1709 391 
Q 2188 391 2477 730 
Q 2766 1069 2766 1631 
L 2766 1759 
L 2194 1759 
z
M 3341 1997 
L 3341 0 
L 2766 0 
L 2766 531 
Q 2569 213 2275 61 
Q 1981 -91 1556 -91 
Q 1019 -91 701 211 
Q 384 513 384 1019 
Q 384 1609 779 1909 
Q 1175 2209 1959 2209 
L 2766 2209 
L 2766 2266 
Q 2766 2663 2505 2880 
Q 2244 3097 1772 3097 
Q 1472 3097 1187 3025 
Q 903 2953 641 2809 
L 641 3341 
Q 956 3463 1253 3523 
Q 1550 3584 1831 3584 
Q 2591 3584 2966 3190 
Q 3341 2797 3341 1997 
z
" id="DejaVuSans-61" transform="scale(0.015625)"/>
       <path d="M 603 4863 
L 1178 4863 
L 1178 0 
L 603 0 
L 603 4863 
z
" id="DejaVuSans-6c" transform="scale(0.015625)"/>
       <path d="M 544 1381 
L 544 3500 
L 1119 3500 
L 1119 1403 
Q 1119 906 1312 657 
Q 1506 409 1894 409 
Q 2359 409 2629 706 
Q 2900 1003 2900 1516 
L 2900 3500 
L 3475 3500 
L 3475 0 
L 2900 0 
L 2900 538 
Q 2691 219 2414 64 
Q 2138 -91 1772 -91 
Q 1169 -91 856 284 
Q 544 659 544 1381 
z
M 1991 3584 
L 1991 3584 
z
" id="DejaVuSans-75" transform="scale(0.015625)"/>
       <path d="M 3597 1894 
L 3597 1613 
L 953 1613 
Q 991 1019 1311 708 
Q 1631 397 2203 397 
Q 2534 397 2845 478 
Q 3156 559 3463 722 
L 3463 178 
Q 3153 47 2828 -22 
Q 2503 -91 2169 -91 
Q 1331 -91 842 396 
Q 353 884 353 1716 
Q 353 2575 817 3079 
Q 1281 3584 2069 3584 
Q 2775 3584 3186 3129 
Q 3597 2675 3597 1894 
z
M 3022 2063 
Q 3016 2534 2758 2815 
Q 2500 3097 2075 3097 
Q 1594 3097 1305 2825 
Q 1016 2553 972 2059 
L 3022 2063 
z
" id="DejaVuSans-65" transform="scale(0.015625)"/>
      </defs>
      <use xlink:href="#DejaVuSans-56"/>
      <use x="60.658203" xlink:href="#DejaVuSans-61"/>
      <use x="121.9375" xlink:href="#DejaVuSans-6c"/>
      <use x="149.720703" xlink:href="#DejaVuSans-75"/>
      <use x="213.099609" xlink:href="#DejaVuSans-65"/>
     </g>
    </g>
   </g>
   <g id="line2d_22">
    <path clip-path="url(#p305a3b4b37)" d="M 68.904544 31.884537 
L 123.957398 60.866916 
L 179.010252 72.459868 
L 234.063106 190.21985 
L 289.11596 77.036033 
L 344.168814 211.880365 
L 399.221668 183.813219 
" style="fill:none;stroke:#db5f57;stroke-width:0.886227;"/>
   </g>
   <g id="line2d_23">
    <path clip-path="url(#p305a3b4b37)" d="M 68.904544 58.731372 
L 123.957398 35.240391 
L 179.010252 106.933645 
L 234.063106 99.306703 
L 289.11596 110.899655 
L 344.168814 170.999957 
L 399.221668 224.693628 
" style="fill:none;stroke:#57d3db;stroke-width:0.886227;"/>
   </g>
   <g id="PathCollection_1">
    <path clip-path="url(#p305a3b4b37)" d="M 68.904544 33.656991 
C 69.374604 33.656991 69.825475 33.470234 70.157858 33.137851 
C 70.490241 32.805468 70.676998 32.354597 70.676998 31.884537 
C 70.676998 31.414477 70.490241 30.963606 70.157858 30.631223 
C 69.825475 30.29884 69.374604 30.112083 68.904544 30.112083 
C 68.434483 30.112083 67.983612 30.29884 67.65123 30.631223 
C 67.318847 30.963606 67.13209 31.414477 67.13209 31.884537 
C 67.13209 32.354597 67.318847 32.805468 67.65123 33.137851 
C 67.983612 33.470234 68.434483 33.656991 68.904544 33.656991 
z
" style="fill:#db5f57;stroke:#db5f57;stroke-width:0.886227;"/>
    <path clip-path="url(#p305a3b4b37)" d="M 68.904544 60.503826 
C 69.374604 60.503826 69.825475 60.317069 70.157858 59.984686 
C 70.490241 59.652304 70.676998 59.201433 70.676998 58.731372 
C 70.676998 58.261312 70.490241 57.810441 70.157858 57.478058 
C 69.825475 57.145675 69.374604 56.958918 68.904544 56.958918 
C 68.434483 56.958918 67.983612 57.145675 67.65123 57.478058 
C 67.318847 57.810441 67.13209 58.261312 67.13209 58.731372 
C 67.13209 59.201433 67.318847 59.652304 67.65123 59.984686 
C 67.983612 60.317069 68.434483 60.503826 68.904544 60.503826 
z
" style="fill:#57d3db;stroke:#57d3db;stroke-width:0.886227;"/>
    <path clip-path="url(#p305a3b4b37)" d="M 123.957398 62.63937 
C 124.427458 62.63937 124.878329 62.452613 125.210712 62.12023 
C 125.543095 61.787847 125.729852 61.336976 125.729852 60.866916 
C 125.729852 60.396856 125.543095 59.945985 125.210712 59.613602 
C 124.878329 59.281219 124.427458 59.094462 123.957398 59.094462 
C 123.487338 59.094462 123.036467 59.281219 122.704084 59.613602 
C 122.371701 59.945985 122.184944 60.396856 122.184944 60.866916 
C 122.184944 61.336976 122.371701 61.787847 122.704084 62.12023 
C 123.036467 62.452613 123.487338 62.63937 123.957398 62.63937 
z
" style="fill:#db5f57;stroke:#db5f57;stroke-width:0.886227;"/>
    <path clip-path="url(#p305a3b4b37)" d="M 123.957398 37.012845 
C 124.427458 37.012845 124.878329 36.826088 125.210712 36.493705 
C 125.543095 36.161323 125.729852 35.710452 125.729852 35.240391 
C 125.729852 34.770331 125.543095 34.31946 125.210712 33.987077 
C 124.878329 33.654694 124.427458 33.467937 123.957398 33.467937 
C 123.487338 33.467937 123.036467 33.654694 122.704084 33.987077 
C 122.371701 34.31946 122.184944 34.770331 122.184944 35.240391 
C 122.184944 35.710452 122.371701 36.161323 122.704084 36.493705 
C 123.036467 36.826088 123.487338 37.012845 123.957398 37.012845 
z
" style="fill:#57d3db;stroke:#57d3db;stroke-width:0.886227;"/>
    <path clip-path="url(#p305a3b4b37)" d="M 179.010252 74.232322 
C 179.480312 74.232322 179.931183 74.045565 180.263566 73.713182 
C 180.595949 73.380799 180.782706 72.929928 180.782706 72.459868 
C 180.782706 71.989807 180.595949 71.538936 180.263566 71.206554 
C 179.931183 70.874171 179.480312 70.687414 179.010252 70.687414 
C 178.540192 70.687414 178.089321 70.874171 177.756938 71.206554 
C 177.424555 71.538936 177.237798 71.989807 177.237798 72.459868 
C 177.237798 72.929928 177.424555 73.380799 177.756938 73.713182 
C 178.089321 74.045565 178.540192 74.232322 179.010252 74.232322 
z
" style="fill:#db5f57;stroke:#db5f57;stroke-width:0.886227;"/>
    <path clip-path="url(#p305a3b4b37)" d="M 179.010252 108.706099 
C 179.480312 108.706099 179.931183 108.519342 180.263566 108.186959 
C 180.595949 107.854576 180.782706 107.403705 180.782706 106.933645 
C 180.782706 106.463585 180.595949 106.012714 180.263566 105.680331 
C 179.931183 105.347948 179.480312 105.161191 179.010252 105.161191 
C 178.540192 105.161191 178.089321 105.347948 177.756938 105.680331 
C 177.424555 106.012714 177.237798 106.463585 177.237798 106.933645 
C 177.237798 107.403705 177.424555 107.854576 177.756938 108.186959 
C 178.089321 108.519342 178.540192 108.706099 179.010252 108.706099 
z
" style="fill:#57d3db;stroke:#57d3db;stroke-width:0.886227;"/>
    <path clip-path="url(#p305a3b4b37)" d="M 234.063106 191.992304 
C 234.533166 191.992304 234.984037 191.805547 235.31642 191.473165 
C 235.648803 191.140782 235.83556 190.689911 235.83556 190.21985 
C 235.83556 189.74979 235.648803 189.298919 235.31642 188.966536 
C 234.984037 188.634154 234.533166 188.447397 234.063106 188.447397 
C 233.593046 188.447397 233.142175 188.634154 232.809792 188.966536 
C 232.477409 189.298919 232.290652 189.74979 232.290652 190.21985 
C 232.290652 190.689911 232.477409 191.140782 232.809792 191.473165 
C 233.142175 191.805547 233.593046 191.992304 234.063106 191.992304 
z
" style="fill:#db5f57;stroke:#db5f57;stroke-width:0.886227;"/>
    <path clip-path="url(#p305a3b4b37)" d="M 234.063106 101.079157 
C 234.533166 101.079157 234.984037 100.8924 235.31642 100.560017 
C 235.648803 100.227635 235.83556 99.776763 235.83556 99.306703 
C 235.83556 98.836643 235.648803 98.385772 235.31642 98.053389 
C 234.984037 97.721006 234.533166 97.534249 234.063106 97.534249 
C 233.593046 97.534249 233.142175 97.721006 232.809792 98.053389 
C 232.477409 98.385772 232.290652 98.836643 232.290652 99.306703 
C 232.290652 99.776763 232.477409 100.227635 232.809792 100.560017 
C 233.142175 100.8924 233.593046 101.079157 234.063106 101.079157 
z
" style="fill:#57d3db;stroke:#57d3db;stroke-width:0.886227;"/>
    <path clip-path="url(#p305a3b4b37)" d="M 289.11596 78.808487 
C 289.58602 78.808487 290.036892 78.62173 290.369274 78.289347 
C 290.701657 77.956964 290.888414 77.506093 290.888414 77.036033 
C 290.888414 76.565973 290.701657 76.115102 290.369274 75.782719 
C 290.036892 75.450336 289.58602 75.263579 289.11596 75.263579 
C 288.6459 75.263579 288.195029 75.450336 287.862646 75.782719 
C 287.530263 76.115102 287.343506 76.565973 287.343506 77.036033 
C 287.343506 77.506093 287.530263 77.956964 287.862646 78.289347 
C 288.195029 78.62173 288.6459 78.808487 289.11596 78.808487 
z
" style="fill:#db5f57;stroke:#db5f57;stroke-width:0.886227;"/>
    <path clip-path="url(#p305a3b4b37)" d="M 289.11596 112.672109 
C 289.58602 112.672109 290.036892 112.485352 290.369274 112.152969 
C 290.701657 111.820586 290.888414 111.369715 290.888414 110.899655 
C 290.888414 110.429595 290.701657 109.978723 290.369274 109.646341 
C 290.036892 109.313958 289.58602 109.127201 289.11596 109.127201 
C 288.6459 109.127201 288.195029 109.313958 287.862646 109.646341 
C 287.530263 109.978723 287.343506 110.429595 287.343506 110.899655 
C 287.343506 111.369715 287.530263 111.820586 287.862646 112.152969 
C 288.195029 112.485352 288.6459 112.672109 289.11596 112.672109 
z
" style="fill:#57d3db;stroke:#57d3db;stroke-width:0.886227;"/>
    <path clip-path="url(#p305a3b4b37)" d="M 344.168814 213.652819 
C 344.638875 213.652819 345.089746 213.466062 345.422128 213.13368 
C 345.754511 212.801297 345.941268 212.350426 345.941268 211.880365 
C 345.941268 211.410305 345.754511 210.959434 345.422128 210.627051 
C 345.089746 210.294668 344.638875 210.107912 344.168814 210.107912 
C 343.698754 210.107912 343.247883 210.294668 342.9155 210.627051 
C 342.583117 210.959434 342.39636 211.410305 342.39636 211.880365 
C 342.39636 212.350426 342.583117 212.801297 342.9155 213.13368 
C 343.247883 213.466062 343.698754 213.652819 344.168814 213.652819 
z
" style="fill:#db5f57;stroke:#db5f57;stroke-width:0.886227;"/>
    <path clip-path="url(#p305a3b4b37)" d="M 344.168814 172.772411 
C 344.638875 172.772411 345.089746 172.585654 345.422128 172.253271 
C 345.754511 171.920888 345.941268 171.470017 345.941268 170.999957 
C 345.941268 170.529897 345.754511 170.079026 345.422128 169.746643 
C 345.089746 169.41426 344.638875 169.227503 344.168814 169.227503 
C 343.698754 169.227503 343.247883 169.41426 342.9155 169.746643 
C 342.583117 170.079026 342.39636 170.529897 342.39636 170.999957 
C 342.39636 171.470017 342.583117 171.920888 342.9155 172.253271 
C 343.247883 172.585654 343.698754 172.772411 344.168814 172.772411 
z
" style="fill:#57d3db;stroke:#57d3db;stroke-width:0.886227;"/>
    <path clip-path="url(#p305a3b4b37)" d="M 399.221668 185.585673 
C 399.691729 185.585673 400.1426 185.398916 400.474983 185.066533 
C 400.807365 184.734151 400.994122 184.28328 400.994122 183.813219 
C 400.994122 183.343159 400.807365 182.892288 400.474983 182.559905 
C 400.1426 182.227522 399.691729 182.040765 399.221668 182.040765 
C 398.751608 182.040765 398.300737 182.227522 397.968354 182.559905 
C 397.635972 182.892288 397.449215 183.343159 397.449215 183.813219 
C 397.449215 184.28328 397.635972 184.734151 397.968354 185.066533 
C 398.300737 185.398916 398.751608 185.585673 399.221668 185.585673 
z
" style="fill:#db5f57;stroke:#db5f57;stroke-width:0.886227;"/>
    <path clip-path="url(#p305a3b4b37)" d="M 399.221668 226.466082 
C 399.691729 226.466082 400.1426 226.279325 400.474983 225.946942 
C 400.807365 225.614559 400.994122 225.163688 400.994122 224.693628 
C 400.994122 224.223568 400.807365 223.772696 400.474983 223.440314 
C 400.1426 223.107931 399.691729 222.921174 399.221668 222.921174 
C 398.751608 222.921174 398.300737 223.107931 397.968354 223.440314 
C 397.635972 223.772696 397.449215 224.223568 397.449215 224.693628 
C 397.449215 225.163688 397.635972 225.614559 397.968354 225.946942 
C 398.300737 226.279325 398.751608 226.466082 399.221668 226.466082 
z
" style="fill:#57d3db;stroke:#57d3db;stroke-width:0.886227;"/>
   </g>
   <g id="patch_3">
    <path d="M 52.388688 22.244082 
L 415.737525 22.244082 
L 415.737525 7.2 
L 52.388688 7.2 
z
" style="fill:#d9d9d9;"/>
   </g>
   <g id="text_7">
    <!-- Accuracy -->
    <g style="fill:#1a1a1a;" transform="translate(213.974356 17.150291)scale(0.088 -0.088)">
     <defs>
      <path d="M 2188 4044 
L 1331 1722 
L 3047 1722 
L 2188 4044 
z
M 1831 4666 
L 2547 4666 
L 4325 0 
L 3669 0 
L 3244 1197 
L 1141 1197 
L 716 0 
L 50 0 
L 1831 4666 
z
" id="DejaVuSans-41" transform="scale(0.015625)"/>
      <path d="M 3122 3366 
L 3122 2828 
Q 2878 2963 2633 3030 
Q 2388 3097 2138 3097 
Q 1578 3097 1268 2742 
Q 959 2388 959 1747 
Q 959 1106 1268 751 
Q 1578 397 2138 397 
Q 2388 397 2633 464 
Q 2878 531 3122 666 
L 3122 134 
Q 2881 22 2623 -34 
Q 2366 -91 2075 -91 
Q 1284 -91 818 406 
Q 353 903 353 1747 
Q 353 2603 823 3093 
Q 1294 3584 2113 3584 
Q 2378 3584 2631 3529 
Q 2884 3475 3122 3366 
z
" id="DejaVuSans-63" transform="scale(0.015625)"/>
      <path d="M 2631 2963 
Q 2534 3019 2420 3045 
Q 2306 3072 2169 3072 
Q 1681 3072 1420 2755 
Q 1159 2438 1159 1844 
L 1159 0 
L 581 0 
L 581 3500 
L 1159 3500 
L 1159 2956 
Q 1341 3275 1631 3429 
Q 1922 3584 2338 3584 
Q 2397 3584 2469 3576 
Q 2541 3569 2628 3553 
L 2631 2963 
z
" id="DejaVuSans-72" transform="scale(0.015625)"/>
      <path d="M 2059 -325 
Q 1816 -950 1584 -1140 
Q 1353 -1331 966 -1331 
L 506 -1331 
L 506 -850 
L 844 -850 
Q 1081 -850 1212 -737 
Q 1344 -625 1503 -206 
L 1606 56 
L 191 3500 
L 800 3500 
L 1894 763 
L 2988 3500 
L 3597 3500 
L 2059 -325 
z
" id="DejaVuSans-79" transform="scale(0.015625)"/>
     </defs>
     <use xlink:href="#DejaVuSans-41"/>
     <use x="66.658203" xlink:href="#DejaVuSans-63"/>
     <use x="121.638672" xlink:href="#DejaVuSans-63"/>
     <use x="176.619141" xlink:href="#DejaVuSans-75"/>
     <use x="239.998047" xlink:href="#DejaVuSans-72"/>
     <use x="281.111328" xlink:href="#DejaVuSans-61"/>
     <use x="342.390625" xlink:href="#DejaVuSans-63"/>
     <use x="397.371094" xlink:href="#DejaVuSans-79"/>
    </g>
   </g>
   <g id="patch_4">
    <path d="M 840.788688 277.687051 
L 968.688375 277.687051 
L 968.688375 204.561114 
L 840.788688 204.561114 
z
" style="fill:#ffffff;"/>
   </g>
   <g id="text_8">
    <!-- Activation function -->
    <g transform="translate(852.988688 228.154707)scale(0.11 -0.11)">
     <defs>
      <path d="M 1172 4494 
L 1172 3500 
L 2356 3500 
L 2356 3053 
L 1172 3053 
L 1172 1153 
Q 1172 725 1289 603 
Q 1406 481 1766 481 
L 2356 481 
L 2356 0 
L 1766 0 
Q 1100 0 847 248 
Q 594 497 594 1153 
L 594 3053 
L 172 3053 
L 172 3500 
L 594 3500 
L 594 4494 
L 1172 4494 
z
" id="DejaVuSans-74" transform="scale(0.015625)"/>
      <path d="M 603 3500 
L 1178 3500 
L 1178 0 
L 603 0 
L 603 3500 
z
M 603 4863 
L 1178 4863 
L 1178 4134 
L 603 4134 
L 603 4863 
z
" id="DejaVuSans-69" transform="scale(0.015625)"/>
      <path d="M 191 3500 
L 800 3500 
L 1894 563 
L 2988 3500 
L 3597 3500 
L 2284 0 
L 1503 0 
L 191 3500 
z
" id="DejaVuSans-76" transform="scale(0.015625)"/>
      <path d="M 1959 3097 
Q 1497 3097 1228 2736 
Q 959 2375 959 1747 
Q 959 1119 1226 758 
Q 1494 397 1959 397 
Q 2419 397 2687 759 
Q 2956 1122 2956 1747 
Q 2956 2369 2687 2733 
Q 2419 3097 1959 3097 
z
M 1959 3584 
Q 2709 3584 3137 3096 
Q 3566 2609 3566 1747 
Q 3566 888 3137 398 
Q 2709 -91 1959 -91 
Q 1206 -91 779 398 
Q 353 888 353 1747 
Q 353 2609 779 3096 
Q 1206 3584 1959 3584 
z
" id="DejaVuSans-6f" transform="scale(0.015625)"/>
      <path d="M 3513 2113 
L 3513 0 
L 2938 0 
L 2938 2094 
Q 2938 2591 2744 2837 
Q 2550 3084 2163 3084 
Q 1697 3084 1428 2787 
Q 1159 2491 1159 1978 
L 1159 0 
L 581 0 
L 581 3500 
L 1159 3500 
L 1159 2956 
Q 1366 3272 1645 3428 
Q 1925 3584 2291 3584 
Q 2894 3584 3203 3211 
Q 3513 2838 3513 2113 
z
" id="DejaVuSans-6e" transform="scale(0.015625)"/>
      <path id="DejaVuSans-20" transform="scale(0.015625)"/>
      <path d="M 2375 4863 
L 2375 4384 
L 1825 4384 
Q 1516 4384 1395 4259 
Q 1275 4134 1275 3809 
L 1275 3500 
L 2222 3500 
L 2222 3053 
L 1275 3053 
L 1275 0 
L 697 0 
L 697 3053 
L 147 3053 
L 147 3500 
L 697 3500 
L 697 3744 
Q 697 4328 969 4595 
Q 1241 4863 1831 4863 
L 2375 4863 
z
" id="DejaVuSans-66" transform="scale(0.015625)"/>
     </defs>
     <use xlink:href="#DejaVuSans-41"/>
     <use x="66.658203" xlink:href="#DejaVuSans-63"/>
     <use x="121.638672" xlink:href="#DejaVuSans-74"/>
     <use x="160.847656" xlink:href="#DejaVuSans-69"/>
     <use x="188.630859" xlink:href="#DejaVuSans-76"/>
     <use x="247.810547" xlink:href="#DejaVuSans-61"/>
     <use x="309.089844" xlink:href="#DejaVuSans-74"/>
     <use x="348.298828" xlink:href="#DejaVuSans-69"/>
     <use x="376.082031" xlink:href="#DejaVuSans-6f"/>
     <use x="437.263672" xlink:href="#DejaVuSans-6e"/>
     <use x="500.642578" xlink:href="#DejaVuSans-20"/>
     <use x="532.429688" xlink:href="#DejaVuSans-66"/>
     <use x="567.634766" xlink:href="#DejaVuSans-75"/>
     <use x="631.013672" xlink:href="#DejaVuSans-6e"/>
     <use x="694.392578" xlink:href="#DejaVuSans-63"/>
     <use x="749.373047" xlink:href="#DejaVuSans-74"/>
     <use x="788.582031" xlink:href="#DejaVuSans-69"/>
     <use x="816.365234" xlink:href="#DejaVuSans-6f"/>
     <use x="877.546875" xlink:href="#DejaVuSans-6e"/>
    </g>
   </g>
   <g id="patch_5">
    <path clip-path="url(#p400b957960)" d="M 852.988688 247.647051 
L 868.828688 247.647051 
L 868.828688 231.807051 
L 852.988688 231.807051 
z
" style="fill:#f2f2f2;"/>
   </g>
   <g id="line2d_24">
    <path clip-path="url(#p400b957960)" d="M 852.988688 239.727051 
L 868.828688 239.727051 
" style="fill:none;stroke:#db5f57;stroke-width:0.886227;"/>
   </g>
   <g id="line2d_25">
    <path clip-path="url(#p400b957960)" d="M 860.908688 239.727051 
" style="fill:none;stroke:#1f77b4;stroke-linecap:square;stroke-width:1.5;"/>
    <defs>
     <path d="M 0 1.772454 
C 0.47006 1.772454 0.920931 1.585697 1.253314 1.253314 
C 1.585697 0.920931 1.772454 0.47006 1.772454 0 
C 1.772454 -0.47006 1.585697 -0.920931 1.253314 -1.253314 
C 0.920931 -1.585697 0.47006 -1.772454 0 -1.772454 
C -0.47006 -1.772454 -0.920931 -1.585697 -1.253314 -1.253314 
C -1.585697 -0.920931 -1.772454 -0.47006 -1.772454 0 
C -1.772454 0.47006 -1.585697 0.920931 -1.253314 1.253314 
C -0.920931 1.585697 -0.47006 1.772454 0 1.772454 
z
" id="m52063c280b" style="stroke:#db5f57;stroke-width:0.886227;"/>
    </defs>
    <g clip-path="url(#p400b957960)">
     <use style="fill:#db5f57;stroke:#db5f57;stroke-width:0.886227;" x="860.908688" xlink:href="#m52063c280b" y="239.727051"/>
    </g>
   </g>
   <g id="text_9">
    <!-- gumbel -->
    <g transform="translate(871.828688 242.155301)scale(0.088 -0.088)">
     <defs>
      <path d="M 2906 1791 
Q 2906 2416 2648 2759 
Q 2391 3103 1925 3103 
Q 1463 3103 1205 2759 
Q 947 2416 947 1791 
Q 947 1169 1205 825 
Q 1463 481 1925 481 
Q 2391 481 2648 825 
Q 2906 1169 2906 1791 
z
M 3481 434 
Q 3481 -459 3084 -895 
Q 2688 -1331 1869 -1331 
Q 1566 -1331 1297 -1286 
Q 1028 -1241 775 -1147 
L 775 -588 
Q 1028 -725 1275 -790 
Q 1522 -856 1778 -856 
Q 2344 -856 2625 -561 
Q 2906 -266 2906 331 
L 2906 616 
Q 2728 306 2450 153 
Q 2172 0 1784 0 
Q 1141 0 747 490 
Q 353 981 353 1791 
Q 353 2603 747 3093 
Q 1141 3584 1784 3584 
Q 2172 3584 2450 3431 
Q 2728 3278 2906 2969 
L 2906 3500 
L 3481 3500 
L 3481 434 
z
" id="DejaVuSans-67" transform="scale(0.015625)"/>
      <path d="M 3328 2828 
Q 3544 3216 3844 3400 
Q 4144 3584 4550 3584 
Q 5097 3584 5394 3201 
Q 5691 2819 5691 2113 
L 5691 0 
L 5113 0 
L 5113 2094 
Q 5113 2597 4934 2840 
Q 4756 3084 4391 3084 
Q 3944 3084 3684 2787 
Q 3425 2491 3425 1978 
L 3425 0 
L 2847 0 
L 2847 2094 
Q 2847 2600 2669 2842 
Q 2491 3084 2119 3084 
Q 1678 3084 1418 2786 
Q 1159 2488 1159 1978 
L 1159 0 
L 581 0 
L 581 3500 
L 1159 3500 
L 1159 2956 
Q 1356 3278 1631 3431 
Q 1906 3584 2284 3584 
Q 2666 3584 2933 3390 
Q 3200 3197 3328 2828 
z
" id="DejaVuSans-6d" transform="scale(0.015625)"/>
      <path d="M 3116 1747 
Q 3116 2381 2855 2742 
Q 2594 3103 2138 3103 
Q 1681 3103 1420 2742 
Q 1159 2381 1159 1747 
Q 1159 1113 1420 752 
Q 1681 391 2138 391 
Q 2594 391 2855 752 
Q 3116 1113 3116 1747 
z
M 1159 2969 
Q 1341 3281 1617 3432 
Q 1894 3584 2278 3584 
Q 2916 3584 3314 3078 
Q 3713 2572 3713 1747 
Q 3713 922 3314 415 
Q 2916 -91 2278 -91 
Q 1894 -91 1617 61 
Q 1341 213 1159 525 
L 1159 0 
L 581 0 
L 581 4863 
L 1159 4863 
L 1159 2969 
z
" id="DejaVuSans-62" transform="scale(0.015625)"/>
     </defs>
     <use xlink:href="#DejaVuSans-67"/>
     <use x="63.476562" xlink:href="#DejaVuSans-75"/>
     <use x="126.855469" xlink:href="#DejaVuSans-6d"/>
     <use x="224.267578" xlink:href="#DejaVuSans-62"/>
     <use x="287.744141" xlink:href="#DejaVuSans-65"/>
     <use x="349.267578" xlink:href="#DejaVuSans-6c"/>
    </g>
   </g>
   <g id="patch_6">
    <path clip-path="url(#pbd98a8fbbd)" d="M 852.988688 265.487051 
L 868.828688 265.487051 
L 868.828688 249.647051 
L 852.988688 249.647051 
z
" style="fill:#f2f2f2;"/>
   </g>
   <g id="line2d_26">
    <path clip-path="url(#pbd98a8fbbd)" d="M 852.988688 257.567051 
L 868.828688 257.567051 
" style="fill:none;stroke:#57d3db;stroke-width:0.886227;"/>
   </g>
   <g id="line2d_27">
    <path clip-path="url(#pbd98a8fbbd)" d="M 860.908688 257.567051 
" style="fill:none;stroke:#1f77b4;stroke-linecap:square;stroke-width:1.5;"/>
    <defs>
     <path d="M 0 1.772454 
C 0.47006 1.772454 0.920931 1.585697 1.253314 1.253314 
C 1.585697 0.920931 1.772454 0.47006 1.772454 0 
C 1.772454 -0.47006 1.585697 -0.920931 1.253314 -1.253314 
C 0.920931 -1.585697 0.47006 -1.772454 0 -1.772454 
C -0.47006 -1.772454 -0.920931 -1.585697 -1.253314 -1.253314 
C -1.585697 -0.920931 -1.772454 -0.47006 -1.772454 0 
C -1.772454 0.47006 -1.585697 0.920931 -1.253314 1.253314 
C -0.920931 1.585697 -0.47006 1.772454 0 1.772454 
z
" id="m23e81e8587" style="stroke:#57d3db;stroke-width:0.886227;"/>
    </defs>
    <g clip-path="url(#pbd98a8fbbd)">
     <use style="fill:#57d3db;stroke:#57d3db;stroke-width:0.886227;" x="860.908688" xlink:href="#m23e81e8587" y="257.567051"/>
    </g>
   </g>
   <g id="text_10">
    <!-- softmax -->
    <g transform="translate(871.828688 259.995301)scale(0.088 -0.088)">
     <defs>
      <path d="M 2834 3397 
L 2834 2853 
Q 2591 2978 2328 3040 
Q 2066 3103 1784 3103 
Q 1356 3103 1142 2972 
Q 928 2841 928 2578 
Q 928 2378 1081 2264 
Q 1234 2150 1697 2047 
L 1894 2003 
Q 2506 1872 2764 1633 
Q 3022 1394 3022 966 
Q 3022 478 2636 193 
Q 2250 -91 1575 -91 
Q 1294 -91 989 -36 
Q 684 19 347 128 
L 347 722 
Q 666 556 975 473 
Q 1284 391 1588 391 
Q 1994 391 2212 530 
Q 2431 669 2431 922 
Q 2431 1156 2273 1281 
Q 2116 1406 1581 1522 
L 1381 1569 
Q 847 1681 609 1914 
Q 372 2147 372 2553 
Q 372 3047 722 3315 
Q 1072 3584 1716 3584 
Q 2034 3584 2315 3537 
Q 2597 3491 2834 3397 
z
" id="DejaVuSans-73" transform="scale(0.015625)"/>
      <path d="M 3513 3500 
L 2247 1797 
L 3578 0 
L 2900 0 
L 1881 1375 
L 863 0 
L 184 0 
L 1544 1831 
L 300 3500 
L 978 3500 
L 1906 2253 
L 2834 3500 
L 3513 3500 
z
" id="DejaVuSans-78" transform="scale(0.015625)"/>
     </defs>
     <use xlink:href="#DejaVuSans-73"/>
     <use x="52.099609" xlink:href="#DejaVuSans-6f"/>
     <use x="113.28125" xlink:href="#DejaVuSans-66"/>
     <use x="146.736328" xlink:href="#DejaVuSans-74"/>
     <use x="185.945312" xlink:href="#DejaVuSans-6d"/>
     <use x="283.357422" xlink:href="#DejaVuSans-61"/>
     <use x="344.636719" xlink:href="#DejaVuSans-78"/>
    </g>
   </g>
  </g>
  <g id="axes_2">
   <g id="patch_7">
    <path d="M 470.23985 234.334082 
L 833.588688 234.334082 
L 833.588688 22.244082 
L 470.23985 22.244082 
z
" style="fill:#ebebeb;"/>
   </g>
   <g id="matplotlib.axis_3">
    <g id="xtick_8">
     <g id="line2d_28">
      <path clip-path="url(#pfa61d74a22)" d="M 541.808561 234.334082 
L 541.808561 22.244082 
" style="fill:none;stroke:#ffffff;stroke-linecap:square;"/>
     </g>
    </g>
    <g id="xtick_9">
     <g id="line2d_29">
      <path clip-path="url(#pfa61d74a22)" d="M 651.914269 234.334082 
L 651.914269 22.244082 
" style="fill:none;stroke:#ffffff;stroke-linecap:square;"/>
     </g>
    </g>
    <g id="xtick_10">
     <g id="line2d_30">
      <path clip-path="url(#pfa61d74a22)" d="M 762.019977 234.334082 
L 762.019977 22.244082 
" style="fill:none;stroke:#ffffff;stroke-linecap:square;"/>
     </g>
    </g>
    <g id="xtick_11">
     <g id="line2d_31">
      <path clip-path="url(#pfa61d74a22)" d="M 486.755707 234.334082 
L 486.755707 22.244082 
" style="fill:none;stroke:#ffffff;stroke-linecap:square;stroke-width:0.5;"/>
     </g>
    </g>
    <g id="xtick_12">
     <g id="line2d_32">
      <path clip-path="url(#pfa61d74a22)" d="M 596.861415 234.334082 
L 596.861415 22.244082 
" style="fill:none;stroke:#ffffff;stroke-linecap:square;stroke-width:0.5;"/>
     </g>
    </g>
    <g id="xtick_13">
     <g id="line2d_33">
      <path clip-path="url(#pfa61d74a22)" d="M 706.967123 234.334082 
L 706.967123 22.244082 
" style="fill:none;stroke:#ffffff;stroke-linecap:square;stroke-width:0.5;"/>
     </g>
    </g>
    <g id="xtick_14">
     <g id="line2d_34">
      <path clip-path="url(#pfa61d74a22)" d="M 817.072831 234.334082 
L 817.072831 22.244082 
" style="fill:none;stroke:#ffffff;stroke-linecap:square;stroke-width:0.5;"/>
     </g>
    </g>
   </g>
   <g id="matplotlib.axis_4">
    <g id="ytick_10">
     <g id="line2d_35">
      <path clip-path="url(#pfa61d74a22)" d="M 470.23985 231.263361 
L 833.588688 231.263361 
" style="fill:none;stroke:#ffffff;stroke-linecap:square;"/>
     </g>
     <g id="line2d_36">
      <path d="M 470.23985 231.263361 
" style="fill:none;stroke:#333333;stroke-linecap:square;stroke-width:1.5;"/>
      <g>
       <use style="fill:#333333;stroke:#000000;" x="470.23985" xlink:href="#m9467b3c3c6" y="231.263361"/>
      </g>
     </g>
     <g id="text_11">
      <!-- 0.890 -->
      <g style="fill:#4d4d4d;" transform="translate(440.0971 233.691611)scale(0.088 -0.088)">
       <use xlink:href="#DejaVuSans-30"/>
       <use x="63.623047" xlink:href="#DejaVuSans-2e"/>
       <use x="95.410156" xlink:href="#DejaVuSans-38"/>
       <use x="159.033203" xlink:href="#DejaVuSans-39"/>
       <use x="222.65625" xlink:href="#DejaVuSans-30"/>
      </g>
     </g>
    </g>
    <g id="ytick_11">
     <g id="line2d_37">
      <path clip-path="url(#pfa61d74a22)" d="M 470.23985 175.939849 
L 833.588688 175.939849 
" style="fill:none;stroke:#ffffff;stroke-linecap:square;"/>
     </g>
     <g id="line2d_38">
      <path d="M 470.23985 175.939849 
" style="fill:none;stroke:#333333;stroke-linecap:square;stroke-width:1.5;"/>
      <g>
       <use style="fill:#333333;stroke:#000000;" x="470.23985" xlink:href="#m9467b3c3c6" y="175.939849"/>
      </g>
     </g>
     <g id="text_12">
      <!-- 0.892 -->
      <g style="fill:#4d4d4d;" transform="translate(440.0971 178.368099)scale(0.088 -0.088)">
       <use xlink:href="#DejaVuSans-30"/>
       <use x="63.623047" xlink:href="#DejaVuSans-2e"/>
       <use x="95.410156" xlink:href="#DejaVuSans-38"/>
       <use x="159.033203" xlink:href="#DejaVuSans-39"/>
       <use x="222.65625" xlink:href="#DejaVuSans-32"/>
      </g>
     </g>
    </g>
    <g id="ytick_12">
     <g id="line2d_39">
      <path clip-path="url(#pfa61d74a22)" d="M 470.23985 120.616338 
L 833.588688 120.616338 
" style="fill:none;stroke:#ffffff;stroke-linecap:square;"/>
     </g>
     <g id="line2d_40">
      <path d="M 470.23985 120.616338 
" style="fill:none;stroke:#333333;stroke-linecap:square;stroke-width:1.5;"/>
      <g>
       <use style="fill:#333333;stroke:#000000;" x="470.23985" xlink:href="#m9467b3c3c6" y="120.616338"/>
      </g>
     </g>
     <g id="text_13">
      <!-- 0.894 -->
      <g style="fill:#4d4d4d;" transform="translate(440.0971 123.044588)scale(0.088 -0.088)">
       <use xlink:href="#DejaVuSans-30"/>
       <use x="63.623047" xlink:href="#DejaVuSans-2e"/>
       <use x="95.410156" xlink:href="#DejaVuSans-38"/>
       <use x="159.033203" xlink:href="#DejaVuSans-39"/>
       <use x="222.65625" xlink:href="#DejaVuSans-34"/>
      </g>
     </g>
    </g>
    <g id="ytick_13">
     <g id="line2d_41">
      <path clip-path="url(#pfa61d74a22)" d="M 470.23985 65.292826 
L 833.588688 65.292826 
" style="fill:none;stroke:#ffffff;stroke-linecap:square;"/>
     </g>
     <g id="line2d_42">
      <path d="M 470.23985 65.292826 
" style="fill:none;stroke:#333333;stroke-linecap:square;stroke-width:1.5;"/>
      <g>
       <use style="fill:#333333;stroke:#000000;" x="470.23985" xlink:href="#m9467b3c3c6" y="65.292826"/>
      </g>
     </g>
     <g id="text_14">
      <!-- 0.896 -->
      <g style="fill:#4d4d4d;" transform="translate(440.0971 67.721076)scale(0.088 -0.088)">
       <defs>
        <path d="M 2113 2584 
Q 1688 2584 1439 2293 
Q 1191 2003 1191 1497 
Q 1191 994 1439 701 
Q 1688 409 2113 409 
Q 2538 409 2786 701 
Q 3034 994 3034 1497 
Q 3034 2003 2786 2293 
Q 2538 2584 2113 2584 
z
M 3366 4563 
L 3366 3988 
Q 3128 4100 2886 4159 
Q 2644 4219 2406 4219 
Q 1781 4219 1451 3797 
Q 1122 3375 1075 2522 
Q 1259 2794 1537 2939 
Q 1816 3084 2150 3084 
Q 2853 3084 3261 2657 
Q 3669 2231 3669 1497 
Q 3669 778 3244 343 
Q 2819 -91 2113 -91 
Q 1303 -91 875 529 
Q 447 1150 447 2328 
Q 447 3434 972 4092 
Q 1497 4750 2381 4750 
Q 2619 4750 2861 4703 
Q 3103 4656 3366 4563 
z
" id="DejaVuSans-36" transform="scale(0.015625)"/>
       </defs>
       <use xlink:href="#DejaVuSans-30"/>
       <use x="63.623047" xlink:href="#DejaVuSans-2e"/>
       <use x="95.410156" xlink:href="#DejaVuSans-38"/>
       <use x="159.033203" xlink:href="#DejaVuSans-39"/>
       <use x="222.65625" xlink:href="#DejaVuSans-36"/>
      </g>
     </g>
    </g>
    <g id="ytick_14">
     <g id="line2d_43">
      <path clip-path="url(#pfa61d74a22)" d="M 470.23985 203.601605 
L 833.588688 203.601605 
" style="fill:none;stroke:#ffffff;stroke-linecap:square;stroke-width:0.5;"/>
     </g>
    </g>
    <g id="ytick_15">
     <g id="line2d_44">
      <path clip-path="url(#pfa61d74a22)" d="M 470.23985 148.278093 
L 833.588688 148.278093 
" style="fill:none;stroke:#ffffff;stroke-linecap:square;stroke-width:0.5;"/>
     </g>
    </g>
    <g id="ytick_16">
     <g id="line2d_45">
      <path clip-path="url(#pfa61d74a22)" d="M 470.23985 92.954582 
L 833.588688 92.954582 
" style="fill:none;stroke:#ffffff;stroke-linecap:square;stroke-width:0.5;"/>
     </g>
    </g>
    <g id="ytick_17">
     <g id="line2d_46">
      <path clip-path="url(#pfa61d74a22)" d="M 470.23985 37.631071 
L 833.588688 37.631071 
" style="fill:none;stroke:#ffffff;stroke-linecap:square;stroke-width:0.5;"/>
     </g>
    </g>
   </g>
   <g id="line2d_47">
    <path clip-path="url(#pfa61d74a22)" d="M 486.755707 34.825046 
L 541.808561 40.667862 
L 596.861415 77.949698 
L 651.914269 99.577753 
L 706.967123 65.492103 
L 762.019977 142.801912 
L 817.072831 178.941135 
" style="fill:none;stroke:#db5f57;stroke-width:0.886227;"/>
   </g>
   <g id="line2d_48">
    <path clip-path="url(#pfa61d74a22)" d="M 486.755707 31.884537 
L 541.808561 47.788697 
L 596.861415 49.0809 
L 651.914269 80.814953 
L 706.967123 126.005879 
L 762.019977 180.022314 
L 817.072831 224.693628 
" style="fill:none;stroke:#57d3db;stroke-width:0.886227;"/>
   </g>
   <g id="PathCollection_2">
    <path clip-path="url(#pfa61d74a22)" d="M 486.755707 36.5975 
C 487.225767 36.5975 487.676638 36.410743 488.009021 36.07836 
C 488.341403 35.745978 488.52816 35.295107 488.52816 34.825046 
C 488.52816 34.354986 488.341403 33.904115 488.009021 33.571732 
C 487.676638 33.239349 487.225767 33.052592 486.755707 33.052592 
C 486.285646 33.052592 485.834775 33.239349 485.502392 33.571732 
C 485.17001 33.904115 484.983253 34.354986 484.983253 34.825046 
C 484.983253 35.295107 485.17001 35.745978 485.502392 36.07836 
C 485.834775 36.410743 486.285646 36.5975 486.755707 36.5975 
z
" style="fill:#db5f57;stroke:#db5f57;stroke-width:0.886227;"/>
    <path clip-path="url(#pfa61d74a22)" d="M 486.755707 33.656991 
C 487.225767 33.656991 487.676638 33.470234 488.009021 33.137851 
C 488.341403 32.805468 488.52816 32.354597 488.52816 31.884537 
C 488.52816 31.414477 488.341403 30.963606 488.009021 30.631223 
C 487.676638 30.29884 487.225767 30.112083 486.755707 30.112083 
C 486.285646 30.112083 485.834775 30.29884 485.502392 30.631223 
C 485.17001 30.963606 484.983253 31.414477 484.983253 31.884537 
C 484.983253 32.354597 485.17001 32.805468 485.502392 33.137851 
C 485.834775 33.470234 486.285646 33.656991 486.755707 33.656991 
z
" style="fill:#57d3db;stroke:#57d3db;stroke-width:0.886227;"/>
    <path clip-path="url(#pfa61d74a22)" d="M 541.808561 42.440316 
C 542.278621 42.440316 542.729492 42.253559 543.061875 41.921176 
C 543.394258 41.588793 543.581015 41.137922 543.581015 40.667862 
C 543.581015 40.197801 543.394258 39.74693 543.061875 39.414548 
C 542.729492 39.082165 542.278621 38.895408 541.808561 38.895408 
C 541.3385 38.895408 540.887629 39.082165 540.555247 39.414548 
C 540.222864 39.74693 540.036107 40.197801 540.036107 40.667862 
C 540.036107 41.137922 540.222864 41.588793 540.555247 41.921176 
C 540.887629 42.253559 541.3385 42.440316 541.808561 42.440316 
z
" style="fill:#db5f57;stroke:#db5f57;stroke-width:0.886227;"/>
    <path clip-path="url(#pfa61d74a22)" d="M 541.808561 49.561151 
C 542.278621 49.561151 542.729492 49.374394 543.061875 49.042011 
C 543.394258 48.709629 543.581015 48.258758 543.581015 47.788697 
C 543.581015 47.318637 543.394258 46.867766 543.061875 46.535383 
C 542.729492 46.203 542.278621 46.016243 541.808561 46.016243 
C 541.3385 46.016243 540.887629 46.203 540.555247 46.535383 
C 540.222864 46.867766 540.036107 47.318637 540.036107 47.788697 
C 540.036107 48.258758 540.222864 48.709629 540.555247 49.042011 
C 540.887629 49.374394 541.3385 49.561151 541.808561 49.561151 
z
" style="fill:#57d3db;stroke:#57d3db;stroke-width:0.886227;"/>
    <path clip-path="url(#pfa61d74a22)" d="M 596.861415 79.722152 
C 597.331475 79.722152 597.782346 79.535395 598.114729 79.203013 
C 598.447112 78.87063 598.633869 78.419759 598.633869 77.949698 
C 598.633869 77.479638 598.447112 77.028767 598.114729 76.696384 
C 597.782346 76.364002 597.331475 76.177245 596.861415 76.177245 
C 596.391355 76.177245 595.940483 76.364002 595.608101 76.696384 
C 595.275718 77.028767 595.088961 77.479638 595.088961 77.949698 
C 595.088961 78.419759 595.275718 78.87063 595.608101 79.203013 
C 595.940483 79.535395 596.391355 79.722152 596.861415 79.722152 
z
" style="fill:#db5f57;stroke:#db5f57;stroke-width:0.886227;"/>
    <path clip-path="url(#pfa61d74a22)" d="M 596.861415 50.853354 
C 597.331475 50.853354 597.782346 50.666597 598.114729 50.334214 
C 598.447112 50.001831 598.633869 49.55096 598.633869 49.0809 
C 598.633869 48.61084 598.447112 48.159969 598.114729 47.827586 
C 597.782346 47.495203 597.331475 47.308446 596.861415 47.308446 
C 596.391355 47.308446 595.940483 47.495203 595.608101 47.827586 
C 595.275718 48.159969 595.088961 48.61084 595.088961 49.0809 
C 595.088961 49.55096 595.275718 50.001831 595.608101 50.334214 
C 595.940483 50.666597 596.391355 50.853354 596.861415 50.853354 
z
" style="fill:#57d3db;stroke:#57d3db;stroke-width:0.886227;"/>
    <path clip-path="url(#pfa61d74a22)" d="M 651.914269 101.350207 
C 652.384329 101.350207 652.8352 101.16345 653.167583 100.831068 
C 653.499966 100.498685 653.686723 100.047814 653.686723 99.577753 
C 653.686723 99.107693 653.499966 98.656822 653.167583 98.324439 
C 652.8352 97.992057 652.384329 97.8053 651.914269 97.8053 
C 651.444209 97.8053 650.993338 97.992057 650.660955 98.324439 
C 650.328572 98.656822 650.141815 99.107693 650.141815 99.577753 
C 650.141815 100.047814 650.328572 100.498685 650.660955 100.831068 
C 650.993338 101.16345 651.444209 101.350207 651.914269 101.350207 
z
" style="fill:#db5f57;stroke:#db5f57;stroke-width:0.886227;"/>
    <path clip-path="url(#pfa61d74a22)" d="M 651.914269 82.587407 
C 652.384329 82.587407 652.8352 82.40065 653.167583 82.068267 
C 653.499966 81.735884 653.686723 81.285013 653.686723 80.814953 
C 653.686723 80.344892 653.499966 79.894021 653.167583 79.561639 
C 652.8352 79.229256 652.384329 79.042499 651.914269 79.042499 
C 651.444209 79.042499 650.993338 79.229256 650.660955 79.561639 
C 650.328572 79.894021 650.141815 80.344892 650.141815 80.814953 
C 650.141815 81.285013 650.328572 81.735884 650.660955 82.068267 
C 650.993338 82.40065 651.444209 82.587407 651.914269 82.587407 
z
" style="fill:#57d3db;stroke:#57d3db;stroke-width:0.886227;"/>
    <path clip-path="url(#pfa61d74a22)" d="M 706.967123 67.264556 
C 707.437183 67.264556 707.888054 67.077799 708.220437 66.745417 
C 708.55282 66.413034 708.739577 65.962163 708.739577 65.492103 
C 708.739577 65.022042 708.55282 64.571171 708.220437 64.238788 
C 707.888054 63.906406 707.437183 63.719649 706.967123 63.719649 
C 706.497063 63.719649 706.046192 63.906406 705.713809 64.238788 
C 705.381426 64.571171 705.194669 65.022042 705.194669 65.492103 
C 705.194669 65.962163 705.381426 66.413034 705.713809 66.745417 
C 706.046192 67.077799 706.497063 67.264556 706.967123 67.264556 
z
" style="fill:#db5f57;stroke:#db5f57;stroke-width:0.886227;"/>
    <path clip-path="url(#pfa61d74a22)" d="M 706.967123 127.778332 
C 707.437183 127.778332 707.888054 127.591576 708.220437 127.259193 
C 708.55282 126.92681 708.739577 126.475939 708.739577 126.005879 
C 708.739577 125.535818 708.55282 125.084947 708.220437 124.752564 
C 707.888054 124.420182 707.437183 124.233425 706.967123 124.233425 
C 706.497063 124.233425 706.046192 124.420182 705.713809 124.752564 
C 705.381426 125.084947 705.194669 125.535818 705.194669 126.005879 
C 705.194669 126.475939 705.381426 126.92681 705.713809 127.259193 
C 706.046192 127.591576 706.497063 127.778332 706.967123 127.778332 
z
" style="fill:#57d3db;stroke:#57d3db;stroke-width:0.886227;"/>
    <path clip-path="url(#pfa61d74a22)" d="M 762.019977 144.574366 
C 762.490037 144.574366 762.940908 144.387609 763.273291 144.055226 
C 763.605674 143.722843 763.792431 143.271972 763.792431 142.801912 
C 763.792431 142.331852 763.605674 141.880981 763.273291 141.548598 
C 762.940908 141.216215 762.490037 141.029458 762.019977 141.029458 
C 761.549917 141.029458 761.099046 141.216215 760.766663 141.548598 
C 760.43428 141.880981 760.247523 142.331852 760.247523 142.801912 
C 760.247523 143.271972 760.43428 143.722843 760.766663 144.055226 
C 761.099046 144.387609 761.549917 144.574366 762.019977 144.574366 
z
" style="fill:#db5f57;stroke:#db5f57;stroke-width:0.886227;"/>
    <path clip-path="url(#pfa61d74a22)" d="M 762.019977 181.794768 
C 762.490037 181.794768 762.940908 181.608011 763.273291 181.275628 
C 763.605674 180.943245 763.792431 180.492374 763.792431 180.022314 
C 763.792431 179.552254 763.605674 179.101383 763.273291 178.769 
C 762.940908 178.436617 762.490037 178.24986 762.019977 178.24986 
C 761.549917 178.24986 761.099046 178.436617 760.766663 178.769 
C 760.43428 179.101383 760.247523 179.552254 760.247523 180.022314 
C 760.247523 180.492374 760.43428 180.943245 760.766663 181.275628 
C 761.099046 181.608011 761.549917 181.794768 762.019977 181.794768 
z
" style="fill:#57d3db;stroke:#57d3db;stroke-width:0.886227;"/>
    <path clip-path="url(#pfa61d74a22)" d="M 817.072831 180.713589 
C 817.542892 180.713589 817.993763 180.526832 818.326145 180.194449 
C 818.658528 179.862067 818.845285 179.411195 818.845285 178.941135 
C 818.845285 178.471075 818.658528 178.020204 818.326145 177.687821 
C 817.993763 177.355438 817.542892 177.168681 817.072831 177.168681 
C 816.602771 177.168681 816.1519 177.355438 815.819517 177.687821 
C 815.487134 178.020204 815.300377 178.471075 815.300377 178.941135 
C 815.300377 179.411195 815.487134 179.862067 815.819517 180.194449 
C 816.1519 180.526832 816.602771 180.713589 817.072831 180.713589 
z
" style="fill:#db5f57;stroke:#db5f57;stroke-width:0.886227;"/>
    <path clip-path="url(#pfa61d74a22)" d="M 817.072831 226.466082 
C 817.542892 226.466082 817.993763 226.279325 818.326145 225.946942 
C 818.658528 225.614559 818.845285 225.163688 818.845285 224.693628 
C 818.845285 224.223568 818.658528 223.772696 818.326145 223.440314 
C 817.993763 223.107931 817.542892 222.921174 817.072831 222.921174 
C 816.602771 222.921174 816.1519 223.107931 815.819517 223.440314 
C 815.487134 223.772696 815.300377 224.223568 815.300377 224.693628 
C 815.300377 225.163688 815.487134 225.614559 815.819517 225.946942 
C 816.1519 226.279325 816.602771 226.466082 817.072831 226.466082 
z
" style="fill:#57d3db;stroke:#57d3db;stroke-width:0.886227;"/>
   </g>
   <g id="patch_8">
    <path d="M 470.23985 22.244082 
L 833.588688 22.244082 
L 833.588688 7.2 
L 470.23985 7.2 
z
" style="fill:#d9d9d9;"/>
   </g>
   <g id="text_15">
    <!-- AUC -->
    <g style="fill:#1a1a1a;" transform="translate(642.611706 17.150291)scale(0.088 -0.088)">
     <defs>
      <path d="M 556 4666 
L 1191 4666 
L 1191 1831 
Q 1191 1081 1462 751 
Q 1734 422 2344 422 
Q 2950 422 3222 751 
Q 3494 1081 3494 1831 
L 3494 4666 
L 4128 4666 
L 4128 1753 
Q 4128 841 3676 375 
Q 3225 -91 2344 -91 
Q 1459 -91 1007 375 
Q 556 841 556 1753 
L 556 4666 
z
" id="DejaVuSans-55" transform="scale(0.015625)"/>
      <path d="M 4122 4306 
L 4122 3641 
Q 3803 3938 3442 4084 
Q 3081 4231 2675 4231 
Q 1875 4231 1450 3742 
Q 1025 3253 1025 2328 
Q 1025 1406 1450 917 
Q 1875 428 2675 428 
Q 3081 428 3442 575 
Q 3803 722 4122 1019 
L 4122 359 
Q 3791 134 3420 21 
Q 3050 -91 2638 -91 
Q 1578 -91 968 557 
Q 359 1206 359 2328 
Q 359 3453 968 4101 
Q 1578 4750 2638 4750 
Q 3056 4750 3426 4639 
Q 3797 4528 4122 4306 
z
" id="DejaVuSans-43" transform="scale(0.015625)"/>
     </defs>
     <use xlink:href="#DejaVuSans-41"/>
     <use x="68.408203" xlink:href="#DejaVuSans-55"/>
     <use x="141.601562" xlink:href="#DejaVuSans-43"/>
    </g>
   </g>
  </g>
  <g id="axes_3">
   <g id="patch_9">
    <path d="M 52.388688 465.764082 
L 415.737525 465.764082 
L 415.737525 253.674082 
L 52.388688 253.674082 
z
" style="fill:#ebebeb;"/>
   </g>
   <g id="matplotlib.axis_5">
    <g id="xtick_15">
     <g id="line2d_49">
      <path clip-path="url(#p01f7fe87f5)" d="M 123.957398 465.764082 
L 123.957398 253.674082 
" style="fill:none;stroke:#ffffff;stroke-linecap:square;"/>
     </g>
     <g id="line2d_50">
      <path d="M 123.957398 465.764082 
" style="fill:none;stroke:#333333;stroke-linecap:square;stroke-width:1.5;"/>
      <defs>
       <path d="M 0 0 
L 0 2.75 
" id="mb7527c45e1" style="stroke:#000000;"/>
      </defs>
      <g>
       <use style="fill:#333333;stroke:#000000;" x="123.957398" xlink:href="#mb7527c45e1" y="465.764082"/>
      </g>
     </g>
     <g id="text_16">
      <!-- 0.2 -->
      <g style="fill:#4d4d4d;" transform="translate(116.960023 477.400707)scale(0.088 -0.088)">
       <use xlink:href="#DejaVuSans-30"/>
       <use x="63.623047" xlink:href="#DejaVuSans-2e"/>
       <use x="95.410156" xlink:href="#DejaVuSans-32"/>
      </g>
     </g>
    </g>
    <g id="xtick_16">
     <g id="line2d_51">
      <path clip-path="url(#p01f7fe87f5)" d="M 234.063106 465.764082 
L 234.063106 253.674082 
" style="fill:none;stroke:#ffffff;stroke-linecap:square;"/>
     </g>
     <g id="line2d_52">
      <path d="M 234.063106 465.764082 
" style="fill:none;stroke:#333333;stroke-linecap:square;stroke-width:1.5;"/>
      <g>
       <use style="fill:#333333;stroke:#000000;" x="234.063106" xlink:href="#mb7527c45e1" y="465.764082"/>
      </g>
     </g>
     <g id="text_17">
      <!-- 0.4 -->
      <g style="fill:#4d4d4d;" transform="translate(227.065731 477.400707)scale(0.088 -0.088)">
       <use xlink:href="#DejaVuSans-30"/>
       <use x="63.623047" xlink:href="#DejaVuSans-2e"/>
       <use x="95.410156" xlink:href="#DejaVuSans-34"/>
      </g>
     </g>
    </g>
    <g id="xtick_17">
     <g id="line2d_53">
      <path clip-path="url(#p01f7fe87f5)" d="M 344.168814 465.764082 
L 344.168814 253.674082 
" style="fill:none;stroke:#ffffff;stroke-linecap:square;"/>
     </g>
     <g id="line2d_54">
      <path d="M 344.168814 465.764082 
" style="fill:none;stroke:#333333;stroke-linecap:square;stroke-width:1.5;"/>
      <g>
       <use style="fill:#333333;stroke:#000000;" x="344.168814" xlink:href="#mb7527c45e1" y="465.764082"/>
      </g>
     </g>
     <g id="text_18">
      <!-- 0.6 -->
      <g style="fill:#4d4d4d;" transform="translate(337.171439 477.400707)scale(0.088 -0.088)">
       <use xlink:href="#DejaVuSans-30"/>
       <use x="63.623047" xlink:href="#DejaVuSans-2e"/>
       <use x="95.410156" xlink:href="#DejaVuSans-36"/>
      </g>
     </g>
    </g>
    <g id="xtick_18">
     <g id="line2d_55">
      <path clip-path="url(#p01f7fe87f5)" d="M 68.904544 465.764082 
L 68.904544 253.674082 
" style="fill:none;stroke:#ffffff;stroke-linecap:square;stroke-width:0.5;"/>
     </g>
    </g>
    <g id="xtick_19">
     <g id="line2d_56">
      <path clip-path="url(#p01f7fe87f5)" d="M 179.010252 465.764082 
L 179.010252 253.674082 
" style="fill:none;stroke:#ffffff;stroke-linecap:square;stroke-width:0.5;"/>
     </g>
    </g>
    <g id="xtick_20">
     <g id="line2d_57">
      <path clip-path="url(#p01f7fe87f5)" d="M 289.11596 465.764082 
L 289.11596 253.674082 
" style="fill:none;stroke:#ffffff;stroke-linecap:square;stroke-width:0.5;"/>
     </g>
    </g>
    <g id="xtick_21">
     <g id="line2d_58">
      <path clip-path="url(#p01f7fe87f5)" d="M 399.221668 465.764082 
L 399.221668 253.674082 
" style="fill:none;stroke:#ffffff;stroke-linecap:square;stroke-width:0.5;"/>
     </g>
    </g>
   </g>
   <g id="matplotlib.axis_6">
    <g id="ytick_18">
     <g id="line2d_59">
      <path clip-path="url(#p01f7fe87f5)" d="M 52.388688 410.638006 
L 415.737525 410.638006 
" style="fill:none;stroke:#ffffff;stroke-linecap:square;"/>
     </g>
     <g id="line2d_60">
      <path d="M 52.388688 410.638006 
" style="fill:none;stroke:#333333;stroke-linecap:square;stroke-width:1.5;"/>
      <g>
       <use style="fill:#333333;stroke:#000000;" x="52.388688" xlink:href="#m9467b3c3c6" y="410.638006"/>
      </g>
     </g>
     <g id="text_19">
      <!-- 0.896 -->
      <g style="fill:#4d4d4d;" transform="translate(22.245938 413.066256)scale(0.088 -0.088)">
       <use xlink:href="#DejaVuSans-30"/>
       <use x="63.623047" xlink:href="#DejaVuSans-2e"/>
       <use x="95.410156" xlink:href="#DejaVuSans-38"/>
       <use x="159.033203" xlink:href="#DejaVuSans-39"/>
       <use x="222.65625" xlink:href="#DejaVuSans-36"/>
      </g>
     </g>
    </g>
    <g id="ytick_19">
     <g id="line2d_61">
      <path clip-path="url(#p01f7fe87f5)" d="M 52.388688 344.471241 
L 415.737525 344.471241 
" style="fill:none;stroke:#ffffff;stroke-linecap:square;"/>
     </g>
     <g id="line2d_62">
      <path d="M 52.388688 344.471241 
" style="fill:none;stroke:#333333;stroke-linecap:square;stroke-width:1.5;"/>
      <g>
       <use style="fill:#333333;stroke:#000000;" x="52.388688" xlink:href="#m9467b3c3c6" y="344.471241"/>
      </g>
     </g>
     <g id="text_20">
      <!-- 0.897 -->
      <g style="fill:#4d4d4d;" transform="translate(22.245938 346.899491)scale(0.088 -0.088)">
       <defs>
        <path d="M 525 4666 
L 3525 4666 
L 3525 4397 
L 1831 0 
L 1172 0 
L 2766 4134 
L 525 4134 
L 525 4666 
z
" id="DejaVuSans-37" transform="scale(0.015625)"/>
       </defs>
       <use xlink:href="#DejaVuSans-30"/>
       <use x="63.623047" xlink:href="#DejaVuSans-2e"/>
       <use x="95.410156" xlink:href="#DejaVuSans-38"/>
       <use x="159.033203" xlink:href="#DejaVuSans-39"/>
       <use x="222.65625" xlink:href="#DejaVuSans-37"/>
      </g>
     </g>
    </g>
    <g id="ytick_20">
     <g id="line2d_63">
      <path clip-path="url(#p01f7fe87f5)" d="M 52.388688 278.304475 
L 415.737525 278.304475 
" style="fill:none;stroke:#ffffff;stroke-linecap:square;"/>
     </g>
     <g id="line2d_64">
      <path d="M 52.388688 278.304475 
" style="fill:none;stroke:#333333;stroke-linecap:square;stroke-width:1.5;"/>
      <g>
       <use style="fill:#333333;stroke:#000000;" x="52.388688" xlink:href="#m9467b3c3c6" y="278.304475"/>
      </g>
     </g>
     <g id="text_21">
      <!-- 0.898 -->
      <g style="fill:#4d4d4d;" transform="translate(22.245938 280.732725)scale(0.088 -0.088)">
       <use xlink:href="#DejaVuSans-30"/>
       <use x="63.623047" xlink:href="#DejaVuSans-2e"/>
       <use x="95.410156" xlink:href="#DejaVuSans-38"/>
       <use x="159.033203" xlink:href="#DejaVuSans-39"/>
       <use x="222.65625" xlink:href="#DejaVuSans-38"/>
      </g>
     </g>
    </g>
    <g id="ytick_21">
     <g id="line2d_65">
      <path clip-path="url(#p01f7fe87f5)" d="M 52.388688 443.721389 
L 415.737525 443.721389 
" style="fill:none;stroke:#ffffff;stroke-linecap:square;stroke-width:0.5;"/>
     </g>
    </g>
    <g id="ytick_22">
     <g id="line2d_66">
      <path clip-path="url(#p01f7fe87f5)" d="M 52.388688 377.554623 
L 415.737525 377.554623 
" style="fill:none;stroke:#ffffff;stroke-linecap:square;stroke-width:0.5;"/>
     </g>
    </g>
    <g id="ytick_23">
     <g id="line2d_67">
      <path clip-path="url(#p01f7fe87f5)" d="M 52.388688 311.387858 
L 415.737525 311.387858 
" style="fill:none;stroke:#ffffff;stroke-linecap:square;stroke-width:0.5;"/>
     </g>
    </g>
   </g>
   <g id="line2d_68">
    <path clip-path="url(#p01f7fe87f5)" d="M 68.904544 263.314537 
L 123.957398 301.072778 
L 179.010252 304.881858 
L 234.063106 419.726708 
L 289.11596 310.732273 
L 344.168814 456.123628 
L 399.221668 402.460132 
" style="fill:none;stroke:#db5f57;stroke-width:0.886227;"/>
   </g>
   <g id="line2d_69">
    <path clip-path="url(#p01f7fe87f5)" d="M 68.904544 283.788053 
L 123.957398 267.073474 
L 179.010252 360.213619 
L 234.063106 338.521236 
L 289.11596 325.023982 
L 344.168814 410.806494 
L 399.221668 425.325412 
" style="fill:none;stroke:#57d3db;stroke-width:0.886227;"/>
   </g>
   <g id="PathCollection_3">
    <path clip-path="url(#p01f7fe87f5)" d="M 68.904544 265.086991 
C 69.374604 265.086991 69.825475 264.900234 70.157858 264.567851 
C 70.490241 264.235468 70.676998 263.784597 70.676998 263.314537 
C 70.676998 262.844477 70.490241 262.393606 70.157858 262.061223 
C 69.825475 261.72884 69.374604 261.542083 68.904544 261.542083 
C 68.434483 261.542083 67.983612 261.72884 67.65123 262.061223 
C 67.318847 262.393606 67.13209 262.844477 67.13209 263.314537 
C 67.13209 263.784597 67.318847 264.235468 67.65123 264.567851 
C 67.983612 264.900234 68.434483 265.086991 68.904544 265.086991 
z
" style="fill:#db5f57;stroke:#db5f57;stroke-width:0.886227;"/>
    <path clip-path="url(#p01f7fe87f5)" d="M 68.904544 285.560507 
C 69.374604 285.560507 69.825475 285.37375 70.157858 285.041367 
C 70.490241 284.708984 70.676998 284.258113 70.676998 283.788053 
C 70.676998 283.317993 70.490241 282.867122 70.157858 282.534739 
C 69.825475 282.202356 69.374604 282.015599 68.904544 282.015599 
C 68.434483 282.015599 67.983612 282.202356 67.65123 282.534739 
C 67.318847 282.867122 67.13209 283.317993 67.13209 283.788053 
C 67.13209 284.258113 67.318847 284.708984 67.65123 285.041367 
C 67.983612 285.37375 68.434483 285.560507 68.904544 285.560507 
z
" style="fill:#57d3db;stroke:#57d3db;stroke-width:0.886227;"/>
    <path clip-path="url(#p01f7fe87f5)" d="M 123.957398 302.845232 
C 124.427458 302.845232 124.878329 302.658475 125.210712 302.326092 
C 125.543095 301.993709 125.729852 301.542838 125.729852 301.072778 
C 125.729852 300.602718 125.543095 300.151847 125.210712 299.819464 
C 124.878329 299.487081 124.427458 299.300324 123.957398 299.300324 
C 123.487338 299.300324 123.036467 299.487081 122.704084 299.819464 
C 122.371701 300.151847 122.184944 300.602718 122.184944 301.072778 
C 122.184944 301.542838 122.371701 301.993709 122.704084 302.326092 
C 123.036467 302.658475 123.487338 302.845232 123.957398 302.845232 
z
" style="fill:#db5f57;stroke:#db5f57;stroke-width:0.886227;"/>
    <path clip-path="url(#p01f7fe87f5)" d="M 123.957398 268.845928 
C 124.427458 268.845928 124.878329 268.659171 125.210712 268.326788 
C 125.543095 267.994405 125.729852 267.543534 125.729852 267.073474 
C 125.729852 266.603414 125.543095 266.152543 125.210712 265.82016 
C 124.878329 265.487777 124.427458 265.30102 123.957398 265.30102 
C 123.487338 265.30102 123.036467 265.487777 122.704084 265.82016 
C 122.371701 266.152543 122.184944 266.603414 122.184944 267.073474 
C 122.184944 267.543534 122.371701 267.994405 122.704084 268.326788 
C 123.036467 268.659171 123.487338 268.845928 123.957398 268.845928 
z
" style="fill:#57d3db;stroke:#57d3db;stroke-width:0.886227;"/>
    <path clip-path="url(#p01f7fe87f5)" d="M 179.010252 306.654312 
C 179.480312 306.654312 179.931183 306.467555 180.263566 306.135173 
C 180.595949 305.80279 180.782706 305.351919 180.782706 304.881858 
C 180.782706 304.411798 180.595949 303.960927 180.263566 303.628544 
C 179.931183 303.296162 179.480312 303.109405 179.010252 303.109405 
C 178.540192 303.109405 178.089321 303.296162 177.756938 303.628544 
C 177.424555 303.960927 177.237798 304.411798 177.237798 304.881858 
C 177.237798 305.351919 177.424555 305.80279 177.756938 306.135173 
C 178.089321 306.467555 178.540192 306.654312 179.010252 306.654312 
z
" style="fill:#db5f57;stroke:#db5f57;stroke-width:0.886227;"/>
    <path clip-path="url(#p01f7fe87f5)" d="M 179.010252 361.986073 
C 179.480312 361.986073 179.931183 361.799316 180.263566 361.466933 
C 180.595949 361.13455 180.782706 360.683679 180.782706 360.213619 
C 180.782706 359.743559 180.595949 359.292688 180.263566 358.960305 
C 179.931183 358.627922 179.480312 358.441165 179.010252 358.441165 
C 178.540192 358.441165 178.089321 358.627922 177.756938 358.960305 
C 177.424555 359.292688 177.237798 359.743559 177.237798 360.213619 
C 177.237798 360.683679 177.424555 361.13455 177.756938 361.466933 
C 178.089321 361.799316 178.540192 361.986073 179.010252 361.986073 
z
" style="fill:#57d3db;stroke:#57d3db;stroke-width:0.886227;"/>
    <path clip-path="url(#p01f7fe87f5)" d="M 234.063106 421.499161 
C 234.533166 421.499161 234.984037 421.312405 235.31642 420.980022 
C 235.648803 420.647639 235.83556 420.196768 235.83556 419.726708 
C 235.83556 419.256647 235.648803 418.805776 235.31642 418.473394 
C 234.984037 418.141011 234.533166 417.954254 234.063106 417.954254 
C 233.593046 417.954254 233.142175 418.141011 232.809792 418.473394 
C 232.477409 418.805776 232.290652 419.256647 232.290652 419.726708 
C 232.290652 420.196768 232.477409 420.647639 232.809792 420.980022 
C 233.142175 421.312405 233.593046 421.499161 234.063106 421.499161 
z
" style="fill:#db5f57;stroke:#db5f57;stroke-width:0.886227;"/>
    <path clip-path="url(#p01f7fe87f5)" d="M 234.063106 340.293689 
C 234.533166 340.293689 234.984037 340.106933 235.31642 339.77455 
C 235.648803 339.442167 235.83556 338.991296 235.83556 338.521236 
C 235.83556 338.051175 235.648803 337.600304 235.31642 337.267921 
C 234.984037 336.935539 234.533166 336.748782 234.063106 336.748782 
C 233.593046 336.748782 233.142175 336.935539 232.809792 337.267921 
C 232.477409 337.600304 232.290652 338.051175 232.290652 338.521236 
C 232.290652 338.991296 232.477409 339.442167 232.809792 339.77455 
C 233.142175 340.106933 233.593046 340.293689 234.063106 340.293689 
z
" style="fill:#57d3db;stroke:#57d3db;stroke-width:0.886227;"/>
    <path clip-path="url(#p01f7fe87f5)" d="M 289.11596 312.504727 
C 289.58602 312.504727 290.036892 312.31797 290.369274 311.985588 
C 290.701657 311.653205 290.888414 311.202334 290.888414 310.732273 
C 290.888414 310.262213 290.701657 309.811342 290.369274 309.478959 
C 290.036892 309.146576 289.58602 308.95982 289.11596 308.95982 
C 288.6459 308.95982 288.195029 309.146576 287.862646 309.478959 
C 287.530263 309.811342 287.343506 310.262213 287.343506 310.732273 
C 287.343506 311.202334 287.530263 311.653205 287.862646 311.985588 
C 288.195029 312.31797 288.6459 312.504727 289.11596 312.504727 
z
" style="fill:#db5f57;stroke:#db5f57;stroke-width:0.886227;"/>
    <path clip-path="url(#p01f7fe87f5)" d="M 289.11596 326.796436 
C 289.58602 326.796436 290.036892 326.609679 290.369274 326.277296 
C 290.701657 325.944913 290.888414 325.494042 290.888414 325.023982 
C 290.888414 324.553921 290.701657 324.10305 290.369274 323.770668 
C 290.036892 323.438285 289.58602 323.251528 289.11596 323.251528 
C 288.6459 323.251528 288.195029 323.438285 287.862646 323.770668 
C 287.530263 324.10305 287.343506 324.553921 287.343506 325.023982 
C 287.343506 325.494042 287.530263 325.944913 287.862646 326.277296 
C 288.195029 326.609679 288.6459 326.796436 289.11596 326.796436 
z
" style="fill:#57d3db;stroke:#57d3db;stroke-width:0.886227;"/>
    <path clip-path="url(#p01f7fe87f5)" d="M 344.168814 457.896082 
C 344.638875 457.896082 345.089746 457.709325 345.422128 457.376942 
C 345.754511 457.044559 345.941268 456.593688 345.941268 456.123628 
C 345.941268 455.653568 345.754511 455.202696 345.422128 454.870314 
C 345.089746 454.537931 344.638875 454.351174 344.168814 454.351174 
C 343.698754 454.351174 343.247883 454.537931 342.9155 454.870314 
C 342.583117 455.202696 342.39636 455.653568 342.39636 456.123628 
C 342.39636 456.593688 342.583117 457.044559 342.9155 457.376942 
C 343.247883 457.709325 343.698754 457.896082 344.168814 457.896082 
z
" style="fill:#db5f57;stroke:#db5f57;stroke-width:0.886227;"/>
    <path clip-path="url(#p01f7fe87f5)" d="M 344.168814 412.578948 
C 344.638875 412.578948 345.089746 412.392191 345.422128 412.059808 
C 345.754511 411.727426 345.941268 411.276555 345.941268 410.806494 
C 345.941268 410.336434 345.754511 409.885563 345.422128 409.55318 
C 345.089746 409.220797 344.638875 409.03404 344.168814 409.03404 
C 343.698754 409.03404 343.247883 409.220797 342.9155 409.55318 
C 342.583117 409.885563 342.39636 410.336434 342.39636 410.806494 
C 342.39636 411.276555 342.583117 411.727426 342.9155 412.059808 
C 343.247883 412.392191 343.698754 412.578948 344.168814 412.578948 
z
" style="fill:#57d3db;stroke:#57d3db;stroke-width:0.886227;"/>
    <path clip-path="url(#p01f7fe87f5)" d="M 399.221668 404.232585 
C 399.691729 404.232585 400.1426 404.045828 400.474983 403.713446 
C 400.807365 403.381063 400.994122 402.930192 400.994122 402.460132 
C 400.994122 401.990071 400.807365 401.5392 400.474983 401.206817 
C 400.1426 400.874435 399.691729 400.687678 399.221668 400.687678 
C 398.751608 400.687678 398.300737 400.874435 397.968354 401.206817 
C 397.635972 401.5392 397.449215 401.990071 397.449215 402.460132 
C 397.449215 402.930192 397.635972 403.381063 397.968354 403.713446 
C 398.300737 404.045828 398.751608 404.232585 399.221668 404.232585 
z
" style="fill:#db5f57;stroke:#db5f57;stroke-width:0.886227;"/>
    <path clip-path="url(#p01f7fe87f5)" d="M 399.221668 427.097865 
C 399.691729 427.097865 400.1426 426.911108 400.474983 426.578726 
C 400.807365 426.246343 400.994122 425.795472 400.994122 425.325412 
C 400.994122 424.855351 400.807365 424.40448 400.474983 424.072097 
C 400.1426 423.739715 399.691729 423.552958 399.221668 423.552958 
C 398.751608 423.552958 398.300737 423.739715 397.968354 424.072097 
C 397.635972 424.40448 397.449215 424.855351 397.449215 425.325412 
C 397.449215 425.795472 397.635972 426.246343 397.968354 426.578726 
C 398.300737 426.911108 398.751608 427.097865 399.221668 427.097865 
z
" style="fill:#57d3db;stroke:#57d3db;stroke-width:0.886227;"/>
   </g>
   <g id="patch_10">
    <path d="M 52.388688 253.674082 
L 415.737525 253.674082 
L 415.737525 238.63 
L 52.388688 238.63 
z
" style="fill:#d9d9d9;"/>
   </g>
   <g id="text_22">
    <!-- F1 score: &lt;=50K -->
    <g style="fill:#1a1a1a;" transform="translate(196.774481 248.580291)scale(0.088 -0.088)">
     <defs>
      <path d="M 628 4666 
L 3309 4666 
L 3309 4134 
L 1259 4134 
L 1259 2759 
L 3109 2759 
L 3109 2228 
L 1259 2228 
L 1259 0 
L 628 0 
L 628 4666 
z
" id="DejaVuSans-46" transform="scale(0.015625)"/>
      <path d="M 750 794 
L 1409 794 
L 1409 0 
L 750 0 
L 750 794 
z
M 750 3309 
L 1409 3309 
L 1409 2516 
L 750 2516 
L 750 3309 
z
" id="DejaVuSans-3a" transform="scale(0.015625)"/>
      <path d="M 4684 3150 
L 1459 2003 
L 4684 863 
L 4684 294 
L 678 1747 
L 678 2266 
L 4684 3719 
L 4684 3150 
z
" id="DejaVuSans-3c" transform="scale(0.015625)"/>
      <path d="M 678 2906 
L 4684 2906 
L 4684 2381 
L 678 2381 
L 678 2906 
z
M 678 1631 
L 4684 1631 
L 4684 1100 
L 678 1100 
L 678 1631 
z
" id="DejaVuSans-3d" transform="scale(0.015625)"/>
      <path d="M 691 4666 
L 3169 4666 
L 3169 4134 
L 1269 4134 
L 1269 2991 
Q 1406 3038 1543 3061 
Q 1681 3084 1819 3084 
Q 2600 3084 3056 2656 
Q 3513 2228 3513 1497 
Q 3513 744 3044 326 
Q 2575 -91 1722 -91 
Q 1428 -91 1123 -41 
Q 819 9 494 109 
L 494 744 
Q 775 591 1075 516 
Q 1375 441 1709 441 
Q 2250 441 2565 725 
Q 2881 1009 2881 1497 
Q 2881 1984 2565 2268 
Q 2250 2553 1709 2553 
Q 1456 2553 1204 2497 
Q 953 2441 691 2322 
L 691 4666 
z
" id="DejaVuSans-35" transform="scale(0.015625)"/>
      <path d="M 628 4666 
L 1259 4666 
L 1259 2694 
L 3353 4666 
L 4166 4666 
L 1850 2491 
L 4331 0 
L 3500 0 
L 1259 2247 
L 1259 0 
L 628 0 
L 628 4666 
z
" id="DejaVuSans-4b" transform="scale(0.015625)"/>
     </defs>
     <use xlink:href="#DejaVuSans-46"/>
     <use x="57.519531" xlink:href="#DejaVuSans-31"/>
     <use x="121.142578" xlink:href="#DejaVuSans-20"/>
     <use x="152.929688" xlink:href="#DejaVuSans-73"/>
     <use x="205.029297" xlink:href="#DejaVuSans-63"/>
     <use x="260.009766" xlink:href="#DejaVuSans-6f"/>
     <use x="321.191406" xlink:href="#DejaVuSans-72"/>
     <use x="360.054688" xlink:href="#DejaVuSans-65"/>
     <use x="421.578125" xlink:href="#DejaVuSans-3a"/>
     <use x="455.269531" xlink:href="#DejaVuSans-20"/>
     <use x="487.056641" xlink:href="#DejaVuSans-3c"/>
     <use x="570.845703" xlink:href="#DejaVuSans-3d"/>
     <use x="654.634766" xlink:href="#DejaVuSans-35"/>
     <use x="718.257812" xlink:href="#DejaVuSans-30"/>
     <use x="781.880859" xlink:href="#DejaVuSans-4b"/>
    </g>
   </g>
  </g>
  <g id="axes_4">
   <g id="patch_11">
    <path d="M 470.23985 465.764082 
L 833.588688 465.764082 
L 833.588688 253.674082 
L 470.23985 253.674082 
z
" style="fill:#ebebeb;"/>
   </g>
   <g id="matplotlib.axis_7">
    <g id="xtick_22">
     <g id="line2d_70">
      <path clip-path="url(#p4fce25c17c)" d="M 541.808561 465.764082 
L 541.808561 253.674082 
" style="fill:none;stroke:#ffffff;stroke-linecap:square;"/>
     </g>
     <g id="line2d_71">
      <path d="M 541.808561 465.764082 
" style="fill:none;stroke:#333333;stroke-linecap:square;stroke-width:1.5;"/>
      <g>
       <use style="fill:#333333;stroke:#000000;" x="541.808561" xlink:href="#mb7527c45e1" y="465.764082"/>
      </g>
     </g>
     <g id="text_23">
      <!-- 0.2 -->
      <g style="fill:#4d4d4d;" transform="translate(534.811186 477.400707)scale(0.088 -0.088)">
       <use xlink:href="#DejaVuSans-30"/>
       <use x="63.623047" xlink:href="#DejaVuSans-2e"/>
       <use x="95.410156" xlink:href="#DejaVuSans-32"/>
      </g>
     </g>
    </g>
    <g id="xtick_23">
     <g id="line2d_72">
      <path clip-path="url(#p4fce25c17c)" d="M 651.914269 465.764082 
L 651.914269 253.674082 
" style="fill:none;stroke:#ffffff;stroke-linecap:square;"/>
     </g>
     <g id="line2d_73">
      <path d="M 651.914269 465.764082 
" style="fill:none;stroke:#333333;stroke-linecap:square;stroke-width:1.5;"/>
      <g>
       <use style="fill:#333333;stroke:#000000;" x="651.914269" xlink:href="#mb7527c45e1" y="465.764082"/>
      </g>
     </g>
     <g id="text_24">
      <!-- 0.4 -->
      <g style="fill:#4d4d4d;" transform="translate(644.916894 477.400707)scale(0.088 -0.088)">
       <use xlink:href="#DejaVuSans-30"/>
       <use x="63.623047" xlink:href="#DejaVuSans-2e"/>
       <use x="95.410156" xlink:href="#DejaVuSans-34"/>
      </g>
     </g>
    </g>
    <g id="xtick_24">
     <g id="line2d_74">
      <path clip-path="url(#p4fce25c17c)" d="M 762.019977 465.764082 
L 762.019977 253.674082 
" style="fill:none;stroke:#ffffff;stroke-linecap:square;"/>
     </g>
     <g id="line2d_75">
      <path d="M 762.019977 465.764082 
" style="fill:none;stroke:#333333;stroke-linecap:square;stroke-width:1.5;"/>
      <g>
       <use style="fill:#333333;stroke:#000000;" x="762.019977" xlink:href="#mb7527c45e1" y="465.764082"/>
      </g>
     </g>
     <g id="text_25">
      <!-- 0.6 -->
      <g style="fill:#4d4d4d;" transform="translate(755.022602 477.400707)scale(0.088 -0.088)">
       <use xlink:href="#DejaVuSans-30"/>
       <use x="63.623047" xlink:href="#DejaVuSans-2e"/>
       <use x="95.410156" xlink:href="#DejaVuSans-36"/>
      </g>
     </g>
    </g>
    <g id="xtick_25">
     <g id="line2d_76">
      <path clip-path="url(#p4fce25c17c)" d="M 486.755707 465.764082 
L 486.755707 253.674082 
" style="fill:none;stroke:#ffffff;stroke-linecap:square;stroke-width:0.5;"/>
     </g>
    </g>
    <g id="xtick_26">
     <g id="line2d_77">
      <path clip-path="url(#p4fce25c17c)" d="M 596.861415 465.764082 
L 596.861415 253.674082 
" style="fill:none;stroke:#ffffff;stroke-linecap:square;stroke-width:0.5;"/>
     </g>
    </g>
    <g id="xtick_27">
     <g id="line2d_78">
      <path clip-path="url(#p4fce25c17c)" d="M 706.967123 465.764082 
L 706.967123 253.674082 
" style="fill:none;stroke:#ffffff;stroke-linecap:square;stroke-width:0.5;"/>
     </g>
    </g>
    <g id="xtick_28">
     <g id="line2d_79">
      <path clip-path="url(#p4fce25c17c)" d="M 817.072831 465.764082 
L 817.072831 253.674082 
" style="fill:none;stroke:#ffffff;stroke-linecap:square;stroke-width:0.5;"/>
     </g>
    </g>
    <g id="text_26">
     <!-- Temperature -->
     <g transform="translate(395.552203 491.989114)scale(0.11 -0.11)">
      <defs>
       <path d="M -19 4666 
L 3928 4666 
L 3928 4134 
L 2272 4134 
L 2272 0 
L 1638 0 
L 1638 4134 
L -19 4134 
L -19 4666 
z
" id="DejaVuSans-54" transform="scale(0.015625)"/>
       <path d="M 1159 525 
L 1159 -1331 
L 581 -1331 
L 581 3500 
L 1159 3500 
L 1159 2969 
Q 1341 3281 1617 3432 
Q 1894 3584 2278 3584 
Q 2916 3584 3314 3078 
Q 3713 2572 3713 1747 
Q 3713 922 3314 415 
Q 2916 -91 2278 -91 
Q 1894 -91 1617 61 
Q 1341 213 1159 525 
z
M 3116 1747 
Q 3116 2381 2855 2742 
Q 2594 3103 2138 3103 
Q 1681 3103 1420 2742 
Q 1159 2381 1159 1747 
Q 1159 1113 1420 752 
Q 1681 391 2138 391 
Q 2594 391 2855 752 
Q 3116 1113 3116 1747 
z
" id="DejaVuSans-70" transform="scale(0.015625)"/>
      </defs>
      <use xlink:href="#DejaVuSans-54"/>
      <use x="44.083984" xlink:href="#DejaVuSans-65"/>
      <use x="105.607422" xlink:href="#DejaVuSans-6d"/>
      <use x="203.019531" xlink:href="#DejaVuSans-70"/>
      <use x="266.496094" xlink:href="#DejaVuSans-65"/>
      <use x="328.019531" xlink:href="#DejaVuSans-72"/>
      <use x="369.132812" xlink:href="#DejaVuSans-61"/>
      <use x="430.412109" xlink:href="#DejaVuSans-74"/>
      <use x="469.621094" xlink:href="#DejaVuSans-75"/>
      <use x="533" xlink:href="#DejaVuSans-72"/>
      <use x="571.863281" xlink:href="#DejaVuSans-65"/>
     </g>
    </g>
   </g>
   <g id="matplotlib.axis_8">
    <g id="ytick_24">
     <g id="line2d_80">
      <path clip-path="url(#p4fce25c17c)" d="M 470.23985 408.595679 
L 833.588688 408.595679 
" style="fill:none;stroke:#ffffff;stroke-linecap:square;"/>
     </g>
     <g id="line2d_81">
      <path d="M 470.23985 408.595679 
" style="fill:none;stroke:#333333;stroke-linecap:square;stroke-width:1.5;"/>
      <g>
       <use style="fill:#333333;stroke:#000000;" x="470.23985" xlink:href="#m9467b3c3c6" y="408.595679"/>
      </g>
     </g>
     <g id="text_27">
      <!-- 0.650 -->
      <g style="fill:#4d4d4d;" transform="translate(440.0971 411.023929)scale(0.088 -0.088)">
       <use xlink:href="#DejaVuSans-30"/>
       <use x="63.623047" xlink:href="#DejaVuSans-2e"/>
       <use x="95.410156" xlink:href="#DejaVuSans-36"/>
       <use x="159.033203" xlink:href="#DejaVuSans-35"/>
       <use x="222.65625" xlink:href="#DejaVuSans-30"/>
      </g>
     </g>
    </g>
    <g id="ytick_25">
     <g id="line2d_82">
      <path clip-path="url(#p4fce25c17c)" d="M 470.23985 336.238219 
L 833.588688 336.238219 
" style="fill:none;stroke:#ffffff;stroke-linecap:square;"/>
     </g>
     <g id="line2d_83">
      <path d="M 470.23985 336.238219 
" style="fill:none;stroke:#333333;stroke-linecap:square;stroke-width:1.5;"/>
      <g>
       <use style="fill:#333333;stroke:#000000;" x="470.23985" xlink:href="#m9467b3c3c6" y="336.238219"/>
      </g>
     </g>
     <g id="text_28">
      <!-- 0.655 -->
      <g style="fill:#4d4d4d;" transform="translate(440.0971 338.666469)scale(0.088 -0.088)">
       <use xlink:href="#DejaVuSans-30"/>
       <use x="63.623047" xlink:href="#DejaVuSans-2e"/>
       <use x="95.410156" xlink:href="#DejaVuSans-36"/>
       <use x="159.033203" xlink:href="#DejaVuSans-35"/>
       <use x="222.65625" xlink:href="#DejaVuSans-35"/>
      </g>
     </g>
    </g>
    <g id="ytick_26">
     <g id="line2d_84">
      <path clip-path="url(#p4fce25c17c)" d="M 470.23985 263.880759 
L 833.588688 263.880759 
" style="fill:none;stroke:#ffffff;stroke-linecap:square;"/>
     </g>
     <g id="line2d_85">
      <path d="M 470.23985 263.880759 
" style="fill:none;stroke:#333333;stroke-linecap:square;stroke-width:1.5;"/>
      <g>
       <use style="fill:#333333;stroke:#000000;" x="470.23985" xlink:href="#m9467b3c3c6" y="263.880759"/>
      </g>
     </g>
     <g id="text_29">
      <!-- 0.660 -->
      <g style="fill:#4d4d4d;" transform="translate(440.0971 266.309009)scale(0.088 -0.088)">
       <use xlink:href="#DejaVuSans-30"/>
       <use x="63.623047" xlink:href="#DejaVuSans-2e"/>
       <use x="95.410156" xlink:href="#DejaVuSans-36"/>
       <use x="159.033203" xlink:href="#DejaVuSans-36"/>
       <use x="222.65625" xlink:href="#DejaVuSans-30"/>
      </g>
     </g>
    </g>
    <g id="ytick_27">
     <g id="line2d_86">
      <path clip-path="url(#p4fce25c17c)" d="M 470.23985 444.774409 
L 833.588688 444.774409 
" style="fill:none;stroke:#ffffff;stroke-linecap:square;stroke-width:0.5;"/>
     </g>
    </g>
    <g id="ytick_28">
     <g id="line2d_87">
      <path clip-path="url(#p4fce25c17c)" d="M 470.23985 372.416949 
L 833.588688 372.416949 
" style="fill:none;stroke:#ffffff;stroke-linecap:square;stroke-width:0.5;"/>
     </g>
    </g>
    <g id="ytick_29">
     <g id="line2d_88">
      <path clip-path="url(#p4fce25c17c)" d="M 470.23985 300.059489 
L 833.588688 300.059489 
" style="fill:none;stroke:#ffffff;stroke-linecap:square;stroke-width:0.5;"/>
     </g>
    </g>
   </g>
   <g id="line2d_89">
    <path clip-path="url(#p4fce25c17c)" d="M 486.755707 276.048598 
L 541.808561 270.473734 
L 596.861415 296.042222 
L 651.914269 369.208049 
L 706.967123 296.19755 
L 762.019977 340.921291 
L 817.072831 389.261656 
" style="fill:none;stroke:#db5f57;stroke-width:0.886227;"/>
   </g>
   <g id="line2d_90">
    <path clip-path="url(#p4fce25c17c)" d="M 486.755707 305.863495 
L 541.808561 277.102351 
L 596.861415 263.314537 
L 651.914269 293.702361 
L 706.967123 361.287682 
L 762.019977 330.557062 
L 817.072831 456.123628 
" style="fill:none;stroke:#57d3db;stroke-width:0.886227;"/>
   </g>
   <g id="PathCollection_4">
    <path clip-path="url(#p4fce25c17c)" d="M 486.755707 277.821052 
C 487.225767 277.821052 487.676638 277.634295 488.009021 277.301912 
C 488.341403 276.969529 488.52816 276.518658 488.52816 276.048598 
C 488.52816 275.578537 488.341403 275.127666 488.009021 274.795284 
C 487.676638 274.462901 487.225767 274.276144 486.755707 274.276144 
C 486.285646 274.276144 485.834775 274.462901 485.502392 274.795284 
C 485.17001 275.127666 484.983253 275.578537 484.983253 276.048598 
C 484.983253 276.518658 485.17001 276.969529 485.502392 277.301912 
C 485.834775 277.634295 486.285646 277.821052 486.755707 277.821052 
z
" style="fill:#db5f57;stroke:#db5f57;stroke-width:0.886227;"/>
    <path clip-path="url(#p4fce25c17c)" d="M 486.755707 307.635949 
C 487.225767 307.635949 487.676638 307.449192 488.009021 307.116809 
C 488.341403 306.784426 488.52816 306.333555 488.52816 305.863495 
C 488.52816 305.393434 488.341403 304.942563 488.009021 304.610181 
C 487.676638 304.277798 487.225767 304.091041 486.755707 304.091041 
C 486.285646 304.091041 485.834775 304.277798 485.502392 304.610181 
C 485.17001 304.942563 484.983253 305.393434 484.983253 305.863495 
C 484.983253 306.333555 485.17001 306.784426 485.502392 307.116809 
C 485.834775 307.449192 486.285646 307.635949 486.755707 307.635949 
z
" style="fill:#57d3db;stroke:#57d3db;stroke-width:0.886227;"/>
    <path clip-path="url(#p4fce25c17c)" d="M 541.808561 272.246188 
C 542.278621 272.246188 542.729492 272.059431 543.061875 271.727048 
C 543.394258 271.394665 543.581015 270.943794 543.581015 270.473734 
C 543.581015 270.003673 543.394258 269.552802 543.061875 269.22042 
C 542.729492 268.888037 542.278621 268.70128 541.808561 268.70128 
C 541.3385 268.70128 540.887629 268.888037 540.555247 269.22042 
C 540.222864 269.552802 540.036107 270.003673 540.036107 270.473734 
C 540.036107 270.943794 540.222864 271.394665 540.555247 271.727048 
C 540.887629 272.059431 541.3385 272.246188 541.808561 272.246188 
z
" style="fill:#db5f57;stroke:#db5f57;stroke-width:0.886227;"/>
    <path clip-path="url(#p4fce25c17c)" d="M 541.808561 278.874804 
C 542.278621 278.874804 542.729492 278.688048 543.061875 278.355665 
C 543.394258 278.023282 543.581015 277.572411 543.581015 277.102351 
C 543.581015 276.63229 543.394258 276.181419 543.061875 275.849036 
C 542.729492 275.516654 542.278621 275.329897 541.808561 275.329897 
C 541.3385 275.329897 540.887629 275.516654 540.555247 275.849036 
C 540.222864 276.181419 540.036107 276.63229 540.036107 277.102351 
C 540.036107 277.572411 540.222864 278.023282 540.555247 278.355665 
C 540.887629 278.688048 541.3385 278.874804 541.808561 278.874804 
z
" style="fill:#57d3db;stroke:#57d3db;stroke-width:0.886227;"/>
    <path clip-path="url(#p4fce25c17c)" d="M 596.861415 297.814676 
C 597.331475 297.814676 597.782346 297.627919 598.114729 297.295536 
C 598.447112 296.963153 598.633869 296.512282 598.633869 296.042222 
C 598.633869 295.572162 598.447112 295.12129 598.114729 294.788908 
C 597.782346 294.456525 597.331475 294.269768 596.861415 294.269768 
C 596.391355 294.269768 595.940483 294.456525 595.608101 294.788908 
C 595.275718 295.12129 595.088961 295.572162 595.088961 296.042222 
C 595.088961 296.512282 595.275718 296.963153 595.608101 297.295536 
C 595.940483 297.627919 596.391355 297.814676 596.861415 297.814676 
z
" style="fill:#db5f57;stroke:#db5f57;stroke-width:0.886227;"/>
    <path clip-path="url(#p4fce25c17c)" d="M 596.861415 265.086991 
C 597.331475 265.086991 597.782346 264.900234 598.114729 264.567851 
C 598.447112 264.235468 598.633869 263.784597 598.633869 263.314537 
C 598.633869 262.844477 598.447112 262.393606 598.114729 262.061223 
C 597.782346 261.72884 597.331475 261.542083 596.861415 261.542083 
C 596.391355 261.542083 595.940483 261.72884 595.608101 262.061223 
C 595.275718 262.393606 595.088961 262.844477 595.088961 263.314537 
C 595.088961 263.784597 595.275718 264.235468 595.608101 264.567851 
C 595.940483 264.900234 596.391355 265.086991 596.861415 265.086991 
z
" style="fill:#57d3db;stroke:#57d3db;stroke-width:0.886227;"/>
    <path clip-path="url(#p4fce25c17c)" d="M 651.914269 370.980503 
C 652.384329 370.980503 652.8352 370.793746 653.167583 370.461363 
C 653.499966 370.12898 653.686723 369.678109 653.686723 369.208049 
C 653.686723 368.737989 653.499966 368.287118 653.167583 367.954735 
C 652.8352 367.622352 652.384329 367.435595 651.914269 367.435595 
C 651.444209 367.435595 650.993338 367.622352 650.660955 367.954735 
C 650.328572 368.287118 650.141815 368.737989 650.141815 369.208049 
C 650.141815 369.678109 650.328572 370.12898 650.660955 370.461363 
C 650.993338 370.793746 651.444209 370.980503 651.914269 370.980503 
z
" style="fill:#db5f57;stroke:#db5f57;stroke-width:0.886227;"/>
    <path clip-path="url(#p4fce25c17c)" d="M 651.914269 295.474815 
C 652.384329 295.474815 652.8352 295.288058 653.167583 294.955676 
C 653.499966 294.623293 653.686723 294.172422 653.686723 293.702361 
C 653.686723 293.232301 653.499966 292.78143 653.167583 292.449047 
C 652.8352 292.116665 652.384329 291.929908 651.914269 291.929908 
C 651.444209 291.929908 650.993338 292.116665 650.660955 292.449047 
C 650.328572 292.78143 650.141815 293.232301 650.141815 293.702361 
C 650.141815 294.172422 650.328572 294.623293 650.660955 294.955676 
C 650.993338 295.288058 651.444209 295.474815 651.914269 295.474815 
z
" style="fill:#57d3db;stroke:#57d3db;stroke-width:0.886227;"/>
    <path clip-path="url(#p4fce25c17c)" d="M 706.967123 297.970004 
C 707.437183 297.970004 707.888054 297.783247 708.220437 297.450864 
C 708.55282 297.118481 708.739577 296.66761 708.739577 296.19755 
C 708.739577 295.727489 708.55282 295.276618 708.220437 294.944236 
C 707.888054 294.611853 707.437183 294.425096 706.967123 294.425096 
C 706.497063 294.425096 706.046192 294.611853 705.713809 294.944236 
C 705.381426 295.276618 705.194669 295.727489 705.194669 296.19755 
C 705.194669 296.66761 705.381426 297.118481 705.713809 297.450864 
C 706.046192 297.783247 706.497063 297.970004 706.967123 297.970004 
z
" style="fill:#db5f57;stroke:#db5f57;stroke-width:0.886227;"/>
    <path clip-path="url(#p4fce25c17c)" d="M 706.967123 363.060136 
C 707.437183 363.060136 707.888054 362.873379 708.220437 362.540997 
C 708.55282 362.208614 708.739577 361.757743 708.739577 361.287682 
C 708.739577 360.817622 708.55282 360.366751 708.220437 360.034368 
C 707.888054 359.701986 707.437183 359.515229 706.967123 359.515229 
C 706.497063 359.515229 706.046192 359.701986 705.713809 360.034368 
C 705.381426 360.366751 705.194669 360.817622 705.194669 361.287682 
C 705.194669 361.757743 705.381426 362.208614 705.713809 362.540997 
C 706.046192 362.873379 706.497063 363.060136 706.967123 363.060136 
z
" style="fill:#57d3db;stroke:#57d3db;stroke-width:0.886227;"/>
    <path clip-path="url(#p4fce25c17c)" d="M 762.019977 342.693745 
C 762.490037 342.693745 762.940908 342.506988 763.273291 342.174605 
C 763.605674 341.842223 763.792431 341.391351 763.792431 340.921291 
C 763.792431 340.451231 763.605674 340.00036 763.273291 339.667977 
C 762.940908 339.335594 762.490037 339.148837 762.019977 339.148837 
C 761.549917 339.148837 761.099046 339.335594 760.766663 339.667977 
C 760.43428 340.00036 760.247523 340.451231 760.247523 340.921291 
C 760.247523 341.391351 760.43428 341.842223 760.766663 342.174605 
C 761.099046 342.506988 761.549917 342.693745 762.019977 342.693745 
z
" style="fill:#db5f57;stroke:#db5f57;stroke-width:0.886227;"/>
    <path clip-path="url(#p4fce25c17c)" d="M 762.019977 332.329516 
C 762.490037 332.329516 762.940908 332.142759 763.273291 331.810376 
C 763.605674 331.477993 763.792431 331.027122 763.792431 330.557062 
C 763.792431 330.087002 763.605674 329.636131 763.273291 329.303748 
C 762.940908 328.971365 762.490037 328.784608 762.019977 328.784608 
C 761.549917 328.784608 761.099046 328.971365 760.766663 329.303748 
C 760.43428 329.636131 760.247523 330.087002 760.247523 330.557062 
C 760.247523 331.027122 760.43428 331.477993 760.766663 331.810376 
C 761.099046 332.142759 761.549917 332.329516 762.019977 332.329516 
z
" style="fill:#57d3db;stroke:#57d3db;stroke-width:0.886227;"/>
    <path clip-path="url(#p4fce25c17c)" d="M 817.072831 391.03411 
C 817.542892 391.03411 817.993763 390.847353 818.326145 390.51497 
C 818.658528 390.182587 818.845285 389.731716 818.845285 389.261656 
C 818.845285 388.791595 818.658528 388.340724 818.326145 388.008342 
C 817.993763 387.675959 817.542892 387.489202 817.072831 387.489202 
C 816.602771 387.489202 816.1519 387.675959 815.819517 388.008342 
C 815.487134 388.340724 815.300377 388.791595 815.300377 389.261656 
C 815.300377 389.731716 815.487134 390.182587 815.819517 390.51497 
C 816.1519 390.847353 816.602771 391.03411 817.072831 391.03411 
z
" style="fill:#db5f57;stroke:#db5f57;stroke-width:0.886227;"/>
    <path clip-path="url(#p4fce25c17c)" d="M 817.072831 457.896082 
C 817.542892 457.896082 817.993763 457.709325 818.326145 457.376942 
C 818.658528 457.044559 818.845285 456.593688 818.845285 456.123628 
C 818.845285 455.653568 818.658528 455.202696 818.326145 454.870314 
C 817.993763 454.537931 817.542892 454.351174 817.072831 454.351174 
C 816.602771 454.351174 816.1519 454.537931 815.819517 454.870314 
C 815.487134 455.202696 815.300377 455.653568 815.300377 456.123628 
C 815.300377 456.593688 815.487134 457.044559 815.819517 457.376942 
C 816.1519 457.709325 816.602771 457.896082 817.072831 457.896082 
z
" style="fill:#57d3db;stroke:#57d3db;stroke-width:0.886227;"/>
   </g>
   <g id="patch_12">
    <path d="M 470.23985 253.674082 
L 833.588688 253.674082 
L 833.588688 238.63 
L 470.23985 238.63 
z
" style="fill:#d9d9d9;"/>
   </g>
   <g id="text_30">
    <!-- F1 score: &gt;50K -->
    <g style="fill:#1a1a1a;" transform="translate(618.312706 248.580291)scale(0.088 -0.088)">
     <defs>
      <path d="M 678 3150 
L 678 3719 
L 4684 2266 
L 4684 1747 
L 678 294 
L 678 863 
L 3897 2003 
L 678 3150 
z
" id="DejaVuSans-3e" transform="scale(0.015625)"/>
     </defs>
     <use xlink:href="#DejaVuSans-46"/>
     <use x="57.519531" xlink:href="#DejaVuSans-31"/>
     <use x="121.142578" xlink:href="#DejaVuSans-20"/>
     <use x="152.929688" xlink:href="#DejaVuSans-73"/>
     <use x="205.029297" xlink:href="#DejaVuSans-63"/>
     <use x="260.009766" xlink:href="#DejaVuSans-6f"/>
     <use x="321.191406" xlink:href="#DejaVuSans-72"/>
     <use x="360.054688" xlink:href="#DejaVuSans-65"/>
     <use x="421.578125" xlink:href="#DejaVuSans-3a"/>
     <use x="455.269531" xlink:href="#DejaVuSans-20"/>
     <use x="487.056641" xlink:href="#DejaVuSans-3e"/>
     <use x="570.845703" xlink:href="#DejaVuSans-35"/>
     <use x="634.46875" xlink:href="#DejaVuSans-30"/>
     <use x="698.091797" xlink:href="#DejaVuSans-4b"/>
    </g>
   </g>
  </g>
 </g>
 <defs>
  <clipPath id="p305a3b4b37">
   <rect height="212.09" width="363.348837" x="52.388688" y="22.244082"/>
  </clipPath>
  <clipPath id="p400b957960">
   <path d="M 852.988688 247.647051 
L 852.988688 231.807051 
L 868.828688 231.807051 
L 868.828688 247.647051 
"/>
  </clipPath>
  <clipPath id="pbd98a8fbbd">
   <path d="M 852.988688 265.487051 
L 852.988688 249.647051 
L 868.828688 249.647051 
L 868.828688 265.487051 
"/>
  </clipPath>
  <clipPath id="pfa61d74a22">
   <rect height="212.09" width="363.348837" x="470.23985" y="22.244082"/>
  </clipPath>
  <clipPath id="p01f7fe87f5">
   <rect height="212.09" width="363.348837" x="52.388688" y="253.674082"/>
  </clipPath>
  <clipPath id="p4fce25c17c">
   <rect height="212.09" width="363.348837" x="470.23985" y="253.674082"/>
  </clipPath>
 </defs>
</svg>
