<?xml version="1.0" encoding="utf-8" standalone="no"?>
<!DOCTYPE svg PUBLIC "-//W3C//DTD SVG 1.1//EN"
  "http://www.w3.org/Graphics/SVG/1.1/DTD/svg11.dtd">
<svg xmlns:xlink="http://www.w3.org/1999/xlink" width="840.788688pt" height="501.47677pt" viewBox="0 0 840.788688 501.47677" xmlns="http://www.w3.org/2000/svg" version="1.1">
 <metadata>
  <rdf:RDF xmlns:dc="http://purl.org/dc/elements/1.1/" xmlns:cc="http://creativecommons.org/ns#" xmlns:rdf="http://www.w3.org/1999/02/22-rdf-syntax-ns#">
   <cc:Work>
    <dc:type rdf:resource="http://purl.org/dc/dcmitype/StillImage"/>
    <dc:date>2022-06-12T18:15:35.750587</dc:date>
    <dc:format>image/svg+xml</dc:format>
    <dc:creator>
     <cc:Agent>
      <dc:title>Matplotlib v3.5.2, https://matplotlib.org/</dc:title>
     </cc:Agent>
    </dc:creator>
   </cc:Work>
  </rdf:RDF>
 </metadata>
 <defs>
  <style type="text/css">*{stroke-linejoin: round; stroke-linecap: butt}</style>
 </defs>
 <g id="figure_1">
  <g id="patch_1">
   <path d="M 0 501.47677 
L 840.788688 501.47677 
L 840.788688 0 
L 0 0 
z
" style="fill: #ffffff; stroke: #ffffff; stroke-linejoin: miter"/>
  </g>
  <g id="axes_1">
   <g id="patch_2">
    <path d="M 52.388688 234.334082 
L 415.737525 234.334082 
L 415.737525 22.244082 
L 52.388688 22.244082 
z
" style="fill: #ebebeb"/>
   </g>
   <g id="matplotlib.axis_1">
    <g id="xtick_1">
     <g id="line2d_1">
      <path d="M 104.295664 234.334082 
L 104.295664 22.244082 
" clip-path="url(#p81c3cf6fec)" style="fill: none; stroke: #ffffff"/>
     </g>
    </g>
    <g id="xtick_2">
     <g id="line2d_2">
      <path d="M 363.830548 234.334082 
L 363.830548 22.244082 
" clip-path="url(#p81c3cf6fec)" style="fill: none; stroke: #ffffff"/>
     </g>
    </g>
    <g id="xtick_3">
     <g id="line2d_3">
      <path d="M 234.063106 234.334082 
L 234.063106 22.244082 
" clip-path="url(#p81c3cf6fec)" style="fill: none; stroke: #ffffff; stroke-width: 0.5"/>
     </g>
    </g>
   </g>
   <g id="matplotlib.axis_2">
    <g id="ytick_1">
     <g id="line2d_4">
      <path d="M 52.388688 233.585309 
L 415.737525 233.585309 
" clip-path="url(#p81c3cf6fec)" style="fill: none; stroke: #ffffff"/>
     </g>
     <g id="line2d_5">
      <path d="M 52.388688 233.585309 
" style="fill: none; stroke: #333333; stroke-width: 1.5"/>
      <defs>
       <path id="m776381e30b" d="M 0 0 
L -2.75 0 
" style="stroke: #000000"/>
      </defs>
      <g>
       <use xlink:href="#m776381e30b" x="52.388688" y="233.585309" style="fill: #333333; stroke: #000000"/>
      </g>
     </g>
     <g id="text_1">
      <!-- 0.839 -->
      <g style="fill: #4d4d4d" transform="translate(22.245938 236.013559)scale(0.088 -0.088)">
       <defs>
        <path id="DejaVuSans-30" d="M 2034 4250 
Q 1547 4250 1301 3770 
Q 1056 3291 1056 2328 
Q 1056 1369 1301 889 
Q 1547 409 2034 409 
Q 2525 409 2770 889 
Q 3016 1369 3016 2328 
Q 3016 3291 2770 3770 
Q 2525 4250 2034 4250 
z
M 2034 4750 
Q 2819 4750 3233 4129 
Q 3647 3509 3647 2328 
Q 3647 1150 3233 529 
Q 2819 -91 2034 -91 
Q 1250 -91 836 529 
Q 422 1150 422 2328 
Q 422 3509 836 4129 
Q 1250 4750 2034 4750 
z
" transform="scale(0.015625)"/>
        <path id="DejaVuSans-2e" d="M 684 794 
L 1344 794 
L 1344 0 
L 684 0 
L 684 794 
z
" transform="scale(0.015625)"/>
        <path id="DejaVuSans-38" d="M 2034 2216 
Q 1584 2216 1326 1975 
Q 1069 1734 1069 1313 
Q 1069 891 1326 650 
Q 1584 409 2034 409 
Q 2484 409 2743 651 
Q 3003 894 3003 1313 
Q 3003 1734 2745 1975 
Q 2488 2216 2034 2216 
z
M 1403 2484 
Q 997 2584 770 2862 
Q 544 3141 544 3541 
Q 544 4100 942 4425 
Q 1341 4750 2034 4750 
Q 2731 4750 3128 4425 
Q 3525 4100 3525 3541 
Q 3525 3141 3298 2862 
Q 3072 2584 2669 2484 
Q 3125 2378 3379 2068 
Q 3634 1759 3634 1313 
Q 3634 634 3220 271 
Q 2806 -91 2034 -91 
Q 1263 -91 848 271 
Q 434 634 434 1313 
Q 434 1759 690 2068 
Q 947 2378 1403 2484 
z
M 1172 3481 
Q 1172 3119 1398 2916 
Q 1625 2713 2034 2713 
Q 2441 2713 2670 2916 
Q 2900 3119 2900 3481 
Q 2900 3844 2670 4047 
Q 2441 4250 2034 4250 
Q 1625 4250 1398 4047 
Q 1172 3844 1172 3481 
z
" transform="scale(0.015625)"/>
        <path id="DejaVuSans-33" d="M 2597 2516 
Q 3050 2419 3304 2112 
Q 3559 1806 3559 1356 
Q 3559 666 3084 287 
Q 2609 -91 1734 -91 
Q 1441 -91 1130 -33 
Q 819 25 488 141 
L 488 750 
Q 750 597 1062 519 
Q 1375 441 1716 441 
Q 2309 441 2620 675 
Q 2931 909 2931 1356 
Q 2931 1769 2642 2001 
Q 2353 2234 1838 2234 
L 1294 2234 
L 1294 2753 
L 1863 2753 
Q 2328 2753 2575 2939 
Q 2822 3125 2822 3475 
Q 2822 3834 2567 4026 
Q 2313 4219 1838 4219 
Q 1578 4219 1281 4162 
Q 984 4106 628 3988 
L 628 4550 
Q 988 4650 1302 4700 
Q 1616 4750 1894 4750 
Q 2613 4750 3031 4423 
Q 3450 4097 3450 3541 
Q 3450 3153 3228 2886 
Q 3006 2619 2597 2516 
z
" transform="scale(0.015625)"/>
        <path id="DejaVuSans-39" d="M 703 97 
L 703 672 
Q 941 559 1184 500 
Q 1428 441 1663 441 
Q 2288 441 2617 861 
Q 2947 1281 2994 2138 
Q 2813 1869 2534 1725 
Q 2256 1581 1919 1581 
Q 1219 1581 811 2004 
Q 403 2428 403 3163 
Q 403 3881 828 4315 
Q 1253 4750 1959 4750 
Q 2769 4750 3195 4129 
Q 3622 3509 3622 2328 
Q 3622 1225 3098 567 
Q 2575 -91 1691 -91 
Q 1453 -91 1209 -44 
Q 966 3 703 97 
z
M 1959 2075 
Q 2384 2075 2632 2365 
Q 2881 2656 2881 3163 
Q 2881 3666 2632 3958 
Q 2384 4250 1959 4250 
Q 1534 4250 1286 3958 
Q 1038 3666 1038 3163 
Q 1038 2656 1286 2365 
Q 1534 2075 1959 2075 
z
" transform="scale(0.015625)"/>
       </defs>
       <use xlink:href="#DejaVuSans-30"/>
       <use xlink:href="#DejaVuSans-2e" x="63.623047"/>
       <use xlink:href="#DejaVuSans-38" x="95.410156"/>
       <use xlink:href="#DejaVuSans-33" x="159.033203"/>
       <use xlink:href="#DejaVuSans-39" x="222.65625"/>
      </g>
     </g>
    </g>
    <g id="ytick_2">
     <g id="line2d_6">
      <path d="M 52.388688 190.329412 
L 415.737525 190.329412 
" clip-path="url(#p81c3cf6fec)" style="fill: none; stroke: #ffffff"/>
     </g>
     <g id="line2d_7">
      <path d="M 52.388688 190.329412 
" style="fill: none; stroke: #333333; stroke-width: 1.5"/>
      <g>
       <use xlink:href="#m776381e30b" x="52.388688" y="190.329412" style="fill: #333333; stroke: #000000"/>
      </g>
     </g>
     <g id="text_2">
      <!-- 0.840 -->
      <g style="fill: #4d4d4d" transform="translate(22.245938 192.757662)scale(0.088 -0.088)">
       <defs>
        <path id="DejaVuSans-34" d="M 2419 4116 
L 825 1625 
L 2419 1625 
L 2419 4116 
z
M 2253 4666 
L 3047 4666 
L 3047 1625 
L 3713 1625 
L 3713 1100 
L 3047 1100 
L 3047 0 
L 2419 0 
L 2419 1100 
L 313 1100 
L 313 1709 
L 2253 4666 
z
" transform="scale(0.015625)"/>
       </defs>
       <use xlink:href="#DejaVuSans-30"/>
       <use xlink:href="#DejaVuSans-2e" x="63.623047"/>
       <use xlink:href="#DejaVuSans-38" x="95.410156"/>
       <use xlink:href="#DejaVuSans-34" x="159.033203"/>
       <use xlink:href="#DejaVuSans-30" x="222.65625"/>
      </g>
     </g>
    </g>
    <g id="ytick_3">
     <g id="line2d_8">
      <path d="M 52.388688 147.073516 
L 415.737525 147.073516 
" clip-path="url(#p81c3cf6fec)" style="fill: none; stroke: #ffffff"/>
     </g>
     <g id="line2d_9">
      <path d="M 52.388688 147.073516 
" style="fill: none; stroke: #333333; stroke-width: 1.5"/>
      <g>
       <use xlink:href="#m776381e30b" x="52.388688" y="147.073516" style="fill: #333333; stroke: #000000"/>
      </g>
     </g>
     <g id="text_3">
      <!-- 0.841 -->
      <g style="fill: #4d4d4d" transform="translate(22.245938 149.501766)scale(0.088 -0.088)">
       <defs>
        <path id="DejaVuSans-31" d="M 794 531 
L 1825 531 
L 1825 4091 
L 703 3866 
L 703 4441 
L 1819 4666 
L 2450 4666 
L 2450 531 
L 3481 531 
L 3481 0 
L 794 0 
L 794 531 
z
" transform="scale(0.015625)"/>
       </defs>
       <use xlink:href="#DejaVuSans-30"/>
       <use xlink:href="#DejaVuSans-2e" x="63.623047"/>
       <use xlink:href="#DejaVuSans-38" x="95.410156"/>
       <use xlink:href="#DejaVuSans-34" x="159.033203"/>
       <use xlink:href="#DejaVuSans-31" x="222.65625"/>
      </g>
     </g>
    </g>
    <g id="ytick_4">
     <g id="line2d_10">
      <path d="M 52.388688 103.817619 
L 415.737525 103.817619 
" clip-path="url(#p81c3cf6fec)" style="fill: none; stroke: #ffffff"/>
     </g>
     <g id="line2d_11">
      <path d="M 52.388688 103.817619 
" style="fill: none; stroke: #333333; stroke-width: 1.5"/>
      <g>
       <use xlink:href="#m776381e30b" x="52.388688" y="103.817619" style="fill: #333333; stroke: #000000"/>
      </g>
     </g>
     <g id="text_4">
      <!-- 0.842 -->
      <g style="fill: #4d4d4d" transform="translate(22.245938 106.245869)scale(0.088 -0.088)">
       <defs>
        <path id="DejaVuSans-32" d="M 1228 531 
L 3431 531 
L 3431 0 
L 469 0 
L 469 531 
Q 828 903 1448 1529 
Q 2069 2156 2228 2338 
Q 2531 2678 2651 2914 
Q 2772 3150 2772 3378 
Q 2772 3750 2511 3984 
Q 2250 4219 1831 4219 
Q 1534 4219 1204 4116 
Q 875 4013 500 3803 
L 500 4441 
Q 881 4594 1212 4672 
Q 1544 4750 1819 4750 
Q 2544 4750 2975 4387 
Q 3406 4025 3406 3419 
Q 3406 3131 3298 2873 
Q 3191 2616 2906 2266 
Q 2828 2175 2409 1742 
Q 1991 1309 1228 531 
z
" transform="scale(0.015625)"/>
       </defs>
       <use xlink:href="#DejaVuSans-30"/>
       <use xlink:href="#DejaVuSans-2e" x="63.623047"/>
       <use xlink:href="#DejaVuSans-38" x="95.410156"/>
       <use xlink:href="#DejaVuSans-34" x="159.033203"/>
       <use xlink:href="#DejaVuSans-32" x="222.65625"/>
      </g>
     </g>
    </g>
    <g id="ytick_5">
     <g id="line2d_12">
      <path d="M 52.388688 60.561722 
L 415.737525 60.561722 
" clip-path="url(#p81c3cf6fec)" style="fill: none; stroke: #ffffff"/>
     </g>
     <g id="line2d_13">
      <path d="M 52.388688 60.561722 
" style="fill: none; stroke: #333333; stroke-width: 1.5"/>
      <g>
       <use xlink:href="#m776381e30b" x="52.388688" y="60.561722" style="fill: #333333; stroke: #000000"/>
      </g>
     </g>
     <g id="text_5">
      <!-- 0.843 -->
      <g style="fill: #4d4d4d" transform="translate(22.245938 62.989972)scale(0.088 -0.088)">
       <use xlink:href="#DejaVuSans-30"/>
       <use xlink:href="#DejaVuSans-2e" x="63.623047"/>
       <use xlink:href="#DejaVuSans-38" x="95.410156"/>
       <use xlink:href="#DejaVuSans-34" x="159.033203"/>
       <use xlink:href="#DejaVuSans-33" x="222.65625"/>
      </g>
     </g>
    </g>
    <g id="ytick_6">
     <g id="line2d_14">
      <path d="M 52.388688 211.957361 
L 415.737525 211.957361 
" clip-path="url(#p81c3cf6fec)" style="fill: none; stroke: #ffffff; stroke-width: 0.5"/>
     </g>
    </g>
    <g id="ytick_7">
     <g id="line2d_15">
      <path d="M 52.388688 168.701464 
L 415.737525 168.701464 
" clip-path="url(#p81c3cf6fec)" style="fill: none; stroke: #ffffff; stroke-width: 0.5"/>
     </g>
    </g>
    <g id="ytick_8">
     <g id="line2d_16">
      <path d="M 52.388688 125.445567 
L 415.737525 125.445567 
" clip-path="url(#p81c3cf6fec)" style="fill: none; stroke: #ffffff; stroke-width: 0.5"/>
     </g>
    </g>
    <g id="ytick_9">
     <g id="line2d_17">
      <path d="M 52.388688 82.18967 
L 415.737525 82.18967 
" clip-path="url(#p81c3cf6fec)" style="fill: none; stroke: #ffffff; stroke-width: 0.5"/>
     </g>
    </g>
    <g id="ytick_10">
     <g id="line2d_18">
      <path d="M 52.388688 38.933774 
L 415.737525 38.933774 
" clip-path="url(#p81c3cf6fec)" style="fill: none; stroke: #ffffff; stroke-width: 0.5"/>
     </g>
    </g>
    <g id="text_6">
     <!-- Value -->
     <g transform="translate(15.558281 256.228457)rotate(-90)scale(0.11 -0.11)">
      <defs>
       <path id="DejaVuSans-56" d="M 1831 0 
L 50 4666 
L 709 4666 
L 2188 738 
L 3669 4666 
L 4325 4666 
L 2547 0 
L 1831 0 
z
" transform="scale(0.015625)"/>
       <path id="DejaVuSans-61" d="M 2194 1759 
Q 1497 1759 1228 1600 
Q 959 1441 959 1056 
Q 959 750 1161 570 
Q 1363 391 1709 391 
Q 2188 391 2477 730 
Q 2766 1069 2766 1631 
L 2766 1759 
L 2194 1759 
z
M 3341 1997 
L 3341 0 
L 2766 0 
L 2766 531 
Q 2569 213 2275 61 
Q 1981 -91 1556 -91 
Q 1019 -91 701 211 
Q 384 513 384 1019 
Q 384 1609 779 1909 
Q 1175 2209 1959 2209 
L 2766 2209 
L 2766 2266 
Q 2766 2663 2505 2880 
Q 2244 3097 1772 3097 
Q 1472 3097 1187 3025 
Q 903 2953 641 2809 
L 641 3341 
Q 956 3463 1253 3523 
Q 1550 3584 1831 3584 
Q 2591 3584 2966 3190 
Q 3341 2797 3341 1997 
z
" transform="scale(0.015625)"/>
       <path id="DejaVuSans-6c" d="M 603 4863 
L 1178 4863 
L 1178 0 
L 603 0 
L 603 4863 
z
" transform="scale(0.015625)"/>
       <path id="DejaVuSans-75" d="M 544 1381 
L 544 3500 
L 1119 3500 
L 1119 1403 
Q 1119 906 1312 657 
Q 1506 409 1894 409 
Q 2359 409 2629 706 
Q 2900 1003 2900 1516 
L 2900 3500 
L 3475 3500 
L 3475 0 
L 2900 0 
L 2900 538 
Q 2691 219 2414 64 
Q 2138 -91 1772 -91 
Q 1169 -91 856 284 
Q 544 659 544 1381 
z
M 1991 3584 
L 1991 3584 
z
" transform="scale(0.015625)"/>
       <path id="DejaVuSans-65" d="M 3597 1894 
L 3597 1613 
L 953 1613 
Q 991 1019 1311 708 
Q 1631 397 2203 397 
Q 2534 397 2845 478 
Q 3156 559 3463 722 
L 3463 178 
Q 3153 47 2828 -22 
Q 2503 -91 2169 -91 
Q 1331 -91 842 396 
Q 353 884 353 1716 
Q 353 2575 817 3079 
Q 1281 3584 2069 3584 
Q 2775 3584 3186 3129 
Q 3597 2675 3597 1894 
z
M 3022 2063 
Q 3016 2534 2758 2815 
Q 2500 3097 2075 3097 
Q 1594 3097 1305 2825 
Q 1016 2553 972 2059 
L 3022 2063 
z
" transform="scale(0.015625)"/>
      </defs>
      <use xlink:href="#DejaVuSans-56"/>
      <use xlink:href="#DejaVuSans-61" x="60.658203"/>
      <use xlink:href="#DejaVuSans-6c" x="121.9375"/>
      <use xlink:href="#DejaVuSans-75" x="149.720703"/>
      <use xlink:href="#DejaVuSans-65" x="213.099609"/>
     </g>
    </g>
   </g>
   <g id="line2d_19">
    <path d="M 104.295664 128.289082 
L 363.830548 130.816651 
" clip-path="url(#p81c3cf6fec)" style="fill: none; stroke: #000000; stroke-width: 0.886227"/>
   </g>
   <g id="PathCollection_1">
    <path d="M 104.295664 130.061536 
C 104.765725 130.061536 105.216596 129.874779 105.548978 129.542396 
C 105.881361 129.210014 106.068118 128.759143 106.068118 128.289082 
C 106.068118 127.819022 105.881361 127.368151 105.548978 127.035768 
C 105.216596 126.703385 104.765725 126.516628 104.295664 126.516628 
C 103.825604 126.516628 103.374733 126.703385 103.04235 127.035768 
C 102.709967 127.368151 102.52321 127.819022 102.52321 128.289082 
C 102.52321 128.759143 102.709967 129.210014 103.04235 129.542396 
C 103.374733 129.874779 103.825604 130.061536 104.295664 130.061536 
z
" clip-path="url(#p81c3cf6fec)" style="stroke: #000000; stroke-width: 0.886227"/>
    <path d="M 363.830548 132.589105 
C 364.300608 132.589105 364.751479 132.402348 365.083862 132.069965 
C 365.416245 131.737583 365.603002 131.286712 365.603002 130.816651 
C 365.603002 130.346591 365.416245 129.89572 365.083862 129.563337 
C 364.751479 129.230954 364.300608 129.044197 363.830548 129.044197 
C 363.360488 129.044197 362.909617 129.230954 362.577234 129.563337 
C 362.244851 129.89572 362.058094 130.346591 362.058094 130.816651 
C 362.058094 131.286712 362.244851 131.737583 362.577234 132.069965 
C 362.909617 132.402348 363.360488 132.589105 363.830548 132.589105 
z
" clip-path="url(#p81c3cf6fec)" style="stroke: #000000; stroke-width: 0.886227"/>
   </g>
   <g id="patch_3">
    <path d="M 52.388688 22.244082 
L 415.737525 22.244082 
L 415.737525 7.2 
L 52.388688 7.2 
z
" style="fill: #d9d9d9"/>
   </g>
   <g id="PolyCollection_1">
    <path d="M 104.295664 31.884537 
L 104.295664 224.693628 
L 363.830548 216.558863 
L 363.830548 45.07444 
L 363.830548 45.07444 
L 104.295664 31.884537 
z
" clip-path="url(#p81c3cf6fec)" style="fill: #333333; fill-opacity: 0.501961"/>
   </g>
   <g id="text_7">
    <!-- Accuracy -->
    <g style="fill: #1a1a1a" transform="translate(213.974356 17.150291)scale(0.088 -0.088)">
     <defs>
      <path id="DejaVuSans-41" d="M 2188 4044 
L 1331 1722 
L 3047 1722 
L 2188 4044 
z
M 1831 4666 
L 2547 4666 
L 4325 0 
L 3669 0 
L 3244 1197 
L 1141 1197 
L 716 0 
L 50 0 
L 1831 4666 
z
" transform="scale(0.015625)"/>
      <path id="DejaVuSans-63" d="M 3122 3366 
L 3122 2828 
Q 2878 2963 2633 3030 
Q 2388 3097 2138 3097 
Q 1578 3097 1268 2742 
Q 959 2388 959 1747 
Q 959 1106 1268 751 
Q 1578 397 2138 397 
Q 2388 397 2633 464 
Q 2878 531 3122 666 
L 3122 134 
Q 2881 22 2623 -34 
Q 2366 -91 2075 -91 
Q 1284 -91 818 406 
Q 353 903 353 1747 
Q 353 2603 823 3093 
Q 1294 3584 2113 3584 
Q 2378 3584 2631 3529 
Q 2884 3475 3122 3366 
z
" transform="scale(0.015625)"/>
      <path id="DejaVuSans-72" d="M 2631 2963 
Q 2534 3019 2420 3045 
Q 2306 3072 2169 3072 
Q 1681 3072 1420 2755 
Q 1159 2438 1159 1844 
L 1159 0 
L 581 0 
L 581 3500 
L 1159 3500 
L 1159 2956 
Q 1341 3275 1631 3429 
Q 1922 3584 2338 3584 
Q 2397 3584 2469 3576 
Q 2541 3569 2628 3553 
L 2631 2963 
z
" transform="scale(0.015625)"/>
      <path id="DejaVuSans-79" d="M 2059 -325 
Q 1816 -950 1584 -1140 
Q 1353 -1331 966 -1331 
L 506 -1331 
L 506 -850 
L 844 -850 
Q 1081 -850 1212 -737 
Q 1344 -625 1503 -206 
L 1606 56 
L 191 3500 
L 800 3500 
L 1894 763 
L 2988 3500 
L 3597 3500 
L 2059 -325 
z
" transform="scale(0.015625)"/>
     </defs>
     <use xlink:href="#DejaVuSans-41"/>
     <use xlink:href="#DejaVuSans-63" x="66.658203"/>
     <use xlink:href="#DejaVuSans-63" x="121.638672"/>
     <use xlink:href="#DejaVuSans-75" x="176.619141"/>
     <use xlink:href="#DejaVuSans-72" x="239.998047"/>
     <use xlink:href="#DejaVuSans-61" x="281.111328"/>
     <use xlink:href="#DejaVuSans-63" x="342.390625"/>
     <use xlink:href="#DejaVuSans-79" x="397.371094"/>
    </g>
   </g>
  </g>
  <g id="axes_2">
   <g id="patch_4">
    <path d="M 470.23985 234.334082 
L 833.588688 234.334082 
L 833.588688 22.244082 
L 470.23985 22.244082 
z
" style="fill: #ebebeb"/>
   </g>
   <g id="matplotlib.axis_3">
    <g id="xtick_4">
     <g id="line2d_20">
      <path d="M 522.146827 234.334082 
L 522.146827 22.244082 
" clip-path="url(#p6be27f1f3f)" style="fill: none; stroke: #ffffff; stroke-linecap: square"/>
     </g>
    </g>
    <g id="xtick_5">
     <g id="line2d_21">
      <path d="M 781.681711 234.334082 
L 781.681711 22.244082 
" clip-path="url(#p6be27f1f3f)" style="fill: none; stroke: #ffffff; stroke-linecap: square"/>
     </g>
    </g>
    <g id="xtick_6">
     <g id="line2d_22">
      <path d="M 651.914269 234.334082 
L 651.914269 22.244082 
" clip-path="url(#p6be27f1f3f)" style="fill: none; stroke: #ffffff; stroke-width: 0.5; stroke-linecap: square"/>
     </g>
    </g>
   </g>
   <g id="matplotlib.axis_4">
    <g id="ytick_11">
     <g id="line2d_23">
      <path d="M 470.23985 223.838116 
L 833.588688 223.838116 
" clip-path="url(#p6be27f1f3f)" style="fill: none; stroke: #ffffff; stroke-linecap: square"/>
     </g>
     <g id="line2d_24">
      <path d="M 470.23985 223.838116 
" style="fill: none; stroke: #333333; stroke-width: 1.5; stroke-linecap: square"/>
      <g>
       <use xlink:href="#m776381e30b" x="470.23985" y="223.838116" style="fill: #333333; stroke: #000000"/>
      </g>
     </g>
     <g id="text_8">
      <!-- 0.894 -->
      <g style="fill: #4d4d4d" transform="translate(440.0971 226.266366)scale(0.088 -0.088)">
       <use xlink:href="#DejaVuSans-30"/>
       <use xlink:href="#DejaVuSans-2e" x="63.623047"/>
       <use xlink:href="#DejaVuSans-38" x="95.410156"/>
       <use xlink:href="#DejaVuSans-39" x="159.033203"/>
       <use xlink:href="#DejaVuSans-34" x="222.65625"/>
      </g>
     </g>
    </g>
    <g id="ytick_12">
     <g id="line2d_25">
      <path d="M 470.23985 171.331215 
L 833.588688 171.331215 
" clip-path="url(#p6be27f1f3f)" style="fill: none; stroke: #ffffff; stroke-linecap: square"/>
     </g>
     <g id="line2d_26">
      <path d="M 470.23985 171.331215 
" style="fill: none; stroke: #333333; stroke-width: 1.5; stroke-linecap: square"/>
      <g>
       <use xlink:href="#m776381e30b" x="470.23985" y="171.331215" style="fill: #333333; stroke: #000000"/>
      </g>
     </g>
     <g id="text_9">
      <!-- 0.895 -->
      <g style="fill: #4d4d4d" transform="translate(440.0971 173.759465)scale(0.088 -0.088)">
       <defs>
        <path id="DejaVuSans-35" d="M 691 4666 
L 3169 4666 
L 3169 4134 
L 1269 4134 
L 1269 2991 
Q 1406 3038 1543 3061 
Q 1681 3084 1819 3084 
Q 2600 3084 3056 2656 
Q 3513 2228 3513 1497 
Q 3513 744 3044 326 
Q 2575 -91 1722 -91 
Q 1428 -91 1123 -41 
Q 819 9 494 109 
L 494 744 
Q 775 591 1075 516 
Q 1375 441 1709 441 
Q 2250 441 2565 725 
Q 2881 1009 2881 1497 
Q 2881 1984 2565 2268 
Q 2250 2553 1709 2553 
Q 1456 2553 1204 2497 
Q 953 2441 691 2322 
L 691 4666 
z
" transform="scale(0.015625)"/>
       </defs>
       <use xlink:href="#DejaVuSans-30"/>
       <use xlink:href="#DejaVuSans-2e" x="63.623047"/>
       <use xlink:href="#DejaVuSans-38" x="95.410156"/>
       <use xlink:href="#DejaVuSans-39" x="159.033203"/>
       <use xlink:href="#DejaVuSans-35" x="222.65625"/>
      </g>
     </g>
    </g>
    <g id="ytick_13">
     <g id="line2d_27">
      <path d="M 470.23985 118.824315 
L 833.588688 118.824315 
" clip-path="url(#p6be27f1f3f)" style="fill: none; stroke: #ffffff; stroke-linecap: square"/>
     </g>
     <g id="line2d_28">
      <path d="M 470.23985 118.824315 
" style="fill: none; stroke: #333333; stroke-width: 1.5; stroke-linecap: square"/>
      <g>
       <use xlink:href="#m776381e30b" x="470.23985" y="118.824315" style="fill: #333333; stroke: #000000"/>
      </g>
     </g>
     <g id="text_10">
      <!-- 0.896 -->
      <g style="fill: #4d4d4d" transform="translate(440.0971 121.252565)scale(0.088 -0.088)">
       <defs>
        <path id="DejaVuSans-36" d="M 2113 2584 
Q 1688 2584 1439 2293 
Q 1191 2003 1191 1497 
Q 1191 994 1439 701 
Q 1688 409 2113 409 
Q 2538 409 2786 701 
Q 3034 994 3034 1497 
Q 3034 2003 2786 2293 
Q 2538 2584 2113 2584 
z
M 3366 4563 
L 3366 3988 
Q 3128 4100 2886 4159 
Q 2644 4219 2406 4219 
Q 1781 4219 1451 3797 
Q 1122 3375 1075 2522 
Q 1259 2794 1537 2939 
Q 1816 3084 2150 3084 
Q 2853 3084 3261 2657 
Q 3669 2231 3669 1497 
Q 3669 778 3244 343 
Q 2819 -91 2113 -91 
Q 1303 -91 875 529 
Q 447 1150 447 2328 
Q 447 3434 972 4092 
Q 1497 4750 2381 4750 
Q 2619 4750 2861 4703 
Q 3103 4656 3366 4563 
z
" transform="scale(0.015625)"/>
       </defs>
       <use xlink:href="#DejaVuSans-30"/>
       <use xlink:href="#DejaVuSans-2e" x="63.623047"/>
       <use xlink:href="#DejaVuSans-38" x="95.410156"/>
       <use xlink:href="#DejaVuSans-39" x="159.033203"/>
       <use xlink:href="#DejaVuSans-36" x="222.65625"/>
      </g>
     </g>
    </g>
    <g id="ytick_14">
     <g id="line2d_29">
      <path d="M 470.23985 66.317415 
L 833.588688 66.317415 
" clip-path="url(#p6be27f1f3f)" style="fill: none; stroke: #ffffff; stroke-linecap: square"/>
     </g>
     <g id="line2d_30">
      <path d="M 470.23985 66.317415 
" style="fill: none; stroke: #333333; stroke-width: 1.5; stroke-linecap: square"/>
      <g>
       <use xlink:href="#m776381e30b" x="470.23985" y="66.317415" style="fill: #333333; stroke: #000000"/>
      </g>
     </g>
     <g id="text_11">
      <!-- 0.897 -->
      <g style="fill: #4d4d4d" transform="translate(440.0971 68.745665)scale(0.088 -0.088)">
       <defs>
        <path id="DejaVuSans-37" d="M 525 4666 
L 3525 4666 
L 3525 4397 
L 1831 0 
L 1172 0 
L 2766 4134 
L 525 4134 
L 525 4666 
z
" transform="scale(0.015625)"/>
       </defs>
       <use xlink:href="#DejaVuSans-30"/>
       <use xlink:href="#DejaVuSans-2e" x="63.623047"/>
       <use xlink:href="#DejaVuSans-38" x="95.410156"/>
       <use xlink:href="#DejaVuSans-39" x="159.033203"/>
       <use xlink:href="#DejaVuSans-37" x="222.65625"/>
      </g>
     </g>
    </g>
    <g id="ytick_15">
     <g id="line2d_31">
      <path d="M 470.23985 197.584666 
L 833.588688 197.584666 
" clip-path="url(#p6be27f1f3f)" style="fill: none; stroke: #ffffff; stroke-width: 0.5; stroke-linecap: square"/>
     </g>
    </g>
    <g id="ytick_16">
     <g id="line2d_32">
      <path d="M 470.23985 145.077765 
L 833.588688 145.077765 
" clip-path="url(#p6be27f1f3f)" style="fill: none; stroke: #ffffff; stroke-width: 0.5; stroke-linecap: square"/>
     </g>
    </g>
    <g id="ytick_17">
     <g id="line2d_33">
      <path d="M 470.23985 92.570865 
L 833.588688 92.570865 
" clip-path="url(#p6be27f1f3f)" style="fill: none; stroke: #ffffff; stroke-width: 0.5; stroke-linecap: square"/>
     </g>
    </g>
    <g id="ytick_18">
     <g id="line2d_34">
      <path d="M 470.23985 40.063965 
L 833.588688 40.063965 
" clip-path="url(#p6be27f1f3f)" style="fill: none; stroke: #ffffff; stroke-width: 0.5; stroke-linecap: square"/>
     </g>
    </g>
   </g>
   <g id="line2d_35">
    <path d="M 522.146827 128.077982 
L 781.681711 157.615412 
" clip-path="url(#p6be27f1f3f)" style="fill: none; stroke: #000000; stroke-width: 0.886227"/>
   </g>
   <g id="PathCollection_2">
    <path d="M 522.146827 129.850436 
C 522.616887 129.850436 523.067758 129.663679 523.400141 129.331296 
C 523.732524 128.998913 523.919281 128.548042 523.919281 128.077982 
C 523.919281 127.607922 523.732524 127.157051 523.400141 126.824668 
C 523.067758 126.492285 522.616887 126.305528 522.146827 126.305528 
C 521.676767 126.305528 521.225896 126.492285 520.893513 126.824668 
C 520.56113 127.157051 520.374373 127.607922 520.374373 128.077982 
C 520.374373 128.548042 520.56113 128.998913 520.893513 129.331296 
C 521.225896 129.663679 521.676767 129.850436 522.146827 129.850436 
z
" clip-path="url(#p6be27f1f3f)" style="stroke: #000000; stroke-width: 0.886227"/>
    <path d="M 781.681711 159.387866 
C 782.151771 159.387866 782.602642 159.201109 782.935025 158.868726 
C 783.267408 158.536343 783.454165 158.085472 783.454165 157.615412 
C 783.454165 157.145352 783.267408 156.69448 782.935025 156.362098 
C 782.602642 156.029715 782.151771 155.842958 781.681711 155.842958 
C 781.21165 155.842958 780.760779 156.029715 780.428397 156.362098 
C 780.096014 156.69448 779.909257 157.145352 779.909257 157.615412 
C 779.909257 158.085472 780.096014 158.536343 780.428397 158.868726 
C 780.760779 159.201109 781.21165 159.387866 781.681711 159.387866 
z
" clip-path="url(#p6be27f1f3f)" style="stroke: #000000; stroke-width: 0.886227"/>
   </g>
   <g id="patch_5">
    <path d="M 470.23985 22.244082 
L 833.588688 22.244082 
L 833.588688 7.2 
L 470.23985 7.2 
z
" style="fill: #d9d9d9"/>
   </g>
   <g id="PolyCollection_2">
    <path d="M 522.146827 31.884537 
L 522.146827 224.271427 
L 781.681711 224.693628 
L 781.681711 90.537196 
L 781.681711 90.537196 
L 522.146827 31.884537 
z
" clip-path="url(#p6be27f1f3f)" style="fill: #333333; fill-opacity: 0.501961"/>
   </g>
   <g id="text_12">
    <!-- AUC -->
    <g style="fill: #1a1a1a" transform="translate(642.611706 17.150291)scale(0.088 -0.088)">
     <defs>
      <path id="DejaVuSans-55" d="M 556 4666 
L 1191 4666 
L 1191 1831 
Q 1191 1081 1462 751 
Q 1734 422 2344 422 
Q 2950 422 3222 751 
Q 3494 1081 3494 1831 
L 3494 4666 
L 4128 4666 
L 4128 1753 
Q 4128 841 3676 375 
Q 3225 -91 2344 -91 
Q 1459 -91 1007 375 
Q 556 841 556 1753 
L 556 4666 
z
" transform="scale(0.015625)"/>
      <path id="DejaVuSans-43" d="M 4122 4306 
L 4122 3641 
Q 3803 3938 3442 4084 
Q 3081 4231 2675 4231 
Q 1875 4231 1450 3742 
Q 1025 3253 1025 2328 
Q 1025 1406 1450 917 
Q 1875 428 2675 428 
Q 3081 428 3442 575 
Q 3803 722 4122 1019 
L 4122 359 
Q 3791 134 3420 21 
Q 3050 -91 2638 -91 
Q 1578 -91 968 557 
Q 359 1206 359 2328 
Q 359 3453 968 4101 
Q 1578 4750 2638 4750 
Q 3056 4750 3426 4639 
Q 3797 4528 4122 4306 
z
" transform="scale(0.015625)"/>
     </defs>
     <use xlink:href="#DejaVuSans-41"/>
     <use xlink:href="#DejaVuSans-55" x="68.408203"/>
     <use xlink:href="#DejaVuSans-43" x="141.601562"/>
    </g>
   </g>
  </g>
  <g id="axes_3">
   <g id="patch_6">
    <path d="M 52.388688 465.764082 
L 415.737525 465.764082 
L 415.737525 253.674082 
L 52.388688 253.674082 
z
" style="fill: #ebebeb"/>
   </g>
   <g id="matplotlib.axis_5">
    <g id="xtick_7">
     <g id="line2d_36">
      <path d="M 104.295664 465.764082 
L 104.295664 253.674082 
" clip-path="url(#pbe1122c1b1)" style="fill: none; stroke: #ffffff; stroke-linecap: square"/>
     </g>
     <g id="line2d_37">
      <path d="M 104.295664 465.764082 
" style="fill: none; stroke: #333333; stroke-width: 1.5; stroke-linecap: square"/>
      <defs>
       <path id="m1281964b78" d="M 0 0 
L 0 2.75 
" style="stroke: #000000"/>
      </defs>
      <g>
       <use xlink:href="#m1281964b78" x="104.295664" y="465.764082" style="fill: #333333; stroke: #000000"/>
      </g>
     </g>
     <g id="text_13">
      <!-- GELU -->
      <g style="fill: #4d4d4d" transform="translate(92.654227 477.400707)scale(0.088 -0.088)">
       <defs>
        <path id="DejaVuSans-47" d="M 3809 666 
L 3809 1919 
L 2778 1919 
L 2778 2438 
L 4434 2438 
L 4434 434 
Q 4069 175 3628 42 
Q 3188 -91 2688 -91 
Q 1594 -91 976 548 
Q 359 1188 359 2328 
Q 359 3472 976 4111 
Q 1594 4750 2688 4750 
Q 3144 4750 3555 4637 
Q 3966 4525 4313 4306 
L 4313 3634 
Q 3963 3931 3569 4081 
Q 3175 4231 2741 4231 
Q 1884 4231 1454 3753 
Q 1025 3275 1025 2328 
Q 1025 1384 1454 906 
Q 1884 428 2741 428 
Q 3075 428 3337 486 
Q 3600 544 3809 666 
z
" transform="scale(0.015625)"/>
        <path id="DejaVuSans-45" d="M 628 4666 
L 3578 4666 
L 3578 4134 
L 1259 4134 
L 1259 2753 
L 3481 2753 
L 3481 2222 
L 1259 2222 
L 1259 531 
L 3634 531 
L 3634 0 
L 628 0 
L 628 4666 
z
" transform="scale(0.015625)"/>
        <path id="DejaVuSans-4c" d="M 628 4666 
L 1259 4666 
L 1259 531 
L 3531 531 
L 3531 0 
L 628 0 
L 628 4666 
z
" transform="scale(0.015625)"/>
       </defs>
       <use xlink:href="#DejaVuSans-47"/>
       <use xlink:href="#DejaVuSans-45" x="77.490234"/>
       <use xlink:href="#DejaVuSans-4c" x="140.673828"/>
       <use xlink:href="#DejaVuSans-55" x="191.386719"/>
      </g>
     </g>
    </g>
    <g id="xtick_8">
     <g id="line2d_38">
      <path d="M 363.830548 465.764082 
L 363.830548 253.674082 
" clip-path="url(#pbe1122c1b1)" style="fill: none; stroke: #ffffff; stroke-linecap: square"/>
     </g>
     <g id="line2d_39">
      <path d="M 363.830548 465.764082 
" style="fill: none; stroke: #333333; stroke-width: 1.5; stroke-linecap: square"/>
      <g>
       <use xlink:href="#m1281964b78" x="363.830548" y="465.764082" style="fill: #333333; stroke: #000000"/>
      </g>
     </g>
     <g id="text_14">
      <!-- Mish -->
      <g style="fill: #4d4d4d" transform="translate(353.731173 477.400707)scale(0.088 -0.088)">
       <defs>
        <path id="DejaVuSans-4d" d="M 628 4666 
L 1569 4666 
L 2759 1491 
L 3956 4666 
L 4897 4666 
L 4897 0 
L 4281 0 
L 4281 4097 
L 3078 897 
L 2444 897 
L 1241 4097 
L 1241 0 
L 628 0 
L 628 4666 
z
" transform="scale(0.015625)"/>
        <path id="DejaVuSans-69" d="M 603 3500 
L 1178 3500 
L 1178 0 
L 603 0 
L 603 3500 
z
M 603 4863 
L 1178 4863 
L 1178 4134 
L 603 4134 
L 603 4863 
z
" transform="scale(0.015625)"/>
        <path id="DejaVuSans-73" d="M 2834 3397 
L 2834 2853 
Q 2591 2978 2328 3040 
Q 2066 3103 1784 3103 
Q 1356 3103 1142 2972 
Q 928 2841 928 2578 
Q 928 2378 1081 2264 
Q 1234 2150 1697 2047 
L 1894 2003 
Q 2506 1872 2764 1633 
Q 3022 1394 3022 966 
Q 3022 478 2636 193 
Q 2250 -91 1575 -91 
Q 1294 -91 989 -36 
Q 684 19 347 128 
L 347 722 
Q 666 556 975 473 
Q 1284 391 1588 391 
Q 1994 391 2212 530 
Q 2431 669 2431 922 
Q 2431 1156 2273 1281 
Q 2116 1406 1581 1522 
L 1381 1569 
Q 847 1681 609 1914 
Q 372 2147 372 2553 
Q 372 3047 722 3315 
Q 1072 3584 1716 3584 
Q 2034 3584 2315 3537 
Q 2597 3491 2834 3397 
z
" transform="scale(0.015625)"/>
        <path id="DejaVuSans-68" d="M 3513 2113 
L 3513 0 
L 2938 0 
L 2938 2094 
Q 2938 2591 2744 2837 
Q 2550 3084 2163 3084 
Q 1697 3084 1428 2787 
Q 1159 2491 1159 1978 
L 1159 0 
L 581 0 
L 581 4863 
L 1159 4863 
L 1159 2956 
Q 1366 3272 1645 3428 
Q 1925 3584 2291 3584 
Q 2894 3584 3203 3211 
Q 3513 2838 3513 2113 
z
" transform="scale(0.015625)"/>
       </defs>
       <use xlink:href="#DejaVuSans-4d"/>
       <use xlink:href="#DejaVuSans-69" x="86.279297"/>
       <use xlink:href="#DejaVuSans-73" x="114.0625"/>
       <use xlink:href="#DejaVuSans-68" x="166.162109"/>
      </g>
     </g>
    </g>
    <g id="xtick_9">
     <g id="line2d_40">
      <path d="M 234.063106 465.764082 
L 234.063106 253.674082 
" clip-path="url(#pbe1122c1b1)" style="fill: none; stroke: #ffffff; stroke-width: 0.5; stroke-linecap: square"/>
     </g>
    </g>
   </g>
   <g id="matplotlib.axis_6">
    <g id="ytick_19">
     <g id="line2d_41">
      <path d="M 52.388688 410.226878 
L 415.737525 410.226878 
" clip-path="url(#pbe1122c1b1)" style="fill: none; stroke: #ffffff; stroke-linecap: square"/>
     </g>
     <g id="line2d_42">
      <path d="M 52.388688 410.226878 
" style="fill: none; stroke: #333333; stroke-width: 1.5; stroke-linecap: square"/>
      <g>
       <use xlink:href="#m776381e30b" x="52.388688" y="410.226878" style="fill: #333333; stroke: #000000"/>
      </g>
     </g>
     <g id="text_15">
      <!-- 0.896 -->
      <g style="fill: #4d4d4d" transform="translate(22.245938 412.655128)scale(0.088 -0.088)">
       <use xlink:href="#DejaVuSans-30"/>
       <use xlink:href="#DejaVuSans-2e" x="63.623047"/>
       <use xlink:href="#DejaVuSans-38" x="95.410156"/>
       <use xlink:href="#DejaVuSans-39" x="159.033203"/>
       <use xlink:href="#DejaVuSans-36" x="222.65625"/>
      </g>
     </g>
    </g>
    <g id="ytick_20">
     <g id="line2d_43">
      <path d="M 52.388688 346.021247 
L 415.737525 346.021247 
" clip-path="url(#pbe1122c1b1)" style="fill: none; stroke: #ffffff; stroke-linecap: square"/>
     </g>
     <g id="line2d_44">
      <path d="M 52.388688 346.021247 
" style="fill: none; stroke: #333333; stroke-width: 1.5; stroke-linecap: square"/>
      <g>
       <use xlink:href="#m776381e30b" x="52.388688" y="346.021247" style="fill: #333333; stroke: #000000"/>
      </g>
     </g>
     <g id="text_16">
      <!-- 0.897 -->
      <g style="fill: #4d4d4d" transform="translate(22.245938 348.449497)scale(0.088 -0.088)">
       <use xlink:href="#DejaVuSans-30"/>
       <use xlink:href="#DejaVuSans-2e" x="63.623047"/>
       <use xlink:href="#DejaVuSans-38" x="95.410156"/>
       <use xlink:href="#DejaVuSans-39" x="159.033203"/>
       <use xlink:href="#DejaVuSans-37" x="222.65625"/>
      </g>
     </g>
    </g>
    <g id="ytick_21">
     <g id="line2d_45">
      <path d="M 52.388688 281.815617 
L 415.737525 281.815617 
" clip-path="url(#pbe1122c1b1)" style="fill: none; stroke: #ffffff; stroke-linecap: square"/>
     </g>
     <g id="line2d_46">
      <path d="M 52.388688 281.815617 
" style="fill: none; stroke: #333333; stroke-width: 1.5; stroke-linecap: square"/>
      <g>
       <use xlink:href="#m776381e30b" x="52.388688" y="281.815617" style="fill: #333333; stroke: #000000"/>
      </g>
     </g>
     <g id="text_17">
      <!-- 0.898 -->
      <g style="fill: #4d4d4d" transform="translate(22.245938 284.243867)scale(0.088 -0.088)">
       <use xlink:href="#DejaVuSans-30"/>
       <use xlink:href="#DejaVuSans-2e" x="63.623047"/>
       <use xlink:href="#DejaVuSans-38" x="95.410156"/>
       <use xlink:href="#DejaVuSans-39" x="159.033203"/>
       <use xlink:href="#DejaVuSans-38" x="222.65625"/>
      </g>
     </g>
    </g>
    <g id="ytick_22">
     <g id="line2d_47">
      <path d="M 52.388688 442.329693 
L 415.737525 442.329693 
" clip-path="url(#pbe1122c1b1)" style="fill: none; stroke: #ffffff; stroke-width: 0.5; stroke-linecap: square"/>
     </g>
    </g>
    <g id="ytick_23">
     <g id="line2d_48">
      <path d="M 52.388688 378.124063 
L 415.737525 378.124063 
" clip-path="url(#pbe1122c1b1)" style="fill: none; stroke: #ffffff; stroke-width: 0.5; stroke-linecap: square"/>
     </g>
    </g>
    <g id="ytick_24">
     <g id="line2d_49">
      <path d="M 52.388688 313.918432 
L 415.737525 313.918432 
" clip-path="url(#pbe1122c1b1)" style="fill: none; stroke: #ffffff; stroke-width: 0.5; stroke-linecap: square"/>
     </g>
    </g>
   </g>
   <g id="line2d_50">
    <path d="M 104.295664 359.719082 
L 363.830548 352.674199 
" clip-path="url(#pbe1122c1b1)" style="fill: none; stroke: #000000; stroke-width: 0.886227"/>
   </g>
   <g id="PathCollection_3">
    <path d="M 104.295664 361.491536 
C 104.765725 361.491536 105.216596 361.304779 105.548978 360.972396 
C 105.881361 360.640014 106.068118 360.189143 106.068118 359.719082 
C 106.068118 359.249022 105.881361 358.798151 105.548978 358.465768 
C 105.216596 358.133385 104.765725 357.946628 104.295664 357.946628 
C 103.825604 357.946628 103.374733 358.133385 103.04235 358.465768 
C 102.709967 358.798151 102.52321 359.249022 102.52321 359.719082 
C 102.52321 360.189143 102.709967 360.640014 103.04235 360.972396 
C 103.374733 361.304779 103.825604 361.491536 104.295664 361.491536 
z
" clip-path="url(#pbe1122c1b1)" style="stroke: #000000; stroke-width: 0.886227"/>
    <path d="M 363.830548 354.446653 
C 364.300608 354.446653 364.751479 354.259896 365.083862 353.927513 
C 365.416245 353.59513 365.603002 353.144259 365.603002 352.674199 
C 365.603002 352.204139 365.416245 351.753268 365.083862 351.420885 
C 364.751479 351.088502 364.300608 350.901745 363.830548 350.901745 
C 363.360488 350.901745 362.909617 351.088502 362.577234 351.420885 
C 362.244851 351.753268 362.058094 352.204139 362.058094 352.674199 
C 362.058094 353.144259 362.244851 353.59513 362.577234 353.927513 
C 362.909617 354.259896 363.360488 354.446653 363.830548 354.446653 
z
" clip-path="url(#pbe1122c1b1)" style="stroke: #000000; stroke-width: 0.886227"/>
   </g>
   <g id="patch_7">
    <path d="M 52.388688 253.674082 
L 415.737525 253.674082 
L 415.737525 238.63 
L 52.388688 238.63 
z
" style="fill: #d9d9d9"/>
   </g>
   <g id="PolyCollection_3">
    <path d="M 104.295664 263.314537 
L 104.295664 456.123628 
L 363.830548 439.83375 
L 363.830548 265.514648 
L 363.830548 265.514648 
L 104.295664 263.314537 
z
" clip-path="url(#pbe1122c1b1)" style="fill: #333333; fill-opacity: 0.501961"/>
   </g>
   <g id="text_18">
    <!-- F1 score: &lt;=50K -->
    <g style="fill: #1a1a1a" transform="translate(196.774481 248.580291)scale(0.088 -0.088)">
     <defs>
      <path id="DejaVuSans-46" d="M 628 4666 
L 3309 4666 
L 3309 4134 
L 1259 4134 
L 1259 2759 
L 3109 2759 
L 3109 2228 
L 1259 2228 
L 1259 0 
L 628 0 
L 628 4666 
z
" transform="scale(0.015625)"/>
      <path id="DejaVuSans-20" transform="scale(0.015625)"/>
      <path id="DejaVuSans-6f" d="M 1959 3097 
Q 1497 3097 1228 2736 
Q 959 2375 959 1747 
Q 959 1119 1226 758 
Q 1494 397 1959 397 
Q 2419 397 2687 759 
Q 2956 1122 2956 1747 
Q 2956 2369 2687 2733 
Q 2419 3097 1959 3097 
z
M 1959 3584 
Q 2709 3584 3137 3096 
Q 3566 2609 3566 1747 
Q 3566 888 3137 398 
Q 2709 -91 1959 -91 
Q 1206 -91 779 398 
Q 353 888 353 1747 
Q 353 2609 779 3096 
Q 1206 3584 1959 3584 
z
" transform="scale(0.015625)"/>
      <path id="DejaVuSans-3a" d="M 750 794 
L 1409 794 
L 1409 0 
L 750 0 
L 750 794 
z
M 750 3309 
L 1409 3309 
L 1409 2516 
L 750 2516 
L 750 3309 
z
" transform="scale(0.015625)"/>
      <path id="DejaVuSans-3c" d="M 4684 3150 
L 1459 2003 
L 4684 863 
L 4684 294 
L 678 1747 
L 678 2266 
L 4684 3719 
L 4684 3150 
z
" transform="scale(0.015625)"/>
      <path id="DejaVuSans-3d" d="M 678 2906 
L 4684 2906 
L 4684 2381 
L 678 2381 
L 678 2906 
z
M 678 1631 
L 4684 1631 
L 4684 1100 
L 678 1100 
L 678 1631 
z
" transform="scale(0.015625)"/>
      <path id="DejaVuSans-4b" d="M 628 4666 
L 1259 4666 
L 1259 2694 
L 3353 4666 
L 4166 4666 
L 1850 2491 
L 4331 0 
L 3500 0 
L 1259 2247 
L 1259 0 
L 628 0 
L 628 4666 
z
" transform="scale(0.015625)"/>
     </defs>
     <use xlink:href="#DejaVuSans-46"/>
     <use xlink:href="#DejaVuSans-31" x="57.519531"/>
     <use xlink:href="#DejaVuSans-20" x="121.142578"/>
     <use xlink:href="#DejaVuSans-73" x="152.929688"/>
     <use xlink:href="#DejaVuSans-63" x="205.029297"/>
     <use xlink:href="#DejaVuSans-6f" x="260.009766"/>
     <use xlink:href="#DejaVuSans-72" x="321.191406"/>
     <use xlink:href="#DejaVuSans-65" x="360.054688"/>
     <use xlink:href="#DejaVuSans-3a" x="421.578125"/>
     <use xlink:href="#DejaVuSans-20" x="455.269531"/>
     <use xlink:href="#DejaVuSans-3c" x="487.056641"/>
     <use xlink:href="#DejaVuSans-3d" x="570.845703"/>
     <use xlink:href="#DejaVuSans-35" x="654.634766"/>
     <use xlink:href="#DejaVuSans-30" x="718.257812"/>
     <use xlink:href="#DejaVuSans-4b" x="781.880859"/>
    </g>
   </g>
  </g>
  <g id="axes_4">
   <g id="patch_8">
    <path d="M 470.23985 465.764082 
L 833.588688 465.764082 
L 833.588688 253.674082 
L 470.23985 253.674082 
z
" style="fill: #ebebeb"/>
   </g>
   <g id="matplotlib.axis_7">
    <g id="xtick_10">
     <g id="line2d_51">
      <path d="M 522.146827 465.764082 
L 522.146827 253.674082 
" clip-path="url(#p3a15656597)" style="fill: none; stroke: #ffffff; stroke-linecap: square"/>
     </g>
     <g id="line2d_52">
      <path d="M 522.146827 465.764082 
" style="fill: none; stroke: #333333; stroke-width: 1.5; stroke-linecap: square"/>
      <g>
       <use xlink:href="#m1281964b78" x="522.146827" y="465.764082" style="fill: #333333; stroke: #000000"/>
      </g>
     </g>
     <g id="text_19">
      <!-- GELU -->
      <g style="fill: #4d4d4d" transform="translate(510.50539 477.400707)scale(0.088 -0.088)">
       <use xlink:href="#DejaVuSans-47"/>
       <use xlink:href="#DejaVuSans-45" x="77.490234"/>
       <use xlink:href="#DejaVuSans-4c" x="140.673828"/>
       <use xlink:href="#DejaVuSans-55" x="191.386719"/>
      </g>
     </g>
    </g>
    <g id="xtick_11">
     <g id="line2d_53">
      <path d="M 781.681711 465.764082 
L 781.681711 253.674082 
" clip-path="url(#p3a15656597)" style="fill: none; stroke: #ffffff; stroke-linecap: square"/>
     </g>
     <g id="line2d_54">
      <path d="M 781.681711 465.764082 
" style="fill: none; stroke: #333333; stroke-width: 1.5; stroke-linecap: square"/>
      <g>
       <use xlink:href="#m1281964b78" x="781.681711" y="465.764082" style="fill: #333333; stroke: #000000"/>
      </g>
     </g>
     <g id="text_20">
      <!-- Mish -->
      <g style="fill: #4d4d4d" transform="translate(771.582336 477.400707)scale(0.088 -0.088)">
       <use xlink:href="#DejaVuSans-4d"/>
       <use xlink:href="#DejaVuSans-69" x="86.279297"/>
       <use xlink:href="#DejaVuSans-73" x="114.0625"/>
       <use xlink:href="#DejaVuSans-68" x="166.162109"/>
      </g>
     </g>
    </g>
    <g id="xtick_12">
     <g id="line2d_55">
      <path d="M 651.914269 465.764082 
L 651.914269 253.674082 
" clip-path="url(#p3a15656597)" style="fill: none; stroke: #ffffff; stroke-width: 0.5; stroke-linecap: square"/>
     </g>
    </g>
    <g id="text_21">
     <!-- Best activation function -->
     <g transform="translate(365.007438 491.989114)scale(0.11 -0.11)">
      <defs>
       <path id="DejaVuSans-42" d="M 1259 2228 
L 1259 519 
L 2272 519 
Q 2781 519 3026 730 
Q 3272 941 3272 1375 
Q 3272 1813 3026 2020 
Q 2781 2228 2272 2228 
L 1259 2228 
z
M 1259 4147 
L 1259 2741 
L 2194 2741 
Q 2656 2741 2882 2914 
Q 3109 3088 3109 3444 
Q 3109 3797 2882 3972 
Q 2656 4147 2194 4147 
L 1259 4147 
z
M 628 4666 
L 2241 4666 
Q 2963 4666 3353 4366 
Q 3744 4066 3744 3513 
Q 3744 3084 3544 2831 
Q 3344 2578 2956 2516 
Q 3422 2416 3680 2098 
Q 3938 1781 3938 1306 
Q 3938 681 3513 340 
Q 3088 0 2303 0 
L 628 0 
L 628 4666 
z
" transform="scale(0.015625)"/>
       <path id="DejaVuSans-74" d="M 1172 4494 
L 1172 3500 
L 2356 3500 
L 2356 3053 
L 1172 3053 
L 1172 1153 
Q 1172 725 1289 603 
Q 1406 481 1766 481 
L 2356 481 
L 2356 0 
L 1766 0 
Q 1100 0 847 248 
Q 594 497 594 1153 
L 594 3053 
L 172 3053 
L 172 3500 
L 594 3500 
L 594 4494 
L 1172 4494 
z
" transform="scale(0.015625)"/>
       <path id="DejaVuSans-76" d="M 191 3500 
L 800 3500 
L 1894 563 
L 2988 3500 
L 3597 3500 
L 2284 0 
L 1503 0 
L 191 3500 
z
" transform="scale(0.015625)"/>
       <path id="DejaVuSans-6e" d="M 3513 2113 
L 3513 0 
L 2938 0 
L 2938 2094 
Q 2938 2591 2744 2837 
Q 2550 3084 2163 3084 
Q 1697 3084 1428 2787 
Q 1159 2491 1159 1978 
L 1159 0 
L 581 0 
L 581 3500 
L 1159 3500 
L 1159 2956 
Q 1366 3272 1645 3428 
Q 1925 3584 2291 3584 
Q 2894 3584 3203 3211 
Q 3513 2838 3513 2113 
z
" transform="scale(0.015625)"/>
       <path id="DejaVuSans-66" d="M 2375 4863 
L 2375 4384 
L 1825 4384 
Q 1516 4384 1395 4259 
Q 1275 4134 1275 3809 
L 1275 3500 
L 2222 3500 
L 2222 3053 
L 1275 3053 
L 1275 0 
L 697 0 
L 697 3053 
L 147 3053 
L 147 3500 
L 697 3500 
L 697 3744 
Q 697 4328 969 4595 
Q 1241 4863 1831 4863 
L 2375 4863 
z
" transform="scale(0.015625)"/>
      </defs>
      <use xlink:href="#DejaVuSans-42"/>
      <use xlink:href="#DejaVuSans-65" x="68.603516"/>
      <use xlink:href="#DejaVuSans-73" x="130.126953"/>
      <use xlink:href="#DejaVuSans-74" x="182.226562"/>
      <use xlink:href="#DejaVuSans-20" x="221.435547"/>
      <use xlink:href="#DejaVuSans-61" x="253.222656"/>
      <use xlink:href="#DejaVuSans-63" x="314.501953"/>
      <use xlink:href="#DejaVuSans-74" x="369.482422"/>
      <use xlink:href="#DejaVuSans-69" x="408.691406"/>
      <use xlink:href="#DejaVuSans-76" x="436.474609"/>
      <use xlink:href="#DejaVuSans-61" x="495.654297"/>
      <use xlink:href="#DejaVuSans-74" x="556.933594"/>
      <use xlink:href="#DejaVuSans-69" x="596.142578"/>
      <use xlink:href="#DejaVuSans-6f" x="623.925781"/>
      <use xlink:href="#DejaVuSans-6e" x="685.107422"/>
      <use xlink:href="#DejaVuSans-20" x="748.486328"/>
      <use xlink:href="#DejaVuSans-66" x="780.273438"/>
      <use xlink:href="#DejaVuSans-75" x="815.478516"/>
      <use xlink:href="#DejaVuSans-6e" x="878.857422"/>
      <use xlink:href="#DejaVuSans-63" x="942.236328"/>
      <use xlink:href="#DejaVuSans-74" x="997.216797"/>
      <use xlink:href="#DejaVuSans-69" x="1036.425781"/>
      <use xlink:href="#DejaVuSans-6f" x="1064.208984"/>
      <use xlink:href="#DejaVuSans-6e" x="1125.390625"/>
     </g>
    </g>
   </g>
   <g id="matplotlib.axis_8">
    <g id="ytick_25">
     <g id="line2d_56">
      <path d="M 470.23985 400.372041 
L 833.588688 400.372041 
" clip-path="url(#p3a15656597)" style="fill: none; stroke: #ffffff; stroke-linecap: square"/>
     </g>
     <g id="line2d_57">
      <path d="M 470.23985 400.372041 
" style="fill: none; stroke: #333333; stroke-width: 1.5; stroke-linecap: square"/>
      <g>
       <use xlink:href="#m776381e30b" x="470.23985" y="400.372041" style="fill: #333333; stroke: #000000"/>
      </g>
     </g>
     <g id="text_22">
      <!-- 0.655 -->
      <g style="fill: #4d4d4d" transform="translate(440.0971 402.800291)scale(0.088 -0.088)">
       <use xlink:href="#DejaVuSans-30"/>
       <use xlink:href="#DejaVuSans-2e" x="63.623047"/>
       <use xlink:href="#DejaVuSans-36" x="95.410156"/>
       <use xlink:href="#DejaVuSans-35" x="159.033203"/>
       <use xlink:href="#DejaVuSans-35" x="222.65625"/>
      </g>
     </g>
    </g>
    <g id="ytick_26">
     <g id="line2d_58">
      <path d="M 470.23985 328.507792 
L 833.588688 328.507792 
" clip-path="url(#p3a15656597)" style="fill: none; stroke: #ffffff; stroke-linecap: square"/>
     </g>
     <g id="line2d_59">
      <path d="M 470.23985 328.507792 
" style="fill: none; stroke: #333333; stroke-width: 1.5; stroke-linecap: square"/>
      <g>
       <use xlink:href="#m776381e30b" x="470.23985" y="328.507792" style="fill: #333333; stroke: #000000"/>
      </g>
     </g>
     <g id="text_23">
      <!-- 0.660 -->
      <g style="fill: #4d4d4d" transform="translate(440.0971 330.936042)scale(0.088 -0.088)">
       <use xlink:href="#DejaVuSans-30"/>
       <use xlink:href="#DejaVuSans-2e" x="63.623047"/>
       <use xlink:href="#DejaVuSans-36" x="95.410156"/>
       <use xlink:href="#DejaVuSans-36" x="159.033203"/>
       <use xlink:href="#DejaVuSans-30" x="222.65625"/>
      </g>
     </g>
    </g>
    <g id="ytick_27">
     <g id="line2d_60">
      <path d="M 470.23985 256.643543 
L 833.588688 256.643543 
" clip-path="url(#p3a15656597)" style="fill: none; stroke: #ffffff; stroke-linecap: square"/>
     </g>
     <g id="line2d_61">
      <path d="M 470.23985 256.643543 
" style="fill: none; stroke: #333333; stroke-width: 1.5; stroke-linecap: square"/>
      <g>
       <use xlink:href="#m776381e30b" x="470.23985" y="256.643543" style="fill: #333333; stroke: #000000"/>
      </g>
     </g>
     <g id="text_24">
      <!-- 0.665 -->
      <g style="fill: #4d4d4d" transform="translate(440.0971 259.071793)scale(0.088 -0.088)">
       <use xlink:href="#DejaVuSans-30"/>
       <use xlink:href="#DejaVuSans-2e" x="63.623047"/>
       <use xlink:href="#DejaVuSans-36" x="95.410156"/>
       <use xlink:href="#DejaVuSans-36" x="159.033203"/>
       <use xlink:href="#DejaVuSans-35" x="222.65625"/>
      </g>
     </g>
    </g>
    <g id="ytick_28">
     <g id="line2d_62">
      <path d="M 470.23985 436.304165 
L 833.588688 436.304165 
" clip-path="url(#p3a15656597)" style="fill: none; stroke: #ffffff; stroke-width: 0.5; stroke-linecap: square"/>
     </g>
    </g>
    <g id="ytick_29">
     <g id="line2d_63">
      <path d="M 470.23985 364.439916 
L 833.588688 364.439916 
" clip-path="url(#p3a15656597)" style="fill: none; stroke: #ffffff; stroke-width: 0.5; stroke-linecap: square"/>
     </g>
    </g>
    <g id="ytick_30">
     <g id="line2d_64">
      <path d="M 470.23985 292.575667 
L 833.588688 292.575667 
" clip-path="url(#p3a15656597)" style="fill: none; stroke: #ffffff; stroke-width: 0.5; stroke-linecap: square"/>
     </g>
    </g>
   </g>
   <g id="line2d_65">
    <path d="M 522.146827 357.592756 
L 781.681711 382.425582 
" clip-path="url(#p3a15656597)" style="fill: none; stroke: #000000; stroke-width: 0.886227"/>
   </g>
   <g id="PathCollection_4">
    <path d="M 522.146827 359.36521 
C 522.616887 359.36521 523.067758 359.178453 523.400141 358.84607 
C 523.732524 358.513688 523.919281 358.062816 523.919281 357.592756 
C 523.919281 357.122696 523.732524 356.671825 523.400141 356.339442 
C 523.067758 356.007059 522.616887 355.820302 522.146827 355.820302 
C 521.676767 355.820302 521.225896 356.007059 520.893513 356.339442 
C 520.56113 356.671825 520.374373 357.122696 520.374373 357.592756 
C 520.374373 358.062816 520.56113 358.513688 520.893513 358.84607 
C 521.225896 359.178453 521.676767 359.36521 522.146827 359.36521 
z
" clip-path="url(#p3a15656597)" style="stroke: #000000; stroke-width: 0.886227"/>
    <path d="M 781.681711 384.198036 
C 782.151771 384.198036 782.602642 384.011279 782.935025 383.678896 
C 783.267408 383.346513 783.454165 382.895642 783.454165 382.425582 
C 783.454165 381.955522 783.267408 381.50465 782.935025 381.172268 
C 782.602642 380.839885 782.151771 380.653128 781.681711 380.653128 
C 781.21165 380.653128 780.760779 380.839885 780.428397 381.172268 
C 780.096014 381.50465 779.909257 381.955522 779.909257 382.425582 
C 779.909257 382.895642 780.096014 383.346513 780.428397 383.678896 
C 780.760779 384.011279 781.21165 384.198036 781.681711 384.198036 
z
" clip-path="url(#p3a15656597)" style="stroke: #000000; stroke-width: 0.886227"/>
   </g>
   <g id="patch_9">
    <path d="M 470.23985 253.674082 
L 833.588688 253.674082 
L 833.588688 238.63 
L 470.23985 238.63 
z
" style="fill: #d9d9d9"/>
   </g>
   <g id="PolyCollection_4">
    <path d="M 522.146827 263.314537 
L 522.146827 451.870975 
L 781.681711 456.123628 
L 781.681711 308.727536 
L 781.681711 308.727536 
L 522.146827 263.314537 
z
" clip-path="url(#p3a15656597)" style="fill: #333333; fill-opacity: 0.501961"/>
   </g>
   <g id="text_25">
    <!-- F1 score: &gt;50K -->
    <g style="fill: #1a1a1a" transform="translate(618.312706 248.580291)scale(0.088 -0.088)">
     <defs>
      <path id="DejaVuSans-3e" d="M 678 3150 
L 678 3719 
L 4684 2266 
L 4684 1747 
L 678 294 
L 678 863 
L 3897 2003 
L 678 3150 
z
" transform="scale(0.015625)"/>
     </defs>
     <use xlink:href="#DejaVuSans-46"/>
     <use xlink:href="#DejaVuSans-31" x="57.519531"/>
     <use xlink:href="#DejaVuSans-20" x="121.142578"/>
     <use xlink:href="#DejaVuSans-73" x="152.929688"/>
     <use xlink:href="#DejaVuSans-63" x="205.029297"/>
     <use xlink:href="#DejaVuSans-6f" x="260.009766"/>
     <use xlink:href="#DejaVuSans-72" x="321.191406"/>
     <use xlink:href="#DejaVuSans-65" x="360.054688"/>
     <use xlink:href="#DejaVuSans-3a" x="421.578125"/>
     <use xlink:href="#DejaVuSans-20" x="455.269531"/>
     <use xlink:href="#DejaVuSans-3e" x="487.056641"/>
     <use xlink:href="#DejaVuSans-35" x="570.845703"/>
     <use xlink:href="#DejaVuSans-30" x="634.46875"/>
     <use xlink:href="#DejaVuSans-4b" x="698.091797"/>
    </g>
   </g>
  </g>
 </g>
 <defs>
  <clipPath id="p81c3cf6fec">
   <rect x="52.388688" y="22.244082" width="363.348837" height="212.09"/>
  </clipPath>
  <clipPath id="p6be27f1f3f">
   <rect x="470.23985" y="22.244082" width="363.348837" height="212.09"/>
  </clipPath>
  <clipPath id="pbe1122c1b1">
   <rect x="52.388688" y="253.674082" width="363.348837" height="212.09"/>
  </clipPath>
  <clipPath id="p3a15656597">
   <rect x="470.23985" y="253.674082" width="363.348837" height="212.09"/>
  </clipPath>
 </defs>
</svg>
