<?xml version="1.0" encoding="utf-8" standalone="no"?>
<!DOCTYPE svg PUBLIC "-//W3C//DTD SVG 1.1//EN"
  "http://www.w3.org/Graphics/SVG/1.1/DTD/svg11.dtd">
<svg height="501.47677pt" version="1.1" viewBox="0 0 914.886937 501.47677" width="914.886937pt" xmlns="http://www.w3.org/2000/svg" xmlns:xlink="http://www.w3.org/1999/xlink">
 <metadata>
  <rdf:RDF xmlns:cc="http://creativecommons.org/ns#" xmlns:dc="http://purl.org/dc/elements/1.1/" xmlns:rdf="http://www.w3.org/1999/02/22-rdf-syntax-ns#">
   <cc:Work>
    <dc:type rdf:resource="http://purl.org/dc/dcmitype/StillImage"/>
    <dc:date>2022-06-14T12:44:14.405881</dc:date>
    <dc:format>image/svg+xml</dc:format>
    <dc:creator>
     <cc:Agent>
      <dc:title>Matplotlib v3.4.3, https://matplotlib.org/</dc:title>
     </cc:Agent>
    </dc:creator>
   </cc:Work>
  </rdf:RDF>
 </metadata>
 <defs>
  <style type="text/css">*{stroke-linecap:butt;stroke-linejoin:round;}</style>
 </defs>
 <g id="figure_1">
  <g id="patch_1">
   <path d="M 0 501.47677 
L 914.886937 501.47677 
L 914.886937 0 
L 0 0 
z
" style="fill:#ffffff;stroke:#ffffff;stroke-linejoin:miter;"/>
  </g>
  <g id="axes_1">
   <g id="patch_2">
    <path d="M 52.388688 234.334082 
L 415.737525 234.334082 
L 415.737525 22.244082 
L 52.388688 22.244082 
z
" style="fill:#ebebeb;"/>
   </g>
   <g id="matplotlib.axis_1">
    <g id="xtick_1">
     <g id="line2d_1">
      <path clip-path="url(#pd4bf1076e0)" d="M 68.904544 234.334082 
L 68.904544 22.244082 
" style="fill:none;stroke:#ffffff;"/>
     </g>
    </g>
    <g id="xtick_2">
     <g id="line2d_2">
      <path clip-path="url(#pd4bf1076e0)" d="M 134.967969 234.334082 
L 134.967969 22.244082 
" style="fill:none;stroke:#ffffff;"/>
     </g>
    </g>
    <g id="xtick_3">
     <g id="line2d_3">
      <path clip-path="url(#pd4bf1076e0)" d="M 201.031394 234.334082 
L 201.031394 22.244082 
" style="fill:none;stroke:#ffffff;"/>
     </g>
    </g>
    <g id="xtick_4">
     <g id="line2d_4">
      <path clip-path="url(#pd4bf1076e0)" d="M 267.094819 234.334082 
L 267.094819 22.244082 
" style="fill:none;stroke:#ffffff;"/>
     </g>
    </g>
    <g id="xtick_5">
     <g id="line2d_5">
      <path clip-path="url(#pd4bf1076e0)" d="M 333.158244 234.334082 
L 333.158244 22.244082 
" style="fill:none;stroke:#ffffff;"/>
     </g>
    </g>
    <g id="xtick_6">
     <g id="line2d_6">
      <path clip-path="url(#pd4bf1076e0)" d="M 399.221668 234.334082 
L 399.221668 22.244082 
" style="fill:none;stroke:#ffffff;"/>
     </g>
    </g>
    <g id="xtick_7">
     <g id="line2d_7">
      <path clip-path="url(#pd4bf1076e0)" d="M 101.936256 234.334082 
L 101.936256 22.244082 
" style="fill:none;stroke:#ffffff;stroke-width:0.5;"/>
     </g>
    </g>
    <g id="xtick_8">
     <g id="line2d_8">
      <path clip-path="url(#pd4bf1076e0)" d="M 167.999681 234.334082 
L 167.999681 22.244082 
" style="fill:none;stroke:#ffffff;stroke-width:0.5;"/>
     </g>
    </g>
    <g id="xtick_9">
     <g id="line2d_9">
      <path clip-path="url(#pd4bf1076e0)" d="M 234.063106 234.334082 
L 234.063106 22.244082 
" style="fill:none;stroke:#ffffff;stroke-width:0.5;"/>
     </g>
    </g>
    <g id="xtick_10">
     <g id="line2d_10">
      <path clip-path="url(#pd4bf1076e0)" d="M 300.126531 234.334082 
L 300.126531 22.244082 
" style="fill:none;stroke:#ffffff;stroke-width:0.5;"/>
     </g>
    </g>
    <g id="xtick_11">
     <g id="line2d_11">
      <path clip-path="url(#pd4bf1076e0)" d="M 366.189956 234.334082 
L 366.189956 22.244082 
" style="fill:none;stroke:#ffffff;stroke-width:0.5;"/>
     </g>
    </g>
   </g>
   <g id="matplotlib.axis_2">
    <g id="ytick_1">
     <g id="line2d_12">
      <path clip-path="url(#pd4bf1076e0)" d="M 52.388688 183.469412 
L 415.737525 183.469412 
" style="fill:none;stroke:#ffffff;"/>
     </g>
     <g id="line2d_13">
      <path d="M 52.388688 183.469412 
" style="fill:none;stroke:#333333;stroke-width:1.5;"/>
      <defs>
       <path d="M 0 0 
L -2.75 0 
" id="m01badd31c2" style="stroke:#000000;"/>
      </defs>
      <g>
       <use style="fill:#333333;stroke:#000000;" x="52.388688" xlink:href="#m01badd31c2" y="183.469412"/>
      </g>
     </g>
     <g id="text_1">
      <!-- 0.840 -->
      <g style="fill:#4d4d4d;" transform="translate(22.245938 185.897662)scale(0.088 -0.088)">
       <defs>
        <path d="M 2034 4250 
Q 1547 4250 1301 3770 
Q 1056 3291 1056 2328 
Q 1056 1369 1301 889 
Q 1547 409 2034 409 
Q 2525 409 2770 889 
Q 3016 1369 3016 2328 
Q 3016 3291 2770 3770 
Q 2525 4250 2034 4250 
z
M 2034 4750 
Q 2819 4750 3233 4129 
Q 3647 3509 3647 2328 
Q 3647 1150 3233 529 
Q 2819 -91 2034 -91 
Q 1250 -91 836 529 
Q 422 1150 422 2328 
Q 422 3509 836 4129 
Q 1250 4750 2034 4750 
z
" id="DejaVuSans-30" transform="scale(0.015625)"/>
        <path d="M 684 794 
L 1344 794 
L 1344 0 
L 684 0 
L 684 794 
z
" id="DejaVuSans-2e" transform="scale(0.015625)"/>
        <path d="M 2034 2216 
Q 1584 2216 1326 1975 
Q 1069 1734 1069 1313 
Q 1069 891 1326 650 
Q 1584 409 2034 409 
Q 2484 409 2743 651 
Q 3003 894 3003 1313 
Q 3003 1734 2745 1975 
Q 2488 2216 2034 2216 
z
M 1403 2484 
Q 997 2584 770 2862 
Q 544 3141 544 3541 
Q 544 4100 942 4425 
Q 1341 4750 2034 4750 
Q 2731 4750 3128 4425 
Q 3525 4100 3525 3541 
Q 3525 3141 3298 2862 
Q 3072 2584 2669 2484 
Q 3125 2378 3379 2068 
Q 3634 1759 3634 1313 
Q 3634 634 3220 271 
Q 2806 -91 2034 -91 
Q 1263 -91 848 271 
Q 434 634 434 1313 
Q 434 1759 690 2068 
Q 947 2378 1403 2484 
z
M 1172 3481 
Q 1172 3119 1398 2916 
Q 1625 2713 2034 2713 
Q 2441 2713 2670 2916 
Q 2900 3119 2900 3481 
Q 2900 3844 2670 4047 
Q 2441 4250 2034 4250 
Q 1625 4250 1398 4047 
Q 1172 3844 1172 3481 
z
" id="DejaVuSans-38" transform="scale(0.015625)"/>
        <path d="M 2419 4116 
L 825 1625 
L 2419 1625 
L 2419 4116 
z
M 2253 4666 
L 3047 4666 
L 3047 1625 
L 3713 1625 
L 3713 1100 
L 3047 1100 
L 3047 0 
L 2419 0 
L 2419 1100 
L 313 1100 
L 313 1709 
L 2253 4666 
z
" id="DejaVuSans-34" transform="scale(0.015625)"/>
       </defs>
       <use xlink:href="#DejaVuSans-30"/>
       <use x="63.623047" xlink:href="#DejaVuSans-2e"/>
       <use x="95.410156" xlink:href="#DejaVuSans-38"/>
       <use x="159.033203" xlink:href="#DejaVuSans-34"/>
       <use x="222.65625" xlink:href="#DejaVuSans-30"/>
      </g>
     </g>
    </g>
    <g id="ytick_2">
     <g id="line2d_14">
      <path clip-path="url(#pd4bf1076e0)" d="M 52.388688 118.798924 
L 415.737525 118.798924 
" style="fill:none;stroke:#ffffff;"/>
     </g>
     <g id="line2d_15">
      <path d="M 52.388688 118.798924 
" style="fill:none;stroke:#333333;stroke-width:1.5;"/>
      <g>
       <use style="fill:#333333;stroke:#000000;" x="52.388688" xlink:href="#m01badd31c2" y="118.798924"/>
      </g>
     </g>
     <g id="text_2">
      <!-- 0.841 -->
      <g style="fill:#4d4d4d;" transform="translate(22.245938 121.227174)scale(0.088 -0.088)">
       <defs>
        <path d="M 794 531 
L 1825 531 
L 1825 4091 
L 703 3866 
L 703 4441 
L 1819 4666 
L 2450 4666 
L 2450 531 
L 3481 531 
L 3481 0 
L 794 0 
L 794 531 
z
" id="DejaVuSans-31" transform="scale(0.015625)"/>
       </defs>
       <use xlink:href="#DejaVuSans-30"/>
       <use x="63.623047" xlink:href="#DejaVuSans-2e"/>
       <use x="95.410156" xlink:href="#DejaVuSans-38"/>
       <use x="159.033203" xlink:href="#DejaVuSans-34"/>
       <use x="222.65625" xlink:href="#DejaVuSans-31"/>
      </g>
     </g>
    </g>
    <g id="ytick_3">
     <g id="line2d_16">
      <path clip-path="url(#pd4bf1076e0)" d="M 52.388688 54.128436 
L 415.737525 54.128436 
" style="fill:none;stroke:#ffffff;"/>
     </g>
     <g id="line2d_17">
      <path d="M 52.388688 54.128436 
" style="fill:none;stroke:#333333;stroke-width:1.5;"/>
      <g>
       <use style="fill:#333333;stroke:#000000;" x="52.388688" xlink:href="#m01badd31c2" y="54.128436"/>
      </g>
     </g>
     <g id="text_3">
      <!-- 0.842 -->
      <g style="fill:#4d4d4d;" transform="translate(22.245938 56.556686)scale(0.088 -0.088)">
       <defs>
        <path d="M 1228 531 
L 3431 531 
L 3431 0 
L 469 0 
L 469 531 
Q 828 903 1448 1529 
Q 2069 2156 2228 2338 
Q 2531 2678 2651 2914 
Q 2772 3150 2772 3378 
Q 2772 3750 2511 3984 
Q 2250 4219 1831 4219 
Q 1534 4219 1204 4116 
Q 875 4013 500 3803 
L 500 4441 
Q 881 4594 1212 4672 
Q 1544 4750 1819 4750 
Q 2544 4750 2975 4387 
Q 3406 4025 3406 3419 
Q 3406 3131 3298 2873 
Q 3191 2616 2906 2266 
Q 2828 2175 2409 1742 
Q 1991 1309 1228 531 
z
" id="DejaVuSans-32" transform="scale(0.015625)"/>
       </defs>
       <use xlink:href="#DejaVuSans-30"/>
       <use x="63.623047" xlink:href="#DejaVuSans-2e"/>
       <use x="95.410156" xlink:href="#DejaVuSans-38"/>
       <use x="159.033203" xlink:href="#DejaVuSans-34"/>
       <use x="222.65625" xlink:href="#DejaVuSans-32"/>
      </g>
     </g>
    </g>
    <g id="ytick_4">
     <g id="line2d_18">
      <path clip-path="url(#pd4bf1076e0)" d="M 52.388688 215.804656 
L 415.737525 215.804656 
" style="fill:none;stroke:#ffffff;stroke-width:0.5;"/>
     </g>
    </g>
    <g id="ytick_5">
     <g id="line2d_19">
      <path clip-path="url(#pd4bf1076e0)" d="M 52.388688 151.134168 
L 415.737525 151.134168 
" style="fill:none;stroke:#ffffff;stroke-width:0.5;"/>
     </g>
    </g>
    <g id="ytick_6">
     <g id="line2d_20">
      <path clip-path="url(#pd4bf1076e0)" d="M 52.388688 86.46368 
L 415.737525 86.46368 
" style="fill:none;stroke:#ffffff;stroke-width:0.5;"/>
     </g>
    </g>
    <g id="text_4">
     <!-- Value -->
     <g transform="translate(15.558281 256.228457)rotate(-90)scale(0.11 -0.11)">
      <defs>
       <path d="M 1831 0 
L 50 4666 
L 709 4666 
L 2188 738 
L 3669 4666 
L 4325 4666 
L 2547 0 
L 1831 0 
z
" id="DejaVuSans-56" transform="scale(0.015625)"/>
       <path d="M 2194 1759 
Q 1497 1759 1228 1600 
Q 959 1441 959 1056 
Q 959 750 1161 570 
Q 1363 391 1709 391 
Q 2188 391 2477 730 
Q 2766 1069 2766 1631 
L 2766 1759 
L 2194 1759 
z
M 3341 1997 
L 3341 0 
L 2766 0 
L 2766 531 
Q 2569 213 2275 61 
Q 1981 -91 1556 -91 
Q 1019 -91 701 211 
Q 384 513 384 1019 
Q 384 1609 779 1909 
Q 1175 2209 1959 2209 
L 2766 2209 
L 2766 2266 
Q 2766 2663 2505 2880 
Q 2244 3097 1772 3097 
Q 1472 3097 1187 3025 
Q 903 2953 641 2809 
L 641 3341 
Q 956 3463 1253 3523 
Q 1550 3584 1831 3584 
Q 2591 3584 2966 3190 
Q 3341 2797 3341 1997 
z
" id="DejaVuSans-61" transform="scale(0.015625)"/>
       <path d="M 603 4863 
L 1178 4863 
L 1178 0 
L 603 0 
L 603 4863 
z
" id="DejaVuSans-6c" transform="scale(0.015625)"/>
       <path d="M 544 1381 
L 544 3500 
L 1119 3500 
L 1119 1403 
Q 1119 906 1312 657 
Q 1506 409 1894 409 
Q 2359 409 2629 706 
Q 2900 1003 2900 1516 
L 2900 3500 
L 3475 3500 
L 3475 0 
L 2900 0 
L 2900 538 
Q 2691 219 2414 64 
Q 2138 -91 1772 -91 
Q 1169 -91 856 284 
Q 544 659 544 1381 
z
M 1991 3584 
L 1991 3584 
z
" id="DejaVuSans-75" transform="scale(0.015625)"/>
       <path d="M 3597 1894 
L 3597 1613 
L 953 1613 
Q 991 1019 1311 708 
Q 1631 397 2203 397 
Q 2534 397 2845 478 
Q 3156 559 3463 722 
L 3463 178 
Q 3153 47 2828 -22 
Q 2503 -91 2169 -91 
Q 1331 -91 842 396 
Q 353 884 353 1716 
Q 353 2575 817 3079 
Q 1281 3584 2069 3584 
Q 2775 3584 3186 3129 
Q 3597 2675 3597 1894 
z
M 3022 2063 
Q 3016 2534 2758 2815 
Q 2500 3097 2075 3097 
Q 1594 3097 1305 2825 
Q 1016 2553 972 2059 
L 3022 2063 
z
" id="DejaVuSans-65" transform="scale(0.015625)"/>
      </defs>
      <use xlink:href="#DejaVuSans-56"/>
      <use x="60.658203" xlink:href="#DejaVuSans-61"/>
      <use x="121.9375" xlink:href="#DejaVuSans-6c"/>
      <use x="149.720703" xlink:href="#DejaVuSans-75"/>
      <use x="213.099609" xlink:href="#DejaVuSans-65"/>
     </g>
    </g>
   </g>
   <g id="line2d_21">
    <path clip-path="url(#pd4bf1076e0)" d="M 234.063106 129.792049 
L 399.221668 224.693628 
" style="fill:none;stroke:#db5f57;stroke-width:0.886227;"/>
   </g>
   <g id="line2d_22">
    <path clip-path="url(#pd4bf1076e0)" d="M 234.063106 112.615292 
L 399.221668 207.516871 
" style="fill:none;stroke:#91db57;stroke-width:0.886227;"/>
   </g>
   <g id="line2d_23">
    <path clip-path="url(#pd4bf1076e0)" d="M 234.063106 82.985387 
L 399.221668 138.380427 
" style="fill:none;stroke:#57d3db;stroke-width:0.886227;"/>
   </g>
   <g id="PathCollection_1">
    <path clip-path="url(#pd4bf1076e0)" d="M 68.904544 33.656991 
C 69.374604 33.656991 69.825475 33.470234 70.157858 33.137851 
C 70.490241 32.805468 70.676998 32.354597 70.676998 31.884537 
C 70.676998 31.414477 70.490241 30.963606 70.157858 30.631223 
C 69.825475 30.29884 69.374604 30.112083 68.904544 30.112083 
C 68.434483 30.112083 67.983612 30.29884 67.65123 30.631223 
C 67.318847 30.963606 67.13209 31.414477 67.13209 31.884537 
C 67.13209 32.354597 67.318847 32.805468 67.65123 33.137851 
C 67.983612 33.470234 68.434483 33.656991 68.904544 33.656991 
z
" style="fill:#a157db;stroke:#a157db;stroke-width:0.886227;"/>
    <path clip-path="url(#pd4bf1076e0)" d="M 234.063106 114.387746 
C 234.533166 114.387746 234.984037 114.200989 235.31642 113.868606 
C 235.648803 113.536223 235.83556 113.085352 235.83556 112.615292 
C 235.83556 112.145232 235.648803 111.694361 235.31642 111.361978 
C 234.984037 111.029595 234.533166 110.842838 234.063106 110.842838 
C 233.593046 110.842838 233.142175 111.029595 232.809792 111.361978 
C 232.477409 111.694361 232.290652 112.145232 232.290652 112.615292 
C 232.290652 113.085352 232.477409 113.536223 232.809792 113.868606 
C 233.142175 114.200989 233.593046 114.387746 234.063106 114.387746 
z
" style="fill:#91db57;stroke:#91db57;stroke-width:0.886227;"/>
    <path clip-path="url(#pd4bf1076e0)" d="M 234.063106 131.564502 
C 234.533166 131.564502 234.984037 131.377745 235.31642 131.045363 
C 235.648803 130.71298 235.83556 130.262109 235.83556 129.792049 
C 235.83556 129.321988 235.648803 128.871117 235.31642 128.538734 
C 234.984037 128.206352 234.533166 128.019595 234.063106 128.019595 
C 233.593046 128.019595 233.142175 128.206352 232.809792 128.538734 
C 232.477409 128.871117 232.290652 129.321988 232.290652 129.792049 
C 232.290652 130.262109 232.477409 130.71298 232.809792 131.045363 
C 233.142175 131.377745 233.593046 131.564502 234.063106 131.564502 
z
" style="fill:#db5f57;stroke:#db5f57;stroke-width:0.886227;"/>
    <path clip-path="url(#pd4bf1076e0)" d="M 234.063106 84.757841 
C 234.533166 84.757841 234.984037 84.571084 235.31642 84.238701 
C 235.648803 83.906319 235.83556 83.455448 235.83556 82.985387 
C 235.83556 82.515327 235.648803 82.064456 235.31642 81.732073 
C 234.984037 81.39969 234.533166 81.212933 234.063106 81.212933 
C 233.593046 81.212933 233.142175 81.39969 232.809792 81.732073 
C 232.477409 82.064456 232.290652 82.515327 232.290652 82.985387 
C 232.290652 83.455448 232.477409 83.906319 232.809792 84.238701 
C 233.142175 84.571084 233.593046 84.757841 234.063106 84.757841 
z
" style="fill:#57d3db;stroke:#57d3db;stroke-width:0.886227;"/>
    <path clip-path="url(#pd4bf1076e0)" d="M 399.221668 209.289325 
C 399.691729 209.289325 400.1426 209.102568 400.474983 208.770186 
C 400.807365 208.437803 400.994122 207.986932 400.994122 207.516871 
C 400.994122 207.046811 400.807365 206.59594 400.474983 206.263557 
C 400.1426 205.931174 399.691729 205.744418 399.221668 205.744418 
C 398.751608 205.744418 398.300737 205.931174 397.968354 206.263557 
C 397.635972 206.59594 397.449215 207.046811 397.449215 207.516871 
C 397.449215 207.986932 397.635972 208.437803 397.968354 208.770186 
C 398.300737 209.102568 398.751608 209.289325 399.221668 209.289325 
z
" style="fill:#91db57;stroke:#91db57;stroke-width:0.886227;"/>
    <path clip-path="url(#pd4bf1076e0)" d="M 399.221668 226.466082 
C 399.691729 226.466082 400.1426 226.279325 400.474983 225.946942 
C 400.807365 225.614559 400.994122 225.163688 400.994122 224.693628 
C 400.994122 224.223568 400.807365 223.772696 400.474983 223.440314 
C 400.1426 223.107931 399.691729 222.921174 399.221668 222.921174 
C 398.751608 222.921174 398.300737 223.107931 397.968354 223.440314 
C 397.635972 223.772696 397.449215 224.223568 397.449215 224.693628 
C 397.449215 225.163688 397.635972 225.614559 397.968354 225.946942 
C 398.300737 226.279325 398.751608 226.466082 399.221668 226.466082 
z
" style="fill:#db5f57;stroke:#db5f57;stroke-width:0.886227;"/>
    <path clip-path="url(#pd4bf1076e0)" d="M 399.221668 140.152881 
C 399.691729 140.152881 400.1426 139.966124 400.474983 139.633741 
C 400.807365 139.301358 400.994122 138.850487 400.994122 138.380427 
C 400.994122 137.910366 400.807365 137.459495 400.474983 137.127113 
C 400.1426 136.79473 399.691729 136.607973 399.221668 136.607973 
C 398.751608 136.607973 398.300737 136.79473 397.968354 137.127113 
C 397.635972 137.459495 397.449215 137.910366 397.449215 138.380427 
C 397.449215 138.850487 397.635972 139.301358 397.968354 139.633741 
C 398.300737 139.966124 398.751608 140.152881 399.221668 140.152881 
z
" style="fill:#57d3db;stroke:#57d3db;stroke-width:0.886227;"/>
   </g>
   <g id="patch_3">
    <path d="M 52.388688 22.244082 
L 415.737525 22.244082 
L 415.737525 7.2 
L 52.388688 7.2 
z
" style="fill:#d9d9d9;"/>
   </g>
   <g id="text_5">
    <!-- Accuracy -->
    <g style="fill:#1a1a1a;" transform="translate(213.974356 17.150291)scale(0.088 -0.088)">
     <defs>
      <path d="M 2188 4044 
L 1331 1722 
L 3047 1722 
L 2188 4044 
z
M 1831 4666 
L 2547 4666 
L 4325 0 
L 3669 0 
L 3244 1197 
L 1141 1197 
L 716 0 
L 50 0 
L 1831 4666 
z
" id="DejaVuSans-41" transform="scale(0.015625)"/>
      <path d="M 3122 3366 
L 3122 2828 
Q 2878 2963 2633 3030 
Q 2388 3097 2138 3097 
Q 1578 3097 1268 2742 
Q 959 2388 959 1747 
Q 959 1106 1268 751 
Q 1578 397 2138 397 
Q 2388 397 2633 464 
Q 2878 531 3122 666 
L 3122 134 
Q 2881 22 2623 -34 
Q 2366 -91 2075 -91 
Q 1284 -91 818 406 
Q 353 903 353 1747 
Q 353 2603 823 3093 
Q 1294 3584 2113 3584 
Q 2378 3584 2631 3529 
Q 2884 3475 3122 3366 
z
" id="DejaVuSans-63" transform="scale(0.015625)"/>
      <path d="M 2631 2963 
Q 2534 3019 2420 3045 
Q 2306 3072 2169 3072 
Q 1681 3072 1420 2755 
Q 1159 2438 1159 1844 
L 1159 0 
L 581 0 
L 581 3500 
L 1159 3500 
L 1159 2956 
Q 1341 3275 1631 3429 
Q 1922 3584 2338 3584 
Q 2397 3584 2469 3576 
Q 2541 3569 2628 3553 
L 2631 2963 
z
" id="DejaVuSans-72" transform="scale(0.015625)"/>
      <path d="M 2059 -325 
Q 1816 -950 1584 -1140 
Q 1353 -1331 966 -1331 
L 506 -1331 
L 506 -850 
L 844 -850 
Q 1081 -850 1212 -737 
Q 1344 -625 1503 -206 
L 1606 56 
L 191 3500 
L 800 3500 
L 1894 763 
L 2988 3500 
L 3597 3500 
L 2059 -325 
z
" id="DejaVuSans-79" transform="scale(0.015625)"/>
     </defs>
     <use xlink:href="#DejaVuSans-41"/>
     <use x="66.658203" xlink:href="#DejaVuSans-63"/>
     <use x="121.638672" xlink:href="#DejaVuSans-63"/>
     <use x="176.619141" xlink:href="#DejaVuSans-75"/>
     <use x="239.998047" xlink:href="#DejaVuSans-72"/>
     <use x="281.111328" xlink:href="#DejaVuSans-61"/>
     <use x="342.390625" xlink:href="#DejaVuSans-63"/>
     <use x="397.371094" xlink:href="#DejaVuSans-79"/>
    </g>
   </g>
   <g id="patch_4">
    <path d="M 840.788688 295.527051 
L 907.686937 295.527051 
L 907.686937 186.721114 
L 840.788688 186.721114 
z
" style="fill:#ffffff;"/>
   </g>
   <g id="text_6">
    <!-- Layers -->
    <g transform="translate(852.988688 210.314707)scale(0.11 -0.11)">
     <defs>
      <path d="M 628 4666 
L 1259 4666 
L 1259 531 
L 3531 531 
L 3531 0 
L 628 0 
L 628 4666 
z
" id="DejaVuSans-4c" transform="scale(0.015625)"/>
      <path d="M 2834 3397 
L 2834 2853 
Q 2591 2978 2328 3040 
Q 2066 3103 1784 3103 
Q 1356 3103 1142 2972 
Q 928 2841 928 2578 
Q 928 2378 1081 2264 
Q 1234 2150 1697 2047 
L 1894 2003 
Q 2506 1872 2764 1633 
Q 3022 1394 3022 966 
Q 3022 478 2636 193 
Q 2250 -91 1575 -91 
Q 1294 -91 989 -36 
Q 684 19 347 128 
L 347 722 
Q 666 556 975 473 
Q 1284 391 1588 391 
Q 1994 391 2212 530 
Q 2431 669 2431 922 
Q 2431 1156 2273 1281 
Q 2116 1406 1581 1522 
L 1381 1569 
Q 847 1681 609 1914 
Q 372 2147 372 2553 
Q 372 3047 722 3315 
Q 1072 3584 1716 3584 
Q 2034 3584 2315 3537 
Q 2597 3491 2834 3397 
z
" id="DejaVuSans-73" transform="scale(0.015625)"/>
     </defs>
     <use xlink:href="#DejaVuSans-4c"/>
     <use x="55.712891" xlink:href="#DejaVuSans-61"/>
     <use x="116.992188" xlink:href="#DejaVuSans-79"/>
     <use x="176.171875" xlink:href="#DejaVuSans-65"/>
     <use x="237.695312" xlink:href="#DejaVuSans-72"/>
     <use x="278.808594" xlink:href="#DejaVuSans-73"/>
    </g>
   </g>
   <g id="patch_5">
    <path clip-path="url(#p6ea9d6de0b)" d="M 852.988688 229.807051 
L 868.828688 229.807051 
L 868.828688 213.967051 
L 852.988688 213.967051 
z
" style="fill:#f2f2f2;"/>
   </g>
   <g id="line2d_24">
    <path clip-path="url(#p6ea9d6de0b)" d="M 852.988688 221.887051 
L 868.828688 221.887051 
" style="fill:none;stroke:#db5f57;stroke-width:0.886227;"/>
   </g>
   <g id="line2d_25">
    <path clip-path="url(#p6ea9d6de0b)" d="M 860.908688 221.887051 
" style="fill:none;stroke:#1f77b4;stroke-linecap:square;stroke-width:1.5;"/>
    <defs>
     <path d="M 0 1.772454 
C 0.47006 1.772454 0.920931 1.585697 1.253314 1.253314 
C 1.585697 0.920931 1.772454 0.47006 1.772454 0 
C 1.772454 -0.47006 1.585697 -0.920931 1.253314 -1.253314 
C 0.920931 -1.585697 0.47006 -1.772454 0 -1.772454 
C -0.47006 -1.772454 -0.920931 -1.585697 -1.253314 -1.253314 
C -1.585697 -0.920931 -1.772454 -0.47006 -1.772454 0 
C -1.772454 0.47006 -1.585697 0.920931 -1.253314 1.253314 
C -0.920931 1.585697 -0.47006 1.772454 0 1.772454 
z
" id="m5e89bf391c" style="stroke:#db5f57;stroke-width:0.886227;"/>
    </defs>
    <g clip-path="url(#p6ea9d6de0b)">
     <use style="fill:#db5f57;stroke:#db5f57;stroke-width:0.886227;" x="860.908688" xlink:href="#m5e89bf391c" y="221.887051"/>
    </g>
   </g>
   <g id="text_7">
    <!-- [1, 2] -->
    <g transform="translate(871.828688 224.315301)scale(0.088 -0.088)">
     <defs>
      <path d="M 550 4863 
L 1875 4863 
L 1875 4416 
L 1125 4416 
L 1125 -397 
L 1875 -397 
L 1875 -844 
L 550 -844 
L 550 4863 
z
" id="DejaVuSans-5b" transform="scale(0.015625)"/>
      <path d="M 750 794 
L 1409 794 
L 1409 256 
L 897 -744 
L 494 -744 
L 750 256 
L 750 794 
z
" id="DejaVuSans-2c" transform="scale(0.015625)"/>
      <path id="DejaVuSans-20" transform="scale(0.015625)"/>
      <path d="M 1947 4863 
L 1947 -844 
L 622 -844 
L 622 -397 
L 1369 -397 
L 1369 4416 
L 622 4416 
L 622 4863 
L 1947 4863 
z
" id="DejaVuSans-5d" transform="scale(0.015625)"/>
     </defs>
     <use xlink:href="#DejaVuSans-5b"/>
     <use x="39.013672" xlink:href="#DejaVuSans-31"/>
     <use x="102.636719" xlink:href="#DejaVuSans-2c"/>
     <use x="134.423828" xlink:href="#DejaVuSans-20"/>
     <use x="166.210938" xlink:href="#DejaVuSans-32"/>
     <use x="229.833984" xlink:href="#DejaVuSans-5d"/>
    </g>
   </g>
   <g id="patch_6">
    <path clip-path="url(#p316c5d711b)" d="M 852.988688 247.647051 
L 868.828688 247.647051 
L 868.828688 231.807051 
L 852.988688 231.807051 
z
" style="fill:#f2f2f2;"/>
   </g>
   <g id="line2d_26">
    <path clip-path="url(#p316c5d711b)" d="M 852.988688 239.727051 
L 868.828688 239.727051 
" style="fill:none;stroke:#91db57;stroke-width:0.886227;"/>
   </g>
   <g id="line2d_27">
    <path clip-path="url(#p316c5d711b)" d="M 860.908688 239.727051 
" style="fill:none;stroke:#1f77b4;stroke-linecap:square;stroke-width:1.5;"/>
    <defs>
     <path d="M 0 1.772454 
C 0.47006 1.772454 0.920931 1.585697 1.253314 1.253314 
C 1.585697 0.920931 1.772454 0.47006 1.772454 0 
C 1.772454 -0.47006 1.585697 -0.920931 1.253314 -1.253314 
C 0.920931 -1.585697 0.47006 -1.772454 0 -1.772454 
C -0.47006 -1.772454 -0.920931 -1.585697 -1.253314 -1.253314 
C -1.585697 -0.920931 -1.772454 -0.47006 -1.772454 0 
C -1.772454 0.47006 -1.585697 0.920931 -1.253314 1.253314 
C -0.920931 1.585697 -0.47006 1.772454 0 1.772454 
z
" id="m4b52c06288" style="stroke:#91db57;stroke-width:0.886227;"/>
    </defs>
    <g clip-path="url(#p316c5d711b)">
     <use style="fill:#91db57;stroke:#91db57;stroke-width:0.886227;" x="860.908688" xlink:href="#m4b52c06288" y="239.727051"/>
    </g>
   </g>
   <g id="text_8">
    <!-- [1] -->
    <g transform="translate(871.828688 242.155301)scale(0.088 -0.088)">
     <use xlink:href="#DejaVuSans-5b"/>
     <use x="39.013672" xlink:href="#DejaVuSans-31"/>
     <use x="102.636719" xlink:href="#DejaVuSans-5d"/>
    </g>
   </g>
   <g id="patch_7">
    <path clip-path="url(#p988ab46977)" d="M 852.988688 265.487051 
L 868.828688 265.487051 
L 868.828688 249.647051 
L 852.988688 249.647051 
z
" style="fill:#f2f2f2;"/>
   </g>
   <g id="line2d_28">
    <path clip-path="url(#p988ab46977)" d="M 852.988688 257.567051 
L 868.828688 257.567051 
" style="fill:none;stroke:#57d3db;stroke-width:0.886227;"/>
   </g>
   <g id="line2d_29">
    <path clip-path="url(#p988ab46977)" d="M 860.908688 257.567051 
" style="fill:none;stroke:#1f77b4;stroke-linecap:square;stroke-width:1.5;"/>
    <defs>
     <path d="M 0 1.772454 
C 0.47006 1.772454 0.920931 1.585697 1.253314 1.253314 
C 1.585697 0.920931 1.772454 0.47006 1.772454 0 
C 1.772454 -0.47006 1.585697 -0.920931 1.253314 -1.253314 
C 0.920931 -1.585697 0.47006 -1.772454 0 -1.772454 
C -0.47006 -1.772454 -0.920931 -1.585697 -1.253314 -1.253314 
C -1.585697 -0.920931 -1.772454 -0.47006 -1.772454 0 
C -1.772454 0.47006 -1.585697 0.920931 -1.253314 1.253314 
C -0.920931 1.585697 -0.47006 1.772454 0 1.772454 
z
" id="m5fb39ec106" style="stroke:#57d3db;stroke-width:0.886227;"/>
    </defs>
    <g clip-path="url(#p988ab46977)">
     <use style="fill:#57d3db;stroke:#57d3db;stroke-width:0.886227;" x="860.908688" xlink:href="#m5fb39ec106" y="257.567051"/>
    </g>
   </g>
   <g id="text_9">
    <!-- [2] -->
    <g transform="translate(871.828688 259.995301)scale(0.088 -0.088)">
     <use xlink:href="#DejaVuSans-5b"/>
     <use x="39.013672" xlink:href="#DejaVuSans-32"/>
     <use x="102.636719" xlink:href="#DejaVuSans-5d"/>
    </g>
   </g>
   <g id="patch_8">
    <path clip-path="url(#p58013f56e6)" d="M 852.988688 283.327051 
L 868.828688 283.327051 
L 868.828688 267.487051 
L 852.988688 267.487051 
z
" style="fill:#f2f2f2;"/>
   </g>
   <g id="line2d_30">
    <path clip-path="url(#p58013f56e6)" d="M 852.988688 275.407051 
L 868.828688 275.407051 
" style="fill:none;stroke:#a157db;stroke-width:0.886227;"/>
   </g>
   <g id="line2d_31">
    <path clip-path="url(#p58013f56e6)" d="M 860.908688 275.407051 
" style="fill:none;stroke:#1f77b4;stroke-linecap:square;stroke-width:1.5;"/>
    <defs>
     <path d="M 0 1.772454 
C 0.47006 1.772454 0.920931 1.585697 1.253314 1.253314 
C 1.585697 0.920931 1.772454 0.47006 1.772454 0 
C 1.772454 -0.47006 1.585697 -0.920931 1.253314 -1.253314 
C 0.920931 -1.585697 0.47006 -1.772454 0 -1.772454 
C -0.47006 -1.772454 -0.920931 -1.585697 -1.253314 -1.253314 
C -1.585697 -0.920931 -1.772454 -0.47006 -1.772454 0 
C -1.772454 0.47006 -1.585697 0.920931 -1.253314 1.253314 
C -0.920931 1.585697 -0.47006 1.772454 0 1.772454 
z
" id="m1a113d9aaf" style="stroke:#a157db;stroke-width:0.886227;"/>
    </defs>
    <g clip-path="url(#p58013f56e6)">
     <use style="fill:#a157db;stroke:#a157db;stroke-width:0.886227;" x="860.908688" xlink:href="#m1a113d9aaf" y="275.407051"/>
    </g>
   </g>
   <g id="text_10">
    <!-- [] -->
    <g transform="translate(871.828688 277.835301)scale(0.088 -0.088)">
     <use xlink:href="#DejaVuSans-5b"/>
     <use x="39.013672" xlink:href="#DejaVuSans-5d"/>
    </g>
   </g>
  </g>
  <g id="axes_2">
   <g id="patch_9">
    <path d="M 470.23985 234.334082 
L 833.588688 234.334082 
L 833.588688 22.244082 
L 470.23985 22.244082 
z
" style="fill:#ebebeb;"/>
   </g>
   <g id="matplotlib.axis_3">
    <g id="xtick_12">
     <g id="line2d_32">
      <path clip-path="url(#p3ca3b3f1ac)" d="M 486.755707 234.334082 
L 486.755707 22.244082 
" style="fill:none;stroke:#ffffff;stroke-linecap:square;"/>
     </g>
    </g>
    <g id="xtick_13">
     <g id="line2d_33">
      <path clip-path="url(#p3ca3b3f1ac)" d="M 552.819131 234.334082 
L 552.819131 22.244082 
" style="fill:none;stroke:#ffffff;stroke-linecap:square;"/>
     </g>
    </g>
    <g id="xtick_14">
     <g id="line2d_34">
      <path clip-path="url(#p3ca3b3f1ac)" d="M 618.882556 234.334082 
L 618.882556 22.244082 
" style="fill:none;stroke:#ffffff;stroke-linecap:square;"/>
     </g>
    </g>
    <g id="xtick_15">
     <g id="line2d_35">
      <path clip-path="url(#p3ca3b3f1ac)" d="M 684.945981 234.334082 
L 684.945981 22.244082 
" style="fill:none;stroke:#ffffff;stroke-linecap:square;"/>
     </g>
    </g>
    <g id="xtick_16">
     <g id="line2d_36">
      <path clip-path="url(#p3ca3b3f1ac)" d="M 751.009406 234.334082 
L 751.009406 22.244082 
" style="fill:none;stroke:#ffffff;stroke-linecap:square;"/>
     </g>
    </g>
    <g id="xtick_17">
     <g id="line2d_37">
      <path clip-path="url(#p3ca3b3f1ac)" d="M 817.072831 234.334082 
L 817.072831 22.244082 
" style="fill:none;stroke:#ffffff;stroke-linecap:square;"/>
     </g>
    </g>
    <g id="xtick_18">
     <g id="line2d_38">
      <path clip-path="url(#p3ca3b3f1ac)" d="M 519.787419 234.334082 
L 519.787419 22.244082 
" style="fill:none;stroke:#ffffff;stroke-linecap:square;stroke-width:0.5;"/>
     </g>
    </g>
    <g id="xtick_19">
     <g id="line2d_39">
      <path clip-path="url(#p3ca3b3f1ac)" d="M 585.850844 234.334082 
L 585.850844 22.244082 
" style="fill:none;stroke:#ffffff;stroke-linecap:square;stroke-width:0.5;"/>
     </g>
    </g>
    <g id="xtick_20">
     <g id="line2d_40">
      <path clip-path="url(#p3ca3b3f1ac)" d="M 651.914269 234.334082 
L 651.914269 22.244082 
" style="fill:none;stroke:#ffffff;stroke-linecap:square;stroke-width:0.5;"/>
     </g>
    </g>
    <g id="xtick_21">
     <g id="line2d_41">
      <path clip-path="url(#p3ca3b3f1ac)" d="M 717.977694 234.334082 
L 717.977694 22.244082 
" style="fill:none;stroke:#ffffff;stroke-linecap:square;stroke-width:0.5;"/>
     </g>
    </g>
    <g id="xtick_22">
     <g id="line2d_42">
      <path clip-path="url(#p3ca3b3f1ac)" d="M 784.041119 234.334082 
L 784.041119 22.244082 
" style="fill:none;stroke:#ffffff;stroke-linecap:square;stroke-width:0.5;"/>
     </g>
    </g>
   </g>
   <g id="matplotlib.axis_4">
    <g id="ytick_7">
     <g id="line2d_43">
      <path clip-path="url(#p3ca3b3f1ac)" d="M 470.23985 231.521278 
L 833.588688 231.521278 
" style="fill:none;stroke:#ffffff;stroke-linecap:square;"/>
     </g>
     <g id="line2d_44">
      <path d="M 470.23985 231.521278 
" style="fill:none;stroke:#333333;stroke-linecap:square;stroke-width:1.5;"/>
      <g>
       <use style="fill:#333333;stroke:#000000;" x="470.23985" xlink:href="#m01badd31c2" y="231.521278"/>
      </g>
     </g>
     <g id="text_11">
      <!-- 0.891 -->
      <g style="fill:#4d4d4d;" transform="translate(440.0971 233.949528)scale(0.088 -0.088)">
       <defs>
        <path d="M 703 97 
L 703 672 
Q 941 559 1184 500 
Q 1428 441 1663 441 
Q 2288 441 2617 861 
Q 2947 1281 2994 2138 
Q 2813 1869 2534 1725 
Q 2256 1581 1919 1581 
Q 1219 1581 811 2004 
Q 403 2428 403 3163 
Q 403 3881 828 4315 
Q 1253 4750 1959 4750 
Q 2769 4750 3195 4129 
Q 3622 3509 3622 2328 
Q 3622 1225 3098 567 
Q 2575 -91 1691 -91 
Q 1453 -91 1209 -44 
Q 966 3 703 97 
z
M 1959 2075 
Q 2384 2075 2632 2365 
Q 2881 2656 2881 3163 
Q 2881 3666 2632 3958 
Q 2384 4250 1959 4250 
Q 1534 4250 1286 3958 
Q 1038 3666 1038 3163 
Q 1038 2656 1286 2365 
Q 1534 2075 1959 2075 
z
" id="DejaVuSans-39" transform="scale(0.015625)"/>
       </defs>
       <use xlink:href="#DejaVuSans-30"/>
       <use x="63.623047" xlink:href="#DejaVuSans-2e"/>
       <use x="95.410156" xlink:href="#DejaVuSans-38"/>
       <use x="159.033203" xlink:href="#DejaVuSans-39"/>
       <use x="222.65625" xlink:href="#DejaVuSans-31"/>
      </g>
     </g>
    </g>
    <g id="ytick_8">
     <g id="line2d_45">
      <path clip-path="url(#p3ca3b3f1ac)" d="M 470.23985 194.216293 
L 833.588688 194.216293 
" style="fill:none;stroke:#ffffff;stroke-linecap:square;"/>
     </g>
     <g id="line2d_46">
      <path d="M 470.23985 194.216293 
" style="fill:none;stroke:#333333;stroke-linecap:square;stroke-width:1.5;"/>
      <g>
       <use style="fill:#333333;stroke:#000000;" x="470.23985" xlink:href="#m01badd31c2" y="194.216293"/>
      </g>
     </g>
     <g id="text_12">
      <!-- 0.892 -->
      <g style="fill:#4d4d4d;" transform="translate(440.0971 196.644543)scale(0.088 -0.088)">
       <use xlink:href="#DejaVuSans-30"/>
       <use x="63.623047" xlink:href="#DejaVuSans-2e"/>
       <use x="95.410156" xlink:href="#DejaVuSans-38"/>
       <use x="159.033203" xlink:href="#DejaVuSans-39"/>
       <use x="222.65625" xlink:href="#DejaVuSans-32"/>
      </g>
     </g>
    </g>
    <g id="ytick_9">
     <g id="line2d_47">
      <path clip-path="url(#p3ca3b3f1ac)" d="M 470.23985 156.911308 
L 833.588688 156.911308 
" style="fill:none;stroke:#ffffff;stroke-linecap:square;"/>
     </g>
     <g id="line2d_48">
      <path d="M 470.23985 156.911308 
" style="fill:none;stroke:#333333;stroke-linecap:square;stroke-width:1.5;"/>
      <g>
       <use style="fill:#333333;stroke:#000000;" x="470.23985" xlink:href="#m01badd31c2" y="156.911308"/>
      </g>
     </g>
     <g id="text_13">
      <!-- 0.893 -->
      <g style="fill:#4d4d4d;" transform="translate(440.0971 159.339558)scale(0.088 -0.088)">
       <defs>
        <path d="M 2597 2516 
Q 3050 2419 3304 2112 
Q 3559 1806 3559 1356 
Q 3559 666 3084 287 
Q 2609 -91 1734 -91 
Q 1441 -91 1130 -33 
Q 819 25 488 141 
L 488 750 
Q 750 597 1062 519 
Q 1375 441 1716 441 
Q 2309 441 2620 675 
Q 2931 909 2931 1356 
Q 2931 1769 2642 2001 
Q 2353 2234 1838 2234 
L 1294 2234 
L 1294 2753 
L 1863 2753 
Q 2328 2753 2575 2939 
Q 2822 3125 2822 3475 
Q 2822 3834 2567 4026 
Q 2313 4219 1838 4219 
Q 1578 4219 1281 4162 
Q 984 4106 628 3988 
L 628 4550 
Q 988 4650 1302 4700 
Q 1616 4750 1894 4750 
Q 2613 4750 3031 4423 
Q 3450 4097 3450 3541 
Q 3450 3153 3228 2886 
Q 3006 2619 2597 2516 
z
" id="DejaVuSans-33" transform="scale(0.015625)"/>
       </defs>
       <use xlink:href="#DejaVuSans-30"/>
       <use x="63.623047" xlink:href="#DejaVuSans-2e"/>
       <use x="95.410156" xlink:href="#DejaVuSans-38"/>
       <use x="159.033203" xlink:href="#DejaVuSans-39"/>
       <use x="222.65625" xlink:href="#DejaVuSans-33"/>
      </g>
     </g>
    </g>
    <g id="ytick_10">
     <g id="line2d_49">
      <path clip-path="url(#p3ca3b3f1ac)" d="M 470.23985 119.606323 
L 833.588688 119.606323 
" style="fill:none;stroke:#ffffff;stroke-linecap:square;"/>
     </g>
     <g id="line2d_50">
      <path d="M 470.23985 119.606323 
" style="fill:none;stroke:#333333;stroke-linecap:square;stroke-width:1.5;"/>
      <g>
       <use style="fill:#333333;stroke:#000000;" x="470.23985" xlink:href="#m01badd31c2" y="119.606323"/>
      </g>
     </g>
     <g id="text_14">
      <!-- 0.894 -->
      <g style="fill:#4d4d4d;" transform="translate(440.0971 122.034573)scale(0.088 -0.088)">
       <use xlink:href="#DejaVuSans-30"/>
       <use x="63.623047" xlink:href="#DejaVuSans-2e"/>
       <use x="95.410156" xlink:href="#DejaVuSans-38"/>
       <use x="159.033203" xlink:href="#DejaVuSans-39"/>
       <use x="222.65625" xlink:href="#DejaVuSans-34"/>
      </g>
     </g>
    </g>
    <g id="ytick_11">
     <g id="line2d_51">
      <path clip-path="url(#p3ca3b3f1ac)" d="M 470.23985 82.301338 
L 833.588688 82.301338 
" style="fill:none;stroke:#ffffff;stroke-linecap:square;"/>
     </g>
     <g id="line2d_52">
      <path d="M 470.23985 82.301338 
" style="fill:none;stroke:#333333;stroke-linecap:square;stroke-width:1.5;"/>
      <g>
       <use style="fill:#333333;stroke:#000000;" x="470.23985" xlink:href="#m01badd31c2" y="82.301338"/>
      </g>
     </g>
     <g id="text_15">
      <!-- 0.895 -->
      <g style="fill:#4d4d4d;" transform="translate(440.0971 84.729588)scale(0.088 -0.088)">
       <defs>
        <path d="M 691 4666 
L 3169 4666 
L 3169 4134 
L 1269 4134 
L 1269 2991 
Q 1406 3038 1543 3061 
Q 1681 3084 1819 3084 
Q 2600 3084 3056 2656 
Q 3513 2228 3513 1497 
Q 3513 744 3044 326 
Q 2575 -91 1722 -91 
Q 1428 -91 1123 -41 
Q 819 9 494 109 
L 494 744 
Q 775 591 1075 516 
Q 1375 441 1709 441 
Q 2250 441 2565 725 
Q 2881 1009 2881 1497 
Q 2881 1984 2565 2268 
Q 2250 2553 1709 2553 
Q 1456 2553 1204 2497 
Q 953 2441 691 2322 
L 691 4666 
z
" id="DejaVuSans-35" transform="scale(0.015625)"/>
       </defs>
       <use xlink:href="#DejaVuSans-30"/>
       <use x="63.623047" xlink:href="#DejaVuSans-2e"/>
       <use x="95.410156" xlink:href="#DejaVuSans-38"/>
       <use x="159.033203" xlink:href="#DejaVuSans-39"/>
       <use x="222.65625" xlink:href="#DejaVuSans-35"/>
      </g>
     </g>
    </g>
    <g id="ytick_12">
     <g id="line2d_53">
      <path clip-path="url(#p3ca3b3f1ac)" d="M 470.23985 44.996353 
L 833.588688 44.996353 
" style="fill:none;stroke:#ffffff;stroke-linecap:square;"/>
     </g>
     <g id="line2d_54">
      <path d="M 470.23985 44.996353 
" style="fill:none;stroke:#333333;stroke-linecap:square;stroke-width:1.5;"/>
      <g>
       <use style="fill:#333333;stroke:#000000;" x="470.23985" xlink:href="#m01badd31c2" y="44.996353"/>
      </g>
     </g>
     <g id="text_16">
      <!-- 0.896 -->
      <g style="fill:#4d4d4d;" transform="translate(440.0971 47.424603)scale(0.088 -0.088)">
       <defs>
        <path d="M 2113 2584 
Q 1688 2584 1439 2293 
Q 1191 2003 1191 1497 
Q 1191 994 1439 701 
Q 1688 409 2113 409 
Q 2538 409 2786 701 
Q 3034 994 3034 1497 
Q 3034 2003 2786 2293 
Q 2538 2584 2113 2584 
z
M 3366 4563 
L 3366 3988 
Q 3128 4100 2886 4159 
Q 2644 4219 2406 4219 
Q 1781 4219 1451 3797 
Q 1122 3375 1075 2522 
Q 1259 2794 1537 2939 
Q 1816 3084 2150 3084 
Q 2853 3084 3261 2657 
Q 3669 2231 3669 1497 
Q 3669 778 3244 343 
Q 2819 -91 2113 -91 
Q 1303 -91 875 529 
Q 447 1150 447 2328 
Q 447 3434 972 4092 
Q 1497 4750 2381 4750 
Q 2619 4750 2861 4703 
Q 3103 4656 3366 4563 
z
" id="DejaVuSans-36" transform="scale(0.015625)"/>
       </defs>
       <use xlink:href="#DejaVuSans-30"/>
       <use x="63.623047" xlink:href="#DejaVuSans-2e"/>
       <use x="95.410156" xlink:href="#DejaVuSans-38"/>
       <use x="159.033203" xlink:href="#DejaVuSans-39"/>
       <use x="222.65625" xlink:href="#DejaVuSans-36"/>
      </g>
     </g>
    </g>
    <g id="ytick_13">
     <g id="line2d_55">
      <path clip-path="url(#p3ca3b3f1ac)" d="M 470.23985 212.868785 
L 833.588688 212.868785 
" style="fill:none;stroke:#ffffff;stroke-linecap:square;stroke-width:0.5;"/>
     </g>
    </g>
    <g id="ytick_14">
     <g id="line2d_56">
      <path clip-path="url(#p3ca3b3f1ac)" d="M 470.23985 175.563801 
L 833.588688 175.563801 
" style="fill:none;stroke:#ffffff;stroke-linecap:square;stroke-width:0.5;"/>
     </g>
    </g>
    <g id="ytick_15">
     <g id="line2d_57">
      <path clip-path="url(#p3ca3b3f1ac)" d="M 470.23985 138.258816 
L 833.588688 138.258816 
" style="fill:none;stroke:#ffffff;stroke-linecap:square;stroke-width:0.5;"/>
     </g>
    </g>
    <g id="ytick_16">
     <g id="line2d_58">
      <path clip-path="url(#p3ca3b3f1ac)" d="M 470.23985 100.953831 
L 833.588688 100.953831 
" style="fill:none;stroke:#ffffff;stroke-linecap:square;stroke-width:0.5;"/>
     </g>
    </g>
    <g id="ytick_17">
     <g id="line2d_59">
      <path clip-path="url(#p3ca3b3f1ac)" d="M 470.23985 63.648846 
L 833.588688 63.648846 
" style="fill:none;stroke:#ffffff;stroke-linecap:square;stroke-width:0.5;"/>
     </g>
    </g>
    <g id="ytick_18">
     <g id="line2d_60">
      <path clip-path="url(#p3ca3b3f1ac)" d="M 470.23985 26.343861 
L 833.588688 26.343861 
" style="fill:none;stroke:#ffffff;stroke-linecap:square;stroke-width:0.5;"/>
     </g>
    </g>
   </g>
   <g id="line2d_61">
    <path clip-path="url(#p3ca3b3f1ac)" d="M 651.914269 122.036224 
L 817.072831 224.693628 
" style="fill:none;stroke:#db5f57;stroke-width:0.886227;"/>
   </g>
   <g id="line2d_62">
    <path clip-path="url(#p3ca3b3f1ac)" d="M 651.914269 68.201027 
L 817.072831 168.43816 
" style="fill:none;stroke:#91db57;stroke-width:0.886227;"/>
   </g>
   <g id="line2d_63">
    <path clip-path="url(#p3ca3b3f1ac)" d="M 651.914269 31.884537 
L 817.072831 94.761524 
" style="fill:none;stroke:#57d3db;stroke-width:0.886227;"/>
   </g>
   <g id="PathCollection_2">
    <path clip-path="url(#p3ca3b3f1ac)" d="M 486.755707 55.06693 
C 487.225767 55.06693 487.676638 54.880173 488.009021 54.54779 
C 488.341403 54.215407 488.52816 53.764536 488.52816 53.294476 
C 488.52816 52.824416 488.341403 52.373545 488.009021 52.041162 
C 487.676638 51.708779 487.225767 51.522022 486.755707 51.522022 
C 486.285646 51.522022 485.834775 51.708779 485.502392 52.041162 
C 485.17001 52.373545 484.983253 52.824416 484.983253 53.294476 
C 484.983253 53.764536 485.17001 54.215407 485.502392 54.54779 
C 485.834775 54.880173 486.285646 55.06693 486.755707 55.06693 
z
" style="fill:#a157db;stroke:#a157db;stroke-width:0.886227;"/>
    <path clip-path="url(#p3ca3b3f1ac)" d="M 651.914269 69.973481 
C 652.384329 69.973481 652.8352 69.786724 653.167583 69.454341 
C 653.499966 69.121958 653.686723 68.671087 653.686723 68.201027 
C 653.686723 67.730966 653.499966 67.280095 653.167583 66.947713 
C 652.8352 66.61533 652.384329 66.428573 651.914269 66.428573 
C 651.444209 66.428573 650.993338 66.61533 650.660955 66.947713 
C 650.328572 67.280095 650.141815 67.730966 650.141815 68.201027 
C 650.141815 68.671087 650.328572 69.121958 650.660955 69.454341 
C 650.993338 69.786724 651.444209 69.973481 651.914269 69.973481 
z
" style="fill:#91db57;stroke:#91db57;stroke-width:0.886227;"/>
    <path clip-path="url(#p3ca3b3f1ac)" d="M 651.914269 123.808678 
C 652.384329 123.808678 652.8352 123.621921 653.167583 123.289538 
C 653.499966 122.957155 653.686723 122.506284 653.686723 122.036224 
C 653.686723 121.566164 653.499966 121.115293 653.167583 120.78291 
C 652.8352 120.450527 652.384329 120.26377 651.914269 120.26377 
C 651.444209 120.26377 650.993338 120.450527 650.660955 120.78291 
C 650.328572 121.115293 650.141815 121.566164 650.141815 122.036224 
C 650.141815 122.506284 650.328572 122.957155 650.660955 123.289538 
C 650.993338 123.621921 651.444209 123.808678 651.914269 123.808678 
z
" style="fill:#db5f57;stroke:#db5f57;stroke-width:0.886227;"/>
    <path clip-path="url(#p3ca3b3f1ac)" d="M 651.914269 33.656991 
C 652.384329 33.656991 652.8352 33.470234 653.167583 33.137851 
C 653.499966 32.805468 653.686723 32.354597 653.686723 31.884537 
C 653.686723 31.414477 653.499966 30.963606 653.167583 30.631223 
C 652.8352 30.29884 652.384329 30.112083 651.914269 30.112083 
C 651.444209 30.112083 650.993338 30.29884 650.660955 30.631223 
C 650.328572 30.963606 650.141815 31.414477 650.141815 31.884537 
C 650.141815 32.354597 650.328572 32.805468 650.660955 33.137851 
C 650.993338 33.470234 651.444209 33.656991 651.914269 33.656991 
z
" style="fill:#57d3db;stroke:#57d3db;stroke-width:0.886227;"/>
    <path clip-path="url(#p3ca3b3f1ac)" d="M 817.072831 170.210613 
C 817.542892 170.210613 817.993763 170.023857 818.326145 169.691474 
C 818.658528 169.359091 818.845285 168.90822 818.845285 168.43816 
C 818.845285 167.968099 818.658528 167.517228 818.326145 167.184846 
C 817.993763 166.852463 817.542892 166.665706 817.072831 166.665706 
C 816.602771 166.665706 816.1519 166.852463 815.819517 167.184846 
C 815.487134 167.517228 815.300377 167.968099 815.300377 168.43816 
C 815.300377 168.90822 815.487134 169.359091 815.819517 169.691474 
C 816.1519 170.023857 816.602771 170.210613 817.072831 170.210613 
z
" style="fill:#91db57;stroke:#91db57;stroke-width:0.886227;"/>
    <path clip-path="url(#p3ca3b3f1ac)" d="M 817.072831 226.466082 
C 817.542892 226.466082 817.993763 226.279325 818.326145 225.946942 
C 818.658528 225.614559 818.845285 225.163688 818.845285 224.693628 
C 818.845285 224.223568 818.658528 223.772696 818.326145 223.440314 
C 817.993763 223.107931 817.542892 222.921174 817.072831 222.921174 
C 816.602771 222.921174 816.1519 223.107931 815.819517 223.440314 
C 815.487134 223.772696 815.300377 224.223568 815.300377 224.693628 
C 815.300377 225.163688 815.487134 225.614559 815.819517 225.946942 
C 816.1519 226.279325 816.602771 226.466082 817.072831 226.466082 
z
" style="fill:#db5f57;stroke:#db5f57;stroke-width:0.886227;"/>
    <path clip-path="url(#p3ca3b3f1ac)" d="M 817.072831 96.533978 
C 817.542892 96.533978 817.993763 96.347221 818.326145 96.014839 
C 818.658528 95.682456 818.845285 95.231585 818.845285 94.761524 
C 818.845285 94.291464 818.658528 93.840593 818.326145 93.50821 
C 817.993763 93.175828 817.542892 92.989071 817.072831 92.989071 
C 816.602771 92.989071 816.1519 93.175828 815.819517 93.50821 
C 815.487134 93.840593 815.300377 94.291464 815.300377 94.761524 
C 815.300377 95.231585 815.487134 95.682456 815.819517 96.014839 
C 816.1519 96.347221 816.602771 96.533978 817.072831 96.533978 
z
" style="fill:#57d3db;stroke:#57d3db;stroke-width:0.886227;"/>
   </g>
   <g id="patch_10">
    <path d="M 470.23985 22.244082 
L 833.588688 22.244082 
L 833.588688 7.2 
L 470.23985 7.2 
z
" style="fill:#d9d9d9;"/>
   </g>
   <g id="text_17">
    <!-- AUC -->
    <g style="fill:#1a1a1a;" transform="translate(642.611706 17.150291)scale(0.088 -0.088)">
     <defs>
      <path d="M 556 4666 
L 1191 4666 
L 1191 1831 
Q 1191 1081 1462 751 
Q 1734 422 2344 422 
Q 2950 422 3222 751 
Q 3494 1081 3494 1831 
L 3494 4666 
L 4128 4666 
L 4128 1753 
Q 4128 841 3676 375 
Q 3225 -91 2344 -91 
Q 1459 -91 1007 375 
Q 556 841 556 1753 
L 556 4666 
z
" id="DejaVuSans-55" transform="scale(0.015625)"/>
      <path d="M 4122 4306 
L 4122 3641 
Q 3803 3938 3442 4084 
Q 3081 4231 2675 4231 
Q 1875 4231 1450 3742 
Q 1025 3253 1025 2328 
Q 1025 1406 1450 917 
Q 1875 428 2675 428 
Q 3081 428 3442 575 
Q 3803 722 4122 1019 
L 4122 359 
Q 3791 134 3420 21 
Q 3050 -91 2638 -91 
Q 1578 -91 968 557 
Q 359 1206 359 2328 
Q 359 3453 968 4101 
Q 1578 4750 2638 4750 
Q 3056 4750 3426 4639 
Q 3797 4528 4122 4306 
z
" id="DejaVuSans-43" transform="scale(0.015625)"/>
     </defs>
     <use xlink:href="#DejaVuSans-41"/>
     <use x="68.408203" xlink:href="#DejaVuSans-55"/>
     <use x="141.601562" xlink:href="#DejaVuSans-43"/>
    </g>
   </g>
  </g>
  <g id="axes_3">
   <g id="patch_11">
    <path d="M 52.388688 465.764082 
L 415.737525 465.764082 
L 415.737525 253.674082 
L 52.388688 253.674082 
z
" style="fill:#ebebeb;"/>
   </g>
   <g id="matplotlib.axis_5">
    <g id="xtick_23">
     <g id="line2d_64">
      <path clip-path="url(#p97b5675405)" d="M 68.904544 465.764082 
L 68.904544 253.674082 
" style="fill:none;stroke:#ffffff;stroke-linecap:square;"/>
     </g>
     <g id="line2d_65">
      <path d="M 68.904544 465.764082 
" style="fill:none;stroke:#333333;stroke-linecap:square;stroke-width:1.5;"/>
      <defs>
       <path d="M 0 0 
L 0 2.75 
" id="m12f8bea009" style="stroke:#000000;"/>
      </defs>
      <g>
       <use style="fill:#333333;stroke:#000000;" x="68.904544" xlink:href="#m12f8bea009" y="465.764082"/>
      </g>
     </g>
     <g id="text_18">
      <!-- 0 -->
      <g style="fill:#4d4d4d;" transform="translate(66.105044 477.400707)scale(0.088 -0.088)">
       <use xlink:href="#DejaVuSans-30"/>
      </g>
     </g>
    </g>
    <g id="xtick_24">
     <g id="line2d_66">
      <path clip-path="url(#p97b5675405)" d="M 134.967969 465.764082 
L 134.967969 253.674082 
" style="fill:none;stroke:#ffffff;stroke-linecap:square;"/>
     </g>
     <g id="line2d_67">
      <path d="M 134.967969 465.764082 
" style="fill:none;stroke:#333333;stroke-linecap:square;stroke-width:1.5;"/>
      <g>
       <use style="fill:#333333;stroke:#000000;" x="134.967969" xlink:href="#m12f8bea009" y="465.764082"/>
      </g>
     </g>
     <g id="text_19">
      <!-- 0.1 -->
      <g style="fill:#4d4d4d;" transform="translate(127.970594 477.400707)scale(0.088 -0.088)">
       <use xlink:href="#DejaVuSans-30"/>
       <use x="63.623047" xlink:href="#DejaVuSans-2e"/>
       <use x="95.410156" xlink:href="#DejaVuSans-31"/>
      </g>
     </g>
    </g>
    <g id="xtick_25">
     <g id="line2d_68">
      <path clip-path="url(#p97b5675405)" d="M 201.031394 465.764082 
L 201.031394 253.674082 
" style="fill:none;stroke:#ffffff;stroke-linecap:square;"/>
     </g>
     <g id="line2d_69">
      <path d="M 201.031394 465.764082 
" style="fill:none;stroke:#333333;stroke-linecap:square;stroke-width:1.5;"/>
      <g>
       <use style="fill:#333333;stroke:#000000;" x="201.031394" xlink:href="#m12f8bea009" y="465.764082"/>
      </g>
     </g>
     <g id="text_20">
      <!-- 0.2 -->
      <g style="fill:#4d4d4d;" transform="translate(194.034019 477.400707)scale(0.088 -0.088)">
       <use xlink:href="#DejaVuSans-30"/>
       <use x="63.623047" xlink:href="#DejaVuSans-2e"/>
       <use x="95.410156" xlink:href="#DejaVuSans-32"/>
      </g>
     </g>
    </g>
    <g id="xtick_26">
     <g id="line2d_70">
      <path clip-path="url(#p97b5675405)" d="M 267.094819 465.764082 
L 267.094819 253.674082 
" style="fill:none;stroke:#ffffff;stroke-linecap:square;"/>
     </g>
     <g id="line2d_71">
      <path d="M 267.094819 465.764082 
" style="fill:none;stroke:#333333;stroke-linecap:square;stroke-width:1.5;"/>
      <g>
       <use style="fill:#333333;stroke:#000000;" x="267.094819" xlink:href="#m12f8bea009" y="465.764082"/>
      </g>
     </g>
     <g id="text_21">
      <!-- 0.3 -->
      <g style="fill:#4d4d4d;" transform="translate(260.097444 477.400707)scale(0.088 -0.088)">
       <use xlink:href="#DejaVuSans-30"/>
       <use x="63.623047" xlink:href="#DejaVuSans-2e"/>
       <use x="95.410156" xlink:href="#DejaVuSans-33"/>
      </g>
     </g>
    </g>
    <g id="xtick_27">
     <g id="line2d_72">
      <path clip-path="url(#p97b5675405)" d="M 333.158244 465.764082 
L 333.158244 253.674082 
" style="fill:none;stroke:#ffffff;stroke-linecap:square;"/>
     </g>
     <g id="line2d_73">
      <path d="M 333.158244 465.764082 
" style="fill:none;stroke:#333333;stroke-linecap:square;stroke-width:1.5;"/>
      <g>
       <use style="fill:#333333;stroke:#000000;" x="333.158244" xlink:href="#m12f8bea009" y="465.764082"/>
      </g>
     </g>
     <g id="text_22">
      <!-- 0.4 -->
      <g style="fill:#4d4d4d;" transform="translate(326.160869 477.400707)scale(0.088 -0.088)">
       <use xlink:href="#DejaVuSans-30"/>
       <use x="63.623047" xlink:href="#DejaVuSans-2e"/>
       <use x="95.410156" xlink:href="#DejaVuSans-34"/>
      </g>
     </g>
    </g>
    <g id="xtick_28">
     <g id="line2d_74">
      <path clip-path="url(#p97b5675405)" d="M 399.221668 465.764082 
L 399.221668 253.674082 
" style="fill:none;stroke:#ffffff;stroke-linecap:square;"/>
     </g>
     <g id="line2d_75">
      <path d="M 399.221668 465.764082 
" style="fill:none;stroke:#333333;stroke-linecap:square;stroke-width:1.5;"/>
      <g>
       <use style="fill:#333333;stroke:#000000;" x="399.221668" xlink:href="#m12f8bea009" y="465.764082"/>
      </g>
     </g>
     <g id="text_23">
      <!-- 0.5 -->
      <g style="fill:#4d4d4d;" transform="translate(392.224293 477.400707)scale(0.088 -0.088)">
       <use xlink:href="#DejaVuSans-30"/>
       <use x="63.623047" xlink:href="#DejaVuSans-2e"/>
       <use x="95.410156" xlink:href="#DejaVuSans-35"/>
      </g>
     </g>
    </g>
    <g id="xtick_29">
     <g id="line2d_76">
      <path clip-path="url(#p97b5675405)" d="M 101.936256 465.764082 
L 101.936256 253.674082 
" style="fill:none;stroke:#ffffff;stroke-linecap:square;stroke-width:0.5;"/>
     </g>
    </g>
    <g id="xtick_30">
     <g id="line2d_77">
      <path clip-path="url(#p97b5675405)" d="M 167.999681 465.764082 
L 167.999681 253.674082 
" style="fill:none;stroke:#ffffff;stroke-linecap:square;stroke-width:0.5;"/>
     </g>
    </g>
    <g id="xtick_31">
     <g id="line2d_78">
      <path clip-path="url(#p97b5675405)" d="M 234.063106 465.764082 
L 234.063106 253.674082 
" style="fill:none;stroke:#ffffff;stroke-linecap:square;stroke-width:0.5;"/>
     </g>
    </g>
    <g id="xtick_32">
     <g id="line2d_79">
      <path clip-path="url(#p97b5675405)" d="M 300.126531 465.764082 
L 300.126531 253.674082 
" style="fill:none;stroke:#ffffff;stroke-linecap:square;stroke-width:0.5;"/>
     </g>
    </g>
    <g id="xtick_33">
     <g id="line2d_80">
      <path clip-path="url(#p97b5675405)" d="M 366.189956 465.764082 
L 366.189956 253.674082 
" style="fill:none;stroke:#ffffff;stroke-linecap:square;stroke-width:0.5;"/>
     </g>
    </g>
   </g>
   <g id="matplotlib.axis_6">
    <g id="ytick_19">
     <g id="line2d_81">
      <path clip-path="url(#p97b5675405)" d="M 52.388688 440.73499 
L 415.737525 440.73499 
" style="fill:none;stroke:#ffffff;stroke-linecap:square;"/>
     </g>
     <g id="line2d_82">
      <path d="M 52.388688 440.73499 
" style="fill:none;stroke:#333333;stroke-linecap:square;stroke-width:1.5;"/>
      <g>
       <use style="fill:#333333;stroke:#000000;" x="52.388688" xlink:href="#m01badd31c2" y="440.73499"/>
      </g>
     </g>
     <g id="text_24">
      <!-- 0.8960 -->
      <g style="fill:#4d4d4d;" transform="translate(16.646938 443.16324)scale(0.088 -0.088)">
       <use xlink:href="#DejaVuSans-30"/>
       <use x="63.623047" xlink:href="#DejaVuSans-2e"/>
       <use x="95.410156" xlink:href="#DejaVuSans-38"/>
       <use x="159.033203" xlink:href="#DejaVuSans-39"/>
       <use x="222.65625" xlink:href="#DejaVuSans-36"/>
       <use x="286.279297" xlink:href="#DejaVuSans-30"/>
      </g>
     </g>
    </g>
    <g id="ytick_20">
     <g id="line2d_83">
      <path clip-path="url(#p97b5675405)" d="M 52.388688 380.89349 
L 415.737525 380.89349 
" style="fill:none;stroke:#ffffff;stroke-linecap:square;"/>
     </g>
     <g id="line2d_84">
      <path d="M 52.388688 380.89349 
" style="fill:none;stroke:#333333;stroke-linecap:square;stroke-width:1.5;"/>
      <g>
       <use style="fill:#333333;stroke:#000000;" x="52.388688" xlink:href="#m01badd31c2" y="380.89349"/>
      </g>
     </g>
     <g id="text_25">
      <!-- 0.8965 -->
      <g style="fill:#4d4d4d;" transform="translate(16.646938 383.32174)scale(0.088 -0.088)">
       <use xlink:href="#DejaVuSans-30"/>
       <use x="63.623047" xlink:href="#DejaVuSans-2e"/>
       <use x="95.410156" xlink:href="#DejaVuSans-38"/>
       <use x="159.033203" xlink:href="#DejaVuSans-39"/>
       <use x="222.65625" xlink:href="#DejaVuSans-36"/>
       <use x="286.279297" xlink:href="#DejaVuSans-35"/>
      </g>
     </g>
    </g>
    <g id="ytick_21">
     <g id="line2d_85">
      <path clip-path="url(#p97b5675405)" d="M 52.388688 321.05199 
L 415.737525 321.05199 
" style="fill:none;stroke:#ffffff;stroke-linecap:square;"/>
     </g>
     <g id="line2d_86">
      <path d="M 52.388688 321.05199 
" style="fill:none;stroke:#333333;stroke-linecap:square;stroke-width:1.5;"/>
      <g>
       <use style="fill:#333333;stroke:#000000;" x="52.388688" xlink:href="#m01badd31c2" y="321.05199"/>
      </g>
     </g>
     <g id="text_26">
      <!-- 0.8970 -->
      <g style="fill:#4d4d4d;" transform="translate(16.646938 323.48024)scale(0.088 -0.088)">
       <defs>
        <path d="M 525 4666 
L 3525 4666 
L 3525 4397 
L 1831 0 
L 1172 0 
L 2766 4134 
L 525 4134 
L 525 4666 
z
" id="DejaVuSans-37" transform="scale(0.015625)"/>
       </defs>
       <use xlink:href="#DejaVuSans-30"/>
       <use x="63.623047" xlink:href="#DejaVuSans-2e"/>
       <use x="95.410156" xlink:href="#DejaVuSans-38"/>
       <use x="159.033203" xlink:href="#DejaVuSans-39"/>
       <use x="222.65625" xlink:href="#DejaVuSans-37"/>
       <use x="286.279297" xlink:href="#DejaVuSans-30"/>
      </g>
     </g>
    </g>
    <g id="ytick_22">
     <g id="line2d_87">
      <path clip-path="url(#p97b5675405)" d="M 52.388688 261.210489 
L 415.737525 261.210489 
" style="fill:none;stroke:#ffffff;stroke-linecap:square;"/>
     </g>
     <g id="line2d_88">
      <path d="M 52.388688 261.210489 
" style="fill:none;stroke:#333333;stroke-linecap:square;stroke-width:1.5;"/>
      <g>
       <use style="fill:#333333;stroke:#000000;" x="52.388688" xlink:href="#m01badd31c2" y="261.210489"/>
      </g>
     </g>
     <g id="text_27">
      <!-- 0.8975 -->
      <g style="fill:#4d4d4d;" transform="translate(16.646938 263.638739)scale(0.088 -0.088)">
       <use xlink:href="#DejaVuSans-30"/>
       <use x="63.623047" xlink:href="#DejaVuSans-2e"/>
       <use x="95.410156" xlink:href="#DejaVuSans-38"/>
       <use x="159.033203" xlink:href="#DejaVuSans-39"/>
       <use x="222.65625" xlink:href="#DejaVuSans-37"/>
       <use x="286.279297" xlink:href="#DejaVuSans-35"/>
      </g>
     </g>
    </g>
    <g id="ytick_23">
     <g id="line2d_89">
      <path clip-path="url(#p97b5675405)" d="M 52.388688 410.81424 
L 415.737525 410.81424 
" style="fill:none;stroke:#ffffff;stroke-linecap:square;stroke-width:0.5;"/>
     </g>
    </g>
    <g id="ytick_24">
     <g id="line2d_90">
      <path clip-path="url(#p97b5675405)" d="M 52.388688 350.97274 
L 415.737525 350.97274 
" style="fill:none;stroke:#ffffff;stroke-linecap:square;stroke-width:0.5;"/>
     </g>
    </g>
    <g id="ytick_25">
     <g id="line2d_91">
      <path clip-path="url(#p97b5675405)" d="M 52.388688 291.13124 
L 415.737525 291.13124 
" style="fill:none;stroke:#ffffff;stroke-linecap:square;stroke-width:0.5;"/>
     </g>
    </g>
   </g>
   <g id="line2d_92">
    <path clip-path="url(#p97b5675405)" d="M 234.063106 371.31819 
L 399.221668 438.772673 
" style="fill:none;stroke:#db5f57;stroke-width:0.886227;"/>
   </g>
   <g id="line2d_93">
    <path clip-path="url(#p97b5675405)" d="M 234.063106 359.729356 
L 399.221668 456.123628 
" style="fill:none;stroke:#91db57;stroke-width:0.886227;"/>
   </g>
   <g id="line2d_94">
    <path clip-path="url(#p97b5675405)" d="M 234.063106 324.904656 
L 399.221668 373.289256 
" style="fill:none;stroke:#57d3db;stroke-width:0.886227;"/>
   </g>
   <g id="PathCollection_3">
    <path clip-path="url(#p97b5675405)" d="M 68.904544 265.086991 
C 69.374604 265.086991 69.825475 264.900234 70.157858 264.567851 
C 70.490241 264.235468 70.676998 263.784597 70.676998 263.314537 
C 70.676998 262.844477 70.490241 262.393606 70.157858 262.061223 
C 69.825475 261.72884 69.374604 261.542083 68.904544 261.542083 
C 68.434483 261.542083 67.983612 261.72884 67.65123 262.061223 
C 67.318847 262.393606 67.13209 262.844477 67.13209 263.314537 
C 67.13209 263.784597 67.318847 264.235468 67.65123 264.567851 
C 67.983612 264.900234 68.434483 265.086991 68.904544 265.086991 
z
" style="fill:#a157db;stroke:#a157db;stroke-width:0.886227;"/>
    <path clip-path="url(#p97b5675405)" d="M 234.063106 361.50181 
C 234.533166 361.50181 234.984037 361.315053 235.31642 360.98267 
C 235.648803 360.650287 235.83556 360.199416 235.83556 359.729356 
C 235.83556 359.259296 235.648803 358.808425 235.31642 358.476042 
C 234.984037 358.143659 234.533166 357.956902 234.063106 357.956902 
C 233.593046 357.956902 233.142175 358.143659 232.809792 358.476042 
C 232.477409 358.808425 232.290652 359.259296 232.290652 359.729356 
C 232.290652 360.199416 232.477409 360.650287 232.809792 360.98267 
C 233.142175 361.315053 233.593046 361.50181 234.063106 361.50181 
z
" style="fill:#91db57;stroke:#91db57;stroke-width:0.886227;"/>
    <path clip-path="url(#p97b5675405)" d="M 234.063106 373.090644 
C 234.533166 373.090644 234.984037 372.903887 235.31642 372.571504 
C 235.648803 372.239121 235.83556 371.78825 235.83556 371.31819 
C 235.83556 370.84813 235.648803 370.397259 235.31642 370.064876 
C 234.984037 369.732493 234.533166 369.545736 234.063106 369.545736 
C 233.593046 369.545736 233.142175 369.732493 232.809792 370.064876 
C 232.477409 370.397259 232.290652 370.84813 232.290652 371.31819 
C 232.290652 371.78825 232.477409 372.239121 232.809792 372.571504 
C 233.142175 372.903887 233.593046 373.090644 234.063106 373.090644 
z
" style="fill:#db5f57;stroke:#db5f57;stroke-width:0.886227;"/>
    <path clip-path="url(#p97b5675405)" d="M 234.063106 326.67711 
C 234.533166 326.67711 234.984037 326.490353 235.31642 326.15797 
C 235.648803 325.825587 235.83556 325.374716 235.83556 324.904656 
C 235.83556 324.434596 235.648803 323.983724 235.31642 323.651342 
C 234.984037 323.318959 234.533166 323.132202 234.063106 323.132202 
C 233.593046 323.132202 233.142175 323.318959 232.809792 323.651342 
C 232.477409 323.983724 232.290652 324.434596 232.290652 324.904656 
C 232.290652 325.374716 232.477409 325.825587 232.809792 326.15797 
C 233.142175 326.490353 233.593046 326.67711 234.063106 326.67711 
z
" style="fill:#57d3db;stroke:#57d3db;stroke-width:0.886227;"/>
    <path clip-path="url(#p97b5675405)" d="M 399.221668 457.896082 
C 399.691729 457.896082 400.1426 457.709325 400.474983 457.376942 
C 400.807365 457.044559 400.994122 456.593688 400.994122 456.123628 
C 400.994122 455.653568 400.807365 455.202696 400.474983 454.870314 
C 400.1426 454.537931 399.691729 454.351174 399.221668 454.351174 
C 398.751608 454.351174 398.300737 454.537931 397.968354 454.870314 
C 397.635972 455.202696 397.449215 455.653568 397.449215 456.123628 
C 397.449215 456.593688 397.635972 457.044559 397.968354 457.376942 
C 398.300737 457.709325 398.751608 457.896082 399.221668 457.896082 
z
" style="fill:#91db57;stroke:#91db57;stroke-width:0.886227;"/>
    <path clip-path="url(#p97b5675405)" d="M 399.221668 440.545127 
C 399.691729 440.545127 400.1426 440.35837 400.474983 440.025987 
C 400.807365 439.693604 400.994122 439.242733 400.994122 438.772673 
C 400.994122 438.302613 400.807365 437.851742 400.474983 437.519359 
C 400.1426 437.186976 399.691729 437.000219 399.221668 437.000219 
C 398.751608 437.000219 398.300737 437.186976 397.968354 437.519359 
C 397.635972 437.851742 397.449215 438.302613 397.449215 438.772673 
C 397.449215 439.242733 397.635972 439.693604 397.968354 440.025987 
C 398.300737 440.35837 398.751608 440.545127 399.221668 440.545127 
z
" style="fill:#db5f57;stroke:#db5f57;stroke-width:0.886227;"/>
    <path clip-path="url(#p97b5675405)" d="M 399.221668 375.06171 
C 399.691729 375.06171 400.1426 374.874953 400.474983 374.54257 
C 400.807365 374.210187 400.994122 373.759316 400.994122 373.289256 
C 400.994122 372.819196 400.807365 372.368325 400.474983 372.035942 
C 400.1426 371.703559 399.691729 371.516802 399.221668 371.516802 
C 398.751608 371.516802 398.300737 371.703559 397.968354 372.035942 
C 397.635972 372.368325 397.449215 372.819196 397.449215 373.289256 
C 397.449215 373.759316 397.635972 374.210187 397.968354 374.54257 
C 398.300737 374.874953 398.751608 375.06171 399.221668 375.06171 
z
" style="fill:#57d3db;stroke:#57d3db;stroke-width:0.886227;"/>
   </g>
   <g id="patch_12">
    <path d="M 52.388688 253.674082 
L 415.737525 253.674082 
L 415.737525 238.63 
L 52.388688 238.63 
z
" style="fill:#d9d9d9;"/>
   </g>
   <g id="text_28">
    <!-- F1 score: &lt;=50K -->
    <g style="fill:#1a1a1a;" transform="translate(196.774481 248.580291)scale(0.088 -0.088)">
     <defs>
      <path d="M 628 4666 
L 3309 4666 
L 3309 4134 
L 1259 4134 
L 1259 2759 
L 3109 2759 
L 3109 2228 
L 1259 2228 
L 1259 0 
L 628 0 
L 628 4666 
z
" id="DejaVuSans-46" transform="scale(0.015625)"/>
      <path d="M 1959 3097 
Q 1497 3097 1228 2736 
Q 959 2375 959 1747 
Q 959 1119 1226 758 
Q 1494 397 1959 397 
Q 2419 397 2687 759 
Q 2956 1122 2956 1747 
Q 2956 2369 2687 2733 
Q 2419 3097 1959 3097 
z
M 1959 3584 
Q 2709 3584 3137 3096 
Q 3566 2609 3566 1747 
Q 3566 888 3137 398 
Q 2709 -91 1959 -91 
Q 1206 -91 779 398 
Q 353 888 353 1747 
Q 353 2609 779 3096 
Q 1206 3584 1959 3584 
z
" id="DejaVuSans-6f" transform="scale(0.015625)"/>
      <path d="M 750 794 
L 1409 794 
L 1409 0 
L 750 0 
L 750 794 
z
M 750 3309 
L 1409 3309 
L 1409 2516 
L 750 2516 
L 750 3309 
z
" id="DejaVuSans-3a" transform="scale(0.015625)"/>
      <path d="M 4684 3150 
L 1459 2003 
L 4684 863 
L 4684 294 
L 678 1747 
L 678 2266 
L 4684 3719 
L 4684 3150 
z
" id="DejaVuSans-3c" transform="scale(0.015625)"/>
      <path d="M 678 2906 
L 4684 2906 
L 4684 2381 
L 678 2381 
L 678 2906 
z
M 678 1631 
L 4684 1631 
L 4684 1100 
L 678 1100 
L 678 1631 
z
" id="DejaVuSans-3d" transform="scale(0.015625)"/>
      <path d="M 628 4666 
L 1259 4666 
L 1259 2694 
L 3353 4666 
L 4166 4666 
L 1850 2491 
L 4331 0 
L 3500 0 
L 1259 2247 
L 1259 0 
L 628 0 
L 628 4666 
z
" id="DejaVuSans-4b" transform="scale(0.015625)"/>
     </defs>
     <use xlink:href="#DejaVuSans-46"/>
     <use x="57.519531" xlink:href="#DejaVuSans-31"/>
     <use x="121.142578" xlink:href="#DejaVuSans-20"/>
     <use x="152.929688" xlink:href="#DejaVuSans-73"/>
     <use x="205.029297" xlink:href="#DejaVuSans-63"/>
     <use x="260.009766" xlink:href="#DejaVuSans-6f"/>
     <use x="321.191406" xlink:href="#DejaVuSans-72"/>
     <use x="360.054688" xlink:href="#DejaVuSans-65"/>
     <use x="421.578125" xlink:href="#DejaVuSans-3a"/>
     <use x="455.269531" xlink:href="#DejaVuSans-20"/>
     <use x="487.056641" xlink:href="#DejaVuSans-3c"/>
     <use x="570.845703" xlink:href="#DejaVuSans-3d"/>
     <use x="654.634766" xlink:href="#DejaVuSans-35"/>
     <use x="718.257812" xlink:href="#DejaVuSans-30"/>
     <use x="781.880859" xlink:href="#DejaVuSans-4b"/>
    </g>
   </g>
  </g>
  <g id="axes_4">
   <g id="patch_13">
    <path d="M 470.23985 465.764082 
L 833.588688 465.764082 
L 833.588688 253.674082 
L 470.23985 253.674082 
z
" style="fill:#ebebeb;"/>
   </g>
   <g id="matplotlib.axis_7">
    <g id="xtick_34">
     <g id="line2d_95">
      <path clip-path="url(#pce88269e10)" d="M 486.755707 465.764082 
L 486.755707 253.674082 
" style="fill:none;stroke:#ffffff;stroke-linecap:square;"/>
     </g>
     <g id="line2d_96">
      <path d="M 486.755707 465.764082 
" style="fill:none;stroke:#333333;stroke-linecap:square;stroke-width:1.5;"/>
      <g>
       <use style="fill:#333333;stroke:#000000;" x="486.755707" xlink:href="#m12f8bea009" y="465.764082"/>
      </g>
     </g>
     <g id="text_29">
      <!-- 0 -->
      <g style="fill:#4d4d4d;" transform="translate(483.956207 477.400707)scale(0.088 -0.088)">
       <use xlink:href="#DejaVuSans-30"/>
      </g>
     </g>
    </g>
    <g id="xtick_35">
     <g id="line2d_97">
      <path clip-path="url(#pce88269e10)" d="M 552.819131 465.764082 
L 552.819131 253.674082 
" style="fill:none;stroke:#ffffff;stroke-linecap:square;"/>
     </g>
     <g id="line2d_98">
      <path d="M 552.819131 465.764082 
" style="fill:none;stroke:#333333;stroke-linecap:square;stroke-width:1.5;"/>
      <g>
       <use style="fill:#333333;stroke:#000000;" x="552.819131" xlink:href="#m12f8bea009" y="465.764082"/>
      </g>
     </g>
     <g id="text_30">
      <!-- 0.1 -->
      <g style="fill:#4d4d4d;" transform="translate(545.821756 477.400707)scale(0.088 -0.088)">
       <use xlink:href="#DejaVuSans-30"/>
       <use x="63.623047" xlink:href="#DejaVuSans-2e"/>
       <use x="95.410156" xlink:href="#DejaVuSans-31"/>
      </g>
     </g>
    </g>
    <g id="xtick_36">
     <g id="line2d_99">
      <path clip-path="url(#pce88269e10)" d="M 618.882556 465.764082 
L 618.882556 253.674082 
" style="fill:none;stroke:#ffffff;stroke-linecap:square;"/>
     </g>
     <g id="line2d_100">
      <path d="M 618.882556 465.764082 
" style="fill:none;stroke:#333333;stroke-linecap:square;stroke-width:1.5;"/>
      <g>
       <use style="fill:#333333;stroke:#000000;" x="618.882556" xlink:href="#m12f8bea009" y="465.764082"/>
      </g>
     </g>
     <g id="text_31">
      <!-- 0.2 -->
      <g style="fill:#4d4d4d;" transform="translate(611.885181 477.400707)scale(0.088 -0.088)">
       <use xlink:href="#DejaVuSans-30"/>
       <use x="63.623047" xlink:href="#DejaVuSans-2e"/>
       <use x="95.410156" xlink:href="#DejaVuSans-32"/>
      </g>
     </g>
    </g>
    <g id="xtick_37">
     <g id="line2d_101">
      <path clip-path="url(#pce88269e10)" d="M 684.945981 465.764082 
L 684.945981 253.674082 
" style="fill:none;stroke:#ffffff;stroke-linecap:square;"/>
     </g>
     <g id="line2d_102">
      <path d="M 684.945981 465.764082 
" style="fill:none;stroke:#333333;stroke-linecap:square;stroke-width:1.5;"/>
      <g>
       <use style="fill:#333333;stroke:#000000;" x="684.945981" xlink:href="#m12f8bea009" y="465.764082"/>
      </g>
     </g>
     <g id="text_32">
      <!-- 0.3 -->
      <g style="fill:#4d4d4d;" transform="translate(677.948606 477.400707)scale(0.088 -0.088)">
       <use xlink:href="#DejaVuSans-30"/>
       <use x="63.623047" xlink:href="#DejaVuSans-2e"/>
       <use x="95.410156" xlink:href="#DejaVuSans-33"/>
      </g>
     </g>
    </g>
    <g id="xtick_38">
     <g id="line2d_103">
      <path clip-path="url(#pce88269e10)" d="M 751.009406 465.764082 
L 751.009406 253.674082 
" style="fill:none;stroke:#ffffff;stroke-linecap:square;"/>
     </g>
     <g id="line2d_104">
      <path d="M 751.009406 465.764082 
" style="fill:none;stroke:#333333;stroke-linecap:square;stroke-width:1.5;"/>
      <g>
       <use style="fill:#333333;stroke:#000000;" x="751.009406" xlink:href="#m12f8bea009" y="465.764082"/>
      </g>
     </g>
     <g id="text_33">
      <!-- 0.4 -->
      <g style="fill:#4d4d4d;" transform="translate(744.012031 477.400707)scale(0.088 -0.088)">
       <use xlink:href="#DejaVuSans-30"/>
       <use x="63.623047" xlink:href="#DejaVuSans-2e"/>
       <use x="95.410156" xlink:href="#DejaVuSans-34"/>
      </g>
     </g>
    </g>
    <g id="xtick_39">
     <g id="line2d_105">
      <path clip-path="url(#pce88269e10)" d="M 817.072831 465.764082 
L 817.072831 253.674082 
" style="fill:none;stroke:#ffffff;stroke-linecap:square;"/>
     </g>
     <g id="line2d_106">
      <path d="M 817.072831 465.764082 
" style="fill:none;stroke:#333333;stroke-linecap:square;stroke-width:1.5;"/>
      <g>
       <use style="fill:#333333;stroke:#000000;" x="817.072831" xlink:href="#m12f8bea009" y="465.764082"/>
      </g>
     </g>
     <g id="text_34">
      <!-- 0.5 -->
      <g style="fill:#4d4d4d;" transform="translate(810.075456 477.400707)scale(0.088 -0.088)">
       <use xlink:href="#DejaVuSans-30"/>
       <use x="63.623047" xlink:href="#DejaVuSans-2e"/>
       <use x="95.410156" xlink:href="#DejaVuSans-35"/>
      </g>
     </g>
    </g>
    <g id="xtick_40">
     <g id="line2d_107">
      <path clip-path="url(#pce88269e10)" d="M 519.787419 465.764082 
L 519.787419 253.674082 
" style="fill:none;stroke:#ffffff;stroke-linecap:square;stroke-width:0.5;"/>
     </g>
    </g>
    <g id="xtick_41">
     <g id="line2d_108">
      <path clip-path="url(#pce88269e10)" d="M 585.850844 465.764082 
L 585.850844 253.674082 
" style="fill:none;stroke:#ffffff;stroke-linecap:square;stroke-width:0.5;"/>
     </g>
    </g>
    <g id="xtick_42">
     <g id="line2d_109">
      <path clip-path="url(#pce88269e10)" d="M 651.914269 465.764082 
L 651.914269 253.674082 
" style="fill:none;stroke:#ffffff;stroke-linecap:square;stroke-width:0.5;"/>
     </g>
    </g>
    <g id="xtick_43">
     <g id="line2d_110">
      <path clip-path="url(#pce88269e10)" d="M 717.977694 465.764082 
L 717.977694 253.674082 
" style="fill:none;stroke:#ffffff;stroke-linecap:square;stroke-width:0.5;"/>
     </g>
    </g>
    <g id="xtick_44">
     <g id="line2d_111">
      <path clip-path="url(#pce88269e10)" d="M 784.041119 465.764082 
L 784.041119 253.674082 
" style="fill:none;stroke:#ffffff;stroke-linecap:square;stroke-width:0.5;"/>
     </g>
    </g>
    <g id="text_35">
     <!-- Rate -->
     <g transform="translate(417.779938 491.989114)scale(0.11 -0.11)">
      <defs>
       <path d="M 2841 2188 
Q 3044 2119 3236 1894 
Q 3428 1669 3622 1275 
L 4263 0 
L 3584 0 
L 2988 1197 
Q 2756 1666 2539 1819 
Q 2322 1972 1947 1972 
L 1259 1972 
L 1259 0 
L 628 0 
L 628 4666 
L 2053 4666 
Q 2853 4666 3247 4331 
Q 3641 3997 3641 3322 
Q 3641 2881 3436 2590 
Q 3231 2300 2841 2188 
z
M 1259 4147 
L 1259 2491 
L 2053 2491 
Q 2509 2491 2742 2702 
Q 2975 2913 2975 3322 
Q 2975 3731 2742 3939 
Q 2509 4147 2053 4147 
L 1259 4147 
z
" id="DejaVuSans-52" transform="scale(0.015625)"/>
       <path d="M 1172 4494 
L 1172 3500 
L 2356 3500 
L 2356 3053 
L 1172 3053 
L 1172 1153 
Q 1172 725 1289 603 
Q 1406 481 1766 481 
L 2356 481 
L 2356 0 
L 1766 0 
Q 1100 0 847 248 
Q 594 497 594 1153 
L 594 3053 
L 172 3053 
L 172 3500 
L 594 3500 
L 594 4494 
L 1172 4494 
z
" id="DejaVuSans-74" transform="scale(0.015625)"/>
      </defs>
      <use xlink:href="#DejaVuSans-52"/>
      <use x="67.232422" xlink:href="#DejaVuSans-61"/>
      <use x="128.511719" xlink:href="#DejaVuSans-74"/>
      <use x="167.720703" xlink:href="#DejaVuSans-65"/>
     </g>
    </g>
   </g>
   <g id="matplotlib.axis_8">
    <g id="ytick_26">
     <g id="line2d_112">
      <path clip-path="url(#pce88269e10)" d="M 470.23985 404.030727 
L 833.588688 404.030727 
" style="fill:none;stroke:#ffffff;stroke-linecap:square;"/>
     </g>
     <g id="line2d_113">
      <path d="M 470.23985 404.030727 
" style="fill:none;stroke:#333333;stroke-linecap:square;stroke-width:1.5;"/>
      <g>
       <use style="fill:#333333;stroke:#000000;" x="470.23985" xlink:href="#m01badd31c2" y="404.030727"/>
      </g>
     </g>
     <g id="text_36">
      <!-- 0.650 -->
      <g style="fill:#4d4d4d;" transform="translate(440.0971 406.458977)scale(0.088 -0.088)">
       <use xlink:href="#DejaVuSans-30"/>
       <use x="63.623047" xlink:href="#DejaVuSans-2e"/>
       <use x="95.410156" xlink:href="#DejaVuSans-36"/>
       <use x="159.033203" xlink:href="#DejaVuSans-35"/>
       <use x="222.65625" xlink:href="#DejaVuSans-30"/>
      </g>
     </g>
    </g>
    <g id="ytick_27">
     <g id="line2d_114">
      <path clip-path="url(#pce88269e10)" d="M 470.23985 323.885102 
L 833.588688 323.885102 
" style="fill:none;stroke:#ffffff;stroke-linecap:square;"/>
     </g>
     <g id="line2d_115">
      <path d="M 470.23985 323.885102 
" style="fill:none;stroke:#333333;stroke-linecap:square;stroke-width:1.5;"/>
      <g>
       <use style="fill:#333333;stroke:#000000;" x="470.23985" xlink:href="#m01badd31c2" y="323.885102"/>
      </g>
     </g>
     <g id="text_37">
      <!-- 0.655 -->
      <g style="fill:#4d4d4d;" transform="translate(440.0971 326.313352)scale(0.088 -0.088)">
       <use xlink:href="#DejaVuSans-30"/>
       <use x="63.623047" xlink:href="#DejaVuSans-2e"/>
       <use x="95.410156" xlink:href="#DejaVuSans-36"/>
       <use x="159.033203" xlink:href="#DejaVuSans-35"/>
       <use x="222.65625" xlink:href="#DejaVuSans-35"/>
      </g>
     </g>
    </g>
    <g id="ytick_28">
     <g id="line2d_116">
      <path clip-path="url(#pce88269e10)" d="M 470.23985 444.10354 
L 833.588688 444.10354 
" style="fill:none;stroke:#ffffff;stroke-linecap:square;stroke-width:0.5;"/>
     </g>
    </g>
    <g id="ytick_29">
     <g id="line2d_117">
      <path clip-path="url(#pce88269e10)" d="M 470.23985 363.957914 
L 833.588688 363.957914 
" style="fill:none;stroke:#ffffff;stroke-linecap:square;stroke-width:0.5;"/>
     </g>
    </g>
    <g id="ytick_30">
     <g id="line2d_118">
      <path clip-path="url(#pce88269e10)" d="M 470.23985 283.812289 
L 833.588688 283.812289 
" style="fill:none;stroke:#ffffff;stroke-linecap:square;stroke-width:0.5;"/>
     </g>
    </g>
   </g>
   <g id="line2d_119">
    <path clip-path="url(#pce88269e10)" d="M 651.914269 331.243964 
L 817.072831 456.123628 
" style="fill:none;stroke:#db5f57;stroke-width:0.886227;"/>
   </g>
   <g id="line2d_120">
    <path clip-path="url(#pce88269e10)" d="M 651.914269 307.266801 
L 817.072831 385.135143 
" style="fill:none;stroke:#91db57;stroke-width:0.886227;"/>
   </g>
   <g id="line2d_121">
    <path clip-path="url(#pce88269e10)" d="M 651.914269 290.258736 
L 817.072831 348.246552 
" style="fill:none;stroke:#57d3db;stroke-width:0.886227;"/>
   </g>
   <g id="PathCollection_4">
    <path clip-path="url(#pce88269e10)" d="M 486.755707 265.086991 
C 487.225767 265.086991 487.676638 264.900234 488.009021 264.567851 
C 488.341403 264.235468 488.52816 263.784597 488.52816 263.314537 
C 488.52816 262.844477 488.341403 262.393606 488.009021 262.061223 
C 487.676638 261.72884 487.225767 261.542083 486.755707 261.542083 
C 486.285646 261.542083 485.834775 261.72884 485.502392 262.061223 
C 485.17001 262.393606 484.983253 262.844477 484.983253 263.314537 
C 484.983253 263.784597 485.17001 264.235468 485.502392 264.567851 
C 485.834775 264.900234 486.285646 265.086991 486.755707 265.086991 
z
" style="fill:#a157db;stroke:#a157db;stroke-width:0.886227;"/>
    <path clip-path="url(#pce88269e10)" d="M 651.914269 309.039255 
C 652.384329 309.039255 652.8352 308.852498 653.167583 308.520115 
C 653.499966 308.187732 653.686723 307.736861 653.686723 307.266801 
C 653.686723 306.796741 653.499966 306.34587 653.167583 306.013487 
C 652.8352 305.681104 652.384329 305.494347 651.914269 305.494347 
C 651.444209 305.494347 650.993338 305.681104 650.660955 306.013487 
C 650.328572 306.34587 650.141815 306.796741 650.141815 307.266801 
C 650.141815 307.736861 650.328572 308.187732 650.660955 308.520115 
C 650.993338 308.852498 651.444209 309.039255 651.914269 309.039255 
z
" style="fill:#91db57;stroke:#91db57;stroke-width:0.886227;"/>
    <path clip-path="url(#pce88269e10)" d="M 651.914269 333.016418 
C 652.384329 333.016418 652.8352 332.829661 653.167583 332.497278 
C 653.499966 332.164895 653.686723 331.714024 653.686723 331.243964 
C 653.686723 330.773904 653.499966 330.323033 653.167583 329.99065 
C 652.8352 329.658267 652.384329 329.47151 651.914269 329.47151 
C 651.444209 329.47151 650.993338 329.658267 650.660955 329.99065 
C 650.328572 330.323033 650.141815 330.773904 650.141815 331.243964 
C 650.141815 331.714024 650.328572 332.164895 650.660955 332.497278 
C 650.993338 332.829661 651.444209 333.016418 651.914269 333.016418 
z
" style="fill:#db5f57;stroke:#db5f57;stroke-width:0.886227;"/>
    <path clip-path="url(#pce88269e10)" d="M 651.914269 292.03119 
C 652.384329 292.03119 652.8352 291.844433 653.167583 291.512051 
C 653.499966 291.179668 653.686723 290.728797 653.686723 290.258736 
C 653.686723 289.788676 653.499966 289.337805 653.167583 289.005422 
C 652.8352 288.673039 652.384329 288.486283 651.914269 288.486283 
C 651.444209 288.486283 650.993338 288.673039 650.660955 289.005422 
C 650.328572 289.337805 650.141815 289.788676 650.141815 290.258736 
C 650.141815 290.728797 650.328572 291.179668 650.660955 291.512051 
C 650.993338 291.844433 651.444209 292.03119 651.914269 292.03119 
z
" style="fill:#57d3db;stroke:#57d3db;stroke-width:0.886227;"/>
    <path clip-path="url(#pce88269e10)" d="M 817.072831 386.907596 
C 817.542892 386.907596 817.993763 386.72084 818.326145 386.388457 
C 818.658528 386.056074 818.845285 385.605203 818.845285 385.135143 
C 818.845285 384.665082 818.658528 384.214211 818.326145 383.881828 
C 817.993763 383.549446 817.542892 383.362689 817.072831 383.362689 
C 816.602771 383.362689 816.1519 383.549446 815.819517 383.881828 
C 815.487134 384.214211 815.300377 384.665082 815.300377 385.135143 
C 815.300377 385.605203 815.487134 386.056074 815.819517 386.388457 
C 816.1519 386.72084 816.602771 386.907596 817.072831 386.907596 
z
" style="fill:#91db57;stroke:#91db57;stroke-width:0.886227;"/>
    <path clip-path="url(#pce88269e10)" d="M 817.072831 457.896082 
C 817.542892 457.896082 817.993763 457.709325 818.326145 457.376942 
C 818.658528 457.044559 818.845285 456.593688 818.845285 456.123628 
C 818.845285 455.653568 818.658528 455.202696 818.326145 454.870314 
C 817.993763 454.537931 817.542892 454.351174 817.072831 454.351174 
C 816.602771 454.351174 816.1519 454.537931 815.819517 454.870314 
C 815.487134 455.202696 815.300377 455.653568 815.300377 456.123628 
C 815.300377 456.593688 815.487134 457.044559 815.819517 457.376942 
C 816.1519 457.709325 816.602771 457.896082 817.072831 457.896082 
z
" style="fill:#db5f57;stroke:#db5f57;stroke-width:0.886227;"/>
    <path clip-path="url(#pce88269e10)" d="M 817.072831 350.019006 
C 817.542892 350.019006 817.993763 349.832249 818.326145 349.499866 
C 818.658528 349.167483 818.845285 348.716612 818.845285 348.246552 
C 818.845285 347.776492 818.658528 347.325621 818.326145 346.993238 
C 817.993763 346.660855 817.542892 346.474098 817.072831 346.474098 
C 816.602771 346.474098 816.1519 346.660855 815.819517 346.993238 
C 815.487134 347.325621 815.300377 347.776492 815.300377 348.246552 
C 815.300377 348.716612 815.487134 349.167483 815.819517 349.499866 
C 816.1519 349.832249 816.602771 350.019006 817.072831 350.019006 
z
" style="fill:#57d3db;stroke:#57d3db;stroke-width:0.886227;"/>
   </g>
   <g id="patch_14">
    <path d="M 470.23985 253.674082 
L 833.588688 253.674082 
L 833.588688 238.63 
L 470.23985 238.63 
z
" style="fill:#d9d9d9;"/>
   </g>
   <g id="text_38">
    <!-- F1 score: &gt;50K -->
    <g style="fill:#1a1a1a;" transform="translate(618.312706 248.580291)scale(0.088 -0.088)">
     <defs>
      <path d="M 678 3150 
L 678 3719 
L 4684 2266 
L 4684 1747 
L 678 294 
L 678 863 
L 3897 2003 
L 678 3150 
z
" id="DejaVuSans-3e" transform="scale(0.015625)"/>
     </defs>
     <use xlink:href="#DejaVuSans-46"/>
     <use x="57.519531" xlink:href="#DejaVuSans-31"/>
     <use x="121.142578" xlink:href="#DejaVuSans-20"/>
     <use x="152.929688" xlink:href="#DejaVuSans-73"/>
     <use x="205.029297" xlink:href="#DejaVuSans-63"/>
     <use x="260.009766" xlink:href="#DejaVuSans-6f"/>
     <use x="321.191406" xlink:href="#DejaVuSans-72"/>
     <use x="360.054688" xlink:href="#DejaVuSans-65"/>
     <use x="421.578125" xlink:href="#DejaVuSans-3a"/>
     <use x="455.269531" xlink:href="#DejaVuSans-20"/>
     <use x="487.056641" xlink:href="#DejaVuSans-3e"/>
     <use x="570.845703" xlink:href="#DejaVuSans-35"/>
     <use x="634.46875" xlink:href="#DejaVuSans-30"/>
     <use x="698.091797" xlink:href="#DejaVuSans-4b"/>
    </g>
   </g>
  </g>
 </g>
 <defs>
  <clipPath id="pd4bf1076e0">
   <rect height="212.09" width="363.348837" x="52.388688" y="22.244082"/>
  </clipPath>
  <clipPath id="p6ea9d6de0b">
   <path d="M 852.988688 229.807051 
L 852.988688 213.967051 
L 868.828688 213.967051 
L 868.828688 229.807051 
"/>
  </clipPath>
  <clipPath id="p316c5d711b">
   <path d="M 852.988688 247.647051 
L 852.988688 231.807051 
L 868.828688 231.807051 
L 868.828688 247.647051 
"/>
  </clipPath>
  <clipPath id="p988ab46977">
   <path d="M 852.988688 265.487051 
L 852.988688 249.647051 
L 868.828688 249.647051 
L 868.828688 265.487051 
"/>
  </clipPath>
  <clipPath id="p58013f56e6">
   <path d="M 852.988688 283.327051 
L 852.988688 267.487051 
L 868.828688 267.487051 
L 868.828688 283.327051 
"/>
  </clipPath>
  <clipPath id="p3ca3b3f1ac">
   <rect height="212.09" width="363.348837" x="470.23985" y="22.244082"/>
  </clipPath>
  <clipPath id="p97b5675405">
   <rect height="212.09" width="363.348837" x="52.388688" y="253.674082"/>
  </clipPath>
  <clipPath id="pce88269e10">
   <rect height="212.09" width="363.348837" x="470.23985" y="253.674082"/>
  </clipPath>
 </defs>
</svg>
