<?xml version="1.0" encoding="utf-8" standalone="no"?>
<!DOCTYPE svg PUBLIC "-//W3C//DTD SVG 1.1//EN"
  "http://www.w3.org/Graphics/SVG/1.1/DTD/svg11.dtd">
<svg height="501.47677pt" version="1.1" viewBox="0 0 920.485937 501.47677" width="920.485937pt" xmlns="http://www.w3.org/2000/svg" xmlns:xlink="http://www.w3.org/1999/xlink">
 <metadata>
  <rdf:RDF xmlns:cc="http://creativecommons.org/ns#" xmlns:dc="http://purl.org/dc/elements/1.1/" xmlns:rdf="http://www.w3.org/1999/02/22-rdf-syntax-ns#">
   <cc:Work>
    <dc:type rdf:resource="http://purl.org/dc/dcmitype/StillImage"/>
    <dc:date>2022-06-13T12:33:02.045336</dc:date>
    <dc:format>image/svg+xml</dc:format>
    <dc:creator>
     <cc:Agent>
      <dc:title>Matplotlib v3.4.3, https://matplotlib.org/</dc:title>
     </cc:Agent>
    </dc:creator>
   </cc:Work>
  </rdf:RDF>
 </metadata>
 <defs>
  <style type="text/css">*{stroke-linecap:butt;stroke-linejoin:round;}</style>
 </defs>
 <g id="figure_1">
  <g id="patch_1">
   <path d="M 0 501.47677 
L 920.485937 501.47677 
L 920.485937 0 
L 0 0 
z
" style="fill:#ffffff;stroke:#ffffff;stroke-linejoin:miter;"/>
  </g>
  <g id="axes_1">
   <g id="patch_2">
    <path d="M 57.987688 234.334082 
L 421.336525 234.334082 
L 421.336525 22.244082 
L 57.987688 22.244082 
z
" style="fill:#ebebeb;"/>
   </g>
   <g id="matplotlib.axis_1">
    <g id="xtick_1">
     <g id="line2d_1">
      <path clip-path="url(#p0de515c127)" d="M 74.503544 234.334082 
L 74.503544 22.244082 
" style="fill:none;stroke:#ffffff;"/>
     </g>
    </g>
    <g id="xtick_2">
     <g id="line2d_2">
      <path clip-path="url(#p0de515c127)" d="M 140.566969 234.334082 
L 140.566969 22.244082 
" style="fill:none;stroke:#ffffff;"/>
     </g>
    </g>
    <g id="xtick_3">
     <g id="line2d_3">
      <path clip-path="url(#p0de515c127)" d="M 206.630394 234.334082 
L 206.630394 22.244082 
" style="fill:none;stroke:#ffffff;"/>
     </g>
    </g>
    <g id="xtick_4">
     <g id="line2d_4">
      <path clip-path="url(#p0de515c127)" d="M 272.693819 234.334082 
L 272.693819 22.244082 
" style="fill:none;stroke:#ffffff;"/>
     </g>
    </g>
    <g id="xtick_5">
     <g id="line2d_5">
      <path clip-path="url(#p0de515c127)" d="M 338.757244 234.334082 
L 338.757244 22.244082 
" style="fill:none;stroke:#ffffff;"/>
     </g>
    </g>
    <g id="xtick_6">
     <g id="line2d_6">
      <path clip-path="url(#p0de515c127)" d="M 404.820668 234.334082 
L 404.820668 22.244082 
" style="fill:none;stroke:#ffffff;"/>
     </g>
    </g>
    <g id="xtick_7">
     <g id="line2d_7">
      <path clip-path="url(#p0de515c127)" d="M 107.535256 234.334082 
L 107.535256 22.244082 
" style="fill:none;stroke:#ffffff;stroke-width:0.5;"/>
     </g>
    </g>
    <g id="xtick_8">
     <g id="line2d_8">
      <path clip-path="url(#p0de515c127)" d="M 173.598681 234.334082 
L 173.598681 22.244082 
" style="fill:none;stroke:#ffffff;stroke-width:0.5;"/>
     </g>
    </g>
    <g id="xtick_9">
     <g id="line2d_9">
      <path clip-path="url(#p0de515c127)" d="M 239.662106 234.334082 
L 239.662106 22.244082 
" style="fill:none;stroke:#ffffff;stroke-width:0.5;"/>
     </g>
    </g>
    <g id="xtick_10">
     <g id="line2d_10">
      <path clip-path="url(#p0de515c127)" d="M 305.725531 234.334082 
L 305.725531 22.244082 
" style="fill:none;stroke:#ffffff;stroke-width:0.5;"/>
     </g>
    </g>
    <g id="xtick_11">
     <g id="line2d_11">
      <path clip-path="url(#p0de515c127)" d="M 371.788956 234.334082 
L 371.788956 22.244082 
" style="fill:none;stroke:#ffffff;stroke-width:0.5;"/>
     </g>
    </g>
   </g>
   <g id="matplotlib.axis_2">
    <g id="ytick_1">
     <g id="line2d_12">
      <path clip-path="url(#p0de515c127)" d="M 57.987688 228.515983 
L 421.336525 228.515983 
" style="fill:none;stroke:#ffffff;"/>
     </g>
     <g id="line2d_13">
      <path d="M 57.987688 228.515983 
" style="fill:none;stroke:#333333;stroke-width:1.5;"/>
      <defs>
       <path d="M 0 0 
L -2.75 0 
" id="mf0763c3d23" style="stroke:#000000;"/>
      </defs>
      <g>
       <use style="fill:#333333;stroke:#000000;" x="57.987688" xlink:href="#mf0763c3d23" y="228.515983"/>
      </g>
     </g>
     <g id="text_1">
      <!-- 0.8408 -->
      <g style="fill:#4d4d4d;" transform="translate(22.245938 230.944233)scale(0.088 -0.088)">
       <defs>
        <path d="M 2034 4250 
Q 1547 4250 1301 3770 
Q 1056 3291 1056 2328 
Q 1056 1369 1301 889 
Q 1547 409 2034 409 
Q 2525 409 2770 889 
Q 3016 1369 3016 2328 
Q 3016 3291 2770 3770 
Q 2525 4250 2034 4250 
z
M 2034 4750 
Q 2819 4750 3233 4129 
Q 3647 3509 3647 2328 
Q 3647 1150 3233 529 
Q 2819 -91 2034 -91 
Q 1250 -91 836 529 
Q 422 1150 422 2328 
Q 422 3509 836 4129 
Q 1250 4750 2034 4750 
z
" id="DejaVuSans-30" transform="scale(0.015625)"/>
        <path d="M 684 794 
L 1344 794 
L 1344 0 
L 684 0 
L 684 794 
z
" id="DejaVuSans-2e" transform="scale(0.015625)"/>
        <path d="M 2034 2216 
Q 1584 2216 1326 1975 
Q 1069 1734 1069 1313 
Q 1069 891 1326 650 
Q 1584 409 2034 409 
Q 2484 409 2743 651 
Q 3003 894 3003 1313 
Q 3003 1734 2745 1975 
Q 2488 2216 2034 2216 
z
M 1403 2484 
Q 997 2584 770 2862 
Q 544 3141 544 3541 
Q 544 4100 942 4425 
Q 1341 4750 2034 4750 
Q 2731 4750 3128 4425 
Q 3525 4100 3525 3541 
Q 3525 3141 3298 2862 
Q 3072 2584 2669 2484 
Q 3125 2378 3379 2068 
Q 3634 1759 3634 1313 
Q 3634 634 3220 271 
Q 2806 -91 2034 -91 
Q 1263 -91 848 271 
Q 434 634 434 1313 
Q 434 1759 690 2068 
Q 947 2378 1403 2484 
z
M 1172 3481 
Q 1172 3119 1398 2916 
Q 1625 2713 2034 2713 
Q 2441 2713 2670 2916 
Q 2900 3119 2900 3481 
Q 2900 3844 2670 4047 
Q 2441 4250 2034 4250 
Q 1625 4250 1398 4047 
Q 1172 3844 1172 3481 
z
" id="DejaVuSans-38" transform="scale(0.015625)"/>
        <path d="M 2419 4116 
L 825 1625 
L 2419 1625 
L 2419 4116 
z
M 2253 4666 
L 3047 4666 
L 3047 1625 
L 3713 1625 
L 3713 1100 
L 3047 1100 
L 3047 0 
L 2419 0 
L 2419 1100 
L 313 1100 
L 313 1709 
L 2253 4666 
z
" id="DejaVuSans-34" transform="scale(0.015625)"/>
       </defs>
       <use xlink:href="#DejaVuSans-30"/>
       <use x="63.623047" xlink:href="#DejaVuSans-2e"/>
       <use x="95.410156" xlink:href="#DejaVuSans-38"/>
       <use x="159.033203" xlink:href="#DejaVuSans-34"/>
       <use x="222.65625" xlink:href="#DejaVuSans-30"/>
       <use x="286.279297" xlink:href="#DejaVuSans-38"/>
      </g>
     </g>
    </g>
    <g id="ytick_2">
     <g id="line2d_14">
      <path clip-path="url(#p0de515c127)" d="M 57.987688 177.573792 
L 421.336525 177.573792 
" style="fill:none;stroke:#ffffff;"/>
     </g>
     <g id="line2d_15">
      <path d="M 57.987688 177.573792 
" style="fill:none;stroke:#333333;stroke-width:1.5;"/>
      <g>
       <use style="fill:#333333;stroke:#000000;" x="57.987688" xlink:href="#mf0763c3d23" y="177.573792"/>
      </g>
     </g>
     <g id="text_2">
      <!-- 0.8412 -->
      <g style="fill:#4d4d4d;" transform="translate(22.245938 180.002042)scale(0.088 -0.088)">
       <defs>
        <path d="M 794 531 
L 1825 531 
L 1825 4091 
L 703 3866 
L 703 4441 
L 1819 4666 
L 2450 4666 
L 2450 531 
L 3481 531 
L 3481 0 
L 794 0 
L 794 531 
z
" id="DejaVuSans-31" transform="scale(0.015625)"/>
        <path d="M 1228 531 
L 3431 531 
L 3431 0 
L 469 0 
L 469 531 
Q 828 903 1448 1529 
Q 2069 2156 2228 2338 
Q 2531 2678 2651 2914 
Q 2772 3150 2772 3378 
Q 2772 3750 2511 3984 
Q 2250 4219 1831 4219 
Q 1534 4219 1204 4116 
Q 875 4013 500 3803 
L 500 4441 
Q 881 4594 1212 4672 
Q 1544 4750 1819 4750 
Q 2544 4750 2975 4387 
Q 3406 4025 3406 3419 
Q 3406 3131 3298 2873 
Q 3191 2616 2906 2266 
Q 2828 2175 2409 1742 
Q 1991 1309 1228 531 
z
" id="DejaVuSans-32" transform="scale(0.015625)"/>
       </defs>
       <use xlink:href="#DejaVuSans-30"/>
       <use x="63.623047" xlink:href="#DejaVuSans-2e"/>
       <use x="95.410156" xlink:href="#DejaVuSans-38"/>
       <use x="159.033203" xlink:href="#DejaVuSans-34"/>
       <use x="222.65625" xlink:href="#DejaVuSans-31"/>
       <use x="286.279297" xlink:href="#DejaVuSans-32"/>
      </g>
     </g>
    </g>
    <g id="ytick_3">
     <g id="line2d_16">
      <path clip-path="url(#p0de515c127)" d="M 57.987688 126.631601 
L 421.336525 126.631601 
" style="fill:none;stroke:#ffffff;"/>
     </g>
     <g id="line2d_17">
      <path d="M 57.987688 126.631601 
" style="fill:none;stroke:#333333;stroke-width:1.5;"/>
      <g>
       <use style="fill:#333333;stroke:#000000;" x="57.987688" xlink:href="#mf0763c3d23" y="126.631601"/>
      </g>
     </g>
     <g id="text_3">
      <!-- 0.8416 -->
      <g style="fill:#4d4d4d;" transform="translate(22.245938 129.059851)scale(0.088 -0.088)">
       <defs>
        <path d="M 2113 2584 
Q 1688 2584 1439 2293 
Q 1191 2003 1191 1497 
Q 1191 994 1439 701 
Q 1688 409 2113 409 
Q 2538 409 2786 701 
Q 3034 994 3034 1497 
Q 3034 2003 2786 2293 
Q 2538 2584 2113 2584 
z
M 3366 4563 
L 3366 3988 
Q 3128 4100 2886 4159 
Q 2644 4219 2406 4219 
Q 1781 4219 1451 3797 
Q 1122 3375 1075 2522 
Q 1259 2794 1537 2939 
Q 1816 3084 2150 3084 
Q 2853 3084 3261 2657 
Q 3669 2231 3669 1497 
Q 3669 778 3244 343 
Q 2819 -91 2113 -91 
Q 1303 -91 875 529 
Q 447 1150 447 2328 
Q 447 3434 972 4092 
Q 1497 4750 2381 4750 
Q 2619 4750 2861 4703 
Q 3103 4656 3366 4563 
z
" id="DejaVuSans-36" transform="scale(0.015625)"/>
       </defs>
       <use xlink:href="#DejaVuSans-30"/>
       <use x="63.623047" xlink:href="#DejaVuSans-2e"/>
       <use x="95.410156" xlink:href="#DejaVuSans-38"/>
       <use x="159.033203" xlink:href="#DejaVuSans-34"/>
       <use x="222.65625" xlink:href="#DejaVuSans-31"/>
       <use x="286.279297" xlink:href="#DejaVuSans-36"/>
      </g>
     </g>
    </g>
    <g id="ytick_4">
     <g id="line2d_18">
      <path clip-path="url(#p0de515c127)" d="M 57.987688 75.689409 
L 421.336525 75.689409 
" style="fill:none;stroke:#ffffff;"/>
     </g>
     <g id="line2d_19">
      <path d="M 57.987688 75.689409 
" style="fill:none;stroke:#333333;stroke-width:1.5;"/>
      <g>
       <use style="fill:#333333;stroke:#000000;" x="57.987688" xlink:href="#mf0763c3d23" y="75.689409"/>
      </g>
     </g>
     <g id="text_4">
      <!-- 0.8420 -->
      <g style="fill:#4d4d4d;" transform="translate(22.245938 78.117659)scale(0.088 -0.088)">
       <use xlink:href="#DejaVuSans-30"/>
       <use x="63.623047" xlink:href="#DejaVuSans-2e"/>
       <use x="95.410156" xlink:href="#DejaVuSans-38"/>
       <use x="159.033203" xlink:href="#DejaVuSans-34"/>
       <use x="222.65625" xlink:href="#DejaVuSans-32"/>
       <use x="286.279297" xlink:href="#DejaVuSans-30"/>
      </g>
     </g>
    </g>
    <g id="ytick_5">
     <g id="line2d_20">
      <path clip-path="url(#p0de515c127)" d="M 57.987688 24.747218 
L 421.336525 24.747218 
" style="fill:none;stroke:#ffffff;"/>
     </g>
     <g id="line2d_21">
      <path d="M 57.987688 24.747218 
" style="fill:none;stroke:#333333;stroke-width:1.5;"/>
      <g>
       <use style="fill:#333333;stroke:#000000;" x="57.987688" xlink:href="#mf0763c3d23" y="24.747218"/>
      </g>
     </g>
     <g id="text_5">
      <!-- 0.8424 -->
      <g style="fill:#4d4d4d;" transform="translate(22.245938 27.175468)scale(0.088 -0.088)">
       <use xlink:href="#DejaVuSans-30"/>
       <use x="63.623047" xlink:href="#DejaVuSans-2e"/>
       <use x="95.410156" xlink:href="#DejaVuSans-38"/>
       <use x="159.033203" xlink:href="#DejaVuSans-34"/>
       <use x="222.65625" xlink:href="#DejaVuSans-32"/>
       <use x="286.279297" xlink:href="#DejaVuSans-34"/>
      </g>
     </g>
    </g>
    <g id="ytick_6">
     <g id="line2d_22">
      <path clip-path="url(#p0de515c127)" d="M 57.987688 203.044888 
L 421.336525 203.044888 
" style="fill:none;stroke:#ffffff;stroke-width:0.5;"/>
     </g>
    </g>
    <g id="ytick_7">
     <g id="line2d_23">
      <path clip-path="url(#p0de515c127)" d="M 57.987688 152.102696 
L 421.336525 152.102696 
" style="fill:none;stroke:#ffffff;stroke-width:0.5;"/>
     </g>
    </g>
    <g id="ytick_8">
     <g id="line2d_24">
      <path clip-path="url(#p0de515c127)" d="M 57.987688 101.160505 
L 421.336525 101.160505 
" style="fill:none;stroke:#ffffff;stroke-width:0.5;"/>
     </g>
    </g>
    <g id="ytick_9">
     <g id="line2d_25">
      <path clip-path="url(#p0de515c127)" d="M 57.987688 50.218314 
L 421.336525 50.218314 
" style="fill:none;stroke:#ffffff;stroke-width:0.5;"/>
     </g>
    </g>
    <g id="text_6">
     <!-- Value -->
     <g transform="translate(15.558281 256.228457)rotate(-90)scale(0.11 -0.11)">
      <defs>
       <path d="M 1831 0 
L 50 4666 
L 709 4666 
L 2188 738 
L 3669 4666 
L 4325 4666 
L 2547 0 
L 1831 0 
z
" id="DejaVuSans-56" transform="scale(0.015625)"/>
       <path d="M 2194 1759 
Q 1497 1759 1228 1600 
Q 959 1441 959 1056 
Q 959 750 1161 570 
Q 1363 391 1709 391 
Q 2188 391 2477 730 
Q 2766 1069 2766 1631 
L 2766 1759 
L 2194 1759 
z
M 3341 1997 
L 3341 0 
L 2766 0 
L 2766 531 
Q 2569 213 2275 61 
Q 1981 -91 1556 -91 
Q 1019 -91 701 211 
Q 384 513 384 1019 
Q 384 1609 779 1909 
Q 1175 2209 1959 2209 
L 2766 2209 
L 2766 2266 
Q 2766 2663 2505 2880 
Q 2244 3097 1772 3097 
Q 1472 3097 1187 3025 
Q 903 2953 641 2809 
L 641 3341 
Q 956 3463 1253 3523 
Q 1550 3584 1831 3584 
Q 2591 3584 2966 3190 
Q 3341 2797 3341 1997 
z
" id="DejaVuSans-61" transform="scale(0.015625)"/>
       <path d="M 603 4863 
L 1178 4863 
L 1178 0 
L 603 0 
L 603 4863 
z
" id="DejaVuSans-6c" transform="scale(0.015625)"/>
       <path d="M 544 1381 
L 544 3500 
L 1119 3500 
L 1119 1403 
Q 1119 906 1312 657 
Q 1506 409 1894 409 
Q 2359 409 2629 706 
Q 2900 1003 2900 1516 
L 2900 3500 
L 3475 3500 
L 3475 0 
L 2900 0 
L 2900 538 
Q 2691 219 2414 64 
Q 2138 -91 1772 -91 
Q 1169 -91 856 284 
Q 544 659 544 1381 
z
M 1991 3584 
L 1991 3584 
z
" id="DejaVuSans-75" transform="scale(0.015625)"/>
       <path d="M 3597 1894 
L 3597 1613 
L 953 1613 
Q 991 1019 1311 708 
Q 1631 397 2203 397 
Q 2534 397 2845 478 
Q 3156 559 3463 722 
L 3463 178 
Q 3153 47 2828 -22 
Q 2503 -91 2169 -91 
Q 1331 -91 842 396 
Q 353 884 353 1716 
Q 353 2575 817 3079 
Q 1281 3584 2069 3584 
Q 2775 3584 3186 3129 
Q 3597 2675 3597 1894 
z
M 3022 2063 
Q 3016 2534 2758 2815 
Q 2500 3097 2075 3097 
Q 1594 3097 1305 2825 
Q 1016 2553 972 2059 
L 3022 2063 
z
" id="DejaVuSans-65" transform="scale(0.015625)"/>
      </defs>
      <use xlink:href="#DejaVuSans-56"/>
      <use x="60.658203" xlink:href="#DejaVuSans-61"/>
      <use x="121.9375" xlink:href="#DejaVuSans-6c"/>
      <use x="149.720703" xlink:href="#DejaVuSans-75"/>
      <use x="213.099609" xlink:href="#DejaVuSans-65"/>
     </g>
    </g>
   </g>
   <g id="PathCollection_1">
    <path clip-path="url(#p0de515c127)" d="M 74.503544 33.656991 
C 74.973604 33.656991 75.424475 33.470234 75.756858 33.137851 
C 76.089241 32.805468 76.275998 32.354597 76.275998 31.884537 
C 76.275998 31.414477 76.089241 30.963606 75.756858 30.631223 
C 75.424475 30.29884 74.973604 30.112083 74.503544 30.112083 
C 74.033483 30.112083 73.582612 30.29884 73.25023 30.631223 
C 72.917847 30.963606 72.73109 31.414477 72.73109 31.884537 
C 72.73109 32.354597 72.917847 32.805468 73.25023 33.137851 
C 73.582612 33.470234 74.033483 33.656991 74.503544 33.656991 
z
" style="fill:#a157db;stroke:#a157db;stroke-width:0.886227;"/>
    <path clip-path="url(#p0de515c127)" d="M 404.820668 192.639925 
C 405.290729 192.639925 405.7416 192.453168 406.073983 192.120786 
C 406.406365 191.788403 406.593122 191.337532 406.593122 190.867471 
C 406.593122 190.397411 406.406365 189.94654 406.073983 189.614157 
C 405.7416 189.281775 405.290729 189.095018 404.820668 189.095018 
C 404.350608 189.095018 403.899737 189.281775 403.567354 189.614157 
C 403.234972 189.94654 403.048215 190.397411 403.048215 190.867471 
C 403.048215 191.337532 403.234972 191.788403 403.567354 192.120786 
C 403.899737 192.453168 404.350608 192.639925 404.820668 192.639925 
z
" style="fill:#91db57;stroke:#91db57;stroke-width:0.886227;"/>
    <path clip-path="url(#p0de515c127)" d="M 404.820668 226.466082 
C 405.290729 226.466082 405.7416 226.279325 406.073983 225.946942 
C 406.406365 225.614559 406.593122 225.163688 406.593122 224.693628 
C 406.593122 224.223568 406.406365 223.772696 406.073983 223.440314 
C 405.7416 223.107931 405.290729 222.921174 404.820668 222.921174 
C 404.350608 222.921174 403.899737 223.107931 403.567354 223.440314 
C 403.234972 223.772696 403.048215 224.223568 403.048215 224.693628 
C 403.048215 225.163688 403.234972 225.614559 403.567354 225.946942 
C 403.899737 226.279325 404.350608 226.466082 404.820668 226.466082 
z
" style="fill:#db5f57;stroke:#db5f57;stroke-width:0.886227;"/>
    <path clip-path="url(#p0de515c127)" d="M 404.820668 134.289806 
C 405.290729 134.289806 405.7416 134.103049 406.073983 133.770666 
C 406.406365 133.438283 406.593122 132.987412 406.593122 132.517352 
C 406.593122 132.047292 406.406365 131.596421 406.073983 131.264038 
C 405.7416 130.931655 405.290729 130.744898 404.820668 130.744898 
C 404.350608 130.744898 403.899737 130.931655 403.567354 131.264038 
C 403.234972 131.596421 403.048215 132.047292 403.048215 132.517352 
C 403.048215 132.987412 403.234972 133.438283 403.567354 133.770666 
C 403.899737 134.103049 404.350608 134.289806 404.820668 134.289806 
z
" style="fill:#57d3db;stroke:#57d3db;stroke-width:0.886227;"/>
   </g>
   <g id="patch_3">
    <path d="M 57.987688 22.244082 
L 421.336525 22.244082 
L 421.336525 7.2 
L 57.987688 7.2 
z
" style="fill:#d9d9d9;"/>
   </g>
   <g id="text_7">
    <!-- Accuracy -->
    <g style="fill:#1a1a1a;" transform="translate(219.573356 17.150291)scale(0.088 -0.088)">
     <defs>
      <path d="M 2188 4044 
L 1331 1722 
L 3047 1722 
L 2188 4044 
z
M 1831 4666 
L 2547 4666 
L 4325 0 
L 3669 0 
L 3244 1197 
L 1141 1197 
L 716 0 
L 50 0 
L 1831 4666 
z
" id="DejaVuSans-41" transform="scale(0.015625)"/>
      <path d="M 3122 3366 
L 3122 2828 
Q 2878 2963 2633 3030 
Q 2388 3097 2138 3097 
Q 1578 3097 1268 2742 
Q 959 2388 959 1747 
Q 959 1106 1268 751 
Q 1578 397 2138 397 
Q 2388 397 2633 464 
Q 2878 531 3122 666 
L 3122 134 
Q 2881 22 2623 -34 
Q 2366 -91 2075 -91 
Q 1284 -91 818 406 
Q 353 903 353 1747 
Q 353 2603 823 3093 
Q 1294 3584 2113 3584 
Q 2378 3584 2631 3529 
Q 2884 3475 3122 3366 
z
" id="DejaVuSans-63" transform="scale(0.015625)"/>
      <path d="M 2631 2963 
Q 2534 3019 2420 3045 
Q 2306 3072 2169 3072 
Q 1681 3072 1420 2755 
Q 1159 2438 1159 1844 
L 1159 0 
L 581 0 
L 581 3500 
L 1159 3500 
L 1159 2956 
Q 1341 3275 1631 3429 
Q 1922 3584 2338 3584 
Q 2397 3584 2469 3576 
Q 2541 3569 2628 3553 
L 2631 2963 
z
" id="DejaVuSans-72" transform="scale(0.015625)"/>
      <path d="M 2059 -325 
Q 1816 -950 1584 -1140 
Q 1353 -1331 966 -1331 
L 506 -1331 
L 506 -850 
L 844 -850 
Q 1081 -850 1212 -737 
Q 1344 -625 1503 -206 
L 1606 56 
L 191 3500 
L 800 3500 
L 1894 763 
L 2988 3500 
L 3597 3500 
L 2059 -325 
z
" id="DejaVuSans-79" transform="scale(0.015625)"/>
     </defs>
     <use xlink:href="#DejaVuSans-41"/>
     <use x="66.658203" xlink:href="#DejaVuSans-63"/>
     <use x="121.638672" xlink:href="#DejaVuSans-63"/>
     <use x="176.619141" xlink:href="#DejaVuSans-75"/>
     <use x="239.998047" xlink:href="#DejaVuSans-72"/>
     <use x="281.111328" xlink:href="#DejaVuSans-61"/>
     <use x="342.390625" xlink:href="#DejaVuSans-63"/>
     <use x="397.371094" xlink:href="#DejaVuSans-79"/>
    </g>
   </g>
   <g id="patch_4">
    <path d="M 846.387687 295.527051 
L 913.285937 295.527051 
L 913.285937 186.721114 
L 846.387687 186.721114 
z
" style="fill:#ffffff;"/>
   </g>
   <g id="text_8">
    <!-- Layers -->
    <g transform="translate(858.587688 210.314707)scale(0.11 -0.11)">
     <defs>
      <path d="M 628 4666 
L 1259 4666 
L 1259 531 
L 3531 531 
L 3531 0 
L 628 0 
L 628 4666 
z
" id="DejaVuSans-4c" transform="scale(0.015625)"/>
      <path d="M 2834 3397 
L 2834 2853 
Q 2591 2978 2328 3040 
Q 2066 3103 1784 3103 
Q 1356 3103 1142 2972 
Q 928 2841 928 2578 
Q 928 2378 1081 2264 
Q 1234 2150 1697 2047 
L 1894 2003 
Q 2506 1872 2764 1633 
Q 3022 1394 3022 966 
Q 3022 478 2636 193 
Q 2250 -91 1575 -91 
Q 1294 -91 989 -36 
Q 684 19 347 128 
L 347 722 
Q 666 556 975 473 
Q 1284 391 1588 391 
Q 1994 391 2212 530 
Q 2431 669 2431 922 
Q 2431 1156 2273 1281 
Q 2116 1406 1581 1522 
L 1381 1569 
Q 847 1681 609 1914 
Q 372 2147 372 2553 
Q 372 3047 722 3315 
Q 1072 3584 1716 3584 
Q 2034 3584 2315 3537 
Q 2597 3491 2834 3397 
z
" id="DejaVuSans-73" transform="scale(0.015625)"/>
     </defs>
     <use xlink:href="#DejaVuSans-4c"/>
     <use x="55.712891" xlink:href="#DejaVuSans-61"/>
     <use x="116.992188" xlink:href="#DejaVuSans-79"/>
     <use x="176.171875" xlink:href="#DejaVuSans-65"/>
     <use x="237.695312" xlink:href="#DejaVuSans-72"/>
     <use x="278.808594" xlink:href="#DejaVuSans-73"/>
    </g>
   </g>
   <g id="patch_5">
    <path clip-path="url(#p6e55cd660f)" d="M 858.587688 229.807051 
L 874.427688 229.807051 
L 874.427688 213.967051 
L 858.587688 213.967051 
z
" style="fill:#f2f2f2;"/>
   </g>
   <g id="line2d_26">
    <path clip-path="url(#p6e55cd660f)" d="M 858.587688 221.887051 
L 874.427688 221.887051 
" style="fill:none;stroke:#db5f57;stroke-width:0.886227;"/>
   </g>
   <g id="line2d_27">
    <path clip-path="url(#p6e55cd660f)" d="M 866.507687 221.887051 
" style="fill:none;stroke:#1f77b4;stroke-linecap:square;stroke-width:1.5;"/>
    <defs>
     <path d="M 0 1.772454 
C 0.47006 1.772454 0.920931 1.585697 1.253314 1.253314 
C 1.585697 0.920931 1.772454 0.47006 1.772454 0 
C 1.772454 -0.47006 1.585697 -0.920931 1.253314 -1.253314 
C 0.920931 -1.585697 0.47006 -1.772454 0 -1.772454 
C -0.47006 -1.772454 -0.920931 -1.585697 -1.253314 -1.253314 
C -1.585697 -0.920931 -1.772454 -0.47006 -1.772454 0 
C -1.772454 0.47006 -1.585697 0.920931 -1.253314 1.253314 
C -0.920931 1.585697 -0.47006 1.772454 0 1.772454 
z
" id="m07b9a3b666" style="stroke:#db5f57;stroke-width:0.886227;"/>
    </defs>
    <g clip-path="url(#p6e55cd660f)">
     <use style="fill:#db5f57;stroke:#db5f57;stroke-width:0.886227;" x="866.507687" xlink:href="#m07b9a3b666" y="221.887051"/>
    </g>
   </g>
   <g id="text_9">
    <!-- [1, 2] -->
    <g transform="translate(877.427688 224.315301)scale(0.088 -0.088)">
     <defs>
      <path d="M 550 4863 
L 1875 4863 
L 1875 4416 
L 1125 4416 
L 1125 -397 
L 1875 -397 
L 1875 -844 
L 550 -844 
L 550 4863 
z
" id="DejaVuSans-5b" transform="scale(0.015625)"/>
      <path d="M 750 794 
L 1409 794 
L 1409 256 
L 897 -744 
L 494 -744 
L 750 256 
L 750 794 
z
" id="DejaVuSans-2c" transform="scale(0.015625)"/>
      <path id="DejaVuSans-20" transform="scale(0.015625)"/>
      <path d="M 1947 4863 
L 1947 -844 
L 622 -844 
L 622 -397 
L 1369 -397 
L 1369 4416 
L 622 4416 
L 622 4863 
L 1947 4863 
z
" id="DejaVuSans-5d" transform="scale(0.015625)"/>
     </defs>
     <use xlink:href="#DejaVuSans-5b"/>
     <use x="39.013672" xlink:href="#DejaVuSans-31"/>
     <use x="102.636719" xlink:href="#DejaVuSans-2c"/>
     <use x="134.423828" xlink:href="#DejaVuSans-20"/>
     <use x="166.210938" xlink:href="#DejaVuSans-32"/>
     <use x="229.833984" xlink:href="#DejaVuSans-5d"/>
    </g>
   </g>
   <g id="patch_6">
    <path clip-path="url(#p285a56c710)" d="M 858.587688 247.647051 
L 874.427688 247.647051 
L 874.427688 231.807051 
L 858.587688 231.807051 
z
" style="fill:#f2f2f2;"/>
   </g>
   <g id="line2d_28">
    <path clip-path="url(#p285a56c710)" d="M 858.587688 239.727051 
L 874.427688 239.727051 
" style="fill:none;stroke:#91db57;stroke-width:0.886227;"/>
   </g>
   <g id="line2d_29">
    <path clip-path="url(#p285a56c710)" d="M 866.507687 239.727051 
" style="fill:none;stroke:#1f77b4;stroke-linecap:square;stroke-width:1.5;"/>
    <defs>
     <path d="M 0 1.772454 
C 0.47006 1.772454 0.920931 1.585697 1.253314 1.253314 
C 1.585697 0.920931 1.772454 0.47006 1.772454 0 
C 1.772454 -0.47006 1.585697 -0.920931 1.253314 -1.253314 
C 0.920931 -1.585697 0.47006 -1.772454 0 -1.772454 
C -0.47006 -1.772454 -0.920931 -1.585697 -1.253314 -1.253314 
C -1.585697 -0.920931 -1.772454 -0.47006 -1.772454 0 
C -1.772454 0.47006 -1.585697 0.920931 -1.253314 1.253314 
C -0.920931 1.585697 -0.47006 1.772454 0 1.772454 
z
" id="m1bbbb76900" style="stroke:#91db57;stroke-width:0.886227;"/>
    </defs>
    <g clip-path="url(#p285a56c710)">
     <use style="fill:#91db57;stroke:#91db57;stroke-width:0.886227;" x="866.507687" xlink:href="#m1bbbb76900" y="239.727051"/>
    </g>
   </g>
   <g id="text_10">
    <!-- [1] -->
    <g transform="translate(877.427688 242.155301)scale(0.088 -0.088)">
     <use xlink:href="#DejaVuSans-5b"/>
     <use x="39.013672" xlink:href="#DejaVuSans-31"/>
     <use x="102.636719" xlink:href="#DejaVuSans-5d"/>
    </g>
   </g>
   <g id="patch_7">
    <path clip-path="url(#p7f57eb77f1)" d="M 858.587688 265.487051 
L 874.427688 265.487051 
L 874.427688 249.647051 
L 858.587688 249.647051 
z
" style="fill:#f2f2f2;"/>
   </g>
   <g id="line2d_30">
    <path clip-path="url(#p7f57eb77f1)" d="M 858.587688 257.567051 
L 874.427688 257.567051 
" style="fill:none;stroke:#57d3db;stroke-width:0.886227;"/>
   </g>
   <g id="line2d_31">
    <path clip-path="url(#p7f57eb77f1)" d="M 866.507687 257.567051 
" style="fill:none;stroke:#1f77b4;stroke-linecap:square;stroke-width:1.5;"/>
    <defs>
     <path d="M 0 1.772454 
C 0.47006 1.772454 0.920931 1.585697 1.253314 1.253314 
C 1.585697 0.920931 1.772454 0.47006 1.772454 0 
C 1.772454 -0.47006 1.585697 -0.920931 1.253314 -1.253314 
C 0.920931 -1.585697 0.47006 -1.772454 0 -1.772454 
C -0.47006 -1.772454 -0.920931 -1.585697 -1.253314 -1.253314 
C -1.585697 -0.920931 -1.772454 -0.47006 -1.772454 0 
C -1.772454 0.47006 -1.585697 0.920931 -1.253314 1.253314 
C -0.920931 1.585697 -0.47006 1.772454 0 1.772454 
z
" id="me133d9e444" style="stroke:#57d3db;stroke-width:0.886227;"/>
    </defs>
    <g clip-path="url(#p7f57eb77f1)">
     <use style="fill:#57d3db;stroke:#57d3db;stroke-width:0.886227;" x="866.507687" xlink:href="#me133d9e444" y="257.567051"/>
    </g>
   </g>
   <g id="text_11">
    <!-- [2] -->
    <g transform="translate(877.427688 259.995301)scale(0.088 -0.088)">
     <use xlink:href="#DejaVuSans-5b"/>
     <use x="39.013672" xlink:href="#DejaVuSans-32"/>
     <use x="102.636719" xlink:href="#DejaVuSans-5d"/>
    </g>
   </g>
   <g id="patch_8">
    <path clip-path="url(#pc450daa2c3)" d="M 858.587688 283.327051 
L 874.427688 283.327051 
L 874.427688 267.487051 
L 858.587688 267.487051 
z
" style="fill:#f2f2f2;"/>
   </g>
   <g id="line2d_32">
    <path clip-path="url(#pc450daa2c3)" d="M 858.587688 275.407051 
L 874.427688 275.407051 
" style="fill:none;stroke:#a157db;stroke-width:0.886227;"/>
   </g>
   <g id="line2d_33">
    <path clip-path="url(#pc450daa2c3)" d="M 866.507687 275.407051 
" style="fill:none;stroke:#1f77b4;stroke-linecap:square;stroke-width:1.5;"/>
    <defs>
     <path d="M 0 1.772454 
C 0.47006 1.772454 0.920931 1.585697 1.253314 1.253314 
C 1.585697 0.920931 1.772454 0.47006 1.772454 0 
C 1.772454 -0.47006 1.585697 -0.920931 1.253314 -1.253314 
C 0.920931 -1.585697 0.47006 -1.772454 0 -1.772454 
C -0.47006 -1.772454 -0.920931 -1.585697 -1.253314 -1.253314 
C -1.585697 -0.920931 -1.772454 -0.47006 -1.772454 0 
C -1.772454 0.47006 -1.585697 0.920931 -1.253314 1.253314 
C -0.920931 1.585697 -0.47006 1.772454 0 1.772454 
z
" id="m3eb224d0d0" style="stroke:#a157db;stroke-width:0.886227;"/>
    </defs>
    <g clip-path="url(#pc450daa2c3)">
     <use style="fill:#a157db;stroke:#a157db;stroke-width:0.886227;" x="866.507687" xlink:href="#m3eb224d0d0" y="275.407051"/>
    </g>
   </g>
   <g id="text_12">
    <!-- [] -->
    <g transform="translate(877.427688 277.835301)scale(0.088 -0.088)">
     <use xlink:href="#DejaVuSans-5b"/>
     <use x="39.013672" xlink:href="#DejaVuSans-5d"/>
    </g>
   </g>
  </g>
  <g id="axes_2">
   <g id="patch_9">
    <path d="M 475.83885 234.334082 
L 839.187688 234.334082 
L 839.187688 22.244082 
L 475.83885 22.244082 
z
" style="fill:#ebebeb;"/>
   </g>
   <g id="matplotlib.axis_3">
    <g id="xtick_12">
     <g id="line2d_34">
      <path clip-path="url(#p1af7212a96)" d="M 492.354707 234.334082 
L 492.354707 22.244082 
" style="fill:none;stroke:#ffffff;stroke-linecap:square;"/>
     </g>
    </g>
    <g id="xtick_13">
     <g id="line2d_35">
      <path clip-path="url(#p1af7212a96)" d="M 558.418131 234.334082 
L 558.418131 22.244082 
" style="fill:none;stroke:#ffffff;stroke-linecap:square;"/>
     </g>
    </g>
    <g id="xtick_14">
     <g id="line2d_36">
      <path clip-path="url(#p1af7212a96)" d="M 624.481556 234.334082 
L 624.481556 22.244082 
" style="fill:none;stroke:#ffffff;stroke-linecap:square;"/>
     </g>
    </g>
    <g id="xtick_15">
     <g id="line2d_37">
      <path clip-path="url(#p1af7212a96)" d="M 690.544981 234.334082 
L 690.544981 22.244082 
" style="fill:none;stroke:#ffffff;stroke-linecap:square;"/>
     </g>
    </g>
    <g id="xtick_16">
     <g id="line2d_38">
      <path clip-path="url(#p1af7212a96)" d="M 756.608406 234.334082 
L 756.608406 22.244082 
" style="fill:none;stroke:#ffffff;stroke-linecap:square;"/>
     </g>
    </g>
    <g id="xtick_17">
     <g id="line2d_39">
      <path clip-path="url(#p1af7212a96)" d="M 822.671831 234.334082 
L 822.671831 22.244082 
" style="fill:none;stroke:#ffffff;stroke-linecap:square;"/>
     </g>
    </g>
    <g id="xtick_18">
     <g id="line2d_40">
      <path clip-path="url(#p1af7212a96)" d="M 525.386419 234.334082 
L 525.386419 22.244082 
" style="fill:none;stroke:#ffffff;stroke-linecap:square;stroke-width:0.5;"/>
     </g>
    </g>
    <g id="xtick_19">
     <g id="line2d_41">
      <path clip-path="url(#p1af7212a96)" d="M 591.449844 234.334082 
L 591.449844 22.244082 
" style="fill:none;stroke:#ffffff;stroke-linecap:square;stroke-width:0.5;"/>
     </g>
    </g>
    <g id="xtick_20">
     <g id="line2d_42">
      <path clip-path="url(#p1af7212a96)" d="M 657.513269 234.334082 
L 657.513269 22.244082 
" style="fill:none;stroke:#ffffff;stroke-linecap:square;stroke-width:0.5;"/>
     </g>
    </g>
    <g id="xtick_21">
     <g id="line2d_43">
      <path clip-path="url(#p1af7212a96)" d="M 723.576694 234.334082 
L 723.576694 22.244082 
" style="fill:none;stroke:#ffffff;stroke-linecap:square;stroke-width:0.5;"/>
     </g>
    </g>
    <g id="xtick_22">
     <g id="line2d_44">
      <path clip-path="url(#p1af7212a96)" d="M 789.640119 234.334082 
L 789.640119 22.244082 
" style="fill:none;stroke:#ffffff;stroke-linecap:square;stroke-width:0.5;"/>
     </g>
    </g>
   </g>
   <g id="matplotlib.axis_4">
    <g id="ytick_10">
     <g id="line2d_45">
      <path clip-path="url(#p1af7212a96)" d="M 475.83885 219.496754 
L 839.187688 219.496754 
" style="fill:none;stroke:#ffffff;stroke-linecap:square;"/>
     </g>
     <g id="line2d_46">
      <path d="M 475.83885 219.496754 
" style="fill:none;stroke:#333333;stroke-linecap:square;stroke-width:1.5;"/>
      <g>
       <use style="fill:#333333;stroke:#000000;" x="475.83885" xlink:href="#mf0763c3d23" y="219.496754"/>
      </g>
     </g>
     <g id="text_13">
      <!-- 0.8940 -->
      <g style="fill:#4d4d4d;" transform="translate(440.0971 221.925004)scale(0.088 -0.088)">
       <defs>
        <path d="M 703 97 
L 703 672 
Q 941 559 1184 500 
Q 1428 441 1663 441 
Q 2288 441 2617 861 
Q 2947 1281 2994 2138 
Q 2813 1869 2534 1725 
Q 2256 1581 1919 1581 
Q 1219 1581 811 2004 
Q 403 2428 403 3163 
Q 403 3881 828 4315 
Q 1253 4750 1959 4750 
Q 2769 4750 3195 4129 
Q 3622 3509 3622 2328 
Q 3622 1225 3098 567 
Q 2575 -91 1691 -91 
Q 1453 -91 1209 -44 
Q 966 3 703 97 
z
M 1959 2075 
Q 2384 2075 2632 2365 
Q 2881 2656 2881 3163 
Q 2881 3666 2632 3958 
Q 2384 4250 1959 4250 
Q 1534 4250 1286 3958 
Q 1038 3666 1038 3163 
Q 1038 2656 1286 2365 
Q 1534 2075 1959 2075 
z
" id="DejaVuSans-39" transform="scale(0.015625)"/>
       </defs>
       <use xlink:href="#DejaVuSans-30"/>
       <use x="63.623047" xlink:href="#DejaVuSans-2e"/>
       <use x="95.410156" xlink:href="#DejaVuSans-38"/>
       <use x="159.033203" xlink:href="#DejaVuSans-39"/>
       <use x="222.65625" xlink:href="#DejaVuSans-34"/>
       <use x="286.279297" xlink:href="#DejaVuSans-30"/>
      </g>
     </g>
    </g>
    <g id="ytick_11">
     <g id="line2d_47">
      <path clip-path="url(#p1af7212a96)" d="M 475.83885 179.604321 
L 839.187688 179.604321 
" style="fill:none;stroke:#ffffff;stroke-linecap:square;"/>
     </g>
     <g id="line2d_48">
      <path d="M 475.83885 179.604321 
" style="fill:none;stroke:#333333;stroke-linecap:square;stroke-width:1.5;"/>
      <g>
       <use style="fill:#333333;stroke:#000000;" x="475.83885" xlink:href="#mf0763c3d23" y="179.604321"/>
      </g>
     </g>
     <g id="text_14">
      <!-- 0.8945 -->
      <g style="fill:#4d4d4d;" transform="translate(440.0971 182.032571)scale(0.088 -0.088)">
       <defs>
        <path d="M 691 4666 
L 3169 4666 
L 3169 4134 
L 1269 4134 
L 1269 2991 
Q 1406 3038 1543 3061 
Q 1681 3084 1819 3084 
Q 2600 3084 3056 2656 
Q 3513 2228 3513 1497 
Q 3513 744 3044 326 
Q 2575 -91 1722 -91 
Q 1428 -91 1123 -41 
Q 819 9 494 109 
L 494 744 
Q 775 591 1075 516 
Q 1375 441 1709 441 
Q 2250 441 2565 725 
Q 2881 1009 2881 1497 
Q 2881 1984 2565 2268 
Q 2250 2553 1709 2553 
Q 1456 2553 1204 2497 
Q 953 2441 691 2322 
L 691 4666 
z
" id="DejaVuSans-35" transform="scale(0.015625)"/>
       </defs>
       <use xlink:href="#DejaVuSans-30"/>
       <use x="63.623047" xlink:href="#DejaVuSans-2e"/>
       <use x="95.410156" xlink:href="#DejaVuSans-38"/>
       <use x="159.033203" xlink:href="#DejaVuSans-39"/>
       <use x="222.65625" xlink:href="#DejaVuSans-34"/>
       <use x="286.279297" xlink:href="#DejaVuSans-35"/>
      </g>
     </g>
    </g>
    <g id="ytick_12">
     <g id="line2d_49">
      <path clip-path="url(#p1af7212a96)" d="M 475.83885 139.711888 
L 839.187688 139.711888 
" style="fill:none;stroke:#ffffff;stroke-linecap:square;"/>
     </g>
     <g id="line2d_50">
      <path d="M 475.83885 139.711888 
" style="fill:none;stroke:#333333;stroke-linecap:square;stroke-width:1.5;"/>
      <g>
       <use style="fill:#333333;stroke:#000000;" x="475.83885" xlink:href="#mf0763c3d23" y="139.711888"/>
      </g>
     </g>
     <g id="text_15">
      <!-- 0.8950 -->
      <g style="fill:#4d4d4d;" transform="translate(440.0971 142.140138)scale(0.088 -0.088)">
       <use xlink:href="#DejaVuSans-30"/>
       <use x="63.623047" xlink:href="#DejaVuSans-2e"/>
       <use x="95.410156" xlink:href="#DejaVuSans-38"/>
       <use x="159.033203" xlink:href="#DejaVuSans-39"/>
       <use x="222.65625" xlink:href="#DejaVuSans-35"/>
       <use x="286.279297" xlink:href="#DejaVuSans-30"/>
      </g>
     </g>
    </g>
    <g id="ytick_13">
     <g id="line2d_51">
      <path clip-path="url(#p1af7212a96)" d="M 475.83885 99.819456 
L 839.187688 99.819456 
" style="fill:none;stroke:#ffffff;stroke-linecap:square;"/>
     </g>
     <g id="line2d_52">
      <path d="M 475.83885 99.819456 
" style="fill:none;stroke:#333333;stroke-linecap:square;stroke-width:1.5;"/>
      <g>
       <use style="fill:#333333;stroke:#000000;" x="475.83885" xlink:href="#mf0763c3d23" y="99.819456"/>
      </g>
     </g>
     <g id="text_16">
      <!-- 0.8955 -->
      <g style="fill:#4d4d4d;" transform="translate(440.0971 102.247706)scale(0.088 -0.088)">
       <use xlink:href="#DejaVuSans-30"/>
       <use x="63.623047" xlink:href="#DejaVuSans-2e"/>
       <use x="95.410156" xlink:href="#DejaVuSans-38"/>
       <use x="159.033203" xlink:href="#DejaVuSans-39"/>
       <use x="222.65625" xlink:href="#DejaVuSans-35"/>
       <use x="286.279297" xlink:href="#DejaVuSans-35"/>
      </g>
     </g>
    </g>
    <g id="ytick_14">
     <g id="line2d_53">
      <path clip-path="url(#p1af7212a96)" d="M 475.83885 59.927023 
L 839.187688 59.927023 
" style="fill:none;stroke:#ffffff;stroke-linecap:square;"/>
     </g>
     <g id="line2d_54">
      <path d="M 475.83885 59.927023 
" style="fill:none;stroke:#333333;stroke-linecap:square;stroke-width:1.5;"/>
      <g>
       <use style="fill:#333333;stroke:#000000;" x="475.83885" xlink:href="#mf0763c3d23" y="59.927023"/>
      </g>
     </g>
     <g id="text_17">
      <!-- 0.8960 -->
      <g style="fill:#4d4d4d;" transform="translate(440.0971 62.355273)scale(0.088 -0.088)">
       <use xlink:href="#DejaVuSans-30"/>
       <use x="63.623047" xlink:href="#DejaVuSans-2e"/>
       <use x="95.410156" xlink:href="#DejaVuSans-38"/>
       <use x="159.033203" xlink:href="#DejaVuSans-39"/>
       <use x="222.65625" xlink:href="#DejaVuSans-36"/>
       <use x="286.279297" xlink:href="#DejaVuSans-30"/>
      </g>
     </g>
    </g>
    <g id="ytick_15">
     <g id="line2d_55">
      <path clip-path="url(#p1af7212a96)" d="M 475.83885 199.550537 
L 839.187688 199.550537 
" style="fill:none;stroke:#ffffff;stroke-linecap:square;stroke-width:0.5;"/>
     </g>
    </g>
    <g id="ytick_16">
     <g id="line2d_56">
      <path clip-path="url(#p1af7212a96)" d="M 475.83885 159.658105 
L 839.187688 159.658105 
" style="fill:none;stroke:#ffffff;stroke-linecap:square;stroke-width:0.5;"/>
     </g>
    </g>
    <g id="ytick_17">
     <g id="line2d_57">
      <path clip-path="url(#p1af7212a96)" d="M 475.83885 119.765672 
L 839.187688 119.765672 
" style="fill:none;stroke:#ffffff;stroke-linecap:square;stroke-width:0.5;"/>
     </g>
    </g>
    <g id="ytick_18">
     <g id="line2d_58">
      <path clip-path="url(#p1af7212a96)" d="M 475.83885 79.873239 
L 839.187688 79.873239 
" style="fill:none;stroke:#ffffff;stroke-linecap:square;stroke-width:0.5;"/>
     </g>
    </g>
    <g id="ytick_19">
     <g id="line2d_59">
      <path clip-path="url(#p1af7212a96)" d="M 475.83885 39.980806 
L 839.187688 39.980806 
" style="fill:none;stroke:#ffffff;stroke-linecap:square;stroke-width:0.5;"/>
     </g>
    </g>
   </g>
   <g id="PathCollection_2">
    <path clip-path="url(#p1af7212a96)" d="M 492.354707 79.446826 
C 492.824767 79.446826 493.275638 79.260069 493.608021 78.927686 
C 493.940403 78.595303 494.12716 78.144432 494.12716 77.674372 
C 494.12716 77.204312 493.940403 76.753441 493.608021 76.421058 
C 493.275638 76.088675 492.824767 75.901918 492.354707 75.901918 
C 491.884646 75.901918 491.433775 76.088675 491.101392 76.421058 
C 490.76901 76.753441 490.582253 77.204312 490.582253 77.674372 
C 490.582253 78.144432 490.76901 78.595303 491.101392 78.927686 
C 491.433775 79.260069 491.884646 79.446826 492.354707 79.446826 
z
" style="fill:#a157db;stroke:#a157db;stroke-width:0.886227;"/>
    <path clip-path="url(#p1af7212a96)" d="M 822.671831 111.327743 
C 823.141892 111.327743 823.592763 111.140986 823.925145 110.808604 
C 824.257528 110.476221 824.444285 110.02535 824.444285 109.55529 
C 824.444285 109.085229 824.257528 108.634358 823.925145 108.301975 
C 823.592763 107.969593 823.141892 107.782836 822.671831 107.782836 
C 822.201771 107.782836 821.7509 107.969593 821.418517 108.301975 
C 821.086134 108.634358 820.899377 109.085229 820.899377 109.55529 
C 820.899377 110.02535 821.086134 110.476221 821.418517 110.808604 
C 821.7509 111.140986 822.201771 111.327743 822.671831 111.327743 
z
" style="fill:#91db57;stroke:#91db57;stroke-width:0.886227;"/>
    <path clip-path="url(#p1af7212a96)" d="M 822.671831 226.466082 
C 823.141892 226.466082 823.592763 226.279325 823.925145 225.946942 
C 824.257528 225.614559 824.444285 225.163688 824.444285 224.693628 
C 824.444285 224.223568 824.257528 223.772696 823.925145 223.440314 
C 823.592763 223.107931 823.141892 222.921174 822.671831 222.921174 
C 822.201771 222.921174 821.7509 223.107931 821.418517 223.440314 
C 821.086134 223.772696 820.899377 224.223568 820.899377 224.693628 
C 820.899377 225.163688 821.086134 225.614559 821.418517 225.946942 
C 821.7509 226.279325 822.201771 226.466082 822.671831 226.466082 
z
" style="fill:#db5f57;stroke:#db5f57;stroke-width:0.886227;"/>
    <path clip-path="url(#p1af7212a96)" d="M 822.671831 33.656991 
C 823.141892 33.656991 823.592763 33.470234 823.925145 33.137851 
C 824.257528 32.805468 824.444285 32.354597 824.444285 31.884537 
C 824.444285 31.414477 824.257528 30.963606 823.925145 30.631223 
C 823.592763 30.29884 823.141892 30.112083 822.671831 30.112083 
C 822.201771 30.112083 821.7509 30.29884 821.418517 30.631223 
C 821.086134 30.963606 820.899377 31.414477 820.899377 31.884537 
C 820.899377 32.354597 821.086134 32.805468 821.418517 33.137851 
C 821.7509 33.470234 822.201771 33.656991 822.671831 33.656991 
z
" style="fill:#57d3db;stroke:#57d3db;stroke-width:0.886227;"/>
   </g>
   <g id="patch_10">
    <path d="M 475.83885 22.244082 
L 839.187688 22.244082 
L 839.187688 7.2 
L 475.83885 7.2 
z
" style="fill:#d9d9d9;"/>
   </g>
   <g id="text_18">
    <!-- AUC -->
    <g style="fill:#1a1a1a;" transform="translate(648.210706 17.150291)scale(0.088 -0.088)">
     <defs>
      <path d="M 556 4666 
L 1191 4666 
L 1191 1831 
Q 1191 1081 1462 751 
Q 1734 422 2344 422 
Q 2950 422 3222 751 
Q 3494 1081 3494 1831 
L 3494 4666 
L 4128 4666 
L 4128 1753 
Q 4128 841 3676 375 
Q 3225 -91 2344 -91 
Q 1459 -91 1007 375 
Q 556 841 556 1753 
L 556 4666 
z
" id="DejaVuSans-55" transform="scale(0.015625)"/>
      <path d="M 4122 4306 
L 4122 3641 
Q 3803 3938 3442 4084 
Q 3081 4231 2675 4231 
Q 1875 4231 1450 3742 
Q 1025 3253 1025 2328 
Q 1025 1406 1450 917 
Q 1875 428 2675 428 
Q 3081 428 3442 575 
Q 3803 722 4122 1019 
L 4122 359 
Q 3791 134 3420 21 
Q 3050 -91 2638 -91 
Q 1578 -91 968 557 
Q 359 1206 359 2328 
Q 359 3453 968 4101 
Q 1578 4750 2638 4750 
Q 3056 4750 3426 4639 
Q 3797 4528 4122 4306 
z
" id="DejaVuSans-43" transform="scale(0.015625)"/>
     </defs>
     <use xlink:href="#DejaVuSans-41"/>
     <use x="68.408203" xlink:href="#DejaVuSans-55"/>
     <use x="141.601562" xlink:href="#DejaVuSans-43"/>
    </g>
   </g>
  </g>
  <g id="axes_3">
   <g id="patch_11">
    <path d="M 57.987688 465.764082 
L 421.336525 465.764082 
L 421.336525 253.674082 
L 57.987688 253.674082 
z
" style="fill:#ebebeb;"/>
   </g>
   <g id="matplotlib.axis_5">
    <g id="xtick_23">
     <g id="line2d_60">
      <path clip-path="url(#p02e816871c)" d="M 74.503544 465.764082 
L 74.503544 253.674082 
" style="fill:none;stroke:#ffffff;stroke-linecap:square;"/>
     </g>
     <g id="line2d_61">
      <path d="M 74.503544 465.764082 
" style="fill:none;stroke:#333333;stroke-linecap:square;stroke-width:1.5;"/>
      <defs>
       <path d="M 0 0 
L 0 2.75 
" id="m8e95fe61b5" style="stroke:#000000;"/>
      </defs>
      <g>
       <use style="fill:#333333;stroke:#000000;" x="74.503544" xlink:href="#m8e95fe61b5" y="465.764082"/>
      </g>
     </g>
     <g id="text_19">
      <!-- 0 -->
      <g style="fill:#4d4d4d;" transform="translate(71.704044 477.400707)scale(0.088 -0.088)">
       <use xlink:href="#DejaVuSans-30"/>
      </g>
     </g>
    </g>
    <g id="xtick_24">
     <g id="line2d_62">
      <path clip-path="url(#p02e816871c)" d="M 140.566969 465.764082 
L 140.566969 253.674082 
" style="fill:none;stroke:#ffffff;stroke-linecap:square;"/>
     </g>
     <g id="line2d_63">
      <path d="M 140.566969 465.764082 
" style="fill:none;stroke:#333333;stroke-linecap:square;stroke-width:1.5;"/>
      <g>
       <use style="fill:#333333;stroke:#000000;" x="140.566969" xlink:href="#m8e95fe61b5" y="465.764082"/>
      </g>
     </g>
     <g id="text_20">
      <!-- 0.05 -->
      <g style="fill:#4d4d4d;" transform="translate(130.770094 477.400707)scale(0.088 -0.088)">
       <use xlink:href="#DejaVuSans-30"/>
       <use x="63.623047" xlink:href="#DejaVuSans-2e"/>
       <use x="95.410156" xlink:href="#DejaVuSans-30"/>
       <use x="159.033203" xlink:href="#DejaVuSans-35"/>
      </g>
     </g>
    </g>
    <g id="xtick_25">
     <g id="line2d_64">
      <path clip-path="url(#p02e816871c)" d="M 206.630394 465.764082 
L 206.630394 253.674082 
" style="fill:none;stroke:#ffffff;stroke-linecap:square;"/>
     </g>
     <g id="line2d_65">
      <path d="M 206.630394 465.764082 
" style="fill:none;stroke:#333333;stroke-linecap:square;stroke-width:1.5;"/>
      <g>
       <use style="fill:#333333;stroke:#000000;" x="206.630394" xlink:href="#m8e95fe61b5" y="465.764082"/>
      </g>
     </g>
     <g id="text_21">
      <!-- 0.10 -->
      <g style="fill:#4d4d4d;" transform="translate(196.833519 477.400707)scale(0.088 -0.088)">
       <use xlink:href="#DejaVuSans-30"/>
       <use x="63.623047" xlink:href="#DejaVuSans-2e"/>
       <use x="95.410156" xlink:href="#DejaVuSans-31"/>
       <use x="159.033203" xlink:href="#DejaVuSans-30"/>
      </g>
     </g>
    </g>
    <g id="xtick_26">
     <g id="line2d_66">
      <path clip-path="url(#p02e816871c)" d="M 272.693819 465.764082 
L 272.693819 253.674082 
" style="fill:none;stroke:#ffffff;stroke-linecap:square;"/>
     </g>
     <g id="line2d_67">
      <path d="M 272.693819 465.764082 
" style="fill:none;stroke:#333333;stroke-linecap:square;stroke-width:1.5;"/>
      <g>
       <use style="fill:#333333;stroke:#000000;" x="272.693819" xlink:href="#m8e95fe61b5" y="465.764082"/>
      </g>
     </g>
     <g id="text_22">
      <!-- 0.15 -->
      <g style="fill:#4d4d4d;" transform="translate(262.896944 477.400707)scale(0.088 -0.088)">
       <use xlink:href="#DejaVuSans-30"/>
       <use x="63.623047" xlink:href="#DejaVuSans-2e"/>
       <use x="95.410156" xlink:href="#DejaVuSans-31"/>
       <use x="159.033203" xlink:href="#DejaVuSans-35"/>
      </g>
     </g>
    </g>
    <g id="xtick_27">
     <g id="line2d_68">
      <path clip-path="url(#p02e816871c)" d="M 338.757244 465.764082 
L 338.757244 253.674082 
" style="fill:none;stroke:#ffffff;stroke-linecap:square;"/>
     </g>
     <g id="line2d_69">
      <path d="M 338.757244 465.764082 
" style="fill:none;stroke:#333333;stroke-linecap:square;stroke-width:1.5;"/>
      <g>
       <use style="fill:#333333;stroke:#000000;" x="338.757244" xlink:href="#m8e95fe61b5" y="465.764082"/>
      </g>
     </g>
     <g id="text_23">
      <!-- 0.20 -->
      <g style="fill:#4d4d4d;" transform="translate(328.960369 477.400707)scale(0.088 -0.088)">
       <use xlink:href="#DejaVuSans-30"/>
       <use x="63.623047" xlink:href="#DejaVuSans-2e"/>
       <use x="95.410156" xlink:href="#DejaVuSans-32"/>
       <use x="159.033203" xlink:href="#DejaVuSans-30"/>
      </g>
     </g>
    </g>
    <g id="xtick_28">
     <g id="line2d_70">
      <path clip-path="url(#p02e816871c)" d="M 404.820668 465.764082 
L 404.820668 253.674082 
" style="fill:none;stroke:#ffffff;stroke-linecap:square;"/>
     </g>
     <g id="line2d_71">
      <path d="M 404.820668 465.764082 
" style="fill:none;stroke:#333333;stroke-linecap:square;stroke-width:1.5;"/>
      <g>
       <use style="fill:#333333;stroke:#000000;" x="404.820668" xlink:href="#m8e95fe61b5" y="465.764082"/>
      </g>
     </g>
     <g id="text_24">
      <!-- 0.25 -->
      <g style="fill:#4d4d4d;" transform="translate(395.023793 477.400707)scale(0.088 -0.088)">
       <use xlink:href="#DejaVuSans-30"/>
       <use x="63.623047" xlink:href="#DejaVuSans-2e"/>
       <use x="95.410156" xlink:href="#DejaVuSans-32"/>
       <use x="159.033203" xlink:href="#DejaVuSans-35"/>
      </g>
     </g>
    </g>
    <g id="xtick_29">
     <g id="line2d_72">
      <path clip-path="url(#p02e816871c)" d="M 107.535256 465.764082 
L 107.535256 253.674082 
" style="fill:none;stroke:#ffffff;stroke-linecap:square;stroke-width:0.5;"/>
     </g>
    </g>
    <g id="xtick_30">
     <g id="line2d_73">
      <path clip-path="url(#p02e816871c)" d="M 173.598681 465.764082 
L 173.598681 253.674082 
" style="fill:none;stroke:#ffffff;stroke-linecap:square;stroke-width:0.5;"/>
     </g>
    </g>
    <g id="xtick_31">
     <g id="line2d_74">
      <path clip-path="url(#p02e816871c)" d="M 239.662106 465.764082 
L 239.662106 253.674082 
" style="fill:none;stroke:#ffffff;stroke-linecap:square;stroke-width:0.5;"/>
     </g>
    </g>
    <g id="xtick_32">
     <g id="line2d_75">
      <path clip-path="url(#p02e816871c)" d="M 305.725531 465.764082 
L 305.725531 253.674082 
" style="fill:none;stroke:#ffffff;stroke-linecap:square;stroke-width:0.5;"/>
     </g>
    </g>
    <g id="xtick_33">
     <g id="line2d_76">
      <path clip-path="url(#p02e816871c)" d="M 371.788956 465.764082 
L 371.788956 253.674082 
" style="fill:none;stroke:#ffffff;stroke-linecap:square;stroke-width:0.5;"/>
     </g>
    </g>
   </g>
   <g id="matplotlib.axis_6">
    <g id="ytick_20">
     <g id="line2d_77">
      <path clip-path="url(#p02e816871c)" d="M 57.987688 419.802748 
L 421.336525 419.802748 
" style="fill:none;stroke:#ffffff;stroke-linecap:square;"/>
     </g>
     <g id="line2d_78">
      <path d="M 57.987688 419.802748 
" style="fill:none;stroke:#333333;stroke-linecap:square;stroke-width:1.5;"/>
      <g>
       <use style="fill:#333333;stroke:#000000;" x="57.987688" xlink:href="#mf0763c3d23" y="419.802748"/>
      </g>
     </g>
     <g id="text_25">
      <!-- 0.89675 -->
      <g style="fill:#4d4d4d;" transform="translate(16.646938 422.230998)scale(0.088 -0.088)">
       <defs>
        <path d="M 525 4666 
L 3525 4666 
L 3525 4397 
L 1831 0 
L 1172 0 
L 2766 4134 
L 525 4134 
L 525 4666 
z
" id="DejaVuSans-37" transform="scale(0.015625)"/>
       </defs>
       <use xlink:href="#DejaVuSans-30"/>
       <use x="63.623047" xlink:href="#DejaVuSans-2e"/>
       <use x="95.410156" xlink:href="#DejaVuSans-38"/>
       <use x="159.033203" xlink:href="#DejaVuSans-39"/>
       <use x="222.65625" xlink:href="#DejaVuSans-36"/>
       <use x="286.279297" xlink:href="#DejaVuSans-37"/>
       <use x="349.902344" xlink:href="#DejaVuSans-35"/>
      </g>
     </g>
    </g>
    <g id="ytick_21">
     <g id="line2d_79">
      <path clip-path="url(#p02e816871c)" d="M 57.987688 366.387956 
L 421.336525 366.387956 
" style="fill:none;stroke:#ffffff;stroke-linecap:square;"/>
     </g>
     <g id="line2d_80">
      <path d="M 57.987688 366.387956 
" style="fill:none;stroke:#333333;stroke-linecap:square;stroke-width:1.5;"/>
      <g>
       <use style="fill:#333333;stroke:#000000;" x="57.987688" xlink:href="#mf0763c3d23" y="366.387956"/>
      </g>
     </g>
     <g id="text_26">
      <!-- 0.89700 -->
      <g style="fill:#4d4d4d;" transform="translate(16.646938 368.816206)scale(0.088 -0.088)">
       <use xlink:href="#DejaVuSans-30"/>
       <use x="63.623047" xlink:href="#DejaVuSans-2e"/>
       <use x="95.410156" xlink:href="#DejaVuSans-38"/>
       <use x="159.033203" xlink:href="#DejaVuSans-39"/>
       <use x="222.65625" xlink:href="#DejaVuSans-37"/>
       <use x="286.279297" xlink:href="#DejaVuSans-30"/>
       <use x="349.902344" xlink:href="#DejaVuSans-30"/>
      </g>
     </g>
    </g>
    <g id="ytick_22">
     <g id="line2d_81">
      <path clip-path="url(#p02e816871c)" d="M 57.987688 312.973164 
L 421.336525 312.973164 
" style="fill:none;stroke:#ffffff;stroke-linecap:square;"/>
     </g>
     <g id="line2d_82">
      <path d="M 57.987688 312.973164 
" style="fill:none;stroke:#333333;stroke-linecap:square;stroke-width:1.5;"/>
      <g>
       <use style="fill:#333333;stroke:#000000;" x="57.987688" xlink:href="#mf0763c3d23" y="312.973164"/>
      </g>
     </g>
     <g id="text_27">
      <!-- 0.89725 -->
      <g style="fill:#4d4d4d;" transform="translate(16.646938 315.401414)scale(0.088 -0.088)">
       <use xlink:href="#DejaVuSans-30"/>
       <use x="63.623047" xlink:href="#DejaVuSans-2e"/>
       <use x="95.410156" xlink:href="#DejaVuSans-38"/>
       <use x="159.033203" xlink:href="#DejaVuSans-39"/>
       <use x="222.65625" xlink:href="#DejaVuSans-37"/>
       <use x="286.279297" xlink:href="#DejaVuSans-32"/>
       <use x="349.902344" xlink:href="#DejaVuSans-35"/>
      </g>
     </g>
    </g>
    <g id="ytick_23">
     <g id="line2d_83">
      <path clip-path="url(#p02e816871c)" d="M 57.987688 259.558372 
L 421.336525 259.558372 
" style="fill:none;stroke:#ffffff;stroke-linecap:square;"/>
     </g>
     <g id="line2d_84">
      <path d="M 57.987688 259.558372 
" style="fill:none;stroke:#333333;stroke-linecap:square;stroke-width:1.5;"/>
      <g>
       <use style="fill:#333333;stroke:#000000;" x="57.987688" xlink:href="#mf0763c3d23" y="259.558372"/>
      </g>
     </g>
     <g id="text_28">
      <!-- 0.89750 -->
      <g style="fill:#4d4d4d;" transform="translate(16.646938 261.986622)scale(0.088 -0.088)">
       <use xlink:href="#DejaVuSans-30"/>
       <use x="63.623047" xlink:href="#DejaVuSans-2e"/>
       <use x="95.410156" xlink:href="#DejaVuSans-38"/>
       <use x="159.033203" xlink:href="#DejaVuSans-39"/>
       <use x="222.65625" xlink:href="#DejaVuSans-37"/>
       <use x="286.279297" xlink:href="#DejaVuSans-35"/>
       <use x="349.902344" xlink:href="#DejaVuSans-30"/>
      </g>
     </g>
    </g>
    <g id="ytick_24">
     <g id="line2d_85">
      <path clip-path="url(#p02e816871c)" d="M 57.987688 446.510144 
L 421.336525 446.510144 
" style="fill:none;stroke:#ffffff;stroke-linecap:square;stroke-width:0.5;"/>
     </g>
    </g>
    <g id="ytick_25">
     <g id="line2d_86">
      <path clip-path="url(#p02e816871c)" d="M 57.987688 393.095352 
L 421.336525 393.095352 
" style="fill:none;stroke:#ffffff;stroke-linecap:square;stroke-width:0.5;"/>
     </g>
    </g>
    <g id="ytick_26">
     <g id="line2d_87">
      <path clip-path="url(#p02e816871c)" d="M 57.987688 339.68056 
L 421.336525 339.68056 
" style="fill:none;stroke:#ffffff;stroke-linecap:square;stroke-width:0.5;"/>
     </g>
    </g>
    <g id="ytick_27">
     <g id="line2d_88">
      <path clip-path="url(#p02e816871c)" d="M 57.987688 286.265768 
L 421.336525 286.265768 
" style="fill:none;stroke:#ffffff;stroke-linecap:square;stroke-width:0.5;"/>
     </g>
    </g>
   </g>
   <g id="PathCollection_3">
    <path clip-path="url(#p02e816871c)" d="M 74.503544 265.086991 
C 74.973604 265.086991 75.424475 264.900234 75.756858 264.567851 
C 76.089241 264.235468 76.275998 263.784597 76.275998 263.314537 
C 76.275998 262.844477 76.089241 262.393606 75.756858 262.061223 
C 75.424475 261.72884 74.973604 261.542083 74.503544 261.542083 
C 74.033483 261.542083 73.582612 261.72884 73.25023 262.061223 
C 72.917847 262.393606 72.73109 262.844477 72.73109 263.314537 
C 72.73109 263.784597 72.917847 264.235468 73.25023 264.567851 
C 73.582612 264.900234 74.033483 265.086991 74.503544 265.086991 
z
" style="fill:#a157db;stroke:#a157db;stroke-width:0.886227;"/>
    <path clip-path="url(#p02e816871c)" d="M 404.820668 437.207591 
C 405.290729 437.207591 405.7416 437.020835 406.073983 436.688452 
C 406.406365 436.356069 406.593122 435.905198 406.593122 435.435138 
C 406.593122 434.965077 406.406365 434.514206 406.073983 434.181823 
C 405.7416 433.849441 405.290729 433.662684 404.820668 433.662684 
C 404.350608 433.662684 403.899737 433.849441 403.567354 434.181823 
C 403.234972 434.514206 403.048215 434.965077 403.048215 435.435138 
C 403.048215 435.905198 403.234972 436.356069 403.567354 436.688452 
C 403.899737 437.020835 404.350608 437.207591 404.820668 437.207591 
z
" style="fill:#91db57;stroke:#91db57;stroke-width:0.886227;"/>
    <path clip-path="url(#p02e816871c)" d="M 404.820668 457.896082 
C 405.290729 457.896082 405.7416 457.709325 406.073983 457.376942 
C 406.406365 457.044559 406.593122 456.593688 406.593122 456.123628 
C 406.593122 455.653568 406.406365 455.202696 406.073983 454.870314 
C 405.7416 454.537931 405.290729 454.351174 404.820668 454.351174 
C 404.350608 454.351174 403.899737 454.537931 403.567354 454.870314 
C 403.234972 455.202696 403.048215 455.653568 403.048215 456.123628 
C 403.048215 456.593688 403.234972 457.044559 403.567354 457.376942 
C 403.899737 457.709325 404.350608 457.896082 404.820668 457.896082 
z
" style="fill:#db5f57;stroke:#db5f57;stroke-width:0.886227;"/>
    <path clip-path="url(#p02e816871c)" d="M 404.820668 375.038224 
C 405.290729 375.038224 405.7416 374.851467 406.073983 374.519084 
C 406.406365 374.186701 406.593122 373.73583 406.593122 373.26577 
C 406.593122 372.79571 406.406365 372.344839 406.073983 372.012456 
C 405.7416 371.680073 405.290729 371.493316 404.820668 371.493316 
C 404.350608 371.493316 403.899737 371.680073 403.567354 372.012456 
C 403.234972 372.344839 403.048215 372.79571 403.048215 373.26577 
C 403.048215 373.73583 403.234972 374.186701 403.567354 374.519084 
C 403.899737 374.851467 404.350608 375.038224 404.820668 375.038224 
z
" style="fill:#57d3db;stroke:#57d3db;stroke-width:0.886227;"/>
   </g>
   <g id="patch_12">
    <path d="M 57.987688 253.674082 
L 421.336525 253.674082 
L 421.336525 238.63 
L 57.987688 238.63 
z
" style="fill:#d9d9d9;"/>
   </g>
   <g id="text_29">
    <!-- F1 score: &lt;=50K -->
    <g style="fill:#1a1a1a;" transform="translate(202.373481 248.580291)scale(0.088 -0.088)">
     <defs>
      <path d="M 628 4666 
L 3309 4666 
L 3309 4134 
L 1259 4134 
L 1259 2759 
L 3109 2759 
L 3109 2228 
L 1259 2228 
L 1259 0 
L 628 0 
L 628 4666 
z
" id="DejaVuSans-46" transform="scale(0.015625)"/>
      <path d="M 1959 3097 
Q 1497 3097 1228 2736 
Q 959 2375 959 1747 
Q 959 1119 1226 758 
Q 1494 397 1959 397 
Q 2419 397 2687 759 
Q 2956 1122 2956 1747 
Q 2956 2369 2687 2733 
Q 2419 3097 1959 3097 
z
M 1959 3584 
Q 2709 3584 3137 3096 
Q 3566 2609 3566 1747 
Q 3566 888 3137 398 
Q 2709 -91 1959 -91 
Q 1206 -91 779 398 
Q 353 888 353 1747 
Q 353 2609 779 3096 
Q 1206 3584 1959 3584 
z
" id="DejaVuSans-6f" transform="scale(0.015625)"/>
      <path d="M 750 794 
L 1409 794 
L 1409 0 
L 750 0 
L 750 794 
z
M 750 3309 
L 1409 3309 
L 1409 2516 
L 750 2516 
L 750 3309 
z
" id="DejaVuSans-3a" transform="scale(0.015625)"/>
      <path d="M 4684 3150 
L 1459 2003 
L 4684 863 
L 4684 294 
L 678 1747 
L 678 2266 
L 4684 3719 
L 4684 3150 
z
" id="DejaVuSans-3c" transform="scale(0.015625)"/>
      <path d="M 678 2906 
L 4684 2906 
L 4684 2381 
L 678 2381 
L 678 2906 
z
M 678 1631 
L 4684 1631 
L 4684 1100 
L 678 1100 
L 678 1631 
z
" id="DejaVuSans-3d" transform="scale(0.015625)"/>
      <path d="M 628 4666 
L 1259 4666 
L 1259 2694 
L 3353 4666 
L 4166 4666 
L 1850 2491 
L 4331 0 
L 3500 0 
L 1259 2247 
L 1259 0 
L 628 0 
L 628 4666 
z
" id="DejaVuSans-4b" transform="scale(0.015625)"/>
     </defs>
     <use xlink:href="#DejaVuSans-46"/>
     <use x="57.519531" xlink:href="#DejaVuSans-31"/>
     <use x="121.142578" xlink:href="#DejaVuSans-20"/>
     <use x="152.929688" xlink:href="#DejaVuSans-73"/>
     <use x="205.029297" xlink:href="#DejaVuSans-63"/>
     <use x="260.009766" xlink:href="#DejaVuSans-6f"/>
     <use x="321.191406" xlink:href="#DejaVuSans-72"/>
     <use x="360.054688" xlink:href="#DejaVuSans-65"/>
     <use x="421.578125" xlink:href="#DejaVuSans-3a"/>
     <use x="455.269531" xlink:href="#DejaVuSans-20"/>
     <use x="487.056641" xlink:href="#DejaVuSans-3c"/>
     <use x="570.845703" xlink:href="#DejaVuSans-3d"/>
     <use x="654.634766" xlink:href="#DejaVuSans-35"/>
     <use x="718.257812" xlink:href="#DejaVuSans-30"/>
     <use x="781.880859" xlink:href="#DejaVuSans-4b"/>
    </g>
   </g>
  </g>
  <g id="axes_4">
   <g id="patch_13">
    <path d="M 475.83885 465.764082 
L 839.187688 465.764082 
L 839.187688 253.674082 
L 475.83885 253.674082 
z
" style="fill:#ebebeb;"/>
   </g>
   <g id="matplotlib.axis_7">
    <g id="xtick_34">
     <g id="line2d_89">
      <path clip-path="url(#p1891d8ee27)" d="M 492.354707 465.764082 
L 492.354707 253.674082 
" style="fill:none;stroke:#ffffff;stroke-linecap:square;"/>
     </g>
     <g id="line2d_90">
      <path d="M 492.354707 465.764082 
" style="fill:none;stroke:#333333;stroke-linecap:square;stroke-width:1.5;"/>
      <g>
       <use style="fill:#333333;stroke:#000000;" x="492.354707" xlink:href="#m8e95fe61b5" y="465.764082"/>
      </g>
     </g>
     <g id="text_30">
      <!-- 0 -->
      <g style="fill:#4d4d4d;" transform="translate(489.555207 477.400707)scale(0.088 -0.088)">
       <use xlink:href="#DejaVuSans-30"/>
      </g>
     </g>
    </g>
    <g id="xtick_35">
     <g id="line2d_91">
      <path clip-path="url(#p1891d8ee27)" d="M 558.418131 465.764082 
L 558.418131 253.674082 
" style="fill:none;stroke:#ffffff;stroke-linecap:square;"/>
     </g>
     <g id="line2d_92">
      <path d="M 558.418131 465.764082 
" style="fill:none;stroke:#333333;stroke-linecap:square;stroke-width:1.5;"/>
      <g>
       <use style="fill:#333333;stroke:#000000;" x="558.418131" xlink:href="#m8e95fe61b5" y="465.764082"/>
      </g>
     </g>
     <g id="text_31">
      <!-- 0.05 -->
      <g style="fill:#4d4d4d;" transform="translate(548.621256 477.400707)scale(0.088 -0.088)">
       <use xlink:href="#DejaVuSans-30"/>
       <use x="63.623047" xlink:href="#DejaVuSans-2e"/>
       <use x="95.410156" xlink:href="#DejaVuSans-30"/>
       <use x="159.033203" xlink:href="#DejaVuSans-35"/>
      </g>
     </g>
    </g>
    <g id="xtick_36">
     <g id="line2d_93">
      <path clip-path="url(#p1891d8ee27)" d="M 624.481556 465.764082 
L 624.481556 253.674082 
" style="fill:none;stroke:#ffffff;stroke-linecap:square;"/>
     </g>
     <g id="line2d_94">
      <path d="M 624.481556 465.764082 
" style="fill:none;stroke:#333333;stroke-linecap:square;stroke-width:1.5;"/>
      <g>
       <use style="fill:#333333;stroke:#000000;" x="624.481556" xlink:href="#m8e95fe61b5" y="465.764082"/>
      </g>
     </g>
     <g id="text_32">
      <!-- 0.10 -->
      <g style="fill:#4d4d4d;" transform="translate(614.684681 477.400707)scale(0.088 -0.088)">
       <use xlink:href="#DejaVuSans-30"/>
       <use x="63.623047" xlink:href="#DejaVuSans-2e"/>
       <use x="95.410156" xlink:href="#DejaVuSans-31"/>
       <use x="159.033203" xlink:href="#DejaVuSans-30"/>
      </g>
     </g>
    </g>
    <g id="xtick_37">
     <g id="line2d_95">
      <path clip-path="url(#p1891d8ee27)" d="M 690.544981 465.764082 
L 690.544981 253.674082 
" style="fill:none;stroke:#ffffff;stroke-linecap:square;"/>
     </g>
     <g id="line2d_96">
      <path d="M 690.544981 465.764082 
" style="fill:none;stroke:#333333;stroke-linecap:square;stroke-width:1.5;"/>
      <g>
       <use style="fill:#333333;stroke:#000000;" x="690.544981" xlink:href="#m8e95fe61b5" y="465.764082"/>
      </g>
     </g>
     <g id="text_33">
      <!-- 0.15 -->
      <g style="fill:#4d4d4d;" transform="translate(680.748106 477.400707)scale(0.088 -0.088)">
       <use xlink:href="#DejaVuSans-30"/>
       <use x="63.623047" xlink:href="#DejaVuSans-2e"/>
       <use x="95.410156" xlink:href="#DejaVuSans-31"/>
       <use x="159.033203" xlink:href="#DejaVuSans-35"/>
      </g>
     </g>
    </g>
    <g id="xtick_38">
     <g id="line2d_97">
      <path clip-path="url(#p1891d8ee27)" d="M 756.608406 465.764082 
L 756.608406 253.674082 
" style="fill:none;stroke:#ffffff;stroke-linecap:square;"/>
     </g>
     <g id="line2d_98">
      <path d="M 756.608406 465.764082 
" style="fill:none;stroke:#333333;stroke-linecap:square;stroke-width:1.5;"/>
      <g>
       <use style="fill:#333333;stroke:#000000;" x="756.608406" xlink:href="#m8e95fe61b5" y="465.764082"/>
      </g>
     </g>
     <g id="text_34">
      <!-- 0.20 -->
      <g style="fill:#4d4d4d;" transform="translate(746.811531 477.400707)scale(0.088 -0.088)">
       <use xlink:href="#DejaVuSans-30"/>
       <use x="63.623047" xlink:href="#DejaVuSans-2e"/>
       <use x="95.410156" xlink:href="#DejaVuSans-32"/>
       <use x="159.033203" xlink:href="#DejaVuSans-30"/>
      </g>
     </g>
    </g>
    <g id="xtick_39">
     <g id="line2d_99">
      <path clip-path="url(#p1891d8ee27)" d="M 822.671831 465.764082 
L 822.671831 253.674082 
" style="fill:none;stroke:#ffffff;stroke-linecap:square;"/>
     </g>
     <g id="line2d_100">
      <path d="M 822.671831 465.764082 
" style="fill:none;stroke:#333333;stroke-linecap:square;stroke-width:1.5;"/>
      <g>
       <use style="fill:#333333;stroke:#000000;" x="822.671831" xlink:href="#m8e95fe61b5" y="465.764082"/>
      </g>
     </g>
     <g id="text_35">
      <!-- 0.25 -->
      <g style="fill:#4d4d4d;" transform="translate(812.874956 477.400707)scale(0.088 -0.088)">
       <use xlink:href="#DejaVuSans-30"/>
       <use x="63.623047" xlink:href="#DejaVuSans-2e"/>
       <use x="95.410156" xlink:href="#DejaVuSans-32"/>
       <use x="159.033203" xlink:href="#DejaVuSans-35"/>
      </g>
     </g>
    </g>
    <g id="xtick_40">
     <g id="line2d_101">
      <path clip-path="url(#p1891d8ee27)" d="M 525.386419 465.764082 
L 525.386419 253.674082 
" style="fill:none;stroke:#ffffff;stroke-linecap:square;stroke-width:0.5;"/>
     </g>
    </g>
    <g id="xtick_41">
     <g id="line2d_102">
      <path clip-path="url(#p1891d8ee27)" d="M 591.449844 465.764082 
L 591.449844 253.674082 
" style="fill:none;stroke:#ffffff;stroke-linecap:square;stroke-width:0.5;"/>
     </g>
    </g>
    <g id="xtick_42">
     <g id="line2d_103">
      <path clip-path="url(#p1891d8ee27)" d="M 657.513269 465.764082 
L 657.513269 253.674082 
" style="fill:none;stroke:#ffffff;stroke-linecap:square;stroke-width:0.5;"/>
     </g>
    </g>
    <g id="xtick_43">
     <g id="line2d_104">
      <path clip-path="url(#p1891d8ee27)" d="M 723.576694 465.764082 
L 723.576694 253.674082 
" style="fill:none;stroke:#ffffff;stroke-linecap:square;stroke-width:0.5;"/>
     </g>
    </g>
    <g id="xtick_44">
     <g id="line2d_105">
      <path clip-path="url(#p1891d8ee27)" d="M 789.640119 465.764082 
L 789.640119 253.674082 
" style="fill:none;stroke:#ffffff;stroke-linecap:square;stroke-width:0.5;"/>
     </g>
    </g>
    <g id="text_36">
     <!-- Rate -->
     <g transform="translate(423.378938 491.989114)scale(0.11 -0.11)">
      <defs>
       <path d="M 2841 2188 
Q 3044 2119 3236 1894 
Q 3428 1669 3622 1275 
L 4263 0 
L 3584 0 
L 2988 1197 
Q 2756 1666 2539 1819 
Q 2322 1972 1947 1972 
L 1259 1972 
L 1259 0 
L 628 0 
L 628 4666 
L 2053 4666 
Q 2853 4666 3247 4331 
Q 3641 3997 3641 3322 
Q 3641 2881 3436 2590 
Q 3231 2300 2841 2188 
z
M 1259 4147 
L 1259 2491 
L 2053 2491 
Q 2509 2491 2742 2702 
Q 2975 2913 2975 3322 
Q 2975 3731 2742 3939 
Q 2509 4147 2053 4147 
L 1259 4147 
z
" id="DejaVuSans-52" transform="scale(0.015625)"/>
       <path d="M 1172 4494 
L 1172 3500 
L 2356 3500 
L 2356 3053 
L 1172 3053 
L 1172 1153 
Q 1172 725 1289 603 
Q 1406 481 1766 481 
L 2356 481 
L 2356 0 
L 1766 0 
Q 1100 0 847 248 
Q 594 497 594 1153 
L 594 3053 
L 172 3053 
L 172 3500 
L 594 3500 
L 594 4494 
L 1172 4494 
z
" id="DejaVuSans-74" transform="scale(0.015625)"/>
      </defs>
      <use xlink:href="#DejaVuSans-52"/>
      <use x="67.232422" xlink:href="#DejaVuSans-61"/>
      <use x="128.511719" xlink:href="#DejaVuSans-74"/>
      <use x="167.720703" xlink:href="#DejaVuSans-65"/>
     </g>
    </g>
   </g>
   <g id="matplotlib.axis_8">
    <g id="ytick_28">
     <g id="line2d_106">
      <path clip-path="url(#p1891d8ee27)" d="M 475.83885 435.236428 
L 839.187688 435.236428 
" style="fill:none;stroke:#ffffff;stroke-linecap:square;"/>
     </g>
     <g id="line2d_107">
      <path d="M 475.83885 435.236428 
" style="fill:none;stroke:#333333;stroke-linecap:square;stroke-width:1.5;"/>
      <g>
       <use style="fill:#333333;stroke:#000000;" x="475.83885" xlink:href="#mf0763c3d23" y="435.236428"/>
      </g>
     </g>
     <g id="text_37">
      <!-- 0.655 -->
      <g style="fill:#4d4d4d;" transform="translate(445.6961 437.664678)scale(0.088 -0.088)">
       <use xlink:href="#DejaVuSans-30"/>
       <use x="63.623047" xlink:href="#DejaVuSans-2e"/>
       <use x="95.410156" xlink:href="#DejaVuSans-36"/>
       <use x="159.033203" xlink:href="#DejaVuSans-35"/>
       <use x="222.65625" xlink:href="#DejaVuSans-35"/>
      </g>
     </g>
    </g>
    <g id="ytick_29">
     <g id="line2d_108">
      <path clip-path="url(#p1891d8ee27)" d="M 475.83885 389.739783 
L 839.187688 389.739783 
" style="fill:none;stroke:#ffffff;stroke-linecap:square;"/>
     </g>
     <g id="line2d_109">
      <path d="M 475.83885 389.739783 
" style="fill:none;stroke:#333333;stroke-linecap:square;stroke-width:1.5;"/>
      <g>
       <use style="fill:#333333;stroke:#000000;" x="475.83885" xlink:href="#mf0763c3d23" y="389.739783"/>
      </g>
     </g>
     <g id="text_38">
      <!-- 0.656 -->
      <g style="fill:#4d4d4d;" transform="translate(445.6961 392.168033)scale(0.088 -0.088)">
       <use xlink:href="#DejaVuSans-30"/>
       <use x="63.623047" xlink:href="#DejaVuSans-2e"/>
       <use x="95.410156" xlink:href="#DejaVuSans-36"/>
       <use x="159.033203" xlink:href="#DejaVuSans-35"/>
       <use x="222.65625" xlink:href="#DejaVuSans-36"/>
      </g>
     </g>
    </g>
    <g id="ytick_30">
     <g id="line2d_110">
      <path clip-path="url(#p1891d8ee27)" d="M 475.83885 344.243138 
L 839.187688 344.243138 
" style="fill:none;stroke:#ffffff;stroke-linecap:square;"/>
     </g>
     <g id="line2d_111">
      <path d="M 475.83885 344.243138 
" style="fill:none;stroke:#333333;stroke-linecap:square;stroke-width:1.5;"/>
      <g>
       <use style="fill:#333333;stroke:#000000;" x="475.83885" xlink:href="#mf0763c3d23" y="344.243138"/>
      </g>
     </g>
     <g id="text_39">
      <!-- 0.657 -->
      <g style="fill:#4d4d4d;" transform="translate(445.6961 346.671388)scale(0.088 -0.088)">
       <use xlink:href="#DejaVuSans-30"/>
       <use x="63.623047" xlink:href="#DejaVuSans-2e"/>
       <use x="95.410156" xlink:href="#DejaVuSans-36"/>
       <use x="159.033203" xlink:href="#DejaVuSans-35"/>
       <use x="222.65625" xlink:href="#DejaVuSans-37"/>
      </g>
     </g>
    </g>
    <g id="ytick_31">
     <g id="line2d_112">
      <path clip-path="url(#p1891d8ee27)" d="M 475.83885 298.746493 
L 839.187688 298.746493 
" style="fill:none;stroke:#ffffff;stroke-linecap:square;"/>
     </g>
     <g id="line2d_113">
      <path d="M 475.83885 298.746493 
" style="fill:none;stroke:#333333;stroke-linecap:square;stroke-width:1.5;"/>
      <g>
       <use style="fill:#333333;stroke:#000000;" x="475.83885" xlink:href="#mf0763c3d23" y="298.746493"/>
      </g>
     </g>
     <g id="text_40">
      <!-- 0.658 -->
      <g style="fill:#4d4d4d;" transform="translate(445.6961 301.174743)scale(0.088 -0.088)">
       <use xlink:href="#DejaVuSans-30"/>
       <use x="63.623047" xlink:href="#DejaVuSans-2e"/>
       <use x="95.410156" xlink:href="#DejaVuSans-36"/>
       <use x="159.033203" xlink:href="#DejaVuSans-35"/>
       <use x="222.65625" xlink:href="#DejaVuSans-38"/>
      </g>
     </g>
    </g>
    <g id="ytick_32">
     <g id="line2d_114">
      <path clip-path="url(#p1891d8ee27)" d="M 475.83885 457.98475 
L 839.187688 457.98475 
" style="fill:none;stroke:#ffffff;stroke-linecap:square;stroke-width:0.5;"/>
     </g>
    </g>
    <g id="ytick_33">
     <g id="line2d_115">
      <path clip-path="url(#p1891d8ee27)" d="M 475.83885 412.488105 
L 839.187688 412.488105 
" style="fill:none;stroke:#ffffff;stroke-linecap:square;stroke-width:0.5;"/>
     </g>
    </g>
    <g id="ytick_34">
     <g id="line2d_116">
      <path clip-path="url(#p1891d8ee27)" d="M 475.83885 366.99146 
L 839.187688 366.99146 
" style="fill:none;stroke:#ffffff;stroke-linecap:square;stroke-width:0.5;"/>
     </g>
    </g>
    <g id="ytick_35">
     <g id="line2d_117">
      <path clip-path="url(#p1891d8ee27)" d="M 475.83885 321.494815 
L 839.187688 321.494815 
" style="fill:none;stroke:#ffffff;stroke-linecap:square;stroke-width:0.5;"/>
     </g>
    </g>
    <g id="ytick_36">
     <g id="line2d_118">
      <path clip-path="url(#p1891d8ee27)" d="M 475.83885 275.99817 
L 839.187688 275.99817 
" style="fill:none;stroke:#ffffff;stroke-linecap:square;stroke-width:0.5;"/>
     </g>
    </g>
   </g>
   <g id="PathCollection_4">
    <path clip-path="url(#p1891d8ee27)" d="M 492.354707 265.086991 
C 492.824767 265.086991 493.275638 264.900234 493.608021 264.567851 
C 493.940403 264.235468 494.12716 263.784597 494.12716 263.314537 
C 494.12716 262.844477 493.940403 262.393606 493.608021 262.061223 
C 493.275638 261.72884 492.824767 261.542083 492.354707 261.542083 
C 491.884646 261.542083 491.433775 261.72884 491.101392 262.061223 
C 490.76901 262.393606 490.582253 262.844477 490.582253 263.314537 
C 490.582253 263.784597 490.76901 264.235468 491.101392 264.567851 
C 491.433775 264.900234 491.884646 265.086991 492.354707 265.086991 
z
" style="fill:#a157db;stroke:#a157db;stroke-width:0.886227;"/>
    <path clip-path="url(#p1891d8ee27)" d="M 822.671831 389.839936 
C 823.141892 389.839936 823.592763 389.653179 823.925145 389.320796 
C 824.257528 388.988413 824.444285 388.537542 824.444285 388.067482 
C 824.444285 387.597422 824.257528 387.14655 823.925145 386.814168 
C 823.592763 386.481785 823.141892 386.295028 822.671831 386.295028 
C 822.201771 386.295028 821.7509 386.481785 821.418517 386.814168 
C 821.086134 387.14655 820.899377 387.597422 820.899377 388.067482 
C 820.899377 388.537542 821.086134 388.988413 821.418517 389.320796 
C 821.7509 389.653179 822.201771 389.839936 822.671831 389.839936 
z
" style="fill:#91db57;stroke:#91db57;stroke-width:0.886227;"/>
    <path clip-path="url(#p1891d8ee27)" d="M 822.671831 457.896082 
C 823.141892 457.896082 823.592763 457.709325 823.925145 457.376942 
C 824.257528 457.044559 824.444285 456.593688 824.444285 456.123628 
C 824.444285 455.653568 824.257528 455.202696 823.925145 454.870314 
C 823.592763 454.537931 823.141892 454.351174 822.671831 454.351174 
C 822.201771 454.351174 821.7509 454.537931 821.418517 454.870314 
C 821.086134 455.202696 820.899377 455.653568 820.899377 456.123628 
C 820.899377 456.593688 821.086134 457.044559 821.418517 457.376942 
C 821.7509 457.709325 822.201771 457.896082 822.671831 457.896082 
z
" style="fill:#db5f57;stroke:#db5f57;stroke-width:0.886227;"/>
    <path clip-path="url(#p1891d8ee27)" d="M 822.671831 341.564694 
C 823.141892 341.564694 823.592763 341.377938 823.925145 341.045555 
C 824.257528 340.713172 824.444285 340.262301 824.444285 339.792241 
C 824.444285 339.32218 824.257528 338.871309 823.925145 338.538926 
C 823.592763 338.206544 823.141892 338.019787 822.671831 338.019787 
C 822.201771 338.019787 821.7509 338.206544 821.418517 338.538926 
C 821.086134 338.871309 820.899377 339.32218 820.899377 339.792241 
C 820.899377 340.262301 821.086134 340.713172 821.418517 341.045555 
C 821.7509 341.377938 822.201771 341.564694 822.671831 341.564694 
z
" style="fill:#57d3db;stroke:#57d3db;stroke-width:0.886227;"/>
   </g>
   <g id="patch_14">
    <path d="M 475.83885 253.674082 
L 839.187688 253.674082 
L 839.187688 238.63 
L 475.83885 238.63 
z
" style="fill:#d9d9d9;"/>
   </g>
   <g id="text_41">
    <!-- F1 score: &gt;50K -->
    <g style="fill:#1a1a1a;" transform="translate(623.911706 248.580291)scale(0.088 -0.088)">
     <defs>
      <path d="M 678 3150 
L 678 3719 
L 4684 2266 
L 4684 1747 
L 678 294 
L 678 863 
L 3897 2003 
L 678 3150 
z
" id="DejaVuSans-3e" transform="scale(0.015625)"/>
     </defs>
     <use xlink:href="#DejaVuSans-46"/>
     <use x="57.519531" xlink:href="#DejaVuSans-31"/>
     <use x="121.142578" xlink:href="#DejaVuSans-20"/>
     <use x="152.929688" xlink:href="#DejaVuSans-73"/>
     <use x="205.029297" xlink:href="#DejaVuSans-63"/>
     <use x="260.009766" xlink:href="#DejaVuSans-6f"/>
     <use x="321.191406" xlink:href="#DejaVuSans-72"/>
     <use x="360.054688" xlink:href="#DejaVuSans-65"/>
     <use x="421.578125" xlink:href="#DejaVuSans-3a"/>
     <use x="455.269531" xlink:href="#DejaVuSans-20"/>
     <use x="487.056641" xlink:href="#DejaVuSans-3e"/>
     <use x="570.845703" xlink:href="#DejaVuSans-35"/>
     <use x="634.46875" xlink:href="#DejaVuSans-30"/>
     <use x="698.091797" xlink:href="#DejaVuSans-4b"/>
    </g>
   </g>
  </g>
 </g>
 <defs>
  <clipPath id="p0de515c127">
   <rect height="212.09" width="363.348837" x="57.987688" y="22.244082"/>
  </clipPath>
  <clipPath id="p6e55cd660f">
   <path d="M 858.587688 229.807051 
L 858.587688 213.967051 
L 874.427688 213.967051 
L 874.427688 229.807051 
"/>
  </clipPath>
  <clipPath id="p285a56c710">
   <path d="M 858.587688 247.647051 
L 858.587688 231.807051 
L 874.427688 231.807051 
L 874.427688 247.647051 
"/>
  </clipPath>
  <clipPath id="p7f57eb77f1">
   <path d="M 858.587688 265.487051 
L 858.587688 249.647051 
L 874.427688 249.647051 
L 874.427688 265.487051 
"/>
  </clipPath>
  <clipPath id="pc450daa2c3">
   <path d="M 858.587688 283.327051 
L 858.587688 267.487051 
L 874.427688 267.487051 
L 874.427688 283.327051 
"/>
  </clipPath>
  <clipPath id="p1af7212a96">
   <rect height="212.09" width="363.348837" x="475.83885" y="22.244082"/>
  </clipPath>
  <clipPath id="p02e816871c">
   <rect height="212.09" width="363.348837" x="57.987688" y="253.674082"/>
  </clipPath>
  <clipPath id="p1891d8ee27">
   <rect height="212.09" width="363.348837" x="475.83885" y="253.674082"/>
  </clipPath>
 </defs>
</svg>
