<?xml version="1.0" encoding="utf-8" standalone="no"?>
<!DOCTYPE svg PUBLIC "-//W3C//DTD SVG 1.1//EN"
  "http://www.w3.org/Graphics/SVG/1.1/DTD/svg11.dtd">
<svg height="501.47677pt" version="1.1" viewBox="0 0 1050.880875 501.47677" width="1050.880875pt" xmlns="http://www.w3.org/2000/svg" xmlns:xlink="http://www.w3.org/1999/xlink">
 <metadata>
  <rdf:RDF xmlns:cc="http://creativecommons.org/ns#" xmlns:dc="http://purl.org/dc/elements/1.1/" xmlns:rdf="http://www.w3.org/1999/02/22-rdf-syntax-ns#">
   <cc:Work>
    <dc:type rdf:resource="http://purl.org/dc/dcmitype/StillImage"/>
    <dc:date>2022-06-13T20:38:43.311877</dc:date>
    <dc:format>image/svg+xml</dc:format>
    <dc:creator>
     <cc:Agent>
      <dc:title>Matplotlib v3.4.3, https://matplotlib.org/</dc:title>
     </cc:Agent>
    </dc:creator>
   </cc:Work>
  </rdf:RDF>
 </metadata>
 <defs>
  <style type="text/css">*{stroke-linecap:butt;stroke-linejoin:round;}</style>
 </defs>
 <g id="figure_1">
  <g id="patch_1">
   <path d="M 0 501.47677 
L 1050.880875 501.47677 
L 1050.880875 0 
L 0 0 
z
" style="fill:#ffffff;stroke:#ffffff;stroke-linejoin:miter;"/>
  </g>
  <g id="axes_1">
   <g id="patch_2">
    <path d="M 52.388688 234.334082 
L 415.737525 234.334082 
L 415.737525 22.244082 
L 52.388688 22.244082 
z
" style="fill:#ebebeb;"/>
   </g>
   <g id="matplotlib.axis_1">
    <g id="xtick_1">
     <g id="line2d_1">
      <path clip-path="url(#pdd82949e66)" d="M 104.295664 234.334082 
L 104.295664 22.244082 
" style="fill:none;stroke:#ffffff;"/>
     </g>
    </g>
    <g id="xtick_2">
     <g id="line2d_2">
      <path clip-path="url(#pdd82949e66)" d="M 363.830548 234.334082 
L 363.830548 22.244082 
" style="fill:none;stroke:#ffffff;"/>
     </g>
    </g>
    <g id="xtick_3">
     <g id="line2d_3">
      <path clip-path="url(#pdd82949e66)" d="M 234.063106 234.334082 
L 234.063106 22.244082 
" style="fill:none;stroke:#ffffff;stroke-width:0.5;"/>
     </g>
    </g>
   </g>
   <g id="matplotlib.axis_2">
    <g id="ytick_1">
     <g id="line2d_4">
      <path clip-path="url(#pdd82949e66)" d="M 52.388688 204.012785 
L 415.737525 204.012785 
" style="fill:none;stroke:#ffffff;"/>
     </g>
     <g id="line2d_5">
      <path d="M 52.388688 204.012785 
" style="fill:none;stroke:#333333;stroke-width:1.5;"/>
      <defs>
       <path d="M 0 0 
L -2.75 0 
" id="mdc51d6f769" style="stroke:#000000;"/>
      </defs>
      <g>
       <use style="fill:#333333;stroke:#000000;" x="52.388688" xlink:href="#mdc51d6f769" y="204.012785"/>
      </g>
     </g>
     <g id="text_1">
      <!-- 0.839 -->
      <g style="fill:#4d4d4d;" transform="translate(22.245938 206.441035)scale(0.088 -0.088)">
       <defs>
        <path d="M 2034 4250 
Q 1547 4250 1301 3770 
Q 1056 3291 1056 2328 
Q 1056 1369 1301 889 
Q 1547 409 2034 409 
Q 2525 409 2770 889 
Q 3016 1369 3016 2328 
Q 3016 3291 2770 3770 
Q 2525 4250 2034 4250 
z
M 2034 4750 
Q 2819 4750 3233 4129 
Q 3647 3509 3647 2328 
Q 3647 1150 3233 529 
Q 2819 -91 2034 -91 
Q 1250 -91 836 529 
Q 422 1150 422 2328 
Q 422 3509 836 4129 
Q 1250 4750 2034 4750 
z
" id="DejaVuSans-30" transform="scale(0.015625)"/>
        <path d="M 684 794 
L 1344 794 
L 1344 0 
L 684 0 
L 684 794 
z
" id="DejaVuSans-2e" transform="scale(0.015625)"/>
        <path d="M 2034 2216 
Q 1584 2216 1326 1975 
Q 1069 1734 1069 1313 
Q 1069 891 1326 650 
Q 1584 409 2034 409 
Q 2484 409 2743 651 
Q 3003 894 3003 1313 
Q 3003 1734 2745 1975 
Q 2488 2216 2034 2216 
z
M 1403 2484 
Q 997 2584 770 2862 
Q 544 3141 544 3541 
Q 544 4100 942 4425 
Q 1341 4750 2034 4750 
Q 2731 4750 3128 4425 
Q 3525 4100 3525 3541 
Q 3525 3141 3298 2862 
Q 3072 2584 2669 2484 
Q 3125 2378 3379 2068 
Q 3634 1759 3634 1313 
Q 3634 634 3220 271 
Q 2806 -91 2034 -91 
Q 1263 -91 848 271 
Q 434 634 434 1313 
Q 434 1759 690 2068 
Q 947 2378 1403 2484 
z
M 1172 3481 
Q 1172 3119 1398 2916 
Q 1625 2713 2034 2713 
Q 2441 2713 2670 2916 
Q 2900 3119 2900 3481 
Q 2900 3844 2670 4047 
Q 2441 4250 2034 4250 
Q 1625 4250 1398 4047 
Q 1172 3844 1172 3481 
z
" id="DejaVuSans-38" transform="scale(0.015625)"/>
        <path d="M 2597 2516 
Q 3050 2419 3304 2112 
Q 3559 1806 3559 1356 
Q 3559 666 3084 287 
Q 2609 -91 1734 -91 
Q 1441 -91 1130 -33 
Q 819 25 488 141 
L 488 750 
Q 750 597 1062 519 
Q 1375 441 1716 441 
Q 2309 441 2620 675 
Q 2931 909 2931 1356 
Q 2931 1769 2642 2001 
Q 2353 2234 1838 2234 
L 1294 2234 
L 1294 2753 
L 1863 2753 
Q 2328 2753 2575 2939 
Q 2822 3125 2822 3475 
Q 2822 3834 2567 4026 
Q 2313 4219 1838 4219 
Q 1578 4219 1281 4162 
Q 984 4106 628 3988 
L 628 4550 
Q 988 4650 1302 4700 
Q 1616 4750 1894 4750 
Q 2613 4750 3031 4423 
Q 3450 4097 3450 3541 
Q 3450 3153 3228 2886 
Q 3006 2619 2597 2516 
z
" id="DejaVuSans-33" transform="scale(0.015625)"/>
        <path d="M 703 97 
L 703 672 
Q 941 559 1184 500 
Q 1428 441 1663 441 
Q 2288 441 2617 861 
Q 2947 1281 2994 2138 
Q 2813 1869 2534 1725 
Q 2256 1581 1919 1581 
Q 1219 1581 811 2004 
Q 403 2428 403 3163 
Q 403 3881 828 4315 
Q 1253 4750 1959 4750 
Q 2769 4750 3195 4129 
Q 3622 3509 3622 2328 
Q 3622 1225 3098 567 
Q 2575 -91 1691 -91 
Q 1453 -91 1209 -44 
Q 966 3 703 97 
z
M 1959 2075 
Q 2384 2075 2632 2365 
Q 2881 2656 2881 3163 
Q 2881 3666 2632 3958 
Q 2384 4250 1959 4250 
Q 1534 4250 1286 3958 
Q 1038 3666 1038 3163 
Q 1038 2656 1286 2365 
Q 1534 2075 1959 2075 
z
" id="DejaVuSans-39" transform="scale(0.015625)"/>
       </defs>
       <use xlink:href="#DejaVuSans-30"/>
       <use x="63.623047" xlink:href="#DejaVuSans-2e"/>
       <use x="95.410156" xlink:href="#DejaVuSans-38"/>
       <use x="159.033203" xlink:href="#DejaVuSans-33"/>
       <use x="222.65625" xlink:href="#DejaVuSans-39"/>
      </g>
     </g>
    </g>
    <g id="ytick_2">
     <g id="line2d_6">
      <path clip-path="url(#pdd82949e66)" d="M 52.388688 156.096862 
L 415.737525 156.096862 
" style="fill:none;stroke:#ffffff;"/>
     </g>
     <g id="line2d_7">
      <path d="M 52.388688 156.096862 
" style="fill:none;stroke:#333333;stroke-width:1.5;"/>
      <g>
       <use style="fill:#333333;stroke:#000000;" x="52.388688" xlink:href="#mdc51d6f769" y="156.096862"/>
      </g>
     </g>
     <g id="text_2">
      <!-- 0.840 -->
      <g style="fill:#4d4d4d;" transform="translate(22.245938 158.525112)scale(0.088 -0.088)">
       <defs>
        <path d="M 2419 4116 
L 825 1625 
L 2419 1625 
L 2419 4116 
z
M 2253 4666 
L 3047 4666 
L 3047 1625 
L 3713 1625 
L 3713 1100 
L 3047 1100 
L 3047 0 
L 2419 0 
L 2419 1100 
L 313 1100 
L 313 1709 
L 2253 4666 
z
" id="DejaVuSans-34" transform="scale(0.015625)"/>
       </defs>
       <use xlink:href="#DejaVuSans-30"/>
       <use x="63.623047" xlink:href="#DejaVuSans-2e"/>
       <use x="95.410156" xlink:href="#DejaVuSans-38"/>
       <use x="159.033203" xlink:href="#DejaVuSans-34"/>
       <use x="222.65625" xlink:href="#DejaVuSans-30"/>
      </g>
     </g>
    </g>
    <g id="ytick_3">
     <g id="line2d_8">
      <path clip-path="url(#pdd82949e66)" d="M 52.388688 108.18094 
L 415.737525 108.18094 
" style="fill:none;stroke:#ffffff;"/>
     </g>
     <g id="line2d_9">
      <path d="M 52.388688 108.18094 
" style="fill:none;stroke:#333333;stroke-width:1.5;"/>
      <g>
       <use style="fill:#333333;stroke:#000000;" x="52.388688" xlink:href="#mdc51d6f769" y="108.18094"/>
      </g>
     </g>
     <g id="text_3">
      <!-- 0.841 -->
      <g style="fill:#4d4d4d;" transform="translate(22.245938 110.60919)scale(0.088 -0.088)">
       <defs>
        <path d="M 794 531 
L 1825 531 
L 1825 4091 
L 703 3866 
L 703 4441 
L 1819 4666 
L 2450 4666 
L 2450 531 
L 3481 531 
L 3481 0 
L 794 0 
L 794 531 
z
" id="DejaVuSans-31" transform="scale(0.015625)"/>
       </defs>
       <use xlink:href="#DejaVuSans-30"/>
       <use x="63.623047" xlink:href="#DejaVuSans-2e"/>
       <use x="95.410156" xlink:href="#DejaVuSans-38"/>
       <use x="159.033203" xlink:href="#DejaVuSans-34"/>
       <use x="222.65625" xlink:href="#DejaVuSans-31"/>
      </g>
     </g>
    </g>
    <g id="ytick_4">
     <g id="line2d_10">
      <path clip-path="url(#pdd82949e66)" d="M 52.388688 60.265017 
L 415.737525 60.265017 
" style="fill:none;stroke:#ffffff;"/>
     </g>
     <g id="line2d_11">
      <path d="M 52.388688 60.265017 
" style="fill:none;stroke:#333333;stroke-width:1.5;"/>
      <g>
       <use style="fill:#333333;stroke:#000000;" x="52.388688" xlink:href="#mdc51d6f769" y="60.265017"/>
      </g>
     </g>
     <g id="text_4">
      <!-- 0.842 -->
      <g style="fill:#4d4d4d;" transform="translate(22.245938 62.693267)scale(0.088 -0.088)">
       <defs>
        <path d="M 1228 531 
L 3431 531 
L 3431 0 
L 469 0 
L 469 531 
Q 828 903 1448 1529 
Q 2069 2156 2228 2338 
Q 2531 2678 2651 2914 
Q 2772 3150 2772 3378 
Q 2772 3750 2511 3984 
Q 2250 4219 1831 4219 
Q 1534 4219 1204 4116 
Q 875 4013 500 3803 
L 500 4441 
Q 881 4594 1212 4672 
Q 1544 4750 1819 4750 
Q 2544 4750 2975 4387 
Q 3406 4025 3406 3419 
Q 3406 3131 3298 2873 
Q 3191 2616 2906 2266 
Q 2828 2175 2409 1742 
Q 1991 1309 1228 531 
z
" id="DejaVuSans-32" transform="scale(0.015625)"/>
       </defs>
       <use xlink:href="#DejaVuSans-30"/>
       <use x="63.623047" xlink:href="#DejaVuSans-2e"/>
       <use x="95.410156" xlink:href="#DejaVuSans-38"/>
       <use x="159.033203" xlink:href="#DejaVuSans-34"/>
       <use x="222.65625" xlink:href="#DejaVuSans-32"/>
      </g>
     </g>
    </g>
    <g id="ytick_5">
     <g id="line2d_12">
      <path clip-path="url(#pdd82949e66)" d="M 52.388688 227.970746 
L 415.737525 227.970746 
" style="fill:none;stroke:#ffffff;stroke-width:0.5;"/>
     </g>
    </g>
    <g id="ytick_6">
     <g id="line2d_13">
      <path clip-path="url(#pdd82949e66)" d="M 52.388688 180.054823 
L 415.737525 180.054823 
" style="fill:none;stroke:#ffffff;stroke-width:0.5;"/>
     </g>
    </g>
    <g id="ytick_7">
     <g id="line2d_14">
      <path clip-path="url(#pdd82949e66)" d="M 52.388688 132.138901 
L 415.737525 132.138901 
" style="fill:none;stroke:#ffffff;stroke-width:0.5;"/>
     </g>
    </g>
    <g id="ytick_8">
     <g id="line2d_15">
      <path clip-path="url(#pdd82949e66)" d="M 52.388688 84.222978 
L 415.737525 84.222978 
" style="fill:none;stroke:#ffffff;stroke-width:0.5;"/>
     </g>
    </g>
    <g id="ytick_9">
     <g id="line2d_16">
      <path clip-path="url(#pdd82949e66)" d="M 52.388688 36.307056 
L 415.737525 36.307056 
" style="fill:none;stroke:#ffffff;stroke-width:0.5;"/>
     </g>
    </g>
    <g id="text_5">
     <!-- Value -->
     <g transform="translate(15.558281 256.228457)rotate(-90)scale(0.11 -0.11)">
      <defs>
       <path d="M 1831 0 
L 50 4666 
L 709 4666 
L 2188 738 
L 3669 4666 
L 4325 4666 
L 2547 0 
L 1831 0 
z
" id="DejaVuSans-56" transform="scale(0.015625)"/>
       <path d="M 2194 1759 
Q 1497 1759 1228 1600 
Q 959 1441 959 1056 
Q 959 750 1161 570 
Q 1363 391 1709 391 
Q 2188 391 2477 730 
Q 2766 1069 2766 1631 
L 2766 1759 
L 2194 1759 
z
M 3341 1997 
L 3341 0 
L 2766 0 
L 2766 531 
Q 2569 213 2275 61 
Q 1981 -91 1556 -91 
Q 1019 -91 701 211 
Q 384 513 384 1019 
Q 384 1609 779 1909 
Q 1175 2209 1959 2209 
L 2766 2209 
L 2766 2266 
Q 2766 2663 2505 2880 
Q 2244 3097 1772 3097 
Q 1472 3097 1187 3025 
Q 903 2953 641 2809 
L 641 3341 
Q 956 3463 1253 3523 
Q 1550 3584 1831 3584 
Q 2591 3584 2966 3190 
Q 3341 2797 3341 1997 
z
" id="DejaVuSans-61" transform="scale(0.015625)"/>
       <path d="M 603 4863 
L 1178 4863 
L 1178 0 
L 603 0 
L 603 4863 
z
" id="DejaVuSans-6c" transform="scale(0.015625)"/>
       <path d="M 544 1381 
L 544 3500 
L 1119 3500 
L 1119 1403 
Q 1119 906 1312 657 
Q 1506 409 1894 409 
Q 2359 409 2629 706 
Q 2900 1003 2900 1516 
L 2900 3500 
L 3475 3500 
L 3475 0 
L 2900 0 
L 2900 538 
Q 2691 219 2414 64 
Q 2138 -91 1772 -91 
Q 1169 -91 856 284 
Q 544 659 544 1381 
z
M 1991 3584 
L 1991 3584 
z
" id="DejaVuSans-75" transform="scale(0.015625)"/>
       <path d="M 3597 1894 
L 3597 1613 
L 953 1613 
Q 991 1019 1311 708 
Q 1631 397 2203 397 
Q 2534 397 2845 478 
Q 3156 559 3463 722 
L 3463 178 
Q 3153 47 2828 -22 
Q 2503 -91 2169 -91 
Q 1331 -91 842 396 
Q 353 884 353 1716 
Q 353 2575 817 3079 
Q 1281 3584 2069 3584 
Q 2775 3584 3186 3129 
Q 3597 2675 3597 1894 
z
M 3022 2063 
Q 3016 2534 2758 2815 
Q 2500 3097 2075 3097 
Q 1594 3097 1305 2825 
Q 1016 2553 972 2059 
L 3022 2063 
z
" id="DejaVuSans-65" transform="scale(0.015625)"/>
      </defs>
      <use xlink:href="#DejaVuSans-56"/>
      <use x="60.658203" xlink:href="#DejaVuSans-61"/>
      <use x="121.9375" xlink:href="#DejaVuSans-6c"/>
      <use x="149.720703" xlink:href="#DejaVuSans-75"/>
      <use x="213.099609" xlink:href="#DejaVuSans-65"/>
     </g>
    </g>
   </g>
   <g id="line2d_17">
    <path clip-path="url(#pdd82949e66)" d="M 104.295664 224.693628 
L 363.830548 40.793208 
" style="fill:none;stroke:#db5f57;stroke-width:0.886227;"/>
   </g>
   <g id="PathCollection_1">
    <path clip-path="url(#pdd82949e66)" d="M 104.295664 226.466082 
C 104.765725 226.466082 105.216596 226.279325 105.548978 225.946942 
C 105.881361 225.614559 106.068118 225.163688 106.068118 224.693628 
C 106.068118 224.223568 105.881361 223.772696 105.548978 223.440314 
C 105.216596 223.107931 104.765725 222.921174 104.295664 222.921174 
C 103.825604 222.921174 103.374733 223.107931 103.04235 223.440314 
C 102.709967 223.772696 102.52321 224.223568 102.52321 224.693628 
C 102.52321 225.163688 102.709967 225.614559 103.04235 225.946942 
C 103.374733 226.279325 103.825604 226.466082 104.295664 226.466082 
z
" style="fill:#db5f57;stroke:#db5f57;stroke-width:0.886227;"/>
    <path clip-path="url(#pdd82949e66)" d="M 363.830548 42.565662 
C 364.300608 42.565662 364.751479 42.378905 365.083862 42.046522 
C 365.416245 41.714139 365.603002 41.263268 365.603002 40.793208 
C 365.603002 40.323147 365.416245 39.872276 365.083862 39.539894 
C 364.751479 39.207511 364.300608 39.020754 363.830548 39.020754 
C 363.360488 39.020754 362.909617 39.207511 362.577234 39.539894 
C 362.244851 39.872276 362.058094 40.323147 362.058094 40.793208 
C 362.058094 41.263268 362.244851 41.714139 362.577234 42.046522 
C 362.909617 42.378905 363.360488 42.565662 363.830548 42.565662 
z
" style="fill:#db5f57;stroke:#db5f57;stroke-width:0.886227;"/>
    <path clip-path="url(#pdd82949e66)" d="M 363.830548 33.656991 
C 364.300608 33.656991 364.751479 33.470234 365.083862 33.137851 
C 365.416245 32.805468 365.603002 32.354597 365.603002 31.884537 
C 365.603002 31.414477 365.416245 30.963606 365.083862 30.631223 
C 364.751479 30.29884 364.300608 30.112083 363.830548 30.112083 
C 363.360488 30.112083 362.909617 30.29884 362.577234 30.631223 
C 362.244851 30.963606 362.058094 31.414477 362.058094 31.884537 
C 362.058094 32.354597 362.244851 32.805468 362.577234 33.137851 
C 362.909617 33.470234 363.360488 33.656991 363.830548 33.656991 
z
" style="fill:#57d3db;stroke:#57d3db;stroke-width:0.886227;"/>
   </g>
   <g id="patch_3">
    <path d="M 52.388688 22.244082 
L 415.737525 22.244082 
L 415.737525 7.2 
L 52.388688 7.2 
z
" style="fill:#d9d9d9;"/>
   </g>
   <g id="text_6">
    <!-- Accuracy -->
    <g style="fill:#1a1a1a;" transform="translate(213.974356 17.150291)scale(0.088 -0.088)">
     <defs>
      <path d="M 2188 4044 
L 1331 1722 
L 3047 1722 
L 2188 4044 
z
M 1831 4666 
L 2547 4666 
L 4325 0 
L 3669 0 
L 3244 1197 
L 1141 1197 
L 716 0 
L 50 0 
L 1831 4666 
z
" id="DejaVuSans-41" transform="scale(0.015625)"/>
      <path d="M 3122 3366 
L 3122 2828 
Q 2878 2963 2633 3030 
Q 2388 3097 2138 3097 
Q 1578 3097 1268 2742 
Q 959 2388 959 1747 
Q 959 1106 1268 751 
Q 1578 397 2138 397 
Q 2388 397 2633 464 
Q 2878 531 3122 666 
L 3122 134 
Q 2881 22 2623 -34 
Q 2366 -91 2075 -91 
Q 1284 -91 818 406 
Q 353 903 353 1747 
Q 353 2603 823 3093 
Q 1294 3584 2113 3584 
Q 2378 3584 2631 3529 
Q 2884 3475 3122 3366 
z
" id="DejaVuSans-63" transform="scale(0.015625)"/>
      <path d="M 2631 2963 
Q 2534 3019 2420 3045 
Q 2306 3072 2169 3072 
Q 1681 3072 1420 2755 
Q 1159 2438 1159 1844 
L 1159 0 
L 581 0 
L 581 3500 
L 1159 3500 
L 1159 2956 
Q 1341 3275 1631 3429 
Q 1922 3584 2338 3584 
Q 2397 3584 2469 3576 
Q 2541 3569 2628 3553 
L 2631 2963 
z
" id="DejaVuSans-72" transform="scale(0.015625)"/>
      <path d="M 2059 -325 
Q 1816 -950 1584 -1140 
Q 1353 -1331 966 -1331 
L 506 -1331 
L 506 -850 
L 844 -850 
Q 1081 -850 1212 -737 
Q 1344 -625 1503 -206 
L 1606 56 
L 191 3500 
L 800 3500 
L 1894 763 
L 2988 3500 
L 3597 3500 
L 2059 -325 
z
" id="DejaVuSans-79" transform="scale(0.015625)"/>
     </defs>
     <use xlink:href="#DejaVuSans-41"/>
     <use x="66.658203" xlink:href="#DejaVuSans-63"/>
     <use x="121.638672" xlink:href="#DejaVuSans-63"/>
     <use x="176.619141" xlink:href="#DejaVuSans-75"/>
     <use x="239.998047" xlink:href="#DejaVuSans-72"/>
     <use x="281.111328" xlink:href="#DejaVuSans-61"/>
     <use x="342.390625" xlink:href="#DejaVuSans-63"/>
     <use x="397.371094" xlink:href="#DejaVuSans-79"/>
    </g>
   </g>
   <g id="patch_4">
    <path d="M 840.788688 277.687051 
L 1043.680875 277.687051 
L 1043.680875 204.561114 
L 840.788688 204.561114 
z
" style="fill:#ffffff;"/>
   </g>
   <g id="text_7">
    <!-- Concatenate with previous layer -->
    <g transform="translate(852.988688 228.154707)scale(0.11 -0.11)">
     <defs>
      <path d="M 4122 4306 
L 4122 3641 
Q 3803 3938 3442 4084 
Q 3081 4231 2675 4231 
Q 1875 4231 1450 3742 
Q 1025 3253 1025 2328 
Q 1025 1406 1450 917 
Q 1875 428 2675 428 
Q 3081 428 3442 575 
Q 3803 722 4122 1019 
L 4122 359 
Q 3791 134 3420 21 
Q 3050 -91 2638 -91 
Q 1578 -91 968 557 
Q 359 1206 359 2328 
Q 359 3453 968 4101 
Q 1578 4750 2638 4750 
Q 3056 4750 3426 4639 
Q 3797 4528 4122 4306 
z
" id="DejaVuSans-43" transform="scale(0.015625)"/>
      <path d="M 1959 3097 
Q 1497 3097 1228 2736 
Q 959 2375 959 1747 
Q 959 1119 1226 758 
Q 1494 397 1959 397 
Q 2419 397 2687 759 
Q 2956 1122 2956 1747 
Q 2956 2369 2687 2733 
Q 2419 3097 1959 3097 
z
M 1959 3584 
Q 2709 3584 3137 3096 
Q 3566 2609 3566 1747 
Q 3566 888 3137 398 
Q 2709 -91 1959 -91 
Q 1206 -91 779 398 
Q 353 888 353 1747 
Q 353 2609 779 3096 
Q 1206 3584 1959 3584 
z
" id="DejaVuSans-6f" transform="scale(0.015625)"/>
      <path d="M 3513 2113 
L 3513 0 
L 2938 0 
L 2938 2094 
Q 2938 2591 2744 2837 
Q 2550 3084 2163 3084 
Q 1697 3084 1428 2787 
Q 1159 2491 1159 1978 
L 1159 0 
L 581 0 
L 581 3500 
L 1159 3500 
L 1159 2956 
Q 1366 3272 1645 3428 
Q 1925 3584 2291 3584 
Q 2894 3584 3203 3211 
Q 3513 2838 3513 2113 
z
" id="DejaVuSans-6e" transform="scale(0.015625)"/>
      <path d="M 1172 4494 
L 1172 3500 
L 2356 3500 
L 2356 3053 
L 1172 3053 
L 1172 1153 
Q 1172 725 1289 603 
Q 1406 481 1766 481 
L 2356 481 
L 2356 0 
L 1766 0 
Q 1100 0 847 248 
Q 594 497 594 1153 
L 594 3053 
L 172 3053 
L 172 3500 
L 594 3500 
L 594 4494 
L 1172 4494 
z
" id="DejaVuSans-74" transform="scale(0.015625)"/>
      <path id="DejaVuSans-20" transform="scale(0.015625)"/>
      <path d="M 269 3500 
L 844 3500 
L 1563 769 
L 2278 3500 
L 2956 3500 
L 3675 769 
L 4391 3500 
L 4966 3500 
L 4050 0 
L 3372 0 
L 2619 2869 
L 1863 0 
L 1184 0 
L 269 3500 
z
" id="DejaVuSans-77" transform="scale(0.015625)"/>
      <path d="M 603 3500 
L 1178 3500 
L 1178 0 
L 603 0 
L 603 3500 
z
M 603 4863 
L 1178 4863 
L 1178 4134 
L 603 4134 
L 603 4863 
z
" id="DejaVuSans-69" transform="scale(0.015625)"/>
      <path d="M 3513 2113 
L 3513 0 
L 2938 0 
L 2938 2094 
Q 2938 2591 2744 2837 
Q 2550 3084 2163 3084 
Q 1697 3084 1428 2787 
Q 1159 2491 1159 1978 
L 1159 0 
L 581 0 
L 581 4863 
L 1159 4863 
L 1159 2956 
Q 1366 3272 1645 3428 
Q 1925 3584 2291 3584 
Q 2894 3584 3203 3211 
Q 3513 2838 3513 2113 
z
" id="DejaVuSans-68" transform="scale(0.015625)"/>
      <path d="M 1159 525 
L 1159 -1331 
L 581 -1331 
L 581 3500 
L 1159 3500 
L 1159 2969 
Q 1341 3281 1617 3432 
Q 1894 3584 2278 3584 
Q 2916 3584 3314 3078 
Q 3713 2572 3713 1747 
Q 3713 922 3314 415 
Q 2916 -91 2278 -91 
Q 1894 -91 1617 61 
Q 1341 213 1159 525 
z
M 3116 1747 
Q 3116 2381 2855 2742 
Q 2594 3103 2138 3103 
Q 1681 3103 1420 2742 
Q 1159 2381 1159 1747 
Q 1159 1113 1420 752 
Q 1681 391 2138 391 
Q 2594 391 2855 752 
Q 3116 1113 3116 1747 
z
" id="DejaVuSans-70" transform="scale(0.015625)"/>
      <path d="M 191 3500 
L 800 3500 
L 1894 563 
L 2988 3500 
L 3597 3500 
L 2284 0 
L 1503 0 
L 191 3500 
z
" id="DejaVuSans-76" transform="scale(0.015625)"/>
      <path d="M 2834 3397 
L 2834 2853 
Q 2591 2978 2328 3040 
Q 2066 3103 1784 3103 
Q 1356 3103 1142 2972 
Q 928 2841 928 2578 
Q 928 2378 1081 2264 
Q 1234 2150 1697 2047 
L 1894 2003 
Q 2506 1872 2764 1633 
Q 3022 1394 3022 966 
Q 3022 478 2636 193 
Q 2250 -91 1575 -91 
Q 1294 -91 989 -36 
Q 684 19 347 128 
L 347 722 
Q 666 556 975 473 
Q 1284 391 1588 391 
Q 1994 391 2212 530 
Q 2431 669 2431 922 
Q 2431 1156 2273 1281 
Q 2116 1406 1581 1522 
L 1381 1569 
Q 847 1681 609 1914 
Q 372 2147 372 2553 
Q 372 3047 722 3315 
Q 1072 3584 1716 3584 
Q 2034 3584 2315 3537 
Q 2597 3491 2834 3397 
z
" id="DejaVuSans-73" transform="scale(0.015625)"/>
     </defs>
     <use xlink:href="#DejaVuSans-43"/>
     <use x="69.824219" xlink:href="#DejaVuSans-6f"/>
     <use x="131.005859" xlink:href="#DejaVuSans-6e"/>
     <use x="194.384766" xlink:href="#DejaVuSans-63"/>
     <use x="249.365234" xlink:href="#DejaVuSans-61"/>
     <use x="310.644531" xlink:href="#DejaVuSans-74"/>
     <use x="349.853516" xlink:href="#DejaVuSans-65"/>
     <use x="411.376953" xlink:href="#DejaVuSans-6e"/>
     <use x="474.755859" xlink:href="#DejaVuSans-61"/>
     <use x="536.035156" xlink:href="#DejaVuSans-74"/>
     <use x="575.244141" xlink:href="#DejaVuSans-65"/>
     <use x="636.767578" xlink:href="#DejaVuSans-20"/>
     <use x="668.554688" xlink:href="#DejaVuSans-77"/>
     <use x="750.341797" xlink:href="#DejaVuSans-69"/>
     <use x="778.125" xlink:href="#DejaVuSans-74"/>
     <use x="817.333984" xlink:href="#DejaVuSans-68"/>
     <use x="880.712891" xlink:href="#DejaVuSans-20"/>
     <use x="912.5" xlink:href="#DejaVuSans-70"/>
     <use x="975.976562" xlink:href="#DejaVuSans-72"/>
     <use x="1014.839844" xlink:href="#DejaVuSans-65"/>
     <use x="1076.363281" xlink:href="#DejaVuSans-76"/>
     <use x="1135.542969" xlink:href="#DejaVuSans-69"/>
     <use x="1163.326172" xlink:href="#DejaVuSans-6f"/>
     <use x="1224.507812" xlink:href="#DejaVuSans-75"/>
     <use x="1287.886719" xlink:href="#DejaVuSans-73"/>
     <use x="1339.986328" xlink:href="#DejaVuSans-20"/>
     <use x="1371.773438" xlink:href="#DejaVuSans-6c"/>
     <use x="1399.556641" xlink:href="#DejaVuSans-61"/>
     <use x="1460.835938" xlink:href="#DejaVuSans-79"/>
     <use x="1520.015625" xlink:href="#DejaVuSans-65"/>
     <use x="1581.539062" xlink:href="#DejaVuSans-72"/>
    </g>
   </g>
   <g id="patch_5">
    <path clip-path="url(#p0f8e47e3ac)" d="M 852.988688 247.647051 
L 868.828688 247.647051 
L 868.828688 231.807051 
L 852.988688 231.807051 
z
" style="fill:#f2f2f2;"/>
   </g>
   <g id="line2d_18">
    <path clip-path="url(#p0f8e47e3ac)" d="M 852.988688 239.727051 
L 868.828688 239.727051 
" style="fill:none;stroke:#db5f57;stroke-width:0.886227;"/>
   </g>
   <g id="line2d_19">
    <path clip-path="url(#p0f8e47e3ac)" d="M 860.908688 239.727051 
" style="fill:none;stroke:#1f77b4;stroke-linecap:square;stroke-width:1.5;"/>
    <defs>
     <path d="M 0 1.772454 
C 0.47006 1.772454 0.920931 1.585697 1.253314 1.253314 
C 1.585697 0.920931 1.772454 0.47006 1.772454 0 
C 1.772454 -0.47006 1.585697 -0.920931 1.253314 -1.253314 
C 0.920931 -1.585697 0.47006 -1.772454 0 -1.772454 
C -0.47006 -1.772454 -0.920931 -1.585697 -1.253314 -1.253314 
C -1.585697 -0.920931 -1.772454 -0.47006 -1.772454 0 
C -1.772454 0.47006 -1.585697 0.920931 -1.253314 1.253314 
C -0.920931 1.585697 -0.47006 1.772454 0 1.772454 
z
" id="m545b6b894c" style="stroke:#db5f57;stroke-width:0.886227;"/>
    </defs>
    <g clip-path="url(#p0f8e47e3ac)">
     <use style="fill:#db5f57;stroke:#db5f57;stroke-width:0.886227;" x="860.908688" xlink:href="#m545b6b894c" y="239.727051"/>
    </g>
   </g>
   <g id="text_8">
    <!-- False -->
    <g transform="translate(871.828688 242.155301)scale(0.088 -0.088)">
     <defs>
      <path d="M 628 4666 
L 3309 4666 
L 3309 4134 
L 1259 4134 
L 1259 2759 
L 3109 2759 
L 3109 2228 
L 1259 2228 
L 1259 0 
L 628 0 
L 628 4666 
z
" id="DejaVuSans-46" transform="scale(0.015625)"/>
     </defs>
     <use xlink:href="#DejaVuSans-46"/>
     <use x="48.394531" xlink:href="#DejaVuSans-61"/>
     <use x="109.673828" xlink:href="#DejaVuSans-6c"/>
     <use x="137.457031" xlink:href="#DejaVuSans-73"/>
     <use x="189.556641" xlink:href="#DejaVuSans-65"/>
    </g>
   </g>
   <g id="patch_6">
    <path clip-path="url(#pa31fb16f0c)" d="M 852.988688 265.487051 
L 868.828688 265.487051 
L 868.828688 249.647051 
L 852.988688 249.647051 
z
" style="fill:#f2f2f2;"/>
   </g>
   <g id="line2d_20">
    <path clip-path="url(#pa31fb16f0c)" d="M 852.988688 257.567051 
L 868.828688 257.567051 
" style="fill:none;stroke:#57d3db;stroke-width:0.886227;"/>
   </g>
   <g id="line2d_21">
    <path clip-path="url(#pa31fb16f0c)" d="M 860.908688 257.567051 
" style="fill:none;stroke:#1f77b4;stroke-linecap:square;stroke-width:1.5;"/>
    <defs>
     <path d="M 0 1.772454 
C 0.47006 1.772454 0.920931 1.585697 1.253314 1.253314 
C 1.585697 0.920931 1.772454 0.47006 1.772454 0 
C 1.772454 -0.47006 1.585697 -0.920931 1.253314 -1.253314 
C 0.920931 -1.585697 0.47006 -1.772454 0 -1.772454 
C -0.47006 -1.772454 -0.920931 -1.585697 -1.253314 -1.253314 
C -1.585697 -0.920931 -1.772454 -0.47006 -1.772454 0 
C -1.772454 0.47006 -1.585697 0.920931 -1.253314 1.253314 
C -0.920931 1.585697 -0.47006 1.772454 0 1.772454 
z
" id="mabe1f27bf4" style="stroke:#57d3db;stroke-width:0.886227;"/>
    </defs>
    <g clip-path="url(#pa31fb16f0c)">
     <use style="fill:#57d3db;stroke:#57d3db;stroke-width:0.886227;" x="860.908688" xlink:href="#mabe1f27bf4" y="257.567051"/>
    </g>
   </g>
   <g id="text_9">
    <!-- True -->
    <g transform="translate(871.828688 259.995301)scale(0.088 -0.088)">
     <defs>
      <path d="M -19 4666 
L 3928 4666 
L 3928 4134 
L 2272 4134 
L 2272 0 
L 1638 0 
L 1638 4134 
L -19 4134 
L -19 4666 
z
" id="DejaVuSans-54" transform="scale(0.015625)"/>
     </defs>
     <use xlink:href="#DejaVuSans-54"/>
     <use x="46.333984" xlink:href="#DejaVuSans-72"/>
     <use x="87.447266" xlink:href="#DejaVuSans-75"/>
     <use x="150.826172" xlink:href="#DejaVuSans-65"/>
    </g>
   </g>
  </g>
  <g id="axes_2">
   <g id="patch_7">
    <path d="M 470.23985 234.334082 
L 833.588688 234.334082 
L 833.588688 22.244082 
L 470.23985 22.244082 
z
" style="fill:#ebebeb;"/>
   </g>
   <g id="matplotlib.axis_3">
    <g id="xtick_4">
     <g id="line2d_22">
      <path clip-path="url(#p787686f20b)" d="M 522.146827 234.334082 
L 522.146827 22.244082 
" style="fill:none;stroke:#ffffff;stroke-linecap:square;"/>
     </g>
    </g>
    <g id="xtick_5">
     <g id="line2d_23">
      <path clip-path="url(#p787686f20b)" d="M 781.681711 234.334082 
L 781.681711 22.244082 
" style="fill:none;stroke:#ffffff;stroke-linecap:square;"/>
     </g>
    </g>
    <g id="xtick_6">
     <g id="line2d_24">
      <path clip-path="url(#p787686f20b)" d="M 651.914269 234.334082 
L 651.914269 22.244082 
" style="fill:none;stroke:#ffffff;stroke-linecap:square;stroke-width:0.5;"/>
     </g>
    </g>
   </g>
   <g id="matplotlib.axis_4">
    <g id="ytick_10">
     <g id="line2d_25">
      <path clip-path="url(#p787686f20b)" d="M 470.23985 188.56597 
L 833.588688 188.56597 
" style="fill:none;stroke:#ffffff;stroke-linecap:square;"/>
     </g>
     <g id="line2d_26">
      <path d="M 470.23985 188.56597 
" style="fill:none;stroke:#333333;stroke-linecap:square;stroke-width:1.5;"/>
      <g>
       <use style="fill:#333333;stroke:#000000;" x="470.23985" xlink:href="#mdc51d6f769" y="188.56597"/>
      </g>
     </g>
     <g id="text_10">
      <!-- 0.893 -->
      <g style="fill:#4d4d4d;" transform="translate(440.0971 190.99422)scale(0.088 -0.088)">
       <use xlink:href="#DejaVuSans-30"/>
       <use x="63.623047" xlink:href="#DejaVuSans-2e"/>
       <use x="95.410156" xlink:href="#DejaVuSans-38"/>
       <use x="159.033203" xlink:href="#DejaVuSans-39"/>
       <use x="222.65625" xlink:href="#DejaVuSans-33"/>
      </g>
     </g>
    </g>
    <g id="ytick_11">
     <g id="line2d_27">
      <path clip-path="url(#p787686f20b)" d="M 470.23985 138.877262 
L 833.588688 138.877262 
" style="fill:none;stroke:#ffffff;stroke-linecap:square;"/>
     </g>
     <g id="line2d_28">
      <path d="M 470.23985 138.877262 
" style="fill:none;stroke:#333333;stroke-linecap:square;stroke-width:1.5;"/>
      <g>
       <use style="fill:#333333;stroke:#000000;" x="470.23985" xlink:href="#mdc51d6f769" y="138.877262"/>
      </g>
     </g>
     <g id="text_11">
      <!-- 0.894 -->
      <g style="fill:#4d4d4d;" transform="translate(440.0971 141.305512)scale(0.088 -0.088)">
       <use xlink:href="#DejaVuSans-30"/>
       <use x="63.623047" xlink:href="#DejaVuSans-2e"/>
       <use x="95.410156" xlink:href="#DejaVuSans-38"/>
       <use x="159.033203" xlink:href="#DejaVuSans-39"/>
       <use x="222.65625" xlink:href="#DejaVuSans-34"/>
      </g>
     </g>
    </g>
    <g id="ytick_12">
     <g id="line2d_29">
      <path clip-path="url(#p787686f20b)" d="M 470.23985 89.188554 
L 833.588688 89.188554 
" style="fill:none;stroke:#ffffff;stroke-linecap:square;"/>
     </g>
     <g id="line2d_30">
      <path d="M 470.23985 89.188554 
" style="fill:none;stroke:#333333;stroke-linecap:square;stroke-width:1.5;"/>
      <g>
       <use style="fill:#333333;stroke:#000000;" x="470.23985" xlink:href="#mdc51d6f769" y="89.188554"/>
      </g>
     </g>
     <g id="text_12">
      <!-- 0.895 -->
      <g style="fill:#4d4d4d;" transform="translate(440.0971 91.616804)scale(0.088 -0.088)">
       <defs>
        <path d="M 691 4666 
L 3169 4666 
L 3169 4134 
L 1269 4134 
L 1269 2991 
Q 1406 3038 1543 3061 
Q 1681 3084 1819 3084 
Q 2600 3084 3056 2656 
Q 3513 2228 3513 1497 
Q 3513 744 3044 326 
Q 2575 -91 1722 -91 
Q 1428 -91 1123 -41 
Q 819 9 494 109 
L 494 744 
Q 775 591 1075 516 
Q 1375 441 1709 441 
Q 2250 441 2565 725 
Q 2881 1009 2881 1497 
Q 2881 1984 2565 2268 
Q 2250 2553 1709 2553 
Q 1456 2553 1204 2497 
Q 953 2441 691 2322 
L 691 4666 
z
" id="DejaVuSans-35" transform="scale(0.015625)"/>
       </defs>
       <use xlink:href="#DejaVuSans-30"/>
       <use x="63.623047" xlink:href="#DejaVuSans-2e"/>
       <use x="95.410156" xlink:href="#DejaVuSans-38"/>
       <use x="159.033203" xlink:href="#DejaVuSans-39"/>
       <use x="222.65625" xlink:href="#DejaVuSans-35"/>
      </g>
     </g>
    </g>
    <g id="ytick_13">
     <g id="line2d_31">
      <path clip-path="url(#p787686f20b)" d="M 470.23985 39.499847 
L 833.588688 39.499847 
" style="fill:none;stroke:#ffffff;stroke-linecap:square;"/>
     </g>
     <g id="line2d_32">
      <path d="M 470.23985 39.499847 
" style="fill:none;stroke:#333333;stroke-linecap:square;stroke-width:1.5;"/>
      <g>
       <use style="fill:#333333;stroke:#000000;" x="470.23985" xlink:href="#mdc51d6f769" y="39.499847"/>
      </g>
     </g>
     <g id="text_13">
      <!-- 0.896 -->
      <g style="fill:#4d4d4d;" transform="translate(440.0971 41.928097)scale(0.088 -0.088)">
       <defs>
        <path d="M 2113 2584 
Q 1688 2584 1439 2293 
Q 1191 2003 1191 1497 
Q 1191 994 1439 701 
Q 1688 409 2113 409 
Q 2538 409 2786 701 
Q 3034 994 3034 1497 
Q 3034 2003 2786 2293 
Q 2538 2584 2113 2584 
z
M 3366 4563 
L 3366 3988 
Q 3128 4100 2886 4159 
Q 2644 4219 2406 4219 
Q 1781 4219 1451 3797 
Q 1122 3375 1075 2522 
Q 1259 2794 1537 2939 
Q 1816 3084 2150 3084 
Q 2853 3084 3261 2657 
Q 3669 2231 3669 1497 
Q 3669 778 3244 343 
Q 2819 -91 2113 -91 
Q 1303 -91 875 529 
Q 447 1150 447 2328 
Q 447 3434 972 4092 
Q 1497 4750 2381 4750 
Q 2619 4750 2861 4703 
Q 3103 4656 3366 4563 
z
" id="DejaVuSans-36" transform="scale(0.015625)"/>
       </defs>
       <use xlink:href="#DejaVuSans-30"/>
       <use x="63.623047" xlink:href="#DejaVuSans-2e"/>
       <use x="95.410156" xlink:href="#DejaVuSans-38"/>
       <use x="159.033203" xlink:href="#DejaVuSans-39"/>
       <use x="222.65625" xlink:href="#DejaVuSans-36"/>
      </g>
     </g>
    </g>
    <g id="ytick_14">
     <g id="line2d_33">
      <path clip-path="url(#p787686f20b)" d="M 470.23985 213.410324 
L 833.588688 213.410324 
" style="fill:none;stroke:#ffffff;stroke-linecap:square;stroke-width:0.5;"/>
     </g>
    </g>
    <g id="ytick_15">
     <g id="line2d_34">
      <path clip-path="url(#p787686f20b)" d="M 470.23985 163.721616 
L 833.588688 163.721616 
" style="fill:none;stroke:#ffffff;stroke-linecap:square;stroke-width:0.5;"/>
     </g>
    </g>
    <g id="ytick_16">
     <g id="line2d_35">
      <path clip-path="url(#p787686f20b)" d="M 470.23985 114.032908 
L 833.588688 114.032908 
" style="fill:none;stroke:#ffffff;stroke-linecap:square;stroke-width:0.5;"/>
     </g>
    </g>
    <g id="ytick_17">
     <g id="line2d_36">
      <path clip-path="url(#p787686f20b)" d="M 470.23985 64.344201 
L 833.588688 64.344201 
" style="fill:none;stroke:#ffffff;stroke-linecap:square;stroke-width:0.5;"/>
     </g>
    </g>
   </g>
   <g id="line2d_37">
    <path clip-path="url(#p787686f20b)" d="M 522.146827 224.693628 
L 781.681711 40.500856 
" style="fill:none;stroke:#db5f57;stroke-width:0.886227;"/>
   </g>
   <g id="PathCollection_2">
    <path clip-path="url(#p787686f20b)" d="M 522.146827 226.466082 
C 522.616887 226.466082 523.067758 226.279325 523.400141 225.946942 
C 523.732524 225.614559 523.919281 225.163688 523.919281 224.693628 
C 523.919281 224.223568 523.732524 223.772696 523.400141 223.440314 
C 523.067758 223.107931 522.616887 222.921174 522.146827 222.921174 
C 521.676767 222.921174 521.225896 223.107931 520.893513 223.440314 
C 520.56113 223.772696 520.374373 224.223568 520.374373 224.693628 
C 520.374373 225.163688 520.56113 225.614559 520.893513 225.946942 
C 521.225896 226.279325 521.676767 226.466082 522.146827 226.466082 
z
" style="fill:#db5f57;stroke:#db5f57;stroke-width:0.886227;"/>
    <path clip-path="url(#p787686f20b)" d="M 781.681711 42.27331 
C 782.151771 42.27331 782.602642 42.086553 782.935025 41.75417 
C 783.267408 41.421787 783.454165 40.970916 783.454165 40.500856 
C 783.454165 40.030796 783.267408 39.579924 782.935025 39.247542 
C 782.602642 38.915159 782.151771 38.728402 781.681711 38.728402 
C 781.21165 38.728402 780.760779 38.915159 780.428397 39.247542 
C 780.096014 39.579924 779.909257 40.030796 779.909257 40.500856 
C 779.909257 40.970916 780.096014 41.421787 780.428397 41.75417 
C 780.760779 42.086553 781.21165 42.27331 781.681711 42.27331 
z
" style="fill:#db5f57;stroke:#db5f57;stroke-width:0.886227;"/>
    <path clip-path="url(#p787686f20b)" d="M 781.681711 33.656991 
C 782.151771 33.656991 782.602642 33.470234 782.935025 33.137851 
C 783.267408 32.805468 783.454165 32.354597 783.454165 31.884537 
C 783.454165 31.414477 783.267408 30.963606 782.935025 30.631223 
C 782.602642 30.29884 782.151771 30.112083 781.681711 30.112083 
C 781.21165 30.112083 780.760779 30.29884 780.428397 30.631223 
C 780.096014 30.963606 779.909257 31.414477 779.909257 31.884537 
C 779.909257 32.354597 780.096014 32.805468 780.428397 33.137851 
C 780.760779 33.470234 781.21165 33.656991 781.681711 33.656991 
z
" style="fill:#57d3db;stroke:#57d3db;stroke-width:0.886227;"/>
   </g>
   <g id="patch_8">
    <path d="M 470.23985 22.244082 
L 833.588688 22.244082 
L 833.588688 7.2 
L 470.23985 7.2 
z
" style="fill:#d9d9d9;"/>
   </g>
   <g id="text_14">
    <!-- AUC -->
    <g style="fill:#1a1a1a;" transform="translate(642.611706 17.150291)scale(0.088 -0.088)">
     <defs>
      <path d="M 556 4666 
L 1191 4666 
L 1191 1831 
Q 1191 1081 1462 751 
Q 1734 422 2344 422 
Q 2950 422 3222 751 
Q 3494 1081 3494 1831 
L 3494 4666 
L 4128 4666 
L 4128 1753 
Q 4128 841 3676 375 
Q 3225 -91 2344 -91 
Q 1459 -91 1007 375 
Q 556 841 556 1753 
L 556 4666 
z
" id="DejaVuSans-55" transform="scale(0.015625)"/>
     </defs>
     <use xlink:href="#DejaVuSans-41"/>
     <use x="68.408203" xlink:href="#DejaVuSans-55"/>
     <use x="141.601562" xlink:href="#DejaVuSans-43"/>
    </g>
   </g>
  </g>
  <g id="axes_3">
   <g id="patch_9">
    <path d="M 52.388688 465.764082 
L 415.737525 465.764082 
L 415.737525 253.674082 
L 52.388688 253.674082 
z
" style="fill:#ebebeb;"/>
   </g>
   <g id="matplotlib.axis_5">
    <g id="xtick_7">
     <g id="line2d_38">
      <path clip-path="url(#pb6571c3f30)" d="M 104.295664 465.764082 
L 104.295664 253.674082 
" style="fill:none;stroke:#ffffff;stroke-linecap:square;"/>
     </g>
     <g id="line2d_39">
      <path d="M 104.295664 465.764082 
" style="fill:none;stroke:#333333;stroke-linecap:square;stroke-width:1.5;"/>
      <defs>
       <path d="M 0 0 
L 0 2.75 
" id="m7610e25545" style="stroke:#000000;"/>
      </defs>
      <g>
       <use style="fill:#333333;stroke:#000000;" x="104.295664" xlink:href="#m7610e25545" y="465.764082"/>
      </g>
     </g>
     <g id="text_15">
      <!-- False -->
      <g style="fill:#4d4d4d;" transform="translate(93.248227 477.400707)scale(0.088 -0.088)">
       <use xlink:href="#DejaVuSans-46"/>
       <use x="48.394531" xlink:href="#DejaVuSans-61"/>
       <use x="109.673828" xlink:href="#DejaVuSans-6c"/>
       <use x="137.457031" xlink:href="#DejaVuSans-73"/>
       <use x="189.556641" xlink:href="#DejaVuSans-65"/>
      </g>
     </g>
    </g>
    <g id="xtick_8">
     <g id="line2d_40">
      <path clip-path="url(#pb6571c3f30)" d="M 363.830548 465.764082 
L 363.830548 253.674082 
" style="fill:none;stroke:#ffffff;stroke-linecap:square;"/>
     </g>
     <g id="line2d_41">
      <path d="M 363.830548 465.764082 
" style="fill:none;stroke:#333333;stroke-linecap:square;stroke-width:1.5;"/>
      <g>
       <use style="fill:#333333;stroke:#000000;" x="363.830548" xlink:href="#m7610e25545" y="465.764082"/>
      </g>
     </g>
     <g id="text_16">
      <!-- True -->
      <g style="fill:#4d4d4d;" transform="translate(354.487423 477.400707)scale(0.088 -0.088)">
       <use xlink:href="#DejaVuSans-54"/>
       <use x="46.333984" xlink:href="#DejaVuSans-72"/>
       <use x="87.447266" xlink:href="#DejaVuSans-75"/>
       <use x="150.826172" xlink:href="#DejaVuSans-65"/>
      </g>
     </g>
    </g>
    <g id="xtick_9">
     <g id="line2d_42">
      <path clip-path="url(#pb6571c3f30)" d="M 234.063106 465.764082 
L 234.063106 253.674082 
" style="fill:none;stroke:#ffffff;stroke-linecap:square;stroke-width:0.5;"/>
     </g>
    </g>
   </g>
   <g id="matplotlib.axis_6">
    <g id="ytick_18">
     <g id="line2d_43">
      <path clip-path="url(#pb6571c3f30)" d="M 52.388688 445.56944 
L 415.737525 445.56944 
" style="fill:none;stroke:#ffffff;stroke-linecap:square;"/>
     </g>
     <g id="line2d_44">
      <path d="M 52.388688 445.56944 
" style="fill:none;stroke:#333333;stroke-linecap:square;stroke-width:1.5;"/>
      <g>
       <use style="fill:#333333;stroke:#000000;" x="52.388688" xlink:href="#mdc51d6f769" y="445.56944"/>
      </g>
     </g>
     <g id="text_17">
      <!-- 0.895 -->
      <g style="fill:#4d4d4d;" transform="translate(22.245938 447.99769)scale(0.088 -0.088)">
       <use xlink:href="#DejaVuSans-30"/>
       <use x="63.623047" xlink:href="#DejaVuSans-2e"/>
       <use x="95.410156" xlink:href="#DejaVuSans-38"/>
       <use x="159.033203" xlink:href="#DejaVuSans-39"/>
       <use x="222.65625" xlink:href="#DejaVuSans-35"/>
      </g>
     </g>
    </g>
    <g id="ytick_19">
     <g id="line2d_45">
      <path clip-path="url(#pb6571c3f30)" d="M 52.388688 379.6511 
L 415.737525 379.6511 
" style="fill:none;stroke:#ffffff;stroke-linecap:square;"/>
     </g>
     <g id="line2d_46">
      <path d="M 52.388688 379.6511 
" style="fill:none;stroke:#333333;stroke-linecap:square;stroke-width:1.5;"/>
      <g>
       <use style="fill:#333333;stroke:#000000;" x="52.388688" xlink:href="#mdc51d6f769" y="379.6511"/>
      </g>
     </g>
     <g id="text_18">
      <!-- 0.896 -->
      <g style="fill:#4d4d4d;" transform="translate(22.245938 382.07935)scale(0.088 -0.088)">
       <use xlink:href="#DejaVuSans-30"/>
       <use x="63.623047" xlink:href="#DejaVuSans-2e"/>
       <use x="95.410156" xlink:href="#DejaVuSans-38"/>
       <use x="159.033203" xlink:href="#DejaVuSans-39"/>
       <use x="222.65625" xlink:href="#DejaVuSans-36"/>
      </g>
     </g>
    </g>
    <g id="ytick_20">
     <g id="line2d_47">
      <path clip-path="url(#pb6571c3f30)" d="M 52.388688 313.73276 
L 415.737525 313.73276 
" style="fill:none;stroke:#ffffff;stroke-linecap:square;"/>
     </g>
     <g id="line2d_48">
      <path d="M 52.388688 313.73276 
" style="fill:none;stroke:#333333;stroke-linecap:square;stroke-width:1.5;"/>
      <g>
       <use style="fill:#333333;stroke:#000000;" x="52.388688" xlink:href="#mdc51d6f769" y="313.73276"/>
      </g>
     </g>
     <g id="text_19">
      <!-- 0.897 -->
      <g style="fill:#4d4d4d;" transform="translate(22.245938 316.16101)scale(0.088 -0.088)">
       <defs>
        <path d="M 525 4666 
L 3525 4666 
L 3525 4397 
L 1831 0 
L 1172 0 
L 2766 4134 
L 525 4134 
L 525 4666 
z
" id="DejaVuSans-37" transform="scale(0.015625)"/>
       </defs>
       <use xlink:href="#DejaVuSans-30"/>
       <use x="63.623047" xlink:href="#DejaVuSans-2e"/>
       <use x="95.410156" xlink:href="#DejaVuSans-38"/>
       <use x="159.033203" xlink:href="#DejaVuSans-39"/>
       <use x="222.65625" xlink:href="#DejaVuSans-37"/>
      </g>
     </g>
    </g>
    <g id="ytick_21">
     <g id="line2d_49">
      <path clip-path="url(#pb6571c3f30)" d="M 52.388688 412.61027 
L 415.737525 412.61027 
" style="fill:none;stroke:#ffffff;stroke-linecap:square;stroke-width:0.5;"/>
     </g>
    </g>
    <g id="ytick_22">
     <g id="line2d_50">
      <path clip-path="url(#pb6571c3f30)" d="M 52.388688 346.69193 
L 415.737525 346.69193 
" style="fill:none;stroke:#ffffff;stroke-linecap:square;stroke-width:0.5;"/>
     </g>
    </g>
    <g id="ytick_23">
     <g id="line2d_51">
      <path clip-path="url(#pb6571c3f30)" d="M 52.388688 280.77359 
L 415.737525 280.77359 
" style="fill:none;stroke:#ffffff;stroke-linecap:square;stroke-width:0.5;"/>
     </g>
    </g>
   </g>
   <g id="line2d_52">
    <path clip-path="url(#pb6571c3f30)" d="M 104.295664 456.123628 
L 363.830548 277.093197 
" style="fill:none;stroke:#db5f57;stroke-width:0.886227;"/>
   </g>
   <g id="PathCollection_3">
    <path clip-path="url(#pb6571c3f30)" d="M 104.295664 457.896082 
C 104.765725 457.896082 105.216596 457.709325 105.548978 457.376942 
C 105.881361 457.044559 106.068118 456.593688 106.068118 456.123628 
C 106.068118 455.653568 105.881361 455.202696 105.548978 454.870314 
C 105.216596 454.537931 104.765725 454.351174 104.295664 454.351174 
C 103.825604 454.351174 103.374733 454.537931 103.04235 454.870314 
C 102.709967 455.202696 102.52321 455.653568 102.52321 456.123628 
C 102.52321 456.593688 102.709967 457.044559 103.04235 457.376942 
C 103.374733 457.709325 103.825604 457.896082 104.295664 457.896082 
z
" style="fill:#db5f57;stroke:#db5f57;stroke-width:0.886227;"/>
    <path clip-path="url(#pb6571c3f30)" d="M 363.830548 278.865651 
C 364.300608 278.865651 364.751479 278.678894 365.083862 278.346511 
C 365.416245 278.014128 365.603002 277.563257 365.603002 277.093197 
C 365.603002 276.623137 365.416245 276.172266 365.083862 275.839883 
C 364.751479 275.5075 364.300608 275.320743 363.830548 275.320743 
C 363.360488 275.320743 362.909617 275.5075 362.577234 275.839883 
C 362.244851 276.172266 362.058094 276.623137 362.058094 277.093197 
C 362.058094 277.563257 362.244851 278.014128 362.577234 278.346511 
C 362.909617 278.678894 363.360488 278.865651 363.830548 278.865651 
z
" style="fill:#db5f57;stroke:#db5f57;stroke-width:0.886227;"/>
    <path clip-path="url(#pb6571c3f30)" d="M 363.830548 265.086991 
C 364.300608 265.086991 364.751479 264.900234 365.083862 264.567851 
C 365.416245 264.235468 365.603002 263.784597 365.603002 263.314537 
C 365.603002 262.844477 365.416245 262.393606 365.083862 262.061223 
C 364.751479 261.72884 364.300608 261.542083 363.830548 261.542083 
C 363.360488 261.542083 362.909617 261.72884 362.577234 262.061223 
C 362.244851 262.393606 362.058094 262.844477 362.058094 263.314537 
C 362.058094 263.784597 362.244851 264.235468 362.577234 264.567851 
C 362.909617 264.900234 363.360488 265.086991 363.830548 265.086991 
z
" style="fill:#57d3db;stroke:#57d3db;stroke-width:0.886227;"/>
   </g>
   <g id="patch_10">
    <path d="M 52.388688 253.674082 
L 415.737525 253.674082 
L 415.737525 238.63 
L 52.388688 238.63 
z
" style="fill:#d9d9d9;"/>
   </g>
   <g id="text_20">
    <!-- F1 score: &lt;=50K -->
    <g style="fill:#1a1a1a;" transform="translate(196.774481 248.580291)scale(0.088 -0.088)">
     <defs>
      <path d="M 750 794 
L 1409 794 
L 1409 0 
L 750 0 
L 750 794 
z
M 750 3309 
L 1409 3309 
L 1409 2516 
L 750 2516 
L 750 3309 
z
" id="DejaVuSans-3a" transform="scale(0.015625)"/>
      <path d="M 4684 3150 
L 1459 2003 
L 4684 863 
L 4684 294 
L 678 1747 
L 678 2266 
L 4684 3719 
L 4684 3150 
z
" id="DejaVuSans-3c" transform="scale(0.015625)"/>
      <path d="M 678 2906 
L 4684 2906 
L 4684 2381 
L 678 2381 
L 678 2906 
z
M 678 1631 
L 4684 1631 
L 4684 1100 
L 678 1100 
L 678 1631 
z
" id="DejaVuSans-3d" transform="scale(0.015625)"/>
      <path d="M 628 4666 
L 1259 4666 
L 1259 2694 
L 3353 4666 
L 4166 4666 
L 1850 2491 
L 4331 0 
L 3500 0 
L 1259 2247 
L 1259 0 
L 628 0 
L 628 4666 
z
" id="DejaVuSans-4b" transform="scale(0.015625)"/>
     </defs>
     <use xlink:href="#DejaVuSans-46"/>
     <use x="57.519531" xlink:href="#DejaVuSans-31"/>
     <use x="121.142578" xlink:href="#DejaVuSans-20"/>
     <use x="152.929688" xlink:href="#DejaVuSans-73"/>
     <use x="205.029297" xlink:href="#DejaVuSans-63"/>
     <use x="260.009766" xlink:href="#DejaVuSans-6f"/>
     <use x="321.191406" xlink:href="#DejaVuSans-72"/>
     <use x="360.054688" xlink:href="#DejaVuSans-65"/>
     <use x="421.578125" xlink:href="#DejaVuSans-3a"/>
     <use x="455.269531" xlink:href="#DejaVuSans-20"/>
     <use x="487.056641" xlink:href="#DejaVuSans-3c"/>
     <use x="570.845703" xlink:href="#DejaVuSans-3d"/>
     <use x="654.634766" xlink:href="#DejaVuSans-35"/>
     <use x="718.257812" xlink:href="#DejaVuSans-30"/>
     <use x="781.880859" xlink:href="#DejaVuSans-4b"/>
    </g>
   </g>
  </g>
  <g id="axes_4">
   <g id="patch_11">
    <path d="M 470.23985 465.764082 
L 833.588688 465.764082 
L 833.588688 253.674082 
L 470.23985 253.674082 
z
" style="fill:#ebebeb;"/>
   </g>
   <g id="matplotlib.axis_7">
    <g id="xtick_10">
     <g id="line2d_53">
      <path clip-path="url(#p0d18c9716d)" d="M 522.146827 465.764082 
L 522.146827 253.674082 
" style="fill:none;stroke:#ffffff;stroke-linecap:square;"/>
     </g>
     <g id="line2d_54">
      <path d="M 522.146827 465.764082 
" style="fill:none;stroke:#333333;stroke-linecap:square;stroke-width:1.5;"/>
      <g>
       <use style="fill:#333333;stroke:#000000;" x="522.146827" xlink:href="#m7610e25545" y="465.764082"/>
      </g>
     </g>
     <g id="text_21">
      <!-- False -->
      <g style="fill:#4d4d4d;" transform="translate(511.09939 477.400707)scale(0.088 -0.088)">
       <use xlink:href="#DejaVuSans-46"/>
       <use x="48.394531" xlink:href="#DejaVuSans-61"/>
       <use x="109.673828" xlink:href="#DejaVuSans-6c"/>
       <use x="137.457031" xlink:href="#DejaVuSans-73"/>
       <use x="189.556641" xlink:href="#DejaVuSans-65"/>
      </g>
     </g>
    </g>
    <g id="xtick_11">
     <g id="line2d_55">
      <path clip-path="url(#p0d18c9716d)" d="M 781.681711 465.764082 
L 781.681711 253.674082 
" style="fill:none;stroke:#ffffff;stroke-linecap:square;"/>
     </g>
     <g id="line2d_56">
      <path d="M 781.681711 465.764082 
" style="fill:none;stroke:#333333;stroke-linecap:square;stroke-width:1.5;"/>
      <g>
       <use style="fill:#333333;stroke:#000000;" x="781.681711" xlink:href="#m7610e25545" y="465.764082"/>
      </g>
     </g>
     <g id="text_22">
      <!-- True -->
      <g style="fill:#4d4d4d;" transform="translate(772.338586 477.400707)scale(0.088 -0.088)">
       <use xlink:href="#DejaVuSans-54"/>
       <use x="46.333984" xlink:href="#DejaVuSans-72"/>
       <use x="87.447266" xlink:href="#DejaVuSans-75"/>
       <use x="150.826172" xlink:href="#DejaVuSans-65"/>
      </g>
     </g>
    </g>
    <g id="xtick_12">
     <g id="line2d_57">
      <path clip-path="url(#p0d18c9716d)" d="M 651.914269 465.764082 
L 651.914269 253.674082 
" style="fill:none;stroke:#ffffff;stroke-linecap:square;stroke-width:0.5;"/>
     </g>
    </g>
    <g id="text_23">
     <!-- Batch normalization generator -->
     <g transform="translate(346.3315 491.989114)scale(0.11 -0.11)">
      <defs>
       <path d="M 1259 2228 
L 1259 519 
L 2272 519 
Q 2781 519 3026 730 
Q 3272 941 3272 1375 
Q 3272 1813 3026 2020 
Q 2781 2228 2272 2228 
L 1259 2228 
z
M 1259 4147 
L 1259 2741 
L 2194 2741 
Q 2656 2741 2882 2914 
Q 3109 3088 3109 3444 
Q 3109 3797 2882 3972 
Q 2656 4147 2194 4147 
L 1259 4147 
z
M 628 4666 
L 2241 4666 
Q 2963 4666 3353 4366 
Q 3744 4066 3744 3513 
Q 3744 3084 3544 2831 
Q 3344 2578 2956 2516 
Q 3422 2416 3680 2098 
Q 3938 1781 3938 1306 
Q 3938 681 3513 340 
Q 3088 0 2303 0 
L 628 0 
L 628 4666 
z
" id="DejaVuSans-42" transform="scale(0.015625)"/>
       <path d="M 3328 2828 
Q 3544 3216 3844 3400 
Q 4144 3584 4550 3584 
Q 5097 3584 5394 3201 
Q 5691 2819 5691 2113 
L 5691 0 
L 5113 0 
L 5113 2094 
Q 5113 2597 4934 2840 
Q 4756 3084 4391 3084 
Q 3944 3084 3684 2787 
Q 3425 2491 3425 1978 
L 3425 0 
L 2847 0 
L 2847 2094 
Q 2847 2600 2669 2842 
Q 2491 3084 2119 3084 
Q 1678 3084 1418 2786 
Q 1159 2488 1159 1978 
L 1159 0 
L 581 0 
L 581 3500 
L 1159 3500 
L 1159 2956 
Q 1356 3278 1631 3431 
Q 1906 3584 2284 3584 
Q 2666 3584 2933 3390 
Q 3200 3197 3328 2828 
z
" id="DejaVuSans-6d" transform="scale(0.015625)"/>
       <path d="M 353 3500 
L 3084 3500 
L 3084 2975 
L 922 459 
L 3084 459 
L 3084 0 
L 275 0 
L 275 525 
L 2438 3041 
L 353 3041 
L 353 3500 
z
" id="DejaVuSans-7a" transform="scale(0.015625)"/>
       <path d="M 2906 1791 
Q 2906 2416 2648 2759 
Q 2391 3103 1925 3103 
Q 1463 3103 1205 2759 
Q 947 2416 947 1791 
Q 947 1169 1205 825 
Q 1463 481 1925 481 
Q 2391 481 2648 825 
Q 2906 1169 2906 1791 
z
M 3481 434 
Q 3481 -459 3084 -895 
Q 2688 -1331 1869 -1331 
Q 1566 -1331 1297 -1286 
Q 1028 -1241 775 -1147 
L 775 -588 
Q 1028 -725 1275 -790 
Q 1522 -856 1778 -856 
Q 2344 -856 2625 -561 
Q 2906 -266 2906 331 
L 2906 616 
Q 2728 306 2450 153 
Q 2172 0 1784 0 
Q 1141 0 747 490 
Q 353 981 353 1791 
Q 353 2603 747 3093 
Q 1141 3584 1784 3584 
Q 2172 3584 2450 3431 
Q 2728 3278 2906 2969 
L 2906 3500 
L 3481 3500 
L 3481 434 
z
" id="DejaVuSans-67" transform="scale(0.015625)"/>
      </defs>
      <use xlink:href="#DejaVuSans-42"/>
      <use x="68.603516" xlink:href="#DejaVuSans-61"/>
      <use x="129.882812" xlink:href="#DejaVuSans-74"/>
      <use x="169.091797" xlink:href="#DejaVuSans-63"/>
      <use x="224.072266" xlink:href="#DejaVuSans-68"/>
      <use x="287.451172" xlink:href="#DejaVuSans-20"/>
      <use x="319.238281" xlink:href="#DejaVuSans-6e"/>
      <use x="382.617188" xlink:href="#DejaVuSans-6f"/>
      <use x="443.798828" xlink:href="#DejaVuSans-72"/>
      <use x="483.162109" xlink:href="#DejaVuSans-6d"/>
      <use x="580.574219" xlink:href="#DejaVuSans-61"/>
      <use x="641.853516" xlink:href="#DejaVuSans-6c"/>
      <use x="669.636719" xlink:href="#DejaVuSans-69"/>
      <use x="697.419922" xlink:href="#DejaVuSans-7a"/>
      <use x="749.910156" xlink:href="#DejaVuSans-61"/>
      <use x="811.189453" xlink:href="#DejaVuSans-74"/>
      <use x="850.398438" xlink:href="#DejaVuSans-69"/>
      <use x="878.181641" xlink:href="#DejaVuSans-6f"/>
      <use x="939.363281" xlink:href="#DejaVuSans-6e"/>
      <use x="1002.742188" xlink:href="#DejaVuSans-20"/>
      <use x="1034.529297" xlink:href="#DejaVuSans-67"/>
      <use x="1098.005859" xlink:href="#DejaVuSans-65"/>
      <use x="1159.529297" xlink:href="#DejaVuSans-6e"/>
      <use x="1222.908203" xlink:href="#DejaVuSans-65"/>
      <use x="1284.431641" xlink:href="#DejaVuSans-72"/>
      <use x="1325.544922" xlink:href="#DejaVuSans-61"/>
      <use x="1386.824219" xlink:href="#DejaVuSans-74"/>
      <use x="1426.033203" xlink:href="#DejaVuSans-6f"/>
      <use x="1487.214844" xlink:href="#DejaVuSans-72"/>
     </g>
    </g>
   </g>
   <g id="matplotlib.axis_8">
    <g id="ytick_24">
     <g id="line2d_58">
      <path clip-path="url(#p0d18c9716d)" d="M 470.23985 410.7093 
L 833.588688 410.7093 
" style="fill:none;stroke:#ffffff;stroke-linecap:square;"/>
     </g>
     <g id="line2d_59">
      <path d="M 470.23985 410.7093 
" style="fill:none;stroke:#333333;stroke-linecap:square;stroke-width:1.5;"/>
      <g>
       <use style="fill:#333333;stroke:#000000;" x="470.23985" xlink:href="#mdc51d6f769" y="410.7093"/>
      </g>
     </g>
     <g id="text_24">
      <!-- 0.654 -->
      <g style="fill:#4d4d4d;" transform="translate(440.0971 413.13755)scale(0.088 -0.088)">
       <use xlink:href="#DejaVuSans-30"/>
       <use x="63.623047" xlink:href="#DejaVuSans-2e"/>
       <use x="95.410156" xlink:href="#DejaVuSans-36"/>
       <use x="159.033203" xlink:href="#DejaVuSans-35"/>
       <use x="222.65625" xlink:href="#DejaVuSans-34"/>
      </g>
     </g>
    </g>
    <g id="ytick_25">
     <g id="line2d_60">
      <path clip-path="url(#p0d18c9716d)" d="M 470.23985 346.699656 
L 833.588688 346.699656 
" style="fill:none;stroke:#ffffff;stroke-linecap:square;"/>
     </g>
     <g id="line2d_61">
      <path d="M 470.23985 346.699656 
" style="fill:none;stroke:#333333;stroke-linecap:square;stroke-width:1.5;"/>
      <g>
       <use style="fill:#333333;stroke:#000000;" x="470.23985" xlink:href="#mdc51d6f769" y="346.699656"/>
      </g>
     </g>
     <g id="text_25">
      <!-- 0.656 -->
      <g style="fill:#4d4d4d;" transform="translate(440.0971 349.127906)scale(0.088 -0.088)">
       <use xlink:href="#DejaVuSans-30"/>
       <use x="63.623047" xlink:href="#DejaVuSans-2e"/>
       <use x="95.410156" xlink:href="#DejaVuSans-36"/>
       <use x="159.033203" xlink:href="#DejaVuSans-35"/>
       <use x="222.65625" xlink:href="#DejaVuSans-36"/>
      </g>
     </g>
    </g>
    <g id="ytick_26">
     <g id="line2d_62">
      <path clip-path="url(#p0d18c9716d)" d="M 470.23985 282.690011 
L 833.588688 282.690011 
" style="fill:none;stroke:#ffffff;stroke-linecap:square;"/>
     </g>
     <g id="line2d_63">
      <path d="M 470.23985 282.690011 
" style="fill:none;stroke:#333333;stroke-linecap:square;stroke-width:1.5;"/>
      <g>
       <use style="fill:#333333;stroke:#000000;" x="470.23985" xlink:href="#mdc51d6f769" y="282.690011"/>
      </g>
     </g>
     <g id="text_26">
      <!-- 0.658 -->
      <g style="fill:#4d4d4d;" transform="translate(440.0971 285.118261)scale(0.088 -0.088)">
       <use xlink:href="#DejaVuSans-30"/>
       <use x="63.623047" xlink:href="#DejaVuSans-2e"/>
       <use x="95.410156" xlink:href="#DejaVuSans-36"/>
       <use x="159.033203" xlink:href="#DejaVuSans-35"/>
       <use x="222.65625" xlink:href="#DejaVuSans-38"/>
      </g>
     </g>
    </g>
    <g id="ytick_27">
     <g id="line2d_64">
      <path clip-path="url(#p0d18c9716d)" d="M 470.23985 442.714122 
L 833.588688 442.714122 
" style="fill:none;stroke:#ffffff;stroke-linecap:square;stroke-width:0.5;"/>
     </g>
    </g>
    <g id="ytick_28">
     <g id="line2d_65">
      <path clip-path="url(#p0d18c9716d)" d="M 470.23985 378.704478 
L 833.588688 378.704478 
" style="fill:none;stroke:#ffffff;stroke-linecap:square;stroke-width:0.5;"/>
     </g>
    </g>
    <g id="ytick_29">
     <g id="line2d_66">
      <path clip-path="url(#p0d18c9716d)" d="M 470.23985 314.694833 
L 833.588688 314.694833 
" style="fill:none;stroke:#ffffff;stroke-linecap:square;stroke-width:0.5;"/>
     </g>
    </g>
   </g>
   <g id="line2d_67">
    <path clip-path="url(#p0d18c9716d)" d="M 522.146827 456.123628 
L 781.681711 263.314537 
" style="fill:none;stroke:#db5f57;stroke-width:0.886227;"/>
   </g>
   <g id="PathCollection_4">
    <path clip-path="url(#p0d18c9716d)" d="M 522.146827 457.896082 
C 522.616887 457.896082 523.067758 457.709325 523.400141 457.376942 
C 523.732524 457.044559 523.919281 456.593688 523.919281 456.123628 
C 523.919281 455.653568 523.732524 455.202696 523.400141 454.870314 
C 523.067758 454.537931 522.616887 454.351174 522.146827 454.351174 
C 521.676767 454.351174 521.225896 454.537931 520.893513 454.870314 
C 520.56113 455.202696 520.374373 455.653568 520.374373 456.123628 
C 520.374373 456.593688 520.56113 457.044559 520.893513 457.376942 
C 521.225896 457.709325 521.676767 457.896082 522.146827 457.896082 
z
" style="fill:#db5f57;stroke:#db5f57;stroke-width:0.886227;"/>
    <path clip-path="url(#p0d18c9716d)" d="M 781.681711 265.086991 
C 782.151771 265.086991 782.602642 264.900234 782.935025 264.567851 
C 783.267408 264.235468 783.454165 263.784597 783.454165 263.314537 
C 783.454165 262.844477 783.267408 262.393606 782.935025 262.061223 
C 782.602642 261.72884 782.151771 261.542083 781.681711 261.542083 
C 781.21165 261.542083 780.760779 261.72884 780.428397 262.061223 
C 780.096014 262.393606 779.909257 262.844477 779.909257 263.314537 
C 779.909257 263.784597 780.096014 264.235468 780.428397 264.567851 
C 780.760779 264.900234 781.21165 265.086991 781.681711 265.086991 
z
" style="fill:#db5f57;stroke:#db5f57;stroke-width:0.886227;"/>
    <path clip-path="url(#p0d18c9716d)" d="M 781.681711 283.973211 
C 782.151771 283.973211 782.602642 283.786454 782.935025 283.454071 
C 783.267408 283.121688 783.454165 282.670817 783.454165 282.200757 
C 783.454165 281.730697 783.267408 281.279826 782.935025 280.947443 
C 782.602642 280.61506 782.151771 280.428303 781.681711 280.428303 
C 781.21165 280.428303 780.760779 280.61506 780.428397 280.947443 
C 780.096014 281.279826 779.909257 281.730697 779.909257 282.200757 
C 779.909257 282.670817 780.096014 283.121688 780.428397 283.454071 
C 780.760779 283.786454 781.21165 283.973211 781.681711 283.973211 
z
" style="fill:#57d3db;stroke:#57d3db;stroke-width:0.886227;"/>
   </g>
   <g id="patch_12">
    <path d="M 470.23985 253.674082 
L 833.588688 253.674082 
L 833.588688 238.63 
L 470.23985 238.63 
z
" style="fill:#d9d9d9;"/>
   </g>
   <g id="text_27">
    <!-- F1 score: &gt;50K -->
    <g style="fill:#1a1a1a;" transform="translate(618.312706 248.580291)scale(0.088 -0.088)">
     <defs>
      <path d="M 678 3150 
L 678 3719 
L 4684 2266 
L 4684 1747 
L 678 294 
L 678 863 
L 3897 2003 
L 678 3150 
z
" id="DejaVuSans-3e" transform="scale(0.015625)"/>
     </defs>
     <use xlink:href="#DejaVuSans-46"/>
     <use x="57.519531" xlink:href="#DejaVuSans-31"/>
     <use x="121.142578" xlink:href="#DejaVuSans-20"/>
     <use x="152.929688" xlink:href="#DejaVuSans-73"/>
     <use x="205.029297" xlink:href="#DejaVuSans-63"/>
     <use x="260.009766" xlink:href="#DejaVuSans-6f"/>
     <use x="321.191406" xlink:href="#DejaVuSans-72"/>
     <use x="360.054688" xlink:href="#DejaVuSans-65"/>
     <use x="421.578125" xlink:href="#DejaVuSans-3a"/>
     <use x="455.269531" xlink:href="#DejaVuSans-20"/>
     <use x="487.056641" xlink:href="#DejaVuSans-3e"/>
     <use x="570.845703" xlink:href="#DejaVuSans-35"/>
     <use x="634.46875" xlink:href="#DejaVuSans-30"/>
     <use x="698.091797" xlink:href="#DejaVuSans-4b"/>
    </g>
   </g>
  </g>
 </g>
 <defs>
  <clipPath id="pdd82949e66">
   <rect height="212.09" width="363.348837" x="52.388688" y="22.244082"/>
  </clipPath>
  <clipPath id="p0f8e47e3ac">
   <path d="M 852.988688 247.647051 
L 852.988688 231.807051 
L 868.828688 231.807051 
L 868.828688 247.647051 
"/>
  </clipPath>
  <clipPath id="pa31fb16f0c">
   <path d="M 852.988688 265.487051 
L 852.988688 249.647051 
L 868.828688 249.647051 
L 868.828688 265.487051 
"/>
  </clipPath>
  <clipPath id="p787686f20b">
   <rect height="212.09" width="363.348837" x="470.23985" y="22.244082"/>
  </clipPath>
  <clipPath id="pb6571c3f30">
   <rect height="212.09" width="363.348837" x="52.388688" y="253.674082"/>
  </clipPath>
  <clipPath id="p0d18c9716d">
   <rect height="212.09" width="363.348837" x="470.23985" y="253.674082"/>
  </clipPath>
 </defs>
</svg>
