<?xml version="1.0" encoding="utf-8" standalone="no"?>
<!DOCTYPE svg PUBLIC "-//W3C//DTD SVG 1.1//EN"
  "http://www.w3.org/Graphics/SVG/1.1/DTD/svg11.dtd">
<svg height="501.47677pt" version="1.1" viewBox="0 0 983.649562 501.47677" width="983.649562pt" xmlns="http://www.w3.org/2000/svg" xmlns:xlink="http://www.w3.org/1999/xlink">
 <metadata>
  <rdf:RDF xmlns:cc="http://creativecommons.org/ns#" xmlns:dc="http://purl.org/dc/elements/1.1/" xmlns:rdf="http://www.w3.org/1999/02/22-rdf-syntax-ns#">
   <cc:Work>
    <dc:type rdf:resource="http://purl.org/dc/dcmitype/StillImage"/>
    <dc:date>2022-06-14T12:36:44.343985</dc:date>
    <dc:format>image/svg+xml</dc:format>
    <dc:creator>
     <cc:Agent>
      <dc:title>Matplotlib v3.4.3, https://matplotlib.org/</dc:title>
     </cc:Agent>
    </dc:creator>
   </cc:Work>
  </rdf:RDF>
 </metadata>
 <defs>
  <style type="text/css">*{stroke-linecap:butt;stroke-linejoin:round;}</style>
 </defs>
 <g id="figure_1">
  <g id="patch_1">
   <path d="M 0 501.47677 
L 983.649562 501.47677 
L 983.649562 0 
L 0 0 
z
" style="fill:#ffffff;stroke:#ffffff;stroke-linejoin:miter;"/>
  </g>
  <g id="axes_1">
   <g id="patch_2">
    <path d="M 57.987688 234.334082 
L 421.336525 234.334082 
L 421.336525 22.244082 
L 57.987688 22.244082 
z
" style="fill:#ebebeb;"/>
   </g>
   <g id="matplotlib.axis_1">
    <g id="xtick_1">
     <g id="line2d_1">
      <path clip-path="url(#pf7728ad9bb)" d="M 109.894664 234.334082 
L 109.894664 22.244082 
" style="fill:none;stroke:#ffffff;"/>
     </g>
    </g>
    <g id="xtick_2">
     <g id="line2d_2">
      <path clip-path="url(#pf7728ad9bb)" d="M 369.429548 234.334082 
L 369.429548 22.244082 
" style="fill:none;stroke:#ffffff;"/>
     </g>
    </g>
    <g id="xtick_3">
     <g id="line2d_3">
      <path clip-path="url(#pf7728ad9bb)" d="M 239.662106 234.334082 
L 239.662106 22.244082 
" style="fill:none;stroke:#ffffff;stroke-width:0.5;"/>
     </g>
    </g>
   </g>
   <g id="matplotlib.axis_2">
    <g id="ytick_1">
     <g id="line2d_4">
      <path clip-path="url(#pf7728ad9bb)" d="M 57.987688 220.722942 
L 421.336525 220.722942 
" style="fill:none;stroke:#ffffff;"/>
     </g>
     <g id="line2d_5">
      <path d="M 57.987688 220.722942 
" style="fill:none;stroke:#333333;stroke-width:1.5;"/>
      <defs>
       <path d="M 0 0 
L -2.75 0 
" id="mc274a43c6d" style="stroke:#000000;"/>
      </defs>
      <g>
       <use style="fill:#333333;stroke:#000000;" x="57.987688" xlink:href="#mc274a43c6d" y="220.722942"/>
      </g>
     </g>
     <g id="text_1">
      <!-- 0.8415 -->
      <g style="fill:#4d4d4d;" transform="translate(22.245938 223.151192)scale(0.088 -0.088)">
       <defs>
        <path d="M 2034 4250 
Q 1547 4250 1301 3770 
Q 1056 3291 1056 2328 
Q 1056 1369 1301 889 
Q 1547 409 2034 409 
Q 2525 409 2770 889 
Q 3016 1369 3016 2328 
Q 3016 3291 2770 3770 
Q 2525 4250 2034 4250 
z
M 2034 4750 
Q 2819 4750 3233 4129 
Q 3647 3509 3647 2328 
Q 3647 1150 3233 529 
Q 2819 -91 2034 -91 
Q 1250 -91 836 529 
Q 422 1150 422 2328 
Q 422 3509 836 4129 
Q 1250 4750 2034 4750 
z
" id="DejaVuSans-30" transform="scale(0.015625)"/>
        <path d="M 684 794 
L 1344 794 
L 1344 0 
L 684 0 
L 684 794 
z
" id="DejaVuSans-2e" transform="scale(0.015625)"/>
        <path d="M 2034 2216 
Q 1584 2216 1326 1975 
Q 1069 1734 1069 1313 
Q 1069 891 1326 650 
Q 1584 409 2034 409 
Q 2484 409 2743 651 
Q 3003 894 3003 1313 
Q 3003 1734 2745 1975 
Q 2488 2216 2034 2216 
z
M 1403 2484 
Q 997 2584 770 2862 
Q 544 3141 544 3541 
Q 544 4100 942 4425 
Q 1341 4750 2034 4750 
Q 2731 4750 3128 4425 
Q 3525 4100 3525 3541 
Q 3525 3141 3298 2862 
Q 3072 2584 2669 2484 
Q 3125 2378 3379 2068 
Q 3634 1759 3634 1313 
Q 3634 634 3220 271 
Q 2806 -91 2034 -91 
Q 1263 -91 848 271 
Q 434 634 434 1313 
Q 434 1759 690 2068 
Q 947 2378 1403 2484 
z
M 1172 3481 
Q 1172 3119 1398 2916 
Q 1625 2713 2034 2713 
Q 2441 2713 2670 2916 
Q 2900 3119 2900 3481 
Q 2900 3844 2670 4047 
Q 2441 4250 2034 4250 
Q 1625 4250 1398 4047 
Q 1172 3844 1172 3481 
z
" id="DejaVuSans-38" transform="scale(0.015625)"/>
        <path d="M 2419 4116 
L 825 1625 
L 2419 1625 
L 2419 4116 
z
M 2253 4666 
L 3047 4666 
L 3047 1625 
L 3713 1625 
L 3713 1100 
L 3047 1100 
L 3047 0 
L 2419 0 
L 2419 1100 
L 313 1100 
L 313 1709 
L 2253 4666 
z
" id="DejaVuSans-34" transform="scale(0.015625)"/>
        <path d="M 794 531 
L 1825 531 
L 1825 4091 
L 703 3866 
L 703 4441 
L 1819 4666 
L 2450 4666 
L 2450 531 
L 3481 531 
L 3481 0 
L 794 0 
L 794 531 
z
" id="DejaVuSans-31" transform="scale(0.015625)"/>
        <path d="M 691 4666 
L 3169 4666 
L 3169 4134 
L 1269 4134 
L 1269 2991 
Q 1406 3038 1543 3061 
Q 1681 3084 1819 3084 
Q 2600 3084 3056 2656 
Q 3513 2228 3513 1497 
Q 3513 744 3044 326 
Q 2575 -91 1722 -91 
Q 1428 -91 1123 -41 
Q 819 9 494 109 
L 494 744 
Q 775 591 1075 516 
Q 1375 441 1709 441 
Q 2250 441 2565 725 
Q 2881 1009 2881 1497 
Q 2881 1984 2565 2268 
Q 2250 2553 1709 2553 
Q 1456 2553 1204 2497 
Q 953 2441 691 2322 
L 691 4666 
z
" id="DejaVuSans-35" transform="scale(0.015625)"/>
       </defs>
       <use xlink:href="#DejaVuSans-30"/>
       <use x="63.623047" xlink:href="#DejaVuSans-2e"/>
       <use x="95.410156" xlink:href="#DejaVuSans-38"/>
       <use x="159.033203" xlink:href="#DejaVuSans-34"/>
       <use x="222.65625" xlink:href="#DejaVuSans-31"/>
       <use x="286.279297" xlink:href="#DejaVuSans-35"/>
      </g>
     </g>
    </g>
    <g id="ytick_2">
     <g id="line2d_6">
      <path clip-path="url(#pf7728ad9bb)" d="M 57.987688 151.189779 
L 421.336525 151.189779 
" style="fill:none;stroke:#ffffff;"/>
     </g>
     <g id="line2d_7">
      <path d="M 57.987688 151.189779 
" style="fill:none;stroke:#333333;stroke-width:1.5;"/>
      <g>
       <use style="fill:#333333;stroke:#000000;" x="57.987688" xlink:href="#mc274a43c6d" y="151.189779"/>
      </g>
     </g>
     <g id="text_2">
      <!-- 0.8420 -->
      <g style="fill:#4d4d4d;" transform="translate(22.245938 153.618029)scale(0.088 -0.088)">
       <defs>
        <path d="M 1228 531 
L 3431 531 
L 3431 0 
L 469 0 
L 469 531 
Q 828 903 1448 1529 
Q 2069 2156 2228 2338 
Q 2531 2678 2651 2914 
Q 2772 3150 2772 3378 
Q 2772 3750 2511 3984 
Q 2250 4219 1831 4219 
Q 1534 4219 1204 4116 
Q 875 4013 500 3803 
L 500 4441 
Q 881 4594 1212 4672 
Q 1544 4750 1819 4750 
Q 2544 4750 2975 4387 
Q 3406 4025 3406 3419 
Q 3406 3131 3298 2873 
Q 3191 2616 2906 2266 
Q 2828 2175 2409 1742 
Q 1991 1309 1228 531 
z
" id="DejaVuSans-32" transform="scale(0.015625)"/>
       </defs>
       <use xlink:href="#DejaVuSans-30"/>
       <use x="63.623047" xlink:href="#DejaVuSans-2e"/>
       <use x="95.410156" xlink:href="#DejaVuSans-38"/>
       <use x="159.033203" xlink:href="#DejaVuSans-34"/>
       <use x="222.65625" xlink:href="#DejaVuSans-32"/>
       <use x="286.279297" xlink:href="#DejaVuSans-30"/>
      </g>
     </g>
    </g>
    <g id="ytick_3">
     <g id="line2d_8">
      <path clip-path="url(#pf7728ad9bb)" d="M 57.987688 81.656615 
L 421.336525 81.656615 
" style="fill:none;stroke:#ffffff;"/>
     </g>
     <g id="line2d_9">
      <path d="M 57.987688 81.656615 
" style="fill:none;stroke:#333333;stroke-width:1.5;"/>
      <g>
       <use style="fill:#333333;stroke:#000000;" x="57.987688" xlink:href="#mc274a43c6d" y="81.656615"/>
      </g>
     </g>
     <g id="text_3">
      <!-- 0.8425 -->
      <g style="fill:#4d4d4d;" transform="translate(22.245938 84.084865)scale(0.088 -0.088)">
       <use xlink:href="#DejaVuSans-30"/>
       <use x="63.623047" xlink:href="#DejaVuSans-2e"/>
       <use x="95.410156" xlink:href="#DejaVuSans-38"/>
       <use x="159.033203" xlink:href="#DejaVuSans-34"/>
       <use x="222.65625" xlink:href="#DejaVuSans-32"/>
       <use x="286.279297" xlink:href="#DejaVuSans-35"/>
      </g>
     </g>
    </g>
    <g id="ytick_4">
     <g id="line2d_10">
      <path clip-path="url(#pf7728ad9bb)" d="M 57.987688 185.956361 
L 421.336525 185.956361 
" style="fill:none;stroke:#ffffff;stroke-width:0.5;"/>
     </g>
    </g>
    <g id="ytick_5">
     <g id="line2d_11">
      <path clip-path="url(#pf7728ad9bb)" d="M 57.987688 116.423197 
L 421.336525 116.423197 
" style="fill:none;stroke:#ffffff;stroke-width:0.5;"/>
     </g>
    </g>
    <g id="ytick_6">
     <g id="line2d_12">
      <path clip-path="url(#pf7728ad9bb)" d="M 57.987688 46.890034 
L 421.336525 46.890034 
" style="fill:none;stroke:#ffffff;stroke-width:0.5;"/>
     </g>
    </g>
    <g id="text_4">
     <!-- Value -->
     <g transform="translate(15.558281 256.228457)rotate(-90)scale(0.11 -0.11)">
      <defs>
       <path d="M 1831 0 
L 50 4666 
L 709 4666 
L 2188 738 
L 3669 4666 
L 4325 4666 
L 2547 0 
L 1831 0 
z
" id="DejaVuSans-56" transform="scale(0.015625)"/>
       <path d="M 2194 1759 
Q 1497 1759 1228 1600 
Q 959 1441 959 1056 
Q 959 750 1161 570 
Q 1363 391 1709 391 
Q 2188 391 2477 730 
Q 2766 1069 2766 1631 
L 2766 1759 
L 2194 1759 
z
M 3341 1997 
L 3341 0 
L 2766 0 
L 2766 531 
Q 2569 213 2275 61 
Q 1981 -91 1556 -91 
Q 1019 -91 701 211 
Q 384 513 384 1019 
Q 384 1609 779 1909 
Q 1175 2209 1959 2209 
L 2766 2209 
L 2766 2266 
Q 2766 2663 2505 2880 
Q 2244 3097 1772 3097 
Q 1472 3097 1187 3025 
Q 903 2953 641 2809 
L 641 3341 
Q 956 3463 1253 3523 
Q 1550 3584 1831 3584 
Q 2591 3584 2966 3190 
Q 3341 2797 3341 1997 
z
" id="DejaVuSans-61" transform="scale(0.015625)"/>
       <path d="M 603 4863 
L 1178 4863 
L 1178 0 
L 603 0 
L 603 4863 
z
" id="DejaVuSans-6c" transform="scale(0.015625)"/>
       <path d="M 544 1381 
L 544 3500 
L 1119 3500 
L 1119 1403 
Q 1119 906 1312 657 
Q 1506 409 1894 409 
Q 2359 409 2629 706 
Q 2900 1003 2900 1516 
L 2900 3500 
L 3475 3500 
L 3475 0 
L 2900 0 
L 2900 538 
Q 2691 219 2414 64 
Q 2138 -91 1772 -91 
Q 1169 -91 856 284 
Q 544 659 544 1381 
z
M 1991 3584 
L 1991 3584 
z
" id="DejaVuSans-75" transform="scale(0.015625)"/>
       <path d="M 3597 1894 
L 3597 1613 
L 953 1613 
Q 991 1019 1311 708 
Q 1631 397 2203 397 
Q 2534 397 2845 478 
Q 3156 559 3463 722 
L 3463 178 
Q 3153 47 2828 -22 
Q 2503 -91 2169 -91 
Q 1331 -91 842 396 
Q 353 884 353 1716 
Q 353 2575 817 3079 
Q 1281 3584 2069 3584 
Q 2775 3584 3186 3129 
Q 3597 2675 3597 1894 
z
M 3022 2063 
Q 3016 2534 2758 2815 
Q 2500 3097 2075 3097 
Q 1594 3097 1305 2825 
Q 1016 2553 972 2059 
L 3022 2063 
z
" id="DejaVuSans-65" transform="scale(0.015625)"/>
      </defs>
      <use xlink:href="#DejaVuSans-56"/>
      <use x="60.658203" xlink:href="#DejaVuSans-61"/>
      <use x="121.9375" xlink:href="#DejaVuSans-6c"/>
      <use x="149.720703" xlink:href="#DejaVuSans-75"/>
      <use x="213.099609" xlink:href="#DejaVuSans-65"/>
     </g>
    </g>
   </g>
   <g id="line2d_13">
    <path clip-path="url(#pf7728ad9bb)" d="M 109.894664 55.523966 
L 369.429548 31.884537 
" style="fill:none;stroke:#57db5f;stroke-width:0.886227;"/>
   </g>
   <g id="line2d_14">
    <path clip-path="url(#pf7728ad9bb)" d="M 109.894664 224.693628 
L 369.429548 110.559511 
" style="fill:none;stroke:#5f57db;stroke-width:0.886227;"/>
   </g>
   <g id="PathCollection_1">
    <path clip-path="url(#pf7728ad9bb)" d="M 109.894664 89.800634 
C 110.364725 89.800634 110.815596 89.613877 111.147978 89.281494 
C 111.480361 88.949112 111.667118 88.49824 111.667118 88.02818 
C 111.667118 87.55812 111.480361 87.107249 111.147978 86.774866 
C 110.815596 86.442483 110.364725 86.255726 109.894664 86.255726 
C 109.424604 86.255726 108.973733 86.442483 108.64135 86.774866 
C 108.308967 87.107249 108.12221 87.55812 108.12221 88.02818 
C 108.12221 88.49824 108.308967 88.949112 108.64135 89.281494 
C 108.973733 89.613877 109.424604 89.800634 109.894664 89.800634 
z
" style="fill:#db5f57;stroke:#db5f57;stroke-width:0.886227;"/>
    <path clip-path="url(#pf7728ad9bb)" d="M 109.894664 57.29642 
C 110.364725 57.29642 110.815596 57.109663 111.147978 56.77728 
C 111.480361 56.444897 111.667118 55.994026 111.667118 55.523966 
C 111.667118 55.053905 111.480361 54.603034 111.147978 54.270652 
C 110.815596 53.938269 110.364725 53.751512 109.894664 53.751512 
C 109.424604 53.751512 108.973733 53.938269 108.64135 54.270652 
C 108.308967 54.603034 108.12221 55.053905 108.12221 55.523966 
C 108.12221 55.994026 108.308967 56.444897 108.64135 56.77728 
C 108.973733 57.109663 109.424604 57.29642 109.894664 57.29642 
z
" style="fill:#57db5f;stroke:#57db5f;stroke-width:0.886227;"/>
    <path clip-path="url(#pf7728ad9bb)" d="M 109.894664 226.466082 
C 110.364725 226.466082 110.815596 226.279325 111.147978 225.946942 
C 111.480361 225.614559 111.667118 225.163688 111.667118 224.693628 
C 111.667118 224.223568 111.480361 223.772696 111.147978 223.440314 
C 110.815596 223.107931 110.364725 222.921174 109.894664 222.921174 
C 109.424604 222.921174 108.973733 223.107931 108.64135 223.440314 
C 108.308967 223.772696 108.12221 224.223568 108.12221 224.693628 
C 108.12221 225.163688 108.308967 225.614559 108.64135 225.946942 
C 108.973733 226.279325 109.424604 226.466082 109.894664 226.466082 
z
" style="fill:#5f57db;stroke:#5f57db;stroke-width:0.886227;"/>
    <path clip-path="url(#pf7728ad9bb)" d="M 369.429548 33.656991 
C 369.899608 33.656991 370.350479 33.470234 370.682862 33.137851 
C 371.015245 32.805468 371.202002 32.354597 371.202002 31.884537 
C 371.202002 31.414477 371.015245 30.963606 370.682862 30.631223 
C 370.350479 30.29884 369.899608 30.112083 369.429548 30.112083 
C 368.959488 30.112083 368.508617 30.29884 368.176234 30.631223 
C 367.843851 30.963606 367.657094 31.414477 367.657094 31.884537 
C 367.657094 32.354597 367.843851 32.805468 368.176234 33.137851 
C 368.508617 33.470234 368.959488 33.656991 369.429548 33.656991 
z
" style="fill:#57db5f;stroke:#57db5f;stroke-width:0.886227;"/>
    <path clip-path="url(#pf7728ad9bb)" d="M 369.429548 112.331965 
C 369.899608 112.331965 370.350479 112.145208 370.682862 111.812825 
C 371.015245 111.480442 371.202002 111.029571 371.202002 110.559511 
C 371.202002 110.089451 371.015245 109.638579 370.682862 109.306197 
C 370.350479 108.973814 369.899608 108.787057 369.429548 108.787057 
C 368.959488 108.787057 368.508617 108.973814 368.176234 109.306197 
C 367.843851 109.638579 367.657094 110.089451 367.657094 110.559511 
C 367.657094 111.029571 367.843851 111.480442 368.176234 111.812825 
C 368.508617 112.145208 368.959488 112.331965 369.429548 112.331965 
z
" style="fill:#5f57db;stroke:#5f57db;stroke-width:0.886227;"/>
   </g>
   <g id="patch_3">
    <path d="M 57.987688 22.244082 
L 421.336525 22.244082 
L 421.336525 7.2 
L 57.987688 7.2 
z
" style="fill:#d9d9d9;"/>
   </g>
   <g id="text_5">
    <!-- Accuracy -->
    <g style="fill:#1a1a1a;" transform="translate(219.573356 17.150291)scale(0.088 -0.088)">
     <defs>
      <path d="M 2188 4044 
L 1331 1722 
L 3047 1722 
L 2188 4044 
z
M 1831 4666 
L 2547 4666 
L 4325 0 
L 3669 0 
L 3244 1197 
L 1141 1197 
L 716 0 
L 50 0 
L 1831 4666 
z
" id="DejaVuSans-41" transform="scale(0.015625)"/>
      <path d="M 3122 3366 
L 3122 2828 
Q 2878 2963 2633 3030 
Q 2388 3097 2138 3097 
Q 1578 3097 1268 2742 
Q 959 2388 959 1747 
Q 959 1106 1268 751 
Q 1578 397 2138 397 
Q 2388 397 2633 464 
Q 2878 531 3122 666 
L 3122 134 
Q 2881 22 2623 -34 
Q 2366 -91 2075 -91 
Q 1284 -91 818 406 
Q 353 903 353 1747 
Q 353 2603 823 3093 
Q 1294 3584 2113 3584 
Q 2378 3584 2631 3529 
Q 2884 3475 3122 3366 
z
" id="DejaVuSans-63" transform="scale(0.015625)"/>
      <path d="M 2631 2963 
Q 2534 3019 2420 3045 
Q 2306 3072 2169 3072 
Q 1681 3072 1420 2755 
Q 1159 2438 1159 1844 
L 1159 0 
L 581 0 
L 581 3500 
L 1159 3500 
L 1159 2956 
Q 1341 3275 1631 3429 
Q 1922 3584 2338 3584 
Q 2397 3584 2469 3576 
Q 2541 3569 2628 3553 
L 2631 2963 
z
" id="DejaVuSans-72" transform="scale(0.015625)"/>
      <path d="M 2059 -325 
Q 1816 -950 1584 -1140 
Q 1353 -1331 966 -1331 
L 506 -1331 
L 506 -850 
L 844 -850 
Q 1081 -850 1212 -737 
Q 1344 -625 1503 -206 
L 1606 56 
L 191 3500 
L 800 3500 
L 1894 763 
L 2988 3500 
L 3597 3500 
L 2059 -325 
z
" id="DejaVuSans-79" transform="scale(0.015625)"/>
     </defs>
     <use xlink:href="#DejaVuSans-41"/>
     <use x="66.658203" xlink:href="#DejaVuSans-63"/>
     <use x="121.638672" xlink:href="#DejaVuSans-63"/>
     <use x="176.619141" xlink:href="#DejaVuSans-75"/>
     <use x="239.998047" xlink:href="#DejaVuSans-72"/>
     <use x="281.111328" xlink:href="#DejaVuSans-61"/>
     <use x="342.390625" xlink:href="#DejaVuSans-63"/>
     <use x="397.371094" xlink:href="#DejaVuSans-79"/>
    </g>
   </g>
   <g id="patch_4">
    <path d="M 846.387687 286.607051 
L 976.449562 286.607051 
L 976.449562 195.641114 
L 846.387687 195.641114 
z
" style="fill:#ffffff;"/>
   </g>
   <g id="text_6">
    <!-- Layernormalization -->
    <g transform="translate(858.587688 219.234707)scale(0.11 -0.11)">
     <defs>
      <path d="M 628 4666 
L 1259 4666 
L 1259 531 
L 3531 531 
L 3531 0 
L 628 0 
L 628 4666 
z
" id="DejaVuSans-4c" transform="scale(0.015625)"/>
      <path d="M 3513 2113 
L 3513 0 
L 2938 0 
L 2938 2094 
Q 2938 2591 2744 2837 
Q 2550 3084 2163 3084 
Q 1697 3084 1428 2787 
Q 1159 2491 1159 1978 
L 1159 0 
L 581 0 
L 581 3500 
L 1159 3500 
L 1159 2956 
Q 1366 3272 1645 3428 
Q 1925 3584 2291 3584 
Q 2894 3584 3203 3211 
Q 3513 2838 3513 2113 
z
" id="DejaVuSans-6e" transform="scale(0.015625)"/>
      <path d="M 1959 3097 
Q 1497 3097 1228 2736 
Q 959 2375 959 1747 
Q 959 1119 1226 758 
Q 1494 397 1959 397 
Q 2419 397 2687 759 
Q 2956 1122 2956 1747 
Q 2956 2369 2687 2733 
Q 2419 3097 1959 3097 
z
M 1959 3584 
Q 2709 3584 3137 3096 
Q 3566 2609 3566 1747 
Q 3566 888 3137 398 
Q 2709 -91 1959 -91 
Q 1206 -91 779 398 
Q 353 888 353 1747 
Q 353 2609 779 3096 
Q 1206 3584 1959 3584 
z
" id="DejaVuSans-6f" transform="scale(0.015625)"/>
      <path d="M 3328 2828 
Q 3544 3216 3844 3400 
Q 4144 3584 4550 3584 
Q 5097 3584 5394 3201 
Q 5691 2819 5691 2113 
L 5691 0 
L 5113 0 
L 5113 2094 
Q 5113 2597 4934 2840 
Q 4756 3084 4391 3084 
Q 3944 3084 3684 2787 
Q 3425 2491 3425 1978 
L 3425 0 
L 2847 0 
L 2847 2094 
Q 2847 2600 2669 2842 
Q 2491 3084 2119 3084 
Q 1678 3084 1418 2786 
Q 1159 2488 1159 1978 
L 1159 0 
L 581 0 
L 581 3500 
L 1159 3500 
L 1159 2956 
Q 1356 3278 1631 3431 
Q 1906 3584 2284 3584 
Q 2666 3584 2933 3390 
Q 3200 3197 3328 2828 
z
" id="DejaVuSans-6d" transform="scale(0.015625)"/>
      <path d="M 603 3500 
L 1178 3500 
L 1178 0 
L 603 0 
L 603 3500 
z
M 603 4863 
L 1178 4863 
L 1178 4134 
L 603 4134 
L 603 4863 
z
" id="DejaVuSans-69" transform="scale(0.015625)"/>
      <path d="M 353 3500 
L 3084 3500 
L 3084 2975 
L 922 459 
L 3084 459 
L 3084 0 
L 275 0 
L 275 525 
L 2438 3041 
L 353 3041 
L 353 3500 
z
" id="DejaVuSans-7a" transform="scale(0.015625)"/>
      <path d="M 1172 4494 
L 1172 3500 
L 2356 3500 
L 2356 3053 
L 1172 3053 
L 1172 1153 
Q 1172 725 1289 603 
Q 1406 481 1766 481 
L 2356 481 
L 2356 0 
L 1766 0 
Q 1100 0 847 248 
Q 594 497 594 1153 
L 594 3053 
L 172 3053 
L 172 3500 
L 594 3500 
L 594 4494 
L 1172 4494 
z
" id="DejaVuSans-74" transform="scale(0.015625)"/>
     </defs>
     <use xlink:href="#DejaVuSans-4c"/>
     <use x="55.712891" xlink:href="#DejaVuSans-61"/>
     <use x="116.992188" xlink:href="#DejaVuSans-79"/>
     <use x="176.171875" xlink:href="#DejaVuSans-65"/>
     <use x="237.695312" xlink:href="#DejaVuSans-72"/>
     <use x="277.058594" xlink:href="#DejaVuSans-6e"/>
     <use x="340.4375" xlink:href="#DejaVuSans-6f"/>
     <use x="401.619141" xlink:href="#DejaVuSans-72"/>
     <use x="440.982422" xlink:href="#DejaVuSans-6d"/>
     <use x="538.394531" xlink:href="#DejaVuSans-61"/>
     <use x="599.673828" xlink:href="#DejaVuSans-6c"/>
     <use x="627.457031" xlink:href="#DejaVuSans-69"/>
     <use x="655.240234" xlink:href="#DejaVuSans-7a"/>
     <use x="707.730469" xlink:href="#DejaVuSans-61"/>
     <use x="769.009766" xlink:href="#DejaVuSans-74"/>
     <use x="808.21875" xlink:href="#DejaVuSans-69"/>
     <use x="836.001953" xlink:href="#DejaVuSans-6f"/>
     <use x="897.183594" xlink:href="#DejaVuSans-6e"/>
    </g>
   </g>
   <g id="patch_5">
    <path clip-path="url(#pb291e9e2a7)" d="M 858.587688 238.727051 
L 874.427688 238.727051 
L 874.427688 222.887051 
L 858.587688 222.887051 
z
" style="fill:#f2f2f2;"/>
   </g>
   <g id="line2d_15">
    <path clip-path="url(#pb291e9e2a7)" d="M 858.587688 230.807051 
L 874.427688 230.807051 
" style="fill:none;stroke:#db5f57;stroke-width:0.886227;"/>
   </g>
   <g id="line2d_16">
    <path clip-path="url(#pb291e9e2a7)" d="M 866.507687 230.807051 
" style="fill:none;stroke:#1f77b4;stroke-linecap:square;stroke-width:1.5;"/>
    <defs>
     <path d="M 0 1.772454 
C 0.47006 1.772454 0.920931 1.585697 1.253314 1.253314 
C 1.585697 0.920931 1.772454 0.47006 1.772454 0 
C 1.772454 -0.47006 1.585697 -0.920931 1.253314 -1.253314 
C 0.920931 -1.585697 0.47006 -1.772454 0 -1.772454 
C -0.47006 -1.772454 -0.920931 -1.585697 -1.253314 -1.253314 
C -1.585697 -0.920931 -1.772454 -0.47006 -1.772454 0 
C -1.772454 0.47006 -1.585697 0.920931 -1.253314 1.253314 
C -0.920931 1.585697 -0.47006 1.772454 0 1.772454 
z
" id="m81e2cde7db" style="stroke:#db5f57;stroke-width:0.886227;"/>
    </defs>
    <g clip-path="url(#pb291e9e2a7)">
     <use style="fill:#db5f57;stroke:#db5f57;stroke-width:0.886227;" x="866.507687" xlink:href="#m81e2cde7db" y="230.807051"/>
    </g>
   </g>
   <g id="text_7">
    <!-- None -->
    <g transform="translate(877.427688 233.235301)scale(0.088 -0.088)">
     <defs>
      <path d="M 628 4666 
L 1478 4666 
L 3547 763 
L 3547 4666 
L 4159 4666 
L 4159 0 
L 3309 0 
L 1241 3903 
L 1241 0 
L 628 0 
L 628 4666 
z
" id="DejaVuSans-4e" transform="scale(0.015625)"/>
     </defs>
     <use xlink:href="#DejaVuSans-4e"/>
     <use x="74.804688" xlink:href="#DejaVuSans-6f"/>
     <use x="135.986328" xlink:href="#DejaVuSans-6e"/>
     <use x="199.365234" xlink:href="#DejaVuSans-65"/>
    </g>
   </g>
   <g id="patch_6">
    <path clip-path="url(#p8693dedea0)" d="M 858.587688 256.567051 
L 874.427688 256.567051 
L 874.427688 240.727051 
L 858.587688 240.727051 
z
" style="fill:#f2f2f2;"/>
   </g>
   <g id="line2d_17">
    <path clip-path="url(#p8693dedea0)" d="M 858.587688 248.647051 
L 874.427688 248.647051 
" style="fill:none;stroke:#57db5f;stroke-width:0.886227;"/>
   </g>
   <g id="line2d_18">
    <path clip-path="url(#p8693dedea0)" d="M 866.507687 248.647051 
" style="fill:none;stroke:#1f77b4;stroke-linecap:square;stroke-width:1.5;"/>
    <defs>
     <path d="M 0 1.772454 
C 0.47006 1.772454 0.920931 1.585697 1.253314 1.253314 
C 1.585697 0.920931 1.772454 0.47006 1.772454 0 
C 1.772454 -0.47006 1.585697 -0.920931 1.253314 -1.253314 
C 0.920931 -1.585697 0.47006 -1.772454 0 -1.772454 
C -0.47006 -1.772454 -0.920931 -1.585697 -1.253314 -1.253314 
C -1.585697 -0.920931 -1.772454 -0.47006 -1.772454 0 
C -1.772454 0.47006 -1.585697 0.920931 -1.253314 1.253314 
C -0.920931 1.585697 -0.47006 1.772454 0 1.772454 
z
" id="mad06f1071d" style="stroke:#57db5f;stroke-width:0.886227;"/>
    </defs>
    <g clip-path="url(#p8693dedea0)">
     <use style="fill:#57db5f;stroke:#57db5f;stroke-width:0.886227;" x="866.507687" xlink:href="#mad06f1071d" y="248.647051"/>
    </g>
   </g>
   <g id="text_8">
    <!-- Simple -->
    <g transform="translate(877.427688 251.075301)scale(0.088 -0.088)">
     <defs>
      <path d="M 3425 4513 
L 3425 3897 
Q 3066 4069 2747 4153 
Q 2428 4238 2131 4238 
Q 1616 4238 1336 4038 
Q 1056 3838 1056 3469 
Q 1056 3159 1242 3001 
Q 1428 2844 1947 2747 
L 2328 2669 
Q 3034 2534 3370 2195 
Q 3706 1856 3706 1288 
Q 3706 609 3251 259 
Q 2797 -91 1919 -91 
Q 1588 -91 1214 -16 
Q 841 59 441 206 
L 441 856 
Q 825 641 1194 531 
Q 1563 422 1919 422 
Q 2459 422 2753 634 
Q 3047 847 3047 1241 
Q 3047 1584 2836 1778 
Q 2625 1972 2144 2069 
L 1759 2144 
Q 1053 2284 737 2584 
Q 422 2884 422 3419 
Q 422 4038 858 4394 
Q 1294 4750 2059 4750 
Q 2388 4750 2728 4690 
Q 3069 4631 3425 4513 
z
" id="DejaVuSans-53" transform="scale(0.015625)"/>
      <path d="M 1159 525 
L 1159 -1331 
L 581 -1331 
L 581 3500 
L 1159 3500 
L 1159 2969 
Q 1341 3281 1617 3432 
Q 1894 3584 2278 3584 
Q 2916 3584 3314 3078 
Q 3713 2572 3713 1747 
Q 3713 922 3314 415 
Q 2916 -91 2278 -91 
Q 1894 -91 1617 61 
Q 1341 213 1159 525 
z
M 3116 1747 
Q 3116 2381 2855 2742 
Q 2594 3103 2138 3103 
Q 1681 3103 1420 2742 
Q 1159 2381 1159 1747 
Q 1159 1113 1420 752 
Q 1681 391 2138 391 
Q 2594 391 2855 752 
Q 3116 1113 3116 1747 
z
" id="DejaVuSans-70" transform="scale(0.015625)"/>
     </defs>
     <use xlink:href="#DejaVuSans-53"/>
     <use x="63.476562" xlink:href="#DejaVuSans-69"/>
     <use x="91.259766" xlink:href="#DejaVuSans-6d"/>
     <use x="188.671875" xlink:href="#DejaVuSans-70"/>
     <use x="252.148438" xlink:href="#DejaVuSans-6c"/>
     <use x="279.931641" xlink:href="#DejaVuSans-65"/>
    </g>
   </g>
   <g id="patch_7">
    <path clip-path="url(#pa09a08066c)" d="M 858.587688 274.407051 
L 874.427688 274.407051 
L 874.427688 258.567051 
L 858.587688 258.567051 
z
" style="fill:#f2f2f2;"/>
   </g>
   <g id="line2d_19">
    <path clip-path="url(#pa09a08066c)" d="M 858.587688 266.487051 
L 874.427688 266.487051 
" style="fill:none;stroke:#5f57db;stroke-width:0.886227;"/>
   </g>
   <g id="line2d_20">
    <path clip-path="url(#pa09a08066c)" d="M 866.507687 266.487051 
" style="fill:none;stroke:#1f77b4;stroke-linecap:square;stroke-width:1.5;"/>
    <defs>
     <path d="M 0 1.772454 
C 0.47006 1.772454 0.920931 1.585697 1.253314 1.253314 
C 1.585697 0.920931 1.772454 0.47006 1.772454 0 
C 1.772454 -0.47006 1.585697 -0.920931 1.253314 -1.253314 
C 0.920931 -1.585697 0.47006 -1.772454 0 -1.772454 
C -0.47006 -1.772454 -0.920931 -1.585697 -1.253314 -1.253314 
C -1.585697 -0.920931 -1.772454 -0.47006 -1.772454 0 
C -1.772454 0.47006 -1.585697 0.920931 -1.253314 1.253314 
C -0.920931 1.585697 -0.47006 1.772454 0 1.772454 
z
" id="ma06e7d75d5" style="stroke:#5f57db;stroke-width:0.886227;"/>
    </defs>
    <g clip-path="url(#pa09a08066c)">
     <use style="fill:#5f57db;stroke:#5f57db;stroke-width:0.886227;" x="866.507687" xlink:href="#ma06e7d75d5" y="266.487051"/>
    </g>
   </g>
   <g id="text_9">
    <!-- Standard -->
    <g transform="translate(877.427688 268.915301)scale(0.088 -0.088)">
     <defs>
      <path d="M 2906 2969 
L 2906 4863 
L 3481 4863 
L 3481 0 
L 2906 0 
L 2906 525 
Q 2725 213 2448 61 
Q 2172 -91 1784 -91 
Q 1150 -91 751 415 
Q 353 922 353 1747 
Q 353 2572 751 3078 
Q 1150 3584 1784 3584 
Q 2172 3584 2448 3432 
Q 2725 3281 2906 2969 
z
M 947 1747 
Q 947 1113 1208 752 
Q 1469 391 1925 391 
Q 2381 391 2643 752 
Q 2906 1113 2906 1747 
Q 2906 2381 2643 2742 
Q 2381 3103 1925 3103 
Q 1469 3103 1208 2742 
Q 947 2381 947 1747 
z
" id="DejaVuSans-64" transform="scale(0.015625)"/>
     </defs>
     <use xlink:href="#DejaVuSans-53"/>
     <use x="63.476562" xlink:href="#DejaVuSans-74"/>
     <use x="102.685547" xlink:href="#DejaVuSans-61"/>
     <use x="163.964844" xlink:href="#DejaVuSans-6e"/>
     <use x="227.34375" xlink:href="#DejaVuSans-64"/>
     <use x="290.820312" xlink:href="#DejaVuSans-61"/>
     <use x="352.099609" xlink:href="#DejaVuSans-72"/>
     <use x="391.462891" xlink:href="#DejaVuSans-64"/>
    </g>
   </g>
  </g>
  <g id="axes_2">
   <g id="patch_8">
    <path d="M 475.83885 234.334082 
L 839.187688 234.334082 
L 839.187688 22.244082 
L 475.83885 22.244082 
z
" style="fill:#ebebeb;"/>
   </g>
   <g id="matplotlib.axis_3">
    <g id="xtick_4">
     <g id="line2d_21">
      <path clip-path="url(#pb995da2bea)" d="M 527.745827 234.334082 
L 527.745827 22.244082 
" style="fill:none;stroke:#ffffff;stroke-linecap:square;"/>
     </g>
    </g>
    <g id="xtick_5">
     <g id="line2d_22">
      <path clip-path="url(#pb995da2bea)" d="M 787.280711 234.334082 
L 787.280711 22.244082 
" style="fill:none;stroke:#ffffff;stroke-linecap:square;"/>
     </g>
    </g>
    <g id="xtick_6">
     <g id="line2d_23">
      <path clip-path="url(#pb995da2bea)" d="M 657.513269 234.334082 
L 657.513269 22.244082 
" style="fill:none;stroke:#ffffff;stroke-linecap:square;stroke-width:0.5;"/>
     </g>
    </g>
   </g>
   <g id="matplotlib.axis_4">
    <g id="ytick_7">
     <g id="line2d_24">
      <path clip-path="url(#pb995da2bea)" d="M 475.83885 175.626614 
L 839.187688 175.626614 
" style="fill:none;stroke:#ffffff;stroke-linecap:square;"/>
     </g>
     <g id="line2d_25">
      <path d="M 475.83885 175.626614 
" style="fill:none;stroke:#333333;stroke-linecap:square;stroke-width:1.5;"/>
      <g>
       <use style="fill:#333333;stroke:#000000;" x="475.83885" xlink:href="#mc274a43c6d" y="175.626614"/>
      </g>
     </g>
     <g id="text_10">
      <!-- 0.8965 -->
      <g style="fill:#4d4d4d;" transform="translate(440.0971 178.054864)scale(0.088 -0.088)">
       <defs>
        <path d="M 703 97 
L 703 672 
Q 941 559 1184 500 
Q 1428 441 1663 441 
Q 2288 441 2617 861 
Q 2947 1281 2994 2138 
Q 2813 1869 2534 1725 
Q 2256 1581 1919 1581 
Q 1219 1581 811 2004 
Q 403 2428 403 3163 
Q 403 3881 828 4315 
Q 1253 4750 1959 4750 
Q 2769 4750 3195 4129 
Q 3622 3509 3622 2328 
Q 3622 1225 3098 567 
Q 2575 -91 1691 -91 
Q 1453 -91 1209 -44 
Q 966 3 703 97 
z
M 1959 2075 
Q 2384 2075 2632 2365 
Q 2881 2656 2881 3163 
Q 2881 3666 2632 3958 
Q 2384 4250 1959 4250 
Q 1534 4250 1286 3958 
Q 1038 3666 1038 3163 
Q 1038 2656 1286 2365 
Q 1534 2075 1959 2075 
z
" id="DejaVuSans-39" transform="scale(0.015625)"/>
        <path d="M 2113 2584 
Q 1688 2584 1439 2293 
Q 1191 2003 1191 1497 
Q 1191 994 1439 701 
Q 1688 409 2113 409 
Q 2538 409 2786 701 
Q 3034 994 3034 1497 
Q 3034 2003 2786 2293 
Q 2538 2584 2113 2584 
z
M 3366 4563 
L 3366 3988 
Q 3128 4100 2886 4159 
Q 2644 4219 2406 4219 
Q 1781 4219 1451 3797 
Q 1122 3375 1075 2522 
Q 1259 2794 1537 2939 
Q 1816 3084 2150 3084 
Q 2853 3084 3261 2657 
Q 3669 2231 3669 1497 
Q 3669 778 3244 343 
Q 2819 -91 2113 -91 
Q 1303 -91 875 529 
Q 447 1150 447 2328 
Q 447 3434 972 4092 
Q 1497 4750 2381 4750 
Q 2619 4750 2861 4703 
Q 3103 4656 3366 4563 
z
" id="DejaVuSans-36" transform="scale(0.015625)"/>
       </defs>
       <use xlink:href="#DejaVuSans-30"/>
       <use x="63.623047" xlink:href="#DejaVuSans-2e"/>
       <use x="95.410156" xlink:href="#DejaVuSans-38"/>
       <use x="159.033203" xlink:href="#DejaVuSans-39"/>
       <use x="222.65625" xlink:href="#DejaVuSans-36"/>
       <use x="286.279297" xlink:href="#DejaVuSans-35"/>
      </g>
     </g>
    </g>
    <g id="ytick_8">
     <g id="line2d_26">
      <path clip-path="url(#pb995da2bea)" d="M 475.83885 97.159417 
L 839.187688 97.159417 
" style="fill:none;stroke:#ffffff;stroke-linecap:square;"/>
     </g>
     <g id="line2d_27">
      <path d="M 475.83885 97.159417 
" style="fill:none;stroke:#333333;stroke-linecap:square;stroke-width:1.5;"/>
      <g>
       <use style="fill:#333333;stroke:#000000;" x="475.83885" xlink:href="#mc274a43c6d" y="97.159417"/>
      </g>
     </g>
     <g id="text_11">
      <!-- 0.8970 -->
      <g style="fill:#4d4d4d;" transform="translate(440.0971 99.587667)scale(0.088 -0.088)">
       <defs>
        <path d="M 525 4666 
L 3525 4666 
L 3525 4397 
L 1831 0 
L 1172 0 
L 2766 4134 
L 525 4134 
L 525 4666 
z
" id="DejaVuSans-37" transform="scale(0.015625)"/>
       </defs>
       <use xlink:href="#DejaVuSans-30"/>
       <use x="63.623047" xlink:href="#DejaVuSans-2e"/>
       <use x="95.410156" xlink:href="#DejaVuSans-38"/>
       <use x="159.033203" xlink:href="#DejaVuSans-39"/>
       <use x="222.65625" xlink:href="#DejaVuSans-37"/>
       <use x="286.279297" xlink:href="#DejaVuSans-30"/>
      </g>
     </g>
    </g>
    <g id="ytick_9">
     <g id="line2d_28">
      <path clip-path="url(#pb995da2bea)" d="M 475.83885 214.860212 
L 839.187688 214.860212 
" style="fill:none;stroke:#ffffff;stroke-linecap:square;stroke-width:0.5;"/>
     </g>
    </g>
    <g id="ytick_10">
     <g id="line2d_29">
      <path clip-path="url(#pb995da2bea)" d="M 475.83885 136.393016 
L 839.187688 136.393016 
" style="fill:none;stroke:#ffffff;stroke-linecap:square;stroke-width:0.5;"/>
     </g>
    </g>
    <g id="ytick_11">
     <g id="line2d_30">
      <path clip-path="url(#pb995da2bea)" d="M 475.83885 57.925819 
L 839.187688 57.925819 
" style="fill:none;stroke:#ffffff;stroke-linecap:square;stroke-width:0.5;"/>
     </g>
    </g>
   </g>
   <g id="line2d_31">
    <path clip-path="url(#pb995da2bea)" d="M 527.745827 117.941053 
L 787.280711 31.884537 
" style="fill:none;stroke:#57db5f;stroke-width:0.886227;"/>
   </g>
   <g id="line2d_32">
    <path clip-path="url(#pb995da2bea)" d="M 527.745827 224.693628 
L 787.280711 95.635251 
" style="fill:none;stroke:#5f57db;stroke-width:0.886227;"/>
   </g>
   <g id="PathCollection_2">
    <path clip-path="url(#pb995da2bea)" d="M 527.745827 93.99474 
C 528.215887 93.99474 528.666758 93.807983 528.999141 93.475601 
C 529.331524 93.143218 529.518281 92.692347 529.518281 92.222287 
C 529.518281 91.752226 529.331524 91.301355 528.999141 90.968972 
C 528.666758 90.63659 528.215887 90.449833 527.745827 90.449833 
C 527.275767 90.449833 526.824896 90.63659 526.492513 90.968972 
C 526.16013 91.301355 525.973373 91.752226 525.973373 92.222287 
C 525.973373 92.692347 526.16013 93.143218 526.492513 93.475601 
C 526.824896 93.807983 527.275767 93.99474 527.745827 93.99474 
z
" style="fill:#db5f57;stroke:#db5f57;stroke-width:0.886227;"/>
    <path clip-path="url(#pb995da2bea)" d="M 527.745827 119.713507 
C 528.215887 119.713507 528.666758 119.52675 528.999141 119.194367 
C 529.331524 118.861984 529.518281 118.411113 529.518281 117.941053 
C 529.518281 117.470993 529.331524 117.020121 528.999141 116.687739 
C 528.666758 116.355356 528.215887 116.168599 527.745827 116.168599 
C 527.275767 116.168599 526.824896 116.355356 526.492513 116.687739 
C 526.16013 117.020121 525.973373 117.470993 525.973373 117.941053 
C 525.973373 118.411113 526.16013 118.861984 526.492513 119.194367 
C 526.824896 119.52675 527.275767 119.713507 527.745827 119.713507 
z
" style="fill:#57db5f;stroke:#57db5f;stroke-width:0.886227;"/>
    <path clip-path="url(#pb995da2bea)" d="M 527.745827 226.466082 
C 528.215887 226.466082 528.666758 226.279325 528.999141 225.946942 
C 529.331524 225.614559 529.518281 225.163688 529.518281 224.693628 
C 529.518281 224.223568 529.331524 223.772696 528.999141 223.440314 
C 528.666758 223.107931 528.215887 222.921174 527.745827 222.921174 
C 527.275767 222.921174 526.824896 223.107931 526.492513 223.440314 
C 526.16013 223.772696 525.973373 224.223568 525.973373 224.693628 
C 525.973373 225.163688 526.16013 225.614559 526.492513 225.946942 
C 526.824896 226.279325 527.275767 226.466082 527.745827 226.466082 
z
" style="fill:#5f57db;stroke:#5f57db;stroke-width:0.886227;"/>
    <path clip-path="url(#pb995da2bea)" d="M 787.280711 33.656991 
C 787.750771 33.656991 788.201642 33.470234 788.534025 33.137851 
C 788.866408 32.805468 789.053165 32.354597 789.053165 31.884537 
C 789.053165 31.414477 788.866408 30.963606 788.534025 30.631223 
C 788.201642 30.29884 787.750771 30.112083 787.280711 30.112083 
C 786.81065 30.112083 786.359779 30.29884 786.027397 30.631223 
C 785.695014 30.963606 785.508257 31.414477 785.508257 31.884537 
C 785.508257 32.354597 785.695014 32.805468 786.027397 33.137851 
C 786.359779 33.470234 786.81065 33.656991 787.280711 33.656991 
z
" style="fill:#57db5f;stroke:#57db5f;stroke-width:0.886227;"/>
    <path clip-path="url(#pb995da2bea)" d="M 787.280711 97.407705 
C 787.750771 97.407705 788.201642 97.220948 788.534025 96.888565 
C 788.866408 96.556183 789.053165 96.105311 789.053165 95.635251 
C 789.053165 95.165191 788.866408 94.71432 788.534025 94.381937 
C 788.201642 94.049554 787.750771 93.862797 787.280711 93.862797 
C 786.81065 93.862797 786.359779 94.049554 786.027397 94.381937 
C 785.695014 94.71432 785.508257 95.165191 785.508257 95.635251 
C 785.508257 96.105311 785.695014 96.556183 786.027397 96.888565 
C 786.359779 97.220948 786.81065 97.407705 787.280711 97.407705 
z
" style="fill:#5f57db;stroke:#5f57db;stroke-width:0.886227;"/>
   </g>
   <g id="patch_9">
    <path d="M 475.83885 22.244082 
L 839.187688 22.244082 
L 839.187688 7.2 
L 475.83885 7.2 
z
" style="fill:#d9d9d9;"/>
   </g>
   <g id="text_12">
    <!-- AUC -->
    <g style="fill:#1a1a1a;" transform="translate(648.210706 17.150291)scale(0.088 -0.088)">
     <defs>
      <path d="M 556 4666 
L 1191 4666 
L 1191 1831 
Q 1191 1081 1462 751 
Q 1734 422 2344 422 
Q 2950 422 3222 751 
Q 3494 1081 3494 1831 
L 3494 4666 
L 4128 4666 
L 4128 1753 
Q 4128 841 3676 375 
Q 3225 -91 2344 -91 
Q 1459 -91 1007 375 
Q 556 841 556 1753 
L 556 4666 
z
" id="DejaVuSans-55" transform="scale(0.015625)"/>
      <path d="M 4122 4306 
L 4122 3641 
Q 3803 3938 3442 4084 
Q 3081 4231 2675 4231 
Q 1875 4231 1450 3742 
Q 1025 3253 1025 2328 
Q 1025 1406 1450 917 
Q 1875 428 2675 428 
Q 3081 428 3442 575 
Q 3803 722 4122 1019 
L 4122 359 
Q 3791 134 3420 21 
Q 3050 -91 2638 -91 
Q 1578 -91 968 557 
Q 359 1206 359 2328 
Q 359 3453 968 4101 
Q 1578 4750 2638 4750 
Q 3056 4750 3426 4639 
Q 3797 4528 4122 4306 
z
" id="DejaVuSans-43" transform="scale(0.015625)"/>
     </defs>
     <use xlink:href="#DejaVuSans-41"/>
     <use x="68.408203" xlink:href="#DejaVuSans-55"/>
     <use x="141.601562" xlink:href="#DejaVuSans-43"/>
    </g>
   </g>
  </g>
  <g id="axes_3">
   <g id="patch_10">
    <path d="M 57.987688 465.764082 
L 421.336525 465.764082 
L 421.336525 253.674082 
L 57.987688 253.674082 
z
" style="fill:#ebebeb;"/>
   </g>
   <g id="matplotlib.axis_5">
    <g id="xtick_7">
     <g id="line2d_33">
      <path clip-path="url(#p1252cf281f)" d="M 109.894664 465.764082 
L 109.894664 253.674082 
" style="fill:none;stroke:#ffffff;stroke-linecap:square;"/>
     </g>
     <g id="line2d_34">
      <path d="M 109.894664 465.764082 
" style="fill:none;stroke:#333333;stroke-linecap:square;stroke-width:1.5;"/>
      <defs>
       <path d="M 0 0 
L 0 2.75 
" id="m7fc2863420" style="stroke:#000000;"/>
      </defs>
      <g>
       <use style="fill:#333333;stroke:#000000;" x="109.894664" xlink:href="#m7fc2863420" y="465.764082"/>
      </g>
     </g>
     <g id="text_13">
      <!-- False -->
      <g style="fill:#4d4d4d;" transform="translate(98.847227 477.400707)scale(0.088 -0.088)">
       <defs>
        <path d="M 628 4666 
L 3309 4666 
L 3309 4134 
L 1259 4134 
L 1259 2759 
L 3109 2759 
L 3109 2228 
L 1259 2228 
L 1259 0 
L 628 0 
L 628 4666 
z
" id="DejaVuSans-46" transform="scale(0.015625)"/>
        <path d="M 2834 3397 
L 2834 2853 
Q 2591 2978 2328 3040 
Q 2066 3103 1784 3103 
Q 1356 3103 1142 2972 
Q 928 2841 928 2578 
Q 928 2378 1081 2264 
Q 1234 2150 1697 2047 
L 1894 2003 
Q 2506 1872 2764 1633 
Q 3022 1394 3022 966 
Q 3022 478 2636 193 
Q 2250 -91 1575 -91 
Q 1294 -91 989 -36 
Q 684 19 347 128 
L 347 722 
Q 666 556 975 473 
Q 1284 391 1588 391 
Q 1994 391 2212 530 
Q 2431 669 2431 922 
Q 2431 1156 2273 1281 
Q 2116 1406 1581 1522 
L 1381 1569 
Q 847 1681 609 1914 
Q 372 2147 372 2553 
Q 372 3047 722 3315 
Q 1072 3584 1716 3584 
Q 2034 3584 2315 3537 
Q 2597 3491 2834 3397 
z
" id="DejaVuSans-73" transform="scale(0.015625)"/>
       </defs>
       <use xlink:href="#DejaVuSans-46"/>
       <use x="48.394531" xlink:href="#DejaVuSans-61"/>
       <use x="109.673828" xlink:href="#DejaVuSans-6c"/>
       <use x="137.457031" xlink:href="#DejaVuSans-73"/>
       <use x="189.556641" xlink:href="#DejaVuSans-65"/>
      </g>
     </g>
    </g>
    <g id="xtick_8">
     <g id="line2d_35">
      <path clip-path="url(#p1252cf281f)" d="M 369.429548 465.764082 
L 369.429548 253.674082 
" style="fill:none;stroke:#ffffff;stroke-linecap:square;"/>
     </g>
     <g id="line2d_36">
      <path d="M 369.429548 465.764082 
" style="fill:none;stroke:#333333;stroke-linecap:square;stroke-width:1.5;"/>
      <g>
       <use style="fill:#333333;stroke:#000000;" x="369.429548" xlink:href="#m7fc2863420" y="465.764082"/>
      </g>
     </g>
     <g id="text_14">
      <!-- True -->
      <g style="fill:#4d4d4d;" transform="translate(360.086423 477.400707)scale(0.088 -0.088)">
       <defs>
        <path d="M -19 4666 
L 3928 4666 
L 3928 4134 
L 2272 4134 
L 2272 0 
L 1638 0 
L 1638 4134 
L -19 4134 
L -19 4666 
z
" id="DejaVuSans-54" transform="scale(0.015625)"/>
       </defs>
       <use xlink:href="#DejaVuSans-54"/>
       <use x="46.333984" xlink:href="#DejaVuSans-72"/>
       <use x="87.447266" xlink:href="#DejaVuSans-75"/>
       <use x="150.826172" xlink:href="#DejaVuSans-65"/>
      </g>
     </g>
    </g>
    <g id="xtick_9">
     <g id="line2d_37">
      <path clip-path="url(#p1252cf281f)" d="M 239.662106 465.764082 
L 239.662106 253.674082 
" style="fill:none;stroke:#ffffff;stroke-linecap:square;stroke-width:0.5;"/>
     </g>
    </g>
   </g>
   <g id="matplotlib.axis_6">
    <g id="ytick_12">
     <g id="line2d_38">
      <path clip-path="url(#p1252cf281f)" d="M 57.987688 431.647979 
L 421.336525 431.647979 
" style="fill:none;stroke:#ffffff;stroke-linecap:square;"/>
     </g>
     <g id="line2d_39">
      <path d="M 57.987688 431.647979 
" style="fill:none;stroke:#333333;stroke-linecap:square;stroke-width:1.5;"/>
      <g>
       <use style="fill:#333333;stroke:#000000;" x="57.987688" xlink:href="#mc274a43c6d" y="431.647979"/>
      </g>
     </g>
     <g id="text_15">
      <!-- 0.8970 -->
      <g style="fill:#4d4d4d;" transform="translate(22.245938 434.076229)scale(0.088 -0.088)">
       <use xlink:href="#DejaVuSans-30"/>
       <use x="63.623047" xlink:href="#DejaVuSans-2e"/>
       <use x="95.410156" xlink:href="#DejaVuSans-38"/>
       <use x="159.033203" xlink:href="#DejaVuSans-39"/>
       <use x="222.65625" xlink:href="#DejaVuSans-37"/>
       <use x="286.279297" xlink:href="#DejaVuSans-30"/>
      </g>
     </g>
    </g>
    <g id="ytick_13">
     <g id="line2d_40">
      <path clip-path="url(#p1252cf281f)" d="M 57.987688 372.768953 
L 421.336525 372.768953 
" style="fill:none;stroke:#ffffff;stroke-linecap:square;"/>
     </g>
     <g id="line2d_41">
      <path d="M 57.987688 372.768953 
" style="fill:none;stroke:#333333;stroke-linecap:square;stroke-width:1.5;"/>
      <g>
       <use style="fill:#333333;stroke:#000000;" x="57.987688" xlink:href="#mc274a43c6d" y="372.768953"/>
      </g>
     </g>
     <g id="text_16">
      <!-- 0.8973 -->
      <g style="fill:#4d4d4d;" transform="translate(22.245938 375.197203)scale(0.088 -0.088)">
       <defs>
        <path d="M 2597 2516 
Q 3050 2419 3304 2112 
Q 3559 1806 3559 1356 
Q 3559 666 3084 287 
Q 2609 -91 1734 -91 
Q 1441 -91 1130 -33 
Q 819 25 488 141 
L 488 750 
Q 750 597 1062 519 
Q 1375 441 1716 441 
Q 2309 441 2620 675 
Q 2931 909 2931 1356 
Q 2931 1769 2642 2001 
Q 2353 2234 1838 2234 
L 1294 2234 
L 1294 2753 
L 1863 2753 
Q 2328 2753 2575 2939 
Q 2822 3125 2822 3475 
Q 2822 3834 2567 4026 
Q 2313 4219 1838 4219 
Q 1578 4219 1281 4162 
Q 984 4106 628 3988 
L 628 4550 
Q 988 4650 1302 4700 
Q 1616 4750 1894 4750 
Q 2613 4750 3031 4423 
Q 3450 4097 3450 3541 
Q 3450 3153 3228 2886 
Q 3006 2619 2597 2516 
z
" id="DejaVuSans-33" transform="scale(0.015625)"/>
       </defs>
       <use xlink:href="#DejaVuSans-30"/>
       <use x="63.623047" xlink:href="#DejaVuSans-2e"/>
       <use x="95.410156" xlink:href="#DejaVuSans-38"/>
       <use x="159.033203" xlink:href="#DejaVuSans-39"/>
       <use x="222.65625" xlink:href="#DejaVuSans-37"/>
       <use x="286.279297" xlink:href="#DejaVuSans-33"/>
      </g>
     </g>
    </g>
    <g id="ytick_14">
     <g id="line2d_42">
      <path clip-path="url(#p1252cf281f)" d="M 57.987688 313.889927 
L 421.336525 313.889927 
" style="fill:none;stroke:#ffffff;stroke-linecap:square;"/>
     </g>
     <g id="line2d_43">
      <path d="M 57.987688 313.889927 
" style="fill:none;stroke:#333333;stroke-linecap:square;stroke-width:1.5;"/>
      <g>
       <use style="fill:#333333;stroke:#000000;" x="57.987688" xlink:href="#mc274a43c6d" y="313.889927"/>
      </g>
     </g>
     <g id="text_17">
      <!-- 0.8976 -->
      <g style="fill:#4d4d4d;" transform="translate(22.245938 316.318177)scale(0.088 -0.088)">
       <use xlink:href="#DejaVuSans-30"/>
       <use x="63.623047" xlink:href="#DejaVuSans-2e"/>
       <use x="95.410156" xlink:href="#DejaVuSans-38"/>
       <use x="159.033203" xlink:href="#DejaVuSans-39"/>
       <use x="222.65625" xlink:href="#DejaVuSans-37"/>
       <use x="286.279297" xlink:href="#DejaVuSans-36"/>
      </g>
     </g>
    </g>
    <g id="ytick_15">
     <g id="line2d_44">
      <path clip-path="url(#p1252cf281f)" d="M 57.987688 255.0109 
L 421.336525 255.0109 
" style="fill:none;stroke:#ffffff;stroke-linecap:square;"/>
     </g>
     <g id="line2d_45">
      <path d="M 57.987688 255.0109 
" style="fill:none;stroke:#333333;stroke-linecap:square;stroke-width:1.5;"/>
      <g>
       <use style="fill:#333333;stroke:#000000;" x="57.987688" xlink:href="#mc274a43c6d" y="255.0109"/>
      </g>
     </g>
     <g id="text_18">
      <!-- 0.8979 -->
      <g style="fill:#4d4d4d;" transform="translate(22.245938 257.43915)scale(0.088 -0.088)">
       <use xlink:href="#DejaVuSans-30"/>
       <use x="63.623047" xlink:href="#DejaVuSans-2e"/>
       <use x="95.410156" xlink:href="#DejaVuSans-38"/>
       <use x="159.033203" xlink:href="#DejaVuSans-39"/>
       <use x="222.65625" xlink:href="#DejaVuSans-37"/>
       <use x="286.279297" xlink:href="#DejaVuSans-39"/>
      </g>
     </g>
    </g>
    <g id="ytick_16">
     <g id="line2d_46">
      <path clip-path="url(#p1252cf281f)" d="M 57.987688 461.087492 
L 421.336525 461.087492 
" style="fill:none;stroke:#ffffff;stroke-linecap:square;stroke-width:0.5;"/>
     </g>
    </g>
    <g id="ytick_17">
     <g id="line2d_47">
      <path clip-path="url(#p1252cf281f)" d="M 57.987688 402.208466 
L 421.336525 402.208466 
" style="fill:none;stroke:#ffffff;stroke-linecap:square;stroke-width:0.5;"/>
     </g>
    </g>
    <g id="ytick_18">
     <g id="line2d_48">
      <path clip-path="url(#p1252cf281f)" d="M 57.987688 343.32944 
L 421.336525 343.32944 
" style="fill:none;stroke:#ffffff;stroke-linecap:square;stroke-width:0.5;"/>
     </g>
    </g>
    <g id="ytick_19">
     <g id="line2d_49">
      <path clip-path="url(#p1252cf281f)" d="M 57.987688 284.450413 
L 421.336525 284.450413 
" style="fill:none;stroke:#ffffff;stroke-linecap:square;stroke-width:0.5;"/>
     </g>
    </g>
   </g>
   <g id="line2d_50">
    <path clip-path="url(#p1252cf281f)" d="M 109.894664 299.808291 
L 369.429548 263.314537 
" style="fill:none;stroke:#57db5f;stroke-width:0.886227;"/>
   </g>
   <g id="line2d_51">
    <path clip-path="url(#p1252cf281f)" d="M 109.894664 456.123628 
L 369.429548 340.356608 
" style="fill:none;stroke:#5f57db;stroke-width:0.886227;"/>
   </g>
   <g id="PathCollection_3">
    <path clip-path="url(#p1252cf281f)" d="M 109.894664 328.969272 
C 110.364725 328.969272 110.815596 328.782515 111.147978 328.450132 
C 111.480361 328.117749 111.667118 327.666878 111.667118 327.196818 
C 111.667118 326.726758 111.480361 326.275886 111.147978 325.943504 
C 110.815596 325.611121 110.364725 325.424364 109.894664 325.424364 
C 109.424604 325.424364 108.973733 325.611121 108.64135 325.943504 
C 108.308967 326.275886 108.12221 326.726758 108.12221 327.196818 
C 108.12221 327.666878 108.308967 328.117749 108.64135 328.450132 
C 108.973733 328.782515 109.424604 328.969272 109.894664 328.969272 
z
" style="fill:#db5f57;stroke:#db5f57;stroke-width:0.886227;"/>
    <path clip-path="url(#p1252cf281f)" d="M 109.894664 301.580745 
C 110.364725 301.580745 110.815596 301.393988 111.147978 301.061605 
C 111.480361 300.729222 111.667118 300.278351 111.667118 299.808291 
C 111.667118 299.338231 111.480361 298.88736 111.147978 298.554977 
C 110.815596 298.222594 110.364725 298.035837 109.894664 298.035837 
C 109.424604 298.035837 108.973733 298.222594 108.64135 298.554977 
C 108.308967 298.88736 108.12221 299.338231 108.12221 299.808291 
C 108.12221 300.278351 108.308967 300.729222 108.64135 301.061605 
C 108.973733 301.393988 109.424604 301.580745 109.894664 301.580745 
z
" style="fill:#57db5f;stroke:#57db5f;stroke-width:0.886227;"/>
    <path clip-path="url(#p1252cf281f)" d="M 109.894664 457.896082 
C 110.364725 457.896082 110.815596 457.709325 111.147978 457.376942 
C 111.480361 457.044559 111.667118 456.593688 111.667118 456.123628 
C 111.667118 455.653568 111.480361 455.202696 111.147978 454.870314 
C 110.815596 454.537931 110.364725 454.351174 109.894664 454.351174 
C 109.424604 454.351174 108.973733 454.537931 108.64135 454.870314 
C 108.308967 455.202696 108.12221 455.653568 108.12221 456.123628 
C 108.12221 456.593688 108.308967 457.044559 108.64135 457.376942 
C 108.973733 457.709325 109.424604 457.896082 109.894664 457.896082 
z
" style="fill:#5f57db;stroke:#5f57db;stroke-width:0.886227;"/>
    <path clip-path="url(#p1252cf281f)" d="M 369.429548 265.086991 
C 369.899608 265.086991 370.350479 264.900234 370.682862 264.567851 
C 371.015245 264.235468 371.202002 263.784597 371.202002 263.314537 
C 371.202002 262.844477 371.015245 262.393606 370.682862 262.061223 
C 370.350479 261.72884 369.899608 261.542083 369.429548 261.542083 
C 368.959488 261.542083 368.508617 261.72884 368.176234 262.061223 
C 367.843851 262.393606 367.657094 262.844477 367.657094 263.314537 
C 367.657094 263.784597 367.843851 264.235468 368.176234 264.567851 
C 368.508617 264.900234 368.959488 265.086991 369.429548 265.086991 
z
" style="fill:#57db5f;stroke:#57db5f;stroke-width:0.886227;"/>
    <path clip-path="url(#p1252cf281f)" d="M 369.429548 342.129061 
C 369.899608 342.129061 370.350479 341.942305 370.682862 341.609922 
C 371.015245 341.277539 371.202002 340.826668 371.202002 340.356608 
C 371.202002 339.886547 371.015245 339.435676 370.682862 339.103293 
C 370.350479 338.770911 369.899608 338.584154 369.429548 338.584154 
C 368.959488 338.584154 368.508617 338.770911 368.176234 339.103293 
C 367.843851 339.435676 367.657094 339.886547 367.657094 340.356608 
C 367.657094 340.826668 367.843851 341.277539 368.176234 341.609922 
C 368.508617 341.942305 368.959488 342.129061 369.429548 342.129061 
z
" style="fill:#5f57db;stroke:#5f57db;stroke-width:0.886227;"/>
   </g>
   <g id="patch_11">
    <path d="M 57.987688 253.674082 
L 421.336525 253.674082 
L 421.336525 238.63 
L 57.987688 238.63 
z
" style="fill:#d9d9d9;"/>
   </g>
   <g id="text_19">
    <!-- F1 score: &lt;=50K -->
    <g style="fill:#1a1a1a;" transform="translate(202.373481 248.580291)scale(0.088 -0.088)">
     <defs>
      <path id="DejaVuSans-20" transform="scale(0.015625)"/>
      <path d="M 750 794 
L 1409 794 
L 1409 0 
L 750 0 
L 750 794 
z
M 750 3309 
L 1409 3309 
L 1409 2516 
L 750 2516 
L 750 3309 
z
" id="DejaVuSans-3a" transform="scale(0.015625)"/>
      <path d="M 4684 3150 
L 1459 2003 
L 4684 863 
L 4684 294 
L 678 1747 
L 678 2266 
L 4684 3719 
L 4684 3150 
z
" id="DejaVuSans-3c" transform="scale(0.015625)"/>
      <path d="M 678 2906 
L 4684 2906 
L 4684 2381 
L 678 2381 
L 678 2906 
z
M 678 1631 
L 4684 1631 
L 4684 1100 
L 678 1100 
L 678 1631 
z
" id="DejaVuSans-3d" transform="scale(0.015625)"/>
      <path d="M 628 4666 
L 1259 4666 
L 1259 2694 
L 3353 4666 
L 4166 4666 
L 1850 2491 
L 4331 0 
L 3500 0 
L 1259 2247 
L 1259 0 
L 628 0 
L 628 4666 
z
" id="DejaVuSans-4b" transform="scale(0.015625)"/>
     </defs>
     <use xlink:href="#DejaVuSans-46"/>
     <use x="57.519531" xlink:href="#DejaVuSans-31"/>
     <use x="121.142578" xlink:href="#DejaVuSans-20"/>
     <use x="152.929688" xlink:href="#DejaVuSans-73"/>
     <use x="205.029297" xlink:href="#DejaVuSans-63"/>
     <use x="260.009766" xlink:href="#DejaVuSans-6f"/>
     <use x="321.191406" xlink:href="#DejaVuSans-72"/>
     <use x="360.054688" xlink:href="#DejaVuSans-65"/>
     <use x="421.578125" xlink:href="#DejaVuSans-3a"/>
     <use x="455.269531" xlink:href="#DejaVuSans-20"/>
     <use x="487.056641" xlink:href="#DejaVuSans-3c"/>
     <use x="570.845703" xlink:href="#DejaVuSans-3d"/>
     <use x="654.634766" xlink:href="#DejaVuSans-35"/>
     <use x="718.257812" xlink:href="#DejaVuSans-30"/>
     <use x="781.880859" xlink:href="#DejaVuSans-4b"/>
    </g>
   </g>
  </g>
  <g id="axes_4">
   <g id="patch_12">
    <path d="M 475.83885 465.764082 
L 839.187688 465.764082 
L 839.187688 253.674082 
L 475.83885 253.674082 
z
" style="fill:#ebebeb;"/>
   </g>
   <g id="matplotlib.axis_7">
    <g id="xtick_10">
     <g id="line2d_52">
      <path clip-path="url(#pbe0cf6848d)" d="M 527.745827 465.764082 
L 527.745827 253.674082 
" style="fill:none;stroke:#ffffff;stroke-linecap:square;"/>
     </g>
     <g id="line2d_53">
      <path d="M 527.745827 465.764082 
" style="fill:none;stroke:#333333;stroke-linecap:square;stroke-width:1.5;"/>
      <g>
       <use style="fill:#333333;stroke:#000000;" x="527.745827" xlink:href="#m7fc2863420" y="465.764082"/>
      </g>
     </g>
     <g id="text_20">
      <!-- False -->
      <g style="fill:#4d4d4d;" transform="translate(516.69839 477.400707)scale(0.088 -0.088)">
       <use xlink:href="#DejaVuSans-46"/>
       <use x="48.394531" xlink:href="#DejaVuSans-61"/>
       <use x="109.673828" xlink:href="#DejaVuSans-6c"/>
       <use x="137.457031" xlink:href="#DejaVuSans-73"/>
       <use x="189.556641" xlink:href="#DejaVuSans-65"/>
      </g>
     </g>
    </g>
    <g id="xtick_11">
     <g id="line2d_54">
      <path clip-path="url(#pbe0cf6848d)" d="M 787.280711 465.764082 
L 787.280711 253.674082 
" style="fill:none;stroke:#ffffff;stroke-linecap:square;"/>
     </g>
     <g id="line2d_55">
      <path d="M 787.280711 465.764082 
" style="fill:none;stroke:#333333;stroke-linecap:square;stroke-width:1.5;"/>
      <g>
       <use style="fill:#333333;stroke:#000000;" x="787.280711" xlink:href="#m7fc2863420" y="465.764082"/>
      </g>
     </g>
     <g id="text_21">
      <!-- True -->
      <g style="fill:#4d4d4d;" transform="translate(777.937586 477.400707)scale(0.088 -0.088)">
       <use xlink:href="#DejaVuSans-54"/>
       <use x="46.333984" xlink:href="#DejaVuSans-72"/>
       <use x="87.447266" xlink:href="#DejaVuSans-75"/>
       <use x="150.826172" xlink:href="#DejaVuSans-65"/>
      </g>
     </g>
    </g>
    <g id="xtick_12">
     <g id="line2d_56">
      <path clip-path="url(#pbe0cf6848d)" d="M 657.513269 465.764082 
L 657.513269 253.674082 
" style="fill:none;stroke:#ffffff;stroke-linecap:square;stroke-width:0.5;"/>
     </g>
    </g>
    <g id="text_22">
     <!-- Ln before activation -->
     <g transform="translate(381.003156 491.989114)scale(0.11 -0.11)">
      <defs>
       <path d="M 3116 1747 
Q 3116 2381 2855 2742 
Q 2594 3103 2138 3103 
Q 1681 3103 1420 2742 
Q 1159 2381 1159 1747 
Q 1159 1113 1420 752 
Q 1681 391 2138 391 
Q 2594 391 2855 752 
Q 3116 1113 3116 1747 
z
M 1159 2969 
Q 1341 3281 1617 3432 
Q 1894 3584 2278 3584 
Q 2916 3584 3314 3078 
Q 3713 2572 3713 1747 
Q 3713 922 3314 415 
Q 2916 -91 2278 -91 
Q 1894 -91 1617 61 
Q 1341 213 1159 525 
L 1159 0 
L 581 0 
L 581 4863 
L 1159 4863 
L 1159 2969 
z
" id="DejaVuSans-62" transform="scale(0.015625)"/>
       <path d="M 2375 4863 
L 2375 4384 
L 1825 4384 
Q 1516 4384 1395 4259 
Q 1275 4134 1275 3809 
L 1275 3500 
L 2222 3500 
L 2222 3053 
L 1275 3053 
L 1275 0 
L 697 0 
L 697 3053 
L 147 3053 
L 147 3500 
L 697 3500 
L 697 3744 
Q 697 4328 969 4595 
Q 1241 4863 1831 4863 
L 2375 4863 
z
" id="DejaVuSans-66" transform="scale(0.015625)"/>
       <path d="M 191 3500 
L 800 3500 
L 1894 563 
L 2988 3500 
L 3597 3500 
L 2284 0 
L 1503 0 
L 191 3500 
z
" id="DejaVuSans-76" transform="scale(0.015625)"/>
      </defs>
      <use xlink:href="#DejaVuSans-4c"/>
      <use x="55.712891" xlink:href="#DejaVuSans-6e"/>
      <use x="119.091797" xlink:href="#DejaVuSans-20"/>
      <use x="150.878906" xlink:href="#DejaVuSans-62"/>
      <use x="214.355469" xlink:href="#DejaVuSans-65"/>
      <use x="275.878906" xlink:href="#DejaVuSans-66"/>
      <use x="311.083984" xlink:href="#DejaVuSans-6f"/>
      <use x="372.265625" xlink:href="#DejaVuSans-72"/>
      <use x="411.128906" xlink:href="#DejaVuSans-65"/>
      <use x="472.652344" xlink:href="#DejaVuSans-20"/>
      <use x="504.439453" xlink:href="#DejaVuSans-61"/>
      <use x="565.71875" xlink:href="#DejaVuSans-63"/>
      <use x="620.699219" xlink:href="#DejaVuSans-74"/>
      <use x="659.908203" xlink:href="#DejaVuSans-69"/>
      <use x="687.691406" xlink:href="#DejaVuSans-76"/>
      <use x="746.871094" xlink:href="#DejaVuSans-61"/>
      <use x="808.150391" xlink:href="#DejaVuSans-74"/>
      <use x="847.359375" xlink:href="#DejaVuSans-69"/>
      <use x="875.142578" xlink:href="#DejaVuSans-6f"/>
      <use x="936.324219" xlink:href="#DejaVuSans-6e"/>
     </g>
    </g>
   </g>
   <g id="matplotlib.axis_8">
    <g id="ytick_20">
     <g id="line2d_57">
      <path clip-path="url(#pbe0cf6848d)" d="M 475.83885 407.759836 
L 839.187688 407.759836 
" style="fill:none;stroke:#ffffff;stroke-linecap:square;"/>
     </g>
     <g id="line2d_58">
      <path d="M 475.83885 407.759836 
" style="fill:none;stroke:#333333;stroke-linecap:square;stroke-width:1.5;"/>
      <g>
       <use style="fill:#333333;stroke:#000000;" x="475.83885" xlink:href="#mc274a43c6d" y="407.759836"/>
      </g>
     </g>
     <g id="text_23">
      <!-- 0.658 -->
      <g style="fill:#4d4d4d;" transform="translate(445.6961 410.188086)scale(0.088 -0.088)">
       <use xlink:href="#DejaVuSans-30"/>
       <use x="63.623047" xlink:href="#DejaVuSans-2e"/>
       <use x="95.410156" xlink:href="#DejaVuSans-36"/>
       <use x="159.033203" xlink:href="#DejaVuSans-35"/>
       <use x="222.65625" xlink:href="#DejaVuSans-38"/>
      </g>
     </g>
    </g>
    <g id="ytick_21">
     <g id="line2d_59">
      <path clip-path="url(#pbe0cf6848d)" d="M 475.83885 332.525491 
L 839.187688 332.525491 
" style="fill:none;stroke:#ffffff;stroke-linecap:square;"/>
     </g>
     <g id="line2d_60">
      <path d="M 475.83885 332.525491 
" style="fill:none;stroke:#333333;stroke-linecap:square;stroke-width:1.5;"/>
      <g>
       <use style="fill:#333333;stroke:#000000;" x="475.83885" xlink:href="#mc274a43c6d" y="332.525491"/>
      </g>
     </g>
     <g id="text_24">
      <!-- 0.659 -->
      <g style="fill:#4d4d4d;" transform="translate(445.6961 334.953741)scale(0.088 -0.088)">
       <use xlink:href="#DejaVuSans-30"/>
       <use x="63.623047" xlink:href="#DejaVuSans-2e"/>
       <use x="95.410156" xlink:href="#DejaVuSans-36"/>
       <use x="159.033203" xlink:href="#DejaVuSans-35"/>
       <use x="222.65625" xlink:href="#DejaVuSans-39"/>
      </g>
     </g>
    </g>
    <g id="ytick_22">
     <g id="line2d_61">
      <path clip-path="url(#pbe0cf6848d)" d="M 475.83885 257.291146 
L 839.187688 257.291146 
" style="fill:none;stroke:#ffffff;stroke-linecap:square;"/>
     </g>
     <g id="line2d_62">
      <path d="M 475.83885 257.291146 
" style="fill:none;stroke:#333333;stroke-linecap:square;stroke-width:1.5;"/>
      <g>
       <use style="fill:#333333;stroke:#000000;" x="475.83885" xlink:href="#mc274a43c6d" y="257.291146"/>
      </g>
     </g>
     <g id="text_25">
      <!-- 0.660 -->
      <g style="fill:#4d4d4d;" transform="translate(445.6961 259.719396)scale(0.088 -0.088)">
       <use xlink:href="#DejaVuSans-30"/>
       <use x="63.623047" xlink:href="#DejaVuSans-2e"/>
       <use x="95.410156" xlink:href="#DejaVuSans-36"/>
       <use x="159.033203" xlink:href="#DejaVuSans-36"/>
       <use x="222.65625" xlink:href="#DejaVuSans-30"/>
      </g>
     </g>
    </g>
    <g id="ytick_23">
     <g id="line2d_63">
      <path clip-path="url(#pbe0cf6848d)" d="M 475.83885 445.377008 
L 839.187688 445.377008 
" style="fill:none;stroke:#ffffff;stroke-linecap:square;stroke-width:0.5;"/>
     </g>
    </g>
    <g id="ytick_24">
     <g id="line2d_64">
      <path clip-path="url(#pbe0cf6848d)" d="M 475.83885 370.142663 
L 839.187688 370.142663 
" style="fill:none;stroke:#ffffff;stroke-linecap:square;stroke-width:0.5;"/>
     </g>
    </g>
    <g id="ytick_25">
     <g id="line2d_65">
      <path clip-path="url(#pbe0cf6848d)" d="M 475.83885 294.908318 
L 839.187688 294.908318 
" style="fill:none;stroke:#ffffff;stroke-linecap:square;stroke-width:0.5;"/>
     </g>
    </g>
   </g>
   <g id="line2d_66">
    <path clip-path="url(#pbe0cf6848d)" d="M 527.745827 263.314537 
L 787.280711 295.424254 
" style="fill:none;stroke:#57db5f;stroke-width:0.886227;"/>
   </g>
   <g id="line2d_67">
    <path clip-path="url(#pbe0cf6848d)" d="M 527.745827 456.123628 
L 787.280711 367.195345 
" style="fill:none;stroke:#5f57db;stroke-width:0.886227;"/>
   </g>
   <g id="PathCollection_4">
    <path clip-path="url(#pbe0cf6848d)" d="M 527.745827 311.347437 
C 528.215887 311.347437 528.666758 311.16068 528.999141 310.828298 
C 529.331524 310.495915 529.518281 310.045044 529.518281 309.574983 
C 529.518281 309.104923 529.331524 308.654052 528.999141 308.321669 
C 528.666758 307.989287 528.215887 307.80253 527.745827 307.80253 
C 527.275767 307.80253 526.824896 307.989287 526.492513 308.321669 
C 526.16013 308.654052 525.973373 309.104923 525.973373 309.574983 
C 525.973373 310.045044 526.16013 310.495915 526.492513 310.828298 
C 526.824896 311.16068 527.275767 311.347437 527.745827 311.347437 
z
" style="fill:#db5f57;stroke:#db5f57;stroke-width:0.886227;"/>
    <path clip-path="url(#pbe0cf6848d)" d="M 527.745827 265.086991 
C 528.215887 265.086991 528.666758 264.900234 528.999141 264.567851 
C 529.331524 264.235468 529.518281 263.784597 529.518281 263.314537 
C 529.518281 262.844477 529.331524 262.393606 528.999141 262.061223 
C 528.666758 261.72884 528.215887 261.542083 527.745827 261.542083 
C 527.275767 261.542083 526.824896 261.72884 526.492513 262.061223 
C 526.16013 262.393606 525.973373 262.844477 525.973373 263.314537 
C 525.973373 263.784597 526.16013 264.235468 526.492513 264.567851 
C 526.824896 264.900234 527.275767 265.086991 527.745827 265.086991 
z
" style="fill:#57db5f;stroke:#57db5f;stroke-width:0.886227;"/>
    <path clip-path="url(#pbe0cf6848d)" d="M 527.745827 457.896082 
C 528.215887 457.896082 528.666758 457.709325 528.999141 457.376942 
C 529.331524 457.044559 529.518281 456.593688 529.518281 456.123628 
C 529.518281 455.653568 529.331524 455.202696 528.999141 454.870314 
C 528.666758 454.537931 528.215887 454.351174 527.745827 454.351174 
C 527.275767 454.351174 526.824896 454.537931 526.492513 454.870314 
C 526.16013 455.202696 525.973373 455.653568 525.973373 456.123628 
C 525.973373 456.593688 526.16013 457.044559 526.492513 457.376942 
C 526.824896 457.709325 527.275767 457.896082 527.745827 457.896082 
z
" style="fill:#5f57db;stroke:#5f57db;stroke-width:0.886227;"/>
    <path clip-path="url(#pbe0cf6848d)" d="M 787.280711 297.196708 
C 787.750771 297.196708 788.201642 297.009951 788.534025 296.677569 
C 788.866408 296.345186 789.053165 295.894315 789.053165 295.424254 
C 789.053165 294.954194 788.866408 294.503323 788.534025 294.17094 
C 788.201642 293.838558 787.750771 293.651801 787.280711 293.651801 
C 786.81065 293.651801 786.359779 293.838558 786.027397 294.17094 
C 785.695014 294.503323 785.508257 294.954194 785.508257 295.424254 
C 785.508257 295.894315 785.695014 296.345186 786.027397 296.677569 
C 786.359779 297.009951 786.81065 297.196708 787.280711 297.196708 
z
" style="fill:#57db5f;stroke:#57db5f;stroke-width:0.886227;"/>
    <path clip-path="url(#pbe0cf6848d)" d="M 787.280711 368.967799 
C 787.750771 368.967799 788.201642 368.781042 788.534025 368.44866 
C 788.866408 368.116277 789.053165 367.665406 789.053165 367.195345 
C 789.053165 366.725285 788.866408 366.274414 788.534025 365.942031 
C 788.201642 365.609649 787.750771 365.422892 787.280711 365.422892 
C 786.81065 365.422892 786.359779 365.609649 786.027397 365.942031 
C 785.695014 366.274414 785.508257 366.725285 785.508257 367.195345 
C 785.508257 367.665406 785.695014 368.116277 786.027397 368.44866 
C 786.359779 368.781042 786.81065 368.967799 787.280711 368.967799 
z
" style="fill:#5f57db;stroke:#5f57db;stroke-width:0.886227;"/>
   </g>
   <g id="patch_13">
    <path d="M 475.83885 253.674082 
L 839.187688 253.674082 
L 839.187688 238.63 
L 475.83885 238.63 
z
" style="fill:#d9d9d9;"/>
   </g>
   <g id="text_26">
    <!-- F1 score: &gt;50K -->
    <g style="fill:#1a1a1a;" transform="translate(623.911706 248.580291)scale(0.088 -0.088)">
     <defs>
      <path d="M 678 3150 
L 678 3719 
L 4684 2266 
L 4684 1747 
L 678 294 
L 678 863 
L 3897 2003 
L 678 3150 
z
" id="DejaVuSans-3e" transform="scale(0.015625)"/>
     </defs>
     <use xlink:href="#DejaVuSans-46"/>
     <use x="57.519531" xlink:href="#DejaVuSans-31"/>
     <use x="121.142578" xlink:href="#DejaVuSans-20"/>
     <use x="152.929688" xlink:href="#DejaVuSans-73"/>
     <use x="205.029297" xlink:href="#DejaVuSans-63"/>
     <use x="260.009766" xlink:href="#DejaVuSans-6f"/>
     <use x="321.191406" xlink:href="#DejaVuSans-72"/>
     <use x="360.054688" xlink:href="#DejaVuSans-65"/>
     <use x="421.578125" xlink:href="#DejaVuSans-3a"/>
     <use x="455.269531" xlink:href="#DejaVuSans-20"/>
     <use x="487.056641" xlink:href="#DejaVuSans-3e"/>
     <use x="570.845703" xlink:href="#DejaVuSans-35"/>
     <use x="634.46875" xlink:href="#DejaVuSans-30"/>
     <use x="698.091797" xlink:href="#DejaVuSans-4b"/>
    </g>
   </g>
  </g>
 </g>
 <defs>
  <clipPath id="pf7728ad9bb">
   <rect height="212.09" width="363.348837" x="57.987688" y="22.244082"/>
  </clipPath>
  <clipPath id="pb291e9e2a7">
   <path d="M 858.587688 238.727051 
L 858.587688 222.887051 
L 874.427688 222.887051 
L 874.427688 238.727051 
"/>
  </clipPath>
  <clipPath id="p8693dedea0">
   <path d="M 858.587688 256.567051 
L 858.587688 240.727051 
L 874.427688 240.727051 
L 874.427688 256.567051 
"/>
  </clipPath>
  <clipPath id="pa09a08066c">
   <path d="M 858.587688 274.407051 
L 858.587688 258.567051 
L 874.427688 258.567051 
L 874.427688 274.407051 
"/>
  </clipPath>
  <clipPath id="pb995da2bea">
   <rect height="212.09" width="363.348837" x="475.83885" y="22.244082"/>
  </clipPath>
  <clipPath id="p1252cf281f">
   <rect height="212.09" width="363.348837" x="57.987688" y="253.674082"/>
  </clipPath>
  <clipPath id="pbe0cf6848d">
   <rect height="212.09" width="363.348837" x="475.83885" y="253.674082"/>
  </clipPath>
 </defs>
</svg>
