<?xml version="1.0" encoding="utf-8" standalone="no"?>
<!DOCTYPE svg PUBLIC "-//W3C//DTD SVG 1.1//EN"
  "http://www.w3.org/Graphics/SVG/1.1/DTD/svg11.dtd">
<svg xmlns:xlink="http://www.w3.org/1999/xlink" width="983.775719pt" height="501.47677pt" viewBox="0 0 983.775719 501.47677" xmlns="http://www.w3.org/2000/svg" version="1.1">
 <metadata>
  <rdf:RDF xmlns:dc="http://purl.org/dc/elements/1.1/" xmlns:cc="http://creativecommons.org/ns#" xmlns:rdf="http://www.w3.org/1999/02/22-rdf-syntax-ns#">
   <cc:Work>
    <dc:type rdf:resource="http://purl.org/dc/dcmitype/StillImage"/>
    <dc:date>2022-06-12T20:57:46.179636</dc:date>
    <dc:format>image/svg+xml</dc:format>
    <dc:creator>
     <cc:Agent>
      <dc:title>Matplotlib v3.5.2, https://matplotlib.org/</dc:title>
     </cc:Agent>
    </dc:creator>
   </cc:Work>
  </rdf:RDF>
 </metadata>
 <defs>
  <style type="text/css">*{stroke-linejoin: round; stroke-linecap: butt}</style>
 </defs>
 <g id="figure_1">
  <g id="patch_1">
   <path d="M 0 501.47677 
L 983.775719 501.47677 
L 983.775719 0 
L 0 0 
z
" style="fill: #ffffff; stroke: #ffffff; stroke-linejoin: miter"/>
  </g>
  <g id="axes_1">
   <g id="patch_2">
    <path d="M 52.388688 234.334082 
L 415.737525 234.334082 
L 415.737525 22.244082 
L 52.388688 22.244082 
z
" style="fill: #ebebeb"/>
   </g>
   <g id="matplotlib.axis_1">
    <g id="xtick_1">
     <g id="line2d_1">
      <path d="M 104.295664 234.334082 
L 104.295664 22.244082 
" clip-path="url(#p0ac68f27c4)" style="fill: none; stroke: #ffffff"/>
     </g>
    </g>
    <g id="xtick_2">
     <g id="line2d_2">
      <path d="M 363.830548 234.334082 
L 363.830548 22.244082 
" clip-path="url(#p0ac68f27c4)" style="fill: none; stroke: #ffffff"/>
     </g>
    </g>
    <g id="xtick_3">
     <g id="line2d_3">
      <path d="M 234.063106 234.334082 
L 234.063106 22.244082 
" clip-path="url(#p0ac68f27c4)" style="fill: none; stroke: #ffffff; stroke-width: 0.5"/>
     </g>
    </g>
   </g>
   <g id="matplotlib.axis_2">
    <g id="ytick_1">
     <g id="line2d_4">
      <path d="M 52.388688 225.46068 
L 415.737525 225.46068 
" clip-path="url(#p0ac68f27c4)" style="fill: none; stroke: #ffffff"/>
     </g>
     <g id="line2d_5">
      <path d="M 52.388688 225.46068 
" style="fill: none; stroke: #333333; stroke-width: 1.5"/>
      <defs>
       <path id="md4e1fc7222" d="M 0 0 
L -2.75 0 
" style="stroke: #000000"/>
      </defs>
      <g>
       <use xlink:href="#md4e1fc7222" x="52.388688" y="225.46068" style="fill: #333333; stroke: #000000"/>
      </g>
     </g>
     <g id="text_1">
      <!-- 0.838 -->
      <g style="fill: #4d4d4d" transform="translate(22.245938 227.88893)scale(0.088 -0.088)">
       <defs>
        <path id="DejaVuSans-30" d="M 2034 4250 
Q 1547 4250 1301 3770 
Q 1056 3291 1056 2328 
Q 1056 1369 1301 889 
Q 1547 409 2034 409 
Q 2525 409 2770 889 
Q 3016 1369 3016 2328 
Q 3016 3291 2770 3770 
Q 2525 4250 2034 4250 
z
M 2034 4750 
Q 2819 4750 3233 4129 
Q 3647 3509 3647 2328 
Q 3647 1150 3233 529 
Q 2819 -91 2034 -91 
Q 1250 -91 836 529 
Q 422 1150 422 2328 
Q 422 3509 836 4129 
Q 1250 4750 2034 4750 
z
" transform="scale(0.015625)"/>
        <path id="DejaVuSans-2e" d="M 684 794 
L 1344 794 
L 1344 0 
L 684 0 
L 684 794 
z
" transform="scale(0.015625)"/>
        <path id="DejaVuSans-38" d="M 2034 2216 
Q 1584 2216 1326 1975 
Q 1069 1734 1069 1313 
Q 1069 891 1326 650 
Q 1584 409 2034 409 
Q 2484 409 2743 651 
Q 3003 894 3003 1313 
Q 3003 1734 2745 1975 
Q 2488 2216 2034 2216 
z
M 1403 2484 
Q 997 2584 770 2862 
Q 544 3141 544 3541 
Q 544 4100 942 4425 
Q 1341 4750 2034 4750 
Q 2731 4750 3128 4425 
Q 3525 4100 3525 3541 
Q 3525 3141 3298 2862 
Q 3072 2584 2669 2484 
Q 3125 2378 3379 2068 
Q 3634 1759 3634 1313 
Q 3634 634 3220 271 
Q 2806 -91 2034 -91 
Q 1263 -91 848 271 
Q 434 634 434 1313 
Q 434 1759 690 2068 
Q 947 2378 1403 2484 
z
M 1172 3481 
Q 1172 3119 1398 2916 
Q 1625 2713 2034 2713 
Q 2441 2713 2670 2916 
Q 2900 3119 2900 3481 
Q 2900 3844 2670 4047 
Q 2441 4250 2034 4250 
Q 1625 4250 1398 4047 
Q 1172 3844 1172 3481 
z
" transform="scale(0.015625)"/>
        <path id="DejaVuSans-33" d="M 2597 2516 
Q 3050 2419 3304 2112 
Q 3559 1806 3559 1356 
Q 3559 666 3084 287 
Q 2609 -91 1734 -91 
Q 1441 -91 1130 -33 
Q 819 25 488 141 
L 488 750 
Q 750 597 1062 519 
Q 1375 441 1716 441 
Q 2309 441 2620 675 
Q 2931 909 2931 1356 
Q 2931 1769 2642 2001 
Q 2353 2234 1838 2234 
L 1294 2234 
L 1294 2753 
L 1863 2753 
Q 2328 2753 2575 2939 
Q 2822 3125 2822 3475 
Q 2822 3834 2567 4026 
Q 2313 4219 1838 4219 
Q 1578 4219 1281 4162 
Q 984 4106 628 3988 
L 628 4550 
Q 988 4650 1302 4700 
Q 1616 4750 1894 4750 
Q 2613 4750 3031 4423 
Q 3450 4097 3450 3541 
Q 3450 3153 3228 2886 
Q 3006 2619 2597 2516 
z
" transform="scale(0.015625)"/>
       </defs>
       <use xlink:href="#DejaVuSans-30"/>
       <use xlink:href="#DejaVuSans-2e" x="63.623047"/>
       <use xlink:href="#DejaVuSans-38" x="95.410156"/>
       <use xlink:href="#DejaVuSans-33" x="159.033203"/>
       <use xlink:href="#DejaVuSans-38" x="222.65625"/>
      </g>
     </g>
    </g>
    <g id="ytick_2">
     <g id="line2d_6">
      <path d="M 52.388688 172.952454 
L 415.737525 172.952454 
" clip-path="url(#p0ac68f27c4)" style="fill: none; stroke: #ffffff"/>
     </g>
     <g id="line2d_7">
      <path d="M 52.388688 172.952454 
" style="fill: none; stroke: #333333; stroke-width: 1.5"/>
      <g>
       <use xlink:href="#md4e1fc7222" x="52.388688" y="172.952454" style="fill: #333333; stroke: #000000"/>
      </g>
     </g>
     <g id="text_2">
      <!-- 0.839 -->
      <g style="fill: #4d4d4d" transform="translate(22.245938 175.380704)scale(0.088 -0.088)">
       <defs>
        <path id="DejaVuSans-39" d="M 703 97 
L 703 672 
Q 941 559 1184 500 
Q 1428 441 1663 441 
Q 2288 441 2617 861 
Q 2947 1281 2994 2138 
Q 2813 1869 2534 1725 
Q 2256 1581 1919 1581 
Q 1219 1581 811 2004 
Q 403 2428 403 3163 
Q 403 3881 828 4315 
Q 1253 4750 1959 4750 
Q 2769 4750 3195 4129 
Q 3622 3509 3622 2328 
Q 3622 1225 3098 567 
Q 2575 -91 1691 -91 
Q 1453 -91 1209 -44 
Q 966 3 703 97 
z
M 1959 2075 
Q 2384 2075 2632 2365 
Q 2881 2656 2881 3163 
Q 2881 3666 2632 3958 
Q 2384 4250 1959 4250 
Q 1534 4250 1286 3958 
Q 1038 3666 1038 3163 
Q 1038 2656 1286 2365 
Q 1534 2075 1959 2075 
z
" transform="scale(0.015625)"/>
       </defs>
       <use xlink:href="#DejaVuSans-30"/>
       <use xlink:href="#DejaVuSans-2e" x="63.623047"/>
       <use xlink:href="#DejaVuSans-38" x="95.410156"/>
       <use xlink:href="#DejaVuSans-33" x="159.033203"/>
       <use xlink:href="#DejaVuSans-39" x="222.65625"/>
      </g>
     </g>
    </g>
    <g id="ytick_3">
     <g id="line2d_8">
      <path d="M 52.388688 120.444228 
L 415.737525 120.444228 
" clip-path="url(#p0ac68f27c4)" style="fill: none; stroke: #ffffff"/>
     </g>
     <g id="line2d_9">
      <path d="M 52.388688 120.444228 
" style="fill: none; stroke: #333333; stroke-width: 1.5"/>
      <g>
       <use xlink:href="#md4e1fc7222" x="52.388688" y="120.444228" style="fill: #333333; stroke: #000000"/>
      </g>
     </g>
     <g id="text_3">
      <!-- 0.840 -->
      <g style="fill: #4d4d4d" transform="translate(22.245938 122.872478)scale(0.088 -0.088)">
       <defs>
        <path id="DejaVuSans-34" d="M 2419 4116 
L 825 1625 
L 2419 1625 
L 2419 4116 
z
M 2253 4666 
L 3047 4666 
L 3047 1625 
L 3713 1625 
L 3713 1100 
L 3047 1100 
L 3047 0 
L 2419 0 
L 2419 1100 
L 313 1100 
L 313 1709 
L 2253 4666 
z
" transform="scale(0.015625)"/>
       </defs>
       <use xlink:href="#DejaVuSans-30"/>
       <use xlink:href="#DejaVuSans-2e" x="63.623047"/>
       <use xlink:href="#DejaVuSans-38" x="95.410156"/>
       <use xlink:href="#DejaVuSans-34" x="159.033203"/>
       <use xlink:href="#DejaVuSans-30" x="222.65625"/>
      </g>
     </g>
    </g>
    <g id="ytick_4">
     <g id="line2d_10">
      <path d="M 52.388688 67.936002 
L 415.737525 67.936002 
" clip-path="url(#p0ac68f27c4)" style="fill: none; stroke: #ffffff"/>
     </g>
     <g id="line2d_11">
      <path d="M 52.388688 67.936002 
" style="fill: none; stroke: #333333; stroke-width: 1.5"/>
      <g>
       <use xlink:href="#md4e1fc7222" x="52.388688" y="67.936002" style="fill: #333333; stroke: #000000"/>
      </g>
     </g>
     <g id="text_4">
      <!-- 0.841 -->
      <g style="fill: #4d4d4d" transform="translate(22.245938 70.364252)scale(0.088 -0.088)">
       <defs>
        <path id="DejaVuSans-31" d="M 794 531 
L 1825 531 
L 1825 4091 
L 703 3866 
L 703 4441 
L 1819 4666 
L 2450 4666 
L 2450 531 
L 3481 531 
L 3481 0 
L 794 0 
L 794 531 
z
" transform="scale(0.015625)"/>
       </defs>
       <use xlink:href="#DejaVuSans-30"/>
       <use xlink:href="#DejaVuSans-2e" x="63.623047"/>
       <use xlink:href="#DejaVuSans-38" x="95.410156"/>
       <use xlink:href="#DejaVuSans-34" x="159.033203"/>
       <use xlink:href="#DejaVuSans-31" x="222.65625"/>
      </g>
     </g>
    </g>
    <g id="ytick_5">
     <g id="line2d_12">
      <path d="M 52.388688 199.206567 
L 415.737525 199.206567 
" clip-path="url(#p0ac68f27c4)" style="fill: none; stroke: #ffffff; stroke-width: 0.5"/>
     </g>
    </g>
    <g id="ytick_6">
     <g id="line2d_13">
      <path d="M 52.388688 146.698341 
L 415.737525 146.698341 
" clip-path="url(#p0ac68f27c4)" style="fill: none; stroke: #ffffff; stroke-width: 0.5"/>
     </g>
    </g>
    <g id="ytick_7">
     <g id="line2d_14">
      <path d="M 52.388688 94.190115 
L 415.737525 94.190115 
" clip-path="url(#p0ac68f27c4)" style="fill: none; stroke: #ffffff; stroke-width: 0.5"/>
     </g>
    </g>
    <g id="ytick_8">
     <g id="line2d_15">
      <path d="M 52.388688 41.681889 
L 415.737525 41.681889 
" clip-path="url(#p0ac68f27c4)" style="fill: none; stroke: #ffffff; stroke-width: 0.5"/>
     </g>
    </g>
    <g id="text_5">
     <!-- Value -->
     <g transform="translate(15.558281 256.228457)rotate(-90)scale(0.11 -0.11)">
      <defs>
       <path id="DejaVuSans-56" d="M 1831 0 
L 50 4666 
L 709 4666 
L 2188 738 
L 3669 4666 
L 4325 4666 
L 2547 0 
L 1831 0 
z
" transform="scale(0.015625)"/>
       <path id="DejaVuSans-61" d="M 2194 1759 
Q 1497 1759 1228 1600 
Q 959 1441 959 1056 
Q 959 750 1161 570 
Q 1363 391 1709 391 
Q 2188 391 2477 730 
Q 2766 1069 2766 1631 
L 2766 1759 
L 2194 1759 
z
M 3341 1997 
L 3341 0 
L 2766 0 
L 2766 531 
Q 2569 213 2275 61 
Q 1981 -91 1556 -91 
Q 1019 -91 701 211 
Q 384 513 384 1019 
Q 384 1609 779 1909 
Q 1175 2209 1959 2209 
L 2766 2209 
L 2766 2266 
Q 2766 2663 2505 2880 
Q 2244 3097 1772 3097 
Q 1472 3097 1187 3025 
Q 903 2953 641 2809 
L 641 3341 
Q 956 3463 1253 3523 
Q 1550 3584 1831 3584 
Q 2591 3584 2966 3190 
Q 3341 2797 3341 1997 
z
" transform="scale(0.015625)"/>
       <path id="DejaVuSans-6c" d="M 603 4863 
L 1178 4863 
L 1178 0 
L 603 0 
L 603 4863 
z
" transform="scale(0.015625)"/>
       <path id="DejaVuSans-75" d="M 544 1381 
L 544 3500 
L 1119 3500 
L 1119 1403 
Q 1119 906 1312 657 
Q 1506 409 1894 409 
Q 2359 409 2629 706 
Q 2900 1003 2900 1516 
L 2900 3500 
L 3475 3500 
L 3475 0 
L 2900 0 
L 2900 538 
Q 2691 219 2414 64 
Q 2138 -91 1772 -91 
Q 1169 -91 856 284 
Q 544 659 544 1381 
z
M 1991 3584 
L 1991 3584 
z
" transform="scale(0.015625)"/>
       <path id="DejaVuSans-65" d="M 3597 1894 
L 3597 1613 
L 953 1613 
Q 991 1019 1311 708 
Q 1631 397 2203 397 
Q 2534 397 2845 478 
Q 3156 559 3463 722 
L 3463 178 
Q 3153 47 2828 -22 
Q 2503 -91 2169 -91 
Q 1331 -91 842 396 
Q 353 884 353 1716 
Q 353 2575 817 3079 
Q 1281 3584 2069 3584 
Q 2775 3584 3186 3129 
Q 3597 2675 3597 1894 
z
M 3022 2063 
Q 3016 2534 2758 2815 
Q 2500 3097 2075 3097 
Q 1594 3097 1305 2825 
Q 1016 2553 972 2059 
L 3022 2063 
z
" transform="scale(0.015625)"/>
      </defs>
      <use xlink:href="#DejaVuSans-56"/>
      <use xlink:href="#DejaVuSans-61" x="60.658203"/>
      <use xlink:href="#DejaVuSans-6c" x="121.9375"/>
      <use xlink:href="#DejaVuSans-75" x="149.720703"/>
      <use xlink:href="#DejaVuSans-65" x="213.099609"/>
     </g>
    </g>
   </g>
   <g id="line2d_16">
    <path d="M 104.295664 224.693628 
L 363.830548 191.222249 
" clip-path="url(#p0ac68f27c4)" style="fill: none; stroke: #db5f57; stroke-width: 0.886227"/>
   </g>
   <g id="line2d_17">
    <path d="M 104.295664 35.719799 
L 363.830548 98.129975 
" clip-path="url(#p0ac68f27c4)" style="fill: none; stroke: #57d3db; stroke-width: 0.886227"/>
   </g>
   <g id="line2d_18">
    <path d="M 104.295664 31.884537 
L 363.830548 58.382712 
" clip-path="url(#p0ac68f27c4)" style="fill: none; stroke-dasharray: 3.27904,1.417963; stroke-dashoffset: 0; stroke: #57d3db; stroke-width: 0.886227"/>
   </g>
   <g id="PathCollection_1">
    <path d="M 104.295664 226.466082 
C 104.765725 226.466082 105.216596 226.279325 105.548978 225.946942 
C 105.881361 225.614559 106.068118 225.163688 106.068118 224.693628 
C 106.068118 224.223568 105.881361 223.772696 105.548978 223.440314 
C 105.216596 223.107931 104.765725 222.921174 104.295664 222.921174 
C 103.825604 222.921174 103.374733 223.107931 103.04235 223.440314 
C 102.709967 223.772696 102.52321 224.223568 102.52321 224.693628 
C 102.52321 225.163688 102.709967 225.614559 103.04235 225.946942 
C 103.374733 226.279325 103.825604 226.466082 104.295664 226.466082 
z
" clip-path="url(#p0ac68f27c4)" style="fill: #db5f57; stroke: #db5f57; stroke-width: 0.886227"/>
    <path d="M 104.295664 37.492253 
C 104.765725 37.492253 105.216596 37.305496 105.548978 36.973113 
C 105.881361 36.64073 106.068118 36.189859 106.068118 35.719799 
C 106.068118 35.249739 105.881361 34.798868 105.548978 34.466485 
C 105.216596 34.134102 104.765725 33.947345 104.295664 33.947345 
C 103.825604 33.947345 103.374733 34.134102 103.04235 34.466485 
C 102.709967 34.798868 102.52321 35.249739 102.52321 35.719799 
C 102.52321 36.189859 102.709967 36.64073 103.04235 36.973113 
C 103.374733 37.305496 103.825604 37.492253 104.295664 37.492253 
z
" clip-path="url(#p0ac68f27c4)" style="fill: #57d3db; stroke: #57d3db; stroke-width: 0.886227"/>
    <path d="M 104.295664 33.656991 
C 104.765725 33.656991 105.216596 33.470234 105.548978 33.137851 
C 105.881361 32.805468 106.068118 32.354597 106.068118 31.884537 
C 106.068118 31.414477 105.881361 30.963606 105.548978 30.631223 
C 105.216596 30.29884 104.765725 30.112083 104.295664 30.112083 
C 103.825604 30.112083 103.374733 30.29884 103.04235 30.631223 
C 102.709967 30.963606 102.52321 31.414477 102.52321 31.884537 
C 102.52321 32.354597 102.709967 32.805468 103.04235 33.137851 
C 103.374733 33.470234 103.825604 33.656991 104.295664 33.656991 
z
" clip-path="url(#p0ac68f27c4)" style="fill: #57d3db; stroke: #57d3db; stroke-width: 0.886227"/>
    <path d="M 363.830548 192.994702 
C 364.300608 192.994702 364.751479 192.807945 365.083862 192.475563 
C 365.416245 192.14318 365.603002 191.692309 365.603002 191.222249 
C 365.603002 190.752188 365.416245 190.301317 365.083862 189.968934 
C 364.751479 189.636552 364.300608 189.449795 363.830548 189.449795 
C 363.360488 189.449795 362.909617 189.636552 362.577234 189.968934 
C 362.244851 190.301317 362.058094 190.752188 362.058094 191.222249 
C 362.058094 191.692309 362.244851 192.14318 362.577234 192.475563 
C 362.909617 192.807945 363.360488 192.994702 363.830548 192.994702 
z
" clip-path="url(#p0ac68f27c4)" style="fill: #db5f57; stroke: #db5f57; stroke-width: 0.886227"/>
    <path d="M 363.830548 99.902429 
C 364.300608 99.902429 364.751479 99.715672 365.083862 99.383289 
C 365.416245 99.050906 365.603002 98.600035 365.603002 98.129975 
C 365.603002 97.659915 365.416245 97.209044 365.083862 96.876661 
C 364.751479 96.544278 364.300608 96.357521 363.830548 96.357521 
C 363.360488 96.357521 362.909617 96.544278 362.577234 96.876661 
C 362.244851 97.209044 362.058094 97.659915 362.058094 98.129975 
C 362.058094 98.600035 362.244851 99.050906 362.577234 99.383289 
C 362.909617 99.715672 363.360488 99.902429 363.830548 99.902429 
z
" clip-path="url(#p0ac68f27c4)" style="fill: #57d3db; stroke: #57d3db; stroke-width: 0.886227"/>
    <path d="M 363.830548 60.155166 
C 364.300608 60.155166 364.751479 59.968409 365.083862 59.636026 
C 365.416245 59.303643 365.603002 58.852772 365.603002 58.382712 
C 365.603002 57.912652 365.416245 57.461781 365.083862 57.129398 
C 364.751479 56.797015 364.300608 56.610258 363.830548 56.610258 
C 363.360488 56.610258 362.909617 56.797015 362.577234 57.129398 
C 362.244851 57.461781 362.058094 57.912652 362.058094 58.382712 
C 362.058094 58.852772 362.244851 59.303643 362.577234 59.636026 
C 362.909617 59.968409 363.360488 60.155166 363.830548 60.155166 
z
" clip-path="url(#p0ac68f27c4)" style="fill: #57d3db; stroke: #57d3db; stroke-width: 0.886227"/>
   </g>
   <g id="patch_3">
    <path d="M 52.388688 22.244082 
L 415.737525 22.244082 
L 415.737525 7.2 
L 52.388688 7.2 
z
" style="fill: #d9d9d9"/>
   </g>
   <g id="text_6">
    <!-- Accuracy -->
    <g style="fill: #1a1a1a" transform="translate(213.974356 17.150291)scale(0.088 -0.088)">
     <defs>
      <path id="DejaVuSans-41" d="M 2188 4044 
L 1331 1722 
L 3047 1722 
L 2188 4044 
z
M 1831 4666 
L 2547 4666 
L 4325 0 
L 3669 0 
L 3244 1197 
L 1141 1197 
L 716 0 
L 50 0 
L 1831 4666 
z
" transform="scale(0.015625)"/>
      <path id="DejaVuSans-63" d="M 3122 3366 
L 3122 2828 
Q 2878 2963 2633 3030 
Q 2388 3097 2138 3097 
Q 1578 3097 1268 2742 
Q 959 2388 959 1747 
Q 959 1106 1268 751 
Q 1578 397 2138 397 
Q 2388 397 2633 464 
Q 2878 531 3122 666 
L 3122 134 
Q 2881 22 2623 -34 
Q 2366 -91 2075 -91 
Q 1284 -91 818 406 
Q 353 903 353 1747 
Q 353 2603 823 3093 
Q 1294 3584 2113 3584 
Q 2378 3584 2631 3529 
Q 2884 3475 3122 3366 
z
" transform="scale(0.015625)"/>
      <path id="DejaVuSans-72" d="M 2631 2963 
Q 2534 3019 2420 3045 
Q 2306 3072 2169 3072 
Q 1681 3072 1420 2755 
Q 1159 2438 1159 1844 
L 1159 0 
L 581 0 
L 581 3500 
L 1159 3500 
L 1159 2956 
Q 1341 3275 1631 3429 
Q 1922 3584 2338 3584 
Q 2397 3584 2469 3576 
Q 2541 3569 2628 3553 
L 2631 2963 
z
" transform="scale(0.015625)"/>
      <path id="DejaVuSans-79" d="M 2059 -325 
Q 1816 -950 1584 -1140 
Q 1353 -1331 966 -1331 
L 506 -1331 
L 506 -850 
L 844 -850 
Q 1081 -850 1212 -737 
Q 1344 -625 1503 -206 
L 1606 56 
L 191 3500 
L 800 3500 
L 1894 763 
L 2988 3500 
L 3597 3500 
L 2059 -325 
z
" transform="scale(0.015625)"/>
     </defs>
     <use xlink:href="#DejaVuSans-41"/>
     <use xlink:href="#DejaVuSans-63" x="66.658203"/>
     <use xlink:href="#DejaVuSans-63" x="121.638672"/>
     <use xlink:href="#DejaVuSans-75" x="176.619141"/>
     <use xlink:href="#DejaVuSans-72" x="239.998047"/>
     <use xlink:href="#DejaVuSans-61" x="281.111328"/>
     <use xlink:href="#DejaVuSans-63" x="342.390625"/>
     <use xlink:href="#DejaVuSans-79" x="397.371094"/>
    </g>
   </g>
   <g id="patch_4">
    <path d="M 840.788688 307.05002 
L 976.575719 307.05002 
L 976.575719 175.198145 
L 840.788688 175.198145 
z
" style="fill: #ffffff"/>
   </g>
   <g id="text_7">
    <!-- Batch normalization -->
    <g transform="translate(852.988688 198.791739)scale(0.11 -0.11)">
     <defs>
      <path id="DejaVuSans-42" d="M 1259 2228 
L 1259 519 
L 2272 519 
Q 2781 519 3026 730 
Q 3272 941 3272 1375 
Q 3272 1813 3026 2020 
Q 2781 2228 2272 2228 
L 1259 2228 
z
M 1259 4147 
L 1259 2741 
L 2194 2741 
Q 2656 2741 2882 2914 
Q 3109 3088 3109 3444 
Q 3109 3797 2882 3972 
Q 2656 4147 2194 4147 
L 1259 4147 
z
M 628 4666 
L 2241 4666 
Q 2963 4666 3353 4366 
Q 3744 4066 3744 3513 
Q 3744 3084 3544 2831 
Q 3344 2578 2956 2516 
Q 3422 2416 3680 2098 
Q 3938 1781 3938 1306 
Q 3938 681 3513 340 
Q 3088 0 2303 0 
L 628 0 
L 628 4666 
z
" transform="scale(0.015625)"/>
      <path id="DejaVuSans-74" d="M 1172 4494 
L 1172 3500 
L 2356 3500 
L 2356 3053 
L 1172 3053 
L 1172 1153 
Q 1172 725 1289 603 
Q 1406 481 1766 481 
L 2356 481 
L 2356 0 
L 1766 0 
Q 1100 0 847 248 
Q 594 497 594 1153 
L 594 3053 
L 172 3053 
L 172 3500 
L 594 3500 
L 594 4494 
L 1172 4494 
z
" transform="scale(0.015625)"/>
      <path id="DejaVuSans-68" d="M 3513 2113 
L 3513 0 
L 2938 0 
L 2938 2094 
Q 2938 2591 2744 2837 
Q 2550 3084 2163 3084 
Q 1697 3084 1428 2787 
Q 1159 2491 1159 1978 
L 1159 0 
L 581 0 
L 581 4863 
L 1159 4863 
L 1159 2956 
Q 1366 3272 1645 3428 
Q 1925 3584 2291 3584 
Q 2894 3584 3203 3211 
Q 3513 2838 3513 2113 
z
" transform="scale(0.015625)"/>
      <path id="DejaVuSans-20" transform="scale(0.015625)"/>
      <path id="DejaVuSans-6e" d="M 3513 2113 
L 3513 0 
L 2938 0 
L 2938 2094 
Q 2938 2591 2744 2837 
Q 2550 3084 2163 3084 
Q 1697 3084 1428 2787 
Q 1159 2491 1159 1978 
L 1159 0 
L 581 0 
L 581 3500 
L 1159 3500 
L 1159 2956 
Q 1366 3272 1645 3428 
Q 1925 3584 2291 3584 
Q 2894 3584 3203 3211 
Q 3513 2838 3513 2113 
z
" transform="scale(0.015625)"/>
      <path id="DejaVuSans-6f" d="M 1959 3097 
Q 1497 3097 1228 2736 
Q 959 2375 959 1747 
Q 959 1119 1226 758 
Q 1494 397 1959 397 
Q 2419 397 2687 759 
Q 2956 1122 2956 1747 
Q 2956 2369 2687 2733 
Q 2419 3097 1959 3097 
z
M 1959 3584 
Q 2709 3584 3137 3096 
Q 3566 2609 3566 1747 
Q 3566 888 3137 398 
Q 2709 -91 1959 -91 
Q 1206 -91 779 398 
Q 353 888 353 1747 
Q 353 2609 779 3096 
Q 1206 3584 1959 3584 
z
" transform="scale(0.015625)"/>
      <path id="DejaVuSans-6d" d="M 3328 2828 
Q 3544 3216 3844 3400 
Q 4144 3584 4550 3584 
Q 5097 3584 5394 3201 
Q 5691 2819 5691 2113 
L 5691 0 
L 5113 0 
L 5113 2094 
Q 5113 2597 4934 2840 
Q 4756 3084 4391 3084 
Q 3944 3084 3684 2787 
Q 3425 2491 3425 1978 
L 3425 0 
L 2847 0 
L 2847 2094 
Q 2847 2600 2669 2842 
Q 2491 3084 2119 3084 
Q 1678 3084 1418 2786 
Q 1159 2488 1159 1978 
L 1159 0 
L 581 0 
L 581 3500 
L 1159 3500 
L 1159 2956 
Q 1356 3278 1631 3431 
Q 1906 3584 2284 3584 
Q 2666 3584 2933 3390 
Q 3200 3197 3328 2828 
z
" transform="scale(0.015625)"/>
      <path id="DejaVuSans-69" d="M 603 3500 
L 1178 3500 
L 1178 0 
L 603 0 
L 603 3500 
z
M 603 4863 
L 1178 4863 
L 1178 4134 
L 603 4134 
L 603 4863 
z
" transform="scale(0.015625)"/>
      <path id="DejaVuSans-7a" d="M 353 3500 
L 3084 3500 
L 3084 2975 
L 922 459 
L 3084 459 
L 3084 0 
L 275 0 
L 275 525 
L 2438 3041 
L 353 3041 
L 353 3500 
z
" transform="scale(0.015625)"/>
     </defs>
     <use xlink:href="#DejaVuSans-42"/>
     <use xlink:href="#DejaVuSans-61" x="68.603516"/>
     <use xlink:href="#DejaVuSans-74" x="129.882812"/>
     <use xlink:href="#DejaVuSans-63" x="169.091797"/>
     <use xlink:href="#DejaVuSans-68" x="224.072266"/>
     <use xlink:href="#DejaVuSans-20" x="287.451172"/>
     <use xlink:href="#DejaVuSans-6e" x="319.238281"/>
     <use xlink:href="#DejaVuSans-6f" x="382.617188"/>
     <use xlink:href="#DejaVuSans-72" x="443.798828"/>
     <use xlink:href="#DejaVuSans-6d" x="483.162109"/>
     <use xlink:href="#DejaVuSans-61" x="580.574219"/>
     <use xlink:href="#DejaVuSans-6c" x="641.853516"/>
     <use xlink:href="#DejaVuSans-69" x="669.636719"/>
     <use xlink:href="#DejaVuSans-7a" x="697.419922"/>
     <use xlink:href="#DejaVuSans-61" x="749.910156"/>
     <use xlink:href="#DejaVuSans-74" x="811.189453"/>
     <use xlink:href="#DejaVuSans-69" x="850.398438"/>
     <use xlink:href="#DejaVuSans-6f" x="878.181641"/>
     <use xlink:href="#DejaVuSans-6e" x="939.363281"/>
    </g>
   </g>
   <g id="patch_5">
    <path d="M 852.988688 218.284082 
L 868.828688 218.284082 
L 868.828688 202.444082 
L 852.988688 202.444082 
z
" clip-path="url(#pdd3387ab8c)" style="fill: #f2f2f2"/>
   </g>
   <g id="line2d_19">
    <path d="M 852.988688 210.364082 
L 868.828688 210.364082 
" clip-path="url(#pdd3387ab8c)" style="fill: none; stroke: #db5f57; stroke-width: 0.886227"/>
   </g>
   <g id="line2d_20">
    <path d="M 860.908688 210.364082 
" clip-path="url(#pdd3387ab8c)" style="fill: none; stroke: #1f77b4; stroke-width: 1.5; stroke-linecap: square"/>
    <defs>
     <path id="ma11485f1aa" d="M 0 1.772454 
C 0.47006 1.772454 0.920931 1.585697 1.253314 1.253314 
C 1.585697 0.920931 1.772454 0.47006 1.772454 0 
C 1.772454 -0.47006 1.585697 -0.920931 1.253314 -1.253314 
C 0.920931 -1.585697 0.47006 -1.772454 0 -1.772454 
C -0.47006 -1.772454 -0.920931 -1.585697 -1.253314 -1.253314 
C -1.585697 -0.920931 -1.772454 -0.47006 -1.772454 0 
C -1.772454 0.47006 -1.585697 0.920931 -1.253314 1.253314 
C -0.920931 1.585697 -0.47006 1.772454 0 1.772454 
z
" style="stroke: #db5f57; stroke-width: 0.886227"/>
    </defs>
    <g clip-path="url(#pdd3387ab8c)">
     <use xlink:href="#ma11485f1aa" x="860.908688" y="210.364082" style="fill: #db5f57; stroke: #db5f57; stroke-width: 0.886227"/>
    </g>
   </g>
   <g id="text_8">
    <!-- False -->
    <g transform="translate(871.828688 212.792332)scale(0.088 -0.088)">
     <defs>
      <path id="DejaVuSans-46" d="M 628 4666 
L 3309 4666 
L 3309 4134 
L 1259 4134 
L 1259 2759 
L 3109 2759 
L 3109 2228 
L 1259 2228 
L 1259 0 
L 628 0 
L 628 4666 
z
" transform="scale(0.015625)"/>
      <path id="DejaVuSans-73" d="M 2834 3397 
L 2834 2853 
Q 2591 2978 2328 3040 
Q 2066 3103 1784 3103 
Q 1356 3103 1142 2972 
Q 928 2841 928 2578 
Q 928 2378 1081 2264 
Q 1234 2150 1697 2047 
L 1894 2003 
Q 2506 1872 2764 1633 
Q 3022 1394 3022 966 
Q 3022 478 2636 193 
Q 2250 -91 1575 -91 
Q 1294 -91 989 -36 
Q 684 19 347 128 
L 347 722 
Q 666 556 975 473 
Q 1284 391 1588 391 
Q 1994 391 2212 530 
Q 2431 669 2431 922 
Q 2431 1156 2273 1281 
Q 2116 1406 1581 1522 
L 1381 1569 
Q 847 1681 609 1914 
Q 372 2147 372 2553 
Q 372 3047 722 3315 
Q 1072 3584 1716 3584 
Q 2034 3584 2315 3537 
Q 2597 3491 2834 3397 
z
" transform="scale(0.015625)"/>
     </defs>
     <use xlink:href="#DejaVuSans-46"/>
     <use xlink:href="#DejaVuSans-61" x="48.394531"/>
     <use xlink:href="#DejaVuSans-6c" x="109.673828"/>
     <use xlink:href="#DejaVuSans-73" x="137.457031"/>
     <use xlink:href="#DejaVuSans-65" x="189.556641"/>
    </g>
   </g>
   <g id="patch_6">
    <path d="M 852.988688 236.124082 
L 868.828688 236.124082 
L 868.828688 220.284082 
L 852.988688 220.284082 
z
" clip-path="url(#pecc99afca9)" style="fill: #f2f2f2"/>
   </g>
   <g id="line2d_21">
    <path d="M 852.988688 228.204082 
L 868.828688 228.204082 
" clip-path="url(#pecc99afca9)" style="fill: none; stroke: #57d3db; stroke-width: 0.886227"/>
   </g>
   <g id="line2d_22">
    <path d="M 860.908688 228.204082 
" clip-path="url(#pecc99afca9)" style="fill: none; stroke: #1f77b4; stroke-width: 1.5; stroke-linecap: square"/>
    <defs>
     <path id="m8732b6b8d7" d="M 0 1.772454 
C 0.47006 1.772454 0.920931 1.585697 1.253314 1.253314 
C 1.585697 0.920931 1.772454 0.47006 1.772454 0 
C 1.772454 -0.47006 1.585697 -0.920931 1.253314 -1.253314 
C 0.920931 -1.585697 0.47006 -1.772454 0 -1.772454 
C -0.47006 -1.772454 -0.920931 -1.585697 -1.253314 -1.253314 
C -1.585697 -0.920931 -1.772454 -0.47006 -1.772454 0 
C -1.772454 0.47006 -1.585697 0.920931 -1.253314 1.253314 
C -0.920931 1.585697 -0.47006 1.772454 0 1.772454 
z
" style="stroke: #57d3db; stroke-width: 0.886227"/>
    </defs>
    <g clip-path="url(#pecc99afca9)">
     <use xlink:href="#m8732b6b8d7" x="860.908688" y="228.204082" style="fill: #57d3db; stroke: #57d3db; stroke-width: 0.886227"/>
    </g>
   </g>
   <g id="text_9">
    <!-- True -->
    <g transform="translate(871.828688 230.632332)scale(0.088 -0.088)">
     <defs>
      <path id="DejaVuSans-54" d="M -19 4666 
L 3928 4666 
L 3928 4134 
L 2272 4134 
L 2272 0 
L 1638 0 
L 1638 4134 
L -19 4134 
L -19 4666 
z
" transform="scale(0.015625)"/>
     </defs>
     <use xlink:href="#DejaVuSans-54"/>
     <use xlink:href="#DejaVuSans-72" x="46.333984"/>
     <use xlink:href="#DejaVuSans-75" x="87.447266"/>
     <use xlink:href="#DejaVuSans-65" x="150.826172"/>
    </g>
   </g>
   <g id="text_10">
    <!-- Bn before activation -->
    <g transform="translate(852.988688 257.517676)scale(0.11 -0.11)">
     <defs>
      <path id="DejaVuSans-62" d="M 3116 1747 
Q 3116 2381 2855 2742 
Q 2594 3103 2138 3103 
Q 1681 3103 1420 2742 
Q 1159 2381 1159 1747 
Q 1159 1113 1420 752 
Q 1681 391 2138 391 
Q 2594 391 2855 752 
Q 3116 1113 3116 1747 
z
M 1159 2969 
Q 1341 3281 1617 3432 
Q 1894 3584 2278 3584 
Q 2916 3584 3314 3078 
Q 3713 2572 3713 1747 
Q 3713 922 3314 415 
Q 2916 -91 2278 -91 
Q 1894 -91 1617 61 
Q 1341 213 1159 525 
L 1159 0 
L 581 0 
L 581 4863 
L 1159 4863 
L 1159 2969 
z
" transform="scale(0.015625)"/>
      <path id="DejaVuSans-66" d="M 2375 4863 
L 2375 4384 
L 1825 4384 
Q 1516 4384 1395 4259 
Q 1275 4134 1275 3809 
L 1275 3500 
L 2222 3500 
L 2222 3053 
L 1275 3053 
L 1275 0 
L 697 0 
L 697 3053 
L 147 3053 
L 147 3500 
L 697 3500 
L 697 3744 
Q 697 4328 969 4595 
Q 1241 4863 1831 4863 
L 2375 4863 
z
" transform="scale(0.015625)"/>
      <path id="DejaVuSans-76" d="M 191 3500 
L 800 3500 
L 1894 563 
L 2988 3500 
L 3597 3500 
L 2284 0 
L 1503 0 
L 191 3500 
z
" transform="scale(0.015625)"/>
     </defs>
     <use xlink:href="#DejaVuSans-42"/>
     <use xlink:href="#DejaVuSans-6e" x="68.603516"/>
     <use xlink:href="#DejaVuSans-20" x="131.982422"/>
     <use xlink:href="#DejaVuSans-62" x="163.769531"/>
     <use xlink:href="#DejaVuSans-65" x="227.246094"/>
     <use xlink:href="#DejaVuSans-66" x="288.769531"/>
     <use xlink:href="#DejaVuSans-6f" x="323.974609"/>
     <use xlink:href="#DejaVuSans-72" x="385.15625"/>
     <use xlink:href="#DejaVuSans-65" x="424.019531"/>
     <use xlink:href="#DejaVuSans-20" x="485.542969"/>
     <use xlink:href="#DejaVuSans-61" x="517.330078"/>
     <use xlink:href="#DejaVuSans-63" x="578.609375"/>
     <use xlink:href="#DejaVuSans-74" x="633.589844"/>
     <use xlink:href="#DejaVuSans-69" x="672.798828"/>
     <use xlink:href="#DejaVuSans-76" x="700.582031"/>
     <use xlink:href="#DejaVuSans-61" x="759.761719"/>
     <use xlink:href="#DejaVuSans-74" x="821.041016"/>
     <use xlink:href="#DejaVuSans-69" x="860.25"/>
     <use xlink:href="#DejaVuSans-6f" x="888.033203"/>
     <use xlink:href="#DejaVuSans-6e" x="949.214844"/>
    </g>
   </g>
   <g id="patch_7">
    <path d="M 852.988688 277.01002 
L 868.828688 277.01002 
L 868.828688 261.17002 
L 852.988688 261.17002 
z
" clip-path="url(#p9d0a2dd913)" style="fill: #f2f2f2"/>
   </g>
   <g id="line2d_23">
    <path d="M 852.988688 269.09002 
L 868.828688 269.09002 
" clip-path="url(#p9d0a2dd913)" style="fill: none; stroke: #000000; stroke-width: 0.886227"/>
   </g>
   <g id="text_11">
    <!-- False -->
    <g transform="translate(871.828688 271.51827)scale(0.088 -0.088)">
     <use xlink:href="#DejaVuSans-46"/>
     <use xlink:href="#DejaVuSans-61" x="48.394531"/>
     <use xlink:href="#DejaVuSans-6c" x="109.673828"/>
     <use xlink:href="#DejaVuSans-73" x="137.457031"/>
     <use xlink:href="#DejaVuSans-65" x="189.556641"/>
    </g>
   </g>
   <g id="patch_8">
    <path d="M 852.988688 294.85002 
L 868.828688 294.85002 
L 868.828688 279.01002 
L 852.988688 279.01002 
z
" clip-path="url(#p1e24b23ec3)" style="fill: #f2f2f2"/>
   </g>
   <g id="line2d_24">
    <path d="M 852.988688 286.93002 
L 868.828688 286.93002 
" clip-path="url(#p1e24b23ec3)" style="fill: none; stroke-dasharray: 3.27904,1.417963; stroke-dashoffset: 0; stroke: #000000; stroke-width: 0.886227"/>
   </g>
   <g id="text_12">
    <!-- True -->
    <g transform="translate(871.828688 289.35827)scale(0.088 -0.088)">
     <use xlink:href="#DejaVuSans-54"/>
     <use xlink:href="#DejaVuSans-72" x="46.333984"/>
     <use xlink:href="#DejaVuSans-75" x="87.447266"/>
     <use xlink:href="#DejaVuSans-65" x="150.826172"/>
    </g>
   </g>
  </g>
  <g id="axes_2">
   <g id="patch_9">
    <path d="M 470.23985 234.334082 
L 833.588688 234.334082 
L 833.588688 22.244082 
L 470.23985 22.244082 
z
" style="fill: #ebebeb"/>
   </g>
   <g id="matplotlib.axis_3">
    <g id="xtick_4">
     <g id="line2d_25">
      <path d="M 522.146827 234.334082 
L 522.146827 22.244082 
" clip-path="url(#p80e313f297)" style="fill: none; stroke: #ffffff; stroke-linecap: square"/>
     </g>
    </g>
    <g id="xtick_5">
     <g id="line2d_26">
      <path d="M 781.681711 234.334082 
L 781.681711 22.244082 
" clip-path="url(#p80e313f297)" style="fill: none; stroke: #ffffff; stroke-linecap: square"/>
     </g>
    </g>
    <g id="xtick_6">
     <g id="line2d_27">
      <path d="M 651.914269 234.334082 
L 651.914269 22.244082 
" clip-path="url(#p80e313f297)" style="fill: none; stroke: #ffffff; stroke-width: 0.5; stroke-linecap: square"/>
     </g>
    </g>
   </g>
   <g id="matplotlib.axis_4">
    <g id="ytick_9">
     <g id="line2d_28">
      <path d="M 470.23985 219.208513 
L 833.588688 219.208513 
" clip-path="url(#p80e313f297)" style="fill: none; stroke: #ffffff; stroke-linecap: square"/>
     </g>
     <g id="line2d_29">
      <path d="M 470.23985 219.208513 
" style="fill: none; stroke: #333333; stroke-width: 1.5; stroke-linecap: square"/>
      <g>
       <use xlink:href="#md4e1fc7222" x="470.23985" y="219.208513" style="fill: #333333; stroke: #000000"/>
      </g>
     </g>
     <g id="text_13">
      <!-- 0.892 -->
      <g style="fill: #4d4d4d" transform="translate(440.0971 221.636763)scale(0.088 -0.088)">
       <defs>
        <path id="DejaVuSans-32" d="M 1228 531 
L 3431 531 
L 3431 0 
L 469 0 
L 469 531 
Q 828 903 1448 1529 
Q 2069 2156 2228 2338 
Q 2531 2678 2651 2914 
Q 2772 3150 2772 3378 
Q 2772 3750 2511 3984 
Q 2250 4219 1831 4219 
Q 1534 4219 1204 4116 
Q 875 4013 500 3803 
L 500 4441 
Q 881 4594 1212 4672 
Q 1544 4750 1819 4750 
Q 2544 4750 2975 4387 
Q 3406 4025 3406 3419 
Q 3406 3131 3298 2873 
Q 3191 2616 2906 2266 
Q 2828 2175 2409 1742 
Q 1991 1309 1228 531 
z
" transform="scale(0.015625)"/>
       </defs>
       <use xlink:href="#DejaVuSans-30"/>
       <use xlink:href="#DejaVuSans-2e" x="63.623047"/>
       <use xlink:href="#DejaVuSans-38" x="95.410156"/>
       <use xlink:href="#DejaVuSans-39" x="159.033203"/>
       <use xlink:href="#DejaVuSans-32" x="222.65625"/>
      </g>
     </g>
    </g>
    <g id="ytick_10">
     <g id="line2d_30">
      <path d="M 470.23985 171.916137 
L 833.588688 171.916137 
" clip-path="url(#p80e313f297)" style="fill: none; stroke: #ffffff; stroke-linecap: square"/>
     </g>
     <g id="line2d_31">
      <path d="M 470.23985 171.916137 
" style="fill: none; stroke: #333333; stroke-width: 1.5; stroke-linecap: square"/>
      <g>
       <use xlink:href="#md4e1fc7222" x="470.23985" y="171.916137" style="fill: #333333; stroke: #000000"/>
      </g>
     </g>
     <g id="text_14">
      <!-- 0.893 -->
      <g style="fill: #4d4d4d" transform="translate(440.0971 174.344387)scale(0.088 -0.088)">
       <use xlink:href="#DejaVuSans-30"/>
       <use xlink:href="#DejaVuSans-2e" x="63.623047"/>
       <use xlink:href="#DejaVuSans-38" x="95.410156"/>
       <use xlink:href="#DejaVuSans-39" x="159.033203"/>
       <use xlink:href="#DejaVuSans-33" x="222.65625"/>
      </g>
     </g>
    </g>
    <g id="ytick_11">
     <g id="line2d_32">
      <path d="M 470.23985 124.62376 
L 833.588688 124.62376 
" clip-path="url(#p80e313f297)" style="fill: none; stroke: #ffffff; stroke-linecap: square"/>
     </g>
     <g id="line2d_33">
      <path d="M 470.23985 124.62376 
" style="fill: none; stroke: #333333; stroke-width: 1.5; stroke-linecap: square"/>
      <g>
       <use xlink:href="#md4e1fc7222" x="470.23985" y="124.62376" style="fill: #333333; stroke: #000000"/>
      </g>
     </g>
     <g id="text_15">
      <!-- 0.894 -->
      <g style="fill: #4d4d4d" transform="translate(440.0971 127.05201)scale(0.088 -0.088)">
       <use xlink:href="#DejaVuSans-30"/>
       <use xlink:href="#DejaVuSans-2e" x="63.623047"/>
       <use xlink:href="#DejaVuSans-38" x="95.410156"/>
       <use xlink:href="#DejaVuSans-39" x="159.033203"/>
       <use xlink:href="#DejaVuSans-34" x="222.65625"/>
      </g>
     </g>
    </g>
    <g id="ytick_12">
     <g id="line2d_34">
      <path d="M 470.23985 77.331383 
L 833.588688 77.331383 
" clip-path="url(#p80e313f297)" style="fill: none; stroke: #ffffff; stroke-linecap: square"/>
     </g>
     <g id="line2d_35">
      <path d="M 470.23985 77.331383 
" style="fill: none; stroke: #333333; stroke-width: 1.5; stroke-linecap: square"/>
      <g>
       <use xlink:href="#md4e1fc7222" x="470.23985" y="77.331383" style="fill: #333333; stroke: #000000"/>
      </g>
     </g>
     <g id="text_16">
      <!-- 0.895 -->
      <g style="fill: #4d4d4d" transform="translate(440.0971 79.759633)scale(0.088 -0.088)">
       <defs>
        <path id="DejaVuSans-35" d="M 691 4666 
L 3169 4666 
L 3169 4134 
L 1269 4134 
L 1269 2991 
Q 1406 3038 1543 3061 
Q 1681 3084 1819 3084 
Q 2600 3084 3056 2656 
Q 3513 2228 3513 1497 
Q 3513 744 3044 326 
Q 2575 -91 1722 -91 
Q 1428 -91 1123 -41 
Q 819 9 494 109 
L 494 744 
Q 775 591 1075 516 
Q 1375 441 1709 441 
Q 2250 441 2565 725 
Q 2881 1009 2881 1497 
Q 2881 1984 2565 2268 
Q 2250 2553 1709 2553 
Q 1456 2553 1204 2497 
Q 953 2441 691 2322 
L 691 4666 
z
" transform="scale(0.015625)"/>
       </defs>
       <use xlink:href="#DejaVuSans-30"/>
       <use xlink:href="#DejaVuSans-2e" x="63.623047"/>
       <use xlink:href="#DejaVuSans-38" x="95.410156"/>
       <use xlink:href="#DejaVuSans-39" x="159.033203"/>
       <use xlink:href="#DejaVuSans-35" x="222.65625"/>
      </g>
     </g>
    </g>
    <g id="ytick_13">
     <g id="line2d_36">
      <path d="M 470.23985 30.039007 
L 833.588688 30.039007 
" clip-path="url(#p80e313f297)" style="fill: none; stroke: #ffffff; stroke-linecap: square"/>
     </g>
     <g id="line2d_37">
      <path d="M 470.23985 30.039007 
" style="fill: none; stroke: #333333; stroke-width: 1.5; stroke-linecap: square"/>
      <g>
       <use xlink:href="#md4e1fc7222" x="470.23985" y="30.039007" style="fill: #333333; stroke: #000000"/>
      </g>
     </g>
     <g id="text_17">
      <!-- 0.896 -->
      <g style="fill: #4d4d4d" transform="translate(440.0971 32.467257)scale(0.088 -0.088)">
       <defs>
        <path id="DejaVuSans-36" d="M 2113 2584 
Q 1688 2584 1439 2293 
Q 1191 2003 1191 1497 
Q 1191 994 1439 701 
Q 1688 409 2113 409 
Q 2538 409 2786 701 
Q 3034 994 3034 1497 
Q 3034 2003 2786 2293 
Q 2538 2584 2113 2584 
z
M 3366 4563 
L 3366 3988 
Q 3128 4100 2886 4159 
Q 2644 4219 2406 4219 
Q 1781 4219 1451 3797 
Q 1122 3375 1075 2522 
Q 1259 2794 1537 2939 
Q 1816 3084 2150 3084 
Q 2853 3084 3261 2657 
Q 3669 2231 3669 1497 
Q 3669 778 3244 343 
Q 2819 -91 2113 -91 
Q 1303 -91 875 529 
Q 447 1150 447 2328 
Q 447 3434 972 4092 
Q 1497 4750 2381 4750 
Q 2619 4750 2861 4703 
Q 3103 4656 3366 4563 
z
" transform="scale(0.015625)"/>
       </defs>
       <use xlink:href="#DejaVuSans-30"/>
       <use xlink:href="#DejaVuSans-2e" x="63.623047"/>
       <use xlink:href="#DejaVuSans-38" x="95.410156"/>
       <use xlink:href="#DejaVuSans-39" x="159.033203"/>
       <use xlink:href="#DejaVuSans-36" x="222.65625"/>
      </g>
     </g>
    </g>
    <g id="ytick_14">
     <g id="line2d_38">
      <path d="M 470.23985 195.562325 
L 833.588688 195.562325 
" clip-path="url(#p80e313f297)" style="fill: none; stroke: #ffffff; stroke-width: 0.5; stroke-linecap: square"/>
     </g>
    </g>
    <g id="ytick_15">
     <g id="line2d_39">
      <path d="M 470.23985 148.269948 
L 833.588688 148.269948 
" clip-path="url(#p80e313f297)" style="fill: none; stroke: #ffffff; stroke-width: 0.5; stroke-linecap: square"/>
     </g>
    </g>
    <g id="ytick_16">
     <g id="line2d_40">
      <path d="M 470.23985 100.977572 
L 833.588688 100.977572 
" clip-path="url(#p80e313f297)" style="fill: none; stroke: #ffffff; stroke-width: 0.5; stroke-linecap: square"/>
     </g>
    </g>
    <g id="ytick_17">
     <g id="line2d_41">
      <path d="M 470.23985 53.685195 
L 833.588688 53.685195 
" clip-path="url(#p80e313f297)" style="fill: none; stroke: #ffffff; stroke-width: 0.5; stroke-linecap: square"/>
     </g>
    </g>
   </g>
   <g id="line2d_42">
    <path d="M 522.146827 224.693628 
L 781.681711 190.619365 
" clip-path="url(#p80e313f297)" style="fill: none; stroke: #db5f57; stroke-width: 0.886227"/>
   </g>
   <g id="line2d_43">
    <path d="M 522.146827 51.906555 
L 781.681711 39.302493 
" clip-path="url(#p80e313f297)" style="fill: none; stroke: #57d3db; stroke-width: 0.886227"/>
   </g>
   <g id="line2d_44">
    <path d="M 522.146827 31.884537 
L 781.681711 62.903113 
" clip-path="url(#p80e313f297)" style="fill: none; stroke-dasharray: 3.27904,1.417963; stroke-dashoffset: 0; stroke: #57d3db; stroke-width: 0.886227"/>
   </g>
   <g id="PathCollection_2">
    <path d="M 522.146827 226.466082 
C 522.616887 226.466082 523.067758 226.279325 523.400141 225.946942 
C 523.732524 225.614559 523.919281 225.163688 523.919281 224.693628 
C 523.919281 224.223568 523.732524 223.772696 523.400141 223.440314 
C 523.067758 223.107931 522.616887 222.921174 522.146827 222.921174 
C 521.676767 222.921174 521.225896 223.107931 520.893513 223.440314 
C 520.56113 223.772696 520.374373 224.223568 520.374373 224.693628 
C 520.374373 225.163688 520.56113 225.614559 520.893513 225.946942 
C 521.225896 226.279325 521.676767 226.466082 522.146827 226.466082 
z
" clip-path="url(#p80e313f297)" style="fill: #db5f57; stroke: #db5f57; stroke-width: 0.886227"/>
    <path d="M 522.146827 53.679009 
C 522.616887 53.679009 523.067758 53.492252 523.400141 53.159869 
C 523.732524 52.827487 523.919281 52.376616 523.919281 51.906555 
C 523.919281 51.436495 523.732524 50.985624 523.400141 50.653241 
C 523.067758 50.320858 522.616887 50.134101 522.146827 50.134101 
C 521.676767 50.134101 521.225896 50.320858 520.893513 50.653241 
C 520.56113 50.985624 520.374373 51.436495 520.374373 51.906555 
C 520.374373 52.376616 520.56113 52.827487 520.893513 53.159869 
C 521.225896 53.492252 521.676767 53.679009 522.146827 53.679009 
z
" clip-path="url(#p80e313f297)" style="fill: #57d3db; stroke: #57d3db; stroke-width: 0.886227"/>
    <path d="M 522.146827 33.656991 
C 522.616887 33.656991 523.067758 33.470234 523.400141 33.137851 
C 523.732524 32.805468 523.919281 32.354597 523.919281 31.884537 
C 523.919281 31.414477 523.732524 30.963606 523.400141 30.631223 
C 523.067758 30.29884 522.616887 30.112083 522.146827 30.112083 
C 521.676767 30.112083 521.225896 30.29884 520.893513 30.631223 
C 520.56113 30.963606 520.374373 31.414477 520.374373 31.884537 
C 520.374373 32.354597 520.56113 32.805468 520.893513 33.137851 
C 521.225896 33.470234 521.676767 33.656991 522.146827 33.656991 
z
" clip-path="url(#p80e313f297)" style="fill: #57d3db; stroke: #57d3db; stroke-width: 0.886227"/>
    <path d="M 781.681711 192.391819 
C 782.151771 192.391819 782.602642 192.205062 782.935025 191.872679 
C 783.267408 191.540296 783.454165 191.089425 783.454165 190.619365 
C 783.454165 190.149304 783.267408 189.698433 782.935025 189.366051 
C 782.602642 189.033668 782.151771 188.846911 781.681711 188.846911 
C 781.21165 188.846911 780.760779 189.033668 780.428397 189.366051 
C 780.096014 189.698433 779.909257 190.149304 779.909257 190.619365 
C 779.909257 191.089425 780.096014 191.540296 780.428397 191.872679 
C 780.760779 192.205062 781.21165 192.391819 781.681711 192.391819 
z
" clip-path="url(#p80e313f297)" style="fill: #db5f57; stroke: #db5f57; stroke-width: 0.886227"/>
    <path d="M 781.681711 41.074947 
C 782.151771 41.074947 782.602642 40.88819 782.935025 40.555807 
C 783.267408 40.223425 783.454165 39.772554 783.454165 39.302493 
C 783.454165 38.832433 783.267408 38.381562 782.935025 38.049179 
C 782.602642 37.716796 782.151771 37.530039 781.681711 37.530039 
C 781.21165 37.530039 780.760779 37.716796 780.428397 38.049179 
C 780.096014 38.381562 779.909257 38.832433 779.909257 39.302493 
C 779.909257 39.772554 780.096014 40.223425 780.428397 40.555807 
C 780.760779 40.88819 781.21165 41.074947 781.681711 41.074947 
z
" clip-path="url(#p80e313f297)" style="fill: #57d3db; stroke: #57d3db; stroke-width: 0.886227"/>
    <path d="M 781.681711 64.675567 
C 782.151771 64.675567 782.602642 64.48881 782.935025 64.156427 
C 783.267408 63.824044 783.454165 63.373173 783.454165 62.903113 
C 783.454165 62.433053 783.267408 61.982182 782.935025 61.649799 
C 782.602642 61.317416 782.151771 61.130659 781.681711 61.130659 
C 781.21165 61.130659 780.760779 61.317416 780.428397 61.649799 
C 780.096014 61.982182 779.909257 62.433053 779.909257 62.903113 
C 779.909257 63.373173 780.096014 63.824044 780.428397 64.156427 
C 780.760779 64.48881 781.21165 64.675567 781.681711 64.675567 
z
" clip-path="url(#p80e313f297)" style="fill: #57d3db; stroke: #57d3db; stroke-width: 0.886227"/>
   </g>
   <g id="patch_10">
    <path d="M 470.23985 22.244082 
L 833.588688 22.244082 
L 833.588688 7.2 
L 470.23985 7.2 
z
" style="fill: #d9d9d9"/>
   </g>
   <g id="text_18">
    <!-- AUC -->
    <g style="fill: #1a1a1a" transform="translate(642.611706 17.150291)scale(0.088 -0.088)">
     <defs>
      <path id="DejaVuSans-55" d="M 556 4666 
L 1191 4666 
L 1191 1831 
Q 1191 1081 1462 751 
Q 1734 422 2344 422 
Q 2950 422 3222 751 
Q 3494 1081 3494 1831 
L 3494 4666 
L 4128 4666 
L 4128 1753 
Q 4128 841 3676 375 
Q 3225 -91 2344 -91 
Q 1459 -91 1007 375 
Q 556 841 556 1753 
L 556 4666 
z
" transform="scale(0.015625)"/>
      <path id="DejaVuSans-43" d="M 4122 4306 
L 4122 3641 
Q 3803 3938 3442 4084 
Q 3081 4231 2675 4231 
Q 1875 4231 1450 3742 
Q 1025 3253 1025 2328 
Q 1025 1406 1450 917 
Q 1875 428 2675 428 
Q 3081 428 3442 575 
Q 3803 722 4122 1019 
L 4122 359 
Q 3791 134 3420 21 
Q 3050 -91 2638 -91 
Q 1578 -91 968 557 
Q 359 1206 359 2328 
Q 359 3453 968 4101 
Q 1578 4750 2638 4750 
Q 3056 4750 3426 4639 
Q 3797 4528 4122 4306 
z
" transform="scale(0.015625)"/>
     </defs>
     <use xlink:href="#DejaVuSans-41"/>
     <use xlink:href="#DejaVuSans-55" x="68.408203"/>
     <use xlink:href="#DejaVuSans-43" x="141.601562"/>
    </g>
   </g>
  </g>
  <g id="axes_3">
   <g id="patch_11">
    <path d="M 52.388688 465.764082 
L 415.737525 465.764082 
L 415.737525 253.674082 
L 52.388688 253.674082 
z
" style="fill: #ebebeb"/>
   </g>
   <g id="matplotlib.axis_5">
    <g id="xtick_7">
     <g id="line2d_45">
      <path d="M 104.295664 465.764082 
L 104.295664 253.674082 
" clip-path="url(#p2a54e91060)" style="fill: none; stroke: #ffffff; stroke-linecap: square"/>
     </g>
     <g id="line2d_46">
      <path d="M 104.295664 465.764082 
" style="fill: none; stroke: #333333; stroke-width: 1.5; stroke-linecap: square"/>
      <defs>
       <path id="m300e7222e8" d="M 0 0 
L 0 2.75 
" style="stroke: #000000"/>
      </defs>
      <g>
       <use xlink:href="#m300e7222e8" x="104.295664" y="465.764082" style="fill: #333333; stroke: #000000"/>
      </g>
     </g>
     <g id="text_19">
      <!-- False -->
      <g style="fill: #4d4d4d" transform="translate(93.248227 477.400707)scale(0.088 -0.088)">
       <use xlink:href="#DejaVuSans-46"/>
       <use xlink:href="#DejaVuSans-61" x="48.394531"/>
       <use xlink:href="#DejaVuSans-6c" x="109.673828"/>
       <use xlink:href="#DejaVuSans-73" x="137.457031"/>
       <use xlink:href="#DejaVuSans-65" x="189.556641"/>
      </g>
     </g>
    </g>
    <g id="xtick_8">
     <g id="line2d_47">
      <path d="M 363.830548 465.764082 
L 363.830548 253.674082 
" clip-path="url(#p2a54e91060)" style="fill: none; stroke: #ffffff; stroke-linecap: square"/>
     </g>
     <g id="line2d_48">
      <path d="M 363.830548 465.764082 
" style="fill: none; stroke: #333333; stroke-width: 1.5; stroke-linecap: square"/>
      <g>
       <use xlink:href="#m300e7222e8" x="363.830548" y="465.764082" style="fill: #333333; stroke: #000000"/>
      </g>
     </g>
     <g id="text_20">
      <!-- True -->
      <g style="fill: #4d4d4d" transform="translate(354.487423 477.400707)scale(0.088 -0.088)">
       <use xlink:href="#DejaVuSans-54"/>
       <use xlink:href="#DejaVuSans-72" x="46.333984"/>
       <use xlink:href="#DejaVuSans-75" x="87.447266"/>
       <use xlink:href="#DejaVuSans-65" x="150.826172"/>
      </g>
     </g>
    </g>
    <g id="xtick_9">
     <g id="line2d_49">
      <path d="M 234.063106 465.764082 
L 234.063106 253.674082 
" clip-path="url(#p2a54e91060)" style="fill: none; stroke: #ffffff; stroke-width: 0.5; stroke-linecap: square"/>
     </g>
    </g>
   </g>
   <g id="matplotlib.axis_6">
    <g id="ytick_18">
     <g id="line2d_50">
      <path d="M 52.388688 434.873794 
L 415.737525 434.873794 
" clip-path="url(#p2a54e91060)" style="fill: none; stroke: #ffffff; stroke-linecap: square"/>
     </g>
     <g id="line2d_51">
      <path d="M 52.388688 434.873794 
" style="fill: none; stroke: #333333; stroke-width: 1.5; stroke-linecap: square"/>
      <g>
       <use xlink:href="#md4e1fc7222" x="52.388688" y="434.873794" style="fill: #333333; stroke: #000000"/>
      </g>
     </g>
     <g id="text_21">
      <!-- 0.8950 -->
      <g style="fill: #4d4d4d" transform="translate(16.646938 437.302044)scale(0.088 -0.088)">
       <use xlink:href="#DejaVuSans-30"/>
       <use xlink:href="#DejaVuSans-2e" x="63.623047"/>
       <use xlink:href="#DejaVuSans-38" x="95.410156"/>
       <use xlink:href="#DejaVuSans-39" x="159.033203"/>
       <use xlink:href="#DejaVuSans-35" x="222.65625"/>
       <use xlink:href="#DejaVuSans-30" x="286.279297"/>
      </g>
     </g>
    </g>
    <g id="ytick_19">
     <g id="line2d_52">
      <path d="M 52.388688 395.402295 
L 415.737525 395.402295 
" clip-path="url(#p2a54e91060)" style="fill: none; stroke: #ffffff; stroke-linecap: square"/>
     </g>
     <g id="line2d_53">
      <path d="M 52.388688 395.402295 
" style="fill: none; stroke: #333333; stroke-width: 1.5; stroke-linecap: square"/>
      <g>
       <use xlink:href="#md4e1fc7222" x="52.388688" y="395.402295" style="fill: #333333; stroke: #000000"/>
      </g>
     </g>
     <g id="text_22">
      <!-- 0.8955 -->
      <g style="fill: #4d4d4d" transform="translate(16.646938 397.830545)scale(0.088 -0.088)">
       <use xlink:href="#DejaVuSans-30"/>
       <use xlink:href="#DejaVuSans-2e" x="63.623047"/>
       <use xlink:href="#DejaVuSans-38" x="95.410156"/>
       <use xlink:href="#DejaVuSans-39" x="159.033203"/>
       <use xlink:href="#DejaVuSans-35" x="222.65625"/>
       <use xlink:href="#DejaVuSans-35" x="286.279297"/>
      </g>
     </g>
    </g>
    <g id="ytick_20">
     <g id="line2d_54">
      <path d="M 52.388688 355.930796 
L 415.737525 355.930796 
" clip-path="url(#p2a54e91060)" style="fill: none; stroke: #ffffff; stroke-linecap: square"/>
     </g>
     <g id="line2d_55">
      <path d="M 52.388688 355.930796 
" style="fill: none; stroke: #333333; stroke-width: 1.5; stroke-linecap: square"/>
      <g>
       <use xlink:href="#md4e1fc7222" x="52.388688" y="355.930796" style="fill: #333333; stroke: #000000"/>
      </g>
     </g>
     <g id="text_23">
      <!-- 0.8960 -->
      <g style="fill: #4d4d4d" transform="translate(16.646938 358.359046)scale(0.088 -0.088)">
       <use xlink:href="#DejaVuSans-30"/>
       <use xlink:href="#DejaVuSans-2e" x="63.623047"/>
       <use xlink:href="#DejaVuSans-38" x="95.410156"/>
       <use xlink:href="#DejaVuSans-39" x="159.033203"/>
       <use xlink:href="#DejaVuSans-36" x="222.65625"/>
       <use xlink:href="#DejaVuSans-30" x="286.279297"/>
      </g>
     </g>
    </g>
    <g id="ytick_21">
     <g id="line2d_56">
      <path d="M 52.388688 316.459298 
L 415.737525 316.459298 
" clip-path="url(#p2a54e91060)" style="fill: none; stroke: #ffffff; stroke-linecap: square"/>
     </g>
     <g id="line2d_57">
      <path d="M 52.388688 316.459298 
" style="fill: none; stroke: #333333; stroke-width: 1.5; stroke-linecap: square"/>
      <g>
       <use xlink:href="#md4e1fc7222" x="52.388688" y="316.459298" style="fill: #333333; stroke: #000000"/>
      </g>
     </g>
     <g id="text_24">
      <!-- 0.8965 -->
      <g style="fill: #4d4d4d" transform="translate(16.646938 318.887548)scale(0.088 -0.088)">
       <use xlink:href="#DejaVuSans-30"/>
       <use xlink:href="#DejaVuSans-2e" x="63.623047"/>
       <use xlink:href="#DejaVuSans-38" x="95.410156"/>
       <use xlink:href="#DejaVuSans-39" x="159.033203"/>
       <use xlink:href="#DejaVuSans-36" x="222.65625"/>
       <use xlink:href="#DejaVuSans-35" x="286.279297"/>
      </g>
     </g>
    </g>
    <g id="ytick_22">
     <g id="line2d_58">
      <path d="M 52.388688 276.987799 
L 415.737525 276.987799 
" clip-path="url(#p2a54e91060)" style="fill: none; stroke: #ffffff; stroke-linecap: square"/>
     </g>
     <g id="line2d_59">
      <path d="M 52.388688 276.987799 
" style="fill: none; stroke: #333333; stroke-width: 1.5; stroke-linecap: square"/>
      <g>
       <use xlink:href="#md4e1fc7222" x="52.388688" y="276.987799" style="fill: #333333; stroke: #000000"/>
      </g>
     </g>
     <g id="text_25">
      <!-- 0.8970 -->
      <g style="fill: #4d4d4d" transform="translate(16.646938 279.416049)scale(0.088 -0.088)">
       <defs>
        <path id="DejaVuSans-37" d="M 525 4666 
L 3525 4666 
L 3525 4397 
L 1831 0 
L 1172 0 
L 2766 4134 
L 525 4134 
L 525 4666 
z
" transform="scale(0.015625)"/>
       </defs>
       <use xlink:href="#DejaVuSans-30"/>
       <use xlink:href="#DejaVuSans-2e" x="63.623047"/>
       <use xlink:href="#DejaVuSans-38" x="95.410156"/>
       <use xlink:href="#DejaVuSans-39" x="159.033203"/>
       <use xlink:href="#DejaVuSans-37" x="222.65625"/>
       <use xlink:href="#DejaVuSans-30" x="286.279297"/>
      </g>
     </g>
    </g>
    <g id="ytick_23">
     <g id="line2d_60">
      <path d="M 52.388688 454.609543 
L 415.737525 454.609543 
" clip-path="url(#p2a54e91060)" style="fill: none; stroke: #ffffff; stroke-width: 0.5; stroke-linecap: square"/>
     </g>
    </g>
    <g id="ytick_24">
     <g id="line2d_61">
      <path d="M 52.388688 415.138044 
L 415.737525 415.138044 
" clip-path="url(#p2a54e91060)" style="fill: none; stroke: #ffffff; stroke-width: 0.5; stroke-linecap: square"/>
     </g>
    </g>
    <g id="ytick_25">
     <g id="line2d_62">
      <path d="M 52.388688 375.666546 
L 415.737525 375.666546 
" clip-path="url(#p2a54e91060)" style="fill: none; stroke: #ffffff; stroke-width: 0.5; stroke-linecap: square"/>
     </g>
    </g>
    <g id="ytick_26">
     <g id="line2d_63">
      <path d="M 52.388688 336.195047 
L 415.737525 336.195047 
" clip-path="url(#p2a54e91060)" style="fill: none; stroke: #ffffff; stroke-width: 0.5; stroke-linecap: square"/>
     </g>
    </g>
    <g id="ytick_27">
     <g id="line2d_64">
      <path d="M 52.388688 296.723548 
L 415.737525 296.723548 
" clip-path="url(#p2a54e91060)" style="fill: none; stroke: #ffffff; stroke-width: 0.5; stroke-linecap: square"/>
     </g>
    </g>
    <g id="ytick_28">
     <g id="line2d_65">
      <path d="M 52.388688 257.25205 
L 415.737525 257.25205 
" clip-path="url(#p2a54e91060)" style="fill: none; stroke: #ffffff; stroke-width: 0.5; stroke-linecap: square"/>
     </g>
    </g>
   </g>
   <g id="line2d_66">
    <path d="M 104.295664 456.123628 
L 363.830548 412.668544 
" clip-path="url(#p2a54e91060)" style="fill: none; stroke: #db5f57; stroke-width: 0.886227"/>
   </g>
   <g id="line2d_67">
    <path d="M 104.295664 263.314537 
L 363.830548 339.548042 
" clip-path="url(#p2a54e91060)" style="fill: none; stroke: #57d3db; stroke-width: 0.886227"/>
   </g>
   <g id="line2d_68">
    <path d="M 104.295664 268.0549 
L 363.830548 306.346108 
" clip-path="url(#p2a54e91060)" style="fill: none; stroke-dasharray: 3.27904,1.417963; stroke-dashoffset: 0; stroke: #57d3db; stroke-width: 0.886227"/>
   </g>
   <g id="PathCollection_3">
    <path d="M 104.295664 457.896082 
C 104.765725 457.896082 105.216596 457.709325 105.548978 457.376942 
C 105.881361 457.044559 106.068118 456.593688 106.068118 456.123628 
C 106.068118 455.653568 105.881361 455.202696 105.548978 454.870314 
C 105.216596 454.537931 104.765725 454.351174 104.295664 454.351174 
C 103.825604 454.351174 103.374733 454.537931 103.04235 454.870314 
C 102.709967 455.202696 102.52321 455.653568 102.52321 456.123628 
C 102.52321 456.593688 102.709967 457.044559 103.04235 457.376942 
C 103.374733 457.709325 103.825604 457.896082 104.295664 457.896082 
z
" clip-path="url(#p2a54e91060)" style="fill: #db5f57; stroke: #db5f57; stroke-width: 0.886227"/>
    <path d="M 104.295664 265.086991 
C 104.765725 265.086991 105.216596 264.900234 105.548978 264.567851 
C 105.881361 264.235468 106.068118 263.784597 106.068118 263.314537 
C 106.068118 262.844477 105.881361 262.393606 105.548978 262.061223 
C 105.216596 261.72884 104.765725 261.542083 104.295664 261.542083 
C 103.825604 261.542083 103.374733 261.72884 103.04235 262.061223 
C 102.709967 262.393606 102.52321 262.844477 102.52321 263.314537 
C 102.52321 263.784597 102.709967 264.235468 103.04235 264.567851 
C 103.374733 264.900234 103.825604 265.086991 104.295664 265.086991 
z
" clip-path="url(#p2a54e91060)" style="fill: #57d3db; stroke: #57d3db; stroke-width: 0.886227"/>
    <path d="M 104.295664 269.827354 
C 104.765725 269.827354 105.216596 269.640597 105.548978 269.308214 
C 105.881361 268.975831 106.068118 268.52496 106.068118 268.0549 
C 106.068118 267.58484 105.881361 267.133969 105.548978 266.801586 
C 105.216596 266.469203 104.765725 266.282446 104.295664 266.282446 
C 103.825604 266.282446 103.374733 266.469203 103.04235 266.801586 
C 102.709967 267.133969 102.52321 267.58484 102.52321 268.0549 
C 102.52321 268.52496 102.709967 268.975831 103.04235 269.308214 
C 103.374733 269.640597 103.825604 269.827354 104.295664 269.827354 
z
" clip-path="url(#p2a54e91060)" style="fill: #57d3db; stroke: #57d3db; stroke-width: 0.886227"/>
    <path d="M 363.830548 414.440998 
C 364.300608 414.440998 364.751479 414.254241 365.083862 413.921858 
C 365.416245 413.589476 365.603002 413.138604 365.603002 412.668544 
C 365.603002 412.198484 365.416245 411.747613 365.083862 411.41523 
C 364.751479 411.082847 364.300608 410.89609 363.830548 410.89609 
C 363.360488 410.89609 362.909617 411.082847 362.577234 411.41523 
C 362.244851 411.747613 362.058094 412.198484 362.058094 412.668544 
C 362.058094 413.138604 362.244851 413.589476 362.577234 413.921858 
C 362.909617 414.254241 363.360488 414.440998 363.830548 414.440998 
z
" clip-path="url(#p2a54e91060)" style="fill: #db5f57; stroke: #db5f57; stroke-width: 0.886227"/>
    <path d="M 363.830548 341.320496 
C 364.300608 341.320496 364.751479 341.133739 365.083862 340.801357 
C 365.416245 340.468974 365.603002 340.018103 365.603002 339.548042 
C 365.603002 339.077982 365.416245 338.627111 365.083862 338.294728 
C 364.751479 337.962345 364.300608 337.775589 363.830548 337.775589 
C 363.360488 337.775589 362.909617 337.962345 362.577234 338.294728 
C 362.244851 338.627111 362.058094 339.077982 362.058094 339.548042 
C 362.058094 340.018103 362.244851 340.468974 362.577234 340.801357 
C 362.909617 341.133739 363.360488 341.320496 363.830548 341.320496 
z
" clip-path="url(#p2a54e91060)" style="fill: #57d3db; stroke: #57d3db; stroke-width: 0.886227"/>
    <path d="M 363.830548 308.118562 
C 364.300608 308.118562 364.751479 307.931805 365.083862 307.599422 
C 365.416245 307.267039 365.603002 306.816168 365.603002 306.346108 
C 365.603002 305.876048 365.416245 305.425177 365.083862 305.092794 
C 364.751479 304.760411 364.300608 304.573654 363.830548 304.573654 
C 363.360488 304.573654 362.909617 304.760411 362.577234 305.092794 
C 362.244851 305.425177 362.058094 305.876048 362.058094 306.346108 
C 362.058094 306.816168 362.244851 307.267039 362.577234 307.599422 
C 362.909617 307.931805 363.360488 308.118562 363.830548 308.118562 
z
" clip-path="url(#p2a54e91060)" style="fill: #57d3db; stroke: #57d3db; stroke-width: 0.886227"/>
   </g>
   <g id="patch_12">
    <path d="M 52.388688 253.674082 
L 415.737525 253.674082 
L 415.737525 238.63 
L 52.388688 238.63 
z
" style="fill: #d9d9d9"/>
   </g>
   <g id="text_26">
    <!-- F1 score: &lt;=50K -->
    <g style="fill: #1a1a1a" transform="translate(196.774481 248.580291)scale(0.088 -0.088)">
     <defs>
      <path id="DejaVuSans-3a" d="M 750 794 
L 1409 794 
L 1409 0 
L 750 0 
L 750 794 
z
M 750 3309 
L 1409 3309 
L 1409 2516 
L 750 2516 
L 750 3309 
z
" transform="scale(0.015625)"/>
      <path id="DejaVuSans-3c" d="M 4684 3150 
L 1459 2003 
L 4684 863 
L 4684 294 
L 678 1747 
L 678 2266 
L 4684 3719 
L 4684 3150 
z
" transform="scale(0.015625)"/>
      <path id="DejaVuSans-3d" d="M 678 2906 
L 4684 2906 
L 4684 2381 
L 678 2381 
L 678 2906 
z
M 678 1631 
L 4684 1631 
L 4684 1100 
L 678 1100 
L 678 1631 
z
" transform="scale(0.015625)"/>
      <path id="DejaVuSans-4b" d="M 628 4666 
L 1259 4666 
L 1259 2694 
L 3353 4666 
L 4166 4666 
L 1850 2491 
L 4331 0 
L 3500 0 
L 1259 2247 
L 1259 0 
L 628 0 
L 628 4666 
z
" transform="scale(0.015625)"/>
     </defs>
     <use xlink:href="#DejaVuSans-46"/>
     <use xlink:href="#DejaVuSans-31" x="57.519531"/>
     <use xlink:href="#DejaVuSans-20" x="121.142578"/>
     <use xlink:href="#DejaVuSans-73" x="152.929688"/>
     <use xlink:href="#DejaVuSans-63" x="205.029297"/>
     <use xlink:href="#DejaVuSans-6f" x="260.009766"/>
     <use xlink:href="#DejaVuSans-72" x="321.191406"/>
     <use xlink:href="#DejaVuSans-65" x="360.054688"/>
     <use xlink:href="#DejaVuSans-3a" x="421.578125"/>
     <use xlink:href="#DejaVuSans-20" x="455.269531"/>
     <use xlink:href="#DejaVuSans-3c" x="487.056641"/>
     <use xlink:href="#DejaVuSans-3d" x="570.845703"/>
     <use xlink:href="#DejaVuSans-35" x="654.634766"/>
     <use xlink:href="#DejaVuSans-30" x="718.257812"/>
     <use xlink:href="#DejaVuSans-4b" x="781.880859"/>
    </g>
   </g>
  </g>
  <g id="axes_4">
   <g id="patch_13">
    <path d="M 470.23985 465.764082 
L 833.588688 465.764082 
L 833.588688 253.674082 
L 470.23985 253.674082 
z
" style="fill: #ebebeb"/>
   </g>
   <g id="matplotlib.axis_7">
    <g id="xtick_10">
     <g id="line2d_69">
      <path d="M 522.146827 465.764082 
L 522.146827 253.674082 
" clip-path="url(#p11558606c9)" style="fill: none; stroke: #ffffff; stroke-linecap: square"/>
     </g>
     <g id="line2d_70">
      <path d="M 522.146827 465.764082 
" style="fill: none; stroke: #333333; stroke-width: 1.5; stroke-linecap: square"/>
      <g>
       <use xlink:href="#m300e7222e8" x="522.146827" y="465.764082" style="fill: #333333; stroke: #000000"/>
      </g>
     </g>
     <g id="text_27">
      <!-- False -->
      <g style="fill: #4d4d4d" transform="translate(511.09939 477.400707)scale(0.088 -0.088)">
       <use xlink:href="#DejaVuSans-46"/>
       <use xlink:href="#DejaVuSans-61" x="48.394531"/>
       <use xlink:href="#DejaVuSans-6c" x="109.673828"/>
       <use xlink:href="#DejaVuSans-73" x="137.457031"/>
       <use xlink:href="#DejaVuSans-65" x="189.556641"/>
      </g>
     </g>
    </g>
    <g id="xtick_11">
     <g id="line2d_71">
      <path d="M 781.681711 465.764082 
L 781.681711 253.674082 
" clip-path="url(#p11558606c9)" style="fill: none; stroke: #ffffff; stroke-linecap: square"/>
     </g>
     <g id="line2d_72">
      <path d="M 781.681711 465.764082 
" style="fill: none; stroke: #333333; stroke-width: 1.5; stroke-linecap: square"/>
      <g>
       <use xlink:href="#m300e7222e8" x="781.681711" y="465.764082" style="fill: #333333; stroke: #000000"/>
      </g>
     </g>
     <g id="text_28">
      <!-- True -->
      <g style="fill: #4d4d4d" transform="translate(772.338586 477.400707)scale(0.088 -0.088)">
       <use xlink:href="#DejaVuSans-54"/>
       <use xlink:href="#DejaVuSans-72" x="46.333984"/>
       <use xlink:href="#DejaVuSans-75" x="87.447266"/>
       <use xlink:href="#DejaVuSans-65" x="150.826172"/>
      </g>
     </g>
    </g>
    <g id="xtick_12">
     <g id="line2d_73">
      <path d="M 651.914269 465.764082 
L 651.914269 253.674082 
" clip-path="url(#p11558606c9)" style="fill: none; stroke: #ffffff; stroke-width: 0.5; stroke-linecap: square"/>
     </g>
    </g>
    <g id="text_29">
     <!-- Concatenate with previous layer -->
     <g transform="translate(341.142594 491.989114)scale(0.11 -0.11)">
      <defs>
       <path id="DejaVuSans-77" d="M 269 3500 
L 844 3500 
L 1563 769 
L 2278 3500 
L 2956 3500 
L 3675 769 
L 4391 3500 
L 4966 3500 
L 4050 0 
L 3372 0 
L 2619 2869 
L 1863 0 
L 1184 0 
L 269 3500 
z
" transform="scale(0.015625)"/>
       <path id="DejaVuSans-70" d="M 1159 525 
L 1159 -1331 
L 581 -1331 
L 581 3500 
L 1159 3500 
L 1159 2969 
Q 1341 3281 1617 3432 
Q 1894 3584 2278 3584 
Q 2916 3584 3314 3078 
Q 3713 2572 3713 1747 
Q 3713 922 3314 415 
Q 2916 -91 2278 -91 
Q 1894 -91 1617 61 
Q 1341 213 1159 525 
z
M 3116 1747 
Q 3116 2381 2855 2742 
Q 2594 3103 2138 3103 
Q 1681 3103 1420 2742 
Q 1159 2381 1159 1747 
Q 1159 1113 1420 752 
Q 1681 391 2138 391 
Q 2594 391 2855 752 
Q 3116 1113 3116 1747 
z
" transform="scale(0.015625)"/>
      </defs>
      <use xlink:href="#DejaVuSans-43"/>
      <use xlink:href="#DejaVuSans-6f" x="69.824219"/>
      <use xlink:href="#DejaVuSans-6e" x="131.005859"/>
      <use xlink:href="#DejaVuSans-63" x="194.384766"/>
      <use xlink:href="#DejaVuSans-61" x="249.365234"/>
      <use xlink:href="#DejaVuSans-74" x="310.644531"/>
      <use xlink:href="#DejaVuSans-65" x="349.853516"/>
      <use xlink:href="#DejaVuSans-6e" x="411.376953"/>
      <use xlink:href="#DejaVuSans-61" x="474.755859"/>
      <use xlink:href="#DejaVuSans-74" x="536.035156"/>
      <use xlink:href="#DejaVuSans-65" x="575.244141"/>
      <use xlink:href="#DejaVuSans-20" x="636.767578"/>
      <use xlink:href="#DejaVuSans-77" x="668.554688"/>
      <use xlink:href="#DejaVuSans-69" x="750.341797"/>
      <use xlink:href="#DejaVuSans-74" x="778.125"/>
      <use xlink:href="#DejaVuSans-68" x="817.333984"/>
      <use xlink:href="#DejaVuSans-20" x="880.712891"/>
      <use xlink:href="#DejaVuSans-70" x="912.5"/>
      <use xlink:href="#DejaVuSans-72" x="975.976562"/>
      <use xlink:href="#DejaVuSans-65" x="1014.839844"/>
      <use xlink:href="#DejaVuSans-76" x="1076.363281"/>
      <use xlink:href="#DejaVuSans-69" x="1135.542969"/>
      <use xlink:href="#DejaVuSans-6f" x="1163.326172"/>
      <use xlink:href="#DejaVuSans-75" x="1224.507812"/>
      <use xlink:href="#DejaVuSans-73" x="1287.886719"/>
      <use xlink:href="#DejaVuSans-20" x="1339.986328"/>
      <use xlink:href="#DejaVuSans-6c" x="1371.773438"/>
      <use xlink:href="#DejaVuSans-61" x="1399.556641"/>
      <use xlink:href="#DejaVuSans-79" x="1460.835938"/>
      <use xlink:href="#DejaVuSans-65" x="1520.015625"/>
      <use xlink:href="#DejaVuSans-72" x="1581.539062"/>
     </g>
    </g>
   </g>
   <g id="matplotlib.axis_8">
    <g id="ytick_29">
     <g id="line2d_74">
      <path d="M 470.23985 425.32597 
L 833.588688 425.32597 
" clip-path="url(#p11558606c9)" style="fill: none; stroke: #ffffff; stroke-linecap: square"/>
     </g>
     <g id="line2d_75">
      <path d="M 470.23985 425.32597 
" style="fill: none; stroke: #333333; stroke-width: 1.5; stroke-linecap: square"/>
      <g>
       <use xlink:href="#md4e1fc7222" x="470.23985" y="425.32597" style="fill: #333333; stroke: #000000"/>
      </g>
     </g>
     <g id="text_30">
      <!-- 0.6500 -->
      <g style="fill: #4d4d4d" transform="translate(434.4981 427.75422)scale(0.088 -0.088)">
       <use xlink:href="#DejaVuSans-30"/>
       <use xlink:href="#DejaVuSans-2e" x="63.623047"/>
       <use xlink:href="#DejaVuSans-36" x="95.410156"/>
       <use xlink:href="#DejaVuSans-35" x="159.033203"/>
       <use xlink:href="#DejaVuSans-30" x="222.65625"/>
       <use xlink:href="#DejaVuSans-30" x="286.279297"/>
      </g>
     </g>
    </g>
    <g id="ytick_30">
     <g id="line2d_76">
      <path d="M 470.23985 370.416694 
L 833.588688 370.416694 
" clip-path="url(#p11558606c9)" style="fill: none; stroke: #ffffff; stroke-linecap: square"/>
     </g>
     <g id="line2d_77">
      <path d="M 470.23985 370.416694 
" style="fill: none; stroke: #333333; stroke-width: 1.5; stroke-linecap: square"/>
      <g>
       <use xlink:href="#md4e1fc7222" x="470.23985" y="370.416694" style="fill: #333333; stroke: #000000"/>
      </g>
     </g>
     <g id="text_31">
      <!-- 0.6525 -->
      <g style="fill: #4d4d4d" transform="translate(434.4981 372.844944)scale(0.088 -0.088)">
       <use xlink:href="#DejaVuSans-30"/>
       <use xlink:href="#DejaVuSans-2e" x="63.623047"/>
       <use xlink:href="#DejaVuSans-36" x="95.410156"/>
       <use xlink:href="#DejaVuSans-35" x="159.033203"/>
       <use xlink:href="#DejaVuSans-32" x="222.65625"/>
       <use xlink:href="#DejaVuSans-35" x="286.279297"/>
      </g>
     </g>
    </g>
    <g id="ytick_31">
     <g id="line2d_78">
      <path d="M 470.23985 315.507418 
L 833.588688 315.507418 
" clip-path="url(#p11558606c9)" style="fill: none; stroke: #ffffff; stroke-linecap: square"/>
     </g>
     <g id="line2d_79">
      <path d="M 470.23985 315.507418 
" style="fill: none; stroke: #333333; stroke-width: 1.5; stroke-linecap: square"/>
      <g>
       <use xlink:href="#md4e1fc7222" x="470.23985" y="315.507418" style="fill: #333333; stroke: #000000"/>
      </g>
     </g>
     <g id="text_32">
      <!-- 0.6550 -->
      <g style="fill: #4d4d4d" transform="translate(434.4981 317.935668)scale(0.088 -0.088)">
       <use xlink:href="#DejaVuSans-30"/>
       <use xlink:href="#DejaVuSans-2e" x="63.623047"/>
       <use xlink:href="#DejaVuSans-36" x="95.410156"/>
       <use xlink:href="#DejaVuSans-35" x="159.033203"/>
       <use xlink:href="#DejaVuSans-35" x="222.65625"/>
       <use xlink:href="#DejaVuSans-30" x="286.279297"/>
      </g>
     </g>
    </g>
    <g id="ytick_32">
     <g id="line2d_80">
      <path d="M 470.23985 260.598142 
L 833.588688 260.598142 
" clip-path="url(#p11558606c9)" style="fill: none; stroke: #ffffff; stroke-linecap: square"/>
     </g>
     <g id="line2d_81">
      <path d="M 470.23985 260.598142 
" style="fill: none; stroke: #333333; stroke-width: 1.5; stroke-linecap: square"/>
      <g>
       <use xlink:href="#md4e1fc7222" x="470.23985" y="260.598142" style="fill: #333333; stroke: #000000"/>
      </g>
     </g>
     <g id="text_33">
      <!-- 0.6575 -->
      <g style="fill: #4d4d4d" transform="translate(434.4981 263.026392)scale(0.088 -0.088)">
       <use xlink:href="#DejaVuSans-30"/>
       <use xlink:href="#DejaVuSans-2e" x="63.623047"/>
       <use xlink:href="#DejaVuSans-36" x="95.410156"/>
       <use xlink:href="#DejaVuSans-35" x="159.033203"/>
       <use xlink:href="#DejaVuSans-37" x="222.65625"/>
       <use xlink:href="#DejaVuSans-35" x="286.279297"/>
      </g>
     </g>
    </g>
    <g id="ytick_33">
     <g id="line2d_82">
      <path d="M 470.23985 452.780608 
L 833.588688 452.780608 
" clip-path="url(#p11558606c9)" style="fill: none; stroke: #ffffff; stroke-width: 0.5; stroke-linecap: square"/>
     </g>
    </g>
    <g id="ytick_34">
     <g id="line2d_83">
      <path d="M 470.23985 397.871332 
L 833.588688 397.871332 
" clip-path="url(#p11558606c9)" style="fill: none; stroke: #ffffff; stroke-width: 0.5; stroke-linecap: square"/>
     </g>
    </g>
    <g id="ytick_35">
     <g id="line2d_84">
      <path d="M 470.23985 342.962056 
L 833.588688 342.962056 
" clip-path="url(#p11558606c9)" style="fill: none; stroke: #ffffff; stroke-width: 0.5; stroke-linecap: square"/>
     </g>
    </g>
    <g id="ytick_36">
     <g id="line2d_85">
      <path d="M 470.23985 288.05278 
L 833.588688 288.05278 
" clip-path="url(#p11558606c9)" style="fill: none; stroke: #ffffff; stroke-width: 0.5; stroke-linecap: square"/>
     </g>
    </g>
   </g>
   <g id="line2d_86">
    <path d="M 522.146827 455.006672 
L 781.681711 456.123628 
" clip-path="url(#p11558606c9)" style="fill: none; stroke: #db5f57; stroke-width: 0.886227"/>
   </g>
   <g id="line2d_87">
    <path d="M 522.146827 308.061486 
L 781.681711 315.878985 
" clip-path="url(#p11558606c9)" style="fill: none; stroke: #57d3db; stroke-width: 0.886227"/>
   </g>
   <g id="line2d_88">
    <path d="M 522.146827 276.733012 
L 781.681711 263.314537 
" clip-path="url(#p11558606c9)" style="fill: none; stroke-dasharray: 3.27904,1.417963; stroke-dashoffset: 0; stroke: #57d3db; stroke-width: 0.886227"/>
   </g>
   <g id="PathCollection_4">
    <path d="M 522.146827 456.779126 
C 522.616887 456.779126 523.067758 456.592369 523.400141 456.259986 
C 523.732524 455.927604 523.919281 455.476733 523.919281 455.006672 
C 523.919281 454.536612 523.732524 454.085741 523.400141 453.753358 
C 523.067758 453.420975 522.616887 453.234218 522.146827 453.234218 
C 521.676767 453.234218 521.225896 453.420975 520.893513 453.753358 
C 520.56113 454.085741 520.374373 454.536612 520.374373 455.006672 
C 520.374373 455.476733 520.56113 455.927604 520.893513 456.259986 
C 521.225896 456.592369 521.676767 456.779126 522.146827 456.779126 
z
" clip-path="url(#p11558606c9)" style="fill: #db5f57; stroke: #db5f57; stroke-width: 0.886227"/>
    <path d="M 522.146827 309.83394 
C 522.616887 309.83394 523.067758 309.647183 523.400141 309.3148 
C 523.732524 308.982417 523.919281 308.531546 523.919281 308.061486 
C 523.919281 307.591426 523.732524 307.140554 523.400141 306.808172 
C 523.067758 306.475789 522.616887 306.289032 522.146827 306.289032 
C 521.676767 306.289032 521.225896 306.475789 520.893513 306.808172 
C 520.56113 307.140554 520.374373 307.591426 520.374373 308.061486 
C 520.374373 308.531546 520.56113 308.982417 520.893513 309.3148 
C 521.225896 309.647183 521.676767 309.83394 522.146827 309.83394 
z
" clip-path="url(#p11558606c9)" style="fill: #57d3db; stroke: #57d3db; stroke-width: 0.886227"/>
    <path d="M 522.146827 278.505466 
C 522.616887 278.505466 523.067758 278.318709 523.400141 277.986326 
C 523.732524 277.653944 523.919281 277.203073 523.919281 276.733012 
C 523.919281 276.262952 523.732524 275.812081 523.400141 275.479698 
C 523.067758 275.147315 522.616887 274.960558 522.146827 274.960558 
C 521.676767 274.960558 521.225896 275.147315 520.893513 275.479698 
C 520.56113 275.812081 520.374373 276.262952 520.374373 276.733012 
C 520.374373 277.203073 520.56113 277.653944 520.893513 277.986326 
C 521.225896 278.318709 521.676767 278.505466 522.146827 278.505466 
z
" clip-path="url(#p11558606c9)" style="fill: #57d3db; stroke: #57d3db; stroke-width: 0.886227"/>
    <path d="M 781.681711 457.896082 
C 782.151771 457.896082 782.602642 457.709325 782.935025 457.376942 
C 783.267408 457.044559 783.454165 456.593688 783.454165 456.123628 
C 783.454165 455.653568 783.267408 455.202696 782.935025 454.870314 
C 782.602642 454.537931 782.151771 454.351174 781.681711 454.351174 
C 781.21165 454.351174 780.760779 454.537931 780.428397 454.870314 
C 780.096014 455.202696 779.909257 455.653568 779.909257 456.123628 
C 779.909257 456.593688 780.096014 457.044559 780.428397 457.376942 
C 780.760779 457.709325 781.21165 457.896082 781.681711 457.896082 
z
" clip-path="url(#p11558606c9)" style="fill: #db5f57; stroke: #db5f57; stroke-width: 0.886227"/>
    <path d="M 781.681711 317.651439 
C 782.151771 317.651439 782.602642 317.464682 782.935025 317.1323 
C 783.267408 316.799917 783.454165 316.349046 783.454165 315.878985 
C 783.454165 315.408925 783.267408 314.958054 782.935025 314.625671 
C 782.602642 314.293288 782.151771 314.106532 781.681711 314.106532 
C 781.21165 314.106532 780.760779 314.293288 780.428397 314.625671 
C 780.096014 314.958054 779.909257 315.408925 779.909257 315.878985 
C 779.909257 316.349046 780.096014 316.799917 780.428397 317.1323 
C 780.760779 317.464682 781.21165 317.651439 781.681711 317.651439 
z
" clip-path="url(#p11558606c9)" style="fill: #57d3db; stroke: #57d3db; stroke-width: 0.886227"/>
    <path d="M 781.681711 265.086991 
C 782.151771 265.086991 782.602642 264.900234 782.935025 264.567851 
C 783.267408 264.235468 783.454165 263.784597 783.454165 263.314537 
C 783.454165 262.844477 783.267408 262.393606 782.935025 262.061223 
C 782.602642 261.72884 782.151771 261.542083 781.681711 261.542083 
C 781.21165 261.542083 780.760779 261.72884 780.428397 262.061223 
C 780.096014 262.393606 779.909257 262.844477 779.909257 263.314537 
C 779.909257 263.784597 780.096014 264.235468 780.428397 264.567851 
C 780.760779 264.900234 781.21165 265.086991 781.681711 265.086991 
z
" clip-path="url(#p11558606c9)" style="fill: #57d3db; stroke: #57d3db; stroke-width: 0.886227"/>
   </g>
   <g id="patch_14">
    <path d="M 470.23985 253.674082 
L 833.588688 253.674082 
L 833.588688 238.63 
L 470.23985 238.63 
z
" style="fill: #d9d9d9"/>
   </g>
   <g id="text_34">
    <!-- F1 score: &gt;50K -->
    <g style="fill: #1a1a1a" transform="translate(618.312706 248.580291)scale(0.088 -0.088)">
     <defs>
      <path id="DejaVuSans-3e" d="M 678 3150 
L 678 3719 
L 4684 2266 
L 4684 1747 
L 678 294 
L 678 863 
L 3897 2003 
L 678 3150 
z
" transform="scale(0.015625)"/>
     </defs>
     <use xlink:href="#DejaVuSans-46"/>
     <use xlink:href="#DejaVuSans-31" x="57.519531"/>
     <use xlink:href="#DejaVuSans-20" x="121.142578"/>
     <use xlink:href="#DejaVuSans-73" x="152.929688"/>
     <use xlink:href="#DejaVuSans-63" x="205.029297"/>
     <use xlink:href="#DejaVuSans-6f" x="260.009766"/>
     <use xlink:href="#DejaVuSans-72" x="321.191406"/>
     <use xlink:href="#DejaVuSans-65" x="360.054688"/>
     <use xlink:href="#DejaVuSans-3a" x="421.578125"/>
     <use xlink:href="#DejaVuSans-20" x="455.269531"/>
     <use xlink:href="#DejaVuSans-3e" x="487.056641"/>
     <use xlink:href="#DejaVuSans-35" x="570.845703"/>
     <use xlink:href="#DejaVuSans-30" x="634.46875"/>
     <use xlink:href="#DejaVuSans-4b" x="698.091797"/>
    </g>
   </g>
  </g>
 </g>
 <defs>
  <clipPath id="p0ac68f27c4">
   <rect x="52.388688" y="22.244082" width="363.348837" height="212.09"/>
  </clipPath>
  <clipPath id="pdd3387ab8c">
   <path d="M 852.988688 218.284082 
L 852.988688 202.444082 
L 868.828688 202.444082 
L 868.828688 218.284082 
"/>
  </clipPath>
  <clipPath id="pecc99afca9">
   <path d="M 852.988688 236.124082 
L 852.988688 220.284082 
L 868.828688 220.284082 
L 868.828688 236.124082 
"/>
  </clipPath>
  <clipPath id="p9d0a2dd913">
   <path d="M 852.988688 277.01002 
L 852.988688 261.17002 
L 868.828688 261.17002 
L 868.828688 277.01002 
"/>
  </clipPath>
  <clipPath id="p1e24b23ec3">
   <path d="M 852.988688 294.85002 
L 852.988688 279.01002 
L 868.828688 279.01002 
L 868.828688 294.85002 
"/>
  </clipPath>
  <clipPath id="p80e313f297">
   <rect x="470.23985" y="22.244082" width="363.348837" height="212.09"/>
  </clipPath>
  <clipPath id="p2a54e91060">
   <rect x="52.388688" y="253.674082" width="363.348837" height="212.09"/>
  </clipPath>
  <clipPath id="p11558606c9">
   <rect x="470.23985" y="253.674082" width="363.348837" height="212.09"/>
  </clipPath>
 </defs>
</svg>
